<?xml version="1.0" encoding="UTF-8" standalone="no"?><svg xmlns="http://www.w3.org/2000/svg" xmlns:xlink="http://www.w3.org/1999/xlink" contentScriptType="application/ecmascript" contentStyleType="text/css" height="237px" preserveAspectRatio="none" style="width:233px;height:237px;" version="1.1" viewBox="0 0 233 237" width="233px" zoomAndPan="magnify"><defs><filter height="300%" id="fw90z18m49oz2" width="300%" x="-1" y="-1"><feGaussianBlur result="blurOut" stdDeviation="2.0"/><feColorMatrix in="blurOut" result="blurOut2" type="matrix" values="0 0 0 0 0 0 0 0 0 0 0 0 0 0 0 0 0 0 .4 0"/><feOffset dx="4.0" dy="4.0" in="blurOut2" result="blurOut3"/><feBlend in="SourceGraphic" in2="blurOut3" mode="normal"/></filter></defs><g><!--MD5=[ffc5be663b836e51b359399c7cb5be3f]
class com.ibm.fhir.database.utils.query.FromItemTable--><a href="FromItemTable.html" target="_top" title="FromItemTable.html" xlink:actuate="onRequest" xlink:href="FromItemTable.html" xlink:show="new" xlink:title="FromItemTable.html" xlink:type="simple"><rect fill="#FEFECE" filter="url(#fw90z18m49oz2)" height="98.0859" id="com.ibm.fhir.database.utils.query.FromItemTable" style="stroke: #A80036; stroke-width: 1.5;" width="216" x="6" y="106"/><ellipse cx="30.45" cy="125.1328" fill="#ADD1B2" rx="11" ry="11" style="stroke: #A80036; stroke-width: 1.0;"/><path d="M32.9231,131.2759 Q32.3421,131.5747 31.7029,131.7241 Q31.0638,131.8735 30.3582,131.8735 Q27.8514,131.8735 26.5315,130.2217 Q25.2117,128.5698 25.2117,125.4487 Q25.2117,122.3193 26.5315,120.6675 Q27.8514,119.0156 30.3582,119.0156 Q31.0638,119.0156 31.7112,119.165 Q32.3587,119.3145 32.9231,119.6133 L32.9231,122.3359 Q32.2923,121.7549 31.6988,121.4851 Q31.1053,121.2153 30.4744,121.2153 Q29.1297,121.2153 28.4449,122.282 Q27.7601,123.3486 27.7601,125.4487 Q27.7601,127.5405 28.4449,128.6072 Q29.1297,129.6738 30.4744,129.6738 Q31.1053,129.6738 31.6988,129.4041 Q32.2923,129.1343 32.9231,128.5532 Z "/><text fill="#000000" font-family="sans-serif" font-size="14" lengthAdjust="spacingAndGlyphs" textLength="104" x="76.05" y="124.5352">FromItemTable</text><text fill="#000000" font-family="sans-serif" font-size="10" lengthAdjust="spacingAndGlyphs" textLength="163" x="46.55" y="137.1563">com.ibm.fhir.database.utils.query</text><line style="stroke: #A80036; stroke-width: 1.5;" x1="7" x2="221" y1="144.2656" y2="144.2656"/><polygon fill="#FFFF44" points="17,150.2656,21,154.2656,17,158.2656,13,154.2656" style="stroke: #B38D22; stroke-width: 1.0;"/><text fill="#000000" font-family="sans-serif" font-size="11" lengthAdjust="spacingAndGlyphs" textLength="120" x="26" y="158.9004">FromItemTable(String)</text><polygon fill="#FFFF44" points="17,163.2207,21,167.2207,17,171.2207,13,167.2207" style="stroke: #B38D22; stroke-width: 1.0;"/><text fill="#000000" font-family="sans-serif" font-size="11" lengthAdjust="spacingAndGlyphs" textLength="152" x="26" y="171.8555">FromItemTable(String, Alias)</text><polygon fill="#FFFF44" points="17,176.1758,21,180.1758,17,184.1758,13,180.1758" style="stroke: #B38D22; stroke-width: 1.0;"/><text fill="#000000" font-family="sans-serif" font-size="11" lengthAdjust="spacingAndGlyphs" textLength="190" x="26" y="184.8105">FromItemTable(String, String, Alias)</text><polygon fill="#FFFF44" points="17,189.1309,21,193.1309,17,197.1309,13,193.1309" style="stroke: #B38D22; stroke-width: 1.0;"/><text fill="#000000" font-family="sans-serif" font-size="11" lengthAdjust="spacingAndGlyphs" textLength="158" x="26" y="197.7656">FromItemTable(String, String)</text></a><!--MD5=[580cc5ab27068c49936598c0ca923ea2]
class com.ibm.fhir.database.utils.query.FromItem--><a href="FromItem.html" target="_top" title="FromItem.html" xlink:actuate="onRequest" xlink:href="FromItem.html" xlink:show="new" xlink:title="FromItem.html" xlink:type="simple"><rect fill="#FEFECE" filter="url(#fw90z18m49oz2)" height="38.2656" id="com.ibm.fhir.database.utils.query.FromItem" style="stroke: #A80036; stroke-width: 1.5;" width="195" x="16.5" y="8"/><ellipse cx="31.5" cy="27.1328" fill="#ADD1B2" rx="11" ry="11" style="stroke: #A80036; stroke-width: 1.0;"/><path d="M33.9731,33.2759 Q33.3921,33.5747 32.7529,33.7241 Q32.1138,33.8735 31.4082,33.8735 Q28.9014,33.8735 27.5815,32.2217 Q26.2617,30.5698 26.2617,27.4487 Q26.2617,24.3193 27.5815,22.6675 Q28.9014,21.0156 31.4082,21.0156 Q32.1138,21.0156 32.7612,21.165 Q33.4087,21.3145 33.9731,21.6133 L33.9731,24.3359 Q33.3423,23.7549 32.7488,23.4851 Q32.1553,23.2153 31.5244,23.2153 Q30.1797,23.2153 29.4949,24.282 Q28.8101,25.3486 28.8101,27.4487 Q28.8101,29.5405 29.4949,30.6072 Q30.1797,31.6738 31.5244,31.6738 Q32.1553,31.6738 32.7488,31.4041 Q33.3423,31.1343 33.9731,30.5532 Z "/><text fill="#000000" font-family="sans-serif" font-size="14" lengthAdjust="spacingAndGlyphs" textLength="66" x="94" y="26.5352">FromItem</text><text fill="#000000" font-family="sans-serif" font-size="10" lengthAdjust="spacingAndGlyphs" textLength="163" x="45.5" y="39.1563">com.ibm.fhir.database.utils.query</text></a><!--MD5=[47c9a53e392703029ad8aa3370cfced5]
reverse link com.ibm.fhir.database.utils.query.FromItem to com.ibm.fhir.database.utils.query.FromItemTable--><path d="M114,66.4693 C114,78.9024 114,92.7909 114,105.8136 " fill="none" id="com.ibm.fhir.database.utils.query.FromItem&lt;-com.ibm.fhir.database.utils.query.FromItemTable" style="stroke: #A80036; stroke-width: 1.0;"/><polygon fill="none" points="107.0001,66.1629,114,46.1629,121.0001,66.1629,107.0001,66.1629" style="stroke: #A80036; stroke-width: 1.0;"/><text fill="#888888" font-family="sans-serif" font-size="10" lengthAdjust="spacingAndGlyphs" textLength="182" x="29" y="223.668">UMLDoclet 2.0.7, PlantUML 1.2019.12</text><!--MD5=[3910e8a6ec9c5cdd59b59120fe8edcfd]
@startuml
    set namespaceSeparator none
    hide empty fields
    hide empty methods

    class "<size:14>FromItemTable\n<size:10>com.ibm.fhir.database.utils.query" as com.ibm.fhir.database.utils.query.FromItemTable [[FromItemTable.html]] {
        #FromItemTable(String)
        #FromItemTable(String, Alias)
        #FromItemTable(String, String, Alias)
        #FromItemTable(String, String)
    }

    class "<size:14>FromItem\n<size:10>com.ibm.fhir.database.utils.query" as com.ibm.fhir.database.utils.query.FromItem [[FromItem.html]]

    com.ibm.fhir.database.utils.query.FromItem <|- - com.ibm.fhir.database.utils.query.FromItemTable

    center footer UMLDoclet 2.0.7, PlantUML 1.2019.12
@enduml

PlantUML version 1.2019.12(Sun Nov 03 05:24:54 EST 2019)
(APACHE source distribution)
Java Runtime: OpenJDK Runtime Environment
JVM: OpenJDK 64-Bit Server VM
Java Version: 11.0.4+11
Operating System: Mac OS X
Default Encoding: UTF-8
Language: en
Country: US
--></g></svg>