<?xml version="1.0" encoding="UTF-8" standalone="no"?><svg xmlns="http://www.w3.org/2000/svg" xmlns:xlink="http://www.w3.org/1999/xlink" contentScriptType="application/ecmascript" contentStyleType="text/css" height="568px" preserveAspectRatio="none" style="width:1995px;height:568px;" version="1.1" viewBox="0 0 1995 568" width="1995px" zoomAndPan="magnify"><defs><filter height="300%" id="fxnssrhxpp9om" width="300%" x="-1" y="-1"><feGaussianBlur result="blurOut" stdDeviation="2.0"/><feColorMatrix in="blurOut" result="blurOut2" type="matrix" values="0 0 0 0 0 0 0 0 0 0 0 0 0 0 0 0 0 0 .4 0"/><feOffset dx="4.0" dy="4.0" in="blurOut2" result="blurOut3"/><feBlend in="SourceGraphic" in2="blurOut3" mode="normal"/></filter></defs><g><!--MD5=[e80583ced3f251ea0ff6ce3adfd43c7f]
cluster com.ibm.fhir.jbatch.bulkdata.export.system--><polygon fill="#FFFFFF" filter="url(#fxnssrhxpp9om)" points="14,150,362,150,369,172.2969,1973,172.2969,1973,528,14,528,14,150" style="stroke: #000000; stroke-width: 1.5;"/><line style="stroke: #000000; stroke-width: 1.5;" x1="14" x2="369" y1="172.2969" y2="172.2969"/><text fill="#000000" font-family="sans-serif" font-size="14" font-weight="bold" lengthAdjust="spacingAndGlyphs" textLength="342" x="18" y="164.9951">com.ibm.fhir.jbatch.bulkdata.export.system</text><!--MD5=[61fe05900995e506476dd9053fb879ec]
cluster javax.batch.api.chunk--><polygon fill="#FFFFFF" filter="url(#fxnssrhxpp9om)" points="137,22.5,313,22.5,320,44.7969,544,44.7969,544,118.5,137,118.5,137,22.5" style="stroke: #000000; stroke-width: 1.5;"/><line style="stroke: #000000; stroke-width: 1.5;" x1="137" x2="320" y1="44.7969" y2="44.7969"/><text fill="#000000" font-family="sans-serif" font-size="14" font-weight="bold" lengthAdjust="spacingAndGlyphs" textLength="170" x="141" y="37.4951">javax.batch.api.chunk</text><!--MD5=[341d2e2c601816b731e974ba8ab9a24f]
cluster javax.batch.api.listener--><polygon fill="#FFFFFF" filter="url(#fxnssrhxpp9om)" points="954,16,1142,16,1149,38.2969,1152,38.2969,1152,125,954,125,954,16" style="stroke: #000000; stroke-width: 1.5;"/><line style="stroke: #000000; stroke-width: 1.5;" x1="954" x2="1149" y1="38.2969" y2="38.2969"/><text fill="#000000" font-family="sans-serif" font-size="14" font-weight="bold" lengthAdjust="spacingAndGlyphs" textLength="182" x="958" y="30.9951">javax.batch.api.listener</text><!--MD5=[dd702ba299ff838c61d7b9011e754e3e]
cluster javax.batch.api.partition--><polygon fill="#FFFFFF" filter="url(#fxnssrhxpp9om)" points="1225,16,1419,16,1426,38.2969,1972,38.2969,1972,125,1225,125,1225,16" style="stroke: #000000; stroke-width: 1.5;"/><line style="stroke: #000000; stroke-width: 1.5;" x1="1225" x2="1426" y1="38.2969" y2="38.2969"/><text fill="#000000" font-family="sans-serif" font-size="14" font-weight="bold" lengthAdjust="spacingAndGlyphs" textLength="188" x="1229" y="30.9951">javax.batch.api.partition</text><!--MD5=[cb55e26b75ebdf42daa91f3ce7ca043c]
class com.ibm.fhir.jbatch.bulkdata.export.system.ChunkReader--><a href="ChunkReader.html" target="_top" title="ChunkReader.html" xlink:actuate="onRequest" xlink:href="ChunkReader.html" xlink:show="new" xlink:title="ChunkReader.html" xlink:type="simple"><rect fill="#FEFECE" filter="url(#fxnssrhxpp9om)" height="342.5078" id="com.ibm.fhir.jbatch.bulkdata.export.system.ChunkReader" style="stroke: #A80036; stroke-width: 1.5;" width="643" x="256.5" y="177"/><ellipse cx="531.75" cy="193" fill="#ADD1B2" rx="11" ry="11" style="stroke: #A80036; stroke-width: 1.0;"/><path d="M534.7188,198.6406 Q534.1406,198.9375 533.5,199.0781 Q532.8594,199.2344 532.1563,199.2344 Q529.6563,199.2344 528.3281,197.5938 Q527.0156,195.9375 527.0156,192.8125 Q527.0156,189.6875 528.3281,188.0313 Q529.6563,186.375 532.1563,186.375 Q532.8594,186.375 533.5,186.5313 Q534.1563,186.6875 534.7188,186.9844 L534.7188,189.7031 Q534.0938,189.125 533.5,188.8594 Q532.9063,188.5781 532.2813,188.5781 Q530.9375,188.5781 530.25,189.6563 Q529.5625,190.7188 529.5625,192.8125 Q529.5625,194.9063 530.25,195.9844 Q530.9375,197.0469 532.2813,197.0469 Q532.9063,197.0469 533.5,196.7813 Q534.0938,196.5 534.7188,195.9219 L534.7188,198.6406 Z "/><text fill="#000000" font-family="sans-serif" font-size="12" lengthAdjust="spacingAndGlyphs" textLength="84" x="552.25" y="197.1543">ChunkReader</text><line style="stroke: #A80036; stroke-width: 1.5;" x1="257.5" x2="898.5" y1="209" y2="209"/><polygon fill="none" points="267.5,216,263.5,222,271.5,222" style="stroke: #1963A0; stroke-width: 1.0;"/><text fill="#000000" font-family="sans-serif" font-size="11" lengthAdjust="spacingAndGlyphs" textLength="156" x="276.5" y="223.2104">isSingleCosObject: boolean</text><polygon fill="none" points="267.5,228.8047,263.5,234.8047,271.5,234.8047" style="stroke: #1963A0; stroke-width: 1.0;"/><text fill="#000000" font-family="sans-serif" font-size="11" lengthAdjust="spacingAndGlyphs" textLength="76" x="276.5" y="236.0151">pageNum: int</text><polygon fill="none" points="267.5,241.6094,263.5,247.6094,271.5,247.6094" style="stroke: #1963A0; stroke-width: 1.0;"/><text fill="#000000" font-family="sans-serif" font-size="11" lengthAdjust="spacingAndGlyphs" textLength="73" x="276.5" y="248.8198">pageSize: int</text><polygon fill="none" points="267.5,254.4141,263.5,260.4141,271.5,260.4141" style="stroke: #1963A0; stroke-width: 1.0;"/><text fill="#000000" font-family="sans-serif" font-size="11" lengthAdjust="spacingAndGlyphs" textLength="617" x="276.5" y="261.6245">searchParametersForResoureTypes: Map&lt;Class&lt;? extends Resource&gt;, List&lt;Map&lt;String, List&lt;String&gt;&gt;&gt;&gt;</text><polygon fill="none" points="267.5,267.2188,263.5,273.2188,271.5,273.2188" style="stroke: #1963A0; stroke-width: 1.0;"/><text fill="#000000" font-family="sans-serif" font-size="11" lengthAdjust="spacingAndGlyphs" textLength="163" x="276.5" y="274.4292">indexOfCurrentTypeFilter: int</text><polygon fill="none" points="267.5,280.0234,263.5,286.0234,271.5,286.0234" style="stroke: #1963A0; stroke-width: 1.0;"/><text fill="#000000" font-family="sans-serif" font-size="11" lengthAdjust="spacingAndGlyphs" textLength="187" x="276.5" y="287.2339">loadedResourceIds: Set&lt;String&gt;</text><polygon fill="none" points="267.5,292.8281,263.5,298.8281,271.5,298.8281" style="stroke: #1963A0; stroke-width: 1.0;"/><text fill="#000000" font-family="sans-serif" font-size="11" lengthAdjust="spacingAndGlyphs" textLength="174" x="276.5" y="300.0386">isDoDuplicationCheck: boolean</text><polygon fill="none" points="267.5,305.6328,263.5,311.6328,271.5,311.6328" style="stroke: #1963A0; stroke-width: 1.0;"/><text fill="#000000" font-family="sans-serif" font-size="11" lengthAdjust="spacingAndGlyphs" textLength="185" x="276.5" y="312.8433">fhirPersistence: FHIRPersistence</text><polygon fill="none" points="267.5,318.4375,263.5,324.4375,271.5,324.4375" style="stroke: #1963A0; stroke-width: 1.0;"/><text fill="#000000" font-family="sans-serif" font-size="11" lengthAdjust="spacingAndGlyphs" textLength="248" x="276.5" y="325.6479">resourceType: Class&lt;? extends Resource&gt;</text><polygon fill="none" points="267.5,331.2422,263.5,337.2422,271.5,337.2422" style="stroke: #1963A0; stroke-width: 1.0;"/><text fill="#000000" font-family="sans-serif" font-size="11" lengthAdjust="spacingAndGlyphs" textLength="100" x="276.5" y="338.4526">fhirTenant: String</text><polygon fill="none" points="267.5,344.0469,263.5,350.0469,271.5,350.0469" style="stroke: #1963A0; stroke-width: 1.0;"/><text fill="#000000" font-family="sans-serif" font-size="11" lengthAdjust="spacingAndGlyphs" textLength="127" x="276.5" y="351.2573">fhirDatastoreId: String</text><polygon fill="none" points="267.5,356.8516,263.5,362.8516,271.5,362.8516" style="stroke: #1963A0; stroke-width: 1.0;"/><text fill="#000000" font-family="sans-serif" font-size="11" lengthAdjust="spacingAndGlyphs" textLength="141" x="276.5" y="364.062">fhirResourceType: String</text><polygon fill="none" points="267.5,368.6563,271.5,372.6563,267.5,376.6563,263.5,372.6563" style="stroke: #B38D22; stroke-width: 1.0;"/><text fill="#000000" font-family="sans-serif" font-size="11" lengthAdjust="spacingAndGlyphs" textLength="137" x="276.5" y="376.8667">fhirExportFormat: String</text><polygon fill="none" points="267.5,382.4609,263.5,388.4609,271.5,388.4609" style="stroke: #1963A0; stroke-width: 1.0;"/><text fill="#000000" font-family="sans-serif" font-size="11" lengthAdjust="spacingAndGlyphs" textLength="156" x="276.5" y="389.6714">fhirSearchFromDate: String</text><polygon fill="none" points="267.5,395.2656,263.5,401.2656,271.5,401.2656" style="stroke: #1963A0; stroke-width: 1.0;"/><text fill="#000000" font-family="sans-serif" font-size="11" lengthAdjust="spacingAndGlyphs" textLength="141" x="276.5" y="402.4761">fhirSearchToDate: String</text><polygon fill="none" points="267.5,408.0703,263.5,414.0703,271.5,414.0703" style="stroke: #1963A0; stroke-width: 1.0;"/><text fill="#000000" font-family="sans-serif" font-size="11" lengthAdjust="spacingAndGlyphs" textLength="123" x="276.5" y="415.2808">fhirTypeFilters: String</text><polygon fill="none" points="267.5,420.875,263.5,426.875,271.5,426.875" style="stroke: #1963A0; stroke-width: 1.0;"/><text fill="#000000" font-family="sans-serif" font-size="11" lengthAdjust="spacingAndGlyphs" textLength="152" x="276.5" y="428.0854">fhirSearchPageSize: String</text><polygon fill="none" points="267.5,433.6797,263.5,439.6797,271.5,439.6797" style="stroke: #1963A0; stroke-width: 1.0;"/><text fill="#000000" font-family="sans-serif" font-size="11" lengthAdjust="spacingAndGlyphs" textLength="109" x="276.5" y="440.8901">incomingUrl: String</text><polygon fill="none" points="267.5,446.4844,263.5,452.4844,271.5,452.4844" style="stroke: #1963A0; stroke-width: 1.0;"/><text fill="#000000" font-family="sans-serif" font-size="11" lengthAdjust="spacingAndGlyphs" textLength="120" x="276.5" y="453.6948">stepCtx: StepContext</text><line style="stroke: #A80036; stroke-width: 1.5;" x1="257.5" x2="898.5" y1="460.2891" y2="460.2891"/><ellipse cx="267.5" cy="471.2891" fill="#84BE84" rx="3" ry="3" style="stroke: #038048; stroke-width: 1.0;"/><text fill="#000000" font-family="sans-serif" font-size="11" lengthAdjust="spacingAndGlyphs" textLength="103" x="276.5" y="474.4995">readItem(): Object</text><ellipse cx="267.5" cy="484.0938" fill="#84BE84" rx="3" ry="3" style="stroke: #038048; stroke-width: 1.0;"/><text fill="#000000" font-family="sans-serif" font-size="11" lengthAdjust="spacingAndGlyphs" textLength="132" x="276.5" y="487.3042">open(Serializable): void</text><ellipse cx="267.5" cy="496.8984" fill="#84BE84" rx="3" ry="3" style="stroke: #038048; stroke-width: 1.0;"/><text fill="#000000" font-family="sans-serif" font-size="11" lengthAdjust="spacingAndGlyphs" textLength="69" x="276.5" y="500.1089">close(): void</text><ellipse cx="267.5" cy="509.7031" fill="#84BE84" rx="3" ry="3" style="stroke: #038048; stroke-width: 1.0;"/><text fill="#000000" font-family="sans-serif" font-size="11" lengthAdjust="spacingAndGlyphs" textLength="162" x="276.5" y="512.9136">checkpointInfo(): Serializable</text></a><!--MD5=[af79ea0f02d9ca31e87c9b54a371aef6]
class com.ibm.fhir.jbatch.bulkdata.export.system.ExportJobListener--><a href="ExportJobListener.html" target="_top" title="ExportJobListener.html" xlink:actuate="onRequest" xlink:href="ExportJobListener.html" xlink:show="new" xlink:title="ExportJobListener.html" xlink:type="simple"><rect fill="#FEFECE" filter="url(#fxnssrhxpp9om)" height="112.0234" id="com.ibm.fhir.jbatch.bulkdata.export.system.ExportJobListener" style="stroke: #A80036; stroke-width: 1.5;" width="236" x="935" y="292.5"/><ellipse cx="994.25" cy="308.5" fill="#ADD1B2" rx="11" ry="11" style="stroke: #A80036; stroke-width: 1.0;"/><path d="M997.2188,314.1406 Q996.6406,314.4375 996,314.5781 Q995.3594,314.7344 994.6563,314.7344 Q992.1563,314.7344 990.8281,313.0938 Q989.5156,311.4375 989.5156,308.3125 Q989.5156,305.1875 990.8281,303.5313 Q992.1563,301.875 994.6563,301.875 Q995.3594,301.875 996,302.0313 Q996.6563,302.1875 997.2188,302.4844 L997.2188,305.2031 Q996.5938,304.625 996,304.3594 Q995.4063,304.0781 994.7813,304.0781 Q993.4375,304.0781 992.75,305.1563 Q992.0625,306.2188 992.0625,308.3125 Q992.0625,310.4063 992.75,311.4844 Q993.4375,312.5469 994.7813,312.5469 Q995.4063,312.5469 996,312.2813 Q996.5938,312 997.2188,311.4219 L997.2188,314.1406 Z "/><text fill="#000000" font-family="sans-serif" font-size="12" lengthAdjust="spacingAndGlyphs" textLength="109" x="1014.75" y="312.6543">ExportJobListener</text><line style="stroke: #A80036; stroke-width: 1.5;" x1="936" x2="1170" y1="324.5" y2="324.5"/><polygon fill="none" points="946,331.5,942,337.5,950,337.5" style="stroke: #1963A0; stroke-width: 1.0;"/><text fill="#000000" font-family="sans-serif" font-size="11" lengthAdjust="spacingAndGlyphs" textLength="210" x="955" y="338.7104">currentExecutionStartTimeInMS: long</text><polygon fill="none" points="946,344.3047,942,350.3047,950,350.3047" style="stroke: #1963A0; stroke-width: 1.0;"/><text fill="#000000" font-family="sans-serif" font-size="11" lengthAdjust="spacingAndGlyphs" textLength="128" x="955" y="351.5151">jobContext: JobContext</text><polygon fill="none" points="946,357.1094,942,363.1094,950,363.1094" style="stroke: #1963A0; stroke-width: 1.0;"/><text fill="#000000" font-family="sans-serif" font-size="11" lengthAdjust="spacingAndGlyphs" textLength="135" x="955" y="364.3198">dataSourcesInfo: String</text><line style="stroke: #A80036; stroke-width: 1.5;" x1="936" x2="1170" y1="370.9141" y2="370.9141"/><ellipse cx="946" cy="381.9141" fill="#84BE84" rx="3" ry="3" style="stroke: #038048; stroke-width: 1.0;"/><text fill="#000000" font-family="sans-serif" font-size="11" lengthAdjust="spacingAndGlyphs" textLength="83" x="955" y="385.1245">afterJob(): void</text><ellipse cx="946" cy="394.7188" fill="#84BE84" rx="3" ry="3" style="stroke: #038048; stroke-width: 1.0;"/><text fill="#000000" font-family="sans-serif" font-size="11" lengthAdjust="spacingAndGlyphs" textLength="93" x="955" y="397.9292">beforeJob(): void</text></a><!--MD5=[bb6bbdc930c996675e9cf6c01ad8872d]
class com.ibm.fhir.jbatch.bulkdata.export.system.ChunkWriter--><a href="ChunkWriter.html" target="_top" title="ChunkWriter.html" xlink:actuate="onRequest" xlink:href="ChunkWriter.html" xlink:show="new" xlink:title="ChunkWriter.html" xlink:type="simple"><rect fill="#FEFECE" filter="url(#fxnssrhxpp9om)" height="227.2656" id="com.ibm.fhir.jbatch.bulkdata.export.system.ChunkWriter" style="stroke: #A80036; stroke-width: 1.5;" width="199" x="22.5" y="235"/><ellipse cx="79.75" cy="251" fill="#ADD1B2" rx="11" ry="11" style="stroke: #A80036; stroke-width: 1.0;"/><path d="M82.7188,256.6406 Q82.1406,256.9375 81.5,257.0781 Q80.8594,257.2344 80.1563,257.2344 Q77.6563,257.2344 76.3281,255.5938 Q75.0156,253.9375 75.0156,250.8125 Q75.0156,247.6875 76.3281,246.0313 Q77.6563,244.375 80.1563,244.375 Q80.8594,244.375 81.5,244.5313 Q82.1563,244.6875 82.7188,244.9844 L82.7188,247.7031 Q82.0938,247.125 81.5,246.8594 Q80.9063,246.5781 80.2813,246.5781 Q78.9375,246.5781 78.25,247.6563 Q77.5625,248.7188 77.5625,250.8125 Q77.5625,252.9063 78.25,253.9844 Q78.9375,255.0469 80.2813,255.0469 Q80.9063,255.0469 81.5,254.7813 Q82.0938,254.5 82.7188,253.9219 L82.7188,256.6406 Z "/><text fill="#000000" font-family="sans-serif" font-size="12" lengthAdjust="spacingAndGlyphs" textLength="76" x="100.25" y="255.1543">ChunkWriter</text><line style="stroke: #A80036; stroke-width: 1.5;" x1="23.5" x2="220.5" y1="267" y2="267"/><polygon fill="none" points="33.5,274,29.5,280,37.5,280" style="stroke: #1963A0; stroke-width: 1.0;"/><text fill="#000000" font-family="sans-serif" font-size="11" lengthAdjust="spacingAndGlyphs" textLength="147" x="42.5" y="281.2104">cosApiKeyProperty: String</text><polygon fill="none" points="33.5,286.8047,29.5,292.8047,37.5,292.8047" style="stroke: #1963A0; stroke-width: 1.0;"/><text fill="#000000" font-family="sans-serif" font-size="11" lengthAdjust="spacingAndGlyphs" textLength="112" x="42.5" y="294.0151">cosSrvinstId: String</text><polygon fill="none" points="33.5,299.6094,29.5,305.6094,37.5,305.6094" style="stroke: #1963A0; stroke-width: 1.0;"/><text fill="#000000" font-family="sans-serif" font-size="11" lengthAdjust="spacingAndGlyphs" textLength="127" x="42.5" y="306.8198">cosEndpointUrl: String</text><polygon fill="none" points="33.5,312.4141,29.5,318.4141,37.5,318.4141" style="stroke: #1963A0; stroke-width: 1.0;"/><text fill="#000000" font-family="sans-serif" font-size="11" lengthAdjust="spacingAndGlyphs" textLength="109" x="42.5" y="319.6245">cosLocation: String</text><polygon fill="none" points="33.5,325.2188,29.5,331.2188,37.5,331.2188" style="stroke: #1963A0; stroke-width: 1.0;"/><text fill="#000000" font-family="sans-serif" font-size="11" lengthAdjust="spacingAndGlyphs" textLength="133" x="42.5" y="332.4292">cosBucketName: String</text><polygon fill="none" points="33.5,338.0234,29.5,344.0234,37.5,344.0234" style="stroke: #1963A0; stroke-width: 1.0;"/><text fill="#000000" font-family="sans-serif" font-size="11" lengthAdjust="spacingAndGlyphs" textLength="157" x="42.5" y="345.2339">cosBucketPathPrefix: String</text><polygon fill="none" points="33.5,350.8281,29.5,356.8281,37.5,356.8281" style="stroke: #1963A0; stroke-width: 1.0;"/><text fill="#000000" font-family="sans-serif" font-size="11" lengthAdjust="spacingAndGlyphs" textLength="141" x="42.5" y="358.0386">cosCredentialIbm: String</text><polygon fill="none" points="33.5,363.6328,29.5,369.6328,37.5,369.6328" style="stroke: #1963A0; stroke-width: 1.0;"/><text fill="#000000" font-family="sans-serif" font-size="11" lengthAdjust="spacingAndGlyphs" textLength="141" x="42.5" y="370.8433">fhirResourceType: String</text><polygon fill="none" points="33.5,376.4375,29.5,382.4375,37.5,382.4375" style="stroke: #1963A0; stroke-width: 1.0;"/><text fill="#000000" font-family="sans-serif" font-size="11" lengthAdjust="spacingAndGlyphs" textLength="137" x="42.5" y="383.6479">fhirExportFormat: String</text><polygon fill="none" points="33.5,389.2422,29.5,395.2422,37.5,395.2422" style="stroke: #1963A0; stroke-width: 1.0;"/><text fill="#000000" font-family="sans-serif" font-size="11" lengthAdjust="spacingAndGlyphs" textLength="120" x="42.5" y="396.4526">stepCtx: StepContext</text><polygon fill="none" points="33.5,402.0469,29.5,408.0469,37.5,408.0469" style="stroke: #1963A0; stroke-width: 1.0;"/><text fill="#000000" font-family="sans-serif" font-size="11" lengthAdjust="spacingAndGlyphs" textLength="128" x="42.5" y="409.2573">jobContext: JobContext</text><line style="stroke: #A80036; stroke-width: 1.5;" x1="23.5" x2="220.5" y1="415.8516" y2="415.8516"/><ellipse cx="33.5" cy="426.8516" fill="#84BE84" rx="3" ry="3" style="stroke: #038048; stroke-width: 1.0;"/><text fill="#000000" font-family="sans-serif" font-size="11" lengthAdjust="spacingAndGlyphs" textLength="173" x="42.5" y="430.062">writeItems(List&lt;Object&gt;): void</text><ellipse cx="33.5" cy="439.6563" fill="#84BE84" rx="3" ry="3" style="stroke: #038048; stroke-width: 1.0;"/><text fill="#000000" font-family="sans-serif" font-size="11" lengthAdjust="spacingAndGlyphs" textLength="132" x="42.5" y="442.8667">open(Serializable): void</text><ellipse cx="33.5" cy="452.4609" fill="#84BE84" rx="3" ry="3" style="stroke: #038048; stroke-width: 1.0;"/><text fill="#000000" font-family="sans-serif" font-size="11" lengthAdjust="spacingAndGlyphs" textLength="69" x="42.5" y="455.6714">close(): void</text></a><!--MD5=[f2820938bdc66d2fba69c218ac84d369]
class com.ibm.fhir.jbatch.bulkdata.export.system.ExportPartitionCollector--><a href="ExportPartitionCollector.html" target="_top" title="ExportPartitionCollector.html" xlink:actuate="onRequest" xlink:href="ExportPartitionCollector.html" xlink:show="new" xlink:title="ExportPartitionCollector.html" xlink:type="simple"><rect fill="#FEFECE" filter="url(#fxnssrhxpp9om)" height="73.6094" id="com.ibm.fhir.jbatch.bulkdata.export.system.ExportPartitionCollector" style="stroke: #A80036; stroke-width: 1.5;" width="216" x="1749" y="311.5"/><ellipse cx="1780.2" cy="327.5" fill="#ADD1B2" rx="11" ry="11" style="stroke: #A80036; stroke-width: 1.0;"/><path d="M1783.1688,333.1406 Q1782.5906,333.4375 1781.95,333.5781 Q1781.3094,333.7344 1780.6063,333.7344 Q1778.1063,333.7344 1776.7781,332.0938 Q1775.4656,330.4375 1775.4656,327.3125 Q1775.4656,324.1875 1776.7781,322.5313 Q1778.1063,320.875 1780.6063,320.875 Q1781.3094,320.875 1781.95,321.0313 Q1782.6063,321.1875 1783.1688,321.4844 L1783.1688,324.2031 Q1782.5438,323.625 1781.95,323.3594 Q1781.3563,323.0781 1780.7313,323.0781 Q1779.3875,323.0781 1778.7,324.1563 Q1778.0125,325.2188 1778.0125,327.3125 Q1778.0125,329.4063 1778.7,330.4844 Q1779.3875,331.5469 1780.7313,331.5469 Q1781.3563,331.5469 1781.95,331.2813 Q1782.5438,331 1783.1688,330.4219 L1783.1688,333.1406 Z "/><text fill="#000000" font-family="sans-serif" font-size="12" lengthAdjust="spacingAndGlyphs" textLength="148" x="1797.8" y="331.6543">ExportPartitionCollector</text><line style="stroke: #A80036; stroke-width: 1.5;" x1="1750" x2="1964" y1="343.5" y2="343.5"/><polygon fill="none" points="1760,350.5,1756,356.5,1764,356.5" style="stroke: #1963A0; stroke-width: 1.0;"/><text fill="#000000" font-family="sans-serif" font-size="11" lengthAdjust="spacingAndGlyphs" textLength="120" x="1769" y="357.7104">stepCtx: StepContext</text><line style="stroke: #A80036; stroke-width: 1.5;" x1="1750" x2="1964" y1="364.3047" y2="364.3047"/><ellipse cx="1760" cy="375.3047" fill="#84BE84" rx="3" ry="3" style="stroke: #038048; stroke-width: 1.0;"/><text fill="#000000" font-family="sans-serif" font-size="11" lengthAdjust="spacingAndGlyphs" textLength="190" x="1769" y="378.5151">collectPartitionData(): Serializable</text></a><!--MD5=[5e9c722e1bb9814a6a5e5a39940a9890]
class com.ibm.fhir.jbatch.bulkdata.export.system.ExportPartitionAnalyzer--><a href="ExportPartitionAnalyzer.html" target="_top" title="ExportPartitionAnalyzer.html" xlink:actuate="onRequest" xlink:href="ExportPartitionAnalyzer.html" xlink:show="new" xlink:title="ExportPartitionAnalyzer.html" xlink:type="simple"><rect fill="#FEFECE" filter="url(#fxnssrhxpp9om)" height="86.4141" id="com.ibm.fhir.jbatch.bulkdata.export.system.ExportPartitionAnalyzer" style="stroke: #A80036; stroke-width: 1.5;" width="255" x="1458.5" y="305.5"/><ellipse cx="1509.75" cy="321.5" fill="#ADD1B2" rx="11" ry="11" style="stroke: #A80036; stroke-width: 1.0;"/><path d="M1512.7188,327.1406 Q1512.1406,327.4375 1511.5,327.5781 Q1510.8594,327.7344 1510.1563,327.7344 Q1507.6563,327.7344 1506.3281,326.0938 Q1505.0156,324.4375 1505.0156,321.3125 Q1505.0156,318.1875 1506.3281,316.5313 Q1507.6563,314.875 1510.1563,314.875 Q1510.8594,314.875 1511.5,315.0313 Q1512.1563,315.1875 1512.7188,315.4844 L1512.7188,318.2031 Q1512.0938,317.625 1511.5,317.3594 Q1510.9063,317.0781 1510.2813,317.0781 Q1508.9375,317.0781 1508.25,318.1563 Q1507.5625,319.2188 1507.5625,321.3125 Q1507.5625,323.4063 1508.25,324.4844 Q1508.9375,325.5469 1510.2813,325.5469 Q1510.9063,325.5469 1511.5,325.2813 Q1512.0938,325 1512.7188,324.4219 L1512.7188,327.1406 Z "/><text fill="#000000" font-family="sans-serif" font-size="12" lengthAdjust="spacingAndGlyphs" textLength="144" x="1530.25" y="325.6543">ExportPartitionAnalyzer</text><line style="stroke: #A80036; stroke-width: 1.5;" x1="1459.5" x2="1712.5" y1="337.5" y2="337.5"/><polygon fill="none" points="1469.5,344.5,1465.5,350.5,1473.5,350.5" style="stroke: #1963A0; stroke-width: 1.0;"/><text fill="#000000" font-family="sans-serif" font-size="11" lengthAdjust="spacingAndGlyphs" textLength="128" x="1478.5" y="351.7104">jobContext: JobContext</text><line style="stroke: #A80036; stroke-width: 1.5;" x1="1459.5" x2="1712.5" y1="358.3047" y2="358.3047"/><ellipse cx="1469.5" cy="369.3047" fill="#84BE84" rx="3" ry="3" style="stroke: #038048; stroke-width: 1.0;"/><text fill="#000000" font-family="sans-serif" font-size="11" lengthAdjust="spacingAndGlyphs" textLength="229" x="1478.5" y="372.5151">analyzeStatus(BatchStatus, String): void</text><ellipse cx="1469.5" cy="382.1094" fill="#84BE84" rx="3" ry="3" style="stroke: #038048; stroke-width: 1.0;"/><text fill="#000000" font-family="sans-serif" font-size="11" lengthAdjust="spacingAndGlyphs" textLength="222" x="1478.5" y="385.3198">analyzeCollectorData(Serializable): void</text></a><!--MD5=[a8b629700760d7220a4e55614b594b11]
class com.ibm.fhir.jbatch.bulkdata.export.system.SystemExportPartitionMapper--><a href="SystemExportPartitionMapper.html" target="_top" title="SystemExportPartitionMapper.html" xlink:actuate="onRequest" xlink:href="SystemExportPartitionMapper.html" xlink:show="new" xlink:title="SystemExportPartitionMapper.html" xlink:type="simple"><rect fill="#FEFECE" filter="url(#fxnssrhxpp9om)" height="73.6094" id="com.ibm.fhir.jbatch.bulkdata.export.system.SystemExportPartitionMapper" style="stroke: #A80036; stroke-width: 1.5;" width="217" x="1206.5" y="311.5"/><ellipse cx="1221.5" cy="327.5" fill="#ADD1B2" rx="11" ry="11" style="stroke: #A80036; stroke-width: 1.0;"/><path d="M1224.4688,333.1406 Q1223.8906,333.4375 1223.25,333.5781 Q1222.6094,333.7344 1221.9063,333.7344 Q1219.4063,333.7344 1218.0781,332.0938 Q1216.7656,330.4375 1216.7656,327.3125 Q1216.7656,324.1875 1218.0781,322.5313 Q1219.4063,320.875 1221.9063,320.875 Q1222.6094,320.875 1223.25,321.0313 Q1223.9063,321.1875 1224.4688,321.4844 L1224.4688,324.2031 Q1223.8438,323.625 1223.25,323.3594 Q1222.6563,323.0781 1222.0313,323.0781 Q1220.6875,323.0781 1220,324.1563 Q1219.3125,325.2188 1219.3125,327.3125 Q1219.3125,329.4063 1220,330.4844 Q1220.6875,331.5469 1222.0313,331.5469 Q1222.6563,331.5469 1223.25,331.2813 Q1223.8438,331 1224.4688,330.4219 L1224.4688,333.1406 Z "/><text fill="#000000" font-family="sans-serif" font-size="12" lengthAdjust="spacingAndGlyphs" textLength="185" x="1235.5" y="331.6543">SystemExportPartitionMapper</text><line style="stroke: #A80036; stroke-width: 1.5;" x1="1207.5" x2="1422.5" y1="343.5" y2="343.5"/><polygon fill="none" points="1217.5,350.5,1213.5,356.5,1221.5,356.5" style="stroke: #1963A0; stroke-width: 1.0;"/><text fill="#000000" font-family="sans-serif" font-size="11" lengthAdjust="spacingAndGlyphs" textLength="141" x="1226.5" y="357.7104">fhirResourceType: String</text><line style="stroke: #A80036; stroke-width: 1.5;" x1="1207.5" x2="1422.5" y1="364.3047" y2="364.3047"/><ellipse cx="1217.5" cy="375.3047" fill="#84BE84" rx="3" ry="3" style="stroke: #038048; stroke-width: 1.0;"/><text fill="#000000" font-family="sans-serif" font-size="11" lengthAdjust="spacingAndGlyphs" textLength="166" x="1226.5" y="378.5151">mapPartitions(): PartitionPlan</text></a><!--MD5=[f5f528b51f1c46550a0d517e968fc43d]
class javax.batch.api.chunk.AbstractItemReader--><rect fill="#FEFECE" filter="url(#fxnssrhxpp9om)" height="60.8047" id="javax.batch.api.chunk.AbstractItemReader" style="stroke: #A80036; stroke-width: 1.5;" width="157" x="378.5" y="49.5"/><ellipse cx="393.5" cy="65.5" fill="#A9DCDF" rx="11" ry="11" style="stroke: #A80036; stroke-width: 1.0;"/><path d="M393.6094,60.8438 L392.4531,65.9219 L394.7813,65.9219 L393.6094,60.8438 Z M392.125,58.6094 L395.1094,58.6094 L398.4688,71 L396.0156,71 L395.25,67.9375 L391.9688,67.9375 L391.2188,71 L388.7813,71 L392.125,58.6094 Z "/><text fill="#000000" font-family="sans-serif" font-size="12" font-style="italic" lengthAdjust="spacingAndGlyphs" textLength="125" x="407.5" y="69.6543">AbstractItemReader</text><line style="stroke: #A80036; stroke-width: 1.5;" x1="379.5" x2="534.5" y1="81.5" y2="81.5"/><line style="stroke: #A80036; stroke-width: 1.5;" x1="379.5" x2="534.5" y1="89.5" y2="89.5"/><ellipse cx="389.5" cy="100.5" fill="#84BE84" rx="3" ry="3" style="stroke: #038048; stroke-width: 1.0;"/><text fill="#000000" font-family="sans-serif" font-size="11" font-style="italic" lengthAdjust="spacingAndGlyphs" textLength="103" x="398.5" y="103.7104">readItem(): Object</text><!--MD5=[facca438f42939cbf10d84b0b1038a9b]
class javax.batch.api.chunk.AbstractItemWriter--><rect fill="#FEFECE" filter="url(#fxnssrhxpp9om)" height="60.8047" id="javax.batch.api.chunk.AbstractItemWriter" style="stroke: #A80036; stroke-width: 1.5;" width="198" x="145" y="49.5"/><ellipse cx="181.6" cy="65.5" fill="#A9DCDF" rx="11" ry="11" style="stroke: #A80036; stroke-width: 1.0;"/><path d="M181.7094,60.8438 L180.5531,65.9219 L182.8813,65.9219 L181.7094,60.8438 Z M180.225,58.6094 L183.2094,58.6094 L186.5688,71 L184.1156,71 L183.35,67.9375 L180.0688,67.9375 L179.3188,71 L176.8813,71 L180.225,58.6094 Z "/><text fill="#000000" font-family="sans-serif" font-size="12" font-style="italic" lengthAdjust="spacingAndGlyphs" textLength="118" x="200.4" y="69.6543">AbstractItemWriter</text><line style="stroke: #A80036; stroke-width: 1.5;" x1="146" x2="342" y1="81.5" y2="81.5"/><line style="stroke: #A80036; stroke-width: 1.5;" x1="146" x2="342" y1="89.5" y2="89.5"/><ellipse cx="156" cy="100.5" fill="#84BE84" rx="3" ry="3" style="stroke: #038048; stroke-width: 1.0;"/><text fill="#000000" font-family="sans-serif" font-size="11" font-style="italic" lengthAdjust="spacingAndGlyphs" textLength="172" x="165" y="103.7104">writeItems(List&lt;Object&gt;): void</text><!--MD5=[6989c0df3b46339ee373cba47512fa12]
class javax.batch.api.listener.JobListener--><rect fill="#FEFECE" filter="url(#fxnssrhxpp9om)" height="73.6094" id="javax.batch.api.listener.JobListener" style="stroke: #A80036; stroke-width: 1.5;" width="120" x="993" y="43"/><ellipse cx="1016.1" cy="59" fill="#B4A7E5" rx="11" ry="11" style="stroke: #A80036; stroke-width: 1.0;"/><path d="M1012.0219,54.7656 L1012.0219,52.6094 L1019.4125,52.6094 L1019.4125,54.7656 L1016.9438,54.7656 L1016.9438,62.8438 L1019.4125,62.8438 L1019.4125,65 L1012.0219,65 L1012.0219,62.8438 L1014.4906,62.8438 L1014.4906,54.7656 L1012.0219,54.7656 Z "/><text fill="#000000" font-family="sans-serif" font-size="12" font-style="italic" lengthAdjust="spacingAndGlyphs" textLength="70" x="1031.9" y="63.1543">JobListener</text><line style="stroke: #A80036; stroke-width: 1.5;" x1="994" x2="1112" y1="75" y2="75"/><line style="stroke: #A80036; stroke-width: 1.5;" x1="994" x2="1112" y1="83" y2="83"/><ellipse cx="1004" cy="94" fill="#84BE84" rx="3" ry="3" style="stroke: #038048; stroke-width: 1.0;"/><text fill="#000000" font-family="sans-serif" font-size="11" font-style="italic" lengthAdjust="spacingAndGlyphs" textLength="94" x="1013" y="97.2104">beforeJob(): void</text><ellipse cx="1004" cy="106.8047" fill="#84BE84" rx="3" ry="3" style="stroke: #038048; stroke-width: 1.0;"/><text fill="#000000" font-family="sans-serif" font-size="11" font-style="italic" lengthAdjust="spacingAndGlyphs" textLength="84" x="1013" y="110.0151">afterJob(): void</text><!--MD5=[ec278b7c5a58ff604a92c6ce1079f2ad]
class javax.batch.api.partition.PartitionCollector--><rect fill="#FEFECE" filter="url(#fxnssrhxpp9om)" height="60.8047" id="javax.batch.api.partition.PartitionCollector" style="stroke: #A80036; stroke-width: 1.5;" width="216" x="1748" y="49.5"/><ellipse cx="1798.25" cy="65.5" fill="#B4A7E5" rx="11" ry="11" style="stroke: #A80036; stroke-width: 1.0;"/><path d="M1794.1719,61.2656 L1794.1719,59.1094 L1801.5625,59.1094 L1801.5625,61.2656 L1799.0938,61.2656 L1799.0938,69.3438 L1801.5625,69.3438 L1801.5625,71.5 L1794.1719,71.5 L1794.1719,69.3438 L1796.6406,69.3438 L1796.6406,61.2656 L1794.1719,61.2656 Z "/><text fill="#000000" font-family="sans-serif" font-size="12" font-style="italic" lengthAdjust="spacingAndGlyphs" textLength="107" x="1818.75" y="69.6543">PartitionCollector</text><line style="stroke: #A80036; stroke-width: 1.5;" x1="1749" x2="1963" y1="81.5" y2="81.5"/><line style="stroke: #A80036; stroke-width: 1.5;" x1="1749" x2="1963" y1="89.5" y2="89.5"/><ellipse cx="1759" cy="100.5" fill="#84BE84" rx="3" ry="3" style="stroke: #038048; stroke-width: 1.0;"/><text fill="#000000" font-family="sans-serif" font-size="11" font-style="italic" lengthAdjust="spacingAndGlyphs" textLength="190" x="1768" y="103.7104">collectPartitionData(): Serializable</text><!--MD5=[fd79d334c205ad16ac123f08e5530250]
class javax.batch.api.partition.PartitionAnalyzer--><rect fill="#FEFECE" filter="url(#fxnssrhxpp9om)" height="73.6094" id="javax.batch.api.partition.PartitionAnalyzer" style="stroke: #A80036; stroke-width: 1.5;" width="253" x="1459.5" y="43"/><ellipse cx="1529.25" cy="59" fill="#B4A7E5" rx="11" ry="11" style="stroke: #A80036; stroke-width: 1.0;"/><path d="M1525.1719,54.7656 L1525.1719,52.6094 L1532.5625,52.6094 L1532.5625,54.7656 L1530.0938,54.7656 L1530.0938,62.8438 L1532.5625,62.8438 L1532.5625,65 L1525.1719,65 L1525.1719,62.8438 L1527.6406,62.8438 L1527.6406,54.7656 L1525.1719,54.7656 Z "/><text fill="#000000" font-family="sans-serif" font-size="12" font-style="italic" lengthAdjust="spacingAndGlyphs" textLength="105" x="1549.75" y="63.1543">PartitionAnalyzer</text><line style="stroke: #A80036; stroke-width: 1.5;" x1="1460.5" x2="1711.5" y1="75" y2="75"/><line style="stroke: #A80036; stroke-width: 1.5;" x1="1460.5" x2="1711.5" y1="83" y2="83"/><ellipse cx="1470.5" cy="94" fill="#84BE84" rx="3" ry="3" style="stroke: #038048; stroke-width: 1.0;"/><text fill="#000000" font-family="sans-serif" font-size="11" font-style="italic" lengthAdjust="spacingAndGlyphs" textLength="225" x="1479.5" y="97.2104">analyzeCollectorData(Serializable): void</text><ellipse cx="1470.5" cy="106.8047" fill="#84BE84" rx="3" ry="3" style="stroke: #038048; stroke-width: 1.0;"/><text fill="#000000" font-family="sans-serif" font-size="11" font-style="italic" lengthAdjust="spacingAndGlyphs" textLength="227" x="1479.5" y="110.0151">analyzeStatus(BatchStatus, String): void</text><!--MD5=[349d5de3748636f0f75f09a8b175f4bb]
class javax.batch.api.partition.PartitionMapper--><rect fill="#FEFECE" filter="url(#fxnssrhxpp9om)" height="60.8047" id="javax.batch.api.partition.PartitionMapper" style="stroke: #A80036; stroke-width: 1.5;" width="191" x="1233.5" y="49.5"/><ellipse cx="1275.5" cy="65.5" fill="#B4A7E5" rx="11" ry="11" style="stroke: #A80036; stroke-width: 1.0;"/><path d="M1271.4219,61.2656 L1271.4219,59.1094 L1278.8125,59.1094 L1278.8125,61.2656 L1276.3438,61.2656 L1276.3438,69.3438 L1278.8125,69.3438 L1278.8125,71.5 L1271.4219,71.5 L1271.4219,69.3438 L1273.8906,69.3438 L1273.8906,61.2656 L1271.4219,61.2656 Z "/><text fill="#000000" font-family="sans-serif" font-size="12" font-style="italic" lengthAdjust="spacingAndGlyphs" textLength="99" x="1295.5" y="69.6543">PartitionMapper</text><line style="stroke: #A80036; stroke-width: 1.5;" x1="1234.5" x2="1423.5" y1="81.5" y2="81.5"/><line style="stroke: #A80036; stroke-width: 1.5;" x1="1234.5" x2="1423.5" y1="89.5" y2="89.5"/><ellipse cx="1244.5" cy="100.5" fill="#84BE84" rx="3" ry="3" style="stroke: #038048; stroke-width: 1.0;"/><text fill="#000000" font-family="sans-serif" font-size="11" font-style="italic" lengthAdjust="spacingAndGlyphs" textLength="165" x="1253.5" y="103.7104">mapPartitions(): PartitionPlan</text><!--MD5=[452b27d127bf10a4704db7daba30c9ad]
reverse link javax.batch.api.chunk.AbstractItemReader to com.ibm.fhir.jbatch.bulkdata.export.system.ChunkReader--><path d="M479.0915,129.0213 C485.485,143.2084 492.8542,159.5608 500.6273,176.8094 " fill="none" id="javax.batch.api.chunk.AbstractItemReader&lt;-com.ibm.fhir.jbatch.bulkdata.export.system.ChunkReader" style="stroke: #A80036; stroke-width: 1.0;"/><polygon fill="none" points="472.5978,131.649,470.7624,110.539,485.3616,125.8969,472.5978,131.649" style="stroke: #A80036; stroke-width: 1.0;"/><!--MD5=[632251b799b846a504ee0951703244b6]
reverse link javax.batch.api.listener.JobListener to com.ibm.fhir.jbatch.bulkdata.export.system.ExportJobListener--><path d="M1053,137.3149 C1053,183.1253 1053,246.977 1053,292.4508 " fill="none" id="javax.batch.api.listener.JobListener&lt;-com.ibm.fhir.jbatch.bulkdata.export.system.ExportJobListener" style="stroke: #A80036; stroke-width: 1.0; stroke-dasharray: 7.0,7.0;"/><polygon fill="none" points="1046.0001,137.0519,1053,117.0519,1060.0001,137.0518,1046.0001,137.0519" style="stroke: #A80036; stroke-width: 1.0;"/><!--MD5=[0b7a5d0cc4c8a9b90ec03e2ebbe65386]
reverse link javax.batch.api.chunk.AbstractItemWriter to com.ibm.fhir.jbatch.bulkdata.export.system.ChunkWriter--><path d="M221.7495,128.9693 C208.2805,158.6121 190.5103,197.7212 173.7041,234.7086 " fill="none" id="javax.batch.api.chunk.AbstractItemWriter&lt;-com.ibm.fhir.jbatch.bulkdata.export.system.ChunkWriter" style="stroke: #A80036; stroke-width: 1.0;"/><polygon fill="none" points="215.4773,125.8517,230.1238,110.539,228.2232,131.6432,215.4773,125.8517" style="stroke: #A80036; stroke-width: 1.0;"/><!--MD5=[855e4824ca4910f6bd514021fe2175cc]
reverse link javax.batch.api.partition.PartitionCollector to com.ibm.fhir.jbatch.bulkdata.export.system.ExportPartitionCollector--><path d="M1856.1893,130.8161 C1856.3849,183.359 1856.6859,264.1526 1856.8608,311.1177 " fill="none" id="javax.batch.api.partition.PartitionCollector&lt;-com.ibm.fhir.jbatch.bulkdata.export.system.ExportPartitionCollector" style="stroke: #A80036; stroke-width: 1.0; stroke-dasharray: 7.0,7.0;"/><polygon fill="none" points="1849.1884,130.5649,1856.1137,110.539,1863.1883,130.5127,1849.1884,130.5649" style="stroke: #A80036; stroke-width: 1.0;"/><!--MD5=[11728c6e381557db6ca717e7b0147e1b]
reverse link javax.batch.api.partition.PartitionAnalyzer to com.ibm.fhir.jbatch.bulkdata.export.system.ExportPartitionAnalyzer--><path d="M1586,137.1208 C1586,187.3971 1586,259.5141 1586,305.1686 " fill="none" id="javax.batch.api.partition.PartitionAnalyzer&lt;-com.ibm.fhir.jbatch.bulkdata.export.system.ExportPartitionAnalyzer" style="stroke: #A80036; stroke-width: 1.0; stroke-dasharray: 7.0,7.0;"/><polygon fill="none" points="1579.0001,137.0519,1586,117.0519,1593.0001,137.0518,1579.0001,137.0519" style="stroke: #A80036; stroke-width: 1.0;"/><!--MD5=[bd02be26d316bc605e1aad7a32d58631]
reverse link javax.batch.api.partition.PartitionMapper to com.ibm.fhir.jbatch.bulkdata.export.system.SystemExportPartitionMapper--><path d="M1326.3504,130.8161 C1323.6107,183.359 1319.398,264.1526 1316.9492,311.1177 " fill="none" id="javax.batch.api.partition.PartitionMapper&lt;-com.ibm.fhir.jbatch.bulkdata.export.system.SystemExportPartitionMapper" style="stroke: #A80036; stroke-width: 1.0; stroke-dasharray: 7.0,7.0;"/><polygon fill="none" points="1319.3756,130.1473,1327.4077,110.539,1333.3566,130.8763,1319.3756,130.1473" style="stroke: #A80036; stroke-width: 1.0;"/><text fill="#888888" font-family="sans-serif" font-size="10" lengthAdjust="spacingAndGlyphs" textLength="186" x="906.5" y="555.2822">UMLDoclet 2.0.7, PlantUML 1.2019.12</text><!--MD5=[f7ee5a2df664199bbcb9ae57e63071fe]
@startuml
    namespace com.ibm.fhir.jbatch.bulkdata.export.system {

        class ChunkReader [[ChunkReader.html]] {
            ~isSingleCosObject: boolean
            ~pageNum: int
            ~pageSize: int
            ~searchParametersForResoureTypes: Map<Class<? extends Resource>, List<Map<String, List<String>>>>
            ~indexOfCurrentTypeFilter: int
            ~loadedResourceIds: Set<String>
            ~isDoDuplicationCheck: boolean
            ~fhirPersistence: FHIRPersistence
            ~resourceType: Class<? extends Resource>
            ~fhirTenant: String
            ~fhirDatastoreId: String
            ~fhirResourceType: String
            #fhirExportFormat: String
            ~fhirSearchFromDate: String
            ~fhirSearchToDate: String
            ~fhirTypeFilters: String
            ~fhirSearchPageSize: String
            ~incomingUrl: String
            ~stepCtx: StepContext
            +readItem(): Object
            +open(Serializable): void
            +close(): void
            +checkpointInfo(): Serializable
        }

        class ExportJobListener [[ExportJobListener.html]] {
            ~currentExecutionStartTimeInMS: long
            ~jobContext: JobContext
            ~dataSourcesInfo: String
            +afterJob(): void
            +beforeJob(): void
        }

        class ChunkWriter [[ChunkWriter.html]] {
            ~cosApiKeyProperty: String
            ~cosSrvinstId: String
            ~cosEndpointUrl: String
            ~cosLocation: String
            ~cosBucketName: String
            ~cosBucketPathPrefix: String
            ~cosCredentialIbm: String
            ~fhirResourceType: String
            ~fhirExportFormat: String
            ~stepCtx: StepContext
            ~jobContext: JobContext
            +writeItems(List<Object>): void
            +open(Serializable): void
            +close(): void
        }

        class ExportPartitionCollector [[ExportPartitionCollector.html]] {
            ~stepCtx: StepContext
            +collectPartitionData(): Serializable
        }

        class ExportPartitionAnalyzer [[ExportPartitionAnalyzer.html]] {
            ~jobContext: JobContext
            +analyzeStatus(BatchStatus, String): void
            +analyzeCollectorData(Serializable): void
        }

        class SystemExportPartitionMapper [[SystemExportPartitionMapper.html]] {
            ~fhirResourceType: String
            +mapPartitions(): PartitionPlan
        }

        javax.batch.api.chunk.AbstractItemReader <|- - ChunkReader
        javax.batch.api.listener.JobListener <|.. ExportJobListener
        javax.batch.api.chunk.AbstractItemWriter <|- - ChunkWriter
        javax.batch.api.partition.PartitionCollector <|.. ExportPartitionCollector
        javax.batch.api.partition.PartitionAnalyzer <|.. ExportPartitionAnalyzer
        javax.batch.api.partition.PartitionMapper <|.. SystemExportPartitionMapper
    }

    namespace javax.batch.api.chunk {
        abstract class AbstractItemReader {
            {abstract} +readItem(): Object
        }
        abstract class AbstractItemWriter {
            {abstract} +writeItems(List<Object>): void
        }
    }

    namespace javax.batch.api.listener {
        interface JobListener {
            {abstract} +beforeJob(): void
            {abstract} +afterJob(): void
        }
    }

    namespace javax.batch.api.partition {
        interface PartitionCollector {
            {abstract} +collectPartitionData(): Serializable
        }
        interface PartitionAnalyzer {
            {abstract} +analyzeCollectorData(Serializable): void
            {abstract} +analyzeStatus(BatchStatus, String): void
        }
        interface PartitionMapper {
            {abstract} +mapPartitions(): PartitionPlan
        }
    }

    center footer UMLDoclet 2.0.7, PlantUML 1.2019.12
@enduml

PlantUML version 1.2019.12(Sun Nov 03 10:24:54 UTC 2019)
(APACHE source distribution)
Java Runtime: OpenJDK Runtime Environment
JVM: OpenJDK 64-Bit Server VM
Java Version: 11.0.10+9
Operating System: Linux
Default Encoding: UTF-8
Language: en
Country: null
--></g></svg>