<?xml version="1.0" encoding="UTF-8" standalone="no"?><svg xmlns="http://www.w3.org/2000/svg" xmlns:xlink="http://www.w3.org/1999/xlink" contentScriptType="application/ecmascript" contentStyleType="text/css" height="387px" preserveAspectRatio="none" style="width:1398px;height:387px;" version="1.1" viewBox="0 0 1398 387" width="1398px" zoomAndPan="magnify"><defs><filter height="300%" id="fo7sveew5g0sz" width="300%" x="-1" y="-1"><feGaussianBlur result="blurOut" stdDeviation="2.0"/><feColorMatrix in="blurOut" result="blurOut2" type="matrix" values="0 0 0 0 0 0 0 0 0 0 0 0 0 0 0 0 0 0 .4 0"/><feOffset dx="4.0" dy="4.0" in="blurOut2" result="blurOut3"/><feBlend in="SourceGraphic" in2="blurOut3" mode="normal"/></filter></defs><g><!--MD5=[653bc0afc61e0f8fcd18ddc906ff43b7]
class com.ibm.fhir.database.utils.model.Table--><a href="Table.html" target="_top" title="Table.html" xlink:actuate="onRequest" xlink:href="Table.html" xlink:show="new" xlink:title="Table.html" xlink:type="simple"><rect fill="#FEFECE" filter="url(#fo7sveew5g0sz)" height="149.9063" id="com.ibm.fhir.database.utils.model.Table" style="stroke: #A80036; stroke-width: 1.5;" width="1381" x="6" y="106"/><ellipse cx="609.25" cy="125.1328" fill="#ADD1B2" rx="11" ry="11" style="stroke: #A80036; stroke-width: 1.0;"/><path d="M611.7231,131.2759 Q611.1421,131.5747 610.5029,131.7241 Q609.8638,131.8735 609.1582,131.8735 Q606.6514,131.8735 605.3315,130.2217 Q604.0117,128.5698 604.0117,125.4487 Q604.0117,122.3193 605.3315,120.6675 Q606.6514,119.0156 609.1582,119.0156 Q609.8638,119.0156 610.5112,119.165 Q611.1587,119.3145 611.7231,119.6133 L611.7231,122.3359 Q611.0923,121.7549 610.4988,121.4851 Q609.9053,121.2153 609.2744,121.2153 Q607.9297,121.2153 607.2449,122.282 Q606.5601,123.3486 606.5601,125.4487 Q606.5601,127.5405 607.2449,128.6072 Q607.9297,129.6738 609.2744,129.6738 Q609.9053,129.6738 610.4988,129.4041 Q611.0923,129.1343 611.7231,128.5532 Z "/><text fill="#000000" font-family="sans-serif" font-size="14" lengthAdjust="spacingAndGlyphs" textLength="38" x="693.75" y="124.5352">Table</text><text fill="#000000" font-family="sans-serif" font-size="10" lengthAdjust="spacingAndGlyphs" textLength="166" x="629.75" y="137.1563">com.ibm.fhir.database.utils.model</text><line style="stroke: #A80036; stroke-width: 1.5;" x1="7" x2="1386" y1="144.2656" y2="144.2656"/><ellipse cx="17" cy="155.2656" fill="#84BE84" rx="3" ry="3" style="stroke: #038048; stroke-width: 1.0;"/><text fill="#000000" font-family="sans-serif" font-size="11" lengthAdjust="spacingAndGlyphs" textLength="1355" x="26" y="158.9004">Table(String, String, int, String, Collection&lt;ColumnBase&gt;, PrimaryKeyDef, IdentityDef, Collection&lt;IndexDef&gt;, Collection&lt;ForeignKeyConstraint&gt;, SessionVariableDef, Tablespace, List&lt;IDatabaseObject&gt;, Map&lt;String, String&gt;, Collection&lt;GroupPrivilege&gt;)</text><ellipse cx="17" cy="168.2207" fill="#84BE84" rx="3" ry="3" style="stroke: #038048; stroke-width: 1.0;"/><text fill="#000000" font-family="sans-serif" font-size="11" lengthAdjust="spacingAndGlyphs" textLength="169" x="26" y="171.8555">getPrimaryKey(): PrimaryKeyDef</text><ellipse cx="17" cy="181.1758" fill="#84BE84" rx="3" ry="3" style="stroke: #038048; stroke-width: 1.0;"/><text fill="#000000" font-family="sans-serif" font-size="11" lengthAdjust="spacingAndGlyphs" textLength="129" x="26" y="184.8105">getIdentity(): IdentityDef</text><ellipse cx="17" cy="194.1309" fill="#84BE84" rx="3" ry="3" style="stroke: #038048; stroke-width: 1.0;"/><text fill="#000000" font-family="sans-serif" font-size="11" lengthAdjust="spacingAndGlyphs" textLength="172" x="26" y="197.7656">getTenantColumnName(): String</text><ellipse cx="17" cy="207.0859" fill="#84BE84" rx="3" ry="3" style="stroke: #038048; stroke-width: 1.0;"/><text fill="#000000" font-family="sans-serif" font-size="11" lengthAdjust="spacingAndGlyphs" textLength="161" x="26" y="210.7207">apply(IDatabaseAdapter): void</text><ellipse cx="17" cy="220.041" fill="#84BE84" rx="3" ry="3" style="stroke: #038048; stroke-width: 1.0;"/><text fill="#000000" font-family="sans-serif" font-size="11" lengthAdjust="spacingAndGlyphs" textLength="158" x="26" y="223.6758">drop(IDatabaseAdapter): void</text><ellipse cx="17" cy="232.9961" fill="#84BE84" rx="3" ry="3" style="stroke: #038048; stroke-width: 1.0;"/><text fill="#000000" font-family="sans-serif" font-size="11" lengthAdjust="spacingAndGlyphs" text-decoration="underline" textLength="159" x="26" y="236.6309">builder(String, String): Builder</text><ellipse cx="17" cy="245.9512" fill="#84BE84" rx="3" ry="3" style="stroke: #038048; stroke-width: 1.0;"/><text fill="#000000" font-family="sans-serif" font-size="11" lengthAdjust="spacingAndGlyphs" textLength="184" x="26" y="249.5859">exists(IDatabaseAdapter): boolean</text></a><!--MD5=[37ad94e878ea8ca2b27676e9b95b5c74]
class com.ibm.fhir.database.utils.model.BaseObject--><a href="BaseObject.html" target="_top" title="BaseObject.html" xlink:actuate="onRequest" xlink:href="BaseObject.html" xlink:show="new" xlink:title="BaseObject.html" xlink:type="simple"><rect fill="#FEFECE" filter="url(#fo7sveew5g0sz)" height="38.2656" id="com.ibm.fhir.database.utils.model.BaseObject" style="stroke: #A80036; stroke-width: 1.5;" width="198" x="597.5" y="8"/><ellipse cx="612.5" cy="27.1328" fill="#A9DCDF" rx="11" ry="11" style="stroke: #A80036; stroke-width: 1.0;"/><path d="M612.6133,22.731 L611.4595,27.8027 L613.7754,27.8027 Z M611.1191,20.4897 L614.1157,20.4897 L617.4609,32.8828 L615.0122,32.8828 L614.2485,29.8198 L610.9697,29.8198 L610.2227,32.8828 L607.7739,32.8828 Z "/><text fill="#000000" font-family="sans-serif" font-size="14" font-style="italic" lengthAdjust="spacingAndGlyphs" textLength="75" x="672" y="26.5352">BaseObject</text><text fill="#000000" font-family="sans-serif" font-size="10" font-style="italic" lengthAdjust="spacingAndGlyphs" textLength="166" x="626.5" y="39.1563">com.ibm.fhir.database.utils.model</text></a><!--MD5=[e258707ed8237d2773128e508fbd78d8]
class com.ibm.fhir.database.utils.model.Table.Builder--><a href="Table.Builder.html" target="_top" title="Table.Builder.html" xlink:actuate="onRequest" xlink:href="Table.Builder.html" xlink:show="new" xlink:title="Table.Builder.html" xlink:type="simple"><rect fill="#FEFECE" filter="url(#fo7sveew5g0sz)" height="38.2656" id="com.ibm.fhir.database.utils.model.Table.Builder" style="stroke: #A80036; stroke-width: 1.5;" width="198" x="597.5" y="316"/><ellipse cx="612.5" cy="335.1328" fill="#ADD1B2" rx="11" ry="11" style="stroke: #A80036; stroke-width: 1.0;"/><path d="M614.9731,341.2759 Q614.3921,341.5747 613.7529,341.7241 Q613.1138,341.8735 612.4082,341.8735 Q609.9014,341.8735 608.5815,340.2217 Q607.2617,338.5698 607.2617,335.4487 Q607.2617,332.3193 608.5815,330.6675 Q609.9014,329.0156 612.4082,329.0156 Q613.1138,329.0156 613.7612,329.165 Q614.4087,329.3145 614.9731,329.6133 L614.9731,332.3359 Q614.3423,331.7549 613.7488,331.4851 Q613.1553,331.2153 612.5244,331.2153 Q611.1797,331.2153 610.4949,332.282 Q609.8101,333.3486 609.8101,335.4487 Q609.8101,337.5405 610.4949,338.6072 Q611.1797,339.6738 612.5244,339.6738 Q613.1553,339.6738 613.7488,339.4041 Q614.3423,339.1343 614.9731,338.5532 Z "/><text fill="#000000" font-family="sans-serif" font-size="14" lengthAdjust="spacingAndGlyphs" textLength="90" x="664.5" y="334.5352">Table.Builder</text><text fill="#000000" font-family="sans-serif" font-size="10" lengthAdjust="spacingAndGlyphs" textLength="166" x="626.5" y="347.1563">com.ibm.fhir.database.utils.model</text></a><!--MD5=[a7614065c2de48918df332651a4ada97]
reverse link com.ibm.fhir.database.utils.model.BaseObject to com.ibm.fhir.database.utils.model.Table--><path d="M696.5,66.4122 C696.5,78.5183 696.5,92.2668 696.5,105.934 " fill="none" id="com.ibm.fhir.database.utils.model.BaseObject&lt;-com.ibm.fhir.database.utils.model.Table" style="stroke: #A80036; stroke-width: 1.0;"/><polygon fill="none" points="689.5001,66.1929,696.5,46.1928,703.5001,66.1928,689.5001,66.1929" style="stroke: #A80036; stroke-width: 1.0;"/><!--MD5=[08cbbbb7f3681ed53320cbd729d64d8c]
reverse link com.ibm.fhir.database.utils.model.Table to com.ibm.fhir.database.utils.model.Table.Builder--><path d="M696.5,271.4466 C696.5,288.2565 696.5,304.1841 696.5,315.8895 " fill="none" id="com.ibm.fhir.database.utils.model.Table&lt;-com.ibm.fhir.database.utils.model.Table.Builder" style="stroke: #A80036; stroke-width: 1.0;"/><ellipse cx="696.5001" cy="264.1955" fill="#FFFFFF" rx="8" ry="8" style="stroke: #A80036; stroke-width: 1.0;"/><line style="stroke: #A80036; stroke-width: 1.0;" x1="696.5002" x2="696.5" y1="272.1955" y2="256.1955"/><line style="stroke: #A80036; stroke-width: 1.0;" x1="688.5001" x2="704.5001" y1="264.1956" y2="264.1954"/><text fill="#888888" font-family="sans-serif" font-size="10" lengthAdjust="spacingAndGlyphs" textLength="182" x="611.5" y="373.668">UMLDoclet 2.0.7, PlantUML 1.2019.12</text><!--MD5=[efdb387fcff418a7881a98d2d7476c28]
@startuml
    set namespaceSeparator none
    hide empty fields
    hide empty methods

    class "<size:14>Table\n<size:10>com.ibm.fhir.database.utils.model" as com.ibm.fhir.database.utils.model.Table [[Table.html]] {
        +Table(String, String, int, String, Collection<ColumnBase>, PrimaryKeyDef, IdentityDef, Collection<IndexDef>, Collection<ForeignKeyConstraint>, SessionVariableDef, Tablespace, List<IDatabaseObject>, Map<String, String>, Collection<GroupPrivilege>)
        +getPrimaryKey(): PrimaryKeyDef
        +getIdentity(): IdentityDef
        +getTenantColumnName(): String
        +apply(IDatabaseAdapter): void
        +drop(IDatabaseAdapter): void
        {static} +builder(String, String): Builder
        +exists(IDatabaseAdapter): boolean
    }

    abstract class "<size:14>BaseObject\n<size:10>com.ibm.fhir.database.utils.model" as com.ibm.fhir.database.utils.model.BaseObject [[BaseObject.html]]
    class "<size:14>Table.Builder\n<size:10>com.ibm.fhir.database.utils.model" as com.ibm.fhir.database.utils.model.Table.Builder [[Table.Builder.html]]

    com.ibm.fhir.database.utils.model.BaseObject <|- - com.ibm.fhir.database.utils.model.Table
    com.ibm.fhir.database.utils.model.Table +- - com.ibm.fhir.database.utils.model.Table.Builder

    center footer UMLDoclet 2.0.7, PlantUML 1.2019.12
@enduml

PlantUML version 1.2019.12(Sun Nov 03 05:24:54 EST 2019)
(APACHE source distribution)
Java Runtime: OpenJDK Runtime Environment
JVM: OpenJDK 64-Bit Server VM
Java Version: 11.0.4+11
Operating System: Mac OS X
Default Encoding: UTF-8
Language: en
Country: US
--></g></svg>