<?xml version="1.0" encoding="UTF-8" standalone="no"?><svg xmlns="http://www.w3.org/2000/svg" xmlns:xlink="http://www.w3.org/1999/xlink" contentScriptType="application/ecmascript" contentStyleType="text/css" height="393px" preserveAspectRatio="none" style="width:428px;height:393px;" version="1.1" viewBox="0 0 428 393" width="428px" zoomAndPan="magnify"><defs><filter height="300%" id="fr2ga11a3jvmv" width="300%" x="-1" y="-1"><feGaussianBlur result="blurOut" stdDeviation="2.0"/><feColorMatrix in="blurOut" result="blurOut2" type="matrix" values="0 0 0 0 0 0 0 0 0 0 0 0 0 0 0 0 0 0 .4 0"/><feOffset dx="4.0" dy="4.0" in="blurOut2" result="blurOut3"/><feBlend in="SourceGraphic" in2="blurOut3" mode="normal"/></filter></defs><g><!--MD5=[d7d286be65e3e5abe0b7b0e57363514f]
class com.ibm.fhir.model.resource.ClaimResponse.Item.Detail.SubDetail--><a href="ClaimResponse.Item.Detail.SubDetail.html" target="_top" title="ClaimResponse.Item.Detail.SubDetail.html" xlink:actuate="onRequest" xlink:href="ClaimResponse.Item.Detail.SubDetail.html" xlink:show="new" xlink:title="ClaimResponse.Item.Detail.SubDetail.html" xlink:type="simple"><rect fill="#FEFECE" filter="url(#fr2ga11a3jvmv)" height="135.5703" id="com.ibm.fhir.model.resource.ClaimResponse.Item.Detail.SubDetail" style="stroke: #A80036; stroke-width: 1.5;" width="287" x="53" y="127"/><ellipse cx="68" cy="145.9688" fill="#ADD1B2" rx="11" ry="11" style="stroke: #A80036; stroke-width: 1.0;"/><path d="M70.9688,151.6094 Q70.3906,151.9063 69.75,152.0469 Q69.1094,152.2031 68.4063,152.2031 Q65.9063,152.2031 64.5781,150.5625 Q63.2656,148.9063 63.2656,145.7813 Q63.2656,142.6563 64.5781,141 Q65.9063,139.3438 68.4063,139.3438 Q69.1094,139.3438 69.75,139.5 Q70.4063,139.6563 70.9688,139.9531 L70.9688,142.6719 Q70.3438,142.0938 69.75,141.8281 Q69.1563,141.5469 68.5313,141.5469 Q67.1875,141.5469 66.5,142.625 Q65.8125,143.6875 65.8125,145.7813 Q65.8125,147.875 66.5,148.9531 Q67.1875,150.0156 68.5313,150.0156 Q69.1563,150.0156 69.75,149.75 Q70.3438,149.4688 70.9688,148.8906 L70.9688,151.6094 Z "/><text fill="#000000" font-family="sans-serif" font-size="14" lengthAdjust="spacingAndGlyphs" textLength="255" x="82" y="144.9951">ClaimResponse.Item.Detail.SubDetail</text><text fill="#000000" font-family="sans-serif" font-size="10" lengthAdjust="spacingAndGlyphs" textLength="139" x="140" y="157.5791">com.ibm.fhir.model.resource</text><line style="stroke: #A80036; stroke-width: 1.5;" x1="54" x2="339" y1="164.9375" y2="164.9375"/><ellipse cx="64" cy="175.9375" fill="#84BE84" rx="3" ry="3" style="stroke: #038048; stroke-width: 1.0;"/><text fill="#000000" font-family="sans-serif" font-size="11" lengthAdjust="spacingAndGlyphs" textLength="202" x="73" y="179.1479">getSubDetailSequence(): PositiveInt</text><ellipse cx="64" cy="188.7422" fill="#84BE84" rx="3" ry="3" style="stroke: #038048; stroke-width: 1.0;"/><text fill="#000000" font-family="sans-serif" font-size="11" lengthAdjust="spacingAndGlyphs" textLength="201" x="73" y="191.9526">getNoteNumber(): List&lt;PositiveInt&gt;</text><ellipse cx="64" cy="201.5469" fill="#84BE84" rx="3" ry="3" style="stroke: #038048; stroke-width: 1.0;"/><text fill="#000000" font-family="sans-serif" font-size="11" lengthAdjust="spacingAndGlyphs" textLength="208" x="73" y="204.7573">getAdjudication(): List&lt;Adjudication&gt;</text><ellipse cx="64" cy="214.3516" fill="#84BE84" rx="3" ry="3" style="stroke: #038048; stroke-width: 1.0;"/><text fill="#000000" font-family="sans-serif" font-size="11" lengthAdjust="spacingAndGlyphs" textLength="129" x="73" y="217.562">hasChildren(): boolean</text><ellipse cx="64" cy="227.1563" fill="#84BE84" rx="3" ry="3" style="stroke: #038048; stroke-width: 1.0;"/><text fill="#000000" font-family="sans-serif" font-size="11" lengthAdjust="spacingAndGlyphs" textLength="176" x="73" y="230.3667">accept(String, int, Visitor): void</text><ellipse cx="64" cy="239.9609" fill="#84BE84" rx="3" ry="3" style="stroke: #038048; stroke-width: 1.0;"/><text fill="#000000" font-family="sans-serif" font-size="11" lengthAdjust="spacingAndGlyphs" textLength="107" x="73" y="243.1714">toBuilder(): Builder</text><ellipse cx="64" cy="252.7656" fill="#84BE84" rx="3" ry="3" style="stroke: #038048; stroke-width: 1.0;"/><text fill="#000000" font-family="sans-serif" font-size="11" lengthAdjust="spacingAndGlyphs" text-decoration="underline" textLength="95" x="73" y="255.9761">builder(): Builder</text></a><!--MD5=[efbff6997283c56b83e991a8eeb6a60a]
class com.ibm.fhir.model.type.BackboneElement--><a href="../type/BackboneElement.html" target="_top" title="../type/BackboneElement.html" xlink:actuate="onRequest" xlink:href="../type/BackboneElement.html" xlink:show="new" xlink:title="../type/BackboneElement.html" xlink:type="simple"><rect fill="#FEFECE" filter="url(#fr2ga11a3jvmv)" height="58.7422" id="com.ibm.fhir.model.type.BackboneElement" style="stroke: #A80036; stroke-width: 1.5;" width="159" x="6" y="8"/><ellipse cx="21" cy="26.9688" fill="#A9DCDF" rx="11" ry="11" style="stroke: #A80036; stroke-width: 1.0;"/><path d="M21.1094,22.3125 L19.9531,27.3906 L22.2813,27.3906 L21.1094,22.3125 Z M19.625,20.0781 L22.6094,20.0781 L25.9688,32.4688 L23.5156,32.4688 L22.75,29.4063 L19.4688,29.4063 L18.7188,32.4688 L16.2813,32.4688 L19.625,20.0781 Z "/><text fill="#000000" font-family="sans-serif" font-size="14" font-style="italic" lengthAdjust="spacingAndGlyphs" textLength="127" x="35" y="25.9951">BackboneElement</text><text fill="#000000" font-family="sans-serif" font-size="10" font-style="italic" lengthAdjust="spacingAndGlyphs" textLength="119" x="39" y="38.5791">com.ibm.fhir.model.type</text><line style="stroke: #A80036; stroke-width: 1.5;" x1="7" x2="164" y1="45.9375" y2="45.9375"/><ellipse cx="17" cy="56.9375" fill="#84BE84" rx="3" ry="3" style="stroke: #038048; stroke-width: 1.0;"/><text fill="#000000" font-family="sans-serif" font-size="11" font-style="italic" lengthAdjust="spacingAndGlyphs" textLength="107" x="26" y="60.1479">toBuilder(): Builder</text></a><!--MD5=[6804ce295a562f1b35d6f682c9f86efc]
class com.ibm.fhir.model.resource.ClaimResponse.Item.Detail--><a href="ClaimResponse.Item.Detail.html" target="_top" title="ClaimResponse.Item.Detail.html" xlink:actuate="onRequest" xlink:href="ClaimResponse.Item.Detail.html" xlink:show="new" xlink:title="ClaimResponse.Item.Detail.html" xlink:type="simple"><rect fill="#FEFECE" filter="url(#fr2ga11a3jvmv)" height="37.9375" id="com.ibm.fhir.model.resource.ClaimResponse.Item.Detail" style="stroke: #A80036; stroke-width: 1.5;" width="217" x="200" y="18.5"/><ellipse cx="215" cy="37.4688" fill="#ADD1B2" rx="11" ry="11" style="stroke: #A80036; stroke-width: 1.0;"/><path d="M217.9688,43.1094 Q217.3906,43.4063 216.75,43.5469 Q216.1094,43.7031 215.4063,43.7031 Q212.9063,43.7031 211.5781,42.0625 Q210.2656,40.4063 210.2656,37.2813 Q210.2656,34.1563 211.5781,32.5 Q212.9063,30.8438 215.4063,30.8438 Q216.1094,30.8438 216.75,31 Q217.4063,31.1563 217.9688,31.4531 L217.9688,34.1719 Q217.3438,33.5938 216.75,33.3281 Q216.1563,33.0469 215.5313,33.0469 Q214.1875,33.0469 213.5,34.125 Q212.8125,35.1875 212.8125,37.2813 Q212.8125,39.375 213.5,40.4531 Q214.1875,41.5156 215.5313,41.5156 Q216.1563,41.5156 216.75,41.25 Q217.3438,40.9688 217.9688,40.3906 L217.9688,43.1094 Z "/><text fill="#000000" font-family="sans-serif" font-size="14" lengthAdjust="spacingAndGlyphs" textLength="185" x="229" y="36.4951">ClaimResponse.Item.Detail</text><text fill="#000000" font-family="sans-serif" font-size="10" lengthAdjust="spacingAndGlyphs" textLength="139" x="252" y="49.0791">com.ibm.fhir.model.resource</text></a><!--MD5=[88447f1ee430a60b795a84a40210b8db]
class com.ibm.fhir.model.resource.ClaimResponse.Item.Detail.SubDetail.Builder--><a href="ClaimResponse.Item.Detail.SubDetail.Builder.html" target="_top" title="ClaimResponse.Item.Detail.SubDetail.Builder.html" xlink:actuate="onRequest" xlink:href="ClaimResponse.Item.Detail.SubDetail.Builder.html" xlink:show="new" xlink:title="ClaimResponse.Item.Detail.SubDetail.Builder.html" xlink:type="simple"><rect fill="#FEFECE" filter="url(#fr2ga11a3jvmv)" height="37.9375" id="com.ibm.fhir.model.resource.ClaimResponse.Item.Detail.SubDetail.Builder" style="stroke: #A80036; stroke-width: 1.5;" width="339" x="27" y="323"/><ellipse cx="42" cy="341.9688" fill="#ADD1B2" rx="11" ry="11" style="stroke: #A80036; stroke-width: 1.0;"/><path d="M44.9688,347.6094 Q44.3906,347.9063 43.75,348.0469 Q43.1094,348.2031 42.4063,348.2031 Q39.9063,348.2031 38.5781,346.5625 Q37.2656,344.9063 37.2656,341.7813 Q37.2656,338.6563 38.5781,337 Q39.9063,335.3438 42.4063,335.3438 Q43.1094,335.3438 43.75,335.5 Q44.4063,335.6563 44.9688,335.9531 L44.9688,338.6719 Q44.3438,338.0938 43.75,337.8281 Q43.1563,337.5469 42.5313,337.5469 Q41.1875,337.5469 40.5,338.625 Q39.8125,339.6875 39.8125,341.7813 Q39.8125,343.875 40.5,344.9531 Q41.1875,346.0156 42.5313,346.0156 Q43.1563,346.0156 43.75,345.75 Q44.3438,345.4688 44.9688,344.8906 L44.9688,347.6094 Z "/><text fill="#000000" font-family="sans-serif" font-size="14" lengthAdjust="spacingAndGlyphs" textLength="307" x="56" y="340.9951">ClaimResponse.Item.Detail.SubDetail.Builder</text><text fill="#000000" font-family="sans-serif" font-size="10" lengthAdjust="spacingAndGlyphs" textLength="139" x="140" y="353.5791">com.ibm.fhir.model.resource</text></a><!--MD5=[a18fd49d3050602d2e7076ced31e13b1]
reverse link com.ibm.fhir.model.type.BackboneElement to com.ibm.fhir.model.resource.ClaimResponse.Item.Detail.SubDetail--><path d="M118.1539,83.8332 C127.6803,97.3504 138.2946,112.4113 148.5576,126.9737 " fill="none" id="com.ibm.fhir.model.type.BackboneElement&lt;-com.ibm.fhir.model.resource.ClaimResponse.Item.Detail.SubDetail" style="stroke: #A80036; stroke-width: 1.0;"/><polygon fill="none" points="112.1779,87.5051,106.3783,67.1245,123.6215,79.44,112.1779,87.5051" style="stroke: #A80036; stroke-width: 1.0;"/><!--MD5=[366bc127fa52bfaf3cad3216212458fa]
reverse link com.ibm.fhir.model.resource.ClaimResponse.Item.Detail to com.ibm.fhir.model.resource.ClaimResponse.Item.Detail.SubDetail--><path d="M286.0328,69.0945 C274.2069,85.7246 259.2229,106.7959 244.9124,126.9201 " fill="none" id="com.ibm.fhir.model.resource.ClaimResponse.Item.Detail&lt;-com.ibm.fhir.model.resource.ClaimResponse.Item.Detail.SubDetail" style="stroke: #A80036; stroke-width: 1.0;"/><ellipse cx="290.1303" cy="63.3322" fill="#FFFFFF" rx="8" ry="8" style="stroke: #A80036; stroke-width: 1.0;"/><line style="stroke: #A80036; stroke-width: 1.0;" x1="285.4941" x2="294.7666" y1="69.8518" y2="56.8126"/><line style="stroke: #A80036; stroke-width: 1.0;" x1="283.6107" x2="296.6499" y1="58.6959" y2="67.9685"/><!--MD5=[87663f05df3efa4cb00999042ae88bfc]
reverse link com.ibm.fhir.model.resource.ClaimResponse.Item.Detail.SubDetail to com.ibm.fhir.model.resource.ClaimResponse.Item.Detail.SubDetail.Builder--><path d="M196.5,278.372 C196.5,295.0058 196.5,310.9526 196.5,322.721 " fill="none" id="com.ibm.fhir.model.resource.ClaimResponse.Item.Detail.SubDetail&lt;-com.ibm.fhir.model.resource.ClaimResponse.Item.Detail.SubDetail.Builder" style="stroke: #A80036; stroke-width: 1.0;"/><ellipse cx="196.5001" cy="271.3358" fill="#FFFFFF" rx="8" ry="8" style="stroke: #A80036; stroke-width: 1.0;"/><line style="stroke: #A80036; stroke-width: 1.0;" x1="196.5002" x2="196.5" y1="279.3358" y2="263.3358"/><line style="stroke: #A80036; stroke-width: 1.0;" x1="188.5001" x2="204.5001" y1="271.3359" y2="271.3357"/><text fill="#888888" font-family="sans-serif" font-size="10" lengthAdjust="spacingAndGlyphs" textLength="186" x="124.5" y="380.2822">UMLDoclet 2.0.7, PlantUML 1.2019.12</text><!--MD5=[eee3019dcf6c0b2f9ca6625777bf47dd]
@startuml
    set namespaceSeparator none
    hide empty fields
    hide empty methods

    class "<size:14>ClaimResponse.Item.Detail.SubDetail\n<size:10>com.ibm.fhir.model.resource" as com.ibm.fhir.model.resource.ClaimResponse.Item.Detail.SubDetail [[ClaimResponse.Item.Detail.SubDetail.html]] {
        +getSubDetailSequence(): PositiveInt
        +getNoteNumber(): List<PositiveInt>
        +getAdjudication(): List<Adjudication>
        +hasChildren(): boolean
        +accept(String, int, Visitor): void
        +toBuilder(): Builder
        {static} +builder(): Builder
    }

    abstract class "<size:14>BackboneElement\n<size:10>com.ibm.fhir.model.type" as com.ibm.fhir.model.type.BackboneElement [[../type/BackboneElement.html]] {
        {abstract} +toBuilder(): Builder
    }
    class "<size:14>ClaimResponse.Item.Detail\n<size:10>com.ibm.fhir.model.resource" as com.ibm.fhir.model.resource.ClaimResponse.Item.Detail [[ClaimResponse.Item.Detail.html]]
    class "<size:14>ClaimResponse.Item.Detail.SubDetail.Builder\n<size:10>com.ibm.fhir.model.resource" as com.ibm.fhir.model.resource.ClaimResponse.Item.Detail.SubDetail.Builder [[ClaimResponse.Item.Detail.SubDetail.Builder.html]]

    com.ibm.fhir.model.type.BackboneElement <|- - com.ibm.fhir.model.resource.ClaimResponse.Item.Detail.SubDetail
    com.ibm.fhir.model.resource.ClaimResponse.Item.Detail +- - com.ibm.fhir.model.resource.ClaimResponse.Item.Detail.SubDetail
    com.ibm.fhir.model.resource.ClaimResponse.Item.Detail.SubDetail +- - com.ibm.fhir.model.resource.ClaimResponse.Item.Detail.SubDetail.Builder

    center footer UMLDoclet 2.0.7, PlantUML 1.2019.12
@enduml

PlantUML version 1.2019.12(Sun Nov 03 10:24:54 UTC 2019)
(APACHE source distribution)
Java Runtime: OpenJDK Runtime Environment
JVM: OpenJDK 64-Bit Server VM
Java Version: 11.0.8+10
Operating System: Linux
Default Encoding: UTF-8
Language: en
Country: null
--></g></svg>