<?xml version="1.0" encoding="UTF-8" standalone="no"?><svg xmlns="http://www.w3.org/2000/svg" xmlns:xlink="http://www.w3.org/1999/xlink" contentScriptType="application/ecmascript" contentStyleType="text/css" height="393px" preserveAspectRatio="none" style="width:919px;height:393px;" version="1.1" viewBox="0 0 919 393" width="919px" zoomAndPan="magnify"><defs><filter height="300%" id="f1txqgdrllofc3" width="300%" x="-1" y="-1"><feGaussianBlur result="blurOut" stdDeviation="2.0"/><feColorMatrix in="blurOut" result="blurOut2" type="matrix" values="0 0 0 0 0 0 0 0 0 0 0 0 0 0 0 0 0 0 .4 0"/><feOffset dx="4.0" dy="4.0" in="blurOut2" result="blurOut3"/><feBlend in="SourceGraphic" in2="blurOut3" mode="normal"/></filter></defs><g><!--MD5=[a3cf672a165b46547942da79e9377716]
class com.ibm.fhir.model.resource.MedicinalProduct.Name--><a href="MedicinalProduct.Name.html" target="_top" title="MedicinalProduct.Name.html" xlink:actuate="onRequest" xlink:href="MedicinalProduct.Name.html" xlink:show="new" xlink:title="MedicinalProduct.Name.html" xlink:type="simple"><rect fill="#FEFECE" filter="url(#f1txqgdrllofc3)" height="135.5703" id="com.ibm.fhir.model.resource.MedicinalProduct.Name" style="stroke: #A80036; stroke-width: 1.5;" width="296" x="272" y="127"/><ellipse cx="334.75" cy="145.9688" fill="#ADD1B2" rx="11" ry="11" style="stroke: #A80036; stroke-width: 1.0;"/><path d="M337.7188,151.6094 Q337.1406,151.9063 336.5,152.0469 Q335.8594,152.2031 335.1563,152.2031 Q332.6563,152.2031 331.3281,150.5625 Q330.0156,148.9063 330.0156,145.7813 Q330.0156,142.6563 331.3281,141 Q332.6563,139.3438 335.1563,139.3438 Q335.8594,139.3438 336.5,139.5 Q337.1563,139.6563 337.7188,139.9531 L337.7188,142.6719 Q337.0938,142.0938 336.5,141.8281 Q335.9063,141.5469 335.2813,141.5469 Q333.9375,141.5469 333.25,142.625 Q332.5625,143.6875 332.5625,145.7813 Q332.5625,147.875 333.25,148.9531 Q333.9375,150.0156 335.2813,150.0156 Q335.9063,150.0156 336.5,149.75 Q337.0938,149.4688 337.7188,148.8906 L337.7188,151.6094 Z "/><text fill="#000000" font-family="sans-serif" font-size="14" lengthAdjust="spacingAndGlyphs" textLength="162" x="355.25" y="144.9951">MedicinalProduct.Name</text><text fill="#000000" font-family="sans-serif" font-size="10" lengthAdjust="spacingAndGlyphs" textLength="139" x="366.75" y="157.5791">com.ibm.fhir.model.resource</text><line style="stroke: #A80036; stroke-width: 1.5;" x1="273" x2="567" y1="164.9375" y2="164.9375"/><ellipse cx="283" cy="175.9375" fill="#84BE84" rx="3" ry="3" style="stroke: #038048; stroke-width: 1.0;"/><text fill="#000000" font-family="sans-serif" font-size="11" lengthAdjust="spacingAndGlyphs" textLength="144" x="292" y="179.1479">getProductName(): String</text><ellipse cx="283" cy="188.7422" fill="#84BE84" rx="3" ry="3" style="stroke: #038048; stroke-width: 1.0;"/><text fill="#000000" font-family="sans-serif" font-size="11" lengthAdjust="spacingAndGlyphs" textLength="184" x="292" y="191.9526">getNamePart(): List&lt;NamePart&gt;</text><ellipse cx="283" cy="201.5469" fill="#84BE84" rx="3" ry="3" style="stroke: #038048; stroke-width: 1.0;"/><text fill="#000000" font-family="sans-serif" font-size="11" lengthAdjust="spacingAndGlyphs" textLength="270" x="292" y="204.7573">getCountryLanguage(): List&lt;CountryLanguage&gt;</text><ellipse cx="283" cy="214.3516" fill="#84BE84" rx="3" ry="3" style="stroke: #038048; stroke-width: 1.0;"/><text fill="#000000" font-family="sans-serif" font-size="11" lengthAdjust="spacingAndGlyphs" textLength="129" x="292" y="217.562">hasChildren(): boolean</text><ellipse cx="283" cy="227.1563" fill="#84BE84" rx="3" ry="3" style="stroke: #038048; stroke-width: 1.0;"/><text fill="#000000" font-family="sans-serif" font-size="11" lengthAdjust="spacingAndGlyphs" textLength="176" x="292" y="230.3667">accept(String, int, Visitor): void</text><ellipse cx="283" cy="239.9609" fill="#84BE84" rx="3" ry="3" style="stroke: #038048; stroke-width: 1.0;"/><text fill="#000000" font-family="sans-serif" font-size="11" lengthAdjust="spacingAndGlyphs" textLength="107" x="292" y="243.1714">toBuilder(): Builder</text><ellipse cx="283" cy="252.7656" fill="#84BE84" rx="3" ry="3" style="stroke: #038048; stroke-width: 1.0;"/><text fill="#000000" font-family="sans-serif" font-size="11" lengthAdjust="spacingAndGlyphs" text-decoration="underline" textLength="95" x="292" y="255.9761">builder(): Builder</text></a><!--MD5=[efbff6997283c56b83e991a8eeb6a60a]
class com.ibm.fhir.model.type.BackboneElement--><a href="../type/BackboneElement.html" target="_top" title="../type/BackboneElement.html" xlink:actuate="onRequest" xlink:href="../type/BackboneElement.html" xlink:show="new" xlink:title="../type/BackboneElement.html" xlink:type="simple"><rect fill="#FEFECE" filter="url(#f1txqgdrllofc3)" height="58.7422" id="com.ibm.fhir.model.type.BackboneElement" style="stroke: #A80036; stroke-width: 1.5;" width="159" x="240.5" y="8"/><ellipse cx="255.5" cy="26.9688" fill="#A9DCDF" rx="11" ry="11" style="stroke: #A80036; stroke-width: 1.0;"/><path d="M255.6094,22.3125 L254.4531,27.3906 L256.7813,27.3906 L255.6094,22.3125 Z M254.125,20.0781 L257.1094,20.0781 L260.4688,32.4688 L258.0156,32.4688 L257.25,29.4063 L253.9688,29.4063 L253.2188,32.4688 L250.7813,32.4688 L254.125,20.0781 Z "/><text fill="#000000" font-family="sans-serif" font-size="14" font-style="italic" lengthAdjust="spacingAndGlyphs" textLength="127" x="269.5" y="25.9951">BackboneElement</text><text fill="#000000" font-family="sans-serif" font-size="10" font-style="italic" lengthAdjust="spacingAndGlyphs" textLength="119" x="273.5" y="38.5791">com.ibm.fhir.model.type</text><line style="stroke: #A80036; stroke-width: 1.5;" x1="241.5" x2="398.5" y1="45.9375" y2="45.9375"/><ellipse cx="251.5" cy="56.9375" fill="#84BE84" rx="3" ry="3" style="stroke: #038048; stroke-width: 1.0;"/><text fill="#000000" font-family="sans-serif" font-size="11" font-style="italic" lengthAdjust="spacingAndGlyphs" textLength="107" x="260.5" y="60.1479">toBuilder(): Builder</text></a><!--MD5=[8bd7d1db17a271934dda800b8f858252]
class com.ibm.fhir.model.resource.MedicinalProduct--><a href="MedicinalProduct.html" target="_top" title="MedicinalProduct.html" xlink:actuate="onRequest" xlink:href="MedicinalProduct.html" xlink:show="new" xlink:title="MedicinalProduct.html" xlink:type="simple"><rect fill="#FEFECE" filter="url(#f1txqgdrllofc3)" height="37.9375" id="com.ibm.fhir.model.resource.MedicinalProduct" style="stroke: #A80036; stroke-width: 1.5;" width="171" x="434.5" y="18.5"/><ellipse cx="449.5" cy="37.4688" fill="#ADD1B2" rx="11" ry="11" style="stroke: #A80036; stroke-width: 1.0;"/><path d="M452.4688,43.1094 Q451.8906,43.4063 451.25,43.5469 Q450.6094,43.7031 449.9063,43.7031 Q447.4063,43.7031 446.0781,42.0625 Q444.7656,40.4063 444.7656,37.2813 Q444.7656,34.1563 446.0781,32.5 Q447.4063,30.8438 449.9063,30.8438 Q450.6094,30.8438 451.25,31 Q451.9063,31.1563 452.4688,31.4531 L452.4688,34.1719 Q451.8438,33.5938 451.25,33.3281 Q450.6563,33.0469 450.0313,33.0469 Q448.6875,33.0469 448,34.125 Q447.3125,35.1875 447.3125,37.2813 Q447.3125,39.375 448,40.4531 Q448.6875,41.5156 450.0313,41.5156 Q450.6563,41.5156 451.25,41.25 Q451.8438,40.9688 452.4688,40.3906 L452.4688,43.1094 Z "/><text fill="#000000" font-family="sans-serif" font-size="14" lengthAdjust="spacingAndGlyphs" textLength="118" x="474" y="36.4951">MedicinalProduct</text><text fill="#000000" font-family="sans-serif" font-size="10" lengthAdjust="spacingAndGlyphs" textLength="139" x="463.5" y="49.0791">com.ibm.fhir.model.resource</text></a><!--MD5=[99e5bfa8414528fdf668bc4748a341ca]
class com.ibm.fhir.model.resource.MedicinalProduct.Name.Builder--><a href="MedicinalProduct.Name.Builder.html" target="_top" title="MedicinalProduct.Name.Builder.html" xlink:actuate="onRequest" xlink:href="MedicinalProduct.Name.Builder.html" xlink:show="new" xlink:title="MedicinalProduct.Name.Builder.html" xlink:type="simple"><rect fill="#FEFECE" filter="url(#f1txqgdrllofc3)" height="37.9375" id="com.ibm.fhir.model.resource.MedicinalProduct.Name.Builder" style="stroke: #A80036; stroke-width: 1.5;" width="246" x="6" y="323"/><ellipse cx="21" cy="341.9688" fill="#ADD1B2" rx="11" ry="11" style="stroke: #A80036; stroke-width: 1.0;"/><path d="M23.9688,347.6094 Q23.3906,347.9063 22.75,348.0469 Q22.1094,348.2031 21.4063,348.2031 Q18.9063,348.2031 17.5781,346.5625 Q16.2656,344.9063 16.2656,341.7813 Q16.2656,338.6563 17.5781,337 Q18.9063,335.3438 21.4063,335.3438 Q22.1094,335.3438 22.75,335.5 Q23.4063,335.6563 23.9688,335.9531 L23.9688,338.6719 Q23.3438,338.0938 22.75,337.8281 Q22.1563,337.5469 21.5313,337.5469 Q20.1875,337.5469 19.5,338.625 Q18.8125,339.6875 18.8125,341.7813 Q18.8125,343.875 19.5,344.9531 Q20.1875,346.0156 21.5313,346.0156 Q22.1563,346.0156 22.75,345.75 Q23.3438,345.4688 23.9688,344.8906 L23.9688,347.6094 Z "/><text fill="#000000" font-family="sans-serif" font-size="14" lengthAdjust="spacingAndGlyphs" textLength="214" x="35" y="340.9951">MedicinalProduct.Name.Builder</text><text fill="#000000" font-family="sans-serif" font-size="10" lengthAdjust="spacingAndGlyphs" textLength="139" x="72.5" y="353.5791">com.ibm.fhir.model.resource</text></a><!--MD5=[d5524fbcd2c6aa60a824d1cfe9eeaa97]
class com.ibm.fhir.model.resource.MedicinalProduct.Name.NamePart--><a href="MedicinalProduct.Name.NamePart.html" target="_top" title="MedicinalProduct.Name.NamePart.html" xlink:actuate="onRequest" xlink:href="MedicinalProduct.Name.NamePart.html" xlink:show="new" xlink:title="MedicinalProduct.Name.NamePart.html" xlink:type="simple"><rect fill="#FEFECE" filter="url(#f1txqgdrllofc3)" height="37.9375" id="com.ibm.fhir.model.resource.MedicinalProduct.Name.NamePart" style="stroke: #A80036; stroke-width: 1.5;" width="265" x="287.5" y="323"/><ellipse cx="302.5" cy="341.9688" fill="#ADD1B2" rx="11" ry="11" style="stroke: #A80036; stroke-width: 1.0;"/><path d="M305.4688,347.6094 Q304.8906,347.9063 304.25,348.0469 Q303.6094,348.2031 302.9063,348.2031 Q300.4063,348.2031 299.0781,346.5625 Q297.7656,344.9063 297.7656,341.7813 Q297.7656,338.6563 299.0781,337 Q300.4063,335.3438 302.9063,335.3438 Q303.6094,335.3438 304.25,335.5 Q304.9063,335.6563 305.4688,335.9531 L305.4688,338.6719 Q304.8438,338.0938 304.25,337.8281 Q303.6563,337.5469 303.0313,337.5469 Q301.6875,337.5469 301,338.625 Q300.3125,339.6875 300.3125,341.7813 Q300.3125,343.875 301,344.9531 Q301.6875,346.0156 303.0313,346.0156 Q303.6563,346.0156 304.25,345.75 Q304.8438,345.4688 305.4688,344.8906 L305.4688,347.6094 Z "/><text fill="#000000" font-family="sans-serif" font-size="14" lengthAdjust="spacingAndGlyphs" textLength="233" x="316.5" y="340.9951">MedicinalProduct.Name.NamePart</text><text fill="#000000" font-family="sans-serif" font-size="10" lengthAdjust="spacingAndGlyphs" textLength="139" x="363.5" y="353.5791">com.ibm.fhir.model.resource</text></a><!--MD5=[556ec292193f7b294853c11bda19ce96]
class com.ibm.fhir.model.resource.MedicinalProduct.Name.CountryLanguage--><a href="MedicinalProduct.Name.CountryLanguage.html" target="_top" title="MedicinalProduct.Name.CountryLanguage.html" xlink:actuate="onRequest" xlink:href="MedicinalProduct.Name.CountryLanguage.html" xlink:show="new" xlink:title="MedicinalProduct.Name.CountryLanguage.html" xlink:type="simple"><rect fill="#FEFECE" filter="url(#f1txqgdrllofc3)" height="37.9375" id="com.ibm.fhir.model.resource.MedicinalProduct.Name.CountryLanguage" style="stroke: #A80036; stroke-width: 1.5;" width="320" x="588" y="323"/><ellipse cx="603" cy="341.9688" fill="#ADD1B2" rx="11" ry="11" style="stroke: #A80036; stroke-width: 1.0;"/><path d="M605.9688,347.6094 Q605.3906,347.9063 604.75,348.0469 Q604.1094,348.2031 603.4063,348.2031 Q600.9063,348.2031 599.5781,346.5625 Q598.2656,344.9063 598.2656,341.7813 Q598.2656,338.6563 599.5781,337 Q600.9063,335.3438 603.4063,335.3438 Q604.1094,335.3438 604.75,335.5 Q605.4063,335.6563 605.9688,335.9531 L605.9688,338.6719 Q605.3438,338.0938 604.75,337.8281 Q604.1563,337.5469 603.5313,337.5469 Q602.1875,337.5469 601.5,338.625 Q600.8125,339.6875 600.8125,341.7813 Q600.8125,343.875 601.5,344.9531 Q602.1875,346.0156 603.5313,346.0156 Q604.1563,346.0156 604.75,345.75 Q605.3438,345.4688 605.9688,344.8906 L605.9688,347.6094 Z "/><text fill="#000000" font-family="sans-serif" font-size="14" lengthAdjust="spacingAndGlyphs" textLength="288" x="617" y="340.9951">MedicinalProduct.Name.CountryLanguage</text><text fill="#000000" font-family="sans-serif" font-size="10" lengthAdjust="spacingAndGlyphs" textLength="139" x="691.5" y="353.5791">com.ibm.fhir.model.resource</text></a><!--MD5=[d86a18d25a135c861633ebaa8ff1a446]
reverse link com.ibm.fhir.model.type.BackboneElement to com.ibm.fhir.model.resource.MedicinalProduct.Name--><path d="M349.7076,84.2895 C358.2151,97.6888 367.6666,112.5749 376.8087,126.9737 " fill="none" id="com.ibm.fhir.model.type.BackboneElement&lt;-com.ibm.fhir.model.resource.MedicinalProduct.Name" style="stroke: #A80036; stroke-width: 1.0;"/><polygon fill="none" points="343.6199,87.7609,338.8092,67.1245,355.4389,80.2567,343.6199,87.7609" style="stroke: #A80036; stroke-width: 1.0;"/><!--MD5=[8c9c8432a1fbeb6de144cd533b9aca88]
reverse link com.ibm.fhir.model.resource.MedicinalProduct to com.ibm.fhir.model.resource.MedicinalProduct.Name--><path d="M499.6255,69.5898 C489.1163,86.1418 475.8761,106.9951 463.2254,126.9201 " fill="none" id="com.ibm.fhir.model.resource.MedicinalProduct&lt;-com.ibm.fhir.model.resource.MedicinalProduct.Name" style="stroke: #A80036; stroke-width: 1.0;"/><ellipse cx="503.4499" cy="63.5663" fill="#FFFFFF" rx="8" ry="8" style="stroke: #A80036; stroke-width: 1.0;"/><line style="stroke: #A80036; stroke-width: 1.0;" x1="499.1618" x2="507.738" y1="70.32" y2="56.8126"/><line style="stroke: #A80036; stroke-width: 1.0;" x1="496.6962" x2="510.2036" y1="59.2782" y2="67.8544"/><!--MD5=[f4c82d3ce1ad22188520466392f478e1]
reverse link com.ibm.fhir.model.resource.MedicinalProduct.Name to com.ibm.fhir.model.resource.MedicinalProduct.Name.Builder--><path d="M271.6431,269.9432 C232.6383,289.6466 193.9073,309.2118 166.6681,322.9718 " fill="none" id="com.ibm.fhir.model.resource.MedicinalProduct.Name&lt;-com.ibm.fhir.model.resource.MedicinalProduct.Name.Builder" style="stroke: #A80036; stroke-width: 1.0;"/><ellipse cx="278.0077" cy="266.7281" fill="#FFFFFF" rx="8" ry="8" style="stroke: #A80036; stroke-width: 1.0;"/><line style="stroke: #A80036; stroke-width: 1.0;" x1="270.8671" x2="285.1483" y1="270.3353" y2="263.121"/><line style="stroke: #A80036; stroke-width: 1.0;" x1="274.4005" x2="281.6148" y1="259.5875" y2="273.8688"/><!--MD5=[db7ea6ad5fa97f934703baac6f5d4c42]
reverse link com.ibm.fhir.model.resource.MedicinalProduct.Name to com.ibm.fhir.model.resource.MedicinalProduct.Name.NamePart--><path d="M420,278.372 C420,295.0058 420,310.9526 420,322.721 " fill="none" id="com.ibm.fhir.model.resource.MedicinalProduct.Name&lt;-com.ibm.fhir.model.resource.MedicinalProduct.Name.NamePart" style="stroke: #A80036; stroke-width: 1.0;"/><ellipse cx="420.0001" cy="271.3358" fill="#FFFFFF" rx="8" ry="8" style="stroke: #A80036; stroke-width: 1.0;"/><line style="stroke: #A80036; stroke-width: 1.0;" x1="420.0002" x2="420" y1="279.3358" y2="263.3358"/><line style="stroke: #A80036; stroke-width: 1.0;" x1="412.0001" x2="428.0001" y1="271.3359" y2="271.3357"/><!--MD5=[ac2700ddfc10ddbdfb5e30eabac1fc58]
reverse link com.ibm.fhir.model.resource.MedicinalProduct.Name to com.ibm.fhir.model.resource.MedicinalProduct.Name.CountryLanguage--><path d="M581.9943,267.6011 C627.666,288.0698 673.545,308.6315 705.4606,322.9351 " fill="none" id="com.ibm.fhir.model.resource.MedicinalProduct.Name&lt;-com.ibm.fhir.model.resource.MedicinalProduct.Name.CountryLanguage" style="stroke: #A80036; stroke-width: 1.0;"/><ellipse cx="575.4668" cy="264.6757" fill="#FFFFFF" rx="8" ry="8" style="stroke: #A80036; stroke-width: 1.0;"/><line style="stroke: #A80036; stroke-width: 1.0;" x1="582.7672" x2="568.1665" y1="267.9476" y2="261.4039"/><line style="stroke: #A80036; stroke-width: 1.0;" x1="572.195" x2="578.7387" y1="271.9761" y2="257.3754"/><text fill="#888888" font-family="sans-serif" font-size="10" lengthAdjust="spacingAndGlyphs" textLength="186" x="370" y="380.2822">UMLDoclet 2.0.7, PlantUML 1.2019.12</text><!--MD5=[8b407e160c71fc42995513f2f62d3d51]
@startuml
    set namespaceSeparator none
    hide empty fields
    hide empty methods

    class "<size:14>MedicinalProduct.Name\n<size:10>com.ibm.fhir.model.resource" as com.ibm.fhir.model.resource.MedicinalProduct.Name [[MedicinalProduct.Name.html]] {
        +getProductName(): String
        +getNamePart(): List<NamePart>
        +getCountryLanguage(): List<CountryLanguage>
        +hasChildren(): boolean
        +accept(String, int, Visitor): void
        +toBuilder(): Builder
        {static} +builder(): Builder
    }

    abstract class "<size:14>BackboneElement\n<size:10>com.ibm.fhir.model.type" as com.ibm.fhir.model.type.BackboneElement [[../type/BackboneElement.html]] {
        {abstract} +toBuilder(): Builder
    }
    class "<size:14>MedicinalProduct\n<size:10>com.ibm.fhir.model.resource" as com.ibm.fhir.model.resource.MedicinalProduct [[MedicinalProduct.html]]
    class "<size:14>MedicinalProduct.Name.Builder\n<size:10>com.ibm.fhir.model.resource" as com.ibm.fhir.model.resource.MedicinalProduct.Name.Builder [[MedicinalProduct.Name.Builder.html]]
    class "<size:14>MedicinalProduct.Name.NamePart\n<size:10>com.ibm.fhir.model.resource" as com.ibm.fhir.model.resource.MedicinalProduct.Name.NamePart [[MedicinalProduct.Name.NamePart.html]]
    class "<size:14>MedicinalProduct.Name.CountryLanguage\n<size:10>com.ibm.fhir.model.resource" as com.ibm.fhir.model.resource.MedicinalProduct.Name.CountryLanguage [[MedicinalProduct.Name.CountryLanguage.html]]

    com.ibm.fhir.model.type.BackboneElement <|- - com.ibm.fhir.model.resource.MedicinalProduct.Name
    com.ibm.fhir.model.resource.MedicinalProduct +- - com.ibm.fhir.model.resource.MedicinalProduct.Name
    com.ibm.fhir.model.resource.MedicinalProduct.Name +- - com.ibm.fhir.model.resource.MedicinalProduct.Name.Builder
    com.ibm.fhir.model.resource.MedicinalProduct.Name +- - com.ibm.fhir.model.resource.MedicinalProduct.Name.NamePart
    com.ibm.fhir.model.resource.MedicinalProduct.Name +- - com.ibm.fhir.model.resource.MedicinalProduct.Name.CountryLanguage

    center footer UMLDoclet 2.0.7, PlantUML 1.2019.12
@enduml

PlantUML version 1.2019.12(Sun Nov 03 10:24:54 UTC 2019)
(APACHE source distribution)
Java Runtime: OpenJDK Runtime Environment
JVM: OpenJDK 64-Bit Server VM
Java Version: 11.0.8+10
Operating System: Linux
Default Encoding: UTF-8
Language: en
Country: null
--></g></svg>