<?xml version="1.0" encoding="UTF-8" standalone="no"?><svg xmlns="http://www.w3.org/2000/svg" xmlns:xlink="http://www.w3.org/1999/xlink" contentScriptType="application/ecmascript" contentStyleType="text/css" height="274px" preserveAspectRatio="none" style="width:289px;height:274px;" version="1.1" viewBox="0 0 289 274" width="289px" zoomAndPan="magnify"><defs><filter height="300%" id="f2mmhfc0yopw0" width="300%" x="-1" y="-1"><feGaussianBlur result="blurOut" stdDeviation="2.0"/><feColorMatrix in="blurOut" result="blurOut2" type="matrix" values="0 0 0 0 0 0 0 0 0 0 0 0 0 0 0 0 0 0 .4 0"/><feOffset dx="4.0" dy="4.0" in="blurOut2" result="blurOut3"/><feBlend in="SourceGraphic" in2="blurOut3" mode="normal"/></filter></defs><g><!--MD5=[19926e2f63898d21de3f23caad35a4da]
class com.ibm.fhir.term.spi.LookupOutcome.Property.Builder--><a href="LookupOutcome.Property.Builder.html" target="_top" title="LookupOutcome.Property.Builder.html" xlink:actuate="onRequest" xlink:href="LookupOutcome.Property.Builder.html" xlink:show="new" xlink:title="LookupOutcome.Property.Builder.html" xlink:type="simple"><rect fill="#FEFECE" filter="url(#f2mmhfc0yopw0)" height="135.5703" id="com.ibm.fhir.term.spi.LookupOutcome.Property.Builder" style="stroke: #A80036; stroke-width: 1.5;" width="272" x="6" y="106"/><ellipse cx="25.95" cy="124.9688" fill="#ADD1B2" rx="11" ry="11" style="stroke: #A80036; stroke-width: 1.0;"/><path d="M28.9188,130.6094 Q28.3406,130.9063 27.7,131.0469 Q27.0594,131.2031 26.3563,131.2031 Q23.8563,131.2031 22.5281,129.5625 Q21.2156,127.9063 21.2156,124.7813 Q21.2156,121.6563 22.5281,120 Q23.8563,118.3438 26.3563,118.3438 Q27.0594,118.3438 27.7,118.5 Q28.3563,118.6563 28.9188,118.9531 L28.9188,121.6719 Q28.2938,121.0938 27.7,120.8281 Q27.1063,120.5469 26.4813,120.5469 Q25.1375,120.5469 24.45,121.625 Q23.7625,122.6875 23.7625,124.7813 Q23.7625,126.875 24.45,127.9531 Q25.1375,129.0156 26.4813,129.0156 Q27.1063,129.0156 27.7,128.75 Q28.2938,128.4688 28.9188,127.8906 L28.9188,130.6094 Z "/><text fill="#000000" font-family="sans-serif" font-size="14" lengthAdjust="spacingAndGlyphs" textLength="229" x="41.05" y="123.9951">LookupOutcome.Property.Builder</text><text fill="#000000" font-family="sans-serif" font-size="10" lengthAdjust="spacingAndGlyphs" textLength="104" x="103.55" y="136.5791">com.ibm.fhir.term.spi</text><line style="stroke: #A80036; stroke-width: 1.5;" x1="7" x2="277" y1="143.9375" y2="143.9375"/><ellipse cx="17" cy="154.9375" fill="#84BE84" rx="3" ry="3" style="stroke: #038048; stroke-width: 1.0;"/><text fill="#000000" font-family="sans-serif" font-size="11" lengthAdjust="spacingAndGlyphs" textLength="112" x="26" y="158.1479">code(Code): Builder</text><ellipse cx="17" cy="167.7422" fill="#84BE84" rx="3" ry="3" style="stroke: #038048; stroke-width: 1.0;"/><text fill="#000000" font-family="sans-serif" font-size="11" lengthAdjust="spacingAndGlyphs" textLength="132" x="26" y="170.9526">value(Element): Builder</text><ellipse cx="17" cy="180.5469" fill="#84BE84" rx="3" ry="3" style="stroke: #038048; stroke-width: 1.0;"/><text fill="#000000" font-family="sans-serif" font-size="11" lengthAdjust="spacingAndGlyphs" textLength="153" x="26" y="183.7573">description(String): Builder</text><ellipse cx="17" cy="193.3516" fill="#84BE84" rx="3" ry="3" style="stroke: #038048; stroke-width: 1.0;"/><text fill="#000000" font-family="sans-serif" font-size="11" lengthAdjust="spacingAndGlyphs" textLength="185" x="26" y="196.562">subproperty(Property...): Builder</text><ellipse cx="17" cy="206.1563" fill="#84BE84" rx="3" ry="3" style="stroke: #038048; stroke-width: 1.0;"/><text fill="#000000" font-family="sans-serif" font-size="11" lengthAdjust="spacingAndGlyphs" textLength="246" x="26" y="209.3667">subproperty(Collection&lt;Property&gt;): Builder</text><ellipse cx="17" cy="218.9609" fill="#84BE84" rx="3" ry="3" style="stroke: #038048; stroke-width: 1.0;"/><text fill="#000000" font-family="sans-serif" font-size="11" lengthAdjust="spacingAndGlyphs" textLength="91" x="26" y="222.1714">build(): Property</text><polygon fill="#FFFF44" points="17,226.7656,21,230.7656,17,234.7656,13,230.7656" style="stroke: #B38D22; stroke-width: 1.0;"/><text fill="#000000" font-family="sans-serif" font-size="11" lengthAdjust="spacingAndGlyphs" textLength="131" x="26" y="234.9761">from(Property): Builder</text></a><!--MD5=[b3c891ff0b499bdef772122c0e1a4700]
class com.ibm.fhir.term.spi.LookupOutcome.Property--><a href="LookupOutcome.Property.html" target="_top" title="LookupOutcome.Property.html" xlink:actuate="onRequest" xlink:href="LookupOutcome.Property.html" xlink:show="new" xlink:title="LookupOutcome.Property.html" xlink:type="simple"><rect fill="#FEFECE" filter="url(#f2mmhfc0yopw0)" height="37.9375" id="com.ibm.fhir.term.spi.LookupOutcome.Property" style="stroke: #A80036; stroke-width: 1.5;" width="209" x="37.5" y="8"/><ellipse cx="52.5" cy="26.9688" fill="#ADD1B2" rx="11" ry="11" style="stroke: #A80036; stroke-width: 1.0;"/><path d="M55.4688,32.6094 Q54.8906,32.9063 54.25,33.0469 Q53.6094,33.2031 52.9063,33.2031 Q50.4063,33.2031 49.0781,31.5625 Q47.7656,29.9063 47.7656,26.7813 Q47.7656,23.6563 49.0781,22 Q50.4063,20.3438 52.9063,20.3438 Q53.6094,20.3438 54.25,20.5 Q54.9063,20.6563 55.4688,20.9531 L55.4688,23.6719 Q54.8438,23.0938 54.25,22.8281 Q53.6563,22.5469 53.0313,22.5469 Q51.6875,22.5469 51,23.625 Q50.3125,24.6875 50.3125,26.7813 Q50.3125,28.875 51,29.9531 Q51.6875,31.0156 53.0313,31.0156 Q53.6563,31.0156 54.25,30.75 Q54.8438,30.4688 55.4688,29.8906 L55.4688,32.6094 Z "/><text fill="#000000" font-family="sans-serif" font-size="14" lengthAdjust="spacingAndGlyphs" textLength="177" x="66.5" y="25.9951">LookupOutcome.Property</text><text fill="#000000" font-family="sans-serif" font-size="10" lengthAdjust="spacingAndGlyphs" textLength="104" x="103" y="38.5791">com.ibm.fhir.term.spi</text></a><!--MD5=[6b66172b6abe25202775bbb01ba24533]
reverse link com.ibm.fhir.term.spi.LookupOutcome.Property to com.ibm.fhir.term.spi.LookupOutcome.Property.Builder--><path d="M142,61.5519 C142,74.8239 142,90.4784 142,105.822 " fill="none" id="com.ibm.fhir.term.spi.LookupOutcome.Property&lt;-com.ibm.fhir.term.spi.LookupOutcome.Property.Builder" style="stroke: #A80036; stroke-width: 1.0;"/><ellipse cx="142.0001" cy="54.2177" fill="#FFFFFF" rx="8" ry="8" style="stroke: #A80036; stroke-width: 1.0;"/><line style="stroke: #A80036; stroke-width: 1.0;" x1="142.0002" x2="142" y1="62.2177" y2="46.2177"/><line style="stroke: #A80036; stroke-width: 1.0;" x1="134.0001" x2="150.0001" y1="54.2178" y2="54.2176"/><text fill="#888888" font-family="sans-serif" font-size="10" lengthAdjust="spacingAndGlyphs" textLength="186" x="55" y="261.2822">UMLDoclet 2.0.7, PlantUML 1.2019.12</text><!--MD5=[3e1ccb33ec86a93246eaf82d26e2bc06]
@startuml
    set namespaceSeparator none
    hide empty fields
    hide empty methods

    class "<size:14>LookupOutcome.Property.Builder\n<size:10>com.ibm.fhir.term.spi" as com.ibm.fhir.term.spi.LookupOutcome.Property.Builder [[LookupOutcome.Property.Builder.html]] {
        +code(Code): Builder
        +value(Element): Builder
        +description(String): Builder
        +subproperty(Property...): Builder
        +subproperty(Collection<Property>): Builder
        +build(): Property
        #from(Property): Builder
    }

    class "<size:14>LookupOutcome.Property\n<size:10>com.ibm.fhir.term.spi" as com.ibm.fhir.term.spi.LookupOutcome.Property [[LookupOutcome.Property.html]]

    com.ibm.fhir.term.spi.LookupOutcome.Property +- - com.ibm.fhir.term.spi.LookupOutcome.Property.Builder

    center footer UMLDoclet 2.0.7, PlantUML 1.2019.12
@enduml

PlantUML version 1.2019.12(Sun Nov 03 10:24:54 UTC 2019)
(APACHE source distribution)
Java Runtime: OpenJDK Runtime Environment
JVM: OpenJDK 64-Bit Server VM
Java Version: 11.0.9.1+1
Operating System: Linux
Default Encoding: UTF-8
Language: en
Country: null
--></g></svg>