<?xml version="1.0" encoding="UTF-8" standalone="no"?><svg xmlns="http://www.w3.org/2000/svg" xmlns:xlink="http://www.w3.org/1999/xlink" contentScriptType="application/ecmascript" contentStyleType="text/css" height="311px" preserveAspectRatio="none" style="width:3108px;height:311px;" version="1.1" viewBox="0 0 3108 311" width="3108px" zoomAndPan="magnify"><defs><filter height="300%" id="fqyjjucdd72nw" width="300%" x="-1" y="-1"><feGaussianBlur result="blurOut" stdDeviation="2.0"/><feColorMatrix in="blurOut" result="blurOut2" type="matrix" values="0 0 0 0 0 0 0 0 0 0 0 0 0 0 0 0 0 0 .4 0"/><feOffset dx="4.0" dy="4.0" in="blurOut2" result="blurOut3"/><feBlend in="SourceGraphic" in2="blurOut3" mode="normal"/></filter></defs><g><!--MD5=[2c7be1453e3cd31052ede026975349d2]
cluster com.ibm.fhir.database.utils.tenant--><polygon fill="#FFFFFF" filter="url(#fqyjjucdd72nw)" points="14,137,289,137,296,159.2969,3086,159.2969,3086,271,14,271,14,137" style="stroke: #000000; stroke-width: 1.5;"/><line style="stroke: #000000; stroke-width: 1.5;" x1="14" x2="296" y1="159.2969" y2="159.2969"/><text fill="#000000" font-family="sans-serif" font-size="14" font-weight="bold" lengthAdjust="spacingAndGlyphs" textLength="269" x="18" y="151.9951">com.ibm.fhir.database.utils.tenant</text><!--MD5=[3d30f6fe734b0ef414cf6767e542597b]
cluster com.ibm.fhir.database.utils.api--><polygon fill="#FFFFFF" filter="url(#fqyjjucdd72nw)" points="1475,16,1722,16,1729,38.2969,2050,38.2969,2050,112,1475,112,1475,16" style="stroke: #000000; stroke-width: 1.5;"/><line style="stroke: #000000; stroke-width: 1.5;" x1="1475" x2="1729" y1="38.2969" y2="38.2969"/><text fill="#000000" font-family="sans-serif" font-size="14" font-weight="bold" lengthAdjust="spacingAndGlyphs" textLength="241" x="1479" y="30.9951">com.ibm.fhir.database.utils.api</text><!--MD5=[f8a159f83dd009cf9338977e7e9b42ce]
class com.ibm.fhir.database.utils.tenant.GetTenantDAO--><a href="GetTenantDAO.html" target="_top" title="GetTenantDAO.html" xlink:actuate="onRequest" xlink:href="GetTenantDAO.html" xlink:show="new" xlink:title="GetTenantDAO.html" xlink:type="simple"><rect fill="#FEFECE" filter="url(#fqyjjucdd72nw)" height="73.6094" id="com.ibm.fhir.database.utils.tenant.GetTenantDAO" style="stroke: #A80036; stroke-width: 1.5;" width="287" x="2790.5" y="176.5"/><ellipse cx="2883.75" cy="192.5" fill="#ADD1B2" rx="11" ry="11" style="stroke: #A80036; stroke-width: 1.0;"/><path d="M2886.7188,198.1406 Q2886.1406,198.4375 2885.5,198.5781 Q2884.8594,198.7344 2884.1563,198.7344 Q2881.6563,198.7344 2880.3281,197.0938 Q2879.0156,195.4375 2879.0156,192.3125 Q2879.0156,189.1875 2880.3281,187.5313 Q2881.6563,185.875 2884.1563,185.875 Q2884.8594,185.875 2885.5,186.0313 Q2886.1563,186.1875 2886.7188,186.4844 L2886.7188,189.2031 Q2886.0938,188.625 2885.5,188.3594 Q2884.9063,188.0781 2884.2813,188.0781 Q2882.9375,188.0781 2882.25,189.1563 Q2881.5625,190.2188 2881.5625,192.3125 Q2881.5625,194.4063 2882.25,195.4844 Q2882.9375,196.5469 2884.2813,196.5469 Q2884.9063,196.5469 2885.5,196.2813 Q2886.0938,196 2886.7188,195.4219 L2886.7188,198.1406 Z "/><text fill="#000000" font-family="sans-serif" font-size="12" lengthAdjust="spacingAndGlyphs" textLength="92" x="2904.25" y="196.6543">GetTenantDAO</text><line style="stroke: #A80036; stroke-width: 1.5;" x1="2791.5" x2="3076.5" y1="208.5" y2="208.5"/><line style="stroke: #A80036; stroke-width: 1.5;" x1="2791.5" x2="3076.5" y1="216.5" y2="216.5"/><ellipse cx="2801.5" cy="227.5" fill="#84BE84" rx="3" ry="3" style="stroke: #038048; stroke-width: 1.0;"/><text fill="#000000" font-family="sans-serif" font-size="11" lengthAdjust="spacingAndGlyphs" textLength="167" x="2810.5" y="230.7104">GetTenantDAO(String, String)</text><ellipse cx="2801.5" cy="240.3047" fill="#84BE84" rx="3" ry="3" style="stroke: #038048; stroke-width: 1.0;"/><text fill="#000000" font-family="sans-serif" font-size="11" lengthAdjust="spacingAndGlyphs" textLength="261" x="2810.5" y="243.5151">run(IDatabaseTranslator, Connection): Tenant</text></a><!--MD5=[0d81d60c92377e5ff6a230392e508c9a]
class com.ibm.fhir.database.utils.tenant.AddTenantDAO--><a href="AddTenantDAO.html" target="_top" title="AddTenantDAO.html" xlink:actuate="onRequest" xlink:href="AddTenantDAO.html" xlink:show="new" xlink:title="AddTenantDAO.html" xlink:type="simple"><rect fill="#FEFECE" filter="url(#fqyjjucdd72nw)" height="73.6094" id="com.ibm.fhir.database.utils.tenant.AddTenantDAO" style="stroke: #A80036; stroke-width: 1.5;" width="271" x="1482.5" y="176.5"/><ellipse cx="1566.75" cy="192.5" fill="#ADD1B2" rx="11" ry="11" style="stroke: #A80036; stroke-width: 1.0;"/><path d="M1569.7188,198.1406 Q1569.1406,198.4375 1568.5,198.5781 Q1567.8594,198.7344 1567.1563,198.7344 Q1564.6563,198.7344 1563.3281,197.0938 Q1562.0156,195.4375 1562.0156,192.3125 Q1562.0156,189.1875 1563.3281,187.5313 Q1564.6563,185.875 1567.1563,185.875 Q1567.8594,185.875 1568.5,186.0313 Q1569.1563,186.1875 1569.7188,186.4844 L1569.7188,189.2031 Q1569.0938,188.625 1568.5,188.3594 Q1567.9063,188.0781 1567.2813,188.0781 Q1565.9375,188.0781 1565.25,189.1563 Q1564.5625,190.2188 1564.5625,192.3125 Q1564.5625,194.4063 1565.25,195.4844 Q1565.9375,196.5469 1567.2813,196.5469 Q1567.9063,196.5469 1568.5,196.2813 Q1569.0938,196 1569.7188,195.4219 L1569.7188,198.1406 Z "/><text fill="#000000" font-family="sans-serif" font-size="12" lengthAdjust="spacingAndGlyphs" textLength="94" x="1587.25" y="196.6543">AddTenantDAO</text><line style="stroke: #A80036; stroke-width: 1.5;" x1="1483.5" x2="1752.5" y1="208.5" y2="208.5"/><line style="stroke: #A80036; stroke-width: 1.5;" x1="1483.5" x2="1752.5" y1="216.5" y2="216.5"/><ellipse cx="1493.5" cy="227.5" fill="#84BE84" rx="3" ry="3" style="stroke: #038048; stroke-width: 1.0;"/><text fill="#000000" font-family="sans-serif" font-size="11" lengthAdjust="spacingAndGlyphs" textLength="190" x="1502.5" y="230.7104">AddTenantDAO(String, int, String)</text><ellipse cx="1493.5" cy="240.3047" fill="#84BE84" rx="3" ry="3" style="stroke: #038048; stroke-width: 1.0;"/><text fill="#000000" font-family="sans-serif" font-size="11" lengthAdjust="spacingAndGlyphs" textLength="245" x="1502.5" y="243.5151">run(IDatabaseTranslator, Connection): void</text></a><!--MD5=[3296ed24a0d230f7e4e758c3ca3f5be0]
class com.ibm.fhir.database.utils.tenant.DeleteTenantDAO--><a href="DeleteTenantDAO.html" target="_top" title="DeleteTenantDAO.html" xlink:actuate="onRequest" xlink:href="DeleteTenantDAO.html" xlink:show="new" xlink:title="DeleteTenantDAO.html" xlink:type="simple"><rect fill="#FEFECE" filter="url(#fqyjjucdd72nw)" height="99.2188" id="com.ibm.fhir.database.utils.tenant.DeleteTenantDAO" style="stroke: #A80036; stroke-width: 1.5;" width="382" x="1065" y="164"/><ellipse cx="1196.25" cy="180" fill="#ADD1B2" rx="11" ry="11" style="stroke: #A80036; stroke-width: 1.0;"/><path d="M1199.2188,185.6406 Q1198.6406,185.9375 1198,186.0781 Q1197.3594,186.2344 1196.6563,186.2344 Q1194.1563,186.2344 1192.8281,184.5938 Q1191.5156,182.9375 1191.5156,179.8125 Q1191.5156,176.6875 1192.8281,175.0313 Q1194.1563,173.375 1196.6563,173.375 Q1197.3594,173.375 1198,173.5313 Q1198.6563,173.6875 1199.2188,173.9844 L1199.2188,176.7031 Q1198.5938,176.125 1198,175.8594 Q1197.4063,175.5781 1196.7813,175.5781 Q1195.4375,175.5781 1194.75,176.6563 Q1194.0625,177.7188 1194.0625,179.8125 Q1194.0625,181.9063 1194.75,182.9844 Q1195.4375,184.0469 1196.7813,184.0469 Q1197.4063,184.0469 1198,183.7813 Q1198.5938,183.5 1199.2188,182.9219 L1199.2188,185.6406 Z "/><text fill="#000000" font-family="sans-serif" font-size="12" lengthAdjust="spacingAndGlyphs" textLength="111" x="1216.75" y="184.1543">DeleteTenantDAO</text><line style="stroke: #A80036; stroke-width: 1.5;" x1="1066" x2="1446" y1="196" y2="196"/><line style="stroke: #A80036; stroke-width: 1.5;" x1="1066" x2="1446" y1="204" y2="204"/><ellipse cx="1076" cy="215" fill="#84BE84" rx="3" ry="3" style="stroke: #038048; stroke-width: 1.0;"/><text fill="#000000" font-family="sans-serif" font-size="11" lengthAdjust="spacingAndGlyphs" textLength="163" x="1085" y="218.2104">DeleteTenantDAO(String, int)</text><ellipse cx="1076" cy="227.8047" fill="#84BE84" rx="3" ry="3" style="stroke: #038048; stroke-width: 1.0;"/><text fill="#000000" font-family="sans-serif" font-size="11" lengthAdjust="spacingAndGlyphs" textLength="245" x="1085" y="231.0151">run(IDatabaseTranslator, Connection): void</text><polygon fill="#FFFF44" points="1076,235.6094,1080,239.6094,1076,243.6094,1072,239.6094" style="stroke: #B38D22; stroke-width: 1.0;"/><text fill="#000000" font-family="sans-serif" font-size="11" lengthAdjust="spacingAndGlyphs" textLength="356" x="1085" y="243.8198">deleteFromTenantKeys(IDatabaseTranslator, Connection): void</text><polygon fill="#FFFF44" points="1076,248.4141,1080,252.4141,1076,256.4141,1072,252.4141" style="stroke: #B38D22; stroke-width: 1.0;"/><text fill="#000000" font-family="sans-serif" font-size="11" lengthAdjust="spacingAndGlyphs" textLength="336" x="1085" y="256.6245">deleteFromTenants(IDatabaseTranslator, Connection): void</text></a><!--MD5=[81e8e9d8ca1850aa719ba714f7646f5d]
class com.ibm.fhir.database.utils.tenant.DropViewDAO--><a href="DropViewDAO.html" target="_top" title="DropViewDAO.html" xlink:actuate="onRequest" xlink:href="DropViewDAO.html" xlink:show="new" xlink:title="DropViewDAO.html" xlink:type="simple"><rect fill="#FEFECE" filter="url(#fqyjjucdd72nw)" height="73.6094" id="com.ibm.fhir.database.utils.tenant.DropViewDAO" style="stroke: #A80036; stroke-width: 1.5;" width="271" x="758.5" y="176.5"/><ellipse cx="847.75" cy="192.5" fill="#ADD1B2" rx="11" ry="11" style="stroke: #A80036; stroke-width: 1.0;"/><path d="M850.7188,198.1406 Q850.1406,198.4375 849.5,198.5781 Q848.8594,198.7344 848.1563,198.7344 Q845.6563,198.7344 844.3281,197.0938 Q843.0156,195.4375 843.0156,192.3125 Q843.0156,189.1875 844.3281,187.5313 Q845.6563,185.875 848.1563,185.875 Q848.8594,185.875 849.5,186.0313 Q850.1563,186.1875 850.7188,186.4844 L850.7188,189.2031 Q850.0938,188.625 849.5,188.3594 Q848.9063,188.0781 848.2813,188.0781 Q846.9375,188.0781 846.25,189.1563 Q845.5625,190.2188 845.5625,192.3125 Q845.5625,194.4063 846.25,195.4844 Q846.9375,196.5469 848.2813,196.5469 Q848.9063,196.5469 849.5,196.2813 Q850.0938,196 850.7188,195.4219 L850.7188,198.1406 Z "/><text fill="#000000" font-family="sans-serif" font-size="12" lengthAdjust="spacingAndGlyphs" textLength="84" x="868.25" y="196.6543">DropViewDAO</text><line style="stroke: #A80036; stroke-width: 1.5;" x1="759.5" x2="1028.5" y1="208.5" y2="208.5"/><line style="stroke: #A80036; stroke-width: 1.5;" x1="759.5" x2="1028.5" y1="216.5" y2="216.5"/><ellipse cx="769.5" cy="227.5" fill="#84BE84" rx="3" ry="3" style="stroke: #038048; stroke-width: 1.0;"/><text fill="#000000" font-family="sans-serif" font-size="11" lengthAdjust="spacingAndGlyphs" textLength="214" x="778.5" y="230.7104">DropViewDAO(String, String, boolean)</text><ellipse cx="769.5" cy="240.3047" fill="#84BE84" rx="3" ry="3" style="stroke: #038048; stroke-width: 1.0;"/><text fill="#000000" font-family="sans-serif" font-size="11" lengthAdjust="spacingAndGlyphs" textLength="245" x="778.5" y="243.5151">run(IDatabaseTranslator, Connection): void</text></a><!--MD5=[f2791ba571b72dc55147e086f8da3230]
class com.ibm.fhir.database.utils.tenant.MaxTenantIdDAO--><a href="MaxTenantIdDAO.html" target="_top" title="MaxTenantIdDAO.html" xlink:actuate="onRequest" xlink:href="MaxTenantIdDAO.html" xlink:show="new" xlink:title="MaxTenantIdDAO.html" xlink:type="simple"><rect fill="#FEFECE" filter="url(#fqyjjucdd72nw)" height="73.6094" id="com.ibm.fhir.database.utils.tenant.MaxTenantIdDAO" style="stroke: #A80036; stroke-width: 1.5;" width="288" x="2467" y="176.5"/><ellipse cx="2554.25" cy="192.5" fill="#ADD1B2" rx="11" ry="11" style="stroke: #A80036; stroke-width: 1.0;"/><path d="M2557.2188,198.1406 Q2556.6406,198.4375 2556,198.5781 Q2555.3594,198.7344 2554.6563,198.7344 Q2552.1563,198.7344 2550.8281,197.0938 Q2549.5156,195.4375 2549.5156,192.3125 Q2549.5156,189.1875 2550.8281,187.5313 Q2552.1563,185.875 2554.6563,185.875 Q2555.3594,185.875 2556,186.0313 Q2556.6563,186.1875 2557.2188,186.4844 L2557.2188,189.2031 Q2556.5938,188.625 2556,188.3594 Q2555.4063,188.0781 2554.7813,188.0781 Q2553.4375,188.0781 2552.75,189.1563 Q2552.0625,190.2188 2552.0625,192.3125 Q2552.0625,194.4063 2552.75,195.4844 Q2553.4375,196.5469 2554.7813,196.5469 Q2555.4063,196.5469 2556,196.2813 Q2556.5938,196 2557.2188,195.4219 L2557.2188,198.1406 Z "/><text fill="#000000" font-family="sans-serif" font-size="12" lengthAdjust="spacingAndGlyphs" textLength="105" x="2574.75" y="196.6543">MaxTenantIdDAO</text><line style="stroke: #A80036; stroke-width: 1.5;" x1="2468" x2="2754" y1="208.5" y2="208.5"/><line style="stroke: #A80036; stroke-width: 1.5;" x1="2468" x2="2754" y1="216.5" y2="216.5"/><ellipse cx="2478" cy="227.5" fill="#84BE84" rx="3" ry="3" style="stroke: #038048; stroke-width: 1.0;"/><text fill="#000000" font-family="sans-serif" font-size="11" lengthAdjust="spacingAndGlyphs" textLength="137" x="2487" y="230.7104">MaxTenantIdDAO(String)</text><ellipse cx="2478" cy="240.3047" fill="#84BE84" rx="3" ry="3" style="stroke: #038048; stroke-width: 1.0;"/><text fill="#000000" font-family="sans-serif" font-size="11" lengthAdjust="spacingAndGlyphs" textLength="262" x="2487" y="243.5151">run(IDatabaseTranslator, Connection): Integer</text></a><!--MD5=[f90ea91174b07599307badfcc43debf0]
class com.ibm.fhir.database.utils.tenant.CreateOrReplaceViewDAO--><a href="CreateOrReplaceViewDAO.html" target="_top" title="CreateOrReplaceViewDAO.html" xlink:actuate="onRequest" xlink:href="CreateOrReplaceViewDAO.html" xlink:show="new" xlink:title="CreateOrReplaceViewDAO.html" xlink:type="simple"><rect fill="#FEFECE" filter="url(#fqyjjucdd72nw)" height="86.4141" id="com.ibm.fhir.database.utils.tenant.CreateOrReplaceViewDAO" style="stroke: #A80036; stroke-width: 1.5;" width="351" x="22.5" y="170.5"/><ellipse cx="113.75" cy="186.5" fill="#ADD1B2" rx="11" ry="11" style="stroke: #A80036; stroke-width: 1.0;"/><path d="M116.7188,192.1406 Q116.1406,192.4375 115.5,192.5781 Q114.8594,192.7344 114.1563,192.7344 Q111.6563,192.7344 110.3281,191.0938 Q109.0156,189.4375 109.0156,186.3125 Q109.0156,183.1875 110.3281,181.5313 Q111.6563,179.875 114.1563,179.875 Q114.8594,179.875 115.5,180.0313 Q116.1563,180.1875 116.7188,180.4844 L116.7188,183.2031 Q116.0938,182.625 115.5,182.3594 Q114.9063,182.0781 114.2813,182.0781 Q112.9375,182.0781 112.25,183.1563 Q111.5625,184.2188 111.5625,186.3125 Q111.5625,188.4063 112.25,189.4844 Q112.9375,190.5469 114.2813,190.5469 Q114.9063,190.5469 115.5,190.2813 Q116.0938,190 116.7188,189.4219 L116.7188,192.1406 Z "/><text fill="#000000" font-family="sans-serif" font-size="12" lengthAdjust="spacingAndGlyphs" textLength="160" x="134.25" y="190.6543">CreateOrReplaceViewDAO</text><line style="stroke: #A80036; stroke-width: 1.5;" x1="23.5" x2="372.5" y1="202.5" y2="202.5"/><line style="stroke: #A80036; stroke-width: 1.5;" x1="23.5" x2="372.5" y1="210.5" y2="210.5"/><ellipse cx="33.5" cy="221.5" fill="#84BE84" rx="3" ry="3" style="stroke: #038048; stroke-width: 1.0;"/><text fill="#000000" font-family="sans-serif" font-size="11" lengthAdjust="spacingAndGlyphs" textLength="325" x="42.5" y="224.7104">CreateOrReplaceViewDAO(String, String, String, boolean)</text><ellipse cx="33.5" cy="234.3047" fill="#84BE84" rx="3" ry="3" style="stroke: #038048; stroke-width: 1.0;"/><text fill="#000000" font-family="sans-serif" font-size="11" lengthAdjust="spacingAndGlyphs" textLength="272" x="42.5" y="237.5151">CreateOrReplaceViewDAO(String, String, String)</text><ellipse cx="33.5" cy="247.1094" fill="#84BE84" rx="3" ry="3" style="stroke: #038048; stroke-width: 1.0;"/><text fill="#000000" font-family="sans-serif" font-size="11" lengthAdjust="spacingAndGlyphs" textLength="245" x="42.5" y="250.3198">run(IDatabaseTranslator, Connection): void</text></a><!--MD5=[af50aaa210889399dff7eb896cd79995]
class com.ibm.fhir.database.utils.tenant.AddTenantKeyDAO--><a href="AddTenantKeyDAO.html" target="_top" title="AddTenantKeyDAO.html" xlink:actuate="onRequest" xlink:href="AddTenantKeyDAO.html" xlink:show="new" xlink:title="AddTenantKeyDAO.html" xlink:type="simple"><rect fill="#FEFECE" filter="url(#fqyjjucdd72nw)" height="73.6094" id="com.ibm.fhir.database.utils.tenant.AddTenantKeyDAO" style="stroke: #A80036; stroke-width: 1.5;" width="320" x="1789" y="176.5"/><ellipse cx="1887.25" cy="192.5" fill="#ADD1B2" rx="11" ry="11" style="stroke: #A80036; stroke-width: 1.0;"/><path d="M1890.2188,198.1406 Q1889.6406,198.4375 1889,198.5781 Q1888.3594,198.7344 1887.6563,198.7344 Q1885.1563,198.7344 1883.8281,197.0938 Q1882.5156,195.4375 1882.5156,192.3125 Q1882.5156,189.1875 1883.8281,187.5313 Q1885.1563,185.875 1887.6563,185.875 Q1888.3594,185.875 1889,186.0313 Q1889.6563,186.1875 1890.2188,186.4844 L1890.2188,189.2031 Q1889.5938,188.625 1889,188.3594 Q1888.4063,188.0781 1887.7813,188.0781 Q1886.4375,188.0781 1885.75,189.1563 Q1885.0625,190.2188 1885.0625,192.3125 Q1885.0625,194.4063 1885.75,195.4844 Q1886.4375,196.5469 1887.7813,196.5469 Q1888.4063,196.5469 1889,196.2813 Q1889.5938,196 1890.2188,195.4219 L1890.2188,198.1406 Z "/><text fill="#000000" font-family="sans-serif" font-size="12" lengthAdjust="spacingAndGlyphs" textLength="115" x="1907.75" y="196.6543">AddTenantKeyDAO</text><line style="stroke: #A80036; stroke-width: 1.5;" x1="1790" x2="2108" y1="208.5" y2="208.5"/><line style="stroke: #A80036; stroke-width: 1.5;" x1="1790" x2="2108" y1="216.5" y2="216.5"/><ellipse cx="1800" cy="227.5" fill="#84BE84" rx="3" ry="3" style="stroke: #038048; stroke-width: 1.0;"/><text fill="#000000" font-family="sans-serif" font-size="11" lengthAdjust="spacingAndGlyphs" textLength="294" x="1809" y="230.7104">AddTenantKeyDAO(String, int, String, String, String)</text><ellipse cx="1800" cy="240.3047" fill="#84BE84" rx="3" ry="3" style="stroke: #038048; stroke-width: 1.0;"/><text fill="#000000" font-family="sans-serif" font-size="11" lengthAdjust="spacingAndGlyphs" textLength="245" x="1809" y="243.5151">run(IDatabaseTranslator, Connection): void</text></a><!--MD5=[3db67ffa631ed55a4bd70a535ce7bcee]
class com.ibm.fhir.database.utils.tenant.UpdateTenantStatusDAO--><a href="UpdateTenantStatusDAO.html" target="_top" title="UpdateTenantStatusDAO.html" xlink:actuate="onRequest" xlink:href="UpdateTenantStatusDAO.html" xlink:show="new" xlink:title="UpdateTenantStatusDAO.html" xlink:type="simple"><rect fill="#FEFECE" filter="url(#fqyjjucdd72nw)" height="73.6094" id="com.ibm.fhir.database.utils.tenant.UpdateTenantStatusDAO" style="stroke: #A80036; stroke-width: 1.5;" width="314" x="409" y="176.5"/><ellipse cx="483.25" cy="192.5" fill="#ADD1B2" rx="11" ry="11" style="stroke: #A80036; stroke-width: 1.0;"/><path d="M486.2188,198.1406 Q485.6406,198.4375 485,198.5781 Q484.3594,198.7344 483.6563,198.7344 Q481.1563,198.7344 479.8281,197.0938 Q478.5156,195.4375 478.5156,192.3125 Q478.5156,189.1875 479.8281,187.5313 Q481.1563,185.875 483.6563,185.875 Q484.3594,185.875 485,186.0313 Q485.6563,186.1875 486.2188,186.4844 L486.2188,189.2031 Q485.5938,188.625 485,188.3594 Q484.4063,188.0781 483.7813,188.0781 Q482.4375,188.0781 481.75,189.1563 Q481.0625,190.2188 481.0625,192.3125 Q481.0625,194.4063 481.75,195.4844 Q482.4375,196.5469 483.7813,196.5469 Q484.4063,196.5469 485,196.2813 Q485.5938,196 486.2188,195.4219 L486.2188,198.1406 Z "/><text fill="#000000" font-family="sans-serif" font-size="12" lengthAdjust="spacingAndGlyphs" textLength="157" x="503.75" y="196.6543">UpdateTenantStatusDAO</text><line style="stroke: #A80036; stroke-width: 1.5;" x1="410" x2="722" y1="208.5" y2="208.5"/><line style="stroke: #A80036; stroke-width: 1.5;" x1="410" x2="722" y1="216.5" y2="216.5"/><ellipse cx="420" cy="227.5" fill="#84BE84" rx="3" ry="3" style="stroke: #038048; stroke-width: 1.0;"/><text fill="#000000" font-family="sans-serif" font-size="11" lengthAdjust="spacingAndGlyphs" textLength="288" x="429" y="230.7104">UpdateTenantStatusDAO(String, int, TenantStatus)</text><ellipse cx="420" cy="240.3047" fill="#84BE84" rx="3" ry="3" style="stroke: #038048; stroke-width: 1.0;"/><text fill="#000000" font-family="sans-serif" font-size="11" lengthAdjust="spacingAndGlyphs" textLength="245" x="429" y="243.5151">run(IDatabaseTranslator, Connection): void</text></a><!--MD5=[814c9aaa2cdbd277a00d297ee2771fdb]
class com.ibm.fhir.database.utils.tenant.FindTenantIdDAO--><a href="FindTenantIdDAO.html" target="_top" title="FindTenantIdDAO.html" xlink:actuate="onRequest" xlink:href="FindTenantIdDAO.html" xlink:show="new" xlink:title="FindTenantIdDAO.html" xlink:type="simple"><rect fill="#FEFECE" filter="url(#fqyjjucdd72nw)" height="73.6094" id="com.ibm.fhir.database.utils.tenant.FindTenantIdDAO" style="stroke: #A80036; stroke-width: 1.5;" width="288" x="2144" y="176.5"/><ellipse cx="2230.25" cy="192.5" fill="#ADD1B2" rx="11" ry="11" style="stroke: #A80036; stroke-width: 1.0;"/><path d="M2233.2188,198.1406 Q2232.6406,198.4375 2232,198.5781 Q2231.3594,198.7344 2230.6563,198.7344 Q2228.1563,198.7344 2226.8281,197.0938 Q2225.5156,195.4375 2225.5156,192.3125 Q2225.5156,189.1875 2226.8281,187.5313 Q2228.1563,185.875 2230.6563,185.875 Q2231.3594,185.875 2232,186.0313 Q2232.6563,186.1875 2233.2188,186.4844 L2233.2188,189.2031 Q2232.5938,188.625 2232,188.3594 Q2231.4063,188.0781 2230.7813,188.0781 Q2229.4375,188.0781 2228.75,189.1563 Q2228.0625,190.2188 2228.0625,192.3125 Q2228.0625,194.4063 2228.75,195.4844 Q2229.4375,196.5469 2230.7813,196.5469 Q2231.4063,196.5469 2232,196.2813 Q2232.5938,196 2233.2188,195.4219 L2233.2188,198.1406 Z "/><text fill="#000000" font-family="sans-serif" font-size="12" lengthAdjust="spacingAndGlyphs" textLength="107" x="2250.75" y="196.6543">FindTenantIdDAO</text><line style="stroke: #A80036; stroke-width: 1.5;" x1="2145" x2="2431" y1="208.5" y2="208.5"/><line style="stroke: #A80036; stroke-width: 1.5;" x1="2145" x2="2431" y1="216.5" y2="216.5"/><ellipse cx="2155" cy="227.5" fill="#84BE84" rx="3" ry="3" style="stroke: #038048; stroke-width: 1.0;"/><text fill="#000000" font-family="sans-serif" font-size="11" lengthAdjust="spacingAndGlyphs" textLength="180" x="2164" y="230.7104">FindTenantIdDAO(String, String)</text><ellipse cx="2155" cy="240.3047" fill="#84BE84" rx="3" ry="3" style="stroke: #038048; stroke-width: 1.0;"/><text fill="#000000" font-family="sans-serif" font-size="11" lengthAdjust="spacingAndGlyphs" textLength="262" x="2164" y="243.5151">run(IDatabaseTranslator, Connection): Integer</text></a><!--MD5=[93ea417c481fd981345e931714a643b2]
class com.ibm.fhir.database.utils.api.IDatabaseSupplier--><a href="../api/IDatabaseSupplier.html" target="_top" title="../api/IDatabaseSupplier.html" xlink:actuate="onRequest" xlink:href="../api/IDatabaseSupplier.html" xlink:show="new" xlink:title="../api/IDatabaseSupplier.html" xlink:type="simple"><rect fill="#FEFECE" filter="url(#fqyjjucdd72nw)" height="60.8047" id="com.ibm.fhir.database.utils.api.IDatabaseSupplier" style="stroke: #A80036; stroke-width: 1.5;" width="253" x="1788.5" y="43"/><ellipse cx="1847.75" cy="59" fill="#B4A7E5" rx="11" ry="11" style="stroke: #A80036; stroke-width: 1.0;"/><path d="M1843.6719,54.7656 L1843.6719,52.6094 L1851.0625,52.6094 L1851.0625,54.7656 L1848.5938,54.7656 L1848.5938,62.8438 L1851.0625,62.8438 L1851.0625,65 L1843.6719,65 L1843.6719,62.8438 L1846.1406,62.8438 L1846.1406,54.7656 L1843.6719,54.7656 Z "/><text fill="#000000" font-family="sans-serif" font-size="12" font-style="italic" lengthAdjust="spacingAndGlyphs" textLength="115" x="1868.25" y="63.1543">IDatabaseSupplier</text><rect fill="#FFFFFF" height="15.9688" style="stroke: #000000; stroke-width: 1.0; stroke-dasharray: 2.0,2.0;" width="9" x="2035.5" y="40"/><text fill="#000000" font-family="sans-serif" font-size="12" font-style="italic" lengthAdjust="spacingAndGlyphs" textLength="7" x="2036.5" y="52.1387">T</text><line style="stroke: #A80036; stroke-width: 1.5;" x1="1789.5" x2="2040.5" y1="75" y2="75"/><line style="stroke: #A80036; stroke-width: 1.5;" x1="1789.5" x2="2040.5" y1="83" y2="83"/><ellipse cx="1799.5" cy="94" fill="#84BE84" rx="3" ry="3" style="stroke: #038048; stroke-width: 1.0;"/><text fill="#000000" font-family="sans-serif" font-size="11" font-style="italic" lengthAdjust="spacingAndGlyphs" textLength="227" x="1808.5" y="97.2104">run(IDatabaseTranslator, Connection): T</text></a><!--MD5=[a6c3f5e8fad2a12b9c0e8873425ea717]
class com.ibm.fhir.database.utils.api.IDatabaseStatement--><a href="../api/IDatabaseStatement.html" target="_top" title="../api/IDatabaseStatement.html" xlink:actuate="onRequest" xlink:href="../api/IDatabaseStatement.html" xlink:show="new" xlink:title="../api/IDatabaseStatement.html" xlink:type="simple"><rect fill="#FEFECE" filter="url(#fqyjjucdd72nw)" height="60.8047" id="com.ibm.fhir.database.utils.api.IDatabaseStatement" style="stroke: #A80036; stroke-width: 1.5;" width="270" x="1483" y="43"/><ellipse cx="1548.75" cy="59" fill="#B4A7E5" rx="11" ry="11" style="stroke: #A80036; stroke-width: 1.0;"/><path d="M1544.6719,54.7656 L1544.6719,52.6094 L1552.0625,52.6094 L1552.0625,54.7656 L1549.5938,54.7656 L1549.5938,62.8438 L1552.0625,62.8438 L1552.0625,65 L1544.6719,65 L1544.6719,62.8438 L1547.1406,62.8438 L1547.1406,54.7656 L1544.6719,54.7656 Z "/><text fill="#000000" font-family="sans-serif" font-size="12" font-style="italic" lengthAdjust="spacingAndGlyphs" textLength="130" x="1569.25" y="63.1543">IDatabaseStatement</text><line style="stroke: #A80036; stroke-width: 1.5;" x1="1484" x2="1752" y1="75" y2="75"/><line style="stroke: #A80036; stroke-width: 1.5;" x1="1484" x2="1752" y1="83" y2="83"/><ellipse cx="1494" cy="94" fill="#84BE84" rx="3" ry="3" style="stroke: #038048; stroke-width: 1.0;"/><text fill="#000000" font-family="sans-serif" font-size="11" font-style="italic" lengthAdjust="spacingAndGlyphs" textLength="244" x="1503" y="97.2104">run(IDatabaseTranslator, Connection): void</text></a><!--MD5=[e11b56a5b8b0aca363f8485a5b17357d]
reverse link com.ibm.fhir.database.utils.api.IDatabaseSupplier to com.ibm.fhir.database.utils.tenant.GetTenantDAO--><path d="M2061.8412,77.8465 C2270.7584,85.1433 2642.8879,102.565 2773,137 C2806.3567,145.8281 2841.1984,161.4782 2869.9038,176.333 " fill="none" id="com.ibm.fhir.database.utils.api.IDatabaseSupplier&lt;-com.ibm.fhir.database.utils.tenant.GetTenantDAO" style="stroke: #A80036; stroke-width: 1.0; stroke-dasharray: 7.0,7.0;"/><polygon fill="none" points="2061.5862,84.8419,2041.8375,77.1613,2062.0655,70.8501,2061.5862,84.8419" style="stroke: #A80036; stroke-width: 1.0;"/><!--MD5=[200e6fc8f4bb656dab874e2d9a03d97e]
reverse link com.ibm.fhir.database.utils.api.IDatabaseStatement to com.ibm.fhir.database.utils.tenant.AddTenantDAO--><path d="M1618,124.4112 C1618,141.6034 1618,160.459 1618,176.3788 " fill="none" id="com.ibm.fhir.database.utils.api.IDatabaseStatement&lt;-com.ibm.fhir.database.utils.tenant.AddTenantDAO" style="stroke: #A80036; stroke-width: 1.0; stroke-dasharray: 7.0,7.0;"/><polygon fill="none" points="1611.0001,124.2236,1618,104.2236,1625.0001,124.2236,1611.0001,124.2236" style="stroke: #A80036; stroke-width: 1.0;"/><!--MD5=[f4a777078c8929101a50d3c116121b31]
reverse link com.ibm.fhir.database.utils.api.IDatabaseStatement to com.ibm.fhir.database.utils.tenant.DeleteTenantDAO--><path d="M1520.0695,111.3737 C1478.2715,127.5387 1428.9262,146.6225 1384.272,163.8921 " fill="none" id="com.ibm.fhir.database.utils.api.IDatabaseStatement&lt;-com.ibm.fhir.database.utils.tenant.DeleteTenantDAO" style="stroke: #A80036; stroke-width: 1.0; stroke-dasharray: 7.0,7.0;"/><polygon fill="none" points="1517.8263,104.736,1539.0049,104.0506,1522.8762,117.7935,1517.8263,104.736" style="stroke: #A80036; stroke-width: 1.0;"/><!--MD5=[05250b0cdf29ebd0c3472d6b0914d7c9]
reverse link com.ibm.fhir.database.utils.api.IDatabaseStatement to com.ibm.fhir.database.utils.tenant.DropViewDAO--><path d="M1462.6724,84.685 C1321.1571,95.9879 1123.1348,114.906 1048,137 C1016.3522,146.3063 983.333,161.8316 956.0228,176.4733 " fill="none" id="com.ibm.fhir.database.utils.api.IDatabaseStatement&lt;-com.ibm.fhir.database.utils.tenant.DropViewDAO" style="stroke: #A80036; stroke-width: 1.0; stroke-dasharray: 7.0,7.0;"/><polygon fill="none" points="1462.1952,77.701,1482.6836,83.1072,1463.2957,91.6577,1462.1952,77.701" style="stroke: #A80036; stroke-width: 1.0;"/><!--MD5=[a09f5e7ce5a92e74b5cf87104e71cd86]
reverse link com.ibm.fhir.database.utils.api.IDatabaseSupplier to com.ibm.fhir.database.utils.tenant.MaxTenantIdDAO--><path d="M2061.6396,85.5266 C2194.3488,97.39 2379.4782,116.6557 2450,137 C2482.7071,146.4354 2517.0322,161.8866 2545.5461,176.4416 " fill="none" id="com.ibm.fhir.database.utils.api.IDatabaseSupplier&lt;-com.ibm.fhir.database.utils.tenant.MaxTenantIdDAO" style="stroke: #A80036; stroke-width: 1.0; stroke-dasharray: 7.0,7.0;"/><polygon fill="none" points="2060.9449,92.4926,2041.6389,83.7589,2062.1775,78.5469,2060.9449,92.4926" style="stroke: #A80036; stroke-width: 1.0;"/><!--MD5=[e5d30aef028ab9c574cef6b2d5df9c47]
reverse link com.ibm.fhir.database.utils.api.IDatabaseStatement to com.ibm.fhir.database.utils.tenant.CreateOrReplaceViewDAO--><path d="M1462.4995,75.3084 C1179.6165,79.6345 591.6171,93.6849 392,137 C357.5033,144.4855 321.143,157.3657 289.3424,170.4457 " fill="none" id="com.ibm.fhir.database.utils.api.IDatabaseStatement&lt;-com.ibm.fhir.database.utils.tenant.CreateOrReplaceViewDAO" style="stroke: #A80036; stroke-width: 1.0; stroke-dasharray: 7.0,7.0;"/><polygon fill="none" points="1462.6397,68.3056,1482.7416,75.0075,1462.8479,82.3041,1462.6397,68.3056" style="stroke: #A80036; stroke-width: 1.0;"/><!--MD5=[569f88e5c836b1598c0a9e682d4eb6c6]
reverse link com.ibm.fhir.database.utils.api.IDatabaseStatement to com.ibm.fhir.database.utils.tenant.AddTenantKeyDAO--><path d="M1711.0192,111.8879 C1730.8356,120.127 1751.6259,128.8167 1771,137 C1801.0557,149.6951 1833.8903,163.7527 1863.0827,176.3178 " fill="none" id="com.ibm.fhir.database.utils.api.IDatabaseStatement&lt;-com.ibm.fhir.database.utils.tenant.AddTenantKeyDAO" style="stroke: #A80036; stroke-width: 1.0; stroke-dasharray: 7.0,7.0;"/><polygon fill="none" points="1708.1846,118.2905,1692.3963,104.158,1713.5518,105.3602,1708.1846,118.2905" style="stroke: #A80036; stroke-width: 1.0;"/><!--MD5=[0afb6ec29c87a02b18b37eb3bf82d702]
reverse link com.ibm.fhir.database.utils.api.IDatabaseStatement to com.ibm.fhir.database.utils.tenant.UpdateTenantStatusDAO--><path d="M1462.749,78.4202 C1248.4469,86.296 873.4423,104.2808 741,137 C705.1079,145.867 667.2834,161.5221 636.0187,176.3702 " fill="none" id="com.ibm.fhir.database.utils.api.IDatabaseStatement&lt;-com.ibm.fhir.database.utils.tenant.UpdateTenantStatusDAO" style="stroke: #A80036; stroke-width: 1.0; stroke-dasharray: 7.0,7.0;"/><polygon fill="none" points="1462.7329,71.4163,1482.9727,77.6894,1463.2386,85.4071,1462.7329,71.4163" style="stroke: #A80036; stroke-width: 1.0;"/><!--MD5=[358bb99c5e31ae44b43e2b19601a9592]
reverse link com.ibm.fhir.database.utils.api.IDatabaseSupplier to com.ibm.fhir.database.utils.tenant.FindTenantIdDAO--><path d="M2048.0613,109.9643 C2074.4655,118.1482 2101.8028,127.3051 2127,137 C2156.7486,148.4461 2188.6217,163.0655 2216.0939,176.4518 " fill="none" id="com.ibm.fhir.database.utils.api.IDatabaseSupplier&lt;-com.ibm.fhir.database.utils.tenant.FindTenantIdDAO" style="stroke: #A80036; stroke-width: 1.0; stroke-dasharray: 7.0,7.0;"/><polygon fill="none" points="2045.6766,116.5558,2028.5754,104.0438,2049.7467,103.1605,2045.6766,116.5558" style="stroke: #A80036; stroke-width: 1.0;"/><text fill="#888888" font-family="sans-serif" font-size="10" lengthAdjust="spacingAndGlyphs" textLength="186" x="1463" y="298.2822">UMLDoclet 2.0.7, PlantUML 1.2019.12</text><!--MD5=[62adab58a04231ee00c61337473b8d9e]
@startuml
    namespace com.ibm.fhir.database.utils.tenant {

        class GetTenantDAO [[GetTenantDAO.html]] {
            +GetTenantDAO(String, String)
            +run(IDatabaseTranslator, Connection): Tenant
        }

        class AddTenantDAO [[AddTenantDAO.html]] {
            +AddTenantDAO(String, int, String)
            +run(IDatabaseTranslator, Connection): void
        }

        class DeleteTenantDAO [[DeleteTenantDAO.html]] {
            +DeleteTenantDAO(String, int)
            +run(IDatabaseTranslator, Connection): void
            #deleteFromTenantKeys(IDatabaseTranslator, Connection): void
            #deleteFromTenants(IDatabaseTranslator, Connection): void
        }

        class DropViewDAO [[DropViewDAO.html]] {
            +DropViewDAO(String, String, boolean)
            +run(IDatabaseTranslator, Connection): void
        }

        class MaxTenantIdDAO [[MaxTenantIdDAO.html]] {
            +MaxTenantIdDAO(String)
            +run(IDatabaseTranslator, Connection): Integer
        }

        class CreateOrReplaceViewDAO [[CreateOrReplaceViewDAO.html]] {
            +CreateOrReplaceViewDAO(String, String, String, boolean)
            +CreateOrReplaceViewDAO(String, String, String)
            +run(IDatabaseTranslator, Connection): void
        }

        class AddTenantKeyDAO [[AddTenantKeyDAO.html]] {
            +AddTenantKeyDAO(String, int, String, String, String)
            +run(IDatabaseTranslator, Connection): void
        }

        class UpdateTenantStatusDAO [[UpdateTenantStatusDAO.html]] {
            +UpdateTenantStatusDAO(String, int, TenantStatus)
            +run(IDatabaseTranslator, Connection): void
        }

        class FindTenantIdDAO [[FindTenantIdDAO.html]] {
            +FindTenantIdDAO(String, String)
            +run(IDatabaseTranslator, Connection): Integer
        }

        com.ibm.fhir.database.utils.api.IDatabaseSupplier <|.. GetTenantDAO
        com.ibm.fhir.database.utils.api.IDatabaseStatement <|.. AddTenantDAO
        com.ibm.fhir.database.utils.api.IDatabaseStatement <|.. DeleteTenantDAO
        com.ibm.fhir.database.utils.api.IDatabaseStatement <|.. DropViewDAO
        com.ibm.fhir.database.utils.api.IDatabaseSupplier <|.. MaxTenantIdDAO
        com.ibm.fhir.database.utils.api.IDatabaseStatement <|.. CreateOrReplaceViewDAO
        com.ibm.fhir.database.utils.api.IDatabaseStatement <|.. AddTenantKeyDAO
        com.ibm.fhir.database.utils.api.IDatabaseStatement <|.. UpdateTenantStatusDAO
        com.ibm.fhir.database.utils.api.IDatabaseSupplier <|.. FindTenantIdDAO
    }

    namespace com.ibm.fhir.database.utils.api {
        interface IDatabaseSupplier<T> [[../api/IDatabaseSupplier.html]] {
            {abstract} +run(IDatabaseTranslator, Connection): T
        }
        interface IDatabaseStatement [[../api/IDatabaseStatement.html]] {
            {abstract} +run(IDatabaseTranslator, Connection): void
        }
    }

    center footer UMLDoclet 2.0.7, PlantUML 1.2019.12
@enduml

PlantUML version 1.2019.12(Sun Nov 03 10:24:54 UTC 2019)
(APACHE source distribution)
Java Runtime: OpenJDK Runtime Environment
JVM: OpenJDK 64-Bit Server VM
Java Version: 11.0.10+9
Operating System: Linux
Default Encoding: UTF-8
Language: en
Country: null
--></g></svg>