<?xml version="1.0" encoding="UTF-8" standalone="no"?><svg xmlns="http://www.w3.org/2000/svg" xmlns:xlink="http://www.w3.org/1999/xlink" contentScriptType="application/ecmascript" contentStyleType="text/css" height="405px" preserveAspectRatio="none" style="width:1089px;height:405px;" version="1.1" viewBox="0 0 1089 405" width="1089px" zoomAndPan="magnify"><defs><filter height="300%" id="fwu66nae26uva" width="300%" x="-1" y="-1"><feGaussianBlur result="blurOut" stdDeviation="2.0"/><feColorMatrix in="blurOut" result="blurOut2" type="matrix" values="0 0 0 0 0 0 0 0 0 0 0 0 0 0 0 0 0 0 .4 0"/><feOffset dx="4.0" dy="4.0" in="blurOut2" result="blurOut3"/><feBlend in="SourceGraphic" in2="blurOut3" mode="normal"/></filter></defs><g><!--MD5=[91b41267df75921eb69b883ac5c9ce10]
class com.ibm.fhir.model.resource.CapabilityStatement.Messaging--><a href="CapabilityStatement.Messaging.html" target="_top" title="CapabilityStatement.Messaging.html" xlink:actuate="onRequest" xlink:href="CapabilityStatement.Messaging.html" xlink:show="new" xlink:title="CapabilityStatement.Messaging.html" xlink:type="simple"><rect fill="#FEFECE" filter="url(#fwu66nae26uva)" height="148.375" id="com.ibm.fhir.model.resource.CapabilityStatement.Messaging" style="stroke: #A80036; stroke-width: 1.5;" width="318" x="339" y="127"/><ellipse cx="385.75" cy="145.9688" fill="#ADD1B2" rx="11" ry="11" style="stroke: #A80036; stroke-width: 1.0;"/><path d="M388.7188,151.6094 Q388.1406,151.9063 387.5,152.0469 Q386.8594,152.2031 386.1563,152.2031 Q383.6563,152.2031 382.3281,150.5625 Q381.0156,148.9063 381.0156,145.7813 Q381.0156,142.6563 382.3281,141 Q383.6563,139.3438 386.1563,139.3438 Q386.8594,139.3438 387.5,139.5 Q388.1563,139.6563 388.7188,139.9531 L388.7188,142.6719 Q388.0938,142.0938 387.5,141.8281 Q386.9063,141.5469 386.2813,141.5469 Q384.9375,141.5469 384.25,142.625 Q383.5625,143.6875 383.5625,145.7813 Q383.5625,147.875 384.25,148.9531 Q384.9375,150.0156 386.2813,150.0156 Q386.9063,150.0156 387.5,149.75 Q388.0938,149.4688 388.7188,148.8906 L388.7188,151.6094 Z "/><text fill="#000000" font-family="sans-serif" font-size="14" lengthAdjust="spacingAndGlyphs" textLength="216" x="406.25" y="144.9951">CapabilityStatement.Messaging</text><text fill="#000000" font-family="sans-serif" font-size="10" lengthAdjust="spacingAndGlyphs" textLength="139" x="444.75" y="157.5791">com.ibm.fhir.model.resource</text><line style="stroke: #A80036; stroke-width: 1.5;" x1="340" x2="656" y1="164.9375" y2="164.9375"/><ellipse cx="350" cy="175.9375" fill="#84BE84" rx="3" ry="3" style="stroke: #038048; stroke-width: 1.0;"/><text fill="#000000" font-family="sans-serif" font-size="11" lengthAdjust="spacingAndGlyphs" textLength="170" x="359" y="179.1479">getEndpoint(): List&lt;Endpoint&gt;</text><ellipse cx="350" cy="188.7422" fill="#84BE84" rx="3" ry="3" style="stroke: #038048; stroke-width: 1.0;"/><text fill="#000000" font-family="sans-serif" font-size="11" lengthAdjust="spacingAndGlyphs" textLength="180" x="359" y="191.9526">getReliableCache(): UnsignedInt</text><ellipse cx="350" cy="201.5469" fill="#84BE84" rx="3" ry="3" style="stroke: #038048; stroke-width: 1.0;"/><text fill="#000000" font-family="sans-serif" font-size="11" lengthAdjust="spacingAndGlyphs" textLength="176" x="359" y="204.7573">getDocumentation(): Markdown</text><ellipse cx="350" cy="214.3516" fill="#84BE84" rx="3" ry="3" style="stroke: #038048; stroke-width: 1.0;"/><text fill="#000000" font-family="sans-serif" font-size="11" lengthAdjust="spacingAndGlyphs" textLength="292" x="359" y="217.562">getSupportedMessage(): List&lt;SupportedMessage&gt;</text><ellipse cx="350" cy="227.1563" fill="#84BE84" rx="3" ry="3" style="stroke: #038048; stroke-width: 1.0;"/><text fill="#000000" font-family="sans-serif" font-size="11" lengthAdjust="spacingAndGlyphs" textLength="129" x="359" y="230.3667">hasChildren(): boolean</text><ellipse cx="350" cy="239.9609" fill="#84BE84" rx="3" ry="3" style="stroke: #038048; stroke-width: 1.0;"/><text fill="#000000" font-family="sans-serif" font-size="11" lengthAdjust="spacingAndGlyphs" textLength="176" x="359" y="243.1714">accept(String, int, Visitor): void</text><ellipse cx="350" cy="252.7656" fill="#84BE84" rx="3" ry="3" style="stroke: #038048; stroke-width: 1.0;"/><text fill="#000000" font-family="sans-serif" font-size="11" lengthAdjust="spacingAndGlyphs" textLength="107" x="359" y="255.9761">toBuilder(): Builder</text><ellipse cx="350" cy="265.5703" fill="#84BE84" rx="3" ry="3" style="stroke: #038048; stroke-width: 1.0;"/><text fill="#000000" font-family="sans-serif" font-size="11" lengthAdjust="spacingAndGlyphs" text-decoration="underline" textLength="95" x="359" y="268.7808">builder(): Builder</text></a><!--MD5=[efbff6997283c56b83e991a8eeb6a60a]
class com.ibm.fhir.model.type.BackboneElement--><a href="../type/BackboneElement.html" target="_top" title="../type/BackboneElement.html" xlink:actuate="onRequest" xlink:href="../type/BackboneElement.html" xlink:show="new" xlink:title="../type/BackboneElement.html" xlink:type="simple"><rect fill="#FEFECE" filter="url(#fwu66nae26uva)" height="58.7422" id="com.ibm.fhir.model.type.BackboneElement" style="stroke: #A80036; stroke-width: 1.5;" width="159" x="318.5" y="8"/><ellipse cx="333.5" cy="26.9688" fill="#A9DCDF" rx="11" ry="11" style="stroke: #A80036; stroke-width: 1.0;"/><path d="M333.6094,22.3125 L332.4531,27.3906 L334.7813,27.3906 L333.6094,22.3125 Z M332.125,20.0781 L335.1094,20.0781 L338.4688,32.4688 L336.0156,32.4688 L335.25,29.4063 L331.9688,29.4063 L331.2188,32.4688 L328.7813,32.4688 L332.125,20.0781 Z "/><text fill="#000000" font-family="sans-serif" font-size="14" font-style="italic" lengthAdjust="spacingAndGlyphs" textLength="127" x="347.5" y="25.9951">BackboneElement</text><text fill="#000000" font-family="sans-serif" font-size="10" font-style="italic" lengthAdjust="spacingAndGlyphs" textLength="123" x="349.5" y="38.5791">com.ibm.fhir.model.type</text><line style="stroke: #A80036; stroke-width: 1.5;" x1="319.5" x2="476.5" y1="45.9375" y2="45.9375"/><ellipse cx="329.5" cy="56.9375" fill="#84BE84" rx="3" ry="3" style="stroke: #038048; stroke-width: 1.0;"/><text fill="#000000" font-family="sans-serif" font-size="11" font-style="italic" lengthAdjust="spacingAndGlyphs" textLength="107" x="338.5" y="60.1479">toBuilder(): Builder</text></a><!--MD5=[4b510abd3af1324f9fc20e9b5b1cfa36]
class com.ibm.fhir.model.resource.CapabilityStatement--><a href="CapabilityStatement.html" target="_top" title="CapabilityStatement.html" xlink:actuate="onRequest" xlink:href="CapabilityStatement.html" xlink:show="new" xlink:title="CapabilityStatement.html" xlink:type="simple"><rect fill="#FEFECE" filter="url(#fwu66nae26uva)" height="37.9375" id="com.ibm.fhir.model.resource.CapabilityStatement" style="stroke: #A80036; stroke-width: 1.5;" width="171" x="512.5" y="18.5"/><ellipse cx="527.5" cy="37.4688" fill="#ADD1B2" rx="11" ry="11" style="stroke: #A80036; stroke-width: 1.0;"/><path d="M530.4688,43.1094 Q529.8906,43.4063 529.25,43.5469 Q528.6094,43.7031 527.9063,43.7031 Q525.4063,43.7031 524.0781,42.0625 Q522.7656,40.4063 522.7656,37.2813 Q522.7656,34.1563 524.0781,32.5 Q525.4063,30.8438 527.9063,30.8438 Q528.6094,30.8438 529.25,31 Q529.9063,31.1563 530.4688,31.4531 L530.4688,34.1719 Q529.8438,33.5938 529.25,33.3281 Q528.6563,33.0469 528.0313,33.0469 Q526.6875,33.0469 526,34.125 Q525.3125,35.1875 525.3125,37.2813 Q525.3125,39.375 526,40.4531 Q526.6875,41.5156 528.0313,41.5156 Q528.6563,41.5156 529.25,41.25 Q529.8438,40.9688 530.4688,40.3906 L530.4688,43.1094 Z "/><text fill="#000000" font-family="sans-serif" font-size="14" lengthAdjust="spacingAndGlyphs" textLength="137" x="542.5" y="36.4951">CapabilityStatement</text><text fill="#000000" font-family="sans-serif" font-size="10" lengthAdjust="spacingAndGlyphs" textLength="139" x="541.5" y="49.0791">com.ibm.fhir.model.resource</text></a><!--MD5=[32eb1ce5689d345d4d6f035d9683b391]
class com.ibm.fhir.model.resource.CapabilityStatement.Messaging.Builder--><a href="CapabilityStatement.Messaging.Builder.html" target="_top" title="CapabilityStatement.Messaging.Builder.html" xlink:actuate="onRequest" xlink:href="CapabilityStatement.Messaging.Builder.html" xlink:show="new" xlink:title="CapabilityStatement.Messaging.Builder.html" xlink:type="simple"><rect fill="#FEFECE" filter="url(#fwu66nae26uva)" height="37.9375" id="com.ibm.fhir.model.resource.CapabilityStatement.Messaging.Builder" style="stroke: #A80036; stroke-width: 1.5;" width="300" x="6" y="335"/><ellipse cx="21" cy="353.9688" fill="#ADD1B2" rx="11" ry="11" style="stroke: #A80036; stroke-width: 1.0;"/><path d="M23.9688,359.6094 Q23.3906,359.9063 22.75,360.0469 Q22.1094,360.2031 21.4063,360.2031 Q18.9063,360.2031 17.5781,358.5625 Q16.2656,356.9063 16.2656,353.7813 Q16.2656,350.6563 17.5781,349 Q18.9063,347.3438 21.4063,347.3438 Q22.1094,347.3438 22.75,347.5 Q23.4063,347.6563 23.9688,347.9531 L23.9688,350.6719 Q23.3438,350.0938 22.75,349.8281 Q22.1563,349.5469 21.5313,349.5469 Q20.1875,349.5469 19.5,350.625 Q18.8125,351.6875 18.8125,353.7813 Q18.8125,355.875 19.5,356.9531 Q20.1875,358.0156 21.5313,358.0156 Q22.1563,358.0156 22.75,357.75 Q23.3438,357.4688 23.9688,356.8906 L23.9688,359.6094 Z "/><text fill="#000000" font-family="sans-serif" font-size="14" lengthAdjust="spacingAndGlyphs" textLength="268" x="35" y="352.9951">CapabilityStatement.Messaging.Builder</text><text fill="#000000" font-family="sans-serif" font-size="10" lengthAdjust="spacingAndGlyphs" textLength="139" x="99.5" y="365.5791">com.ibm.fhir.model.resource</text></a><!--MD5=[59d17721d26d6087415df1c8d8b64d2a]
class com.ibm.fhir.model.resource.CapabilityStatement.Messaging.Endpoint--><a href="CapabilityStatement.Messaging.Endpoint.html" target="_top" title="CapabilityStatement.Messaging.Endpoint.html" xlink:actuate="onRequest" xlink:href="CapabilityStatement.Messaging.Endpoint.html" xlink:show="new" xlink:title="CapabilityStatement.Messaging.Endpoint.html" xlink:type="simple"><rect fill="#FEFECE" filter="url(#fwu66nae26uva)" height="37.9375" id="com.ibm.fhir.model.resource.CapabilityStatement.Messaging.Endpoint" style="stroke: #A80036; stroke-width: 1.5;" width="314" x="341" y="335"/><ellipse cx="356" cy="353.9688" fill="#ADD1B2" rx="11" ry="11" style="stroke: #A80036; stroke-width: 1.0;"/><path d="M358.9688,359.6094 Q358.3906,359.9063 357.75,360.0469 Q357.1094,360.2031 356.4063,360.2031 Q353.9063,360.2031 352.5781,358.5625 Q351.2656,356.9063 351.2656,353.7813 Q351.2656,350.6563 352.5781,349 Q353.9063,347.3438 356.4063,347.3438 Q357.1094,347.3438 357.75,347.5 Q358.4063,347.6563 358.9688,347.9531 L358.9688,350.6719 Q358.3438,350.0938 357.75,349.8281 Q357.1563,349.5469 356.5313,349.5469 Q355.1875,349.5469 354.5,350.625 Q353.8125,351.6875 353.8125,353.7813 Q353.8125,355.875 354.5,356.9531 Q355.1875,358.0156 356.5313,358.0156 Q357.1563,358.0156 357.75,357.75 Q358.3438,357.4688 358.9688,356.8906 L358.9688,359.6094 Z "/><text fill="#000000" font-family="sans-serif" font-size="14" lengthAdjust="spacingAndGlyphs" textLength="282" x="370" y="352.9951">CapabilityStatement.Messaging.Endpoint</text><text fill="#000000" font-family="sans-serif" font-size="10" lengthAdjust="spacingAndGlyphs" textLength="139" x="441.5" y="365.5791">com.ibm.fhir.model.resource</text></a><!--MD5=[f98e67bab412a6484d89564fef7f0a3e]
class com.ibm.fhir.model.resource.CapabilityStatement.Messaging.SupportedMessage--><a href="CapabilityStatement.Messaging.SupportedMessage.html" target="_top" title="CapabilityStatement.Messaging.SupportedMessage.html" xlink:actuate="onRequest" xlink:href="CapabilityStatement.Messaging.SupportedMessage.html" xlink:show="new" xlink:title="CapabilityStatement.Messaging.SupportedMessage.html" xlink:type="simple"><rect fill="#FEFECE" filter="url(#fwu66nae26uva)" height="37.9375" id="com.ibm.fhir.model.resource.CapabilityStatement.Messaging.SupportedMessage" style="stroke: #A80036; stroke-width: 1.5;" width="388" x="690" y="335"/><ellipse cx="705" cy="353.9688" fill="#ADD1B2" rx="11" ry="11" style="stroke: #A80036; stroke-width: 1.0;"/><path d="M707.9688,359.6094 Q707.3906,359.9063 706.75,360.0469 Q706.1094,360.2031 705.4063,360.2031 Q702.9063,360.2031 701.5781,358.5625 Q700.2656,356.9063 700.2656,353.7813 Q700.2656,350.6563 701.5781,349 Q702.9063,347.3438 705.4063,347.3438 Q706.1094,347.3438 706.75,347.5 Q707.4063,347.6563 707.9688,347.9531 L707.9688,350.6719 Q707.3438,350.0938 706.75,349.8281 Q706.1563,349.5469 705.5313,349.5469 Q704.1875,349.5469 703.5,350.625 Q702.8125,351.6875 702.8125,353.7813 Q702.8125,355.875 703.5,356.9531 Q704.1875,358.0156 705.5313,358.0156 Q706.1563,358.0156 706.75,357.75 Q707.3438,357.4688 707.9688,356.8906 L707.9688,359.6094 Z "/><text fill="#000000" font-family="sans-serif" font-size="14" lengthAdjust="spacingAndGlyphs" textLength="356" x="719" y="352.9951">CapabilityStatement.Messaging.SupportedMessage</text><text fill="#000000" font-family="sans-serif" font-size="10" lengthAdjust="spacingAndGlyphs" textLength="139" x="827.5" y="365.5791">com.ibm.fhir.model.resource</text></a><!--MD5=[74d26dadb42c77eb7a9df3d32fe228fc]
reverse link com.ibm.fhir.model.type.BackboneElement to com.ibm.fhir.model.resource.CapabilityStatement.Messaging--><path d="M426.43,84.42 C434.59,97.6 443.7,112.31 452.61,126.7 " fill="none" id="com.ibm.fhir.model.type.BackboneElement&lt;-com.ibm.fhir.model.resource.CapabilityStatement.Messaging" style="stroke: #A80036; stroke-width: 1.0;"/><polygon fill="none" points="420.23,87.69,415.65,67,432.13,80.32,420.23,87.69" style="stroke: #A80036; stroke-width: 1.0;"/><!--MD5=[114c40fa45ce7f02cd0ecd40a95995d2]
reverse link com.ibm.fhir.model.resource.CapabilityStatement to com.ibm.fhir.model.resource.CapabilityStatement.Messaging--><path d="M578.61,69.81 C568.49,86.15 555.66,106.88 543.22,126.96 " fill="none" id="com.ibm.fhir.model.resource.CapabilityStatement&lt;-com.ibm.fhir.model.resource.CapabilityStatement.Messaging" style="stroke: #A80036; stroke-width: 1.0;"/><ellipse cx="582.5081" cy="63.5115" fill="#FFFFFF" rx="8" ry="8" style="stroke: #A80036; stroke-width: 1.0;"/><line style="stroke: #A80036; stroke-width: 1.0;" x1="578.2962" x2="586.72" y1="70.3129" y2="56.71"/><line style="stroke: #A80036; stroke-width: 1.0;" x1="575.7066" x2="589.3096" y1="59.2996" y2="67.7234"/><!--MD5=[3ecf3c13db0a0343c3e95a104429c4a0]
reverse link com.ibm.fhir.model.resource.CapabilityStatement.Messaging to com.ibm.fhir.model.resource.CapabilityStatement.Messaging.Builder--><path d="M324.91,278.42 C276.96,299.59 229.23,320.67 196.81,334.98 " fill="none" id="com.ibm.fhir.model.resource.CapabilityStatement.Messaging&lt;-com.ibm.fhir.model.resource.CapabilityStatement.Messaging.Builder" style="stroke: #A80036; stroke-width: 1.0;"/><ellipse cx="331.4407" cy="275.5393" fill="#FFFFFF" rx="8" ry="8" style="stroke: #A80036; stroke-width: 1.0;"/><line style="stroke: #A80036; stroke-width: 1.0;" x1="324.1215" x2="338.76" y1="278.7686" y2="272.31"/><line style="stroke: #A80036; stroke-width: 1.0;" x1="328.2114" x2="334.67" y1="268.22" y2="282.8586"/><!--MD5=[08d4599a8ebb6bc9eb6ed7adbe1ca90f]
reverse link com.ibm.fhir.model.resource.CapabilityStatement.Messaging to com.ibm.fhir.model.resource.CapabilityStatement.Messaging.Endpoint--><path d="M498,290.51 C498,307.29 498,323.19 498,334.75 " fill="none" id="com.ibm.fhir.model.resource.CapabilityStatement.Messaging&lt;-com.ibm.fhir.model.resource.CapabilityStatement.Messaging.Endpoint" style="stroke: #A80036; stroke-width: 1.0;"/><ellipse cx="498" cy="283.29" fill="#FFFFFF" rx="8" ry="8" style="stroke: #A80036; stroke-width: 1.0;"/><line style="stroke: #A80036; stroke-width: 1.0;" x1="498" x2="498" y1="291.29" y2="275.29"/><line style="stroke: #A80036; stroke-width: 1.0;" x1="490" x2="506" y1="283.29" y2="283.29"/><!--MD5=[c2496a61b8d5d8480df8b274ca526cf3]
reverse link com.ibm.fhir.model.resource.CapabilityStatement.Messaging to com.ibm.fhir.model.resource.CapabilityStatement.Messaging.SupportedMessage--><path d="M671.44,269.85 C732.5,293.73 796.19,318.65 837.75,334.91 " fill="none" id="com.ibm.fhir.model.resource.CapabilityStatement.Messaging&lt;-com.ibm.fhir.model.resource.CapabilityStatement.Messaging.SupportedMessage" style="stroke: #A80036; stroke-width: 1.0;"/><ellipse cx="664.6817" cy="267.2006" fill="#FFFFFF" rx="8" ry="8" style="stroke: #A80036; stroke-width: 1.0;"/><line style="stroke: #A80036; stroke-width: 1.0;" x1="672.1335" x2="657.23" y1="270.1112" y2="264.29"/><line style="stroke: #A80036; stroke-width: 1.0;" x1="661.7711" x2="667.5923" y1="274.6523" y2="259.7489"/><text fill="#888888" font-family="sans-serif" font-size="10" lengthAdjust="spacingAndGlyphs" textLength="186" x="455" y="392.2822">UMLDoclet 2.0.7, PlantUML 1.2019.12</text><!--MD5=[1c5c6a2fdef08d907a29fa6b9cfe9f3b]
@startuml
    set namespaceSeparator none
    hide empty fields
    hide empty methods

    class "<size:14>CapabilityStatement.Messaging\n<size:10>com.ibm.fhir.model.resource" as com.ibm.fhir.model.resource.CapabilityStatement.Messaging [[CapabilityStatement.Messaging.html]] {
        +getEndpoint(): List<Endpoint>
        +getReliableCache(): UnsignedInt
        +getDocumentation(): Markdown
        +getSupportedMessage(): List<SupportedMessage>
        +hasChildren(): boolean
        +accept(String, int, Visitor): void
        +toBuilder(): Builder
        {static} +builder(): Builder
    }

    abstract class "<size:14>BackboneElement\n<size:10>com.ibm.fhir.model.type" as com.ibm.fhir.model.type.BackboneElement [[../type/BackboneElement.html]] {
        {abstract} +toBuilder(): Builder
    }
    class "<size:14>CapabilityStatement\n<size:10>com.ibm.fhir.model.resource" as com.ibm.fhir.model.resource.CapabilityStatement [[CapabilityStatement.html]]
    class "<size:14>CapabilityStatement.Messaging.Builder\n<size:10>com.ibm.fhir.model.resource" as com.ibm.fhir.model.resource.CapabilityStatement.Messaging.Builder [[CapabilityStatement.Messaging.Builder.html]]
    class "<size:14>CapabilityStatement.Messaging.Endpoint\n<size:10>com.ibm.fhir.model.resource" as com.ibm.fhir.model.resource.CapabilityStatement.Messaging.Endpoint [[CapabilityStatement.Messaging.Endpoint.html]]
    class "<size:14>CapabilityStatement.Messaging.SupportedMessage\n<size:10>com.ibm.fhir.model.resource" as com.ibm.fhir.model.resource.CapabilityStatement.Messaging.SupportedMessage [[CapabilityStatement.Messaging.SupportedMessage.html]]

    com.ibm.fhir.model.type.BackboneElement <|- - com.ibm.fhir.model.resource.CapabilityStatement.Messaging
    com.ibm.fhir.model.resource.CapabilityStatement +- - com.ibm.fhir.model.resource.CapabilityStatement.Messaging
    com.ibm.fhir.model.resource.CapabilityStatement.Messaging +- - com.ibm.fhir.model.resource.CapabilityStatement.Messaging.Builder
    com.ibm.fhir.model.resource.CapabilityStatement.Messaging +- - com.ibm.fhir.model.resource.CapabilityStatement.Messaging.Endpoint
    com.ibm.fhir.model.resource.CapabilityStatement.Messaging +- - com.ibm.fhir.model.resource.CapabilityStatement.Messaging.SupportedMessage

    center footer UMLDoclet 2.0.7, PlantUML 1.2019.12
@enduml

PlantUML version 1.2019.12(Sun Nov 03 10:24:54 UTC 2019)
(APACHE source distribution)
Java Runtime: OpenJDK Runtime Environment
JVM: OpenJDK 64-Bit Server VM
Java Version: 11.0.10+9
Operating System: Linux
Default Encoding: UTF-8
Language: en
Country: null
--></g></svg>