<?xml version="1.0" encoding="UTF-8" standalone="no"?><svg xmlns="http://www.w3.org/2000/svg" xmlns:xlink="http://www.w3.org/1999/xlink" contentScriptType="application/ecmascript" contentStyleType="text/css" height="423px" preserveAspectRatio="none" style="width:426px;height:423px;" version="1.1" viewBox="0 0 426 423" width="426px" zoomAndPan="magnify"><defs><filter height="300%" id="f1qe5uwwd4sb9x" width="300%" x="-1" y="-1"><feGaussianBlur result="blurOut" stdDeviation="2.0"/><feColorMatrix in="blurOut" result="blurOut2" type="matrix" values="0 0 0 0 0 0 0 0 0 0 0 0 0 0 0 0 0 0 .4 0"/><feOffset dx="4.0" dy="4.0" in="blurOut2" result="blurOut3"/><feBlend in="SourceGraphic" in2="blurOut3" mode="normal"/></filter></defs><g><!--MD5=[7f23a0bc5bc8d7fb98d771bb9b25bd4f]
class com.ibm.fhir.model.resource.Linkage.Builder--><a href="Linkage.Builder.html" target="_top" title="Linkage.Builder.html" xlink:actuate="onRequest" xlink:href="Linkage.Builder.html" xlink:show="new" xlink:title="Linkage.Builder.html" xlink:type="simple"><rect fill="#FEFECE" filter="url(#f1qe5uwwd4sb9x)" height="263.6172" id="com.ibm.fhir.model.resource.Linkage.Builder" style="stroke: #A80036; stroke-width: 1.5;" width="312" x="62.5" y="127"/><ellipse cx="144.75" cy="145.9688" fill="#ADD1B2" rx="11" ry="11" style="stroke: #A80036; stroke-width: 1.0;"/><path d="M147.7188,151.6094 Q147.1406,151.9063 146.5,152.0469 Q145.8594,152.2031 145.1563,152.2031 Q142.6563,152.2031 141.3281,150.5625 Q140.0156,148.9063 140.0156,145.7813 Q140.0156,142.6563 141.3281,141 Q142.6563,139.3438 145.1563,139.3438 Q145.8594,139.3438 146.5,139.5 Q147.1563,139.6563 147.7188,139.9531 L147.7188,142.6719 Q147.0938,142.0938 146.5,141.8281 Q145.9063,141.5469 145.2813,141.5469 Q143.9375,141.5469 143.25,142.625 Q142.5625,143.6875 142.5625,145.7813 Q142.5625,147.875 143.25,148.9531 Q143.9375,150.0156 145.2813,150.0156 Q145.9063,150.0156 146.5,149.75 Q147.0938,149.4688 147.7188,148.8906 L147.7188,151.6094 Z "/><text fill="#000000" font-family="sans-serif" font-size="14" lengthAdjust="spacingAndGlyphs" textLength="105" x="182.25" y="144.9951">Linkage.Builder</text><text fill="#000000" font-family="sans-serif" font-size="10" lengthAdjust="spacingAndGlyphs" textLength="139" x="165.25" y="157.5791">com.ibm.fhir.model.resource</text><line style="stroke: #A80036; stroke-width: 1.5;" x1="63.5" x2="373.5" y1="164.9375" y2="164.9375"/><ellipse cx="73.5" cy="175.9375" fill="#84BE84" rx="3" ry="3" style="stroke: #038048; stroke-width: 1.0;"/><text fill="#000000" font-family="sans-serif" font-size="11" lengthAdjust="spacingAndGlyphs" textLength="100" x="82.5" y="179.1479">id(String): Builder</text><ellipse cx="73.5" cy="188.7422" fill="#84BE84" rx="3" ry="3" style="stroke: #038048; stroke-width: 1.0;"/><text fill="#000000" font-family="sans-serif" font-size="11" lengthAdjust="spacingAndGlyphs" textLength="112" x="82.5" y="191.9526">meta(Meta): Builder</text><ellipse cx="73.5" cy="201.5469" fill="#84BE84" rx="3" ry="3" style="stroke: #038048; stroke-width: 1.0;"/><text fill="#000000" font-family="sans-serif" font-size="11" lengthAdjust="spacingAndGlyphs" textLength="143" x="82.5" y="204.7573">implicitRules(Uri): Builder</text><ellipse cx="73.5" cy="214.3516" fill="#84BE84" rx="3" ry="3" style="stroke: #038048; stroke-width: 1.0;"/><text fill="#000000" font-family="sans-serif" font-size="11" lengthAdjust="spacingAndGlyphs" textLength="137" x="82.5" y="217.562">language(Code): Builder</text><ellipse cx="73.5" cy="227.1563" fill="#84BE84" rx="3" ry="3" style="stroke: #038048; stroke-width: 1.0;"/><text fill="#000000" font-family="sans-serif" font-size="11" lengthAdjust="spacingAndGlyphs" textLength="129" x="82.5" y="230.3667">text(Narrative): Builder</text><ellipse cx="73.5" cy="239.9609" fill="#84BE84" rx="3" ry="3" style="stroke: #038048; stroke-width: 1.0;"/><text fill="#000000" font-family="sans-serif" font-size="11" lengthAdjust="spacingAndGlyphs" textLength="176" x="82.5" y="243.1714">contained(Resource...): Builder</text><ellipse cx="73.5" cy="252.7656" fill="#84BE84" rx="3" ry="3" style="stroke: #038048; stroke-width: 1.0;"/><text fill="#000000" font-family="sans-serif" font-size="11" lengthAdjust="spacingAndGlyphs" textLength="237" x="82.5" y="255.9761">contained(Collection&lt;Resource&gt;): Builder</text><ellipse cx="73.5" cy="265.5703" fill="#84BE84" rx="3" ry="3" style="stroke: #038048; stroke-width: 1.0;"/><text fill="#000000" font-family="sans-serif" font-size="11" lengthAdjust="spacingAndGlyphs" textLength="178" x="82.5" y="268.7808">extension(Extension...): Builder</text><ellipse cx="73.5" cy="278.375" fill="#84BE84" rx="3" ry="3" style="stroke: #038048; stroke-width: 1.0;"/><text fill="#000000" font-family="sans-serif" font-size="11" lengthAdjust="spacingAndGlyphs" textLength="239" x="82.5" y="281.5854">extension(Collection&lt;Extension&gt;): Builder</text><ellipse cx="73.5" cy="291.1797" fill="#84BE84" rx="3" ry="3" style="stroke: #038048; stroke-width: 1.0;"/><text fill="#000000" font-family="sans-serif" font-size="11" lengthAdjust="spacingAndGlyphs" textLength="225" x="82.5" y="294.3901">modifierExtension(Extension...): Builder</text><ellipse cx="73.5" cy="303.9844" fill="#84BE84" rx="3" ry="3" style="stroke: #038048; stroke-width: 1.0;"/><text fill="#000000" font-family="sans-serif" font-size="11" lengthAdjust="spacingAndGlyphs" textLength="286" x="82.5" y="307.1948">modifierExtension(Collection&lt;Extension&gt;): Builder</text><ellipse cx="73.5" cy="316.7891" fill="#84BE84" rx="3" ry="3" style="stroke: #038048; stroke-width: 1.0;"/><text fill="#000000" font-family="sans-serif" font-size="11" lengthAdjust="spacingAndGlyphs" textLength="135" x="82.5" y="319.9995">active(Boolean): Builder</text><ellipse cx="73.5" cy="329.5938" fill="#84BE84" rx="3" ry="3" style="stroke: #038048; stroke-width: 1.0;"/><text fill="#000000" font-family="sans-serif" font-size="11" lengthAdjust="spacingAndGlyphs" textLength="150" x="82.5" y="332.8042">author(Reference): Builder</text><ellipse cx="73.5" cy="342.3984" fill="#84BE84" rx="3" ry="3" style="stroke: #038048; stroke-width: 1.0;"/><text fill="#000000" font-family="sans-serif" font-size="11" lengthAdjust="spacingAndGlyphs" textLength="118" x="82.5" y="345.6089">item(Item...): Builder</text><ellipse cx="73.5" cy="355.2031" fill="#84BE84" rx="3" ry="3" style="stroke: #038048; stroke-width: 1.0;"/><text fill="#000000" font-family="sans-serif" font-size="11" lengthAdjust="spacingAndGlyphs" textLength="179" x="82.5" y="358.4136">item(Collection&lt;Item&gt;): Builder</text><ellipse cx="73.5" cy="368.0078" fill="#84BE84" rx="3" ry="3" style="stroke: #038048; stroke-width: 1.0;"/><text fill="#000000" font-family="sans-serif" font-size="11" lengthAdjust="spacingAndGlyphs" textLength="86" x="82.5" y="371.2183">build(): Linkage</text><polygon fill="#FFFF44" points="73.5,375.8125,77.5,379.8125,73.5,383.8125,69.5,379.8125" style="stroke: #B38D22; stroke-width: 1.0;"/><text fill="#000000" font-family="sans-serif" font-size="11" lengthAdjust="spacingAndGlyphs" textLength="126" x="82.5" y="384.0229">from(Linkage): Builder</text></a><!--MD5=[c11666b1ddf186d6ba406ca2c27e1a2d]
class com.ibm.fhir.model.resource.DomainResource.Builder--><a href="DomainResource.Builder.html" target="_top" title="DomainResource.Builder.html" xlink:actuate="onRequest" xlink:href="DomainResource.Builder.html" xlink:show="new" xlink:title="DomainResource.Builder.html" xlink:type="simple"><rect fill="#FEFECE" filter="url(#f1qe5uwwd4sb9x)" height="58.7422" id="com.ibm.fhir.model.resource.DomainResource.Builder" style="stroke: #A80036; stroke-width: 1.5;" width="203" x="6" y="8"/><ellipse cx="21" cy="26.9688" fill="#A9DCDF" rx="11" ry="11" style="stroke: #A80036; stroke-width: 1.0;"/><path d="M21.1094,22.3125 L19.9531,27.3906 L22.2813,27.3906 L21.1094,22.3125 Z M19.625,20.0781 L22.6094,20.0781 L25.9688,32.4688 L23.5156,32.4688 L22.75,29.4063 L19.4688,29.4063 L18.7188,32.4688 L16.2813,32.4688 L19.625,20.0781 Z "/><text fill="#000000" font-family="sans-serif" font-size="14" font-style="italic" lengthAdjust="spacingAndGlyphs" textLength="171" x="35" y="25.9951">DomainResource.Builder</text><text fill="#000000" font-family="sans-serif" font-size="10" font-style="italic" lengthAdjust="spacingAndGlyphs" textLength="144" x="48.5" y="38.5791">com.ibm.fhir.model.resource</text><line style="stroke: #A80036; stroke-width: 1.5;" x1="7" x2="208" y1="45.9375" y2="45.9375"/><ellipse cx="17" cy="56.9375" fill="#84BE84" rx="3" ry="3" style="stroke: #038048; stroke-width: 1.0;"/><text fill="#000000" font-family="sans-serif" font-size="11" font-style="italic" lengthAdjust="spacingAndGlyphs" textLength="139" x="26" y="60.1479">build(): DomainResource</text></a><!--MD5=[325f6a6437d22d8aa783f724a6c9c74a]
class com.ibm.fhir.model.resource.Linkage--><a href="Linkage.html" target="_top" title="Linkage.html" xlink:actuate="onRequest" xlink:href="Linkage.html" xlink:show="new" xlink:title="Linkage.html" xlink:type="simple"><rect fill="#FEFECE" filter="url(#f1qe5uwwd4sb9x)" height="37.9375" id="com.ibm.fhir.model.resource.Linkage" style="stroke: #A80036; stroke-width: 1.5;" width="171" x="244" y="18.5"/><ellipse cx="259" cy="37.4688" fill="#ADD1B2" rx="11" ry="11" style="stroke: #A80036; stroke-width: 1.0;"/><path d="M261.9688,43.1094 Q261.3906,43.4063 260.75,43.5469 Q260.1094,43.7031 259.4063,43.7031 Q256.9063,43.7031 255.5781,42.0625 Q254.2656,40.4063 254.2656,37.2813 Q254.2656,34.1563 255.5781,32.5 Q256.9063,30.8438 259.4063,30.8438 Q260.1094,30.8438 260.75,31 Q261.4063,31.1563 261.9688,31.4531 L261.9688,34.1719 Q261.3438,33.5938 260.75,33.3281 Q260.1563,33.0469 259.5313,33.0469 Q258.1875,33.0469 257.5,34.125 Q256.8125,35.1875 256.8125,37.2813 Q256.8125,39.375 257.5,40.4531 Q258.1875,41.5156 259.5313,41.5156 Q260.1563,41.5156 260.75,41.25 Q261.3438,40.9688 261.9688,40.3906 L261.9688,43.1094 Z "/><text fill="#000000" font-family="sans-serif" font-size="14" lengthAdjust="spacingAndGlyphs" textLength="53" x="316" y="36.4951">Linkage</text><text fill="#000000" font-family="sans-serif" font-size="10" lengthAdjust="spacingAndGlyphs" textLength="139" x="273" y="49.0791">com.ibm.fhir.model.resource</text></a><!--MD5=[0445fcce666566c0e8b9e9d38e4d76fe]
reverse link com.ibm.fhir.model.resource.DomainResource.Builder to com.ibm.fhir.model.resource.Linkage.Builder--><path d="M131.23,85.42 C137.58,97.99 144.78,112.22 152.24,126.98 " fill="none" id="com.ibm.fhir.model.resource.DomainResource.Builder&lt;-com.ibm.fhir.model.resource.Linkage.Builder" style="stroke: #A80036; stroke-width: 1.0;"/><polygon fill="none" points="124.79,88.2,122.01,67.2,137.28,81.88,124.79,88.2" style="stroke: #A80036; stroke-width: 1.0;"/><!--MD5=[bd4900f8714f5902b9d36e6f0b7edd0a]
reverse link com.ibm.fhir.model.resource.Linkage to com.ibm.fhir.model.resource.Linkage.Builder--><path d="M313.39,70.35 C305.51,85.94 295.43,105.86 284.81,126.87 " fill="none" id="com.ibm.fhir.model.resource.Linkage&lt;-com.ibm.fhir.model.resource.Linkage.Builder" style="stroke: #A80036; stroke-width: 1.0;"/><ellipse cx="316.6188" cy="63.9786" fill="#FFFFFF" rx="8" ry="8" style="stroke: #A80036; stroke-width: 1.0;"/><line style="stroke: #A80036; stroke-width: 1.0;" x1="313.0076" x2="320.23" y1="71.1172" y2="56.84"/><line style="stroke: #A80036; stroke-width: 1.0;" x1="309.4802" x2="323.7574" y1="60.3674" y2="67.5898"/><text fill="#888888" font-family="sans-serif" font-size="10" lengthAdjust="spacingAndGlyphs" textLength="186" x="123.5" y="410.2822">UMLDoclet 2.0.7, PlantUML 1.2019.12</text><!--MD5=[8cb58c4357bccfd11e2b25a10ed58091]
@startuml
    set namespaceSeparator none
    hide empty fields
    hide empty methods

    class "<size:14>Linkage.Builder\n<size:10>com.ibm.fhir.model.resource" as com.ibm.fhir.model.resource.Linkage.Builder [[Linkage.Builder.html]] {
        +id(String): Builder
        +meta(Meta): Builder
        +implicitRules(Uri): Builder
        +language(Code): Builder
        +text(Narrative): Builder
        +contained(Resource...): Builder
        +contained(Collection<Resource>): Builder
        +extension(Extension...): Builder
        +extension(Collection<Extension>): Builder
        +modifierExtension(Extension...): Builder
        +modifierExtension(Collection<Extension>): Builder
        +active(Boolean): Builder
        +author(Reference): Builder
        +item(Item...): Builder
        +item(Collection<Item>): Builder
        +build(): Linkage
        #from(Linkage): Builder
    }

    abstract class "<size:14>DomainResource.Builder\n<size:10>com.ibm.fhir.model.resource" as com.ibm.fhir.model.resource.DomainResource.Builder [[DomainResource.Builder.html]] {
        {abstract} +build(): DomainResource
    }
    class "<size:14>Linkage\n<size:10>com.ibm.fhir.model.resource" as com.ibm.fhir.model.resource.Linkage [[Linkage.html]]

    com.ibm.fhir.model.resource.DomainResource.Builder <|- - com.ibm.fhir.model.resource.Linkage.Builder
    com.ibm.fhir.model.resource.Linkage +- - com.ibm.fhir.model.resource.Linkage.Builder

    center footer UMLDoclet 2.0.7, PlantUML 1.2019.12
@enduml

PlantUML version 1.2019.12(Sun Nov 03 10:24:54 UTC 2019)
(APACHE source distribution)
Java Runtime: OpenJDK Runtime Environment
JVM: OpenJDK 64-Bit Server VM
Java Version: 11.0.10+9
Operating System: Linux
Default Encoding: UTF-8
Language: en
Country: null
--></g></svg>