<?xml version="1.0" encoding="UTF-8" standalone="no"?><svg xmlns="http://www.w3.org/2000/svg" xmlns:xlink="http://www.w3.org/1999/xlink" contentScriptType="application/ecmascript" contentStyleType="text/css" height="700px" preserveAspectRatio="none" style="width:1421px;height:700px;" version="1.1" viewBox="0 0 1421 700" width="1421px" zoomAndPan="magnify"><defs><filter height="300%" id="f183mgpngwym5v" width="300%" x="-1" y="-1"><feGaussianBlur result="blurOut" stdDeviation="2.0"/><feColorMatrix in="blurOut" result="blurOut2" type="matrix" values="0 0 0 0 0 0 0 0 0 0 0 0 0 0 0 0 0 0 .4 0"/><feOffset dx="4.0" dy="4.0" in="blurOut2" result="blurOut3"/><feBlend in="SourceGraphic" in2="blurOut3" mode="normal"/></filter></defs><g><!--MD5=[d715a9a639b0023cedfbf02fcb6c1b61]
class com.ibm.fhir.model.resource.PlanDefinition.Action--><a href="PlanDefinition.Action.html" target="_top" title="PlanDefinition.Action.html" xlink:actuate="onRequest" xlink:href="PlanDefinition.Action.html" xlink:show="new" xlink:title="PlanDefinition.Action.html" xlink:type="simple"><rect fill="#FEFECE" filter="url(#f183mgpngwym5v)" height="442.8828" id="com.ibm.fhir.model.resource.PlanDefinition.Action" style="stroke: #A80036; stroke-width: 1.5;" width="314" x="523.5" y="127"/><ellipse cx="605.75" cy="145.9688" fill="#ADD1B2" rx="11" ry="11" style="stroke: #A80036; stroke-width: 1.0;"/><path d="M608.7188,151.6094 Q608.1406,151.9063 607.5,152.0469 Q606.8594,152.2031 606.1563,152.2031 Q603.6563,152.2031 602.3281,150.5625 Q601.0156,148.9063 601.0156,145.7813 Q601.0156,142.6563 602.3281,141 Q603.6563,139.3438 606.1563,139.3438 Q606.8594,139.3438 607.5,139.5 Q608.1563,139.6563 608.7188,139.9531 L608.7188,142.6719 Q608.0938,142.0938 607.5,141.8281 Q606.9063,141.5469 606.2813,141.5469 Q604.9375,141.5469 604.25,142.625 Q603.5625,143.6875 603.5625,145.7813 Q603.5625,147.875 604.25,148.9531 Q604.9375,150.0156 606.2813,150.0156 Q606.9063,150.0156 607.5,149.75 Q608.0938,149.4688 608.7188,148.8906 L608.7188,151.6094 Z "/><text fill="#000000" font-family="sans-serif" font-size="14" lengthAdjust="spacingAndGlyphs" textLength="141" x="626.25" y="144.9951">PlanDefinition.Action</text><text fill="#000000" font-family="sans-serif" font-size="10" lengthAdjust="spacingAndGlyphs" textLength="139" x="627.25" y="157.5791">com.ibm.fhir.model.resource</text><line style="stroke: #A80036; stroke-width: 1.5;" x1="524.5" x2="836.5" y1="164.9375" y2="164.9375"/><ellipse cx="534.5" cy="175.9375" fill="#84BE84" rx="3" ry="3" style="stroke: #038048; stroke-width: 1.0;"/><text fill="#000000" font-family="sans-serif" font-size="11" lengthAdjust="spacingAndGlyphs" textLength="100" x="543.5" y="179.1479">getPrefix(): String</text><ellipse cx="534.5" cy="188.7422" fill="#84BE84" rx="3" ry="3" style="stroke: #038048; stroke-width: 1.0;"/><text fill="#000000" font-family="sans-serif" font-size="11" lengthAdjust="spacingAndGlyphs" textLength="92" x="543.5" y="191.9526">getTitle(): String</text><ellipse cx="534.5" cy="201.5469" fill="#84BE84" rx="3" ry="3" style="stroke: #038048; stroke-width: 1.0;"/><text fill="#000000" font-family="sans-serif" font-size="11" lengthAdjust="spacingAndGlyphs" textLength="132" x="543.5" y="204.7573">getDescription(): String</text><ellipse cx="534.5" cy="214.3516" fill="#84BE84" rx="3" ry="3" style="stroke: #038048; stroke-width: 1.0;"/><text fill="#000000" font-family="sans-serif" font-size="11" lengthAdjust="spacingAndGlyphs" textLength="150" x="543.5" y="217.562">getTextEquivalent(): String</text><ellipse cx="534.5" cy="227.1563" fill="#84BE84" rx="3" ry="3" style="stroke: #038048; stroke-width: 1.0;"/><text fill="#000000" font-family="sans-serif" font-size="11" lengthAdjust="spacingAndGlyphs" textLength="160" x="543.5" y="230.3667">getPriority(): RequestPriority</text><ellipse cx="534.5" cy="239.9609" fill="#84BE84" rx="3" ry="3" style="stroke: #038048; stroke-width: 1.0;"/><text fill="#000000" font-family="sans-serif" font-size="11" lengthAdjust="spacingAndGlyphs" textLength="200" x="543.5" y="243.1714">getCode(): List&lt;CodeableConcept&gt;</text><ellipse cx="534.5" cy="252.7656" fill="#84BE84" rx="3" ry="3" style="stroke: #038048; stroke-width: 1.0;"/><text fill="#000000" font-family="sans-serif" font-size="11" lengthAdjust="spacingAndGlyphs" textLength="213" x="543.5" y="255.9761">getReason(): List&lt;CodeableConcept&gt;</text><ellipse cx="534.5" cy="265.5703" fill="#84BE84" rx="3" ry="3" style="stroke: #038048; stroke-width: 1.0;"/><text fill="#000000" font-family="sans-serif" font-size="11" lengthAdjust="spacingAndGlyphs" textLength="239" x="543.5" y="268.7808">getDocumentation(): List&lt;RelatedArtifact&gt;</text><ellipse cx="534.5" cy="278.375" fill="#84BE84" rx="3" ry="3" style="stroke: #038048; stroke-width: 1.0;"/><text fill="#000000" font-family="sans-serif" font-size="11" lengthAdjust="spacingAndGlyphs" textLength="118" x="543.5" y="281.5854">getGoalId(): List&lt;Id&gt;</text><ellipse cx="534.5" cy="291.1797" fill="#84BE84" rx="3" ry="3" style="stroke: #038048; stroke-width: 1.0;"/><text fill="#000000" font-family="sans-serif" font-size="11" lengthAdjust="spacingAndGlyphs" textLength="122" x="543.5" y="294.3901">getSubject(): Element</text><ellipse cx="534.5" cy="303.9844" fill="#84BE84" rx="3" ry="3" style="stroke: #038048; stroke-width: 1.0;"/><text fill="#000000" font-family="sans-serif" font-size="11" lengthAdjust="spacingAndGlyphs" textLength="207" x="543.5" y="307.1948">getTrigger(): List&lt;TriggerDefinition&gt;</text><ellipse cx="534.5" cy="316.7891" fill="#84BE84" rx="3" ry="3" style="stroke: #038048; stroke-width: 1.0;"/><text fill="#000000" font-family="sans-serif" font-size="11" lengthAdjust="spacingAndGlyphs" textLength="178" x="543.5" y="319.9995">getCondition(): List&lt;Condition&gt;</text><ellipse cx="534.5" cy="329.5938" fill="#84BE84" rx="3" ry="3" style="stroke: #038048; stroke-width: 1.0;"/><text fill="#000000" font-family="sans-serif" font-size="11" lengthAdjust="spacingAndGlyphs" textLength="198" x="543.5" y="332.8042">getInput(): List&lt;DataRequirement&gt;</text><ellipse cx="534.5" cy="342.3984" fill="#84BE84" rx="3" ry="3" style="stroke: #038048; stroke-width: 1.0;"/><text fill="#000000" font-family="sans-serif" font-size="11" lengthAdjust="spacingAndGlyphs" textLength="208" x="543.5" y="345.6089">getOutput(): List&lt;DataRequirement&gt;</text><ellipse cx="534.5" cy="355.2031" fill="#84BE84" rx="3" ry="3" style="stroke: #038048; stroke-width: 1.0;"/><text fill="#000000" font-family="sans-serif" font-size="11" lengthAdjust="spacingAndGlyphs" textLength="224" x="543.5" y="358.4136">getRelatedAction(): List&lt;RelatedAction&gt;</text><ellipse cx="534.5" cy="368.0078" fill="#84BE84" rx="3" ry="3" style="stroke: #038048; stroke-width: 1.0;"/><text fill="#000000" font-family="sans-serif" font-size="11" lengthAdjust="spacingAndGlyphs" textLength="118" x="543.5" y="371.2183">getTiming(): Element</text><ellipse cx="534.5" cy="380.8125" fill="#84BE84" rx="3" ry="3" style="stroke: #038048; stroke-width: 1.0;"/><text fill="#000000" font-family="sans-serif" font-size="11" lengthAdjust="spacingAndGlyphs" textLength="192" x="543.5" y="384.0229">getParticipant(): List&lt;Participant&gt;</text><ellipse cx="534.5" cy="393.6172" fill="#84BE84" rx="3" ry="3" style="stroke: #038048; stroke-width: 1.0;"/><text fill="#000000" font-family="sans-serif" font-size="11" lengthAdjust="spacingAndGlyphs" textLength="160" x="543.5" y="396.8276">getType(): CodeableConcept</text><ellipse cx="534.5" cy="406.4219" fill="#84BE84" rx="3" ry="3" style="stroke: #038048; stroke-width: 1.0;"/><text fill="#000000" font-family="sans-serif" font-size="11" lengthAdjust="spacingAndGlyphs" textLength="272" x="543.5" y="409.6323">getGroupingBehavior(): ActionGroupingBehavior</text><ellipse cx="534.5" cy="419.2266" fill="#84BE84" rx="3" ry="3" style="stroke: #038048; stroke-width: 1.0;"/><text fill="#000000" font-family="sans-serif" font-size="11" lengthAdjust="spacingAndGlyphs" textLength="272" x="543.5" y="422.437">getSelectionBehavior(): ActionSelectionBehavior</text><ellipse cx="534.5" cy="432.0313" fill="#84BE84" rx="3" ry="3" style="stroke: #038048; stroke-width: 1.0;"/><text fill="#000000" font-family="sans-serif" font-size="11" lengthAdjust="spacingAndGlyphs" textLength="268" x="543.5" y="435.2417">getRequiredBehavior(): ActionRequiredBehavior</text><ellipse cx="534.5" cy="444.8359" fill="#84BE84" rx="3" ry="3" style="stroke: #038048; stroke-width: 1.0;"/><text fill="#000000" font-family="sans-serif" font-size="11" lengthAdjust="spacingAndGlyphs" textLength="270" x="543.5" y="448.0464">getPrecheckBehavior(): ActionPrecheckBehavior</text><ellipse cx="534.5" cy="457.6406" fill="#84BE84" rx="3" ry="3" style="stroke: #038048; stroke-width: 1.0;"/><text fill="#000000" font-family="sans-serif" font-size="11" lengthAdjust="spacingAndGlyphs" textLength="288" x="543.5" y="460.8511">getCardinalityBehavior(): ActionCardinalityBehavior</text><ellipse cx="534.5" cy="470.4453" fill="#84BE84" rx="3" ry="3" style="stroke: #038048; stroke-width: 1.0;"/><text fill="#000000" font-family="sans-serif" font-size="11" lengthAdjust="spacingAndGlyphs" textLength="133" x="543.5" y="473.6558">getDefinition(): Element</text><ellipse cx="534.5" cy="483.25" fill="#84BE84" rx="3" ry="3" style="stroke: #038048; stroke-width: 1.0;"/><text fill="#000000" font-family="sans-serif" font-size="11" lengthAdjust="spacingAndGlyphs" textLength="149" x="543.5" y="486.4604">getTransform(): Canonical</text><ellipse cx="534.5" cy="496.0547" fill="#84BE84" rx="3" ry="3" style="stroke: #038048; stroke-width: 1.0;"/><text fill="#000000" font-family="sans-serif" font-size="11" lengthAdjust="spacingAndGlyphs" textLength="230" x="543.5" y="499.2651">getDynamicValue(): List&lt;DynamicValue&gt;</text><ellipse cx="534.5" cy="508.8594" fill="#84BE84" rx="3" ry="3" style="stroke: #038048; stroke-width: 1.0;"/><text fill="#000000" font-family="sans-serif" font-size="11" lengthAdjust="spacingAndGlyphs" textLength="140" x="543.5" y="512.0698">getAction(): List&lt;Action&gt;</text><ellipse cx="534.5" cy="521.6641" fill="#84BE84" rx="3" ry="3" style="stroke: #038048; stroke-width: 1.0;"/><text fill="#000000" font-family="sans-serif" font-size="11" lengthAdjust="spacingAndGlyphs" textLength="129" x="543.5" y="524.8745">hasChildren(): boolean</text><ellipse cx="534.5" cy="534.4688" fill="#84BE84" rx="3" ry="3" style="stroke: #038048; stroke-width: 1.0;"/><text fill="#000000" font-family="sans-serif" font-size="11" lengthAdjust="spacingAndGlyphs" textLength="176" x="543.5" y="537.6792">accept(String, int, Visitor): void</text><ellipse cx="534.5" cy="547.2734" fill="#84BE84" rx="3" ry="3" style="stroke: #038048; stroke-width: 1.0;"/><text fill="#000000" font-family="sans-serif" font-size="11" lengthAdjust="spacingAndGlyphs" textLength="107" x="543.5" y="550.4839">toBuilder(): Builder</text><ellipse cx="534.5" cy="560.0781" fill="#84BE84" rx="3" ry="3" style="stroke: #038048; stroke-width: 1.0;"/><text fill="#000000" font-family="sans-serif" font-size="11" lengthAdjust="spacingAndGlyphs" text-decoration="underline" textLength="95" x="543.5" y="563.2886">builder(): Builder</text></a><!--MD5=[efbff6997283c56b83e991a8eeb6a60a]
class com.ibm.fhir.model.type.BackboneElement--><a href="../type/BackboneElement.html" target="_top" title="../type/BackboneElement.html" xlink:actuate="onRequest" xlink:href="../type/BackboneElement.html" xlink:show="new" xlink:title="../type/BackboneElement.html" xlink:type="simple"><rect fill="#FEFECE" filter="url(#f183mgpngwym5v)" height="58.7422" id="com.ibm.fhir.model.type.BackboneElement" style="stroke: #A80036; stroke-width: 1.5;" width="159" x="501" y="8"/><ellipse cx="516" cy="26.9688" fill="#A9DCDF" rx="11" ry="11" style="stroke: #A80036; stroke-width: 1.0;"/><path d="M516.1094,22.3125 L514.9531,27.3906 L517.2813,27.3906 L516.1094,22.3125 Z M514.625,20.0781 L517.6094,20.0781 L520.9688,32.4688 L518.5156,32.4688 L517.75,29.4063 L514.4688,29.4063 L513.7188,32.4688 L511.2813,32.4688 L514.625,20.0781 Z "/><text fill="#000000" font-family="sans-serif" font-size="14" font-style="italic" lengthAdjust="spacingAndGlyphs" textLength="127" x="530" y="25.9951">BackboneElement</text><text fill="#000000" font-family="sans-serif" font-size="10" font-style="italic" lengthAdjust="spacingAndGlyphs" textLength="123" x="532" y="38.5791">com.ibm.fhir.model.type</text><line style="stroke: #A80036; stroke-width: 1.5;" x1="502" x2="659" y1="45.9375" y2="45.9375"/><ellipse cx="512" cy="56.9375" fill="#84BE84" rx="3" ry="3" style="stroke: #038048; stroke-width: 1.0;"/><text fill="#000000" font-family="sans-serif" font-size="11" font-style="italic" lengthAdjust="spacingAndGlyphs" textLength="107" x="521" y="60.1479">toBuilder(): Builder</text></a><!--MD5=[e9f0b015f3ac76b9d01aab373126ed49]
class com.ibm.fhir.model.resource.PlanDefinition--><a href="PlanDefinition.html" target="_top" title="PlanDefinition.html" xlink:actuate="onRequest" xlink:href="PlanDefinition.html" xlink:show="new" xlink:title="PlanDefinition.html" xlink:type="simple"><rect fill="#FEFECE" filter="url(#f183mgpngwym5v)" height="37.9375" id="com.ibm.fhir.model.resource.PlanDefinition" style="stroke: #A80036; stroke-width: 1.5;" width="171" x="695" y="18.5"/><ellipse cx="710" cy="37.4688" fill="#ADD1B2" rx="11" ry="11" style="stroke: #A80036; stroke-width: 1.0;"/><path d="M712.9688,43.1094 Q712.3906,43.4063 711.75,43.5469 Q711.1094,43.7031 710.4063,43.7031 Q707.9063,43.7031 706.5781,42.0625 Q705.2656,40.4063 705.2656,37.2813 Q705.2656,34.1563 706.5781,32.5 Q707.9063,30.8438 710.4063,30.8438 Q711.1094,30.8438 711.75,31 Q712.4063,31.1563 712.9688,31.4531 L712.9688,34.1719 Q712.3438,33.5938 711.75,33.3281 Q711.1563,33.0469 710.5313,33.0469 Q709.1875,33.0469 708.5,34.125 Q707.8125,35.1875 707.8125,37.2813 Q707.8125,39.375 708.5,40.4531 Q709.1875,41.5156 710.5313,41.5156 Q711.1563,41.5156 711.75,41.25 Q712.3438,40.9688 712.9688,40.3906 L712.9688,43.1094 Z "/><text fill="#000000" font-family="sans-serif" font-size="14" lengthAdjust="spacingAndGlyphs" textLength="94" x="746.5" y="36.4951">PlanDefinition</text><text fill="#000000" font-family="sans-serif" font-size="10" lengthAdjust="spacingAndGlyphs" textLength="139" x="724" y="49.0791">com.ibm.fhir.model.resource</text></a><!--MD5=[233f58327c273a43e130f97777a3662a]
class com.ibm.fhir.model.resource.PlanDefinition.Action.Builder--><a href="PlanDefinition.Action.Builder.html" target="_top" title="PlanDefinition.Action.Builder.html" xlink:actuate="onRequest" xlink:href="PlanDefinition.Action.Builder.html" xlink:show="new" xlink:title="PlanDefinition.Action.Builder.html" xlink:type="simple"><rect fill="#FEFECE" filter="url(#f183mgpngwym5v)" height="37.9375" id="com.ibm.fhir.model.resource.PlanDefinition.Action.Builder" style="stroke: #A80036; stroke-width: 1.5;" width="225" x="6" y="630"/><ellipse cx="21" cy="648.9688" fill="#ADD1B2" rx="11" ry="11" style="stroke: #A80036; stroke-width: 1.0;"/><path d="M23.9688,654.6094 Q23.3906,654.9063 22.75,655.0469 Q22.1094,655.2031 21.4063,655.2031 Q18.9063,655.2031 17.5781,653.5625 Q16.2656,651.9063 16.2656,648.7813 Q16.2656,645.6563 17.5781,644 Q18.9063,642.3438 21.4063,642.3438 Q22.1094,642.3438 22.75,642.5 Q23.4063,642.6563 23.9688,642.9531 L23.9688,645.6719 Q23.3438,645.0938 22.75,644.8281 Q22.1563,644.5469 21.5313,644.5469 Q20.1875,644.5469 19.5,645.625 Q18.8125,646.6875 18.8125,648.7813 Q18.8125,650.875 19.5,651.9531 Q20.1875,653.0156 21.5313,653.0156 Q22.1563,653.0156 22.75,652.75 Q23.3438,652.4688 23.9688,651.8906 L23.9688,654.6094 Z "/><text fill="#000000" font-family="sans-serif" font-size="14" lengthAdjust="spacingAndGlyphs" textLength="193" x="35" y="647.9951">PlanDefinition.Action.Builder</text><text fill="#000000" font-family="sans-serif" font-size="10" lengthAdjust="spacingAndGlyphs" textLength="139" x="62" y="660.5791">com.ibm.fhir.model.resource</text></a><!--MD5=[8bcc5ec0b25859f767a5d101e65d7473]
class com.ibm.fhir.model.resource.PlanDefinition.Action.Condition--><a href="PlanDefinition.Action.Condition.html" target="_top" title="PlanDefinition.Action.Condition.html" xlink:actuate="onRequest" xlink:href="PlanDefinition.Action.Condition.html" xlink:show="new" xlink:title="PlanDefinition.Action.Condition.html" xlink:type="simple"><rect fill="#FEFECE" filter="url(#f183mgpngwym5v)" height="37.9375" id="com.ibm.fhir.model.resource.PlanDefinition.Action.Condition" style="stroke: #A80036; stroke-width: 1.5;" width="243" x="266" y="630"/><ellipse cx="281" cy="648.9688" fill="#ADD1B2" rx="11" ry="11" style="stroke: #A80036; stroke-width: 1.0;"/><path d="M283.9688,654.6094 Q283.3906,654.9063 282.75,655.0469 Q282.1094,655.2031 281.4063,655.2031 Q278.9063,655.2031 277.5781,653.5625 Q276.2656,651.9063 276.2656,648.7813 Q276.2656,645.6563 277.5781,644 Q278.9063,642.3438 281.4063,642.3438 Q282.1094,642.3438 282.75,642.5 Q283.4063,642.6563 283.9688,642.9531 L283.9688,645.6719 Q283.3438,645.0938 282.75,644.8281 Q282.1563,644.5469 281.5313,644.5469 Q280.1875,644.5469 279.5,645.625 Q278.8125,646.6875 278.8125,648.7813 Q278.8125,650.875 279.5,651.9531 Q280.1875,653.0156 281.5313,653.0156 Q282.1563,653.0156 282.75,652.75 Q283.3438,652.4688 283.9688,651.8906 L283.9688,654.6094 Z "/><text fill="#000000" font-family="sans-serif" font-size="14" lengthAdjust="spacingAndGlyphs" textLength="211" x="295" y="647.9951">PlanDefinition.Action.Condition</text><text fill="#000000" font-family="sans-serif" font-size="10" lengthAdjust="spacingAndGlyphs" textLength="139" x="331" y="660.5791">com.ibm.fhir.model.resource</text></a><!--MD5=[bed3fac6007b67a08fd035e4f990d715]
class com.ibm.fhir.model.resource.PlanDefinition.Action.RelatedAction--><a href="PlanDefinition.Action.RelatedAction.html" target="_top" title="PlanDefinition.Action.RelatedAction.html" xlink:actuate="onRequest" xlink:href="PlanDefinition.Action.RelatedAction.html" xlink:show="new" xlink:title="PlanDefinition.Action.RelatedAction.html" xlink:type="simple"><rect fill="#FEFECE" filter="url(#f183mgpngwym5v)" height="37.9375" id="com.ibm.fhir.model.resource.PlanDefinition.Action.RelatedAction" style="stroke: #A80036; stroke-width: 1.5;" width="273" x="544" y="630"/><ellipse cx="559" cy="648.9688" fill="#ADD1B2" rx="11" ry="11" style="stroke: #A80036; stroke-width: 1.0;"/><path d="M561.9688,654.6094 Q561.3906,654.9063 560.75,655.0469 Q560.1094,655.2031 559.4063,655.2031 Q556.9063,655.2031 555.5781,653.5625 Q554.2656,651.9063 554.2656,648.7813 Q554.2656,645.6563 555.5781,644 Q556.9063,642.3438 559.4063,642.3438 Q560.1094,642.3438 560.75,642.5 Q561.4063,642.6563 561.9688,642.9531 L561.9688,645.6719 Q561.3438,645.0938 560.75,644.8281 Q560.1563,644.5469 559.5313,644.5469 Q558.1875,644.5469 557.5,645.625 Q556.8125,646.6875 556.8125,648.7813 Q556.8125,650.875 557.5,651.9531 Q558.1875,653.0156 559.5313,653.0156 Q560.1563,653.0156 560.75,652.75 Q561.3438,652.4688 561.9688,651.8906 L561.9688,654.6094 Z "/><text fill="#000000" font-family="sans-serif" font-size="14" lengthAdjust="spacingAndGlyphs" textLength="241" x="573" y="647.9951">PlanDefinition.Action.RelatedAction</text><text fill="#000000" font-family="sans-serif" font-size="10" lengthAdjust="spacingAndGlyphs" textLength="139" x="624" y="660.5791">com.ibm.fhir.model.resource</text></a><!--MD5=[3d2a1efd664faa86578b5610c72bd9ec]
class com.ibm.fhir.model.resource.PlanDefinition.Action.Participant--><a href="PlanDefinition.Action.Participant.html" target="_top" title="PlanDefinition.Action.Participant.html" xlink:actuate="onRequest" xlink:href="PlanDefinition.Action.Participant.html" xlink:show="new" xlink:title="PlanDefinition.Action.Participant.html" xlink:type="simple"><rect fill="#FEFECE" filter="url(#f183mgpngwym5v)" height="37.9375" id="com.ibm.fhir.model.resource.PlanDefinition.Action.Participant" style="stroke: #A80036; stroke-width: 1.5;" width="249" x="852" y="630"/><ellipse cx="867" cy="648.9688" fill="#ADD1B2" rx="11" ry="11" style="stroke: #A80036; stroke-width: 1.0;"/><path d="M869.9688,654.6094 Q869.3906,654.9063 868.75,655.0469 Q868.1094,655.2031 867.4063,655.2031 Q864.9063,655.2031 863.5781,653.5625 Q862.2656,651.9063 862.2656,648.7813 Q862.2656,645.6563 863.5781,644 Q864.9063,642.3438 867.4063,642.3438 Q868.1094,642.3438 868.75,642.5 Q869.4063,642.6563 869.9688,642.9531 L869.9688,645.6719 Q869.3438,645.0938 868.75,644.8281 Q868.1563,644.5469 867.5313,644.5469 Q866.1875,644.5469 865.5,645.625 Q864.8125,646.6875 864.8125,648.7813 Q864.8125,650.875 865.5,651.9531 Q866.1875,653.0156 867.5313,653.0156 Q868.1563,653.0156 868.75,652.75 Q869.3438,652.4688 869.9688,651.8906 L869.9688,654.6094 Z "/><text fill="#000000" font-family="sans-serif" font-size="14" lengthAdjust="spacingAndGlyphs" textLength="217" x="881" y="647.9951">PlanDefinition.Action.Participant</text><text fill="#000000" font-family="sans-serif" font-size="10" lengthAdjust="spacingAndGlyphs" textLength="139" x="920" y="660.5791">com.ibm.fhir.model.resource</text></a><!--MD5=[e755be7f032ee1e30e1802d8beceb5b8]
class com.ibm.fhir.model.resource.PlanDefinition.Action.DynamicValue--><a href="PlanDefinition.Action.DynamicValue.html" target="_top" title="PlanDefinition.Action.DynamicValue.html" xlink:actuate="onRequest" xlink:href="PlanDefinition.Action.DynamicValue.html" xlink:show="new" xlink:title="PlanDefinition.Action.DynamicValue.html" xlink:type="simple"><rect fill="#FEFECE" filter="url(#f183mgpngwym5v)" height="37.9375" id="com.ibm.fhir.model.resource.PlanDefinition.Action.DynamicValue" style="stroke: #A80036; stroke-width: 1.5;" width="274" x="1136.5" y="630"/><ellipse cx="1151.5" cy="648.9688" fill="#ADD1B2" rx="11" ry="11" style="stroke: #A80036; stroke-width: 1.0;"/><path d="M1154.4688,654.6094 Q1153.8906,654.9063 1153.25,655.0469 Q1152.6094,655.2031 1151.9063,655.2031 Q1149.4063,655.2031 1148.0781,653.5625 Q1146.7656,651.9063 1146.7656,648.7813 Q1146.7656,645.6563 1148.0781,644 Q1149.4063,642.3438 1151.9063,642.3438 Q1152.6094,642.3438 1153.25,642.5 Q1153.9063,642.6563 1154.4688,642.9531 L1154.4688,645.6719 Q1153.8438,645.0938 1153.25,644.8281 Q1152.6563,644.5469 1152.0313,644.5469 Q1150.6875,644.5469 1150,645.625 Q1149.3125,646.6875 1149.3125,648.7813 Q1149.3125,650.875 1150,651.9531 Q1150.6875,653.0156 1152.0313,653.0156 Q1152.6563,653.0156 1153.25,652.75 Q1153.8438,652.4688 1154.4688,651.8906 L1154.4688,654.6094 Z "/><text fill="#000000" font-family="sans-serif" font-size="14" lengthAdjust="spacingAndGlyphs" textLength="242" x="1165.5" y="647.9951">PlanDefinition.Action.DynamicValue</text><text fill="#000000" font-family="sans-serif" font-size="10" lengthAdjust="spacingAndGlyphs" textLength="139" x="1217" y="660.5791">com.ibm.fhir.model.resource</text></a><!--MD5=[4666a01856b3818a39db2d77af63a7ca]
reverse link com.ibm.fhir.model.type.BackboneElement to com.ibm.fhir.model.resource.PlanDefinition.Action--><path d="M595.94,86.22 C599.86,98.33 604.34,112.15 609.13,126.97 " fill="none" id="com.ibm.fhir.model.type.BackboneElement&lt;-com.ibm.fhir.model.resource.PlanDefinition.Action" style="stroke: #A80036; stroke-width: 1.0;"/><polygon fill="none" points="589.23,88.2,589.73,67.02,602.55,83.89,589.23,88.2" style="stroke: #A80036; stroke-width: 1.0;"/><!--MD5=[27df0abaf1da1aafaae5e9210bfbcccc]
reverse link com.ibm.fhir.model.resource.PlanDefinition to com.ibm.fhir.model.resource.PlanDefinition.Action--><path d="M769.83,71.46 C764.97,86.47 758.78,105.63 751.91,126.83 " fill="none" id="com.ibm.fhir.model.resource.PlanDefinition&lt;-com.ibm.fhir.model.resource.PlanDefinition.Action" style="stroke: #A80036; stroke-width: 1.0;"/><ellipse cx="772.0789" cy="64.512" fill="#FFFFFF" rx="8" ry="8" style="stroke: #A80036; stroke-width: 1.0;"/><line style="stroke: #A80036; stroke-width: 1.0;" x1="769.6177" x2="774.54" y1="72.124" y2="56.9"/><line style="stroke: #A80036; stroke-width: 1.0;" x1="764.4668" x2="779.6909" y1="62.0509" y2="66.9732"/><!--MD5=[fc0aaa472ca66833a423f2d7ec0264b8]
reverse link com.ibm.fhir.model.resource.PlanDefinition.Action to com.ibm.fhir.model.resource.PlanDefinition.Action.Builder--><path d="M509.92,440.1 C383.53,507.23 221.69,593.19 152.42,629.98 " fill="none" id="com.ibm.fhir.model.resource.PlanDefinition.Action&lt;-com.ibm.fhir.model.resource.PlanDefinition.Action.Builder" style="stroke: #A80036; stroke-width: 1.0;"/><ellipse cx="516.1368" cy="436.8064" fill="#FFFFFF" rx="8" ry="8" style="stroke: #A80036; stroke-width: 1.0;"/><line style="stroke: #A80036; stroke-width: 1.0;" x1="509.0735" x2="523.2" y1="440.5628" y2="433.05"/><line style="stroke: #A80036; stroke-width: 1.0;" x1="512.3804" x2="519.8932" y1="429.7432" y2="443.8696"/><!--MD5=[bc14db7b80f4dfa14251b1d569d7948f]
reverse link com.ibm.fhir.model.resource.PlanDefinition.Action to com.ibm.fhir.model.resource.PlanDefinition.Action.Condition--><path d="M512.73,520.42 C469.05,564.91 427.95,606.79 405.41,629.76 " fill="none" id="com.ibm.fhir.model.resource.PlanDefinition.Action&lt;-com.ibm.fhir.model.resource.PlanDefinition.Action.Condition" style="stroke: #A80036; stroke-width: 1.0;"/><ellipse cx="517.6767" cy="515.3799" fill="#FFFFFF" rx="8" ry="8" style="stroke: #A80036; stroke-width: 1.0;"/><line style="stroke: #A80036; stroke-width: 1.0;" x1="512.0734" x2="523.28" y1="521.0898" y2="509.67"/><line style="stroke: #A80036; stroke-width: 1.0;" x1="511.9668" x2="523.3866" y1="509.7766" y2="520.9832"/><!--MD5=[c1b57bfdf5c4986c1c6b56f58a6846ad]
reverse link com.ibm.fhir.model.resource.PlanDefinition.Action to com.ibm.fhir.model.resource.PlanDefinition.Action.RelatedAction--><path d="M680.5,585.6 C680.5,603.51 680.5,618.86 680.5,629.86 " fill="none" id="com.ibm.fhir.model.resource.PlanDefinition.Action&lt;-com.ibm.fhir.model.resource.PlanDefinition.Action.RelatedAction" style="stroke: #A80036; stroke-width: 1.0;"/><ellipse cx="680.5" cy="578.35" fill="#FFFFFF" rx="8" ry="8" style="stroke: #A80036; stroke-width: 1.0;"/><line style="stroke: #A80036; stroke-width: 1.0;" x1="680.5" x2="680.5" y1="586.35" y2="570.35"/><line style="stroke: #A80036; stroke-width: 1.0;" x1="672.5" x2="688.5" y1="578.35" y2="578.35"/><!--MD5=[5953e6c7990e446a464ad7e20c01545f]
reverse link com.ibm.fhir.model.resource.PlanDefinition.Action to com.ibm.fhir.model.resource.PlanDefinition.Action.Participant--><path d="M848.41,518.83 C893.22,564.01 935.54,606.69 958.55,629.9 " fill="none" id="com.ibm.fhir.model.resource.PlanDefinition.Action&lt;-com.ibm.fhir.model.resource.PlanDefinition.Action.Participant" style="stroke: #A80036; stroke-width: 1.0;"/><ellipse cx="843.234" cy="513.6096" fill="#FFFFFF" rx="8" ry="8" style="stroke: #A80036; stroke-width: 1.0;"/><line style="stroke: #A80036; stroke-width: 1.0;" x1="848.8679" x2="837.6" y1="519.2893" y2="507.93"/><line style="stroke: #A80036; stroke-width: 1.0;" x1="837.5543" x2="848.9136" y1="519.2436" y2="507.9757"/><!--MD5=[307fc4b5b5af641ebe91226e21acd5d5]
reverse link com.ibm.fhir.model.resource.PlanDefinition.Action to com.ibm.fhir.model.resource.PlanDefinition.Action.DynamicValue--><path d="M851.55,435.6 C985.98,503.27 1162.6,592.18 1237.47,629.86 " fill="none" id="com.ibm.fhir.model.resource.PlanDefinition.Action&lt;-com.ibm.fhir.model.resource.PlanDefinition.Action.DynamicValue" style="stroke: #A80036; stroke-width: 1.0;"/><ellipse cx="845.0032" cy="432.3121" fill="#FFFFFF" rx="8" ry="8" style="stroke: #A80036; stroke-width: 1.0;"/><line style="stroke: #A80036; stroke-width: 1.0;" x1="852.1464" x2="837.86" y1="435.9141" y2="428.71"/><line style="stroke: #A80036; stroke-width: 1.0;" x1="841.4011" x2="848.6052" y1="439.4552" y2="425.1689"/><text fill="#888888" font-family="sans-serif" font-size="10" lengthAdjust="spacingAndGlyphs" textLength="186" x="621.5" y="687.2822">UMLDoclet 2.0.7, PlantUML 1.2019.12</text><!--MD5=[3216073995078d34c2d463cfca521ed1]
@startuml
    set namespaceSeparator none
    hide empty fields
    hide empty methods

    class "<size:14>PlanDefinition.Action\n<size:10>com.ibm.fhir.model.resource" as com.ibm.fhir.model.resource.PlanDefinition.Action [[PlanDefinition.Action.html]] {
        +getPrefix(): String
        +getTitle(): String
        +getDescription(): String
        +getTextEquivalent(): String
        +getPriority(): RequestPriority
        +getCode(): List<CodeableConcept>
        +getReason(): List<CodeableConcept>
        +getDocumentation(): List<RelatedArtifact>
        +getGoalId(): List<Id>
        +getSubject(): Element
        +getTrigger(): List<TriggerDefinition>
        +getCondition(): List<Condition>
        +getInput(): List<DataRequirement>
        +getOutput(): List<DataRequirement>
        +getRelatedAction(): List<RelatedAction>
        +getTiming(): Element
        +getParticipant(): List<Participant>
        +getType(): CodeableConcept
        +getGroupingBehavior(): ActionGroupingBehavior
        +getSelectionBehavior(): ActionSelectionBehavior
        +getRequiredBehavior(): ActionRequiredBehavior
        +getPrecheckBehavior(): ActionPrecheckBehavior
        +getCardinalityBehavior(): ActionCardinalityBehavior
        +getDefinition(): Element
        +getTransform(): Canonical
        +getDynamicValue(): List<DynamicValue>
        +getAction(): List<Action>
        +hasChildren(): boolean
        +accept(String, int, Visitor): void
        +toBuilder(): Builder
        {static} +builder(): Builder
    }

    abstract class "<size:14>BackboneElement\n<size:10>com.ibm.fhir.model.type" as com.ibm.fhir.model.type.BackboneElement [[../type/BackboneElement.html]] {
        {abstract} +toBuilder(): Builder
    }
    class "<size:14>PlanDefinition\n<size:10>com.ibm.fhir.model.resource" as com.ibm.fhir.model.resource.PlanDefinition [[PlanDefinition.html]]
    class "<size:14>PlanDefinition.Action.Builder\n<size:10>com.ibm.fhir.model.resource" as com.ibm.fhir.model.resource.PlanDefinition.Action.Builder [[PlanDefinition.Action.Builder.html]]
    class "<size:14>PlanDefinition.Action.Condition\n<size:10>com.ibm.fhir.model.resource" as com.ibm.fhir.model.resource.PlanDefinition.Action.Condition [[PlanDefinition.Action.Condition.html]]
    class "<size:14>PlanDefinition.Action.RelatedAction\n<size:10>com.ibm.fhir.model.resource" as com.ibm.fhir.model.resource.PlanDefinition.Action.RelatedAction [[PlanDefinition.Action.RelatedAction.html]]
    class "<size:14>PlanDefinition.Action.Participant\n<size:10>com.ibm.fhir.model.resource" as com.ibm.fhir.model.resource.PlanDefinition.Action.Participant [[PlanDefinition.Action.Participant.html]]
    class "<size:14>PlanDefinition.Action.DynamicValue\n<size:10>com.ibm.fhir.model.resource" as com.ibm.fhir.model.resource.PlanDefinition.Action.DynamicValue [[PlanDefinition.Action.DynamicValue.html]]

    com.ibm.fhir.model.type.BackboneElement <|- - com.ibm.fhir.model.resource.PlanDefinition.Action
    com.ibm.fhir.model.resource.PlanDefinition +- - com.ibm.fhir.model.resource.PlanDefinition.Action
    com.ibm.fhir.model.resource.PlanDefinition.Action +- - com.ibm.fhir.model.resource.PlanDefinition.Action.Builder
    com.ibm.fhir.model.resource.PlanDefinition.Action +- - com.ibm.fhir.model.resource.PlanDefinition.Action.Condition
    com.ibm.fhir.model.resource.PlanDefinition.Action +- - com.ibm.fhir.model.resource.PlanDefinition.Action.RelatedAction
    com.ibm.fhir.model.resource.PlanDefinition.Action +- - com.ibm.fhir.model.resource.PlanDefinition.Action.Participant
    com.ibm.fhir.model.resource.PlanDefinition.Action +- - com.ibm.fhir.model.resource.PlanDefinition.Action.DynamicValue

    center footer UMLDoclet 2.0.7, PlantUML 1.2019.12
@enduml

PlantUML version 1.2019.12(Sun Nov 03 10:24:54 UTC 2019)
(APACHE source distribution)
Java Runtime: OpenJDK Runtime Environment
JVM: OpenJDK 64-Bit Server VM
Java Version: 11.0.10+9
Operating System: Linux
Default Encoding: UTF-8
Language: en
Country: null
--></g></svg>