<?xml version="1.0" encoding="UTF-8" standalone="no"?><svg xmlns="http://www.w3.org/2000/svg" xmlns:xlink="http://www.w3.org/1999/xlink" contentScriptType="application/ecmascript" contentStyleType="text/css" height="457px" preserveAspectRatio="none" style="width:1508px;height:457px;" version="1.1" viewBox="0 0 1508 457" width="1508px" zoomAndPan="magnify"><defs><filter height="300%" id="f904m2lkqyi3q" width="300%" x="-1" y="-1"><feGaussianBlur result="blurOut" stdDeviation="2.0"/><feColorMatrix in="blurOut" result="blurOut2" type="matrix" values="0 0 0 0 0 0 0 0 0 0 0 0 0 0 0 0 0 0 .4 0"/><feOffset dx="4.0" dy="4.0" in="blurOut2" result="blurOut3"/><feBlend in="SourceGraphic" in2="blurOut3" mode="normal"/></filter></defs><g><!--MD5=[af67daaa82350257112232abc56d2287]
class com.ibm.fhir.model.resource.SubstanceSourceMaterial.Organism--><a href="SubstanceSourceMaterial.Organism.html" target="_top" title="SubstanceSourceMaterial.Organism.html" xlink:actuate="onRequest" xlink:href="SubstanceSourceMaterial.Organism.html" xlink:show="new" xlink:title="SubstanceSourceMaterial.Organism.html" xlink:type="simple"><rect fill="#FEFECE" filter="url(#f904m2lkqyi3q)" height="199.5938" id="com.ibm.fhir.model.resource.SubstanceSourceMaterial.Organism" style="stroke: #A80036; stroke-width: 1.5;" width="278" x="577" y="127"/><ellipse cx="592" cy="145.9688" fill="#ADD1B2" rx="11" ry="11" style="stroke: #A80036; stroke-width: 1.0;"/><path d="M594.9688,151.6094 Q594.3906,151.9063 593.75,152.0469 Q593.1094,152.2031 592.4063,152.2031 Q589.9063,152.2031 588.5781,150.5625 Q587.2656,148.9063 587.2656,145.7813 Q587.2656,142.6563 588.5781,141 Q589.9063,139.3438 592.4063,139.3438 Q593.1094,139.3438 593.75,139.5 Q594.4063,139.6563 594.9688,139.9531 L594.9688,142.6719 Q594.3438,142.0938 593.75,141.8281 Q593.1563,141.5469 592.5313,141.5469 Q591.1875,141.5469 590.5,142.625 Q589.8125,143.6875 589.8125,145.7813 Q589.8125,147.875 590.5,148.9531 Q591.1875,150.0156 592.5313,150.0156 Q593.1563,150.0156 593.75,149.75 Q594.3438,149.4688 594.9688,148.8906 L594.9688,151.6094 Z "/><text fill="#000000" font-family="sans-serif" font-size="14" lengthAdjust="spacingAndGlyphs" textLength="246" x="606" y="144.9951">SubstanceSourceMaterial.Organism</text><text fill="#000000" font-family="sans-serif" font-size="10" lengthAdjust="spacingAndGlyphs" textLength="139" x="659.5" y="157.5791">com.ibm.fhir.model.resource</text><line style="stroke: #A80036; stroke-width: 1.5;" x1="578" x2="854" y1="164.9375" y2="164.9375"/><ellipse cx="588" cy="175.9375" fill="#84BE84" rx="3" ry="3" style="stroke: #038048; stroke-width: 1.0;"/><text fill="#000000" font-family="sans-serif" font-size="11" lengthAdjust="spacingAndGlyphs" textLength="169" x="597" y="179.1479">getFamily(): CodeableConcept</text><ellipse cx="588" cy="188.7422" fill="#84BE84" rx="3" ry="3" style="stroke: #038048; stroke-width: 1.0;"/><text fill="#000000" font-family="sans-serif" font-size="11" lengthAdjust="spacingAndGlyphs" textLength="170" x="597" y="191.9526">getGenus(): CodeableConcept</text><ellipse cx="588" cy="201.5469" fill="#84BE84" rx="3" ry="3" style="stroke: #038048; stroke-width: 1.0;"/><text fill="#000000" font-family="sans-serif" font-size="11" lengthAdjust="spacingAndGlyphs" textLength="178" x="597" y="204.7573">getSpecies(): CodeableConcept</text><ellipse cx="588" cy="214.3516" fill="#84BE84" rx="3" ry="3" style="stroke: #038048; stroke-width: 1.0;"/><text fill="#000000" font-family="sans-serif" font-size="11" lengthAdjust="spacingAndGlyphs" textLength="229" x="597" y="217.562">getIntraspecificType(): CodeableConcept</text><ellipse cx="588" cy="227.1563" fill="#84BE84" rx="3" ry="3" style="stroke: #038048; stroke-width: 1.0;"/><text fill="#000000" font-family="sans-serif" font-size="11" lengthAdjust="spacingAndGlyphs" textLength="201" x="597" y="230.3667">getIntraspecificDescription(): String</text><ellipse cx="588" cy="239.9609" fill="#84BE84" rx="3" ry="3" style="stroke: #038048; stroke-width: 1.0;"/><text fill="#000000" font-family="sans-serif" font-size="11" lengthAdjust="spacingAndGlyphs" textLength="146" x="597" y="243.1714">getAuthor(): List&lt;Author&gt;</text><ellipse cx="588" cy="252.7656" fill="#84BE84" rx="3" ry="3" style="stroke: #038048; stroke-width: 1.0;"/><text fill="#000000" font-family="sans-serif" font-size="11" lengthAdjust="spacingAndGlyphs" textLength="106" x="597" y="255.9761">getHybrid(): Hybrid</text><ellipse cx="588" cy="265.5703" fill="#84BE84" rx="3" ry="3" style="stroke: #038048; stroke-width: 1.0;"/><text fill="#000000" font-family="sans-serif" font-size="11" lengthAdjust="spacingAndGlyphs" textLength="236" x="597" y="268.7808">getOrganismGeneral(): OrganismGeneral</text><ellipse cx="588" cy="278.375" fill="#84BE84" rx="3" ry="3" style="stroke: #038048; stroke-width: 1.0;"/><text fill="#000000" font-family="sans-serif" font-size="11" lengthAdjust="spacingAndGlyphs" textLength="129" x="597" y="281.5854">hasChildren(): boolean</text><ellipse cx="588" cy="291.1797" fill="#84BE84" rx="3" ry="3" style="stroke: #038048; stroke-width: 1.0;"/><text fill="#000000" font-family="sans-serif" font-size="11" lengthAdjust="spacingAndGlyphs" textLength="176" x="597" y="294.3901">accept(String, int, Visitor): void</text><ellipse cx="588" cy="303.9844" fill="#84BE84" rx="3" ry="3" style="stroke: #038048; stroke-width: 1.0;"/><text fill="#000000" font-family="sans-serif" font-size="11" lengthAdjust="spacingAndGlyphs" textLength="107" x="597" y="307.1948">toBuilder(): Builder</text><ellipse cx="588" cy="316.7891" fill="#84BE84" rx="3" ry="3" style="stroke: #038048; stroke-width: 1.0;"/><text fill="#000000" font-family="sans-serif" font-size="11" lengthAdjust="spacingAndGlyphs" text-decoration="underline" textLength="95" x="597" y="319.9995">builder(): Builder</text></a><!--MD5=[efbff6997283c56b83e991a8eeb6a60a]
class com.ibm.fhir.model.type.BackboneElement--><a href="../type/BackboneElement.html" target="_top" title="../type/BackboneElement.html" xlink:actuate="onRequest" xlink:href="../type/BackboneElement.html" xlink:show="new" xlink:title="../type/BackboneElement.html" xlink:type="simple"><rect fill="#FEFECE" filter="url(#f904m2lkqyi3q)" height="58.7422" id="com.ibm.fhir.model.type.BackboneElement" style="stroke: #A80036; stroke-width: 1.5;" width="159" x="527.5" y="8"/><ellipse cx="542.5" cy="26.9688" fill="#A9DCDF" rx="11" ry="11" style="stroke: #A80036; stroke-width: 1.0;"/><path d="M542.6094,22.3125 L541.4531,27.3906 L543.7813,27.3906 L542.6094,22.3125 Z M541.125,20.0781 L544.1094,20.0781 L547.4688,32.4688 L545.0156,32.4688 L544.25,29.4063 L540.9688,29.4063 L540.2188,32.4688 L537.7813,32.4688 L541.125,20.0781 Z "/><text fill="#000000" font-family="sans-serif" font-size="14" font-style="italic" lengthAdjust="spacingAndGlyphs" textLength="127" x="556.5" y="25.9951">BackboneElement</text><text fill="#000000" font-family="sans-serif" font-size="10" font-style="italic" lengthAdjust="spacingAndGlyphs" textLength="123" x="558.5" y="38.5791">com.ibm.fhir.model.type</text><line style="stroke: #A80036; stroke-width: 1.5;" x1="528.5" x2="685.5" y1="45.9375" y2="45.9375"/><ellipse cx="538.5" cy="56.9375" fill="#84BE84" rx="3" ry="3" style="stroke: #038048; stroke-width: 1.0;"/><text fill="#000000" font-family="sans-serif" font-size="11" font-style="italic" lengthAdjust="spacingAndGlyphs" textLength="107" x="547.5" y="60.1479">toBuilder(): Builder</text></a><!--MD5=[166ac41f77deed708b53223b8f01eb71]
class com.ibm.fhir.model.resource.SubstanceSourceMaterial--><a href="SubstanceSourceMaterial.html" target="_top" title="SubstanceSourceMaterial.html" xlink:actuate="onRequest" xlink:href="SubstanceSourceMaterial.html" xlink:show="new" xlink:title="SubstanceSourceMaterial.html" xlink:type="simple"><rect fill="#FEFECE" filter="url(#f904m2lkqyi3q)" height="37.9375" id="com.ibm.fhir.model.resource.SubstanceSourceMaterial" style="stroke: #A80036; stroke-width: 1.5;" width="208" x="722" y="18.5"/><ellipse cx="737" cy="37.4688" fill="#ADD1B2" rx="11" ry="11" style="stroke: #A80036; stroke-width: 1.0;"/><path d="M739.9688,43.1094 Q739.3906,43.4063 738.75,43.5469 Q738.1094,43.7031 737.4063,43.7031 Q734.9063,43.7031 733.5781,42.0625 Q732.2656,40.4063 732.2656,37.2813 Q732.2656,34.1563 733.5781,32.5 Q734.9063,30.8438 737.4063,30.8438 Q738.1094,30.8438 738.75,31 Q739.4063,31.1563 739.9688,31.4531 L739.9688,34.1719 Q739.3438,33.5938 738.75,33.3281 Q738.1563,33.0469 737.5313,33.0469 Q736.1875,33.0469 735.5,34.125 Q734.8125,35.1875 734.8125,37.2813 Q734.8125,39.375 735.5,40.4531 Q736.1875,41.5156 737.5313,41.5156 Q738.1563,41.5156 738.75,41.25 Q739.3438,40.9688 739.9688,40.3906 L739.9688,43.1094 Z "/><text fill="#000000" font-family="sans-serif" font-size="14" lengthAdjust="spacingAndGlyphs" textLength="176" x="751" y="36.4951">SubstanceSourceMaterial</text><text fill="#000000" font-family="sans-serif" font-size="10" lengthAdjust="spacingAndGlyphs" textLength="139" x="769.5" y="49.0791">com.ibm.fhir.model.resource</text></a><!--MD5=[47c9480cefc54a247b75eed0cbeb6f5c]
class com.ibm.fhir.model.resource.SubstanceSourceMaterial.Organism.Builder--><a href="SubstanceSourceMaterial.Organism.Builder.html" target="_top" title="SubstanceSourceMaterial.Organism.Builder.html" xlink:actuate="onRequest" xlink:href="SubstanceSourceMaterial.Organism.Builder.html" xlink:show="new" xlink:title="SubstanceSourceMaterial.Organism.Builder.html" xlink:type="simple"><rect fill="#FEFECE" filter="url(#f904m2lkqyi3q)" height="37.9375" id="com.ibm.fhir.model.resource.SubstanceSourceMaterial.Organism.Builder" style="stroke: #A80036; stroke-width: 1.5;" width="330" x="6" y="387"/><ellipse cx="21" cy="405.9688" fill="#ADD1B2" rx="11" ry="11" style="stroke: #A80036; stroke-width: 1.0;"/><path d="M23.9688,411.6094 Q23.3906,411.9063 22.75,412.0469 Q22.1094,412.2031 21.4063,412.2031 Q18.9063,412.2031 17.5781,410.5625 Q16.2656,408.9063 16.2656,405.7813 Q16.2656,402.6563 17.5781,401 Q18.9063,399.3438 21.4063,399.3438 Q22.1094,399.3438 22.75,399.5 Q23.4063,399.6563 23.9688,399.9531 L23.9688,402.6719 Q23.3438,402.0938 22.75,401.8281 Q22.1563,401.5469 21.5313,401.5469 Q20.1875,401.5469 19.5,402.625 Q18.8125,403.6875 18.8125,405.7813 Q18.8125,407.875 19.5,408.9531 Q20.1875,410.0156 21.5313,410.0156 Q22.1563,410.0156 22.75,409.75 Q23.3438,409.4688 23.9688,408.8906 L23.9688,411.6094 Z "/><text fill="#000000" font-family="sans-serif" font-size="14" lengthAdjust="spacingAndGlyphs" textLength="298" x="35" y="404.9951">SubstanceSourceMaterial.Organism.Builder</text><text fill="#000000" font-family="sans-serif" font-size="10" lengthAdjust="spacingAndGlyphs" textLength="139" x="114.5" y="417.5791">com.ibm.fhir.model.resource</text></a><!--MD5=[7c16e16cd807d5e2298397137a95e602]
class com.ibm.fhir.model.resource.SubstanceSourceMaterial.Organism.Author--><a href="SubstanceSourceMaterial.Organism.Author.html" target="_top" title="SubstanceSourceMaterial.Organism.Author.html" xlink:actuate="onRequest" xlink:href="SubstanceSourceMaterial.Organism.Author.html" xlink:show="new" xlink:title="SubstanceSourceMaterial.Organism.Author.html" xlink:type="simple"><rect fill="#FEFECE" filter="url(#f904m2lkqyi3q)" height="37.9375" id="com.ibm.fhir.model.resource.SubstanceSourceMaterial.Organism.Author" style="stroke: #A80036; stroke-width: 1.5;" width="328" x="371" y="387"/><ellipse cx="386" cy="405.9688" fill="#ADD1B2" rx="11" ry="11" style="stroke: #A80036; stroke-width: 1.0;"/><path d="M388.9688,411.6094 Q388.3906,411.9063 387.75,412.0469 Q387.1094,412.2031 386.4063,412.2031 Q383.9063,412.2031 382.5781,410.5625 Q381.2656,408.9063 381.2656,405.7813 Q381.2656,402.6563 382.5781,401 Q383.9063,399.3438 386.4063,399.3438 Q387.1094,399.3438 387.75,399.5 Q388.4063,399.6563 388.9688,399.9531 L388.9688,402.6719 Q388.3438,402.0938 387.75,401.8281 Q387.1563,401.5469 386.5313,401.5469 Q385.1875,401.5469 384.5,402.625 Q383.8125,403.6875 383.8125,405.7813 Q383.8125,407.875 384.5,408.9531 Q385.1875,410.0156 386.5313,410.0156 Q387.1563,410.0156 387.75,409.75 Q388.3438,409.4688 388.9688,408.8906 L388.9688,411.6094 Z "/><text fill="#000000" font-family="sans-serif" font-size="14" lengthAdjust="spacingAndGlyphs" textLength="296" x="400" y="404.9951">SubstanceSourceMaterial.Organism.Author</text><text fill="#000000" font-family="sans-serif" font-size="10" lengthAdjust="spacingAndGlyphs" textLength="139" x="478.5" y="417.5791">com.ibm.fhir.model.resource</text></a><!--MD5=[213735867ee192936c1538a2fc5b6193]
class com.ibm.fhir.model.resource.SubstanceSourceMaterial.Organism.Hybrid--><a href="SubstanceSourceMaterial.Organism.Hybrid.html" target="_top" title="SubstanceSourceMaterial.Organism.Hybrid.html" xlink:actuate="onRequest" xlink:href="SubstanceSourceMaterial.Organism.Hybrid.html" xlink:show="new" xlink:title="SubstanceSourceMaterial.Organism.Hybrid.html" xlink:type="simple"><rect fill="#FEFECE" filter="url(#f904m2lkqyi3q)" height="37.9375" id="com.ibm.fhir.model.resource.SubstanceSourceMaterial.Organism.Hybrid" style="stroke: #A80036; stroke-width: 1.5;" width="325" x="734.5" y="387"/><ellipse cx="749.5" cy="405.9688" fill="#ADD1B2" rx="11" ry="11" style="stroke: #A80036; stroke-width: 1.0;"/><path d="M752.4688,411.6094 Q751.8906,411.9063 751.25,412.0469 Q750.6094,412.2031 749.9063,412.2031 Q747.4063,412.2031 746.0781,410.5625 Q744.7656,408.9063 744.7656,405.7813 Q744.7656,402.6563 746.0781,401 Q747.4063,399.3438 749.9063,399.3438 Q750.6094,399.3438 751.25,399.5 Q751.9063,399.6563 752.4688,399.9531 L752.4688,402.6719 Q751.8438,402.0938 751.25,401.8281 Q750.6563,401.5469 750.0313,401.5469 Q748.6875,401.5469 748,402.625 Q747.3125,403.6875 747.3125,405.7813 Q747.3125,407.875 748,408.9531 Q748.6875,410.0156 750.0313,410.0156 Q750.6563,410.0156 751.25,409.75 Q751.8438,409.4688 752.4688,408.8906 L752.4688,411.6094 Z "/><text fill="#000000" font-family="sans-serif" font-size="14" lengthAdjust="spacingAndGlyphs" textLength="293" x="763.5" y="404.9951">SubstanceSourceMaterial.Organism.Hybrid</text><text fill="#000000" font-family="sans-serif" font-size="10" lengthAdjust="spacingAndGlyphs" textLength="139" x="840.5" y="417.5791">com.ibm.fhir.model.resource</text></a><!--MD5=[b8a86ca4cd9942a414ff0507785d972f]
class com.ibm.fhir.model.resource.SubstanceSourceMaterial.Organism.OrganismGeneral--><a href="SubstanceSourceMaterial.Organism.OrganismGeneral.html" target="_top" title="SubstanceSourceMaterial.Organism.OrganismGeneral.html" xlink:actuate="onRequest" xlink:href="SubstanceSourceMaterial.Organism.OrganismGeneral.html" xlink:show="new" xlink:title="SubstanceSourceMaterial.Organism.OrganismGeneral.html" xlink:type="simple"><rect fill="#FEFECE" filter="url(#f904m2lkqyi3q)" height="37.9375" id="com.ibm.fhir.model.resource.SubstanceSourceMaterial.Organism.OrganismGeneral" style="stroke: #A80036; stroke-width: 1.5;" width="402" x="1095" y="387"/><ellipse cx="1110" cy="405.9688" fill="#ADD1B2" rx="11" ry="11" style="stroke: #A80036; stroke-width: 1.0;"/><path d="M1112.9688,411.6094 Q1112.3906,411.9063 1111.75,412.0469 Q1111.1094,412.2031 1110.4063,412.2031 Q1107.9063,412.2031 1106.5781,410.5625 Q1105.2656,408.9063 1105.2656,405.7813 Q1105.2656,402.6563 1106.5781,401 Q1107.9063,399.3438 1110.4063,399.3438 Q1111.1094,399.3438 1111.75,399.5 Q1112.4063,399.6563 1112.9688,399.9531 L1112.9688,402.6719 Q1112.3438,402.0938 1111.75,401.8281 Q1111.1563,401.5469 1110.5313,401.5469 Q1109.1875,401.5469 1108.5,402.625 Q1107.8125,403.6875 1107.8125,405.7813 Q1107.8125,407.875 1108.5,408.9531 Q1109.1875,410.0156 1110.5313,410.0156 Q1111.1563,410.0156 1111.75,409.75 Q1112.3438,409.4688 1112.9688,408.8906 L1112.9688,411.6094 Z "/><text fill="#000000" font-family="sans-serif" font-size="14" lengthAdjust="spacingAndGlyphs" textLength="370" x="1124" y="404.9951">SubstanceSourceMaterial.Organism.OrganismGeneral</text><text fill="#000000" font-family="sans-serif" font-size="10" lengthAdjust="spacingAndGlyphs" textLength="139" x="1239.5" y="417.5791">com.ibm.fhir.model.resource</text></a><!--MD5=[f58e42dafc8e0ab9f7d8f03c5ad17740]
reverse link com.ibm.fhir.model.type.BackboneElement to com.ibm.fhir.model.resource.SubstanceSourceMaterial.Organism--><path d="M633.94,84.84 C641.39,97.65 649.76,112.06 658.25,126.65 " fill="none" id="com.ibm.fhir.model.type.BackboneElement&lt;-com.ibm.fhir.model.resource.SubstanceSourceMaterial.Organism" style="stroke: #A80036; stroke-width: 1.0;"/><polygon fill="none" points="627.79,88.19,623.79,67.39,639.9,81.16,627.79,88.19" style="stroke: #A80036; stroke-width: 1.0;"/><!--MD5=[7027ba63c5e43401d437ad8b63249d15]
reverse link com.ibm.fhir.model.resource.SubstanceSourceMaterial to com.ibm.fhir.model.resource.SubstanceSourceMaterial.Organism--><path d="M807.49,70.06 C798.18,85.92 786.34,106.11 774.28,126.65 " fill="none" id="com.ibm.fhir.model.resource.SubstanceSourceMaterial&lt;-com.ibm.fhir.model.resource.SubstanceSourceMaterial.Organism" style="stroke: #A80036; stroke-width: 1.0;"/><ellipse cx="811.2048" cy="63.7219" fill="#FFFFFF" rx="8" ry="8" style="stroke: #A80036; stroke-width: 1.0;"/><line style="stroke: #A80036; stroke-width: 1.0;" x1="807.1597" x2="815.25" y1="70.6239" y2="56.82"/><line style="stroke: #A80036; stroke-width: 1.0;" x1="804.3029" x2="818.1068" y1="59.6768" y2="67.7671"/><!--MD5=[ba84b21a93d0f9d66246a45472e89c04]
reverse link com.ibm.fhir.model.resource.SubstanceSourceMaterial.Organism to com.ibm.fhir.model.resource.SubstanceSourceMaterial.Organism.Builder--><path d="M562.18,277.96 C450.15,314.34 304.87,361.52 226.68,386.92 " fill="none" id="com.ibm.fhir.model.resource.SubstanceSourceMaterial.Organism&lt;-com.ibm.fhir.model.resource.SubstanceSourceMaterial.Organism.Builder" style="stroke: #A80036; stroke-width: 1.0;"/><ellipse cx="569.1032" cy="275.7172" fill="#FFFFFF" rx="8" ry="8" style="stroke: #A80036; stroke-width: 1.0;"/><line style="stroke: #A80036; stroke-width: 1.0;" x1="561.4964" x2="576.71" y1="278.1943" y2="273.24"/><line style="stroke: #A80036; stroke-width: 1.0;" x1="566.626" x2="571.5804" y1="268.1104" y2="283.324"/><!--MD5=[6be2d5ad1de07581b44f28c9e1019a2f]
reverse link com.ibm.fhir.model.resource.SubstanceSourceMaterial.Organism to com.ibm.fhir.model.resource.SubstanceSourceMaterial.Organism.Author--><path d="M603.69,337.82 C584.19,356.9 566.12,374.57 553.42,386.99 " fill="none" id="com.ibm.fhir.model.resource.SubstanceSourceMaterial.Organism&lt;-com.ibm.fhir.model.resource.SubstanceSourceMaterial.Organism.Author" style="stroke: #A80036; stroke-width: 1.0;"/><ellipse cx="608.9288" cy="332.7017" fill="#FFFFFF" rx="8" ry="8" style="stroke: #A80036; stroke-width: 1.0;"/><line style="stroke: #A80036; stroke-width: 1.0;" x1="603.2075" x2="614.65" y1="338.2935" y2="327.11"/><line style="stroke: #A80036; stroke-width: 1.0;" x1="603.337" x2="614.5205" y1="326.9805" y2="338.423"/><!--MD5=[3e31aab93c1723bed0cada8caeec6b17]
reverse link com.ibm.fhir.model.resource.SubstanceSourceMaterial.Organism to com.ibm.fhir.model.resource.SubstanceSourceMaterial.Organism.Hybrid--><path d="M828.31,337.82 C847.81,356.9 865.88,374.57 878.58,386.99 " fill="none" id="com.ibm.fhir.model.resource.SubstanceSourceMaterial.Organism&lt;-com.ibm.fhir.model.resource.SubstanceSourceMaterial.Organism.Hybrid" style="stroke: #A80036; stroke-width: 1.0;"/><ellipse cx="823.0712" cy="332.7017" fill="#FFFFFF" rx="8" ry="8" style="stroke: #A80036; stroke-width: 1.0;"/><line style="stroke: #A80036; stroke-width: 1.0;" x1="828.7925" x2="817.35" y1="338.2935" y2="327.11"/><line style="stroke: #A80036; stroke-width: 1.0;" x1="817.4795" x2="828.663" y1="338.423" y2="326.9805"/><!--MD5=[ae2286e8ac3b1b18c8c48a03b07c06ea]
reverse link com.ibm.fhir.model.resource.SubstanceSourceMaterial.Organism to com.ibm.fhir.model.resource.SubstanceSourceMaterial.Organism.OrganismGeneral--><path d="M869.77,274.93 C990.17,311.67 1151.11,360.78 1236.66,386.89 " fill="none" id="com.ibm.fhir.model.resource.SubstanceSourceMaterial.Organism&lt;-com.ibm.fhir.model.resource.SubstanceSourceMaterial.Organism.OrganismGeneral" style="stroke: #A80036; stroke-width: 1.0;"/><ellipse cx="862.9425" cy="272.8423" fill="#FFFFFF" rx="8" ry="8" style="stroke: #A80036; stroke-width: 1.0;"/><line style="stroke: #A80036; stroke-width: 1.0;" x1="870.5949" x2="855.29" y1="275.1747" y2="270.51"/><line style="stroke: #A80036; stroke-width: 1.0;" x1="860.6101" x2="865.2748" y1="280.4948" y2="265.1899"/><text fill="#888888" font-family="sans-serif" font-size="10" lengthAdjust="spacingAndGlyphs" textLength="186" x="664.5" y="444.2822">UMLDoclet 2.0.7, PlantUML 1.2019.12</text><!--MD5=[0da1025002e9edcd0b3ad3732bf8e434]
@startuml
    set namespaceSeparator none
    hide empty fields
    hide empty methods

    class "<size:14>SubstanceSourceMaterial.Organism\n<size:10>com.ibm.fhir.model.resource" as com.ibm.fhir.model.resource.SubstanceSourceMaterial.Organism [[SubstanceSourceMaterial.Organism.html]] {
        +getFamily(): CodeableConcept
        +getGenus(): CodeableConcept
        +getSpecies(): CodeableConcept
        +getIntraspecificType(): CodeableConcept
        +getIntraspecificDescription(): String
        +getAuthor(): List<Author>
        +getHybrid(): Hybrid
        +getOrganismGeneral(): OrganismGeneral
        +hasChildren(): boolean
        +accept(String, int, Visitor): void
        +toBuilder(): Builder
        {static} +builder(): Builder
    }

    abstract class "<size:14>BackboneElement\n<size:10>com.ibm.fhir.model.type" as com.ibm.fhir.model.type.BackboneElement [[../type/BackboneElement.html]] {
        {abstract} +toBuilder(): Builder
    }
    class "<size:14>SubstanceSourceMaterial\n<size:10>com.ibm.fhir.model.resource" as com.ibm.fhir.model.resource.SubstanceSourceMaterial [[SubstanceSourceMaterial.html]]
    class "<size:14>SubstanceSourceMaterial.Organism.Builder\n<size:10>com.ibm.fhir.model.resource" as com.ibm.fhir.model.resource.SubstanceSourceMaterial.Organism.Builder [[SubstanceSourceMaterial.Organism.Builder.html]]
    class "<size:14>SubstanceSourceMaterial.Organism.Author\n<size:10>com.ibm.fhir.model.resource" as com.ibm.fhir.model.resource.SubstanceSourceMaterial.Organism.Author [[SubstanceSourceMaterial.Organism.Author.html]]
    class "<size:14>SubstanceSourceMaterial.Organism.Hybrid\n<size:10>com.ibm.fhir.model.resource" as com.ibm.fhir.model.resource.SubstanceSourceMaterial.Organism.Hybrid [[SubstanceSourceMaterial.Organism.Hybrid.html]]
    class "<size:14>SubstanceSourceMaterial.Organism.OrganismGeneral\n<size:10>com.ibm.fhir.model.resource" as com.ibm.fhir.model.resource.SubstanceSourceMaterial.Organism.OrganismGeneral [[SubstanceSourceMaterial.Organism.OrganismGeneral.html]]

    com.ibm.fhir.model.type.BackboneElement <|- - com.ibm.fhir.model.resource.SubstanceSourceMaterial.Organism
    com.ibm.fhir.model.resource.SubstanceSourceMaterial +- - com.ibm.fhir.model.resource.SubstanceSourceMaterial.Organism
    com.ibm.fhir.model.resource.SubstanceSourceMaterial.Organism +- - com.ibm.fhir.model.resource.SubstanceSourceMaterial.Organism.Builder
    com.ibm.fhir.model.resource.SubstanceSourceMaterial.Organism +- - com.ibm.fhir.model.resource.SubstanceSourceMaterial.Organism.Author
    com.ibm.fhir.model.resource.SubstanceSourceMaterial.Organism +- - com.ibm.fhir.model.resource.SubstanceSourceMaterial.Organism.Hybrid
    com.ibm.fhir.model.resource.SubstanceSourceMaterial.Organism +- - com.ibm.fhir.model.resource.SubstanceSourceMaterial.Organism.OrganismGeneral

    center footer UMLDoclet 2.0.7, PlantUML 1.2019.12
@enduml

PlantUML version 1.2019.12(Sun Nov 03 10:24:54 UTC 2019)
(APACHE source distribution)
Java Runtime: OpenJDK Runtime Environment
JVM: OpenJDK 64-Bit Server VM
Java Version: 11.0.10+9
Operating System: Linux
Default Encoding: UTF-8
Language: en
Country: null
--></g></svg>