<?xml version="1.0" encoding="UTF-8" standalone="no"?><svg xmlns="http://www.w3.org/2000/svg" xmlns:xlink="http://www.w3.org/1999/xlink" contentScriptType="application/ecmascript" contentStyleType="text/css" height="224px" preserveAspectRatio="none" style="width:261px;height:224px;" version="1.1" viewBox="0 0 261 224" width="261px" zoomAndPan="magnify"><defs><filter height="300%" id="fheiytzxzp5jx" width="300%" x="-1" y="-1"><feGaussianBlur result="blurOut" stdDeviation="2.0"/><feColorMatrix in="blurOut" result="blurOut2" type="matrix" values="0 0 0 0 0 0 0 0 0 0 0 0 0 0 0 0 0 0 .4 0"/><feOffset dx="4.0" dy="4.0" in="blurOut2" result="blurOut3"/><feBlend in="SourceGraphic" in2="blurOut3" mode="normal"/></filter></defs><g><!--MD5=[1adf0efd3cd45fcb0324974b87805fb5]
class com.ibm.fhir.operation.bulkdata.BulkDataConstants.ExportType--><a href="BulkDataConstants.ExportType.html" target="_top" title="BulkDataConstants.ExportType.html" xlink:actuate="onRequest" xlink:href="BulkDataConstants.ExportType.html" xlink:show="new" xlink:title="BulkDataConstants.ExportType.html" xlink:type="simple"><rect fill="#FEFECE" filter="url(#fheiytzxzp5jx)" height="85.1309" id="com.ibm.fhir.operation.bulkdata.BulkDataConstants.ExportType" style="stroke: #A80036; stroke-width: 1.5;" width="244" x="6" y="106"/><ellipse cx="21" cy="125.1328" fill="#EB937F" rx="11" ry="11" style="stroke: #A80036; stroke-width: 1.0;"/><path d="M24.6143,131.6328 L16.8945,131.6328 L16.8945,119.2397 L24.6143,119.2397 L24.6143,121.3979 L19.3433,121.3979 L19.3433,124.0708 L24.1162,124.0708 L24.1162,126.229 L19.3433,126.229 L19.3433,129.4746 L24.6143,129.4746 Z "/><text fill="#000000" font-family="sans-serif" font-size="14" lengthAdjust="spacingAndGlyphs" textLength="212" x="35" y="124.5352">BulkDataConstants.ExportType</text><text fill="#000000" font-family="sans-serif" font-size="10" lengthAdjust="spacingAndGlyphs" textLength="157" x="62.5" y="137.1563">com.ibm.fhir.operation.bulkdata</text><line style="stroke: #A80036; stroke-width: 1.5;" x1="7" x2="249" y1="144.2656" y2="144.2656"/><ellipse cx="17" cy="155.2656" fill="none" rx="3" ry="3" style="stroke: #038048; stroke-width: 1.0;"/><text fill="#000000" font-family="sans-serif" font-size="11" lengthAdjust="spacingAndGlyphs" text-decoration="underline" textLength="41" x="26" y="158.9004">SYSTEM</text><ellipse cx="17" cy="168.2207" fill="none" rx="3" ry="3" style="stroke: #038048; stroke-width: 1.0;"/><text fill="#000000" font-family="sans-serif" font-size="11" lengthAdjust="spacingAndGlyphs" text-decoration="underline" textLength="45" x="26" y="171.8555">PATIENT</text><ellipse cx="17" cy="181.1758" fill="none" rx="3" ry="3" style="stroke: #038048; stroke-width: 1.0;"/><text fill="#000000" font-family="sans-serif" font-size="11" lengthAdjust="spacingAndGlyphs" text-decoration="underline" textLength="38" x="26" y="184.8105">GROUP</text></a><!--MD5=[b5932cee8375d23c98e98cef27536295]
class com.ibm.fhir.operation.bulkdata.BulkDataConstants--><a href="BulkDataConstants.html" target="_top" title="BulkDataConstants.html" xlink:actuate="onRequest" xlink:href="BulkDataConstants.html" xlink:show="new" xlink:title="BulkDataConstants.html" xlink:type="simple"><rect fill="#FEFECE" filter="url(#fheiytzxzp5jx)" height="38.2656" id="com.ibm.fhir.operation.bulkdata.BulkDataConstants" style="stroke: #A80036; stroke-width: 1.5;" width="189" x="33.5" y="8"/><ellipse cx="48.5" cy="27.1328" fill="#ADD1B2" rx="11" ry="11" style="stroke: #A80036; stroke-width: 1.0;"/><path d="M50.9731,33.2759 Q50.3921,33.5747 49.7529,33.7241 Q49.1138,33.8735 48.4082,33.8735 Q45.9014,33.8735 44.5815,32.2217 Q43.2617,30.5698 43.2617,27.4487 Q43.2617,24.3193 44.5815,22.6675 Q45.9014,21.0156 48.4082,21.0156 Q49.1138,21.0156 49.7612,21.165 Q50.4087,21.3145 50.9731,21.6133 L50.9731,24.3359 Q50.3423,23.7549 49.7488,23.4851 Q49.1553,23.2153 48.5244,23.2153 Q47.1797,23.2153 46.4949,24.282 Q45.8101,25.3486 45.8101,27.4487 Q45.8101,29.5405 46.4949,30.6072 Q47.1797,31.6738 48.5244,31.6738 Q49.1553,31.6738 49.7488,31.4041 Q50.3423,31.1343 50.9731,30.5532 Z "/><text fill="#000000" font-family="sans-serif" font-size="14" lengthAdjust="spacingAndGlyphs" textLength="129" x="76.5" y="26.5352">BulkDataConstants</text><text fill="#000000" font-family="sans-serif" font-size="10" lengthAdjust="spacingAndGlyphs" textLength="157" x="62.5" y="39.1563">com.ibm.fhir.operation.bulkdata</text></a><!--MD5=[96f56585b26492578884cfd89cf8293f]
reverse link com.ibm.fhir.operation.bulkdata.BulkDataConstants to com.ibm.fhir.operation.bulkdata.BulkDataConstants.ExportType--><path d="M128,61.2594 C128,75.1371 128,91.3082 128,105.9312 " fill="none" id="com.ibm.fhir.operation.bulkdata.BulkDataConstants&lt;-com.ibm.fhir.operation.bulkdata.BulkDataConstants.ExportType" style="stroke: #A80036; stroke-width: 1.0;"/><ellipse cx="128.0001" cy="54.252" fill="#FFFFFF" rx="8" ry="8" style="stroke: #A80036; stroke-width: 1.0;"/><line style="stroke: #A80036; stroke-width: 1.0;" x1="128.0002" x2="128" y1="62.252" y2="46.252"/><line style="stroke: #A80036; stroke-width: 1.0;" x1="120.0001" x2="136.0001" y1="54.2521" y2="54.2519"/><text fill="#888888" font-family="sans-serif" font-size="10" lengthAdjust="spacingAndGlyphs" textLength="182" x="43" y="210.668">UMLDoclet 2.0.7, PlantUML 1.2019.12</text><!--MD5=[abd6c644b4d9209503c0e330ee891940]
@startuml
    set namespaceSeparator none
    hide empty fields
    hide empty methods

    enum "<size:14>BulkDataConstants.ExportType\n<size:10>com.ibm.fhir.operation.bulkdata" as com.ibm.fhir.operation.bulkdata.BulkDataConstants.ExportType [[BulkDataConstants.ExportType.html]] {
        {static} +SYSTEM
        {static} +PATIENT
        {static} +GROUP
    }

    class "<size:14>BulkDataConstants\n<size:10>com.ibm.fhir.operation.bulkdata" as com.ibm.fhir.operation.bulkdata.BulkDataConstants [[BulkDataConstants.html]]

    com.ibm.fhir.operation.bulkdata.BulkDataConstants +- - com.ibm.fhir.operation.bulkdata.BulkDataConstants.ExportType

    center footer UMLDoclet 2.0.7, PlantUML 1.2019.12
@enduml

PlantUML version 1.2019.12(Sun Nov 03 05:24:54 EST 2019)
(APACHE source distribution)
Java Runtime: OpenJDK Runtime Environment
JVM: OpenJDK 64-Bit Server VM
Java Version: 11.0.4+11
Operating System: Mac OS X
Default Encoding: UTF-8
Language: en
Country: US
--></g></svg>