<?xml version="1.0" encoding="UTF-8" standalone="no"?><svg xmlns="http://www.w3.org/2000/svg" xmlns:xlink="http://www.w3.org/1999/xlink" contentScriptType="application/ecmascript" contentStyleType="text/css" height="504px" preserveAspectRatio="none" style="width:422px;height:504px;" version="1.1" viewBox="0 0 422 504" width="422px" zoomAndPan="magnify"><defs><filter height="300%" id="f19k2f48kiweu3" width="300%" x="-1" y="-1"><feGaussianBlur result="blurOut" stdDeviation="2.0"/><feColorMatrix in="blurOut" result="blurOut2" type="matrix" values="0 0 0 0 0 0 0 0 0 0 0 0 0 0 0 0 0 0 .4 0"/><feOffset dx="4.0" dy="4.0" in="blurOut2" result="blurOut3"/><feBlend in="SourceGraphic" in2="blurOut3" mode="normal"/></filter></defs><g><!--MD5=[342fe47dd8a3b1e08e1623a2d2189c3d]
class com.ibm.fhir.model.visitor.CopyingVisitor--><a href="CopyingVisitor.html" target="_top" title="CopyingVisitor.html" xlink:actuate="onRequest" xlink:href="CopyingVisitor.html" xlink:show="new" xlink:title="CopyingVisitor.html" xlink:type="simple"><rect fill="#FEFECE" filter="url(#f19k2f48kiweu3)" height="366.0547" id="com.ibm.fhir.model.visitor.CopyingVisitor" style="stroke: #A80036; stroke-width: 1.5;" width="402" x="6" y="106"/><ellipse cx="78.75" cy="124.9688" fill="#ADD1B2" rx="11" ry="11" style="stroke: #A80036; stroke-width: 1.0;"/><path d="M81.7188,130.6094 Q81.1406,130.9063 80.5,131.0469 Q79.8594,131.2031 79.1563,131.2031 Q76.6563,131.2031 75.3281,129.5625 Q74.0156,127.9063 74.0156,124.7813 Q74.0156,121.6563 75.3281,120 Q76.6563,118.3438 79.1563,118.3438 Q79.8594,118.3438 80.5,118.5 Q81.1563,118.6563 81.7188,118.9531 L81.7188,121.6719 Q81.0938,121.0938 80.5,120.8281 Q79.9063,120.5469 79.2813,120.5469 Q77.9375,120.5469 77.25,121.625 Q76.5625,122.6875 76.5625,124.7813 Q76.5625,126.875 77.25,127.9531 Q77.9375,129.0156 79.2813,129.0156 Q79.9063,129.0156 80.5,128.75 Q81.0938,128.4688 81.7188,127.8906 L81.7188,130.6094 Z "/><text fill="#000000" font-family="sans-serif" font-size="14" lengthAdjust="spacingAndGlyphs" textLength="98" x="113.25" y="123.9951">CopyingVisitor</text><text fill="#000000" font-family="sans-serif" font-size="10" lengthAdjust="spacingAndGlyphs" textLength="126" x="99.25" y="136.5791">com.ibm.fhir.model.visitor</text><rect fill="#FFFFFF" height="15.9688" style="stroke: #000000; stroke-width: 1.0; stroke-dasharray: 2.0,2.0;" width="120" x="291" y="103"/><text fill="#000000" font-family="sans-serif" font-size="12" font-style="italic" lengthAdjust="spacingAndGlyphs" textLength="118" x="292" y="115.1387">T extends Visitable</text><line style="stroke: #A80036; stroke-width: 1.5;" x1="7" x2="407" y1="143.9375" y2="143.9375"/><polygon fill="#FFFF44" points="17,149.9375,21,153.9375,17,157.9375,13,153.9375" style="stroke: #B38D22; stroke-width: 1.0;"/><text fill="#000000" font-family="sans-serif" font-size="11" lengthAdjust="spacingAndGlyphs" textLength="208" x="26" y="158.1479">doVisitEnd(String, int, Element): void</text><polygon fill="#FFFF44" points="17,162.7422,21,166.7422,17,170.7422,13,166.7422" style="stroke: #B38D22; stroke-width: 1.0;"/><text fill="#000000" font-family="sans-serif" font-size="11" lengthAdjust="spacingAndGlyphs" textLength="215" x="26" y="170.9526">doVisitEnd(String, int, Resource): void</text><polygon fill="#FFFF44" points="17,175.5469,21,179.5469,17,183.5469,13,179.5469" style="stroke: #B38D22; stroke-width: 1.0;"/><text fill="#000000" font-family="sans-serif" font-size="11" lengthAdjust="spacingAndGlyphs" textLength="215" x="26" y="183.7573">doVisitStart(String, int, Element): void</text><polygon fill="#FFFF44" points="17,188.3516,21,192.3516,17,196.3516,13,192.3516" style="stroke: #B38D22; stroke-width: 1.0;"/><text fill="#000000" font-family="sans-serif" font-size="11" lengthAdjust="spacingAndGlyphs" textLength="222" x="26" y="196.562">doVisitStart(String, int, Resource): void</text><polygon fill="#FFFF44" points="17,201.1563,21,205.1563,17,209.1563,13,205.1563" style="stroke: #B38D22; stroke-width: 1.0;"/><text fill="#000000" font-family="sans-serif" font-size="11" lengthAdjust="spacingAndGlyphs" textLength="376" x="26" y="209.3667">doVisitListStart(String, List&lt;? extends Visitable&gt;, Class&lt;?&gt;): void</text><polygon fill="#FFFF44" points="17,213.9609,21,217.9609,17,221.9609,13,217.9609" style="stroke: #B38D22; stroke-width: 1.0;"/><text fill="#000000" font-family="sans-serif" font-size="11" lengthAdjust="spacingAndGlyphs" textLength="369" x="26" y="222.1714">doVisitListEnd(String, List&lt;? extends Visitable&gt;, Class&lt;?&gt;): void</text><ellipse cx="17" cy="231.7656" fill="#84BE84" rx="3" ry="3" style="stroke: #038048; stroke-width: 1.0;"/><text fill="#000000" font-family="sans-serif" font-size="11" lengthAdjust="spacingAndGlyphs" textLength="177" x="26" y="234.9761">getResult(): T extends Visitable</text><ellipse cx="17" cy="244.5703" fill="#84BE84" rx="3" ry="3" style="stroke: #038048; stroke-width: 1.0;"/><text fill="#000000" font-family="sans-serif" font-size="11" lengthAdjust="spacingAndGlyphs" textLength="93" x="26" y="247.7808">getPath(): String</text><ellipse cx="17" cy="257.375" fill="#84BE84" rx="3" ry="3" style="stroke: #038048; stroke-width: 1.0;"/><text fill="#000000" font-family="sans-serif" font-size="11" lengthAdjust="spacingAndGlyphs" textLength="69" x="26" y="260.5854">reset(): void</text><ellipse cx="17" cy="270.1797" fill="#84BE84" rx="3" ry="3" style="stroke: #038048; stroke-width: 1.0;"/><text fill="#000000" font-family="sans-serif" font-size="11" lengthAdjust="spacingAndGlyphs" textLength="200" x="26" y="273.3901">visitStart(String, int, Element): void</text><ellipse cx="17" cy="282.9844" fill="#84BE84" rx="3" ry="3" style="stroke: #038048; stroke-width: 1.0;"/><text fill="#000000" font-family="sans-serif" font-size="11" lengthAdjust="spacingAndGlyphs" textLength="207" x="26" y="286.1948">visitStart(String, int, Resource): void</text><ellipse cx="17" cy="295.7891" fill="#84BE84" rx="3" ry="3" style="stroke: #038048; stroke-width: 1.0;"/><text fill="#000000" font-family="sans-serif" font-size="11" lengthAdjust="spacingAndGlyphs" textLength="193" x="26" y="298.9995">visitEnd(String, int, Element): void</text><ellipse cx="17" cy="308.5938" fill="#84BE84" rx="3" ry="3" style="stroke: #038048; stroke-width: 1.0;"/><text fill="#000000" font-family="sans-serif" font-size="11" lengthAdjust="spacingAndGlyphs" textLength="200" x="26" y="311.8042">visitEnd(String, int, Resource): void</text><ellipse cx="17" cy="321.3984" fill="#84BE84" rx="3" ry="3" style="stroke: #038048; stroke-width: 1.0;"/><text fill="#000000" font-family="sans-serif" font-size="11" lengthAdjust="spacingAndGlyphs" textLength="341" x="26" y="324.6089">visitStart(String, List&lt;? extends Visitable&gt;, Class&lt;?&gt;): void</text><ellipse cx="17" cy="334.2031" fill="#84BE84" rx="3" ry="3" style="stroke: #038048; stroke-width: 1.0;"/><text fill="#000000" font-family="sans-serif" font-size="11" lengthAdjust="spacingAndGlyphs" textLength="334" x="26" y="337.4136">visitEnd(String, List&lt;? extends Visitable&gt;, Class&lt;?&gt;): void</text><ellipse cx="17" cy="347.0078" fill="#84BE84" rx="3" ry="3" style="stroke: #038048; stroke-width: 1.0;"/><text fill="#000000" font-family="sans-serif" font-size="11" lengthAdjust="spacingAndGlyphs" textLength="134" x="26" y="350.2183">postVisit(Element): void</text><ellipse cx="17" cy="359.8125" fill="#84BE84" rx="3" ry="3" style="stroke: #038048; stroke-width: 1.0;"/><text fill="#000000" font-family="sans-serif" font-size="11" lengthAdjust="spacingAndGlyphs" textLength="141" x="26" y="363.0229">postVisit(Resource): void</text><polygon fill="#FFFF44" points="17,367.6172,21,371.6172,17,375.6172,13,371.6172" style="stroke: #B38D22; stroke-width: 1.0;"/><text fill="#000000" font-family="sans-serif" font-size="11" lengthAdjust="spacingAndGlyphs" textLength="138" x="26" y="375.8276">getBuilder(): Builder&lt;?&gt;</text><polygon fill="#FFFF44" points="17,380.4219,21,384.4219,17,388.4219,13,384.4219" style="stroke: #B38D22; stroke-width: 1.0;"/><text fill="#000000" font-family="sans-serif" font-size="11" lengthAdjust="spacingAndGlyphs" textLength="140" x="26" y="388.6323">getList(): List&lt;Visitable&gt;</text><polygon fill="#FFFF44" points="17,393.2266,21,397.2266,17,401.2266,13,397.2266" style="stroke: #B38D22; stroke-width: 1.0;"/><text fill="#000000" font-family="sans-serif" font-size="11" lengthAdjust="spacingAndGlyphs" textLength="121" x="26" y="401.437">replace(Builder): void</text><polygon fill="#FFFF44" points="17,406.0313,21,410.0313,17,414.0313,13,410.0313" style="stroke: #B38D22; stroke-width: 1.0;"/><text fill="#000000" font-family="sans-serif" font-size="11" lengthAdjust="spacingAndGlyphs" textLength="121" x="26" y="414.2417">replace(Builder): void</text><polygon fill="#FFFF44" points="17,418.8359,21,422.8359,17,426.8359,13,422.8359" style="stroke: #B38D22; stroke-width: 1.0;"/><text fill="#000000" font-family="sans-serif" font-size="11" lengthAdjust="spacingAndGlyphs" textLength="74" x="26" y="427.0464">delete(): void</text><polygon fill="#FFFF44" points="17,431.6406,21,435.6406,17,439.6406,13,435.6406" style="stroke: #B38D22; stroke-width: 1.0;"/><text fill="#000000" font-family="sans-serif" font-size="11" lengthAdjust="spacingAndGlyphs" textLength="94" x="26" y="439.8511">markDirty(): void</text><polygon fill="#FFFF44" points="17,444.4453,21,448.4453,17,452.4453,13,448.4453" style="stroke: #B38D22; stroke-width: 1.0;"/><text fill="#000000" font-family="sans-serif" font-size="11" lengthAdjust="spacingAndGlyphs" textLength="114" x="26" y="452.6558">markListDirty(): void</text><polygon fill="#FFFF44" points="17,457.25,21,461.25,17,465.25,13,461.25" style="stroke: #B38D22; stroke-width: 1.0;"/><text fill="#000000" font-family="sans-serif" font-size="11" lengthAdjust="spacingAndGlyphs" textLength="303" x="26" y="465.4604">convertToCodeSubtype(Visitable, String, Code): Code</text></a><!--MD5=[3eb4227a454cb9187a54cb93874e3d76]
class com.ibm.fhir.model.visitor.DefaultVisitor--><a href="DefaultVisitor.html" target="_top" title="DefaultVisitor.html" xlink:actuate="onRequest" xlink:href="DefaultVisitor.html" xlink:show="new" xlink:title="DefaultVisitor.html" xlink:type="simple"><rect fill="#FEFECE" filter="url(#f19k2f48kiweu3)" height="37.9375" id="com.ibm.fhir.model.visitor.DefaultVisitor" style="stroke: #A80036; stroke-width: 1.5;" width="158" x="128" y="8"/><ellipse cx="143" cy="26.9688" fill="#ADD1B2" rx="11" ry="11" style="stroke: #A80036; stroke-width: 1.0;"/><path d="M145.9688,32.6094 Q145.3906,32.9063 144.75,33.0469 Q144.1094,33.2031 143.4063,33.2031 Q140.9063,33.2031 139.5781,31.5625 Q138.2656,29.9063 138.2656,26.7813 Q138.2656,23.6563 139.5781,22 Q140.9063,20.3438 143.4063,20.3438 Q144.1094,20.3438 144.75,20.5 Q145.4063,20.6563 145.9688,20.9531 L145.9688,23.6719 Q145.3438,23.0938 144.75,22.8281 Q144.1563,22.5469 143.5313,22.5469 Q142.1875,22.5469 141.5,23.625 Q140.8125,24.6875 140.8125,26.7813 Q140.8125,28.875 141.5,29.9531 Q142.1875,31.0156 143.5313,31.0156 Q144.1563,31.0156 144.75,30.75 Q145.3438,30.4688 145.9688,29.8906 L145.9688,32.6094 Z "/><text fill="#000000" font-family="sans-serif" font-size="14" lengthAdjust="spacingAndGlyphs" textLength="91" x="174.5" y="25.9951">DefaultVisitor</text><text fill="#000000" font-family="sans-serif" font-size="10" lengthAdjust="spacingAndGlyphs" textLength="126" x="157" y="38.5791">com.ibm.fhir.model.visitor</text></a><!--MD5=[76853e565d8fc1c3605315fbbde393f5]
reverse link com.ibm.fhir.model.visitor.DefaultVisitor to com.ibm.fhir.model.visitor.CopyingVisitor--><path d="M207,66.4358 C207,77.9712 207,91.4015 207,105.8425 " fill="none" id="com.ibm.fhir.model.visitor.DefaultVisitor&lt;-com.ibm.fhir.model.visitor.CopyingVisitor" style="stroke: #A80036; stroke-width: 1.0;"/><polygon fill="none" points="200.0001,66.2655,207,46.2655,214.0001,66.2655,200.0001,66.2655" style="stroke: #A80036; stroke-width: 1.0;"/><text fill="#888888" font-family="sans-serif" font-size="10" lengthAdjust="spacingAndGlyphs" textLength="186" x="120" y="491.2822">UMLDoclet 2.0.7, PlantUML 1.2019.12</text><!--MD5=[9e13fe71d7e17da3e3c4d48a57bdc262]
@startuml
    set namespaceSeparator none
    hide empty fields
    hide empty methods

    class "<size:14>CopyingVisitor\n<size:10>com.ibm.fhir.model.visitor" as com.ibm.fhir.model.visitor.CopyingVisitor<T extends Visitable> [[CopyingVisitor.html]] {
        #doVisitEnd(String, int, Element): void
        #doVisitEnd(String, int, Resource): void
        #doVisitStart(String, int, Element): void
        #doVisitStart(String, int, Resource): void
        #doVisitListStart(String, List<? extends Visitable>, Class<?>): void
        #doVisitListEnd(String, List<? extends Visitable>, Class<?>): void
        +getResult(): T extends Visitable
        +getPath(): String
        +reset(): void
        +visitStart(String, int, Element): void
        +visitStart(String, int, Resource): void
        +visitEnd(String, int, Element): void
        +visitEnd(String, int, Resource): void
        +visitStart(String, List<? extends Visitable>, Class<?>): void
        +visitEnd(String, List<? extends Visitable>, Class<?>): void
        +postVisit(Element): void
        +postVisit(Resource): void
        #getBuilder(): Builder<?>
        #getList(): List<Visitable>
        #replace(Builder): void
        #replace(Builder): void
        #delete(): void
        #markDirty(): void
        #markListDirty(): void
        #convertToCodeSubtype(Visitable, String, Code): Code
    }

    class "<size:14>DefaultVisitor\n<size:10>com.ibm.fhir.model.visitor" as com.ibm.fhir.model.visitor.DefaultVisitor [[DefaultVisitor.html]]

    com.ibm.fhir.model.visitor.DefaultVisitor <|- - com.ibm.fhir.model.visitor.CopyingVisitor

    center footer UMLDoclet 2.0.7, PlantUML 1.2019.12
@enduml

PlantUML version 1.2019.12(Sun Nov 03 10:24:54 UTC 2019)
(APACHE source distribution)
Java Runtime: OpenJDK Runtime Environment
JVM: OpenJDK 64-Bit Server VM
Java Version: 11.0.9+11
Operating System: Linux
Default Encoding: UTF-8
Language: en
Country: null
--></g></svg>