<?xml version="1.0" encoding="UTF-8" standalone="no"?><svg xmlns="http://www.w3.org/2000/svg" xmlns:xlink="http://www.w3.org/1999/xlink" contentScriptType="application/ecmascript" contentStyleType="text/css" height="141px" preserveAspectRatio="none" style="width:292px;height:141px;" version="1.1" viewBox="0 0 292 141" width="292px" zoomAndPan="magnify"><defs><filter height="300%" id="f8nayh4in3cxu" width="300%" x="-1" y="-1"><feGaussianBlur result="blurOut" stdDeviation="2.0"/><feColorMatrix in="blurOut" result="blurOut2" type="matrix" values="0 0 0 0 0 0 0 0 0 0 0 0 0 0 0 0 0 0 .4 0"/><feOffset dx="4.0" dy="4.0" in="blurOut2" result="blurOut3"/><feBlend in="SourceGraphic" in2="blurOut3" mode="normal"/></filter></defs><g><!--MD5=[f4b1d1f363a9ae59e5c4b00a39425d69]
class com.ibm.fhir.bulkdata.export.group.resource.GroupHandler--><a href="GroupHandler.html" target="_top" title="GroupHandler.html" xlink:actuate="onRequest" xlink:href="GroupHandler.html" xlink:show="new" xlink:title="GroupHandler.html" xlink:type="simple"><rect fill="#FEFECE" filter="url(#f8nayh4in3cxu)" height="105.1563" id="com.ibm.fhir.bulkdata.export.group.resource.GroupHandler" style="stroke: #A80036; stroke-width: 1.5;" width="274" x="7" y="7"/><ellipse cx="33.7" cy="25.9688" fill="#ADD1B2" rx="11" ry="11" style="stroke: #A80036; stroke-width: 1.0;"/><path d="M36.6688,31.6094 Q36.0906,31.9063 35.45,32.0469 Q34.8094,32.2031 34.1063,32.2031 Q31.6063,32.2031 30.2781,30.5625 Q28.9656,28.9063 28.9656,25.7813 Q28.9656,22.6563 30.2781,21 Q31.6063,19.3438 34.1063,19.3438 Q34.8094,19.3438 35.45,19.5 Q36.1063,19.6563 36.6688,19.9531 L36.6688,22.6719 Q36.0438,22.0938 35.45,21.8281 Q34.8563,21.5469 34.2313,21.5469 Q32.8875,21.5469 32.2,22.625 Q31.5125,23.6875 31.5125,25.7813 Q31.5125,27.875 32.2,28.9531 Q32.8875,30.0156 34.2313,30.0156 Q34.8563,30.0156 35.45,29.75 Q36.0438,29.4688 36.6688,28.8906 L36.6688,31.6094 Z "/><text fill="#000000" font-family="sans-serif" font-size="14" lengthAdjust="spacingAndGlyphs" textLength="96" x="110.3" y="24.9951">GroupHandler</text><text fill="#000000" font-family="sans-serif" font-size="10" lengthAdjust="spacingAndGlyphs" textLength="216" x="50.3" y="37.5791">com.ibm.fhir.bulkdata.export.group.resource</text><line style="stroke: #A80036; stroke-width: 1.5;" x1="8" x2="280" y1="44.9375" y2="44.9375"/><polygon fill="none" points="18,50.9375,22,54.9375,18,58.9375,14,54.9375" style="stroke: #B38D22; stroke-width: 1.0;"/><text fill="#000000" font-family="sans-serif" font-size="11" lengthAdjust="spacingAndGlyphs" textLength="185" x="27" y="59.1479">fhirPersistence: FHIRPersistence</text><line style="stroke: #A80036; stroke-width: 1.5;" x1="8" x2="280" y1="65.7422" y2="65.7422"/><ellipse cx="18" cy="76.7422" fill="#84BE84" rx="3" ry="3" style="stroke: #038048; stroke-width: 1.0;"/><text fill="#000000" font-family="sans-serif" font-size="11" lengthAdjust="spacingAndGlyphs" textLength="217" x="27" y="79.9526">register(FHIRPersistence, String): void</text><ellipse cx="18" cy="89.5469" fill="#84BE84" rx="3" ry="3" style="stroke: #038048; stroke-width: 1.0;"/><text fill="#000000" font-family="sans-serif" font-size="11" lengthAdjust="spacingAndGlyphs" textLength="119" x="27" y="92.7573">process(String): void</text><ellipse cx="18" cy="102.3516" fill="#84BE84" rx="3" ry="3" style="stroke: #038048; stroke-width: 1.0;"/><text fill="#000000" font-family="sans-serif" font-size="11" lengthAdjust="spacingAndGlyphs" textLength="248" x="27" y="105.562">getPageOfMembers(int, int): List&lt;Member&gt;</text></a><text fill="#888888" font-family="sans-serif" font-size="10" lengthAdjust="spacingAndGlyphs" textLength="186" x="51" y="128.4385">UMLDoclet 2.0.7, PlantUML 1.2019.12</text><!--MD5=[78e8feda46186c650828f7e102977bda]
@startuml
    set namespaceSeparator none
    hide empty fields
    hide empty methods

    class "<size:14>GroupHandler\n<size:10>com.ibm.fhir.bulkdata.export.group.resource" as com.ibm.fhir.bulkdata.export.group.resource.GroupHandler [[GroupHandler.html]] {
        #fhirPersistence: FHIRPersistence
        +register(FHIRPersistence, String): void
        +process(String): void
        +getPageOfMembers(int, int): List<Member>
    }

    center footer UMLDoclet 2.0.7, PlantUML 1.2019.12
@enduml

PlantUML version 1.2019.12(Sun Nov 03 10:24:54 UTC 2019)
(APACHE source distribution)
Java Runtime: OpenJDK Runtime Environment
JVM: OpenJDK 64-Bit Server VM
Java Version: 11.0.10+9
Operating System: Linux
Default Encoding: UTF-8
Language: en
Country: null
--></g></svg>