<?xml version="1.0" encoding="UTF-8" standalone="no"?><svg xmlns="http://www.w3.org/2000/svg" xmlns:xlink="http://www.w3.org/1999/xlink" contentScriptType="application/ecmascript" contentStyleType="text/css" height="302px" preserveAspectRatio="none" style="width:660px;height:302px;" version="1.1" viewBox="0 0 660 302" width="660px" zoomAndPan="magnify"><defs><filter height="300%" id="f1oxw8viz7sce" width="300%" x="-1" y="-1"><feGaussianBlur result="blurOut" stdDeviation="2.0"/><feColorMatrix in="blurOut" result="blurOut2" type="matrix" values="0 0 0 0 0 0 0 0 0 0 0 0 0 0 0 0 0 0 .4 0"/><feOffset dx="4.0" dy="4.0" in="blurOut2" result="blurOut3"/><feBlend in="SourceGraphic" in2="blurOut3" mode="normal"/></filter></defs><g><!--MD5=[6762c027553cbcc6958b01843c62b8b4]
class com.ibm.fhir.audit.cadf.model.CadfAttachment--><a href="CadfAttachment.html" target="_top" title="CadfAttachment.html" xlink:actuate="onRequest" xlink:href="CadfAttachment.html" xlink:show="new" xlink:title="CadfAttachment.html" xlink:type="simple"><rect fill="#FEFECE" filter="url(#f1oxw8viz7sce)" height="162.8613" id="com.ibm.fhir.audit.cadf.model.CadfAttachment" style="stroke: #A80036; stroke-width: 1.5;" width="232" x="208" y="8"/><ellipse cx="247.3" cy="27.1328" fill="#ADD1B2" rx="11" ry="11" style="stroke: #A80036; stroke-width: 1.0;"/><path d="M249.7731,33.2759 Q249.1921,33.5747 248.5529,33.7241 Q247.9138,33.8735 247.2082,33.8735 Q244.7014,33.8735 243.3815,32.2217 Q242.0617,30.5698 242.0617,27.4487 Q242.0617,24.3193 243.3815,22.6675 Q244.7014,21.0156 247.2082,21.0156 Q247.9138,21.0156 248.5612,21.165 Q249.2087,21.3145 249.7731,21.6133 L249.7731,24.3359 Q249.1423,23.7549 248.5488,23.4851 Q247.9553,23.2153 247.3244,23.2153 Q245.9797,23.2153 245.2949,24.282 Q244.6101,25.3486 244.6101,27.4487 Q244.6101,29.5405 245.2949,30.6072 Q245.9797,31.6738 247.3244,31.6738 Q247.9553,31.6738 248.5488,31.4041 Q249.1423,31.1343 249.7731,30.5532 Z "/><text fill="#000000" font-family="sans-serif" font-size="14" lengthAdjust="spacingAndGlyphs" textLength="111" x="284.2" y="26.5352">CadfAttachment</text><text fill="#000000" font-family="sans-serif" font-size="10" lengthAdjust="spacingAndGlyphs" textLength="146" x="266.7" y="39.1563">com.ibm.fhir.audit.cadf.model</text><line style="stroke: #A80036; stroke-width: 1.5;" x1="209" x2="439" y1="46.2656" y2="46.2656"/><ellipse cx="219" cy="57.2656" fill="#84BE84" rx="3" ry="3" style="stroke: #038048; stroke-width: 1.0;"/><text fill="#000000" font-family="sans-serif" font-size="11" lengthAdjust="spacingAndGlyphs" textLength="206" x="228" y="60.9004">CadfAttachment(String, Object, String)</text><ellipse cx="219" cy="70.2207" fill="#84BE84" rx="3" ry="3" style="stroke: #038048; stroke-width: 1.0;"/><text fill="#000000" font-family="sans-serif" font-size="11" lengthAdjust="spacingAndGlyphs" textLength="168" x="228" y="73.8555">CadfAttachment(String, Object)</text><ellipse cx="219" cy="83.1758" fill="#84BE84" rx="3" ry="3" style="stroke: #038048; stroke-width: 1.0;"/><text fill="#000000" font-family="sans-serif" font-size="11" lengthAdjust="spacingAndGlyphs" textLength="132" x="228" y="86.8105">getContentType(): String</text><ellipse cx="219" cy="96.1309" fill="#84BE84" rx="3" ry="3" style="stroke: #038048; stroke-width: 1.0;"/><text fill="#000000" font-family="sans-serif" font-size="11" lengthAdjust="spacingAndGlyphs" textLength="154" x="228" y="99.7656">setContentType(String): void</text><ellipse cx="219" cy="109.0859" fill="#84BE84" rx="3" ry="3" style="stroke: #038048; stroke-width: 1.0;"/><text fill="#000000" font-family="sans-serif" font-size="11" lengthAdjust="spacingAndGlyphs" textLength="109" x="228" y="112.7207">getContent(): Object</text><ellipse cx="219" cy="122.041" fill="#84BE84" rx="3" ry="3" style="stroke: #038048; stroke-width: 1.0;"/><text fill="#000000" font-family="sans-serif" font-size="11" lengthAdjust="spacingAndGlyphs" textLength="131" x="228" y="125.6758">setContent(Object): void</text><ellipse cx="219" cy="134.9961" fill="#84BE84" rx="3" ry="3" style="stroke: #038048; stroke-width: 1.0;"/><text fill="#000000" font-family="sans-serif" font-size="11" lengthAdjust="spacingAndGlyphs" textLength="93" x="228" y="138.6309">getName(): String</text><ellipse cx="219" cy="147.9512" fill="#84BE84" rx="3" ry="3" style="stroke: #038048; stroke-width: 1.0;"/><text fill="#000000" font-family="sans-serif" font-size="11" lengthAdjust="spacingAndGlyphs" textLength="115" x="228" y="151.5859">setName(String): void</text><ellipse cx="219" cy="160.9063" fill="#84BE84" rx="3" ry="3" style="stroke: #038048; stroke-width: 1.0;"/><text fill="#000000" font-family="sans-serif" font-size="11" lengthAdjust="spacingAndGlyphs" text-decoration="underline" textLength="89" x="228" y="164.541">builder(): Builder</text></a><!--MD5=[589a51a219c3aa81c1fe7c96266be1cb]
class com.ibm.fhir.audit.cadf.model.CadfAttachment.Writer--><a href="CadfAttachment.Writer.html" target="_top" title="CadfAttachment.Writer.html" xlink:actuate="onRequest" xlink:href="CadfAttachment.Writer.html" xlink:show="new" xlink:title="CadfAttachment.Writer.html" xlink:type="simple"><rect fill="#FEFECE" filter="url(#f1oxw8viz7sce)" height="38.2656" id="com.ibm.fhir.audit.cadf.model.CadfAttachment.Writer" style="stroke: #A80036; stroke-width: 1.5;" width="188" x="6" y="231"/><ellipse cx="21" cy="250.1328" fill="#ADD1B2" rx="11" ry="11" style="stroke: #A80036; stroke-width: 1.0;"/><path d="M23.4731,256.2759 Q22.8921,256.5747 22.2529,256.7241 Q21.6138,256.8735 20.9082,256.8735 Q18.4014,256.8735 17.0815,255.2217 Q15.7617,253.5698 15.7617,250.4487 Q15.7617,247.3193 17.0815,245.6675 Q18.4014,244.0156 20.9082,244.0156 Q21.6138,244.0156 22.2612,244.165 Q22.9087,244.3145 23.4731,244.6133 L23.4731,247.3359 Q22.8423,246.7549 22.2488,246.4851 Q21.6553,246.2153 21.0244,246.2153 Q19.6797,246.2153 18.9949,247.282 Q18.3101,248.3486 18.3101,250.4487 Q18.3101,252.5405 18.9949,253.6072 Q19.6797,254.6738 21.0244,254.6738 Q21.6553,254.6738 22.2488,254.4041 Q22.8423,254.1343 23.4731,253.5532 Z "/><text fill="#000000" font-family="sans-serif" font-size="14" lengthAdjust="spacingAndGlyphs" textLength="156" x="35" y="249.5352">CadfAttachment.Writer</text><text fill="#000000" font-family="sans-serif" font-size="10" lengthAdjust="spacingAndGlyphs" textLength="146" x="40" y="262.1563">com.ibm.fhir.audit.cadf.model</text></a><!--MD5=[1ddb233c6d27d039d4a032d82a5e7a6e]
class com.ibm.fhir.audit.cadf.model.CadfAttachment.Parser--><a href="CadfAttachment.Parser.html" target="_top" title="CadfAttachment.Parser.html" xlink:actuate="onRequest" xlink:href="CadfAttachment.Parser.html" xlink:show="new" xlink:title="CadfAttachment.Parser.html" xlink:type="simple"><rect fill="#FEFECE" filter="url(#f1oxw8viz7sce)" height="38.2656" id="com.ibm.fhir.audit.cadf.model.CadfAttachment.Parser" style="stroke: #A80036; stroke-width: 1.5;" width="190" x="229" y="231"/><ellipse cx="244" cy="250.1328" fill="#ADD1B2" rx="11" ry="11" style="stroke: #A80036; stroke-width: 1.0;"/><path d="M246.4731,256.2759 Q245.8921,256.5747 245.2529,256.7241 Q244.6138,256.8735 243.9082,256.8735 Q241.4014,256.8735 240.0815,255.2217 Q238.7617,253.5698 238.7617,250.4487 Q238.7617,247.3193 240.0815,245.6675 Q241.4014,244.0156 243.9082,244.0156 Q244.6138,244.0156 245.2612,244.165 Q245.9087,244.3145 246.4731,244.6133 L246.4731,247.3359 Q245.8423,246.7549 245.2488,246.4851 Q244.6553,246.2153 244.0244,246.2153 Q242.6797,246.2153 241.9949,247.282 Q241.3101,248.3486 241.3101,250.4487 Q241.3101,252.5405 241.9949,253.6072 Q242.6797,254.6738 244.0244,254.6738 Q244.6553,254.6738 245.2488,254.4041 Q245.8423,254.1343 246.4731,253.5532 Z "/><text fill="#000000" font-family="sans-serif" font-size="14" lengthAdjust="spacingAndGlyphs" textLength="158" x="258" y="249.5352">CadfAttachment.Parser</text><text fill="#000000" font-family="sans-serif" font-size="10" lengthAdjust="spacingAndGlyphs" textLength="146" x="264" y="262.1563">com.ibm.fhir.audit.cadf.model</text></a><!--MD5=[e4d2266eed3a0bcbbd0131a9cab18ae1]
class com.ibm.fhir.audit.cadf.model.CadfAttachment.Builder--><a href="CadfAttachment.Builder.html" target="_top" title="CadfAttachment.Builder.html" xlink:actuate="onRequest" xlink:href="CadfAttachment.Builder.html" xlink:show="new" xlink:title="CadfAttachment.Builder.html" xlink:type="simple"><rect fill="#FEFECE" filter="url(#f1oxw8viz7sce)" height="38.2656" id="com.ibm.fhir.audit.cadf.model.CadfAttachment.Builder" style="stroke: #A80036; stroke-width: 1.5;" width="195" x="454.5" y="231"/><ellipse cx="469.5" cy="250.1328" fill="#ADD1B2" rx="11" ry="11" style="stroke: #A80036; stroke-width: 1.0;"/><path d="M471.9731,256.2759 Q471.3921,256.5747 470.7529,256.7241 Q470.1138,256.8735 469.4082,256.8735 Q466.9014,256.8735 465.5815,255.2217 Q464.2617,253.5698 464.2617,250.4487 Q464.2617,247.3193 465.5815,245.6675 Q466.9014,244.0156 469.4082,244.0156 Q470.1138,244.0156 470.7612,244.165 Q471.4087,244.3145 471.9731,244.6133 L471.9731,247.3359 Q471.3423,246.7549 470.7488,246.4851 Q470.1553,246.2153 469.5244,246.2153 Q468.1797,246.2153 467.4949,247.282 Q466.8101,248.3486 466.8101,250.4487 Q466.8101,252.5405 467.4949,253.6072 Q468.1797,254.6738 469.5244,254.6738 Q470.1553,254.6738 470.7488,254.4041 Q471.3423,254.1343 471.9731,253.5532 Z "/><text fill="#000000" font-family="sans-serif" font-size="14" lengthAdjust="spacingAndGlyphs" textLength="163" x="483.5" y="249.5352">CadfAttachment.Builder</text><text fill="#000000" font-family="sans-serif" font-size="10" lengthAdjust="spacingAndGlyphs" textLength="146" x="492" y="262.1563">com.ibm.fhir.audit.cadf.model</text></a><!--MD5=[cee3ea566f70332f2441df1c0bab6a1c]
reverse link com.ibm.fhir.audit.cadf.model.CadfAttachment to com.ibm.fhir.audit.cadf.model.CadfAttachment.Writer--><path d="M197.6626,180.023 C170.8639,199.2247 145.1786,217.6287 126.8805,230.7396 " fill="none" id="com.ibm.fhir.audit.cadf.model.CadfAttachment&lt;-com.ibm.fhir.audit.cadf.model.CadfAttachment.Writer" style="stroke: #A80036; stroke-width: 1.0;"/><ellipse cx="203.5283" cy="175.8201" fill="#FFFFFF" rx="8" ry="8" style="stroke: #A80036; stroke-width: 1.0;"/><line style="stroke: #A80036; stroke-width: 1.0;" x1="197.0253" x2="210.0313" y1="180.4796" y2="171.1606"/><line style="stroke: #A80036; stroke-width: 1.0;" x1="198.8688" x2="208.1878" y1="169.3171" y2="182.3231"/><!--MD5=[3c8ba7a9cdf1400faea90b1b6b67bf97]
reverse link com.ibm.fhir.audit.cadf.model.CadfAttachment to com.ibm.fhir.audit.cadf.model.CadfAttachment.Parser--><path d="M324,186.2169 C324,203.1421 324,219.0461 324,230.7396 " fill="none" id="com.ibm.fhir.audit.cadf.model.CadfAttachment&lt;-com.ibm.fhir.audit.cadf.model.CadfAttachment.Parser" style="stroke: #A80036; stroke-width: 1.0;"/><ellipse cx="324.0001" cy="179.1606" fill="#FFFFFF" rx="8" ry="8" style="stroke: #A80036; stroke-width: 1.0;"/><line style="stroke: #A80036; stroke-width: 1.0;" x1="324.0002" x2="324" y1="187.1606" y2="171.1606"/><line style="stroke: #A80036; stroke-width: 1.0;" x1="316.0001" x2="332.0001" y1="179.1607" y2="179.1605"/><!--MD5=[9356020c417f25b6a39e1edb58dacfd3]
reverse link com.ibm.fhir.audit.cadf.model.CadfAttachment to com.ibm.fhir.audit.cadf.model.CadfAttachment.Builder--><path d="M452.5934,180.023 C479.8707,199.2247 506.0147,217.6287 524.6395,230.7396 " fill="none" id="com.ibm.fhir.audit.cadf.model.CadfAttachment&lt;-com.ibm.fhir.audit.cadf.model.CadfAttachment.Builder" style="stroke: #A80036; stroke-width: 1.0;"/><ellipse cx="446.5455" cy="175.7656" fill="#FFFFFF" rx="8" ry="8" style="stroke: #A80036; stroke-width: 1.0;"/><line style="stroke: #A80036; stroke-width: 1.0;" x1="453.0872" x2="440.0038" y1="180.3706" y2="171.1606"/><line style="stroke: #A80036; stroke-width: 1.0;" x1="441.9405" x2="451.1505" y1="182.3073" y2="169.2239"/><text fill="#888888" font-family="sans-serif" font-size="10" lengthAdjust="spacingAndGlyphs" textLength="182" x="243" y="288.668">UMLDoclet 2.0.7, PlantUML 1.2019.12</text><!--MD5=[4f9c707639ac37b5a6a3992fec1dd0b3]
@startuml
    set namespaceSeparator none
    hide empty fields
    hide empty methods

    class "<size:14>CadfAttachment\n<size:10>com.ibm.fhir.audit.cadf.model" as com.ibm.fhir.audit.cadf.model.CadfAttachment [[CadfAttachment.html]] {
        +CadfAttachment(String, Object, String)
        +CadfAttachment(String, Object)
        +getContentType(): String
        +setContentType(String): void
        +getContent(): Object
        +setContent(Object): void
        +getName(): String
        +setName(String): void
        {static} +builder(): Builder
    }
    class "<size:14>CadfAttachment.Writer\n<size:10>com.ibm.fhir.audit.cadf.model" as com.ibm.fhir.audit.cadf.model.CadfAttachment.Writer [[CadfAttachment.Writer.html]]
    class "<size:14>CadfAttachment.Parser\n<size:10>com.ibm.fhir.audit.cadf.model" as com.ibm.fhir.audit.cadf.model.CadfAttachment.Parser [[CadfAttachment.Parser.html]]
    class "<size:14>CadfAttachment.Builder\n<size:10>com.ibm.fhir.audit.cadf.model" as com.ibm.fhir.audit.cadf.model.CadfAttachment.Builder [[CadfAttachment.Builder.html]]

    com.ibm.fhir.audit.cadf.model.CadfAttachment +- - com.ibm.fhir.audit.cadf.model.CadfAttachment.Writer
    com.ibm.fhir.audit.cadf.model.CadfAttachment +- - com.ibm.fhir.audit.cadf.model.CadfAttachment.Parser
    com.ibm.fhir.audit.cadf.model.CadfAttachment +- - com.ibm.fhir.audit.cadf.model.CadfAttachment.Builder

    center footer UMLDoclet 2.0.7, PlantUML 1.2019.12
@enduml

PlantUML version 1.2019.12(Sun Nov 03 05:24:54 EST 2019)
(APACHE source distribution)
Java Runtime: OpenJDK Runtime Environment
JVM: OpenJDK 64-Bit Server VM
Java Version: 11.0.4+11
Operating System: Mac OS X
Default Encoding: UTF-8
Language: en
Country: US
--></g></svg>