<?xml version="1.0" encoding="UTF-8" standalone="no"?><svg xmlns="http://www.w3.org/2000/svg" xmlns:xlink="http://www.w3.org/1999/xlink" contentScriptType="application/ecmascript" contentStyleType="text/css" height="405px" preserveAspectRatio="none" style="width:569px;height:405px;" version="1.1" viewBox="0 0 569 405" width="569px" zoomAndPan="magnify"><defs><filter height="300%" id="f1l66vr0kkpwj2" width="300%" x="-1" y="-1"><feGaussianBlur result="blurOut" stdDeviation="2.0"/><feColorMatrix in="blurOut" result="blurOut2" type="matrix" values="0 0 0 0 0 0 0 0 0 0 0 0 0 0 0 0 0 0 .4 0"/><feOffset dx="4.0" dy="4.0" in="blurOut2" result="blurOut3"/><feBlend in="SourceGraphic" in2="blurOut3" mode="normal"/></filter></defs><g><!--MD5=[9e594d1ec219d249b09dd5d40537f627]
class com.ibm.fhir.model.type.code.ActionPrecheckBehavior--><a href="ActionPrecheckBehavior.html" target="_top" title="ActionPrecheckBehavior.html" xlink:actuate="onRequest" xlink:href="ActionPrecheckBehavior.html" xlink:show="new" xlink:title="ActionPrecheckBehavior.html" xlink:type="simple"><rect fill="#FEFECE" filter="url(#f1l66vr0kkpwj2)" height="169.1797" id="com.ibm.fhir.model.type.code.ActionPrecheckBehavior" style="stroke: #A80036; stroke-width: 1.5;" width="238" x="160" y="106"/><ellipse cx="192.1" cy="124.9688" fill="#ADD1B2" rx="11" ry="11" style="stroke: #A80036; stroke-width: 1.0;"/><path d="M195.0688,130.6094 Q194.4906,130.9063 193.85,131.0469 Q193.2094,131.2031 192.5063,131.2031 Q190.0063,131.2031 188.6781,129.5625 Q187.3656,127.9063 187.3656,124.7813 Q187.3656,121.6563 188.6781,120 Q190.0063,118.3438 192.5063,118.3438 Q193.2094,118.3438 193.85,118.5 Q194.5063,118.6563 195.0688,118.9531 L195.0688,121.6719 Q194.4438,121.0938 193.85,120.8281 Q193.2563,120.5469 192.6313,120.5469 Q191.2875,120.5469 190.6,121.625 Q189.9125,122.6875 189.9125,124.7813 Q189.9125,126.875 190.6,127.9531 Q191.2875,129.0156 192.6313,129.0156 Q193.2563,129.0156 193.85,128.75 Q194.4438,128.4688 195.0688,127.8906 L195.0688,130.6094 Z "/><text fill="#000000" font-family="sans-serif" font-size="14" lengthAdjust="spacingAndGlyphs" textLength="168" x="209.9" y="123.9951">ActionPrecheckBehavior</text><text fill="#000000" font-family="sans-serif" font-size="10" lengthAdjust="spacingAndGlyphs" textLength="145" x="221.4" y="136.5791">com.ibm.fhir.model.type.code</text><line style="stroke: #A80036; stroke-width: 1.5;" x1="161" x2="397" y1="143.9375" y2="143.9375"/><ellipse cx="171" cy="154.9375" fill="none" rx="3" ry="3" style="stroke: #038048; stroke-width: 1.0;"/><text fill="#000000" font-family="sans-serif" font-size="11" lengthAdjust="spacingAndGlyphs" text-decoration="underline" textLength="165" x="180" y="158.1479">YES: ActionPrecheckBehavior</text><ellipse cx="171" cy="167.7422" fill="none" rx="3" ry="3" style="stroke: #038048; stroke-width: 1.0;"/><text fill="#000000" font-family="sans-serif" font-size="11" lengthAdjust="spacingAndGlyphs" text-decoration="underline" textLength="160" x="180" y="170.9526">NO: ActionPrecheckBehavior</text><line style="stroke: #A80036; stroke-width: 1.5;" x1="161" x2="397" y1="177.5469" y2="177.5469"/><ellipse cx="171" cy="188.5469" fill="#84BE84" rx="3" ry="3" style="stroke: #038048; stroke-width: 1.0;"/><text fill="#000000" font-family="sans-serif" font-size="11" lengthAdjust="spacingAndGlyphs" textLength="212" x="180" y="191.7573">getValueAsEnumConstant(): ValueSet</text><ellipse cx="171" cy="201.3516" fill="#84BE84" rx="3" ry="3" style="stroke: #038048; stroke-width: 1.0;"/><text fill="#000000" font-family="sans-serif" font-size="11" lengthAdjust="spacingAndGlyphs" text-decoration="underline" textLength="212" x="180" y="204.562">of(ValueSet): ActionPrecheckBehavior</text><ellipse cx="171" cy="214.1563" fill="#84BE84" rx="3" ry="3" style="stroke: #038048; stroke-width: 1.0;"/><text fill="#000000" font-family="sans-serif" font-size="11" lengthAdjust="spacingAndGlyphs" text-decoration="underline" textLength="196" x="180" y="217.3667">of(String): ActionPrecheckBehavior</text><ellipse cx="171" cy="226.9609" fill="#84BE84" rx="3" ry="3" style="stroke: #038048; stroke-width: 1.0;"/><text fill="#000000" font-family="sans-serif" font-size="11" lengthAdjust="spacingAndGlyphs" text-decoration="underline" textLength="117" x="180" y="230.1714">string(String): String</text><ellipse cx="171" cy="239.7656" fill="#84BE84" rx="3" ry="3" style="stroke: #038048; stroke-width: 1.0;"/><text fill="#000000" font-family="sans-serif" font-size="11" lengthAdjust="spacingAndGlyphs" text-decoration="underline" textLength="106" x="180" y="242.9761">code(String): Code</text><ellipse cx="171" cy="252.5703" fill="#84BE84" rx="3" ry="3" style="stroke: #038048; stroke-width: 1.0;"/><text fill="#000000" font-family="sans-serif" font-size="11" lengthAdjust="spacingAndGlyphs" textLength="107" x="180" y="255.7808">toBuilder(): Builder</text><ellipse cx="171" cy="265.375" fill="#84BE84" rx="3" ry="3" style="stroke: #038048; stroke-width: 1.0;"/><text fill="#000000" font-family="sans-serif" font-size="11" lengthAdjust="spacingAndGlyphs" text-decoration="underline" textLength="95" x="180" y="268.5854">builder(): Builder</text></a><!--MD5=[36277681a3d78580011ae89cb2088b30]
class com.ibm.fhir.model.type.Code--><a href="../Code.html" target="_top" title="../Code.html" xlink:actuate="onRequest" xlink:href="../Code.html" xlink:show="new" xlink:title="../Code.html" xlink:type="simple"><rect fill="#FEFECE" filter="url(#f1l66vr0kkpwj2)" height="37.9375" id="com.ibm.fhir.model.type.Code" style="stroke: #A80036; stroke-width: 1.5;" width="151" x="203.5" y="8"/><ellipse cx="218.5" cy="26.9688" fill="#ADD1B2" rx="11" ry="11" style="stroke: #A80036; stroke-width: 1.0;"/><path d="M221.4688,32.6094 Q220.8906,32.9063 220.25,33.0469 Q219.6094,33.2031 218.9063,33.2031 Q216.4063,33.2031 215.0781,31.5625 Q213.7656,29.9063 213.7656,26.7813 Q213.7656,23.6563 215.0781,22 Q216.4063,20.3438 218.9063,20.3438 Q219.6094,20.3438 220.25,20.5 Q220.9063,20.6563 221.4688,20.9531 L221.4688,23.6719 Q220.8438,23.0938 220.25,22.8281 Q219.6563,22.5469 219.0313,22.5469 Q217.6875,22.5469 217,23.625 Q216.3125,24.6875 216.3125,26.7813 Q216.3125,28.875 217,29.9531 Q217.6875,31.0156 219.0313,31.0156 Q219.6563,31.0156 220.25,30.75 Q220.8438,30.4688 221.4688,29.8906 L221.4688,32.6094 Z "/><text fill="#000000" font-family="sans-serif" font-size="14" lengthAdjust="spacingAndGlyphs" textLength="37" x="273.5" y="25.9951">Code</text><text fill="#000000" font-family="sans-serif" font-size="10" lengthAdjust="spacingAndGlyphs" textLength="119" x="232.5" y="38.5791">com.ibm.fhir.model.type</text></a><!--MD5=[ed5121ee3561337bf0490e63166504bf]
class com.ibm.fhir.model.type.code.ActionPrecheckBehavior.Builder--><a href="ActionPrecheckBehavior.Builder.html" target="_top" title="ActionPrecheckBehavior.Builder.html" xlink:actuate="onRequest" xlink:href="ActionPrecheckBehavior.Builder.html" xlink:show="new" xlink:title="ActionPrecheckBehavior.Builder.html" xlink:type="simple"><rect fill="#FEFECE" filter="url(#f1l66vr0kkpwj2)" height="37.9375" id="com.ibm.fhir.model.type.code.ActionPrecheckBehavior.Builder" style="stroke: #A80036; stroke-width: 1.5;" width="252" x="6" y="335"/><ellipse cx="21" cy="353.9688" fill="#ADD1B2" rx="11" ry="11" style="stroke: #A80036; stroke-width: 1.0;"/><path d="M23.9688,359.6094 Q23.3906,359.9063 22.75,360.0469 Q22.1094,360.2031 21.4063,360.2031 Q18.9063,360.2031 17.5781,358.5625 Q16.2656,356.9063 16.2656,353.7813 Q16.2656,350.6563 17.5781,349 Q18.9063,347.3438 21.4063,347.3438 Q22.1094,347.3438 22.75,347.5 Q23.4063,347.6563 23.9688,347.9531 L23.9688,350.6719 Q23.3438,350.0938 22.75,349.8281 Q22.1563,349.5469 21.5313,349.5469 Q20.1875,349.5469 19.5,350.625 Q18.8125,351.6875 18.8125,353.7813 Q18.8125,355.875 19.5,356.9531 Q20.1875,358.0156 21.5313,358.0156 Q22.1563,358.0156 22.75,357.75 Q23.3438,357.4688 23.9688,356.8906 L23.9688,359.6094 Z "/><text fill="#000000" font-family="sans-serif" font-size="14" lengthAdjust="spacingAndGlyphs" textLength="220" x="35" y="352.9951">ActionPrecheckBehavior.Builder</text><text fill="#000000" font-family="sans-serif" font-size="10" lengthAdjust="spacingAndGlyphs" textLength="145" x="72.5" y="365.5791">com.ibm.fhir.model.type.code</text></a><!--MD5=[ec1e03ce88df20d739dbc39374a66f35]
class com.ibm.fhir.model.type.code.ActionPrecheckBehavior.ValueSet--><a href="ActionPrecheckBehavior.ValueSet.html" target="_top" title="ActionPrecheckBehavior.ValueSet.html" xlink:actuate="onRequest" xlink:href="ActionPrecheckBehavior.ValueSet.html" xlink:show="new" xlink:title="ActionPrecheckBehavior.ValueSet.html" xlink:type="simple"><rect fill="#FEFECE" filter="url(#f1l66vr0kkpwj2)" height="37.9375" id="com.ibm.fhir.model.type.code.ActionPrecheckBehavior.ValueSet" style="stroke: #A80036; stroke-width: 1.5;" width="265" x="293.5" y="335"/><ellipse cx="308.5" cy="353.9688" fill="#EB937F" rx="11" ry="11" style="stroke: #A80036; stroke-width: 1.0;"/><path d="M312.6094,359.9688 L304.8906,359.9688 L304.8906,347.5781 L312.6094,347.5781 L312.6094,349.7344 L307.3438,349.7344 L307.3438,352.4063 L312.1094,352.4063 L312.1094,354.5625 L307.3438,354.5625 L307.3438,357.8125 L312.6094,357.8125 L312.6094,359.9688 Z "/><text fill="#000000" font-family="sans-serif" font-size="14" lengthAdjust="spacingAndGlyphs" textLength="233" x="322.5" y="352.9951">ActionPrecheckBehavior.ValueSet</text><text fill="#000000" font-family="sans-serif" font-size="10" lengthAdjust="spacingAndGlyphs" textLength="145" x="366.5" y="365.5791">com.ibm.fhir.model.type.code</text></a><!--MD5=[469635d102b46ce6ae6b70b62d9c75a6]
reverse link com.ibm.fhir.model.type.Code to com.ibm.fhir.model.type.code.ActionPrecheckBehavior--><path d="M279,66.1355 C279,78.1849 279,91.9487 279,105.8251 " fill="none" id="com.ibm.fhir.model.type.Code&lt;-com.ibm.fhir.model.type.code.ActionPrecheckBehavior" style="stroke: #A80036; stroke-width: 1.0;"/><polygon fill="none" points="272.0001,66.0756,279,46.0755,286.0001,66.0755,272.0001,66.0756" style="stroke: #A80036; stroke-width: 1.0;"/><!--MD5=[756300a6f6783f7231f2249f58e7867e]
reverse link com.ibm.fhir.model.type.code.ActionPrecheckBehavior to com.ibm.fhir.model.type.code.ActionPrecheckBehavior.Builder--><path d="M192.8004,286.3751 C176.2287,304.8068 160.5453,322.2506 149.2588,334.8039 " fill="none" id="com.ibm.fhir.model.type.code.ActionPrecheckBehavior&lt;-com.ibm.fhir.model.type.code.ActionPrecheckBehavior.Builder" style="stroke: #A80036; stroke-width: 1.0;"/><ellipse cx="197.5678" cy="281.0725" fill="#FFFFFF" rx="8" ry="8" style="stroke: #A80036; stroke-width: 1.0;"/><line style="stroke: #A80036; stroke-width: 1.0;" x1="192.219" x2="202.9165" y1="287.0216" y2="275.1235"/><line style="stroke: #A80036; stroke-width: 1.0;" x1="191.6187" x2="203.5168" y1="275.7238" y2="286.4213"/><!--MD5=[55ea209c8419374d923248abf770a530]
reverse link com.ibm.fhir.model.type.code.ActionPrecheckBehavior to com.ibm.fhir.model.type.code.ActionPrecheckBehavior.ValueSet--><path d="M365.1996,286.3751 C381.7713,304.8068 397.4547,322.2506 408.7412,334.8039 " fill="none" id="com.ibm.fhir.model.type.code.ActionPrecheckBehavior&lt;-com.ibm.fhir.model.type.code.ActionPrecheckBehavior.ValueSet" style="stroke: #A80036; stroke-width: 1.0;"/><ellipse cx="360.4322" cy="281.0725" fill="#FFFFFF" rx="8" ry="8" style="stroke: #A80036; stroke-width: 1.0;"/><line style="stroke: #A80036; stroke-width: 1.0;" x1="365.781" x2="355.0835" y1="287.0216" y2="275.1235"/><line style="stroke: #A80036; stroke-width: 1.0;" x1="354.4832" x2="366.3813" y1="286.4213" y2="275.7238"/><text fill="#888888" font-family="sans-serif" font-size="10" lengthAdjust="spacingAndGlyphs" textLength="186" x="195.5" y="392.2822">UMLDoclet 2.0.7, PlantUML 1.2019.12</text><!--MD5=[ebdb4f5b28403f2e79f72d826c38e4a8]
@startuml
    set namespaceSeparator none
    hide empty fields
    hide empty methods

    class "<size:14>ActionPrecheckBehavior\n<size:10>com.ibm.fhir.model.type.code" as com.ibm.fhir.model.type.code.ActionPrecheckBehavior [[ActionPrecheckBehavior.html]] {
        {static} +YES: ActionPrecheckBehavior
        {static} +NO: ActionPrecheckBehavior
        +getValueAsEnumConstant(): ValueSet
        {static} +of(ValueSet): ActionPrecheckBehavior
        {static} +of(String): ActionPrecheckBehavior
        {static} +string(String): String
        {static} +code(String): Code
        +toBuilder(): Builder
        {static} +builder(): Builder
    }

    class "<size:14>Code\n<size:10>com.ibm.fhir.model.type" as com.ibm.fhir.model.type.Code [[../Code.html]]
    class "<size:14>ActionPrecheckBehavior.Builder\n<size:10>com.ibm.fhir.model.type.code" as com.ibm.fhir.model.type.code.ActionPrecheckBehavior.Builder [[ActionPrecheckBehavior.Builder.html]]
    enum "<size:14>ActionPrecheckBehavior.ValueSet\n<size:10>com.ibm.fhir.model.type.code" as com.ibm.fhir.model.type.code.ActionPrecheckBehavior.ValueSet [[ActionPrecheckBehavior.ValueSet.html]]

    com.ibm.fhir.model.type.Code <|- - com.ibm.fhir.model.type.code.ActionPrecheckBehavior
    com.ibm.fhir.model.type.code.ActionPrecheckBehavior +- - com.ibm.fhir.model.type.code.ActionPrecheckBehavior.Builder
    com.ibm.fhir.model.type.code.ActionPrecheckBehavior +- - com.ibm.fhir.model.type.code.ActionPrecheckBehavior.ValueSet

    center footer UMLDoclet 2.0.7, PlantUML 1.2019.12
@enduml

PlantUML version 1.2019.12(Sun Nov 03 10:24:54 UTC 2019)
(APACHE source distribution)
Java Runtime: OpenJDK Runtime Environment
JVM: OpenJDK 64-Bit Server VM
Java Version: 11.0.9.1+1
Operating System: Linux
Default Encoding: UTF-8
Language: en
Country: null
--></g></svg>