<?xml version="1.0" encoding="UTF-8" standalone="no"?><svg xmlns="http://www.w3.org/2000/svg" xmlns:xlink="http://www.w3.org/1999/xlink" contentScriptType="application/ecmascript" contentStyleType="text/css" height="444px" preserveAspectRatio="none" style="width:657px;height:444px;" version="1.1" viewBox="0 0 657 444" width="657px" zoomAndPan="magnify"><defs><filter height="300%" id="f1adi8tjr0c419" width="300%" x="-1" y="-1"><feGaussianBlur result="blurOut" stdDeviation="2.0"/><feColorMatrix in="blurOut" result="blurOut2" type="matrix" values="0 0 0 0 0 0 0 0 0 0 0 0 0 0 0 0 0 0 .4 0"/><feOffset dx="4.0" dy="4.0" in="blurOut2" result="blurOut3"/><feBlend in="SourceGraphic" in2="blurOut3" mode="normal"/></filter></defs><g><!--MD5=[1ce332db2d7ad8f48405e8228a1d9dde]
class com.ibm.fhir.model.type.code.QuestionnaireResponseStatus--><a href="QuestionnaireResponseStatus.html" target="_top" title="QuestionnaireResponseStatus.html" xlink:actuate="onRequest" xlink:href="QuestionnaireResponseStatus.html" xlink:show="new" xlink:title="QuestionnaireResponseStatus.html" xlink:type="simple"><rect fill="#FEFECE" filter="url(#f1adi8tjr0c419)" height="207.5938" id="com.ibm.fhir.model.type.code.QuestionnaireResponseStatus" style="stroke: #A80036; stroke-width: 1.5;" width="318" x="164" y="106"/><ellipse cx="212.75" cy="124.9688" fill="#ADD1B2" rx="11" ry="11" style="stroke: #A80036; stroke-width: 1.0;"/><path d="M215.7188,130.6094 Q215.1406,130.9063 214.5,131.0469 Q213.8594,131.2031 213.1563,131.2031 Q210.6563,131.2031 209.3281,129.5625 Q208.0156,127.9063 208.0156,124.7813 Q208.0156,121.6563 209.3281,120 Q210.6563,118.3438 213.1563,118.3438 Q213.8594,118.3438 214.5,118.5 Q215.1563,118.6563 215.7188,118.9531 L215.7188,121.6719 Q215.0938,121.0938 214.5,120.8281 Q213.9063,120.5469 213.2813,120.5469 Q211.9375,120.5469 211.25,121.625 Q210.5625,122.6875 210.5625,124.7813 Q210.5625,126.875 211.25,127.9531 Q211.9375,129.0156 213.2813,129.0156 Q213.9063,129.0156 214.5,128.75 Q215.0938,128.4688 215.7188,127.8906 L215.7188,130.6094 Z "/><text fill="#000000" font-family="sans-serif" font-size="14" lengthAdjust="spacingAndGlyphs" textLength="212" x="233.25" y="123.9951">QuestionnaireResponseStatus</text><text fill="#000000" font-family="sans-serif" font-size="10" lengthAdjust="spacingAndGlyphs" textLength="145" x="266.75" y="136.5791">com.ibm.fhir.model.type.code</text><line style="stroke: #A80036; stroke-width: 1.5;" x1="165" x2="481" y1="143.9375" y2="143.9375"/><ellipse cx="175" cy="154.9375" fill="none" rx="3" ry="3" style="stroke: #038048; stroke-width: 1.0;"/><text fill="#000000" font-family="sans-serif" font-size="11" lengthAdjust="spacingAndGlyphs" text-decoration="underline" textLength="260" x="184" y="158.1479">IN_PROGRESS: QuestionnaireResponseStatus</text><ellipse cx="175" cy="167.7422" fill="none" rx="3" ry="3" style="stroke: #038048; stroke-width: 1.0;"/><text fill="#000000" font-family="sans-serif" font-size="11" lengthAdjust="spacingAndGlyphs" text-decoration="underline" textLength="249" x="184" y="170.9526">COMPLETED: QuestionnaireResponseStatus</text><ellipse cx="175" cy="180.5469" fill="none" rx="3" ry="3" style="stroke: #038048; stroke-width: 1.0;"/><text fill="#000000" font-family="sans-serif" font-size="11" lengthAdjust="spacingAndGlyphs" text-decoration="underline" textLength="235" x="184" y="183.7573">AMENDED: QuestionnaireResponseStatus</text><ellipse cx="175" cy="193.3516" fill="none" rx="3" ry="3" style="stroke: #038048; stroke-width: 1.0;"/><text fill="#000000" font-family="sans-serif" font-size="11" lengthAdjust="spacingAndGlyphs" text-decoration="underline" textLength="292" x="184" y="196.562">ENTERED_IN_ERROR: QuestionnaireResponseStatus</text><ellipse cx="175" cy="206.1563" fill="none" rx="3" ry="3" style="stroke: #038048; stroke-width: 1.0;"/><text fill="#000000" font-family="sans-serif" font-size="11" lengthAdjust="spacingAndGlyphs" text-decoration="underline" textLength="234" x="184" y="209.3667">STOPPED: QuestionnaireResponseStatus</text><line style="stroke: #A80036; stroke-width: 1.5;" x1="165" x2="481" y1="215.9609" y2="215.9609"/><ellipse cx="175" cy="226.9609" fill="#84BE84" rx="3" ry="3" style="stroke: #038048; stroke-width: 1.0;"/><text fill="#000000" font-family="sans-serif" font-size="11" lengthAdjust="spacingAndGlyphs" textLength="212" x="184" y="230.1714">getValueAsEnumConstant(): ValueSet</text><ellipse cx="175" cy="239.7656" fill="#84BE84" rx="3" ry="3" style="stroke: #038048; stroke-width: 1.0;"/><text fill="#000000" font-family="sans-serif" font-size="11" lengthAdjust="spacingAndGlyphs" text-decoration="underline" textLength="250" x="184" y="242.9761">of(ValueSet): QuestionnaireResponseStatus</text><ellipse cx="175" cy="252.5703" fill="#84BE84" rx="3" ry="3" style="stroke: #038048; stroke-width: 1.0;"/><text fill="#000000" font-family="sans-serif" font-size="11" lengthAdjust="spacingAndGlyphs" text-decoration="underline" textLength="234" x="184" y="255.7808">of(String): QuestionnaireResponseStatus</text><ellipse cx="175" cy="265.375" fill="#84BE84" rx="3" ry="3" style="stroke: #038048; stroke-width: 1.0;"/><text fill="#000000" font-family="sans-serif" font-size="11" lengthAdjust="spacingAndGlyphs" text-decoration="underline" textLength="117" x="184" y="268.5854">string(String): String</text><ellipse cx="175" cy="278.1797" fill="#84BE84" rx="3" ry="3" style="stroke: #038048; stroke-width: 1.0;"/><text fill="#000000" font-family="sans-serif" font-size="11" lengthAdjust="spacingAndGlyphs" text-decoration="underline" textLength="106" x="184" y="281.3901">code(String): Code</text><ellipse cx="175" cy="290.9844" fill="#84BE84" rx="3" ry="3" style="stroke: #038048; stroke-width: 1.0;"/><text fill="#000000" font-family="sans-serif" font-size="11" lengthAdjust="spacingAndGlyphs" textLength="107" x="184" y="294.1948">toBuilder(): Builder</text><ellipse cx="175" cy="303.7891" fill="#84BE84" rx="3" ry="3" style="stroke: #038048; stroke-width: 1.0;"/><text fill="#000000" font-family="sans-serif" font-size="11" lengthAdjust="spacingAndGlyphs" text-decoration="underline" textLength="95" x="184" y="306.9995">builder(): Builder</text></a><!--MD5=[36277681a3d78580011ae89cb2088b30]
class com.ibm.fhir.model.type.Code--><a href="../Code.html" target="_top" title="../Code.html" xlink:actuate="onRequest" xlink:href="../Code.html" xlink:show="new" xlink:title="../Code.html" xlink:type="simple"><rect fill="#FEFECE" filter="url(#f1adi8tjr0c419)" height="37.9375" id="com.ibm.fhir.model.type.Code" style="stroke: #A80036; stroke-width: 1.5;" width="151" x="247.5" y="8"/><ellipse cx="262.5" cy="26.9688" fill="#ADD1B2" rx="11" ry="11" style="stroke: #A80036; stroke-width: 1.0;"/><path d="M265.4688,32.6094 Q264.8906,32.9063 264.25,33.0469 Q263.6094,33.2031 262.9063,33.2031 Q260.4063,33.2031 259.0781,31.5625 Q257.7656,29.9063 257.7656,26.7813 Q257.7656,23.6563 259.0781,22 Q260.4063,20.3438 262.9063,20.3438 Q263.6094,20.3438 264.25,20.5 Q264.9063,20.6563 265.4688,20.9531 L265.4688,23.6719 Q264.8438,23.0938 264.25,22.8281 Q263.6563,22.5469 263.0313,22.5469 Q261.6875,22.5469 261,23.625 Q260.3125,24.6875 260.3125,26.7813 Q260.3125,28.875 261,29.9531 Q261.6875,31.0156 263.0313,31.0156 Q263.6563,31.0156 264.25,30.75 Q264.8438,30.4688 265.4688,29.8906 L265.4688,32.6094 Z "/><text fill="#000000" font-family="sans-serif" font-size="14" lengthAdjust="spacingAndGlyphs" textLength="37" x="317.5" y="25.9951">Code</text><text fill="#000000" font-family="sans-serif" font-size="10" lengthAdjust="spacingAndGlyphs" textLength="119" x="276.5" y="38.5791">com.ibm.fhir.model.type</text></a><!--MD5=[e19e84cb132370c6001f08345105c402]
class com.ibm.fhir.model.type.code.QuestionnaireResponseStatus.Builder--><a href="QuestionnaireResponseStatus.Builder.html" target="_top" title="QuestionnaireResponseStatus.Builder.html" xlink:actuate="onRequest" xlink:href="QuestionnaireResponseStatus.Builder.html" xlink:show="new" xlink:title="QuestionnaireResponseStatus.Builder.html" xlink:type="simple"><rect fill="#FEFECE" filter="url(#f1adi8tjr0c419)" height="37.9375" id="com.ibm.fhir.model.type.code.QuestionnaireResponseStatus.Builder" style="stroke: #A80036; stroke-width: 1.5;" width="296" x="6" y="374"/><ellipse cx="21" cy="392.9688" fill="#ADD1B2" rx="11" ry="11" style="stroke: #A80036; stroke-width: 1.0;"/><path d="M23.9688,398.6094 Q23.3906,398.9063 22.75,399.0469 Q22.1094,399.2031 21.4063,399.2031 Q18.9063,399.2031 17.5781,397.5625 Q16.2656,395.9063 16.2656,392.7813 Q16.2656,389.6563 17.5781,388 Q18.9063,386.3438 21.4063,386.3438 Q22.1094,386.3438 22.75,386.5 Q23.4063,386.6563 23.9688,386.9531 L23.9688,389.6719 Q23.3438,389.0938 22.75,388.8281 Q22.1563,388.5469 21.5313,388.5469 Q20.1875,388.5469 19.5,389.625 Q18.8125,390.6875 18.8125,392.7813 Q18.8125,394.875 19.5,395.9531 Q20.1875,397.0156 21.5313,397.0156 Q22.1563,397.0156 22.75,396.75 Q23.3438,396.4688 23.9688,395.8906 L23.9688,398.6094 Z "/><text fill="#000000" font-family="sans-serif" font-size="14" lengthAdjust="spacingAndGlyphs" textLength="264" x="35" y="391.9951">QuestionnaireResponseStatus.Builder</text><text fill="#000000" font-family="sans-serif" font-size="10" lengthAdjust="spacingAndGlyphs" textLength="145" x="94.5" y="404.5791">com.ibm.fhir.model.type.code</text></a><!--MD5=[2e889d0f6dec7a7331f8ed0b41593c81]
class com.ibm.fhir.model.type.code.QuestionnaireResponseStatus.ValueSet--><a href="QuestionnaireResponseStatus.ValueSet.html" target="_top" title="QuestionnaireResponseStatus.ValueSet.html" xlink:actuate="onRequest" xlink:href="QuestionnaireResponseStatus.ValueSet.html" xlink:show="new" xlink:title="QuestionnaireResponseStatus.ValueSet.html" xlink:type="simple"><rect fill="#FEFECE" filter="url(#f1adi8tjr0c419)" height="37.9375" id="com.ibm.fhir.model.type.code.QuestionnaireResponseStatus.ValueSet" style="stroke: #A80036; stroke-width: 1.5;" width="309" x="337.5" y="374"/><ellipse cx="352.5" cy="392.9688" fill="#EB937F" rx="11" ry="11" style="stroke: #A80036; stroke-width: 1.0;"/><path d="M356.6094,398.9688 L348.8906,398.9688 L348.8906,386.5781 L356.6094,386.5781 L356.6094,388.7344 L351.3438,388.7344 L351.3438,391.4063 L356.1094,391.4063 L356.1094,393.5625 L351.3438,393.5625 L351.3438,396.8125 L356.6094,396.8125 L356.6094,398.9688 Z "/><text fill="#000000" font-family="sans-serif" font-size="14" lengthAdjust="spacingAndGlyphs" textLength="277" x="366.5" y="391.9951">QuestionnaireResponseStatus.ValueSet</text><text fill="#000000" font-family="sans-serif" font-size="10" lengthAdjust="spacingAndGlyphs" textLength="145" x="432.5" y="404.5791">com.ibm.fhir.model.type.code</text></a><!--MD5=[d8e8eea3df21508fb550b1d46a942026]
reverse link com.ibm.fhir.model.type.Code to com.ibm.fhir.model.type.code.QuestionnaireResponseStatus--><path d="M323,66.5059 C323,78.3418 323,91.9152 323,105.8885 " fill="none" id="com.ibm.fhir.model.type.Code&lt;-com.ibm.fhir.model.type.code.QuestionnaireResponseStatus" style="stroke: #A80036; stroke-width: 1.0;"/><polygon fill="none" points="316.0001,66.2384,323,46.2383,330.0001,66.2383,316.0001,66.2384" style="stroke: #A80036; stroke-width: 1.0;"/><!--MD5=[185801022fb475977b697c46ed514ac0]
reverse link com.ibm.fhir.model.type.code.QuestionnaireResponseStatus to com.ibm.fhir.model.type.code.QuestionnaireResponseStatus.Builder--><path d="M216.5417,325.2774 C199.173,344.0849 183.1343,361.4522 171.648,373.8901 " fill="none" id="com.ibm.fhir.model.type.code.QuestionnaireResponseStatus&lt;-com.ibm.fhir.model.type.code.QuestionnaireResponseStatus.Builder" style="stroke: #A80036; stroke-width: 1.0;"/><ellipse cx="221.4698" cy="319.9408" fill="#FFFFFF" rx="8" ry="8" style="stroke: #A80036; stroke-width: 1.0;"/><line style="stroke: #A80036; stroke-width: 1.0;" x1="216.0421" x2="226.8974" y1="325.818" y2="314.0637"/><line style="stroke: #A80036; stroke-width: 1.0;" x1="215.5926" x2="227.3469" y1="314.5132" y2="325.3685"/><!--MD5=[18de7cd1a04686fa36dedf1ce01e344d]
reverse link com.ibm.fhir.model.type.code.QuestionnaireResponseStatus to com.ibm.fhir.model.type.code.QuestionnaireResponseStatus.ValueSet--><path d="M429.4583,325.2774 C446.827,344.0849 462.8657,361.4522 474.352,373.8901 " fill="none" id="com.ibm.fhir.model.type.code.QuestionnaireResponseStatus&lt;-com.ibm.fhir.model.type.code.QuestionnaireResponseStatus.ValueSet" style="stroke: #A80036; stroke-width: 1.0;"/><ellipse cx="424.5302" cy="319.9408" fill="#FFFFFF" rx="8" ry="8" style="stroke: #A80036; stroke-width: 1.0;"/><line style="stroke: #A80036; stroke-width: 1.0;" x1="429.9579" x2="419.1026" y1="325.818" y2="314.0637"/><line style="stroke: #A80036; stroke-width: 1.0;" x1="418.6531" x2="430.4074" y1="325.3685" y2="314.5132"/><text fill="#888888" font-family="sans-serif" font-size="10" lengthAdjust="spacingAndGlyphs" textLength="186" x="239.5" y="431.2822">UMLDoclet 2.0.7, PlantUML 1.2019.12</text><!--MD5=[1f9fb7987b5e475343992e5691e6bc9b]
@startuml
    set namespaceSeparator none
    hide empty fields
    hide empty methods

    class "<size:14>QuestionnaireResponseStatus\n<size:10>com.ibm.fhir.model.type.code" as com.ibm.fhir.model.type.code.QuestionnaireResponseStatus [[QuestionnaireResponseStatus.html]] {
        {static} +IN_PROGRESS: QuestionnaireResponseStatus
        {static} +COMPLETED: QuestionnaireResponseStatus
        {static} +AMENDED: QuestionnaireResponseStatus
        {static} +ENTERED_IN_ERROR: QuestionnaireResponseStatus
        {static} +STOPPED: QuestionnaireResponseStatus
        +getValueAsEnumConstant(): ValueSet
        {static} +of(ValueSet): QuestionnaireResponseStatus
        {static} +of(String): QuestionnaireResponseStatus
        {static} +string(String): String
        {static} +code(String): Code
        +toBuilder(): Builder
        {static} +builder(): Builder
    }

    class "<size:14>Code\n<size:10>com.ibm.fhir.model.type" as com.ibm.fhir.model.type.Code [[../Code.html]]
    class "<size:14>QuestionnaireResponseStatus.Builder\n<size:10>com.ibm.fhir.model.type.code" as com.ibm.fhir.model.type.code.QuestionnaireResponseStatus.Builder [[QuestionnaireResponseStatus.Builder.html]]
    enum "<size:14>QuestionnaireResponseStatus.ValueSet\n<size:10>com.ibm.fhir.model.type.code" as com.ibm.fhir.model.type.code.QuestionnaireResponseStatus.ValueSet [[QuestionnaireResponseStatus.ValueSet.html]]

    com.ibm.fhir.model.type.Code <|- - com.ibm.fhir.model.type.code.QuestionnaireResponseStatus
    com.ibm.fhir.model.type.code.QuestionnaireResponseStatus +- - com.ibm.fhir.model.type.code.QuestionnaireResponseStatus.Builder
    com.ibm.fhir.model.type.code.QuestionnaireResponseStatus +- - com.ibm.fhir.model.type.code.QuestionnaireResponseStatus.ValueSet

    center footer UMLDoclet 2.0.7, PlantUML 1.2019.12
@enduml

PlantUML version 1.2019.12(Sun Nov 03 10:24:54 UTC 2019)
(APACHE source distribution)
Java Runtime: OpenJDK Runtime Environment
JVM: OpenJDK 64-Bit Server VM
Java Version: 11.0.9.1+1
Operating System: Linux
Default Encoding: UTF-8
Language: en
Country: null
--></g></svg>