<?xml version="1.0" encoding="UTF-8" standalone="no"?><svg xmlns="http://www.w3.org/2000/svg" xmlns:xlink="http://www.w3.org/1999/xlink" contentScriptType="application/ecmascript" contentStyleType="text/css" height="297px" preserveAspectRatio="none" style="width:203px;height:297px;" version="1.1" viewBox="0 0 203 297" width="203px" zoomAndPan="magnify"><defs><filter height="300%" id="f1p315zo5u0jbm" width="300%" x="-1" y="-1"><feGaussianBlur result="blurOut" stdDeviation="2.0"/><feColorMatrix in="blurOut" result="blurOut2" type="matrix" values="0 0 0 0 0 0 0 0 0 0 0 0 0 0 0 0 0 0 .4 0"/><feOffset dx="4.0" dy="4.0" in="blurOut2" result="blurOut3"/><feBlend in="SourceGraphic" in2="blurOut3" mode="normal"/></filter></defs><g><!--MD5=[7f019e8264d004fe19fdfd8ea35575e5]
class com.ibm.fhir.model.type.code.GroupType.ValueSet--><a href="GroupType.ValueSet.html" target="_top" title="GroupType.ValueSet.html" xlink:actuate="onRequest" xlink:href="GroupType.ValueSet.html" xlink:show="new" xlink:title="GroupType.ValueSet.html" xlink:type="simple"><rect fill="#FEFECE" filter="url(#f1p315zo5u0jbm)" height="157.9063" id="com.ibm.fhir.model.type.code.GroupType.ValueSet" style="stroke: #A80036; stroke-width: 1.5;" width="176" x="6" y="106"/><ellipse cx="21" cy="125.1328" fill="#EB937F" rx="11" ry="11" style="stroke: #A80036; stroke-width: 1.0;"/><path d="M24.6143,131.6328 L16.8945,131.6328 L16.8945,119.2397 L24.6143,119.2397 L24.6143,121.3979 L19.3433,121.3979 L19.3433,124.0708 L24.1162,124.0708 L24.1162,126.229 L19.3433,126.229 L19.3433,129.4746 L24.6143,129.4746 Z "/><text fill="#000000" font-family="sans-serif" font-size="14" lengthAdjust="spacingAndGlyphs" textLength="139" x="37.5" y="124.5352">GroupType.ValueSet</text><text fill="#000000" font-family="sans-serif" font-size="10" lengthAdjust="spacingAndGlyphs" textLength="144" x="35" y="137.1563">com.ibm.fhir.model.type.code</text><line style="stroke: #A80036; stroke-width: 1.5;" x1="7" x2="181" y1="144.2656" y2="144.2656"/><ellipse cx="17" cy="155.2656" fill="none" rx="3" ry="3" style="stroke: #038048; stroke-width: 1.0;"/><text fill="#000000" font-family="sans-serif" font-size="11" lengthAdjust="spacingAndGlyphs" text-decoration="underline" textLength="42" x="26" y="158.9004">PERSON</text><ellipse cx="17" cy="168.2207" fill="none" rx="3" ry="3" style="stroke: #038048; stroke-width: 1.0;"/><text fill="#000000" font-family="sans-serif" font-size="11" lengthAdjust="spacingAndGlyphs" text-decoration="underline" textLength="42" x="26" y="171.8555">ANIMAL</text><ellipse cx="17" cy="181.1758" fill="none" rx="3" ry="3" style="stroke: #038048; stroke-width: 1.0;"/><text fill="#000000" font-family="sans-serif" font-size="11" lengthAdjust="spacingAndGlyphs" text-decoration="underline" textLength="79" x="26" y="184.8105">PRACTITIONER</text><ellipse cx="17" cy="194.1309" fill="none" rx="3" ry="3" style="stroke: #038048; stroke-width: 1.0;"/><text fill="#000000" font-family="sans-serif" font-size="11" lengthAdjust="spacingAndGlyphs" text-decoration="underline" textLength="38" x="26" y="197.7656">DEVICE</text><ellipse cx="17" cy="207.0859" fill="none" rx="3" ry="3" style="stroke: #038048; stroke-width: 1.0;"/><text fill="#000000" font-family="sans-serif" font-size="11" lengthAdjust="spacingAndGlyphs" text-decoration="underline" textLength="69" x="26" y="210.7207">MEDICATION</text><ellipse cx="17" cy="220.041" fill="none" rx="3" ry="3" style="stroke: #038048; stroke-width: 1.0;"/><text fill="#000000" font-family="sans-serif" font-size="11" lengthAdjust="spacingAndGlyphs" text-decoration="underline" textLength="63" x="26" y="223.6758">SUBSTANCE</text><line style="stroke: #A80036; stroke-width: 1.5;" x1="7" x2="181" y1="229.9961" y2="229.9961"/><ellipse cx="17" cy="240.9961" fill="#84BE84" rx="3" ry="3" style="stroke: #038048; stroke-width: 1.0;"/><text fill="#000000" font-family="sans-serif" font-size="11" lengthAdjust="spacingAndGlyphs" textLength="74" x="26" y="244.6309">value(): String</text><ellipse cx="17" cy="253.9512" fill="#84BE84" rx="3" ry="3" style="stroke: #038048; stroke-width: 1.0;"/><text fill="#000000" font-family="sans-serif" font-size="11" lengthAdjust="spacingAndGlyphs" text-decoration="underline" textLength="117" x="26" y="257.5859">from(String): ValueSet</text></a><!--MD5=[e989025a2549178150781838b27bf233]
class com.ibm.fhir.model.type.code.GroupType--><a href="GroupType.html" target="_top" title="GroupType.html" xlink:actuate="onRequest" xlink:href="GroupType.html" xlink:show="new" xlink:title="GroupType.html" xlink:type="simple"><rect fill="#FEFECE" filter="url(#f1p315zo5u0jbm)" height="38.2656" id="com.ibm.fhir.model.type.code.GroupType" style="stroke: #A80036; stroke-width: 1.5;" width="176" x="6" y="8"/><ellipse cx="21" cy="27.1328" fill="#ADD1B2" rx="11" ry="11" style="stroke: #A80036; stroke-width: 1.0;"/><path d="M23.4731,33.2759 Q22.8921,33.5747 22.2529,33.7241 Q21.6138,33.8735 20.9082,33.8735 Q18.4014,33.8735 17.0815,32.2217 Q15.7617,30.5698 15.7617,27.4487 Q15.7617,24.3193 17.0815,22.6675 Q18.4014,21.0156 20.9082,21.0156 Q21.6138,21.0156 22.2612,21.165 Q22.9087,21.3145 23.4731,21.6133 L23.4731,24.3359 Q22.8423,23.7549 22.2488,23.4851 Q21.6553,23.2153 21.0244,23.2153 Q19.6797,23.2153 18.9949,24.282 Q18.3101,25.3486 18.3101,27.4487 Q18.3101,29.5405 18.9949,30.6072 Q19.6797,31.6738 21.0244,31.6738 Q21.6553,31.6738 22.2488,31.4041 Q22.8423,31.1343 23.4731,30.5532 Z "/><text fill="#000000" font-family="sans-serif" font-size="14" lengthAdjust="spacingAndGlyphs" textLength="76" x="69" y="26.5352">GroupType</text><text fill="#000000" font-family="sans-serif" font-size="10" lengthAdjust="spacingAndGlyphs" textLength="144" x="35" y="39.1563">com.ibm.fhir.model.type.code</text></a><!--MD5=[ed5da9bf89db6f7251533050e0892d75]
reverse link com.ibm.fhir.model.type.code.GroupType to com.ibm.fhir.model.type.code.GroupType.ValueSet--><path d="M94,61.2895 C94,74.5141 94,90.2309 94,105.9503 " fill="none" id="com.ibm.fhir.model.type.code.GroupType&lt;-com.ibm.fhir.model.type.code.GroupType.ValueSet" style="stroke: #A80036; stroke-width: 1.0;"/><ellipse cx="94" cy="54.0585" fill="#FFFFFF" rx="8" ry="8" style="stroke: #A80036; stroke-width: 1.0;"/><line style="stroke: #A80036; stroke-width: 1.0;" x1="94" x2="94" y1="62.0585" y2="46.0585"/><line style="stroke: #A80036; stroke-width: 1.0;" x1="86" x2="102" y1="54.0585" y2="54.0585"/><text fill="#888888" font-family="sans-serif" font-size="10" lengthAdjust="spacingAndGlyphs" textLength="182" x="9" y="283.668">UMLDoclet 2.0.7, PlantUML 1.2019.12</text><!--MD5=[4212827ad8ab45f09a2c8ac7dd27bdab]
@startuml
    set namespaceSeparator none
    hide empty fields
    hide empty methods

    enum "<size:14>GroupType.ValueSet\n<size:10>com.ibm.fhir.model.type.code" as com.ibm.fhir.model.type.code.GroupType.ValueSet [[GroupType.ValueSet.html]] {
        {static} +PERSON
        {static} +ANIMAL
        {static} +PRACTITIONER
        {static} +DEVICE
        {static} +MEDICATION
        {static} +SUBSTANCE
        +value(): String
        {static} +from(String): ValueSet
    }

    class "<size:14>GroupType\n<size:10>com.ibm.fhir.model.type.code" as com.ibm.fhir.model.type.code.GroupType [[GroupType.html]]

    com.ibm.fhir.model.type.code.GroupType +- - com.ibm.fhir.model.type.code.GroupType.ValueSet

    center footer UMLDoclet 2.0.7, PlantUML 1.2019.12
@enduml

PlantUML version 1.2019.12(Sun Nov 03 05:24:54 EST 2019)
(APACHE source distribution)
Java Runtime: OpenJDK Runtime Environment
JVM: OpenJDK 64-Bit Server VM
Java Version: 11.0.4+11
Operating System: Mac OS X
Default Encoding: UTF-8
Language: en
Country: US
--></g></svg>