<?xml version="1.0" encoding="UTF-8" standalone="no"?><svg xmlns="http://www.w3.org/2000/svg" xmlns:xlink="http://www.w3.org/1999/xlink" contentScriptType="application/ecmascript" contentStyleType="text/css" height="271px" preserveAspectRatio="none" style="width:261px;height:271px;" version="1.1" viewBox="0 0 261 271" width="261px" zoomAndPan="magnify"><defs><filter height="300%" id="fijvltl12qclo" width="300%" x="-1" y="-1"><feGaussianBlur result="blurOut" stdDeviation="2.0"/><feColorMatrix in="blurOut" result="blurOut2" type="matrix" values="0 0 0 0 0 0 0 0 0 0 0 0 0 0 0 0 0 0 .4 0"/><feOffset dx="4.0" dy="4.0" in="blurOut2" result="blurOut3"/><feBlend in="SourceGraphic" in2="blurOut3" mode="normal"/></filter></defs><g><!--MD5=[9b3892e235835c6d0b1a4ae76acf4334]
class com.ibm.fhir.model.type.code.GuidePageGeneration.ValueSet--><a href="GuidePageGeneration.ValueSet.html" target="_top" title="GuidePageGeneration.ValueSet.html" xlink:actuate="onRequest" xlink:href="GuidePageGeneration.ValueSet.html" xlink:show="new" xlink:title="GuidePageGeneration.ValueSet.html" xlink:type="simple"><rect fill="#FEFECE" filter="url(#fijvltl12qclo)" height="131.9961" id="com.ibm.fhir.model.type.code.GuidePageGeneration.ValueSet" style="stroke: #A80036; stroke-width: 1.5;" width="244" x="6" y="106"/><ellipse cx="21" cy="125.1328" fill="#EB937F" rx="11" ry="11" style="stroke: #A80036; stroke-width: 1.0;"/><path d="M24.6143,131.6328 L16.8945,131.6328 L16.8945,119.2397 L24.6143,119.2397 L24.6143,121.3979 L19.3433,121.3979 L19.3433,124.0708 L24.1162,124.0708 L24.1162,126.229 L19.3433,126.229 L19.3433,129.4746 L24.6143,129.4746 Z "/><text fill="#000000" font-family="sans-serif" font-size="14" lengthAdjust="spacingAndGlyphs" textLength="212" x="35" y="124.5352">GuidePageGeneration.ValueSet</text><text fill="#000000" font-family="sans-serif" font-size="10" lengthAdjust="spacingAndGlyphs" textLength="144" x="69" y="137.1563">com.ibm.fhir.model.type.code</text><line style="stroke: #A80036; stroke-width: 1.5;" x1="7" x2="249" y1="144.2656" y2="144.2656"/><ellipse cx="17" cy="155.2656" fill="none" rx="3" ry="3" style="stroke: #038048; stroke-width: 1.0;"/><text fill="#000000" font-family="sans-serif" font-size="11" lengthAdjust="spacingAndGlyphs" text-decoration="underline" textLength="30" x="26" y="158.9004">HTML</text><ellipse cx="17" cy="168.2207" fill="none" rx="3" ry="3" style="stroke: #038048; stroke-width: 1.0;"/><text fill="#000000" font-family="sans-serif" font-size="11" lengthAdjust="spacingAndGlyphs" text-decoration="underline" textLength="65" x="26" y="171.8555">MARKDOWN</text><ellipse cx="17" cy="181.1758" fill="none" rx="3" ry="3" style="stroke: #038048; stroke-width: 1.0;"/><text fill="#000000" font-family="sans-serif" font-size="11" lengthAdjust="spacingAndGlyphs" text-decoration="underline" textLength="22" x="26" y="184.8105">XML</text><ellipse cx="17" cy="194.1309" fill="none" rx="3" ry="3" style="stroke: #038048; stroke-width: 1.0;"/><text fill="#000000" font-family="sans-serif" font-size="11" lengthAdjust="spacingAndGlyphs" text-decoration="underline" textLength="64" x="26" y="197.7656">GENERATED</text><line style="stroke: #A80036; stroke-width: 1.5;" x1="7" x2="249" y1="204.0859" y2="204.0859"/><ellipse cx="17" cy="215.0859" fill="#84BE84" rx="3" ry="3" style="stroke: #038048; stroke-width: 1.0;"/><text fill="#000000" font-family="sans-serif" font-size="11" lengthAdjust="spacingAndGlyphs" textLength="74" x="26" y="218.7207">value(): String</text><ellipse cx="17" cy="228.041" fill="#84BE84" rx="3" ry="3" style="stroke: #038048; stroke-width: 1.0;"/><text fill="#000000" font-family="sans-serif" font-size="11" lengthAdjust="spacingAndGlyphs" text-decoration="underline" textLength="117" x="26" y="231.6758">from(String): ValueSet</text></a><!--MD5=[094eea340a97aede638436f84d337dce]
class com.ibm.fhir.model.type.code.GuidePageGeneration--><a href="GuidePageGeneration.html" target="_top" title="GuidePageGeneration.html" xlink:actuate="onRequest" xlink:href="GuidePageGeneration.html" xlink:show="new" xlink:title="GuidePageGeneration.html" xlink:type="simple"><rect fill="#FEFECE" filter="url(#fijvltl12qclo)" height="38.2656" id="com.ibm.fhir.model.type.code.GuidePageGeneration" style="stroke: #A80036; stroke-width: 1.5;" width="181" x="37.5" y="8"/><ellipse cx="52.5" cy="27.1328" fill="#ADD1B2" rx="11" ry="11" style="stroke: #A80036; stroke-width: 1.0;"/><path d="M54.9731,33.2759 Q54.3921,33.5747 53.7529,33.7241 Q53.1138,33.8735 52.4082,33.8735 Q49.9014,33.8735 48.5815,32.2217 Q47.2617,30.5698 47.2617,27.4487 Q47.2617,24.3193 48.5815,22.6675 Q49.9014,21.0156 52.4082,21.0156 Q53.1138,21.0156 53.7612,21.165 Q54.4087,21.3145 54.9731,21.6133 L54.9731,24.3359 Q54.3423,23.7549 53.7488,23.4851 Q53.1553,23.2153 52.5244,23.2153 Q51.1797,23.2153 50.4949,24.282 Q49.8101,25.3486 49.8101,27.4487 Q49.8101,29.5405 50.4949,30.6072 Q51.1797,31.6738 52.5244,31.6738 Q53.1553,31.6738 53.7488,31.4041 Q54.3423,31.1343 54.9731,30.5532 Z "/><text fill="#000000" font-family="sans-serif" font-size="14" lengthAdjust="spacingAndGlyphs" textLength="149" x="66.5" y="26.5352">GuidePageGeneration</text><text fill="#000000" font-family="sans-serif" font-size="10" lengthAdjust="spacingAndGlyphs" textLength="144" x="69" y="39.1563">com.ibm.fhir.model.type.code</text></a><!--MD5=[f6c69cfa77797c73b99bad6232d68cc1]
reverse link com.ibm.fhir.model.type.code.GuidePageGeneration to com.ibm.fhir.model.type.code.GuidePageGeneration.ValueSet--><path d="M128,61.6599 C128,74.9864 128,90.6829 128,105.9905 " fill="none" id="com.ibm.fhir.model.type.code.GuidePageGeneration&lt;-com.ibm.fhir.model.type.code.GuidePageGeneration.ValueSet" style="stroke: #A80036; stroke-width: 1.0;"/><ellipse cx="128.0001" cy="54.2549" fill="#FFFFFF" rx="8" ry="8" style="stroke: #A80036; stroke-width: 1.0;"/><line style="stroke: #A80036; stroke-width: 1.0;" x1="128.0002" x2="128" y1="62.2549" y2="46.2549"/><line style="stroke: #A80036; stroke-width: 1.0;" x1="120.0001" x2="136.0001" y1="54.255" y2="54.2548"/><text fill="#888888" font-family="sans-serif" font-size="10" lengthAdjust="spacingAndGlyphs" textLength="182" x="43" y="257.668">UMLDoclet 2.0.7, PlantUML 1.2019.12</text><!--MD5=[ef0f80fa22c7aa6a4341d7875104e7a1]
@startuml
    set namespaceSeparator none
    hide empty fields
    hide empty methods

    enum "<size:14>GuidePageGeneration.ValueSet\n<size:10>com.ibm.fhir.model.type.code" as com.ibm.fhir.model.type.code.GuidePageGeneration.ValueSet [[GuidePageGeneration.ValueSet.html]] {
        {static} +HTML
        {static} +MARKDOWN
        {static} +XML
        {static} +GENERATED
        +value(): String
        {static} +from(String): ValueSet
    }

    class "<size:14>GuidePageGeneration\n<size:10>com.ibm.fhir.model.type.code" as com.ibm.fhir.model.type.code.GuidePageGeneration [[GuidePageGeneration.html]]

    com.ibm.fhir.model.type.code.GuidePageGeneration +- - com.ibm.fhir.model.type.code.GuidePageGeneration.ValueSet

    center footer UMLDoclet 2.0.7, PlantUML 1.2019.12
@enduml

PlantUML version 1.2019.12(Sun Nov 03 05:24:54 EST 2019)
(APACHE source distribution)
Java Runtime: OpenJDK Runtime Environment
JVM: OpenJDK 64-Bit Server VM
Java Version: 11.0.4+11
Operating System: Mac OS X
Default Encoding: UTF-8
Language: en
Country: US
--></g></svg>