<?xml version="1.0" encoding="UTF-8" standalone="no"?><svg xmlns="http://www.w3.org/2000/svg" xmlns:xlink="http://www.w3.org/1999/xlink" contentScriptType="application/ecmascript" contentStyleType="text/css" height="421px" preserveAspectRatio="none" style="width:543px;height:421px;" version="1.1" viewBox="0 0 543 421" width="543px" zoomAndPan="magnify"><defs><filter height="300%" id="f1p40qc6xlnjhe" width="300%" x="-1" y="-1"><feGaussianBlur result="blurOut" stdDeviation="2.0"/><feColorMatrix in="blurOut" result="blurOut2" type="matrix" values="0 0 0 0 0 0 0 0 0 0 0 0 0 0 0 0 0 0 .4 0"/><feOffset dx="4.0" dy="4.0" in="blurOut2" result="blurOut3"/><feBlend in="SourceGraphic" in2="blurOut3" mode="normal"/></filter></defs><g><!--MD5=[64df0167b74ff4de63db44bd06ae6dd5]
class com.ibm.fhir.model.type.code.IdentityAssuranceLevel--><a href="IdentityAssuranceLevel.html" target="_top" title="IdentityAssuranceLevel.html" xlink:actuate="onRequest" xlink:href="IdentityAssuranceLevel.html" xlink:show="new" xlink:title="IdentityAssuranceLevel.html" xlink:type="simple"><rect fill="#FEFECE" filter="url(#f1p40qc6xlnjhe)" height="183.8164" id="com.ibm.fhir.model.type.code.IdentityAssuranceLevel" style="stroke: #A80036; stroke-width: 1.5;" width="220" x="156" y="106"/><ellipse cx="185.4" cy="125.1328" fill="#ADD1B2" rx="11" ry="11" style="stroke: #A80036; stroke-width: 1.0;"/><path d="M187.8731,131.2759 Q187.2921,131.5747 186.6529,131.7241 Q186.0138,131.8735 185.3082,131.8735 Q182.8014,131.8735 181.4815,130.2217 Q180.1617,128.5698 180.1617,125.4487 Q180.1617,122.3193 181.4815,120.6675 Q182.8014,119.0156 185.3082,119.0156 Q186.0138,119.0156 186.6612,119.165 Q187.3087,119.3145 187.8731,119.6133 L187.8731,122.3359 Q187.2423,121.7549 186.6488,121.4851 Q186.0553,121.2153 185.4244,121.2153 Q184.0797,121.2153 183.3949,122.282 Q182.7101,123.3486 182.7101,125.4487 Q182.7101,127.5405 183.3949,128.6072 Q184.0797,129.6738 185.4244,129.6738 Q186.0553,129.6738 186.6488,129.4041 Q187.2423,129.1343 187.8731,128.5532 Z "/><text fill="#000000" font-family="sans-serif" font-size="14" lengthAdjust="spacingAndGlyphs" textLength="156" x="202.6" y="124.5352">IdentityAssuranceLevel</text><text fill="#000000" font-family="sans-serif" font-size="10" lengthAdjust="spacingAndGlyphs" textLength="144" x="208.6" y="137.1563">com.ibm.fhir.model.type.code</text><line style="stroke: #A80036; stroke-width: 1.5;" x1="157" x2="375" y1="144.2656" y2="144.2656"/><ellipse cx="167" cy="155.2656" fill="none" rx="3" ry="3" style="stroke: #038048; stroke-width: 1.0;"/><text fill="#000000" font-family="sans-serif" font-size="11" lengthAdjust="spacingAndGlyphs" text-decoration="underline" textLength="168" x="176" y="158.9004">LEVEL1: IdentityAssuranceLevel</text><ellipse cx="167" cy="168.2207" fill="none" rx="3" ry="3" style="stroke: #038048; stroke-width: 1.0;"/><text fill="#000000" font-family="sans-serif" font-size="11" lengthAdjust="spacingAndGlyphs" text-decoration="underline" textLength="168" x="176" y="171.8555">LEVEL2: IdentityAssuranceLevel</text><ellipse cx="167" cy="181.1758" fill="none" rx="3" ry="3" style="stroke: #038048; stroke-width: 1.0;"/><text fill="#000000" font-family="sans-serif" font-size="11" lengthAdjust="spacingAndGlyphs" text-decoration="underline" textLength="168" x="176" y="184.8105">LEVEL3: IdentityAssuranceLevel</text><ellipse cx="167" cy="194.1309" fill="none" rx="3" ry="3" style="stroke: #038048; stroke-width: 1.0;"/><text fill="#000000" font-family="sans-serif" font-size="11" lengthAdjust="spacingAndGlyphs" text-decoration="underline" textLength="168" x="176" y="197.7656">LEVEL4: IdentityAssuranceLevel</text><line style="stroke: #A80036; stroke-width: 1.5;" x1="157" x2="375" y1="204.0859" y2="204.0859"/><ellipse cx="167" cy="215.0859" fill="#84BE84" rx="3" ry="3" style="stroke: #038048; stroke-width: 1.0;"/><text fill="#000000" font-family="sans-serif" font-size="11" lengthAdjust="spacingAndGlyphs" text-decoration="underline" textLength="194" x="176" y="218.7207">of(ValueSet): IdentityAssuranceLevel</text><ellipse cx="167" cy="228.041" fill="#84BE84" rx="3" ry="3" style="stroke: #038048; stroke-width: 1.0;"/><text fill="#000000" font-family="sans-serif" font-size="11" lengthAdjust="spacingAndGlyphs" text-decoration="underline" textLength="181" x="176" y="231.6758">of(String): IdentityAssuranceLevel</text><ellipse cx="167" cy="240.9961" fill="#84BE84" rx="3" ry="3" style="stroke: #038048; stroke-width: 1.0;"/><text fill="#000000" font-family="sans-serif" font-size="11" lengthAdjust="spacingAndGlyphs" text-decoration="underline" textLength="110" x="176" y="244.6309">string(String): String</text><ellipse cx="167" cy="253.9512" fill="#84BE84" rx="3" ry="3" style="stroke: #038048; stroke-width: 1.0;"/><text fill="#000000" font-family="sans-serif" font-size="11" lengthAdjust="spacingAndGlyphs" text-decoration="underline" textLength="100" x="176" y="257.5859">code(String): Code</text><ellipse cx="167" cy="266.9063" fill="#84BE84" rx="3" ry="3" style="stroke: #038048; stroke-width: 1.0;"/><text fill="#000000" font-family="sans-serif" font-size="11" lengthAdjust="spacingAndGlyphs" textLength="99" x="176" y="270.541">toBuilder(): Builder</text><ellipse cx="167" cy="279.8613" fill="#84BE84" rx="3" ry="3" style="stroke: #038048; stroke-width: 1.0;"/><text fill="#000000" font-family="sans-serif" font-size="11" lengthAdjust="spacingAndGlyphs" text-decoration="underline" textLength="89" x="176" y="283.4961">builder(): Builder</text></a><!--MD5=[36277681a3d78580011ae89cb2088b30]
class com.ibm.fhir.model.type.Code--><a href="../Code.html" target="_top" title="../Code.html" xlink:actuate="onRequest" xlink:href="../Code.html" xlink:show="new" xlink:title="../Code.html" xlink:type="simple"><rect fill="#FEFECE" filter="url(#f1p40qc6xlnjhe)" height="38.2656" id="com.ibm.fhir.model.type.Code" style="stroke: #A80036; stroke-width: 1.5;" width="150" x="191" y="8"/><ellipse cx="206" cy="27.1328" fill="#ADD1B2" rx="11" ry="11" style="stroke: #A80036; stroke-width: 1.0;"/><path d="M208.4731,33.2759 Q207.8921,33.5747 207.2529,33.7241 Q206.6138,33.8735 205.9082,33.8735 Q203.4014,33.8735 202.0815,32.2217 Q200.7617,30.5698 200.7617,27.4487 Q200.7617,24.3193 202.0815,22.6675 Q203.4014,21.0156 205.9082,21.0156 Q206.6138,21.0156 207.2612,21.165 Q207.9087,21.3145 208.4731,21.6133 L208.4731,24.3359 Q207.8423,23.7549 207.2488,23.4851 Q206.6553,23.2153 206.0244,23.2153 Q204.6797,23.2153 203.9949,24.282 Q203.3101,25.3486 203.3101,27.4487 Q203.3101,29.5405 203.9949,30.6072 Q204.6797,31.6738 206.0244,31.6738 Q206.6553,31.6738 207.2488,31.4041 Q207.8423,31.1343 208.4731,30.5532 Z "/><text fill="#000000" font-family="sans-serif" font-size="14" lengthAdjust="spacingAndGlyphs" textLength="36" x="261" y="26.5352">Code</text><text fill="#000000" font-family="sans-serif" font-size="10" lengthAdjust="spacingAndGlyphs" textLength="118" x="220" y="39.1563">com.ibm.fhir.model.type</text></a><!--MD5=[3f6767ef502ea869553c6602907a90ae]
class com.ibm.fhir.model.type.code.IdentityAssuranceLevel.Builder--><a href="IdentityAssuranceLevel.Builder.html" target="_top" title="IdentityAssuranceLevel.Builder.html" xlink:actuate="onRequest" xlink:href="IdentityAssuranceLevel.Builder.html" xlink:show="new" xlink:title="IdentityAssuranceLevel.Builder.html" xlink:type="simple"><rect fill="#FEFECE" filter="url(#f1p40qc6xlnjhe)" height="38.2656" id="com.ibm.fhir.model.type.code.IdentityAssuranceLevel.Builder" style="stroke: #A80036; stroke-width: 1.5;" width="240" x="6" y="350"/><ellipse cx="21" cy="369.1328" fill="#ADD1B2" rx="11" ry="11" style="stroke: #A80036; stroke-width: 1.0;"/><path d="M23.4731,375.2759 Q22.8921,375.5747 22.2529,375.7241 Q21.6138,375.8735 20.9082,375.8735 Q18.4014,375.8735 17.0815,374.2217 Q15.7617,372.5698 15.7617,369.4487 Q15.7617,366.3193 17.0815,364.6675 Q18.4014,363.0156 20.9082,363.0156 Q21.6138,363.0156 22.2612,363.165 Q22.9087,363.3145 23.4731,363.6133 L23.4731,366.3359 Q22.8423,365.7549 22.2488,365.4851 Q21.6553,365.2153 21.0244,365.2153 Q19.6797,365.2153 18.9949,366.282 Q18.3101,367.3486 18.3101,369.4487 Q18.3101,371.5405 18.9949,372.6072 Q19.6797,373.6738 21.0244,373.6738 Q21.6553,373.6738 22.2488,373.4041 Q22.8423,373.1343 23.4731,372.5532 Z "/><text fill="#000000" font-family="sans-serif" font-size="14" lengthAdjust="spacingAndGlyphs" textLength="208" x="35" y="368.5352">IdentityAssuranceLevel.Builder</text><text fill="#000000" font-family="sans-serif" font-size="10" lengthAdjust="spacingAndGlyphs" textLength="144" x="67" y="381.1563">com.ibm.fhir.model.type.code</text></a><!--MD5=[75e73041d5cc105a04b72ee03dee405e]
class com.ibm.fhir.model.type.code.IdentityAssuranceLevel.ValueSet--><a href="IdentityAssuranceLevel.ValueSet.html" target="_top" title="IdentityAssuranceLevel.ValueSet.html" xlink:actuate="onRequest" xlink:href="IdentityAssuranceLevel.ValueSet.html" xlink:show="new" xlink:title="IdentityAssuranceLevel.ValueSet.html" xlink:type="simple"><rect fill="#FEFECE" filter="url(#f1p40qc6xlnjhe)" height="38.2656" id="com.ibm.fhir.model.type.code.IdentityAssuranceLevel.ValueSet" style="stroke: #A80036; stroke-width: 1.5;" width="251" x="281.5" y="350"/><ellipse cx="296.5" cy="369.1328" fill="#EB937F" rx="11" ry="11" style="stroke: #A80036; stroke-width: 1.0;"/><path d="M300.1143,375.6328 L292.3945,375.6328 L292.3945,363.2397 L300.1143,363.2397 L300.1143,365.3979 L294.8433,365.3979 L294.8433,368.0708 L299.6162,368.0708 L299.6162,370.229 L294.8433,370.229 L294.8433,373.4746 L300.1143,373.4746 Z "/><text fill="#000000" font-family="sans-serif" font-size="14" lengthAdjust="spacingAndGlyphs" textLength="219" x="310.5" y="368.5352">IdentityAssuranceLevel.ValueSet</text><text fill="#000000" font-family="sans-serif" font-size="10" lengthAdjust="spacingAndGlyphs" textLength="144" x="348" y="381.1563">com.ibm.fhir.model.type.code</text></a><!--MD5=[3cc78fe7a89e5536dc209216887d1fef]
reverse link com.ibm.fhir.model.type.Code to com.ibm.fhir.model.type.code.IdentityAssuranceLevel--><path d="M266,66.5906 C266,78.413 266,91.9001 266,105.625 " fill="none" id="com.ibm.fhir.model.type.Code&lt;-com.ibm.fhir.model.type.code.IdentityAssuranceLevel" style="stroke: #A80036; stroke-width: 1.0;"/><polygon fill="none" points="259.0001,66.2835,266,46.2835,273.0001,66.2834,259.0001,66.2835" style="stroke: #A80036; stroke-width: 1.0;"/><!--MD5=[f6f204ad9257d3534bfde3e1efc42d06]
reverse link com.ibm.fhir.model.type.code.IdentityAssuranceLevel to com.ibm.fhir.model.type.code.IdentityAssuranceLevel.Builder--><path d="M181.1335,301.6584 C165.9722,320.1768 151.7863,337.5038 141.6016,349.9437 " fill="none" id="com.ibm.fhir.model.type.code.IdentityAssuranceLevel&lt;-com.ibm.fhir.model.type.code.IdentityAssuranceLevel.Builder" style="stroke: #A80036; stroke-width: 1.0;"/><ellipse cx="185.6047" cy="296.1971" fill="#FFFFFF" rx="8" ry="8" style="stroke: #A80036; stroke-width: 1.0;"/><line style="stroke: #A80036; stroke-width: 1.0;" x1="180.5368" x2="190.6726" y1="302.3871" y2="290.0071"/><line style="stroke: #A80036; stroke-width: 1.0;" x1="179.4147" x2="191.7947" y1="291.1292" y2="301.265"/><!--MD5=[d32f8dbd583a8b9b5256e07e5b7f9629]
reverse link com.ibm.fhir.model.type.code.IdentityAssuranceLevel to com.ibm.fhir.model.type.code.IdentityAssuranceLevel.ValueSet--><path d="M351.4727,301.6584 C366.7423,320.1768 381.0295,337.5038 391.2869,349.9437 " fill="none" id="com.ibm.fhir.model.type.code.IdentityAssuranceLevel&lt;-com.ibm.fhir.model.type.code.IdentityAssuranceLevel.ValueSet" style="stroke: #A80036; stroke-width: 1.0;"/><ellipse cx="346.955" cy="296.1794" fill="#FFFFFF" rx="8" ry="8" style="stroke: #A80036; stroke-width: 1.0;"/><line style="stroke: #A80036; stroke-width: 1.0;" x1="352.0445" x2="341.8655" y1="302.3517" y2="290.0071"/><line style="stroke: #A80036; stroke-width: 1.0;" x1="340.7827" x2="353.1273" y1="301.2689" y2="291.0899"/><text fill="#888888" font-family="sans-serif" font-size="10" lengthAdjust="spacingAndGlyphs" textLength="182" x="184.5" y="407.668">UMLDoclet 2.0.7, PlantUML 1.2019.12</text><!--MD5=[df305d14cbc39b7d9048fc499f54b273]
@startuml
    set namespaceSeparator none
    hide empty fields
    hide empty methods

    class "<size:14>IdentityAssuranceLevel\n<size:10>com.ibm.fhir.model.type.code" as com.ibm.fhir.model.type.code.IdentityAssuranceLevel [[IdentityAssuranceLevel.html]] {
        {static} +LEVEL1: IdentityAssuranceLevel
        {static} +LEVEL2: IdentityAssuranceLevel
        {static} +LEVEL3: IdentityAssuranceLevel
        {static} +LEVEL4: IdentityAssuranceLevel
        {static} +of(ValueSet): IdentityAssuranceLevel
        {static} +of(String): IdentityAssuranceLevel
        {static} +string(String): String
        {static} +code(String): Code
        +toBuilder(): Builder
        {static} +builder(): Builder
    }

    class "<size:14>Code\n<size:10>com.ibm.fhir.model.type" as com.ibm.fhir.model.type.Code [[../Code.html]]
    class "<size:14>IdentityAssuranceLevel.Builder\n<size:10>com.ibm.fhir.model.type.code" as com.ibm.fhir.model.type.code.IdentityAssuranceLevel.Builder [[IdentityAssuranceLevel.Builder.html]]
    enum "<size:14>IdentityAssuranceLevel.ValueSet\n<size:10>com.ibm.fhir.model.type.code" as com.ibm.fhir.model.type.code.IdentityAssuranceLevel.ValueSet [[IdentityAssuranceLevel.ValueSet.html]]

    com.ibm.fhir.model.type.Code <|- - com.ibm.fhir.model.type.code.IdentityAssuranceLevel
    com.ibm.fhir.model.type.code.IdentityAssuranceLevel +- - com.ibm.fhir.model.type.code.IdentityAssuranceLevel.Builder
    com.ibm.fhir.model.type.code.IdentityAssuranceLevel +- - com.ibm.fhir.model.type.code.IdentityAssuranceLevel.ValueSet

    center footer UMLDoclet 2.0.7, PlantUML 1.2019.12
@enduml

PlantUML version 1.2019.12(Sun Nov 03 05:24:54 EST 2019)
(APACHE source distribution)
Java Runtime: OpenJDK Runtime Environment
JVM: OpenJDK 64-Bit Server VM
Java Version: 11.0.4+11
Operating System: Mac OS X
Default Encoding: UTF-8
Language: en
Country: US
--></g></svg>