<?xml version="1.0" encoding="UTF-8" standalone="no"?><svg xmlns="http://www.w3.org/2000/svg" xmlns:xlink="http://www.w3.org/1999/xlink" contentScriptType="application/ecmascript" contentStyleType="text/css" height="263px" preserveAspectRatio="none" style="width:437px;height:263px;" version="1.1" viewBox="0 0 437 263" width="437px" zoomAndPan="magnify"><defs><filter height="300%" id="fniirecfce50g" width="300%" x="-1" y="-1"><feGaussianBlur result="blurOut" stdDeviation="2.0"/><feColorMatrix in="blurOut" result="blurOut2" type="matrix" values="0 0 0 0 0 0 0 0 0 0 0 0 0 0 0 0 0 0 .4 0"/><feOffset dx="4.0" dy="4.0" in="blurOut2" result="blurOut3"/><feBlend in="SourceGraphic" in2="blurOut3" mode="normal"/></filter></defs><g><!--MD5=[6a06485d6051db70306ac7776661c201]
class com.ibm.fhir.model.type.code.MessageSignificanceCategory.Builder--><a href="MessageSignificanceCategory.Builder.html" target="_top" title="MessageSignificanceCategory.Builder.html" xlink:actuate="onRequest" xlink:href="MessageSignificanceCategory.Builder.html" xlink:show="new" xlink:title="MessageSignificanceCategory.Builder.html" xlink:type="simple"><rect fill="#FEFECE" filter="url(#fniirecfce50g)" height="123.9961" id="com.ibm.fhir.model.type.code.MessageSignificanceCategory.Builder" style="stroke: #A80036; stroke-width: 1.5;" width="287" x="51.5" y="106"/><ellipse cx="66.5" cy="125.1328" fill="#ADD1B2" rx="11" ry="11" style="stroke: #A80036; stroke-width: 1.0;"/><path d="M68.9731,131.2759 Q68.3921,131.5747 67.7529,131.7241 Q67.1138,131.8735 66.4082,131.8735 Q63.9014,131.8735 62.5815,130.2217 Q61.2617,128.5698 61.2617,125.4487 Q61.2617,122.3193 62.5815,120.6675 Q63.9014,119.0156 66.4082,119.0156 Q67.1138,119.0156 67.7612,119.165 Q68.4087,119.3145 68.9731,119.6133 L68.9731,122.3359 Q68.3423,121.7549 67.7488,121.4851 Q67.1553,121.2153 66.5244,121.2153 Q65.1797,121.2153 64.4949,122.282 Q63.8101,123.3486 63.8101,125.4487 Q63.8101,127.5405 64.4949,128.6072 Q65.1797,129.6738 66.5244,129.6738 Q67.1553,129.6738 67.7488,129.4041 Q68.3423,129.1343 68.9731,128.5532 Z "/><text fill="#000000" font-family="sans-serif" font-size="14" lengthAdjust="spacingAndGlyphs" textLength="255" x="80.5" y="124.5352">MessageSignificanceCategory.Builder</text><text fill="#000000" font-family="sans-serif" font-size="10" lengthAdjust="spacingAndGlyphs" textLength="144" x="136" y="137.1563">com.ibm.fhir.model.type.code</text><line style="stroke: #A80036; stroke-width: 1.5;" x1="52.5" x2="337.5" y1="144.2656" y2="144.2656"/><ellipse cx="62.5" cy="155.2656" fill="#84BE84" rx="3" ry="3" style="stroke: #038048; stroke-width: 1.0;"/><text fill="#000000" font-family="sans-serif" font-size="11" lengthAdjust="spacingAndGlyphs" textLength="93" x="71.5" y="158.9004">id(String): Builder</text><ellipse cx="62.5" cy="168.2207" fill="#84BE84" rx="3" ry="3" style="stroke: #038048; stroke-width: 1.0;"/><text fill="#000000" font-family="sans-serif" font-size="11" lengthAdjust="spacingAndGlyphs" textLength="166" x="71.5" y="171.8555">extension(Extension...): Builder</text><ellipse cx="62.5" cy="181.1758" fill="#84BE84" rx="3" ry="3" style="stroke: #038048; stroke-width: 1.0;"/><text fill="#000000" font-family="sans-serif" font-size="11" lengthAdjust="spacingAndGlyphs" textLength="229" x="71.5" y="184.8105">extension(Collection&lt;Extension&gt;): Builder</text><ellipse cx="62.5" cy="194.1309" fill="#84BE84" rx="3" ry="3" style="stroke: #038048; stroke-width: 1.0;"/><text fill="#000000" font-family="sans-serif" font-size="11" lengthAdjust="spacingAndGlyphs" textLength="111" x="71.5" y="197.7656">value(String): Builder</text><ellipse cx="62.5" cy="207.0859" fill="#84BE84" rx="3" ry="3" style="stroke: #038048; stroke-width: 1.0;"/><text fill="#000000" font-family="sans-serif" font-size="11" lengthAdjust="spacingAndGlyphs" textLength="124" x="71.5" y="210.7207">value(ValueSet): Builder</text><ellipse cx="62.5" cy="220.041" fill="#84BE84" rx="3" ry="3" style="stroke: #038048; stroke-width: 1.0;"/><text fill="#000000" font-family="sans-serif" font-size="11" lengthAdjust="spacingAndGlyphs" textLength="200" x="71.5" y="223.6758">build(): MessageSignificanceCategory</text></a><!--MD5=[d58206fe609464c205fa3b8b97dbba54]
class com.ibm.fhir.model.type.Code.Builder--><a href="../Code.Builder.html" target="_top" title="../Code.Builder.html" xlink:actuate="onRequest" xlink:href="../Code.Builder.html" xlink:show="new" xlink:title="../Code.Builder.html" xlink:type="simple"><rect fill="#FEFECE" filter="url(#fniirecfce50g)" height="38.2656" id="com.ibm.fhir.model.type.Code.Builder" style="stroke: #A80036; stroke-width: 1.5;" width="150" x="6" y="8"/><ellipse cx="21" cy="27.1328" fill="#ADD1B2" rx="11" ry="11" style="stroke: #A80036; stroke-width: 1.0;"/><path d="M23.4731,33.2759 Q22.8921,33.5747 22.2529,33.7241 Q21.6138,33.8735 20.9082,33.8735 Q18.4014,33.8735 17.0815,32.2217 Q15.7617,30.5698 15.7617,27.4487 Q15.7617,24.3193 17.0815,22.6675 Q18.4014,21.0156 20.9082,21.0156 Q21.6138,21.0156 22.2612,21.165 Q22.9087,21.3145 23.4731,21.6133 L23.4731,24.3359 Q22.8423,23.7549 22.2488,23.4851 Q21.6553,23.2153 21.0244,23.2153 Q19.6797,23.2153 18.9949,24.282 Q18.3101,25.3486 18.3101,27.4487 Q18.3101,29.5405 18.9949,30.6072 Q19.6797,31.6738 21.0244,31.6738 Q21.6553,31.6738 22.2488,31.4041 Q22.8423,31.1343 23.4731,30.5532 Z "/><text fill="#000000" font-family="sans-serif" font-size="14" lengthAdjust="spacingAndGlyphs" textLength="88" x="50" y="26.5352">Code.Builder</text><text fill="#000000" font-family="sans-serif" font-size="10" lengthAdjust="spacingAndGlyphs" textLength="118" x="35" y="39.1563">com.ibm.fhir.model.type</text></a><!--MD5=[eddaf86c5903172280ee34a09aca7ee0]
class com.ibm.fhir.model.type.code.MessageSignificanceCategory--><a href="MessageSignificanceCategory.html" target="_top" title="MessageSignificanceCategory.html" xlink:actuate="onRequest" xlink:href="MessageSignificanceCategory.html" xlink:show="new" xlink:title="MessageSignificanceCategory.html" xlink:type="simple"><rect fill="#FEFECE" filter="url(#fniirecfce50g)" height="38.2656" id="com.ibm.fhir.model.type.code.MessageSignificanceCategory" style="stroke: #A80036; stroke-width: 1.5;" width="235" x="191.5" y="8"/><ellipse cx="206.5" cy="27.1328" fill="#ADD1B2" rx="11" ry="11" style="stroke: #A80036; stroke-width: 1.0;"/><path d="M208.9731,33.2759 Q208.3921,33.5747 207.7529,33.7241 Q207.1138,33.8735 206.4082,33.8735 Q203.9014,33.8735 202.5815,32.2217 Q201.2617,30.5698 201.2617,27.4487 Q201.2617,24.3193 202.5815,22.6675 Q203.9014,21.0156 206.4082,21.0156 Q207.1138,21.0156 207.7612,21.165 Q208.4087,21.3145 208.9731,21.6133 L208.9731,24.3359 Q208.3423,23.7549 207.7488,23.4851 Q207.1553,23.2153 206.5244,23.2153 Q205.1797,23.2153 204.4949,24.282 Q203.8101,25.3486 203.8101,27.4487 Q203.8101,29.5405 204.4949,30.6072 Q205.1797,31.6738 206.5244,31.6738 Q207.1553,31.6738 207.7488,31.4041 Q208.3423,31.1343 208.9731,30.5532 Z "/><text fill="#000000" font-family="sans-serif" font-size="14" lengthAdjust="spacingAndGlyphs" textLength="203" x="220.5" y="26.5352">MessageSignificanceCategory</text><text fill="#000000" font-family="sans-serif" font-size="10" lengthAdjust="spacingAndGlyphs" textLength="144" x="250" y="39.1563">com.ibm.fhir.model.type.code</text></a><!--MD5=[337f3868258948c582a6403862cb800e]
reverse link com.ibm.fhir.model.type.Code.Builder to com.ibm.fhir.model.type.code.MessageSignificanceCategory.Builder--><path d="M109.2677,61.9626 C120.0321,75.2765 132.6477,90.8801 144.8398,105.9598 " fill="none" id="com.ibm.fhir.model.type.Code.Builder&lt;-com.ibm.fhir.model.type.code.MessageSignificanceCategory.Builder" style="stroke: #A80036; stroke-width: 1.0;"/><polygon fill="none" points="103.5056,65.9696,96.3745,46.0159,114.3924,57.1674,103.5056,65.9696" style="stroke: #A80036; stroke-width: 1.0;"/><!--MD5=[c368f9a76110534776daaa7a58402964]
reverse link com.ibm.fhir.model.type.code.MessageSignificanceCategory to com.ibm.fhir.model.type.code.MessageSignificanceCategory.Builder--><path d="M283.9388,57.9968 C272.5237,72.1154 258.5852,89.3552 245.1602,105.9598 " fill="none" id="com.ibm.fhir.model.type.code.MessageSignificanceCategory&lt;-com.ibm.fhir.model.type.code.MessageSignificanceCategory.Builder" style="stroke: #A80036; stroke-width: 1.0;"/><ellipse cx="288.5957" cy="52.2369" fill="#FFFFFF" rx="8" ry="8" style="stroke: #A80036; stroke-width: 1.0;"/><line style="stroke: #A80036; stroke-width: 1.0;" x1="283.5659" x2="293.6255" y1="58.458" y2="46.0159"/><line style="stroke: #A80036; stroke-width: 1.0;" x1="282.3747" x2="294.8167" y1="47.2071" y2="57.2667"/><text fill="#888888" font-family="sans-serif" font-size="10" lengthAdjust="spacingAndGlyphs" textLength="182" x="131.5" y="249.668">UMLDoclet 2.0.7, PlantUML 1.2019.12</text><!--MD5=[7130edcf15280e0fdc3cf0b38e1c2f40]
@startuml
    set namespaceSeparator none
    hide empty fields
    hide empty methods

    class "<size:14>MessageSignificanceCategory.Builder\n<size:10>com.ibm.fhir.model.type.code" as com.ibm.fhir.model.type.code.MessageSignificanceCategory.Builder [[MessageSignificanceCategory.Builder.html]] {
        +id(String): Builder
        +extension(Extension...): Builder
        +extension(Collection<Extension>): Builder
        +value(String): Builder
        +value(ValueSet): Builder
        +build(): MessageSignificanceCategory
    }

    class "<size:14>Code.Builder\n<size:10>com.ibm.fhir.model.type" as com.ibm.fhir.model.type.Code.Builder [[../Code.Builder.html]]
    class "<size:14>MessageSignificanceCategory\n<size:10>com.ibm.fhir.model.type.code" as com.ibm.fhir.model.type.code.MessageSignificanceCategory [[MessageSignificanceCategory.html]]

    com.ibm.fhir.model.type.Code.Builder <|- - com.ibm.fhir.model.type.code.MessageSignificanceCategory.Builder
    com.ibm.fhir.model.type.code.MessageSignificanceCategory +- - com.ibm.fhir.model.type.code.MessageSignificanceCategory.Builder

    center footer UMLDoclet 2.0.7, PlantUML 1.2019.12
@enduml

PlantUML version 1.2019.12(Sun Nov 03 05:24:54 EST 2019)
(APACHE source distribution)
Java Runtime: OpenJDK Runtime Environment
JVM: OpenJDK 64-Bit Server VM
Java Version: 11.0.4+11
Operating System: Mac OS X
Default Encoding: UTF-8
Language: en
Country: US
--></g></svg>