<?xml version="1.0" encoding="UTF-8" standalone="no"?><svg xmlns="http://www.w3.org/2000/svg" xmlns:xlink="http://www.w3.org/1999/xlink" contentScriptType="application/ecmascript" contentStyleType="text/css" height="408px" preserveAspectRatio="none" style="width:405px;height:408px;" version="1.1" viewBox="0 0 405 408" width="405px" zoomAndPan="magnify"><defs><filter height="300%" id="f12zo64x8lzyz6" width="300%" x="-1" y="-1"><feGaussianBlur result="blurOut" stdDeviation="2.0"/><feColorMatrix in="blurOut" result="blurOut2" type="matrix" values="0 0 0 0 0 0 0 0 0 0 0 0 0 0 0 0 0 0 .4 0"/><feOffset dx="4.0" dy="4.0" in="blurOut2" result="blurOut3"/><feBlend in="SourceGraphic" in2="blurOut3" mode="normal"/></filter></defs><g><!--MD5=[ebe3a434b52d2a680decbb0723350a5c]
class com.ibm.fhir.model.type.code.SlicingRules--><a href="SlicingRules.html" target="_top" title="SlicingRules.html" xlink:actuate="onRequest" xlink:href="SlicingRules.html" xlink:show="new" xlink:title="SlicingRules.html" xlink:type="simple"><rect fill="#FEFECE" filter="url(#f12zo64x8lzyz6)" height="170.8613" id="com.ibm.fhir.model.type.code.SlicingRules" style="stroke: #A80036; stroke-width: 1.5;" width="176" x="112" y="106"/><ellipse cx="127" cy="125.1328" fill="#ADD1B2" rx="11" ry="11" style="stroke: #A80036; stroke-width: 1.0;"/><path d="M129.4731,131.2759 Q128.8921,131.5747 128.2529,131.7241 Q127.6138,131.8735 126.9082,131.8735 Q124.4014,131.8735 123.0815,130.2217 Q121.7617,128.5698 121.7617,125.4487 Q121.7617,122.3193 123.0815,120.6675 Q124.4014,119.0156 126.9082,119.0156 Q127.6138,119.0156 128.2612,119.165 Q128.9087,119.3145 129.4731,119.6133 L129.4731,122.3359 Q128.8423,121.7549 128.2488,121.4851 Q127.6553,121.2153 127.0244,121.2153 Q125.6797,121.2153 124.9949,122.282 Q124.3101,123.3486 124.3101,125.4487 Q124.3101,127.5405 124.9949,128.6072 Q125.6797,129.6738 127.0244,129.6738 Q127.6553,129.6738 128.2488,129.4041 Q128.8423,129.1343 129.4731,128.5532 Z "/><text fill="#000000" font-family="sans-serif" font-size="14" lengthAdjust="spacingAndGlyphs" textLength="82" x="172" y="124.5352">SlicingRules</text><text fill="#000000" font-family="sans-serif" font-size="10" lengthAdjust="spacingAndGlyphs" textLength="144" x="141" y="137.1563">com.ibm.fhir.model.type.code</text><line style="stroke: #A80036; stroke-width: 1.5;" x1="113" x2="287" y1="144.2656" y2="144.2656"/><ellipse cx="123" cy="155.2656" fill="none" rx="3" ry="3" style="stroke: #038048; stroke-width: 1.0;"/><text fill="#000000" font-family="sans-serif" font-size="11" lengthAdjust="spacingAndGlyphs" text-decoration="underline" textLength="113" x="132" y="158.9004">CLOSED: SlicingRules</text><ellipse cx="123" cy="168.2207" fill="none" rx="3" ry="3" style="stroke: #038048; stroke-width: 1.0;"/><text fill="#000000" font-family="sans-serif" font-size="11" lengthAdjust="spacingAndGlyphs" text-decoration="underline" textLength="99" x="132" y="171.8555">OPEN: SlicingRules</text><ellipse cx="123" cy="181.1758" fill="none" rx="3" ry="3" style="stroke: #038048; stroke-width: 1.0;"/><text fill="#000000" font-family="sans-serif" font-size="11" lengthAdjust="spacingAndGlyphs" text-decoration="underline" textLength="148" x="132" y="184.8105">OPEN_AT_END: SlicingRules</text><line style="stroke: #A80036; stroke-width: 1.5;" x1="113" x2="287" y1="191.1309" y2="191.1309"/><ellipse cx="123" cy="202.1309" fill="#84BE84" rx="3" ry="3" style="stroke: #038048; stroke-width: 1.0;"/><text fill="#000000" font-family="sans-serif" font-size="11" lengthAdjust="spacingAndGlyphs" text-decoration="underline" textLength="134" x="132" y="205.7656">of(ValueSet): SlicingRules</text><ellipse cx="123" cy="215.0859" fill="#84BE84" rx="3" ry="3" style="stroke: #038048; stroke-width: 1.0;"/><text fill="#000000" font-family="sans-serif" font-size="11" lengthAdjust="spacingAndGlyphs" text-decoration="underline" textLength="121" x="132" y="218.7207">of(String): SlicingRules</text><ellipse cx="123" cy="228.041" fill="#84BE84" rx="3" ry="3" style="stroke: #038048; stroke-width: 1.0;"/><text fill="#000000" font-family="sans-serif" font-size="11" lengthAdjust="spacingAndGlyphs" text-decoration="underline" textLength="110" x="132" y="231.6758">string(String): String</text><ellipse cx="123" cy="240.9961" fill="#84BE84" rx="3" ry="3" style="stroke: #038048; stroke-width: 1.0;"/><text fill="#000000" font-family="sans-serif" font-size="11" lengthAdjust="spacingAndGlyphs" text-decoration="underline" textLength="100" x="132" y="244.6309">code(String): Code</text><ellipse cx="123" cy="253.9512" fill="#84BE84" rx="3" ry="3" style="stroke: #038048; stroke-width: 1.0;"/><text fill="#000000" font-family="sans-serif" font-size="11" lengthAdjust="spacingAndGlyphs" textLength="99" x="132" y="257.5859">toBuilder(): Builder</text><ellipse cx="123" cy="266.9063" fill="#84BE84" rx="3" ry="3" style="stroke: #038048; stroke-width: 1.0;"/><text fill="#000000" font-family="sans-serif" font-size="11" lengthAdjust="spacingAndGlyphs" text-decoration="underline" textLength="89" x="132" y="270.541">builder(): Builder</text></a><!--MD5=[36277681a3d78580011ae89cb2088b30]
class com.ibm.fhir.model.type.Code--><a href="../Code.html" target="_top" title="../Code.html" xlink:actuate="onRequest" xlink:href="../Code.html" xlink:show="new" xlink:title="../Code.html" xlink:type="simple"><rect fill="#FEFECE" filter="url(#f12zo64x8lzyz6)" height="38.2656" id="com.ibm.fhir.model.type.Code" style="stroke: #A80036; stroke-width: 1.5;" width="150" x="125" y="8"/><ellipse cx="140" cy="27.1328" fill="#ADD1B2" rx="11" ry="11" style="stroke: #A80036; stroke-width: 1.0;"/><path d="M142.4731,33.2759 Q141.8921,33.5747 141.2529,33.7241 Q140.6138,33.8735 139.9082,33.8735 Q137.4014,33.8735 136.0815,32.2217 Q134.7617,30.5698 134.7617,27.4487 Q134.7617,24.3193 136.0815,22.6675 Q137.4014,21.0156 139.9082,21.0156 Q140.6138,21.0156 141.2612,21.165 Q141.9087,21.3145 142.4731,21.6133 L142.4731,24.3359 Q141.8423,23.7549 141.2488,23.4851 Q140.6553,23.2153 140.0244,23.2153 Q138.6797,23.2153 137.9949,24.282 Q137.3101,25.3486 137.3101,27.4487 Q137.3101,29.5405 137.9949,30.6072 Q138.6797,31.6738 140.0244,31.6738 Q140.6553,31.6738 141.2488,31.4041 Q141.8423,31.1343 142.4731,30.5532 Z "/><text fill="#000000" font-family="sans-serif" font-size="14" lengthAdjust="spacingAndGlyphs" textLength="36" x="195" y="26.5352">Code</text><text fill="#000000" font-family="sans-serif" font-size="10" lengthAdjust="spacingAndGlyphs" textLength="118" x="154" y="39.1563">com.ibm.fhir.model.type</text></a><!--MD5=[760f336b86f3b48ec2c2f0ddb209c21d]
class com.ibm.fhir.model.type.code.SlicingRules.Builder--><a href="SlicingRules.Builder.html" target="_top" title="SlicingRules.Builder.html" xlink:actuate="onRequest" xlink:href="SlicingRules.Builder.html" xlink:show="new" xlink:title="SlicingRules.Builder.html" xlink:type="simple"><rect fill="#FEFECE" filter="url(#f12zo64x8lzyz6)" height="38.2656" id="com.ibm.fhir.model.type.code.SlicingRules.Builder" style="stroke: #A80036; stroke-width: 1.5;" width="176" x="6" y="337"/><ellipse cx="21" cy="356.1328" fill="#ADD1B2" rx="11" ry="11" style="stroke: #A80036; stroke-width: 1.0;"/><path d="M23.4731,362.2759 Q22.8921,362.5747 22.2529,362.7241 Q21.6138,362.8735 20.9082,362.8735 Q18.4014,362.8735 17.0815,361.2217 Q15.7617,359.5698 15.7617,356.4487 Q15.7617,353.3193 17.0815,351.6675 Q18.4014,350.0156 20.9082,350.0156 Q21.6138,350.0156 22.2612,350.165 Q22.9087,350.3145 23.4731,350.6133 L23.4731,353.3359 Q22.8423,352.7549 22.2488,352.4851 Q21.6553,352.2153 21.0244,352.2153 Q19.6797,352.2153 18.9949,353.282 Q18.3101,354.3486 18.3101,356.4487 Q18.3101,358.5405 18.9949,359.6072 Q19.6797,360.6738 21.0244,360.6738 Q21.6553,360.6738 22.2488,360.4041 Q22.8423,360.1343 23.4731,359.5532 Z "/><text fill="#000000" font-family="sans-serif" font-size="14" lengthAdjust="spacingAndGlyphs" textLength="134" x="40" y="355.5352">SlicingRules.Builder</text><text fill="#000000" font-family="sans-serif" font-size="10" lengthAdjust="spacingAndGlyphs" textLength="144" x="35" y="368.1563">com.ibm.fhir.model.type.code</text></a><!--MD5=[bdc3f96ea567b14e7f3758305c1588e7]
class com.ibm.fhir.model.type.code.SlicingRules.ValueSet--><a href="SlicingRules.ValueSet.html" target="_top" title="SlicingRules.ValueSet.html" xlink:actuate="onRequest" xlink:href="SlicingRules.ValueSet.html" xlink:show="new" xlink:title="SlicingRules.ValueSet.html" xlink:type="simple"><rect fill="#FEFECE" filter="url(#f12zo64x8lzyz6)" height="38.2656" id="com.ibm.fhir.model.type.code.SlicingRules.ValueSet" style="stroke: #A80036; stroke-width: 1.5;" width="177" x="217.5" y="337"/><ellipse cx="232.5" cy="356.1328" fill="#EB937F" rx="11" ry="11" style="stroke: #A80036; stroke-width: 1.0;"/><path d="M236.1143,362.6328 L228.3945,362.6328 L228.3945,350.2397 L236.1143,350.2397 L236.1143,352.3979 L230.8433,352.3979 L230.8433,355.0708 L235.6162,355.0708 L235.6162,357.229 L230.8433,357.229 L230.8433,360.4746 L236.1143,360.4746 Z "/><text fill="#000000" font-family="sans-serif" font-size="14" lengthAdjust="spacingAndGlyphs" textLength="145" x="246.5" y="355.5352">SlicingRules.ValueSet</text><text fill="#000000" font-family="sans-serif" font-size="10" lengthAdjust="spacingAndGlyphs" textLength="144" x="247" y="368.1563">com.ibm.fhir.model.type.code</text></a><!--MD5=[2bd1bb34c3b6470b0f70d3f446e7f1ac]
reverse link com.ibm.fhir.model.type.Code to com.ibm.fhir.model.type.code.SlicingRules--><path d="M200,66.2489 C200,78.2923 200,92.047 200,105.9281 " fill="none" id="com.ibm.fhir.model.type.Code&lt;-com.ibm.fhir.model.type.code.SlicingRules" style="stroke: #A80036; stroke-width: 1.0;"/><polygon fill="none" points="193.0001,66.1922,200,46.1922,207.0001,66.1922,193.0001,66.1922" style="stroke: #A80036; stroke-width: 1.0;"/><!--MD5=[e72d151c299aaed9a9834810bc455928]
reverse link com.ibm.fhir.model.type.code.SlicingRules to com.ibm.fhir.model.type.code.SlicingRules.Builder--><path d="M136.5618,289.9489 C125.0428,307.8251 114.2087,324.6384 106.354,336.828 " fill="none" id="com.ibm.fhir.model.type.code.SlicingRules&lt;-com.ibm.fhir.model.type.code.SlicingRules.Builder" style="stroke: #A80036; stroke-width: 1.0;"/><ellipse cx="140.4934" cy="283.8475" fill="#FFFFFF" rx="8" ry="8" style="stroke: #A80036; stroke-width: 1.0;"/><line style="stroke: #A80036; stroke-width: 1.0;" x1="136.1601" x2="144.8267" y1="290.5722" y2="277.1227"/><line style="stroke: #A80036; stroke-width: 1.0;" x1="133.7686" x2="147.2182" y1="279.5142" y2="288.1808"/><!--MD5=[753ad5275309c468b210da571a0d8160]
reverse link com.ibm.fhir.model.type.code.SlicingRules to com.ibm.fhir.model.type.code.SlicingRules.ValueSet--><path d="M263.4382,289.9489 C274.9572,307.8251 285.7913,324.6384 293.646,336.828 " fill="none" id="com.ibm.fhir.model.type.code.SlicingRules&lt;-com.ibm.fhir.model.type.code.SlicingRules.ValueSet" style="stroke: #A80036; stroke-width: 1.0;"/><ellipse cx="259.5066" cy="283.8475" fill="#FFFFFF" rx="8" ry="8" style="stroke: #A80036; stroke-width: 1.0;"/><line style="stroke: #A80036; stroke-width: 1.0;" x1="263.8399" x2="255.1733" y1="290.5722" y2="277.1227"/><line style="stroke: #A80036; stroke-width: 1.0;" x1="252.7818" x2="266.2314" y1="288.1808" y2="279.5142"/><text fill="#888888" font-family="sans-serif" font-size="10" lengthAdjust="spacingAndGlyphs" textLength="182" x="115.5" y="394.668">UMLDoclet 2.0.7, PlantUML 1.2019.12</text><!--MD5=[745e859656c50f5f2261da093ec9fa49]
@startuml
    set namespaceSeparator none
    hide empty fields
    hide empty methods

    class "<size:14>SlicingRules\n<size:10>com.ibm.fhir.model.type.code" as com.ibm.fhir.model.type.code.SlicingRules [[SlicingRules.html]] {
        {static} +CLOSED: SlicingRules
        {static} +OPEN: SlicingRules
        {static} +OPEN_AT_END: SlicingRules
        {static} +of(ValueSet): SlicingRules
        {static} +of(String): SlicingRules
        {static} +string(String): String
        {static} +code(String): Code
        +toBuilder(): Builder
        {static} +builder(): Builder
    }

    class "<size:14>Code\n<size:10>com.ibm.fhir.model.type" as com.ibm.fhir.model.type.Code [[../Code.html]]
    class "<size:14>SlicingRules.Builder\n<size:10>com.ibm.fhir.model.type.code" as com.ibm.fhir.model.type.code.SlicingRules.Builder [[SlicingRules.Builder.html]]
    enum "<size:14>SlicingRules.ValueSet\n<size:10>com.ibm.fhir.model.type.code" as com.ibm.fhir.model.type.code.SlicingRules.ValueSet [[SlicingRules.ValueSet.html]]

    com.ibm.fhir.model.type.Code <|- - com.ibm.fhir.model.type.code.SlicingRules
    com.ibm.fhir.model.type.code.SlicingRules +- - com.ibm.fhir.model.type.code.SlicingRules.Builder
    com.ibm.fhir.model.type.code.SlicingRules +- - com.ibm.fhir.model.type.code.SlicingRules.ValueSet

    center footer UMLDoclet 2.0.7, PlantUML 1.2019.12
@enduml

PlantUML version 1.2019.12(Sun Nov 03 05:24:54 EST 2019)
(APACHE source distribution)
Java Runtime: OpenJDK Runtime Environment
JVM: OpenJDK 64-Bit Server VM
Java Version: 11.0.4+11
Operating System: Mac OS X
Default Encoding: UTF-8
Language: en
Country: US
--></g></svg>