<?xml version="1.0" encoding="UTF-8" standalone="no"?><svg xmlns="http://www.w3.org/2000/svg" xmlns:xlink="http://www.w3.org/1999/xlink" contentScriptType="application/ecmascript" contentStyleType="text/css" height="434px" preserveAspectRatio="none" style="width:631px;height:434px;" version="1.1" viewBox="0 0 631 434" width="631px" zoomAndPan="magnify"><defs><filter height="300%" id="fe6bmos23ar50" width="300%" x="-1" y="-1"><feGaussianBlur result="blurOut" stdDeviation="2.0"/><feColorMatrix in="blurOut" result="blurOut2" type="matrix" values="0 0 0 0 0 0 0 0 0 0 0 0 0 0 0 0 0 0 .4 0"/><feOffset dx="4.0" dy="4.0" in="blurOut2" result="blurOut3"/><feBlend in="SourceGraphic" in2="blurOut3" mode="normal"/></filter></defs><g><!--MD5=[7ffcc56d5a1e97c27a1c1d6fdeba71ee]
class com.ibm.fhir.model.type.code.StructureMapSourceListMode--><a href="StructureMapSourceListMode.html" target="_top" title="StructureMapSourceListMode.html" xlink:actuate="onRequest" xlink:href="StructureMapSourceListMode.html" xlink:show="new" xlink:title="StructureMapSourceListMode.html" xlink:type="simple"><rect fill="#FEFECE" filter="url(#fe6bmos23ar50)" height="196.7715" id="com.ibm.fhir.model.type.code.StructureMapSourceListMode" style="stroke: #A80036; stroke-width: 1.5;" width="253" x="183.5" y="106"/><ellipse cx="207.95" cy="125.1328" fill="#ADD1B2" rx="11" ry="11" style="stroke: #A80036; stroke-width: 1.0;"/><path d="M210.4231,131.2759 Q209.8421,131.5747 209.2029,131.7241 Q208.5638,131.8735 207.8582,131.8735 Q205.3514,131.8735 204.0315,130.2217 Q202.7117,128.5698 202.7117,125.4487 Q202.7117,122.3193 204.0315,120.6675 Q205.3514,119.0156 207.8582,119.0156 Q208.5638,119.0156 209.2112,119.165 Q209.8587,119.3145 210.4231,119.6133 L210.4231,122.3359 Q209.7923,121.7549 209.1988,121.4851 Q208.6053,121.2153 207.9744,121.2153 Q206.6297,121.2153 205.9449,122.282 Q205.2601,123.3486 205.2601,125.4487 Q205.2601,127.5405 205.9449,128.6072 Q206.6297,129.6738 207.9744,129.6738 Q208.6053,129.6738 209.1988,129.4041 Q209.7923,129.1343 210.4231,128.5532 Z "/><text fill="#000000" font-family="sans-serif" font-size="14" lengthAdjust="spacingAndGlyphs" textLength="200" x="224.05" y="124.5352">StructureMapSourceListMode</text><text fill="#000000" font-family="sans-serif" font-size="10" lengthAdjust="spacingAndGlyphs" textLength="144" x="252.05" y="137.1563">com.ibm.fhir.model.type.code</text><line style="stroke: #A80036; stroke-width: 1.5;" x1="184.5" x2="435.5" y1="144.2656" y2="144.2656"/><ellipse cx="194.5" cy="155.2656" fill="none" rx="3" ry="3" style="stroke: #038048; stroke-width: 1.0;"/><text fill="#000000" font-family="sans-serif" font-size="11" lengthAdjust="spacingAndGlyphs" text-decoration="underline" textLength="192" x="203.5" y="158.9004">FIRST: StructureMapSourceListMode</text><ellipse cx="194.5" cy="168.2207" fill="none" rx="3" ry="3" style="stroke: #038048; stroke-width: 1.0;"/><text fill="#000000" font-family="sans-serif" font-size="11" lengthAdjust="spacingAndGlyphs" text-decoration="underline" textLength="222" x="203.5" y="171.8555">NOT_FIRST: StructureMapSourceListMode</text><ellipse cx="194.5" cy="181.1758" fill="none" rx="3" ry="3" style="stroke: #038048; stroke-width: 1.0;"/><text fill="#000000" font-family="sans-serif" font-size="11" lengthAdjust="spacingAndGlyphs" text-decoration="underline" textLength="190" x="203.5" y="184.8105">LAST: StructureMapSourceListMode</text><ellipse cx="194.5" cy="194.1309" fill="none" rx="3" ry="3" style="stroke: #038048; stroke-width: 1.0;"/><text fill="#000000" font-family="sans-serif" font-size="11" lengthAdjust="spacingAndGlyphs" text-decoration="underline" textLength="220" x="203.5" y="197.7656">NOT_LAST: StructureMapSourceListMode</text><ellipse cx="194.5" cy="207.0859" fill="none" rx="3" ry="3" style="stroke: #038048; stroke-width: 1.0;"/><text fill="#000000" font-family="sans-serif" font-size="11" lengthAdjust="spacingAndGlyphs" text-decoration="underline" textLength="222" x="203.5" y="210.7207">ONLY_ONE: StructureMapSourceListMode</text><line style="stroke: #A80036; stroke-width: 1.5;" x1="184.5" x2="435.5" y1="217.041" y2="217.041"/><ellipse cx="194.5" cy="228.041" fill="#84BE84" rx="3" ry="3" style="stroke: #038048; stroke-width: 1.0;"/><text fill="#000000" font-family="sans-serif" font-size="11" lengthAdjust="spacingAndGlyphs" text-decoration="underline" textLength="227" x="203.5" y="231.6758">of(ValueSet): StructureMapSourceListMode</text><ellipse cx="194.5" cy="240.9961" fill="#84BE84" rx="3" ry="3" style="stroke: #038048; stroke-width: 1.0;"/><text fill="#000000" font-family="sans-serif" font-size="11" lengthAdjust="spacingAndGlyphs" text-decoration="underline" textLength="214" x="203.5" y="244.6309">of(String): StructureMapSourceListMode</text><ellipse cx="194.5" cy="253.9512" fill="#84BE84" rx="3" ry="3" style="stroke: #038048; stroke-width: 1.0;"/><text fill="#000000" font-family="sans-serif" font-size="11" lengthAdjust="spacingAndGlyphs" text-decoration="underline" textLength="110" x="203.5" y="257.5859">string(String): String</text><ellipse cx="194.5" cy="266.9063" fill="#84BE84" rx="3" ry="3" style="stroke: #038048; stroke-width: 1.0;"/><text fill="#000000" font-family="sans-serif" font-size="11" lengthAdjust="spacingAndGlyphs" text-decoration="underline" textLength="100" x="203.5" y="270.541">code(String): Code</text><ellipse cx="194.5" cy="279.8613" fill="#84BE84" rx="3" ry="3" style="stroke: #038048; stroke-width: 1.0;"/><text fill="#000000" font-family="sans-serif" font-size="11" lengthAdjust="spacingAndGlyphs" textLength="99" x="203.5" y="283.4961">toBuilder(): Builder</text><ellipse cx="194.5" cy="292.8164" fill="#84BE84" rx="3" ry="3" style="stroke: #038048; stroke-width: 1.0;"/><text fill="#000000" font-family="sans-serif" font-size="11" lengthAdjust="spacingAndGlyphs" text-decoration="underline" textLength="89" x="203.5" y="296.4512">builder(): Builder</text></a><!--MD5=[36277681a3d78580011ae89cb2088b30]
class com.ibm.fhir.model.type.Code--><a href="../Code.html" target="_top" title="../Code.html" xlink:actuate="onRequest" xlink:href="../Code.html" xlink:show="new" xlink:title="../Code.html" xlink:type="simple"><rect fill="#FEFECE" filter="url(#fe6bmos23ar50)" height="38.2656" id="com.ibm.fhir.model.type.Code" style="stroke: #A80036; stroke-width: 1.5;" width="150" x="235" y="8"/><ellipse cx="250" cy="27.1328" fill="#ADD1B2" rx="11" ry="11" style="stroke: #A80036; stroke-width: 1.0;"/><path d="M252.4731,33.2759 Q251.8921,33.5747 251.2529,33.7241 Q250.6138,33.8735 249.9082,33.8735 Q247.4014,33.8735 246.0815,32.2217 Q244.7617,30.5698 244.7617,27.4487 Q244.7617,24.3193 246.0815,22.6675 Q247.4014,21.0156 249.9082,21.0156 Q250.6138,21.0156 251.2612,21.165 Q251.9087,21.3145 252.4731,21.6133 L252.4731,24.3359 Q251.8423,23.7549 251.2488,23.4851 Q250.6553,23.2153 250.0244,23.2153 Q248.6797,23.2153 247.9949,24.282 Q247.3101,25.3486 247.3101,27.4487 Q247.3101,29.5405 247.9949,30.6072 Q248.6797,31.6738 250.0244,31.6738 Q250.6553,31.6738 251.2488,31.4041 Q251.8423,31.1343 252.4731,30.5532 Z "/><text fill="#000000" font-family="sans-serif" font-size="14" lengthAdjust="spacingAndGlyphs" textLength="36" x="305" y="26.5352">Code</text><text fill="#000000" font-family="sans-serif" font-size="10" lengthAdjust="spacingAndGlyphs" textLength="118" x="264" y="39.1563">com.ibm.fhir.model.type</text></a><!--MD5=[026837b2c0ada1da93381d4b79552ef5]
class com.ibm.fhir.model.type.code.StructureMapSourceListMode.Builder--><a href="StructureMapSourceListMode.Builder.html" target="_top" title="StructureMapSourceListMode.Builder.html" xlink:actuate="onRequest" xlink:href="StructureMapSourceListMode.Builder.html" xlink:show="new" xlink:title="StructureMapSourceListMode.Builder.html" xlink:type="simple"><rect fill="#FEFECE" filter="url(#fe6bmos23ar50)" height="38.2656" id="com.ibm.fhir.model.type.code.StructureMapSourceListMode.Builder" style="stroke: #A80036; stroke-width: 1.5;" width="284" x="6" y="363"/><ellipse cx="21" cy="382.1328" fill="#ADD1B2" rx="11" ry="11" style="stroke: #A80036; stroke-width: 1.0;"/><path d="M23.4731,388.2759 Q22.8921,388.5747 22.2529,388.7241 Q21.6138,388.8735 20.9082,388.8735 Q18.4014,388.8735 17.0815,387.2217 Q15.7617,385.5698 15.7617,382.4487 Q15.7617,379.3193 17.0815,377.6675 Q18.4014,376.0156 20.9082,376.0156 Q21.6138,376.0156 22.2612,376.165 Q22.9087,376.3145 23.4731,376.6133 L23.4731,379.3359 Q22.8423,378.7549 22.2488,378.4851 Q21.6553,378.2153 21.0244,378.2153 Q19.6797,378.2153 18.9949,379.282 Q18.3101,380.3486 18.3101,382.4487 Q18.3101,384.5405 18.9949,385.6072 Q19.6797,386.6738 21.0244,386.6738 Q21.6553,386.6738 22.2488,386.4041 Q22.8423,386.1343 23.4731,385.5532 Z "/><text fill="#000000" font-family="sans-serif" font-size="14" lengthAdjust="spacingAndGlyphs" textLength="252" x="35" y="381.5352">StructureMapSourceListMode.Builder</text><text fill="#000000" font-family="sans-serif" font-size="10" lengthAdjust="spacingAndGlyphs" textLength="144" x="89" y="394.1563">com.ibm.fhir.model.type.code</text></a><!--MD5=[c2f97c8f1b5d1fa60933d9e5e56a34df]
class com.ibm.fhir.model.type.code.StructureMapSourceListMode.ValueSet--><a href="StructureMapSourceListMode.ValueSet.html" target="_top" title="StructureMapSourceListMode.ValueSet.html" xlink:actuate="onRequest" xlink:href="StructureMapSourceListMode.ValueSet.html" xlink:show="new" xlink:title="StructureMapSourceListMode.ValueSet.html" xlink:type="simple"><rect fill="#FEFECE" filter="url(#fe6bmos23ar50)" height="38.2656" id="com.ibm.fhir.model.type.code.StructureMapSourceListMode.ValueSet" style="stroke: #A80036; stroke-width: 1.5;" width="295" x="325.5" y="363"/><ellipse cx="340.5" cy="382.1328" fill="#EB937F" rx="11" ry="11" style="stroke: #A80036; stroke-width: 1.0;"/><path d="M344.1143,388.6328 L336.3945,388.6328 L336.3945,376.2397 L344.1143,376.2397 L344.1143,378.3979 L338.8433,378.3979 L338.8433,381.0708 L343.6162,381.0708 L343.6162,383.229 L338.8433,383.229 L338.8433,386.4746 L344.1143,386.4746 Z "/><text fill="#000000" font-family="sans-serif" font-size="14" lengthAdjust="spacingAndGlyphs" textLength="263" x="354.5" y="381.5352">StructureMapSourceListMode.ValueSet</text><text fill="#000000" font-family="sans-serif" font-size="10" lengthAdjust="spacingAndGlyphs" textLength="144" x="414" y="394.1563">com.ibm.fhir.model.type.code</text></a><!--MD5=[c672b8f176944c8ff5394ce7ccf59383]
reverse link com.ibm.fhir.model.type.Code to com.ibm.fhir.model.type.code.StructureMapSourceListMode--><path d="M310,66.6337 C310,78.4685 310,92.0042 310,105.8655 " fill="none" id="com.ibm.fhir.model.type.Code&lt;-com.ibm.fhir.model.type.code.StructureMapSourceListMode" style="stroke: #A80036; stroke-width: 1.0;"/><polygon fill="none" points="303.0001,66.3335,310,46.3335,317.0001,66.3335,303.0001,66.3335" style="stroke: #A80036; stroke-width: 1.0;"/><!--MD5=[1baa0a335a7e88df007ea95d7c980dac]
reverse link com.ibm.fhir.model.type.code.StructureMapSourceListMode to com.ibm.fhir.model.type.code.StructureMapSourceListMode.Builder--><path d="M209.837,314.2465 C192.7721,332.9441 176.9111,350.3227 165.5257,362.7975 " fill="none" id="com.ibm.fhir.model.type.code.StructureMapSourceListMode&lt;-com.ibm.fhir.model.type.code.StructureMapSourceListMode.Builder" style="stroke: #A80036; stroke-width: 1.0;"/><ellipse cx="214.606" cy="309.0211" fill="#FFFFFF" rx="8" ry="8" style="stroke: #A80036; stroke-width: 1.0;"/><line style="stroke: #A80036; stroke-width: 1.0;" x1="209.213" x2="219.999" y1="314.9301" y2="303.1122"/><line style="stroke: #A80036; stroke-width: 1.0;" x1="208.6971" x2="220.515" y1="303.6282" y2="314.4141"/><!--MD5=[aac8b54f7f744bd5d2e24eddc8a70bbf]
reverse link com.ibm.fhir.model.type.code.StructureMapSourceListMode to com.ibm.fhir.model.type.code.StructureMapSourceListMode.ValueSet--><path d="M410.7813,314.2465 C427.9515,332.9441 443.9105,350.3227 455.3661,362.7975 " fill="none" id="com.ibm.fhir.model.type.code.StructureMapSourceListMode&lt;-com.ibm.fhir.model.type.code.StructureMapSourceListMode.ValueSet" style="stroke: #A80036; stroke-width: 1.0;"/><ellipse cx="405.9676" cy="309.0046" fill="#FFFFFF" rx="8" ry="8" style="stroke: #A80036; stroke-width: 1.0;"/><line style="stroke: #A80036; stroke-width: 1.0;" x1="411.3787" x2="400.5566" y1="314.897" y2="303.1122"/><line style="stroke: #A80036; stroke-width: 1.0;" x1="400.0752" x2="411.8601" y1="314.4157" y2="303.5936"/><text fill="#888888" font-family="sans-serif" font-size="10" lengthAdjust="spacingAndGlyphs" textLength="182" x="228.5" y="420.668">UMLDoclet 2.0.7, PlantUML 1.2019.12</text><!--MD5=[257cb7b137aba238d590016789ff31e8]
@startuml
    set namespaceSeparator none
    hide empty fields
    hide empty methods

    class "<size:14>StructureMapSourceListMode\n<size:10>com.ibm.fhir.model.type.code" as com.ibm.fhir.model.type.code.StructureMapSourceListMode [[StructureMapSourceListMode.html]] {
        {static} +FIRST: StructureMapSourceListMode
        {static} +NOT_FIRST: StructureMapSourceListMode
        {static} +LAST: StructureMapSourceListMode
        {static} +NOT_LAST: StructureMapSourceListMode
        {static} +ONLY_ONE: StructureMapSourceListMode
        {static} +of(ValueSet): StructureMapSourceListMode
        {static} +of(String): StructureMapSourceListMode
        {static} +string(String): String
        {static} +code(String): Code
        +toBuilder(): Builder
        {static} +builder(): Builder
    }

    class "<size:14>Code\n<size:10>com.ibm.fhir.model.type" as com.ibm.fhir.model.type.Code [[../Code.html]]
    class "<size:14>StructureMapSourceListMode.Builder\n<size:10>com.ibm.fhir.model.type.code" as com.ibm.fhir.model.type.code.StructureMapSourceListMode.Builder [[StructureMapSourceListMode.Builder.html]]
    enum "<size:14>StructureMapSourceListMode.ValueSet\n<size:10>com.ibm.fhir.model.type.code" as com.ibm.fhir.model.type.code.StructureMapSourceListMode.ValueSet [[StructureMapSourceListMode.ValueSet.html]]

    com.ibm.fhir.model.type.Code <|- - com.ibm.fhir.model.type.code.StructureMapSourceListMode
    com.ibm.fhir.model.type.code.StructureMapSourceListMode +- - com.ibm.fhir.model.type.code.StructureMapSourceListMode.Builder
    com.ibm.fhir.model.type.code.StructureMapSourceListMode +- - com.ibm.fhir.model.type.code.StructureMapSourceListMode.ValueSet

    center footer UMLDoclet 2.0.7, PlantUML 1.2019.12
@enduml

PlantUML version 1.2019.12(Sun Nov 03 05:24:54 EST 2019)
(APACHE source distribution)
Java Runtime: OpenJDK Runtime Environment
JVM: OpenJDK 64-Bit Server VM
Java Version: 11.0.4+11
Operating System: Mac OS X
Default Encoding: UTF-8
Language: en
Country: US
--></g></svg>