<?xml version="1.0" encoding="UTF-8" standalone="no"?><svg xmlns="http://www.w3.org/2000/svg" xmlns:xlink="http://www.w3.org/1999/xlink" contentScriptType="application/ecmascript" contentStyleType="text/css" height="263px" preserveAspectRatio="none" style="width:403px;height:263px;" version="1.1" viewBox="0 0 403 263" width="403px" zoomAndPan="magnify"><defs><filter height="300%" id="f1q2ur6fs9jhtc" width="300%" x="-1" y="-1"><feGaussianBlur result="blurOut" stdDeviation="2.0"/><feColorMatrix in="blurOut" result="blurOut2" type="matrix" values="0 0 0 0 0 0 0 0 0 0 0 0 0 0 0 0 0 0 .4 0"/><feOffset dx="4.0" dy="4.0" in="blurOut2" result="blurOut3"/><feBlend in="SourceGraphic" in2="blurOut3" mode="normal"/></filter></defs><g><!--MD5=[6e67b9bb6e190dd66546bbf1cc652c60]
class com.ibm.fhir.model.type.code.SystemRestfulInteraction.Builder--><a href="SystemRestfulInteraction.Builder.html" target="_top" title="SystemRestfulInteraction.Builder.html" xlink:actuate="onRequest" xlink:href="SystemRestfulInteraction.Builder.html" xlink:show="new" xlink:title="SystemRestfulInteraction.Builder.html" xlink:type="simple"><rect fill="#FEFECE" filter="url(#f1q2ur6fs9jhtc)" height="123.9961" id="com.ibm.fhir.model.type.code.SystemRestfulInteraction.Builder" style="stroke: #A80036; stroke-width: 1.5;" width="255" x="58.5" y="106"/><ellipse cx="74.4" cy="125.1328" fill="#ADD1B2" rx="11" ry="11" style="stroke: #A80036; stroke-width: 1.0;"/><path d="M76.8731,131.2759 Q76.2921,131.5747 75.6529,131.7241 Q75.0138,131.8735 74.3082,131.8735 Q71.8014,131.8735 70.4815,130.2217 Q69.1617,128.5698 69.1617,125.4487 Q69.1617,122.3193 70.4815,120.6675 Q71.8014,119.0156 74.3082,119.0156 Q75.0138,119.0156 75.6612,119.165 Q76.3087,119.3145 76.8731,119.6133 L76.8731,122.3359 Q76.2423,121.7549 75.6488,121.4851 Q75.0553,121.2153 74.4244,121.2153 Q73.0797,121.2153 72.3949,122.282 Q71.7101,123.3486 71.7101,125.4487 Q71.7101,127.5405 72.3949,128.6072 Q73.0797,129.6738 74.4244,129.6738 Q75.0553,129.6738 75.6488,129.4041 Q76.2423,129.1343 76.8731,128.5532 Z "/><text fill="#000000" font-family="sans-serif" font-size="14" lengthAdjust="spacingAndGlyphs" textLength="221" x="88.6" y="124.5352">SystemRestfulInteraction.Builder</text><text fill="#000000" font-family="sans-serif" font-size="10" lengthAdjust="spacingAndGlyphs" textLength="144" x="127.1" y="137.1563">com.ibm.fhir.model.type.code</text><line style="stroke: #A80036; stroke-width: 1.5;" x1="59.5" x2="312.5" y1="144.2656" y2="144.2656"/><ellipse cx="69.5" cy="155.2656" fill="#84BE84" rx="3" ry="3" style="stroke: #038048; stroke-width: 1.0;"/><text fill="#000000" font-family="sans-serif" font-size="11" lengthAdjust="spacingAndGlyphs" textLength="93" x="78.5" y="158.9004">id(String): Builder</text><ellipse cx="69.5" cy="168.2207" fill="#84BE84" rx="3" ry="3" style="stroke: #038048; stroke-width: 1.0;"/><text fill="#000000" font-family="sans-serif" font-size="11" lengthAdjust="spacingAndGlyphs" textLength="166" x="78.5" y="171.8555">extension(Extension...): Builder</text><ellipse cx="69.5" cy="181.1758" fill="#84BE84" rx="3" ry="3" style="stroke: #038048; stroke-width: 1.0;"/><text fill="#000000" font-family="sans-serif" font-size="11" lengthAdjust="spacingAndGlyphs" textLength="229" x="78.5" y="184.8105">extension(Collection&lt;Extension&gt;): Builder</text><ellipse cx="69.5" cy="194.1309" fill="#84BE84" rx="3" ry="3" style="stroke: #038048; stroke-width: 1.0;"/><text fill="#000000" font-family="sans-serif" font-size="11" lengthAdjust="spacingAndGlyphs" textLength="111" x="78.5" y="197.7656">value(String): Builder</text><ellipse cx="69.5" cy="207.0859" fill="#84BE84" rx="3" ry="3" style="stroke: #038048; stroke-width: 1.0;"/><text fill="#000000" font-family="sans-serif" font-size="11" lengthAdjust="spacingAndGlyphs" textLength="124" x="78.5" y="210.7207">value(ValueSet): Builder</text><ellipse cx="69.5" cy="220.041" fill="#84BE84" rx="3" ry="3" style="stroke: #038048; stroke-width: 1.0;"/><text fill="#000000" font-family="sans-serif" font-size="11" lengthAdjust="spacingAndGlyphs" textLength="174" x="78.5" y="223.6758">build(): SystemRestfulInteraction</text></a><!--MD5=[d58206fe609464c205fa3b8b97dbba54]
class com.ibm.fhir.model.type.Code.Builder--><a href="../Code.Builder.html" target="_top" title="../Code.Builder.html" xlink:actuate="onRequest" xlink:href="../Code.Builder.html" xlink:show="new" xlink:title="../Code.Builder.html" xlink:type="simple"><rect fill="#FEFECE" filter="url(#f1q2ur6fs9jhtc)" height="38.2656" id="com.ibm.fhir.model.type.Code.Builder" style="stroke: #A80036; stroke-width: 1.5;" width="150" x="6" y="8"/><ellipse cx="21" cy="27.1328" fill="#ADD1B2" rx="11" ry="11" style="stroke: #A80036; stroke-width: 1.0;"/><path d="M23.4731,33.2759 Q22.8921,33.5747 22.2529,33.7241 Q21.6138,33.8735 20.9082,33.8735 Q18.4014,33.8735 17.0815,32.2217 Q15.7617,30.5698 15.7617,27.4487 Q15.7617,24.3193 17.0815,22.6675 Q18.4014,21.0156 20.9082,21.0156 Q21.6138,21.0156 22.2612,21.165 Q22.9087,21.3145 23.4731,21.6133 L23.4731,24.3359 Q22.8423,23.7549 22.2488,23.4851 Q21.6553,23.2153 21.0244,23.2153 Q19.6797,23.2153 18.9949,24.282 Q18.3101,25.3486 18.3101,27.4487 Q18.3101,29.5405 18.9949,30.6072 Q19.6797,31.6738 21.0244,31.6738 Q21.6553,31.6738 22.2488,31.4041 Q22.8423,31.1343 23.4731,30.5532 Z "/><text fill="#000000" font-family="sans-serif" font-size="14" lengthAdjust="spacingAndGlyphs" textLength="88" x="50" y="26.5352">Code.Builder</text><text fill="#000000" font-family="sans-serif" font-size="10" lengthAdjust="spacingAndGlyphs" textLength="118" x="35" y="39.1563">com.ibm.fhir.model.type</text></a><!--MD5=[5ab03d497dd414337fce59d0324d0970]
class com.ibm.fhir.model.type.code.SystemRestfulInteraction--><a href="SystemRestfulInteraction.html" target="_top" title="SystemRestfulInteraction.html" xlink:actuate="onRequest" xlink:href="SystemRestfulInteraction.html" xlink:show="new" xlink:title="SystemRestfulInteraction.html" xlink:type="simple"><rect fill="#FEFECE" filter="url(#f1q2ur6fs9jhtc)" height="38.2656" id="com.ibm.fhir.model.type.code.SystemRestfulInteraction" style="stroke: #A80036; stroke-width: 1.5;" width="201" x="191.5" y="8"/><ellipse cx="206.5" cy="27.1328" fill="#ADD1B2" rx="11" ry="11" style="stroke: #A80036; stroke-width: 1.0;"/><path d="M208.9731,33.2759 Q208.3921,33.5747 207.7529,33.7241 Q207.1138,33.8735 206.4082,33.8735 Q203.9014,33.8735 202.5815,32.2217 Q201.2617,30.5698 201.2617,27.4487 Q201.2617,24.3193 202.5815,22.6675 Q203.9014,21.0156 206.4082,21.0156 Q207.1138,21.0156 207.7612,21.165 Q208.4087,21.3145 208.9731,21.6133 L208.9731,24.3359 Q208.3423,23.7549 207.7488,23.4851 Q207.1553,23.2153 206.5244,23.2153 Q205.1797,23.2153 204.4949,24.282 Q203.8101,25.3486 203.8101,27.4487 Q203.8101,29.5405 204.4949,30.6072 Q205.1797,31.6738 206.5244,31.6738 Q207.1553,31.6738 207.7488,31.4041 Q208.3423,31.1343 208.9731,30.5532 Z "/><text fill="#000000" font-family="sans-serif" font-size="14" lengthAdjust="spacingAndGlyphs" textLength="169" x="220.5" y="26.5352">SystemRestfulInteraction</text><text fill="#000000" font-family="sans-serif" font-size="10" lengthAdjust="spacingAndGlyphs" textLength="144" x="233" y="39.1563">com.ibm.fhir.model.type.code</text></a><!--MD5=[a5ed4cddb25b4f3e53463edea25a4d54]
reverse link com.ibm.fhir.model.type.Code.Builder to com.ibm.fhir.model.type.code.SystemRestfulInteraction.Builder--><path d="M107.3709,62.4123 C117.2117,75.6271 128.6965,91.0495 139.7998,105.9598 " fill="none" id="com.ibm.fhir.model.type.Code.Builder&lt;-com.ibm.fhir.model.type.code.SystemRestfulInteraction.Builder" style="stroke: #A80036; stroke-width: 1.0;"/><polygon fill="none" points="101.4918,66.2376,95.1608,46.0159,112.7204,57.8759,101.4918,66.2376" style="stroke: #A80036; stroke-width: 1.0;"/><!--MD5=[b61e82606f64ba0cf06b3ab011ab47be]
reverse link com.ibm.fhir.model.type.code.SystemRestfulInteraction to com.ibm.fhir.model.type.code.SystemRestfulInteraction.Builder--><path d="M268.3718,58.4299 C257.819,72.4671 244.9957,89.5246 232.6402,105.9598 " fill="none" id="com.ibm.fhir.model.type.code.SystemRestfulInteraction&lt;-com.ibm.fhir.model.type.code.SystemRestfulInteraction.Builder" style="stroke: #A80036; stroke-width: 1.0;"/><ellipse cx="272.8971" cy="52.4104" fill="#FFFFFF" rx="8" ry="8" style="stroke: #A80036; stroke-width: 1.0;"/><line style="stroke: #A80036; stroke-width: 1.0;" x1="268.0899" x2="277.7044" y1="58.805" y2="46.0159"/><line style="stroke: #A80036; stroke-width: 1.0;" x1="266.5026" x2="279.2917" y1="47.6032" y2="57.2177"/><text fill="#888888" font-family="sans-serif" font-size="10" lengthAdjust="spacingAndGlyphs" textLength="182" x="114.5" y="249.668">UMLDoclet 2.0.7, PlantUML 1.2019.12</text><!--MD5=[6bd2e135b533e28f409521f0a41f2fa4]
@startuml
    set namespaceSeparator none
    hide empty fields
    hide empty methods

    class "<size:14>SystemRestfulInteraction.Builder\n<size:10>com.ibm.fhir.model.type.code" as com.ibm.fhir.model.type.code.SystemRestfulInteraction.Builder [[SystemRestfulInteraction.Builder.html]] {
        +id(String): Builder
        +extension(Extension...): Builder
        +extension(Collection<Extension>): Builder
        +value(String): Builder
        +value(ValueSet): Builder
        +build(): SystemRestfulInteraction
    }

    class "<size:14>Code.Builder\n<size:10>com.ibm.fhir.model.type" as com.ibm.fhir.model.type.Code.Builder [[../Code.Builder.html]]
    class "<size:14>SystemRestfulInteraction\n<size:10>com.ibm.fhir.model.type.code" as com.ibm.fhir.model.type.code.SystemRestfulInteraction [[SystemRestfulInteraction.html]]

    com.ibm.fhir.model.type.Code.Builder <|- - com.ibm.fhir.model.type.code.SystemRestfulInteraction.Builder
    com.ibm.fhir.model.type.code.SystemRestfulInteraction +- - com.ibm.fhir.model.type.code.SystemRestfulInteraction.Builder

    center footer UMLDoclet 2.0.7, PlantUML 1.2019.12
@enduml

PlantUML version 1.2019.12(Sun Nov 03 05:24:54 EST 2019)
(APACHE source distribution)
Java Runtime: OpenJDK Runtime Environment
JVM: OpenJDK 64-Bit Server VM
Java Version: 11.0.4+11
Operating System: Mac OS X
Default Encoding: UTF-8
Language: en
Country: US
--></g></svg>