<?xml version="1.0" encoding="UTF-8" standalone="no"?><svg xmlns="http://www.w3.org/2000/svg" xmlns:xlink="http://www.w3.org/1999/xlink" contentScriptType="application/ecmascript" contentStyleType="text/css" height="395px" preserveAspectRatio="none" style="width:497px;height:395px;" version="1.1" viewBox="0 0 497 395" width="497px" zoomAndPan="magnify"><defs><filter height="300%" id="f1xiz01y0r99jm" width="300%" x="-1" y="-1"><feGaussianBlur result="blurOut" stdDeviation="2.0"/><feColorMatrix in="blurOut" result="blurOut2" type="matrix" values="0 0 0 0 0 0 0 0 0 0 0 0 0 0 0 0 0 0 .4 0"/><feOffset dx="4.0" dy="4.0" in="blurOut2" result="blurOut3"/><feBlend in="SourceGraphic" in2="blurOut3" mode="normal"/></filter></defs><g><!--MD5=[c9c31f02a6ac67800ccb8afd0d14e23e]
class com.ibm.fhir.model.type.code.TypeDerivationRule--><a href="TypeDerivationRule.html" target="_top" title="TypeDerivationRule.html" xlink:actuate="onRequest" xlink:href="TypeDerivationRule.html" xlink:show="new" xlink:title="TypeDerivationRule.html" xlink:type="simple"><rect fill="#FEFECE" filter="url(#f1xiz01y0r99jm)" height="157.9063" id="com.ibm.fhir.model.type.code.TypeDerivationRule" style="stroke: #A80036; stroke-width: 1.5;" width="224" x="131.5" y="106"/><ellipse cx="168.1" cy="125.1328" fill="#ADD1B2" rx="11" ry="11" style="stroke: #A80036; stroke-width: 1.0;"/><path d="M170.5731,131.2759 Q169.9921,131.5747 169.3529,131.7241 Q168.7138,131.8735 168.0082,131.8735 Q165.5014,131.8735 164.1815,130.2217 Q162.8617,128.5698 162.8617,125.4487 Q162.8617,122.3193 164.1815,120.6675 Q165.5014,119.0156 168.0082,119.0156 Q168.7138,119.0156 169.3612,119.165 Q170.0087,119.3145 170.5731,119.6133 L170.5731,122.3359 Q169.9423,121.7549 169.3488,121.4851 Q168.7553,121.2153 168.1244,121.2153 Q166.7797,121.2153 166.0949,122.282 Q165.4101,123.3486 165.4101,125.4487 Q165.4101,127.5405 166.0949,128.6072 Q166.7797,129.6738 168.1244,129.6738 Q168.7553,129.6738 169.3488,129.4041 Q169.9423,129.1343 170.5731,128.5532 Z "/><text fill="#000000" font-family="sans-serif" font-size="14" lengthAdjust="spacingAndGlyphs" textLength="133" x="192.4" y="124.5352">TypeDerivationRule</text><text fill="#000000" font-family="sans-serif" font-size="10" lengthAdjust="spacingAndGlyphs" textLength="144" x="186.9" y="137.1563">com.ibm.fhir.model.type.code</text><line style="stroke: #A80036; stroke-width: 1.5;" x1="132.5" x2="354.5" y1="144.2656" y2="144.2656"/><ellipse cx="142.5" cy="155.2656" fill="none" rx="3" ry="3" style="stroke: #038048; stroke-width: 1.0;"/><text fill="#000000" font-family="sans-serif" font-size="11" lengthAdjust="spacingAndGlyphs" text-decoration="underline" textLength="198" x="151.5" y="158.9004">SPECIALIZATION: TypeDerivationRule</text><ellipse cx="142.5" cy="168.2207" fill="none" rx="3" ry="3" style="stroke: #038048; stroke-width: 1.0;"/><text fill="#000000" font-family="sans-serif" font-size="11" lengthAdjust="spacingAndGlyphs" text-decoration="underline" textLength="181" x="151.5" y="171.8555">CONSTRAINT: TypeDerivationRule</text><line style="stroke: #A80036; stroke-width: 1.5;" x1="132.5" x2="354.5" y1="178.1758" y2="178.1758"/><ellipse cx="142.5" cy="189.1758" fill="#84BE84" rx="3" ry="3" style="stroke: #038048; stroke-width: 1.0;"/><text fill="#000000" font-family="sans-serif" font-size="11" lengthAdjust="spacingAndGlyphs" text-decoration="underline" textLength="174" x="151.5" y="192.8105">of(ValueSet): TypeDerivationRule</text><ellipse cx="142.5" cy="202.1309" fill="#84BE84" rx="3" ry="3" style="stroke: #038048; stroke-width: 1.0;"/><text fill="#000000" font-family="sans-serif" font-size="11" lengthAdjust="spacingAndGlyphs" text-decoration="underline" textLength="161" x="151.5" y="205.7656">of(String): TypeDerivationRule</text><ellipse cx="142.5" cy="215.0859" fill="#84BE84" rx="3" ry="3" style="stroke: #038048; stroke-width: 1.0;"/><text fill="#000000" font-family="sans-serif" font-size="11" lengthAdjust="spacingAndGlyphs" text-decoration="underline" textLength="110" x="151.5" y="218.7207">string(String): String</text><ellipse cx="142.5" cy="228.041" fill="#84BE84" rx="3" ry="3" style="stroke: #038048; stroke-width: 1.0;"/><text fill="#000000" font-family="sans-serif" font-size="11" lengthAdjust="spacingAndGlyphs" text-decoration="underline" textLength="100" x="151.5" y="231.6758">code(String): Code</text><ellipse cx="142.5" cy="240.9961" fill="#84BE84" rx="3" ry="3" style="stroke: #038048; stroke-width: 1.0;"/><text fill="#000000" font-family="sans-serif" font-size="11" lengthAdjust="spacingAndGlyphs" textLength="99" x="151.5" y="244.6309">toBuilder(): Builder</text><ellipse cx="142.5" cy="253.9512" fill="#84BE84" rx="3" ry="3" style="stroke: #038048; stroke-width: 1.0;"/><text fill="#000000" font-family="sans-serif" font-size="11" lengthAdjust="spacingAndGlyphs" text-decoration="underline" textLength="89" x="151.5" y="257.5859">builder(): Builder</text></a><!--MD5=[36277681a3d78580011ae89cb2088b30]
class com.ibm.fhir.model.type.Code--><a href="../Code.html" target="_top" title="../Code.html" xlink:actuate="onRequest" xlink:href="../Code.html" xlink:show="new" xlink:title="../Code.html" xlink:type="simple"><rect fill="#FEFECE" filter="url(#f1xiz01y0r99jm)" height="38.2656" id="com.ibm.fhir.model.type.Code" style="stroke: #A80036; stroke-width: 1.5;" width="150" x="168.5" y="8"/><ellipse cx="183.5" cy="27.1328" fill="#ADD1B2" rx="11" ry="11" style="stroke: #A80036; stroke-width: 1.0;"/><path d="M185.9731,33.2759 Q185.3921,33.5747 184.7529,33.7241 Q184.1138,33.8735 183.4082,33.8735 Q180.9014,33.8735 179.5815,32.2217 Q178.2617,30.5698 178.2617,27.4487 Q178.2617,24.3193 179.5815,22.6675 Q180.9014,21.0156 183.4082,21.0156 Q184.1138,21.0156 184.7612,21.165 Q185.4087,21.3145 185.9731,21.6133 L185.9731,24.3359 Q185.3423,23.7549 184.7488,23.4851 Q184.1553,23.2153 183.5244,23.2153 Q182.1797,23.2153 181.4949,24.282 Q180.8101,25.3486 180.8101,27.4487 Q180.8101,29.5405 181.4949,30.6072 Q182.1797,31.6738 183.5244,31.6738 Q184.1553,31.6738 184.7488,31.4041 Q185.3423,31.1343 185.9731,30.5532 Z "/><text fill="#000000" font-family="sans-serif" font-size="14" lengthAdjust="spacingAndGlyphs" textLength="36" x="238.5" y="26.5352">Code</text><text fill="#000000" font-family="sans-serif" font-size="10" lengthAdjust="spacingAndGlyphs" textLength="118" x="197.5" y="39.1563">com.ibm.fhir.model.type</text></a><!--MD5=[767473f585bbc9f651cc18c6c13572d3]
class com.ibm.fhir.model.type.code.TypeDerivationRule.Builder--><a href="TypeDerivationRule.Builder.html" target="_top" title="TypeDerivationRule.Builder.html" xlink:actuate="onRequest" xlink:href="TypeDerivationRule.Builder.html" xlink:show="new" xlink:title="TypeDerivationRule.Builder.html" xlink:type="simple"><rect fill="#FEFECE" filter="url(#f1xiz01y0r99jm)" height="38.2656" id="com.ibm.fhir.model.type.code.TypeDerivationRule.Builder" style="stroke: #A80036; stroke-width: 1.5;" width="217" x="6" y="324"/><ellipse cx="21" cy="343.1328" fill="#ADD1B2" rx="11" ry="11" style="stroke: #A80036; stroke-width: 1.0;"/><path d="M23.4731,349.2759 Q22.8921,349.5747 22.2529,349.7241 Q21.6138,349.8735 20.9082,349.8735 Q18.4014,349.8735 17.0815,348.2217 Q15.7617,346.5698 15.7617,343.4487 Q15.7617,340.3193 17.0815,338.6675 Q18.4014,337.0156 20.9082,337.0156 Q21.6138,337.0156 22.2612,337.165 Q22.9087,337.3145 23.4731,337.6133 L23.4731,340.3359 Q22.8423,339.7549 22.2488,339.4851 Q21.6553,339.2153 21.0244,339.2153 Q19.6797,339.2153 18.9949,340.282 Q18.3101,341.3486 18.3101,343.4487 Q18.3101,345.5405 18.9949,346.6072 Q19.6797,347.6738 21.0244,347.6738 Q21.6553,347.6738 22.2488,347.4041 Q22.8423,347.1343 23.4731,346.5532 Z "/><text fill="#000000" font-family="sans-serif" font-size="14" lengthAdjust="spacingAndGlyphs" textLength="185" x="35" y="342.5352">TypeDerivationRule.Builder</text><text fill="#000000" font-family="sans-serif" font-size="10" lengthAdjust="spacingAndGlyphs" textLength="144" x="55.5" y="355.1563">com.ibm.fhir.model.type.code</text></a><!--MD5=[8dc7555d3a2e0a2be662d86da446de26]
class com.ibm.fhir.model.type.code.TypeDerivationRule.ValueSet--><a href="TypeDerivationRule.ValueSet.html" target="_top" title="TypeDerivationRule.ValueSet.html" xlink:actuate="onRequest" xlink:href="TypeDerivationRule.ValueSet.html" xlink:show="new" xlink:title="TypeDerivationRule.ValueSet.html" xlink:type="simple"><rect fill="#FEFECE" filter="url(#f1xiz01y0r99jm)" height="38.2656" id="com.ibm.fhir.model.type.code.TypeDerivationRule.ValueSet" style="stroke: #A80036; stroke-width: 1.5;" width="228" x="258.5" y="324"/><ellipse cx="273.5" cy="343.1328" fill="#EB937F" rx="11" ry="11" style="stroke: #A80036; stroke-width: 1.0;"/><path d="M277.1143,349.6328 L269.3945,349.6328 L269.3945,337.2397 L277.1143,337.2397 L277.1143,339.3979 L271.8433,339.3979 L271.8433,342.0708 L276.6162,342.0708 L276.6162,344.229 L271.8433,344.229 L271.8433,347.4746 L277.1143,347.4746 Z "/><text fill="#000000" font-family="sans-serif" font-size="14" lengthAdjust="spacingAndGlyphs" textLength="196" x="287.5" y="342.5352">TypeDerivationRule.ValueSet</text><text fill="#000000" font-family="sans-serif" font-size="10" lengthAdjust="spacingAndGlyphs" textLength="144" x="313.5" y="355.1563">com.ibm.fhir.model.type.code</text></a><!--MD5=[3eb6e69a8aff93e12c48788d06ced73d]
reverse link com.ibm.fhir.model.type.Code to com.ibm.fhir.model.type.code.TypeDerivationRule--><path d="M243.5,66.2457 C243.5,78.356 243.5,92.1521 243.5,105.9503 " fill="none" id="com.ibm.fhir.model.type.Code&lt;-com.ibm.fhir.model.type.code.TypeDerivationRule" style="stroke: #A80036; stroke-width: 1.0;"/><polygon fill="none" points="236.5001,66.0585,243.5,46.0585,250.5001,66.0585,236.5001,66.0585" style="stroke: #A80036; stroke-width: 1.0;"/><!--MD5=[d8fd63b413ebe0f58e2d5c37c56ca42f]
reverse link com.ibm.fhir.model.type.code.TypeDerivationRule to com.ibm.fhir.model.type.code.TypeDerivationRule.Builder--><path d="M169.1277,276.0916 C154.3904,294.1419 140.3574,311.3296 130.2051,323.7643 " fill="none" id="com.ibm.fhir.model.type.code.TypeDerivationRule&lt;-com.ibm.fhir.model.type.code.TypeDerivationRule.Builder" style="stroke: #A80036; stroke-width: 1.0;"/><ellipse cx="173.5626" cy="270.6598" fill="#FFFFFF" rx="8" ry="8" style="stroke: #A80036; stroke-width: 1.0;"/><line style="stroke: #A80036; stroke-width: 1.0;" x1="168.5031" x2="178.6221" y1="276.8567" y2="264.4629"/><line style="stroke: #A80036; stroke-width: 1.0;" x1="167.3657" x2="179.7595" y1="265.6003" y2="275.7193"/><!--MD5=[a754cc59fea9ff9272c597d5c8c0320e]
reverse link com.ibm.fhir.model.type.code.TypeDerivationRule to com.ibm.fhir.model.type.code.TypeDerivationRule.ValueSet--><path d="M317.8723,276.0916 C332.6096,294.1419 346.6426,311.3296 356.7949,323.7643 " fill="none" id="com.ibm.fhir.model.type.code.TypeDerivationRule&lt;-com.ibm.fhir.model.type.code.TypeDerivationRule.ValueSet" style="stroke: #A80036; stroke-width: 1.0;"/><ellipse cx="313.4374" cy="270.6598" fill="#FFFFFF" rx="8" ry="8" style="stroke: #A80036; stroke-width: 1.0;"/><line style="stroke: #A80036; stroke-width: 1.0;" x1="318.4969" x2="308.3779" y1="276.8567" y2="264.4629"/><line style="stroke: #A80036; stroke-width: 1.0;" x1="307.2405" x2="319.6343" y1="275.7193" y2="265.6003"/><text fill="#888888" font-family="sans-serif" font-size="10" lengthAdjust="spacingAndGlyphs" textLength="182" x="161.5" y="381.668">UMLDoclet 2.0.7, PlantUML 1.2019.12</text><!--MD5=[6219ff25948181e951fe16dd9da08817]
@startuml
    set namespaceSeparator none
    hide empty fields
    hide empty methods

    class "<size:14>TypeDerivationRule\n<size:10>com.ibm.fhir.model.type.code" as com.ibm.fhir.model.type.code.TypeDerivationRule [[TypeDerivationRule.html]] {
        {static} +SPECIALIZATION: TypeDerivationRule
        {static} +CONSTRAINT: TypeDerivationRule
        {static} +of(ValueSet): TypeDerivationRule
        {static} +of(String): TypeDerivationRule
        {static} +string(String): String
        {static} +code(String): Code
        +toBuilder(): Builder
        {static} +builder(): Builder
    }

    class "<size:14>Code\n<size:10>com.ibm.fhir.model.type" as com.ibm.fhir.model.type.Code [[../Code.html]]
    class "<size:14>TypeDerivationRule.Builder\n<size:10>com.ibm.fhir.model.type.code" as com.ibm.fhir.model.type.code.TypeDerivationRule.Builder [[TypeDerivationRule.Builder.html]]
    enum "<size:14>TypeDerivationRule.ValueSet\n<size:10>com.ibm.fhir.model.type.code" as com.ibm.fhir.model.type.code.TypeDerivationRule.ValueSet [[TypeDerivationRule.ValueSet.html]]

    com.ibm.fhir.model.type.Code <|- - com.ibm.fhir.model.type.code.TypeDerivationRule
    com.ibm.fhir.model.type.code.TypeDerivationRule +- - com.ibm.fhir.model.type.code.TypeDerivationRule.Builder
    com.ibm.fhir.model.type.code.TypeDerivationRule +- - com.ibm.fhir.model.type.code.TypeDerivationRule.ValueSet

    center footer UMLDoclet 2.0.7, PlantUML 1.2019.12
@enduml

PlantUML version 1.2019.12(Sun Nov 03 05:24:54 EST 2019)
(APACHE source distribution)
Java Runtime: OpenJDK Runtime Environment
JVM: OpenJDK 64-Bit Server VM
Java Version: 11.0.4+11
Operating System: Mac OS X
Default Encoding: UTF-8
Language: en
Country: US
--></g></svg>