<?xml version="1.0" encoding="UTF-8" standalone="no"?><svg xmlns="http://www.w3.org/2000/svg" xmlns:xlink="http://www.w3.org/1999/xlink" contentScriptType="application/ecmascript" contentStyleType="text/css" height="391px" preserveAspectRatio="none" style="width:729px;height:391px;" version="1.1" viewBox="0 0 729 391" width="729px" zoomAndPan="magnify"><defs><filter height="300%" id="f8j1ynzhe28kn" width="300%" x="-1" y="-1"><feGaussianBlur result="blurOut" stdDeviation="2.0"/><feColorMatrix in="blurOut" result="blurOut2" type="matrix" values="0 0 0 0 0 0 0 0 0 0 0 0 0 0 0 0 0 0 .4 0"/><feOffset dx="4.0" dy="4.0" in="blurOut2" result="blurOut3"/><feBlend in="SourceGraphic" in2="blurOut3" mode="normal"/></filter></defs><g><!--MD5=[9208ba51d975530d7c17621af5fdc2df]
cluster com.ibm.fhir.model.parser--><polygon fill="#FFFFFF" filter="url(#f8j1ynzhe28kn)" points="14,16,206,16,213,38.4883,707,38.4883,707,350,14,350,14,16" style="stroke: #000000; stroke-width: 1.5;"/><line style="stroke: #000000; stroke-width: 1.5;" x1="14" x2="213" y1="38.4883" y2="38.4883"/><text fill="#000000" font-family="sans-serif" font-size="14" font-weight="bold" lengthAdjust="spacingAndGlyphs" textLength="186" x="18" y="31.5352">com.ibm.fhir.model.parser</text><!--MD5=[bacbfedaaed44a19eefeb3d772d1d960]
class com.ibm.fhir.model.parser.FHIRJsonParser--><a href="FHIRJsonParser.html" target="_top" title="FHIRJsonParser.html" xlink:actuate="onRequest" xlink:href="FHIRJsonParser.html" xlink:show="new" xlink:title="FHIRJsonParser.html" xlink:type="simple"><rect fill="#FEFECE" filter="url(#f8j1ynzhe28kn)" height="138.6855" id="com.ibm.fhir.model.parser.FHIRJsonParser" style="stroke: #A80036; stroke-width: 1.5;" width="400" x="22" y="203"/><ellipse cx="174.25" cy="219" fill="#ADD1B2" rx="11" ry="11" style="stroke: #A80036; stroke-width: 1.0;"/><path d="M176.7231,225.1431 Q176.1421,225.4419 175.5029,225.5913 Q174.8638,225.7407 174.1582,225.7407 Q171.6514,225.7407 170.3315,224.0889 Q169.0117,222.437 169.0117,219.3159 Q169.0117,216.1865 170.3315,214.5347 Q171.6514,212.8828 174.1582,212.8828 Q174.8638,212.8828 175.5112,213.0322 Q176.1587,213.1816 176.7231,213.4805 L176.7231,216.2031 Q176.0923,215.6221 175.4988,215.3523 Q174.9053,215.0825 174.2744,215.0825 Q172.9297,215.0825 172.2449,216.1492 Q171.5601,217.2158 171.5601,219.3159 Q171.5601,221.4077 172.2449,222.4744 Q172.9297,223.541 174.2744,223.541 Q174.9053,223.541 175.4988,223.2712 Q176.0923,223.0015 176.7231,222.4204 Z "/><text fill="#000000" font-family="sans-serif" font-size="12" lengthAdjust="spacingAndGlyphs" textLength="87" x="194.75" y="223.5352">FHIRJsonParser</text><line style="stroke: #A80036; stroke-width: 1.5;" x1="23" x2="421" y1="235" y2="235"/><ellipse cx="33" cy="246" fill="none" rx="3" ry="3" style="stroke: #038048; stroke-width: 1.0;"/><text fill="#000000" font-family="sans-serif" font-size="11" lengthAdjust="spacingAndGlyphs" text-decoration="underline" textLength="85" x="42" y="249.6348">DEBUG: boolean</text><line style="stroke: #A80036; stroke-width: 1.5;" x1="23" x2="421" y1="255.9551" y2="255.9551"/><ellipse cx="33" cy="266.9551" fill="#84BE84" rx="3" ry="3" style="stroke: #038048; stroke-width: 1.0;"/><text fill="#000000" font-family="sans-serif" font-size="11" lengthAdjust="spacingAndGlyphs" textLength="215" x="42" y="270.5898">parse(InputStream): T extends Resource</text><ellipse cx="33" cy="279.9102" fill="#84BE84" rx="3" ry="3" style="stroke: #038048; stroke-width: 1.0;"/><text fill="#000000" font-family="sans-serif" font-size="11" lengthAdjust="spacingAndGlyphs" textLength="374" x="42" y="283.5449">parseAndFilter(InputStream, Collection&lt;String&gt;): T extends Resource</text><ellipse cx="33" cy="292.8652" fill="#84BE84" rx="3" ry="3" style="stroke: #038048; stroke-width: 1.0;"/><text fill="#000000" font-family="sans-serif" font-size="11" lengthAdjust="spacingAndGlyphs" textLength="187" x="42" y="296.5">parse(Reader): T extends Resource</text><ellipse cx="33" cy="305.8203" fill="#84BE84" rx="3" ry="3" style="stroke: #038048; stroke-width: 1.0;"/><text fill="#000000" font-family="sans-serif" font-size="11" lengthAdjust="spacingAndGlyphs" textLength="346" x="42" y="309.4551">parseAndFilter(Reader, Collection&lt;String&gt;): T extends Resource</text><ellipse cx="33" cy="318.7754" fill="#84BE84" rx="3" ry="3" style="stroke: #038048; stroke-width: 1.0;"/><text fill="#000000" font-family="sans-serif" font-size="11" lengthAdjust="spacingAndGlyphs" textLength="208" x="42" y="322.4102">parse(JsonObject): T extends Resource</text><ellipse cx="33" cy="331.7305" fill="#84BE84" rx="3" ry="3" style="stroke: #038048; stroke-width: 1.0;"/><text fill="#000000" font-family="sans-serif" font-size="11" lengthAdjust="spacingAndGlyphs" textLength="367" x="42" y="335.3652">parseAndFilter(JsonObject, Collection&lt;String&gt;): T extends Resource</text></a><!--MD5=[cb6cfcae4daa6d50d00ea57637591eb3]
class com.ibm.fhir.model.parser.FHIRXMLParser--><a href="FHIRXMLParser.html" target="_top" title="FHIRXMLParser.html" xlink:actuate="onRequest" xlink:href="FHIRXMLParser.html" xlink:show="new" xlink:title="FHIRXMLParser.html" xlink:type="simple"><rect fill="#FEFECE" filter="url(#f8j1ynzhe28kn)" height="86.8652" id="com.ibm.fhir.model.parser.FHIRXMLParser" style="stroke: #A80036; stroke-width: 1.5;" width="241" x="457.5" y="229"/><ellipse cx="530.25" cy="245" fill="#ADD1B2" rx="11" ry="11" style="stroke: #A80036; stroke-width: 1.0;"/><path d="M532.7231,251.1431 Q532.1421,251.4419 531.5029,251.5913 Q530.8638,251.7407 530.1582,251.7407 Q527.6514,251.7407 526.3315,250.0889 Q525.0117,248.437 525.0117,245.3159 Q525.0117,242.1865 526.3315,240.5347 Q527.6514,238.8828 530.1582,238.8828 Q530.8638,238.8828 531.5112,239.0322 Q532.1587,239.1816 532.7231,239.4805 L532.7231,242.2031 Q532.0923,241.6221 531.4988,241.3523 Q530.9053,241.0825 530.2744,241.0825 Q528.9297,241.0825 528.2449,242.1492 Q527.5601,243.2158 527.5601,245.3159 Q527.5601,247.4077 528.2449,248.4744 Q528.9297,249.541 530.2744,249.541 Q530.9053,249.541 531.4988,249.2712 Q532.0923,249.0015 532.7231,248.4204 Z "/><text fill="#000000" font-family="sans-serif" font-size="12" lengthAdjust="spacingAndGlyphs" textLength="87" x="550.75" y="249.5352">FHIRXMLParser</text><line style="stroke: #A80036; stroke-width: 1.5;" x1="458.5" x2="697.5" y1="261" y2="261"/><ellipse cx="468.5" cy="272" fill="none" rx="3" ry="3" style="stroke: #038048; stroke-width: 1.0;"/><text fill="#000000" font-family="sans-serif" font-size="11" lengthAdjust="spacingAndGlyphs" text-decoration="underline" textLength="85" x="477.5" y="275.6348">DEBUG: boolean</text><line style="stroke: #A80036; stroke-width: 1.5;" x1="458.5" x2="697.5" y1="281.9551" y2="281.9551"/><ellipse cx="468.5" cy="292.9551" fill="#84BE84" rx="3" ry="3" style="stroke: #038048; stroke-width: 1.0;"/><text fill="#000000" font-family="sans-serif" font-size="11" lengthAdjust="spacingAndGlyphs" textLength="215" x="477.5" y="296.5898">parse(InputStream): T extends Resource</text><ellipse cx="468.5" cy="305.9102" fill="#84BE84" rx="3" ry="3" style="stroke: #038048; stroke-width: 1.0;"/><text fill="#000000" font-family="sans-serif" font-size="11" lengthAdjust="spacingAndGlyphs" textLength="187" x="477.5" y="309.5449">parse(Reader): T extends Resource</text></a><!--MD5=[44060ff00f4ee319002a97814c375ecc]
class com.ibm.fhir.model.parser.FHIRParser--><a href="FHIRParser.html" target="_top" title="FHIRParser.html" xlink:actuate="onRequest" xlink:href="FHIRParser.html" xlink:show="new" xlink:title="FHIRParser.html" xlink:type="simple"><rect fill="#FEFECE" filter="url(#f8j1ynzhe28kn)" height="99.8203" id="com.ibm.fhir.model.parser.FHIRParser" style="stroke: #A80036; stroke-width: 1.5;" width="327" x="214.5" y="43"/><ellipse cx="342.25" cy="59" fill="#B4A7E5" rx="11" ry="11" style="stroke: #A80036; stroke-width: 1.0;"/><path d="M338.6777,55.2651 L338.6777,53.1069 L346.0571,53.1069 L346.0571,55.2651 L343.5918,55.2651 L343.5918,63.3418 L346.0571,63.3418 L346.0571,65.5 L338.6777,65.5 L338.6777,63.3418 L341.1431,63.3418 L341.1431,55.2651 Z "/><text fill="#000000" font-family="sans-serif" font-size="12" font-style="italic" lengthAdjust="spacingAndGlyphs" textLength="63" x="362.75" y="63.5352">FHIRParser</text><line style="stroke: #A80036; stroke-width: 1.5;" x1="215.5" x2="540.5" y1="75" y2="75"/><line style="stroke: #A80036; stroke-width: 1.5;" x1="215.5" x2="540.5" y1="83" y2="83"/><ellipse cx="225.5" cy="94" fill="#84BE84" rx="3" ry="3" style="stroke: #038048; stroke-width: 1.0;"/><text fill="#000000" font-family="sans-serif" font-size="11" font-style="italic" lengthAdjust="spacingAndGlyphs" textLength="215" x="234.5" y="97.6348">parse(InputStream): T extends Resource</text><ellipse cx="225.5" cy="106.9551" fill="#84BE84" rx="3" ry="3" style="stroke: #038048; stroke-width: 1.0;"/><text fill="#000000" font-family="sans-serif" font-size="11" font-style="italic" lengthAdjust="spacingAndGlyphs" textLength="187" x="234.5" y="110.5898">parse(Reader): T extends Resource</text><ellipse cx="225.5" cy="119.9102" fill="#84BE84" rx="3" ry="3" style="stroke: #038048; stroke-width: 1.0;"/><text fill="#000000" font-family="sans-serif" font-size="11" lengthAdjust="spacingAndGlyphs" textLength="301" x="234.5" y="123.5449">as(Class&lt;T extends FHIRParser&gt;): T extends FHIRParser</text><ellipse cx="225.5" cy="132.8652" fill="#84BE84" rx="3" ry="3" style="stroke: #038048; stroke-width: 1.0;"/><text fill="#000000" font-family="sans-serif" font-size="11" lengthAdjust="spacingAndGlyphs" text-decoration="underline" textLength="145" x="234.5" y="136.5">parser(Format): FHIRParser</text></a><!--MD5=[01835f78b6d7efed7328ca6e1b4fcc54]
reverse link com.ibm.fhir.model.parser.FHIRParser to com.ibm.fhir.model.parser.FHIRJsonParser--><path d="M321.2317,158.32 C308.6078,172.8455 295.1808,188.2951 282.4166,202.9822 " fill="none" id="com.ibm.fhir.model.parser.FHIRParser&lt;-com.ibm.fhir.model.parser.FHIRJsonParser" style="stroke: #A80036; stroke-width: 1.0; stroke-dasharray: 7.0,7.0;"/><polygon fill="none" points="316.1423,153.5047,334.5453,143.0008,326.7094,162.6883,316.1423,153.5047" style="stroke: #A80036; stroke-width: 1.0;"/><!--MD5=[78f86e009b6a3f4b87062f2a60b20418]
reverse link com.ibm.fhir.model.parser.FHIRParser to com.ibm.fhir.model.parser.FHIRXMLParser--><path d="M448.6048,156.3678 C475.3291,180.3529 505.1275,207.0969 529.3861,228.8691 " fill="none" id="com.ibm.fhir.model.parser.FHIRParser&lt;-com.ibm.fhir.model.parser.FHIRXMLParser" style="stroke: #A80036; stroke-width: 1.0; stroke-dasharray: 7.0,7.0;"/><polygon fill="none" points="443.92,161.5691,433.7112,143.0008,453.2711,151.15,443.92,161.5691" style="stroke: #A80036; stroke-width: 1.0;"/><text fill="#888888" font-family="sans-serif" font-size="10" lengthAdjust="spacingAndGlyphs" textLength="182" x="275.5" y="377.668">UMLDoclet 2.0.7, PlantUML 1.2019.12</text><!--MD5=[8f3ac0b1868394f08a58fa83980e748d]
@startuml
    namespace com.ibm.fhir.model.parser {

        class FHIRJsonParser [[FHIRJsonParser.html]] {
            {static} +DEBUG: boolean
            +parse(InputStream): T extends Resource
            +parseAndFilter(InputStream, Collection<String>): T extends Resource
            +parse(Reader): T extends Resource
            +parseAndFilter(Reader, Collection<String>): T extends Resource
            +parse(JsonObject): T extends Resource
            +parseAndFilter(JsonObject, Collection<String>): T extends Resource
        }

        class FHIRXMLParser [[FHIRXMLParser.html]] {
            {static} +DEBUG: boolean
            +parse(InputStream): T extends Resource
            +parse(Reader): T extends Resource
        }

        interface FHIRParser [[FHIRParser.html]] {
            {abstract} +parse(InputStream): T extends Resource
            {abstract} +parse(Reader): T extends Resource
            +as(Class<T extends FHIRParser>): T extends FHIRParser
            {static} +parser(Format): FHIRParser
        }

        FHIRParser <|.. FHIRJsonParser
        FHIRParser <|.. FHIRXMLParser
    }

    center footer UMLDoclet 2.0.7, PlantUML 1.2019.12
@enduml

PlantUML version 1.2019.12(Sun Nov 03 05:24:54 EST 2019)
(APACHE source distribution)
Java Runtime: OpenJDK Runtime Environment
JVM: OpenJDK 64-Bit Server VM
Java Version: 11.0.4+11
Operating System: Mac OS X
Default Encoding: UTF-8
Language: en
Country: US
--></g></svg>