<?xml version="1.0" encoding="UTF-8" standalone="no"?><svg xmlns="http://www.w3.org/2000/svg" xmlns:xlink="http://www.w3.org/1999/xlink" contentScriptType="application/ecmascript" contentStyleType="text/css" height="431px" preserveAspectRatio="none" style="width:627px;height:431px;" version="1.1" viewBox="0 0 627 431" width="627px" zoomAndPan="magnify"><defs><filter height="300%" id="f1s9gyu22jc3i1" width="300%" x="-1" y="-1"><feGaussianBlur result="blurOut" stdDeviation="2.0"/><feColorMatrix in="blurOut" result="blurOut2" type="matrix" values="0 0 0 0 0 0 0 0 0 0 0 0 0 0 0 0 0 0 .4 0"/><feOffset dx="4.0" dy="4.0" in="blurOut2" result="blurOut3"/><feBlend in="SourceGraphic" in2="blurOut3" mode="normal"/></filter></defs><g><!--MD5=[a833523c59d73691b4f07c7d9e37f216]
class com.ibm.fhir.model.type.code.DeviceMetricCalibrationState--><a href="DeviceMetricCalibrationState.html" target="_top" title="DeviceMetricCalibrationState.html" xlink:actuate="onRequest" xlink:href="DeviceMetricCalibrationState.html" xlink:show="new" xlink:title="DeviceMetricCalibrationState.html" xlink:type="simple"><rect fill="#FEFECE" filter="url(#f1s9gyu22jc3i1)" height="194.7891" id="com.ibm.fhir.model.type.code.DeviceMetricCalibrationState" style="stroke: #A80036; stroke-width: 1.5;" width="331" x="142" y="106"/><ellipse cx="204.75" cy="124.9688" fill="#ADD1B2" rx="11" ry="11" style="stroke: #A80036; stroke-width: 1.0;"/><path d="M207.7188,130.6094 Q207.1406,130.9063 206.5,131.0469 Q205.8594,131.2031 205.1563,131.2031 Q202.6563,131.2031 201.3281,129.5625 Q200.0156,127.9063 200.0156,124.7813 Q200.0156,121.6563 201.3281,120 Q202.6563,118.3438 205.1563,118.3438 Q205.8594,118.3438 206.5,118.5 Q207.1563,118.6563 207.7188,118.9531 L207.7188,121.6719 Q207.0938,121.0938 206.5,120.8281 Q205.9063,120.5469 205.2813,120.5469 Q203.9375,120.5469 203.25,121.625 Q202.5625,122.6875 202.5625,124.7813 Q202.5625,126.875 203.25,127.9531 Q203.9375,129.0156 205.2813,129.0156 Q205.9063,129.0156 206.5,128.75 Q207.0938,128.4688 207.7188,127.8906 L207.7188,130.6094 Z "/><text fill="#000000" font-family="sans-serif" font-size="14" lengthAdjust="spacingAndGlyphs" textLength="197" x="225.25" y="123.9951">DeviceMetricCalibrationState</text><text fill="#000000" font-family="sans-serif" font-size="10" lengthAdjust="spacingAndGlyphs" textLength="145" x="251.25" y="136.5791">com.ibm.fhir.model.type.code</text><line style="stroke: #A80036; stroke-width: 1.5;" x1="143" x2="472" y1="143.9375" y2="143.9375"/><ellipse cx="153" cy="154.9375" fill="none" rx="3" ry="3" style="stroke: #038048; stroke-width: 1.0;"/><text fill="#000000" font-family="sans-serif" font-size="11" lengthAdjust="spacingAndGlyphs" text-decoration="underline" textLength="268" x="162" y="158.1479">NOT_CALIBRATED: DeviceMetricCalibrationState</text><ellipse cx="153" cy="167.7422" fill="none" rx="3" ry="3" style="stroke: #038048; stroke-width: 1.0;"/><text fill="#000000" font-family="sans-serif" font-size="11" lengthAdjust="spacingAndGlyphs" text-decoration="underline" textLength="305" x="162" y="170.9526">CALIBRATION_REQUIRED: DeviceMetricCalibrationState</text><ellipse cx="153" cy="180.5469" fill="none" rx="3" ry="3" style="stroke: #038048; stroke-width: 1.0;"/><text fill="#000000" font-family="sans-serif" font-size="11" lengthAdjust="spacingAndGlyphs" text-decoration="underline" textLength="238" x="162" y="183.7573">CALIBRATED: DeviceMetricCalibrationState</text><ellipse cx="153" cy="193.3516" fill="none" rx="3" ry="3" style="stroke: #038048; stroke-width: 1.0;"/><text fill="#000000" font-family="sans-serif" font-size="11" lengthAdjust="spacingAndGlyphs" text-decoration="underline" textLength="243" x="162" y="196.562">UNSPECIFIED: DeviceMetricCalibrationState</text><line style="stroke: #A80036; stroke-width: 1.5;" x1="143" x2="472" y1="203.1563" y2="203.1563"/><ellipse cx="153" cy="214.1563" fill="#84BE84" rx="3" ry="3" style="stroke: #038048; stroke-width: 1.0;"/><text fill="#000000" font-family="sans-serif" font-size="11" lengthAdjust="spacingAndGlyphs" textLength="212" x="162" y="217.3667">getValueAsEnumConstant(): ValueSet</text><ellipse cx="153" cy="226.9609" fill="#84BE84" rx="3" ry="3" style="stroke: #038048; stroke-width: 1.0;"/><text fill="#000000" font-family="sans-serif" font-size="11" lengthAdjust="spacingAndGlyphs" text-decoration="underline" textLength="239" x="162" y="230.1714">of(ValueSet): DeviceMetricCalibrationState</text><ellipse cx="153" cy="239.7656" fill="#84BE84" rx="3" ry="3" style="stroke: #038048; stroke-width: 1.0;"/><text fill="#000000" font-family="sans-serif" font-size="11" lengthAdjust="spacingAndGlyphs" text-decoration="underline" textLength="223" x="162" y="242.9761">of(String): DeviceMetricCalibrationState</text><ellipse cx="153" cy="252.5703" fill="#84BE84" rx="3" ry="3" style="stroke: #038048; stroke-width: 1.0;"/><text fill="#000000" font-family="sans-serif" font-size="11" lengthAdjust="spacingAndGlyphs" text-decoration="underline" textLength="117" x="162" y="255.7808">string(String): String</text><ellipse cx="153" cy="265.375" fill="#84BE84" rx="3" ry="3" style="stroke: #038048; stroke-width: 1.0;"/><text fill="#000000" font-family="sans-serif" font-size="11" lengthAdjust="spacingAndGlyphs" text-decoration="underline" textLength="106" x="162" y="268.5854">code(String): Code</text><ellipse cx="153" cy="278.1797" fill="#84BE84" rx="3" ry="3" style="stroke: #038048; stroke-width: 1.0;"/><text fill="#000000" font-family="sans-serif" font-size="11" lengthAdjust="spacingAndGlyphs" textLength="107" x="162" y="281.3901">toBuilder(): Builder</text><ellipse cx="153" cy="290.9844" fill="#84BE84" rx="3" ry="3" style="stroke: #038048; stroke-width: 1.0;"/><text fill="#000000" font-family="sans-serif" font-size="11" lengthAdjust="spacingAndGlyphs" text-decoration="underline" textLength="95" x="162" y="294.1948">builder(): Builder</text></a><!--MD5=[36277681a3d78580011ae89cb2088b30]
class com.ibm.fhir.model.type.Code--><a href="../Code.html" target="_top" title="../Code.html" xlink:actuate="onRequest" xlink:href="../Code.html" xlink:show="new" xlink:title="../Code.html" xlink:type="simple"><rect fill="#FEFECE" filter="url(#f1s9gyu22jc3i1)" height="37.9375" id="com.ibm.fhir.model.type.Code" style="stroke: #A80036; stroke-width: 1.5;" width="151" x="232" y="8"/><ellipse cx="247" cy="26.9688" fill="#ADD1B2" rx="11" ry="11" style="stroke: #A80036; stroke-width: 1.0;"/><path d="M249.9688,32.6094 Q249.3906,32.9063 248.75,33.0469 Q248.1094,33.2031 247.4063,33.2031 Q244.9063,33.2031 243.5781,31.5625 Q242.2656,29.9063 242.2656,26.7813 Q242.2656,23.6563 243.5781,22 Q244.9063,20.3438 247.4063,20.3438 Q248.1094,20.3438 248.75,20.5 Q249.4063,20.6563 249.9688,20.9531 L249.9688,23.6719 Q249.3438,23.0938 248.75,22.8281 Q248.1563,22.5469 247.5313,22.5469 Q246.1875,22.5469 245.5,23.625 Q244.8125,24.6875 244.8125,26.7813 Q244.8125,28.875 245.5,29.9531 Q246.1875,31.0156 247.5313,31.0156 Q248.1563,31.0156 248.75,30.75 Q249.3438,30.4688 249.9688,29.8906 L249.9688,32.6094 Z "/><text fill="#000000" font-family="sans-serif" font-size="14" lengthAdjust="spacingAndGlyphs" textLength="37" x="302" y="25.9951">Code</text><text fill="#000000" font-family="sans-serif" font-size="10" lengthAdjust="spacingAndGlyphs" textLength="119" x="261" y="38.5791">com.ibm.fhir.model.type</text></a><!--MD5=[37930c793c59d7dc927ada48f7e78b53]
class com.ibm.fhir.model.type.code.DeviceMetricCalibrationState.Builder--><a href="DeviceMetricCalibrationState.Builder.html" target="_top" title="DeviceMetricCalibrationState.Builder.html" xlink:actuate="onRequest" xlink:href="DeviceMetricCalibrationState.Builder.html" xlink:show="new" xlink:title="DeviceMetricCalibrationState.Builder.html" xlink:type="simple"><rect fill="#FEFECE" filter="url(#f1s9gyu22jc3i1)" height="37.9375" id="com.ibm.fhir.model.type.code.DeviceMetricCalibrationState.Builder" style="stroke: #A80036; stroke-width: 1.5;" width="281" x="6" y="361"/><ellipse cx="21" cy="379.9688" fill="#ADD1B2" rx="11" ry="11" style="stroke: #A80036; stroke-width: 1.0;"/><path d="M23.9688,385.6094 Q23.3906,385.9063 22.75,386.0469 Q22.1094,386.2031 21.4063,386.2031 Q18.9063,386.2031 17.5781,384.5625 Q16.2656,382.9063 16.2656,379.7813 Q16.2656,376.6563 17.5781,375 Q18.9063,373.3438 21.4063,373.3438 Q22.1094,373.3438 22.75,373.5 Q23.4063,373.6563 23.9688,373.9531 L23.9688,376.6719 Q23.3438,376.0938 22.75,375.8281 Q22.1563,375.5469 21.5313,375.5469 Q20.1875,375.5469 19.5,376.625 Q18.8125,377.6875 18.8125,379.7813 Q18.8125,381.875 19.5,382.9531 Q20.1875,384.0156 21.5313,384.0156 Q22.1563,384.0156 22.75,383.75 Q23.3438,383.4688 23.9688,382.8906 L23.9688,385.6094 Z "/><text fill="#000000" font-family="sans-serif" font-size="14" lengthAdjust="spacingAndGlyphs" textLength="249" x="35" y="378.9951">DeviceMetricCalibrationState.Builder</text><text fill="#000000" font-family="sans-serif" font-size="10" lengthAdjust="spacingAndGlyphs" textLength="145" x="87" y="391.5791">com.ibm.fhir.model.type.code</text></a><!--MD5=[c46553d366221debbf5be09eee38164c]
class com.ibm.fhir.model.type.code.DeviceMetricCalibrationState.ValueSet--><a href="DeviceMetricCalibrationState.ValueSet.html" target="_top" title="DeviceMetricCalibrationState.ValueSet.html" xlink:actuate="onRequest" xlink:href="DeviceMetricCalibrationState.ValueSet.html" xlink:show="new" xlink:title="DeviceMetricCalibrationState.ValueSet.html" xlink:type="simple"><rect fill="#FEFECE" filter="url(#f1s9gyu22jc3i1)" height="37.9375" id="com.ibm.fhir.model.type.code.DeviceMetricCalibrationState.ValueSet" style="stroke: #A80036; stroke-width: 1.5;" width="294" x="322.5" y="361"/><ellipse cx="337.5" cy="379.9688" fill="#EB937F" rx="11" ry="11" style="stroke: #A80036; stroke-width: 1.0;"/><path d="M341.6094,385.9688 L333.8906,385.9688 L333.8906,373.5781 L341.6094,373.5781 L341.6094,375.7344 L336.3438,375.7344 L336.3438,378.4063 L341.1094,378.4063 L341.1094,380.5625 L336.3438,380.5625 L336.3438,383.8125 L341.6094,383.8125 L341.6094,385.9688 Z "/><text fill="#000000" font-family="sans-serif" font-size="14" lengthAdjust="spacingAndGlyphs" textLength="262" x="351.5" y="378.9951">DeviceMetricCalibrationState.ValueSet</text><text fill="#000000" font-family="sans-serif" font-size="10" lengthAdjust="spacingAndGlyphs" textLength="145" x="410" y="391.5791">com.ibm.fhir.model.type.code</text></a><!--MD5=[7529a5f0f0df226ca6537a6a73767e71]
reverse link com.ibm.fhir.model.type.Code to com.ibm.fhir.model.type.code.DeviceMetricCalibrationState--><path d="M307.5,66.5468 C307.5,78.399 307.5,91.9575 307.5,105.8301 " fill="none" id="com.ibm.fhir.model.type.Code&lt;-com.ibm.fhir.model.type.code.DeviceMetricCalibrationState" style="stroke: #A80036; stroke-width: 1.0;"/><polygon fill="none" points="300.5001,66.2246,307.5,46.2246,314.5001,66.2245,300.5001,66.2246" style="stroke: #A80036; stroke-width: 1.0;"/><!--MD5=[151550ccdfdb982ec58a22ec98f76861]
reverse link com.ibm.fhir.model.type.code.DeviceMetricCalibrationState to com.ibm.fhir.model.type.code.DeviceMetricCalibrationState.Builder--><path d="M208.3732,312.1701 C191.3225,330.8622 175.4515,348.2612 164.0531,360.757 " fill="none" id="com.ibm.fhir.model.type.code.DeviceMetricCalibrationState&lt;-com.ibm.fhir.model.type.code.DeviceMetricCalibrationState.Builder" style="stroke: #A80036; stroke-width: 1.0;"/><ellipse cx="213.1324" cy="306.9527" fill="#FFFFFF" rx="8" ry="8" style="stroke: #A80036; stroke-width: 1.0;"/><line style="stroke: #A80036; stroke-width: 1.0;" x1="207.741" x2="218.5238" y1="312.8631" y2="301.0423"/><line style="stroke: #A80036; stroke-width: 1.0;" x1="207.222" x2="219.0428" y1="301.5613" y2="312.3441"/><!--MD5=[08e16cdbe57957e01d81d4778dc3521c]
reverse link com.ibm.fhir.model.type.code.DeviceMetricCalibrationState to com.ibm.fhir.model.type.code.DeviceMetricCalibrationState.ValueSet--><path d="M407.2425,312.1701 C424.3991,330.8622 440.3686,348.2612 451.8378,360.757 " fill="none" id="com.ibm.fhir.model.type.code.DeviceMetricCalibrationState&lt;-com.ibm.fhir.model.type.code.DeviceMetricCalibrationState.ValueSet" style="stroke: #A80036; stroke-width: 1.0;"/><ellipse cx="402.4385" cy="306.9361" fill="#FFFFFF" rx="8" ry="8" style="stroke: #A80036; stroke-width: 1.0;"/><line style="stroke: #A80036; stroke-width: 1.0;" x1="407.8481" x2="397.0289" y1="312.8298" y2="301.0423"/><line style="stroke: #A80036; stroke-width: 1.0;" x1="396.5447" x2="408.3322" y1="312.3456" y2="301.5265"/><text fill="#888888" font-family="sans-serif" font-size="10" lengthAdjust="spacingAndGlyphs" textLength="186" x="224.5" y="418.2822">UMLDoclet 2.0.7, PlantUML 1.2019.12</text><!--MD5=[7e7144d152be6ccb06bb06342e1c94b9]
@startuml
    set namespaceSeparator none
    hide empty fields
    hide empty methods

    class "<size:14>DeviceMetricCalibrationState\n<size:10>com.ibm.fhir.model.type.code" as com.ibm.fhir.model.type.code.DeviceMetricCalibrationState [[DeviceMetricCalibrationState.html]] {
        {static} +NOT_CALIBRATED: DeviceMetricCalibrationState
        {static} +CALIBRATION_REQUIRED: DeviceMetricCalibrationState
        {static} +CALIBRATED: DeviceMetricCalibrationState
        {static} +UNSPECIFIED: DeviceMetricCalibrationState
        +getValueAsEnumConstant(): ValueSet
        {static} +of(ValueSet): DeviceMetricCalibrationState
        {static} +of(String): DeviceMetricCalibrationState
        {static} +string(String): String
        {static} +code(String): Code
        +toBuilder(): Builder
        {static} +builder(): Builder
    }

    class "<size:14>Code\n<size:10>com.ibm.fhir.model.type" as com.ibm.fhir.model.type.Code [[../Code.html]]
    class "<size:14>DeviceMetricCalibrationState.Builder\n<size:10>com.ibm.fhir.model.type.code" as com.ibm.fhir.model.type.code.DeviceMetricCalibrationState.Builder [[DeviceMetricCalibrationState.Builder.html]]
    enum "<size:14>DeviceMetricCalibrationState.ValueSet\n<size:10>com.ibm.fhir.model.type.code" as com.ibm.fhir.model.type.code.DeviceMetricCalibrationState.ValueSet [[DeviceMetricCalibrationState.ValueSet.html]]

    com.ibm.fhir.model.type.Code <|- - com.ibm.fhir.model.type.code.DeviceMetricCalibrationState
    com.ibm.fhir.model.type.code.DeviceMetricCalibrationState +- - com.ibm.fhir.model.type.code.DeviceMetricCalibrationState.Builder
    com.ibm.fhir.model.type.code.DeviceMetricCalibrationState +- - com.ibm.fhir.model.type.code.DeviceMetricCalibrationState.ValueSet

    center footer UMLDoclet 2.0.7, PlantUML 1.2019.12
@enduml

PlantUML version 1.2019.12(Sun Nov 03 10:24:54 UTC 2019)
(APACHE source distribution)
Java Runtime: OpenJDK Runtime Environment
JVM: OpenJDK 64-Bit Server VM
Java Version: 11.0.8+10
Operating System: Linux
Default Encoding: UTF-8
Language: en
Country: null
--></g></svg>