<?xml version="1.0" encoding="UTF-8" standalone="no"?><svg xmlns="http://www.w3.org/2000/svg" xmlns:xlink="http://www.w3.org/1999/xlink" contentScriptType="application/ecmascript" contentStyleType="text/css" height="197px" preserveAspectRatio="none" style="width:337px;height:197px;" version="1.1" viewBox="0 0 337 197" width="337px" zoomAndPan="magnify"><defs><filter height="300%" id="fx68oovg0ti4o" width="300%" x="-1" y="-1"><feGaussianBlur result="blurOut" stdDeviation="2.0"/><feColorMatrix in="blurOut" result="blurOut2" type="matrix" values="0 0 0 0 0 0 0 0 0 0 0 0 0 0 0 0 0 0 .4 0"/><feOffset dx="4.0" dy="4.0" in="blurOut2" result="blurOut3"/><feBlend in="SourceGraphic" in2="blurOut3" mode="normal"/></filter></defs><g><!--MD5=[907e093d6c7ab172ae090993ba511de5]
class com.ibm.fhir.bucket.api.CosItem--><a href="CosItem.html" target="_top" title="CosItem.html" xlink:actuate="onRequest" xlink:href="CosItem.html" xlink:show="new" xlink:title="CosItem.html" xlink:type="simple"><rect fill="#FEFECE" filter="url(#fx68oovg0ti4o)" height="161.1797" id="com.ibm.fhir.bucket.api.CosItem" style="stroke: #A80036; stroke-width: 1.5;" width="319" x="7" y="7"/><ellipse cx="105.75" cy="25.9688" fill="#ADD1B2" rx="11" ry="11" style="stroke: #A80036; stroke-width: 1.0;"/><path d="M108.7188,31.6094 Q108.1406,31.9063 107.5,32.0469 Q106.8594,32.2031 106.1563,32.2031 Q103.6563,32.2031 102.3281,30.5625 Q101.0156,28.9063 101.0156,25.7813 Q101.0156,22.6563 102.3281,21 Q103.6563,19.3438 106.1563,19.3438 Q106.8594,19.3438 107.5,19.5 Q108.1563,19.6563 108.7188,19.9531 L108.7188,22.6719 Q108.0938,22.0938 107.5,21.8281 Q106.9063,21.5469 106.2813,21.5469 Q104.9375,21.5469 104.25,22.625 Q103.5625,23.6875 103.5625,25.7813 Q103.5625,27.875 104.25,28.9531 Q104.9375,30.0156 106.2813,30.0156 Q106.9063,30.0156 107.5,29.75 Q108.0938,29.4688 108.7188,28.8906 L108.7188,31.6094 Z "/><text fill="#000000" font-family="sans-serif" font-size="14" lengthAdjust="spacingAndGlyphs" textLength="57" x="154.25" y="24.9951">CosItem</text><text fill="#000000" font-family="sans-serif" font-size="10" lengthAdjust="spacingAndGlyphs" textLength="113" x="126.25" y="37.5791">com.ibm.fhir.bucket.api</text><line style="stroke: #A80036; stroke-width: 1.5;" x1="8" x2="325" y1="44.9375" y2="44.9375"/><ellipse cx="18" cy="55.9375" fill="#84BE84" rx="3" ry="3" style="stroke: #038048; stroke-width: 1.0;"/><text fill="#000000" font-family="sans-serif" font-size="11" lengthAdjust="spacingAndGlyphs" textLength="293" x="27" y="59.1479">CosItem(String, String, long, FileType, String, Date)</text><ellipse cx="18" cy="68.7422" fill="#84BE84" rx="3" ry="3" style="stroke: #038048; stroke-width: 1.0;"/><text fill="#000000" font-family="sans-serif" font-size="11" lengthAdjust="spacingAndGlyphs" textLength="139" x="27" y="71.9526">getBucketName(): String</text><ellipse cx="18" cy="81.5469" fill="#84BE84" rx="3" ry="3" style="stroke: #038048; stroke-width: 1.0;"/><text fill="#000000" font-family="sans-serif" font-size="11" lengthAdjust="spacingAndGlyphs" textLength="126" x="27" y="84.7573">getItemName(): String</text><ellipse cx="18" cy="94.3516" fill="#84BE84" rx="3" ry="3" style="stroke: #038048; stroke-width: 1.0;"/><text fill="#000000" font-family="sans-serif" font-size="11" lengthAdjust="spacingAndGlyphs" textLength="81" x="27" y="97.562">getSize(): long</text><ellipse cx="18" cy="107.1563" fill="#84BE84" rx="3" ry="3" style="stroke: #038048; stroke-width: 1.0;"/><text fill="#000000" font-family="sans-serif" font-size="11" lengthAdjust="spacingAndGlyphs" textLength="126" x="27" y="110.3667">getFileType(): FileType</text><ellipse cx="18" cy="119.9609" fill="#84BE84" rx="3" ry="3" style="stroke: #038048; stroke-width: 1.0;"/><text fill="#000000" font-family="sans-serif" font-size="11" lengthAdjust="spacingAndGlyphs" textLength="96" x="27" y="123.1714">geteTag(): String</text><ellipse cx="18" cy="132.7656" fill="#84BE84" rx="3" ry="3" style="stroke: #038048; stroke-width: 1.0;"/><text fill="#000000" font-family="sans-serif" font-size="11" lengthAdjust="spacingAndGlyphs" textLength="131" x="27" y="135.9761">getLastModified(): Date</text><ellipse cx="18" cy="145.5703" fill="#84BE84" rx="3" ry="3" style="stroke: #038048; stroke-width: 1.0;"/><text fill="#000000" font-family="sans-serif" font-size="11" lengthAdjust="spacingAndGlyphs" textLength="159" x="27" y="148.7808">getResourceBucketId(): long</text><ellipse cx="18" cy="158.375" fill="#84BE84" rx="3" ry="3" style="stroke: #038048; stroke-width: 1.0;"/><text fill="#000000" font-family="sans-serif" font-size="11" lengthAdjust="spacingAndGlyphs" textLength="182" x="27" y="161.5854">setResourceBucketId(long): void</text></a><text fill="#888888" font-family="sans-serif" font-size="10" lengthAdjust="spacingAndGlyphs" textLength="186" x="73.5" y="184.4619">UMLDoclet 2.0.7, PlantUML 1.2019.12</text><!--MD5=[fc7df3933c7245d974f20146b06f3e09]
@startuml
    set namespaceSeparator none
    hide empty fields
    hide empty methods

    class "<size:14>CosItem\n<size:10>com.ibm.fhir.bucket.api" as com.ibm.fhir.bucket.api.CosItem [[CosItem.html]] {
        +CosItem(String, String, long, FileType, String, Date)
        +getBucketName(): String
        +getItemName(): String
        +getSize(): long
        +getFileType(): FileType
        +geteTag(): String
        +getLastModified(): Date
        +getResourceBucketId(): long
        +setResourceBucketId(long): void
    }

    center footer UMLDoclet 2.0.7, PlantUML 1.2019.12
@enduml

PlantUML version 1.2019.12(Sun Nov 03 10:24:54 UTC 2019)
(APACHE source distribution)
Java Runtime: OpenJDK Runtime Environment
JVM: OpenJDK 64-Bit Server VM
Java Version: 11.0.9.1+1
Operating System: Linux
Default Encoding: UTF-8
Language: en
Country: null
--></g></svg>