<?xml version="1.0" encoding="UTF-8" standalone="no"?><svg xmlns="http://www.w3.org/2000/svg" xmlns:xlink="http://www.w3.org/1999/xlink" contentScriptType="application/ecmascript" contentStyleType="text/css" height="231px" preserveAspectRatio="none" style="width:328px;height:231px;" version="1.1" viewBox="0 0 328 231" width="328px" zoomAndPan="magnify"><defs><filter height="300%" id="f1kws7ya0rcwe0" width="300%" x="-1" y="-1"><feGaussianBlur result="blurOut" stdDeviation="2.0"/><feColorMatrix in="blurOut" result="blurOut2" type="matrix" values="0 0 0 0 0 0 0 0 0 0 0 0 0 0 0 0 0 0 .4 0"/><feOffset dx="4.0" dy="4.0" in="blurOut2" result="blurOut3"/><feBlend in="SourceGraphic" in2="blurOut3" mode="normal"/></filter></defs><g><!--MD5=[6db98e692a535c78c747aca52cf38da8]
class com.ibm.fhir.schema.control.GetTenantInfo--><a href="GetTenantInfo.html" target="_top" title="GetTenantInfo.html" xlink:actuate="onRequest" xlink:href="GetTenantInfo.html" xlink:show="new" xlink:title="GetTenantInfo.html" xlink:type="simple"><rect fill="#FEFECE" filter="url(#f1kws7ya0rcwe0)" height="71.5469" id="com.ibm.fhir.schema.control.GetTenantInfo" style="stroke: #A80036; stroke-width: 1.5;" width="308" x="6" y="127"/><ellipse cx="86.75" cy="145.9688" fill="#ADD1B2" rx="11" ry="11" style="stroke: #A80036; stroke-width: 1.0;"/><path d="M89.7188,151.6094 Q89.1406,151.9063 88.5,152.0469 Q87.8594,152.2031 87.1563,152.2031 Q84.6563,152.2031 83.3281,150.5625 Q82.0156,148.9063 82.0156,145.7813 Q82.0156,142.6563 83.3281,141 Q84.6563,139.3438 87.1563,139.3438 Q87.8594,139.3438 88.5,139.5 Q89.1563,139.6563 89.7188,139.9531 L89.7188,142.6719 Q89.0938,142.0938 88.5,141.8281 Q87.9063,141.5469 87.2813,141.5469 Q85.9375,141.5469 85.25,142.625 Q84.5625,143.6875 84.5625,145.7813 Q84.5625,147.875 85.25,148.9531 Q85.9375,150.0156 87.2813,150.0156 Q87.9063,150.0156 88.5,149.75 Q89.0938,149.4688 89.7188,148.8906 L89.7188,151.6094 Z "/><text fill="#000000" font-family="sans-serif" font-size="14" lengthAdjust="spacingAndGlyphs" textLength="99" x="126.75" y="144.9951">GetTenantInfo</text><text fill="#000000" font-family="sans-serif" font-size="10" lengthAdjust="spacingAndGlyphs" textLength="138" x="107.25" y="157.5791">com.ibm.fhir.schema.control</text><line style="stroke: #A80036; stroke-width: 1.5;" x1="7" x2="313" y1="164.9375" y2="164.9375"/><ellipse cx="17" cy="175.9375" fill="#84BE84" rx="3" ry="3" style="stroke: #038048; stroke-width: 1.0;"/><text fill="#000000" font-family="sans-serif" font-size="11" lengthAdjust="spacingAndGlyphs" textLength="164" x="26" y="179.1479">GetTenantInfo(String, String)</text><ellipse cx="17" cy="188.7422" fill="#84BE84" rx="3" ry="3" style="stroke: #038048; stroke-width: 1.0;"/><text fill="#000000" font-family="sans-serif" font-size="11" lengthAdjust="spacingAndGlyphs" textLength="282" x="26" y="191.9526">run(IDatabaseTranslator, Connection): TenantInfo</text></a><!--MD5=[93ea417c481fd981345e931714a643b2]
class com.ibm.fhir.database.utils.api.IDatabaseSupplier--><a href="../../database/utils/api/IDatabaseSupplier.html" target="_top" title="../../database/utils/api/IDatabaseSupplier.html" xlink:actuate="onRequest" xlink:href="../../database/utils/api/IDatabaseSupplier.html" xlink:show="new" xlink:title="../../database/utils/api/IDatabaseSupplier.html" xlink:type="simple"><rect fill="#FEFECE" filter="url(#f1kws7ya0rcwe0)" height="58.7422" id="com.ibm.fhir.database.utils.api.IDatabaseSupplier" style="stroke: #A80036; stroke-width: 1.5;" width="308" x="6" y="8"/><ellipse cx="46.65" cy="26.9688" fill="#B4A7E5" rx="11" ry="11" style="stroke: #A80036; stroke-width: 1.0;"/><path d="M42.5719,22.7344 L42.5719,20.5781 L49.9625,20.5781 L49.9625,22.7344 L47.4938,22.7344 L47.4938,30.8125 L49.9625,30.8125 L49.9625,32.9688 L42.5719,32.9688 L42.5719,30.8125 L45.0406,30.8125 L45.0406,22.7344 L42.5719,22.7344 Z "/><text fill="#000000" font-family="sans-serif" font-size="14" font-style="italic" lengthAdjust="spacingAndGlyphs" textLength="125" x="77.85" y="25.9951">IDatabaseSupplier</text><text fill="#000000" font-family="sans-serif" font-size="10" font-style="italic" lengthAdjust="spacingAndGlyphs" textLength="148" x="66.35" y="38.5791">com.ibm.fhir.database.utils.api</text><rect fill="#FFFFFF" height="15.9688" style="stroke: #000000; stroke-width: 1.0; stroke-dasharray: 2.0,2.0;" width="69" x="248" y="5"/><text fill="#000000" font-family="sans-serif" font-size="12" font-style="italic" lengthAdjust="spacingAndGlyphs" textLength="67" x="249" y="17.1387">TenantInfo</text><line style="stroke: #A80036; stroke-width: 1.5;" x1="7" x2="313" y1="45.9375" y2="45.9375"/><ellipse cx="17" cy="56.9375" fill="#84BE84" rx="3" ry="3" style="stroke: #038048; stroke-width: 1.0;"/><text fill="#000000" font-family="sans-serif" font-size="11" font-style="italic" lengthAdjust="spacingAndGlyphs" textLength="282" x="26" y="60.1479">run(IDatabaseTranslator, Connection): TenantInfo</text></a><!--MD5=[ef0f80687a7c14985d3b989971c3e268]
reverse link com.ibm.fhir.database.utils.api.IDatabaseSupplier to com.ibm.fhir.schema.control.GetTenantInfo--><path d="M160,87.5049 C160,100.6211 160,114.5128 160,126.7555 " fill="none" id="com.ibm.fhir.database.utils.api.IDatabaseSupplier&lt;-com.ibm.fhir.schema.control.GetTenantInfo" style="stroke: #A80036; stroke-width: 1.0; stroke-dasharray: 7.0,7.0;"/><polygon fill="none" points="153.0001,87.2418,160,67.2417,167.0001,87.2417,153.0001,87.2418" style="stroke: #A80036; stroke-width: 1.0;"/><text fill="#888888" font-family="sans-serif" font-size="10" lengthAdjust="spacingAndGlyphs" textLength="186" x="73" y="218.2822">UMLDoclet 2.0.7, PlantUML 1.2019.12</text><!--MD5=[79958728993d5624a4eb7ca36d4c6652]
@startuml
    set namespaceSeparator none
    hide empty fields
    hide empty methods

    class "<size:14>GetTenantInfo\n<size:10>com.ibm.fhir.schema.control" as com.ibm.fhir.schema.control.GetTenantInfo [[GetTenantInfo.html]] {
        +GetTenantInfo(String, String)
        +run(IDatabaseTranslator, Connection): TenantInfo
    }

    interface "<size:14>IDatabaseSupplier\n<size:10>com.ibm.fhir.database.utils.api" as com.ibm.fhir.database.utils.api.IDatabaseSupplier<TenantInfo> [[../../database/utils/api/IDatabaseSupplier.html]] {
        {abstract} +run(IDatabaseTranslator, Connection): TenantInfo
    }

    com.ibm.fhir.database.utils.api.IDatabaseSupplier <|.. com.ibm.fhir.schema.control.GetTenantInfo

    center footer UMLDoclet 2.0.7, PlantUML 1.2019.12
@enduml

PlantUML version 1.2019.12(Sun Nov 03 10:24:54 UTC 2019)
(APACHE source distribution)
Java Runtime: OpenJDK Runtime Environment
JVM: OpenJDK 64-Bit Server VM
Java Version: 11.0.7+10
Operating System: Linux
Default Encoding: UTF-8
Language: en
Country: null
--></g></svg>