<?xml version="1.0" encoding="UTF-8" standalone="no"?><svg xmlns="http://www.w3.org/2000/svg" xmlns:xlink="http://www.w3.org/1999/xlink" contentScriptType="application/ecmascript" contentStyleType="text/css" height="273px" preserveAspectRatio="none" style="width:1837px;height:273px;" version="1.1" viewBox="0 0 1837 273" width="1837px" zoomAndPan="magnify"><defs><filter height="300%" id="f185472hap9c1k" width="300%" x="-1" y="-1"><feGaussianBlur result="blurOut" stdDeviation="2.0"/><feColorMatrix in="blurOut" result="blurOut2" type="matrix" values="0 0 0 0 0 0 0 0 0 0 0 0 0 0 0 0 0 0 .4 0"/><feOffset dx="4.0" dy="4.0" in="blurOut2" result="blurOut3"/><feBlend in="SourceGraphic" in2="blurOut3" mode="normal"/></filter></defs><g><!--MD5=[3da7587d87633970ec25ae3c2965f2c5]
cluster com.ibm.fhir.search.group.characteristic--><polygon fill="#FFFFFF" filter="url(#f185472hap9c1k)" points="14,16,342,16,349,38.2969,1815,38.2969,1815,233,14,233,14,16" style="stroke: #000000; stroke-width: 1.5;"/><line style="stroke: #000000; stroke-width: 1.5;" x1="14" x2="349" y1="38.2969" y2="38.2969"/><text fill="#000000" font-family="sans-serif" font-size="14" font-weight="bold" lengthAdjust="spacingAndGlyphs" textLength="322" x="18" y="30.9951">com.ibm.fhir.search.group.characteristic</text><!--MD5=[6097faa3c94df113b384d1074946cc8d]
class com.ibm.fhir.search.group.characteristic.PatientAgeCharacteristicProcessor--><a href="PatientAgeCharacteristicProcessor.html" target="_top" title="PatientAgeCharacteristicProcessor.html" xlink:actuate="onRequest" xlink:href="PatientAgeCharacteristicProcessor.html" xlink:show="new" xlink:title="PatientAgeCharacteristicProcessor.html" xlink:type="simple"><rect fill="#FEFECE" filter="url(#f185472hap9c1k)" height="60.8047" id="com.ibm.fhir.search.group.characteristic.PatientAgeCharacteristicProcessor" style="stroke: #A80036; stroke-width: 1.5;" width="420" x="22" y="164"/><ellipse cx="118.25" cy="180" fill="#ADD1B2" rx="11" ry="11" style="stroke: #A80036; stroke-width: 1.0;"/><path d="M121.2188,185.6406 Q120.6406,185.9375 120,186.0781 Q119.3594,186.2344 118.6563,186.2344 Q116.1563,186.2344 114.8281,184.5938 Q113.5156,182.9375 113.5156,179.8125 Q113.5156,176.6875 114.8281,175.0313 Q116.1563,173.375 118.6563,173.375 Q119.3594,173.375 120,173.5313 Q120.6563,173.6875 121.2188,173.9844 L121.2188,176.7031 Q120.5938,176.125 120,175.8594 Q119.4063,175.5781 118.7813,175.5781 Q117.4375,175.5781 116.75,176.6563 Q116.0625,177.7188 116.0625,179.8125 Q116.0625,181.9063 116.75,182.9844 Q117.4375,184.0469 118.7813,184.0469 Q119.4063,184.0469 120,183.7813 Q120.5938,183.5 121.2188,182.9219 L121.2188,185.6406 Z "/><text fill="#000000" font-family="sans-serif" font-size="12" lengthAdjust="spacingAndGlyphs" textLength="219" x="138.75" y="184.1543">PatientAgeCharacteristicProcessor</text><line style="stroke: #A80036; stroke-width: 1.5;" x1="23" x2="441" y1="196" y2="196"/><line style="stroke: #A80036; stroke-width: 1.5;" x1="23" x2="441" y1="204" y2="204"/><ellipse cx="33" cy="215" fill="#84BE84" rx="3" ry="3" style="stroke: #038048; stroke-width: 1.0;"/><text fill="#000000" font-family="sans-serif" font-size="11" lengthAdjust="spacingAndGlyphs" textLength="394" x="42" y="218.2104">process(Characteristic, String, MultivaluedMap&lt;String, String&gt;): void</text></a><!--MD5=[2e6c190cc6de263b5119cff5014f2591]
class com.ibm.fhir.search.group.characteristic.PregnancyStatusCharacteristicProcessor--><a href="PregnancyStatusCharacteristicProcessor.html" target="_top" title="PregnancyStatusCharacteristicProcessor.html" xlink:actuate="onRequest" xlink:href="PregnancyStatusCharacteristicProcessor.html" xlink:show="new" xlink:title="PregnancyStatusCharacteristicProcessor.html" xlink:type="simple"><rect fill="#FEFECE" filter="url(#f185472hap9c1k)" height="60.8047" id="com.ibm.fhir.search.group.characteristic.PregnancyStatusCharacteristicProcessor" style="stroke: #A80036; stroke-width: 1.5;" width="420" x="477" y="164"/><ellipse cx="554.25" cy="180" fill="#ADD1B2" rx="11" ry="11" style="stroke: #A80036; stroke-width: 1.0;"/><path d="M557.2188,185.6406 Q556.6406,185.9375 556,186.0781 Q555.3594,186.2344 554.6563,186.2344 Q552.1563,186.2344 550.8281,184.5938 Q549.5156,182.9375 549.5156,179.8125 Q549.5156,176.6875 550.8281,175.0313 Q552.1563,173.375 554.6563,173.375 Q555.3594,173.375 556,173.5313 Q556.6563,173.6875 557.2188,173.9844 L557.2188,176.7031 Q556.5938,176.125 556,175.8594 Q555.4063,175.5781 554.7813,175.5781 Q553.4375,175.5781 552.75,176.6563 Q552.0625,177.7188 552.0625,179.8125 Q552.0625,181.9063 552.75,182.9844 Q553.4375,184.0469 554.7813,184.0469 Q555.4063,184.0469 556,183.7813 Q556.5938,183.5 557.2188,182.9219 L557.2188,185.6406 Z "/><text fill="#000000" font-family="sans-serif" font-size="12" lengthAdjust="spacingAndGlyphs" textLength="257" x="574.75" y="184.1543">PregnancyStatusCharacteristicProcessor</text><line style="stroke: #A80036; stroke-width: 1.5;" x1="478" x2="896" y1="196" y2="196"/><line style="stroke: #A80036; stroke-width: 1.5;" x1="478" x2="896" y1="204" y2="204"/><ellipse cx="488" cy="215" fill="#84BE84" rx="3" ry="3" style="stroke: #038048; stroke-width: 1.0;"/><text fill="#000000" font-family="sans-serif" font-size="11" lengthAdjust="spacingAndGlyphs" textLength="394" x="497" y="218.2104">process(Characteristic, String, MultivaluedMap&lt;String, String&gt;): void</text></a><!--MD5=[118f378862caf0b6c3555be337b8060e]
class com.ibm.fhir.search.group.characteristic.AdministrativeGenderCharacteristicProcessor--><a href="AdministrativeGenderCharacteristicProcessor.html" target="_top" title="AdministrativeGenderCharacteristicProcessor.html" xlink:actuate="onRequest" xlink:href="AdministrativeGenderCharacteristicProcessor.html" xlink:show="new" xlink:title="AdministrativeGenderCharacteristicProcessor.html" xlink:type="simple"><rect fill="#FEFECE" filter="url(#f185472hap9c1k)" height="60.8047" id="com.ibm.fhir.search.group.characteristic.AdministrativeGenderCharacteristicProcessor" style="stroke: #A80036; stroke-width: 1.5;" width="420" x="932" y="164"/><ellipse cx="995.75" cy="180" fill="#ADD1B2" rx="11" ry="11" style="stroke: #A80036; stroke-width: 1.0;"/><path d="M998.7188,185.6406 Q998.1406,185.9375 997.5,186.0781 Q996.8594,186.2344 996.1563,186.2344 Q993.6563,186.2344 992.3281,184.5938 Q991.0156,182.9375 991.0156,179.8125 Q991.0156,176.6875 992.3281,175.0313 Q993.6563,173.375 996.1563,173.375 Q996.8594,173.375 997.5,173.5313 Q998.1563,173.6875 998.7188,173.9844 L998.7188,176.7031 Q998.0938,176.125 997.5,175.8594 Q996.9063,175.5781 996.2813,175.5781 Q994.9375,175.5781 994.25,176.6563 Q993.5625,177.7188 993.5625,179.8125 Q993.5625,181.9063 994.25,182.9844 Q994.9375,184.0469 996.2813,184.0469 Q996.9063,184.0469 997.5,183.7813 Q998.0938,183.5 998.7188,182.9219 L998.7188,185.6406 Z "/><text fill="#000000" font-family="sans-serif" font-size="12" lengthAdjust="spacingAndGlyphs" textLength="284" x="1016.25" y="184.1543">AdministrativeGenderCharacteristicProcessor</text><line style="stroke: #A80036; stroke-width: 1.5;" x1="933" x2="1351" y1="196" y2="196"/><line style="stroke: #A80036; stroke-width: 1.5;" x1="933" x2="1351" y1="204" y2="204"/><ellipse cx="943" cy="215" fill="#84BE84" rx="3" ry="3" style="stroke: #038048; stroke-width: 1.0;"/><text fill="#000000" font-family="sans-serif" font-size="11" lengthAdjust="spacingAndGlyphs" textLength="394" x="952" y="218.2104">process(Characteristic, String, MultivaluedMap&lt;String, String&gt;): void</text></a><!--MD5=[cf2c644fa0f94b894cc1b8fbdc9f7927]
class com.ibm.fhir.search.group.characteristic.NoOpCharacteristicProcessor--><a href="NoOpCharacteristicProcessor.html" target="_top" title="NoOpCharacteristicProcessor.html" xlink:actuate="onRequest" xlink:href="NoOpCharacteristicProcessor.html" xlink:show="new" xlink:title="NoOpCharacteristicProcessor.html" xlink:type="simple"><rect fill="#FEFECE" filter="url(#f185472hap9c1k)" height="60.8047" id="com.ibm.fhir.search.group.characteristic.NoOpCharacteristicProcessor" style="stroke: #A80036; stroke-width: 1.5;" width="420" x="1387" y="164"/><ellipse cx="1500.75" cy="180" fill="#ADD1B2" rx="11" ry="11" style="stroke: #A80036; stroke-width: 1.0;"/><path d="M1503.7188,185.6406 Q1503.1406,185.9375 1502.5,186.0781 Q1501.8594,186.2344 1501.1563,186.2344 Q1498.6563,186.2344 1497.3281,184.5938 Q1496.0156,182.9375 1496.0156,179.8125 Q1496.0156,176.6875 1497.3281,175.0313 Q1498.6563,173.375 1501.1563,173.375 Q1501.8594,173.375 1502.5,173.5313 Q1503.1563,173.6875 1503.7188,173.9844 L1503.7188,176.7031 Q1503.0938,176.125 1502.5,175.8594 Q1501.9063,175.5781 1501.2813,175.5781 Q1499.9375,175.5781 1499.25,176.6563 Q1498.5625,177.7188 1498.5625,179.8125 Q1498.5625,181.9063 1499.25,182.9844 Q1499.9375,184.0469 1501.2813,184.0469 Q1501.9063,184.0469 1502.5,183.7813 Q1503.0938,183.5 1503.7188,182.9219 L1503.7188,185.6406 Z "/><text fill="#000000" font-family="sans-serif" font-size="12" lengthAdjust="spacingAndGlyphs" textLength="184" x="1521.25" y="184.1543">NoOpCharacteristicProcessor</text><line style="stroke: #A80036; stroke-width: 1.5;" x1="1388" x2="1806" y1="196" y2="196"/><line style="stroke: #A80036; stroke-width: 1.5;" x1="1388" x2="1806" y1="204" y2="204"/><ellipse cx="1398" cy="215" fill="#84BE84" rx="3" ry="3" style="stroke: #038048; stroke-width: 1.0;"/><text fill="#000000" font-family="sans-serif" font-size="11" lengthAdjust="spacingAndGlyphs" textLength="394" x="1407" y="218.2104">process(Characteristic, String, MultivaluedMap&lt;String, String&gt;): void</text></a><!--MD5=[9ba4cc0f2f2bb47e279275ea92d65578]
class com.ibm.fhir.search.group.characteristic.CharacteristicProcessor--><a href="CharacteristicProcessor.html" target="_top" title="CharacteristicProcessor.html" xlink:actuate="onRequest" xlink:href="CharacteristicProcessor.html" xlink:show="new" xlink:title="CharacteristicProcessor.html" xlink:type="simple"><rect fill="#FEFECE" filter="url(#f185472hap9c1k)" height="60.8047" id="com.ibm.fhir.search.group.characteristic.CharacteristicProcessor" style="stroke: #A80036; stroke-width: 1.5;" width="420" x="704" y="43"/><ellipse cx="834.75" cy="59" fill="#B4A7E5" rx="11" ry="11" style="stroke: #A80036; stroke-width: 1.0;"/><path d="M830.6719,54.7656 L830.6719,52.6094 L838.0625,52.6094 L838.0625,54.7656 L835.5938,54.7656 L835.5938,62.8438 L838.0625,62.8438 L838.0625,65 L830.6719,65 L830.6719,62.8438 L833.1406,62.8438 L833.1406,54.7656 L830.6719,54.7656 Z "/><text fill="#000000" font-family="sans-serif" font-size="12" font-style="italic" lengthAdjust="spacingAndGlyphs" textLength="150" x="855.25" y="63.1543">CharacteristicProcessor</text><line style="stroke: #A80036; stroke-width: 1.5;" x1="705" x2="1123" y1="75" y2="75"/><line style="stroke: #A80036; stroke-width: 1.5;" x1="705" x2="1123" y1="83" y2="83"/><ellipse cx="715" cy="94" fill="#84BE84" rx="3" ry="3" style="stroke: #038048; stroke-width: 1.0;"/><text fill="#000000" font-family="sans-serif" font-size="11" font-style="italic" lengthAdjust="spacingAndGlyphs" textLength="394" x="724" y="97.2104">process(Characteristic, String, MultivaluedMap&lt;String, String&gt;): void</text></a><!--MD5=[ce4a6b83340aac92a8049170d9b8f7a9]
reverse link com.ibm.fhir.search.group.characteristic.CharacteristicProcessor to com.ibm.fhir.search.group.characteristic.PatientAgeCharacteristicProcessor--><path d="M722.2065,107.5279 C622.2376,125.2643 500.9575,146.7817 404.0423,163.9764 " fill="none" id="com.ibm.fhir.search.group.characteristic.CharacteristicProcessor&lt;-com.ibm.fhir.search.group.characteristic.PatientAgeCharacteristicProcessor" style="stroke: #A80036; stroke-width: 1.0; stroke-dasharray: 7.0,7.0;"/><polygon fill="none" points="720.9873,100.635,741.9026,104.0334,723.433,114.4197,720.9873,100.635" style="stroke: #A80036; stroke-width: 1.0;"/><!--MD5=[84183774b61039a6a88cae6269e93d6c]
reverse link com.ibm.fhir.search.group.characteristic.CharacteristicProcessor to com.ibm.fhir.search.group.characteristic.PregnancyStatusCharacteristicProcessor--><path d="M838.6849,113.6459 C807.9084,130.051 772.8921,148.7161 744.2634,163.9764 " fill="none" id="com.ibm.fhir.search.group.characteristic.CharacteristicProcessor&lt;-com.ibm.fhir.search.group.characteristic.PregnancyStatusCharacteristicProcessor" style="stroke: #A80036; stroke-width: 1.0; stroke-dasharray: 7.0,7.0;"/><polygon fill="none" points="835.7764,107.264,856.7183,104.0334,842.3618,119.6184,835.7764,107.264" style="stroke: #A80036; stroke-width: 1.0;"/><!--MD5=[3bdb135fa1a3c51ce8e7d3d9ab6c89ed]
reverse link com.ibm.fhir.search.group.characteristic.CharacteristicProcessor to com.ibm.fhir.search.group.characteristic.AdministrativeGenderCharacteristicProcessor--><path d="M989.2118,113.415 C1020.2285,129.8757 1055.5946,148.6445 1084.4844,163.9764 " fill="none" id="com.ibm.fhir.search.group.characteristic.CharacteristicProcessor&lt;-com.ibm.fhir.search.group.characteristic.AdministrativeGenderCharacteristicProcessor" style="stroke: #A80036; stroke-width: 1.0; stroke-dasharray: 7.0,7.0;"/><polygon fill="none" points="985.9189,119.5922,971.534,104.0334,992.4818,107.2258,985.9189,119.5922" style="stroke: #A80036; stroke-width: 1.0;"/><!--MD5=[57bbdd0bf6ab83d29821227c3ebaa5cb]
reverse link com.ibm.fhir.search.group.characteristic.CharacteristicProcessor to com.ibm.fhir.search.group.characteristic.NoOpCharacteristicProcessor--><path d="M1106.0747,107.5279 C1206.1902,125.2643 1327.6481,146.7817 1424.7054,163.9764 " fill="none" id="com.ibm.fhir.search.group.characteristic.CharacteristicProcessor&lt;-com.ibm.fhir.search.group.characteristic.NoOpCharacteristicProcessor" style="stroke: #A80036; stroke-width: 1.0; stroke-dasharray: 7.0,7.0;"/><polygon fill="none" points="1104.822,114.415,1086.3497,104.0334,1107.2642,100.6297,1104.822,114.415" style="stroke: #A80036; stroke-width: 1.0;"/><text fill="#888888" font-family="sans-serif" font-size="10" lengthAdjust="spacingAndGlyphs" textLength="186" x="827.5" y="260.2822">UMLDoclet 2.0.7, PlantUML 1.2019.12</text><!--MD5=[be3d19f49dd326f3981609f286a69101]
@startuml
    namespace com.ibm.fhir.search.group.characteristic {

        class PatientAgeCharacteristicProcessor [[PatientAgeCharacteristicProcessor.html]] {
            +process(Characteristic, String, MultivaluedMap<String, String>): void
        }

        class PregnancyStatusCharacteristicProcessor [[PregnancyStatusCharacteristicProcessor.html]] {
            +process(Characteristic, String, MultivaluedMap<String, String>): void
        }

        class AdministrativeGenderCharacteristicProcessor [[AdministrativeGenderCharacteristicProcessor.html]] {
            +process(Characteristic, String, MultivaluedMap<String, String>): void
        }

        class NoOpCharacteristicProcessor [[NoOpCharacteristicProcessor.html]] {
            +process(Characteristic, String, MultivaluedMap<String, String>): void
        }

        interface CharacteristicProcessor [[CharacteristicProcessor.html]] {
            {abstract} +process(Characteristic, String, MultivaluedMap<String, String>): void
        }

        CharacteristicProcessor <|.. PatientAgeCharacteristicProcessor
        CharacteristicProcessor <|.. PregnancyStatusCharacteristicProcessor
        CharacteristicProcessor <|.. AdministrativeGenderCharacteristicProcessor
        CharacteristicProcessor <|.. NoOpCharacteristicProcessor
    }

    center footer UMLDoclet 2.0.7, PlantUML 1.2019.12
@enduml

PlantUML version 1.2019.12(Sun Nov 03 10:24:54 UTC 2019)
(APACHE source distribution)
Java Runtime: OpenJDK Runtime Environment
JVM: OpenJDK 64-Bit Server VM
Java Version: 11.0.9.1+1
Operating System: Linux
Default Encoding: UTF-8
Language: en
Country: null
--></g></svg>