<?xml version="1.0" encoding="UTF-8" standalone="no"?><svg xmlns="http://www.w3.org/2000/svg" xmlns:xlink="http://www.w3.org/1999/xlink" contentScriptType="application/ecmascript" contentStyleType="text/css" height="333px" preserveAspectRatio="none" style="width:239px;height:333px;" version="1.1" viewBox="0 0 239 333" width="239px" zoomAndPan="magnify"><defs><filter height="300%" id="f1hhgxah5keq6v" width="300%" x="-1" y="-1"><feGaussianBlur result="blurOut" stdDeviation="2.0"/><feColorMatrix in="blurOut" result="blurOut2" type="matrix" values="0 0 0 0 0 0 0 0 0 0 0 0 0 0 0 0 0 0 .4 0"/><feOffset dx="4.0" dy="4.0" in="blurOut2" result="blurOut3"/><feBlend in="SourceGraphic" in2="blurOut3" mode="normal"/></filter></defs><g><!--MD5=[aaac807ef80264846bbe3d709adbbc0e]
class com.ibm.fhir.model.type.code.SearchParamType.ValueSet--><a href="SearchParamType.ValueSet.html" target="_top" title="SearchParamType.ValueSet.html" xlink:actuate="onRequest" xlink:href="SearchParamType.ValueSet.html" xlink:show="new" xlink:title="SearchParamType.ValueSet.html" xlink:type="simple"><rect fill="#FEFECE" filter="url(#f1hhgxah5keq6v)" height="194.7891" id="com.ibm.fhir.model.type.code.SearchParamType.ValueSet" style="stroke: #A80036; stroke-width: 1.5;" width="222" x="6" y="106"/><ellipse cx="21" cy="124.9688" fill="#EB937F" rx="11" ry="11" style="stroke: #A80036; stroke-width: 1.0;"/><path d="M25.1094,130.9688 L17.3906,130.9688 L17.3906,118.5781 L25.1094,118.5781 L25.1094,120.7344 L19.8438,120.7344 L19.8438,123.4063 L24.6094,123.4063 L24.6094,125.5625 L19.8438,125.5625 L19.8438,128.8125 L25.1094,128.8125 L25.1094,130.9688 Z "/><text fill="#000000" font-family="sans-serif" font-size="14" lengthAdjust="spacingAndGlyphs" textLength="190" x="35" y="123.9951">SearchParamType.ValueSet</text><text fill="#000000" font-family="sans-serif" font-size="10" lengthAdjust="spacingAndGlyphs" textLength="145" x="57.5" y="136.5791">com.ibm.fhir.model.type.code</text><line style="stroke: #A80036; stroke-width: 1.5;" x1="7" x2="227" y1="143.9375" y2="143.9375"/><ellipse cx="17" cy="154.9375" fill="none" rx="3" ry="3" style="stroke: #038048; stroke-width: 1.0;"/><text fill="#000000" font-family="sans-serif" font-size="11" lengthAdjust="spacingAndGlyphs" text-decoration="underline" textLength="47" x="26" y="158.1479">NUMBER</text><ellipse cx="17" cy="167.7422" fill="none" rx="3" ry="3" style="stroke: #038048; stroke-width: 1.0;"/><text fill="#000000" font-family="sans-serif" font-size="11" lengthAdjust="spacingAndGlyphs" text-decoration="underline" textLength="29" x="26" y="170.9526">DATE</text><ellipse cx="17" cy="180.5469" fill="none" rx="3" ry="3" style="stroke: #038048; stroke-width: 1.0;"/><text fill="#000000" font-family="sans-serif" font-size="11" lengthAdjust="spacingAndGlyphs" text-decoration="underline" textLength="42" x="26" y="183.7573">STRING</text><ellipse cx="17" cy="193.3516" fill="none" rx="3" ry="3" style="stroke: #038048; stroke-width: 1.0;"/><text fill="#000000" font-family="sans-serif" font-size="11" lengthAdjust="spacingAndGlyphs" text-decoration="underline" textLength="38" x="26" y="196.562">TOKEN</text><ellipse cx="17" cy="206.1563" fill="none" rx="3" ry="3" style="stroke: #038048; stroke-width: 1.0;"/><text fill="#000000" font-family="sans-serif" font-size="11" lengthAdjust="spacingAndGlyphs" text-decoration="underline" textLength="64" x="26" y="209.3667">REFERENCE</text><ellipse cx="17" cy="218.9609" fill="none" rx="3" ry="3" style="stroke: #038048; stroke-width: 1.0;"/><text fill="#000000" font-family="sans-serif" font-size="11" lengthAdjust="spacingAndGlyphs" text-decoration="underline" textLength="67" x="26" y="222.1714">COMPOSITE</text><ellipse cx="17" cy="231.7656" fill="none" rx="3" ry="3" style="stroke: #038048; stroke-width: 1.0;"/><text fill="#000000" font-family="sans-serif" font-size="11" lengthAdjust="spacingAndGlyphs" text-decoration="underline" textLength="56" x="26" y="234.9761">QUANTITY</text><ellipse cx="17" cy="244.5703" fill="none" rx="3" ry="3" style="stroke: #038048; stroke-width: 1.0;"/><text fill="#000000" font-family="sans-serif" font-size="11" lengthAdjust="spacingAndGlyphs" text-decoration="underline" textLength="18" x="26" y="247.7808">URI</text><ellipse cx="17" cy="257.375" fill="none" rx="3" ry="3" style="stroke: #038048; stroke-width: 1.0;"/><text fill="#000000" font-family="sans-serif" font-size="11" lengthAdjust="spacingAndGlyphs" text-decoration="underline" textLength="46" x="26" y="260.5854">SPECIAL</text><line style="stroke: #A80036; stroke-width: 1.5;" x1="7" x2="227" y1="267.1797" y2="267.1797"/><ellipse cx="17" cy="278.1797" fill="#84BE84" rx="3" ry="3" style="stroke: #038048; stroke-width: 1.0;"/><text fill="#000000" font-family="sans-serif" font-size="11" lengthAdjust="spacingAndGlyphs" textLength="80" x="26" y="281.3901">value(): String</text><ellipse cx="17" cy="290.9844" fill="#84BE84" rx="3" ry="3" style="stroke: #038048; stroke-width: 1.0;"/><text fill="#000000" font-family="sans-serif" font-size="11" lengthAdjust="spacingAndGlyphs" text-decoration="underline" textLength="127" x="26" y="294.1948">from(String): ValueSet</text></a><!--MD5=[b5cbc3a6ba17157e81c008e6d4bcb138]
class com.ibm.fhir.model.type.code.SearchParamType--><a href="SearchParamType.html" target="_top" title="SearchParamType.html" xlink:actuate="onRequest" xlink:href="SearchParamType.html" xlink:show="new" xlink:title="SearchParamType.html" xlink:type="simple"><rect fill="#FEFECE" filter="url(#f1hhgxah5keq6v)" height="37.9375" id="com.ibm.fhir.model.type.code.SearchParamType" style="stroke: #A80036; stroke-width: 1.5;" width="177" x="28.5" y="8"/><ellipse cx="43.5" cy="26.9688" fill="#ADD1B2" rx="11" ry="11" style="stroke: #A80036; stroke-width: 1.0;"/><path d="M46.4688,32.6094 Q45.8906,32.9063 45.25,33.0469 Q44.6094,33.2031 43.9063,33.2031 Q41.4063,33.2031 40.0781,31.5625 Q38.7656,29.9063 38.7656,26.7813 Q38.7656,23.6563 40.0781,22 Q41.4063,20.3438 43.9063,20.3438 Q44.6094,20.3438 45.25,20.5 Q45.9063,20.6563 46.4688,20.9531 L46.4688,23.6719 Q45.8438,23.0938 45.25,22.8281 Q44.6563,22.5469 44.0313,22.5469 Q42.6875,22.5469 42,23.625 Q41.3125,24.6875 41.3125,26.7813 Q41.3125,28.875 42,29.9531 Q42.6875,31.0156 44.0313,31.0156 Q44.6563,31.0156 45.25,30.75 Q45.8438,30.4688 46.4688,29.8906 L46.4688,32.6094 Z "/><text fill="#000000" font-family="sans-serif" font-size="14" lengthAdjust="spacingAndGlyphs" textLength="125" x="67.5" y="25.9951">SearchParamType</text><text fill="#000000" font-family="sans-serif" font-size="10" lengthAdjust="spacingAndGlyphs" textLength="145" x="57.5" y="38.5791">com.ibm.fhir.model.type.code</text></a><!--MD5=[2bd32e80b41283e38f99f0467a8728e1]
reverse link com.ibm.fhir.model.type.code.SearchParamType to com.ibm.fhir.model.type.code.SearchParamType.ValueSet--><path d="M117,61.6382 C117,74.581 117,90.0011 117,105.8301 " fill="none" id="com.ibm.fhir.model.type.code.SearchParamType&lt;-com.ibm.fhir.model.type.code.SearchParamType.ValueSet" style="stroke: #A80036; stroke-width: 1.0;"/><ellipse cx="117.0001" cy="54.2246" fill="#FFFFFF" rx="8" ry="8" style="stroke: #A80036; stroke-width: 1.0;"/><line style="stroke: #A80036; stroke-width: 1.0;" x1="117.0002" x2="117" y1="62.2246" y2="46.2246"/><line style="stroke: #A80036; stroke-width: 1.0;" x1="109.0001" x2="125.0001" y1="54.2247" y2="54.2245"/><text fill="#888888" font-family="sans-serif" font-size="10" lengthAdjust="spacingAndGlyphs" textLength="186" x="30" y="320.2822">UMLDoclet 2.0.7, PlantUML 1.2019.12</text><!--MD5=[a28015d96baf5cf7c927b74607c76ee1]
@startuml
    set namespaceSeparator none
    hide empty fields
    hide empty methods

    enum "<size:14>SearchParamType.ValueSet\n<size:10>com.ibm.fhir.model.type.code" as com.ibm.fhir.model.type.code.SearchParamType.ValueSet [[SearchParamType.ValueSet.html]] {
        {static} +NUMBER
        {static} +DATE
        {static} +STRING
        {static} +TOKEN
        {static} +REFERENCE
        {static} +COMPOSITE
        {static} +QUANTITY
        {static} +URI
        {static} +SPECIAL
        +value(): String
        {static} +from(String): ValueSet
    }

    class "<size:14>SearchParamType\n<size:10>com.ibm.fhir.model.type.code" as com.ibm.fhir.model.type.code.SearchParamType [[SearchParamType.html]]

    com.ibm.fhir.model.type.code.SearchParamType +- - com.ibm.fhir.model.type.code.SearchParamType.ValueSet

    center footer UMLDoclet 2.0.7, PlantUML 1.2019.12
@enduml

PlantUML version 1.2019.12(Sun Nov 03 10:24:54 UTC 2019)
(APACHE source distribution)
Java Runtime: OpenJDK Runtime Environment
JVM: OpenJDK 64-Bit Server VM
Java Version: 11.0.9+11
Operating System: Linux
Default Encoding: UTF-8
Language: en
Country: null
--></g></svg>