<?xml version="1.0" encoding="UTF-8" standalone="no"?><svg xmlns="http://www.w3.org/2000/svg" xmlns:xlink="http://www.w3.org/1999/xlink" contentScriptType="application/ecmascript" contentStyleType="text/css" height="431px" preserveAspectRatio="none" style="width:633px;height:431px;" version="1.1" viewBox="0 0 633 431" width="633px" zoomAndPan="magnify"><defs><filter height="300%" id="fjebcrh11obyp" width="300%" x="-1" y="-1"><feGaussianBlur result="blurOut" stdDeviation="2.0"/><feColorMatrix in="blurOut" result="blurOut2" type="matrix" values="0 0 0 0 0 0 0 0 0 0 0 0 0 0 0 0 0 0 .4 0"/><feOffset dx="4.0" dy="4.0" in="blurOut2" result="blurOut3"/><feBlend in="SourceGraphic" in2="blurOut3" mode="normal"/></filter></defs><g><!--MD5=[b3c8e3fa449a8899dbd885edd4dfccf3]
class com.ibm.fhir.model.type.code.StructureMapTargetListMode--><a href="StructureMapTargetListMode.html" target="_top" title="StructureMapTargetListMode.html" xlink:actuate="onRequest" xlink:href="StructureMapTargetListMode.html" xlink:show="new" xlink:title="StructureMapTargetListMode.html" xlink:type="simple"><rect fill="#FEFECE" filter="url(#fjebcrh11obyp)" height="194.7891" id="com.ibm.fhir.model.type.code.StructureMapTargetListMode" style="stroke: #A80036; stroke-width: 1.5;" width="266" x="178" y="106"/><ellipse cx="208.3" cy="124.9688" fill="#ADD1B2" rx="11" ry="11" style="stroke: #A80036; stroke-width: 1.0;"/><path d="M211.2688,130.6094 Q210.6906,130.9063 210.05,131.0469 Q209.4094,131.2031 208.7063,131.2031 Q206.2063,131.2031 204.8781,129.5625 Q203.5656,127.9063 203.5656,124.7813 Q203.5656,121.6563 204.8781,120 Q206.2063,118.3438 208.7063,118.3438 Q209.4094,118.3438 210.05,118.5 Q210.7063,118.6563 211.2688,118.9531 L211.2688,121.6719 Q210.6438,121.0938 210.05,120.8281 Q209.4563,120.5469 208.8313,120.5469 Q207.4875,120.5469 206.8,121.625 Q206.1125,122.6875 206.1125,124.7813 Q206.1125,126.875 206.8,127.9531 Q207.4875,129.0156 208.8313,129.0156 Q209.4563,129.0156 210.05,128.75 Q210.6438,128.4688 211.2688,127.8906 L211.2688,130.6094 Z "/><text fill="#000000" font-family="sans-serif" font-size="14" lengthAdjust="spacingAndGlyphs" textLength="200" x="225.7" y="123.9951">StructureMapTargetListMode</text><text fill="#000000" font-family="sans-serif" font-size="10" lengthAdjust="spacingAndGlyphs" textLength="145" x="253.2" y="136.5791">com.ibm.fhir.model.type.code</text><line style="stroke: #A80036; stroke-width: 1.5;" x1="179" x2="443" y1="143.9375" y2="143.9375"/><ellipse cx="189" cy="154.9375" fill="none" rx="3" ry="3" style="stroke: #038048; stroke-width: 1.0;"/><text fill="#000000" font-family="sans-serif" font-size="11" lengthAdjust="spacingAndGlyphs" text-decoration="underline" textLength="202" x="198" y="158.1479">FIRST: StructureMapTargetListMode</text><ellipse cx="189" cy="167.7422" fill="none" rx="3" ry="3" style="stroke: #038048; stroke-width: 1.0;"/><text fill="#000000" font-family="sans-serif" font-size="11" lengthAdjust="spacingAndGlyphs" text-decoration="underline" textLength="208" x="198" y="170.9526">SHARE: StructureMapTargetListMode</text><ellipse cx="189" cy="180.5469" fill="none" rx="3" ry="3" style="stroke: #038048; stroke-width: 1.0;"/><text fill="#000000" font-family="sans-serif" font-size="11" lengthAdjust="spacingAndGlyphs" text-decoration="underline" textLength="199" x="198" y="183.7573">LAST: StructureMapTargetListMode</text><ellipse cx="189" cy="193.3516" fill="none" rx="3" ry="3" style="stroke: #038048; stroke-width: 1.0;"/><text fill="#000000" font-family="sans-serif" font-size="11" lengthAdjust="spacingAndGlyphs" text-decoration="underline" textLength="221" x="198" y="196.562">COLLATE: StructureMapTargetListMode</text><line style="stroke: #A80036; stroke-width: 1.5;" x1="179" x2="443" y1="203.1563" y2="203.1563"/><ellipse cx="189" cy="214.1563" fill="#84BE84" rx="3" ry="3" style="stroke: #038048; stroke-width: 1.0;"/><text fill="#000000" font-family="sans-serif" font-size="11" lengthAdjust="spacingAndGlyphs" textLength="212" x="198" y="217.3667">getValueAsEnumConstant(): ValueSet</text><ellipse cx="189" cy="226.9609" fill="#84BE84" rx="3" ry="3" style="stroke: #038048; stroke-width: 1.0;"/><text fill="#000000" font-family="sans-serif" font-size="11" lengthAdjust="spacingAndGlyphs" text-decoration="underline" textLength="240" x="198" y="230.1714">of(ValueSet): StructureMapTargetListMode</text><ellipse cx="189" cy="239.7656" fill="#84BE84" rx="3" ry="3" style="stroke: #038048; stroke-width: 1.0;"/><text fill="#000000" font-family="sans-serif" font-size="11" lengthAdjust="spacingAndGlyphs" text-decoration="underline" textLength="224" x="198" y="242.9761">of(String): StructureMapTargetListMode</text><ellipse cx="189" cy="252.5703" fill="#84BE84" rx="3" ry="3" style="stroke: #038048; stroke-width: 1.0;"/><text fill="#000000" font-family="sans-serif" font-size="11" lengthAdjust="spacingAndGlyphs" text-decoration="underline" textLength="117" x="198" y="255.7808">string(String): String</text><ellipse cx="189" cy="265.375" fill="#84BE84" rx="3" ry="3" style="stroke: #038048; stroke-width: 1.0;"/><text fill="#000000" font-family="sans-serif" font-size="11" lengthAdjust="spacingAndGlyphs" text-decoration="underline" textLength="106" x="198" y="268.5854">code(String): Code</text><ellipse cx="189" cy="278.1797" fill="#84BE84" rx="3" ry="3" style="stroke: #038048; stroke-width: 1.0;"/><text fill="#000000" font-family="sans-serif" font-size="11" lengthAdjust="spacingAndGlyphs" textLength="107" x="198" y="281.3901">toBuilder(): Builder</text><ellipse cx="189" cy="290.9844" fill="#84BE84" rx="3" ry="3" style="stroke: #038048; stroke-width: 1.0;"/><text fill="#000000" font-family="sans-serif" font-size="11" lengthAdjust="spacingAndGlyphs" text-decoration="underline" textLength="95" x="198" y="294.1948">builder(): Builder</text></a><!--MD5=[36277681a3d78580011ae89cb2088b30]
class com.ibm.fhir.model.type.Code--><a href="../Code.html" target="_top" title="../Code.html" xlink:actuate="onRequest" xlink:href="../Code.html" xlink:show="new" xlink:title="../Code.html" xlink:type="simple"><rect fill="#FEFECE" filter="url(#fjebcrh11obyp)" height="37.9375" id="com.ibm.fhir.model.type.Code" style="stroke: #A80036; stroke-width: 1.5;" width="151" x="235.5" y="8"/><ellipse cx="250.5" cy="26.9688" fill="#ADD1B2" rx="11" ry="11" style="stroke: #A80036; stroke-width: 1.0;"/><path d="M253.4688,32.6094 Q252.8906,32.9063 252.25,33.0469 Q251.6094,33.2031 250.9063,33.2031 Q248.4063,33.2031 247.0781,31.5625 Q245.7656,29.9063 245.7656,26.7813 Q245.7656,23.6563 247.0781,22 Q248.4063,20.3438 250.9063,20.3438 Q251.6094,20.3438 252.25,20.5 Q252.9063,20.6563 253.4688,20.9531 L253.4688,23.6719 Q252.8438,23.0938 252.25,22.8281 Q251.6563,22.5469 251.0313,22.5469 Q249.6875,22.5469 249,23.625 Q248.3125,24.6875 248.3125,26.7813 Q248.3125,28.875 249,29.9531 Q249.6875,31.0156 251.0313,31.0156 Q251.6563,31.0156 252.25,30.75 Q252.8438,30.4688 253.4688,29.8906 L253.4688,32.6094 Z "/><text fill="#000000" font-family="sans-serif" font-size="14" lengthAdjust="spacingAndGlyphs" textLength="37" x="305.5" y="25.9951">Code</text><text fill="#000000" font-family="sans-serif" font-size="10" lengthAdjust="spacingAndGlyphs" textLength="119" x="264.5" y="38.5791">com.ibm.fhir.model.type</text></a><!--MD5=[c0187e2aded99f8ca2dce19fa111a537]
class com.ibm.fhir.model.type.code.StructureMapTargetListMode.Builder--><a href="StructureMapTargetListMode.Builder.html" target="_top" title="StructureMapTargetListMode.Builder.html" xlink:actuate="onRequest" xlink:href="StructureMapTargetListMode.Builder.html" xlink:show="new" xlink:title="StructureMapTargetListMode.Builder.html" xlink:type="simple"><rect fill="#FEFECE" filter="url(#fjebcrh11obyp)" height="37.9375" id="com.ibm.fhir.model.type.code.StructureMapTargetListMode.Builder" style="stroke: #A80036; stroke-width: 1.5;" width="284" x="6" y="361"/><ellipse cx="21" cy="379.9688" fill="#ADD1B2" rx="11" ry="11" style="stroke: #A80036; stroke-width: 1.0;"/><path d="M23.9688,385.6094 Q23.3906,385.9063 22.75,386.0469 Q22.1094,386.2031 21.4063,386.2031 Q18.9063,386.2031 17.5781,384.5625 Q16.2656,382.9063 16.2656,379.7813 Q16.2656,376.6563 17.5781,375 Q18.9063,373.3438 21.4063,373.3438 Q22.1094,373.3438 22.75,373.5 Q23.4063,373.6563 23.9688,373.9531 L23.9688,376.6719 Q23.3438,376.0938 22.75,375.8281 Q22.1563,375.5469 21.5313,375.5469 Q20.1875,375.5469 19.5,376.625 Q18.8125,377.6875 18.8125,379.7813 Q18.8125,381.875 19.5,382.9531 Q20.1875,384.0156 21.5313,384.0156 Q22.1563,384.0156 22.75,383.75 Q23.3438,383.4688 23.9688,382.8906 L23.9688,385.6094 Z "/><text fill="#000000" font-family="sans-serif" font-size="14" lengthAdjust="spacingAndGlyphs" textLength="252" x="35" y="378.9951">StructureMapTargetListMode.Builder</text><text fill="#000000" font-family="sans-serif" font-size="10" lengthAdjust="spacingAndGlyphs" textLength="145" x="88.5" y="391.5791">com.ibm.fhir.model.type.code</text></a><!--MD5=[89b03e86f01e505bcb5f37eb6ed613f6]
class com.ibm.fhir.model.type.code.StructureMapTargetListMode.ValueSet--><a href="StructureMapTargetListMode.ValueSet.html" target="_top" title="StructureMapTargetListMode.ValueSet.html" xlink:actuate="onRequest" xlink:href="StructureMapTargetListMode.ValueSet.html" xlink:show="new" xlink:title="StructureMapTargetListMode.ValueSet.html" xlink:type="simple"><rect fill="#FEFECE" filter="url(#fjebcrh11obyp)" height="37.9375" id="com.ibm.fhir.model.type.code.StructureMapTargetListMode.ValueSet" style="stroke: #A80036; stroke-width: 1.5;" width="297" x="325.5" y="361"/><ellipse cx="340.5" cy="379.9688" fill="#EB937F" rx="11" ry="11" style="stroke: #A80036; stroke-width: 1.0;"/><path d="M344.6094,385.9688 L336.8906,385.9688 L336.8906,373.5781 L344.6094,373.5781 L344.6094,375.7344 L339.3438,375.7344 L339.3438,378.4063 L344.1094,378.4063 L344.1094,380.5625 L339.3438,380.5625 L339.3438,383.8125 L344.6094,383.8125 L344.6094,385.9688 Z "/><text fill="#000000" font-family="sans-serif" font-size="14" lengthAdjust="spacingAndGlyphs" textLength="265" x="354.5" y="378.9951">StructureMapTargetListMode.ValueSet</text><text fill="#000000" font-family="sans-serif" font-size="10" lengthAdjust="spacingAndGlyphs" textLength="145" x="414.5" y="391.5791">com.ibm.fhir.model.type.code</text></a><!--MD5=[ee06f5dedf3e452675539b1708a60855]
reverse link com.ibm.fhir.model.type.Code to com.ibm.fhir.model.type.code.StructureMapTargetListMode--><path d="M311,66.5468 C311,78.399 311,91.9575 311,105.8301 " fill="none" id="com.ibm.fhir.model.type.Code&lt;-com.ibm.fhir.model.type.code.StructureMapTargetListMode" style="stroke: #A80036; stroke-width: 1.0;"/><polygon fill="none" points="304.0001,66.2246,311,46.2246,318.0001,66.2245,304.0001,66.2246" style="stroke: #A80036; stroke-width: 1.0;"/><!--MD5=[95df846702853a3df38d1331ce763882]
reverse link com.ibm.fhir.model.type.code.StructureMapTargetListMode to com.ibm.fhir.model.type.code.StructureMapTargetListMode.Builder--><path d="M210.6418,312.1701 C193.3793,330.8622 177.3112,348.2612 165.7712,360.757 " fill="none" id="com.ibm.fhir.model.type.code.StructureMapTargetListMode&lt;-com.ibm.fhir.model.type.code.StructureMapTargetListMode.Builder" style="stroke: #A80036; stroke-width: 1.0;"/><ellipse cx="215.4909" cy="306.9194" fill="#FFFFFF" rx="8" ry="8" style="stroke: #A80036; stroke-width: 1.0;"/><line style="stroke: #A80036; stroke-width: 1.0;" x1="210.0632" x2="220.9185" y1="312.7966" y2="301.0423"/><line style="stroke: #A80036; stroke-width: 1.0;" x1="209.6137" x2="221.368" y1="301.4918" y2="312.3471"/><!--MD5=[7d6fe0094fe13e7c12e75fded56027d4]
reverse link com.ibm.fhir.model.type.code.StructureMapTargetListMode to com.ibm.fhir.model.type.code.StructureMapTargetListMode.ValueSet--><path d="M411.3582,312.1701 C428.6207,330.8622 444.6888,348.2612 456.2288,360.757 " fill="none" id="com.ibm.fhir.model.type.code.StructureMapTargetListMode&lt;-com.ibm.fhir.model.type.code.StructureMapTargetListMode.ValueSet" style="stroke: #A80036; stroke-width: 1.0;"/><ellipse cx="406.5091" cy="306.9194" fill="#FFFFFF" rx="8" ry="8" style="stroke: #A80036; stroke-width: 1.0;"/><line style="stroke: #A80036; stroke-width: 1.0;" x1="411.9368" x2="401.0815" y1="312.7966" y2="301.0423"/><line style="stroke: #A80036; stroke-width: 1.0;" x1="400.632" x2="412.3863" y1="312.3471" y2="301.4918"/><text fill="#888888" font-family="sans-serif" font-size="10" lengthAdjust="spacingAndGlyphs" textLength="186" x="227.5" y="418.2822">UMLDoclet 2.0.7, PlantUML 1.2019.12</text><!--MD5=[433d44e83ceb90522c3b1aa3a113f771]
@startuml
    set namespaceSeparator none
    hide empty fields
    hide empty methods

    class "<size:14>StructureMapTargetListMode\n<size:10>com.ibm.fhir.model.type.code" as com.ibm.fhir.model.type.code.StructureMapTargetListMode [[StructureMapTargetListMode.html]] {
        {static} +FIRST: StructureMapTargetListMode
        {static} +SHARE: StructureMapTargetListMode
        {static} +LAST: StructureMapTargetListMode
        {static} +COLLATE: StructureMapTargetListMode
        +getValueAsEnumConstant(): ValueSet
        {static} +of(ValueSet): StructureMapTargetListMode
        {static} +of(String): StructureMapTargetListMode
        {static} +string(String): String
        {static} +code(String): Code
        +toBuilder(): Builder
        {static} +builder(): Builder
    }

    class "<size:14>Code\n<size:10>com.ibm.fhir.model.type" as com.ibm.fhir.model.type.Code [[../Code.html]]
    class "<size:14>StructureMapTargetListMode.Builder\n<size:10>com.ibm.fhir.model.type.code" as com.ibm.fhir.model.type.code.StructureMapTargetListMode.Builder [[StructureMapTargetListMode.Builder.html]]
    enum "<size:14>StructureMapTargetListMode.ValueSet\n<size:10>com.ibm.fhir.model.type.code" as com.ibm.fhir.model.type.code.StructureMapTargetListMode.ValueSet [[StructureMapTargetListMode.ValueSet.html]]

    com.ibm.fhir.model.type.Code <|- - com.ibm.fhir.model.type.code.StructureMapTargetListMode
    com.ibm.fhir.model.type.code.StructureMapTargetListMode +- - com.ibm.fhir.model.type.code.StructureMapTargetListMode.Builder
    com.ibm.fhir.model.type.code.StructureMapTargetListMode +- - com.ibm.fhir.model.type.code.StructureMapTargetListMode.ValueSet

    center footer UMLDoclet 2.0.7, PlantUML 1.2019.12
@enduml

PlantUML version 1.2019.12(Sun Nov 03 10:24:54 UTC 2019)
(APACHE source distribution)
Java Runtime: OpenJDK Runtime Environment
JVM: OpenJDK 64-Bit Server VM
Java Version: 11.0.6+10
Operating System: Linux
Default Encoding: UTF-8
Language: en
Country: null
--></g></svg>