<?xml version="1.0" encoding="UTF-8" standalone="no"?><svg xmlns="http://www.w3.org/2000/svg" xmlns:xlink="http://www.w3.org/1999/xlink" contentScriptType="application/ecmascript" contentStyleType="text/css" height="405px" preserveAspectRatio="none" style="width:595px;height:405px;" version="1.1" viewBox="0 0 595 405" width="595px" zoomAndPan="magnify"><defs><filter height="300%" id="f7edr34xakge4" width="300%" x="-1" y="-1"><feGaussianBlur result="blurOut" stdDeviation="2.0"/><feColorMatrix in="blurOut" result="blurOut2" type="matrix" values="0 0 0 0 0 0 0 0 0 0 0 0 0 0 0 0 0 0 .4 0"/><feOffset dx="4.0" dy="4.0" in="blurOut2" result="blurOut3"/><feBlend in="SourceGraphic" in2="blurOut3" mode="normal"/></filter></defs><g><!--MD5=[500288a724f5035151b7e333ac22913d]
class com.ibm.fhir.model.type.code.StructureMapContextType--><a href="StructureMapContextType.html" target="_top" title="StructureMapContextType.html" xlink:actuate="onRequest" xlink:href="StructureMapContextType.html" xlink:show="new" xlink:title="StructureMapContextType.html" xlink:type="simple"><rect fill="#FEFECE" filter="url(#f7edr34xakge4)" height="169.1797" id="com.ibm.fhir.model.type.code.StructureMapContextType" style="stroke: #A80036; stroke-width: 1.5;" width="249" x="167" y="106"/><ellipse cx="198.2" cy="124.9688" fill="#ADD1B2" rx="11" ry="11" style="stroke: #A80036; stroke-width: 1.0;"/><path d="M201.1688,130.6094 Q200.5906,130.9063 199.95,131.0469 Q199.3094,131.2031 198.6063,131.2031 Q196.1063,131.2031 194.7781,129.5625 Q193.4656,127.9063 193.4656,124.7813 Q193.4656,121.6563 194.7781,120 Q196.1063,118.3438 198.6063,118.3438 Q199.3094,118.3438 199.95,118.5 Q200.6063,118.6563 201.1688,118.9531 L201.1688,121.6719 Q200.5438,121.0938 199.95,120.8281 Q199.3563,120.5469 198.7313,120.5469 Q197.3875,120.5469 196.7,121.625 Q196.0125,122.6875 196.0125,124.7813 Q196.0125,126.875 196.7,127.9531 Q197.3875,129.0156 198.7313,129.0156 Q199.3563,129.0156 199.95,128.75 Q200.5438,128.4688 201.1688,127.8906 L201.1688,130.6094 Z "/><text fill="#000000" font-family="sans-serif" font-size="14" lengthAdjust="spacingAndGlyphs" textLength="181" x="215.8" y="123.9951">StructureMapContextType</text><text fill="#000000" font-family="sans-serif" font-size="10" lengthAdjust="spacingAndGlyphs" textLength="145" x="233.8" y="136.5791">com.ibm.fhir.model.type.code</text><line style="stroke: #A80036; stroke-width: 1.5;" x1="168" x2="415" y1="143.9375" y2="143.9375"/><ellipse cx="178" cy="154.9375" fill="none" rx="3" ry="3" style="stroke: #038048; stroke-width: 1.0;"/><text fill="#000000" font-family="sans-serif" font-size="11" lengthAdjust="spacingAndGlyphs" text-decoration="underline" textLength="182" x="187" y="158.1479">TYPE: StructureMapContextType</text><ellipse cx="178" cy="167.7422" fill="none" rx="3" ry="3" style="stroke: #038048; stroke-width: 1.0;"/><text fill="#000000" font-family="sans-serif" font-size="11" lengthAdjust="spacingAndGlyphs" text-decoration="underline" textLength="206" x="187" y="170.9526">VARIABLE: StructureMapContextType</text><line style="stroke: #A80036; stroke-width: 1.5;" x1="168" x2="415" y1="177.5469" y2="177.5469"/><ellipse cx="178" cy="188.5469" fill="#84BE84" rx="3" ry="3" style="stroke: #038048; stroke-width: 1.0;"/><text fill="#000000" font-family="sans-serif" font-size="11" lengthAdjust="spacingAndGlyphs" textLength="212" x="187" y="191.7573">getValueAsEnumConstant(): ValueSet</text><ellipse cx="178" cy="201.3516" fill="#84BE84" rx="3" ry="3" style="stroke: #038048; stroke-width: 1.0;"/><text fill="#000000" font-family="sans-serif" font-size="11" lengthAdjust="spacingAndGlyphs" text-decoration="underline" textLength="223" x="187" y="204.562">of(ValueSet): StructureMapContextType</text><ellipse cx="178" cy="214.1563" fill="#84BE84" rx="3" ry="3" style="stroke: #038048; stroke-width: 1.0;"/><text fill="#000000" font-family="sans-serif" font-size="11" lengthAdjust="spacingAndGlyphs" text-decoration="underline" textLength="207" x="187" y="217.3667">of(String): StructureMapContextType</text><ellipse cx="178" cy="226.9609" fill="#84BE84" rx="3" ry="3" style="stroke: #038048; stroke-width: 1.0;"/><text fill="#000000" font-family="sans-serif" font-size="11" lengthAdjust="spacingAndGlyphs" text-decoration="underline" textLength="117" x="187" y="230.1714">string(String): String</text><ellipse cx="178" cy="239.7656" fill="#84BE84" rx="3" ry="3" style="stroke: #038048; stroke-width: 1.0;"/><text fill="#000000" font-family="sans-serif" font-size="11" lengthAdjust="spacingAndGlyphs" text-decoration="underline" textLength="106" x="187" y="242.9761">code(String): Code</text><ellipse cx="178" cy="252.5703" fill="#84BE84" rx="3" ry="3" style="stroke: #038048; stroke-width: 1.0;"/><text fill="#000000" font-family="sans-serif" font-size="11" lengthAdjust="spacingAndGlyphs" textLength="107" x="187" y="255.7808">toBuilder(): Builder</text><ellipse cx="178" cy="265.375" fill="#84BE84" rx="3" ry="3" style="stroke: #038048; stroke-width: 1.0;"/><text fill="#000000" font-family="sans-serif" font-size="11" lengthAdjust="spacingAndGlyphs" text-decoration="underline" textLength="95" x="187" y="268.5854">builder(): Builder</text></a><!--MD5=[36277681a3d78580011ae89cb2088b30]
class com.ibm.fhir.model.type.Code--><a href="../Code.html" target="_top" title="../Code.html" xlink:actuate="onRequest" xlink:href="../Code.html" xlink:show="new" xlink:title="../Code.html" xlink:type="simple"><rect fill="#FEFECE" filter="url(#f7edr34xakge4)" height="37.9375" id="com.ibm.fhir.model.type.Code" style="stroke: #A80036; stroke-width: 1.5;" width="151" x="216" y="8"/><ellipse cx="231" cy="26.9688" fill="#ADD1B2" rx="11" ry="11" style="stroke: #A80036; stroke-width: 1.0;"/><path d="M233.9688,32.6094 Q233.3906,32.9063 232.75,33.0469 Q232.1094,33.2031 231.4063,33.2031 Q228.9063,33.2031 227.5781,31.5625 Q226.2656,29.9063 226.2656,26.7813 Q226.2656,23.6563 227.5781,22 Q228.9063,20.3438 231.4063,20.3438 Q232.1094,20.3438 232.75,20.5 Q233.4063,20.6563 233.9688,20.9531 L233.9688,23.6719 Q233.3438,23.0938 232.75,22.8281 Q232.1563,22.5469 231.5313,22.5469 Q230.1875,22.5469 229.5,23.625 Q228.8125,24.6875 228.8125,26.7813 Q228.8125,28.875 229.5,29.9531 Q230.1875,31.0156 231.5313,31.0156 Q232.1563,31.0156 232.75,30.75 Q233.3438,30.4688 233.9688,29.8906 L233.9688,32.6094 Z "/><text fill="#000000" font-family="sans-serif" font-size="14" lengthAdjust="spacingAndGlyphs" textLength="37" x="286" y="25.9951">Code</text><text fill="#000000" font-family="sans-serif" font-size="10" lengthAdjust="spacingAndGlyphs" textLength="119" x="245" y="38.5791">com.ibm.fhir.model.type</text></a><!--MD5=[672f826adbe32de0e2c80932364927df]
class com.ibm.fhir.model.type.code.StructureMapContextType.Builder--><a href="StructureMapContextType.Builder.html" target="_top" title="StructureMapContextType.Builder.html" xlink:actuate="onRequest" xlink:href="StructureMapContextType.Builder.html" xlink:show="new" xlink:title="StructureMapContextType.Builder.html" xlink:type="simple"><rect fill="#FEFECE" filter="url(#f7edr34xakge4)" height="37.9375" id="com.ibm.fhir.model.type.code.StructureMapContextType.Builder" style="stroke: #A80036; stroke-width: 1.5;" width="265" x="6" y="335"/><ellipse cx="21" cy="353.9688" fill="#ADD1B2" rx="11" ry="11" style="stroke: #A80036; stroke-width: 1.0;"/><path d="M23.9688,359.6094 Q23.3906,359.9063 22.75,360.0469 Q22.1094,360.2031 21.4063,360.2031 Q18.9063,360.2031 17.5781,358.5625 Q16.2656,356.9063 16.2656,353.7813 Q16.2656,350.6563 17.5781,349 Q18.9063,347.3438 21.4063,347.3438 Q22.1094,347.3438 22.75,347.5 Q23.4063,347.6563 23.9688,347.9531 L23.9688,350.6719 Q23.3438,350.0938 22.75,349.8281 Q22.1563,349.5469 21.5313,349.5469 Q20.1875,349.5469 19.5,350.625 Q18.8125,351.6875 18.8125,353.7813 Q18.8125,355.875 19.5,356.9531 Q20.1875,358.0156 21.5313,358.0156 Q22.1563,358.0156 22.75,357.75 Q23.3438,357.4688 23.9688,356.8906 L23.9688,359.6094 Z "/><text fill="#000000" font-family="sans-serif" font-size="14" lengthAdjust="spacingAndGlyphs" textLength="233" x="35" y="352.9951">StructureMapContextType.Builder</text><text fill="#000000" font-family="sans-serif" font-size="10" lengthAdjust="spacingAndGlyphs" textLength="145" x="79" y="365.5791">com.ibm.fhir.model.type.code</text></a><!--MD5=[58f06c608c6f5c5de42f4f04ff95e575]
class com.ibm.fhir.model.type.code.StructureMapContextType.ValueSet--><a href="StructureMapContextType.ValueSet.html" target="_top" title="StructureMapContextType.ValueSet.html" xlink:actuate="onRequest" xlink:href="StructureMapContextType.ValueSet.html" xlink:show="new" xlink:title="StructureMapContextType.ValueSet.html" xlink:type="simple"><rect fill="#FEFECE" filter="url(#f7edr34xakge4)" height="37.9375" id="com.ibm.fhir.model.type.code.StructureMapContextType.ValueSet" style="stroke: #A80036; stroke-width: 1.5;" width="278" x="306.5" y="335"/><ellipse cx="321.5" cy="353.9688" fill="#EB937F" rx="11" ry="11" style="stroke: #A80036; stroke-width: 1.0;"/><path d="M325.6094,359.9688 L317.8906,359.9688 L317.8906,347.5781 L325.6094,347.5781 L325.6094,349.7344 L320.3438,349.7344 L320.3438,352.4063 L325.1094,352.4063 L325.1094,354.5625 L320.3438,354.5625 L320.3438,357.8125 L325.6094,357.8125 L325.6094,359.9688 Z "/><text fill="#000000" font-family="sans-serif" font-size="14" lengthAdjust="spacingAndGlyphs" textLength="246" x="335.5" y="352.9951">StructureMapContextType.ValueSet</text><text fill="#000000" font-family="sans-serif" font-size="10" lengthAdjust="spacingAndGlyphs" textLength="145" x="386" y="365.5791">com.ibm.fhir.model.type.code</text></a><!--MD5=[06052304a7e17fb37283a6988b4444dc]
reverse link com.ibm.fhir.model.type.Code to com.ibm.fhir.model.type.code.StructureMapContextType--><path d="M291.5,66.1355 C291.5,78.1849 291.5,91.9487 291.5,105.8251 " fill="none" id="com.ibm.fhir.model.type.Code&lt;-com.ibm.fhir.model.type.code.StructureMapContextType" style="stroke: #A80036; stroke-width: 1.0;"/><polygon fill="none" points="284.5001,66.0756,291.5,46.0755,298.5001,66.0755,284.5001,66.0756" style="stroke: #A80036; stroke-width: 1.0;"/><!--MD5=[9144266b7ab6e37ad3a23da79f44008a]
reverse link com.ibm.fhir.model.type.code.StructureMapContextType to com.ibm.fhir.model.type.code.StructureMapContextType.Builder--><path d="M202.025,286.1154 C184.6874,304.6429 168.2656,322.1917 156.4633,334.8039 " fill="none" id="com.ibm.fhir.model.type.code.StructureMapContextType&lt;-com.ibm.fhir.model.type.code.StructureMapContextType.Builder" style="stroke: #A80036; stroke-width: 1.0;"/><ellipse cx="206.8448" cy="280.9648" fill="#FFFFFF" rx="8" ry="8" style="stroke: #A80036; stroke-width: 1.0;"/><line style="stroke: #A80036; stroke-width: 1.0;" x1="201.3786" x2="212.311" y1="286.8061" y2="275.1235"/><line style="stroke: #A80036; stroke-width: 1.0;" x1="201.0035" x2="212.6861" y1="275.4986" y2="286.431"/><!--MD5=[0ebb57fb57b2485c750204be6b842d4a]
reverse link com.ibm.fhir.model.type.code.StructureMapContextType to com.ibm.fhir.model.type.code.StructureMapContextType.ValueSet--><path d="M381.5598,286.1154 C399.0108,304.6429 415.5399,322.1917 427.4193,334.8039 " fill="none" id="com.ibm.fhir.model.type.code.StructureMapContextType&lt;-com.ibm.fhir.model.type.code.StructureMapContextType.ValueSet" style="stroke: #A80036; stroke-width: 1.0;"/><ellipse cx="376.6916" cy="280.947" fill="#FFFFFF" rx="8" ry="8" style="stroke: #A80036; stroke-width: 1.0;"/><line style="stroke: #A80036; stroke-width: 1.0;" x1="382.1767" x2="371.2065" y1="286.7706" y2="275.1235"/><line style="stroke: #A80036; stroke-width: 1.0;" x1="370.8681" x2="382.5151" y1="286.4321" y2="275.4619"/><text fill="#888888" font-family="sans-serif" font-size="10" lengthAdjust="spacingAndGlyphs" textLength="186" x="208.5" y="392.2822">UMLDoclet 2.0.7, PlantUML 1.2019.12</text><!--MD5=[94382c02e42803c515d603f26f98e5c4]
@startuml
    set namespaceSeparator none
    hide empty fields
    hide empty methods

    class "<size:14>StructureMapContextType\n<size:10>com.ibm.fhir.model.type.code" as com.ibm.fhir.model.type.code.StructureMapContextType [[StructureMapContextType.html]] {
        {static} +TYPE: StructureMapContextType
        {static} +VARIABLE: StructureMapContextType
        +getValueAsEnumConstant(): ValueSet
        {static} +of(ValueSet): StructureMapContextType
        {static} +of(String): StructureMapContextType
        {static} +string(String): String
        {static} +code(String): Code
        +toBuilder(): Builder
        {static} +builder(): Builder
    }

    class "<size:14>Code\n<size:10>com.ibm.fhir.model.type" as com.ibm.fhir.model.type.Code [[../Code.html]]
    class "<size:14>StructureMapContextType.Builder\n<size:10>com.ibm.fhir.model.type.code" as com.ibm.fhir.model.type.code.StructureMapContextType.Builder [[StructureMapContextType.Builder.html]]
    enum "<size:14>StructureMapContextType.ValueSet\n<size:10>com.ibm.fhir.model.type.code" as com.ibm.fhir.model.type.code.StructureMapContextType.ValueSet [[StructureMapContextType.ValueSet.html]]

    com.ibm.fhir.model.type.Code <|- - com.ibm.fhir.model.type.code.StructureMapContextType
    com.ibm.fhir.model.type.code.StructureMapContextType +- - com.ibm.fhir.model.type.code.StructureMapContextType.Builder
    com.ibm.fhir.model.type.code.StructureMapContextType +- - com.ibm.fhir.model.type.code.StructureMapContextType.ValueSet

    center footer UMLDoclet 2.0.7, PlantUML 1.2019.12
@enduml

PlantUML version 1.2019.12(Sun Nov 03 10:24:54 UTC 2019)
(APACHE source distribution)
Java Runtime: OpenJDK Runtime Environment
JVM: OpenJDK 64-Bit Server VM
Java Version: 11.0.6+10
Operating System: Linux
Default Encoding: UTF-8
Language: en
Country: null
--></g></svg>