<?xml version="1.0" encoding="UTF-8" standalone="no"?><svg xmlns="http://www.w3.org/2000/svg" xmlns:xlink="http://www.w3.org/1999/xlink" contentScriptType="application/ecmascript" contentStyleType="text/css" height="721px" preserveAspectRatio="none" style="width:1114px;height:721px;" version="1.1" viewBox="0 0 1114 721" width="1114px" zoomAndPan="magnify"><defs><filter height="300%" id="f1rt12fc8todts" width="300%" x="-1" y="-1"><feGaussianBlur result="blurOut" stdDeviation="2.0"/><feColorMatrix in="blurOut" result="blurOut2" type="matrix" values="0 0 0 0 0 0 0 0 0 0 0 0 0 0 0 0 0 0 .4 0"/><feOffset dx="4.0" dy="4.0" in="blurOut2" result="blurOut3"/><feBlend in="SourceGraphic" in2="blurOut3" mode="normal"/></filter></defs><g><!--MD5=[2db031f69b62a6f34d3e84ff176bf954]
cluster com.ibm.fhir.bucket.client--><polygon fill="#FFFFFF" filter="url(#f1rt12fc8todts)" points="14,16,225,16,232,38.2969,1092,38.2969,1092,681,14,681,14,16" style="stroke: #000000; stroke-width: 1.5;"/><line style="stroke: #000000; stroke-width: 1.5;" x1="14" x2="232" y1="38.2969" y2="38.2969"/><text fill="#000000" font-family="sans-serif" font-size="14" font-weight="bold" lengthAdjust="spacingAndGlyphs" textLength="205" x="18" y="30.9951">com.ibm.fhir.bucket.client</text><!--MD5=[59c3618633b58ec98af34752895c35b5]
class com.ibm.fhir.bucket.client.ClientPropertyAdapter--><a href="ClientPropertyAdapter.html" target="_top" title="ClientPropertyAdapter.html" xlink:actuate="onRequest" xlink:href="ClientPropertyAdapter.html" xlink:show="new" xlink:title="ClientPropertyAdapter.html" xlink:type="simple"><rect fill="#FEFECE" filter="url(#f1rt12fc8todts)" height="368.1172" id="com.ibm.fhir.bucket.client.ClientPropertyAdapter" style="stroke: #A80036; stroke-width: 1.5;" width="265" x="314.5" y="43"/><ellipse cx="373.75" cy="59" fill="#ADD1B2" rx="11" ry="11" style="stroke: #A80036; stroke-width: 1.0;"/><path d="M376.7188,64.6406 Q376.1406,64.9375 375.5,65.0781 Q374.8594,65.2344 374.1563,65.2344 Q371.6563,65.2344 370.3281,63.5938 Q369.0156,61.9375 369.0156,58.8125 Q369.0156,55.6875 370.3281,54.0313 Q371.6563,52.375 374.1563,52.375 Q374.8594,52.375 375.5,52.5313 Q376.1563,52.6875 376.7188,52.9844 L376.7188,55.7031 Q376.0938,55.125 375.5,54.8594 Q374.9063,54.5781 374.2813,54.5781 Q372.9375,54.5781 372.25,55.6563 Q371.5625,56.7188 371.5625,58.8125 Q371.5625,60.9063 372.25,61.9844 Q372.9375,63.0469 374.2813,63.0469 Q374.9063,63.0469 375.5,62.7813 Q376.0938,62.5 376.7188,61.9219 L376.7188,64.6406 Z "/><text fill="#000000" font-family="sans-serif" font-size="12" lengthAdjust="spacingAndGlyphs" textLength="138" x="394.25" y="63.1543">ClientPropertyAdapter</text><line style="stroke: #A80036; stroke-width: 1.5;" x1="315.5" x2="578.5" y1="75" y2="75"/><ellipse cx="325.5" cy="86" fill="none" rx="3" ry="3" style="stroke: #038048; stroke-width: 1.0;"/><text fill="#000000" font-family="sans-serif" font-size="11" lengthAdjust="spacingAndGlyphs" text-decoration="underline" textLength="127" x="334.5" y="89.2104">READ_TIMEOUT: String</text><ellipse cx="325.5" cy="98.8047" fill="none" rx="3" ry="3" style="stroke: #038048; stroke-width: 1.0;"/><text fill="#000000" font-family="sans-serif" font-size="11" lengthAdjust="spacingAndGlyphs" text-decoration="underline" textLength="153" x="334.5" y="102.0151">CONNECT_TIMEOUT: String</text><ellipse cx="325.5" cy="111.6094" fill="none" rx="3" ry="3" style="stroke: #038048; stroke-width: 1.0;"/><text fill="#000000" font-family="sans-serif" font-size="11" lengthAdjust="spacingAndGlyphs" text-decoration="underline" textLength="153" x="334.5" y="114.8198">FHIR_SERVER_HOST: String</text><ellipse cx="325.5" cy="124.4141" fill="none" rx="3" ry="3" style="stroke: #038048; stroke-width: 1.0;"/><text fill="#000000" font-family="sans-serif" font-size="11" lengthAdjust="spacingAndGlyphs" text-decoration="underline" textLength="151" x="334.5" y="127.6245">FHIR_SERVER_PORT: String</text><ellipse cx="325.5" cy="137.2188" fill="none" rx="3" ry="3" style="stroke: #038048; stroke-width: 1.0;"/><text fill="#000000" font-family="sans-serif" font-size="11" lengthAdjust="spacingAndGlyphs" text-decoration="underline" textLength="178" x="334.5" y="140.4292">FHIR_SERVER_ENDPOINT: String</text><ellipse cx="325.5" cy="150.0234" fill="none" rx="3" ry="3" style="stroke: #038048; stroke-width: 1.0;"/><text fill="#000000" font-family="sans-serif" font-size="11" lengthAdjust="spacingAndGlyphs" text-decoration="underline" textLength="151" x="334.5" y="153.2339">FHIR_SERVER_USER: String</text><ellipse cx="325.5" cy="162.8281" fill="none" rx="3" ry="3" style="stroke: #038048; stroke-width: 1.0;"/><text fill="#000000" font-family="sans-serif" font-size="11" lengthAdjust="spacingAndGlyphs" text-decoration="underline" textLength="151" x="334.5" y="166.0386">FHIR_SERVER_PASS: String</text><ellipse cx="325.5" cy="175.6328" fill="none" rx="3" ry="3" style="stroke: #038048; stroke-width: 1.0;"/><text fill="#000000" font-family="sans-serif" font-size="11" lengthAdjust="spacingAndGlyphs" text-decoration="underline" textLength="117" x="334.5" y="178.8433">TRUSTSTORE: String</text><ellipse cx="325.5" cy="188.4375" fill="none" rx="3" ry="3" style="stroke: #038048; stroke-width: 1.0;"/><text fill="#000000" font-family="sans-serif" font-size="11" lengthAdjust="spacingAndGlyphs" text-decoration="underline" textLength="153" x="334.5" y="191.6479">TRUSTSTORE_PASS: String</text><ellipse cx="325.5" cy="201.2422" fill="none" rx="3" ry="3" style="stroke: #038048; stroke-width: 1.0;"/><text fill="#000000" font-family="sans-serif" font-size="11" lengthAdjust="spacingAndGlyphs" text-decoration="underline" textLength="191" x="334.5" y="204.4526">POOL_CONNECTIONS_MAX: String</text><ellipse cx="325.5" cy="214.0469" fill="none" rx="3" ry="3" style="stroke: #038048; stroke-width: 1.0;"/><text fill="#000000" font-family="sans-serif" font-size="11" lengthAdjust="spacingAndGlyphs" text-decoration="underline" textLength="147" x="334.5" y="217.2573">ENABLED_CIPHERS: String</text><ellipse cx="325.5" cy="226.8516" fill="none" rx="3" ry="3" style="stroke: #038048; stroke-width: 1.0;"/><text fill="#000000" font-family="sans-serif" font-size="11" lengthAdjust="spacingAndGlyphs" text-decoration="underline" textLength="239" x="334.5" y="230.062">DISABLE_HOSTNAME_VERIFICATION: String</text><line style="stroke: #A80036; stroke-width: 1.5;" x1="315.5" x2="578.5" y1="236.6563" y2="236.6563"/><ellipse cx="325.5" cy="247.6563" fill="#84BE84" rx="3" ry="3" style="stroke: #038048; stroke-width: 1.0;"/><text fill="#000000" font-family="sans-serif" font-size="11" lengthAdjust="spacingAndGlyphs" textLength="191" x="334.5" y="250.8667">ClientPropertyAdapter(Properties)</text><ellipse cx="325.5" cy="260.4609" fill="#84BE84" rx="3" ry="3" style="stroke: #038048; stroke-width: 1.0;"/><text fill="#000000" font-family="sans-serif" font-size="11" lengthAdjust="spacingAndGlyphs" textLength="140" x="334.5" y="263.6714">getConnectTimeout(): int</text><ellipse cx="325.5" cy="273.2656" fill="#84BE84" rx="3" ry="3" style="stroke: #038048; stroke-width: 1.0;"/><text fill="#000000" font-family="sans-serif" font-size="11" lengthAdjust="spacingAndGlyphs" textLength="164" x="334.5" y="276.4761">getPoolConnectionsMax(): int</text><ellipse cx="325.5" cy="286.0703" fill="#84BE84" rx="3" ry="3" style="stroke: #038048; stroke-width: 1.0;"/><text fill="#000000" font-family="sans-serif" font-size="11" lengthAdjust="spacingAndGlyphs" textLength="122" x="334.5" y="289.2808">getReadTimeout(): int</text><ellipse cx="325.5" cy="298.875" fill="#84BE84" rx="3" ry="3" style="stroke: #038048; stroke-width: 1.0;"/><text fill="#000000" font-family="sans-serif" font-size="11" lengthAdjust="spacingAndGlyphs" textLength="133" x="334.5" y="302.0854">fhirServerHost(): String</text><ellipse cx="325.5" cy="311.6797" fill="#84BE84" rx="3" ry="3" style="stroke: #038048; stroke-width: 1.0;"/><text fill="#000000" font-family="sans-serif" font-size="11" lengthAdjust="spacingAndGlyphs" textLength="156" x="334.5" y="314.8901">fhirServerEndpoint(): String</text><ellipse cx="325.5" cy="324.4844" fill="#84BE84" rx="3" ry="3" style="stroke: #038048; stroke-width: 1.0;"/><text fill="#000000" font-family="sans-serif" font-size="11" lengthAdjust="spacingAndGlyphs" textLength="110" x="334.5" y="327.6948">fhirServerPort(): int</text><ellipse cx="325.5" cy="337.2891" fill="#84BE84" rx="3" ry="3" style="stroke: #038048; stroke-width: 1.0;"/><text fill="#000000" font-family="sans-serif" font-size="11" lengthAdjust="spacingAndGlyphs" textLength="128" x="334.5" y="340.4995">getTruststore(): String</text><ellipse cx="325.5" cy="350.0938" fill="#84BE84" rx="3" ry="3" style="stroke: #038048; stroke-width: 1.0;"/><text fill="#000000" font-family="sans-serif" font-size="11" lengthAdjust="spacingAndGlyphs" textLength="156" x="334.5" y="353.3042">getTruststorePass(): String</text><ellipse cx="325.5" cy="362.8984" fill="#84BE84" rx="3" ry="3" style="stroke: #038048; stroke-width: 1.0;"/><text fill="#000000" font-family="sans-serif" font-size="11" lengthAdjust="spacingAndGlyphs" textLength="157" x="334.5" y="366.1089">getEnabledCiphers(): String</text><ellipse cx="325.5" cy="375.7031" fill="#84BE84" rx="3" ry="3" style="stroke: #038048; stroke-width: 1.0;"/><text fill="#000000" font-family="sans-serif" font-size="11" lengthAdjust="spacingAndGlyphs" textLength="154" x="334.5" y="378.9136">getFhirServerUser(): String</text><ellipse cx="325.5" cy="388.5078" fill="#84BE84" rx="3" ry="3" style="stroke: #038048; stroke-width: 1.0;"/><text fill="#000000" font-family="sans-serif" font-size="11" lengthAdjust="spacingAndGlyphs" textLength="155" x="334.5" y="391.7183">getFhirServerPass(): String</text><ellipse cx="325.5" cy="401.3125" fill="#84BE84" rx="3" ry="3" style="stroke: #038048; stroke-width: 1.0;"/><text fill="#000000" font-family="sans-serif" font-size="11" lengthAdjust="spacingAndGlyphs" textLength="234" x="334.5" y="404.5229">isDisableHostnameVerification(): boolean</text></a><!--MD5=[fb8e9456bb1b7bcb5d953c915f8b63e9]
class com.ibm.fhir.bucket.client.FHIRBucketClientUtil--><a href="FHIRBucketClientUtil.html" target="_top" title="FHIRBucketClientUtil.html" xlink:actuate="onRequest" xlink:href="FHIRBucketClientUtil.html" xlink:show="new" xlink:title="FHIRBucketClientUtil.html" xlink:type="simple"><rect fill="#FEFECE" filter="url(#f1rt12fc8todts)" height="60.8047" id="com.ibm.fhir.bucket.client.FHIRBucketClientUtil" style="stroke: #A80036; stroke-width: 1.5;" width="228" x="615" y="196.5"/><ellipse cx="662.25" cy="212.5" fill="#ADD1B2" rx="11" ry="11" style="stroke: #A80036; stroke-width: 1.0;"/><path d="M665.2188,218.1406 Q664.6406,218.4375 664,218.5781 Q663.3594,218.7344 662.6563,218.7344 Q660.1563,218.7344 658.8281,217.0938 Q657.5156,215.4375 657.5156,212.3125 Q657.5156,209.1875 658.8281,207.5313 Q660.1563,205.875 662.6563,205.875 Q663.3594,205.875 664,206.0313 Q664.6563,206.1875 665.2188,206.4844 L665.2188,209.2031 Q664.5938,208.625 664,208.3594 Q663.4063,208.0781 662.7813,208.0781 Q661.4375,208.0781 660.75,209.1563 Q660.0625,210.2188 660.0625,212.3125 Q660.0625,214.4063 660.75,215.4844 Q661.4375,216.5469 662.7813,216.5469 Q663.4063,216.5469 664,216.2813 Q664.5938,216 665.2188,215.4219 L665.2188,218.1406 Z "/><text fill="#000000" font-family="sans-serif" font-size="12" lengthAdjust="spacingAndGlyphs" textLength="125" x="682.75" y="216.6543">FHIRBucketClientUtil</text><line style="stroke: #A80036; stroke-width: 1.5;" x1="616" x2="842" y1="228.5" y2="228.5"/><line style="stroke: #A80036; stroke-width: 1.5;" x1="616" x2="842" y1="236.5" y2="236.5"/><ellipse cx="626" cy="247.5" fill="#84BE84" rx="3" ry="3" style="stroke: #038048; stroke-width: 1.0;"/><text fill="#000000" font-family="sans-serif" font-size="11" lengthAdjust="spacingAndGlyphs" text-decoration="underline" textLength="202" x="635" y="250.7104">resourceToString(Resource): String</text></a><!--MD5=[a6f1d2dd98eccfd352b084bda5246d18]
class com.ibm.fhir.bucket.client.PostResource--><a href="PostResource.html" target="_top" title="PostResource.html" xlink:actuate="onRequest" xlink:href="PostResource.html" xlink:show="new" xlink:title="PostResource.html" xlink:type="simple"><rect fill="#FEFECE" filter="url(#f1rt12fc8todts)" height="73.6094" id="com.ibm.fhir.bucket.client.PostResource" style="stroke: #A80036; stroke-width: 1.5;" width="270" x="22" y="535"/><ellipse cx="109.25" cy="551" fill="#ADD1B2" rx="11" ry="11" style="stroke: #A80036; stroke-width: 1.0;"/><path d="M112.2188,556.6406 Q111.6406,556.9375 111,557.0781 Q110.3594,557.2344 109.6563,557.2344 Q107.1563,557.2344 105.8281,555.5938 Q104.5156,553.9375 104.5156,550.8125 Q104.5156,547.6875 105.8281,546.0313 Q107.1563,544.375 109.6563,544.375 Q110.3594,544.375 111,544.5313 Q111.6563,544.6875 112.2188,544.9844 L112.2188,547.7031 Q111.5938,547.125 111,546.8594 Q110.4063,546.5781 109.7813,546.5781 Q108.4375,546.5781 107.75,547.6563 Q107.0625,548.7188 107.0625,550.8125 Q107.0625,552.9063 107.75,553.9844 Q108.4375,555.0469 109.7813,555.0469 Q110.4063,555.0469 111,554.7813 Q111.5938,554.5 112.2188,553.9219 L112.2188,556.6406 Z "/><text fill="#000000" font-family="sans-serif" font-size="12" lengthAdjust="spacingAndGlyphs" textLength="87" x="129.75" y="555.1543">PostResource</text><line style="stroke: #A80036; stroke-width: 1.5;" x1="23" x2="291" y1="567" y2="567"/><line style="stroke: #A80036; stroke-width: 1.5;" x1="23" x2="291" y1="575" y2="575"/><ellipse cx="33" cy="586" fill="#84BE84" rx="3" ry="3" style="stroke: #038048; stroke-width: 1.0;"/><text fill="#000000" font-family="sans-serif" font-size="11" lengthAdjust="spacingAndGlyphs" textLength="139" x="42" y="589.2104">PostResource(Resource)</text><ellipse cx="33" cy="598.8047" fill="#84BE84" rx="3" ry="3" style="stroke: #038048; stroke-width: 1.0;"/><text fill="#000000" font-family="sans-serif" font-size="11" lengthAdjust="spacingAndGlyphs" textLength="244" x="42" y="602.0151">run(FHIRBucketClient): FhirServerResponse</text></a><!--MD5=[af138a276d43d270b3f139716268a427]
class com.ibm.fhir.bucket.client.Headers--><a href="Headers.html" target="_top" title="Headers.html" xlink:actuate="onRequest" xlink:href="Headers.html" xlink:show="new" xlink:title="Headers.html" xlink:type="simple"><rect fill="#FEFECE" filter="url(#f1rt12fc8todts)" height="112.0234" id="com.ibm.fhir.bucket.client.Headers" style="stroke: #A80036; stroke-width: 1.5;" width="206" x="878" y="171"/><ellipse cx="950.25" cy="187" fill="#ADD1B2" rx="11" ry="11" style="stroke: #A80036; stroke-width: 1.0;"/><path d="M953.2188,192.6406 Q952.6406,192.9375 952,193.0781 Q951.3594,193.2344 950.6563,193.2344 Q948.1563,193.2344 946.8281,191.5938 Q945.5156,189.9375 945.5156,186.8125 Q945.5156,183.6875 946.8281,182.0313 Q948.1563,180.375 950.6563,180.375 Q951.3594,180.375 952,180.5313 Q952.6563,180.6875 953.2188,180.9844 L953.2188,183.7031 Q952.5938,183.125 952,182.8594 Q951.4063,182.5781 950.7813,182.5781 Q949.4375,182.5781 948.75,183.6563 Q948.0625,184.7188 948.0625,186.8125 Q948.0625,188.9063 948.75,189.9844 Q949.4375,191.0469 950.7813,191.0469 Q951.4063,191.0469 952,190.7813 Q952.5938,190.5 953.2188,189.9219 L953.2188,192.6406 Z "/><text fill="#000000" font-family="sans-serif" font-size="12" lengthAdjust="spacingAndGlyphs" textLength="53" x="970.75" y="191.1543">Headers</text><line style="stroke: #A80036; stroke-width: 1.5;" x1="879" x2="1083" y1="203" y2="203"/><ellipse cx="889" cy="214" fill="none" rx="3" ry="3" style="stroke: #038048; stroke-width: 1.0;"/><text fill="#000000" font-family="sans-serif" font-size="11" lengthAdjust="spacingAndGlyphs" text-decoration="underline" textLength="124" x="898" y="217.2104">HOST_HEADER: String</text><ellipse cx="889" cy="226.8047" fill="none" rx="3" ry="3" style="stroke: #038048; stroke-width: 1.0;"/><text fill="#000000" font-family="sans-serif" font-size="11" lengthAdjust="spacingAndGlyphs" text-decoration="underline" textLength="122" x="898" y="230.0151">AUTH_HEADER: String</text><ellipse cx="889" cy="239.6094" fill="none" rx="3" ry="3" style="stroke: #038048; stroke-width: 1.0;"/><text fill="#000000" font-family="sans-serif" font-size="11" lengthAdjust="spacingAndGlyphs" text-decoration="underline" textLength="180" x="898" y="242.8198">CONTENT_TYPE_HEADER: String</text><ellipse cx="889" cy="252.4141" fill="none" rx="3" ry="3" style="stroke: #038048; stroke-width: 1.0;"/><text fill="#000000" font-family="sans-serif" font-size="11" lengthAdjust="spacingAndGlyphs" text-decoration="underline" textLength="136" x="898" y="255.6245">ACCEPT_HEADER: String</text><ellipse cx="889" cy="265.2188" fill="none" rx="3" ry="3" style="stroke: #038048; stroke-width: 1.0;"/><text fill="#000000" font-family="sans-serif" font-size="11" lengthAdjust="spacingAndGlyphs" text-decoration="underline" textLength="136" x="898" y="268.4292">TENANT_HEADER: String</text><line style="stroke: #A80036; stroke-width: 1.5;" x1="879" x2="1083" y1="275.0234" y2="275.0234"/></a><!--MD5=[a3e9f27b43e4a35850307d8b64b71b51]
class com.ibm.fhir.bucket.client.FHIRBucketClient--><a href="FHIRBucketClient.html" target="_top" title="FHIRBucketClient.html" xlink:actuate="onRequest" xlink:href="FHIRBucketClient.html" xlink:show="new" xlink:title="FHIRBucketClient.html" xlink:type="simple"><rect fill="#FEFECE" filter="url(#f1rt12fc8todts)" height="188.8516" id="com.ibm.fhir.bucket.client.FHIRBucketClient" style="stroke: #A80036; stroke-width: 1.5;" width="464" x="327" y="477.5"/><ellipse cx="502.25" cy="493.5" fill="#ADD1B2" rx="11" ry="11" style="stroke: #A80036; stroke-width: 1.0;"/><path d="M505.2188,499.1406 Q504.6406,499.4375 504,499.5781 Q503.3594,499.7344 502.6563,499.7344 Q500.1563,499.7344 498.8281,498.0938 Q497.5156,496.4375 497.5156,493.3125 Q497.5156,490.1875 498.8281,488.5313 Q500.1563,486.875 502.6563,486.875 Q503.3594,486.875 504,487.0313 Q504.6563,487.1875 505.2188,487.4844 L505.2188,490.2031 Q504.5938,489.625 504,489.3594 Q503.4063,489.0781 502.7813,489.0781 Q501.4375,489.0781 500.75,490.1563 Q500.0625,491.2188 500.0625,493.3125 Q500.0625,495.4063 500.75,496.4844 Q501.4375,497.5469 502.7813,497.5469 Q503.4063,497.5469 504,497.2813 Q504.5938,497 505.2188,496.4219 L505.2188,499.1406 Z "/><text fill="#000000" font-family="sans-serif" font-size="12" lengthAdjust="spacingAndGlyphs" textLength="105" x="522.75" y="497.6543">FHIRBucketClient</text><line style="stroke: #A80036; stroke-width: 1.5;" x1="328" x2="790" y1="509.5" y2="509.5"/><line style="stroke: #A80036; stroke-width: 1.5;" x1="328" x2="790" y1="517.5" y2="517.5"/><ellipse cx="338" cy="528.5" fill="#84BE84" rx="3" ry="3" style="stroke: #038048; stroke-width: 1.0;"/><text fill="#000000" font-family="sans-serif" font-size="11" lengthAdjust="spacingAndGlyphs" textLength="226" x="347" y="531.7104">FHIRBucketClient(ClientPropertyAdapter)</text><ellipse cx="338" cy="541.3047" fill="#84BE84" rx="3" ry="3" style="stroke: #038048; stroke-width: 1.0;"/><text fill="#000000" font-family="sans-serif" font-size="11" lengthAdjust="spacingAndGlyphs" textLength="177" x="347" y="544.5151">addHeader(String, String): void</text><ellipse cx="338" cy="554.1094" fill="#84BE84" rx="3" ry="3" style="stroke: #038048; stroke-width: 1.0;"/><text fill="#000000" font-family="sans-serif" font-size="11" lengthAdjust="spacingAndGlyphs" textLength="90" x="347" y="557.3198">init(String): void</text><ellipse cx="338" cy="566.9141" fill="#84BE84" rx="3" ry="3" style="stroke: #038048; stroke-width: 1.0;"/><text fill="#000000" font-family="sans-serif" font-size="11" lengthAdjust="spacingAndGlyphs" textLength="357" x="347" y="570.1245">get(String, Function&lt;Reader, Resource&gt;): FhirServerResponse</text><ellipse cx="338" cy="579.7188" fill="#84BE84" rx="3" ry="3" style="stroke: #038048; stroke-width: 1.0;"/><text fill="#000000" font-family="sans-serif" font-size="11" lengthAdjust="spacingAndGlyphs" textLength="232" x="347" y="582.9292">post(String, String): FhirServerResponse</text><ellipse cx="338" cy="592.5234" fill="#84BE84" rx="3" ry="3" style="stroke: #038048; stroke-width: 1.0;"/><text fill="#000000" font-family="sans-serif" font-size="11" lengthAdjust="spacingAndGlyphs" textLength="350" x="347" y="595.7339">put(String, Map&lt;String, String&gt;, String): FhirServerResponse</text><ellipse cx="338" cy="605.3281" fill="#84BE84" rx="3" ry="3" style="stroke: #038048; stroke-width: 1.0;"/><text fill="#000000" font-family="sans-serif" font-size="11" lengthAdjust="spacingAndGlyphs" textLength="94" x="347" y="608.5386">shutdown(): void</text><ellipse cx="338" cy="618.1328" fill="#84BE84" rx="3" ry="3" style="stroke: #038048; stroke-width: 1.0;"/><text fill="#000000" font-family="sans-serif" font-size="11" lengthAdjust="spacingAndGlyphs" textLength="177" x="347" y="621.3433">getPoolInformation(): PoolStats</text><polygon fill="#FFFF44" points="338,625.9375,342,629.9375,338,633.9375,334,629.9375" style="stroke: #B38D22; stroke-width: 1.0;"/><text fill="#000000" font-family="sans-serif" font-size="11" lengthAdjust="spacingAndGlyphs" textLength="379" x="347" y="634.1479">processOperationalOutcome(FhirServerResponse, HttpEntity): void</text><polygon fill="#FFFF44" points="338,638.7422,342,642.7422,338,646.7422,334,642.7422" style="stroke: #B38D22; stroke-width: 1.0;"/><text fill="#000000" font-family="sans-serif" font-size="11" lengthAdjust="spacingAndGlyphs" textLength="438" x="347" y="646.9526">obtainCloseableHttpClient(ConnectionKeepAliveStrategy): CloseableHttpClient</text><ellipse cx="338" cy="656.5469" fill="#84BE84" rx="3" ry="3" style="stroke: #038048; stroke-width: 1.0;"/><text fill="#000000" font-family="sans-serif" font-size="11" lengthAdjust="spacingAndGlyphs" textLength="113" x="347" y="659.7573">getBaseUrl(): String</text></a><!--MD5=[85d38bb5a84bd1499e7392123df3084d]
class com.ibm.fhir.bucket.client.FhirServerRequest--><a href="FhirServerRequest.html" target="_top" title="FhirServerRequest.html" xlink:actuate="onRequest" xlink:href="FhirServerRequest.html" xlink:show="new" xlink:title="FhirServerRequest.html" xlink:type="simple"><rect fill="#FEFECE" filter="url(#f1rt12fc8todts)" height="60.8047" id="com.ibm.fhir.bucket.client.FhirServerRequest" style="stroke: #A80036; stroke-width: 1.5;" width="162" x="76" y="196.5"/><ellipse cx="92.8" cy="212.5" fill="#B4A7E5" rx="11" ry="11" style="stroke: #A80036; stroke-width: 1.0;"/><path d="M88.7219,208.2656 L88.7219,206.1094 L96.1125,206.1094 L96.1125,208.2656 L93.6438,208.2656 L93.6438,216.3438 L96.1125,216.3438 L96.1125,218.5 L88.7219,218.5 L88.7219,216.3438 L91.1906,216.3438 L91.1906,208.2656 L88.7219,208.2656 Z "/><text fill="#000000" font-family="sans-serif" font-size="12" font-style="italic" lengthAdjust="spacingAndGlyphs" textLength="115" x="107.2" y="216.6543">FhirServerRequest</text><rect fill="#FFFFFF" height="15.9688" style="stroke: #000000; stroke-width: 1.0; stroke-dasharray: 2.0,2.0;" width="9" x="232" y="193.5"/><text fill="#000000" font-family="sans-serif" font-size="12" font-style="italic" lengthAdjust="spacingAndGlyphs" textLength="7" x="233" y="205.6387">T</text><line style="stroke: #A80036; stroke-width: 1.5;" x1="77" x2="237" y1="228.5" y2="228.5"/><line style="stroke: #A80036; stroke-width: 1.5;" x1="77" x2="237" y1="236.5" y2="236.5"/><ellipse cx="87" cy="247.5" fill="#84BE84" rx="3" ry="3" style="stroke: #038048; stroke-width: 1.0;"/><text fill="#000000" font-family="sans-serif" font-size="11" font-style="italic" lengthAdjust="spacingAndGlyphs" textLength="136" x="96" y="250.7104">run(FHIRBucketClient): T</text></a><!--MD5=[8740f58317189cc00e00fb3b84cf54fb]
class com.ibm.fhir.bucket.client.FhirServerResponse--><a href="FhirServerResponse.html" target="_top" title="FhirServerResponse.html" xlink:actuate="onRequest" xlink:href="FhirServerResponse.html" xlink:show="new" xlink:title="FhirServerResponse.html" xlink:type="simple"><rect fill="#FEFECE" filter="url(#f1rt12fc8todts)" height="201.6563" id="com.ibm.fhir.bucket.client.FhirServerResponse" style="stroke: #A80036; stroke-width: 1.5;" width="258" x="826" y="471"/><ellipse cx="888.25" cy="487" fill="#ADD1B2" rx="11" ry="11" style="stroke: #A80036; stroke-width: 1.0;"/><path d="M891.2188,492.6406 Q890.6406,492.9375 890,493.0781 Q889.3594,493.2344 888.6563,493.2344 Q886.1563,493.2344 884.8281,491.5938 Q883.5156,489.9375 883.5156,486.8125 Q883.5156,483.6875 884.8281,482.0313 Q886.1563,480.375 888.6563,480.375 Q889.3594,480.375 890,480.5313 Q890.6563,480.6875 891.2188,480.9844 L891.2188,483.7031 Q890.5938,483.125 890,482.8594 Q889.4063,482.5781 888.7813,482.5781 Q887.4375,482.5781 886.75,483.6563 Q886.0625,484.7188 886.0625,486.8125 Q886.0625,488.9063 886.75,489.9844 Q887.4375,491.0469 888.7813,491.0469 Q889.4063,491.0469 890,490.7813 Q890.5938,490.5 891.2188,489.9219 L891.2188,492.6406 Z "/><text fill="#000000" font-family="sans-serif" font-size="12" lengthAdjust="spacingAndGlyphs" textLength="125" x="908.75" y="491.1543">FhirServerResponse</text><line style="stroke: #A80036; stroke-width: 1.5;" x1="827" x2="1083" y1="503" y2="503"/><line style="stroke: #A80036; stroke-width: 1.5;" x1="827" x2="1083" y1="511" y2="511"/><ellipse cx="837" cy="522" fill="#84BE84" rx="3" ry="3" style="stroke: #038048; stroke-width: 1.0;"/><text fill="#000000" font-family="sans-serif" font-size="11" lengthAdjust="spacingAndGlyphs" textLength="114" x="846" y="525.2104">getStatusCode(): int</text><ellipse cx="837" cy="534.8047" fill="#84BE84" rx="3" ry="3" style="stroke: #038048; stroke-width: 1.0;"/><text fill="#000000" font-family="sans-serif" font-size="11" lengthAdjust="spacingAndGlyphs" textLength="137" x="846" y="538.0151">setStatusCode(int): void</text><ellipse cx="837" cy="547.6094" fill="#84BE84" rx="3" ry="3" style="stroke: #038048; stroke-width: 1.0;"/><text fill="#000000" font-family="sans-serif" font-size="11" lengthAdjust="spacingAndGlyphs" textLength="156" x="846" y="550.8198">getStatusMessage(): String</text><ellipse cx="837" cy="560.4141" fill="#84BE84" rx="3" ry="3" style="stroke: #038048; stroke-width: 1.0;"/><text fill="#000000" font-family="sans-serif" font-size="11" lengthAdjust="spacingAndGlyphs" textLength="179" x="846" y="563.6245">setStatusMessage(String): void</text><ellipse cx="837" cy="573.2188" fill="#84BE84" rx="3" ry="3" style="stroke: #038048; stroke-width: 1.0;"/><text fill="#000000" font-family="sans-serif" font-size="11" lengthAdjust="spacingAndGlyphs" textLength="156" x="846" y="576.4292">getLocationHeader(): String</text><ellipse cx="837" cy="586.0234" fill="#84BE84" rx="3" ry="3" style="stroke: #038048; stroke-width: 1.0;"/><text fill="#000000" font-family="sans-serif" font-size="11" lengthAdjust="spacingAndGlyphs" textLength="179" x="846" y="589.2339">setLocationHeader(String): void</text><ellipse cx="837" cy="598.8281" fill="#84BE84" rx="3" ry="3" style="stroke: #038048; stroke-width: 1.0;"/><text fill="#000000" font-family="sans-serif" font-size="11" lengthAdjust="spacingAndGlyphs" textLength="140" x="846" y="602.0386">getResource(): Resource</text><ellipse cx="837" cy="611.6328" fill="#84BE84" rx="3" ry="3" style="stroke: #038048; stroke-width: 1.0;"/><text fill="#000000" font-family="sans-serif" font-size="11" lengthAdjust="spacingAndGlyphs" textLength="163" x="846" y="614.8433">setResource(Resource): void</text><ellipse cx="837" cy="624.4375" fill="#84BE84" rx="3" ry="3" style="stroke: #038048; stroke-width: 1.0;"/><text fill="#000000" font-family="sans-serif" font-size="11" lengthAdjust="spacingAndGlyphs" textLength="132" x="846" y="627.6479">getResponseTime(): int</text><ellipse cx="837" cy="637.2422" fill="#84BE84" rx="3" ry="3" style="stroke: #038048; stroke-width: 1.0;"/><text fill="#000000" font-family="sans-serif" font-size="11" lengthAdjust="spacingAndGlyphs" textLength="155" x="846" y="640.4526">setResponseTime(int): void</text><ellipse cx="837" cy="650.0469" fill="#84BE84" rx="3" ry="3" style="stroke: #038048; stroke-width: 1.0;"/><text fill="#000000" font-family="sans-serif" font-size="11" lengthAdjust="spacingAndGlyphs" textLength="209" x="846" y="653.2573">getOperationalOutcomeText(): String</text><ellipse cx="837" cy="662.8516" fill="#84BE84" rx="3" ry="3" style="stroke: #038048; stroke-width: 1.0;"/><text fill="#000000" font-family="sans-serif" font-size="11" lengthAdjust="spacingAndGlyphs" textLength="232" x="846" y="666.062">setOperationalOutcomeText(String): void</text></a><!--MD5=[253936365daeaff694b07568b9ee1a9a]
reverse link com.ibm.fhir.bucket.client.FhirServerRequest to com.ibm.fhir.bucket.client.PostResource--><path d="M157,277.9081 C157,348.0291 157,472.6883 157,534.7512 " fill="none" id="com.ibm.fhir.bucket.client.FhirServerRequest&lt;-com.ibm.fhir.bucket.client.PostResource" style="stroke: #A80036; stroke-width: 1.0; stroke-dasharray: 7.0,7.0;"/><polygon fill="none" points="150.0001,277.6165,157,257.6164,164.0001,277.6164,150.0001,277.6165" style="stroke: #A80036; stroke-width: 1.0;"/><!--MD5=[918aa817e48d2115a42e75ebcee68596]
link com.ibm.fhir.bucket.client.ClientPropertyAdapter to com.ibm.fhir.bucket.client.FHIRBucketClientUtil--><!--MD5=[7b702896f240159df6f4cc8b99e00e60]
link com.ibm.fhir.bucket.client.FHIRBucketClientUtil to com.ibm.fhir.bucket.client.Headers--><!--MD5=[810760df86c79bfb99235349da6cc43e]
link com.ibm.fhir.bucket.client.ClientPropertyAdapter to com.ibm.fhir.bucket.client.FHIRBucketClient--><!--MD5=[745cce476666bc1dfcbc86873f18fd79]
link com.ibm.fhir.bucket.client.FHIRBucketClient to com.ibm.fhir.bucket.client.FhirServerResponse--><text fill="#888888" font-family="sans-serif" font-size="10" lengthAdjust="spacingAndGlyphs" textLength="186" x="466" y="708.2822">UMLDoclet 2.0.7, PlantUML 1.2019.12</text><!--MD5=[27664fc42d65f77cef710bcb97cc8a55]
@startuml
    namespace com.ibm.fhir.bucket.client {

        class ClientPropertyAdapter [[ClientPropertyAdapter.html]] {
            {static} +READ_TIMEOUT: String
            {static} +CONNECT_TIMEOUT: String
            {static} +FHIR_SERVER_HOST: String
            {static} +FHIR_SERVER_PORT: String
            {static} +FHIR_SERVER_ENDPOINT: String
            {static} +FHIR_SERVER_USER: String
            {static} +FHIR_SERVER_PASS: String
            {static} +TRUSTSTORE: String
            {static} +TRUSTSTORE_PASS: String
            {static} +POOL_CONNECTIONS_MAX: String
            {static} +ENABLED_CIPHERS: String
            {static} +DISABLE_HOSTNAME_VERIFICATION: String
            +ClientPropertyAdapter(Properties)
            +getConnectTimeout(): int
            +getPoolConnectionsMax(): int
            +getReadTimeout(): int
            +fhirServerHost(): String
            +fhirServerEndpoint(): String
            +fhirServerPort(): int
            +getTruststore(): String
            +getTruststorePass(): String
            +getEnabledCiphers(): String
            +getFhirServerUser(): String
            +getFhirServerPass(): String
            +isDisableHostnameVerification(): boolean
        }

        class FHIRBucketClientUtil [[FHIRBucketClientUtil.html]] {
            {static} +resourceToString(Resource): String
        }

        class PostResource [[PostResource.html]] {
            +PostResource(Resource)
            +run(FHIRBucketClient): FhirServerResponse
        }

        class Headers [[Headers.html]] {
            {static} +HOST_HEADER: String
            {static} +AUTH_HEADER: String
            {static} +CONTENT_TYPE_HEADER: String
            {static} +ACCEPT_HEADER: String
            {static} +TENANT_HEADER: String
        }

        class FHIRBucketClient [[FHIRBucketClient.html]] {
            +FHIRBucketClient(ClientPropertyAdapter)
            +addHeader(String, String): void
            +init(String): void
            +get(String, Function<Reader, Resource>): FhirServerResponse
            +post(String, String): FhirServerResponse
            +put(String, Map<String, String>, String): FhirServerResponse
            +shutdown(): void
            +getPoolInformation(): PoolStats
            #processOperationalOutcome(FhirServerResponse, HttpEntity): void
            #obtainCloseableHttpClient(ConnectionKeepAliveStrategy): CloseableHttpClient
            +getBaseUrl(): String
        }

        interface FhirServerRequest<T> [[FhirServerRequest.html]] {
            {abstract} +run(FHIRBucketClient): T
        }

        class FhirServerResponse [[FhirServerResponse.html]] {
            +getStatusCode(): int
            +setStatusCode(int): void
            +getStatusMessage(): String
            +setStatusMessage(String): void
            +getLocationHeader(): String
            +setLocationHeader(String): void
            +getResource(): Resource
            +setResource(Resource): void
            +getResponseTime(): int
            +setResponseTime(int): void
            +getOperationalOutcomeText(): String
            +setOperationalOutcomeText(String): void
        }

        FhirServerRequest <|.. PostResource
    }

    center footer UMLDoclet 2.0.7, PlantUML 1.2019.12
@enduml

PlantUML version 1.2019.12(Sun Nov 03 10:24:54 UTC 2019)
(APACHE source distribution)
Java Runtime: OpenJDK Runtime Environment
JVM: OpenJDK 64-Bit Server VM
Java Version: 11.0.9.1+1
Operating System: Linux
Default Encoding: UTF-8
Language: en
Country: null
--></g></svg>