<?xml version="1.0" encoding="UTF-8" standalone="no"?><svg xmlns="http://www.w3.org/2000/svg" xmlns:xlink="http://www.w3.org/1999/xlink" contentScriptType="application/ecmascript" contentStyleType="text/css" height="397px" preserveAspectRatio="none" style="width:540px;height:397px;" version="1.1" viewBox="0 0 540 397" width="540px" zoomAndPan="magnify"><defs><filter height="300%" id="fkb5v48kk00ni" width="300%" x="-1" y="-1"><feGaussianBlur result="blurOut" stdDeviation="2.0"/><feColorMatrix in="blurOut" result="blurOut2" type="matrix" values="0 0 0 0 0 0 0 0 0 0 0 0 0 0 0 0 0 0 .4 0"/><feOffset dx="4.0" dy="4.0" in="blurOut2" result="blurOut3"/><feBlend in="SourceGraphic" in2="blurOut3" mode="normal"/></filter></defs><g><!--MD5=[fe4fa266eea348f16aef198afdfffca4]
class com.ibm.fhir.model.resource.ConceptMap.Group.Element.Target.Builder--><a href="ConceptMap.Group.Element.Target.Builder.html" target="_top" title="ConceptMap.Group.Element.Target.Builder.html" xlink:actuate="onRequest" xlink:href="ConceptMap.Group.Element.Target.Builder.html" xlink:show="new" xlink:title="ConceptMap.Group.Element.Target.Builder.html" xlink:type="simple"><rect fill="#FEFECE" filter="url(#fkb5v48kk00ni)" height="238.0078" id="com.ibm.fhir.model.resource.ConceptMap.Group.Element.Target.Builder" style="stroke: #A80036; stroke-width: 1.5;" width="329" x="86" y="127"/><ellipse cx="101" cy="145.9688" fill="#ADD1B2" rx="11" ry="11" style="stroke: #A80036; stroke-width: 1.0;"/><path d="M103.9688,151.6094 Q103.3906,151.9063 102.75,152.0469 Q102.1094,152.2031 101.4063,152.2031 Q98.9063,152.2031 97.5781,150.5625 Q96.2656,148.9063 96.2656,145.7813 Q96.2656,142.6563 97.5781,141 Q98.9063,139.3438 101.4063,139.3438 Q102.1094,139.3438 102.75,139.5 Q103.4063,139.6563 103.9688,139.9531 L103.9688,142.6719 Q103.3438,142.0938 102.75,141.8281 Q102.1563,141.5469 101.5313,141.5469 Q100.1875,141.5469 99.5,142.625 Q98.8125,143.6875 98.8125,145.7813 Q98.8125,147.875 99.5,148.9531 Q100.1875,150.0156 101.5313,150.0156 Q102.1563,150.0156 102.75,149.75 Q103.3438,149.4688 103.9688,148.8906 L103.9688,151.6094 Z "/><text fill="#000000" font-family="sans-serif" font-size="14" lengthAdjust="spacingAndGlyphs" textLength="297" x="115" y="144.9951">ConceptMap.Group.Element.Target.Builder</text><text fill="#000000" font-family="sans-serif" font-size="10" lengthAdjust="spacingAndGlyphs" textLength="139" x="194" y="157.5791">com.ibm.fhir.model.resource</text><line style="stroke: #A80036; stroke-width: 1.5;" x1="87" x2="414" y1="164.9375" y2="164.9375"/><ellipse cx="97" cy="175.9375" fill="#84BE84" rx="3" ry="3" style="stroke: #038048; stroke-width: 1.0;"/><text fill="#000000" font-family="sans-serif" font-size="11" lengthAdjust="spacingAndGlyphs" textLength="100" x="106" y="179.1479">id(String): Builder</text><ellipse cx="97" cy="188.7422" fill="#84BE84" rx="3" ry="3" style="stroke: #038048; stroke-width: 1.0;"/><text fill="#000000" font-family="sans-serif" font-size="11" lengthAdjust="spacingAndGlyphs" textLength="178" x="106" y="191.9526">extension(Extension...): Builder</text><ellipse cx="97" cy="201.5469" fill="#84BE84" rx="3" ry="3" style="stroke: #038048; stroke-width: 1.0;"/><text fill="#000000" font-family="sans-serif" font-size="11" lengthAdjust="spacingAndGlyphs" textLength="239" x="106" y="204.7573">extension(Collection&lt;Extension&gt;): Builder</text><ellipse cx="97" cy="214.3516" fill="#84BE84" rx="3" ry="3" style="stroke: #038048; stroke-width: 1.0;"/><text fill="#000000" font-family="sans-serif" font-size="11" lengthAdjust="spacingAndGlyphs" textLength="225" x="106" y="217.562">modifierExtension(Extension...): Builder</text><ellipse cx="97" cy="227.1563" fill="#84BE84" rx="3" ry="3" style="stroke: #038048; stroke-width: 1.0;"/><text fill="#000000" font-family="sans-serif" font-size="11" lengthAdjust="spacingAndGlyphs" textLength="286" x="106" y="230.3667">modifierExtension(Collection&lt;Extension&gt;): Builder</text><ellipse cx="97" cy="239.9609" fill="#84BE84" rx="3" ry="3" style="stroke: #038048; stroke-width: 1.0;"/><text fill="#000000" font-family="sans-serif" font-size="11" lengthAdjust="spacingAndGlyphs" textLength="112" x="106" y="243.1714">code(Code): Builder</text><ellipse cx="97" cy="252.7656" fill="#84BE84" rx="3" ry="3" style="stroke: #038048; stroke-width: 1.0;"/><text fill="#000000" font-family="sans-serif" font-size="11" lengthAdjust="spacingAndGlyphs" textLength="130" x="106" y="255.9761">display(String): Builder</text><ellipse cx="97" cy="265.5703" fill="#84BE84" rx="3" ry="3" style="stroke: #038048; stroke-width: 1.0;"/><text fill="#000000" font-family="sans-serif" font-size="11" lengthAdjust="spacingAndGlyphs" textLength="259" x="106" y="268.7808">equivalence(ConceptMapEquivalence): Builder</text><ellipse cx="97" cy="278.375" fill="#84BE84" rx="3" ry="3" style="stroke: #038048; stroke-width: 1.0;"/><text fill="#000000" font-family="sans-serif" font-size="11" lengthAdjust="spacingAndGlyphs" textLength="143" x="106" y="281.5854">comment(String): Builder</text><ellipse cx="97" cy="291.1797" fill="#84BE84" rx="3" ry="3" style="stroke: #038048; stroke-width: 1.0;"/><text fill="#000000" font-family="sans-serif" font-size="11" lengthAdjust="spacingAndGlyphs" textLength="199" x="106" y="294.3901">dependsOn(DependsOn...): Builder</text><ellipse cx="97" cy="303.9844" fill="#84BE84" rx="3" ry="3" style="stroke: #038048; stroke-width: 1.0;"/><text fill="#000000" font-family="sans-serif" font-size="11" lengthAdjust="spacingAndGlyphs" textLength="260" x="106" y="307.1948">dependsOn(Collection&lt;DependsOn&gt;): Builder</text><ellipse cx="97" cy="316.7891" fill="#84BE84" rx="3" ry="3" style="stroke: #038048; stroke-width: 1.0;"/><text fill="#000000" font-family="sans-serif" font-size="11" lengthAdjust="spacingAndGlyphs" textLength="177" x="106" y="319.9995">product(DependsOn...): Builder</text><ellipse cx="97" cy="329.5938" fill="#84BE84" rx="3" ry="3" style="stroke: #038048; stroke-width: 1.0;"/><text fill="#000000" font-family="sans-serif" font-size="11" lengthAdjust="spacingAndGlyphs" textLength="238" x="106" y="332.8042">product(Collection&lt;DependsOn&gt;): Builder</text><ellipse cx="97" cy="342.3984" fill="#84BE84" rx="3" ry="3" style="stroke: #038048; stroke-width: 1.0;"/><text fill="#000000" font-family="sans-serif" font-size="11" lengthAdjust="spacingAndGlyphs" textLength="80" x="106" y="345.6089">build(): Target</text><polygon fill="#FFFF44" points="97,350.2031,101,354.2031,97,358.2031,93,354.2031" style="stroke: #B38D22; stroke-width: 1.0;"/><text fill="#000000" font-family="sans-serif" font-size="11" lengthAdjust="spacingAndGlyphs" textLength="120" x="106" y="358.4136">from(Target): Builder</text></a><!--MD5=[b7b0ea86c8a299e1957933e33e561193]
class com.ibm.fhir.model.type.BackboneElement.Builder--><a href="../type/BackboneElement.Builder.html" target="_top" title="../type/BackboneElement.Builder.html" xlink:actuate="onRequest" xlink:href="../type/BackboneElement.Builder.html" xlink:show="new" xlink:title="../type/BackboneElement.Builder.html" xlink:type="simple"><rect fill="#FEFECE" filter="url(#fkb5v48kk00ni)" height="58.7422" id="com.ibm.fhir.model.type.BackboneElement.Builder" style="stroke: #A80036; stroke-width: 1.5;" width="211" x="6" y="8"/><ellipse cx="21" cy="26.9688" fill="#A9DCDF" rx="11" ry="11" style="stroke: #A80036; stroke-width: 1.0;"/><path d="M21.1094,22.3125 L19.9531,27.3906 L22.2813,27.3906 L21.1094,22.3125 Z M19.625,20.0781 L22.6094,20.0781 L25.9688,32.4688 L23.5156,32.4688 L22.75,29.4063 L19.4688,29.4063 L18.7188,32.4688 L16.2813,32.4688 L19.625,20.0781 Z "/><text fill="#000000" font-family="sans-serif" font-size="14" font-style="italic" lengthAdjust="spacingAndGlyphs" textLength="179" x="35" y="25.9951">BackboneElement.Builder</text><text fill="#000000" font-family="sans-serif" font-size="10" font-style="italic" lengthAdjust="spacingAndGlyphs" textLength="119" x="65" y="38.5791">com.ibm.fhir.model.type</text><line style="stroke: #A80036; stroke-width: 1.5;" x1="7" x2="216" y1="45.9375" y2="45.9375"/><ellipse cx="17" cy="56.9375" fill="#84BE84" rx="3" ry="3" style="stroke: #038048; stroke-width: 1.0;"/><text fill="#000000" font-family="sans-serif" font-size="11" font-style="italic" lengthAdjust="spacingAndGlyphs" textLength="144" x="26" y="60.1479">build(): BackboneElement</text></a><!--MD5=[32b8d49d920a77e8f167c9179762cc2e]
class com.ibm.fhir.model.resource.ConceptMap.Group.Element.Target--><a href="ConceptMap.Group.Element.Target.html" target="_top" title="ConceptMap.Group.Element.Target.html" xlink:actuate="onRequest" xlink:href="ConceptMap.Group.Element.Target.html" xlink:show="new" xlink:title="ConceptMap.Group.Element.Target.html" xlink:type="simple"><rect fill="#FEFECE" filter="url(#fkb5v48kk00ni)" height="37.9375" id="com.ibm.fhir.model.resource.ConceptMap.Group.Element.Target" style="stroke: #A80036; stroke-width: 1.5;" width="277" x="252" y="18.5"/><ellipse cx="267" cy="37.4688" fill="#ADD1B2" rx="11" ry="11" style="stroke: #A80036; stroke-width: 1.0;"/><path d="M269.9688,43.1094 Q269.3906,43.4063 268.75,43.5469 Q268.1094,43.7031 267.4063,43.7031 Q264.9063,43.7031 263.5781,42.0625 Q262.2656,40.4063 262.2656,37.2813 Q262.2656,34.1563 263.5781,32.5 Q264.9063,30.8438 267.4063,30.8438 Q268.1094,30.8438 268.75,31 Q269.4063,31.1563 269.9688,31.4531 L269.9688,34.1719 Q269.3438,33.5938 268.75,33.3281 Q268.1563,33.0469 267.5313,33.0469 Q266.1875,33.0469 265.5,34.125 Q264.8125,35.1875 264.8125,37.2813 Q264.8125,39.375 265.5,40.4531 Q266.1875,41.5156 267.5313,41.5156 Q268.1563,41.5156 268.75,41.25 Q269.3438,40.9688 269.9688,40.3906 L269.9688,43.1094 Z "/><text fill="#000000" font-family="sans-serif" font-size="14" lengthAdjust="spacingAndGlyphs" textLength="245" x="281" y="36.4951">ConceptMap.Group.Element.Target</text><text fill="#000000" font-family="sans-serif" font-size="10" lengthAdjust="spacingAndGlyphs" textLength="139" x="334" y="49.0791">com.ibm.fhir.model.resource</text></a><!--MD5=[dde7bbc96608155bca908173b1918d14]
reverse link com.ibm.fhir.model.type.BackboneElement.Builder to com.ibm.fhir.model.resource.ConceptMap.Group.Element.Target.Builder--><path d="M142.7408,84.3612 C151.3515,97.2772 161.1003,111.9005 171.1291,126.9436 " fill="none" id="com.ibm.fhir.model.type.BackboneElement.Builder&lt;-com.ibm.fhir.model.resource.ConceptMap.Group.Element.Target.Builder" style="stroke: #A80036; stroke-width: 1.0;"/><polygon fill="none" points="136.685,87.8969,131.4153,67.373,148.3337,80.1311,136.685,87.8969" style="stroke: #A80036; stroke-width: 1.0;"/><!--MD5=[6fbe2f4f338a109f45cef427faec3d2f]
reverse link com.ibm.fhir.model.resource.ConceptMap.Group.Element.Target to com.ibm.fhir.model.resource.ConceptMap.Group.Element.Target.Builder--><path d="M369.0108,69.5036 C358.3206,85.4243 344.6606,105.768 330.4419,126.9436 " fill="none" id="com.ibm.fhir.model.resource.ConceptMap.Group.Element.Target&lt;-com.ibm.fhir.model.resource.ConceptMap.Group.Element.Target.Builder" style="stroke: #A80036; stroke-width: 1.0;"/><ellipse cx="373.1205" cy="63.3832" fill="#FFFFFF" rx="8" ry="8" style="stroke: #A80036; stroke-width: 1.0;"/><line style="stroke: #A80036; stroke-width: 1.0;" x1="368.6608" x2="377.5801" y1="70.0248" y2="56.7415"/><line style="stroke: #A80036; stroke-width: 1.0;" x1="366.4788" x2="379.7621" y1="58.9235" y2="67.8428"/><text fill="#888888" font-family="sans-serif" font-size="10" lengthAdjust="spacingAndGlyphs" textLength="186" x="180.5" y="384.2822">UMLDoclet 2.0.7, PlantUML 1.2019.12</text><!--MD5=[39c82bdafb901aa7f00cc195a9b24ee8]
@startuml
    set namespaceSeparator none
    hide empty fields
    hide empty methods

    class "<size:14>ConceptMap.Group.Element.Target.Builder\n<size:10>com.ibm.fhir.model.resource" as com.ibm.fhir.model.resource.ConceptMap.Group.Element.Target.Builder [[ConceptMap.Group.Element.Target.Builder.html]] {
        +id(String): Builder
        +extension(Extension...): Builder
        +extension(Collection<Extension>): Builder
        +modifierExtension(Extension...): Builder
        +modifierExtension(Collection<Extension>): Builder
        +code(Code): Builder
        +display(String): Builder
        +equivalence(ConceptMapEquivalence): Builder
        +comment(String): Builder
        +dependsOn(DependsOn...): Builder
        +dependsOn(Collection<DependsOn>): Builder
        +product(DependsOn...): Builder
        +product(Collection<DependsOn>): Builder
        +build(): Target
        #from(Target): Builder
    }

    abstract class "<size:14>BackboneElement.Builder\n<size:10>com.ibm.fhir.model.type" as com.ibm.fhir.model.type.BackboneElement.Builder [[../type/BackboneElement.Builder.html]] {
        {abstract} +build(): BackboneElement
    }
    class "<size:14>ConceptMap.Group.Element.Target\n<size:10>com.ibm.fhir.model.resource" as com.ibm.fhir.model.resource.ConceptMap.Group.Element.Target [[ConceptMap.Group.Element.Target.html]]

    com.ibm.fhir.model.type.BackboneElement.Builder <|- - com.ibm.fhir.model.resource.ConceptMap.Group.Element.Target.Builder
    com.ibm.fhir.model.resource.ConceptMap.Group.Element.Target +- - com.ibm.fhir.model.resource.ConceptMap.Group.Element.Target.Builder

    center footer UMLDoclet 2.0.7, PlantUML 1.2019.12
@enduml

PlantUML version 1.2019.12(Sun Nov 03 10:24:54 UTC 2019)
(APACHE source distribution)
Java Runtime: OpenJDK Runtime Environment
JVM: OpenJDK 64-Bit Server VM
Java Version: 11.0.9.1+1
Operating System: Linux
Default Encoding: UTF-8
Language: en
Country: null
--></g></svg>