<?xml version="1.0" encoding="UTF-8" standalone="no"?><svg xmlns="http://www.w3.org/2000/svg" xmlns:xlink="http://www.w3.org/1999/xlink" contentScriptType="application/ecmascript" contentStyleType="text/css" height="320px" preserveAspectRatio="none" style="width:498px;height:320px;" version="1.1" viewBox="0 0 498 320" width="498px" zoomAndPan="magnify"><defs><filter height="300%" id="f1e5l5w9bv1i4s" width="300%" x="-1" y="-1"><feGaussianBlur result="blurOut" stdDeviation="2.0"/><feColorMatrix in="blurOut" result="blurOut2" type="matrix" values="0 0 0 0 0 0 0 0 0 0 0 0 0 0 0 0 0 0 .4 0"/><feOffset dx="4.0" dy="4.0" in="blurOut2" result="blurOut3"/><feBlend in="SourceGraphic" in2="blurOut3" mode="normal"/></filter></defs><g><!--MD5=[bb3e97b3cc7e2f0419a4f8ad568f1350]
class com.ibm.fhir.model.resource.DeviceDefinition.DeviceName.Builder--><a href="DeviceDefinition.DeviceName.Builder.html" target="_top" title="DeviceDefinition.DeviceName.Builder.html" xlink:actuate="onRequest" xlink:href="DeviceDefinition.DeviceName.Builder.html" xlink:show="new" xlink:title="DeviceDefinition.DeviceName.Builder.html" xlink:type="simple"><rect fill="#FEFECE" filter="url(#f1e5l5w9bv1i4s)" height="161.1797" id="com.ibm.fhir.model.resource.DeviceDefinition.DeviceName.Builder" style="stroke: #A80036; stroke-width: 1.5;" width="312" x="84.5" y="127"/><ellipse cx="110.75" cy="145.9688" fill="#ADD1B2" rx="11" ry="11" style="stroke: #A80036; stroke-width: 1.0;"/><path d="M113.7188,151.6094 Q113.1406,151.9063 112.5,152.0469 Q111.8594,152.2031 111.1563,152.2031 Q108.6563,152.2031 107.3281,150.5625 Q106.0156,148.9063 106.0156,145.7813 Q106.0156,142.6563 107.3281,141 Q108.6563,139.3438 111.1563,139.3438 Q111.8594,139.3438 112.5,139.5 Q113.1563,139.6563 113.7188,139.9531 L113.7188,142.6719 Q113.0938,142.0938 112.5,141.8281 Q111.9063,141.5469 111.2813,141.5469 Q109.9375,141.5469 109.25,142.625 Q108.5625,143.6875 108.5625,145.7813 Q108.5625,147.875 109.25,148.9531 Q109.9375,150.0156 111.2813,150.0156 Q111.9063,150.0156 112.5,149.75 Q113.0938,149.4688 113.7188,148.8906 L113.7188,151.6094 Z "/><text fill="#000000" font-family="sans-serif" font-size="14" lengthAdjust="spacingAndGlyphs" textLength="255" x="127.25" y="144.9951">DeviceDefinition.DeviceName.Builder</text><text fill="#000000" font-family="sans-serif" font-size="10" lengthAdjust="spacingAndGlyphs" textLength="139" x="185.25" y="157.5791">com.ibm.fhir.model.resource</text><line style="stroke: #A80036; stroke-width: 1.5;" x1="85.5" x2="395.5" y1="164.9375" y2="164.9375"/><ellipse cx="95.5" cy="175.9375" fill="#84BE84" rx="3" ry="3" style="stroke: #038048; stroke-width: 1.0;"/><text fill="#000000" font-family="sans-serif" font-size="11" lengthAdjust="spacingAndGlyphs" textLength="100" x="104.5" y="179.1479">id(String): Builder</text><ellipse cx="95.5" cy="188.7422" fill="#84BE84" rx="3" ry="3" style="stroke: #038048; stroke-width: 1.0;"/><text fill="#000000" font-family="sans-serif" font-size="11" lengthAdjust="spacingAndGlyphs" textLength="178" x="104.5" y="191.9526">extension(Extension...): Builder</text><ellipse cx="95.5" cy="201.5469" fill="#84BE84" rx="3" ry="3" style="stroke: #038048; stroke-width: 1.0;"/><text fill="#000000" font-family="sans-serif" font-size="11" lengthAdjust="spacingAndGlyphs" textLength="239" x="104.5" y="204.7573">extension(Collection&lt;Extension&gt;): Builder</text><ellipse cx="95.5" cy="214.3516" fill="#84BE84" rx="3" ry="3" style="stroke: #038048; stroke-width: 1.0;"/><text fill="#000000" font-family="sans-serif" font-size="11" lengthAdjust="spacingAndGlyphs" textLength="225" x="104.5" y="217.562">modifierExtension(Extension...): Builder</text><ellipse cx="95.5" cy="227.1563" fill="#84BE84" rx="3" ry="3" style="stroke: #038048; stroke-width: 1.0;"/><text fill="#000000" font-family="sans-serif" font-size="11" lengthAdjust="spacingAndGlyphs" textLength="286" x="104.5" y="230.3667">modifierExtension(Collection&lt;Extension&gt;): Builder</text><ellipse cx="95.5" cy="239.9609" fill="#84BE84" rx="3" ry="3" style="stroke: #038048; stroke-width: 1.0;"/><text fill="#000000" font-family="sans-serif" font-size="11" lengthAdjust="spacingAndGlyphs" textLength="122" x="104.5" y="243.1714">name(String): Builder</text><ellipse cx="95.5" cy="252.7656" fill="#84BE84" rx="3" ry="3" style="stroke: #038048; stroke-width: 1.0;"/><text fill="#000000" font-family="sans-serif" font-size="11" lengthAdjust="spacingAndGlyphs" textLength="177" x="104.5" y="255.9761">type(DeviceNameType): Builder</text><ellipse cx="95.5" cy="265.5703" fill="#84BE84" rx="3" ry="3" style="stroke: #038048; stroke-width: 1.0;"/><text fill="#000000" font-family="sans-serif" font-size="11" lengthAdjust="spacingAndGlyphs" textLength="113" x="104.5" y="268.7808">build(): DeviceName</text><polygon fill="#FFFF44" points="95.5,273.375,99.5,277.375,95.5,281.375,91.5,277.375" style="stroke: #B38D22; stroke-width: 1.0;"/><text fill="#000000" font-family="sans-serif" font-size="11" lengthAdjust="spacingAndGlyphs" textLength="153" x="104.5" y="281.5854">from(DeviceName): Builder</text></a><!--MD5=[b7b0ea86c8a299e1957933e33e561193]
class com.ibm.fhir.model.type.BackboneElement.Builder--><a href="../type/BackboneElement.Builder.html" target="_top" title="../type/BackboneElement.Builder.html" xlink:actuate="onRequest" xlink:href="../type/BackboneElement.Builder.html" xlink:show="new" xlink:title="../type/BackboneElement.Builder.html" xlink:type="simple"><rect fill="#FEFECE" filter="url(#f1e5l5w9bv1i4s)" height="58.7422" id="com.ibm.fhir.model.type.BackboneElement.Builder" style="stroke: #A80036; stroke-width: 1.5;" width="211" x="6" y="8"/><ellipse cx="21" cy="26.9688" fill="#A9DCDF" rx="11" ry="11" style="stroke: #A80036; stroke-width: 1.0;"/><path d="M21.1094,22.3125 L19.9531,27.3906 L22.2813,27.3906 L21.1094,22.3125 Z M19.625,20.0781 L22.6094,20.0781 L25.9688,32.4688 L23.5156,32.4688 L22.75,29.4063 L19.4688,29.4063 L18.7188,32.4688 L16.2813,32.4688 L19.625,20.0781 Z "/><text fill="#000000" font-family="sans-serif" font-size="14" font-style="italic" lengthAdjust="spacingAndGlyphs" textLength="179" x="35" y="25.9951">BackboneElement.Builder</text><text fill="#000000" font-family="sans-serif" font-size="10" font-style="italic" lengthAdjust="spacingAndGlyphs" textLength="119" x="65" y="38.5791">com.ibm.fhir.model.type</text><line style="stroke: #A80036; stroke-width: 1.5;" x1="7" x2="216" y1="45.9375" y2="45.9375"/><ellipse cx="17" cy="56.9375" fill="#84BE84" rx="3" ry="3" style="stroke: #038048; stroke-width: 1.0;"/><text fill="#000000" font-family="sans-serif" font-size="11" font-style="italic" lengthAdjust="spacingAndGlyphs" textLength="144" x="26" y="60.1479">build(): BackboneElement</text></a><!--MD5=[9f636d08054bbc4b15b17659012b53e7]
class com.ibm.fhir.model.resource.DeviceDefinition.DeviceName--><a href="DeviceDefinition.DeviceName.html" target="_top" title="DeviceDefinition.DeviceName.html" xlink:actuate="onRequest" xlink:href="DeviceDefinition.DeviceName.html" xlink:show="new" xlink:title="DeviceDefinition.DeviceName.html" xlink:type="simple"><rect fill="#FEFECE" filter="url(#f1e5l5w9bv1i4s)" height="37.9375" id="com.ibm.fhir.model.resource.DeviceDefinition.DeviceName" style="stroke: #A80036; stroke-width: 1.5;" width="235" x="252" y="18.5"/><ellipse cx="267" cy="37.4688" fill="#ADD1B2" rx="11" ry="11" style="stroke: #A80036; stroke-width: 1.0;"/><path d="M269.9688,43.1094 Q269.3906,43.4063 268.75,43.5469 Q268.1094,43.7031 267.4063,43.7031 Q264.9063,43.7031 263.5781,42.0625 Q262.2656,40.4063 262.2656,37.2813 Q262.2656,34.1563 263.5781,32.5 Q264.9063,30.8438 267.4063,30.8438 Q268.1094,30.8438 268.75,31 Q269.4063,31.1563 269.9688,31.4531 L269.9688,34.1719 Q269.3438,33.5938 268.75,33.3281 Q268.1563,33.0469 267.5313,33.0469 Q266.1875,33.0469 265.5,34.125 Q264.8125,35.1875 264.8125,37.2813 Q264.8125,39.375 265.5,40.4531 Q266.1875,41.5156 267.5313,41.5156 Q268.1563,41.5156 268.75,41.25 Q269.3438,40.9688 269.9688,40.3906 L269.9688,43.1094 Z "/><text fill="#000000" font-family="sans-serif" font-size="14" lengthAdjust="spacingAndGlyphs" textLength="203" x="281" y="36.4951">DeviceDefinition.DeviceName</text><text fill="#000000" font-family="sans-serif" font-size="10" lengthAdjust="spacingAndGlyphs" textLength="139" x="313" y="49.0791">com.ibm.fhir.model.resource</text></a><!--MD5=[6b56f2fe2f11709973d351d798f1afef]
reverse link com.ibm.fhir.model.type.BackboneElement.Builder to com.ibm.fhir.model.resource.DeviceDefinition.DeviceName.Builder--><path d="M146.1216,83.1253 C156.3415,96.5935 167.8462,111.7546 179.2171,126.7396 " fill="none" id="com.ibm.fhir.model.type.BackboneElement.Builder&lt;-com.ibm.fhir.model.resource.DeviceDefinition.DeviceName.Builder" style="stroke: #A80036; stroke-width: 1.0;"/><polygon fill="none" points="140.4836,87.2755,133.9701,67.1117,151.6362,78.8126,140.4836,87.2755" style="stroke: #A80036; stroke-width: 1.0;"/><!--MD5=[688f8c247cd54040a8135e3d23c1f534]
reverse link com.ibm.fhir.model.resource.DeviceDefinition.DeviceName to com.ibm.fhir.model.resource.DeviceDefinition.DeviceName.Builder--><path d="M345.7781,68.7614 C333.3322,85.163 317.4524,106.0899 301.822,126.6881 " fill="none" id="com.ibm.fhir.model.resource.DeviceDefinition.DeviceName&lt;-com.ibm.fhir.model.resource.DeviceDefinition.DeviceName.Builder" style="stroke: #A80036; stroke-width: 1.0;"/><ellipse cx="350.1169" cy="63.0436" fill="#FFFFFF" rx="8" ry="8" style="stroke: #A80036; stroke-width: 1.0;"/><line style="stroke: #A80036; stroke-width: 1.0;" x1="345.281" x2="354.9528" y1="69.4165" y2="56.6707"/><line style="stroke: #A80036; stroke-width: 1.0;" x1="343.744" x2="356.4898" y1="58.2077" y2="67.8795"/><text fill="#888888" font-family="sans-serif" font-size="10" lengthAdjust="spacingAndGlyphs" textLength="186" x="159.5" y="307.2822">UMLDoclet 2.0.7, PlantUML 1.2019.12</text><!--MD5=[008ceeed7774b3ffc49c50708cf82487]
@startuml
    set namespaceSeparator none
    hide empty fields
    hide empty methods

    class "<size:14>DeviceDefinition.DeviceName.Builder\n<size:10>com.ibm.fhir.model.resource" as com.ibm.fhir.model.resource.DeviceDefinition.DeviceName.Builder [[DeviceDefinition.DeviceName.Builder.html]] {
        +id(String): Builder
        +extension(Extension...): Builder
        +extension(Collection<Extension>): Builder
        +modifierExtension(Extension...): Builder
        +modifierExtension(Collection<Extension>): Builder
        +name(String): Builder
        +type(DeviceNameType): Builder
        +build(): DeviceName
        #from(DeviceName): Builder
    }

    abstract class "<size:14>BackboneElement.Builder\n<size:10>com.ibm.fhir.model.type" as com.ibm.fhir.model.type.BackboneElement.Builder [[../type/BackboneElement.Builder.html]] {
        {abstract} +build(): BackboneElement
    }
    class "<size:14>DeviceDefinition.DeviceName\n<size:10>com.ibm.fhir.model.resource" as com.ibm.fhir.model.resource.DeviceDefinition.DeviceName [[DeviceDefinition.DeviceName.html]]

    com.ibm.fhir.model.type.BackboneElement.Builder <|- - com.ibm.fhir.model.resource.DeviceDefinition.DeviceName.Builder
    com.ibm.fhir.model.resource.DeviceDefinition.DeviceName +- - com.ibm.fhir.model.resource.DeviceDefinition.DeviceName.Builder

    center footer UMLDoclet 2.0.7, PlantUML 1.2019.12
@enduml

PlantUML version 1.2019.12(Sun Nov 03 10:24:54 UTC 2019)
(APACHE source distribution)
Java Runtime: OpenJDK Runtime Environment
JVM: OpenJDK 64-Bit Server VM
Java Version: 11.0.9.1+1
Operating System: Linux
Default Encoding: UTF-8
Language: en
Country: null
--></g></svg>