<?xml version="1.0" encoding="UTF-8" standalone="no"?><svg xmlns="http://www.w3.org/2000/svg" xmlns:xlink="http://www.w3.org/1999/xlink" contentScriptType="application/ecmascript" contentStyleType="text/css" height="333px" preserveAspectRatio="none" style="width:548px;height:333px;" version="1.1" viewBox="0 0 548 333" width="548px" zoomAndPan="magnify"><defs><filter height="300%" id="f1bp0a21ol4dbg" width="300%" x="-1" y="-1"><feGaussianBlur result="blurOut" stdDeviation="2.0"/><feColorMatrix in="blurOut" result="blurOut2" type="matrix" values="0 0 0 0 0 0 0 0 0 0 0 0 0 0 0 0 0 0 .4 0"/><feOffset dx="4.0" dy="4.0" in="blurOut2" result="blurOut3"/><feBlend in="SourceGraphic" in2="blurOut3" mode="normal"/></filter></defs><g><!--MD5=[e1c48026cdce20acc141a2cd9cd7c551]
class com.ibm.fhir.model.resource.EffectEvidenceSynthesis.SampleSize.Builder--><a href="EffectEvidenceSynthesis.SampleSize.Builder.html" target="_top" title="EffectEvidenceSynthesis.SampleSize.Builder.html" xlink:actuate="onRequest" xlink:href="EffectEvidenceSynthesis.SampleSize.Builder.html" xlink:show="new" xlink:title="EffectEvidenceSynthesis.SampleSize.Builder.html" xlink:type="simple"><rect fill="#FEFECE" filter="url(#f1bp0a21ol4dbg)" height="173.9844" id="com.ibm.fhir.model.resource.EffectEvidenceSynthesis.SampleSize.Builder" style="stroke: #A80036; stroke-width: 1.5;" width="337" x="84" y="127"/><ellipse cx="99" cy="145.9688" fill="#ADD1B2" rx="11" ry="11" style="stroke: #A80036; stroke-width: 1.0;"/><path d="M101.9688,151.6094 Q101.3906,151.9063 100.75,152.0469 Q100.1094,152.2031 99.4063,152.2031 Q96.9063,152.2031 95.5781,150.5625 Q94.2656,148.9063 94.2656,145.7813 Q94.2656,142.6563 95.5781,141 Q96.9063,139.3438 99.4063,139.3438 Q100.1094,139.3438 100.75,139.5 Q101.4063,139.6563 101.9688,139.9531 L101.9688,142.6719 Q101.3438,142.0938 100.75,141.8281 Q100.1563,141.5469 99.5313,141.5469 Q98.1875,141.5469 97.5,142.625 Q96.8125,143.6875 96.8125,145.7813 Q96.8125,147.875 97.5,148.9531 Q98.1875,150.0156 99.5313,150.0156 Q100.1563,150.0156 100.75,149.75 Q101.3438,149.4688 101.9688,148.8906 L101.9688,151.6094 Z "/><text fill="#000000" font-family="sans-serif" font-size="14" lengthAdjust="spacingAndGlyphs" textLength="305" x="113" y="144.9951">EffectEvidenceSynthesis.SampleSize.Builder</text><text fill="#000000" font-family="sans-serif" font-size="10" lengthAdjust="spacingAndGlyphs" textLength="139" x="196" y="157.5791">com.ibm.fhir.model.resource</text><line style="stroke: #A80036; stroke-width: 1.5;" x1="85" x2="420" y1="164.9375" y2="164.9375"/><ellipse cx="95" cy="175.9375" fill="#84BE84" rx="3" ry="3" style="stroke: #038048; stroke-width: 1.0;"/><text fill="#000000" font-family="sans-serif" font-size="11" lengthAdjust="spacingAndGlyphs" textLength="100" x="104" y="179.1479">id(String): Builder</text><ellipse cx="95" cy="188.7422" fill="#84BE84" rx="3" ry="3" style="stroke: #038048; stroke-width: 1.0;"/><text fill="#000000" font-family="sans-serif" font-size="11" lengthAdjust="spacingAndGlyphs" textLength="178" x="104" y="191.9526">extension(Extension...): Builder</text><ellipse cx="95" cy="201.5469" fill="#84BE84" rx="3" ry="3" style="stroke: #038048; stroke-width: 1.0;"/><text fill="#000000" font-family="sans-serif" font-size="11" lengthAdjust="spacingAndGlyphs" textLength="239" x="104" y="204.7573">extension(Collection&lt;Extension&gt;): Builder</text><ellipse cx="95" cy="214.3516" fill="#84BE84" rx="3" ry="3" style="stroke: #038048; stroke-width: 1.0;"/><text fill="#000000" font-family="sans-serif" font-size="11" lengthAdjust="spacingAndGlyphs" textLength="225" x="104" y="217.562">modifierExtension(Extension...): Builder</text><ellipse cx="95" cy="227.1563" fill="#84BE84" rx="3" ry="3" style="stroke: #038048; stroke-width: 1.0;"/><text fill="#000000" font-family="sans-serif" font-size="11" lengthAdjust="spacingAndGlyphs" textLength="286" x="104" y="230.3667">modifierExtension(Collection&lt;Extension&gt;): Builder</text><ellipse cx="95" cy="239.9609" fill="#84BE84" rx="3" ry="3" style="stroke: #038048; stroke-width: 1.0;"/><text fill="#000000" font-family="sans-serif" font-size="11" lengthAdjust="spacingAndGlyphs" textLength="153" x="104" y="243.1714">description(String): Builder</text><ellipse cx="95" cy="252.7656" fill="#84BE84" rx="3" ry="3" style="stroke: #038048; stroke-width: 1.0;"/><text fill="#000000" font-family="sans-serif" font-size="11" lengthAdjust="spacingAndGlyphs" textLength="196" x="104" y="255.9761">numberOfStudies(Integer): Builder</text><ellipse cx="95" cy="265.5703" fill="#84BE84" rx="3" ry="3" style="stroke: #038048; stroke-width: 1.0;"/><text fill="#000000" font-family="sans-serif" font-size="11" lengthAdjust="spacingAndGlyphs" textLength="220" x="104" y="268.7808">numberOfParticipants(Integer): Builder</text><ellipse cx="95" cy="278.375" fill="#84BE84" rx="3" ry="3" style="stroke: #038048; stroke-width: 1.0;"/><text fill="#000000" font-family="sans-serif" font-size="11" lengthAdjust="spacingAndGlyphs" textLength="109" x="104" y="281.5854">build(): SampleSize</text><polygon fill="#FFFF44" points="95,286.1797,99,290.1797,95,294.1797,91,290.1797" style="stroke: #B38D22; stroke-width: 1.0;"/><text fill="#000000" font-family="sans-serif" font-size="11" lengthAdjust="spacingAndGlyphs" textLength="149" x="104" y="294.3901">from(SampleSize): Builder</text></a><!--MD5=[b7b0ea86c8a299e1957933e33e561193]
class com.ibm.fhir.model.type.BackboneElement.Builder--><a href="../type/BackboneElement.Builder.html" target="_top" title="../type/BackboneElement.Builder.html" xlink:actuate="onRequest" xlink:href="../type/BackboneElement.Builder.html" xlink:show="new" xlink:title="../type/BackboneElement.Builder.html" xlink:type="simple"><rect fill="#FEFECE" filter="url(#f1bp0a21ol4dbg)" height="58.7422" id="com.ibm.fhir.model.type.BackboneElement.Builder" style="stroke: #A80036; stroke-width: 1.5;" width="211" x="6" y="8"/><ellipse cx="21" cy="26.9688" fill="#A9DCDF" rx="11" ry="11" style="stroke: #A80036; stroke-width: 1.0;"/><path d="M21.1094,22.3125 L19.9531,27.3906 L22.2813,27.3906 L21.1094,22.3125 Z M19.625,20.0781 L22.6094,20.0781 L25.9688,32.4688 L23.5156,32.4688 L22.75,29.4063 L19.4688,29.4063 L18.7188,32.4688 L16.2813,32.4688 L19.625,20.0781 Z "/><text fill="#000000" font-family="sans-serif" font-size="14" font-style="italic" lengthAdjust="spacingAndGlyphs" textLength="179" x="35" y="25.9951">BackboneElement.Builder</text><text fill="#000000" font-family="sans-serif" font-size="10" font-style="italic" lengthAdjust="spacingAndGlyphs" textLength="119" x="65" y="38.5791">com.ibm.fhir.model.type</text><line style="stroke: #A80036; stroke-width: 1.5;" x1="7" x2="216" y1="45.9375" y2="45.9375"/><ellipse cx="17" cy="56.9375" fill="#84BE84" rx="3" ry="3" style="stroke: #038048; stroke-width: 1.0;"/><text fill="#000000" font-family="sans-serif" font-size="11" font-style="italic" lengthAdjust="spacingAndGlyphs" textLength="144" x="26" y="60.1479">build(): BackboneElement</text></a><!--MD5=[2c0c890c766815e7f7ad24899a3d0ead]
class com.ibm.fhir.model.resource.EffectEvidenceSynthesis.SampleSize--><a href="EffectEvidenceSynthesis.SampleSize.html" target="_top" title="EffectEvidenceSynthesis.SampleSize.html" xlink:actuate="onRequest" xlink:href="EffectEvidenceSynthesis.SampleSize.html" xlink:show="new" xlink:title="EffectEvidenceSynthesis.SampleSize.html" xlink:type="simple"><rect fill="#FEFECE" filter="url(#f1bp0a21ol4dbg)" height="37.9375" id="com.ibm.fhir.model.resource.EffectEvidenceSynthesis.SampleSize" style="stroke: #A80036; stroke-width: 1.5;" width="285" x="252" y="18.5"/><ellipse cx="267" cy="37.4688" fill="#ADD1B2" rx="11" ry="11" style="stroke: #A80036; stroke-width: 1.0;"/><path d="M269.9688,43.1094 Q269.3906,43.4063 268.75,43.5469 Q268.1094,43.7031 267.4063,43.7031 Q264.9063,43.7031 263.5781,42.0625 Q262.2656,40.4063 262.2656,37.2813 Q262.2656,34.1563 263.5781,32.5 Q264.9063,30.8438 267.4063,30.8438 Q268.1094,30.8438 268.75,31 Q269.4063,31.1563 269.9688,31.4531 L269.9688,34.1719 Q269.3438,33.5938 268.75,33.3281 Q268.1563,33.0469 267.5313,33.0469 Q266.1875,33.0469 265.5,34.125 Q264.8125,35.1875 264.8125,37.2813 Q264.8125,39.375 265.5,40.4531 Q266.1875,41.5156 267.5313,41.5156 Q268.1563,41.5156 268.75,41.25 Q269.3438,40.9688 269.9688,40.3906 L269.9688,43.1094 Z "/><text fill="#000000" font-family="sans-serif" font-size="14" lengthAdjust="spacingAndGlyphs" textLength="253" x="281" y="36.4951">EffectEvidenceSynthesis.SampleSize</text><text fill="#000000" font-family="sans-serif" font-size="10" lengthAdjust="spacingAndGlyphs" textLength="139" x="338" y="49.0791">com.ibm.fhir.model.resource</text></a><!--MD5=[224151bce2f1944eb4a3ca591cd4ed86]
reverse link com.ibm.fhir.model.type.BackboneElement.Builder to com.ibm.fhir.model.resource.EffectEvidenceSynthesis.SampleSize.Builder--><path d="M147.8619,83.0169 C158.6113,96.4726 170.7563,111.6755 182.8673,126.8357 " fill="none" id="com.ibm.fhir.model.type.BackboneElement.Builder&lt;-com.ibm.fhir.model.resource.EffectEvidenceSynthesis.SampleSize.Builder" style="stroke: #A80036; stroke-width: 1.0;"/><polygon fill="none" points="142.1143,87.0373,135.1002,67.0421,153.0525,78.2991,142.1143,87.0373" style="stroke: #A80036; stroke-width: 1.0;"/><!--MD5=[6c29be20bdd1838f31e29ad90300ea13]
reverse link com.ibm.fhir.model.resource.EffectEvidenceSynthesis.SampleSize to com.ibm.fhir.model.resource.EffectEvidenceSynthesis.SampleSize.Builder--><path d="M369.3767,68.7272 C356.2732,85.0143 339.5237,105.8333 322.824,126.5903 " fill="none" id="com.ibm.fhir.model.resource.EffectEvidenceSynthesis.SampleSize&lt;-com.ibm.fhir.model.resource.EffectEvidenceSynthesis.SampleSize.Builder" style="stroke: #A80036; stroke-width: 1.0;"/><ellipse cx="374.0184" cy="62.9577" fill="#FFFFFF" rx="8" ry="8" style="stroke: #A80036; stroke-width: 1.0;"/><line style="stroke: #A80036; stroke-width: 1.0;" x1="369.0036" x2="379.0332" y1="69.1909" y2="56.7246"/><line style="stroke: #A80036; stroke-width: 1.0;" x1="367.7853" x2="380.2516" y1="57.943" y2="67.9725"/><text fill="#888888" font-family="sans-serif" font-size="10" lengthAdjust="spacingAndGlyphs" textLength="186" x="184.5" y="320.2822">UMLDoclet 2.0.7, PlantUML 1.2019.12</text><!--MD5=[c5eeca53c91d55961f71b2b46adb97dc]
@startuml
    set namespaceSeparator none
    hide empty fields
    hide empty methods

    class "<size:14>EffectEvidenceSynthesis.SampleSize.Builder\n<size:10>com.ibm.fhir.model.resource" as com.ibm.fhir.model.resource.EffectEvidenceSynthesis.SampleSize.Builder [[EffectEvidenceSynthesis.SampleSize.Builder.html]] {
        +id(String): Builder
        +extension(Extension...): Builder
        +extension(Collection<Extension>): Builder
        +modifierExtension(Extension...): Builder
        +modifierExtension(Collection<Extension>): Builder
        +description(String): Builder
        +numberOfStudies(Integer): Builder
        +numberOfParticipants(Integer): Builder
        +build(): SampleSize
        #from(SampleSize): Builder
    }

    abstract class "<size:14>BackboneElement.Builder\n<size:10>com.ibm.fhir.model.type" as com.ibm.fhir.model.type.BackboneElement.Builder [[../type/BackboneElement.Builder.html]] {
        {abstract} +build(): BackboneElement
    }
    class "<size:14>EffectEvidenceSynthesis.SampleSize\n<size:10>com.ibm.fhir.model.resource" as com.ibm.fhir.model.resource.EffectEvidenceSynthesis.SampleSize [[EffectEvidenceSynthesis.SampleSize.html]]

    com.ibm.fhir.model.type.BackboneElement.Builder <|- - com.ibm.fhir.model.resource.EffectEvidenceSynthesis.SampleSize.Builder
    com.ibm.fhir.model.resource.EffectEvidenceSynthesis.SampleSize +- - com.ibm.fhir.model.resource.EffectEvidenceSynthesis.SampleSize.Builder

    center footer UMLDoclet 2.0.7, PlantUML 1.2019.12
@enduml

PlantUML version 1.2019.12(Sun Nov 03 10:24:54 UTC 2019)
(APACHE source distribution)
Java Runtime: OpenJDK Runtime Environment
JVM: OpenJDK 64-Bit Server VM
Java Version: 11.0.9.1+1
Operating System: Linux
Default Encoding: UTF-8
Language: en
Country: null
--></g></svg>