<?xml version="1.0" encoding="UTF-8" standalone="no"?><svg xmlns="http://www.w3.org/2000/svg" xmlns:xlink="http://www.w3.org/1999/xlink" contentScriptType="application/ecmascript" contentStyleType="text/css" height="211px" preserveAspectRatio="none" style="width:207px;height:211px;" version="1.1" viewBox="0 0 207 211" width="207px" zoomAndPan="magnify"><defs><filter height="300%" id="fz8uq06hf1kqt" width="300%" x="-1" y="-1"><feGaussianBlur result="blurOut" stdDeviation="2.0"/><feColorMatrix in="blurOut" result="blurOut2" type="matrix" values="0 0 0 0 0 0 0 0 0 0 0 0 0 0 0 0 0 0 .4 0"/><feOffset dx="4.0" dy="4.0" in="blurOut2" result="blurOut3"/><feBlend in="SourceGraphic" in2="blurOut3" mode="normal"/></filter></defs><g><!--class com.ibm.fhir.server.FHIRApplication--><a href="FHIRApplication.html" target="_top" xlink:actuate="onRequest" xlink:show="new" xlink:title="FHIRApplication.html" xlink:type="simple"><rect fill="#FEFECE" filter="url(#fz8uq06hf1kqt)" height="72.1758" id="com.ibm.fhir.server.FHIRApplication" style="stroke: #A80036; stroke-width: 1.5;" width="184" x="6" y="106"/><ellipse cx="40.35" cy="125.1328" fill="#ADD1B2" rx="11" ry="11" style="stroke: #A80036; stroke-width: 1.0;"/><path d="M42.8231,131.2759 Q42.2421,131.5747 41.6029,131.7241 Q40.9638,131.8735 40.2582,131.8735 Q37.7514,131.8735 36.4315,130.2217 Q35.1117,128.5698 35.1117,125.4487 Q35.1117,122.3193 36.4315,120.6675 Q37.7514,119.0156 40.2582,119.0156 Q40.9638,119.0156 41.6112,119.165 Q42.2587,119.3145 42.8231,119.6133 L42.8231,122.3359 Q42.1923,121.7549 41.5988,121.4851 Q41.0053,121.2153 40.3744,121.2153 Q39.0297,121.2153 38.3449,122.282 Q37.6601,123.3486 37.6601,125.4487 Q37.6601,127.5405 38.3449,128.6072 Q39.0297,129.6738 40.3744,129.6738 Q41.0053,129.6738 41.5988,129.4041 Q42.1923,129.1343 42.8231,128.5532 Z "/><text fill="#000000" font-family="sans-serif" font-size="14" lengthAdjust="spacingAndGlyphs" textLength="109" x="58.65" y="124.5352">FHIRApplication</text><text fill="#000000" font-family="sans-serif" font-size="10" lengthAdjust="spacingAndGlyphs" textLength="94" x="66.15" y="137.1563">com.ibm.fhir.server</text><line style="stroke: #A80036; stroke-width: 1.5;" x1="7" x2="189" y1="144.2656" y2="144.2656"/><ellipse cx="17" cy="156.2432" fill="#84BE84" rx="3" ry="3" style="stroke: #038048; stroke-width: 1.0;"/><text fill="#000000" font-family="sans-serif" font-size="11" lengthAdjust="spacingAndGlyphs" textLength="158" x="26" y="158.9004">getClasses(): Set&lt;Class&lt;?&gt;&gt;</text><ellipse cx="17" cy="169.1982" fill="#84BE84" rx="3" ry="3" style="stroke: #038048; stroke-width: 1.0;"/><text fill="#000000" font-family="sans-serif" font-size="11" lengthAdjust="spacingAndGlyphs" textLength="156" x="26" y="171.8555">getSingletons(): Set&lt;Object&gt;</text></a><!--class javax.ws.rs.core.Application--><rect fill="#FEFECE" filter="url(#fz8uq06hf1kqt)" height="38.2656" id="javax.ws.rs.core.Application" style="stroke: #A80036; stroke-width: 1.5;" width="110" x="43" y="8"/><ellipse cx="58" cy="27.1328" fill="#ADD1B2" rx="11" ry="11" style="stroke: #A80036; stroke-width: 1.0;"/><path d="M60.4731,33.2759 Q59.8921,33.5747 59.2529,33.7241 Q58.6138,33.8735 57.9082,33.8735 Q55.4014,33.8735 54.0815,32.2217 Q52.7617,30.5698 52.7617,27.4487 Q52.7617,24.3193 54.0815,22.6675 Q55.4014,21.0156 57.9082,21.0156 Q58.6138,21.0156 59.2612,21.165 Q59.9087,21.3145 60.4731,21.6133 L60.4731,24.3359 Q59.8423,23.7549 59.2488,23.4851 Q58.6553,23.2153 58.0244,23.2153 Q56.6797,23.2153 55.9949,24.282 Q55.3101,25.3486 55.3101,27.4487 Q55.3101,29.5405 55.9949,30.6072 Q56.6797,31.6738 58.0244,31.6738 Q58.6553,31.6738 59.2488,31.4041 Q59.8423,31.1343 60.4731,30.5532 Z "/><text fill="#000000" font-family="sans-serif" font-size="14" lengthAdjust="spacingAndGlyphs" textLength="78" x="72" y="26.5352">Application</text><text fill="#000000" font-family="sans-serif" font-size="10" lengthAdjust="spacingAndGlyphs" textLength="78" x="72" y="39.1563">javax.ws.rs.core</text><!--link javax.ws.rs.core.Application to com.ibm.fhir.server.FHIRApplication--><path d="M98,66.5888 C98,79.3573 98,93.4348 98,105.935 " fill="none" id="javax.ws.rs.core.Application-com.ibm.fhir.server.FHIRApplication" style="stroke: #A80036; stroke-width: 1.0;"/><polygon fill="none" points="91.0001,66.2484,98,46.2484,105.0001,66.2484,91.0001,66.2484" style="stroke: #A80036; stroke-width: 1.0;"/><text fill="#888888" font-family="sans-serif" font-size="10" lengthAdjust="spacingAndGlyphs" textLength="182" x="13" y="197.668">UMLDoclet 2.0.5, PlantUML 1.2019.08</text><!--
@startuml
    set namespaceSeparator none
    hide empty fields
    hide empty methods

    class "<size:14>FHIRApplication\n<size:10>com.ibm.fhir.server" as com.ibm.fhir.server.FHIRApplication [[FHIRApplication.html]] {
        +getClasses(): Set<Class<?>>
        +getSingletons(): Set<Object>
    }

    class "<size:14>Application\n<size:10>javax.ws.rs.core" as javax.ws.rs.core.Application

    javax.ws.rs.core.Application <|- - com.ibm.fhir.server.FHIRApplication

    center footer UMLDoclet 2.0.5, PlantUML 1.2019.08
@enduml

PlantUML version 1.2019.08(Sat Jul 13 15:25:14 EDT 2019)
(APACHE source distribution)
Java Runtime: OpenJDK Runtime Environment
JVM: OpenJDK 64-Bit Server VM
Java Version: 11.0.4+11
Operating System: Mac OS X
OS Version: 10.14.6
Default Encoding: UTF-8
Language: en
Country: US
--></g></svg>