<?xml version="1.0" encoding="UTF-8" standalone="no"?><svg xmlns="http://www.w3.org/2000/svg" xmlns:xlink="http://www.w3.org/1999/xlink" contentScriptType="application/ecmascript" contentStyleType="text/css" height="274px" preserveAspectRatio="none" style="width:427px;height:274px;" version="1.1" viewBox="0 0 427 274" width="427px" zoomAndPan="magnify"><defs><filter height="300%" id="f1wipft4y7vv7t" width="300%" x="-1" y="-1"><feGaussianBlur result="blurOut" stdDeviation="2.0"/><feColorMatrix in="blurOut" result="blurOut2" type="matrix" values="0 0 0 0 0 0 0 0 0 0 0 0 0 0 0 0 0 0 .4 0"/><feOffset dx="4.0" dy="4.0" in="blurOut2" result="blurOut3"/><feBlend in="SourceGraphic" in2="blurOut3" mode="normal"/></filter></defs><g><!--cluster com.ibm.fhir.server--><polygon fill="#FFFFFF" filter="url(#f1wipft4y7vv7t)" points="14,124,157,124,164,146.4883,405,146.4883,405,233,14,233,14,124" style="stroke: #000000; stroke-width: 1.5;"/><line style="stroke: #000000; stroke-width: 1.5;" x1="14" x2="164" y1="146.4883" y2="146.4883"/><text fill="#000000" font-family="sans-serif" font-size="14" font-weight="bold" lengthAdjust="spacingAndGlyphs" textLength="137" x="18" y="139.5352">com.ibm.fhir.server</text><!--cluster javax.ws.rs.core--><polygon fill="#FFFFFF" filter="url(#f1wipft4y7vv7t)" points="51,16,167,16,174,38.4883,177,38.4883,177,99,51,99,51,16" style="stroke: #000000; stroke-width: 1.5;"/><line style="stroke: #000000; stroke-width: 1.5;" x1="51" x2="174" y1="38.4883" y2="38.4883"/><text fill="#000000" font-family="sans-serif" font-size="14" font-weight="bold" lengthAdjust="spacingAndGlyphs" textLength="110" x="55" y="31.5352">javax.ws.rs.core</text><!--class com.ibm.fhir.server.FHIRBuildIdentifier--><a href="FHIRBuildIdentifier.html" target="_top" xlink:actuate="onRequest" xlink:show="new" xlink:title="FHIRBuildIdentifier.html" xlink:type="simple"><rect fill="#FEFECE" filter="url(#f1wipft4y7vv7t)" height="73.9102" id="com.ibm.fhir.server.FHIRBuildIdentifier" style="stroke: #A80036; stroke-width: 1.5;" width="156" x="241" y="151"/><ellipse cx="264.55" cy="167" fill="#ADD1B2" rx="11" ry="11" style="stroke: #A80036; stroke-width: 1.0;"/><path d="M267.0231,173.1431 Q266.4421,173.4419 265.8029,173.5913 Q265.1638,173.7407 264.4582,173.7407 Q261.9514,173.7407 260.6315,172.0889 Q259.3117,170.437 259.3117,167.3159 Q259.3117,164.1865 260.6315,162.5347 Q261.9514,160.8828 264.4582,160.8828 Q265.1638,160.8828 265.8112,161.0322 Q266.4587,161.1816 267.0231,161.4805 L267.0231,164.2031 Q266.3923,163.6221 265.7988,163.3523 Q265.2053,163.0825 264.5744,163.0825 Q263.2297,163.0825 262.5449,164.1492 Q261.8601,165.2158 261.8601,167.3159 Q261.8601,169.4077 262.5449,170.4744 Q263.2297,171.541 264.5744,171.541 Q265.2053,171.541 265.7988,171.2712 Q266.3923,171.0015 267.0231,170.4204 Z "/><text fill="#000000" font-family="sans-serif" font-size="12" lengthAdjust="spacingAndGlyphs" textLength="105" x="280.45" y="171.5352">FHIRBuildIdentifier</text><line style="stroke: #A80036; stroke-width: 1.5;" x1="242" x2="396" y1="183" y2="183"/><line style="stroke: #A80036; stroke-width: 1.5;" x1="242" x2="396" y1="191" y2="191"/><ellipse cx="252" cy="202.9775" fill="#84BE84" rx="3" ry="3" style="stroke: #038048; stroke-width: 1.0;"/><text fill="#000000" font-family="sans-serif" font-size="11" lengthAdjust="spacingAndGlyphs" textLength="130" x="261" y="205.6348">getBuildVersion(): String</text><ellipse cx="252" cy="215.9326" fill="#84BE84" rx="3" ry="3" style="stroke: #038048; stroke-width: 1.0;"/><text fill="#000000" font-family="sans-serif" font-size="11" lengthAdjust="spacingAndGlyphs" textLength="99" x="261" y="218.5898">getBuildId(): String</text></a><!--class com.ibm.fhir.server.FHIRApplication--><a href="FHIRApplication.html" target="_top" xlink:actuate="onRequest" xlink:show="new" xlink:title="FHIRApplication.html" xlink:type="simple"><rect fill="#FEFECE" filter="url(#f1wipft4y7vv7t)" height="73.9102" id="com.ibm.fhir.server.FHIRApplication" style="stroke: #A80036; stroke-width: 1.5;" width="184" x="22" y="151"/><ellipse cx="64.9" cy="167" fill="#ADD1B2" rx="11" ry="11" style="stroke: #A80036; stroke-width: 1.0;"/><path d="M67.3731,173.1431 Q66.7921,173.4419 66.1529,173.5913 Q65.5138,173.7407 64.8082,173.7407 Q62.3014,173.7407 60.9815,172.0889 Q59.6617,170.437 59.6617,167.3159 Q59.6617,164.1865 60.9815,162.5347 Q62.3014,160.8828 64.8082,160.8828 Q65.5138,160.8828 66.1612,161.0322 Q66.8087,161.1816 67.3731,161.4805 L67.3731,164.2031 Q66.7423,163.6221 66.1488,163.3523 Q65.5553,163.0825 64.9244,163.0825 Q63.5797,163.0825 62.8949,164.1492 Q62.2101,165.2158 62.2101,167.3159 Q62.2101,169.4077 62.8949,170.4744 Q63.5797,171.541 64.9244,171.541 Q65.5553,171.541 66.1488,171.2712 Q66.7423,171.0015 67.3731,170.4204 Z "/><text fill="#000000" font-family="sans-serif" font-size="12" lengthAdjust="spacingAndGlyphs" textLength="90" x="85.1" y="171.5352">FHIRApplication</text><line style="stroke: #A80036; stroke-width: 1.5;" x1="23" x2="205" y1="183" y2="183"/><line style="stroke: #A80036; stroke-width: 1.5;" x1="23" x2="205" y1="191" y2="191"/><ellipse cx="33" cy="202.9775" fill="#84BE84" rx="3" ry="3" style="stroke: #038048; stroke-width: 1.0;"/><text fill="#000000" font-family="sans-serif" font-size="11" lengthAdjust="spacingAndGlyphs" textLength="158" x="42" y="205.6348">getClasses(): Set&lt;Class&lt;?&gt;&gt;</text><ellipse cx="33" cy="215.9326" fill="#84BE84" rx="3" ry="3" style="stroke: #038048; stroke-width: 1.0;"/><text fill="#000000" font-family="sans-serif" font-size="11" lengthAdjust="spacingAndGlyphs" textLength="156" x="42" y="218.5898">getSingletons(): Set&lt;Object&gt;</text></a><!--class javax.ws.rs.core.Application--><rect fill="#FEFECE" filter="url(#f1wipft4y7vv7t)" height="48" id="javax.ws.rs.core.Application" style="stroke: #A80036; stroke-width: 1.5;" width="96" x="66" y="43"/><ellipse cx="81" cy="59" fill="#ADD1B2" rx="11" ry="11" style="stroke: #A80036; stroke-width: 1.0;"/><path d="M83.4731,65.1431 Q82.8921,65.4419 82.2529,65.5913 Q81.6138,65.7407 80.9082,65.7407 Q78.4014,65.7407 77.0815,64.0889 Q75.7617,62.437 75.7617,59.3159 Q75.7617,56.1865 77.0815,54.5347 Q78.4014,52.8828 80.9082,52.8828 Q81.6138,52.8828 82.2612,53.0322 Q82.9087,53.1816 83.4731,53.4805 L83.4731,56.2031 Q82.8423,55.6221 82.2488,55.3523 Q81.6553,55.0825 81.0244,55.0825 Q79.6797,55.0825 78.9949,56.1492 Q78.3101,57.2158 78.3101,59.3159 Q78.3101,61.4077 78.9949,62.4744 Q79.6797,63.541 81.0244,63.541 Q81.6553,63.541 82.2488,63.2712 Q82.8423,63.0015 83.4731,62.4204 Z "/><text fill="#000000" font-family="sans-serif" font-size="12" lengthAdjust="spacingAndGlyphs" textLength="64" x="95" y="63.5352">Application</text><line style="stroke: #A80036; stroke-width: 1.5;" x1="67" x2="161" y1="75" y2="75"/><line style="stroke: #A80036; stroke-width: 1.5;" x1="67" x2="161" y1="83" y2="83"/><!--link javax.ws.rs.core.Application to com.ibm.fhir.server.FHIRApplication--><path d="M114,111.5529 C114,124.5142 114,138.5269 114,150.9716 " fill="none" id="javax.ws.rs.core.Application-com.ibm.fhir.server.FHIRApplication" style="stroke: #A80036; stroke-width: 1.0;"/><polygon fill="none" points="107.0001,111.1954,114,91.1953,121.0001,111.1953,107.0001,111.1954" style="stroke: #A80036; stroke-width: 1.0;"/><text fill="#888888" font-family="sans-serif" font-size="10" lengthAdjust="spacingAndGlyphs" textLength="182" x="124.5" y="260.668">UMLDoclet 2.0.5, PlantUML 1.2019.08</text><!--
@startuml
    namespace com.ibm.fhir.server {

        class FHIRBuildIdentifier [[FHIRBuildIdentifier.html]] {
            +getBuildVersion(): String
            +getBuildId(): String
        }

        class FHIRApplication [[FHIRApplication.html]] {
            +getClasses(): Set<Class<?>>
            +getSingletons(): Set<Object>
        }

        javax.ws.rs.core.Application <|- - FHIRApplication
    }

    namespace javax.ws.rs.core {
        class Application
    }

    center footer UMLDoclet 2.0.5, PlantUML 1.2019.08
@enduml

PlantUML version 1.2019.08(Sat Jul 13 15:25:14 EDT 2019)
(APACHE source distribution)
Java Runtime: OpenJDK Runtime Environment
JVM: OpenJDK 64-Bit Server VM
Java Version: 11.0.4+11
Operating System: Mac OS X
OS Version: 10.14.6
Default Encoding: UTF-8
Language: en
Country: US
--></g></svg>