<?xml version="1.0" encoding="UTF-8" standalone="no"?><svg xmlns="http://www.w3.org/2000/svg" xmlns:xlink="http://www.w3.org/1999/xlink" contentScriptType="application/ecmascript" contentStyleType="text/css" height="282px" preserveAspectRatio="none" style="width:397px;height:282px;" version="1.1" viewBox="0 0 397 282" width="397px" zoomAndPan="magnify"><defs><filter height="300%" id="f1td8mjwanttc" width="300%" x="-1" y="-1"><feGaussianBlur result="blurOut" stdDeviation="2.0"/><feColorMatrix in="blurOut" result="blurOut2" type="matrix" values="0 0 0 0 0 0 0 0 0 0 0 0 0 0 0 0 0 0 .4 0"/><feOffset dx="4.0" dy="4.0" in="blurOut2" result="blurOut3"/><feBlend in="SourceGraphic" in2="blurOut3" mode="normal"/></filter></defs><g><!--MD5=[05c02bbfc89154ec2cae632aad4da250]
class com.ibm.fhir.persistence.SingleResourceResult.Builder--><a href="SingleResourceResult.Builder.html" target="_top" title="SingleResourceResult.Builder.html" xlink:actuate="onRequest" xlink:href="SingleResourceResult.Builder.html" xlink:show="new" xlink:title="SingleResourceResult.Builder.html" xlink:type="simple"><rect fill="#FEFECE" filter="url(#f1td8mjwanttc)" height="143.5703" id="com.ibm.fhir.persistence.SingleResourceResult.Builder" style="stroke: #A80036; stroke-width: 1.5;" width="377" x="6" y="106"/><ellipse cx="26.85" cy="124.9688" fill="#ADD1B2" rx="11" ry="11" style="stroke: #A80036; stroke-width: 1.0;"/><path d="M29.8188,130.6094 Q29.2406,130.9063 28.6,131.0469 Q27.9594,131.2031 27.2563,131.2031 Q24.7563,131.2031 23.4281,129.5625 Q22.1156,127.9063 22.1156,124.7813 Q22.1156,121.6563 23.4281,120 Q24.7563,118.3438 27.2563,118.3438 Q27.9594,118.3438 28.6,118.5 Q29.2563,118.6563 29.8188,118.9531 L29.8188,121.6719 Q29.1938,121.0938 28.6,120.8281 Q28.0063,120.5469 27.3813,120.5469 Q26.0375,120.5469 25.35,121.625 Q24.6625,122.6875 24.6625,124.7813 Q24.6625,126.875 25.35,127.9531 Q26.0375,129.0156 27.3813,129.0156 Q28.0063,129.0156 28.6,128.75 Q29.1938,128.4688 29.8188,127.8906 L29.8188,130.6094 Z "/><text fill="#000000" font-family="sans-serif" font-size="14" lengthAdjust="spacingAndGlyphs" textLength="205" x="42.15" y="123.9951">SingleResourceResult.Builder</text><text fill="#000000" font-family="sans-serif" font-size="10" lengthAdjust="spacingAndGlyphs" textLength="119" x="85.15" y="136.5791">com.ibm.fhir.persistence</text><rect fill="#FFFFFF" height="15.9688" style="stroke: #000000; stroke-width: 1.0; stroke-dasharray: 2.0,2.0;" width="125" x="261" y="103"/><text fill="#000000" font-family="sans-serif" font-size="12" font-style="italic" lengthAdjust="spacingAndGlyphs" textLength="123" x="262" y="115.1387">T extends Resource</text><line style="stroke: #A80036; stroke-width: 1.5;" x1="7" x2="382" y1="143.9375" y2="143.9375"/><polygon fill="none" points="17,150.9375,13,156.9375,21,156.9375" style="stroke: #1963A0; stroke-width: 1.0;"/><text fill="#000000" font-family="sans-serif" font-size="11" lengthAdjust="spacingAndGlyphs" textLength="100" x="26" y="158.1479">success: boolean</text><polygon fill="none" points="17,163.7422,13,169.7422,21,169.7422" style="stroke: #1963A0; stroke-width: 1.0;"/><text fill="#000000" font-family="sans-serif" font-size="11" lengthAdjust="spacingAndGlyphs" textLength="172" x="26" y="170.9526">resource: T extends Resource</text><polygon fill="none" points="17,176.5469,13,182.5469,21,182.5469" style="stroke: #1963A0; stroke-width: 1.0;"/><text fill="#000000" font-family="sans-serif" font-size="11" lengthAdjust="spacingAndGlyphs" textLength="164" x="26" y="183.7573">outcome: OperationOutcome</text><line style="stroke: #A80036; stroke-width: 1.5;" x1="7" x2="382" y1="190.3516" y2="190.3516"/><ellipse cx="17" cy="201.3516" fill="#84BE84" rx="3" ry="3" style="stroke: #038048; stroke-width: 1.0;"/><text fill="#000000" font-family="sans-serif" font-size="11" lengthAdjust="spacingAndGlyphs" textLength="279" x="26" y="204.562">success(boolean): Builder&lt;T extends Resource&gt;</text><ellipse cx="17" cy="214.1563" fill="#84BE84" rx="3" ry="3" style="stroke: #038048; stroke-width: 1.0;"/><text fill="#000000" font-family="sans-serif" font-size="11" lengthAdjust="spacingAndGlyphs" textLength="351" x="26" y="217.3667">resource(T extends Resource): Builder&lt;T extends Resource&gt;</text><ellipse cx="17" cy="226.9609" fill="#84BE84" rx="3" ry="3" style="stroke: #038048; stroke-width: 1.0;"/><text fill="#000000" font-family="sans-serif" font-size="11" lengthAdjust="spacingAndGlyphs" textLength="343" x="26" y="230.1714">outcome(OperationOutcome): Builder&lt;T extends Resource&gt;</text><ellipse cx="17" cy="239.7656" fill="#84BE84" rx="3" ry="3" style="stroke: #038048; stroke-width: 1.0;"/><text fill="#000000" font-family="sans-serif" font-size="11" lengthAdjust="spacingAndGlyphs" textLength="297" x="26" y="242.9761">build(): SingleResourceResult&lt;T extends Resource&gt;</text></a><!--MD5=[dcd26abe6ccf9848c7ccc2dec345c243]
class com.ibm.fhir.persistence.SingleResourceResult--><a href="SingleResourceResult.html" target="_top" title="SingleResourceResult.html" xlink:actuate="onRequest" xlink:href="SingleResourceResult.html" xlink:show="new" xlink:title="SingleResourceResult.html" xlink:type="simple"><rect fill="#FEFECE" filter="url(#f1td8mjwanttc)" height="37.9375" id="com.ibm.fhir.persistence.SingleResourceResult" style="stroke: #A80036; stroke-width: 1.5;" width="312" x="38.5" y="8"/><ellipse cx="53.5" cy="26.9688" fill="#ADD1B2" rx="11" ry="11" style="stroke: #A80036; stroke-width: 1.0;"/><path d="M56.4688,32.6094 Q55.8906,32.9063 55.25,33.0469 Q54.6094,33.2031 53.9063,33.2031 Q51.4063,33.2031 50.0781,31.5625 Q48.7656,29.9063 48.7656,26.7813 Q48.7656,23.6563 50.0781,22 Q51.4063,20.3438 53.9063,20.3438 Q54.6094,20.3438 55.25,20.5 Q55.9063,20.6563 56.4688,20.9531 L56.4688,23.6719 Q55.8438,23.0938 55.25,22.8281 Q54.6563,22.5469 54.0313,22.5469 Q52.6875,22.5469 52,23.625 Q51.3125,24.6875 51.3125,26.7813 Q51.3125,28.875 52,29.9531 Q52.6875,31.0156 54.0313,31.0156 Q54.6563,31.0156 55.25,30.75 Q55.8438,30.4688 56.4688,29.8906 L56.4688,32.6094 Z "/><text fill="#000000" font-family="sans-serif" font-size="14" lengthAdjust="spacingAndGlyphs" textLength="153" x="67.5" y="25.9951">SingleResourceResult</text><text fill="#000000" font-family="sans-serif" font-size="10" lengthAdjust="spacingAndGlyphs" textLength="119" x="84.5" y="38.5791">com.ibm.fhir.persistence</text><rect fill="#FFFFFF" height="15.9688" style="stroke: #000000; stroke-width: 1.0; stroke-dasharray: 2.0,2.0;" width="125" x="228.5" y="5"/><text fill="#000000" font-family="sans-serif" font-size="12" font-style="italic" lengthAdjust="spacingAndGlyphs" textLength="123" x="229.5" y="17.1387">T extends Resource</text></a><!--MD5=[a34574a90000818912be60a4bafd620c]
reverse link com.ibm.fhir.persistence.SingleResourceResult to com.ibm.fhir.persistence.SingleResourceResult.Builder--><path d="M194.5,61.44 C194.5,74.62 194.5,90.31 194.5,105.8 " fill="none" id="com.ibm.fhir.persistence.SingleResourceResult&lt;-com.ibm.fhir.persistence.SingleResourceResult.Builder" style="stroke: #A80036; stroke-width: 1.0;"/><ellipse cx="194.5" cy="54.27" fill="#FFFFFF" rx="8" ry="8" style="stroke: #A80036; stroke-width: 1.0;"/><line style="stroke: #A80036; stroke-width: 1.0;" x1="194.5" x2="194.5" y1="62.27" y2="46.27"/><line style="stroke: #A80036; stroke-width: 1.0;" x1="186.5" x2="202.5" y1="54.27" y2="54.27"/><text fill="#888888" font-family="sans-serif" font-size="10" lengthAdjust="spacingAndGlyphs" textLength="186" x="107.5" y="269.2822">UMLDoclet 2.0.7, PlantUML 1.2019.12</text><!--MD5=[a71f7fd1c0f04f0cee016af7fa906a2f]
@startuml
    set namespaceSeparator none
    hide empty fields
    hide empty methods

    class "<size:14>SingleResourceResult.Builder\n<size:10>com.ibm.fhir.persistence" as com.ibm.fhir.persistence.SingleResourceResult.Builder<T extends Resource> [[SingleResourceResult.Builder.html]] {
        ~success: boolean
        ~resource: T extends Resource
        ~outcome: OperationOutcome
        +success(boolean): Builder<T extends Resource>
        +resource(T extends Resource): Builder<T extends Resource>
        +outcome(OperationOutcome): Builder<T extends Resource>
        +build(): SingleResourceResult<T extends Resource>
    }

    class "<size:14>SingleResourceResult\n<size:10>com.ibm.fhir.persistence" as com.ibm.fhir.persistence.SingleResourceResult<T extends Resource> [[SingleResourceResult.html]]

    com.ibm.fhir.persistence.SingleResourceResult +- - com.ibm.fhir.persistence.SingleResourceResult.Builder

    center footer UMLDoclet 2.0.7, PlantUML 1.2019.12
@enduml

PlantUML version 1.2019.12(Sun Nov 03 10:24:54 UTC 2019)
(APACHE source distribution)
Java Runtime: OpenJDK Runtime Environment
JVM: OpenJDK 64-Bit Server VM
Java Version: 11.0.10+9
Operating System: Linux
Default Encoding: UTF-8
Language: en
Country: null
--></g></svg>