<?xml version="1.0" encoding="UTF-8" standalone="no"?><svg xmlns="http://www.w3.org/2000/svg" xmlns:xlink="http://www.w3.org/1999/xlink" contentScriptType="application/ecmascript" contentStyleType="text/css" height="210px" preserveAspectRatio="none" style="width:404px;height:210px;" version="1.1" viewBox="0 0 404 210" width="404px" zoomAndPan="magnify"><defs><filter height="300%" id="f8pwbk5sdek2i" width="300%" x="-1" y="-1"><feGaussianBlur result="blurOut" stdDeviation="2.0"/><feColorMatrix in="blurOut" result="blurOut2" type="matrix" values="0 0 0 0 0 0 0 0 0 0 0 0 0 0 0 0 0 0 .4 0"/><feOffset dx="4.0" dy="4.0" in="blurOut2" result="blurOut3"/><feBlend in="SourceGraphic" in2="blurOut3" mode="normal"/></filter></defs><g><!--MD5=[7e00a6060a3afeb9347e1db5a19f4cc6]
class com.ibm.fhir.persistence.exception.FHIRPersistenceVersionIdMismatchException--><a href="FHIRPersistenceVersionIdMismatchException.html" target="_top" title="FHIRPersistenceVersionIdMismatchException.html" xlink:actuate="onRequest" xlink:href="FHIRPersistenceVersionIdMismatchException.html" xlink:show="new" xlink:title="FHIRPersistenceVersionIdMismatchException.html" xlink:type="simple"><rect fill="#FEFECE" filter="url(#f8pwbk5sdek2i)" height="71.5469" id="com.ibm.fhir.persistence.exception.FHIRPersistenceVersionIdMismatchException" style="stroke: #A80036; stroke-width: 1.5;" width="387" x="6" y="106"/><ellipse cx="40.8" cy="124.9688" fill="#ADD1B2" rx="11" ry="11" style="stroke: #A80036; stroke-width: 1.0;"/><path d="M43.7688,130.6094 Q43.1906,130.9063 42.55,131.0469 Q41.9094,131.2031 41.2063,131.2031 Q38.7063,131.2031 37.3781,129.5625 Q36.0656,127.9063 36.0656,124.7813 Q36.0656,121.6563 37.3781,120 Q38.7063,118.3438 41.2063,118.3438 Q41.9094,118.3438 42.55,118.5 Q43.2063,118.6563 43.7688,118.9531 L43.7688,121.6719 Q43.1438,121.0938 42.55,120.8281 Q41.9563,120.5469 41.3313,120.5469 Q39.9875,120.5469 39.3,121.625 Q38.6125,122.6875 38.6125,124.7813 Q38.6125,126.875 39.3,127.9531 Q39.9875,129.0156 41.3313,129.0156 Q41.9563,129.0156 42.55,128.75 Q43.1438,128.4688 43.7688,127.8906 L43.7688,130.6094 Z "/><text fill="#000000" font-family="sans-serif" font-size="14" lengthAdjust="spacingAndGlyphs" textLength="311" x="59.2" y="123.9951">FHIRPersistenceVersionIdMismatchException</text><text fill="#000000" font-family="sans-serif" font-size="10" lengthAdjust="spacingAndGlyphs" textLength="169" x="130.2" y="136.5791">com.ibm.fhir.persistence.exception</text><line style="stroke: #A80036; stroke-width: 1.5;" x1="7" x2="392" y1="143.9375" y2="143.9375"/><ellipse cx="17" cy="154.9375" fill="#84BE84" rx="3" ry="3" style="stroke: #038048; stroke-width: 1.0;"/><text fill="#000000" font-family="sans-serif" font-size="11" lengthAdjust="spacingAndGlyphs" textLength="294" x="26" y="158.1479">FHIRPersistenceVersionIdMismatchException(String)</text><ellipse cx="17" cy="167.7422" fill="#84BE84" rx="3" ry="3" style="stroke: #038048; stroke-width: 1.0;"/><text fill="#000000" font-family="sans-serif" font-size="11" lengthAdjust="spacingAndGlyphs" textLength="361" x="26" y="170.9526">FHIRPersistenceVersionIdMismatchException(String, Throwable)</text></a><!--MD5=[42076bf23034be2e60f25a3f3ab24b7c]
class com.ibm.fhir.persistence.exception.FHIRPersistenceException--><a href="FHIRPersistenceException.html" target="_top" title="FHIRPersistenceException.html" xlink:actuate="onRequest" xlink:href="FHIRPersistenceException.html" xlink:show="new" xlink:title="FHIRPersistenceException.html" xlink:type="simple"><rect fill="#FEFECE" filter="url(#f8pwbk5sdek2i)" height="37.9375" id="com.ibm.fhir.persistence.exception.FHIRPersistenceException" style="stroke: #A80036; stroke-width: 1.5;" width="213" x="93" y="8"/><ellipse cx="108" cy="26.9688" fill="#ADD1B2" rx="11" ry="11" style="stroke: #A80036; stroke-width: 1.0;"/><path d="M110.9688,32.6094 Q110.3906,32.9063 109.75,33.0469 Q109.1094,33.2031 108.4063,33.2031 Q105.9063,33.2031 104.5781,31.5625 Q103.2656,29.9063 103.2656,26.7813 Q103.2656,23.6563 104.5781,22 Q105.9063,20.3438 108.4063,20.3438 Q109.1094,20.3438 109.75,20.5 Q110.4063,20.6563 110.9688,20.9531 L110.9688,23.6719 Q110.3438,23.0938 109.75,22.8281 Q109.1563,22.5469 108.5313,22.5469 Q107.1875,22.5469 106.5,23.625 Q105.8125,24.6875 105.8125,26.7813 Q105.8125,28.875 106.5,29.9531 Q107.1875,31.0156 108.5313,31.0156 Q109.1563,31.0156 109.75,30.75 Q110.3438,30.4688 110.9688,29.8906 L110.9688,32.6094 Z "/><text fill="#000000" font-family="sans-serif" font-size="14" lengthAdjust="spacingAndGlyphs" textLength="181" x="122" y="25.9951">FHIRPersistenceException</text><text fill="#000000" font-family="sans-serif" font-size="10" lengthAdjust="spacingAndGlyphs" textLength="169" x="128" y="38.5791">com.ibm.fhir.persistence.exception</text></a><!--MD5=[4ccfe0c701d7c8c12b71e403ac1ffe62]
reverse link com.ibm.fhir.persistence.exception.FHIRPersistenceException to com.ibm.fhir.persistence.exception.FHIRPersistenceVersionIdMismatchException--><path d="M199.5,66.5888 C199.5,79.3573 199.5,93.4348 199.5,105.935 " fill="none" id="com.ibm.fhir.persistence.exception.FHIRPersistenceException&lt;-com.ibm.fhir.persistence.exception.FHIRPersistenceVersionIdMismatchException" style="stroke: #A80036; stroke-width: 1.0;"/><polygon fill="none" points="192.5001,66.2484,199.5,46.2484,206.5001,66.2484,192.5001,66.2484" style="stroke: #A80036; stroke-width: 1.0;"/><text fill="#888888" font-family="sans-serif" font-size="10" lengthAdjust="spacingAndGlyphs" textLength="186" x="112.5" y="197.2822">UMLDoclet 2.0.7, PlantUML 1.2019.12</text><!--MD5=[f0a802893bc1154c0f74ab310c8f95b6]
@startuml
    set namespaceSeparator none
    hide empty fields
    hide empty methods

    class "<size:14>FHIRPersistenceVersionIdMismatchException\n<size:10>com.ibm.fhir.persistence.exception" as com.ibm.fhir.persistence.exception.FHIRPersistenceVersionIdMismatchException [[FHIRPersistenceVersionIdMismatchException.html]] {
        +FHIRPersistenceVersionIdMismatchException(String)
        +FHIRPersistenceVersionIdMismatchException(String, Throwable)
    }

    class "<size:14>FHIRPersistenceException\n<size:10>com.ibm.fhir.persistence.exception" as com.ibm.fhir.persistence.exception.FHIRPersistenceException [[FHIRPersistenceException.html]]

    com.ibm.fhir.persistence.exception.FHIRPersistenceException <|- - com.ibm.fhir.persistence.exception.FHIRPersistenceVersionIdMismatchException

    center footer UMLDoclet 2.0.7, PlantUML 1.2019.12
@enduml

PlantUML version 1.2019.12(Sun Nov 03 10:24:54 UTC 2019)
(APACHE source distribution)
Java Runtime: OpenJDK Runtime Environment
JVM: OpenJDK 64-Bit Server VM
Java Version: 11.0.6+10
Operating System: Linux
Default Encoding: UTF-8
Language: en
Country: null
--></g></svg>