<?xml version="1.0" encoding="UTF-8" standalone="no"?><svg xmlns="http://www.w3.org/2000/svg" xmlns:xlink="http://www.w3.org/1999/xlink" contentScriptType="application/ecmascript" contentStyleType="text/css" height="224px" preserveAspectRatio="none" style="width:261px;height:224px;" version="1.1" viewBox="0 0 261 224" width="261px" zoomAndPan="magnify"><defs><filter height="300%" id="f1l3z84mfx182x" width="300%" x="-1" y="-1"><feGaussianBlur result="blurOut" stdDeviation="2.0"/><feColorMatrix in="blurOut" result="blurOut2" type="matrix" values="0 0 0 0 0 0 0 0 0 0 0 0 0 0 0 0 0 0 .4 0"/><feOffset dx="4.0" dy="4.0" in="blurOut2" result="blurOut3"/><feBlend in="SourceGraphic" in2="blurOut3" mode="normal"/></filter></defs><g><!--class com.ibm.fhir.database.utils.model.RowTypeBuilder--><a href="RowTypeBuilder.html" target="_top" xlink:actuate="onRequest" xlink:show="new" xlink:title="RowTypeBuilder.html" xlink:type="simple"><rect fill="#FEFECE" filter="url(#f1l3z84mfx182x)" height="85.1309" id="com.ibm.fhir.database.utils.model.RowTypeBuilder" style="stroke: #A80036; stroke-width: 1.5;" width="244" x="6" y="106"/><ellipse cx="41.7" cy="125.1328" fill="#ADD1B2" rx="11" ry="11" style="stroke: #A80036; stroke-width: 1.0;"/><path d="M44.1731,131.2759 Q43.5921,131.5747 42.9529,131.7241 Q42.3138,131.8735 41.6082,131.8735 Q39.1014,131.8735 37.7815,130.2217 Q36.4617,128.5698 36.4617,125.4487 Q36.4617,122.3193 37.7815,120.6675 Q39.1014,119.0156 41.6082,119.0156 Q42.3138,119.0156 42.9612,119.165 Q43.6087,119.3145 44.1731,119.6133 L44.1731,122.3359 Q43.5423,121.7549 42.9488,121.4851 Q42.3553,121.2153 41.7244,121.2153 Q40.3797,121.2153 39.6949,122.282 Q39.0101,123.3486 39.0101,125.4487 Q39.0101,127.5405 39.6949,128.6072 Q40.3797,129.6738 41.7244,129.6738 Q42.3553,129.6738 42.9488,129.4041 Q43.5423,129.1343 44.1731,128.5532 Z "/><text fill="#000000" font-family="sans-serif" font-size="14" lengthAdjust="spacingAndGlyphs" textLength="110" x="88.3" y="124.5352">RowTypeBuilder</text><text fill="#000000" font-family="sans-serif" font-size="10" lengthAdjust="spacingAndGlyphs" textLength="166" x="60.3" y="137.1563">com.ibm.fhir.database.utils.model</text><line style="stroke: #A80036; stroke-width: 1.5;" x1="7" x2="249" y1="144.2656" y2="144.2656"/><ellipse cx="17" cy="156.2432" fill="#84BE84" rx="3" ry="3" style="stroke: #038048; stroke-width: 1.0;"/><text fill="#000000" font-family="sans-serif" font-size="11" lengthAdjust="spacingAndGlyphs" textLength="218" x="26" y="158.9004">setSchemaName(String): RowTypeBuilder</text><ellipse cx="17" cy="169.1982" fill="#84BE84" rx="3" ry="3" style="stroke: #038048; stroke-width: 1.0;"/><text fill="#000000" font-family="sans-serif" font-size="11" lengthAdjust="spacingAndGlyphs" textLength="203" x="26" y="171.8555">setTypeName(String): RowTypeBuilder</text><ellipse cx="17" cy="182.1533" fill="#84BE84" rx="3" ry="3" style="stroke: #038048; stroke-width: 1.0;"/><text fill="#000000" font-family="sans-serif" font-size="11" lengthAdjust="spacingAndGlyphs" textLength="89" x="26" y="184.8105">build(): RowType</text></a><!--class com.ibm.fhir.database.utils.model.ColumnDefBuilder--><a href="ColumnDefBuilder.html" target="_top" xlink:actuate="onRequest" xlink:show="new" xlink:title="ColumnDefBuilder.html" xlink:type="simple"><rect fill="#FEFECE" filter="url(#f1l3z84mfx182x)" height="38.2656" id="com.ibm.fhir.database.utils.model.ColumnDefBuilder" style="stroke: #A80036; stroke-width: 1.5;" width="198" x="29" y="8"/><ellipse cx="44" cy="27.1328" fill="#ADD1B2" rx="11" ry="11" style="stroke: #A80036; stroke-width: 1.0;"/><path d="M46.4731,33.2759 Q45.8921,33.5747 45.2529,33.7241 Q44.6138,33.8735 43.9082,33.8735 Q41.4014,33.8735 40.0815,32.2217 Q38.7617,30.5698 38.7617,27.4487 Q38.7617,24.3193 40.0815,22.6675 Q41.4014,21.0156 43.9082,21.0156 Q44.6138,21.0156 45.2612,21.165 Q45.9087,21.3145 46.4731,21.6133 L46.4731,24.3359 Q45.8423,23.7549 45.2488,23.4851 Q44.6553,23.2153 44.0244,23.2153 Q42.6797,23.2153 41.9949,24.282 Q41.3101,25.3486 41.3101,27.4487 Q41.3101,29.5405 41.9949,30.6072 Q42.6797,31.6738 44.0244,31.6738 Q44.6553,31.6738 45.2488,31.4041 Q45.8423,31.1343 46.4731,30.5532 Z "/><text fill="#000000" font-family="sans-serif" font-size="14" lengthAdjust="spacingAndGlyphs" textLength="125" x="78.5" y="26.5352">ColumnDefBuilder</text><text fill="#000000" font-family="sans-serif" font-size="10" lengthAdjust="spacingAndGlyphs" textLength="166" x="58" y="39.1563">com.ibm.fhir.database.utils.model</text></a><!--link com.ibm.fhir.database.utils.model.ColumnDefBuilder to com.ibm.fhir.database.utils.model.RowTypeBuilder--><path d="M128,66.3291 C128,78.9819 128,93.0566 128,105.9312 " fill="none" id="com.ibm.fhir.database.utils.model.ColumnDefBuilder-com.ibm.fhir.database.utils.model.RowTypeBuilder" style="stroke: #A80036; stroke-width: 1.0;"/><polygon fill="none" points="121.0001,66.2521,128,46.252,135.0001,66.252,121.0001,66.2521" style="stroke: #A80036; stroke-width: 1.0;"/><text fill="#888888" font-family="sans-serif" font-size="10" lengthAdjust="spacingAndGlyphs" textLength="182" x="43" y="210.668">UMLDoclet 2.0.5, PlantUML 1.2019.08</text><!--
@startuml
    set namespaceSeparator none
    hide empty fields
    hide empty methods

    class "<size:14>RowTypeBuilder\n<size:10>com.ibm.fhir.database.utils.model" as com.ibm.fhir.database.utils.model.RowTypeBuilder [[RowTypeBuilder.html]] {
        +setSchemaName(String): RowTypeBuilder
        +setTypeName(String): RowTypeBuilder
        +build(): RowType
    }

    class "<size:14>ColumnDefBuilder\n<size:10>com.ibm.fhir.database.utils.model" as com.ibm.fhir.database.utils.model.ColumnDefBuilder [[ColumnDefBuilder.html]]

    com.ibm.fhir.database.utils.model.ColumnDefBuilder <|- - com.ibm.fhir.database.utils.model.RowTypeBuilder

    center footer UMLDoclet 2.0.5, PlantUML 1.2019.08
@enduml

PlantUML version 1.2019.08(Sat Jul 13 15:25:14 EDT 2019)
(APACHE source distribution)
Java Runtime: OpenJDK Runtime Environment
JVM: OpenJDK 64-Bit Server VM
Java Version: 11.0.4+11
Operating System: Mac OS X
OS Version: 10.14.6
Default Encoding: UTF-8
Language: en
Country: US
--></g></svg>