<?xml version="1.0" encoding="UTF-8" standalone="no"?><svg xmlns="http://www.w3.org/2000/svg" xmlns:xlink="http://www.w3.org/1999/xlink" contentScriptType="application/ecmascript" contentStyleType="text/css" height="269px" preserveAspectRatio="none" style="width:376px;height:269px;" version="1.1" viewBox="0 0 376 269" width="376px" zoomAndPan="magnify"><defs><filter height="300%" id="fqhc56we30gef" width="300%" x="-1" y="-1"><feGaussianBlur result="blurOut" stdDeviation="2.0"/><feColorMatrix in="blurOut" result="blurOut2" type="matrix" values="0 0 0 0 0 0 0 0 0 0 0 0 0 0 0 0 0 0 .4 0"/><feOffset dx="4.0" dy="4.0" in="blurOut2" result="blurOut3"/><feBlend in="SourceGraphic" in2="blurOut3" mode="normal"/></filter></defs><g><!--MD5=[44238d50007ec0df46574e64d712a6bb]
class com.ibm.fhir.smart.Scope--><a href="Scope.html" target="_top" title="Scope.html" xlink:actuate="onRequest" xlink:href="Scope.html" xlink:show="new" xlink:title="Scope.html" xlink:type="simple"><rect fill="#FEFECE" filter="url(#fqhc56we30gef)" height="130.7656" id="com.ibm.fhir.smart.Scope" style="stroke: #A80036; stroke-width: 1.5;" width="269" x="53.5" y="8"/><ellipse cx="137.25" cy="26.9688" fill="#ADD1B2" rx="11" ry="11" style="stroke: #A80036; stroke-width: 1.0;"/><path d="M140.2188,32.6094 Q139.6406,32.9063 139,33.0469 Q138.3594,33.2031 137.6563,33.2031 Q135.1563,33.2031 133.8281,31.5625 Q132.5156,29.9063 132.5156,26.7813 Q132.5156,23.6563 133.8281,22 Q135.1563,20.3438 137.6563,20.3438 Q138.3594,20.3438 139,20.5 Q139.6563,20.6563 140.2188,20.9531 L140.2188,23.6719 Q139.5938,23.0938 139,22.8281 Q138.4063,22.5469 137.7813,22.5469 Q136.4375,22.5469 135.75,23.625 Q135.0625,24.6875 135.0625,26.7813 Q135.0625,28.875 135.75,29.9531 Q136.4375,31.0156 137.7813,31.0156 Q138.4063,31.0156 139,30.75 Q139.5938,30.4688 140.2188,29.8906 L140.2188,32.6094 Z "/><text fill="#000000" font-family="sans-serif" font-size="14" lengthAdjust="spacingAndGlyphs" textLength="44" x="182.25" y="25.9951">Scope</text><text fill="#000000" font-family="sans-serif" font-size="10" lengthAdjust="spacingAndGlyphs" textLength="93" x="157.75" y="38.5791">com.ibm.fhir.smart</text><line style="stroke: #A80036; stroke-width: 1.5;" x1="54.5" x2="321.5" y1="45.9375" y2="45.9375"/><ellipse cx="64.5" cy="56.9375" fill="none" rx="3" ry="3" style="stroke: #038048; stroke-width: 1.0;"/><text fill="#000000" font-family="sans-serif" font-size="11" lengthAdjust="spacingAndGlyphs" text-decoration="underline" textLength="172" x="73.5" y="60.1479">SCOPE_STRING_REGEX: String</text><line style="stroke: #A80036; stroke-width: 1.5;" x1="54.5" x2="321.5" y1="66.7422" y2="66.7422"/><ellipse cx="64.5" cy="77.7422" fill="#84BE84" rx="3" ry="3" style="stroke: #038048; stroke-width: 1.0;"/><text fill="#000000" font-family="sans-serif" font-size="11" lengthAdjust="spacingAndGlyphs" textLength="77" x="73.5" y="80.9526">Scope(String)</text><ellipse cx="64.5" cy="90.5469" fill="#84BE84" rx="3" ry="3" style="stroke: #038048; stroke-width: 1.0;"/><text fill="#000000" font-family="sans-serif" font-size="11" lengthAdjust="spacingAndGlyphs" textLength="243" x="73.5" y="93.7573">Scope(ContextType, ValueSet, Permission)</text><ellipse cx="64.5" cy="103.3516" fill="#84BE84" rx="3" ry="3" style="stroke: #038048; stroke-width: 1.0;"/><text fill="#000000" font-family="sans-serif" font-size="11" lengthAdjust="spacingAndGlyphs" textLength="174" x="73.5" y="106.562">getContextType(): ContextType</text><ellipse cx="64.5" cy="116.1563" fill="#84BE84" rx="3" ry="3" style="stroke: #038048; stroke-width: 1.0;"/><text fill="#000000" font-family="sans-serif" font-size="11" lengthAdjust="spacingAndGlyphs" textLength="164" x="73.5" y="119.3667">getResourceType(): ValueSet</text><ellipse cx="64.5" cy="128.9609" fill="#84BE84" rx="3" ry="3" style="stroke: #038048; stroke-width: 1.0;"/><text fill="#000000" font-family="sans-serif" font-size="11" lengthAdjust="spacingAndGlyphs" textLength="162" x="73.5" y="132.1714">getPermission(): Permission</text></a><!--MD5=[56aa21b8b4fa4b7493dcc5412ccc0978]
class com.ibm.fhir.smart.Scope.ContextType--><a href="Scope.ContextType.html" target="_top" title="Scope.ContextType.html" xlink:actuate="onRequest" xlink:href="Scope.ContextType.html" xlink:show="new" xlink:title="Scope.ContextType.html" xlink:type="simple"><rect fill="#FEFECE" filter="url(#fqhc56we30gef)" height="37.9375" id="com.ibm.fhir.smart.Scope.ContextType" style="stroke: #A80036; stroke-width: 1.5;" width="168" x="6" y="199"/><ellipse cx="21" cy="217.9688" fill="#EB937F" rx="11" ry="11" style="stroke: #A80036; stroke-width: 1.0;"/><path d="M25.1094,223.9688 L17.3906,223.9688 L17.3906,211.5781 L25.1094,211.5781 L25.1094,213.7344 L19.8438,213.7344 L19.8438,216.4063 L24.6094,216.4063 L24.6094,218.5625 L19.8438,218.5625 L19.8438,221.8125 L25.1094,221.8125 L25.1094,223.9688 Z "/><text fill="#000000" font-family="sans-serif" font-size="14" lengthAdjust="spacingAndGlyphs" textLength="136" x="35" y="216.9951">Scope.ContextType</text><text fill="#000000" font-family="sans-serif" font-size="10" lengthAdjust="spacingAndGlyphs" textLength="93" x="56.5" y="229.5791">com.ibm.fhir.smart</text></a><!--MD5=[6d118bb7832278cd645cbae78a176c98]
class com.ibm.fhir.smart.Scope.Permission--><a href="Scope.Permission.html" target="_top" title="Scope.Permission.html" xlink:actuate="onRequest" xlink:href="Scope.Permission.html" xlink:show="new" xlink:title="Scope.Permission.html" xlink:type="simple"><rect fill="#FEFECE" filter="url(#fqhc56we30gef)" height="37.9375" id="com.ibm.fhir.smart.Scope.Permission" style="stroke: #A80036; stroke-width: 1.5;" width="156" x="209" y="199"/><ellipse cx="224" cy="217.9688" fill="#EB937F" rx="11" ry="11" style="stroke: #A80036; stroke-width: 1.0;"/><path d="M228.1094,223.9688 L220.3906,223.9688 L220.3906,211.5781 L228.1094,211.5781 L228.1094,213.7344 L222.8438,213.7344 L222.8438,216.4063 L227.6094,216.4063 L227.6094,218.5625 L222.8438,218.5625 L222.8438,221.8125 L228.1094,221.8125 L228.1094,223.9688 Z "/><text fill="#000000" font-family="sans-serif" font-size="14" lengthAdjust="spacingAndGlyphs" textLength="124" x="238" y="216.9951">Scope.Permission</text><text fill="#000000" font-family="sans-serif" font-size="10" lengthAdjust="spacingAndGlyphs" textLength="93" x="253.5" y="229.5791">com.ibm.fhir.smart</text></a><!--MD5=[f861da63962d555854ff1d7de78956e6]
reverse link com.ibm.fhir.smart.Scope to com.ibm.fhir.smart.Scope.ContextType--><path d="M134.8177,151.9168 C122.8963,169.4948 111.3075,186.5823 102.9015,198.9768 " fill="none" id="com.ibm.fhir.smart.Scope&lt;-com.ibm.fhir.smart.Scope.ContextType" style="stroke: #A80036; stroke-width: 1.0;"/><ellipse cx="138.8114" cy="146.0281" fill="#FFFFFF" rx="8" ry="8" style="stroke: #A80036; stroke-width: 1.0;"/><line style="stroke: #A80036; stroke-width: 1.0;" x1="134.321" x2="143.3017" y1="152.6491" y2="139.4072"/><line style="stroke: #A80036; stroke-width: 1.0;" x1="132.1904" x2="145.4323" y1="141.5378" y2="150.5185"/><!--MD5=[da825bdbcb69e771284b8dda994b5025]
reverse link com.ibm.fhir.smart.Scope to com.ibm.fhir.smart.Scope.Permission--><path d="M241.725,151.9168 C253.768,169.4948 265.4751,186.5823 273.9668,198.9768 " fill="none" id="com.ibm.fhir.smart.Scope&lt;-com.ibm.fhir.smart.Scope.Permission" style="stroke: #A80036; stroke-width: 1.0;"/><ellipse cx="237.6759" cy="146.0069" fill="#FFFFFF" rx="8" ry="8" style="stroke: #A80036; stroke-width: 1.0;"/><line style="stroke: #A80036; stroke-width: 1.0;" x1="242.1974" x2="233.1544" y1="152.6066" y2="139.4072"/><line style="stroke: #A80036; stroke-width: 1.0;" x1="231.0762" x2="244.2756" y1="150.5284" y2="141.4854"/><text fill="#888888" font-family="sans-serif" font-size="10" lengthAdjust="spacingAndGlyphs" textLength="186" x="98.5" y="256.2822">UMLDoclet 2.0.7, PlantUML 1.2019.12</text><!--MD5=[e528057aac9d99c5dd691a7bcc09d703]
@startuml
    set namespaceSeparator none
    hide empty fields
    hide empty methods

    class "<size:14>Scope\n<size:10>com.ibm.fhir.smart" as com.ibm.fhir.smart.Scope [[Scope.html]] {
        {static} +SCOPE_STRING_REGEX: String
        +Scope(String)
        +Scope(ContextType, ValueSet, Permission)
        +getContextType(): ContextType
        +getResourceType(): ValueSet
        +getPermission(): Permission
    }
    enum "<size:14>Scope.ContextType\n<size:10>com.ibm.fhir.smart" as com.ibm.fhir.smart.Scope.ContextType [[Scope.ContextType.html]]
    enum "<size:14>Scope.Permission\n<size:10>com.ibm.fhir.smart" as com.ibm.fhir.smart.Scope.Permission [[Scope.Permission.html]]

    com.ibm.fhir.smart.Scope +- - com.ibm.fhir.smart.Scope.ContextType
    com.ibm.fhir.smart.Scope +- - com.ibm.fhir.smart.Scope.Permission

    center footer UMLDoclet 2.0.7, PlantUML 1.2019.12
@enduml

PlantUML version 1.2019.12(Sun Nov 03 10:24:54 UTC 2019)
(APACHE source distribution)
Java Runtime: OpenJDK Runtime Environment
JVM: OpenJDK 64-Bit Server VM
Java Version: 11.0.8+10
Operating System: Linux
Default Encoding: UTF-8
Language: en
Country: null
--></g></svg>