<?xml version="1.0" encoding="UTF-8" standalone="no"?><svg xmlns="http://www.w3.org/2000/svg" xmlns:xlink="http://www.w3.org/1999/xlink" contentScriptType="application/ecmascript" contentStyleType="text/css" height="362px" preserveAspectRatio="none" style="width:939px;height:362px;" version="1.1" viewBox="0 0 939 362" width="939px" zoomAndPan="magnify"><defs><filter height="300%" id="f2sckmqmiu3g6" width="300%" x="-1" y="-1"><feGaussianBlur result="blurOut" stdDeviation="2.0"/><feColorMatrix in="blurOut" result="blurOut2" type="matrix" values="0 0 0 0 0 0 0 0 0 0 0 0 0 0 0 0 0 0 .4 0"/><feOffset dx="4.0" dy="4.0" in="blurOut2" result="blurOut3"/><feBlend in="SourceGraphic" in2="blurOut3" mode="normal"/></filter></defs><g><!--MD5=[205e2f829563d08afd4e745d890f877b]
cluster com.ibm.fhir.notification.websocket.impl--><polygon fill="#FFFFFF" filter="url(#f2sckmqmiu3g6)" points="21,137,347,137,354,159.2969,917,159.2969,917,322,21,322,21,137" style="stroke: #000000; stroke-width: 1.5;"/><line style="stroke: #000000; stroke-width: 1.5;" x1="21" x2="354" y1="159.2969" y2="159.2969"/><text fill="#000000" font-family="sans-serif" font-size="14" font-weight="bold" lengthAdjust="spacingAndGlyphs" textLength="320" x="25" y="151.9951">com.ibm.fhir.notification.websocket.impl</text><!--MD5=[b7517faf516e24fdea912af9533a9479]
cluster com.ibm.fhir.notification--><polygon fill="#FFFFFF" filter="url(#f2sckmqmiu3g6)" points="14,16,211,16,218,38.2969,244,38.2969,244,112,14,112,14,16" style="stroke: #000000; stroke-width: 1.5;"/><line style="stroke: #000000; stroke-width: 1.5;" x1="14" x2="218" y1="38.2969" y2="38.2969"/><text fill="#000000" font-family="sans-serif" font-size="14" font-weight="bold" lengthAdjust="spacingAndGlyphs" textLength="191" x="18" y="30.9951">com.ibm.fhir.notification</text><!--MD5=[c7faaf9a784620924ad198d3282cdecd]
cluster javax.websocket--><polygon fill="#FFFFFF" filter="url(#f2sckmqmiu3g6)" points="263,16,401,16,408,38.2969,634,38.2969,634,112,263,112,263,16" style="stroke: #000000; stroke-width: 1.5;"/><line style="stroke: #000000; stroke-width: 1.5;" x1="263" x2="408" y1="38.2969" y2="38.2969"/><text fill="#000000" font-family="sans-serif" font-size="14" font-weight="bold" lengthAdjust="spacingAndGlyphs" textLength="132" x="267" y="30.9951">javax.websocket</text><!--MD5=[04fc853e7399147243fd87b2dc53ab3e]
class com.ibm.fhir.notification.websocket.impl.FHIRNotificationServiceEndpointConfig--><a href="FHIRNotificationServiceEndpointConfig.html" target="_top" title="FHIRNotificationServiceEndpointConfig.html" xlink:actuate="onRequest" xlink:href="FHIRNotificationServiceEndpointConfig.html" xlink:show="new" xlink:title="FHIRNotificationServiceEndpointConfig.html" xlink:type="simple"><rect fill="#FEFECE" filter="url(#f2sckmqmiu3g6)" height="150.4375" id="com.ibm.fhir.notification.websocket.impl.FHIRNotificationServiceEndpointConfig" style="stroke: #A80036; stroke-width: 1.5;" width="308" x="601" y="164"/><ellipse cx="633.1" cy="180" fill="#ADD1B2" rx="11" ry="11" style="stroke: #A80036; stroke-width: 1.0;"/><path d="M636.0688,185.6406 Q635.4906,185.9375 634.85,186.0781 Q634.2094,186.2344 633.5063,186.2344 Q631.0063,186.2344 629.6781,184.5938 Q628.3656,182.9375 628.3656,179.8125 Q628.3656,176.6875 629.6781,175.0313 Q631.0063,173.375 633.5063,173.375 Q634.2094,173.375 634.85,173.5313 Q635.5063,173.6875 636.0688,173.9844 L636.0688,176.7031 Q635.4438,176.125 634.85,175.8594 Q634.2563,175.5781 633.6313,175.5781 Q632.2875,175.5781 631.6,176.6563 Q630.9125,177.7188 630.9125,179.8125 Q630.9125,181.9063 631.6,182.9844 Q632.2875,184.0469 633.6313,184.0469 Q634.2563,184.0469 634.85,183.7813 Q635.4438,183.5 636.0688,182.9219 L636.0688,185.6406 Z "/><text fill="#000000" font-family="sans-serif" font-size="12" lengthAdjust="spacingAndGlyphs" textLength="238" x="650.9" y="184.1543">FHIRNotificationServiceEndpointConfig</text><line style="stroke: #A80036; stroke-width: 1.5;" x1="602" x2="908" y1="196" y2="196"/><line style="stroke: #A80036; stroke-width: 1.5;" x1="602" x2="908" y1="204" y2="204"/><ellipse cx="612" cy="215" fill="#84BE84" rx="3" ry="3" style="stroke: #038048; stroke-width: 1.0;"/><text fill="#000000" font-family="sans-serif" font-size="11" lengthAdjust="spacingAndGlyphs" textLength="280" x="621" y="218.2104">getEncoders(): List&lt;Class&lt;? extends Encoder&gt;&gt;</text><ellipse cx="612" cy="227.8047" fill="#84BE84" rx="3" ry="3" style="stroke: #038048; stroke-width: 1.0;"/><text fill="#000000" font-family="sans-serif" font-size="11" lengthAdjust="spacingAndGlyphs" textLength="282" x="621" y="231.0151">getDecoders(): List&lt;Class&lt;? extends Decoder&gt;&gt;</text><ellipse cx="612" cy="240.6094" fill="#84BE84" rx="3" ry="3" style="stroke: #038048; stroke-width: 1.0;"/><text fill="#000000" font-family="sans-serif" font-size="11" lengthAdjust="spacingAndGlyphs" textLength="239" x="621" y="243.8198">getUserProperties(): Map&lt;String, Object&gt;</text><ellipse cx="612" cy="253.4141" fill="#84BE84" rx="3" ry="3" style="stroke: #038048; stroke-width: 1.0;"/><text fill="#000000" font-family="sans-serif" font-size="11" lengthAdjust="spacingAndGlyphs" textLength="171" x="621" y="256.6245">getEndpointClass(): Class&lt;?&gt;</text><ellipse cx="612" cy="266.2188" fill="#84BE84" rx="3" ry="3" style="stroke: #038048; stroke-width: 1.0;"/><text fill="#000000" font-family="sans-serif" font-size="11" lengthAdjust="spacingAndGlyphs" textLength="93" x="621" y="269.4292">getPath(): String</text><ellipse cx="612" cy="279.0234" fill="#84BE84" rx="3" ry="3" style="stroke: #038048; stroke-width: 1.0;"/><text fill="#000000" font-family="sans-serif" font-size="11" lengthAdjust="spacingAndGlyphs" textLength="181" x="621" y="282.2339">getSubprotocols(): List&lt;String&gt;</text><ellipse cx="612" cy="291.8281" fill="#84BE84" rx="3" ry="3" style="stroke: #038048; stroke-width: 1.0;"/><text fill="#000000" font-family="sans-serif" font-size="11" lengthAdjust="spacingAndGlyphs" textLength="189" x="621" y="295.0386">getExtensions(): List&lt;Extension&gt;</text><ellipse cx="612" cy="304.6328" fill="#84BE84" rx="3" ry="3" style="stroke: #038048; stroke-width: 1.0;"/><text fill="#000000" font-family="sans-serif" font-size="11" lengthAdjust="spacingAndGlyphs" textLength="176" x="621" y="307.8433">getConfigurator(): Configurator</text></a><!--MD5=[817c13af309ea073a0f551e21ddbfca2]
class com.ibm.fhir.notification.websocket.impl.FHIRNotificationSubscriberImpl--><a href="FHIRNotificationSubscriberImpl.html" target="_top" title="FHIRNotificationSubscriberImpl.html" xlink:actuate="onRequest" xlink:href="FHIRNotificationSubscriberImpl.html" xlink:show="new" xlink:title="FHIRNotificationSubscriberImpl.html" xlink:type="simple"><rect fill="#FEFECE" filter="url(#f2sckmqmiu3g6)" height="73.6094" id="com.ibm.fhir.notification.websocket.impl.FHIRNotificationSubscriberImpl" style="stroke: #A80036; stroke-width: 1.5;" width="253" x="29.5" y="202"/><ellipse cx="58.45" cy="218" fill="#ADD1B2" rx="11" ry="11" style="stroke: #A80036; stroke-width: 1.0;"/><path d="M61.4188,223.6406 Q60.8406,223.9375 60.2,224.0781 Q59.5594,224.2344 58.8563,224.2344 Q56.3563,224.2344 55.0281,222.5938 Q53.7156,220.9375 53.7156,217.8125 Q53.7156,214.6875 55.0281,213.0313 Q56.3563,211.375 58.8563,211.375 Q59.5594,211.375 60.2,211.5313 Q60.8563,211.6875 61.4188,211.9844 L61.4188,214.7031 Q60.7938,214.125 60.2,213.8594 Q59.6063,213.5781 58.9813,213.5781 Q57.6375,213.5781 56.95,214.6563 Q56.2625,215.7188 56.2625,217.8125 Q56.2625,219.9063 56.95,220.9844 Q57.6375,222.0469 58.9813,222.0469 Q59.6063,222.0469 60.2,221.7813 Q60.7938,221.5 61.4188,220.9219 L61.4188,223.6406 Z "/><text fill="#000000" font-family="sans-serif" font-size="12" lengthAdjust="spacingAndGlyphs" textLength="190" x="75.55" y="222.1543">FHIRNotificationSubscriberImpl</text><line style="stroke: #A80036; stroke-width: 1.5;" x1="30.5" x2="281.5" y1="234" y2="234"/><line style="stroke: #A80036; stroke-width: 1.5;" x1="30.5" x2="281.5" y1="242" y2="242"/><ellipse cx="40.5" cy="253" fill="#84BE84" rx="3" ry="3" style="stroke: #038048; stroke-width: 1.0;"/><text fill="#000000" font-family="sans-serif" font-size="11" lengthAdjust="spacingAndGlyphs" textLength="227" x="49.5" y="256.2104">FHIRNotificationSubscriberImpl(Session)</text><ellipse cx="40.5" cy="265.8047" fill="#84BE84" rx="3" ry="3" style="stroke: #038048; stroke-width: 1.0;"/><text fill="#000000" font-family="sans-serif" font-size="11" lengthAdjust="spacingAndGlyphs" textLength="188" x="49.5" y="269.0151">notify(FHIRNotificationEvent): void</text></a><!--MD5=[7d4abc70c613a54914236024e4671fcc]
class com.ibm.fhir.notification.websocket.impl.FHIRNotificationServiceEndpoint--><a href="FHIRNotificationServiceEndpoint.html" target="_top" title="FHIRNotificationServiceEndpoint.html" xlink:actuate="onRequest" xlink:href="FHIRNotificationServiceEndpoint.html" xlink:show="new" xlink:title="FHIRNotificationServiceEndpoint.html" xlink:type="simple"><rect fill="#FEFECE" filter="url(#f2sckmqmiu3g6)" height="86.4141" id="com.ibm.fhir.notification.websocket.impl.FHIRNotificationServiceEndpoint" style="stroke: #A80036; stroke-width: 1.5;" width="248" x="318" y="196"/><ellipse cx="340.65" cy="212" fill="#ADD1B2" rx="11" ry="11" style="stroke: #A80036; stroke-width: 1.0;"/><path d="M343.6188,217.6406 Q343.0406,217.9375 342.4,218.0781 Q341.7594,218.2344 341.0563,218.2344 Q338.5563,218.2344 337.2281,216.5938 Q335.9156,214.9375 335.9156,211.8125 Q335.9156,208.6875 337.2281,207.0313 Q338.5563,205.375 341.0563,205.375 Q341.7594,205.375 342.4,205.5313 Q343.0563,205.6875 343.6188,205.9844 L343.6188,208.7031 Q342.9938,208.125 342.4,207.8594 Q341.8063,207.5781 341.1813,207.5781 Q339.8375,207.5781 339.15,208.6563 Q338.4625,209.7188 338.4625,211.8125 Q338.4625,213.9063 339.15,214.9844 Q339.8375,216.0469 341.1813,216.0469 Q341.8063,216.0469 342.4,215.7813 Q342.9938,215.5 343.6188,214.9219 L343.6188,217.6406 Z "/><text fill="#000000" font-family="sans-serif" font-size="12" lengthAdjust="spacingAndGlyphs" textLength="199" x="356.35" y="216.1543">FHIRNotificationServiceEndpoint</text><line style="stroke: #A80036; stroke-width: 1.5;" x1="319" x2="565" y1="228" y2="228"/><line style="stroke: #A80036; stroke-width: 1.5;" x1="319" x2="565" y1="236" y2="236"/><ellipse cx="329" cy="247" fill="#84BE84" rx="3" ry="3" style="stroke: #038048; stroke-width: 1.0;"/><text fill="#000000" font-family="sans-serif" font-size="11" lengthAdjust="spacingAndGlyphs" textLength="222" x="338" y="250.2104">onOpen(Session, EndpointConfig): void</text><ellipse cx="329" cy="259.8047" fill="#84BE84" rx="3" ry="3" style="stroke: #038048; stroke-width: 1.0;"/><text fill="#000000" font-family="sans-serif" font-size="11" lengthAdjust="spacingAndGlyphs" textLength="203" x="338" y="263.0151">onMessage(String, Session): String</text><ellipse cx="329" cy="272.6094" fill="#84BE84" rx="3" ry="3" style="stroke: #038048; stroke-width: 1.0;"/><text fill="#000000" font-family="sans-serif" font-size="11" lengthAdjust="spacingAndGlyphs" textLength="213" x="338" y="275.8198">onClose(Session, CloseReason): void</text></a><!--MD5=[2e5ad173f9550cc0bb85af14670d51fa]
class com.ibm.fhir.notification.FHIRNotificationSubscriber--><a href="../../FHIRNotificationSubscriber.html" target="_top" title="../../FHIRNotificationSubscriber.html" xlink:actuate="onRequest" xlink:href="../../FHIRNotificationSubscriber.html" xlink:show="new" xlink:title="../../FHIRNotificationSubscriber.html" xlink:type="simple"><rect fill="#FEFECE" filter="url(#f2sckmqmiu3g6)" height="60.8047" id="com.ibm.fhir.notification.FHIRNotificationSubscriber" style="stroke: #A80036; stroke-width: 1.5;" width="214" x="22" y="43"/><ellipse cx="44.65" cy="59" fill="#B4A7E5" rx="11" ry="11" style="stroke: #A80036; stroke-width: 1.0;"/><path d="M40.5719,54.7656 L40.5719,52.6094 L47.9625,52.6094 L47.9625,54.7656 L45.4938,54.7656 L45.4938,62.8438 L47.9625,62.8438 L47.9625,65 L40.5719,65 L40.5719,62.8438 L43.0406,62.8438 L43.0406,54.7656 L40.5719,54.7656 Z "/><text fill="#000000" font-family="sans-serif" font-size="12" font-style="italic" lengthAdjust="spacingAndGlyphs" textLength="165" x="60.35" y="63.1543">FHIRNotificationSubscriber</text><line style="stroke: #A80036; stroke-width: 1.5;" x1="23" x2="235" y1="75" y2="75"/><line style="stroke: #A80036; stroke-width: 1.5;" x1="23" x2="235" y1="83" y2="83"/><ellipse cx="33" cy="94" fill="#84BE84" rx="3" ry="3" style="stroke: #038048; stroke-width: 1.0;"/><text fill="#000000" font-family="sans-serif" font-size="11" font-style="italic" lengthAdjust="spacingAndGlyphs" textLength="188" x="42" y="97.2104">notify(FHIRNotificationEvent): void</text></a><!--MD5=[312aad695dee0d649cd605bba06fe8a8]
class javax.websocket.Endpoint--><rect fill="#FEFECE" filter="url(#f2sckmqmiu3g6)" height="60.8047" id="javax.websocket.Endpoint" style="stroke: #A80036; stroke-width: 1.5;" width="248" x="378" y="43"/><ellipse cx="469.75" cy="59" fill="#A9DCDF" rx="11" ry="11" style="stroke: #A80036; stroke-width: 1.0;"/><path d="M469.8594,54.3438 L468.7031,59.4219 L471.0313,59.4219 L469.8594,54.3438 Z M468.375,52.1094 L471.3594,52.1094 L474.7188,64.5 L472.2656,64.5 L471.5,61.4375 L468.2188,61.4375 L467.4688,64.5 L465.0313,64.5 L468.375,52.1094 Z "/><text fill="#000000" font-family="sans-serif" font-size="12" font-style="italic" lengthAdjust="spacingAndGlyphs" textLength="56" x="490.25" y="63.1543">Endpoint</text><line style="stroke: #A80036; stroke-width: 1.5;" x1="379" x2="625" y1="75" y2="75"/><line style="stroke: #A80036; stroke-width: 1.5;" x1="379" x2="625" y1="83" y2="83"/><ellipse cx="389" cy="94" fill="#84BE84" rx="3" ry="3" style="stroke: #038048; stroke-width: 1.0;"/><text fill="#000000" font-family="sans-serif" font-size="11" font-style="italic" lengthAdjust="spacingAndGlyphs" textLength="222" x="398" y="97.2104">onOpen(Session, EndpointConfig): void</text><polygon fill="#FFFFFF" filter="url(#f2sckmqmiu3g6)" points="271,47,329,47,336,69.2969,343,69.2969,343,99.5938,271,99.5938,271,47" style="stroke: #000000; stroke-width: 1.5;"/><line style="stroke: #000000; stroke-width: 1.5;" x1="271" x2="336" y1="69.2969" y2="69.2969"/><text fill="#000000" font-family="sans-serif" font-size="14" font-weight="bold" lengthAdjust="spacingAndGlyphs" textLength="52" x="275" y="61.9951">server</text><!--MD5=[9e248e0cb0629576cc744715f90745ab]
reverse link com.ibm.fhir.notification.FHIRNotificationSubscriber to com.ibm.fhir.notification.websocket.impl.FHIRNotificationSubscriberImpl--><path d="M137.2914,124.323 C141.3689,149.3169 146.1953,178.9006 149.9245,201.7595 " fill="none" id="com.ibm.fhir.notification.FHIRNotificationSubscriber&lt;-com.ibm.fhir.notification.websocket.impl.FHIRNotificationSubscriberImpl" style="stroke: #A80036; stroke-width: 1.0; stroke-dasharray: 7.0,7.0;"/><polygon fill="none" points="130.3269,125.1076,134.0152,104.2414,144.1442,122.8533,130.3269,125.1076" style="stroke: #A80036; stroke-width: 1.0;"/><!--MD5=[c49ad02ae5496a161497ae1d7473a0a8]
reverse link javax.websocket.Endpoint to com.ibm.fhir.notification.websocket.impl.FHIRNotificationServiceEndpoint--><path d="M483.9475,123.2949 C475.5557,146.4421 465.6732,173.7013 457.6089,195.9455 " fill="none" id="javax.websocket.Endpoint&lt;-com.ibm.fhir.notification.websocket.impl.FHIRNotificationServiceEndpoint" style="stroke: #A80036; stroke-width: 1.0;"/><polygon fill="none" points="477.4575,120.6581,490.8551,104.2414,490.6193,125.4298,477.4575,120.6581" style="stroke: #A80036; stroke-width: 1.0;"/><text fill="#888888" font-family="sans-serif" font-size="10" lengthAdjust="spacingAndGlyphs" textLength="186" x="378.5" y="349.2822">UMLDoclet 2.0.7, PlantUML 1.2019.12</text><!--MD5=[fcc653a99f8d9ebfb41332c1d85823a7]
@startuml
    namespace com.ibm.fhir.notification.websocket.impl {

        class FHIRNotificationServiceEndpointConfig [[FHIRNotificationServiceEndpointConfig.html]] {
            +getEncoders(): List<Class<? extends Encoder>>
            +getDecoders(): List<Class<? extends Decoder>>
            +getUserProperties(): Map<String, Object>
            +getEndpointClass(): Class<?>
            +getPath(): String
            +getSubprotocols(): List<String>
            +getExtensions(): List<Extension>
            +getConfigurator(): Configurator
        }

        class FHIRNotificationSubscriberImpl [[FHIRNotificationSubscriberImpl.html]] {
            +FHIRNotificationSubscriberImpl(Session)
            +notify(FHIRNotificationEvent): void
        }

        class FHIRNotificationServiceEndpoint [[FHIRNotificationServiceEndpoint.html]] {
            +onOpen(Session, EndpointConfig): void
            +onMessage(String, Session): String
            +onClose(Session, CloseReason): void
        }

        javax.websocket.server.ServerEndpointConfig <|.. FHIRNotificationServiceEndpointConfig
        com.ibm.fhir.notification.FHIRNotificationSubscriber <|.. FHIRNotificationSubscriberImpl
        javax.websocket.Endpoint <|- - FHIRNotificationServiceEndpoint
    }

    namespace javax.websocket.server {
        interface ServerEndpointConfig {
            {abstract} +getEndpointClass(): Class<?>
            {abstract} +getPath(): String
            {abstract} +getSubprotocols(): List<String>
            {abstract} +getExtensions(): List<Extension>
            {abstract} +getConfigurator(): Configurator
        }
    }

    namespace com.ibm.fhir.notification {
        interface FHIRNotificationSubscriber [[../../FHIRNotificationSubscriber.html]] {
            {abstract} +notify(FHIRNotificationEvent): void
        }
    }

    namespace javax.websocket {
        abstract class Endpoint {
            {abstract} +onOpen(Session, EndpointConfig): void
        }
    }

    center footer UMLDoclet 2.0.7, PlantUML 1.2019.12
@enduml

PlantUML version 1.2019.12(Sun Nov 03 10:24:54 UTC 2019)
(APACHE source distribution)
Java Runtime: OpenJDK Runtime Environment
JVM: OpenJDK 64-Bit Server VM
Java Version: 11.0.8+10
Operating System: Linux
Default Encoding: UTF-8
Language: en
Country: null
--></g></svg>