<?xml version="1.0" encoding="UTF-8" standalone="no"?><svg xmlns="http://www.w3.org/2000/svg" xmlns:xlink="http://www.w3.org/1999/xlink" contentScriptType="application/ecmascript" contentStyleType="text/css" height="263px" preserveAspectRatio="none" style="width:363px;height:263px;" version="1.1" viewBox="0 0 363 263" width="363px" zoomAndPan="magnify"><defs><filter height="300%" id="f1rndp2x3emuke" width="300%" x="-1" y="-1"><feGaussianBlur result="blurOut" stdDeviation="2.0"/><feColorMatrix in="blurOut" result="blurOut2" type="matrix" values="0 0 0 0 0 0 0 0 0 0 0 0 0 0 0 0 0 0 .4 0"/><feOffset dx="4.0" dy="4.0" in="blurOut2" result="blurOut3"/><feBlend in="SourceGraphic" in2="blurOut3" mode="normal"/></filter></defs><g><!--class com.ibm.fhir.model.path.FHIRPathParser.UnitContext--><a href="FHIRPathParser.UnitContext.html" target="_top" xlink:actuate="onRequest" xlink:show="new" xlink:title="FHIRPathParser.UnitContext.html" xlink:type="simple"><rect fill="#FEFECE" filter="url(#f1rndp2x3emuke)" height="123.9961" id="com.ibm.fhir.model.path.FHIRPathParser.UnitContext" style="stroke: #A80036; stroke-width: 1.5;" width="342" x="10" y="106"/><ellipse cx="81.25" cy="125.1328" fill="#ADD1B2" rx="11" ry="11" style="stroke: #A80036; stroke-width: 1.0;"/><path d="M83.7231,131.2759 Q83.1421,131.5747 82.5029,131.7241 Q81.8638,131.8735 81.1582,131.8735 Q78.6514,131.8735 77.3315,130.2217 Q76.0117,128.5698 76.0117,125.4487 Q76.0117,122.3193 77.3315,120.6675 Q78.6514,119.0156 81.1582,119.0156 Q81.8638,119.0156 82.5112,119.165 Q83.1587,119.3145 83.7231,119.6133 L83.7231,122.3359 Q83.0923,121.7549 82.4988,121.4851 Q81.9053,121.2153 81.2744,121.2153 Q79.9297,121.2153 79.2449,122.282 Q78.5601,123.3486 78.5601,125.4487 Q78.5601,127.5405 79.2449,128.6072 Q79.9297,129.6738 81.2744,129.6738 Q81.9053,129.6738 82.4988,129.4041 Q83.0923,129.1343 83.7231,128.5532 Z "/><text fill="#000000" font-family="sans-serif" font-size="14" lengthAdjust="spacingAndGlyphs" textLength="191" x="101.75" y="124.5352">FHIRPathParser.UnitContext</text><text fill="#000000" font-family="sans-serif" font-size="10" lengthAdjust="spacingAndGlyphs" textLength="119" x="137.75" y="137.1563">com.ibm.fhir.model.path</text><line style="stroke: #A80036; stroke-width: 1.5;" x1="11" x2="351" y1="144.2656" y2="144.2656"/><ellipse cx="21" cy="156.2432" fill="#84BE84" rx="3" ry="3" style="stroke: #038048; stroke-width: 1.0;"/><text fill="#000000" font-family="sans-serif" font-size="11" lengthAdjust="spacingAndGlyphs" textLength="193" x="30" y="158.9004">UnitContext(ParserRuleContext, int)</text><ellipse cx="21" cy="169.1982" fill="#84BE84" rx="3" ry="3" style="stroke: #038048; stroke-width: 1.0;"/><text fill="#000000" font-family="sans-serif" font-size="11" lengthAdjust="spacingAndGlyphs" textLength="254" x="30" y="171.8555">dateTimePrecision(): DateTimePrecisionContext</text><ellipse cx="21" cy="182.1533" fill="#84BE84" rx="3" ry="3" style="stroke: #038048; stroke-width: 1.0;"/><text fill="#000000" font-family="sans-serif" font-size="11" lengthAdjust="spacingAndGlyphs" textLength="316" x="30" y="184.8105">pluralDateTimePrecision(): PluralDateTimePrecisionContext</text><ellipse cx="21" cy="195.1084" fill="#84BE84" rx="3" ry="3" style="stroke: #038048; stroke-width: 1.0;"/><text fill="#000000" font-family="sans-serif" font-size="11" lengthAdjust="spacingAndGlyphs" textLength="128" x="30" y="197.7656">STRING(): TerminalNode</text><ellipse cx="21" cy="208.0635" fill="#84BE84" rx="3" ry="3" style="stroke: #038048; stroke-width: 1.0;"/><text fill="#000000" font-family="sans-serif" font-size="11" lengthAdjust="spacingAndGlyphs" textLength="98" x="30" y="210.7207">getRuleIndex(): int</text><ellipse cx="21" cy="221.0186" fill="#84BE84" rx="3" ry="3" style="stroke: #038048; stroke-width: 1.0;"/><text fill="#000000" font-family="sans-serif" font-size="11" lengthAdjust="spacingAndGlyphs" textLength="223" x="30" y="223.6758">accept(ParseTreeVisitor&lt;? extends T&gt;): T</text></a><!--class org.antlr.v4.runtime.ParserRuleContext--><rect fill="#FEFECE" filter="url(#f1rndp2x3emuke)" height="38.2656" id="org.antlr.v4.runtime.ParserRuleContext" style="stroke: #A80036; stroke-width: 1.5;" width="160" x="6" y="8"/><ellipse cx="21" cy="27.1328" fill="#ADD1B2" rx="11" ry="11" style="stroke: #A80036; stroke-width: 1.0;"/><path d="M23.4731,33.2759 Q22.8921,33.5747 22.2529,33.7241 Q21.6138,33.8735 20.9082,33.8735 Q18.4014,33.8735 17.0815,32.2217 Q15.7617,30.5698 15.7617,27.4487 Q15.7617,24.3193 17.0815,22.6675 Q18.4014,21.0156 20.9082,21.0156 Q21.6138,21.0156 22.2612,21.165 Q22.9087,21.3145 23.4731,21.6133 L23.4731,24.3359 Q22.8423,23.7549 22.2488,23.4851 Q21.6553,23.2153 21.0244,23.2153 Q19.6797,23.2153 18.9949,24.282 Q18.3101,25.3486 18.3101,27.4487 Q18.3101,29.5405 18.9949,30.6072 Q19.6797,31.6738 21.0244,31.6738 Q21.6553,31.6738 22.2488,31.4041 Q22.8423,31.1343 23.4731,30.5532 Z "/><text fill="#000000" font-family="sans-serif" font-size="14" lengthAdjust="spacingAndGlyphs" textLength="128" x="35" y="26.5352">ParserRuleContext</text><text fill="#000000" font-family="sans-serif" font-size="10" lengthAdjust="spacingAndGlyphs" textLength="97" x="50.5" y="39.1563">org.antlr.v4.runtime</text><!--class com.ibm.fhir.model.path.FHIRPathParser--><a href="FHIRPathParser.html" target="_top" xlink:actuate="onRequest" xlink:show="new" xlink:title="FHIRPathParser.html" xlink:type="simple"><rect fill="#FEFECE" filter="url(#f1rndp2x3emuke)" height="38.2656" id="com.ibm.fhir.model.path.FHIRPathParser" style="stroke: #A80036; stroke-width: 1.5;" width="151" x="201.5" y="8"/><ellipse cx="216.5" cy="27.1328" fill="#ADD1B2" rx="11" ry="11" style="stroke: #A80036; stroke-width: 1.0;"/><path d="M218.9731,33.2759 Q218.3921,33.5747 217.7529,33.7241 Q217.1138,33.8735 216.4082,33.8735 Q213.9014,33.8735 212.5815,32.2217 Q211.2617,30.5698 211.2617,27.4487 Q211.2617,24.3193 212.5815,22.6675 Q213.9014,21.0156 216.4082,21.0156 Q217.1138,21.0156 217.7612,21.165 Q218.4087,21.3145 218.9731,21.6133 L218.9731,24.3359 Q218.3423,23.7549 217.7488,23.4851 Q217.1553,23.2153 216.5244,23.2153 Q215.1797,23.2153 214.4949,24.282 Q213.8101,25.3486 213.8101,27.4487 Q213.8101,29.5405 214.4949,30.6072 Q215.1797,31.6738 216.5244,31.6738 Q217.1553,31.6738 217.7488,31.4041 Q218.3423,31.1343 218.9731,30.5532 Z "/><text fill="#000000" font-family="sans-serif" font-size="14" lengthAdjust="spacingAndGlyphs" textLength="104" x="238" y="26.5352">FHIRPathParser</text><text fill="#000000" font-family="sans-serif" font-size="10" lengthAdjust="spacingAndGlyphs" textLength="119" x="230.5" y="39.1563">com.ibm.fhir.model.path</text></a><!--link org.antlr.v4.runtime.ParserRuleContext to com.ibm.fhir.model.path.FHIRPathParser.UnitContext--><path d="M110.1634,62.8636 C118.999,75.9775 129.2681,91.219 139.1999,105.9598 " fill="none" id="org.antlr.v4.runtime.ParserRuleContext-com.ibm.fhir.model.path.FHIRPathParser.UnitContext" style="stroke: #A80036; stroke-width: 1.0;"/><polygon fill="none" points="104.1822,66.5138,98.8121,46.0159,115.7928,58.691,104.1822,66.5138" style="stroke: #A80036; stroke-width: 1.0;"/><!--link com.ibm.fhir.model.path.FHIRPathParser to com.ibm.fhir.model.path.FHIRPathParser.UnitContext--><path d="M255.6009,58.4299 C246.0436,72.4671 234.4301,89.5246 223.2401,105.9598 " fill="none" id="com.ibm.fhir.model.path.FHIRPathParser-com.ibm.fhir.model.path.FHIRPathParser.UnitContext" style="stroke: #A80036; stroke-width: 1.0;"/><ellipse cx="259.5506" cy="52.6287" fill="#FFFFFF" rx="8" ry="8" style="stroke: #A80036; stroke-width: 1.0;"/><line style="stroke: #A80036; stroke-width: 1.0;" x1="255.0483" x2="264.053" y1="59.2414" y2="46.0159"/><line style="stroke: #A80036; stroke-width: 1.0;" x1="252.9379" x2="266.1634" y1="48.1263" y2="57.131"/><text fill="#888888" font-family="sans-serif" font-size="10" lengthAdjust="spacingAndGlyphs" textLength="182" x="94.5" y="249.668">UMLDoclet 2.0.5, PlantUML 1.2019.08</text><!--
@startuml
    set namespaceSeparator none
    hide empty fields
    hide empty methods

    class "<size:14>FHIRPathParser.UnitContext\n<size:10>com.ibm.fhir.model.path" as com.ibm.fhir.model.path.FHIRPathParser.UnitContext [[FHIRPathParser.UnitContext.html]] {
        +UnitContext(ParserRuleContext, int)
        +dateTimePrecision(): DateTimePrecisionContext
        +pluralDateTimePrecision(): PluralDateTimePrecisionContext
        +STRING(): TerminalNode
        +getRuleIndex(): int
        +accept(ParseTreeVisitor<? extends T>): T
    }

    class "<size:14>ParserRuleContext\n<size:10>org.antlr.v4.runtime" as org.antlr.v4.runtime.ParserRuleContext
    class "<size:14>FHIRPathParser\n<size:10>com.ibm.fhir.model.path" as com.ibm.fhir.model.path.FHIRPathParser [[FHIRPathParser.html]]

    org.antlr.v4.runtime.ParserRuleContext <|- - com.ibm.fhir.model.path.FHIRPathParser.UnitContext
    com.ibm.fhir.model.path.FHIRPathParser +- - com.ibm.fhir.model.path.FHIRPathParser.UnitContext

    center footer UMLDoclet 2.0.5, PlantUML 1.2019.08
@enduml

PlantUML version 1.2019.08(Sat Jul 13 15:25:14 EDT 2019)
(APACHE source distribution)
Java Runtime: OpenJDK Runtime Environment
JVM: OpenJDK 64-Bit Server VM
Java Version: 11.0.4+11
Operating System: Mac OS X
OS Version: 10.14.6
Default Encoding: UTF-8
Language: en
Country: US
--></g></svg>