<?xml version="1.0" encoding="UTF-8" standalone="no"?><svg xmlns="http://www.w3.org/2000/svg" xmlns:xlink="http://www.w3.org/1999/xlink" contentScriptType="application/ecmascript" contentStyleType="text/css" height="405px" preserveAspectRatio="none" style="width:421px;height:405px;" version="1.1" viewBox="0 0 421 405" width="421px" zoomAndPan="magnify"><defs><filter height="300%" id="f1uhy0on3dfls2" width="300%" x="-1" y="-1"><feGaussianBlur result="blurOut" stdDeviation="2.0"/><feColorMatrix in="blurOut" result="blurOut2" type="matrix" values="0 0 0 0 0 0 0 0 0 0 0 0 0 0 0 0 0 0 .4 0"/><feOffset dx="4.0" dy="4.0" in="blurOut2" result="blurOut3"/><feBlend in="SourceGraphic" in2="blurOut3" mode="normal"/></filter></defs><g><!--MD5=[01afcd7d819c37c23d298c2c3de461f5]
class com.ibm.fhir.model.resource.EffectEvidenceSynthesis.ResultsByExposure--><a href="EffectEvidenceSynthesis.ResultsByExposure.html" target="_top" title="EffectEvidenceSynthesis.ResultsByExposure.html" xlink:actuate="onRequest" xlink:href="EffectEvidenceSynthesis.ResultsByExposure.html" xlink:show="new" xlink:title="EffectEvidenceSynthesis.ResultsByExposure.html" xlink:type="simple"><rect fill="#FEFECE" filter="url(#f1uhy0on3dfls2)" height="148.375" id="com.ibm.fhir.model.resource.EffectEvidenceSynthesis.ResultsByExposure" style="stroke: #A80036; stroke-width: 1.5;" width="339" x="32" y="127"/><ellipse cx="47" cy="145.9688" fill="#ADD1B2" rx="11" ry="11" style="stroke: #A80036; stroke-width: 1.0;"/><path d="M49.9688,151.6094 Q49.3906,151.9063 48.75,152.0469 Q48.1094,152.2031 47.4063,152.2031 Q44.9063,152.2031 43.5781,150.5625 Q42.2656,148.9063 42.2656,145.7813 Q42.2656,142.6563 43.5781,141 Q44.9063,139.3438 47.4063,139.3438 Q48.1094,139.3438 48.75,139.5 Q49.4063,139.6563 49.9688,139.9531 L49.9688,142.6719 Q49.3438,142.0938 48.75,141.8281 Q48.1563,141.5469 47.5313,141.5469 Q46.1875,141.5469 45.5,142.625 Q44.8125,143.6875 44.8125,145.7813 Q44.8125,147.875 45.5,148.9531 Q46.1875,150.0156 47.5313,150.0156 Q48.1563,150.0156 48.75,149.75 Q49.3438,149.4688 49.9688,148.8906 L49.9688,151.6094 Z "/><text fill="#000000" font-family="sans-serif" font-size="14" lengthAdjust="spacingAndGlyphs" textLength="307" x="61" y="144.9951">EffectEvidenceSynthesis.ResultsByExposure</text><text fill="#000000" font-family="sans-serif" font-size="10" lengthAdjust="spacingAndGlyphs" textLength="139" x="145" y="157.5791">com.ibm.fhir.model.resource</text><line style="stroke: #A80036; stroke-width: 1.5;" x1="33" x2="370" y1="164.9375" y2="164.9375"/><ellipse cx="43" cy="175.9375" fill="#84BE84" rx="3" ry="3" style="stroke: #038048; stroke-width: 1.0;"/><text fill="#000000" font-family="sans-serif" font-size="11" lengthAdjust="spacingAndGlyphs" textLength="132" x="52" y="179.1479">getDescription(): String</text><ellipse cx="43" cy="188.7422" fill="#84BE84" rx="3" ry="3" style="stroke: #038048; stroke-width: 1.0;"/><text fill="#000000" font-family="sans-serif" font-size="11" lengthAdjust="spacingAndGlyphs" textLength="200" x="52" y="191.9526">getExposureState(): ExposureState</text><ellipse cx="43" cy="201.5469" fill="#84BE84" rx="3" ry="3" style="stroke: #038048; stroke-width: 1.0;"/><text fill="#000000" font-family="sans-serif" font-size="11" lengthAdjust="spacingAndGlyphs" textLength="203" x="52" y="204.7573">getVariantState(): CodeableConcept</text><ellipse cx="43" cy="214.3516" fill="#84BE84" rx="3" ry="3" style="stroke: #038048; stroke-width: 1.0;"/><text fill="#000000" font-family="sans-serif" font-size="11" lengthAdjust="spacingAndGlyphs" textLength="220" x="52" y="217.562">getRiskEvidenceSynthesis(): Reference</text><ellipse cx="43" cy="227.1563" fill="#84BE84" rx="3" ry="3" style="stroke: #038048; stroke-width: 1.0;"/><text fill="#000000" font-family="sans-serif" font-size="11" lengthAdjust="spacingAndGlyphs" textLength="129" x="52" y="230.3667">hasChildren(): boolean</text><ellipse cx="43" cy="239.9609" fill="#84BE84" rx="3" ry="3" style="stroke: #038048; stroke-width: 1.0;"/><text fill="#000000" font-family="sans-serif" font-size="11" lengthAdjust="spacingAndGlyphs" textLength="176" x="52" y="243.1714">accept(String, int, Visitor): void</text><ellipse cx="43" cy="252.7656" fill="#84BE84" rx="3" ry="3" style="stroke: #038048; stroke-width: 1.0;"/><text fill="#000000" font-family="sans-serif" font-size="11" lengthAdjust="spacingAndGlyphs" textLength="107" x="52" y="255.9761">toBuilder(): Builder</text><ellipse cx="43" cy="265.5703" fill="#84BE84" rx="3" ry="3" style="stroke: #038048; stroke-width: 1.0;"/><text fill="#000000" font-family="sans-serif" font-size="11" lengthAdjust="spacingAndGlyphs" text-decoration="underline" textLength="95" x="52" y="268.7808">builder(): Builder</text></a><!--MD5=[efbff6997283c56b83e991a8eeb6a60a]
class com.ibm.fhir.model.type.BackboneElement--><a href="../type/BackboneElement.html" target="_top" title="../type/BackboneElement.html" xlink:actuate="onRequest" xlink:href="../type/BackboneElement.html" xlink:show="new" xlink:title="../type/BackboneElement.html" xlink:type="simple"><rect fill="#FEFECE" filter="url(#f1uhy0on3dfls2)" height="58.7422" id="com.ibm.fhir.model.type.BackboneElement" style="stroke: #A80036; stroke-width: 1.5;" width="159" x="15" y="8"/><ellipse cx="30" cy="26.9688" fill="#A9DCDF" rx="11" ry="11" style="stroke: #A80036; stroke-width: 1.0;"/><path d="M30.1094,22.3125 L28.9531,27.3906 L31.2813,27.3906 L30.1094,22.3125 Z M28.625,20.0781 L31.6094,20.0781 L34.9688,32.4688 L32.5156,32.4688 L31.75,29.4063 L28.4688,29.4063 L27.7188,32.4688 L25.2813,32.4688 L28.625,20.0781 Z "/><text fill="#000000" font-family="sans-serif" font-size="14" font-style="italic" lengthAdjust="spacingAndGlyphs" textLength="127" x="44" y="25.9951">BackboneElement</text><text fill="#000000" font-family="sans-serif" font-size="10" font-style="italic" lengthAdjust="spacingAndGlyphs" textLength="119" x="48" y="38.5791">com.ibm.fhir.model.type</text><line style="stroke: #A80036; stroke-width: 1.5;" x1="16" x2="173" y1="45.9375" y2="45.9375"/><ellipse cx="26" cy="56.9375" fill="#84BE84" rx="3" ry="3" style="stroke: #038048; stroke-width: 1.0;"/><text fill="#000000" font-family="sans-serif" font-size="11" font-style="italic" lengthAdjust="spacingAndGlyphs" textLength="107" x="35" y="60.1479">toBuilder(): Builder</text></a><!--MD5=[db64a6cccc5d6de3e7aeb26e232caaaf]
class com.ibm.fhir.model.resource.EffectEvidenceSynthesis--><a href="EffectEvidenceSynthesis.html" target="_top" title="EffectEvidenceSynthesis.html" xlink:actuate="onRequest" xlink:href="EffectEvidenceSynthesis.html" xlink:show="new" xlink:title="EffectEvidenceSynthesis.html" xlink:type="simple"><rect fill="#FEFECE" filter="url(#f1uhy0on3dfls2)" height="37.9375" id="com.ibm.fhir.model.resource.EffectEvidenceSynthesis" style="stroke: #A80036; stroke-width: 1.5;" width="201" x="209" y="18.5"/><ellipse cx="224" cy="37.4688" fill="#ADD1B2" rx="11" ry="11" style="stroke: #A80036; stroke-width: 1.0;"/><path d="M226.9688,43.1094 Q226.3906,43.4063 225.75,43.5469 Q225.1094,43.7031 224.4063,43.7031 Q221.9063,43.7031 220.5781,42.0625 Q219.2656,40.4063 219.2656,37.2813 Q219.2656,34.1563 220.5781,32.5 Q221.9063,30.8438 224.4063,30.8438 Q225.1094,30.8438 225.75,31 Q226.4063,31.1563 226.9688,31.4531 L226.9688,34.1719 Q226.3438,33.5938 225.75,33.3281 Q225.1563,33.0469 224.5313,33.0469 Q223.1875,33.0469 222.5,34.125 Q221.8125,35.1875 221.8125,37.2813 Q221.8125,39.375 222.5,40.4531 Q223.1875,41.5156 224.5313,41.5156 Q225.1563,41.5156 225.75,41.25 Q226.3438,40.9688 226.9688,40.3906 L226.9688,43.1094 Z "/><text fill="#000000" font-family="sans-serif" font-size="14" lengthAdjust="spacingAndGlyphs" textLength="169" x="238" y="36.4951">EffectEvidenceSynthesis</text><text fill="#000000" font-family="sans-serif" font-size="10" lengthAdjust="spacingAndGlyphs" textLength="139" x="253" y="49.0791">com.ibm.fhir.model.resource</text></a><!--MD5=[fea7ada5fbb68bb4a14aef2fc949e131]
class com.ibm.fhir.model.resource.EffectEvidenceSynthesis.ResultsByExposure.Builder--><a href="EffectEvidenceSynthesis.ResultsByExposure.Builder.html" target="_top" title="EffectEvidenceSynthesis.ResultsByExposure.Builder.html" xlink:actuate="onRequest" xlink:href="EffectEvidenceSynthesis.ResultsByExposure.Builder.html" xlink:show="new" xlink:title="EffectEvidenceSynthesis.ResultsByExposure.Builder.html" xlink:type="simple"><rect fill="#FEFECE" filter="url(#f1uhy0on3dfls2)" height="37.9375" id="com.ibm.fhir.model.resource.EffectEvidenceSynthesis.ResultsByExposure.Builder" style="stroke: #A80036; stroke-width: 1.5;" width="391" x="6" y="335"/><ellipse cx="21" cy="353.9688" fill="#ADD1B2" rx="11" ry="11" style="stroke: #A80036; stroke-width: 1.0;"/><path d="M23.9688,359.6094 Q23.3906,359.9063 22.75,360.0469 Q22.1094,360.2031 21.4063,360.2031 Q18.9063,360.2031 17.5781,358.5625 Q16.2656,356.9063 16.2656,353.7813 Q16.2656,350.6563 17.5781,349 Q18.9063,347.3438 21.4063,347.3438 Q22.1094,347.3438 22.75,347.5 Q23.4063,347.6563 23.9688,347.9531 L23.9688,350.6719 Q23.3438,350.0938 22.75,349.8281 Q22.1563,349.5469 21.5313,349.5469 Q20.1875,349.5469 19.5,350.625 Q18.8125,351.6875 18.8125,353.7813 Q18.8125,355.875 19.5,356.9531 Q20.1875,358.0156 21.5313,358.0156 Q22.1563,358.0156 22.75,357.75 Q23.3438,357.4688 23.9688,356.8906 L23.9688,359.6094 Z "/><text fill="#000000" font-family="sans-serif" font-size="14" lengthAdjust="spacingAndGlyphs" textLength="359" x="35" y="352.9951">EffectEvidenceSynthesis.ResultsByExposure.Builder</text><text fill="#000000" font-family="sans-serif" font-size="10" lengthAdjust="spacingAndGlyphs" textLength="139" x="145" y="365.5791">com.ibm.fhir.model.resource</text></a><!--MD5=[06910ff1b9d804f9caa55750314b3d31]
reverse link com.ibm.fhir.model.type.BackboneElement to com.ibm.fhir.model.resource.EffectEvidenceSynthesis.ResultsByExposure--><path d="M124.9999,84.105 C133.695,97.3915 143.3913,112.2077 152.881,126.7084 " fill="none" id="com.ibm.fhir.model.type.BackboneElement&lt;-com.ibm.fhir.model.resource.EffectEvidenceSynthesis.ResultsByExposure" style="stroke: #A80036; stroke-width: 1.0;"/><polygon fill="none" points="118.9716,87.6767,113.8769,67.1086,130.686,80.0103,118.9716,87.6767" style="stroke: #A80036; stroke-width: 1.0;"/><!--MD5=[9336d13f64d2243395c68d9715a41dda]
reverse link com.ibm.fhir.model.resource.EffectEvidenceSynthesis to com.ibm.fhir.model.resource.EffectEvidenceSynthesis.ResultsByExposure--><path d="M288.5122,69.2732 C277.6274,85.7516 263.8388,106.626 250.4656,126.8715 " fill="none" id="com.ibm.fhir.model.resource.EffectEvidenceSynthesis&lt;-com.ibm.fhir.model.resource.EffectEvidenceSynthesis.ResultsByExposure" style="stroke: #A80036; stroke-width: 1.0;"/><ellipse cx="292.4904" cy="63.2507" fill="#FFFFFF" rx="8" ry="8" style="stroke: #A80036; stroke-width: 1.0;"/><line style="stroke: #A80036; stroke-width: 1.0;" x1="288.0811" x2="296.8997" y1="69.9259" y2="56.5755"/><line style="stroke: #A80036; stroke-width: 1.0;" x1="285.8152" x2="299.1656" y1="58.8414" y2="67.66"/><!--MD5=[bce0c579cf6df43421bc73d173e669fc]
reverse link com.ibm.fhir.model.resource.EffectEvidenceSynthesis.ResultsByExposure to com.ibm.fhir.model.resource.EffectEvidenceSynthesis.ResultsByExposure.Builder--><path d="M201.5,290.4747 C201.5,307.253 201.5,323.1737 201.5,334.88 " fill="none" id="com.ibm.fhir.model.resource.EffectEvidenceSynthesis.ResultsByExposure&lt;-com.ibm.fhir.model.resource.EffectEvidenceSynthesis.ResultsByExposure.Builder" style="stroke: #A80036; stroke-width: 1.0;"/><ellipse cx="201.5001" cy="283.2591" fill="#FFFFFF" rx="8" ry="8" style="stroke: #A80036; stroke-width: 1.0;"/><line style="stroke: #A80036; stroke-width: 1.0;" x1="201.5002" x2="201.5" y1="291.2591" y2="275.2591"/><line style="stroke: #A80036; stroke-width: 1.0;" x1="193.5001" x2="209.5001" y1="283.2592" y2="283.259"/><text fill="#888888" font-family="sans-serif" font-size="10" lengthAdjust="spacingAndGlyphs" textLength="186" x="121" y="392.2822">UMLDoclet 2.0.7, PlantUML 1.2019.12</text><!--MD5=[fc69a614ed8d244947ec3fcec0a385e1]
@startuml
    set namespaceSeparator none
    hide empty fields
    hide empty methods

    class "<size:14>EffectEvidenceSynthesis.ResultsByExposure\n<size:10>com.ibm.fhir.model.resource" as com.ibm.fhir.model.resource.EffectEvidenceSynthesis.ResultsByExposure [[EffectEvidenceSynthesis.ResultsByExposure.html]] {
        +getDescription(): String
        +getExposureState(): ExposureState
        +getVariantState(): CodeableConcept
        +getRiskEvidenceSynthesis(): Reference
        +hasChildren(): boolean
        +accept(String, int, Visitor): void
        +toBuilder(): Builder
        {static} +builder(): Builder
    }

    abstract class "<size:14>BackboneElement\n<size:10>com.ibm.fhir.model.type" as com.ibm.fhir.model.type.BackboneElement [[../type/BackboneElement.html]] {
        {abstract} +toBuilder(): Builder
    }
    class "<size:14>EffectEvidenceSynthesis\n<size:10>com.ibm.fhir.model.resource" as com.ibm.fhir.model.resource.EffectEvidenceSynthesis [[EffectEvidenceSynthesis.html]]
    class "<size:14>EffectEvidenceSynthesis.ResultsByExposure.Builder\n<size:10>com.ibm.fhir.model.resource" as com.ibm.fhir.model.resource.EffectEvidenceSynthesis.ResultsByExposure.Builder [[EffectEvidenceSynthesis.ResultsByExposure.Builder.html]]

    com.ibm.fhir.model.type.BackboneElement <|- - com.ibm.fhir.model.resource.EffectEvidenceSynthesis.ResultsByExposure
    com.ibm.fhir.model.resource.EffectEvidenceSynthesis +- - com.ibm.fhir.model.resource.EffectEvidenceSynthesis.ResultsByExposure
    com.ibm.fhir.model.resource.EffectEvidenceSynthesis.ResultsByExposure +- - com.ibm.fhir.model.resource.EffectEvidenceSynthesis.ResultsByExposure.Builder

    center footer UMLDoclet 2.0.7, PlantUML 1.2019.12
@enduml

PlantUML version 1.2019.12(Sun Nov 03 10:24:54 UTC 2019)
(APACHE source distribution)
Java Runtime: OpenJDK Runtime Environment
JVM: OpenJDK 64-Bit Server VM
Java Version: 11.0.9.1+1
Operating System: Linux
Default Encoding: UTF-8
Language: en
Country: null
--></g></svg>