<?xml version="1.0" encoding="UTF-8" standalone="no"?><svg xmlns="http://www.w3.org/2000/svg" xmlns:xlink="http://www.w3.org/1999/xlink" contentScriptType="application/ecmascript" contentStyleType="text/css" height="210px" preserveAspectRatio="none" style="width:313px;height:210px;" version="1.1" viewBox="0 0 313 210" width="313px" zoomAndPan="magnify"><defs><filter height="300%" id="foprx9c4pdrrj" width="300%" x="-1" y="-1"><feGaussianBlur result="blurOut" stdDeviation="2.0"/><feColorMatrix in="blurOut" result="blurOut2" type="matrix" values="0 0 0 0 0 0 0 0 0 0 0 0 0 0 0 0 0 0 .4 0"/><feOffset dx="4.0" dy="4.0" in="blurOut2" result="blurOut3"/><feBlend in="SourceGraphic" in2="blurOut3" mode="normal"/></filter></defs><g><!--MD5=[589a51a219c3aa81c1fe7c96266be1cb]
class com.ibm.fhir.audit.cadf.model.CadfAttachment.Writer--><a href="CadfAttachment.Writer.html" target="_top" title="CadfAttachment.Writer.html" xlink:actuate="onRequest" xlink:href="CadfAttachment.Writer.html" xlink:show="new" xlink:title="CadfAttachment.Writer.html" xlink:type="simple"><rect fill="#FEFECE" filter="url(#foprx9c4pdrrj)" height="71.5469" id="com.ibm.fhir.audit.cadf.model.CadfAttachment.Writer" style="stroke: #A80036; stroke-width: 1.5;" width="296" x="6" y="106"/><ellipse cx="72.25" cy="124.9688" fill="#ADD1B2" rx="11" ry="11" style="stroke: #A80036; stroke-width: 1.0;"/><path d="M75.2188,130.6094 Q74.6406,130.9063 74,131.0469 Q73.3594,131.2031 72.6563,131.2031 Q70.1563,131.2031 68.8281,129.5625 Q67.5156,127.9063 67.5156,124.7813 Q67.5156,121.6563 68.8281,120 Q70.1563,118.3438 72.6563,118.3438 Q73.3594,118.3438 74,118.5 Q74.6563,118.6563 75.2188,118.9531 L75.2188,121.6719 Q74.5938,121.0938 74,120.8281 Q73.4063,120.5469 72.7813,120.5469 Q71.4375,120.5469 70.75,121.625 Q70.0625,122.6875 70.0625,124.7813 Q70.0625,126.875 70.75,127.9531 Q71.4375,129.0156 72.7813,129.0156 Q73.4063,129.0156 74,128.75 Q74.5938,128.4688 75.2188,127.8906 L75.2188,130.6094 Z "/><text fill="#000000" font-family="sans-serif" font-size="14" lengthAdjust="spacingAndGlyphs" textLength="155" x="92.75" y="123.9951">CadfAttachment.Writer</text><text fill="#000000" font-family="sans-serif" font-size="10" lengthAdjust="spacingAndGlyphs" textLength="145" x="97.75" y="136.5791">com.ibm.fhir.audit.cadf.model</text><line style="stroke: #A80036; stroke-width: 1.5;" x1="7" x2="301" y1="143.9375" y2="143.9375"/><ellipse cx="17" cy="154.9375" fill="#84BE84" rx="3" ry="3" style="stroke: #038048; stroke-width: 1.0;"/><text fill="#000000" font-family="sans-serif" font-size="11" lengthAdjust="spacingAndGlyphs" text-decoration="underline" textLength="191" x="26" y="158.1479">generate(CadfAttachment): String</text><ellipse cx="17" cy="167.7422" fill="#84BE84" rx="3" ry="3" style="stroke: #038048; stroke-width: 1.0;"/><text fill="#000000" font-family="sans-serif" font-size="11" lengthAdjust="spacingAndGlyphs" text-decoration="underline" textLength="270" x="26" y="170.9526">generate(CadfAttachment, JsonGenerator): void</text></a><!--MD5=[6762c027553cbcc6958b01843c62b8b4]
class com.ibm.fhir.audit.cadf.model.CadfAttachment--><a href="CadfAttachment.html" target="_top" title="CadfAttachment.html" xlink:actuate="onRequest" xlink:href="CadfAttachment.html" xlink:show="new" xlink:title="CadfAttachment.html" xlink:type="simple"><rect fill="#FEFECE" filter="url(#foprx9c4pdrrj)" height="37.9375" id="com.ibm.fhir.audit.cadf.model.CadfAttachment" style="stroke: #A80036; stroke-width: 1.5;" width="177" x="65.5" y="8"/><ellipse cx="80.5" cy="26.9688" fill="#ADD1B2" rx="11" ry="11" style="stroke: #A80036; stroke-width: 1.0;"/><path d="M83.4688,32.6094 Q82.8906,32.9063 82.25,33.0469 Q81.6094,33.2031 80.9063,33.2031 Q78.4063,33.2031 77.0781,31.5625 Q75.7656,29.9063 75.7656,26.7813 Q75.7656,23.6563 77.0781,22 Q78.4063,20.3438 80.9063,20.3438 Q81.6094,20.3438 82.25,20.5 Q82.9063,20.6563 83.4688,20.9531 L83.4688,23.6719 Q82.8438,23.0938 82.25,22.8281 Q81.6563,22.5469 81.0313,22.5469 Q79.6875,22.5469 79,23.625 Q78.3125,24.6875 78.3125,26.7813 Q78.3125,28.875 79,29.9531 Q79.6875,31.0156 81.0313,31.0156 Q81.6563,31.0156 82.25,30.75 Q82.8438,30.4688 83.4688,29.8906 L83.4688,32.6094 Z "/><text fill="#000000" font-family="sans-serif" font-size="14" lengthAdjust="spacingAndGlyphs" textLength="111" x="111.5" y="25.9951">CadfAttachment</text><text fill="#000000" font-family="sans-serif" font-size="10" lengthAdjust="spacingAndGlyphs" textLength="145" x="94.5" y="38.5791">com.ibm.fhir.audit.cadf.model</text></a><!--MD5=[cee3ea566f70332f2441df1c0bab6a1c]
reverse link com.ibm.fhir.audit.cadf.model.CadfAttachment to com.ibm.fhir.audit.cadf.model.CadfAttachment.Writer--><path d="M154,61.4665 C154,75.5047 154,91.7372 154,105.935 " fill="none" id="com.ibm.fhir.audit.cadf.model.CadfAttachment&lt;-com.ibm.fhir.audit.cadf.model.CadfAttachment.Writer" style="stroke: #A80036; stroke-width: 1.0;"/><ellipse cx="154" cy="54.2484" fill="#FFFFFF" rx="8" ry="8" style="stroke: #A80036; stroke-width: 1.0;"/><line style="stroke: #A80036; stroke-width: 1.0;" x1="154" x2="154" y1="62.2484" y2="46.2484"/><line style="stroke: #A80036; stroke-width: 1.0;" x1="146" x2="162" y1="54.2484" y2="54.2484"/><text fill="#888888" font-family="sans-serif" font-size="10" lengthAdjust="spacingAndGlyphs" textLength="186" x="67" y="197.2822">UMLDoclet 2.0.7, PlantUML 1.2019.12</text><!--MD5=[1afb879dc2a52671682ea9a91a2b9a71]
@startuml
    set namespaceSeparator none
    hide empty fields
    hide empty methods

    class "<size:14>CadfAttachment.Writer\n<size:10>com.ibm.fhir.audit.cadf.model" as com.ibm.fhir.audit.cadf.model.CadfAttachment.Writer [[CadfAttachment.Writer.html]] {
        {static} +generate(CadfAttachment): String
        {static} +generate(CadfAttachment, JsonGenerator): void
    }

    class "<size:14>CadfAttachment\n<size:10>com.ibm.fhir.audit.cadf.model" as com.ibm.fhir.audit.cadf.model.CadfAttachment [[CadfAttachment.html]]

    com.ibm.fhir.audit.cadf.model.CadfAttachment +- - com.ibm.fhir.audit.cadf.model.CadfAttachment.Writer

    center footer UMLDoclet 2.0.7, PlantUML 1.2019.12
@enduml

PlantUML version 1.2019.12(Sun Nov 03 10:24:54 UTC 2019)
(APACHE source distribution)
Java Runtime: OpenJDK Runtime Environment
JVM: OpenJDK 64-Bit Server VM
Java Version: 11.0.9+11
Operating System: Linux
Default Encoding: UTF-8
Language: en
Country: null
--></g></svg>