<?xml version="1.0" encoding="UTF-8" standalone="no"?><svg xmlns="http://www.w3.org/2000/svg" xmlns:xlink="http://www.w3.org/1999/xlink" contentScriptType="application/ecmascript" contentStyleType="text/css" height="456px" preserveAspectRatio="none" style="width:240px;height:456px;" version="1.1" viewBox="0 0 240 456" width="240px" zoomAndPan="magnify"><defs><filter height="300%" id="fy9gt8dlkusli" width="300%" x="-1" y="-1"><feGaussianBlur result="blurOut" stdDeviation="2.0"/><feColorMatrix in="blurOut" result="blurOut2" type="matrix" values="0 0 0 0 0 0 0 0 0 0 0 0 0 0 0 0 0 0 .4 0"/><feOffset dx="4.0" dy="4.0" in="blurOut2" result="blurOut3"/><feBlend in="SourceGraphic" in2="blurOut3" mode="normal"/></filter></defs><g><!--MD5=[105723126d3a41ecaa9a45550b748c3d]
class com.ibm.fhir.search.location.bounding.BoundingRadius--><a href="BoundingRadius.html" target="_top" title="BoundingRadius.html" xlink:actuate="onRequest" xlink:href="BoundingRadius.html" xlink:show="new" xlink:title="BoundingRadius.html" xlink:type="simple"><rect fill="#FEFECE" filter="url(#fy9gt8dlkusli)" height="173.9844" id="com.ibm.fhir.search.location.bounding.BoundingRadius" style="stroke: #A80036; stroke-width: 1.5;" width="215" x="10" y="152"/><ellipse cx="25" cy="170.9688" fill="#ADD1B2" rx="11" ry="11" style="stroke: #A80036; stroke-width: 1.0;"/><path d="M27.9688,176.6094 Q27.3906,176.9063 26.75,177.0469 Q26.1094,177.2031 25.4063,177.2031 Q22.9063,177.2031 21.5781,175.5625 Q20.2656,173.9063 20.2656,170.7813 Q20.2656,167.6563 21.5781,166 Q22.9063,164.3438 25.4063,164.3438 Q26.1094,164.3438 26.75,164.5 Q27.4063,164.6563 27.9688,164.9531 L27.9688,167.6719 Q27.3438,167.0938 26.75,166.8281 Q26.1563,166.5469 25.5313,166.5469 Q24.1875,166.5469 23.5,167.625 Q22.8125,168.6875 22.8125,170.7813 Q22.8125,172.875 23.5,173.9531 Q24.1875,175.0156 25.5313,175.0156 Q26.1563,175.0156 26.75,174.75 Q27.3438,174.4688 27.9688,173.8906 L27.9688,176.6094 Z "/><text fill="#000000" font-family="sans-serif" font-size="14" lengthAdjust="spacingAndGlyphs" textLength="114" x="73.5" y="169.9951">BoundingRadius</text><text fill="#000000" font-family="sans-serif" font-size="10" lengthAdjust="spacingAndGlyphs" textLength="183" x="39" y="182.5791">com.ibm.fhir.search.location.bounding</text><line style="stroke: #A80036; stroke-width: 1.5;" x1="11" x2="224" y1="189.9375" y2="189.9375"/><ellipse cx="21" cy="200.9375" fill="#84BE84" rx="3" ry="3" style="stroke: #038048; stroke-width: 1.0;"/><text fill="#000000" font-family="sans-serif" font-size="11" lengthAdjust="spacingAndGlyphs" textLength="118" x="30" y="204.1479">getLatitude(): Double</text><polygon fill="#FFFF44" points="21,208.7422,25,212.7422,21,216.7422,17,212.7422" style="stroke: #B38D22; stroke-width: 1.0;"/><text fill="#000000" font-family="sans-serif" font-size="11" lengthAdjust="spacingAndGlyphs" textLength="141" x="30" y="216.9526">setLatitude(Double): void</text><ellipse cx="21" cy="226.5469" fill="#84BE84" rx="3" ry="3" style="stroke: #038048; stroke-width: 1.0;"/><text fill="#000000" font-family="sans-serif" font-size="11" lengthAdjust="spacingAndGlyphs" textLength="128" x="30" y="229.7573">getLongitude(): Double</text><polygon fill="#FFFF44" points="21,234.3516,25,238.3516,21,242.3516,17,238.3516" style="stroke: #B38D22; stroke-width: 1.0;"/><text fill="#000000" font-family="sans-serif" font-size="11" lengthAdjust="spacingAndGlyphs" textLength="151" x="30" y="242.562">setLongitude(Double): void</text><ellipse cx="21" cy="252.1563" fill="#84BE84" rx="3" ry="3" style="stroke: #038048; stroke-width: 1.0;"/><text fill="#000000" font-family="sans-serif" font-size="11" lengthAdjust="spacingAndGlyphs" textLength="111" x="30" y="255.3667">getRadius(): Double</text><polygon fill="#FFFF44" points="21,259.9609,25,263.9609,21,267.9609,17,263.9609" style="stroke: #B38D22; stroke-width: 1.0;"/><text fill="#000000" font-family="sans-serif" font-size="11" lengthAdjust="spacingAndGlyphs" textLength="134" x="30" y="268.1714">setRadius(Double): void</text><ellipse cx="21" cy="277.7656" fill="#84BE84" rx="3" ry="3" style="stroke: #038048; stroke-width: 1.0;"/><text fill="#000000" font-family="sans-serif" font-size="11" lengthAdjust="spacingAndGlyphs" textLength="83" x="30" y="280.9761">validate(): void</text><ellipse cx="21" cy="290.5703" fill="#84BE84" rx="3" ry="3" style="stroke: #038048; stroke-width: 1.0;"/><text fill="#000000" font-family="sans-serif" font-size="11" lengthAdjust="spacingAndGlyphs" textLength="172" x="30" y="293.7808">getDataPoints(): List&lt;Double&gt;</text><ellipse cx="21" cy="303.375" fill="#84BE84" rx="3" ry="3" style="stroke: #038048; stroke-width: 1.0;"/><text fill="#000000" font-family="sans-serif" font-size="11" lengthAdjust="spacingAndGlyphs" textLength="141" x="30" y="306.5854">getType(): BoundingType</text><ellipse cx="21" cy="316.1797" fill="#84BE84" rx="3" ry="3" style="stroke: #038048; stroke-width: 1.0;"/><text fill="#000000" font-family="sans-serif" font-size="11" lengthAdjust="spacingAndGlyphs" text-decoration="underline" textLength="95" x="30" y="319.3901">builder(): Builder</text></a><!--MD5=[e500e6d7f58b212cc6c9b7385910620e]
class com.ibm.fhir.search.location.bounding.Bounding--><a href="Bounding.html" target="_top" title="Bounding.html" xlink:actuate="onRequest" xlink:href="Bounding.html" xlink:show="new" xlink:title="Bounding.html" xlink:type="simple"><rect fill="#FEFECE" filter="url(#fy9gt8dlkusli)" height="84.3516" id="com.ibm.fhir.search.location.bounding.Bounding" style="stroke: #A80036; stroke-width: 1.5;" width="223" x="6" y="8"/><ellipse cx="21" cy="26.9688" fill="#A9DCDF" rx="11" ry="11" style="stroke: #A80036; stroke-width: 1.0;"/><path d="M21.1094,22.3125 L19.9531,27.3906 L22.2813,27.3906 L21.1094,22.3125 Z M19.625,20.0781 L22.6094,20.0781 L25.9688,32.4688 L23.5156,32.4688 L22.75,29.4063 L19.4688,29.4063 L18.7188,32.4688 L16.2813,32.4688 L19.625,20.0781 Z "/><text fill="#000000" font-family="sans-serif" font-size="14" font-style="italic" lengthAdjust="spacingAndGlyphs" textLength="67" x="97" y="25.9951">Bounding</text><text fill="#000000" font-family="sans-serif" font-size="10" font-style="italic" lengthAdjust="spacingAndGlyphs" textLength="191" x="35" y="38.5791">com.ibm.fhir.search.location.bounding</text><line style="stroke: #A80036; stroke-width: 1.5;" x1="7" x2="228" y1="45.9375" y2="45.9375"/><ellipse cx="17" cy="56.9375" fill="#84BE84" rx="3" ry="3" style="stroke: #038048; stroke-width: 1.0;"/><text fill="#000000" font-family="sans-serif" font-size="11" font-style="italic" lengthAdjust="spacingAndGlyphs" textLength="85" x="26" y="60.1479">validate(): void</text><ellipse cx="17" cy="69.7422" fill="#84BE84" rx="3" ry="3" style="stroke: #038048; stroke-width: 1.0;"/><text fill="#000000" font-family="sans-serif" font-size="11" font-style="italic" lengthAdjust="spacingAndGlyphs" textLength="170" x="26" y="72.9526">getDataPoints(): List&lt;Double&gt;</text><ellipse cx="17" cy="82.5469" fill="#84BE84" rx="3" ry="3" style="stroke: #038048; stroke-width: 1.0;"/><text fill="#000000" font-family="sans-serif" font-size="11" font-style="italic" lengthAdjust="spacingAndGlyphs" textLength="143" x="26" y="85.7573">getType(): BoundingType</text></a><!--MD5=[ce09e9393c167652fe896ebc938b2550]
class com.ibm.fhir.search.location.bounding.BoundingRadius.Builder--><a href="BoundingRadius.Builder.html" target="_top" title="BoundingRadius.Builder.html" xlink:actuate="onRequest" xlink:href="BoundingRadius.Builder.html" xlink:show="new" xlink:title="BoundingRadius.Builder.html" xlink:type="simple"><rect fill="#FEFECE" filter="url(#fy9gt8dlkusli)" height="37.9375" id="com.ibm.fhir.search.location.bounding.BoundingRadius.Builder" style="stroke: #A80036; stroke-width: 1.5;" width="215" x="10" y="386"/><ellipse cx="25" cy="404.9688" fill="#ADD1B2" rx="11" ry="11" style="stroke: #A80036; stroke-width: 1.0;"/><path d="M27.9688,410.6094 Q27.3906,410.9063 26.75,411.0469 Q26.1094,411.2031 25.4063,411.2031 Q22.9063,411.2031 21.5781,409.5625 Q20.2656,407.9063 20.2656,404.7813 Q20.2656,401.6563 21.5781,400 Q22.9063,398.3438 25.4063,398.3438 Q26.1094,398.3438 26.75,398.5 Q27.4063,398.6563 27.9688,398.9531 L27.9688,401.6719 Q27.3438,401.0938 26.75,400.8281 Q26.1563,400.5469 25.5313,400.5469 Q24.1875,400.5469 23.5,401.625 Q22.8125,402.6875 22.8125,404.7813 Q22.8125,406.875 23.5,407.9531 Q24.1875,409.0156 25.5313,409.0156 Q26.1563,409.0156 26.75,408.75 Q27.3438,408.4688 27.9688,407.8906 L27.9688,410.6094 Z "/><text fill="#000000" font-family="sans-serif" font-size="14" lengthAdjust="spacingAndGlyphs" textLength="166" x="47.5" y="403.9951">BoundingRadius.Builder</text><text fill="#000000" font-family="sans-serif" font-size="10" lengthAdjust="spacingAndGlyphs" textLength="183" x="39" y="416.5791">com.ibm.fhir.search.location.bounding</text></a><!--MD5=[b4ddfadb98a48d5f9da4330cd05af932]
reverse link com.ibm.fhir.search.location.bounding.Bounding to com.ibm.fhir.search.location.bounding.BoundingRadius--><path d="M117.5,112.28 C117.5,124.93 117.5,138.47 117.5,151.81 " fill="none" id="com.ibm.fhir.search.location.bounding.Bounding&lt;-com.ibm.fhir.search.location.bounding.BoundingRadius" style="stroke: #A80036; stroke-width: 1.0;"/><polygon fill="none" points="110.5,112.04,117.5,92.04,124.5,112.04,110.5,112.04" style="stroke: #A80036; stroke-width: 1.0;"/><!--MD5=[6a71279b3a4314faca025a098c6c7985]
reverse link com.ibm.fhir.search.location.bounding.BoundingRadius to com.ibm.fhir.search.location.bounding.BoundingRadius.Builder--><path d="M117.5,341.49 C117.5,358.49 117.5,374.31 117.5,385.78 " fill="none" id="com.ibm.fhir.search.location.bounding.BoundingRadius&lt;-com.ibm.fhir.search.location.bounding.BoundingRadius.Builder" style="stroke: #A80036; stroke-width: 1.0;"/><ellipse cx="117.5" cy="334.32" fill="#FFFFFF" rx="8" ry="8" style="stroke: #A80036; stroke-width: 1.0;"/><line style="stroke: #A80036; stroke-width: 1.0;" x1="117.5" x2="117.5" y1="342.32" y2="326.32"/><line style="stroke: #A80036; stroke-width: 1.0;" x1="109.5" x2="125.5" y1="334.32" y2="334.32"/><text fill="#888888" font-family="sans-serif" font-size="10" lengthAdjust="spacingAndGlyphs" textLength="186" x="30.5" y="443.2822">UMLDoclet 2.0.7, PlantUML 1.2019.12</text><!--MD5=[ce20d313c4999909ec6b46e4808d058e]
@startuml
    set namespaceSeparator none
    hide empty fields
    hide empty methods

    class "<size:14>BoundingRadius\n<size:10>com.ibm.fhir.search.location.bounding" as com.ibm.fhir.search.location.bounding.BoundingRadius [[BoundingRadius.html]] {
        +getLatitude(): Double
        #setLatitude(Double): void
        +getLongitude(): Double
        #setLongitude(Double): void
        +getRadius(): Double
        #setRadius(Double): void
        +validate(): void
        +getDataPoints(): List<Double>
        +getType(): BoundingType
        {static} +builder(): Builder
    }

    abstract class "<size:14>Bounding\n<size:10>com.ibm.fhir.search.location.bounding" as com.ibm.fhir.search.location.bounding.Bounding [[Bounding.html]] {
        {abstract} +validate(): void
        {abstract} +getDataPoints(): List<Double>
        {abstract} +getType(): BoundingType
    }
    class "<size:14>BoundingRadius.Builder\n<size:10>com.ibm.fhir.search.location.bounding" as com.ibm.fhir.search.location.bounding.BoundingRadius.Builder [[BoundingRadius.Builder.html]]

    com.ibm.fhir.search.location.bounding.Bounding <|- - com.ibm.fhir.search.location.bounding.BoundingRadius
    com.ibm.fhir.search.location.bounding.BoundingRadius +- - com.ibm.fhir.search.location.bounding.BoundingRadius.Builder

    center footer UMLDoclet 2.0.7, PlantUML 1.2019.12
@enduml

PlantUML version 1.2019.12(Sun Nov 03 10:24:54 UTC 2019)
(APACHE source distribution)
Java Runtime: OpenJDK Runtime Environment
JVM: OpenJDK 64-Bit Server VM
Java Version: 11.0.10+9
Operating System: Linux
Default Encoding: UTF-8
Language: en
Country: null
--></g></svg>