<?xml version="1.0" encoding="UTF-8" standalone="no"?><svg xmlns="http://www.w3.org/2000/svg" xmlns:xlink="http://www.w3.org/1999/xlink" contentScriptType="application/ecmascript" contentStyleType="text/css" height="418px" preserveAspectRatio="none" style="width:406px;height:418px;" version="1.1" viewBox="0 0 406 418" width="406px" zoomAndPan="magnify"><defs><filter height="300%" id="f13py7ke25sw70" width="300%" x="-1" y="-1"><feGaussianBlur result="blurOut" stdDeviation="2.0"/><feColorMatrix in="blurOut" result="blurOut2" type="matrix" values="0 0 0 0 0 0 0 0 0 0 0 0 0 0 0 0 0 0 .4 0"/><feOffset dx="4.0" dy="4.0" in="blurOut2" result="blurOut3"/><feBlend in="SourceGraphic" in2="blurOut3" mode="normal"/></filter></defs><g><!--MD5=[103ece195a08fc8850456d8cb7b3ac54]
class com.ibm.fhir.model.type.code.QualityType--><a href="QualityType.html" target="_top" title="QualityType.html" xlink:actuate="onRequest" xlink:href="QualityType.html" xlink:show="new" xlink:title="QualityType.html" xlink:type="simple"><rect fill="#FEFECE" filter="url(#f13py7ke25sw70)" height="181.9844" id="com.ibm.fhir.model.type.code.QualityType" style="stroke: #A80036; stroke-width: 1.5;" width="238" x="81.5" y="106"/><ellipse cx="123.95" cy="124.9688" fill="#ADD1B2" rx="11" ry="11" style="stroke: #A80036; stroke-width: 1.0;"/><path d="M126.9188,130.6094 Q126.3406,130.9063 125.7,131.0469 Q125.0594,131.2031 124.3563,131.2031 Q121.8563,131.2031 120.5281,129.5625 Q119.2156,127.9063 119.2156,124.7813 Q119.2156,121.6563 120.5281,120 Q121.8563,118.3438 124.3563,118.3438 Q125.0594,118.3438 125.7,118.5 Q126.3563,118.6563 126.9188,118.9531 L126.9188,121.6719 Q126.2938,121.0938 125.7,120.8281 Q125.1063,120.5469 124.4813,120.5469 Q123.1375,120.5469 122.45,121.625 Q121.7625,122.6875 121.7625,124.7813 Q121.7625,126.875 122.45,127.9531 Q123.1375,129.0156 124.4813,129.0156 Q125.1063,129.0156 125.7,128.75 Q126.2938,128.4688 126.9188,127.8906 L126.9188,130.6094 Z "/><text fill="#000000" font-family="sans-serif" font-size="14" lengthAdjust="spacingAndGlyphs" textLength="80" x="176.55" y="123.9951">QualityType</text><text fill="#000000" font-family="sans-serif" font-size="10" lengthAdjust="spacingAndGlyphs" textLength="145" x="144.05" y="136.5791">com.ibm.fhir.model.type.code</text><line style="stroke: #A80036; stroke-width: 1.5;" x1="82.5" x2="318.5" y1="143.9375" y2="143.9375"/><ellipse cx="92.5" cy="154.9375" fill="none" rx="3" ry="3" style="stroke: #038048; stroke-width: 1.0;"/><text fill="#000000" font-family="sans-serif" font-size="11" lengthAdjust="spacingAndGlyphs" text-decoration="underline" textLength="106" x="101.5" y="158.1479">INDEL: QualityType</text><ellipse cx="92.5" cy="167.7422" fill="none" rx="3" ry="3" style="stroke: #038048; stroke-width: 1.0;"/><text fill="#000000" font-family="sans-serif" font-size="11" lengthAdjust="spacingAndGlyphs" text-decoration="underline" textLength="97" x="101.5" y="170.9526">SNP: QualityType</text><ellipse cx="92.5" cy="180.5469" fill="none" rx="3" ry="3" style="stroke: #038048; stroke-width: 1.0;"/><text fill="#000000" font-family="sans-serif" font-size="11" lengthAdjust="spacingAndGlyphs" text-decoration="underline" textLength="131" x="101.5" y="183.7573">UNKNOWN: QualityType</text><line style="stroke: #A80036; stroke-width: 1.5;" x1="82.5" x2="318.5" y1="190.3516" y2="190.3516"/><ellipse cx="92.5" cy="201.3516" fill="#84BE84" rx="3" ry="3" style="stroke: #038048; stroke-width: 1.0;"/><text fill="#000000" font-family="sans-serif" font-size="11" lengthAdjust="spacingAndGlyphs" textLength="212" x="101.5" y="204.562">getValueAsEnumConstant(): ValueSet</text><ellipse cx="92.5" cy="214.1563" fill="#84BE84" rx="3" ry="3" style="stroke: #038048; stroke-width: 1.0;"/><text fill="#000000" font-family="sans-serif" font-size="11" lengthAdjust="spacingAndGlyphs" text-decoration="underline" textLength="143" x="101.5" y="217.3667">of(ValueSet): QualityType</text><ellipse cx="92.5" cy="226.9609" fill="#84BE84" rx="3" ry="3" style="stroke: #038048; stroke-width: 1.0;"/><text fill="#000000" font-family="sans-serif" font-size="11" lengthAdjust="spacingAndGlyphs" text-decoration="underline" textLength="127" x="101.5" y="230.1714">of(String): QualityType</text><ellipse cx="92.5" cy="239.7656" fill="#84BE84" rx="3" ry="3" style="stroke: #038048; stroke-width: 1.0;"/><text fill="#000000" font-family="sans-serif" font-size="11" lengthAdjust="spacingAndGlyphs" text-decoration="underline" textLength="117" x="101.5" y="242.9761">string(String): String</text><ellipse cx="92.5" cy="252.5703" fill="#84BE84" rx="3" ry="3" style="stroke: #038048; stroke-width: 1.0;"/><text fill="#000000" font-family="sans-serif" font-size="11" lengthAdjust="spacingAndGlyphs" text-decoration="underline" textLength="106" x="101.5" y="255.7808">code(String): Code</text><ellipse cx="92.5" cy="265.375" fill="#84BE84" rx="3" ry="3" style="stroke: #038048; stroke-width: 1.0;"/><text fill="#000000" font-family="sans-serif" font-size="11" lengthAdjust="spacingAndGlyphs" textLength="107" x="101.5" y="268.5854">toBuilder(): Builder</text><ellipse cx="92.5" cy="278.1797" fill="#84BE84" rx="3" ry="3" style="stroke: #038048; stroke-width: 1.0;"/><text fill="#000000" font-family="sans-serif" font-size="11" lengthAdjust="spacingAndGlyphs" text-decoration="underline" textLength="95" x="101.5" y="281.3901">builder(): Builder</text></a><!--MD5=[36277681a3d78580011ae89cb2088b30]
class com.ibm.fhir.model.type.Code--><a href="../Code.html" target="_top" title="../Code.html" xlink:actuate="onRequest" xlink:href="../Code.html" xlink:show="new" xlink:title="../Code.html" xlink:type="simple"><rect fill="#FEFECE" filter="url(#f13py7ke25sw70)" height="37.9375" id="com.ibm.fhir.model.type.Code" style="stroke: #A80036; stroke-width: 1.5;" width="151" x="125" y="8"/><ellipse cx="140" cy="26.9688" fill="#ADD1B2" rx="11" ry="11" style="stroke: #A80036; stroke-width: 1.0;"/><path d="M142.9688,32.6094 Q142.3906,32.9063 141.75,33.0469 Q141.1094,33.2031 140.4063,33.2031 Q137.9063,33.2031 136.5781,31.5625 Q135.2656,29.9063 135.2656,26.7813 Q135.2656,23.6563 136.5781,22 Q137.9063,20.3438 140.4063,20.3438 Q141.1094,20.3438 141.75,20.5 Q142.4063,20.6563 142.9688,20.9531 L142.9688,23.6719 Q142.3438,23.0938 141.75,22.8281 Q141.1563,22.5469 140.5313,22.5469 Q139.1875,22.5469 138.5,23.625 Q137.8125,24.6875 137.8125,26.7813 Q137.8125,28.875 138.5,29.9531 Q139.1875,31.0156 140.5313,31.0156 Q141.1563,31.0156 141.75,30.75 Q142.3438,30.4688 142.9688,29.8906 L142.9688,32.6094 Z "/><text fill="#000000" font-family="sans-serif" font-size="14" lengthAdjust="spacingAndGlyphs" textLength="37" x="195" y="25.9951">Code</text><text fill="#000000" font-family="sans-serif" font-size="10" lengthAdjust="spacingAndGlyphs" textLength="119" x="154" y="38.5791">com.ibm.fhir.model.type</text></a><!--MD5=[eb5f4b82b060a351895368ae8deceb33]
class com.ibm.fhir.model.type.code.QualityType.Builder--><a href="QualityType.Builder.html" target="_top" title="QualityType.Builder.html" xlink:actuate="onRequest" xlink:href="QualityType.Builder.html" xlink:show="new" xlink:title="QualityType.Builder.html" xlink:type="simple"><rect fill="#FEFECE" filter="url(#f13py7ke25sw70)" height="37.9375" id="com.ibm.fhir.model.type.code.QualityType.Builder" style="stroke: #A80036; stroke-width: 1.5;" width="177" x="6" y="348"/><ellipse cx="21" cy="366.9688" fill="#ADD1B2" rx="11" ry="11" style="stroke: #A80036; stroke-width: 1.0;"/><path d="M23.9688,372.6094 Q23.3906,372.9063 22.75,373.0469 Q22.1094,373.2031 21.4063,373.2031 Q18.9063,373.2031 17.5781,371.5625 Q16.2656,369.9063 16.2656,366.7813 Q16.2656,363.6563 17.5781,362 Q18.9063,360.3438 21.4063,360.3438 Q22.1094,360.3438 22.75,360.5 Q23.4063,360.6563 23.9688,360.9531 L23.9688,363.6719 Q23.3438,363.0938 22.75,362.8281 Q22.1563,362.5469 21.5313,362.5469 Q20.1875,362.5469 19.5,363.625 Q18.8125,364.6875 18.8125,366.7813 Q18.8125,368.875 19.5,369.9531 Q20.1875,371.0156 21.5313,371.0156 Q22.1563,371.0156 22.75,370.75 Q23.3438,370.4688 23.9688,369.8906 L23.9688,372.6094 Z "/><text fill="#000000" font-family="sans-serif" font-size="14" lengthAdjust="spacingAndGlyphs" textLength="132" x="41.5" y="365.9951">QualityType.Builder</text><text fill="#000000" font-family="sans-serif" font-size="10" lengthAdjust="spacingAndGlyphs" textLength="145" x="35" y="378.5791">com.ibm.fhir.model.type.code</text></a><!--MD5=[5e813086a3d8ecbc73e252a9fbe2674f]
class com.ibm.fhir.model.type.code.QualityType.ValueSet--><a href="QualityType.ValueSet.html" target="_top" title="QualityType.ValueSet.html" xlink:actuate="onRequest" xlink:href="QualityType.ValueSet.html" xlink:show="new" xlink:title="QualityType.ValueSet.html" xlink:type="simple"><rect fill="#FEFECE" filter="url(#f13py7ke25sw70)" height="37.9375" id="com.ibm.fhir.model.type.code.QualityType.ValueSet" style="stroke: #A80036; stroke-width: 1.5;" width="177" x="218" y="348"/><ellipse cx="233" cy="366.9688" fill="#EB937F" rx="11" ry="11" style="stroke: #A80036; stroke-width: 1.0;"/><path d="M237.1094,372.9688 L229.3906,372.9688 L229.3906,360.5781 L237.1094,360.5781 L237.1094,362.7344 L231.8438,362.7344 L231.8438,365.4063 L236.6094,365.4063 L236.6094,367.5625 L231.8438,367.5625 L231.8438,370.8125 L237.1094,370.8125 L237.1094,372.9688 Z "/><text fill="#000000" font-family="sans-serif" font-size="14" lengthAdjust="spacingAndGlyphs" textLength="145" x="247" y="365.9951">QualityType.ValueSet</text><text fill="#000000" font-family="sans-serif" font-size="10" lengthAdjust="spacingAndGlyphs" textLength="145" x="247" y="378.5791">com.ibm.fhir.model.type.code</text></a><!--MD5=[6fc752b65c88c3db097dd1e1312ab89b]
reverse link com.ibm.fhir.model.type.Code to com.ibm.fhir.model.type.code.QualityType--><path d="M200.5,66.6238 C200.5,78.5395 200.5,92.1382 200.5,105.9511 " fill="none" id="com.ibm.fhir.model.type.Code&lt;-com.ibm.fhir.model.type.code.QualityType" style="stroke: #A80036; stroke-width: 1.0;"/><polygon fill="none" points="193.5001,66.1707,200.5,46.1707,207.5001,66.1707,193.5001,66.1707" style="stroke: #A80036; stroke-width: 1.0;"/><!--MD5=[9deb8eb8374aa420981630502fd79969]
reverse link com.ibm.fhir.model.type.code.QualityType to com.ibm.fhir.model.type.code.QualityType.Builder--><path d="M135.4881,301.2644 C124.3899,319.0633 114.0335,335.6727 106.5073,347.743 " fill="none" id="com.ibm.fhir.model.type.code.QualityType&lt;-com.ibm.fhir.model.type.code.QualityType.Builder" style="stroke: #A80036; stroke-width: 1.0;"/><ellipse cx="139.2335" cy="295.2574" fill="#FFFFFF" rx="8" ry="8" style="stroke: #A80036; stroke-width: 1.0;"/><line style="stroke: #A80036; stroke-width: 1.0;" x1="135.0007" x2="143.4664" y1="302.0459" y2="288.469"/><line style="stroke: #A80036; stroke-width: 1.0;" x1="132.4451" x2="146.022" y1="291.0246" y2="299.4903"/><!--MD5=[a7255e07c6dfa224d4a991f6571db3ae]
reverse link com.ibm.fhir.model.type.code.QualityType to com.ibm.fhir.model.type.code.QualityType.ValueSet--><path d="M265.5119,301.2644 C276.6101,319.0633 286.9665,335.6727 294.4927,347.743 " fill="none" id="com.ibm.fhir.model.type.code.QualityType&lt;-com.ibm.fhir.model.type.code.QualityType.ValueSet" style="stroke: #A80036; stroke-width: 1.0;"/><ellipse cx="261.7665" cy="295.2574" fill="#FFFFFF" rx="8" ry="8" style="stroke: #A80036; stroke-width: 1.0;"/><line style="stroke: #A80036; stroke-width: 1.0;" x1="265.9993" x2="257.5336" y1="302.0459" y2="288.469"/><line style="stroke: #A80036; stroke-width: 1.0;" x1="254.978" x2="268.5549" y1="299.4903" y2="291.0246"/><text fill="#888888" font-family="sans-serif" font-size="10" lengthAdjust="spacingAndGlyphs" textLength="186" x="113.5" y="405.2822">UMLDoclet 2.0.7, PlantUML 1.2019.12</text><!--MD5=[13799ac68195a85506b561939ab8c55f]
@startuml
    set namespaceSeparator none
    hide empty fields
    hide empty methods

    class "<size:14>QualityType\n<size:10>com.ibm.fhir.model.type.code" as com.ibm.fhir.model.type.code.QualityType [[QualityType.html]] {
        {static} +INDEL: QualityType
        {static} +SNP: QualityType
        {static} +UNKNOWN: QualityType
        +getValueAsEnumConstant(): ValueSet
        {static} +of(ValueSet): QualityType
        {static} +of(String): QualityType
        {static} +string(String): String
        {static} +code(String): Code
        +toBuilder(): Builder
        {static} +builder(): Builder
    }

    class "<size:14>Code\n<size:10>com.ibm.fhir.model.type" as com.ibm.fhir.model.type.Code [[../Code.html]]
    class "<size:14>QualityType.Builder\n<size:10>com.ibm.fhir.model.type.code" as com.ibm.fhir.model.type.code.QualityType.Builder [[QualityType.Builder.html]]
    enum "<size:14>QualityType.ValueSet\n<size:10>com.ibm.fhir.model.type.code" as com.ibm.fhir.model.type.code.QualityType.ValueSet [[QualityType.ValueSet.html]]

    com.ibm.fhir.model.type.Code <|- - com.ibm.fhir.model.type.code.QualityType
    com.ibm.fhir.model.type.code.QualityType +- - com.ibm.fhir.model.type.code.QualityType.Builder
    com.ibm.fhir.model.type.code.QualityType +- - com.ibm.fhir.model.type.code.QualityType.ValueSet

    center footer UMLDoclet 2.0.7, PlantUML 1.2019.12
@enduml

PlantUML version 1.2019.12(Sun Nov 03 10:24:54 UTC 2019)
(APACHE source distribution)
Java Runtime: OpenJDK Runtime Environment
JVM: OpenJDK 64-Bit Server VM
Java Version: 11.0.8+10
Operating System: Linux
Default Encoding: UTF-8
Language: en
Country: null
--></g></svg>