<?xml version="1.0" encoding="UTF-8" standalone="no"?><svg xmlns="http://www.w3.org/2000/svg" xmlns:xlink="http://www.w3.org/1999/xlink" contentScriptType="application/ecmascript" contentStyleType="text/css" height="273px" preserveAspectRatio="none" style="width:263px;height:273px;" version="1.1" viewBox="0 0 263 273" width="263px" zoomAndPan="magnify"><defs><filter height="300%" id="f1sk097ak77oep" width="300%" x="-1" y="-1"><feGaussianBlur result="blurOut" stdDeviation="2.0"/><feColorMatrix in="blurOut" result="blurOut2" type="matrix" values="0 0 0 0 0 0 0 0 0 0 0 0 0 0 0 0 0 0 .4 0"/><feOffset dx="4.0" dy="4.0" in="blurOut2" result="blurOut3"/><feBlend in="SourceGraphic" in2="blurOut3" mode="normal"/></filter></defs><g><!--MD5=[058c3d5cee4d40b678f02ae7a3331c47]
cluster com.ibm.fhir.model.builder--><polygon fill="#FFFFFF" filter="url(#f1sk097ak77oep)" points="14,16,231,16,238,38.2969,241,38.2969,241,233,14,233,14,16" style="stroke: #000000; stroke-width: 1.5;"/><line style="stroke: #000000; stroke-width: 1.5;" x1="14" x2="238" y1="38.2969" y2="38.2969"/><text fill="#000000" font-family="sans-serif" font-size="14" font-weight="bold" lengthAdjust="spacingAndGlyphs" textLength="211" x="18" y="30.9951">com.ibm.fhir.model.builder</text><!--MD5=[c960e3aed48ffe5c43a6a2c1be8a252f]
class com.ibm.fhir.model.builder.Builder--><a href="Builder.html" target="_top" title="Builder.html" xlink:actuate="onRequest" xlink:href="Builder.html" xlink:show="new" xlink:title="Builder.html" xlink:type="simple"><rect fill="#FEFECE" filter="url(#f1sk097ak77oep)" height="60.8047" id="com.ibm.fhir.model.builder.Builder" style="stroke: #A80036; stroke-width: 1.5;" width="86" x="84" y="43"/><ellipse cx="99" cy="59" fill="#B4A7E5" rx="11" ry="11" style="stroke: #A80036; stroke-width: 1.0;"/><path d="M94.9219,54.7656 L94.9219,52.6094 L102.3125,52.6094 L102.3125,54.7656 L99.8438,54.7656 L99.8438,62.8438 L102.3125,62.8438 L102.3125,65 L94.9219,65 L94.9219,62.8438 L97.3906,62.8438 L97.3906,54.7656 L94.9219,54.7656 Z "/><text fill="#000000" font-family="sans-serif" font-size="12" font-style="italic" lengthAdjust="spacingAndGlyphs" textLength="43" x="113" y="63.1543">Builder</text><rect fill="#FFFFFF" height="15.9688" style="stroke: #000000; stroke-width: 1.0; stroke-dasharray: 2.0,2.0;" width="9" x="164" y="40"/><text fill="#000000" font-family="sans-serif" font-size="12" font-style="italic" lengthAdjust="spacingAndGlyphs" textLength="7" x="165" y="52.1387">T</text><line style="stroke: #A80036; stroke-width: 1.5;" x1="85" x2="169" y1="75" y2="75"/><line style="stroke: #A80036; stroke-width: 1.5;" x1="85" x2="169" y1="83" y2="83"/><ellipse cx="95" cy="94" fill="#84BE84" rx="3" ry="3" style="stroke: #038048; stroke-width: 1.0;"/><text fill="#000000" font-family="sans-serif" font-size="11" font-style="italic" lengthAdjust="spacingAndGlyphs" textLength="50" x="104" y="97.2104">build(): T</text></a><!--MD5=[4715e9218249d05625e0f87917eec59f]
class com.ibm.fhir.model.builder.AbstractBuilder--><a href="AbstractBuilder.html" target="_top" title="AbstractBuilder.html" xlink:actuate="onRequest" xlink:href="AbstractBuilder.html" xlink:show="new" xlink:title="AbstractBuilder.html" xlink:type="simple"><rect fill="#FEFECE" filter="url(#f1sk097ak77oep)" height="60.8047" id="com.ibm.fhir.model.builder.AbstractBuilder" style="stroke: #A80036; stroke-width: 1.5;" width="139" x="57.5" y="164"/><ellipse cx="72.5" cy="180" fill="#A9DCDF" rx="11" ry="11" style="stroke: #A80036; stroke-width: 1.0;"/><path d="M72.6094,175.3438 L71.4531,180.4219 L73.7813,180.4219 L72.6094,175.3438 Z M71.125,173.1094 L74.1094,173.1094 L77.4688,185.5 L75.0156,185.5 L74.25,182.4375 L70.9688,182.4375 L70.2188,185.5 L67.7813,185.5 L71.125,173.1094 Z "/><text fill="#000000" font-family="sans-serif" font-size="12" font-style="italic" lengthAdjust="spacingAndGlyphs" textLength="96" x="86.5" y="184.1543">AbstractBuilder</text><rect fill="#FFFFFF" height="15.9688" style="stroke: #000000; stroke-width: 1.0; stroke-dasharray: 2.0,2.0;" width="9" x="190.5" y="161"/><text fill="#000000" font-family="sans-serif" font-size="12" font-style="italic" lengthAdjust="spacingAndGlyphs" textLength="7" x="191.5" y="173.1387">T</text><line style="stroke: #A80036; stroke-width: 1.5;" x1="58.5" x2="195.5" y1="196" y2="196"/><line style="stroke: #A80036; stroke-width: 1.5;" x1="58.5" x2="195.5" y1="204" y2="204"/><ellipse cx="68.5" cy="215" fill="#84BE84" rx="3" ry="3" style="stroke: #038048; stroke-width: 1.0;"/><text fill="#000000" font-family="sans-serif" font-size="11" font-style="italic" lengthAdjust="spacingAndGlyphs" textLength="50" x="77.5" y="218.2104">build(): T</text></a><!--MD5=[7d43d1196dc0ee1cc43cc7dbc9c09238]
reverse link com.ibm.fhir.model.builder.Builder to com.ibm.fhir.model.builder.AbstractBuilder--><path d="M127,124.2927 C127,137.7857 127,151.9401 127,163.9764 " fill="none" id="com.ibm.fhir.model.builder.Builder&lt;-com.ibm.fhir.model.builder.AbstractBuilder" style="stroke: #A80036; stroke-width: 1.0; stroke-dasharray: 7.0,7.0;"/><polygon fill="none" points="120.0001,124.0334,127,104.0334,134.0001,124.0334,120.0001,124.0334" style="stroke: #A80036; stroke-width: 1.0;"/><text fill="#888888" font-family="sans-serif" font-size="10" lengthAdjust="spacingAndGlyphs" textLength="186" x="40.5" y="260.2822">UMLDoclet 2.0.7, PlantUML 1.2019.12</text><!--MD5=[e2c9e22ad5b13c543146bf6763051888]
@startuml
    namespace com.ibm.fhir.model.builder {

        interface Builder<T> [[Builder.html]] {
            {abstract} +build(): T
        }

        abstract class AbstractBuilder<T> [[AbstractBuilder.html]] {
            {abstract} +build(): T
        }

        Builder <|.. AbstractBuilder
    }

    center footer UMLDoclet 2.0.7, PlantUML 1.2019.12
@enduml

PlantUML version 1.2019.12(Sun Nov 03 10:24:54 UTC 2019)
(APACHE source distribution)
Java Runtime: OpenJDK Runtime Environment
JVM: OpenJDK 64-Bit Server VM
Java Version: 11.0.6+10
Operating System: Linux
Default Encoding: UTF-8
Language: en
Country: null
--></g></svg>