<?xml version="1.0" encoding="UTF-8" standalone="no"?><svg xmlns="http://www.w3.org/2000/svg" xmlns:xlink="http://www.w3.org/1999/xlink" contentScriptType="application/ecmascript" contentStyleType="text/css" height="542px" preserveAspectRatio="none" style="width:1995px;height:542px;" version="1.1" viewBox="0 0 1995 542" width="1995px" zoomAndPan="magnify"><defs><filter height="300%" id="f9ba1x4j8yn0v" width="300%" x="-1" y="-1"><feGaussianBlur result="blurOut" stdDeviation="2.0"/><feColorMatrix in="blurOut" result="blurOut2" type="matrix" values="0 0 0 0 0 0 0 0 0 0 0 0 0 0 0 0 0 0 .4 0"/><feOffset dx="4.0" dy="4.0" in="blurOut2" result="blurOut3"/><feBlend in="SourceGraphic" in2="blurOut3" mode="normal"/></filter></defs><g><!--MD5=[e80583ced3f251ea0ff6ce3adfd43c7f]
cluster com.ibm.fhir.jbatch.bulkdata.export.system--><polygon fill="#FFFFFF" filter="url(#f9ba1x4j8yn0v)" points="14,150,362,150,369,172.2969,1973,172.2969,1973,502,14,502,14,150" style="stroke: #000000; stroke-width: 1.5;"/><line style="stroke: #000000; stroke-width: 1.5;" x1="14" x2="369" y1="172.2969" y2="172.2969"/><text fill="#000000" font-family="sans-serif" font-size="14" font-weight="bold" lengthAdjust="spacingAndGlyphs" textLength="342" x="18" y="164.9951">com.ibm.fhir.jbatch.bulkdata.export.system</text><!--MD5=[341d2e2c601816b731e974ba8ab9a24f]
cluster javax.batch.api.listener--><polygon fill="#FFFFFF" filter="url(#f9ba1x4j8yn0v)" points="43,16,231,16,238,38.2969,241,38.2969,241,125,43,125,43,16" style="stroke: #000000; stroke-width: 1.5;"/><line style="stroke: #000000; stroke-width: 1.5;" x1="43" x2="238" y1="38.2969" y2="38.2969"/><text fill="#000000" font-family="sans-serif" font-size="14" font-weight="bold" lengthAdjust="spacingAndGlyphs" textLength="182" x="47" y="30.9951">javax.batch.api.listener</text><!--MD5=[61fe05900995e506476dd9053fb879ec]
cluster javax.batch.api.chunk--><polygon fill="#FFFFFF" filter="url(#f9ba1x4j8yn0v)" points="649,22.5,825,22.5,832,44.7969,1057,44.7969,1057,118.5,649,118.5,649,22.5" style="stroke: #000000; stroke-width: 1.5;"/><line style="stroke: #000000; stroke-width: 1.5;" x1="649" x2="832" y1="44.7969" y2="44.7969"/><text fill="#000000" font-family="sans-serif" font-size="14" font-weight="bold" lengthAdjust="spacingAndGlyphs" textLength="170" x="653" y="37.4951">javax.batch.api.chunk</text><!--MD5=[dd702ba299ff838c61d7b9011e754e3e]
cluster javax.batch.api.partition--><polygon fill="#FFFFFF" filter="url(#f9ba1x4j8yn0v)" points="1223,16,1417,16,1424,38.2969,1973,38.2969,1973,125,1223,125,1223,16" style="stroke: #000000; stroke-width: 1.5;"/><line style="stroke: #000000; stroke-width: 1.5;" x1="1223" x2="1424" y1="38.2969" y2="38.2969"/><text fill="#000000" font-family="sans-serif" font-size="14" font-weight="bold" lengthAdjust="spacingAndGlyphs" textLength="188" x="1227" y="30.9951">javax.batch.api.partition</text><!--MD5=[af79ea0f02d9ca31e87c9b54a371aef6]
class com.ibm.fhir.jbatch.bulkdata.export.system.ExportJobListener--><a href="ExportJobListener.html" target="_top" title="ExportJobListener.html" xlink:actuate="onRequest" xlink:href="ExportJobListener.html" xlink:show="new" xlink:title="ExportJobListener.html" xlink:type="simple"><rect fill="#FEFECE" filter="url(#f9ba1x4j8yn0v)" height="112.0234" id="com.ibm.fhir.jbatch.bulkdata.export.system.ExportJobListener" style="stroke: #A80036; stroke-width: 1.5;" width="236" x="22" y="279.5"/><ellipse cx="81.25" cy="295.5" fill="#ADD1B2" rx="11" ry="11" style="stroke: #A80036; stroke-width: 1.0;"/><path d="M84.2188,301.1406 Q83.6406,301.4375 83,301.5781 Q82.3594,301.7344 81.6563,301.7344 Q79.1563,301.7344 77.8281,300.0938 Q76.5156,298.4375 76.5156,295.3125 Q76.5156,292.1875 77.8281,290.5313 Q79.1563,288.875 81.6563,288.875 Q82.3594,288.875 83,289.0313 Q83.6563,289.1875 84.2188,289.4844 L84.2188,292.2031 Q83.5938,291.625 83,291.3594 Q82.4063,291.0781 81.7813,291.0781 Q80.4375,291.0781 79.75,292.1563 Q79.0625,293.2188 79.0625,295.3125 Q79.0625,297.4063 79.75,298.4844 Q80.4375,299.5469 81.7813,299.5469 Q82.4063,299.5469 83,299.2813 Q83.5938,299 84.2188,298.4219 L84.2188,301.1406 Z "/><text fill="#000000" font-family="sans-serif" font-size="12" lengthAdjust="spacingAndGlyphs" textLength="109" x="101.75" y="299.6543">ExportJobListener</text><line style="stroke: #A80036; stroke-width: 1.5;" x1="23" x2="257" y1="311.5" y2="311.5"/><polygon fill="none" points="33,318.5,29,324.5,37,324.5" style="stroke: #1963A0; stroke-width: 1.0;"/><text fill="#000000" font-family="sans-serif" font-size="11" lengthAdjust="spacingAndGlyphs" textLength="210" x="42" y="325.7104">currentExecutionStartTimeInMS: long</text><polygon fill="none" points="33,331.3047,29,337.3047,37,337.3047" style="stroke: #1963A0; stroke-width: 1.0;"/><text fill="#000000" font-family="sans-serif" font-size="11" lengthAdjust="spacingAndGlyphs" textLength="128" x="42" y="338.5151">jobContext: JobContext</text><polygon fill="none" points="33,344.1094,29,350.1094,37,350.1094" style="stroke: #1963A0; stroke-width: 1.0;"/><text fill="#000000" font-family="sans-serif" font-size="11" lengthAdjust="spacingAndGlyphs" textLength="135" x="42" y="351.3198">dataSourcesInfo: String</text><line style="stroke: #A80036; stroke-width: 1.5;" x1="23" x2="257" y1="357.9141" y2="357.9141"/><ellipse cx="33" cy="368.9141" fill="#84BE84" rx="3" ry="3" style="stroke: #038048; stroke-width: 1.0;"/><text fill="#000000" font-family="sans-serif" font-size="11" lengthAdjust="spacingAndGlyphs" textLength="83" x="42" y="372.1245">afterJob(): void</text><ellipse cx="33" cy="381.7188" fill="#84BE84" rx="3" ry="3" style="stroke: #038048; stroke-width: 1.0;"/><text fill="#000000" font-family="sans-serif" font-size="11" lengthAdjust="spacingAndGlyphs" textLength="93" x="42" y="384.9292">beforeJob(): void</text></a><!--MD5=[cb55e26b75ebdf42daa91f3ce7ca043c]
class com.ibm.fhir.jbatch.bulkdata.export.system.ChunkReader--><a href="ChunkReader.html" target="_top" title="ChunkReader.html" xlink:actuate="onRequest" xlink:href="ChunkReader.html" xlink:show="new" xlink:title="ChunkReader.html" xlink:type="simple"><rect fill="#FEFECE" filter="url(#f9ba1x4j8yn0v)" height="316.8984" id="com.ibm.fhir.jbatch.bulkdata.export.system.ChunkReader" style="stroke: #A80036; stroke-width: 1.5;" width="643" x="293.5" y="177"/><ellipse cx="568.75" cy="193" fill="#ADD1B2" rx="11" ry="11" style="stroke: #A80036; stroke-width: 1.0;"/><path d="M571.7188,198.6406 Q571.1406,198.9375 570.5,199.0781 Q569.8594,199.2344 569.1563,199.2344 Q566.6563,199.2344 565.3281,197.5938 Q564.0156,195.9375 564.0156,192.8125 Q564.0156,189.6875 565.3281,188.0313 Q566.6563,186.375 569.1563,186.375 Q569.8594,186.375 570.5,186.5313 Q571.1563,186.6875 571.7188,186.9844 L571.7188,189.7031 Q571.0938,189.125 570.5,188.8594 Q569.9063,188.5781 569.2813,188.5781 Q567.9375,188.5781 567.25,189.6563 Q566.5625,190.7188 566.5625,192.8125 Q566.5625,194.9063 567.25,195.9844 Q567.9375,197.0469 569.2813,197.0469 Q569.9063,197.0469 570.5,196.7813 Q571.0938,196.5 571.7188,195.9219 L571.7188,198.6406 Z "/><text fill="#000000" font-family="sans-serif" font-size="12" lengthAdjust="spacingAndGlyphs" textLength="84" x="589.25" y="197.1543">ChunkReader</text><line style="stroke: #A80036; stroke-width: 1.5;" x1="294.5" x2="935.5" y1="209" y2="209"/><polygon fill="none" points="304.5,216,300.5,222,308.5,222" style="stroke: #1963A0; stroke-width: 1.0;"/><text fill="#000000" font-family="sans-serif" font-size="11" lengthAdjust="spacingAndGlyphs" textLength="156" x="313.5" y="223.2104">isSingleCosObject: boolean</text><polygon fill="none" points="304.5,228.8047,300.5,234.8047,308.5,234.8047" style="stroke: #1963A0; stroke-width: 1.0;"/><text fill="#000000" font-family="sans-serif" font-size="11" lengthAdjust="spacingAndGlyphs" textLength="76" x="313.5" y="236.0151">pageNum: int</text><polygon fill="none" points="304.5,241.6094,300.5,247.6094,308.5,247.6094" style="stroke: #1963A0; stroke-width: 1.0;"/><text fill="#000000" font-family="sans-serif" font-size="11" lengthAdjust="spacingAndGlyphs" textLength="73" x="313.5" y="248.8198">pageSize: int</text><polygon fill="none" points="304.5,254.4141,300.5,260.4141,308.5,260.4141" style="stroke: #1963A0; stroke-width: 1.0;"/><text fill="#000000" font-family="sans-serif" font-size="11" lengthAdjust="spacingAndGlyphs" textLength="617" x="313.5" y="261.6245">searchParametersForResoureTypes: Map&lt;Class&lt;? extends Resource&gt;, List&lt;Map&lt;String, List&lt;String&gt;&gt;&gt;&gt;</text><polygon fill="none" points="304.5,267.2188,300.5,273.2188,308.5,273.2188" style="stroke: #1963A0; stroke-width: 1.0;"/><text fill="#000000" font-family="sans-serif" font-size="11" lengthAdjust="spacingAndGlyphs" textLength="163" x="313.5" y="274.4292">indexOfCurrentTypeFilter: int</text><polygon fill="none" points="304.5,280.0234,300.5,286.0234,308.5,286.0234" style="stroke: #1963A0; stroke-width: 1.0;"/><text fill="#000000" font-family="sans-serif" font-size="11" lengthAdjust="spacingAndGlyphs" textLength="187" x="313.5" y="287.2339">loadedResourceIds: Set&lt;String&gt;</text><polygon fill="none" points="304.5,292.8281,300.5,298.8281,308.5,298.8281" style="stroke: #1963A0; stroke-width: 1.0;"/><text fill="#000000" font-family="sans-serif" font-size="11" lengthAdjust="spacingAndGlyphs" textLength="174" x="313.5" y="300.0386">isDoDuplicationCheck: boolean</text><polygon fill="none" points="304.5,305.6328,300.5,311.6328,308.5,311.6328" style="stroke: #1963A0; stroke-width: 1.0;"/><text fill="#000000" font-family="sans-serif" font-size="11" lengthAdjust="spacingAndGlyphs" textLength="185" x="313.5" y="312.8433">fhirPersistence: FHIRPersistence</text><polygon fill="none" points="304.5,318.4375,300.5,324.4375,308.5,324.4375" style="stroke: #1963A0; stroke-width: 1.0;"/><text fill="#000000" font-family="sans-serif" font-size="11" lengthAdjust="spacingAndGlyphs" textLength="248" x="313.5" y="325.6479">resourceType: Class&lt;? extends Resource&gt;</text><polygon fill="none" points="304.5,331.2422,300.5,337.2422,308.5,337.2422" style="stroke: #1963A0; stroke-width: 1.0;"/><text fill="#000000" font-family="sans-serif" font-size="11" lengthAdjust="spacingAndGlyphs" textLength="100" x="313.5" y="338.4526">fhirTenant: String</text><polygon fill="none" points="304.5,344.0469,300.5,350.0469,308.5,350.0469" style="stroke: #1963A0; stroke-width: 1.0;"/><text fill="#000000" font-family="sans-serif" font-size="11" lengthAdjust="spacingAndGlyphs" textLength="127" x="313.5" y="351.2573">fhirDatastoreId: String</text><polygon fill="none" points="304.5,356.8516,300.5,362.8516,308.5,362.8516" style="stroke: #1963A0; stroke-width: 1.0;"/><text fill="#000000" font-family="sans-serif" font-size="11" lengthAdjust="spacingAndGlyphs" textLength="141" x="313.5" y="364.062">fhirResourceType: String</text><polygon fill="none" points="304.5,369.6563,300.5,375.6563,308.5,375.6563" style="stroke: #1963A0; stroke-width: 1.0;"/><text fill="#000000" font-family="sans-serif" font-size="11" lengthAdjust="spacingAndGlyphs" textLength="156" x="313.5" y="376.8667">fhirSearchFromDate: String</text><polygon fill="none" points="304.5,382.4609,300.5,388.4609,308.5,388.4609" style="stroke: #1963A0; stroke-width: 1.0;"/><text fill="#000000" font-family="sans-serif" font-size="11" lengthAdjust="spacingAndGlyphs" textLength="141" x="313.5" y="389.6714">fhirSearchToDate: String</text><polygon fill="none" points="304.5,395.2656,300.5,401.2656,308.5,401.2656" style="stroke: #1963A0; stroke-width: 1.0;"/><text fill="#000000" font-family="sans-serif" font-size="11" lengthAdjust="spacingAndGlyphs" textLength="123" x="313.5" y="402.4761">fhirTypeFilters: String</text><polygon fill="none" points="304.5,408.0703,300.5,414.0703,308.5,414.0703" style="stroke: #1963A0; stroke-width: 1.0;"/><text fill="#000000" font-family="sans-serif" font-size="11" lengthAdjust="spacingAndGlyphs" textLength="152" x="313.5" y="415.2808">fhirSearchPageSize: String</text><polygon fill="none" points="304.5,420.875,300.5,426.875,308.5,426.875" style="stroke: #1963A0; stroke-width: 1.0;"/><text fill="#000000" font-family="sans-serif" font-size="11" lengthAdjust="spacingAndGlyphs" textLength="120" x="313.5" y="428.0854">stepCtx: StepContext</text><line style="stroke: #A80036; stroke-width: 1.5;" x1="294.5" x2="935.5" y1="434.6797" y2="434.6797"/><ellipse cx="304.5" cy="445.6797" fill="#84BE84" rx="3" ry="3" style="stroke: #038048; stroke-width: 1.0;"/><text fill="#000000" font-family="sans-serif" font-size="11" lengthAdjust="spacingAndGlyphs" textLength="103" x="313.5" y="448.8901">readItem(): Object</text><ellipse cx="304.5" cy="458.4844" fill="#84BE84" rx="3" ry="3" style="stroke: #038048; stroke-width: 1.0;"/><text fill="#000000" font-family="sans-serif" font-size="11" lengthAdjust="spacingAndGlyphs" textLength="132" x="313.5" y="461.6948">open(Serializable): void</text><ellipse cx="304.5" cy="471.2891" fill="#84BE84" rx="3" ry="3" style="stroke: #038048; stroke-width: 1.0;"/><text fill="#000000" font-family="sans-serif" font-size="11" lengthAdjust="spacingAndGlyphs" textLength="69" x="313.5" y="474.4995">close(): void</text><ellipse cx="304.5" cy="484.0938" fill="#84BE84" rx="3" ry="3" style="stroke: #038048; stroke-width: 1.0;"/><text fill="#000000" font-family="sans-serif" font-size="11" lengthAdjust="spacingAndGlyphs" textLength="162" x="313.5" y="487.3042">checkpointInfo(): Serializable</text></a><!--MD5=[5e9c722e1bb9814a6a5e5a39940a9890]
class com.ibm.fhir.jbatch.bulkdata.export.system.ExportPartitionAnalyzer--><a href="ExportPartitionAnalyzer.html" target="_top" title="ExportPartitionAnalyzer.html" xlink:actuate="onRequest" xlink:href="ExportPartitionAnalyzer.html" xlink:show="new" xlink:title="ExportPartitionAnalyzer.html" xlink:type="simple"><rect fill="#FEFECE" filter="url(#f9ba1x4j8yn0v)" height="86.4141" id="com.ibm.fhir.jbatch.bulkdata.export.system.ExportPartitionAnalyzer" style="stroke: #A80036; stroke-width: 1.5;" width="255" x="1709.5" y="292.5"/><ellipse cx="1760.75" cy="308.5" fill="#ADD1B2" rx="11" ry="11" style="stroke: #A80036; stroke-width: 1.0;"/><path d="M1763.7188,314.1406 Q1763.1406,314.4375 1762.5,314.5781 Q1761.8594,314.7344 1761.1563,314.7344 Q1758.6563,314.7344 1757.3281,313.0938 Q1756.0156,311.4375 1756.0156,308.3125 Q1756.0156,305.1875 1757.3281,303.5313 Q1758.6563,301.875 1761.1563,301.875 Q1761.8594,301.875 1762.5,302.0313 Q1763.1563,302.1875 1763.7188,302.4844 L1763.7188,305.2031 Q1763.0938,304.625 1762.5,304.3594 Q1761.9063,304.0781 1761.2813,304.0781 Q1759.9375,304.0781 1759.25,305.1563 Q1758.5625,306.2188 1758.5625,308.3125 Q1758.5625,310.4063 1759.25,311.4844 Q1759.9375,312.5469 1761.2813,312.5469 Q1761.9063,312.5469 1762.5,312.2813 Q1763.0938,312 1763.7188,311.4219 L1763.7188,314.1406 Z "/><text fill="#000000" font-family="sans-serif" font-size="12" lengthAdjust="spacingAndGlyphs" textLength="144" x="1781.25" y="312.6543">ExportPartitionAnalyzer</text><line style="stroke: #A80036; stroke-width: 1.5;" x1="1710.5" x2="1963.5" y1="324.5" y2="324.5"/><polygon fill="none" points="1720.5,331.5,1716.5,337.5,1724.5,337.5" style="stroke: #1963A0; stroke-width: 1.0;"/><text fill="#000000" font-family="sans-serif" font-size="11" lengthAdjust="spacingAndGlyphs" textLength="128" x="1729.5" y="338.7104">jobContext: JobContext</text><line style="stroke: #A80036; stroke-width: 1.5;" x1="1710.5" x2="1963.5" y1="345.3047" y2="345.3047"/><ellipse cx="1720.5" cy="356.3047" fill="#84BE84" rx="3" ry="3" style="stroke: #038048; stroke-width: 1.0;"/><text fill="#000000" font-family="sans-serif" font-size="11" lengthAdjust="spacingAndGlyphs" textLength="229" x="1729.5" y="359.5151">analyzeStatus(BatchStatus, String): void</text><ellipse cx="1720.5" cy="369.1094" fill="#84BE84" rx="3" ry="3" style="stroke: #038048; stroke-width: 1.0;"/><text fill="#000000" font-family="sans-serif" font-size="11" lengthAdjust="spacingAndGlyphs" textLength="222" x="1729.5" y="372.3198">analyzeCollectorData(Serializable): void</text></a><!--MD5=[bb6bbdc930c996675e9cf6c01ad8872d]
class com.ibm.fhir.jbatch.bulkdata.export.system.ChunkWriter--><a href="ChunkWriter.html" target="_top" title="ChunkWriter.html" xlink:actuate="onRequest" xlink:href="ChunkWriter.html" xlink:show="new" xlink:title="ChunkWriter.html" xlink:type="simple"><rect fill="#FEFECE" filter="url(#f9ba1x4j8yn0v)" height="201.6563" id="com.ibm.fhir.jbatch.bulkdata.export.system.ChunkWriter" style="stroke: #A80036; stroke-width: 1.5;" width="199" x="971.5" y="234.5"/><ellipse cx="1028.75" cy="250.5" fill="#ADD1B2" rx="11" ry="11" style="stroke: #A80036; stroke-width: 1.0;"/><path d="M1031.7188,256.1406 Q1031.1406,256.4375 1030.5,256.5781 Q1029.8594,256.7344 1029.1563,256.7344 Q1026.6563,256.7344 1025.3281,255.0938 Q1024.0156,253.4375 1024.0156,250.3125 Q1024.0156,247.1875 1025.3281,245.5313 Q1026.6563,243.875 1029.1563,243.875 Q1029.8594,243.875 1030.5,244.0313 Q1031.1563,244.1875 1031.7188,244.4844 L1031.7188,247.2031 Q1031.0938,246.625 1030.5,246.3594 Q1029.9063,246.0781 1029.2813,246.0781 Q1027.9375,246.0781 1027.25,247.1563 Q1026.5625,248.2188 1026.5625,250.3125 Q1026.5625,252.4063 1027.25,253.4844 Q1027.9375,254.5469 1029.2813,254.5469 Q1029.9063,254.5469 1030.5,254.2813 Q1031.0938,254 1031.7188,253.4219 L1031.7188,256.1406 Z "/><text fill="#000000" font-family="sans-serif" font-size="12" lengthAdjust="spacingAndGlyphs" textLength="76" x="1049.25" y="254.6543">ChunkWriter</text><line style="stroke: #A80036; stroke-width: 1.5;" x1="972.5" x2="1169.5" y1="266.5" y2="266.5"/><polygon fill="none" points="982.5,273.5,978.5,279.5,986.5,279.5" style="stroke: #1963A0; stroke-width: 1.0;"/><text fill="#000000" font-family="sans-serif" font-size="11" lengthAdjust="spacingAndGlyphs" textLength="147" x="991.5" y="280.7104">cosApiKeyProperty: String</text><polygon fill="none" points="982.5,286.3047,978.5,292.3047,986.5,292.3047" style="stroke: #1963A0; stroke-width: 1.0;"/><text fill="#000000" font-family="sans-serif" font-size="11" lengthAdjust="spacingAndGlyphs" textLength="112" x="991.5" y="293.5151">cosSrvinstId: String</text><polygon fill="none" points="982.5,299.1094,978.5,305.1094,986.5,305.1094" style="stroke: #1963A0; stroke-width: 1.0;"/><text fill="#000000" font-family="sans-serif" font-size="11" lengthAdjust="spacingAndGlyphs" textLength="127" x="991.5" y="306.3198">cosEndpointUrl: String</text><polygon fill="none" points="982.5,311.9141,978.5,317.9141,986.5,317.9141" style="stroke: #1963A0; stroke-width: 1.0;"/><text fill="#000000" font-family="sans-serif" font-size="11" lengthAdjust="spacingAndGlyphs" textLength="109" x="991.5" y="319.1245">cosLocation: String</text><polygon fill="none" points="982.5,324.7188,978.5,330.7188,986.5,330.7188" style="stroke: #1963A0; stroke-width: 1.0;"/><text fill="#000000" font-family="sans-serif" font-size="11" lengthAdjust="spacingAndGlyphs" textLength="133" x="991.5" y="331.9292">cosBucketName: String</text><polygon fill="none" points="982.5,337.5234,978.5,343.5234,986.5,343.5234" style="stroke: #1963A0; stroke-width: 1.0;"/><text fill="#000000" font-family="sans-serif" font-size="11" lengthAdjust="spacingAndGlyphs" textLength="157" x="991.5" y="344.7339">cosBucketPathPrefix: String</text><polygon fill="none" points="982.5,350.3281,978.5,356.3281,986.5,356.3281" style="stroke: #1963A0; stroke-width: 1.0;"/><text fill="#000000" font-family="sans-serif" font-size="11" lengthAdjust="spacingAndGlyphs" textLength="141" x="991.5" y="357.5386">cosCredentialIbm: String</text><polygon fill="none" points="982.5,363.1328,978.5,369.1328,986.5,369.1328" style="stroke: #1963A0; stroke-width: 1.0;"/><text fill="#000000" font-family="sans-serif" font-size="11" lengthAdjust="spacingAndGlyphs" textLength="141" x="991.5" y="370.3433">fhirResourceType: String</text><polygon fill="none" points="982.5,375.9375,978.5,381.9375,986.5,381.9375" style="stroke: #1963A0; stroke-width: 1.0;"/><text fill="#000000" font-family="sans-serif" font-size="11" lengthAdjust="spacingAndGlyphs" textLength="120" x="991.5" y="383.1479">stepCtx: StepContext</text><polygon fill="none" points="982.5,388.7422,978.5,394.7422,986.5,394.7422" style="stroke: #1963A0; stroke-width: 1.0;"/><text fill="#000000" font-family="sans-serif" font-size="11" lengthAdjust="spacingAndGlyphs" textLength="128" x="991.5" y="395.9526">jobContext: JobContext</text><line style="stroke: #A80036; stroke-width: 1.5;" x1="972.5" x2="1169.5" y1="402.5469" y2="402.5469"/><ellipse cx="982.5" cy="413.5469" fill="#84BE84" rx="3" ry="3" style="stroke: #038048; stroke-width: 1.0;"/><text fill="#000000" font-family="sans-serif" font-size="11" lengthAdjust="spacingAndGlyphs" textLength="173" x="991.5" y="416.7573">writeItems(List&lt;Object&gt;): void</text><ellipse cx="982.5" cy="426.3516" fill="#84BE84" rx="3" ry="3" style="stroke: #038048; stroke-width: 1.0;"/><text fill="#000000" font-family="sans-serif" font-size="11" lengthAdjust="spacingAndGlyphs" textLength="132" x="991.5" y="429.562">open(Serializable): void</text></a><!--MD5=[f2820938bdc66d2fba69c218ac84d369]
class com.ibm.fhir.jbatch.bulkdata.export.system.ExportPartitionCollector--><a href="ExportPartitionCollector.html" target="_top" title="ExportPartitionCollector.html" xlink:actuate="onRequest" xlink:href="ExportPartitionCollector.html" xlink:show="new" xlink:title="ExportPartitionCollector.html" xlink:type="simple"><rect fill="#FEFECE" filter="url(#f9ba1x4j8yn0v)" height="73.6094" id="com.ibm.fhir.jbatch.bulkdata.export.system.ExportPartitionCollector" style="stroke: #A80036; stroke-width: 1.5;" width="216" x="1458" y="298.5"/><ellipse cx="1489.2" cy="314.5" fill="#ADD1B2" rx="11" ry="11" style="stroke: #A80036; stroke-width: 1.0;"/><path d="M1492.1688,320.1406 Q1491.5906,320.4375 1490.95,320.5781 Q1490.3094,320.7344 1489.6063,320.7344 Q1487.1063,320.7344 1485.7781,319.0938 Q1484.4656,317.4375 1484.4656,314.3125 Q1484.4656,311.1875 1485.7781,309.5313 Q1487.1063,307.875 1489.6063,307.875 Q1490.3094,307.875 1490.95,308.0313 Q1491.6063,308.1875 1492.1688,308.4844 L1492.1688,311.2031 Q1491.5438,310.625 1490.95,310.3594 Q1490.3563,310.0781 1489.7313,310.0781 Q1488.3875,310.0781 1487.7,311.1563 Q1487.0125,312.2188 1487.0125,314.3125 Q1487.0125,316.4063 1487.7,317.4844 Q1488.3875,318.5469 1489.7313,318.5469 Q1490.3563,318.5469 1490.95,318.2813 Q1491.5438,318 1492.1688,317.4219 L1492.1688,320.1406 Z "/><text fill="#000000" font-family="sans-serif" font-size="12" lengthAdjust="spacingAndGlyphs" textLength="148" x="1506.8" y="318.6543">ExportPartitionCollector</text><line style="stroke: #A80036; stroke-width: 1.5;" x1="1459" x2="1673" y1="330.5" y2="330.5"/><polygon fill="none" points="1469,337.5,1465,343.5,1473,343.5" style="stroke: #1963A0; stroke-width: 1.0;"/><text fill="#000000" font-family="sans-serif" font-size="11" lengthAdjust="spacingAndGlyphs" textLength="120" x="1478" y="344.7104">stepCtx: StepContext</text><line style="stroke: #A80036; stroke-width: 1.5;" x1="1459" x2="1673" y1="351.3047" y2="351.3047"/><ellipse cx="1469" cy="362.3047" fill="#84BE84" rx="3" ry="3" style="stroke: #038048; stroke-width: 1.0;"/><text fill="#000000" font-family="sans-serif" font-size="11" lengthAdjust="spacingAndGlyphs" textLength="190" x="1478" y="365.5151">collectPartitionData(): Serializable</text></a><!--MD5=[a8b629700760d7220a4e55614b594b11]
class com.ibm.fhir.jbatch.bulkdata.export.system.SystemExportPartitionMapper--><a href="SystemExportPartitionMapper.html" target="_top" title="SystemExportPartitionMapper.html" xlink:actuate="onRequest" xlink:href="SystemExportPartitionMapper.html" xlink:show="new" xlink:title="SystemExportPartitionMapper.html" xlink:type="simple"><rect fill="#FEFECE" filter="url(#f9ba1x4j8yn0v)" height="73.6094" id="com.ibm.fhir.jbatch.bulkdata.export.system.SystemExportPartitionMapper" style="stroke: #A80036; stroke-width: 1.5;" width="217" x="1205.5" y="298.5"/><ellipse cx="1220.5" cy="314.5" fill="#ADD1B2" rx="11" ry="11" style="stroke: #A80036; stroke-width: 1.0;"/><path d="M1223.4688,320.1406 Q1222.8906,320.4375 1222.25,320.5781 Q1221.6094,320.7344 1220.9063,320.7344 Q1218.4063,320.7344 1217.0781,319.0938 Q1215.7656,317.4375 1215.7656,314.3125 Q1215.7656,311.1875 1217.0781,309.5313 Q1218.4063,307.875 1220.9063,307.875 Q1221.6094,307.875 1222.25,308.0313 Q1222.9063,308.1875 1223.4688,308.4844 L1223.4688,311.2031 Q1222.8438,310.625 1222.25,310.3594 Q1221.6563,310.0781 1221.0313,310.0781 Q1219.6875,310.0781 1219,311.1563 Q1218.3125,312.2188 1218.3125,314.3125 Q1218.3125,316.4063 1219,317.4844 Q1219.6875,318.5469 1221.0313,318.5469 Q1221.6563,318.5469 1222.25,318.2813 Q1222.8438,318 1223.4688,317.4219 L1223.4688,320.1406 Z "/><text fill="#000000" font-family="sans-serif" font-size="12" lengthAdjust="spacingAndGlyphs" textLength="185" x="1234.5" y="318.6543">SystemExportPartitionMapper</text><line style="stroke: #A80036; stroke-width: 1.5;" x1="1206.5" x2="1421.5" y1="330.5" y2="330.5"/><polygon fill="none" points="1216.5,337.5,1212.5,343.5,1220.5,343.5" style="stroke: #1963A0; stroke-width: 1.0;"/><text fill="#000000" font-family="sans-serif" font-size="11" lengthAdjust="spacingAndGlyphs" textLength="141" x="1225.5" y="344.7104">fhirResourceType: String</text><line style="stroke: #A80036; stroke-width: 1.5;" x1="1206.5" x2="1421.5" y1="351.3047" y2="351.3047"/><ellipse cx="1216.5" cy="362.3047" fill="#84BE84" rx="3" ry="3" style="stroke: #038048; stroke-width: 1.0;"/><text fill="#000000" font-family="sans-serif" font-size="11" lengthAdjust="spacingAndGlyphs" textLength="166" x="1225.5" y="365.5151">mapPartitions(): PartitionPlan</text></a><!--MD5=[6989c0df3b46339ee373cba47512fa12]
class javax.batch.api.listener.JobListener--><rect fill="#FEFECE" filter="url(#f9ba1x4j8yn0v)" height="73.6094" id="javax.batch.api.listener.JobListener" style="stroke: #A80036; stroke-width: 1.5;" width="119" x="80.5" y="43"/><ellipse cx="103.6" cy="59" fill="#B4A7E5" rx="11" ry="11" style="stroke: #A80036; stroke-width: 1.0;"/><path d="M99.5219,54.7656 L99.5219,52.6094 L106.9125,52.6094 L106.9125,54.7656 L104.4438,54.7656 L104.4438,62.8438 L106.9125,62.8438 L106.9125,65 L99.5219,65 L99.5219,62.8438 L101.9906,62.8438 L101.9906,54.7656 L99.5219,54.7656 Z "/><text fill="#000000" font-family="sans-serif" font-size="12" font-style="italic" lengthAdjust="spacingAndGlyphs" textLength="69" x="119.4" y="63.1543">JobListener</text><line style="stroke: #A80036; stroke-width: 1.5;" x1="81.5" x2="198.5" y1="75" y2="75"/><line style="stroke: #A80036; stroke-width: 1.5;" x1="81.5" x2="198.5" y1="83" y2="83"/><ellipse cx="91.5" cy="94" fill="#84BE84" rx="3" ry="3" style="stroke: #038048; stroke-width: 1.0;"/><text fill="#000000" font-family="sans-serif" font-size="11" font-style="italic" lengthAdjust="spacingAndGlyphs" textLength="93" x="100.5" y="97.2104">beforeJob(): void</text><ellipse cx="91.5" cy="106.8047" fill="#84BE84" rx="3" ry="3" style="stroke: #038048; stroke-width: 1.0;"/><text fill="#000000" font-family="sans-serif" font-size="11" font-style="italic" lengthAdjust="spacingAndGlyphs" textLength="83" x="100.5" y="110.0151">afterJob(): void</text><!--MD5=[f5f528b51f1c46550a0d517e968fc43d]
class javax.batch.api.chunk.AbstractItemReader--><rect fill="#FEFECE" filter="url(#f9ba1x4j8yn0v)" height="60.8047" id="javax.batch.api.chunk.AbstractItemReader" style="stroke: #A80036; stroke-width: 1.5;" width="157" x="657.5" y="49.5"/><ellipse cx="672.5" cy="65.5" fill="#A9DCDF" rx="11" ry="11" style="stroke: #A80036; stroke-width: 1.0;"/><path d="M672.6094,60.8438 L671.4531,65.9219 L673.7813,65.9219 L672.6094,60.8438 Z M671.125,58.6094 L674.1094,58.6094 L677.4688,71 L675.0156,71 L674.25,67.9375 L670.9688,67.9375 L670.2188,71 L667.7813,71 L671.125,58.6094 Z "/><text fill="#000000" font-family="sans-serif" font-size="12" font-style="italic" lengthAdjust="spacingAndGlyphs" textLength="125" x="686.5" y="69.6543">AbstractItemReader</text><line style="stroke: #A80036; stroke-width: 1.5;" x1="658.5" x2="813.5" y1="81.5" y2="81.5"/><line style="stroke: #A80036; stroke-width: 1.5;" x1="658.5" x2="813.5" y1="89.5" y2="89.5"/><ellipse cx="668.5" cy="100.5" fill="#84BE84" rx="3" ry="3" style="stroke: #038048; stroke-width: 1.0;"/><text fill="#000000" font-family="sans-serif" font-size="11" font-style="italic" lengthAdjust="spacingAndGlyphs" textLength="103" x="677.5" y="103.7104">readItem(): Object</text><!--MD5=[facca438f42939cbf10d84b0b1038a9b]
class javax.batch.api.chunk.AbstractItemWriter--><rect fill="#FEFECE" filter="url(#f9ba1x4j8yn0v)" height="60.8047" id="javax.batch.api.chunk.AbstractItemWriter" style="stroke: #A80036; stroke-width: 1.5;" width="199" x="849.5" y="49.5"/><ellipse cx="887" cy="65.5" fill="#A9DCDF" rx="11" ry="11" style="stroke: #A80036; stroke-width: 1.0;"/><path d="M887.1094,60.8438 L885.9531,65.9219 L888.2813,65.9219 L887.1094,60.8438 Z M885.625,58.6094 L888.6094,58.6094 L891.9688,71 L889.5156,71 L888.75,67.9375 L885.4688,67.9375 L884.7188,71 L882.2813,71 L885.625,58.6094 Z "/><text fill="#000000" font-family="sans-serif" font-size="12" font-style="italic" lengthAdjust="spacingAndGlyphs" textLength="117" x="906" y="69.6543">AbstractItemWriter</text><line style="stroke: #A80036; stroke-width: 1.5;" x1="850.5" x2="1047.5" y1="81.5" y2="81.5"/><line style="stroke: #A80036; stroke-width: 1.5;" x1="850.5" x2="1047.5" y1="89.5" y2="89.5"/><ellipse cx="860.5" cy="100.5" fill="#84BE84" rx="3" ry="3" style="stroke: #038048; stroke-width: 1.0;"/><text fill="#000000" font-family="sans-serif" font-size="11" font-style="italic" lengthAdjust="spacingAndGlyphs" textLength="173" x="869.5" y="103.7104">writeItems(List&lt;Object&gt;): void</text><!--MD5=[fd79d334c205ad16ac123f08e5530250]
class javax.batch.api.partition.PartitionAnalyzer--><rect fill="#FEFECE" filter="url(#f9ba1x4j8yn0v)" height="73.6094" id="javax.batch.api.partition.PartitionAnalyzer" style="stroke: #A80036; stroke-width: 1.5;" width="255" x="1709.5" y="43"/><ellipse cx="1780.75" cy="59" fill="#B4A7E5" rx="11" ry="11" style="stroke: #A80036; stroke-width: 1.0;"/><path d="M1776.6719,54.7656 L1776.6719,52.6094 L1784.0625,52.6094 L1784.0625,54.7656 L1781.5938,54.7656 L1781.5938,62.8438 L1784.0625,62.8438 L1784.0625,65 L1776.6719,65 L1776.6719,62.8438 L1779.1406,62.8438 L1779.1406,54.7656 L1776.6719,54.7656 Z "/><text fill="#000000" font-family="sans-serif" font-size="12" font-style="italic" lengthAdjust="spacingAndGlyphs" textLength="104" x="1801.25" y="63.1543">PartitionAnalyzer</text><line style="stroke: #A80036; stroke-width: 1.5;" x1="1710.5" x2="1963.5" y1="75" y2="75"/><line style="stroke: #A80036; stroke-width: 1.5;" x1="1710.5" x2="1963.5" y1="83" y2="83"/><ellipse cx="1720.5" cy="94" fill="#84BE84" rx="3" ry="3" style="stroke: #038048; stroke-width: 1.0;"/><text fill="#000000" font-family="sans-serif" font-size="11" font-style="italic" lengthAdjust="spacingAndGlyphs" textLength="222" x="1729.5" y="97.2104">analyzeCollectorData(Serializable): void</text><ellipse cx="1720.5" cy="106.8047" fill="#84BE84" rx="3" ry="3" style="stroke: #038048; stroke-width: 1.0;"/><text fill="#000000" font-family="sans-serif" font-size="11" font-style="italic" lengthAdjust="spacingAndGlyphs" textLength="229" x="1729.5" y="110.0151">analyzeStatus(BatchStatus, String): void</text><!--MD5=[ec278b7c5a58ff604a92c6ce1079f2ad]
class javax.batch.api.partition.PartitionCollector--><rect fill="#FEFECE" filter="url(#f9ba1x4j8yn0v)" height="60.8047" id="javax.batch.api.partition.PartitionCollector" style="stroke: #A80036; stroke-width: 1.5;" width="216" x="1458" y="49.5"/><ellipse cx="1507.75" cy="65.5" fill="#B4A7E5" rx="11" ry="11" style="stroke: #A80036; stroke-width: 1.0;"/><path d="M1503.6719,61.2656 L1503.6719,59.1094 L1511.0625,59.1094 L1511.0625,61.2656 L1508.5938,61.2656 L1508.5938,69.3438 L1511.0625,69.3438 L1511.0625,71.5 L1503.6719,71.5 L1503.6719,69.3438 L1506.1406,69.3438 L1506.1406,61.2656 L1503.6719,61.2656 Z "/><text fill="#000000" font-family="sans-serif" font-size="12" font-style="italic" lengthAdjust="spacingAndGlyphs" textLength="108" x="1528.25" y="69.6543">PartitionCollector</text><line style="stroke: #A80036; stroke-width: 1.5;" x1="1459" x2="1673" y1="81.5" y2="81.5"/><line style="stroke: #A80036; stroke-width: 1.5;" x1="1459" x2="1673" y1="89.5" y2="89.5"/><ellipse cx="1469" cy="100.5" fill="#84BE84" rx="3" ry="3" style="stroke: #038048; stroke-width: 1.0;"/><text fill="#000000" font-family="sans-serif" font-size="11" font-style="italic" lengthAdjust="spacingAndGlyphs" textLength="190" x="1478" y="103.7104">collectPartitionData(): Serializable</text><!--MD5=[349d5de3748636f0f75f09a8b175f4bb]
class javax.batch.api.partition.PartitionMapper--><rect fill="#FEFECE" filter="url(#f9ba1x4j8yn0v)" height="60.8047" id="javax.batch.api.partition.PartitionMapper" style="stroke: #A80036; stroke-width: 1.5;" width="192" x="1231" y="49.5"/><ellipse cx="1273" cy="65.5" fill="#B4A7E5" rx="11" ry="11" style="stroke: #A80036; stroke-width: 1.0;"/><path d="M1268.9219,61.2656 L1268.9219,59.1094 L1276.3125,59.1094 L1276.3125,61.2656 L1273.8438,61.2656 L1273.8438,69.3438 L1276.3125,69.3438 L1276.3125,71.5 L1268.9219,71.5 L1268.9219,69.3438 L1271.3906,69.3438 L1271.3906,61.2656 L1268.9219,61.2656 Z "/><text fill="#000000" font-family="sans-serif" font-size="12" font-style="italic" lengthAdjust="spacingAndGlyphs" textLength="100" x="1293" y="69.6543">PartitionMapper</text><line style="stroke: #A80036; stroke-width: 1.5;" x1="1232" x2="1422" y1="81.5" y2="81.5"/><line style="stroke: #A80036; stroke-width: 1.5;" x1="1232" x2="1422" y1="89.5" y2="89.5"/><ellipse cx="1242" cy="100.5" fill="#84BE84" rx="3" ry="3" style="stroke: #038048; stroke-width: 1.0;"/><text fill="#000000" font-family="sans-serif" font-size="11" font-style="italic" lengthAdjust="spacingAndGlyphs" textLength="166" x="1251" y="103.7104">mapPartitions(): PartitionPlan</text><!--MD5=[632251b799b846a504ee0951703244b6]
reverse link javax.batch.api.listener.JobListener to com.ibm.fhir.jbatch.bulkdata.export.system.ExportJobListener--><path d="M140,137.2256 C140,179.6775 140,237.2615 140,279.4344 " fill="none" id="javax.batch.api.listener.JobListener&lt;-com.ibm.fhir.jbatch.bulkdata.export.system.ExportJobListener" style="stroke: #A80036; stroke-width: 1.0; stroke-dasharray: 7.0,7.0;"/><polygon fill="none" points="133.0001,137.1519,140,117.1519,147.0001,137.1519,133.0001,137.1519" style="stroke: #A80036; stroke-width: 1.0;"/><!--MD5=[452b27d127bf10a4704db7daba30c9ad]
reverse link javax.batch.api.chunk.AbstractItemReader to com.ibm.fhir.jbatch.bulkdata.export.system.ChunkReader--><path d="M712.7325,129.1309 C705.9911,143.366 698.2404,159.732 690.1158,176.8878 " fill="none" id="javax.batch.api.chunk.AbstractItemReader&lt;-com.ibm.fhir.jbatch.bulkdata.export.system.ChunkReader" style="stroke: #A80036; stroke-width: 1.0;"/><polygon fill="none" points="706.6381,125.6449,721.5248,110.5655,719.2909,131.6371,706.6381,125.6449" style="stroke: #A80036; stroke-width: 1.0;"/><!--MD5=[11728c6e381557db6ca717e7b0147e1b]
reverse link javax.batch.api.partition.PartitionAnalyzer to com.ibm.fhir.jbatch.bulkdata.export.system.ExportPartitionAnalyzer--><path d="M1837,137.2784 C1837,184.2379 1837,249.6871 1837,292.3205 " fill="none" id="javax.batch.api.partition.PartitionAnalyzer&lt;-com.ibm.fhir.jbatch.bulkdata.export.system.ExportPartitionAnalyzer" style="stroke: #A80036; stroke-width: 1.0; stroke-dasharray: 7.0,7.0;"/><polygon fill="none" points="1830.0001,137.1519,1837,117.1519,1844.0001,137.1519,1830.0001,137.1519" style="stroke: #A80036; stroke-width: 1.0;"/><!--MD5=[0b7a5d0cc4c8a9b90ec03e2ebbe65386]
reverse link javax.batch.api.chunk.AbstractItemWriter to com.ibm.fhir.jbatch.bulkdata.export.system.ChunkWriter--><path d="M972.2487,128.6889 C986.5061,158.5477 1005.2976,197.9019 1022.6581,234.2595 " fill="none" id="javax.batch.api.chunk.AbstractItemWriter&lt;-com.ibm.fhir.jbatch.bulkdata.export.system.ChunkWriter" style="stroke: #A80036; stroke-width: 1.0;"/><polygon fill="none" points="965.896,131.6298,963.5949,110.5655,978.5296,125.5973,965.896,131.6298" style="stroke: #A80036; stroke-width: 1.0;"/><!--MD5=[855e4824ca4910f6bd514021fe2175cc]
reverse link javax.batch.api.partition.PartitionCollector to com.ibm.fhir.jbatch.bulkdata.export.system.ExportPartitionCollector--><path d="M1566,130.714 C1566,180.127 1566,254.0813 1566,298.2846 " fill="none" id="javax.batch.api.partition.PartitionCollector&lt;-com.ibm.fhir.jbatch.bulkdata.export.system.ExportPartitionCollector" style="stroke: #A80036; stroke-width: 1.0; stroke-dasharray: 7.0,7.0;"/><polygon fill="none" points="1559.0001,130.5655,1566,110.5655,1573.0001,130.5655,1559.0001,130.5655" style="stroke: #A80036; stroke-width: 1.0;"/><!--MD5=[bd02be26d316bc605e1aad7a32d58631]
reverse link javax.batch.api.partition.PartitionMapper to com.ibm.fhir.jbatch.bulkdata.export.system.SystemExportPartitionMapper--><path d="M1324.4196,130.714 C1321.9055,180.127 1318.1426,254.0813 1315.8935,298.2846 " fill="none" id="javax.batch.api.partition.PartitionMapper&lt;-com.ibm.fhir.jbatch.bulkdata.export.system.SystemExportPartitionMapper" style="stroke: #A80036; stroke-width: 1.0; stroke-dasharray: 7.0,7.0;"/><polygon fill="none" points="1317.4375,130.1839,1325.4448,110.5655,1331.4194,130.8954,1317.4375,130.1839" style="stroke: #A80036; stroke-width: 1.0;"/><text fill="#888888" font-family="sans-serif" font-size="10" lengthAdjust="spacingAndGlyphs" textLength="186" x="906.5" y="529.2822">UMLDoclet 2.0.7, PlantUML 1.2019.12</text><!--MD5=[c636bca7917e9ed64797b3e7125fbbe8]
@startuml
    namespace com.ibm.fhir.jbatch.bulkdata.export.system {

        class ExportJobListener [[ExportJobListener.html]] {
            ~currentExecutionStartTimeInMS: long
            ~jobContext: JobContext
            ~dataSourcesInfo: String
            +afterJob(): void
            +beforeJob(): void
        }

        class ChunkReader [[ChunkReader.html]] {
            ~isSingleCosObject: boolean
            ~pageNum: int
            ~pageSize: int
            ~searchParametersForResoureTypes: Map<Class<? extends Resource>, List<Map<String, List<String>>>>
            ~indexOfCurrentTypeFilter: int
            ~loadedResourceIds: Set<String>
            ~isDoDuplicationCheck: boolean
            ~fhirPersistence: FHIRPersistence
            ~resourceType: Class<? extends Resource>
            ~fhirTenant: String
            ~fhirDatastoreId: String
            ~fhirResourceType: String
            ~fhirSearchFromDate: String
            ~fhirSearchToDate: String
            ~fhirTypeFilters: String
            ~fhirSearchPageSize: String
            ~stepCtx: StepContext
            +readItem(): Object
            +open(Serializable): void
            +close(): void
            +checkpointInfo(): Serializable
        }

        class ExportPartitionAnalyzer [[ExportPartitionAnalyzer.html]] {
            ~jobContext: JobContext
            +analyzeStatus(BatchStatus, String): void
            +analyzeCollectorData(Serializable): void
        }

        class ChunkWriter [[ChunkWriter.html]] {
            ~cosApiKeyProperty: String
            ~cosSrvinstId: String
            ~cosEndpointUrl: String
            ~cosLocation: String
            ~cosBucketName: String
            ~cosBucketPathPrefix: String
            ~cosCredentialIbm: String
            ~fhirResourceType: String
            ~stepCtx: StepContext
            ~jobContext: JobContext
            +writeItems(List<Object>): void
            +open(Serializable): void
        }

        class ExportPartitionCollector [[ExportPartitionCollector.html]] {
            ~stepCtx: StepContext
            +collectPartitionData(): Serializable
        }

        class SystemExportPartitionMapper [[SystemExportPartitionMapper.html]] {
            ~fhirResourceType: String
            +mapPartitions(): PartitionPlan
        }

        javax.batch.api.listener.JobListener <|.. ExportJobListener
        javax.batch.api.chunk.AbstractItemReader <|- - ChunkReader
        javax.batch.api.partition.PartitionAnalyzer <|.. ExportPartitionAnalyzer
        javax.batch.api.chunk.AbstractItemWriter <|- - ChunkWriter
        javax.batch.api.partition.PartitionCollector <|.. ExportPartitionCollector
        javax.batch.api.partition.PartitionMapper <|.. SystemExportPartitionMapper
    }

    namespace javax.batch.api.listener {
        interface JobListener {
            {abstract} +beforeJob(): void
            {abstract} +afterJob(): void
        }
    }

    namespace javax.batch.api.chunk {
        abstract class AbstractItemReader {
            {abstract} +readItem(): Object
        }
        abstract class AbstractItemWriter {
            {abstract} +writeItems(List<Object>): void
        }
    }

    namespace javax.batch.api.partition {
        interface PartitionAnalyzer {
            {abstract} +analyzeCollectorData(Serializable): void
            {abstract} +analyzeStatus(BatchStatus, String): void
        }
        interface PartitionCollector {
            {abstract} +collectPartitionData(): Serializable
        }
        interface PartitionMapper {
            {abstract} +mapPartitions(): PartitionPlan
        }
    }

    center footer UMLDoclet 2.0.7, PlantUML 1.2019.12
@enduml

PlantUML version 1.2019.12(Sun Nov 03 10:24:54 UTC 2019)
(APACHE source distribution)
Java Runtime: OpenJDK Runtime Environment
JVM: OpenJDK 64-Bit Server VM
Java Version: 11.0.8+10
Operating System: Linux
Default Encoding: UTF-8
Language: en
Country: null
--></g></svg>