<?xml version="1.0" encoding="UTF-8" standalone="no"?><svg xmlns="http://www.w3.org/2000/svg" xmlns:xlink="http://www.w3.org/1999/xlink" contentScriptType="application/ecmascript" contentStyleType="text/css" height="135px" preserveAspectRatio="none" style="width:247px;height:135px;" version="1.1" viewBox="0 0 247 135" width="247px" zoomAndPan="magnify"><defs><filter height="300%" id="f17uvekuk5hwor" width="300%" x="-1" y="-1"><feGaussianBlur result="blurOut" stdDeviation="2.0"/><feColorMatrix in="blurOut" result="blurOut2" type="matrix" values="0 0 0 0 0 0 0 0 0 0 0 0 0 0 0 0 0 0 .4 0"/><feOffset dx="4.0" dy="4.0" in="blurOut2" result="blurOut3"/><feBlend in="SourceGraphic" in2="blurOut3" mode="normal"/></filter></defs><g><!--MD5=[6187f6d4a3b04306bee88bd593ebfd72]
class com.ibm.fhir.search.parameters.SortParameter--><a href="SortParameter.html" target="_top" title="SortParameter.html" xlink:actuate="onRequest" xlink:href="SortParameter.html" xlink:show="new" xlink:title="SortParameter.html" xlink:type="simple"><rect fill="#FEFECE" filter="url(#f17uvekuk5hwor)" height="98.0859" id="com.ibm.fhir.search.parameters.SortParameter" style="stroke: #A80036; stroke-width: 1.5;" width="229" x="7" y="7"/><ellipse cx="40.9" cy="26.1328" fill="#ADD1B2" rx="11" ry="11" style="stroke: #A80036; stroke-width: 1.0;"/><path d="M43.3731,32.2759 Q42.7921,32.5747 42.1529,32.7241 Q41.5138,32.8735 40.8082,32.8735 Q38.3014,32.8735 36.9815,31.2217 Q35.6617,29.5698 35.6617,26.4487 Q35.6617,23.3193 36.9815,21.6675 Q38.3014,20.0156 40.8082,20.0156 Q41.5138,20.0156 42.1612,20.165 Q42.8087,20.3145 43.3731,20.6133 L43.3731,23.3359 Q42.7423,22.7549 42.1488,22.4851 Q41.5553,22.2153 40.9244,22.2153 Q39.5797,22.2153 38.8949,23.282 Q38.2101,24.3486 38.2101,26.4487 Q38.2101,28.5405 38.8949,29.6072 Q39.5797,30.6738 40.9244,30.6738 Q41.5553,30.6738 42.1488,30.4041 Q42.7423,30.1343 43.3731,29.5532 Z "/><text fill="#000000" font-family="sans-serif" font-size="14" lengthAdjust="spacingAndGlyphs" textLength="98" x="87.6" y="25.5352">SortParameter</text><text fill="#000000" font-family="sans-serif" font-size="10" lengthAdjust="spacingAndGlyphs" textLength="155" x="59.1" y="38.1563">com.ibm.fhir.search.parameters</text><line style="stroke: #A80036; stroke-width: 1.5;" x1="8" x2="235" y1="45.2656" y2="45.2656"/><ellipse cx="18" cy="56.2656" fill="#84BE84" rx="3" ry="3" style="stroke: #038048; stroke-width: 1.0;"/><text fill="#000000" font-family="sans-serif" font-size="11" lengthAdjust="spacingAndGlyphs" textLength="203" x="27" y="59.9004">SortParameter(String, Type, Direction)</text><ellipse cx="18" cy="69.2207" fill="#84BE84" rx="3" ry="3" style="stroke: #038048; stroke-width: 1.0;"/><text fill="#000000" font-family="sans-serif" font-size="11" lengthAdjust="spacingAndGlyphs" textLength="91" x="27" y="72.8555">getCode(): String</text><ellipse cx="18" cy="82.1758" fill="#84BE84" rx="3" ry="3" style="stroke: #038048; stroke-width: 1.0;"/><text fill="#000000" font-family="sans-serif" font-size="11" lengthAdjust="spacingAndGlyphs" textLength="83" x="27" y="85.8105">getType(): Type</text><ellipse cx="18" cy="95.1309" fill="#84BE84" rx="3" ry="3" style="stroke: #038048; stroke-width: 1.0;"/><text fill="#000000" font-family="sans-serif" font-size="11" lengthAdjust="spacingAndGlyphs" textLength="129" x="27" y="98.7656">getDirection(): Direction</text></a><text fill="#888888" font-family="sans-serif" font-size="10" lengthAdjust="spacingAndGlyphs" textLength="182" x="30.5" y="121.7539">UMLDoclet 2.0.7, PlantUML 1.2019.12</text><!--MD5=[e6334936041201d8482da51d271a754e]
@startuml
    set namespaceSeparator none
    hide empty fields
    hide empty methods

    class "<size:14>SortParameter\n<size:10>com.ibm.fhir.search.parameters" as com.ibm.fhir.search.parameters.SortParameter [[SortParameter.html]] {
        +SortParameter(String, Type, Direction)
        +getCode(): String
        +getType(): Type
        +getDirection(): Direction
    }

    center footer UMLDoclet 2.0.7, PlantUML 1.2019.12
@enduml

PlantUML version 1.2019.12(Sun Nov 03 05:24:54 EST 2019)
(APACHE source distribution)
Java Runtime: OpenJDK Runtime Environment
JVM: OpenJDK 64-Bit Server VM
Java Version: 11.0.4+11
Operating System: Mac OS X
Default Encoding: UTF-8
Language: en
Country: US
--></g></svg>