<?xml version="1.0" encoding="UTF-8" standalone="no"?><svg xmlns="http://www.w3.org/2000/svg" xmlns:xlink="http://www.w3.org/1999/xlink" contentScriptType="application/ecmascript" contentStyleType="text/css" height="572px" preserveAspectRatio="none" style="width:945px;height:572px;" version="1.1" viewBox="0 0 945 572" width="945px" zoomAndPan="magnify"><defs><filter height="300%" id="f1ap2vis4i8fok" width="300%" x="-1" y="-1"><feGaussianBlur result="blurOut" stdDeviation="2.0"/><feColorMatrix in="blurOut" result="blurOut2" type="matrix" values="0 0 0 0 0 0 0 0 0 0 0 0 0 0 0 0 0 0 .4 0"/><feOffset dx="4.0" dy="4.0" in="blurOut2" result="blurOut3"/><feBlend in="SourceGraphic" in2="blurOut3" mode="normal"/></filter></defs><g><!--MD5=[dbdf107e8cc6d0c0c4aa45aa5ac5d167]
class com.ibm.fhir.model.resource.NutritionOrder--><a href="NutritionOrder.html" target="_top" title="NutritionOrder.html" xlink:actuate="onRequest" xlink:href="NutritionOrder.html" xlink:show="new" xlink:title="NutritionOrder.html" xlink:type="simple"><rect fill="#FEFECE" filter="url(#f1ap2vis4i8fok)" height="314.8359" id="com.ibm.fhir.model.resource.NutritionOrder" style="stroke: #A80036; stroke-width: 1.5;" width="331" x="270" y="127"/><ellipse cx="361.75" cy="145.9688" fill="#ADD1B2" rx="11" ry="11" style="stroke: #A80036; stroke-width: 1.0;"/><path d="M364.7188,151.6094 Q364.1406,151.9063 363.5,152.0469 Q362.8594,152.2031 362.1563,152.2031 Q359.6563,152.2031 358.3281,150.5625 Q357.0156,148.9063 357.0156,145.7813 Q357.0156,142.6563 358.3281,141 Q359.6563,139.3438 362.1563,139.3438 Q362.8594,139.3438 363.5,139.5 Q364.1563,139.6563 364.7188,139.9531 L364.7188,142.6719 Q364.0938,142.0938 363.5,141.8281 Q362.9063,141.5469 362.2813,141.5469 Q360.9375,141.5469 360.25,142.625 Q359.5625,143.6875 359.5625,145.7813 Q359.5625,147.875 360.25,148.9531 Q360.9375,150.0156 362.2813,150.0156 Q362.9063,150.0156 363.5,149.75 Q364.0938,149.4688 364.7188,148.8906 L364.7188,151.6094 Z "/><text fill="#000000" font-family="sans-serif" font-size="14" lengthAdjust="spacingAndGlyphs" textLength="97" x="403.25" y="144.9951">NutritionOrder</text><text fill="#000000" font-family="sans-serif" font-size="10" lengthAdjust="spacingAndGlyphs" textLength="139" x="382.25" y="157.5791">com.ibm.fhir.model.resource</text><line style="stroke: #A80036; stroke-width: 1.5;" x1="271" x2="600" y1="164.9375" y2="164.9375"/><ellipse cx="281" cy="175.9375" fill="#84BE84" rx="3" ry="3" style="stroke: #038048; stroke-width: 1.0;"/><text fill="#000000" font-family="sans-serif" font-size="11" lengthAdjust="spacingAndGlyphs" textLength="172" x="290" y="179.1479">getIdentifier(): List&lt;Identifier&gt;</text><ellipse cx="281" cy="188.7422" fill="#84BE84" rx="3" ry="3" style="stroke: #038048; stroke-width: 1.0;"/><text fill="#000000" font-family="sans-serif" font-size="11" lengthAdjust="spacingAndGlyphs" textLength="249" x="290" y="191.9526">getInstantiatesCanonical(): List&lt;Canonical&gt;</text><ellipse cx="281" cy="201.5469" fill="#84BE84" rx="3" ry="3" style="stroke: #038048; stroke-width: 1.0;"/><text fill="#000000" font-family="sans-serif" font-size="11" lengthAdjust="spacingAndGlyphs" textLength="171" x="290" y="204.7573">getInstantiatesUri(): List&lt;Uri&gt;</text><ellipse cx="281" cy="214.3516" fill="#84BE84" rx="3" ry="3" style="stroke: #038048; stroke-width: 1.0;"/><text fill="#000000" font-family="sans-serif" font-size="11" lengthAdjust="spacingAndGlyphs" textLength="155" x="290" y="217.562">getInstantiates(): List&lt;Uri&gt;</text><ellipse cx="281" cy="227.1563" fill="#84BE84" rx="3" ry="3" style="stroke: #038048; stroke-width: 1.0;"/><text fill="#000000" font-family="sans-serif" font-size="11" lengthAdjust="spacingAndGlyphs" textLength="189" x="290" y="230.3667">getStatus(): NutritionOrderStatus</text><ellipse cx="281" cy="239.9609" fill="#84BE84" rx="3" ry="3" style="stroke: #038048; stroke-width: 1.0;"/><text fill="#000000" font-family="sans-serif" font-size="11" lengthAdjust="spacingAndGlyphs" textLength="179" x="290" y="243.1714">getIntent(): NutritionOrderIntent</text><ellipse cx="281" cy="252.7656" fill="#84BE84" rx="3" ry="3" style="stroke: #038048; stroke-width: 1.0;"/><text fill="#000000" font-family="sans-serif" font-size="11" lengthAdjust="spacingAndGlyphs" textLength="130" x="290" y="255.9761">getPatient(): Reference</text><ellipse cx="281" cy="265.5703" fill="#84BE84" rx="3" ry="3" style="stroke: #038048; stroke-width: 1.0;"/><text fill="#000000" font-family="sans-serif" font-size="11" lengthAdjust="spacingAndGlyphs" textLength="148" x="290" y="268.7808">getEncounter(): Reference</text><ellipse cx="281" cy="278.375" fill="#84BE84" rx="3" ry="3" style="stroke: #038048; stroke-width: 1.0;"/><text fill="#000000" font-family="sans-serif" font-size="11" lengthAdjust="spacingAndGlyphs" textLength="142" x="290" y="281.5854">getDateTime(): DateTime</text><ellipse cx="281" cy="291.1797" fill="#84BE84" rx="3" ry="3" style="stroke: #038048; stroke-width: 1.0;"/><text fill="#000000" font-family="sans-serif" font-size="11" lengthAdjust="spacingAndGlyphs" textLength="136" x="290" y="294.3901">getOrderer(): Reference</text><ellipse cx="281" cy="303.9844" fill="#84BE84" rx="3" ry="3" style="stroke: #038048; stroke-width: 1.0;"/><text fill="#000000" font-family="sans-serif" font-size="11" lengthAdjust="spacingAndGlyphs" textLength="230" x="290" y="307.1948">getAllergyIntolerance(): List&lt;Reference&gt;</text><ellipse cx="281" cy="316.7891" fill="#84BE84" rx="3" ry="3" style="stroke: #038048; stroke-width: 1.0;"/><text fill="#000000" font-family="sans-serif" font-size="11" lengthAdjust="spacingAndGlyphs" textLength="305" x="290" y="319.9995">getFoodPreferenceModifier(): List&lt;CodeableConcept&gt;</text><ellipse cx="281" cy="329.5938" fill="#84BE84" rx="3" ry="3" style="stroke: #038048; stroke-width: 1.0;"/><text fill="#000000" font-family="sans-serif" font-size="11" lengthAdjust="spacingAndGlyphs" textLength="286" x="290" y="332.8042">getExcludeFoodModifier(): List&lt;CodeableConcept&gt;</text><ellipse cx="281" cy="342.3984" fill="#84BE84" rx="3" ry="3" style="stroke: #038048; stroke-width: 1.0;"/><text fill="#000000" font-family="sans-serif" font-size="11" lengthAdjust="spacingAndGlyphs" textLength="126" x="290" y="345.6089">getOralDiet(): OralDiet</text><ellipse cx="281" cy="355.2031" fill="#84BE84" rx="3" ry="3" style="stroke: #038048; stroke-width: 1.0;"/><text fill="#000000" font-family="sans-serif" font-size="11" lengthAdjust="spacingAndGlyphs" textLength="208" x="290" y="358.4136">getSupplement(): List&lt;Supplement&gt;</text><ellipse cx="281" cy="368.0078" fill="#84BE84" rx="3" ry="3" style="stroke: #038048; stroke-width: 1.0;"/><text fill="#000000" font-family="sans-serif" font-size="11" lengthAdjust="spacingAndGlyphs" textLength="206" x="290" y="371.2183">getEnteralFormula(): EnteralFormula</text><ellipse cx="281" cy="380.8125" fill="#84BE84" rx="3" ry="3" style="stroke: #038048; stroke-width: 1.0;"/><text fill="#000000" font-family="sans-serif" font-size="11" lengthAdjust="spacingAndGlyphs" textLength="158" x="290" y="384.0229">getNote(): List&lt;Annotation&gt;</text><ellipse cx="281" cy="393.6172" fill="#84BE84" rx="3" ry="3" style="stroke: #038048; stroke-width: 1.0;"/><text fill="#000000" font-family="sans-serif" font-size="11" lengthAdjust="spacingAndGlyphs" textLength="129" x="290" y="396.8276">hasChildren(): boolean</text><ellipse cx="281" cy="406.4219" fill="#84BE84" rx="3" ry="3" style="stroke: #038048; stroke-width: 1.0;"/><text fill="#000000" font-family="sans-serif" font-size="11" lengthAdjust="spacingAndGlyphs" textLength="176" x="290" y="409.6323">accept(String, int, Visitor): void</text><ellipse cx="281" cy="419.2266" fill="#84BE84" rx="3" ry="3" style="stroke: #038048; stroke-width: 1.0;"/><text fill="#000000" font-family="sans-serif" font-size="11" lengthAdjust="spacingAndGlyphs" textLength="107" x="290" y="422.437">toBuilder(): Builder</text><ellipse cx="281" cy="432.0313" fill="#84BE84" rx="3" ry="3" style="stroke: #038048; stroke-width: 1.0;"/><text fill="#000000" font-family="sans-serif" font-size="11" lengthAdjust="spacingAndGlyphs" text-decoration="underline" textLength="95" x="290" y="435.2417">builder(): Builder</text></a><!--MD5=[5a92b081cf79a7020013158c64ef85a4]
class com.ibm.fhir.model.resource.DomainResource--><a href="DomainResource.html" target="_top" title="DomainResource.html" xlink:actuate="onRequest" xlink:href="DomainResource.html" xlink:show="new" xlink:title="DomainResource.html" xlink:type="simple"><rect fill="#FEFECE" filter="url(#f1ap2vis4i8fok)" height="58.7422" id="com.ibm.fhir.model.resource.DomainResource" style="stroke: #A80036; stroke-width: 1.5;" width="171" x="350" y="8"/><ellipse cx="365" cy="26.9688" fill="#A9DCDF" rx="11" ry="11" style="stroke: #A80036; stroke-width: 1.0;"/><path d="M365.1094,22.3125 L363.9531,27.3906 L366.2813,27.3906 L365.1094,22.3125 Z M363.625,20.0781 L366.6094,20.0781 L369.9688,32.4688 L367.5156,32.4688 L366.75,29.4063 L363.4688,29.4063 L362.7188,32.4688 L360.2813,32.4688 L363.625,20.0781 Z "/><text fill="#000000" font-family="sans-serif" font-size="14" font-style="italic" lengthAdjust="spacingAndGlyphs" textLength="120" x="388.5" y="25.9951">DomainResource</text><text fill="#000000" font-family="sans-serif" font-size="10" font-style="italic" lengthAdjust="spacingAndGlyphs" textLength="139" x="379" y="38.5791">com.ibm.fhir.model.resource</text><line style="stroke: #A80036; stroke-width: 1.5;" x1="351" x2="520" y1="45.9375" y2="45.9375"/><ellipse cx="361" cy="56.9375" fill="#84BE84" rx="3" ry="3" style="stroke: #038048; stroke-width: 1.0;"/><text fill="#000000" font-family="sans-serif" font-size="11" font-style="italic" lengthAdjust="spacingAndGlyphs" textLength="107" x="370" y="60.1479">toBuilder(): Builder</text></a><!--MD5=[2e54cbdb727911340782d4ee3d902001]
class com.ibm.fhir.model.resource.NutritionOrder.Builder--><a href="NutritionOrder.Builder.html" target="_top" title="NutritionOrder.Builder.html" xlink:actuate="onRequest" xlink:href="NutritionOrder.Builder.html" xlink:show="new" xlink:title="NutritionOrder.Builder.html" xlink:type="simple"><rect fill="#FEFECE" filter="url(#f1ap2vis4i8fok)" height="37.9375" id="com.ibm.fhir.model.resource.NutritionOrder.Builder" style="stroke: #A80036; stroke-width: 1.5;" width="181" x="6" y="502"/><ellipse cx="21" cy="520.9688" fill="#ADD1B2" rx="11" ry="11" style="stroke: #A80036; stroke-width: 1.0;"/><path d="M23.9688,526.6094 Q23.3906,526.9063 22.75,527.0469 Q22.1094,527.2031 21.4063,527.2031 Q18.9063,527.2031 17.5781,525.5625 Q16.2656,523.9063 16.2656,520.7813 Q16.2656,517.6563 17.5781,516 Q18.9063,514.3438 21.4063,514.3438 Q22.1094,514.3438 22.75,514.5 Q23.4063,514.6563 23.9688,514.9531 L23.9688,517.6719 Q23.3438,517.0938 22.75,516.8281 Q22.1563,516.5469 21.5313,516.5469 Q20.1875,516.5469 19.5,517.625 Q18.8125,518.6875 18.8125,520.7813 Q18.8125,522.875 19.5,523.9531 Q20.1875,525.0156 21.5313,525.0156 Q22.1563,525.0156 22.75,524.75 Q23.3438,524.4688 23.9688,523.8906 L23.9688,526.6094 Z "/><text fill="#000000" font-family="sans-serif" font-size="14" lengthAdjust="spacingAndGlyphs" textLength="149" x="35" y="519.9951">NutritionOrder.Builder</text><text fill="#000000" font-family="sans-serif" font-size="10" lengthAdjust="spacingAndGlyphs" textLength="139" x="40" y="532.5791">com.ibm.fhir.model.resource</text></a><!--MD5=[aba2b9568c69a059354510973f0db1ce]
class com.ibm.fhir.model.resource.NutritionOrder.OralDiet--><a href="NutritionOrder.OralDiet.html" target="_top" title="NutritionOrder.OralDiet.html" xlink:actuate="onRequest" xlink:href="NutritionOrder.OralDiet.html" xlink:show="new" xlink:title="NutritionOrder.OralDiet.html" xlink:type="simple"><rect fill="#FEFECE" filter="url(#f1ap2vis4i8fok)" height="37.9375" id="com.ibm.fhir.model.resource.NutritionOrder.OralDiet" style="stroke: #A80036; stroke-width: 1.5;" width="188" x="222.5" y="502"/><ellipse cx="237.5" cy="520.9688" fill="#ADD1B2" rx="11" ry="11" style="stroke: #A80036; stroke-width: 1.0;"/><path d="M240.4688,526.6094 Q239.8906,526.9063 239.25,527.0469 Q238.6094,527.2031 237.9063,527.2031 Q235.4063,527.2031 234.0781,525.5625 Q232.7656,523.9063 232.7656,520.7813 Q232.7656,517.6563 234.0781,516 Q235.4063,514.3438 237.9063,514.3438 Q238.6094,514.3438 239.25,514.5 Q239.9063,514.6563 240.4688,514.9531 L240.4688,517.6719 Q239.8438,517.0938 239.25,516.8281 Q238.6563,516.5469 238.0313,516.5469 Q236.6875,516.5469 236,517.625 Q235.3125,518.6875 235.3125,520.7813 Q235.3125,522.875 236,523.9531 Q236.6875,525.0156 238.0313,525.0156 Q238.6563,525.0156 239.25,524.75 Q239.8438,524.4688 240.4688,523.8906 L240.4688,526.6094 Z "/><text fill="#000000" font-family="sans-serif" font-size="14" lengthAdjust="spacingAndGlyphs" textLength="156" x="251.5" y="519.9951">NutritionOrder.OralDiet</text><text fill="#000000" font-family="sans-serif" font-size="10" lengthAdjust="spacingAndGlyphs" textLength="139" x="260" y="532.5791">com.ibm.fhir.model.resource</text></a><!--MD5=[bae862799ca3d6e7eccf827b0604a225]
class com.ibm.fhir.model.resource.NutritionOrder.Supplement--><a href="NutritionOrder.Supplement.html" target="_top" title="NutritionOrder.Supplement.html" xlink:actuate="onRequest" xlink:href="NutritionOrder.Supplement.html" xlink:show="new" xlink:title="NutritionOrder.Supplement.html" xlink:type="simple"><rect fill="#FEFECE" filter="url(#f1ap2vis4i8fok)" height="37.9375" id="com.ibm.fhir.model.resource.NutritionOrder.Supplement" style="stroke: #A80036; stroke-width: 1.5;" width="217" x="446" y="502"/><ellipse cx="461" cy="520.9688" fill="#ADD1B2" rx="11" ry="11" style="stroke: #A80036; stroke-width: 1.0;"/><path d="M463.9688,526.6094 Q463.3906,526.9063 462.75,527.0469 Q462.1094,527.2031 461.4063,527.2031 Q458.9063,527.2031 457.5781,525.5625 Q456.2656,523.9063 456.2656,520.7813 Q456.2656,517.6563 457.5781,516 Q458.9063,514.3438 461.4063,514.3438 Q462.1094,514.3438 462.75,514.5 Q463.4063,514.6563 463.9688,514.9531 L463.9688,517.6719 Q463.3438,517.0938 462.75,516.8281 Q462.1563,516.5469 461.5313,516.5469 Q460.1875,516.5469 459.5,517.625 Q458.8125,518.6875 458.8125,520.7813 Q458.8125,522.875 459.5,523.9531 Q460.1875,525.0156 461.5313,525.0156 Q462.1563,525.0156 462.75,524.75 Q463.3438,524.4688 463.9688,523.8906 L463.9688,526.6094 Z "/><text fill="#000000" font-family="sans-serif" font-size="14" lengthAdjust="spacingAndGlyphs" textLength="185" x="475" y="519.9951">NutritionOrder.Supplement</text><text fill="#000000" font-family="sans-serif" font-size="10" lengthAdjust="spacingAndGlyphs" textLength="139" x="498" y="532.5791">com.ibm.fhir.model.resource</text></a><!--MD5=[e3341c53d5e667aea42a35eb977098f4]
class com.ibm.fhir.model.resource.NutritionOrder.EnteralFormula--><a href="NutritionOrder.EnteralFormula.html" target="_top" title="NutritionOrder.EnteralFormula.html" xlink:actuate="onRequest" xlink:href="NutritionOrder.EnteralFormula.html" xlink:show="new" xlink:title="NutritionOrder.EnteralFormula.html" xlink:type="simple"><rect fill="#FEFECE" filter="url(#f1ap2vis4i8fok)" height="37.9375" id="com.ibm.fhir.model.resource.NutritionOrder.EnteralFormula" style="stroke: #A80036; stroke-width: 1.5;" width="236" x="698.5" y="502"/><ellipse cx="713.5" cy="520.9688" fill="#ADD1B2" rx="11" ry="11" style="stroke: #A80036; stroke-width: 1.0;"/><path d="M716.4688,526.6094 Q715.8906,526.9063 715.25,527.0469 Q714.6094,527.2031 713.9063,527.2031 Q711.4063,527.2031 710.0781,525.5625 Q708.7656,523.9063 708.7656,520.7813 Q708.7656,517.6563 710.0781,516 Q711.4063,514.3438 713.9063,514.3438 Q714.6094,514.3438 715.25,514.5 Q715.9063,514.6563 716.4688,514.9531 L716.4688,517.6719 Q715.8438,517.0938 715.25,516.8281 Q714.6563,516.5469 714.0313,516.5469 Q712.6875,516.5469 712,517.625 Q711.3125,518.6875 711.3125,520.7813 Q711.3125,522.875 712,523.9531 Q712.6875,525.0156 714.0313,525.0156 Q714.6563,525.0156 715.25,524.75 Q715.8438,524.4688 716.4688,523.8906 L716.4688,526.6094 Z "/><text fill="#000000" font-family="sans-serif" font-size="14" lengthAdjust="spacingAndGlyphs" textLength="204" x="727.5" y="519.9951">NutritionOrder.EnteralFormula</text><text fill="#000000" font-family="sans-serif" font-size="10" lengthAdjust="spacingAndGlyphs" textLength="139" x="760" y="532.5791">com.ibm.fhir.model.resource</text></a><!--MD5=[562db84323d2d698cb5851d77afe0923]
reverse link com.ibm.fhir.model.resource.DomainResource to com.ibm.fhir.model.resource.NutritionOrder--><path d="M435.5,87.5899 C435.5,99.4832 435.5,112.8022 435.5,126.7545 " fill="none" id="com.ibm.fhir.model.resource.DomainResource&lt;-com.ibm.fhir.model.resource.NutritionOrder" style="stroke: #A80036; stroke-width: 1.0;"/><polygon fill="none" points="428.5001,87.294,435.5,67.294,442.5001,87.2939,428.5001,87.294" style="stroke: #A80036; stroke-width: 1.0;"/><!--MD5=[720687509dad2e6fa6b9b09ecd2ac2ce]
reverse link com.ibm.fhir.model.resource.NutritionOrder to com.ibm.fhir.model.resource.NutritionOrder.Builder--><path d="M257.3989,408.7504 C205.165,445.191 154.023,480.8697 123.883,501.8965 " fill="none" id="com.ibm.fhir.model.resource.NutritionOrder&lt;-com.ibm.fhir.model.resource.NutritionOrder.Builder" style="stroke: #A80036; stroke-width: 1.0;"/><ellipse cx="263.4112" cy="404.556" fill="#FFFFFF" rx="8" ry="8" style="stroke: #A80036; stroke-width: 1.0;"/><line style="stroke: #A80036; stroke-width: 1.0;" x1="256.8501" x2="269.9723" y1="409.1334" y2="399.9787"/><line style="stroke: #A80036; stroke-width: 1.0;" x1="258.8339" x2="267.9885" y1="397.9949" y2="411.1171"/><!--MD5=[b05392dee9396f75da14f91aa8b49038]
reverse link com.ibm.fhir.model.resource.NutritionOrder to com.ibm.fhir.model.resource.NutritionOrder.OralDiet--><path d="M349.2854,455.8425 C340.1275,474.0427 332.0352,490.1253 326.1815,501.759 " fill="none" id="com.ibm.fhir.model.resource.NutritionOrder&lt;-com.ibm.fhir.model.resource.NutritionOrder.OralDiet" style="stroke: #A80036; stroke-width: 1.0;"/><ellipse cx="352.5294" cy="449.3952" fill="#FFFFFF" rx="8" ry="8" style="stroke: #A80036; stroke-width: 1.0;"/><line style="stroke: #A80036; stroke-width: 1.0;" x1="348.9335" x2="356.1253" y1="456.5415" y2="442.2489"/><line style="stroke: #A80036; stroke-width: 1.0;" x1="345.3831" x2="359.6757" y1="445.7993" y2="452.9911"/><!--MD5=[e5174d0d398dcc62dce7b62b4217e12f]
reverse link com.ibm.fhir.model.resource.NutritionOrder to com.ibm.fhir.model.resource.NutritionOrder.Supplement--><path d="M521.7146,455.8425 C530.8725,474.0427 538.9648,490.1253 544.8185,501.759 " fill="none" id="com.ibm.fhir.model.resource.NutritionOrder&lt;-com.ibm.fhir.model.resource.NutritionOrder.Supplement" style="stroke: #A80036; stroke-width: 1.0;"/><ellipse cx="518.4706" cy="449.3952" fill="#FFFFFF" rx="8" ry="8" style="stroke: #A80036; stroke-width: 1.0;"/><line style="stroke: #A80036; stroke-width: 1.0;" x1="522.0665" x2="514.8747" y1="456.5415" y2="442.2489"/><line style="stroke: #A80036; stroke-width: 1.0;" x1="511.3243" x2="525.6169" y1="452.9911" y2="445.7993"/><!--MD5=[37dec55cef65db79dba4b7f8ed0d3b64]
reverse link com.ibm.fhir.model.resource.NutritionOrder to com.ibm.fhir.model.resource.NutritionOrder.EnteralFormula--><path d="M614.3646,395.5275 C680.2242,436.4089 747.9453,478.4457 785.8838,501.9954 " fill="none" id="com.ibm.fhir.model.resource.NutritionOrder&lt;-com.ibm.fhir.model.resource.NutritionOrder.EnteralFormula" style="stroke: #A80036; stroke-width: 1.0;"/><ellipse cx="608.0238" cy="391.5915" fill="#FFFFFF" rx="8" ry="8" style="stroke: #A80036; stroke-width: 1.0;"/><line style="stroke: #A80036; stroke-width: 1.0;" x1="614.8208" x2="601.2268" y1="395.8106" y2="387.3724"/><line style="stroke: #A80036; stroke-width: 1.0;" x1="603.8047" x2="612.2429" y1="398.3885" y2="384.7945"/><text fill="#888888" font-family="sans-serif" font-size="10" lengthAdjust="spacingAndGlyphs" textLength="186" x="383.5" y="559.2822">UMLDoclet 2.0.7, PlantUML 1.2019.12</text><!--MD5=[4b07d992f0076216e14acaa884f0cbf3]
@startuml
    set namespaceSeparator none
    hide empty fields
    hide empty methods

    class "<size:14>NutritionOrder\n<size:10>com.ibm.fhir.model.resource" as com.ibm.fhir.model.resource.NutritionOrder [[NutritionOrder.html]] {
        +getIdentifier(): List<Identifier>
        +getInstantiatesCanonical(): List<Canonical>
        +getInstantiatesUri(): List<Uri>
        +getInstantiates(): List<Uri>
        +getStatus(): NutritionOrderStatus
        +getIntent(): NutritionOrderIntent
        +getPatient(): Reference
        +getEncounter(): Reference
        +getDateTime(): DateTime
        +getOrderer(): Reference
        +getAllergyIntolerance(): List<Reference>
        +getFoodPreferenceModifier(): List<CodeableConcept>
        +getExcludeFoodModifier(): List<CodeableConcept>
        +getOralDiet(): OralDiet
        +getSupplement(): List<Supplement>
        +getEnteralFormula(): EnteralFormula
        +getNote(): List<Annotation>
        +hasChildren(): boolean
        +accept(String, int, Visitor): void
        +toBuilder(): Builder
        {static} +builder(): Builder
    }

    abstract class "<size:14>DomainResource\n<size:10>com.ibm.fhir.model.resource" as com.ibm.fhir.model.resource.DomainResource [[DomainResource.html]] {
        {abstract} +toBuilder(): Builder
    }
    class "<size:14>NutritionOrder.Builder\n<size:10>com.ibm.fhir.model.resource" as com.ibm.fhir.model.resource.NutritionOrder.Builder [[NutritionOrder.Builder.html]]
    class "<size:14>NutritionOrder.OralDiet\n<size:10>com.ibm.fhir.model.resource" as com.ibm.fhir.model.resource.NutritionOrder.OralDiet [[NutritionOrder.OralDiet.html]]
    class "<size:14>NutritionOrder.Supplement\n<size:10>com.ibm.fhir.model.resource" as com.ibm.fhir.model.resource.NutritionOrder.Supplement [[NutritionOrder.Supplement.html]]
    class "<size:14>NutritionOrder.EnteralFormula\n<size:10>com.ibm.fhir.model.resource" as com.ibm.fhir.model.resource.NutritionOrder.EnteralFormula [[NutritionOrder.EnteralFormula.html]]

    com.ibm.fhir.model.resource.DomainResource <|- - com.ibm.fhir.model.resource.NutritionOrder
    com.ibm.fhir.model.resource.NutritionOrder +- - com.ibm.fhir.model.resource.NutritionOrder.Builder
    com.ibm.fhir.model.resource.NutritionOrder +- - com.ibm.fhir.model.resource.NutritionOrder.OralDiet
    com.ibm.fhir.model.resource.NutritionOrder +- - com.ibm.fhir.model.resource.NutritionOrder.Supplement
    com.ibm.fhir.model.resource.NutritionOrder +- - com.ibm.fhir.model.resource.NutritionOrder.EnteralFormula

    center footer UMLDoclet 2.0.7, PlantUML 1.2019.12
@enduml

PlantUML version 1.2019.12(Sun Nov 03 10:24:54 UTC 2019)
(APACHE source distribution)
Java Runtime: OpenJDK Runtime Environment
JVM: OpenJDK 64-Bit Server VM
Java Version: 11.0.8+10
Operating System: Linux
Default Encoding: UTF-8
Language: en
Country: null
--></g></svg>