<?xml version="1.0" encoding="UTF-8" standalone="no"?><svg xmlns="http://www.w3.org/2000/svg" xmlns:xlink="http://www.w3.org/1999/xlink" contentScriptType="application/ecmascript" contentStyleType="text/css" height="218px" preserveAspectRatio="none" style="width:287px;height:218px;" version="1.1" viewBox="0 0 287 218" width="287px" zoomAndPan="magnify"><defs><filter height="300%" id="f1elwhiw479f56" width="300%" x="-1" y="-1"><feGaussianBlur result="blurOut" stdDeviation="2.0"/><feColorMatrix in="blurOut" result="blurOut2" type="matrix" values="0 0 0 0 0 0 0 0 0 0 0 0 0 0 0 0 0 0 .4 0"/><feOffset dx="4.0" dy="4.0" in="blurOut2" result="blurOut3"/><feBlend in="SourceGraphic" in2="blurOut3" mode="normal"/></filter></defs><g><!--MD5=[c2fddf222f870e3323a9e300de531a7a]
class com.ibm.fhir.ig.davinci.pdex.plannet.PlanNetResourceProvider--><a href="PlanNetResourceProvider.html" target="_top" title="PlanNetResourceProvider.html" xlink:actuate="onRequest" xlink:href="PlanNetResourceProvider.html" xlink:show="new" xlink:title="PlanNetResourceProvider.html" xlink:type="simple"><rect fill="#FEFECE" filter="url(#f1elwhiw479f56)" height="58.7422" id="com.ibm.fhir.ig.davinci.pdex.plannet.PlanNetResourceProvider" style="stroke: #A80036; stroke-width: 1.5;" width="208" x="37" y="127"/><ellipse cx="52" cy="145.9688" fill="#ADD1B2" rx="11" ry="11" style="stroke: #A80036; stroke-width: 1.0;"/><path d="M54.9688,151.6094 Q54.3906,151.9063 53.75,152.0469 Q53.1094,152.2031 52.4063,152.2031 Q49.9063,152.2031 48.5781,150.5625 Q47.2656,148.9063 47.2656,145.7813 Q47.2656,142.6563 48.5781,141 Q49.9063,139.3438 52.4063,139.3438 Q53.1094,139.3438 53.75,139.5 Q54.4063,139.6563 54.9688,139.9531 L54.9688,142.6719 Q54.3438,142.0938 53.75,141.8281 Q53.1563,141.5469 52.5313,141.5469 Q51.1875,141.5469 50.5,142.625 Q49.8125,143.6875 49.8125,145.7813 Q49.8125,147.875 50.5,148.9531 Q51.1875,150.0156 52.5313,150.0156 Q53.1563,150.0156 53.75,149.75 Q54.3438,149.4688 54.9688,148.8906 L54.9688,151.6094 Z "/><text fill="#000000" font-family="sans-serif" font-size="14" lengthAdjust="spacingAndGlyphs" textLength="176" x="66" y="144.9951">PlanNetResourceProvider</text><text fill="#000000" font-family="sans-serif" font-size="10" lengthAdjust="spacingAndGlyphs" textLength="174" x="67" y="157.5791">com.ibm.fhir.ig.davinci.pdex.plannet</text><line style="stroke: #A80036; stroke-width: 1.5;" x1="38" x2="244" y1="164.9375" y2="164.9375"/><ellipse cx="48" cy="175.9375" fill="#84BE84" rx="3" ry="3" style="stroke: #038048; stroke-width: 1.0;"/><text fill="#000000" font-family="sans-serif" font-size="11" lengthAdjust="spacingAndGlyphs" textLength="125" x="57" y="179.1479">getPackageId(): String</text></a><!--MD5=[6f913f2e1af1734a43a771c794a87230]
class com.ibm.fhir.registry.util.PackageRegistryResourceProvider--><a href="../../../../registry/util/PackageRegistryResourceProvider.html" target="_top" title="../../../../registry/util/PackageRegistryResourceProvider.html" xlink:actuate="onRequest" xlink:href="../../../../registry/util/PackageRegistryResourceProvider.html" xlink:show="new" xlink:title="../../../../registry/util/PackageRegistryResourceProvider.html" xlink:type="simple"><rect fill="#FEFECE" filter="url(#f1elwhiw479f56)" height="58.7422" id="com.ibm.fhir.registry.util.PackageRegistryResourceProvider" style="stroke: #A80036; stroke-width: 1.5;" width="270" x="6" y="8"/><ellipse cx="21" cy="26.9688" fill="#A9DCDF" rx="11" ry="11" style="stroke: #A80036; stroke-width: 1.0;"/><path d="M21.1094,22.3125 L19.9531,27.3906 L22.2813,27.3906 L21.1094,22.3125 Z M19.625,20.0781 L22.6094,20.0781 L25.9688,32.4688 L23.5156,32.4688 L22.75,29.4063 L19.4688,29.4063 L18.7188,32.4688 L16.2813,32.4688 L19.625,20.0781 Z "/><text fill="#000000" font-family="sans-serif" font-size="14" font-style="italic" lengthAdjust="spacingAndGlyphs" textLength="238" x="35" y="25.9951">PackageRegistryResourceProvider</text><text fill="#000000" font-family="sans-serif" font-size="10" font-style="italic" lengthAdjust="spacingAndGlyphs" textLength="118" x="95" y="38.5791">com.ibm.fhir.registry.util</text><line style="stroke: #A80036; stroke-width: 1.5;" x1="7" x2="275" y1="45.9375" y2="45.9375"/><ellipse cx="17" cy="56.9375" fill="#84BE84" rx="3" ry="3" style="stroke: #038048; stroke-width: 1.0;"/><text fill="#000000" font-family="sans-serif" font-size="11" font-style="italic" lengthAdjust="spacingAndGlyphs" textLength="125" x="26" y="60.1479">getPackageId(): String</text></a><!--MD5=[444167ecd6d5fd658d25f552aa35cf51]
reverse link com.ibm.fhir.registry.util.PackageRegistryResourceProvider to com.ibm.fhir.ig.davinci.pdex.plannet.PlanNetResourceProvider--><path d="M141,87.3288 C141,100.7348 141,114.8139 141,126.7447 " fill="none" id="com.ibm.fhir.registry.util.PackageRegistryResourceProvider&lt;-com.ibm.fhir.ig.davinci.pdex.plannet.PlanNetResourceProvider" style="stroke: #A80036; stroke-width: 1.0;"/><polygon fill="none" points="134.0001,87.2218,141,67.2218,148.0001,87.2217,134.0001,87.2218" style="stroke: #A80036; stroke-width: 1.0;"/><text fill="#888888" font-family="sans-serif" font-size="10" lengthAdjust="spacingAndGlyphs" textLength="186" x="54" y="205.2822">UMLDoclet 2.0.7, PlantUML 1.2019.12</text><!--MD5=[b652fabd793f34315b0a5eeec6178e53]
@startuml
    set namespaceSeparator none
    hide empty fields
    hide empty methods

    class "<size:14>PlanNetResourceProvider\n<size:10>com.ibm.fhir.ig.davinci.pdex.plannet" as com.ibm.fhir.ig.davinci.pdex.plannet.PlanNetResourceProvider [[PlanNetResourceProvider.html]] {
        +getPackageId(): String
    }

    abstract class "<size:14>PackageRegistryResourceProvider\n<size:10>com.ibm.fhir.registry.util" as com.ibm.fhir.registry.util.PackageRegistryResourceProvider [[../../../../registry/util/PackageRegistryResourceProvider.html]] {
        {abstract} +getPackageId(): String
    }

    com.ibm.fhir.registry.util.PackageRegistryResourceProvider <|- - com.ibm.fhir.ig.davinci.pdex.plannet.PlanNetResourceProvider

    center footer UMLDoclet 2.0.7, PlantUML 1.2019.12
@enduml

PlantUML version 1.2019.12(Sun Nov 03 10:24:54 UTC 2019)
(APACHE source distribution)
Java Runtime: OpenJDK Runtime Environment
JVM: OpenJDK 64-Bit Server VM
Java Version: 11.0.9.1+1
Operating System: Linux
Default Encoding: UTF-8
Language: en
Country: null
--></g></svg>