<?xml version="1.0" encoding="UTF-8" standalone="no"?><svg xmlns="http://www.w3.org/2000/svg" xmlns:xlink="http://www.w3.org/1999/xlink" contentScriptType="application/ecmascript" contentStyleType="text/css" height="585px" preserveAspectRatio="none" style="width:530px;height:585px;" version="1.1" viewBox="0 0 530 585" width="530px" zoomAndPan="magnify"><defs><filter height="300%" id="f164zy64gbqtgw" width="300%" x="-1" y="-1"><feGaussianBlur result="blurOut" stdDeviation="2.0"/><feColorMatrix in="blurOut" result="blurOut2" type="matrix" values="0 0 0 0 0 0 0 0 0 0 0 0 0 0 0 0 0 0 .4 0"/><feOffset dx="4.0" dy="4.0" in="blurOut2" result="blurOut3"/><feBlend in="SourceGraphic" in2="blurOut3" mode="normal"/></filter></defs><g><!--MD5=[f31477416c0dfc9c69e32391ecd85ce4]
class com.ibm.fhir.model.resource.FamilyMemberHistory--><a href="FamilyMemberHistory.html" target="_top" title="FamilyMemberHistory.html" xlink:actuate="onRequest" xlink:href="FamilyMemberHistory.html" xlink:show="new" xlink:title="FamilyMemberHistory.html" xlink:type="simple"><rect fill="#FEFECE" filter="url(#f164zy64gbqtgw)" height="327.6406" id="com.ibm.fhir.model.resource.FamilyMemberHistory" style="stroke: #A80036; stroke-width: 1.5;" width="275" x="120.5" y="127"/><ellipse cx="180.75" cy="145.9688" fill="#ADD1B2" rx="11" ry="11" style="stroke: #A80036; stroke-width: 1.0;"/><path d="M183.7188,151.6094 Q183.1406,151.9063 182.5,152.0469 Q181.8594,152.2031 181.1563,152.2031 Q178.6563,152.2031 177.3281,150.5625 Q176.0156,148.9063 176.0156,145.7813 Q176.0156,142.6563 177.3281,141 Q178.6563,139.3438 181.1563,139.3438 Q181.8594,139.3438 182.5,139.5 Q183.1563,139.6563 183.7188,139.9531 L183.7188,142.6719 Q183.0938,142.0938 182.5,141.8281 Q181.9063,141.5469 181.2813,141.5469 Q179.9375,141.5469 179.25,142.625 Q178.5625,143.6875 178.5625,145.7813 Q178.5625,147.875 179.25,148.9531 Q179.9375,150.0156 181.2813,150.0156 Q181.9063,150.0156 182.5,149.75 Q183.0938,149.4688 183.7188,148.8906 L183.7188,151.6094 Z "/><text fill="#000000" font-family="sans-serif" font-size="14" lengthAdjust="spacingAndGlyphs" textLength="146" x="201.25" y="144.9951">FamilyMemberHistory</text><text fill="#000000" font-family="sans-serif" font-size="10" lengthAdjust="spacingAndGlyphs" textLength="139" x="204.75" y="157.5791">com.ibm.fhir.model.resource</text><line style="stroke: #A80036; stroke-width: 1.5;" x1="121.5" x2="394.5" y1="164.9375" y2="164.9375"/><ellipse cx="131.5" cy="175.9375" fill="#84BE84" rx="3" ry="3" style="stroke: #038048; stroke-width: 1.0;"/><text fill="#000000" font-family="sans-serif" font-size="11" lengthAdjust="spacingAndGlyphs" textLength="172" x="140.5" y="179.1479">getIdentifier(): List&lt;Identifier&gt;</text><ellipse cx="131.5" cy="188.7422" fill="#84BE84" rx="3" ry="3" style="stroke: #038048; stroke-width: 1.0;"/><text fill="#000000" font-family="sans-serif" font-size="11" lengthAdjust="spacingAndGlyphs" textLength="249" x="140.5" y="191.9526">getInstantiatesCanonical(): List&lt;Canonical&gt;</text><ellipse cx="131.5" cy="201.5469" fill="#84BE84" rx="3" ry="3" style="stroke: #038048; stroke-width: 1.0;"/><text fill="#000000" font-family="sans-serif" font-size="11" lengthAdjust="spacingAndGlyphs" textLength="171" x="140.5" y="204.7573">getInstantiatesUri(): List&lt;Uri&gt;</text><ellipse cx="131.5" cy="214.3516" fill="#84BE84" rx="3" ry="3" style="stroke: #038048; stroke-width: 1.0;"/><text fill="#000000" font-family="sans-serif" font-size="11" lengthAdjust="spacingAndGlyphs" textLength="184" x="140.5" y="217.562">getStatus(): FamilyHistoryStatus</text><ellipse cx="131.5" cy="227.1563" fill="#84BE84" rx="3" ry="3" style="stroke: #038048; stroke-width: 1.0;"/><text fill="#000000" font-family="sans-serif" font-size="11" lengthAdjust="spacingAndGlyphs" textLength="240" x="140.5" y="230.3667">getDataAbsentReason(): CodeableConcept</text><ellipse cx="131.5" cy="239.9609" fill="#84BE84" rx="3" ry="3" style="stroke: #038048; stroke-width: 1.0;"/><text fill="#000000" font-family="sans-serif" font-size="11" lengthAdjust="spacingAndGlyphs" textLength="130" x="140.5" y="243.1714">getPatient(): Reference</text><ellipse cx="131.5" cy="252.7656" fill="#84BE84" rx="3" ry="3" style="stroke: #038048; stroke-width: 1.0;"/><text fill="#000000" font-family="sans-serif" font-size="11" lengthAdjust="spacingAndGlyphs" textLength="114" x="140.5" y="255.9761">getDate(): DateTime</text><ellipse cx="131.5" cy="265.5703" fill="#84BE84" rx="3" ry="3" style="stroke: #038048; stroke-width: 1.0;"/><text fill="#000000" font-family="sans-serif" font-size="11" lengthAdjust="spacingAndGlyphs" textLength="101" x="140.5" y="268.7808">getName(): String</text><ellipse cx="131.5" cy="278.375" fill="#84BE84" rx="3" ry="3" style="stroke: #038048; stroke-width: 1.0;"/><text fill="#000000" font-family="sans-serif" font-size="11" lengthAdjust="spacingAndGlyphs" textLength="202" x="140.5" y="281.5854">getRelationship(): CodeableConcept</text><ellipse cx="131.5" cy="291.1797" fill="#84BE84" rx="3" ry="3" style="stroke: #038048; stroke-width: 1.0;"/><text fill="#000000" font-family="sans-serif" font-size="11" lengthAdjust="spacingAndGlyphs" textLength="154" x="140.5" y="294.3901">getSex(): CodeableConcept</text><ellipse cx="131.5" cy="303.9844" fill="#84BE84" rx="3" ry="3" style="stroke: #038048; stroke-width: 1.0;"/><text fill="#000000" font-family="sans-serif" font-size="11" lengthAdjust="spacingAndGlyphs" textLength="107" x="140.5" y="307.1948">getBorn(): Element</text><ellipse cx="131.5" cy="316.7891" fill="#84BE84" rx="3" ry="3" style="stroke: #038048; stroke-width: 1.0;"/><text fill="#000000" font-family="sans-serif" font-size="11" lengthAdjust="spacingAndGlyphs" textLength="101" x="140.5" y="319.9995">getAge(): Element</text><ellipse cx="131.5" cy="329.5938" fill="#84BE84" rx="3" ry="3" style="stroke: #038048; stroke-width: 1.0;"/><text fill="#000000" font-family="sans-serif" font-size="11" lengthAdjust="spacingAndGlyphs" textLength="158" x="140.5" y="332.8042">getEstimatedAge(): Boolean</text><ellipse cx="131.5" cy="342.3984" fill="#84BE84" rx="3" ry="3" style="stroke: #038048; stroke-width: 1.0;"/><text fill="#000000" font-family="sans-serif" font-size="11" lengthAdjust="spacingAndGlyphs" textLength="136" x="140.5" y="345.6089">getDeceased(): Element</text><ellipse cx="131.5" cy="355.2031" fill="#84BE84" rx="3" ry="3" style="stroke: #038048; stroke-width: 1.0;"/><text fill="#000000" font-family="sans-serif" font-size="11" lengthAdjust="spacingAndGlyphs" textLength="242" x="140.5" y="358.4136">getReasonCode(): List&lt;CodeableConcept&gt;</text><ellipse cx="131.5" cy="368.0078" fill="#84BE84" rx="3" ry="3" style="stroke: #038048; stroke-width: 1.0;"/><text fill="#000000" font-family="sans-serif" font-size="11" lengthAdjust="spacingAndGlyphs" textLength="228" x="140.5" y="371.2183">getReasonReference(): List&lt;Reference&gt;</text><ellipse cx="131.5" cy="380.8125" fill="#84BE84" rx="3" ry="3" style="stroke: #038048; stroke-width: 1.0;"/><text fill="#000000" font-family="sans-serif" font-size="11" lengthAdjust="spacingAndGlyphs" textLength="158" x="140.5" y="384.0229">getNote(): List&lt;Annotation&gt;</text><ellipse cx="131.5" cy="393.6172" fill="#84BE84" rx="3" ry="3" style="stroke: #038048; stroke-width: 1.0;"/><text fill="#000000" font-family="sans-serif" font-size="11" lengthAdjust="spacingAndGlyphs" textLength="178" x="140.5" y="396.8276">getCondition(): List&lt;Condition&gt;</text><ellipse cx="131.5" cy="406.4219" fill="#84BE84" rx="3" ry="3" style="stroke: #038048; stroke-width: 1.0;"/><text fill="#000000" font-family="sans-serif" font-size="11" lengthAdjust="spacingAndGlyphs" textLength="129" x="140.5" y="409.6323">hasChildren(): boolean</text><ellipse cx="131.5" cy="419.2266" fill="#84BE84" rx="3" ry="3" style="stroke: #038048; stroke-width: 1.0;"/><text fill="#000000" font-family="sans-serif" font-size="11" lengthAdjust="spacingAndGlyphs" textLength="176" x="140.5" y="422.437">accept(String, int, Visitor): void</text><ellipse cx="131.5" cy="432.0313" fill="#84BE84" rx="3" ry="3" style="stroke: #038048; stroke-width: 1.0;"/><text fill="#000000" font-family="sans-serif" font-size="11" lengthAdjust="spacingAndGlyphs" textLength="107" x="140.5" y="435.2417">toBuilder(): Builder</text><ellipse cx="131.5" cy="444.8359" fill="#84BE84" rx="3" ry="3" style="stroke: #038048; stroke-width: 1.0;"/><text fill="#000000" font-family="sans-serif" font-size="11" lengthAdjust="spacingAndGlyphs" text-decoration="underline" textLength="95" x="140.5" y="448.0464">builder(): Builder</text></a><!--MD5=[5a92b081cf79a7020013158c64ef85a4]
class com.ibm.fhir.model.resource.DomainResource--><a href="DomainResource.html" target="_top" title="DomainResource.html" xlink:actuate="onRequest" xlink:href="DomainResource.html" xlink:show="new" xlink:title="DomainResource.html" xlink:type="simple"><rect fill="#FEFECE" filter="url(#f164zy64gbqtgw)" height="58.7422" id="com.ibm.fhir.model.resource.DomainResource" style="stroke: #A80036; stroke-width: 1.5;" width="171" x="172.5" y="8"/><ellipse cx="187.5" cy="26.9688" fill="#A9DCDF" rx="11" ry="11" style="stroke: #A80036; stroke-width: 1.0;"/><path d="M187.6094,22.3125 L186.4531,27.3906 L188.7813,27.3906 L187.6094,22.3125 Z M186.125,20.0781 L189.1094,20.0781 L192.4688,32.4688 L190.0156,32.4688 L189.25,29.4063 L185.9688,29.4063 L185.2188,32.4688 L182.7813,32.4688 L186.125,20.0781 Z "/><text fill="#000000" font-family="sans-serif" font-size="14" font-style="italic" lengthAdjust="spacingAndGlyphs" textLength="120" x="211" y="25.9951">DomainResource</text><text fill="#000000" font-family="sans-serif" font-size="10" font-style="italic" lengthAdjust="spacingAndGlyphs" textLength="139" x="201.5" y="38.5791">com.ibm.fhir.model.resource</text><line style="stroke: #A80036; stroke-width: 1.5;" x1="173.5" x2="342.5" y1="45.9375" y2="45.9375"/><ellipse cx="183.5" cy="56.9375" fill="#84BE84" rx="3" ry="3" style="stroke: #038048; stroke-width: 1.0;"/><text fill="#000000" font-family="sans-serif" font-size="11" font-style="italic" lengthAdjust="spacingAndGlyphs" textLength="107" x="192.5" y="60.1479">toBuilder(): Builder</text></a><!--MD5=[13200e4bab144e4911672e2d3129ef70]
class com.ibm.fhir.model.resource.FamilyMemberHistory.Builder--><a href="FamilyMemberHistory.Builder.html" target="_top" title="FamilyMemberHistory.Builder.html" xlink:actuate="onRequest" xlink:href="FamilyMemberHistory.Builder.html" xlink:show="new" xlink:title="FamilyMemberHistory.Builder.html" xlink:type="simple"><rect fill="#FEFECE" filter="url(#f164zy64gbqtgw)" height="37.9375" id="com.ibm.fhir.model.resource.FamilyMemberHistory.Builder" style="stroke: #A80036; stroke-width: 1.5;" width="230" x="6" y="515"/><ellipse cx="21" cy="533.9688" fill="#ADD1B2" rx="11" ry="11" style="stroke: #A80036; stroke-width: 1.0;"/><path d="M23.9688,539.6094 Q23.3906,539.9063 22.75,540.0469 Q22.1094,540.2031 21.4063,540.2031 Q18.9063,540.2031 17.5781,538.5625 Q16.2656,536.9063 16.2656,533.7813 Q16.2656,530.6563 17.5781,529 Q18.9063,527.3438 21.4063,527.3438 Q22.1094,527.3438 22.75,527.5 Q23.4063,527.6563 23.9688,527.9531 L23.9688,530.6719 Q23.3438,530.0938 22.75,529.8281 Q22.1563,529.5469 21.5313,529.5469 Q20.1875,529.5469 19.5,530.625 Q18.8125,531.6875 18.8125,533.7813 Q18.8125,535.875 19.5,536.9531 Q20.1875,538.0156 21.5313,538.0156 Q22.1563,538.0156 22.75,537.75 Q23.3438,537.4688 23.9688,536.8906 L23.9688,539.6094 Z "/><text fill="#000000" font-family="sans-serif" font-size="14" lengthAdjust="spacingAndGlyphs" textLength="198" x="35" y="532.9951">FamilyMemberHistory.Builder</text><text fill="#000000" font-family="sans-serif" font-size="10" lengthAdjust="spacingAndGlyphs" textLength="139" x="64.5" y="545.5791">com.ibm.fhir.model.resource</text></a><!--MD5=[3aa96a254a9180d6e4da65a8e1c45165]
class com.ibm.fhir.model.resource.FamilyMemberHistory.Condition--><a href="FamilyMemberHistory.Condition.html" target="_top" title="FamilyMemberHistory.Condition.html" xlink:actuate="onRequest" xlink:href="FamilyMemberHistory.Condition.html" xlink:show="new" xlink:title="FamilyMemberHistory.Condition.html" xlink:type="simple"><rect fill="#FEFECE" filter="url(#f164zy64gbqtgw)" height="37.9375" id="com.ibm.fhir.model.resource.FamilyMemberHistory.Condition" style="stroke: #A80036; stroke-width: 1.5;" width="248" x="271" y="515"/><ellipse cx="286" cy="533.9688" fill="#ADD1B2" rx="11" ry="11" style="stroke: #A80036; stroke-width: 1.0;"/><path d="M288.9688,539.6094 Q288.3906,539.9063 287.75,540.0469 Q287.1094,540.2031 286.4063,540.2031 Q283.9063,540.2031 282.5781,538.5625 Q281.2656,536.9063 281.2656,533.7813 Q281.2656,530.6563 282.5781,529 Q283.9063,527.3438 286.4063,527.3438 Q287.1094,527.3438 287.75,527.5 Q288.4063,527.6563 288.9688,527.9531 L288.9688,530.6719 Q288.3438,530.0938 287.75,529.8281 Q287.1563,529.5469 286.5313,529.5469 Q285.1875,529.5469 284.5,530.625 Q283.8125,531.6875 283.8125,533.7813 Q283.8125,535.875 284.5,536.9531 Q285.1875,538.0156 286.5313,538.0156 Q287.1563,538.0156 287.75,537.75 Q288.3438,537.4688 288.9688,536.8906 L288.9688,539.6094 Z "/><text fill="#000000" font-family="sans-serif" font-size="14" lengthAdjust="spacingAndGlyphs" textLength="216" x="300" y="532.9951">FamilyMemberHistory.Condition</text><text fill="#000000" font-family="sans-serif" font-size="10" lengthAdjust="spacingAndGlyphs" textLength="139" x="338.5" y="545.5791">com.ibm.fhir.model.resource</text></a><!--MD5=[32aec6a66500e42913343ad9dd64f953]
reverse link com.ibm.fhir.model.resource.DomainResource to com.ibm.fhir.model.resource.FamilyMemberHistory--><path d="M258,87.4385 C258,99.3898 258,112.8038 258,126.8941 " fill="none" id="com.ibm.fhir.model.resource.DomainResource&lt;-com.ibm.fhir.model.resource.FamilyMemberHistory" style="stroke: #A80036; stroke-width: 1.0;"/><polygon fill="none" points="251.0001,87.0758,258,67.0758,265.0001,87.0758,251.0001,87.0758" style="stroke: #A80036; stroke-width: 1.0;"/><!--MD5=[24587c0422cdb4e9e367d1cbbc4652ff]
reverse link com.ibm.fhir.model.resource.FamilyMemberHistory to com.ibm.fhir.model.resource.FamilyMemberHistory.Builder--><path d="M158.0759,468.2376 C147.6441,486.7407 138.4536,503.0421 131.8324,514.7863 " fill="none" id="com.ibm.fhir.model.resource.FamilyMemberHistory&lt;-com.ibm.fhir.model.resource.FamilyMemberHistory.Builder" style="stroke: #A80036; stroke-width: 1.0;"/><ellipse cx="161.5511" cy="462.0737" fill="#FFFFFF" rx="8" ry="8" style="stroke: #A80036; stroke-width: 1.0;"/><line style="stroke: #A80036; stroke-width: 1.0;" x1="157.6222" x2="165.48" y1="469.0424" y2="455.1049"/><line style="stroke: #A80036; stroke-width: 1.0;" x1="154.5823" x2="168.5198" y1="458.1447" y2="466.0026"/><!--MD5=[2a0a920c51dc6eff9dcb13e69851794b]
reverse link com.ibm.fhir.model.resource.FamilyMemberHistory to com.ibm.fhir.model.resource.FamilyMemberHistory.Condition--><path d="M357.9241,468.2376 C368.3559,486.7407 377.5464,503.0421 384.1676,514.7863 " fill="none" id="com.ibm.fhir.model.resource.FamilyMemberHistory&lt;-com.ibm.fhir.model.resource.FamilyMemberHistory.Condition" style="stroke: #A80036; stroke-width: 1.0;"/><ellipse cx="354.4489" cy="462.0737" fill="#FFFFFF" rx="8" ry="8" style="stroke: #A80036; stroke-width: 1.0;"/><line style="stroke: #A80036; stroke-width: 1.0;" x1="358.3778" x2="350.52" y1="469.0424" y2="455.1049"/><line style="stroke: #A80036; stroke-width: 1.0;" x1="347.4802" x2="361.4177" y1="466.0026" y2="458.1447"/><text fill="#888888" font-family="sans-serif" font-size="10" lengthAdjust="spacingAndGlyphs" textLength="186" x="175.5" y="572.2822">UMLDoclet 2.0.7, PlantUML 1.2019.12</text><!--MD5=[03f1e5a688a4b4d0a7ee7a0536633086]
@startuml
    set namespaceSeparator none
    hide empty fields
    hide empty methods

    class "<size:14>FamilyMemberHistory\n<size:10>com.ibm.fhir.model.resource" as com.ibm.fhir.model.resource.FamilyMemberHistory [[FamilyMemberHistory.html]] {
        +getIdentifier(): List<Identifier>
        +getInstantiatesCanonical(): List<Canonical>
        +getInstantiatesUri(): List<Uri>
        +getStatus(): FamilyHistoryStatus
        +getDataAbsentReason(): CodeableConcept
        +getPatient(): Reference
        +getDate(): DateTime
        +getName(): String
        +getRelationship(): CodeableConcept
        +getSex(): CodeableConcept
        +getBorn(): Element
        +getAge(): Element
        +getEstimatedAge(): Boolean
        +getDeceased(): Element
        +getReasonCode(): List<CodeableConcept>
        +getReasonReference(): List<Reference>
        +getNote(): List<Annotation>
        +getCondition(): List<Condition>
        +hasChildren(): boolean
        +accept(String, int, Visitor): void
        +toBuilder(): Builder
        {static} +builder(): Builder
    }

    abstract class "<size:14>DomainResource\n<size:10>com.ibm.fhir.model.resource" as com.ibm.fhir.model.resource.DomainResource [[DomainResource.html]] {
        {abstract} +toBuilder(): Builder
    }
    class "<size:14>FamilyMemberHistory.Builder\n<size:10>com.ibm.fhir.model.resource" as com.ibm.fhir.model.resource.FamilyMemberHistory.Builder [[FamilyMemberHistory.Builder.html]]
    class "<size:14>FamilyMemberHistory.Condition\n<size:10>com.ibm.fhir.model.resource" as com.ibm.fhir.model.resource.FamilyMemberHistory.Condition [[FamilyMemberHistory.Condition.html]]

    com.ibm.fhir.model.resource.DomainResource <|- - com.ibm.fhir.model.resource.FamilyMemberHistory
    com.ibm.fhir.model.resource.FamilyMemberHistory +- - com.ibm.fhir.model.resource.FamilyMemberHistory.Builder
    com.ibm.fhir.model.resource.FamilyMemberHistory +- - com.ibm.fhir.model.resource.FamilyMemberHistory.Condition

    center footer UMLDoclet 2.0.7, PlantUML 1.2019.12
@enduml

PlantUML version 1.2019.12(Sun Nov 03 10:24:54 UTC 2019)
(APACHE source distribution)
Java Runtime: OpenJDK Runtime Environment
JVM: OpenJDK 64-Bit Server VM
Java Version: 11.0.9.1+1
Operating System: Linux
Default Encoding: UTF-8
Language: en
Country: null
--></g></svg>