<?xml version="1.0" encoding="UTF-8" standalone="no"?><svg xmlns="http://www.w3.org/2000/svg" xmlns:xlink="http://www.w3.org/1999/xlink" contentScriptType="application/ecmascript" contentStyleType="text/css" height="346px" preserveAspectRatio="none" style="width:617px;height:346px;" version="1.1" viewBox="0 0 617 346" width="617px" zoomAndPan="magnify"><defs><filter height="300%" id="ffy54pcxjne4j" width="300%" x="-1" y="-1"><feGaussianBlur result="blurOut" stdDeviation="2.0"/><feColorMatrix in="blurOut" result="blurOut2" type="matrix" values="0 0 0 0 0 0 0 0 0 0 0 0 0 0 0 0 0 0 .4 0"/><feOffset dx="4.0" dy="4.0" in="blurOut2" result="blurOut3"/><feBlend in="SourceGraphic" in2="blurOut3" mode="normal"/></filter></defs><g><!--MD5=[1bffa2437d2e9e08a52e15525612e24a]
class com.ibm.fhir.model.resource.SubstanceReferenceInformation.GeneElement.Builder--><a href="SubstanceReferenceInformation.GeneElement.Builder.html" target="_top" title="SubstanceReferenceInformation.GeneElement.Builder.html" xlink:actuate="onRequest" xlink:href="SubstanceReferenceInformation.GeneElement.Builder.html" xlink:show="new" xlink:title="SubstanceReferenceInformation.GeneElement.Builder.html" xlink:type="simple"><rect fill="#FEFECE" filter="url(#ffy54pcxjne4j)" height="186.7891" id="com.ibm.fhir.model.resource.SubstanceReferenceInformation.GeneElement.Builder" style="stroke: #A80036; stroke-width: 1.5;" width="406" x="67.5" y="127"/><ellipse cx="82.5" cy="145.9688" fill="#ADD1B2" rx="11" ry="11" style="stroke: #A80036; stroke-width: 1.0;"/><path d="M85.4688,151.6094 Q84.8906,151.9063 84.25,152.0469 Q83.6094,152.2031 82.9063,152.2031 Q80.4063,152.2031 79.0781,150.5625 Q77.7656,148.9063 77.7656,145.7813 Q77.7656,142.6563 79.0781,141 Q80.4063,139.3438 82.9063,139.3438 Q83.6094,139.3438 84.25,139.5 Q84.9063,139.6563 85.4688,139.9531 L85.4688,142.6719 Q84.8438,142.0938 84.25,141.8281 Q83.6563,141.5469 83.0313,141.5469 Q81.6875,141.5469 81,142.625 Q80.3125,143.6875 80.3125,145.7813 Q80.3125,147.875 81,148.9531 Q81.6875,150.0156 83.0313,150.0156 Q83.6563,150.0156 84.25,149.75 Q84.8438,149.4688 85.4688,148.8906 L85.4688,151.6094 Z "/><text fill="#000000" font-family="sans-serif" font-size="14" lengthAdjust="spacingAndGlyphs" textLength="374" x="96.5" y="144.9951">SubstanceReferenceInformation.GeneElement.Builder</text><text fill="#000000" font-family="sans-serif" font-size="10" lengthAdjust="spacingAndGlyphs" textLength="139" x="214" y="157.5791">com.ibm.fhir.model.resource</text><line style="stroke: #A80036; stroke-width: 1.5;" x1="68.5" x2="472.5" y1="164.9375" y2="164.9375"/><ellipse cx="78.5" cy="175.9375" fill="#84BE84" rx="3" ry="3" style="stroke: #038048; stroke-width: 1.0;"/><text fill="#000000" font-family="sans-serif" font-size="11" lengthAdjust="spacingAndGlyphs" textLength="100" x="87.5" y="179.1479">id(String): Builder</text><ellipse cx="78.5" cy="188.7422" fill="#84BE84" rx="3" ry="3" style="stroke: #038048; stroke-width: 1.0;"/><text fill="#000000" font-family="sans-serif" font-size="11" lengthAdjust="spacingAndGlyphs" textLength="178" x="87.5" y="191.9526">extension(Extension...): Builder</text><ellipse cx="78.5" cy="201.5469" fill="#84BE84" rx="3" ry="3" style="stroke: #038048; stroke-width: 1.0;"/><text fill="#000000" font-family="sans-serif" font-size="11" lengthAdjust="spacingAndGlyphs" textLength="239" x="87.5" y="204.7573">extension(Collection&lt;Extension&gt;): Builder</text><ellipse cx="78.5" cy="214.3516" fill="#84BE84" rx="3" ry="3" style="stroke: #038048; stroke-width: 1.0;"/><text fill="#000000" font-family="sans-serif" font-size="11" lengthAdjust="spacingAndGlyphs" textLength="225" x="87.5" y="217.562">modifierExtension(Extension...): Builder</text><ellipse cx="78.5" cy="227.1563" fill="#84BE84" rx="3" ry="3" style="stroke: #038048; stroke-width: 1.0;"/><text fill="#000000" font-family="sans-serif" font-size="11" lengthAdjust="spacingAndGlyphs" textLength="286" x="87.5" y="230.3667">modifierExtension(Collection&lt;Extension&gt;): Builder</text><ellipse cx="78.5" cy="239.9609" fill="#84BE84" rx="3" ry="3" style="stroke: #038048; stroke-width: 1.0;"/><text fill="#000000" font-family="sans-serif" font-size="11" lengthAdjust="spacingAndGlyphs" textLength="179" x="87.5" y="243.1714">type(CodeableConcept): Builder</text><ellipse cx="78.5" cy="252.7656" fill="#84BE84" rx="3" ry="3" style="stroke: #038048; stroke-width: 1.0;"/><text fill="#000000" font-family="sans-serif" font-size="11" lengthAdjust="spacingAndGlyphs" textLength="152" x="87.5" y="255.9761">element(Identifier): Builder</text><ellipse cx="78.5" cy="265.5703" fill="#84BE84" rx="3" ry="3" style="stroke: #038048; stroke-width: 1.0;"/><text fill="#000000" font-family="sans-serif" font-size="11" lengthAdjust="spacingAndGlyphs" textLength="164" x="87.5" y="268.7808">source(Reference...): Builder</text><ellipse cx="78.5" cy="278.375" fill="#84BE84" rx="3" ry="3" style="stroke: #038048; stroke-width: 1.0;"/><text fill="#000000" font-family="sans-serif" font-size="11" lengthAdjust="spacingAndGlyphs" textLength="225" x="87.5" y="281.5854">source(Collection&lt;Reference&gt;): Builder</text><ellipse cx="78.5" cy="291.1797" fill="#84BE84" rx="3" ry="3" style="stroke: #038048; stroke-width: 1.0;"/><text fill="#000000" font-family="sans-serif" font-size="11" lengthAdjust="spacingAndGlyphs" textLength="119" x="87.5" y="294.3901">build(): GeneElement</text><polygon fill="#FFFF44" points="78.5,298.9844,82.5,302.9844,78.5,306.9844,74.5,302.9844" style="stroke: #B38D22; stroke-width: 1.0;"/><text fill="#000000" font-family="sans-serif" font-size="11" lengthAdjust="spacingAndGlyphs" textLength="159" x="87.5" y="307.1948">from(GeneElement): Builder</text></a><!--MD5=[b7b0ea86c8a299e1957933e33e561193]
class com.ibm.fhir.model.type.BackboneElement.Builder--><a href="../type/BackboneElement.Builder.html" target="_top" title="../type/BackboneElement.Builder.html" xlink:actuate="onRequest" xlink:href="../type/BackboneElement.Builder.html" xlink:show="new" xlink:title="../type/BackboneElement.Builder.html" xlink:type="simple"><rect fill="#FEFECE" filter="url(#ffy54pcxjne4j)" height="58.7422" id="com.ibm.fhir.model.type.BackboneElement.Builder" style="stroke: #A80036; stroke-width: 1.5;" width="211" x="6" y="8"/><ellipse cx="21" cy="26.9688" fill="#A9DCDF" rx="11" ry="11" style="stroke: #A80036; stroke-width: 1.0;"/><path d="M21.1094,22.3125 L19.9531,27.3906 L22.2813,27.3906 L21.1094,22.3125 Z M19.625,20.0781 L22.6094,20.0781 L25.9688,32.4688 L23.5156,32.4688 L22.75,29.4063 L19.4688,29.4063 L18.7188,32.4688 L16.2813,32.4688 L19.625,20.0781 Z "/><text fill="#000000" font-family="sans-serif" font-size="14" font-style="italic" lengthAdjust="spacingAndGlyphs" textLength="179" x="35" y="25.9951">BackboneElement.Builder</text><text fill="#000000" font-family="sans-serif" font-size="10" font-style="italic" lengthAdjust="spacingAndGlyphs" textLength="119" x="65" y="38.5791">com.ibm.fhir.model.type</text><line style="stroke: #A80036; stroke-width: 1.5;" x1="7" x2="216" y1="45.9375" y2="45.9375"/><ellipse cx="17" cy="56.9375" fill="#84BE84" rx="3" ry="3" style="stroke: #038048; stroke-width: 1.0;"/><text fill="#000000" font-family="sans-serif" font-size="11" font-style="italic" lengthAdjust="spacingAndGlyphs" textLength="144" x="26" y="60.1479">build(): BackboneElement</text></a><!--MD5=[077046264961d166ed9b7c57c4b30957]
class com.ibm.fhir.model.resource.SubstanceReferenceInformation.GeneElement--><a href="SubstanceReferenceInformation.GeneElement.html" target="_top" title="SubstanceReferenceInformation.GeneElement.html" xlink:actuate="onRequest" xlink:href="SubstanceReferenceInformation.GeneElement.html" xlink:show="new" xlink:title="SubstanceReferenceInformation.GeneElement.html" xlink:type="simple"><rect fill="#FEFECE" filter="url(#ffy54pcxjne4j)" height="37.9375" id="com.ibm.fhir.model.resource.SubstanceReferenceInformation.GeneElement" style="stroke: #A80036; stroke-width: 1.5;" width="354" x="252.5" y="18.5"/><ellipse cx="267.5" cy="37.4688" fill="#ADD1B2" rx="11" ry="11" style="stroke: #A80036; stroke-width: 1.0;"/><path d="M270.4688,43.1094 Q269.8906,43.4063 269.25,43.5469 Q268.6094,43.7031 267.9063,43.7031 Q265.4063,43.7031 264.0781,42.0625 Q262.7656,40.4063 262.7656,37.2813 Q262.7656,34.1563 264.0781,32.5 Q265.4063,30.8438 267.9063,30.8438 Q268.6094,30.8438 269.25,31 Q269.9063,31.1563 270.4688,31.4531 L270.4688,34.1719 Q269.8438,33.5938 269.25,33.3281 Q268.6563,33.0469 268.0313,33.0469 Q266.6875,33.0469 266,34.125 Q265.3125,35.1875 265.3125,37.2813 Q265.3125,39.375 266,40.4531 Q266.6875,41.5156 268.0313,41.5156 Q268.6563,41.5156 269.25,41.25 Q269.8438,40.9688 270.4688,40.3906 L270.4688,43.1094 Z "/><text fill="#000000" font-family="sans-serif" font-size="14" lengthAdjust="spacingAndGlyphs" textLength="322" x="281.5" y="36.4951">SubstanceReferenceInformation.GeneElement</text><text fill="#000000" font-family="sans-serif" font-size="10" lengthAdjust="spacingAndGlyphs" textLength="139" x="373" y="49.0791">com.ibm.fhir.model.resource</text></a><!--MD5=[b9e34b38dafbeede47fd7c5801a048be]
reverse link com.ibm.fhir.model.type.BackboneElement.Builder to com.ibm.fhir.model.resource.SubstanceReferenceInformation.GeneElement.Builder--><path d="M150.7408,82.664 C162.398,96.0807 175.6241,111.3032 188.9277,126.6149 " fill="none" id="com.ibm.fhir.model.type.BackboneElement.Builder&lt;-com.ibm.fhir.model.resource.SubstanceReferenceInformation.GeneElement.Builder" style="stroke: #A80036; stroke-width: 1.0;"/><polygon fill="none" points="145.2333,86.998,137.4,67.3094,155.8016,77.8157,145.2333,86.998" style="stroke: #A80036; stroke-width: 1.0;"/><!--MD5=[930b929d56713dd3e2334fa90cb39628]
reverse link com.ibm.fhir.model.resource.SubstanceReferenceInformation.GeneElement to com.ibm.fhir.model.resource.SubstanceReferenceInformation.GeneElement.Builder--><path d="M402.8222,68.2046 C388.6692,84.4939 370.4369,105.4783 352.0578,126.6316 " fill="none" id="com.ibm.fhir.model.resource.SubstanceReferenceInformation.GeneElement&lt;-com.ibm.fhir.model.resource.SubstanceReferenceInformation.GeneElement.Builder" style="stroke: #A80036; stroke-width: 1.0;"/><ellipse cx="407.5377" cy="62.7773" fill="#FFFFFF" rx="8" ry="8" style="stroke: #A80036; stroke-width: 1.0;"/><line style="stroke: #A80036; stroke-width: 1.0;" x1="402.2907" x2="412.7847" y1="68.8162" y2="56.7383"/><line style="stroke: #A80036; stroke-width: 1.0;" x1="401.4987" x2="413.5767" y1="57.5303" y2="68.0243"/><text fill="#888888" font-family="sans-serif" font-size="10" lengthAdjust="spacingAndGlyphs" textLength="186" x="219.5" y="333.2822">UMLDoclet 2.0.7, PlantUML 1.2019.12</text><!--MD5=[9da74ff95a7d25e7d1eceb5805d9dae4]
@startuml
    set namespaceSeparator none
    hide empty fields
    hide empty methods

    class "<size:14>SubstanceReferenceInformation.GeneElement.Builder\n<size:10>com.ibm.fhir.model.resource" as com.ibm.fhir.model.resource.SubstanceReferenceInformation.GeneElement.Builder [[SubstanceReferenceInformation.GeneElement.Builder.html]] {
        +id(String): Builder
        +extension(Extension...): Builder
        +extension(Collection<Extension>): Builder
        +modifierExtension(Extension...): Builder
        +modifierExtension(Collection<Extension>): Builder
        +type(CodeableConcept): Builder
        +element(Identifier): Builder
        +source(Reference...): Builder
        +source(Collection<Reference>): Builder
        +build(): GeneElement
        #from(GeneElement): Builder
    }

    abstract class "<size:14>BackboneElement.Builder\n<size:10>com.ibm.fhir.model.type" as com.ibm.fhir.model.type.BackboneElement.Builder [[../type/BackboneElement.Builder.html]] {
        {abstract} +build(): BackboneElement
    }
    class "<size:14>SubstanceReferenceInformation.GeneElement\n<size:10>com.ibm.fhir.model.resource" as com.ibm.fhir.model.resource.SubstanceReferenceInformation.GeneElement [[SubstanceReferenceInformation.GeneElement.html]]

    com.ibm.fhir.model.type.BackboneElement.Builder <|- - com.ibm.fhir.model.resource.SubstanceReferenceInformation.GeneElement.Builder
    com.ibm.fhir.model.resource.SubstanceReferenceInformation.GeneElement +- - com.ibm.fhir.model.resource.SubstanceReferenceInformation.GeneElement.Builder

    center footer UMLDoclet 2.0.7, PlantUML 1.2019.12
@enduml

PlantUML version 1.2019.12(Sun Nov 03 10:24:54 UTC 2019)
(APACHE source distribution)
Java Runtime: OpenJDK Runtime Environment
JVM: OpenJDK 64-Bit Server VM
Java Version: 11.0.9.1+1
Operating System: Linux
Default Encoding: UTF-8
Language: en
Country: null
--></g></svg>