<?xml version="1.0" encoding="UTF-8" standalone="no"?><svg xmlns="http://www.w3.org/2000/svg" xmlns:xlink="http://www.w3.org/1999/xlink" contentScriptType="application/ecmascript" contentStyleType="text/css" height="393px" preserveAspectRatio="none" style="width:429px;height:393px;" version="1.1" viewBox="0 0 429 393" width="429px" zoomAndPan="magnify"><defs><filter height="300%" id="f1ownf1xnj5157" width="300%" x="-1" y="-1"><feGaussianBlur result="blurOut" stdDeviation="2.0"/><feColorMatrix in="blurOut" result="blurOut2" type="matrix" values="0 0 0 0 0 0 0 0 0 0 0 0 0 0 0 0 0 0 .4 0"/><feOffset dx="4.0" dy="4.0" in="blurOut2" result="blurOut3"/><feBlend in="SourceGraphic" in2="blurOut3" mode="normal"/></filter></defs><g><!--MD5=[922ec1fe5c7e0abb9624efba575f7e27]
class com.ibm.fhir.model.resource.ValueSet.Compose.Include.Filter--><a href="ValueSet.Compose.Include.Filter.html" target="_top" title="ValueSet.Compose.Include.Filter.html" xlink:actuate="onRequest" xlink:href="ValueSet.Compose.Include.Filter.html" xlink:show="new" xlink:title="ValueSet.Compose.Include.Filter.html" xlink:type="simple"><rect fill="#FEFECE" filter="url(#f1ownf1xnj5157)" height="135.5703" id="com.ibm.fhir.model.resource.ValueSet.Compose.Include.Filter" style="stroke: #A80036; stroke-width: 1.5;" width="255" x="70" y="127"/><ellipse cx="85" cy="145.9688" fill="#ADD1B2" rx="11" ry="11" style="stroke: #A80036; stroke-width: 1.0;"/><path d="M87.9688,151.6094 Q87.3906,151.9063 86.75,152.0469 Q86.1094,152.2031 85.4063,152.2031 Q82.9063,152.2031 81.5781,150.5625 Q80.2656,148.9063 80.2656,145.7813 Q80.2656,142.6563 81.5781,141 Q82.9063,139.3438 85.4063,139.3438 Q86.1094,139.3438 86.75,139.5 Q87.4063,139.6563 87.9688,139.9531 L87.9688,142.6719 Q87.3438,142.0938 86.75,141.8281 Q86.1563,141.5469 85.5313,141.5469 Q84.1875,141.5469 83.5,142.625 Q82.8125,143.6875 82.8125,145.7813 Q82.8125,147.875 83.5,148.9531 Q84.1875,150.0156 85.5313,150.0156 Q86.1563,150.0156 86.75,149.75 Q87.3438,149.4688 87.9688,148.8906 L87.9688,151.6094 Z "/><text fill="#000000" font-family="sans-serif" font-size="14" lengthAdjust="spacingAndGlyphs" textLength="223" x="99" y="144.9951">ValueSet.Compose.Include.Filter</text><text fill="#000000" font-family="sans-serif" font-size="10" lengthAdjust="spacingAndGlyphs" textLength="139" x="141" y="157.5791">com.ibm.fhir.model.resource</text><line style="stroke: #A80036; stroke-width: 1.5;" x1="71" x2="324" y1="164.9375" y2="164.9375"/><ellipse cx="81" cy="175.9375" fill="#84BE84" rx="3" ry="3" style="stroke: #038048; stroke-width: 1.0;"/><text fill="#000000" font-family="sans-serif" font-size="11" lengthAdjust="spacingAndGlyphs" textLength="111" x="90" y="179.1479">getProperty(): Code</text><ellipse cx="81" cy="188.7422" fill="#84BE84" rx="3" ry="3" style="stroke: #038048; stroke-width: 1.0;"/><text fill="#000000" font-family="sans-serif" font-size="11" lengthAdjust="spacingAndGlyphs" textLength="129" x="90" y="191.9526">getOp(): FilterOperator</text><ellipse cx="81" cy="201.5469" fill="#84BE84" rx="3" ry="3" style="stroke: #038048; stroke-width: 1.0;"/><text fill="#000000" font-family="sans-serif" font-size="11" lengthAdjust="spacingAndGlyphs" textLength="99" x="90" y="204.7573">getValue(): String</text><ellipse cx="81" cy="214.3516" fill="#84BE84" rx="3" ry="3" style="stroke: #038048; stroke-width: 1.0;"/><text fill="#000000" font-family="sans-serif" font-size="11" lengthAdjust="spacingAndGlyphs" textLength="129" x="90" y="217.562">hasChildren(): boolean</text><ellipse cx="81" cy="227.1563" fill="#84BE84" rx="3" ry="3" style="stroke: #038048; stroke-width: 1.0;"/><text fill="#000000" font-family="sans-serif" font-size="11" lengthAdjust="spacingAndGlyphs" textLength="176" x="90" y="230.3667">accept(String, int, Visitor): void</text><ellipse cx="81" cy="239.9609" fill="#84BE84" rx="3" ry="3" style="stroke: #038048; stroke-width: 1.0;"/><text fill="#000000" font-family="sans-serif" font-size="11" lengthAdjust="spacingAndGlyphs" textLength="107" x="90" y="243.1714">toBuilder(): Builder</text><ellipse cx="81" cy="252.7656" fill="#84BE84" rx="3" ry="3" style="stroke: #038048; stroke-width: 1.0;"/><text fill="#000000" font-family="sans-serif" font-size="11" lengthAdjust="spacingAndGlyphs" text-decoration="underline" textLength="95" x="90" y="255.9761">builder(): Builder</text></a><!--MD5=[efbff6997283c56b83e991a8eeb6a60a]
class com.ibm.fhir.model.type.BackboneElement--><a href="../type/BackboneElement.html" target="_top" title="../type/BackboneElement.html" xlink:actuate="onRequest" xlink:href="../type/BackboneElement.html" xlink:show="new" xlink:title="../type/BackboneElement.html" xlink:type="simple"><rect fill="#FEFECE" filter="url(#f1ownf1xnj5157)" height="58.7422" id="com.ibm.fhir.model.type.BackboneElement" style="stroke: #A80036; stroke-width: 1.5;" width="159" x="6" y="8"/><ellipse cx="21" cy="26.9688" fill="#A9DCDF" rx="11" ry="11" style="stroke: #A80036; stroke-width: 1.0;"/><path d="M21.1094,22.3125 L19.9531,27.3906 L22.2813,27.3906 L21.1094,22.3125 Z M19.625,20.0781 L22.6094,20.0781 L25.9688,32.4688 L23.5156,32.4688 L22.75,29.4063 L19.4688,29.4063 L18.7188,32.4688 L16.2813,32.4688 L19.625,20.0781 Z "/><text fill="#000000" font-family="sans-serif" font-size="14" font-style="italic" lengthAdjust="spacingAndGlyphs" textLength="127" x="35" y="25.9951">BackboneElement</text><text fill="#000000" font-family="sans-serif" font-size="10" font-style="italic" lengthAdjust="spacingAndGlyphs" textLength="119" x="39" y="38.5791">com.ibm.fhir.model.type</text><line style="stroke: #A80036; stroke-width: 1.5;" x1="7" x2="164" y1="45.9375" y2="45.9375"/><ellipse cx="17" cy="56.9375" fill="#84BE84" rx="3" ry="3" style="stroke: #038048; stroke-width: 1.0;"/><text fill="#000000" font-family="sans-serif" font-size="11" font-style="italic" lengthAdjust="spacingAndGlyphs" textLength="107" x="26" y="60.1479">toBuilder(): Builder</text></a><!--MD5=[5753dac29105c5dd58e232ebffe35d9a]
class com.ibm.fhir.model.resource.ValueSet.Compose.Include--><a href="ValueSet.Compose.Include.html" target="_top" title="ValueSet.Compose.Include.html" xlink:actuate="onRequest" xlink:href="ValueSet.Compose.Include.html" xlink:show="new" xlink:title="ValueSet.Compose.Include.html" xlink:type="simple"><rect fill="#FEFECE" filter="url(#f1ownf1xnj5157)" height="37.9375" id="com.ibm.fhir.model.resource.ValueSet.Compose.Include" style="stroke: #A80036; stroke-width: 1.5;" width="218" x="200.5" y="18.5"/><ellipse cx="215.5" cy="37.4688" fill="#ADD1B2" rx="11" ry="11" style="stroke: #A80036; stroke-width: 1.0;"/><path d="M218.4688,43.1094 Q217.8906,43.4063 217.25,43.5469 Q216.6094,43.7031 215.9063,43.7031 Q213.4063,43.7031 212.0781,42.0625 Q210.7656,40.4063 210.7656,37.2813 Q210.7656,34.1563 212.0781,32.5 Q213.4063,30.8438 215.9063,30.8438 Q216.6094,30.8438 217.25,31 Q217.9063,31.1563 218.4688,31.4531 L218.4688,34.1719 Q217.8438,33.5938 217.25,33.3281 Q216.6563,33.0469 216.0313,33.0469 Q214.6875,33.0469 214,34.125 Q213.3125,35.1875 213.3125,37.2813 Q213.3125,39.375 214,40.4531 Q214.6875,41.5156 216.0313,41.5156 Q216.6563,41.5156 217.25,41.25 Q217.8438,40.9688 218.4688,40.3906 L218.4688,43.1094 Z "/><text fill="#000000" font-family="sans-serif" font-size="14" lengthAdjust="spacingAndGlyphs" textLength="186" x="229.5" y="36.4951">ValueSet.Compose.Include</text><text fill="#000000" font-family="sans-serif" font-size="10" lengthAdjust="spacingAndGlyphs" textLength="139" x="253" y="49.0791">com.ibm.fhir.model.resource</text></a><!--MD5=[435e6232cf2376842379ef1d0e25efa8]
class com.ibm.fhir.model.resource.ValueSet.Compose.Include.Filter.Builder--><a href="ValueSet.Compose.Include.Filter.Builder.html" target="_top" title="ValueSet.Compose.Include.Filter.Builder.html" xlink:actuate="onRequest" xlink:href="ValueSet.Compose.Include.Filter.Builder.html" xlink:show="new" xlink:title="ValueSet.Compose.Include.Filter.Builder.html" xlink:type="simple"><rect fill="#FEFECE" filter="url(#f1ownf1xnj5157)" height="37.9375" id="com.ibm.fhir.model.resource.ValueSet.Compose.Include.Filter.Builder" style="stroke: #A80036; stroke-width: 1.5;" width="307" x="44" y="323"/><ellipse cx="59" cy="341.9688" fill="#ADD1B2" rx="11" ry="11" style="stroke: #A80036; stroke-width: 1.0;"/><path d="M61.9688,347.6094 Q61.3906,347.9063 60.75,348.0469 Q60.1094,348.2031 59.4063,348.2031 Q56.9063,348.2031 55.5781,346.5625 Q54.2656,344.9063 54.2656,341.7813 Q54.2656,338.6563 55.5781,337 Q56.9063,335.3438 59.4063,335.3438 Q60.1094,335.3438 60.75,335.5 Q61.4063,335.6563 61.9688,335.9531 L61.9688,338.6719 Q61.3438,338.0938 60.75,337.8281 Q60.1563,337.5469 59.5313,337.5469 Q58.1875,337.5469 57.5,338.625 Q56.8125,339.6875 56.8125,341.7813 Q56.8125,343.875 57.5,344.9531 Q58.1875,346.0156 59.5313,346.0156 Q60.1563,346.0156 60.75,345.75 Q61.3438,345.4688 61.9688,344.8906 L61.9688,347.6094 Z "/><text fill="#000000" font-family="sans-serif" font-size="14" lengthAdjust="spacingAndGlyphs" textLength="275" x="73" y="340.9951">ValueSet.Compose.Include.Filter.Builder</text><text fill="#000000" font-family="sans-serif" font-size="10" lengthAdjust="spacingAndGlyphs" textLength="139" x="141" y="353.5791">com.ibm.fhir.model.resource</text></a><!--MD5=[b59182033df865c4a3d0fe174c25d470]
reverse link com.ibm.fhir.model.type.BackboneElement to com.ibm.fhir.model.resource.ValueSet.Compose.Include.Filter--><path d="M118.4481,83.8332 C128.0603,97.3504 138.7703,112.4113 149.1257,126.9737 " fill="none" id="com.ibm.fhir.model.type.BackboneElement&lt;-com.ibm.fhir.model.resource.ValueSet.Compose.Include.Filter" style="stroke: #A80036; stroke-width: 1.0;"/><polygon fill="none" points="112.4522,87.4804,106.5663,67.1245,123.8616,79.367,112.4522,87.4804" style="stroke: #A80036; stroke-width: 1.0;"/><!--MD5=[16cef9c27e13f40a880978118909424f]
reverse link com.ibm.fhir.model.resource.ValueSet.Compose.Include to com.ibm.fhir.model.resource.ValueSet.Compose.Include.Filter--><path d="M287.0328,69.0945 C275.2069,85.7246 260.2229,106.7959 245.9124,126.9201 " fill="none" id="com.ibm.fhir.model.resource.ValueSet.Compose.Include&lt;-com.ibm.fhir.model.resource.ValueSet.Compose.Include.Filter" style="stroke: #A80036; stroke-width: 1.0;"/><ellipse cx="291.1303" cy="63.3322" fill="#FFFFFF" rx="8" ry="8" style="stroke: #A80036; stroke-width: 1.0;"/><line style="stroke: #A80036; stroke-width: 1.0;" x1="286.4941" x2="295.7666" y1="69.8518" y2="56.8126"/><line style="stroke: #A80036; stroke-width: 1.0;" x1="284.6107" x2="297.6499" y1="58.6959" y2="67.9685"/><!--MD5=[fa717c0c34b8ea09c0050359b954e7e7]
reverse link com.ibm.fhir.model.resource.ValueSet.Compose.Include.Filter to com.ibm.fhir.model.resource.ValueSet.Compose.Include.Filter.Builder--><path d="M197.5,278.372 C197.5,295.0058 197.5,310.9526 197.5,322.721 " fill="none" id="com.ibm.fhir.model.resource.ValueSet.Compose.Include.Filter&lt;-com.ibm.fhir.model.resource.ValueSet.Compose.Include.Filter.Builder" style="stroke: #A80036; stroke-width: 1.0;"/><ellipse cx="197.5001" cy="271.3358" fill="#FFFFFF" rx="8" ry="8" style="stroke: #A80036; stroke-width: 1.0;"/><line style="stroke: #A80036; stroke-width: 1.0;" x1="197.5002" x2="197.5" y1="279.3358" y2="263.3358"/><line style="stroke: #A80036; stroke-width: 1.0;" x1="189.5001" x2="205.5001" y1="271.3359" y2="271.3357"/><text fill="#888888" font-family="sans-serif" font-size="10" lengthAdjust="spacingAndGlyphs" textLength="186" x="125.5" y="380.2822">UMLDoclet 2.0.7, PlantUML 1.2019.12</text><!--MD5=[a5f850b15d17c429b4d924d7e84027f5]
@startuml
    set namespaceSeparator none
    hide empty fields
    hide empty methods

    class "<size:14>ValueSet.Compose.Include.Filter\n<size:10>com.ibm.fhir.model.resource" as com.ibm.fhir.model.resource.ValueSet.Compose.Include.Filter [[ValueSet.Compose.Include.Filter.html]] {
        +getProperty(): Code
        +getOp(): FilterOperator
        +getValue(): String
        +hasChildren(): boolean
        +accept(String, int, Visitor): void
        +toBuilder(): Builder
        {static} +builder(): Builder
    }

    abstract class "<size:14>BackboneElement\n<size:10>com.ibm.fhir.model.type" as com.ibm.fhir.model.type.BackboneElement [[../type/BackboneElement.html]] {
        {abstract} +toBuilder(): Builder
    }
    class "<size:14>ValueSet.Compose.Include\n<size:10>com.ibm.fhir.model.resource" as com.ibm.fhir.model.resource.ValueSet.Compose.Include [[ValueSet.Compose.Include.html]]
    class "<size:14>ValueSet.Compose.Include.Filter.Builder\n<size:10>com.ibm.fhir.model.resource" as com.ibm.fhir.model.resource.ValueSet.Compose.Include.Filter.Builder [[ValueSet.Compose.Include.Filter.Builder.html]]

    com.ibm.fhir.model.type.BackboneElement <|- - com.ibm.fhir.model.resource.ValueSet.Compose.Include.Filter
    com.ibm.fhir.model.resource.ValueSet.Compose.Include +- - com.ibm.fhir.model.resource.ValueSet.Compose.Include.Filter
    com.ibm.fhir.model.resource.ValueSet.Compose.Include.Filter +- - com.ibm.fhir.model.resource.ValueSet.Compose.Include.Filter.Builder

    center footer UMLDoclet 2.0.7, PlantUML 1.2019.12
@enduml

PlantUML version 1.2019.12(Sun Nov 03 10:24:54 UTC 2019)
(APACHE source distribution)
Java Runtime: OpenJDK Runtime Environment
JVM: OpenJDK 64-Bit Server VM
Java Version: 11.0.9.1+1
Operating System: Linux
Default Encoding: UTF-8
Language: en
Country: null
--></g></svg>