<?xml version="1.0" encoding="UTF-8" standalone="no"?><svg xmlns="http://www.w3.org/2000/svg" xmlns:xlink="http://www.w3.org/1999/xlink" contentScriptType="application/ecmascript" contentStyleType="text/css" height="495px" preserveAspectRatio="none" style="width:557px;height:495px;" version="1.1" viewBox="0 0 557 495" width="557px" zoomAndPan="magnify"><defs><filter height="300%" id="f16galq7nij5wv" width="300%" x="-1" y="-1"><feGaussianBlur result="blurOut" stdDeviation="2.0"/><feColorMatrix in="blurOut" result="blurOut2" type="matrix" values="0 0 0 0 0 0 0 0 0 0 0 0 0 0 0 0 0 0 .4 0"/><feOffset dx="4.0" dy="4.0" in="blurOut2" result="blurOut3"/><feBlend in="SourceGraphic" in2="blurOut3" mode="normal"/></filter></defs><g><!--MD5=[8279201617fcc0b4b62ecf75f14c7471]
class com.ibm.fhir.model.type.code.ActionRelationshipType--><a href="ActionRelationshipType.html" target="_top" title="ActionRelationshipType.html" xlink:actuate="onRequest" xlink:href="ActionRelationshipType.html" xlink:show="new" xlink:title="ActionRelationshipType.html" xlink:type="simple"><rect fill="#FEFECE" filter="url(#f16galq7nij5wv)" height="258.8125" id="com.ibm.fhir.model.type.code.ActionRelationshipType" style="stroke: #A80036; stroke-width: 1.5;" width="316" x="115" y="106"/><ellipse cx="187.75" cy="124.9688" fill="#ADD1B2" rx="11" ry="11" style="stroke: #A80036; stroke-width: 1.0;"/><path d="M190.7188,130.6094 Q190.1406,130.9063 189.5,131.0469 Q188.8594,131.2031 188.1563,131.2031 Q185.6563,131.2031 184.3281,129.5625 Q183.0156,127.9063 183.0156,124.7813 Q183.0156,121.6563 184.3281,120 Q185.6563,118.3438 188.1563,118.3438 Q188.8594,118.3438 189.5,118.5 Q190.1563,118.6563 190.7188,118.9531 L190.7188,121.6719 Q190.0938,121.0938 189.5,120.8281 Q188.9063,120.5469 188.2813,120.5469 Q186.9375,120.5469 186.25,121.625 Q185.5625,122.6875 185.5625,124.7813 Q185.5625,126.875 186.25,127.9531 Q186.9375,129.0156 188.2813,129.0156 Q188.9063,129.0156 189.5,128.75 Q190.0938,128.4688 190.7188,127.8906 L190.7188,130.6094 Z "/><text fill="#000000" font-family="sans-serif" font-size="14" lengthAdjust="spacingAndGlyphs" textLength="162" x="208.25" y="123.9951">ActionRelationshipType</text><text fill="#000000" font-family="sans-serif" font-size="10" lengthAdjust="spacingAndGlyphs" textLength="145" x="216.75" y="136.5791">com.ibm.fhir.model.type.code</text><line style="stroke: #A80036; stroke-width: 1.5;" x1="116" x2="430" y1="143.9375" y2="143.9375"/><ellipse cx="126" cy="154.9375" fill="none" rx="3" ry="3" style="stroke: #038048; stroke-width: 1.0;"/><text fill="#000000" font-family="sans-serif" font-size="11" lengthAdjust="spacingAndGlyphs" text-decoration="underline" textLength="224" x="135" y="158.1479">BEFORE_START: ActionRelationshipType</text><ellipse cx="126" cy="167.7422" fill="none" rx="3" ry="3" style="stroke: #038048; stroke-width: 1.0;"/><text fill="#000000" font-family="sans-serif" font-size="11" lengthAdjust="spacingAndGlyphs" text-decoration="underline" textLength="182" x="135" y="170.9526">BEFORE: ActionRelationshipType</text><ellipse cx="126" cy="180.5469" fill="none" rx="3" ry="3" style="stroke: #038048; stroke-width: 1.0;"/><text fill="#000000" font-family="sans-serif" font-size="11" lengthAdjust="spacingAndGlyphs" text-decoration="underline" textLength="211" x="135" y="183.7573">BEFORE_END: ActionRelationshipType</text><ellipse cx="126" cy="193.3516" fill="none" rx="3" ry="3" style="stroke: #038048; stroke-width: 1.0;"/><text fill="#000000" font-family="sans-serif" font-size="11" lengthAdjust="spacingAndGlyphs" text-decoration="underline" textLength="290" x="135" y="196.562">CONCURRENT_WITH_START: ActionRelationshipType</text><ellipse cx="126" cy="206.1563" fill="none" rx="3" ry="3" style="stroke: #038048; stroke-width: 1.0;"/><text fill="#000000" font-family="sans-serif" font-size="11" lengthAdjust="spacingAndGlyphs" text-decoration="underline" textLength="215" x="135" y="209.3667">CONCURRENT: ActionRelationshipType</text><ellipse cx="126" cy="218.9609" fill="none" rx="3" ry="3" style="stroke: #038048; stroke-width: 1.0;"/><text fill="#000000" font-family="sans-serif" font-size="11" lengthAdjust="spacingAndGlyphs" text-decoration="underline" textLength="277" x="135" y="222.1714">CONCURRENT_WITH_END: ActionRelationshipType</text><ellipse cx="126" cy="231.7656" fill="none" rx="3" ry="3" style="stroke: #038048; stroke-width: 1.0;"/><text fill="#000000" font-family="sans-serif" font-size="11" lengthAdjust="spacingAndGlyphs" text-decoration="underline" textLength="214" x="135" y="234.9761">AFTER_START: ActionRelationshipType</text><ellipse cx="126" cy="244.5703" fill="none" rx="3" ry="3" style="stroke: #038048; stroke-width: 1.0;"/><text fill="#000000" font-family="sans-serif" font-size="11" lengthAdjust="spacingAndGlyphs" text-decoration="underline" textLength="172" x="135" y="247.7808">AFTER: ActionRelationshipType</text><ellipse cx="126" cy="257.375" fill="none" rx="3" ry="3" style="stroke: #038048; stroke-width: 1.0;"/><text fill="#000000" font-family="sans-serif" font-size="11" lengthAdjust="spacingAndGlyphs" text-decoration="underline" textLength="201" x="135" y="260.5854">AFTER_END: ActionRelationshipType</text><line style="stroke: #A80036; stroke-width: 1.5;" x1="116" x2="430" y1="267.1797" y2="267.1797"/><ellipse cx="126" cy="278.1797" fill="#84BE84" rx="3" ry="3" style="stroke: #038048; stroke-width: 1.0;"/><text fill="#000000" font-family="sans-serif" font-size="11" lengthAdjust="spacingAndGlyphs" textLength="212" x="135" y="281.3901">getValueAsEnumConstant(): ValueSet</text><ellipse cx="126" cy="290.9844" fill="#84BE84" rx="3" ry="3" style="stroke: #038048; stroke-width: 1.0;"/><text fill="#000000" font-family="sans-serif" font-size="11" lengthAdjust="spacingAndGlyphs" text-decoration="underline" textLength="207" x="135" y="294.1948">of(ValueSet): ActionRelationshipType</text><ellipse cx="126" cy="303.7891" fill="#84BE84" rx="3" ry="3" style="stroke: #038048; stroke-width: 1.0;"/><text fill="#000000" font-family="sans-serif" font-size="11" lengthAdjust="spacingAndGlyphs" text-decoration="underline" textLength="191" x="135" y="306.9995">of(String): ActionRelationshipType</text><ellipse cx="126" cy="316.5938" fill="#84BE84" rx="3" ry="3" style="stroke: #038048; stroke-width: 1.0;"/><text fill="#000000" font-family="sans-serif" font-size="11" lengthAdjust="spacingAndGlyphs" text-decoration="underline" textLength="117" x="135" y="319.8042">string(String): String</text><ellipse cx="126" cy="329.3984" fill="#84BE84" rx="3" ry="3" style="stroke: #038048; stroke-width: 1.0;"/><text fill="#000000" font-family="sans-serif" font-size="11" lengthAdjust="spacingAndGlyphs" text-decoration="underline" textLength="106" x="135" y="332.6089">code(String): Code</text><ellipse cx="126" cy="342.2031" fill="#84BE84" rx="3" ry="3" style="stroke: #038048; stroke-width: 1.0;"/><text fill="#000000" font-family="sans-serif" font-size="11" lengthAdjust="spacingAndGlyphs" textLength="107" x="135" y="345.4136">toBuilder(): Builder</text><ellipse cx="126" cy="355.0078" fill="#84BE84" rx="3" ry="3" style="stroke: #038048; stroke-width: 1.0;"/><text fill="#000000" font-family="sans-serif" font-size="11" lengthAdjust="spacingAndGlyphs" text-decoration="underline" textLength="95" x="135" y="358.2183">builder(): Builder</text></a><!--MD5=[36277681a3d78580011ae89cb2088b30]
class com.ibm.fhir.model.type.Code--><a href="../Code.html" target="_top" title="../Code.html" xlink:actuate="onRequest" xlink:href="../Code.html" xlink:show="new" xlink:title="../Code.html" xlink:type="simple"><rect fill="#FEFECE" filter="url(#f16galq7nij5wv)" height="37.9375" id="com.ibm.fhir.model.type.Code" style="stroke: #A80036; stroke-width: 1.5;" width="151" x="197.5" y="8"/><ellipse cx="212.5" cy="26.9688" fill="#ADD1B2" rx="11" ry="11" style="stroke: #A80036; stroke-width: 1.0;"/><path d="M215.4688,32.6094 Q214.8906,32.9063 214.25,33.0469 Q213.6094,33.2031 212.9063,33.2031 Q210.4063,33.2031 209.0781,31.5625 Q207.7656,29.9063 207.7656,26.7813 Q207.7656,23.6563 209.0781,22 Q210.4063,20.3438 212.9063,20.3438 Q213.6094,20.3438 214.25,20.5 Q214.9063,20.6563 215.4688,20.9531 L215.4688,23.6719 Q214.8438,23.0938 214.25,22.8281 Q213.6563,22.5469 213.0313,22.5469 Q211.6875,22.5469 211,23.625 Q210.3125,24.6875 210.3125,26.7813 Q210.3125,28.875 211,29.9531 Q211.6875,31.0156 213.0313,31.0156 Q213.6563,31.0156 214.25,30.75 Q214.8438,30.4688 215.4688,29.8906 L215.4688,32.6094 Z "/><text fill="#000000" font-family="sans-serif" font-size="14" lengthAdjust="spacingAndGlyphs" textLength="37" x="267.5" y="25.9951">Code</text><text fill="#000000" font-family="sans-serif" font-size="10" lengthAdjust="spacingAndGlyphs" textLength="119" x="226.5" y="38.5791">com.ibm.fhir.model.type</text></a><!--MD5=[c23c08067783b1f950117ef52c4ff013]
class com.ibm.fhir.model.type.code.ActionRelationshipType.Builder--><a href="ActionRelationshipType.Builder.html" target="_top" title="ActionRelationshipType.Builder.html" xlink:actuate="onRequest" xlink:href="ActionRelationshipType.Builder.html" xlink:show="new" xlink:title="ActionRelationshipType.Builder.html" xlink:type="simple"><rect fill="#FEFECE" filter="url(#f16galq7nij5wv)" height="37.9375" id="com.ibm.fhir.model.type.code.ActionRelationshipType.Builder" style="stroke: #A80036; stroke-width: 1.5;" width="246" x="6" y="425"/><ellipse cx="21" cy="443.9688" fill="#ADD1B2" rx="11" ry="11" style="stroke: #A80036; stroke-width: 1.0;"/><path d="M23.9688,449.6094 Q23.3906,449.9063 22.75,450.0469 Q22.1094,450.2031 21.4063,450.2031 Q18.9063,450.2031 17.5781,448.5625 Q16.2656,446.9063 16.2656,443.7813 Q16.2656,440.6563 17.5781,439 Q18.9063,437.3438 21.4063,437.3438 Q22.1094,437.3438 22.75,437.5 Q23.4063,437.6563 23.9688,437.9531 L23.9688,440.6719 Q23.3438,440.0938 22.75,439.8281 Q22.1563,439.5469 21.5313,439.5469 Q20.1875,439.5469 19.5,440.625 Q18.8125,441.6875 18.8125,443.7813 Q18.8125,445.875 19.5,446.9531 Q20.1875,448.0156 21.5313,448.0156 Q22.1563,448.0156 22.75,447.75 Q23.3438,447.4688 23.9688,446.8906 L23.9688,449.6094 Z "/><text fill="#000000" font-family="sans-serif" font-size="14" lengthAdjust="spacingAndGlyphs" textLength="214" x="35" y="442.9951">ActionRelationshipType.Builder</text><text fill="#000000" font-family="sans-serif" font-size="10" lengthAdjust="spacingAndGlyphs" textLength="145" x="69.5" y="455.5791">com.ibm.fhir.model.type.code</text></a><!--MD5=[7cbde296e1b7b18e3ee51c0d293a786b]
class com.ibm.fhir.model.type.code.ActionRelationshipType.ValueSet--><a href="ActionRelationshipType.ValueSet.html" target="_top" title="ActionRelationshipType.ValueSet.html" xlink:actuate="onRequest" xlink:href="ActionRelationshipType.ValueSet.html" xlink:show="new" xlink:title="ActionRelationshipType.ValueSet.html" xlink:type="simple"><rect fill="#FEFECE" filter="url(#f16galq7nij5wv)" height="37.9375" id="com.ibm.fhir.model.type.code.ActionRelationshipType.ValueSet" style="stroke: #A80036; stroke-width: 1.5;" width="259" x="287.5" y="425"/><ellipse cx="302.5" cy="443.9688" fill="#EB937F" rx="11" ry="11" style="stroke: #A80036; stroke-width: 1.0;"/><path d="M306.6094,449.9688 L298.8906,449.9688 L298.8906,437.5781 L306.6094,437.5781 L306.6094,439.7344 L301.3438,439.7344 L301.3438,442.4063 L306.1094,442.4063 L306.1094,444.5625 L301.3438,444.5625 L301.3438,447.8125 L306.6094,447.8125 L306.6094,449.9688 Z "/><text fill="#000000" font-family="sans-serif" font-size="14" lengthAdjust="spacingAndGlyphs" textLength="227" x="316.5" y="442.9951">ActionRelationshipType.ValueSet</text><text fill="#000000" font-family="sans-serif" font-size="10" lengthAdjust="spacingAndGlyphs" textLength="145" x="357.5" y="455.5791">com.ibm.fhir.model.type.code</text></a><!--MD5=[ca9030eeb4f1d42a9e074dbf3444dd7f]
reverse link com.ibm.fhir.model.type.Code to com.ibm.fhir.model.type.code.ActionRelationshipType--><path d="M273,66.679 C273,78.2948 273,91.675 273,105.7135 " fill="none" id="com.ibm.fhir.model.type.Code&lt;-com.ibm.fhir.model.type.code.ActionRelationshipType" style="stroke: #A80036; stroke-width: 1.0;"/><polygon fill="none" points="266.0001,66.2415,273,46.2415,280.0001,66.2414,266.0001,66.2415" style="stroke: #A80036; stroke-width: 1.0;"/><!--MD5=[5eb50e07294e4122b69c83bfb2d0b671]
reverse link com.ibm.fhir.model.type.code.ActionRelationshipType to com.ibm.fhir.model.type.code.ActionRelationshipType.Builder--><path d="M174.8874,377.5589 C162.1188,396.0468 150.6176,412.6996 142.3232,424.7091 " fill="none" id="com.ibm.fhir.model.type.code.ActionRelationshipType&lt;-com.ibm.fhir.model.type.code.ActionRelationshipType.Builder" style="stroke: #A80036; stroke-width: 1.0;"/><ellipse cx="178.8939" cy="371.7578" fill="#FFFFFF" rx="8" ry="8" style="stroke: #A80036; stroke-width: 1.0;"/><line style="stroke: #A80036; stroke-width: 1.0;" x1="174.3477" x2="183.4402" y1="378.3404" y2="365.1751"/><line style="stroke: #A80036; stroke-width: 1.0;" x1="172.3113" x2="185.4766" y1="367.2115" y2="376.304"/><!--MD5=[c5542e6481d767aee5b8344e705aba10]
reverse link com.ibm.fhir.model.type.code.ActionRelationshipType to com.ibm.fhir.model.type.code.ActionRelationshipType.ValueSet--><path d="M371.1126,377.5589 C383.8812,396.0468 395.3824,412.6996 403.6768,424.7091 " fill="none" id="com.ibm.fhir.model.type.code.ActionRelationshipType&lt;-com.ibm.fhir.model.type.code.ActionRelationshipType.ValueSet" style="stroke: #A80036; stroke-width: 1.0;"/><ellipse cx="367.1061" cy="371.7578" fill="#FFFFFF" rx="8" ry="8" style="stroke: #A80036; stroke-width: 1.0;"/><line style="stroke: #A80036; stroke-width: 1.0;" x1="371.6523" x2="362.5598" y1="378.3404" y2="365.1751"/><line style="stroke: #A80036; stroke-width: 1.0;" x1="360.5234" x2="373.6887" y1="376.304" y2="367.2115"/><text fill="#888888" font-family="sans-serif" font-size="10" lengthAdjust="spacingAndGlyphs" textLength="186" x="189.5" y="482.2822">UMLDoclet 2.0.7, PlantUML 1.2019.12</text><!--MD5=[e89e609649339b295a26d50422adb11b]
@startuml
    set namespaceSeparator none
    hide empty fields
    hide empty methods

    class "<size:14>ActionRelationshipType\n<size:10>com.ibm.fhir.model.type.code" as com.ibm.fhir.model.type.code.ActionRelationshipType [[ActionRelationshipType.html]] {
        {static} +BEFORE_START: ActionRelationshipType
        {static} +BEFORE: ActionRelationshipType
        {static} +BEFORE_END: ActionRelationshipType
        {static} +CONCURRENT_WITH_START: ActionRelationshipType
        {static} +CONCURRENT: ActionRelationshipType
        {static} +CONCURRENT_WITH_END: ActionRelationshipType
        {static} +AFTER_START: ActionRelationshipType
        {static} +AFTER: ActionRelationshipType
        {static} +AFTER_END: ActionRelationshipType
        +getValueAsEnumConstant(): ValueSet
        {static} +of(ValueSet): ActionRelationshipType
        {static} +of(String): ActionRelationshipType
        {static} +string(String): String
        {static} +code(String): Code
        +toBuilder(): Builder
        {static} +builder(): Builder
    }

    class "<size:14>Code\n<size:10>com.ibm.fhir.model.type" as com.ibm.fhir.model.type.Code [[../Code.html]]
    class "<size:14>ActionRelationshipType.Builder\n<size:10>com.ibm.fhir.model.type.code" as com.ibm.fhir.model.type.code.ActionRelationshipType.Builder [[ActionRelationshipType.Builder.html]]
    enum "<size:14>ActionRelationshipType.ValueSet\n<size:10>com.ibm.fhir.model.type.code" as com.ibm.fhir.model.type.code.ActionRelationshipType.ValueSet [[ActionRelationshipType.ValueSet.html]]

    com.ibm.fhir.model.type.Code <|- - com.ibm.fhir.model.type.code.ActionRelationshipType
    com.ibm.fhir.model.type.code.ActionRelationshipType +- - com.ibm.fhir.model.type.code.ActionRelationshipType.Builder
    com.ibm.fhir.model.type.code.ActionRelationshipType +- - com.ibm.fhir.model.type.code.ActionRelationshipType.ValueSet

    center footer UMLDoclet 2.0.7, PlantUML 1.2019.12
@enduml

PlantUML version 1.2019.12(Sun Nov 03 10:24:54 UTC 2019)
(APACHE source distribution)
Java Runtime: OpenJDK Runtime Environment
JVM: OpenJDK 64-Bit Server VM
Java Version: 11.0.10+9
Operating System: Linux
Default Encoding: UTF-8
Language: en
Country: null
--></g></svg>