<?xml version="1.0" encoding="UTF-8" standalone="no"?><svg xmlns="http://www.w3.org/2000/svg" xmlns:xlink="http://www.w3.org/1999/xlink" contentScriptType="application/ecmascript" contentStyleType="text/css" height="261px" preserveAspectRatio="none" style="width:400px;height:261px;" version="1.1" viewBox="0 0 400 261" width="400px" zoomAndPan="magnify"><defs><filter height="300%" id="f1dip3s62kx61e" width="300%" x="-1" y="-1"><feGaussianBlur result="blurOut" stdDeviation="2.0"/><feColorMatrix in="blurOut" result="blurOut2" type="matrix" values="0 0 0 0 0 0 0 0 0 0 0 0 0 0 0 0 0 0 .4 0"/><feOffset dx="4.0" dy="4.0" in="blurOut2" result="blurOut3"/><feBlend in="SourceGraphic" in2="blurOut3" mode="normal"/></filter></defs><g><!--MD5=[439db0f7ac6b792027d705b5d69d134e]
class com.ibm.fhir.model.type.code.TestReportActionResult.Builder--><a href="TestReportActionResult.Builder.html" target="_top" title="TestReportActionResult.Builder.html" xlink:actuate="onRequest" xlink:href="TestReportActionResult.Builder.html" xlink:show="new" xlink:title="TestReportActionResult.Builder.html" xlink:type="simple"><rect fill="#FEFECE" filter="url(#f1dip3s62kx61e)" height="122.7656" id="com.ibm.fhir.model.type.code.TestReportActionResult.Builder" style="stroke: #A80036; stroke-width: 1.5;" width="265" x="53" y="106"/><ellipse cx="75.2" cy="124.9688" fill="#ADD1B2" rx="11" ry="11" style="stroke: #A80036; stroke-width: 1.0;"/><path d="M78.1688,130.6094 Q77.5906,130.9063 76.95,131.0469 Q76.3094,131.2031 75.6063,131.2031 Q73.1063,131.2031 71.7781,129.5625 Q70.4656,127.9063 70.4656,124.7813 Q70.4656,121.6563 71.7781,120 Q73.1063,118.3438 75.6063,118.3438 Q76.3094,118.3438 76.95,118.5 Q77.6063,118.6563 78.1688,118.9531 L78.1688,121.6719 Q77.5438,121.0938 76.95,120.8281 Q76.3563,120.5469 75.7313,120.5469 Q74.3875,120.5469 73.7,121.625 Q73.0125,122.6875 73.0125,124.7813 Q73.0125,126.875 73.7,127.9531 Q74.3875,129.0156 75.7313,129.0156 Q76.3563,129.0156 76.95,128.75 Q77.5438,128.4688 78.1688,127.8906 L78.1688,130.6094 Z "/><text fill="#000000" font-family="sans-serif" font-size="14" lengthAdjust="spacingAndGlyphs" textLength="217" x="90.8" y="123.9951">TestReportActionResult.Builder</text><text fill="#000000" font-family="sans-serif" font-size="10" lengthAdjust="spacingAndGlyphs" textLength="145" x="126.8" y="136.5791">com.ibm.fhir.model.type.code</text><line style="stroke: #A80036; stroke-width: 1.5;" x1="54" x2="317" y1="143.9375" y2="143.9375"/><ellipse cx="64" cy="154.9375" fill="#84BE84" rx="3" ry="3" style="stroke: #038048; stroke-width: 1.0;"/><text fill="#000000" font-family="sans-serif" font-size="11" lengthAdjust="spacingAndGlyphs" textLength="100" x="73" y="158.1479">id(String): Builder</text><ellipse cx="64" cy="167.7422" fill="#84BE84" rx="3" ry="3" style="stroke: #038048; stroke-width: 1.0;"/><text fill="#000000" font-family="sans-serif" font-size="11" lengthAdjust="spacingAndGlyphs" textLength="178" x="73" y="170.9526">extension(Extension...): Builder</text><ellipse cx="64" cy="180.5469" fill="#84BE84" rx="3" ry="3" style="stroke: #038048; stroke-width: 1.0;"/><text fill="#000000" font-family="sans-serif" font-size="11" lengthAdjust="spacingAndGlyphs" textLength="239" x="73" y="183.7573">extension(Collection&lt;Extension&gt;): Builder</text><ellipse cx="64" cy="193.3516" fill="#84BE84" rx="3" ry="3" style="stroke: #038048; stroke-width: 1.0;"/><text fill="#000000" font-family="sans-serif" font-size="11" lengthAdjust="spacingAndGlyphs" textLength="120" x="73" y="196.562">value(String): Builder</text><ellipse cx="64" cy="206.1563" fill="#84BE84" rx="3" ry="3" style="stroke: #038048; stroke-width: 1.0;"/><text fill="#000000" font-family="sans-serif" font-size="11" lengthAdjust="spacingAndGlyphs" textLength="136" x="73" y="209.3667">value(ValueSet): Builder</text><ellipse cx="64" cy="218.9609" fill="#84BE84" rx="3" ry="3" style="stroke: #038048; stroke-width: 1.0;"/><text fill="#000000" font-family="sans-serif" font-size="11" lengthAdjust="spacingAndGlyphs" textLength="174" x="73" y="222.1714">build(): TestReportActionResult</text></a><!--MD5=[d58206fe609464c205fa3b8b97dbba54]
class com.ibm.fhir.model.type.Code.Builder--><a href="../Code.Builder.html" target="_top" title="../Code.Builder.html" xlink:actuate="onRequest" xlink:href="../Code.Builder.html" xlink:show="new" xlink:title="../Code.Builder.html" xlink:type="simple"><rect fill="#FEFECE" filter="url(#f1dip3s62kx61e)" height="37.9375" id="com.ibm.fhir.model.type.Code.Builder" style="stroke: #A80036; stroke-width: 1.5;" width="151" x="6" y="8"/><ellipse cx="21" cy="26.9688" fill="#ADD1B2" rx="11" ry="11" style="stroke: #A80036; stroke-width: 1.0;"/><path d="M23.9688,32.6094 Q23.3906,32.9063 22.75,33.0469 Q22.1094,33.2031 21.4063,33.2031 Q18.9063,33.2031 17.5781,31.5625 Q16.2656,29.9063 16.2656,26.7813 Q16.2656,23.6563 17.5781,22 Q18.9063,20.3438 21.4063,20.3438 Q22.1094,20.3438 22.75,20.5 Q23.4063,20.6563 23.9688,20.9531 L23.9688,23.6719 Q23.3438,23.0938 22.75,22.8281 Q22.1563,22.5469 21.5313,22.5469 Q20.1875,22.5469 19.5,23.625 Q18.8125,24.6875 18.8125,26.7813 Q18.8125,28.875 19.5,29.9531 Q20.1875,31.0156 21.5313,31.0156 Q22.1563,31.0156 22.75,30.75 Q23.3438,30.4688 23.9688,29.8906 L23.9688,32.6094 Z "/><text fill="#000000" font-family="sans-serif" font-size="14" lengthAdjust="spacingAndGlyphs" textLength="89" x="50" y="25.9951">Code.Builder</text><text fill="#000000" font-family="sans-serif" font-size="10" lengthAdjust="spacingAndGlyphs" textLength="119" x="35" y="38.5791">com.ibm.fhir.model.type</text></a><!--MD5=[bda93eed651d0f9b381db620935c82c3]
class com.ibm.fhir.model.type.code.TestReportActionResult--><a href="TestReportActionResult.html" target="_top" title="TestReportActionResult.html" xlink:actuate="onRequest" xlink:href="TestReportActionResult.html" xlink:show="new" xlink:title="TestReportActionResult.html" xlink:type="simple"><rect fill="#FEFECE" filter="url(#f1dip3s62kx61e)" height="37.9375" id="com.ibm.fhir.model.type.code.TestReportActionResult" style="stroke: #A80036; stroke-width: 1.5;" width="197" x="192" y="8"/><ellipse cx="207" cy="26.9688" fill="#ADD1B2" rx="11" ry="11" style="stroke: #A80036; stroke-width: 1.0;"/><path d="M209.9688,32.6094 Q209.3906,32.9063 208.75,33.0469 Q208.1094,33.2031 207.4063,33.2031 Q204.9063,33.2031 203.5781,31.5625 Q202.2656,29.9063 202.2656,26.7813 Q202.2656,23.6563 203.5781,22 Q204.9063,20.3438 207.4063,20.3438 Q208.1094,20.3438 208.75,20.5 Q209.4063,20.6563 209.9688,20.9531 L209.9688,23.6719 Q209.3438,23.0938 208.75,22.8281 Q208.1563,22.5469 207.5313,22.5469 Q206.1875,22.5469 205.5,23.625 Q204.8125,24.6875 204.8125,26.7813 Q204.8125,28.875 205.5,29.9531 Q206.1875,31.0156 207.5313,31.0156 Q208.1563,31.0156 208.75,30.75 Q209.3438,30.4688 209.9688,29.8906 L209.9688,32.6094 Z "/><text fill="#000000" font-family="sans-serif" font-size="14" lengthAdjust="spacingAndGlyphs" textLength="165" x="221" y="25.9951">TestReportActionResult</text><text fill="#000000" font-family="sans-serif" font-size="10" lengthAdjust="spacingAndGlyphs" textLength="145" x="231" y="38.5791">com.ibm.fhir.model.type.code</text></a><!--MD5=[ee462a4f07549f24b9c30700a43bab4c]
reverse link com.ibm.fhir.model.type.Code.Builder to com.ibm.fhir.model.type.code.TestReportActionResult.Builder--><path d="M107.8546,62.604 C117.6029,75.7736 128.9552,91.1102 139.9207,105.9242 " fill="none" id="com.ibm.fhir.model.type.Code.Builder&lt;-com.ibm.fhir.model.type.code.TestReportActionResult.Builder" style="stroke: #A80036; stroke-width: 1.0;"/><polygon fill="none" points="102.0155,66.4812,95.7427,46.2413,113.2681,58.1519,102.0155,66.4812" style="stroke: #A80036; stroke-width: 1.0;"/><!--MD5=[b35a276b0b298fea5a8a20a254eb313a]
reverse link com.ibm.fhir.model.type.code.TestReportActionResult to com.ibm.fhir.model.type.code.TestReportActionResult.Builder--><path d="M266.8587,58.6342 C256.3985,72.6311 243.7208,89.5951 231.5175,105.9242 " fill="none" id="com.ibm.fhir.model.type.code.TestReportActionResult&lt;-com.ibm.fhir.model.type.code.TestReportActionResult.Builder" style="stroke: #A80036; stroke-width: 1.0;"/><ellipse cx="271.3313" cy="52.6495" fill="#FFFFFF" rx="8" ry="8" style="stroke: #A80036; stroke-width: 1.0;"/><line style="stroke: #A80036; stroke-width: 1.0;" x1="266.5423" x2="276.1204" y1="59.0577" y2="46.2413"/><line style="stroke: #A80036; stroke-width: 1.0;" x1="264.9232" x2="277.7395" y1="47.8604" y2="57.4385"/><text fill="#888888" font-family="sans-serif" font-size="10" lengthAdjust="spacingAndGlyphs" textLength="186" x="110.5" y="248.2822">UMLDoclet 2.0.7, PlantUML 1.2019.12</text><!--MD5=[99c23929350807b8ff7565f56d9e6cf0]
@startuml
    set namespaceSeparator none
    hide empty fields
    hide empty methods

    class "<size:14>TestReportActionResult.Builder\n<size:10>com.ibm.fhir.model.type.code" as com.ibm.fhir.model.type.code.TestReportActionResult.Builder [[TestReportActionResult.Builder.html]] {
        +id(String): Builder
        +extension(Extension...): Builder
        +extension(Collection<Extension>): Builder
        +value(String): Builder
        +value(ValueSet): Builder
        +build(): TestReportActionResult
    }

    class "<size:14>Code.Builder\n<size:10>com.ibm.fhir.model.type" as com.ibm.fhir.model.type.Code.Builder [[../Code.Builder.html]]
    class "<size:14>TestReportActionResult\n<size:10>com.ibm.fhir.model.type.code" as com.ibm.fhir.model.type.code.TestReportActionResult [[TestReportActionResult.html]]

    com.ibm.fhir.model.type.Code.Builder <|- - com.ibm.fhir.model.type.code.TestReportActionResult.Builder
    com.ibm.fhir.model.type.code.TestReportActionResult +- - com.ibm.fhir.model.type.code.TestReportActionResult.Builder

    center footer UMLDoclet 2.0.7, PlantUML 1.2019.12
@enduml

PlantUML version 1.2019.12(Sun Nov 03 10:24:54 UTC 2019)
(APACHE source distribution)
Java Runtime: OpenJDK Runtime Environment
JVM: OpenJDK 64-Bit Server VM
Java Version: 11.0.10+9
Operating System: Linux
Default Encoding: UTF-8
Language: en
Country: null
--></g></svg>