<?xml version="1.0" encoding="UTF-8" standalone="no"?><svg xmlns="http://www.w3.org/2000/svg" xmlns:xlink="http://www.w3.org/1999/xlink" contentScriptType="application/ecmascript" contentStyleType="text/css" height="95px" preserveAspectRatio="none" style="width:208px;height:95px;" version="1.1" viewBox="0 0 208 95" width="208px" zoomAndPan="magnify"><defs><filter height="300%" id="f180ix71fkka3n" width="300%" x="-1" y="-1"><feGaussianBlur result="blurOut" stdDeviation="2.0"/><feColorMatrix in="blurOut" result="blurOut2" type="matrix" values="0 0 0 0 0 0 0 0 0 0 0 0 0 0 0 0 0 0 .4 0"/><feOffset dx="4.0" dy="4.0" in="blurOut2" result="blurOut3"/><feBlend in="SourceGraphic" in2="blurOut3" mode="normal"/></filter></defs><g><!--MD5=[561073fd022109a71e180d10547ff13d]
class com.ibm.fhir.model.ucum.util.UCUMUtil--><a href="UCUMUtil.html" target="_top" title="UCUMUtil.html" xlink:actuate="onRequest" xlink:href="UCUMUtil.html" xlink:show="new" xlink:title="UCUMUtil.html" xlink:type="simple"><rect fill="#FEFECE" filter="url(#f180ix71fkka3n)" height="58.7422" id="com.ibm.fhir.model.ucum.util.UCUMUtil" style="stroke: #A80036; stroke-width: 1.5;" width="190" x="7" y="7"/><ellipse cx="29.65" cy="25.9688" fill="#ADD1B2" rx="11" ry="11" style="stroke: #A80036; stroke-width: 1.0;"/><path d="M32.6188,31.6094 Q32.0406,31.9063 31.4,32.0469 Q30.7594,32.2031 30.0563,32.2031 Q27.5563,32.2031 26.2281,30.5625 Q24.9156,28.9063 24.9156,25.7813 Q24.9156,22.6563 26.2281,21 Q27.5563,19.3438 30.0563,19.3438 Q30.7594,19.3438 31.4,19.5 Q32.0563,19.6563 32.6188,19.9531 L32.6188,22.6719 Q31.9938,22.0938 31.4,21.8281 Q30.8063,21.5469 30.1813,21.5469 Q28.8375,21.5469 28.15,22.625 Q27.4625,23.6875 27.4625,25.7813 Q27.4625,27.875 28.15,28.9531 Q28.8375,30.0156 30.1813,30.0156 Q30.8063,30.0156 31.4,29.75 Q31.9938,29.4688 32.6188,28.8906 L32.6188,31.6094 Z "/><text fill="#000000" font-family="sans-serif" font-size="14" lengthAdjust="spacingAndGlyphs" textLength="63" x="84.35" y="24.9951">UCUMUtil</text><text fill="#000000" font-family="sans-serif" font-size="10" lengthAdjust="spacingAndGlyphs" textLength="141" x="45.35" y="37.5791">com.ibm.fhir.model.ucum.util</text><line style="stroke: #A80036; stroke-width: 1.5;" x1="8" x2="196" y1="44.9375" y2="44.9375"/><ellipse cx="18" cy="55.9375" fill="#84BE84" rx="3" ry="3" style="stroke: #038048; stroke-width: 1.0;"/><text fill="#000000" font-family="sans-serif" font-size="11" lengthAdjust="spacingAndGlyphs" text-decoration="underline" textLength="164" x="27" y="59.1479">isValidUcum(String): boolean</text></a><text fill="#888888" font-family="sans-serif" font-size="10" lengthAdjust="spacingAndGlyphs" textLength="186" x="9" y="82.0244">UMLDoclet 2.0.7, PlantUML 1.2019.12</text><!--MD5=[6d9862ccd69e70c85e91ed7fa30bed38]
@startuml
    set namespaceSeparator none
    hide empty fields
    hide empty methods

    class "<size:14>UCUMUtil\n<size:10>com.ibm.fhir.model.ucum.util" as com.ibm.fhir.model.ucum.util.UCUMUtil [[UCUMUtil.html]] {
        {static} +isValidUcum(String): boolean
    }

    center footer UMLDoclet 2.0.7, PlantUML 1.2019.12
@enduml

PlantUML version 1.2019.12(Sun Nov 03 10:24:54 UTC 2019)
(APACHE source distribution)
Java Runtime: OpenJDK Runtime Environment
JVM: OpenJDK 64-Bit Server VM
Java Version: 11.0.8+10
Operating System: Linux
Default Encoding: UTF-8
Language: en
Country: null
--></g></svg>