<?xml version="1.0" encoding="UTF-8" standalone="no"?><svg xmlns="http://www.w3.org/2000/svg" xmlns:xlink="http://www.w3.org/1999/xlink" contentScriptType="application/ecmascript" contentStyleType="text/css" height="95px" preserveAspectRatio="none" style="width:483px;height:95px;" version="1.1" viewBox="0 0 483 95" width="483px" zoomAndPan="magnify"><defs><filter height="300%" id="fsbbrdi9gu7bv" width="300%" x="-1" y="-1"><feGaussianBlur result="blurOut" stdDeviation="2.0"/><feColorMatrix in="blurOut" result="blurOut2" type="matrix" values="0 0 0 0 0 0 0 0 0 0 0 0 0 0 0 0 0 0 .4 0"/><feOffset dx="4.0" dy="4.0" in="blurOut2" result="blurOut3"/><feBlend in="SourceGraphic" in2="blurOut3" mode="normal"/></filter></defs><g><!--MD5=[c1bf9fda372d3ba6dea24dafa9f8847d]
class com.ibm.fhir.operation.bulkdata.config.preflight.PreflightFactory--><a href="PreflightFactory.html" target="_top" title="PreflightFactory.html" xlink:actuate="onRequest" xlink:href="PreflightFactory.html" xlink:show="new" xlink:title="PreflightFactory.html" xlink:type="simple"><rect fill="#FEFECE" filter="url(#fsbbrdi9gu7bv)" height="58.7422" id="com.ibm.fhir.operation.bulkdata.config.preflight.PreflightFactory" style="stroke: #A80036; stroke-width: 1.5;" width="465" x="7" y="7"/><ellipse cx="120.75" cy="25.9688" fill="#ADD1B2" rx="11" ry="11" style="stroke: #A80036; stroke-width: 1.0;"/><path d="M123.7188,31.6094 Q123.1406,31.9063 122.5,32.0469 Q121.8594,32.2031 121.1563,32.2031 Q118.6563,32.2031 117.3281,30.5625 Q116.0156,28.9063 116.0156,25.7813 Q116.0156,22.6563 117.3281,21 Q118.6563,19.3438 121.1563,19.3438 Q121.8594,19.3438 122.5,19.5 Q123.1563,19.6563 123.7188,19.9531 L123.7188,22.6719 Q123.0938,22.0938 122.5,21.8281 Q121.9063,21.5469 121.2813,21.5469 Q119.9375,21.5469 119.25,22.625 Q118.5625,23.6875 118.5625,25.7813 Q118.5625,27.875 119.25,28.9531 Q119.9375,30.0156 121.2813,30.0156 Q121.9063,30.0156 122.5,29.75 Q123.0938,29.4688 123.7188,28.8906 L123.7188,31.6094 Z "/><text fill="#000000" font-family="sans-serif" font-size="14" lengthAdjust="spacingAndGlyphs" textLength="106" x="202.75" y="24.9951">PreflightFactory</text><text fill="#000000" font-family="sans-serif" font-size="10" lengthAdjust="spacingAndGlyphs" textLength="229" x="141.25" y="37.5791">com.ibm.fhir.operation.bulkdata.config.preflight</text><line style="stroke: #A80036; stroke-width: 1.5;" x1="8" x2="471" y1="44.9375" y2="44.9375"/><ellipse cx="18" cy="55.9375" fill="#84BE84" rx="3" ry="3" style="stroke: #038048; stroke-width: 1.0;"/><text fill="#000000" font-family="sans-serif" font-size="11" lengthAdjust="spacingAndGlyphs" text-decoration="underline" textLength="439" x="27" y="59.1479">getInstance(FHIROperationContext, List&lt;Input&gt;, ExportType, String): Preflight</text></a><text fill="#888888" font-family="sans-serif" font-size="10" lengthAdjust="spacingAndGlyphs" textLength="186" x="146.5" y="82.0244">UMLDoclet 2.0.7, PlantUML 1.2019.12</text><!--MD5=[116236e4fd985c4757a096bec2055cfd]
@startuml
    set namespaceSeparator none
    hide empty fields
    hide empty methods

    class "<size:14>PreflightFactory\n<size:10>com.ibm.fhir.operation.bulkdata.config.preflight" as com.ibm.fhir.operation.bulkdata.config.preflight.PreflightFactory [[PreflightFactory.html]] {
        {static} +getInstance(FHIROperationContext, List<Input>, ExportType, String): Preflight
    }

    center footer UMLDoclet 2.0.7, PlantUML 1.2019.12
@enduml

PlantUML version 1.2019.12(Sun Nov 03 10:24:54 UTC 2019)
(APACHE source distribution)
Java Runtime: OpenJDK Runtime Environment
JVM: OpenJDK 64-Bit Server VM
Java Version: 11.0.10+9
Operating System: Linux
Default Encoding: UTF-8
Language: en
Country: null
--></g></svg>