<?xml version="1.0" encoding="UTF-8" standalone="no"?><svg xmlns="http://www.w3.org/2000/svg" xmlns:xlink="http://www.w3.org/1999/xlink" contentScriptType="application/ecmascript" contentStyleType="text/css" height="337px" preserveAspectRatio="none" style="width:286px;height:337px;" version="1.1" viewBox="0 0 286 337" width="286px" zoomAndPan="magnify"><defs><filter height="300%" id="f1ngxcbftcazcv" width="300%" x="-1" y="-1"><feGaussianBlur result="blurOut" stdDeviation="2.0"/><feColorMatrix in="blurOut" result="blurOut2" type="matrix" values="0 0 0 0 0 0 0 0 0 0 0 0 0 0 0 0 0 0 .4 0"/><feOffset dx="4.0" dy="4.0" in="blurOut2" result="blurOut3"/><feBlend in="SourceGraphic" in2="blurOut3" mode="normal"/></filter></defs><g><!--MD5=[75be528bc66e737643062923db93ca66]
cluster com.ibm.fhir.bulkdata.dto--><polygon fill="#FFFFFF" filter="url(#f1ngxcbftcazcv)" points="14,124,221,124,228,146.2969,264,146.2969,264,297,14,297,14,124" style="stroke: #000000; stroke-width: 1.5;"/><line style="stroke: #000000; stroke-width: 1.5;" x1="14" x2="228" y1="146.2969" y2="146.2969"/><text fill="#000000" font-family="sans-serif" font-size="14" font-weight="bold" lengthAdjust="spacingAndGlyphs" textLength="201" x="18" y="138.9951">com.ibm.fhir.bulkdata.dto</text><!--MD5=[0d852700fdad35b7061d461d6907a324]
cluster java.io--><polygon fill="#FFFFFF" filter="url(#f1ngxcbftcazcv)" points="79,16,135,16,142,38.2969,199,38.2969,199,99,79,99,79,16" style="stroke: #000000; stroke-width: 1.5;"/><line style="stroke: #000000; stroke-width: 1.5;" x1="79" x2="142" y1="38.2969" y2="38.2969"/><text fill="#000000" font-family="sans-serif" font-size="14" font-weight="bold" lengthAdjust="spacingAndGlyphs" textLength="50" x="83" y="30.9951">java.io</text><!--MD5=[9cd587b1c88382d0fee0d003adfc44a5]
class com.ibm.fhir.bulkdata.dto.ReadResultDTO--><a href="ReadResultDTO.html" target="_top" title="ReadResultDTO.html" xlink:actuate="onRequest" xlink:href="ReadResultDTO.html" xlink:show="new" xlink:title="ReadResultDTO.html" xlink:type="simple"><rect fill="#FEFECE" filter="url(#f1ngxcbftcazcv)" height="137.6328" id="com.ibm.fhir.bulkdata.dto.ReadResultDTO" style="stroke: #A80036; stroke-width: 1.5;" width="234" x="22" y="151"/><ellipse cx="86.75" cy="167" fill="#ADD1B2" rx="11" ry="11" style="stroke: #A80036; stroke-width: 1.0;"/><path d="M89.7188,172.6406 Q89.1406,172.9375 88.5,173.0781 Q87.8594,173.2344 87.1563,173.2344 Q84.6563,173.2344 83.3281,171.5938 Q82.0156,169.9375 82.0156,166.8125 Q82.0156,163.6875 83.3281,162.0313 Q84.6563,160.375 87.1563,160.375 Q87.8594,160.375 88.5,160.5313 Q89.1563,160.6875 89.7188,160.9844 L89.7188,163.7031 Q89.0938,163.125 88.5,162.8594 Q87.9063,162.5781 87.2813,162.5781 Q85.9375,162.5781 85.25,163.6563 Q84.5625,164.7188 84.5625,166.8125 Q84.5625,168.9063 85.25,169.9844 Q85.9375,171.0469 87.2813,171.0469 Q87.9063,171.0469 88.5,170.7813 Q89.0938,170.5 89.7188,169.9219 L89.7188,172.6406 Z "/><text fill="#000000" font-family="sans-serif" font-size="12" lengthAdjust="spacingAndGlyphs" textLength="96" x="107.25" y="171.1543">ReadResultDTO</text><line style="stroke: #A80036; stroke-width: 1.5;" x1="23" x2="255" y1="183" y2="183"/><line style="stroke: #A80036; stroke-width: 1.5;" x1="23" x2="255" y1="191" y2="191"/><ellipse cx="33" cy="202" fill="#84BE84" rx="3" ry="3" style="stroke: #038048; stroke-width: 1.0;"/><text fill="#000000" font-family="sans-serif" font-size="11" lengthAdjust="spacingAndGlyphs" textLength="95" x="42" y="205.2104">ReadResultDTO()</text><ellipse cx="33" cy="214.8047" fill="#84BE84" rx="3" ry="3" style="stroke: #038048; stroke-width: 1.0;"/><text fill="#000000" font-family="sans-serif" font-size="11" lengthAdjust="spacingAndGlyphs" textLength="186" x="42" y="218.0151">ReadResultDTO(List&lt;Resource&gt;)</text><ellipse cx="33" cy="227.6094" fill="#84BE84" rx="3" ry="3" style="stroke: #038048; stroke-width: 1.0;"/><text fill="#000000" font-family="sans-serif" font-size="11" lengthAdjust="spacingAndGlyphs" textLength="185" x="42" y="230.8198">getResources(): List&lt;Resource&gt;</text><ellipse cx="33" cy="240.4141" fill="#84BE84" rx="3" ry="3" style="stroke: #038048; stroke-width: 1.0;"/><text fill="#000000" font-family="sans-serif" font-size="11" lengthAdjust="spacingAndGlyphs" textLength="208" x="42" y="243.6245">setResources(List&lt;Resource&gt;): void</text><ellipse cx="33" cy="253.2188" fill="#84BE84" rx="3" ry="3" style="stroke: #038048; stroke-width: 1.0;"/><text fill="#000000" font-family="sans-serif" font-size="11" lengthAdjust="spacingAndGlyphs" textLength="166" x="42" y="256.4292">addResource(Resource): void</text><ellipse cx="33" cy="266.0234" fill="#84BE84" rx="3" ry="3" style="stroke: #038048; stroke-width: 1.0;"/><text fill="#000000" font-family="sans-serif" font-size="11" lengthAdjust="spacingAndGlyphs" textLength="52" x="42" y="269.2339">size(): int</text><ellipse cx="33" cy="278.8281" fill="#84BE84" rx="3" ry="3" style="stroke: #038048; stroke-width: 1.0;"/><text fill="#000000" font-family="sans-serif" font-size="11" lengthAdjust="spacingAndGlyphs" textLength="96" x="42" y="282.0386">empty(): boolean</text></a><!--MD5=[5a5af9b0547913863cbe0ddf55a9ab5e]
class java.io.Serializable--><a href="https://docs.oracle.com/javase/8/docs/api/java/io/Serializable.html?is-external=true" target="_top" title="https://docs.oracle.com/javase/8/docs/api/java/io/Serializable.html?is-external=true" xlink:actuate="onRequest" xlink:href="https://docs.oracle.com/javase/8/docs/api/java/io/Serializable.html?is-external=true" xlink:show="new" xlink:title="https://docs.oracle.com/javase/8/docs/api/java/io/Serializable.html?is-external=true" xlink:type="simple"><rect fill="#FEFECE" filter="url(#f1ngxcbftcazcv)" height="48" id="java.io.Serializable" style="stroke: #A80036; stroke-width: 1.5;" width="103" x="87.5" y="43"/><ellipse cx="102.5" cy="59" fill="#B4A7E5" rx="11" ry="11" style="stroke: #A80036; stroke-width: 1.0;"/><path d="M98.4219,54.7656 L98.4219,52.6094 L105.8125,52.6094 L105.8125,54.7656 L103.3438,54.7656 L103.3438,62.8438 L105.8125,62.8438 L105.8125,65 L98.4219,65 L98.4219,62.8438 L100.8906,62.8438 L100.8906,54.7656 L98.4219,54.7656 Z "/><text fill="#000000" font-family="sans-serif" font-size="12" font-style="italic" lengthAdjust="spacingAndGlyphs" textLength="71" x="116.5" y="63.1543">Serializable</text><line style="stroke: #A80036; stroke-width: 1.5;" x1="88.5" x2="189.5" y1="75" y2="75"/><line style="stroke: #A80036; stroke-width: 1.5;" x1="88.5" x2="189.5" y1="83" y2="83"/></a><!--MD5=[71361d58d2e9d221fd771010451d0c6e]
reverse link java.io.Serializable to com.ibm.fhir.bulkdata.dto.ReadResultDTO--><path d="M139,111.6073 C139,123.9248 139,137.5859 139,150.9416 " fill="none" id="java.io.Serializable&lt;-com.ibm.fhir.bulkdata.dto.ReadResultDTO" style="stroke: #A80036; stroke-width: 1.0; stroke-dasharray: 7.0,7.0;"/><polygon fill="none" points="132.0001,111.2433,139,91.2433,146.0001,111.2433,132.0001,111.2433" style="stroke: #A80036; stroke-width: 1.0;"/><text fill="#888888" font-family="sans-serif" font-size="10" lengthAdjust="spacingAndGlyphs" textLength="186" x="52" y="324.2822">UMLDoclet 2.0.7, PlantUML 1.2019.12</text><!--MD5=[02fa14853c8b15a92b7ca02394487e22]
@startuml
    namespace com.ibm.fhir.bulkdata.dto {

        class ReadResultDTO [[ReadResultDTO.html]] {
            +ReadResultDTO()
            +ReadResultDTO(List<Resource>)
            +getResources(): List<Resource>
            +setResources(List<Resource>): void
            +addResource(Resource): void
            +size(): int
            +empty(): boolean
        }

        java.io.Serializable <|.. ReadResultDTO
    }

    namespace java.io {
        interface Serializable [[https://docs.oracle.com/javase/8/docs/api/java/io/Serializable.html?is-external=true]]
    }

    center footer UMLDoclet 2.0.7, PlantUML 1.2019.12
@enduml

PlantUML version 1.2019.12(Sun Nov 03 10:24:54 UTC 2019)
(APACHE source distribution)
Java Runtime: OpenJDK Runtime Environment
JVM: OpenJDK 64-Bit Server VM
Java Version: 11.0.10+9
Operating System: Linux
Default Encoding: UTF-8
Language: en
Country: null
--></g></svg>