<?xml version="1.0" encoding="UTF-8" standalone="no"?><svg xmlns="http://www.w3.org/2000/svg" xmlns:xlink="http://www.w3.org/1999/xlink" contentScriptType="application/ecmascript" contentStyleType="text/css" height="274px" preserveAspectRatio="none" style="width:354px;height:274px;" version="1.1" viewBox="0 0 354 274" width="354px" zoomAndPan="magnify"><defs><filter height="300%" id="f123vrw1p70ofd" width="300%" x="-1" y="-1"><feGaussianBlur result="blurOut" stdDeviation="2.0"/><feColorMatrix in="blurOut" result="blurOut2" type="matrix" values="0 0 0 0 0 0 0 0 0 0 0 0 0 0 0 0 0 0 .4 0"/><feOffset dx="4.0" dy="4.0" in="blurOut2" result="blurOut3"/><feBlend in="SourceGraphic" in2="blurOut3" mode="normal"/></filter></defs><g><!--MD5=[69580092d736de31579f5a8a0f7c113d]
class com.ibm.fhir.model.type.PositiveInt.Builder--><a href="PositiveInt.Builder.html" target="_top" title="PositiveInt.Builder.html" xlink:actuate="onRequest" xlink:href="PositiveInt.Builder.html" xlink:show="new" xlink:title="PositiveInt.Builder.html" xlink:type="simple"><rect fill="#FEFECE" filter="url(#f123vrw1p70ofd)" height="135.5703" id="com.ibm.fhir.model.type.PositiveInt.Builder" style="stroke: #A80036; stroke-width: 1.5;" width="265" x="42" y="106"/><ellipse cx="109.25" cy="124.9688" fill="#ADD1B2" rx="11" ry="11" style="stroke: #A80036; stroke-width: 1.0;"/><path d="M112.2188,130.6094 Q111.6406,130.9063 111,131.0469 Q110.3594,131.2031 109.6563,131.2031 Q107.1563,131.2031 105.8281,129.5625 Q104.5156,127.9063 104.5156,124.7813 Q104.5156,121.6563 105.8281,120 Q107.1563,118.3438 109.6563,118.3438 Q110.3594,118.3438 111,118.5 Q111.6563,118.6563 112.2188,118.9531 L112.2188,121.6719 Q111.5938,121.0938 111,120.8281 Q110.4063,120.5469 109.7813,120.5469 Q108.4375,120.5469 107.75,121.625 Q107.0625,122.6875 107.0625,124.7813 Q107.0625,126.875 107.75,127.9531 Q108.4375,129.0156 109.7813,129.0156 Q110.4063,129.0156 111,128.75 Q111.5938,128.4688 112.2188,127.8906 L112.2188,130.6094 Z "/><text fill="#000000" font-family="sans-serif" font-size="14" lengthAdjust="spacingAndGlyphs" textLength="122" x="129.75" y="123.9951">PositiveInt.Builder</text><text fill="#000000" font-family="sans-serif" font-size="10" lengthAdjust="spacingAndGlyphs" textLength="119" x="131.25" y="136.5791">com.ibm.fhir.model.type</text><line style="stroke: #A80036; stroke-width: 1.5;" x1="43" x2="306" y1="143.9375" y2="143.9375"/><ellipse cx="53" cy="154.9375" fill="#84BE84" rx="3" ry="3" style="stroke: #038048; stroke-width: 1.0;"/><text fill="#000000" font-family="sans-serif" font-size="11" lengthAdjust="spacingAndGlyphs" textLength="100" x="62" y="158.1479">id(String): Builder</text><ellipse cx="53" cy="167.7422" fill="#84BE84" rx="3" ry="3" style="stroke: #038048; stroke-width: 1.0;"/><text fill="#000000" font-family="sans-serif" font-size="11" lengthAdjust="spacingAndGlyphs" textLength="178" x="62" y="170.9526">extension(Extension...): Builder</text><ellipse cx="53" cy="180.5469" fill="#84BE84" rx="3" ry="3" style="stroke: #038048; stroke-width: 1.0;"/><text fill="#000000" font-family="sans-serif" font-size="11" lengthAdjust="spacingAndGlyphs" textLength="239" x="62" y="183.7573">extension(Collection&lt;Extension&gt;): Builder</text><ellipse cx="53" cy="193.3516" fill="#84BE84" rx="3" ry="3" style="stroke: #038048; stroke-width: 1.0;"/><text fill="#000000" font-family="sans-serif" font-size="11" lengthAdjust="spacingAndGlyphs" textLength="126" x="62" y="196.562">value(Integer): Builder</text><ellipse cx="53" cy="206.1563" fill="#84BE84" rx="3" ry="3" style="stroke: #038048; stroke-width: 1.0;"/><text fill="#000000" font-family="sans-serif" font-size="11" lengthAdjust="spacingAndGlyphs" textLength="120" x="62" y="209.3667">value(String): Builder</text><ellipse cx="53" cy="218.9609" fill="#84BE84" rx="3" ry="3" style="stroke: #038048; stroke-width: 1.0;"/><text fill="#000000" font-family="sans-serif" font-size="11" lengthAdjust="spacingAndGlyphs" textLength="101" x="62" y="222.1714">build(): PositiveInt</text><polygon fill="#FFFF44" points="53,226.7656,57,230.7656,53,234.7656,49,230.7656" style="stroke: #B38D22; stroke-width: 1.0;"/><text fill="#000000" font-family="sans-serif" font-size="11" lengthAdjust="spacingAndGlyphs" textLength="141" x="62" y="234.9761">from(PositiveInt): Builder</text></a><!--MD5=[734476c050de3cd597252f118c134643]
class com.ibm.fhir.model.type.Integer.Builder--><a href="Integer.Builder.html" target="_top" title="Integer.Builder.html" xlink:actuate="onRequest" xlink:href="Integer.Builder.html" xlink:show="new" xlink:title="Integer.Builder.html" xlink:type="simple"><rect fill="#FEFECE" filter="url(#f123vrw1p70ofd)" height="37.9375" id="com.ibm.fhir.model.type.Integer.Builder" style="stroke: #A80036; stroke-width: 1.5;" width="151" x="6" y="8"/><ellipse cx="21" cy="26.9688" fill="#ADD1B2" rx="11" ry="11" style="stroke: #A80036; stroke-width: 1.0;"/><path d="M23.9688,32.6094 Q23.3906,32.9063 22.75,33.0469 Q22.1094,33.2031 21.4063,33.2031 Q18.9063,33.2031 17.5781,31.5625 Q16.2656,29.9063 16.2656,26.7813 Q16.2656,23.6563 17.5781,22 Q18.9063,20.3438 21.4063,20.3438 Q22.1094,20.3438 22.75,20.5 Q23.4063,20.6563 23.9688,20.9531 L23.9688,23.6719 Q23.3438,23.0938 22.75,22.8281 Q22.1563,22.5469 21.5313,22.5469 Q20.1875,22.5469 19.5,23.625 Q18.8125,24.6875 18.8125,26.7813 Q18.8125,28.875 19.5,29.9531 Q20.1875,31.0156 21.5313,31.0156 Q22.1563,31.0156 22.75,30.75 Q23.3438,30.4688 23.9688,29.8906 L23.9688,32.6094 Z "/><text fill="#000000" font-family="sans-serif" font-size="14" lengthAdjust="spacingAndGlyphs" textLength="101" x="44" y="25.9951">Integer.Builder</text><text fill="#000000" font-family="sans-serif" font-size="10" lengthAdjust="spacingAndGlyphs" textLength="119" x="35" y="38.5791">com.ibm.fhir.model.type</text></a><!--MD5=[839a98449e0c811d4df817f2c81eba34]
class com.ibm.fhir.model.type.PositiveInt--><a href="PositiveInt.html" target="_top" title="PositiveInt.html" xlink:actuate="onRequest" xlink:href="PositiveInt.html" xlink:show="new" xlink:title="PositiveInt.html" xlink:type="simple"><rect fill="#FEFECE" filter="url(#f123vrw1p70ofd)" height="37.9375" id="com.ibm.fhir.model.type.PositiveInt" style="stroke: #A80036; stroke-width: 1.5;" width="151" x="192" y="8"/><ellipse cx="207" cy="26.9688" fill="#ADD1B2" rx="11" ry="11" style="stroke: #A80036; stroke-width: 1.0;"/><path d="M209.9688,32.6094 Q209.3906,32.9063 208.75,33.0469 Q208.1094,33.2031 207.4063,33.2031 Q204.9063,33.2031 203.5781,31.5625 Q202.2656,29.9063 202.2656,26.7813 Q202.2656,23.6563 203.5781,22 Q204.9063,20.3438 207.4063,20.3438 Q208.1094,20.3438 208.75,20.5 Q209.4063,20.6563 209.9688,20.9531 L209.9688,23.6719 Q209.3438,23.0938 208.75,22.8281 Q208.1563,22.5469 207.5313,22.5469 Q206.1875,22.5469 205.5,23.625 Q204.8125,24.6875 204.8125,26.7813 Q204.8125,28.875 205.5,29.9531 Q206.1875,31.0156 207.5313,31.0156 Q208.1563,31.0156 208.75,30.75 Q209.3438,30.4688 209.9688,29.8906 L209.9688,32.6094 Z "/><text fill="#000000" font-family="sans-serif" font-size="14" lengthAdjust="spacingAndGlyphs" textLength="70" x="245.5" y="25.9951">PositiveInt</text><text fill="#000000" font-family="sans-serif" font-size="10" lengthAdjust="spacingAndGlyphs" textLength="119" x="221" y="38.5791">com.ibm.fhir.model.type</text></a><!--MD5=[9fd0e935fd816406ce4c39f2202aab4d]
reverse link com.ibm.fhir.model.type.Integer.Builder to com.ibm.fhir.model.type.PositiveInt.Builder--><path d="M104.4877,63.3354 C112.6359,76.2148 122.0912,91.1603 131.367,105.822 " fill="none" id="com.ibm.fhir.model.type.Integer.Builder&lt;-com.ibm.fhir.model.type.PositiveInt.Builder" style="stroke: #A80036; stroke-width: 1.0;"/><polygon fill="none" points="98.4354,66.8618,93.6581,46.2177,110.2666,59.3768,98.4354,66.8618" style="stroke: #A80036; stroke-width: 1.0;"/><!--MD5=[e84ee88868bcd3d38ecb51c22c2e05a8]
reverse link com.ibm.fhir.model.type.PositiveInt to com.ibm.fhir.model.type.PositiveInt.Builder--><path d="M247.2993,58.9301 C238.5655,72.7352 227.9874,89.4555 217.633,105.822 " fill="none" id="com.ibm.fhir.model.type.PositiveInt&lt;-com.ibm.fhir.model.type.PositiveInt.Builder" style="stroke: #A80036; stroke-width: 1.0;"/><ellipse cx="251.0648" cy="52.9783" fill="#FFFFFF" rx="8" ry="8" style="stroke: #A80036; stroke-width: 1.0;"/><line style="stroke: #A80036; stroke-width: 1.0;" x1="246.7876" x2="255.3419" y1="59.739" y2="46.2177"/><line style="stroke: #A80036; stroke-width: 1.0;" x1="244.3041" x2="257.8254" y1="48.7012" y2="57.2555"/><text fill="#888888" font-family="sans-serif" font-size="10" lengthAdjust="spacingAndGlyphs" textLength="186" x="87.5" y="261.2822">UMLDoclet 2.0.7, PlantUML 1.2019.12</text><!--MD5=[55d50a0de35b0ae07876458ecd42b339]
@startuml
    set namespaceSeparator none
    hide empty fields
    hide empty methods

    class "<size:14>PositiveInt.Builder\n<size:10>com.ibm.fhir.model.type" as com.ibm.fhir.model.type.PositiveInt.Builder [[PositiveInt.Builder.html]] {
        +id(String): Builder
        +extension(Extension...): Builder
        +extension(Collection<Extension>): Builder
        +value(Integer): Builder
        +value(String): Builder
        +build(): PositiveInt
        #from(PositiveInt): Builder
    }

    class "<size:14>Integer.Builder\n<size:10>com.ibm.fhir.model.type" as com.ibm.fhir.model.type.Integer.Builder [[Integer.Builder.html]]
    class "<size:14>PositiveInt\n<size:10>com.ibm.fhir.model.type" as com.ibm.fhir.model.type.PositiveInt [[PositiveInt.html]]

    com.ibm.fhir.model.type.Integer.Builder <|- - com.ibm.fhir.model.type.PositiveInt.Builder
    com.ibm.fhir.model.type.PositiveInt +- - com.ibm.fhir.model.type.PositiveInt.Builder

    center footer UMLDoclet 2.0.7, PlantUML 1.2019.12
@enduml

PlantUML version 1.2019.12(Sun Nov 03 10:24:54 UTC 2019)
(APACHE source distribution)
Java Runtime: OpenJDK Runtime Environment
JVM: OpenJDK 64-Bit Server VM
Java Version: 11.0.10+9
Operating System: Linux
Default Encoding: UTF-8
Language: en
Country: null
--></g></svg>