<?xml version="1.0" encoding="UTF-8" standalone="no"?><svg xmlns="http://www.w3.org/2000/svg" xmlns:xlink="http://www.w3.org/1999/xlink" contentScriptType="application/ecmascript" contentStyleType="text/css" height="367px" preserveAspectRatio="none" style="width:315px;height:367px;" version="1.1" viewBox="0 0 315 367" width="315px" zoomAndPan="magnify"><defs><filter height="300%" id="f106dpgedbis9j" width="300%" x="-1" y="-1"><feGaussianBlur result="blurOut" stdDeviation="2.0"/><feColorMatrix in="blurOut" result="blurOut2" type="matrix" values="0 0 0 0 0 0 0 0 0 0 0 0 0 0 0 0 0 0 .4 0"/><feOffset dx="4.0" dy="4.0" in="blurOut2" result="blurOut3"/><feBlend in="SourceGraphic" in2="blurOut3" mode="normal"/></filter></defs><g><!--MD5=[187e0798f5efeb83faf20ca10ab98507]
class com.ibm.fhir.path.patch.FHIRPathPatch--><a href="FHIRPathPatch.html" target="_top" title="FHIRPathPatch.html" xlink:actuate="onRequest" xlink:href="FHIRPathPatch.html" xlink:show="new" xlink:title="FHIRPathPatch.html" xlink:type="simple"><rect fill="#FEFECE" filter="url(#f106dpgedbis9j)" height="109.9609" id="com.ibm.fhir.path.patch.FHIRPathPatch" style="stroke: #A80036; stroke-width: 1.5;" width="298" x="6" y="127"/><ellipse cx="92.75" cy="145.9688" fill="#ADD1B2" rx="11" ry="11" style="stroke: #A80036; stroke-width: 1.0;"/><path d="M95.7188,151.6094 Q95.1406,151.9063 94.5,152.0469 Q93.8594,152.2031 93.1563,152.2031 Q90.6563,152.2031 89.3281,150.5625 Q88.0156,148.9063 88.0156,145.7813 Q88.0156,142.6563 89.3281,141 Q90.6563,139.3438 93.1563,139.3438 Q93.8594,139.3438 94.5,139.5 Q95.1563,139.6563 95.7188,139.9531 L95.7188,142.6719 Q95.0938,142.0938 94.5,141.8281 Q93.9063,141.5469 93.2813,141.5469 Q91.9375,141.5469 91.25,142.625 Q90.5625,143.6875 90.5625,145.7813 Q90.5625,147.875 91.25,148.9531 Q91.9375,150.0156 93.2813,150.0156 Q93.9063,150.0156 94.5,149.75 Q95.0938,149.4688 95.7188,148.8906 L95.7188,151.6094 Z "/><text fill="#000000" font-family="sans-serif" font-size="14" lengthAdjust="spacingAndGlyphs" textLength="101" x="120.75" y="144.9951">FHIRPathPatch</text><text fill="#000000" font-family="sans-serif" font-size="10" lengthAdjust="spacingAndGlyphs" textLength="116" x="113.25" y="157.5791">com.ibm.fhir.path.patch</text><line style="stroke: #A80036; stroke-width: 1.5;" x1="7" x2="303" y1="164.9375" y2="164.9375"/><ellipse cx="17" cy="175.9375" fill="#84BE84" rx="3" ry="3" style="stroke: #038048; stroke-width: 1.0;"/><text fill="#000000" font-family="sans-serif" font-size="11" lengthAdjust="spacingAndGlyphs" textLength="272" x="26" y="179.1479">apply(T extends Resource): T extends Resource</text><ellipse cx="17" cy="188.7422" fill="#84BE84" rx="3" ry="3" style="stroke: #038048; stroke-width: 1.0;"/><text fill="#000000" font-family="sans-serif" font-size="11" lengthAdjust="spacingAndGlyphs" textLength="161" x="26" y="191.9526">toParameters(): Parameters</text><ellipse cx="17" cy="201.5469" fill="#84BE84" rx="3" ry="3" style="stroke: #038048; stroke-width: 1.0;"/><text fill="#000000" font-family="sans-serif" font-size="11" lengthAdjust="spacingAndGlyphs" textLength="107" x="26" y="204.7573">toBuilder(): Builder</text><ellipse cx="17" cy="214.3516" fill="#84BE84" rx="3" ry="3" style="stroke: #038048; stroke-width: 1.0;"/><text fill="#000000" font-family="sans-serif" font-size="11" lengthAdjust="spacingAndGlyphs" text-decoration="underline" textLength="95" x="26" y="217.562">builder(): Builder</text><ellipse cx="17" cy="227.1563" fill="#84BE84" rx="3" ry="3" style="stroke: #038048; stroke-width: 1.0;"/><text fill="#000000" font-family="sans-serif" font-size="11" lengthAdjust="spacingAndGlyphs" text-decoration="underline" textLength="190" x="26" y="230.3667">from(Parameters): FHIRPathPatch</text></a><!--MD5=[b0edf7662125b3fc9af236bbb2cb1dd8]
class com.ibm.fhir.model.patch.FHIRPatch--><a href="../../model/patch/FHIRPatch.html" target="_top" title="../../model/patch/FHIRPatch.html" xlink:actuate="onRequest" xlink:href="../../model/patch/FHIRPatch.html" xlink:show="new" xlink:title="../../model/patch/FHIRPatch.html" xlink:type="simple"><rect fill="#FEFECE" filter="url(#f106dpgedbis9j)" height="58.7422" id="com.ibm.fhir.model.patch.FHIRPatch" style="stroke: #A80036; stroke-width: 1.5;" width="298" x="6" y="8"/><ellipse cx="88.75" cy="26.9688" fill="#B4A7E5" rx="11" ry="11" style="stroke: #A80036; stroke-width: 1.0;"/><path d="M84.6719,22.7344 L84.6719,20.5781 L92.0625,20.5781 L92.0625,22.7344 L89.5938,22.7344 L89.5938,30.8125 L92.0625,30.8125 L92.0625,32.9688 L84.6719,32.9688 L84.6719,30.8125 L87.1406,30.8125 L87.1406,22.7344 L84.6719,22.7344 Z "/><text fill="#000000" font-family="sans-serif" font-size="14" font-style="italic" lengthAdjust="spacingAndGlyphs" textLength="70" x="136.25" y="25.9951">FHIRPatch</text><text fill="#000000" font-family="sans-serif" font-size="10" font-style="italic" lengthAdjust="spacingAndGlyphs" textLength="124" x="109.25" y="38.5791">com.ibm.fhir.model.patch</text><line style="stroke: #A80036; stroke-width: 1.5;" x1="7" x2="303" y1="45.9375" y2="45.9375"/><ellipse cx="17" cy="56.9375" fill="#84BE84" rx="3" ry="3" style="stroke: #038048; stroke-width: 1.0;"/><text fill="#000000" font-family="sans-serif" font-size="11" font-style="italic" lengthAdjust="spacingAndGlyphs" textLength="272" x="26" y="60.1479">apply(T extends Resource): T extends Resource</text></a><!--MD5=[3db540962c19a5edfa9a6c207d1de22e]
class com.ibm.fhir.path.patch.FHIRPathPatch.Builder--><a href="FHIRPathPatch.Builder.html" target="_top" title="FHIRPathPatch.Builder.html" xlink:actuate="onRequest" xlink:href="FHIRPathPatch.Builder.html" xlink:show="new" xlink:title="FHIRPathPatch.Builder.html" xlink:type="simple"><rect fill="#FEFECE" filter="url(#f106dpgedbis9j)" height="37.9375" id="com.ibm.fhir.path.patch.FHIRPathPatch.Builder" style="stroke: #A80036; stroke-width: 1.5;" width="185" x="62.5" y="297"/><ellipse cx="77.5" cy="315.9688" fill="#ADD1B2" rx="11" ry="11" style="stroke: #A80036; stroke-width: 1.0;"/><path d="M80.4688,321.6094 Q79.8906,321.9063 79.25,322.0469 Q78.6094,322.2031 77.9063,322.2031 Q75.4063,322.2031 74.0781,320.5625 Q72.7656,318.9063 72.7656,315.7813 Q72.7656,312.6563 74.0781,311 Q75.4063,309.3438 77.9063,309.3438 Q78.6094,309.3438 79.25,309.5 Q79.9063,309.6563 80.4688,309.9531 L80.4688,312.6719 Q79.8438,312.0938 79.25,311.8281 Q78.6563,311.5469 78.0313,311.5469 Q76.6875,311.5469 76,312.625 Q75.3125,313.6875 75.3125,315.7813 Q75.3125,317.875 76,318.9531 Q76.6875,320.0156 78.0313,320.0156 Q78.6563,320.0156 79.25,319.75 Q79.8438,319.4688 80.4688,318.8906 L80.4688,321.6094 Z "/><text fill="#000000" font-family="sans-serif" font-size="14" lengthAdjust="spacingAndGlyphs" textLength="153" x="91.5" y="314.9951">FHIRPathPatch.Builder</text><text fill="#000000" font-family="sans-serif" font-size="10" lengthAdjust="spacingAndGlyphs" textLength="116" x="110" y="327.5791">com.ibm.fhir.path.patch</text></a><!--MD5=[3d0cc9700709d48ef4df34a8cee448e5]
reverse link com.ibm.fhir.model.patch.FHIRPatch to com.ibm.fhir.path.patch.FHIRPathPatch--><path d="M155,87.2273 C155,99.9654 155,113.7412 155,126.7393 " fill="none" id="com.ibm.fhir.model.patch.FHIRPatch&lt;-com.ibm.fhir.path.patch.FHIRPathPatch" style="stroke: #A80036; stroke-width: 1.0; stroke-dasharray: 7.0,7.0;"/><polygon fill="none" points="148.0001,87.0905,155,67.0904,162.0001,87.0904,148.0001,87.0905" style="stroke: #A80036; stroke-width: 1.0;"/><!--MD5=[48ff5a244642646c93490eb5705a0649]
reverse link com.ibm.fhir.path.patch.FHIRPathPatch to com.ibm.fhir.path.patch.FHIRPathPatch.Builder--><path d="M155,252.332 C155,268.7676 155,284.9352 155,296.8656 " fill="none" id="com.ibm.fhir.path.patch.FHIRPathPatch&lt;-com.ibm.fhir.path.patch.FHIRPathPatch.Builder" style="stroke: #A80036; stroke-width: 1.0;"/><ellipse cx="155.0001" cy="245.2766" fill="#FFFFFF" rx="8" ry="8" style="stroke: #A80036; stroke-width: 1.0;"/><line style="stroke: #A80036; stroke-width: 1.0;" x1="155.0002" x2="155" y1="253.2766" y2="237.2766"/><line style="stroke: #A80036; stroke-width: 1.0;" x1="147.0001" x2="163.0001" y1="245.2767" y2="245.2765"/><text fill="#888888" font-family="sans-serif" font-size="10" lengthAdjust="spacingAndGlyphs" textLength="186" x="68" y="354.2822">UMLDoclet 2.0.7, PlantUML 1.2019.12</text><!--MD5=[9596b7beba392ce4381dc8d2ce44f8ac]
@startuml
    set namespaceSeparator none
    hide empty fields
    hide empty methods

    class "<size:14>FHIRPathPatch\n<size:10>com.ibm.fhir.path.patch" as com.ibm.fhir.path.patch.FHIRPathPatch [[FHIRPathPatch.html]] {
        +apply(T extends Resource): T extends Resource
        +toParameters(): Parameters
        +toBuilder(): Builder
        {static} +builder(): Builder
        {static} +from(Parameters): FHIRPathPatch
    }

    interface "<size:14>FHIRPatch\n<size:10>com.ibm.fhir.model.patch" as com.ibm.fhir.model.patch.FHIRPatch [[../../model/patch/FHIRPatch.html]] {
        {abstract} +apply(T extends Resource): T extends Resource
    }
    class "<size:14>FHIRPathPatch.Builder\n<size:10>com.ibm.fhir.path.patch" as com.ibm.fhir.path.patch.FHIRPathPatch.Builder [[FHIRPathPatch.Builder.html]]

    com.ibm.fhir.model.patch.FHIRPatch <|.. com.ibm.fhir.path.patch.FHIRPathPatch
    com.ibm.fhir.path.patch.FHIRPathPatch +- - com.ibm.fhir.path.patch.FHIRPathPatch.Builder

    center footer UMLDoclet 2.0.7, PlantUML 1.2019.12
@enduml

PlantUML version 1.2019.12(Sun Nov 03 10:24:54 UTC 2019)
(APACHE source distribution)
Java Runtime: OpenJDK Runtime Environment
JVM: OpenJDK 64-Bit Server VM
Java Version: 11.0.8+10
Operating System: Linux
Default Encoding: UTF-8
Language: en
Country: null
--></g></svg>