<?xml version="1.0" encoding="UTF-8" standalone="no"?><svg xmlns="http://www.w3.org/2000/svg" xmlns:xlink="http://www.w3.org/1999/xlink" contentScriptType="application/ecmascript" contentStyleType="text/css" height="349px" preserveAspectRatio="none" style="width:541px;height:349px;" version="1.1" viewBox="0 0 541 349" width="541px" zoomAndPan="magnify"><defs><filter height="300%" id="f1rnvac1k7w0rx" width="300%" x="-1" y="-1"><feGaussianBlur result="blurOut" stdDeviation="2.0"/><feColorMatrix in="blurOut" result="blurOut2" type="matrix" values="0 0 0 0 0 0 0 0 0 0 0 0 0 0 0 0 0 0 .4 0"/><feOffset dx="4.0" dy="4.0" in="blurOut2" result="blurOut3"/><feBlend in="SourceGraphic" in2="blurOut3" mode="normal"/></filter></defs><g><!--MD5=[18fe98d0f8e3dadc7ef84af6e202a65f]
class com.ibm.fhir.model.resource.ChargeItemDefinition.PropertyGroup.Builder--><a href="ChargeItemDefinition.PropertyGroup.Builder.html" target="_top" title="ChargeItemDefinition.PropertyGroup.Builder.html" xlink:actuate="onRequest" xlink:href="ChargeItemDefinition.PropertyGroup.Builder.html" xlink:show="new" xlink:title="ChargeItemDefinition.PropertyGroup.Builder.html" xlink:type="simple"><rect fill="#FEFECE" filter="url(#f1rnvac1k7w0rx)" height="188.7715" id="com.ibm.fhir.model.resource.ChargeItemDefinition.PropertyGroup.Builder" style="stroke: #A80036; stroke-width: 1.5;" width="336" x="80.5" y="127"/><ellipse cx="95.5" cy="146.1328" fill="#ADD1B2" rx="11" ry="11" style="stroke: #A80036; stroke-width: 1.0;"/><path d="M97.9731,152.2759 Q97.3921,152.5747 96.7529,152.7241 Q96.1138,152.8735 95.4082,152.8735 Q92.9014,152.8735 91.5815,151.2217 Q90.2617,149.5698 90.2617,146.4487 Q90.2617,143.3193 91.5815,141.6675 Q92.9014,140.0156 95.4082,140.0156 Q96.1138,140.0156 96.7612,140.165 Q97.4087,140.3145 97.9731,140.6133 L97.9731,143.3359 Q97.3423,142.7549 96.7488,142.4851 Q96.1553,142.2153 95.5244,142.2153 Q94.1797,142.2153 93.4949,143.282 Q92.8101,144.3486 92.8101,146.4487 Q92.8101,148.5405 93.4949,149.6072 Q94.1797,150.6738 95.5244,150.6738 Q96.1553,150.6738 96.7488,150.4041 Q97.3423,150.1343 97.9731,149.5532 Z "/><text fill="#000000" font-family="sans-serif" font-size="14" lengthAdjust="spacingAndGlyphs" textLength="304" x="109.5" y="145.5352">ChargeItemDefinition.PropertyGroup.Builder</text><text fill="#000000" font-family="sans-serif" font-size="10" lengthAdjust="spacingAndGlyphs" textLength="139" x="192" y="158.1563">com.ibm.fhir.model.resource</text><line style="stroke: #A80036; stroke-width: 1.5;" x1="81.5" x2="415.5" y1="165.2656" y2="165.2656"/><ellipse cx="91.5" cy="176.2656" fill="#84BE84" rx="3" ry="3" style="stroke: #038048; stroke-width: 1.0;"/><text fill="#000000" font-family="sans-serif" font-size="11" lengthAdjust="spacingAndGlyphs" textLength="93" x="100.5" y="179.9004">id(String): Builder</text><ellipse cx="91.5" cy="189.2207" fill="#84BE84" rx="3" ry="3" style="stroke: #038048; stroke-width: 1.0;"/><text fill="#000000" font-family="sans-serif" font-size="11" lengthAdjust="spacingAndGlyphs" textLength="166" x="100.5" y="192.8555">extension(Extension...): Builder</text><ellipse cx="91.5" cy="202.1758" fill="#84BE84" rx="3" ry="3" style="stroke: #038048; stroke-width: 1.0;"/><text fill="#000000" font-family="sans-serif" font-size="11" lengthAdjust="spacingAndGlyphs" textLength="229" x="100.5" y="205.8105">extension(Collection&lt;Extension&gt;): Builder</text><ellipse cx="91.5" cy="215.1309" fill="#84BE84" rx="3" ry="3" style="stroke: #038048; stroke-width: 1.0;"/><text fill="#000000" font-family="sans-serif" font-size="11" lengthAdjust="spacingAndGlyphs" textLength="211" x="100.5" y="218.7656">modifierExtension(Extension...): Builder</text><ellipse cx="91.5" cy="228.0859" fill="#84BE84" rx="3" ry="3" style="stroke: #038048; stroke-width: 1.0;"/><text fill="#000000" font-family="sans-serif" font-size="11" lengthAdjust="spacingAndGlyphs" textLength="274" x="100.5" y="231.7207">modifierExtension(Collection&lt;Extension&gt;): Builder</text><ellipse cx="91.5" cy="241.041" fill="#84BE84" rx="3" ry="3" style="stroke: #038048; stroke-width: 1.0;"/><text fill="#000000" font-family="sans-serif" font-size="11" lengthAdjust="spacingAndGlyphs" textLength="190" x="100.5" y="244.6758">applicability(Applicability...): Builder</text><ellipse cx="91.5" cy="253.9961" fill="#84BE84" rx="3" ry="3" style="stroke: #038048; stroke-width: 1.0;"/><text fill="#000000" font-family="sans-serif" font-size="11" lengthAdjust="spacingAndGlyphs" textLength="253" x="100.5" y="257.6309">applicability(Collection&lt;Applicability&gt;): Builder</text><ellipse cx="91.5" cy="266.9512" fill="#84BE84" rx="3" ry="3" style="stroke: #038048; stroke-width: 1.0;"/><text fill="#000000" font-family="sans-serif" font-size="11" lengthAdjust="spacingAndGlyphs" textLength="239" x="100.5" y="270.5859">priceComponent(PriceComponent...): Builder</text><ellipse cx="91.5" cy="279.9063" fill="#84BE84" rx="3" ry="3" style="stroke: #038048; stroke-width: 1.0;"/><text fill="#000000" font-family="sans-serif" font-size="11" lengthAdjust="spacingAndGlyphs" textLength="302" x="100.5" y="283.541">priceComponent(Collection&lt;PriceComponent&gt;): Builder</text><ellipse cx="91.5" cy="292.8613" fill="#84BE84" rx="3" ry="3" style="stroke: #038048; stroke-width: 1.0;"/><text fill="#000000" font-family="sans-serif" font-size="11" lengthAdjust="spacingAndGlyphs" textLength="121" x="100.5" y="296.4961">build(): PropertyGroup</text><polygon fill="#FFFF44" points="91.5,300.8164,95.5,304.8164,91.5,308.8164,87.5,304.8164" style="stroke: #B38D22; stroke-width: 1.0;"/><text fill="#000000" font-family="sans-serif" font-size="11" lengthAdjust="spacingAndGlyphs" textLength="157" x="100.5" y="309.4512">from(PropertyGroup): Builder</text></a><!--MD5=[b7b0ea86c8a299e1957933e33e561193]
class com.ibm.fhir.model.type.BackboneElement.Builder--><a href="../type/BackboneElement.Builder.html" target="_top" title="../type/BackboneElement.Builder.html" xlink:actuate="onRequest" xlink:href="../type/BackboneElement.Builder.html" xlink:show="new" xlink:title="../type/BackboneElement.Builder.html" xlink:type="simple"><rect fill="#FEFECE" filter="url(#f1rnvac1k7w0rx)" height="59.2207" id="com.ibm.fhir.model.type.BackboneElement.Builder" style="stroke: #A80036; stroke-width: 1.5;" width="205" x="6" y="8"/><ellipse cx="21" cy="27.1328" fill="#A9DCDF" rx="11" ry="11" style="stroke: #A80036; stroke-width: 1.0;"/><path d="M21.1133,22.731 L19.9595,27.8027 L22.2754,27.8027 Z M19.6191,20.4897 L22.6157,20.4897 L25.9609,32.8828 L23.5122,32.8828 L22.7485,29.8198 L19.4697,29.8198 L18.7227,32.8828 L16.2739,32.8828 Z "/><text fill="#000000" font-family="sans-serif" font-size="14" font-style="italic" lengthAdjust="spacingAndGlyphs" textLength="173" x="35" y="26.5352">BackboneElement.Builder</text><text fill="#000000" font-family="sans-serif" font-size="10" font-style="italic" lengthAdjust="spacingAndGlyphs" textLength="118" x="62.5" y="39.1563">com.ibm.fhir.model.type</text><line style="stroke: #A80036; stroke-width: 1.5;" x1="7" x2="210" y1="46.2656" y2="46.2656"/><ellipse cx="17" cy="57.2656" fill="#84BE84" rx="3" ry="3" style="stroke: #038048; stroke-width: 1.0;"/><text fill="#000000" font-family="sans-serif" font-size="11" font-style="italic" lengthAdjust="spacingAndGlyphs" textLength="134" x="26" y="60.9004">build(): BackboneElement</text></a><!--MD5=[eb0ff4b6a709eac70d2d4bb2f3402b47]
class com.ibm.fhir.model.resource.ChargeItemDefinition.PropertyGroup--><a href="ChargeItemDefinition.PropertyGroup.html" target="_top" title="ChargeItemDefinition.PropertyGroup.html" xlink:actuate="onRequest" xlink:href="ChargeItemDefinition.PropertyGroup.html" xlink:show="new" xlink:title="ChargeItemDefinition.PropertyGroup.html" xlink:type="simple"><rect fill="#FEFECE" filter="url(#f1rnvac1k7w0rx)" height="38.2656" id="com.ibm.fhir.model.resource.ChargeItemDefinition.PropertyGroup" style="stroke: #A80036; stroke-width: 1.5;" width="284" x="246.5" y="18.5"/><ellipse cx="261.5" cy="37.6328" fill="#ADD1B2" rx="11" ry="11" style="stroke: #A80036; stroke-width: 1.0;"/><path d="M263.9731,43.7759 Q263.3921,44.0747 262.7529,44.2241 Q262.1138,44.3735 261.4082,44.3735 Q258.9014,44.3735 257.5815,42.7217 Q256.2617,41.0698 256.2617,37.9487 Q256.2617,34.8193 257.5815,33.1675 Q258.9014,31.5156 261.4082,31.5156 Q262.1138,31.5156 262.7612,31.665 Q263.4087,31.8145 263.9731,32.1133 L263.9731,34.8359 Q263.3423,34.2549 262.7488,33.9851 Q262.1553,33.7153 261.5244,33.7153 Q260.1797,33.7153 259.4949,34.782 Q258.8101,35.8486 258.8101,37.9487 Q258.8101,40.0405 259.4949,41.1072 Q260.1797,42.1738 261.5244,42.1738 Q262.1553,42.1738 262.7488,41.9041 Q263.3423,41.6343 263.9731,41.0532 Z "/><text fill="#000000" font-family="sans-serif" font-size="14" lengthAdjust="spacingAndGlyphs" textLength="252" x="275.5" y="37.0352">ChargeItemDefinition.PropertyGroup</text><text fill="#000000" font-family="sans-serif" font-size="10" lengthAdjust="spacingAndGlyphs" textLength="139" x="332" y="49.6563">com.ibm.fhir.model.resource</text></a><!--MD5=[55dcfa2e4a92c9c44bd9b67d5bd2eb78]
reverse link com.ibm.fhir.model.type.BackboneElement.Builder to com.ibm.fhir.model.resource.ChargeItemDefinition.PropertyGroup.Builder--><path d="M143.4043,83.3742 C153.5001,96.643 164.9097,111.6385 176.395,126.7335 " fill="none" id="com.ibm.fhir.model.type.BackboneElement.Builder&lt;-com.ibm.fhir.model.resource.ChargeItemDefinition.PropertyGroup.Builder" style="stroke: #A80036; stroke-width: 1.0;"/><polygon fill="none" points="137.5331,87.218,130.9934,67.0628,148.6747,78.7407,137.5331,87.218" style="stroke: #A80036; stroke-width: 1.0;"/><!--MD5=[b6116953323e4653c0d894406d4b1ee4]
reverse link com.ibm.fhir.model.resource.ChargeItemDefinition.PropertyGroup to com.ibm.fhir.model.resource.ChargeItemDefinition.PropertyGroup.Builder--><path d="M364.696,68.7852 C352.3638,84.9933 336.5756,105.7435 320.6394,126.6882 " fill="none" id="com.ibm.fhir.model.resource.ChargeItemDefinition.PropertyGroup&lt;-com.ibm.fhir.model.resource.ChargeItemDefinition.PropertyGroup.Builder" style="stroke: #A80036; stroke-width: 1.0;"/><ellipse cx="368.938" cy="63.2101" fill="#FFFFFF" rx="8" ry="8" style="stroke: #A80036; stroke-width: 1.0;"/><line style="stroke: #A80036; stroke-width: 1.0;" x1="364.0938" x2="373.7822" y1="69.5767" y2="56.8435"/><line style="stroke: #A80036; stroke-width: 1.0;" x1="362.5714" x2="375.3046" y1="58.3659" y2="68.0543"/><text fill="#888888" font-family="sans-serif" font-size="10" lengthAdjust="spacingAndGlyphs" textLength="182" x="183.5" y="335.668">UMLDoclet 2.0.7, PlantUML 1.2019.12</text><!--MD5=[f4102770fe5fcd7b7c855b3864be367f]
@startuml
    set namespaceSeparator none
    hide empty fields
    hide empty methods

    class "<size:14>ChargeItemDefinition.PropertyGroup.Builder\n<size:10>com.ibm.fhir.model.resource" as com.ibm.fhir.model.resource.ChargeItemDefinition.PropertyGroup.Builder [[ChargeItemDefinition.PropertyGroup.Builder.html]] {
        +id(String): Builder
        +extension(Extension...): Builder
        +extension(Collection<Extension>): Builder
        +modifierExtension(Extension...): Builder
        +modifierExtension(Collection<Extension>): Builder
        +applicability(Applicability...): Builder
        +applicability(Collection<Applicability>): Builder
        +priceComponent(PriceComponent...): Builder
        +priceComponent(Collection<PriceComponent>): Builder
        +build(): PropertyGroup
        #from(PropertyGroup): Builder
    }

    abstract class "<size:14>BackboneElement.Builder\n<size:10>com.ibm.fhir.model.type" as com.ibm.fhir.model.type.BackboneElement.Builder [[../type/BackboneElement.Builder.html]] {
        {abstract} +build(): BackboneElement
    }
    class "<size:14>ChargeItemDefinition.PropertyGroup\n<size:10>com.ibm.fhir.model.resource" as com.ibm.fhir.model.resource.ChargeItemDefinition.PropertyGroup [[ChargeItemDefinition.PropertyGroup.html]]

    com.ibm.fhir.model.type.BackboneElement.Builder <|- - com.ibm.fhir.model.resource.ChargeItemDefinition.PropertyGroup.Builder
    com.ibm.fhir.model.resource.ChargeItemDefinition.PropertyGroup +- - com.ibm.fhir.model.resource.ChargeItemDefinition.PropertyGroup.Builder

    center footer UMLDoclet 2.0.7, PlantUML 1.2019.12
@enduml

PlantUML version 1.2019.12(Sun Nov 03 05:24:54 EST 2019)
(APACHE source distribution)
Java Runtime: OpenJDK Runtime Environment
JVM: OpenJDK 64-Bit Server VM
Java Version: 11.0.4+11
Operating System: Mac OS X
Default Encoding: UTF-8
Language: en
Country: US
--></g></svg>