<?xml version="1.0" encoding="UTF-8" standalone="no"?><svg xmlns="http://www.w3.org/2000/svg" xmlns:xlink="http://www.w3.org/1999/xlink" contentScriptType="application/ecmascript" contentStyleType="text/css" height="589px" preserveAspectRatio="none" style="width:545px;height:589px;" version="1.1" viewBox="0 0 545 589" width="545px" zoomAndPan="magnify"><defs><filter height="300%" id="f11j175ts9y76p" width="300%" x="-1" y="-1"><feGaussianBlur result="blurOut" stdDeviation="2.0"/><feColorMatrix in="blurOut" result="blurOut2" type="matrix" values="0 0 0 0 0 0 0 0 0 0 0 0 0 0 0 0 0 0 .4 0"/><feOffset dx="4.0" dy="4.0" in="blurOut2" result="blurOut3"/><feBlend in="SourceGraphic" in2="blurOut3" mode="normal"/></filter></defs><g><!--MD5=[105a7d4052152c4e29b63b04f50383e2]
class com.ibm.fhir.model.resource.ClaimResponse.AddItem--><a href="ClaimResponse.AddItem.html" target="_top" title="ClaimResponse.AddItem.html" xlink:actuate="onRequest" xlink:href="ClaimResponse.AddItem.html" xlink:show="new" xlink:title="ClaimResponse.AddItem.html" xlink:type="simple"><rect fill="#FEFECE" filter="url(#f11j175ts9y76p)" height="331.2773" id="com.ibm.fhir.model.resource.ClaimResponse.AddItem" style="stroke: #A80036; stroke-width: 1.5;" width="263" x="141" y="127"/><ellipse cx="184.8" cy="146.1328" fill="#ADD1B2" rx="11" ry="11" style="stroke: #A80036; stroke-width: 1.0;"/><path d="M187.2731,152.2759 Q186.6921,152.5747 186.0529,152.7241 Q185.4138,152.8735 184.7082,152.8735 Q182.2014,152.8735 180.8815,151.2217 Q179.5617,149.5698 179.5617,146.4487 Q179.5617,143.3193 180.8815,141.6675 Q182.2014,140.0156 184.7082,140.0156 Q185.4138,140.0156 186.0612,140.165 Q186.7087,140.3145 187.2731,140.6133 L187.2731,143.3359 Q186.6423,142.7549 186.0488,142.4851 Q185.4553,142.2153 184.8244,142.2153 Q183.4797,142.2153 182.7949,143.282 Q182.1101,144.3486 182.1101,146.4487 Q182.1101,148.5405 182.7949,149.6072 Q183.4797,150.6738 184.8244,150.6738 Q185.4553,150.6738 186.0488,150.4041 Q186.6423,150.1343 187.2731,149.5532 Z "/><text fill="#000000" font-family="sans-serif" font-size="14" lengthAdjust="spacingAndGlyphs" textLength="167" x="205.2" y="145.5352">ClaimResponse.AddItem</text><text fill="#000000" font-family="sans-serif" font-size="10" lengthAdjust="spacingAndGlyphs" textLength="139" x="219.2" y="158.1563">com.ibm.fhir.model.resource</text><line style="stroke: #A80036; stroke-width: 1.5;" x1="142" x2="403" y1="165.2656" y2="165.2656"/><ellipse cx="152" cy="176.2656" fill="#84BE84" rx="3" ry="3" style="stroke: #038048; stroke-width: 1.0;"/><text fill="#000000" font-family="sans-serif" font-size="11" lengthAdjust="spacingAndGlyphs" textLength="197" x="161" y="179.9004">getItemSequence(): List&lt;PositiveInt&gt;</text><ellipse cx="152" cy="189.2207" fill="#84BE84" rx="3" ry="3" style="stroke: #038048; stroke-width: 1.0;"/><text fill="#000000" font-family="sans-serif" font-size="11" lengthAdjust="spacingAndGlyphs" textLength="204" x="161" y="192.8555">getDetailSequence(): List&lt;PositiveInt&gt;</text><ellipse cx="152" cy="202.1758" fill="#84BE84" rx="3" ry="3" style="stroke: #038048; stroke-width: 1.0;"/><text fill="#000000" font-family="sans-serif" font-size="11" lengthAdjust="spacingAndGlyphs" textLength="223" x="161" y="205.8105">getSubdetailSequence(): List&lt;PositiveInt&gt;</text><ellipse cx="152" cy="215.1309" fill="#84BE84" rx="3" ry="3" style="stroke: #038048; stroke-width: 1.0;"/><text fill="#000000" font-family="sans-serif" font-size="11" lengthAdjust="spacingAndGlyphs" textLength="166" x="161" y="218.7656">getProvider(): List&lt;Reference&gt;</text><ellipse cx="152" cy="228.0859" fill="#84BE84" rx="3" ry="3" style="stroke: #038048; stroke-width: 1.0;"/><text fill="#000000" font-family="sans-serif" font-size="11" lengthAdjust="spacingAndGlyphs" textLength="220" x="161" y="231.7207">getProductOrService(): CodeableConcept</text><ellipse cx="152" cy="241.041" fill="#84BE84" rx="3" ry="3" style="stroke: #038048; stroke-width: 1.0;"/><text fill="#000000" font-family="sans-serif" font-size="11" lengthAdjust="spacingAndGlyphs" textLength="207" x="161" y="244.6758">getModifier(): List&lt;CodeableConcept&gt;</text><ellipse cx="152" cy="253.9961" fill="#84BE84" rx="3" ry="3" style="stroke: #038048; stroke-width: 1.0;"/><text fill="#000000" font-family="sans-serif" font-size="11" lengthAdjust="spacingAndGlyphs" textLength="237" x="161" y="257.6309">getProgramCode(): List&lt;CodeableConcept&gt;</text><ellipse cx="152" cy="266.9512" fill="#84BE84" rx="3" ry="3" style="stroke: #038048; stroke-width: 1.0;"/><text fill="#000000" font-family="sans-serif" font-size="11" lengthAdjust="spacingAndGlyphs" textLength="118" x="161" y="270.5859">getServiced(): Element</text><ellipse cx="152" cy="279.9063" fill="#84BE84" rx="3" ry="3" style="stroke: #038048; stroke-width: 1.0;"/><text fill="#000000" font-family="sans-serif" font-size="11" lengthAdjust="spacingAndGlyphs" textLength="119" x="161" y="283.541">getLocation(): Element</text><ellipse cx="152" cy="292.8613" fill="#84BE84" rx="3" ry="3" style="stroke: #038048; stroke-width: 1.0;"/><text fill="#000000" font-family="sans-serif" font-size="11" lengthAdjust="spacingAndGlyphs" textLength="158" x="161" y="296.4961">getQuantity(): SimpleQuantity</text><ellipse cx="152" cy="305.8164" fill="#84BE84" rx="3" ry="3" style="stroke: #038048; stroke-width: 1.0;"/><text fill="#000000" font-family="sans-serif" font-size="11" lengthAdjust="spacingAndGlyphs" textLength="114" x="161" y="309.4512">getUnitPrice(): Money</text><ellipse cx="152" cy="318.7715" fill="#84BE84" rx="3" ry="3" style="stroke: #038048; stroke-width: 1.0;"/><text fill="#000000" font-family="sans-serif" font-size="11" lengthAdjust="spacingAndGlyphs" textLength="107" x="161" y="322.4063">getFactor(): Decimal</text><ellipse cx="152" cy="331.7266" fill="#84BE84" rx="3" ry="3" style="stroke: #038048; stroke-width: 1.0;"/><text fill="#000000" font-family="sans-serif" font-size="11" lengthAdjust="spacingAndGlyphs" textLength="84" x="161" y="335.3613">getNet(): Money</text><ellipse cx="152" cy="344.6816" fill="#84BE84" rx="3" ry="3" style="stroke: #038048; stroke-width: 1.0;"/><text fill="#000000" font-family="sans-serif" font-size="11" lengthAdjust="spacingAndGlyphs" textLength="171" x="161" y="348.3164">getBodySite(): CodeableConcept</text><ellipse cx="152" cy="357.6367" fill="#84BE84" rx="3" ry="3" style="stroke: #038048; stroke-width: 1.0;"/><text fill="#000000" font-family="sans-serif" font-size="11" lengthAdjust="spacingAndGlyphs" textLength="202" x="161" y="361.2715">getSubSite(): List&lt;CodeableConcept&gt;</text><ellipse cx="152" cy="370.5918" fill="#84BE84" rx="3" ry="3" style="stroke: #038048; stroke-width: 1.0;"/><text fill="#000000" font-family="sans-serif" font-size="11" lengthAdjust="spacingAndGlyphs" textLength="191" x="161" y="374.2266">getNoteNumber(): List&lt;PositiveInt&gt;</text><ellipse cx="152" cy="383.5469" fill="#84BE84" rx="3" ry="3" style="stroke: #038048; stroke-width: 1.0;"/><text fill="#000000" font-family="sans-serif" font-size="11" lengthAdjust="spacingAndGlyphs" textLength="204" x="161" y="387.1816">getAdjudication(): List&lt;Adjudication&gt;</text><ellipse cx="152" cy="396.502" fill="#84BE84" rx="3" ry="3" style="stroke: #038048; stroke-width: 1.0;"/><text fill="#000000" font-family="sans-serif" font-size="11" lengthAdjust="spacingAndGlyphs" textLength="128" x="161" y="400.1367">getDetail(): List&lt;Detail&gt;</text><ellipse cx="152" cy="409.457" fill="#84BE84" rx="3" ry="3" style="stroke: #038048; stroke-width: 1.0;"/><text fill="#000000" font-family="sans-serif" font-size="11" lengthAdjust="spacingAndGlyphs" textLength="122" x="161" y="413.0918">hasChildren(): boolean</text><ellipse cx="152" cy="422.4121" fill="#84BE84" rx="3" ry="3" style="stroke: #038048; stroke-width: 1.0;"/><text fill="#000000" font-family="sans-serif" font-size="11" lengthAdjust="spacingAndGlyphs" textLength="165" x="161" y="426.0469">accept(String, int, Visitor): void</text><ellipse cx="152" cy="435.3672" fill="#84BE84" rx="3" ry="3" style="stroke: #038048; stroke-width: 1.0;"/><text fill="#000000" font-family="sans-serif" font-size="11" lengthAdjust="spacingAndGlyphs" textLength="99" x="161" y="439.002">toBuilder(): Builder</text><ellipse cx="152" cy="448.3223" fill="#84BE84" rx="3" ry="3" style="stroke: #038048; stroke-width: 1.0;"/><text fill="#000000" font-family="sans-serif" font-size="11" lengthAdjust="spacingAndGlyphs" text-decoration="underline" textLength="89" x="161" y="451.957">builder(): Builder</text></a><!--MD5=[efbff6997283c56b83e991a8eeb6a60a]
class com.ibm.fhir.model.type.BackboneElement--><a href="../type/BackboneElement.html" target="_top" title="../type/BackboneElement.html" xlink:actuate="onRequest" xlink:href="../type/BackboneElement.html" xlink:show="new" xlink:title="../type/BackboneElement.html" xlink:type="simple"><rect fill="#FEFECE" filter="url(#f11j175ts9y76p)" height="59.2207" id="com.ibm.fhir.model.type.BackboneElement" style="stroke: #A80036; stroke-width: 1.5;" width="153" x="98" y="8"/><ellipse cx="113" cy="27.1328" fill="#A9DCDF" rx="11" ry="11" style="stroke: #A80036; stroke-width: 1.0;"/><path d="M113.1133,22.731 L111.9595,27.8027 L114.2754,27.8027 Z M111.6191,20.4897 L114.6157,20.4897 L117.9609,32.8828 L115.5122,32.8828 L114.7485,29.8198 L111.4697,29.8198 L110.7227,32.8828 L108.2739,32.8828 Z "/><text fill="#000000" font-family="sans-serif" font-size="14" font-style="italic" lengthAdjust="spacingAndGlyphs" textLength="121" x="127" y="26.5352">BackboneElement</text><text fill="#000000" font-family="sans-serif" font-size="10" font-style="italic" lengthAdjust="spacingAndGlyphs" textLength="118" x="128.5" y="39.1563">com.ibm.fhir.model.type</text><line style="stroke: #A80036; stroke-width: 1.5;" x1="99" x2="250" y1="46.2656" y2="46.2656"/><ellipse cx="109" cy="57.2656" fill="#84BE84" rx="3" ry="3" style="stroke: #038048; stroke-width: 1.0;"/><text fill="#000000" font-family="sans-serif" font-size="11" font-style="italic" lengthAdjust="spacingAndGlyphs" textLength="99" x="118" y="60.9004">toBuilder(): Builder</text></a><!--MD5=[2f1d7930c7dfa67487af0f4f2e584759]
class com.ibm.fhir.model.resource.ClaimResponse--><a href="ClaimResponse.html" target="_top" title="ClaimResponse.html" xlink:actuate="onRequest" xlink:href="ClaimResponse.html" xlink:show="new" xlink:title="ClaimResponse.html" xlink:type="simple"><rect fill="#FEFECE" filter="url(#f11j175ts9y76p)" height="38.2656" id="com.ibm.fhir.model.resource.ClaimResponse" style="stroke: #A80036; stroke-width: 1.5;" width="171" x="286" y="18.5"/><ellipse cx="301" cy="37.6328" fill="#ADD1B2" rx="11" ry="11" style="stroke: #A80036; stroke-width: 1.0;"/><path d="M303.4731,43.7759 Q302.8921,44.0747 302.2529,44.2241 Q301.6138,44.3735 300.9082,44.3735 Q298.4014,44.3735 297.0815,42.7217 Q295.7617,41.0698 295.7617,37.9487 Q295.7617,34.8193 297.0815,33.1675 Q298.4014,31.5156 300.9082,31.5156 Q301.6138,31.5156 302.2612,31.665 Q302.9087,31.8145 303.4731,32.1133 L303.4731,34.8359 Q302.8423,34.2549 302.2488,33.9851 Q301.6553,33.7153 301.0244,33.7153 Q299.6797,33.7153 298.9949,34.782 Q298.3101,35.8486 298.3101,37.9487 Q298.3101,40.0405 298.9949,41.1072 Q299.6797,42.1738 301.0244,42.1738 Q301.6553,42.1738 302.2488,41.9041 Q302.8423,41.6343 303.4731,41.0532 Z "/><text fill="#000000" font-family="sans-serif" font-size="14" lengthAdjust="spacingAndGlyphs" textLength="105" x="332" y="37.0352">ClaimResponse</text><text fill="#000000" font-family="sans-serif" font-size="10" lengthAdjust="spacingAndGlyphs" textLength="139" x="315" y="49.6563">com.ibm.fhir.model.resource</text></a><!--MD5=[f9e08b359dcf44265ecf31fb7a85d5d9]
class com.ibm.fhir.model.resource.ClaimResponse.AddItem.Builder--><a href="ClaimResponse.AddItem.Builder.html" target="_top" title="ClaimResponse.AddItem.Builder.html" xlink:actuate="onRequest" xlink:href="ClaimResponse.AddItem.Builder.html" xlink:show="new" xlink:title="ClaimResponse.AddItem.Builder.html" xlink:type="simple"><rect fill="#FEFECE" filter="url(#f11j175ts9y76p)" height="38.2656" id="com.ibm.fhir.model.resource.ClaimResponse.AddItem.Builder" style="stroke: #A80036; stroke-width: 1.5;" width="251" x="6" y="518"/><ellipse cx="21" cy="537.1328" fill="#ADD1B2" rx="11" ry="11" style="stroke: #A80036; stroke-width: 1.0;"/><path d="M23.4731,543.2759 Q22.8921,543.5747 22.2529,543.7241 Q21.6138,543.8735 20.9082,543.8735 Q18.4014,543.8735 17.0815,542.2217 Q15.7617,540.5698 15.7617,537.4487 Q15.7617,534.3193 17.0815,532.6675 Q18.4014,531.0156 20.9082,531.0156 Q21.6138,531.0156 22.2612,531.165 Q22.9087,531.3145 23.4731,531.6133 L23.4731,534.3359 Q22.8423,533.7549 22.2488,533.4851 Q21.6553,533.2153 21.0244,533.2153 Q19.6797,533.2153 18.9949,534.282 Q18.3101,535.3486 18.3101,537.4487 Q18.3101,539.5405 18.9949,540.6072 Q19.6797,541.6738 21.0244,541.6738 Q21.6553,541.6738 22.2488,541.4041 Q22.8423,541.1343 23.4731,540.5532 Z "/><text fill="#000000" font-family="sans-serif" font-size="14" lengthAdjust="spacingAndGlyphs" textLength="219" x="35" y="536.5352">ClaimResponse.AddItem.Builder</text><text fill="#000000" font-family="sans-serif" font-size="10" lengthAdjust="spacingAndGlyphs" textLength="139" x="75" y="549.1563">com.ibm.fhir.model.resource</text></a><!--MD5=[d5d309bdd91b7859f02b4cb7464846bc]
class com.ibm.fhir.model.resource.ClaimResponse.AddItem.Detail--><a href="ClaimResponse.AddItem.Detail.html" target="_top" title="ClaimResponse.AddItem.Detail.html" xlink:actuate="onRequest" xlink:href="ClaimResponse.AddItem.Detail.html" xlink:show="new" xlink:title="ClaimResponse.AddItem.Detail.html" xlink:type="simple"><rect fill="#FEFECE" filter="url(#f11j175ts9y76p)" height="38.2656" id="com.ibm.fhir.model.resource.ClaimResponse.AddItem.Detail" style="stroke: #A80036; stroke-width: 1.5;" width="242" x="292.5" y="518"/><ellipse cx="307.5" cy="537.1328" fill="#ADD1B2" rx="11" ry="11" style="stroke: #A80036; stroke-width: 1.0;"/><path d="M309.9731,543.2759 Q309.3921,543.5747 308.7529,543.7241 Q308.1138,543.8735 307.4082,543.8735 Q304.9014,543.8735 303.5815,542.2217 Q302.2617,540.5698 302.2617,537.4487 Q302.2617,534.3193 303.5815,532.6675 Q304.9014,531.0156 307.4082,531.0156 Q308.1138,531.0156 308.7612,531.165 Q309.4087,531.3145 309.9731,531.6133 L309.9731,534.3359 Q309.3423,533.7549 308.7488,533.4851 Q308.1553,533.2153 307.5244,533.2153 Q306.1797,533.2153 305.4949,534.282 Q304.8101,535.3486 304.8101,537.4487 Q304.8101,539.5405 305.4949,540.6072 Q306.1797,541.6738 307.5244,541.6738 Q308.1553,541.6738 308.7488,541.4041 Q309.3423,541.1343 309.9731,540.5532 Z "/><text fill="#000000" font-family="sans-serif" font-size="14" lengthAdjust="spacingAndGlyphs" textLength="210" x="321.5" y="536.5352">ClaimResponse.AddItem.Detail</text><text fill="#000000" font-family="sans-serif" font-size="10" lengthAdjust="spacingAndGlyphs" textLength="139" x="357" y="549.1563">com.ibm.fhir.model.resource</text></a><!--MD5=[9e4803eae0b08875b31353b51f7d4e34]
reverse link com.ibm.fhir.model.type.BackboneElement to com.ibm.fhir.model.resource.ClaimResponse.AddItem--><path d="M193.1432,86.0103 C197.8681,98.3048 203.2145,112.2162 208.8451,126.8675 " fill="none" id="com.ibm.fhir.model.type.BackboneElement&lt;-com.ibm.fhir.model.resource.ClaimResponse.AddItem" style="stroke: #A80036; stroke-width: 1.0;"/><polygon fill="none" points="186.4782,88.1808,185.8376,67.0009,199.5464,83.1585,186.4782,88.1808" style="stroke: #A80036; stroke-width: 1.0;"/><!--MD5=[d8f7e2963f0b825ce2588e21443cbb97]
reverse link com.ibm.fhir.model.resource.ClaimResponse to com.ibm.fhir.model.resource.ClaimResponse.AddItem--><path d="M358.4638,71.0781 C352.5049,86.4267 344.9632,105.8523 336.8333,126.793 " fill="none" id="com.ibm.fhir.model.resource.ClaimResponse&lt;-com.ibm.fhir.model.resource.ClaimResponse.AddItem" style="stroke: #A80036; stroke-width: 1.0;"/><ellipse cx="361.1635" cy="64.1241" fill="#FFFFFF" rx="8" ry="8" style="stroke: #A80036; stroke-width: 1.0;"/><line style="stroke: #A80036; stroke-width: 1.0;" x1="358.2681" x2="364.0589" y1="71.5817" y2="56.6664"/><line style="stroke: #A80036; stroke-width: 1.0;" x1="353.7059" x2="368.6212" y1="61.2287" y2="67.0194"/><!--MD5=[98ac8ec576d283427fb881cbd8ebf6af]
reverse link com.ibm.fhir.model.resource.ClaimResponse.AddItem to com.ibm.fhir.model.resource.ClaimResponse.AddItem.Builder--><path d="M169.3252,471.4094 C158.6704,489.8854 149.294,506.1444 142.542,517.8527 " fill="none" id="com.ibm.fhir.model.resource.ClaimResponse.AddItem&lt;-com.ibm.fhir.model.resource.ClaimResponse.AddItem.Builder" style="stroke: #A80036; stroke-width: 1.0;"/><ellipse cx="172.8928" cy="465.223" fill="#FFFFFF" rx="8" ry="8" style="stroke: #A80036; stroke-width: 1.0;"/><line style="stroke: #A80036; stroke-width: 1.0;" x1="168.8963" x2="176.8894" y1="472.1532" y2="458.2928"/><line style="stroke: #A80036; stroke-width: 1.0;" x1="165.9627" x2="179.823" y1="461.2264" y2="469.2195"/><!--MD5=[91ed5527c3aba99a342fd82b9ae8bde2]
reverse link com.ibm.fhir.model.resource.ClaimResponse.AddItem to com.ibm.fhir.model.resource.ClaimResponse.AddItem.Detail--><path d="M375.6748,471.4094 C386.3296,489.8854 395.706,506.1444 402.458,517.8527 " fill="none" id="com.ibm.fhir.model.resource.ClaimResponse.AddItem&lt;-com.ibm.fhir.model.resource.ClaimResponse.AddItem.Detail" style="stroke: #A80036; stroke-width: 1.0;"/><ellipse cx="372.1072" cy="465.223" fill="#FFFFFF" rx="8" ry="8" style="stroke: #A80036; stroke-width: 1.0;"/><line style="stroke: #A80036; stroke-width: 1.0;" x1="376.1037" x2="368.1106" y1="472.1532" y2="458.2928"/><line style="stroke: #A80036; stroke-width: 1.0;" x1="365.177" x2="379.0373" y1="469.2195" y2="461.2264"/><text fill="#888888" font-family="sans-serif" font-size="10" lengthAdjust="spacingAndGlyphs" textLength="182" x="185.5" y="575.668">UMLDoclet 2.0.7, PlantUML 1.2019.12</text><!--MD5=[e80616a181d49dcfac7c17448d7c01e4]
@startuml
    set namespaceSeparator none
    hide empty fields
    hide empty methods

    class "<size:14>ClaimResponse.AddItem\n<size:10>com.ibm.fhir.model.resource" as com.ibm.fhir.model.resource.ClaimResponse.AddItem [[ClaimResponse.AddItem.html]] {
        +getItemSequence(): List<PositiveInt>
        +getDetailSequence(): List<PositiveInt>
        +getSubdetailSequence(): List<PositiveInt>
        +getProvider(): List<Reference>
        +getProductOrService(): CodeableConcept
        +getModifier(): List<CodeableConcept>
        +getProgramCode(): List<CodeableConcept>
        +getServiced(): Element
        +getLocation(): Element
        +getQuantity(): SimpleQuantity
        +getUnitPrice(): Money
        +getFactor(): Decimal
        +getNet(): Money
        +getBodySite(): CodeableConcept
        +getSubSite(): List<CodeableConcept>
        +getNoteNumber(): List<PositiveInt>
        +getAdjudication(): List<Adjudication>
        +getDetail(): List<Detail>
        +hasChildren(): boolean
        +accept(String, int, Visitor): void
        +toBuilder(): Builder
        {static} +builder(): Builder
    }

    abstract class "<size:14>BackboneElement\n<size:10>com.ibm.fhir.model.type" as com.ibm.fhir.model.type.BackboneElement [[../type/BackboneElement.html]] {
        {abstract} +toBuilder(): Builder
    }
    class "<size:14>ClaimResponse\n<size:10>com.ibm.fhir.model.resource" as com.ibm.fhir.model.resource.ClaimResponse [[ClaimResponse.html]]
    class "<size:14>ClaimResponse.AddItem.Builder\n<size:10>com.ibm.fhir.model.resource" as com.ibm.fhir.model.resource.ClaimResponse.AddItem.Builder [[ClaimResponse.AddItem.Builder.html]]
    class "<size:14>ClaimResponse.AddItem.Detail\n<size:10>com.ibm.fhir.model.resource" as com.ibm.fhir.model.resource.ClaimResponse.AddItem.Detail [[ClaimResponse.AddItem.Detail.html]]

    com.ibm.fhir.model.type.BackboneElement <|- - com.ibm.fhir.model.resource.ClaimResponse.AddItem
    com.ibm.fhir.model.resource.ClaimResponse +- - com.ibm.fhir.model.resource.ClaimResponse.AddItem
    com.ibm.fhir.model.resource.ClaimResponse.AddItem +- - com.ibm.fhir.model.resource.ClaimResponse.AddItem.Builder
    com.ibm.fhir.model.resource.ClaimResponse.AddItem +- - com.ibm.fhir.model.resource.ClaimResponse.AddItem.Detail

    center footer UMLDoclet 2.0.7, PlantUML 1.2019.12
@enduml

PlantUML version 1.2019.12(Sun Nov 03 05:24:54 EST 2019)
(APACHE source distribution)
Java Runtime: OpenJDK Runtime Environment
JVM: OpenJDK 64-Bit Server VM
Java Version: 11.0.4+11
Operating System: Mac OS X
Default Encoding: UTF-8
Language: en
Country: US
--></g></svg>