<?xml version="1.0" encoding="UTF-8" standalone="no"?><svg xmlns="http://www.w3.org/2000/svg" xmlns:xlink="http://www.w3.org/1999/xlink" contentScriptType="application/ecmascript" contentStyleType="text/css" height="512px" preserveAspectRatio="none" style="width:706px;height:512px;" version="1.1" viewBox="0 0 706 512" width="706px" zoomAndPan="magnify"><defs><filter height="300%" id="f13ia9y8cc6ar4" width="300%" x="-1" y="-1"><feGaussianBlur result="blurOut" stdDeviation="2.0"/><feColorMatrix in="blurOut" result="blurOut2" type="matrix" values="0 0 0 0 0 0 0 0 0 0 0 0 0 0 0 0 0 0 .4 0"/><feOffset dx="4.0" dy="4.0" in="blurOut2" result="blurOut3"/><feBlend in="SourceGraphic" in2="blurOut3" mode="normal"/></filter></defs><g><!--MD5=[dbecf98489c9c244782878a883820d9e]
class com.ibm.fhir.model.resource.EpisodeOfCare--><a href="EpisodeOfCare.html" target="_top" title="EpisodeOfCare.html" xlink:actuate="onRequest" xlink:href="EpisodeOfCare.html" xlink:show="new" xlink:title="EpisodeOfCare.html" xlink:type="simple"><rect fill="#FEFECE" filter="url(#f13ia9y8cc6ar4)" height="253.5469" id="com.ibm.fhir.model.resource.EpisodeOfCare" style="stroke: #A80036; stroke-width: 1.5;" width="238" x="222" y="127"/><ellipse cx="267.25" cy="146.1328" fill="#ADD1B2" rx="11" ry="11" style="stroke: #A80036; stroke-width: 1.0;"/><path d="M269.7231,152.2759 Q269.1421,152.5747 268.5029,152.7241 Q267.8638,152.8735 267.1582,152.8735 Q264.6514,152.8735 263.3315,151.2217 Q262.0117,149.5698 262.0117,146.4487 Q262.0117,143.3193 263.3315,141.6675 Q264.6514,140.0156 267.1582,140.0156 Q267.8638,140.0156 268.5112,140.165 Q269.1587,140.3145 269.7231,140.6133 L269.7231,143.3359 Q269.0923,142.7549 268.4988,142.4851 Q267.9053,142.2153 267.2744,142.2153 Q265.9297,142.2153 265.2449,143.282 Q264.5601,144.3486 264.5601,146.4487 Q264.5601,148.5405 265.2449,149.6072 Q265.9297,150.6738 267.2744,150.6738 Q267.9053,150.6738 268.4988,150.4041 Q269.0923,150.1343 269.7231,149.5532 Z "/><text fill="#000000" font-family="sans-serif" font-size="14" lengthAdjust="spacingAndGlyphs" textLength="102" x="306.25" y="145.5352">EpisodeOfCare</text><text fill="#000000" font-family="sans-serif" font-size="10" lengthAdjust="spacingAndGlyphs" textLength="139" x="287.75" y="158.1563">com.ibm.fhir.model.resource</text><line style="stroke: #A80036; stroke-width: 1.5;" x1="223" x2="459" y1="165.2656" y2="165.2656"/><ellipse cx="233" cy="176.2656" fill="#84BE84" rx="3" ry="3" style="stroke: #038048; stroke-width: 1.0;"/><text fill="#000000" font-family="sans-serif" font-size="11" lengthAdjust="spacingAndGlyphs" textLength="164" x="242" y="179.9004">getIdentifier(): List&lt;Identifier&gt;</text><ellipse cx="233" cy="189.2207" fill="#84BE84" rx="3" ry="3" style="stroke: #038048; stroke-width: 1.0;"/><text fill="#000000" font-family="sans-serif" font-size="11" lengthAdjust="spacingAndGlyphs" textLength="177" x="242" y="192.8555">getStatus(): EpisodeOfCareStatus</text><ellipse cx="233" cy="202.1758" fill="#84BE84" rx="3" ry="3" style="stroke: #038048; stroke-width: 1.0;"/><text fill="#000000" font-family="sans-serif" font-size="11" lengthAdjust="spacingAndGlyphs" textLength="212" x="242" y="205.8105">getStatusHistory(): List&lt;StatusHistory&gt;</text><ellipse cx="233" cy="215.1309" fill="#84BE84" rx="3" ry="3" style="stroke: #038048; stroke-width: 1.0;"/><text fill="#000000" font-family="sans-serif" font-size="11" lengthAdjust="spacingAndGlyphs" textLength="189" x="242" y="218.7656">getType(): List&lt;CodeableConcept&gt;</text><ellipse cx="233" cy="228.0859" fill="#84BE84" rx="3" ry="3" style="stroke: #038048; stroke-width: 1.0;"/><text fill="#000000" font-family="sans-serif" font-size="11" lengthAdjust="spacingAndGlyphs" textLength="174" x="242" y="231.7207">getDiagnosis(): List&lt;Diagnosis&gt;</text><ellipse cx="233" cy="241.041" fill="#84BE84" rx="3" ry="3" style="stroke: #038048; stroke-width: 1.0;"/><text fill="#000000" font-family="sans-serif" font-size="11" lengthAdjust="spacingAndGlyphs" textLength="120" x="242" y="244.6758">getPatient(): Reference</text><ellipse cx="233" cy="253.9961" fill="#84BE84" rx="3" ry="3" style="stroke: #038048; stroke-width: 1.0;"/><text fill="#000000" font-family="sans-serif" font-size="11" lengthAdjust="spacingAndGlyphs" textLength="206" x="242" y="257.6309">getManagingOrganization(): Reference</text><ellipse cx="233" cy="266.9512" fill="#84BE84" rx="3" ry="3" style="stroke: #038048; stroke-width: 1.0;"/><text fill="#000000" font-family="sans-serif" font-size="11" lengthAdjust="spacingAndGlyphs" textLength="99" x="242" y="270.5859">getPeriod(): Period</text><ellipse cx="233" cy="279.9063" fill="#84BE84" rx="3" ry="3" style="stroke: #038048; stroke-width: 1.0;"/><text fill="#000000" font-family="sans-serif" font-size="11" lengthAdjust="spacingAndGlyphs" textLength="206" x="242" y="283.541">getReferralRequest(): List&lt;Reference&gt;</text><ellipse cx="233" cy="292.8613" fill="#84BE84" rx="3" ry="3" style="stroke: #038048; stroke-width: 1.0;"/><text fill="#000000" font-family="sans-serif" font-size="11" lengthAdjust="spacingAndGlyphs" textLength="155" x="242" y="296.4961">getCareManager(): Reference</text><ellipse cx="233" cy="305.8164" fill="#84BE84" rx="3" ry="3" style="stroke: #038048; stroke-width: 1.0;"/><text fill="#000000" font-family="sans-serif" font-size="11" lengthAdjust="spacingAndGlyphs" textLength="150" x="242" y="309.4512">getTeam(): List&lt;Reference&gt;</text><ellipse cx="233" cy="318.7715" fill="#84BE84" rx="3" ry="3" style="stroke: #038048; stroke-width: 1.0;"/><text fill="#000000" font-family="sans-serif" font-size="11" lengthAdjust="spacingAndGlyphs" textLength="166" x="242" y="322.4063">getAccount(): List&lt;Reference&gt;</text><ellipse cx="233" cy="331.7266" fill="#84BE84" rx="3" ry="3" style="stroke: #038048; stroke-width: 1.0;"/><text fill="#000000" font-family="sans-serif" font-size="11" lengthAdjust="spacingAndGlyphs" textLength="122" x="242" y="335.3613">hasChildren(): boolean</text><ellipse cx="233" cy="344.6816" fill="#84BE84" rx="3" ry="3" style="stroke: #038048; stroke-width: 1.0;"/><text fill="#000000" font-family="sans-serif" font-size="11" lengthAdjust="spacingAndGlyphs" textLength="165" x="242" y="348.3164">accept(String, int, Visitor): void</text><ellipse cx="233" cy="357.6367" fill="#84BE84" rx="3" ry="3" style="stroke: #038048; stroke-width: 1.0;"/><text fill="#000000" font-family="sans-serif" font-size="11" lengthAdjust="spacingAndGlyphs" textLength="99" x="242" y="361.2715">toBuilder(): Builder</text><ellipse cx="233" cy="370.5918" fill="#84BE84" rx="3" ry="3" style="stroke: #038048; stroke-width: 1.0;"/><text fill="#000000" font-family="sans-serif" font-size="11" lengthAdjust="spacingAndGlyphs" text-decoration="underline" textLength="89" x="242" y="374.2266">builder(): Builder</text></a><!--MD5=[5a92b081cf79a7020013158c64ef85a4]
class com.ibm.fhir.model.resource.DomainResource--><a href="DomainResource.html" target="_top" title="DomainResource.html" xlink:actuate="onRequest" xlink:href="DomainResource.html" xlink:show="new" xlink:title="DomainResource.html" xlink:type="simple"><rect fill="#FEFECE" filter="url(#f13ia9y8cc6ar4)" height="59.2207" id="com.ibm.fhir.model.resource.DomainResource" style="stroke: #A80036; stroke-width: 1.5;" width="171" x="255.5" y="8"/><ellipse cx="270.5" cy="27.1328" fill="#A9DCDF" rx="11" ry="11" style="stroke: #A80036; stroke-width: 1.0;"/><path d="M270.6133,22.731 L269.4595,27.8027 L271.7754,27.8027 Z M269.1191,20.4897 L272.1157,20.4897 L275.4609,32.8828 L273.0122,32.8828 L272.2485,29.8198 L268.9697,29.8198 L268.2227,32.8828 L265.7739,32.8828 Z "/><text fill="#000000" font-family="sans-serif" font-size="14" font-style="italic" lengthAdjust="spacingAndGlyphs" textLength="116" x="296" y="26.5352">DomainResource</text><text fill="#000000" font-family="sans-serif" font-size="10" font-style="italic" lengthAdjust="spacingAndGlyphs" textLength="139" x="284.5" y="39.1563">com.ibm.fhir.model.resource</text><line style="stroke: #A80036; stroke-width: 1.5;" x1="256.5" x2="425.5" y1="46.2656" y2="46.2656"/><ellipse cx="266.5" cy="57.2656" fill="#84BE84" rx="3" ry="3" style="stroke: #038048; stroke-width: 1.0;"/><text fill="#000000" font-family="sans-serif" font-size="11" font-style="italic" lengthAdjust="spacingAndGlyphs" textLength="99" x="275.5" y="60.9004">toBuilder(): Builder</text></a><!--MD5=[5366ea70cd66f9c8bd41bbb6329a5d0e]
class com.ibm.fhir.model.resource.EpisodeOfCare.Builder--><a href="EpisodeOfCare.Builder.html" target="_top" title="EpisodeOfCare.Builder.html" xlink:actuate="onRequest" xlink:href="EpisodeOfCare.Builder.html" xlink:show="new" xlink:title="EpisodeOfCare.Builder.html" xlink:type="simple"><rect fill="#FEFECE" filter="url(#f13ia9y8cc6ar4)" height="38.2656" id="com.ibm.fhir.model.resource.EpisodeOfCare.Builder" style="stroke: #A80036; stroke-width: 1.5;" width="186" x="6" y="441"/><ellipse cx="21" cy="460.1328" fill="#ADD1B2" rx="11" ry="11" style="stroke: #A80036; stroke-width: 1.0;"/><path d="M23.4731,466.2759 Q22.8921,466.5747 22.2529,466.7241 Q21.6138,466.8735 20.9082,466.8735 Q18.4014,466.8735 17.0815,465.2217 Q15.7617,463.5698 15.7617,460.4487 Q15.7617,457.3193 17.0815,455.6675 Q18.4014,454.0156 20.9082,454.0156 Q21.6138,454.0156 22.2612,454.165 Q22.9087,454.3145 23.4731,454.6133 L23.4731,457.3359 Q22.8423,456.7549 22.2488,456.4851 Q21.6553,456.2153 21.0244,456.2153 Q19.6797,456.2153 18.9949,457.282 Q18.3101,458.3486 18.3101,460.4487 Q18.3101,462.5405 18.9949,463.6072 Q19.6797,464.6738 21.0244,464.6738 Q21.6553,464.6738 22.2488,464.4041 Q22.8423,464.1343 23.4731,463.5532 Z "/><text fill="#000000" font-family="sans-serif" font-size="14" lengthAdjust="spacingAndGlyphs" textLength="154" x="35" y="459.5352">EpisodeOfCare.Builder</text><text fill="#000000" font-family="sans-serif" font-size="10" lengthAdjust="spacingAndGlyphs" textLength="139" x="42.5" y="472.1563">com.ibm.fhir.model.resource</text></a><!--MD5=[a7ed43d2ce5adb9cd072febc5a68a4ea]
class com.ibm.fhir.model.resource.EpisodeOfCare.StatusHistory--><a href="EpisodeOfCare.StatusHistory.html" target="_top" title="EpisodeOfCare.StatusHistory.html" xlink:actuate="onRequest" xlink:href="EpisodeOfCare.StatusHistory.html" xlink:show="new" xlink:title="EpisodeOfCare.StatusHistory.html" xlink:type="simple"><rect fill="#FEFECE" filter="url(#f13ia9y8cc6ar4)" height="38.2656" id="com.ibm.fhir.model.resource.EpisodeOfCare.StatusHistory" style="stroke: #A80036; stroke-width: 1.5;" width="228" x="227" y="441"/><ellipse cx="242" cy="460.1328" fill="#ADD1B2" rx="11" ry="11" style="stroke: #A80036; stroke-width: 1.0;"/><path d="M244.4731,466.2759 Q243.8921,466.5747 243.2529,466.7241 Q242.6138,466.8735 241.9082,466.8735 Q239.4014,466.8735 238.0815,465.2217 Q236.7617,463.5698 236.7617,460.4487 Q236.7617,457.3193 238.0815,455.6675 Q239.4014,454.0156 241.9082,454.0156 Q242.6138,454.0156 243.2612,454.165 Q243.9087,454.3145 244.4731,454.6133 L244.4731,457.3359 Q243.8423,456.7549 243.2488,456.4851 Q242.6553,456.2153 242.0244,456.2153 Q240.6797,456.2153 239.9949,457.282 Q239.3101,458.3486 239.3101,460.4487 Q239.3101,462.5405 239.9949,463.6072 Q240.6797,464.6738 242.0244,464.6738 Q242.6553,464.6738 243.2488,464.4041 Q243.8423,464.1343 244.4731,463.5532 Z "/><text fill="#000000" font-family="sans-serif" font-size="14" lengthAdjust="spacingAndGlyphs" textLength="196" x="256" y="459.5352">EpisodeOfCare.StatusHistory</text><text fill="#000000" font-family="sans-serif" font-size="10" lengthAdjust="spacingAndGlyphs" textLength="139" x="284.5" y="472.1563">com.ibm.fhir.model.resource</text></a><!--MD5=[fd54f38ae70712f4878c59bdea28988a]
class com.ibm.fhir.model.resource.EpisodeOfCare.Diagnosis--><a href="EpisodeOfCare.Diagnosis.html" target="_top" title="EpisodeOfCare.Diagnosis.html" xlink:actuate="onRequest" xlink:href="EpisodeOfCare.Diagnosis.html" xlink:show="new" xlink:title="EpisodeOfCare.Diagnosis.html" xlink:type="simple"><rect fill="#FEFECE" filter="url(#f13ia9y8cc6ar4)" height="38.2656" id="com.ibm.fhir.model.resource.EpisodeOfCare.Diagnosis" style="stroke: #A80036; stroke-width: 1.5;" width="205" x="490.5" y="441"/><ellipse cx="505.5" cy="460.1328" fill="#ADD1B2" rx="11" ry="11" style="stroke: #A80036; stroke-width: 1.0;"/><path d="M507.9731,466.2759 Q507.3921,466.5747 506.7529,466.7241 Q506.1138,466.8735 505.4082,466.8735 Q502.9014,466.8735 501.5815,465.2217 Q500.2617,463.5698 500.2617,460.4487 Q500.2617,457.3193 501.5815,455.6675 Q502.9014,454.0156 505.4082,454.0156 Q506.1138,454.0156 506.7612,454.165 Q507.4087,454.3145 507.9731,454.6133 L507.9731,457.3359 Q507.3423,456.7549 506.7488,456.4851 Q506.1553,456.2153 505.5244,456.2153 Q504.1797,456.2153 503.4949,457.282 Q502.8101,458.3486 502.8101,460.4487 Q502.8101,462.5405 503.4949,463.6072 Q504.1797,464.6738 505.5244,464.6738 Q506.1553,464.6738 506.7488,464.4041 Q507.3423,464.1343 507.9731,463.5532 Z "/><text fill="#000000" font-family="sans-serif" font-size="14" lengthAdjust="spacingAndGlyphs" textLength="173" x="519.5" y="459.5352">EpisodeOfCare.Diagnosis</text><text fill="#000000" font-family="sans-serif" font-size="10" lengthAdjust="spacingAndGlyphs" textLength="139" x="536.5" y="472.1563">com.ibm.fhir.model.resource</text></a><!--MD5=[c15fd46cb5331418281f7577dfae79c0]
reverse link com.ibm.fhir.model.resource.DomainResource to com.ibm.fhir.model.resource.EpisodeOfCare--><path d="M341,87.1749 C341,99.2498 341,112.716 341,126.617 " fill="none" id="com.ibm.fhir.model.resource.DomainResource&lt;-com.ibm.fhir.model.resource.EpisodeOfCare" style="stroke: #A80036; stroke-width: 1.0;"/><polygon fill="none" points="334.0001,87.1495,341,67.1494,348.0001,87.1494,334.0001,87.1495" style="stroke: #A80036; stroke-width: 1.0;"/><!--MD5=[80f17e7e33d5b317df1a0857644eba14]
reverse link com.ibm.fhir.model.resource.EpisodeOfCare to com.ibm.fhir.model.resource.EpisodeOfCare.Builder--><path d="M210.1487,365.3859 C175.946,394.5005 142.8001,422.7156 121.7396,440.6432 " fill="none" id="com.ibm.fhir.model.resource.EpisodeOfCare&lt;-com.ibm.fhir.model.resource.EpisodeOfCare.Builder" style="stroke: #A80036; stroke-width: 1.0;"/><ellipse cx="215.6806" cy="360.6769" fill="#FFFFFF" rx="8" ry="8" style="stroke: #A80036; stroke-width: 1.0;"/><line style="stroke: #A80036; stroke-width: 1.0;" x1="209.5888" x2="221.7724" y1="365.8625" y2="355.4913"/><line style="stroke: #A80036; stroke-width: 1.0;" x1="210.495" x2="220.8662" y1="354.5851" y2="366.7687"/><!--MD5=[9cd8055951e320ee27a34870ab4ebbce]
reverse link com.ibm.fhir.model.resource.EpisodeOfCare to com.ibm.fhir.model.resource.EpisodeOfCare.StatusHistory--><path d="M341,396.4717 C341,413.7643 341,429.308 341,440.6916 " fill="none" id="com.ibm.fhir.model.resource.EpisodeOfCare&lt;-com.ibm.fhir.model.resource.EpisodeOfCare.StatusHistory" style="stroke: #A80036; stroke-width: 1.0;"/><ellipse cx="341.0001" cy="389.2385" fill="#FFFFFF" rx="8" ry="8" style="stroke: #A80036; stroke-width: 1.0;"/><line style="stroke: #A80036; stroke-width: 1.0;" x1="341.0002" x2="341" y1="397.2385" y2="381.2385"/><line style="stroke: #A80036; stroke-width: 1.0;" x1="333.0001" x2="349.0001" y1="389.2386" y2="389.2384"/><!--MD5=[2d9694dc945b1462f10fd73ac993b9ae]
reverse link com.ibm.fhir.model.resource.EpisodeOfCare to com.ibm.fhir.model.resource.EpisodeOfCare.Diagnosis--><path d="M472.0328,361.1141 C509.6368,391.8539 546.6421,422.1042 569.6228,440.89 " fill="none" id="com.ibm.fhir.model.resource.EpisodeOfCare&lt;-com.ibm.fhir.model.resource.EpisodeOfCare.Diagnosis" style="stroke: #A80036; stroke-width: 1.0;"/><ellipse cx="466.552" cy="356.6338" fill="#FFFFFF" rx="8" ry="8" style="stroke: #A80036; stroke-width: 1.0;"/><line style="stroke: #A80036; stroke-width: 1.0;" x1="472.7459" x2="460.3582" y1="361.6971" y2="351.5706"/><line style="stroke: #A80036; stroke-width: 1.0;" x1="461.4888" x2="471.6153" y1="362.8277" y2="350.44"/><text fill="#888888" font-family="sans-serif" font-size="10" lengthAdjust="spacingAndGlyphs" textLength="182" x="266" y="498.668">UMLDoclet 2.0.7, PlantUML 1.2019.12</text><!--MD5=[aec68abb4b6f2a006750a8c4d144bdad]
@startuml
    set namespaceSeparator none
    hide empty fields
    hide empty methods

    class "<size:14>EpisodeOfCare\n<size:10>com.ibm.fhir.model.resource" as com.ibm.fhir.model.resource.EpisodeOfCare [[EpisodeOfCare.html]] {
        +getIdentifier(): List<Identifier>
        +getStatus(): EpisodeOfCareStatus
        +getStatusHistory(): List<StatusHistory>
        +getType(): List<CodeableConcept>
        +getDiagnosis(): List<Diagnosis>
        +getPatient(): Reference
        +getManagingOrganization(): Reference
        +getPeriod(): Period
        +getReferralRequest(): List<Reference>
        +getCareManager(): Reference
        +getTeam(): List<Reference>
        +getAccount(): List<Reference>
        +hasChildren(): boolean
        +accept(String, int, Visitor): void
        +toBuilder(): Builder
        {static} +builder(): Builder
    }

    abstract class "<size:14>DomainResource\n<size:10>com.ibm.fhir.model.resource" as com.ibm.fhir.model.resource.DomainResource [[DomainResource.html]] {
        {abstract} +toBuilder(): Builder
    }
    class "<size:14>EpisodeOfCare.Builder\n<size:10>com.ibm.fhir.model.resource" as com.ibm.fhir.model.resource.EpisodeOfCare.Builder [[EpisodeOfCare.Builder.html]]
    class "<size:14>EpisodeOfCare.StatusHistory\n<size:10>com.ibm.fhir.model.resource" as com.ibm.fhir.model.resource.EpisodeOfCare.StatusHistory [[EpisodeOfCare.StatusHistory.html]]
    class "<size:14>EpisodeOfCare.Diagnosis\n<size:10>com.ibm.fhir.model.resource" as com.ibm.fhir.model.resource.EpisodeOfCare.Diagnosis [[EpisodeOfCare.Diagnosis.html]]

    com.ibm.fhir.model.resource.DomainResource <|- - com.ibm.fhir.model.resource.EpisodeOfCare
    com.ibm.fhir.model.resource.EpisodeOfCare +- - com.ibm.fhir.model.resource.EpisodeOfCare.Builder
    com.ibm.fhir.model.resource.EpisodeOfCare +- - com.ibm.fhir.model.resource.EpisodeOfCare.StatusHistory
    com.ibm.fhir.model.resource.EpisodeOfCare +- - com.ibm.fhir.model.resource.EpisodeOfCare.Diagnosis

    center footer UMLDoclet 2.0.7, PlantUML 1.2019.12
@enduml

PlantUML version 1.2019.12(Sun Nov 03 05:24:54 EST 2019)
(APACHE source distribution)
Java Runtime: OpenJDK Runtime Environment
JVM: OpenJDK 64-Bit Server VM
Java Version: 11.0.4+11
Operating System: Mac OS X
Default Encoding: UTF-8
Language: en
Country: US
--></g></svg>