<?xml version="1.0" encoding="UTF-8" standalone="no"?><svg xmlns="http://www.w3.org/2000/svg" xmlns:xlink="http://www.w3.org/1999/xlink" contentScriptType="application/ecmascript" contentStyleType="text/css" height="395px" preserveAspectRatio="none" style="width:1430px;height:395px;" version="1.1" viewBox="0 0 1430 395" width="1430px" zoomAndPan="magnify"><defs><filter height="300%" id="f1k7auyofzqoyu" width="300%" x="-1" y="-1"><feGaussianBlur result="blurOut" stdDeviation="2.0"/><feColorMatrix in="blurOut" result="blurOut2" type="matrix" values="0 0 0 0 0 0 0 0 0 0 0 0 0 0 0 0 0 0 .4 0"/><feOffset dx="4.0" dy="4.0" in="blurOut2" result="blurOut3"/><feBlend in="SourceGraphic" in2="blurOut3" mode="normal"/></filter></defs><g><!--MD5=[b88f04073631258051beaae30739b91b]
class com.ibm.fhir.model.resource.MedicationKnowledge.AdministrationGuidelines--><a href="MedicationKnowledge.AdministrationGuidelines.html" target="_top" title="MedicationKnowledge.AdministrationGuidelines.html" xlink:actuate="onRequest" xlink:href="MedicationKnowledge.AdministrationGuidelines.html" xlink:show="new" xlink:title="MedicationKnowledge.AdministrationGuidelines.html" xlink:type="simple"><rect fill="#FEFECE" filter="url(#f1k7auyofzqoyu)" height="136.9512" id="com.ibm.fhir.model.resource.MedicationKnowledge.AdministrationGuidelines" style="stroke: #A80036; stroke-width: 1.5;" width="361" x="482" y="127"/><ellipse cx="497" cy="146.1328" fill="#ADD1B2" rx="11" ry="11" style="stroke: #A80036; stroke-width: 1.0;"/><path d="M499.4731,152.2759 Q498.8921,152.5747 498.2529,152.7241 Q497.6138,152.8735 496.9082,152.8735 Q494.4014,152.8735 493.0815,151.2217 Q491.7617,149.5698 491.7617,146.4487 Q491.7617,143.3193 493.0815,141.6675 Q494.4014,140.0156 496.9082,140.0156 Q497.6138,140.0156 498.2612,140.165 Q498.9087,140.3145 499.4731,140.6133 L499.4731,143.3359 Q498.8423,142.7549 498.2488,142.4851 Q497.6553,142.2153 497.0244,142.2153 Q495.6797,142.2153 494.9949,143.282 Q494.3101,144.3486 494.3101,146.4487 Q494.3101,148.5405 494.9949,149.6072 Q495.6797,150.6738 497.0244,150.6738 Q497.6553,150.6738 498.2488,150.4041 Q498.8423,150.1343 499.4731,149.5532 Z "/><text fill="#000000" font-family="sans-serif" font-size="14" lengthAdjust="spacingAndGlyphs" textLength="329" x="511" y="145.5352">MedicationKnowledge.AdministrationGuidelines</text><text fill="#000000" font-family="sans-serif" font-size="10" lengthAdjust="spacingAndGlyphs" textLength="139" x="606" y="158.1563">com.ibm.fhir.model.resource</text><line style="stroke: #A80036; stroke-width: 1.5;" x1="483" x2="842" y1="165.2656" y2="165.2656"/><ellipse cx="493" cy="176.2656" fill="#84BE84" rx="3" ry="3" style="stroke: #038048; stroke-width: 1.0;"/><text fill="#000000" font-family="sans-serif" font-size="11" lengthAdjust="spacingAndGlyphs" textLength="148" x="502" y="179.9004">getDosage(): List&lt;Dosage&gt;</text><ellipse cx="493" cy="189.2207" fill="#84BE84" rx="3" ry="3" style="stroke: #038048; stroke-width: 1.0;"/><text fill="#000000" font-family="sans-serif" font-size="11" lengthAdjust="spacingAndGlyphs" textLength="126" x="502" y="192.8555">getIndication(): Element</text><ellipse cx="493" cy="202.1758" fill="#84BE84" rx="3" ry="3" style="stroke: #038048; stroke-width: 1.0;"/><text fill="#000000" font-family="sans-serif" font-size="11" lengthAdjust="spacingAndGlyphs" textLength="302" x="502" y="205.8105">getPatientCharacteristics(): List&lt;PatientCharacteristics&gt;</text><ellipse cx="493" cy="215.1309" fill="#84BE84" rx="3" ry="3" style="stroke: #038048; stroke-width: 1.0;"/><text fill="#000000" font-family="sans-serif" font-size="11" lengthAdjust="spacingAndGlyphs" textLength="122" x="502" y="218.7656">hasChildren(): boolean</text><ellipse cx="493" cy="228.0859" fill="#84BE84" rx="3" ry="3" style="stroke: #038048; stroke-width: 1.0;"/><text fill="#000000" font-family="sans-serif" font-size="11" lengthAdjust="spacingAndGlyphs" textLength="165" x="502" y="231.7207">accept(String, int, Visitor): void</text><ellipse cx="493" cy="241.041" fill="#84BE84" rx="3" ry="3" style="stroke: #038048; stroke-width: 1.0;"/><text fill="#000000" font-family="sans-serif" font-size="11" lengthAdjust="spacingAndGlyphs" textLength="99" x="502" y="244.6758">toBuilder(): Builder</text><ellipse cx="493" cy="253.9961" fill="#84BE84" rx="3" ry="3" style="stroke: #038048; stroke-width: 1.0;"/><text fill="#000000" font-family="sans-serif" font-size="11" lengthAdjust="spacingAndGlyphs" text-decoration="underline" textLength="89" x="502" y="257.6309">builder(): Builder</text></a><!--MD5=[efbff6997283c56b83e991a8eeb6a60a]
class com.ibm.fhir.model.type.BackboneElement--><a href="../type/BackboneElement.html" target="_top" title="../type/BackboneElement.html" xlink:actuate="onRequest" xlink:href="../type/BackboneElement.html" xlink:show="new" xlink:title="../type/BackboneElement.html" xlink:type="simple"><rect fill="#FEFECE" filter="url(#f1k7auyofzqoyu)" height="59.2207" id="com.ibm.fhir.model.type.BackboneElement" style="stroke: #A80036; stroke-width: 1.5;" width="153" x="485" y="8"/><ellipse cx="500" cy="27.1328" fill="#A9DCDF" rx="11" ry="11" style="stroke: #A80036; stroke-width: 1.0;"/><path d="M500.1133,22.731 L498.9595,27.8027 L501.2754,27.8027 Z M498.6191,20.4897 L501.6157,20.4897 L504.9609,32.8828 L502.5122,32.8828 L501.7485,29.8198 L498.4697,29.8198 L497.7227,32.8828 L495.2739,32.8828 Z "/><text fill="#000000" font-family="sans-serif" font-size="14" font-style="italic" lengthAdjust="spacingAndGlyphs" textLength="121" x="514" y="26.5352">BackboneElement</text><text fill="#000000" font-family="sans-serif" font-size="10" font-style="italic" lengthAdjust="spacingAndGlyphs" textLength="118" x="515.5" y="39.1563">com.ibm.fhir.model.type</text><line style="stroke: #A80036; stroke-width: 1.5;" x1="486" x2="637" y1="46.2656" y2="46.2656"/><ellipse cx="496" cy="57.2656" fill="#84BE84" rx="3" ry="3" style="stroke: #038048; stroke-width: 1.0;"/><text fill="#000000" font-family="sans-serif" font-size="11" font-style="italic" lengthAdjust="spacingAndGlyphs" textLength="99" x="505" y="60.9004">toBuilder(): Builder</text></a><!--MD5=[4ee27eeb85509ecf46695ec8dd755db6]
class com.ibm.fhir.model.resource.MedicationKnowledge--><a href="MedicationKnowledge.html" target="_top" title="MedicationKnowledge.html" xlink:actuate="onRequest" xlink:href="MedicationKnowledge.html" xlink:show="new" xlink:title="MedicationKnowledge.html" xlink:type="simple"><rect fill="#FEFECE" filter="url(#f1k7auyofzqoyu)" height="38.2656" id="com.ibm.fhir.model.resource.MedicationKnowledge" style="stroke: #A80036; stroke-width: 1.5;" width="183" x="673" y="18.5"/><ellipse cx="688" cy="37.6328" fill="#ADD1B2" rx="11" ry="11" style="stroke: #A80036; stroke-width: 1.0;"/><path d="M690.4731,43.7759 Q689.8921,44.0747 689.2529,44.2241 Q688.6138,44.3735 687.9082,44.3735 Q685.4014,44.3735 684.0815,42.7217 Q682.7617,41.0698 682.7617,37.9487 Q682.7617,34.8193 684.0815,33.1675 Q685.4014,31.5156 687.9082,31.5156 Q688.6138,31.5156 689.2612,31.665 Q689.9087,31.8145 690.4731,32.1133 L690.4731,34.8359 Q689.8423,34.2549 689.2488,33.9851 Q688.6553,33.7153 688.0244,33.7153 Q686.6797,33.7153 685.9949,34.782 Q685.3101,35.8486 685.3101,37.9487 Q685.3101,40.0405 685.9949,41.1072 Q686.6797,42.1738 688.0244,42.1738 Q688.6553,42.1738 689.2488,41.9041 Q689.8423,41.6343 690.4731,41.0532 Z "/><text fill="#000000" font-family="sans-serif" font-size="14" lengthAdjust="spacingAndGlyphs" textLength="151" x="702" y="37.0352">MedicationKnowledge</text><text fill="#000000" font-family="sans-serif" font-size="10" lengthAdjust="spacingAndGlyphs" textLength="139" x="708" y="49.6563">com.ibm.fhir.model.resource</text></a><!--MD5=[6cb26a4ad69a7a14bc0d8a3087680f64]
class com.ibm.fhir.model.resource.MedicationKnowledge.AdministrationGuidelines.Builder--><a href="MedicationKnowledge.AdministrationGuidelines.Builder.html" target="_top" title="MedicationKnowledge.AdministrationGuidelines.Builder.html" xlink:actuate="onRequest" xlink:href="MedicationKnowledge.AdministrationGuidelines.Builder.html" xlink:show="new" xlink:title="MedicationKnowledge.AdministrationGuidelines.Builder.html" xlink:type="simple"><rect fill="#FEFECE" filter="url(#f1k7auyofzqoyu)" height="38.2656" id="com.ibm.fhir.model.resource.MedicationKnowledge.AdministrationGuidelines.Builder" style="stroke: #A80036; stroke-width: 1.5;" width="413" x="6" y="324"/><ellipse cx="21" cy="343.1328" fill="#ADD1B2" rx="11" ry="11" style="stroke: #A80036; stroke-width: 1.0;"/><path d="M23.4731,349.2759 Q22.8921,349.5747 22.2529,349.7241 Q21.6138,349.8735 20.9082,349.8735 Q18.4014,349.8735 17.0815,348.2217 Q15.7617,346.5698 15.7617,343.4487 Q15.7617,340.3193 17.0815,338.6675 Q18.4014,337.0156 20.9082,337.0156 Q21.6138,337.0156 22.2612,337.165 Q22.9087,337.3145 23.4731,337.6133 L23.4731,340.3359 Q22.8423,339.7549 22.2488,339.4851 Q21.6553,339.2153 21.0244,339.2153 Q19.6797,339.2153 18.9949,340.282 Q18.3101,341.3486 18.3101,343.4487 Q18.3101,345.5405 18.9949,346.6072 Q19.6797,347.6738 21.0244,347.6738 Q21.6553,347.6738 22.2488,347.4041 Q22.8423,347.1343 23.4731,346.5532 Z "/><text fill="#000000" font-family="sans-serif" font-size="14" lengthAdjust="spacingAndGlyphs" textLength="381" x="35" y="342.5352">MedicationKnowledge.AdministrationGuidelines.Builder</text><text fill="#000000" font-family="sans-serif" font-size="10" lengthAdjust="spacingAndGlyphs" textLength="139" x="156" y="355.1563">com.ibm.fhir.model.resource</text></a><!--MD5=[7b03b0da1f5630452e3fd20b389685d0]
class com.ibm.fhir.model.resource.MedicationKnowledge.AdministrationGuidelines.Dosage--><a href="MedicationKnowledge.AdministrationGuidelines.Dosage.html" target="_top" title="MedicationKnowledge.AdministrationGuidelines.Dosage.html" xlink:actuate="onRequest" xlink:href="MedicationKnowledge.AdministrationGuidelines.Dosage.html" xlink:show="new" xlink:title="MedicationKnowledge.AdministrationGuidelines.Dosage.html" xlink:type="simple"><rect fill="#FEFECE" filter="url(#f1k7auyofzqoyu)" height="38.2656" id="com.ibm.fhir.model.resource.MedicationKnowledge.AdministrationGuidelines.Dosage" style="stroke: #A80036; stroke-width: 1.5;" width="416" x="454.5" y="324"/><ellipse cx="469.5" cy="343.1328" fill="#ADD1B2" rx="11" ry="11" style="stroke: #A80036; stroke-width: 1.0;"/><path d="M471.9731,349.2759 Q471.3921,349.5747 470.7529,349.7241 Q470.1138,349.8735 469.4082,349.8735 Q466.9014,349.8735 465.5815,348.2217 Q464.2617,346.5698 464.2617,343.4487 Q464.2617,340.3193 465.5815,338.6675 Q466.9014,337.0156 469.4082,337.0156 Q470.1138,337.0156 470.7612,337.165 Q471.4087,337.3145 471.9731,337.6133 L471.9731,340.3359 Q471.3423,339.7549 470.7488,339.4851 Q470.1553,339.2153 469.5244,339.2153 Q468.1797,339.2153 467.4949,340.282 Q466.8101,341.3486 466.8101,343.4487 Q466.8101,345.5405 467.4949,346.6072 Q468.1797,347.6738 469.5244,347.6738 Q470.1553,347.6738 470.7488,347.4041 Q471.3423,347.1343 471.9731,346.5532 Z "/><text fill="#000000" font-family="sans-serif" font-size="14" lengthAdjust="spacingAndGlyphs" textLength="384" x="483.5" y="342.5352">MedicationKnowledge.AdministrationGuidelines.Dosage</text><text fill="#000000" font-family="sans-serif" font-size="10" lengthAdjust="spacingAndGlyphs" textLength="139" x="606" y="355.1563">com.ibm.fhir.model.resource</text></a><!--MD5=[10e76b5509d3ddde1f8c30c68583d417]
class com.ibm.fhir.model.resource.MedicationKnowledge.AdministrationGuidelines.PatientCharacteristics--><a href="MedicationKnowledge.AdministrationGuidelines.PatientCharacteristics.html" target="_top" title="MedicationKnowledge.AdministrationGuidelines.PatientCharacteristics.html" xlink:actuate="onRequest" xlink:href="MedicationKnowledge.AdministrationGuidelines.PatientCharacteristics.html" xlink:show="new" xlink:title="MedicationKnowledge.AdministrationGuidelines.PatientCharacteristics.html" xlink:type="simple"><rect fill="#FEFECE" filter="url(#f1k7auyofzqoyu)" height="38.2656" id="com.ibm.fhir.model.resource.MedicationKnowledge.AdministrationGuidelines.PatientCharacteristics" style="stroke: #A80036; stroke-width: 1.5;" width="513" x="906" y="324"/><ellipse cx="921" cy="343.1328" fill="#ADD1B2" rx="11" ry="11" style="stroke: #A80036; stroke-width: 1.0;"/><path d="M923.4731,349.2759 Q922.8921,349.5747 922.2529,349.7241 Q921.6138,349.8735 920.9082,349.8735 Q918.4014,349.8735 917.0815,348.2217 Q915.7617,346.5698 915.7617,343.4487 Q915.7617,340.3193 917.0815,338.6675 Q918.4014,337.0156 920.9082,337.0156 Q921.6138,337.0156 922.2612,337.165 Q922.9087,337.3145 923.4731,337.6133 L923.4731,340.3359 Q922.8423,339.7549 922.2488,339.4851 Q921.6553,339.2153 921.0244,339.2153 Q919.6797,339.2153 918.9949,340.282 Q918.3101,341.3486 918.3101,343.4487 Q918.3101,345.5405 918.9949,346.6072 Q919.6797,347.6738 921.0244,347.6738 Q921.6553,347.6738 922.2488,347.4041 Q922.8423,347.1343 923.4731,346.5532 Z "/><text fill="#000000" font-family="sans-serif" font-size="14" lengthAdjust="spacingAndGlyphs" textLength="481" x="935" y="342.5352">MedicationKnowledge.AdministrationGuidelines.PatientCharacteristics</text><text fill="#000000" font-family="sans-serif" font-size="10" lengthAdjust="spacingAndGlyphs" textLength="139" x="1106" y="355.1563">com.ibm.fhir.model.resource</text></a><!--MD5=[b737afd7850a87ca78aa77091a340809]
reverse link com.ibm.fhir.model.type.BackboneElement to com.ibm.fhir.model.resource.MedicationKnowledge.AdministrationGuidelines--><path d="M591.443,84.3416 C599.9859,97.7056 609.4751,112.5501 618.6647,126.9259 " fill="none" id="com.ibm.fhir.model.type.BackboneElement&lt;-com.ibm.fhir.model.resource.MedicationKnowledge.AdministrationGuidelines" style="stroke: #A80036; stroke-width: 1.0;"/><polygon fill="none" points="585.3714,87.8401,580.4973,67.2186,597.1673,80.2996,585.3714,87.8401" style="stroke: #A80036; stroke-width: 1.0;"/><!--MD5=[92a69af444f9c9ba0cd5c1828f0441ae]
reverse link com.ibm.fhir.model.resource.MedicationKnowledge to com.ibm.fhir.model.resource.MedicationKnowledge.AdministrationGuidelines--><path d="M743.9413,69.3458 C733.2342,85.9314 719.7037,106.8903 706.7624,126.9367 " fill="none" id="com.ibm.fhir.model.resource.MedicationKnowledge&lt;-com.ibm.fhir.model.resource.MedicationKnowledge.AdministrationGuidelines" style="stroke: #A80036; stroke-width: 1.0;"/><ellipse cx="747.8574" cy="63.2796" fill="#FFFFFF" rx="8" ry="8" style="stroke: #A80036; stroke-width: 1.0;"/><line style="stroke: #A80036; stroke-width: 1.0;" x1="743.5185" x2="752.1964" y1="70.0007" y2="56.5585"/><line style="stroke: #A80036; stroke-width: 1.0;" x1="741.1363" x2="754.5786" y1="58.9407" y2="67.6186"/><!--MD5=[e6eb8d23a4c7463992e95f9d994dd3cb]
reverse link com.ibm.fhir.model.resource.MedicationKnowledge.AdministrationGuidelines to com.ibm.fhir.model.resource.MedicationKnowledge.AdministrationGuidelines.Builder--><path d="M467.0833,259.5532 C395.8604,282.8985 320.613,307.563 270.5594,323.9694 " fill="none" id="com.ibm.fhir.model.resource.MedicationKnowledge.AdministrationGuidelines&lt;-com.ibm.fhir.model.resource.MedicationKnowledge.AdministrationGuidelines.Builder" style="stroke: #A80036; stroke-width: 1.0;"/><ellipse cx="474.1348" cy="257.2419" fill="#FFFFFF" rx="8" ry="8" style="stroke: #A80036; stroke-width: 1.0;"/><line style="stroke: #A80036; stroke-width: 1.0;" x1="466.5327" x2="481.7368" y1="259.7337" y2="254.7501"/><line style="stroke: #A80036; stroke-width: 1.0;" x1="471.6429" x2="476.6266" y1="249.6399" y2="264.844"/><!--MD5=[5153a16f8f4d41ed470751d3f6fc8fae]
reverse link com.ibm.fhir.model.resource.MedicationKnowledge.AdministrationGuidelines to com.ibm.fhir.model.resource.MedicationKnowledge.AdministrationGuidelines.Dosage--><path d="M662.5,279.259 C662.5,296.0616 662.5,312.158 662.5,323.9719 " fill="none" id="com.ibm.fhir.model.resource.MedicationKnowledge.AdministrationGuidelines&lt;-com.ibm.fhir.model.resource.MedicationKnowledge.AdministrationGuidelines.Dosage" style="stroke: #A80036; stroke-width: 1.0;"/><ellipse cx="662.5001" cy="272.0683" fill="#FFFFFF" rx="8" ry="8" style="stroke: #A80036; stroke-width: 1.0;"/><line style="stroke: #A80036; stroke-width: 1.0;" x1="662.5002" x2="662.5" y1="280.0683" y2="264.0683"/><line style="stroke: #A80036; stroke-width: 1.0;" x1="654.5001" x2="670.5001" y1="272.0684" y2="272.0682"/><!--MD5=[cf84adfc8942e13a3e567752b7c25825]
reverse link com.ibm.fhir.model.resource.MedicationKnowledge.AdministrationGuidelines to com.ibm.fhir.model.resource.MedicationKnowledge.AdministrationGuidelines.PatientCharacteristics--><path d="M857.4472,253.0094 C942.781,278.1829 1037.1194,306.0127 1097.9659,323.9624 " fill="none" id="com.ibm.fhir.model.resource.MedicationKnowledge.AdministrationGuidelines&lt;-com.ibm.fhir.model.resource.MedicationKnowledge.AdministrationGuidelines.PatientCharacteristics" style="stroke: #A80036; stroke-width: 1.0;"/><ellipse cx="850.6846" cy="251.0145" fill="#FFFFFF" rx="8" ry="8" style="stroke: #A80036; stroke-width: 1.0;"/><line style="stroke: #A80036; stroke-width: 1.0;" x1="858.3576" x2="843.0115" y1="253.2781" y2="248.7509"/><line style="stroke: #A80036; stroke-width: 1.0;" x1="848.421" x2="852.9482" y1="258.6876" y2="243.3414"/><text fill="#888888" font-family="sans-serif" font-size="10" lengthAdjust="spacingAndGlyphs" textLength="182" x="627.5" y="381.668">UMLDoclet 2.0.7, PlantUML 1.2019.12</text><!--MD5=[568b8a879da2bc7c15c8a6d78aebe4c8]
@startuml
    set namespaceSeparator none
    hide empty fields
    hide empty methods

    class "<size:14>MedicationKnowledge.AdministrationGuidelines\n<size:10>com.ibm.fhir.model.resource" as com.ibm.fhir.model.resource.MedicationKnowledge.AdministrationGuidelines [[MedicationKnowledge.AdministrationGuidelines.html]] {
        +getDosage(): List<Dosage>
        +getIndication(): Element
        +getPatientCharacteristics(): List<PatientCharacteristics>
        +hasChildren(): boolean
        +accept(String, int, Visitor): void
        +toBuilder(): Builder
        {static} +builder(): Builder
    }

    abstract class "<size:14>BackboneElement\n<size:10>com.ibm.fhir.model.type" as com.ibm.fhir.model.type.BackboneElement [[../type/BackboneElement.html]] {
        {abstract} +toBuilder(): Builder
    }
    class "<size:14>MedicationKnowledge\n<size:10>com.ibm.fhir.model.resource" as com.ibm.fhir.model.resource.MedicationKnowledge [[MedicationKnowledge.html]]
    class "<size:14>MedicationKnowledge.AdministrationGuidelines.Builder\n<size:10>com.ibm.fhir.model.resource" as com.ibm.fhir.model.resource.MedicationKnowledge.AdministrationGuidelines.Builder [[MedicationKnowledge.AdministrationGuidelines.Builder.html]]
    class "<size:14>MedicationKnowledge.AdministrationGuidelines.Dosage\n<size:10>com.ibm.fhir.model.resource" as com.ibm.fhir.model.resource.MedicationKnowledge.AdministrationGuidelines.Dosage [[MedicationKnowledge.AdministrationGuidelines.Dosage.html]]
    class "<size:14>MedicationKnowledge.AdministrationGuidelines.PatientCharacteristics\n<size:10>com.ibm.fhir.model.resource" as com.ibm.fhir.model.resource.MedicationKnowledge.AdministrationGuidelines.PatientCharacteristics [[MedicationKnowledge.AdministrationGuidelines.PatientCharacteristics.html]]

    com.ibm.fhir.model.type.BackboneElement <|- - com.ibm.fhir.model.resource.MedicationKnowledge.AdministrationGuidelines
    com.ibm.fhir.model.resource.MedicationKnowledge +- - com.ibm.fhir.model.resource.MedicationKnowledge.AdministrationGuidelines
    com.ibm.fhir.model.resource.MedicationKnowledge.AdministrationGuidelines +- - com.ibm.fhir.model.resource.MedicationKnowledge.AdministrationGuidelines.Builder
    com.ibm.fhir.model.resource.MedicationKnowledge.AdministrationGuidelines +- - com.ibm.fhir.model.resource.MedicationKnowledge.AdministrationGuidelines.Dosage
    com.ibm.fhir.model.resource.MedicationKnowledge.AdministrationGuidelines +- - com.ibm.fhir.model.resource.MedicationKnowledge.AdministrationGuidelines.PatientCharacteristics

    center footer UMLDoclet 2.0.7, PlantUML 1.2019.12
@enduml

PlantUML version 1.2019.12(Sun Nov 03 05:24:54 EST 2019)
(APACHE source distribution)
Java Runtime: OpenJDK Runtime Environment
JVM: OpenJDK 64-Bit Server VM
Java Version: 11.0.4+11
Operating System: Mac OS X
Default Encoding: UTF-8
Language: en
Country: US
--></g></svg>