<?xml version="1.0" encoding="UTF-8" standalone="no"?><svg xmlns="http://www.w3.org/2000/svg" xmlns:xlink="http://www.w3.org/1999/xlink" contentScriptType="application/ecmascript" contentStyleType="text/css" height="486px" preserveAspectRatio="none" style="width:391px;height:486px;" version="1.1" viewBox="0 0 391 486" width="391px" zoomAndPan="magnify"><defs><filter height="300%" id="fxr1u8ah316ns" width="300%" x="-1" y="-1"><feGaussianBlur result="blurOut" stdDeviation="2.0"/><feColorMatrix in="blurOut" result="blurOut2" type="matrix" values="0 0 0 0 0 0 0 0 0 0 0 0 0 0 0 0 0 0 .4 0"/><feOffset dx="4.0" dy="4.0" in="blurOut2" result="blurOut3"/><feBlend in="SourceGraphic" in2="blurOut3" mode="normal"/></filter></defs><g><!--MD5=[4708f4686ebbcb28e9b59b8e1b0bf22b]
class com.ibm.fhir.model.resource.PaymentReconciliation.Detail--><a href="PaymentReconciliation.Detail.html" target="_top" title="PaymentReconciliation.Detail.html" xlink:actuate="onRequest" xlink:href="PaymentReconciliation.Detail.html" xlink:show="new" xlink:title="PaymentReconciliation.Detail.html" xlink:type="simple"><rect fill="#FEFECE" filter="url(#fxr1u8ah316ns)" height="227.6367" id="com.ibm.fhir.model.resource.PaymentReconciliation.Detail" style="stroke: #A80036; stroke-width: 1.5;" width="229" x="70" y="127"/><ellipse cx="85" cy="146.1328" fill="#ADD1B2" rx="11" ry="11" style="stroke: #A80036; stroke-width: 1.0;"/><path d="M87.4731,152.2759 Q86.8921,152.5747 86.2529,152.7241 Q85.6138,152.8735 84.9082,152.8735 Q82.4014,152.8735 81.0815,151.2217 Q79.7617,149.5698 79.7617,146.4487 Q79.7617,143.3193 81.0815,141.6675 Q82.4014,140.0156 84.9082,140.0156 Q85.6138,140.0156 86.2612,140.165 Q86.9087,140.3145 87.4731,140.6133 L87.4731,143.3359 Q86.8423,142.7549 86.2488,142.4851 Q85.6553,142.2153 85.0244,142.2153 Q83.6797,142.2153 82.9949,143.282 Q82.3101,144.3486 82.3101,146.4487 Q82.3101,148.5405 82.9949,149.6072 Q83.6797,150.6738 85.0244,150.6738 Q85.6553,150.6738 86.2488,150.4041 Q86.8423,150.1343 87.4731,149.5532 Z "/><text fill="#000000" font-family="sans-serif" font-size="14" lengthAdjust="spacingAndGlyphs" textLength="197" x="99" y="145.5352">PaymentReconciliation.Detail</text><text fill="#000000" font-family="sans-serif" font-size="10" lengthAdjust="spacingAndGlyphs" textLength="139" x="128" y="158.1563">com.ibm.fhir.model.resource</text><line style="stroke: #A80036; stroke-width: 1.5;" x1="71" x2="298" y1="165.2656" y2="165.2656"/><ellipse cx="81" cy="176.2656" fill="#84BE84" rx="3" ry="3" style="stroke: #038048; stroke-width: 1.0;"/><text fill="#000000" font-family="sans-serif" font-size="11" lengthAdjust="spacingAndGlyphs" textLength="127" x="90" y="179.9004">getIdentifier(): Identifier</text><ellipse cx="81" cy="189.2207" fill="#84BE84" rx="3" ry="3" style="stroke: #038048; stroke-width: 1.0;"/><text fill="#000000" font-family="sans-serif" font-size="11" lengthAdjust="spacingAndGlyphs" textLength="145" x="90" y="192.8555">getPredecessor(): Identifier</text><ellipse cx="81" cy="202.1758" fill="#84BE84" rx="3" ry="3" style="stroke: #038048; stroke-width: 1.0;"/><text fill="#000000" font-family="sans-serif" font-size="11" lengthAdjust="spacingAndGlyphs" textLength="152" x="90" y="205.8105">getType(): CodeableConcept</text><ellipse cx="81" cy="215.1309" fill="#84BE84" rx="3" ry="3" style="stroke: #038048; stroke-width: 1.0;"/><text fill="#000000" font-family="sans-serif" font-size="11" lengthAdjust="spacingAndGlyphs" textLength="127" x="90" y="218.7656">getRequest(): Reference</text><ellipse cx="81" cy="228.0859" fill="#84BE84" rx="3" ry="3" style="stroke: #038048; stroke-width: 1.0;"/><text fill="#000000" font-family="sans-serif" font-size="11" lengthAdjust="spacingAndGlyphs" textLength="136" x="90" y="231.7207">getSubmitter(): Reference</text><ellipse cx="81" cy="241.041" fill="#84BE84" rx="3" ry="3" style="stroke: #038048; stroke-width: 1.0;"/><text fill="#000000" font-family="sans-serif" font-size="11" lengthAdjust="spacingAndGlyphs" textLength="136" x="90" y="244.6758">getResponse(): Reference</text><ellipse cx="81" cy="253.9961" fill="#84BE84" rx="3" ry="3" style="stroke: #038048; stroke-width: 1.0;"/><text fill="#000000" font-family="sans-serif" font-size="11" lengthAdjust="spacingAndGlyphs" textLength="79" x="90" y="257.6309">getDate(): Date</text><ellipse cx="81" cy="266.9512" fill="#84BE84" rx="3" ry="3" style="stroke: #038048; stroke-width: 1.0;"/><text fill="#000000" font-family="sans-serif" font-size="11" lengthAdjust="spacingAndGlyphs" textLength="149" x="90" y="270.5859">getResponsible(): Reference</text><ellipse cx="81" cy="279.9063" fill="#84BE84" rx="3" ry="3" style="stroke: #038048; stroke-width: 1.0;"/><text fill="#000000" font-family="sans-serif" font-size="11" lengthAdjust="spacingAndGlyphs" textLength="114" x="90" y="283.541">getPayee(): Reference</text><ellipse cx="81" cy="292.8613" fill="#84BE84" rx="3" ry="3" style="stroke: #038048; stroke-width: 1.0;"/><text fill="#000000" font-family="sans-serif" font-size="11" lengthAdjust="spacingAndGlyphs" textLength="109" x="90" y="296.4961">getAmount(): Money</text><ellipse cx="81" cy="305.8164" fill="#84BE84" rx="3" ry="3" style="stroke: #038048; stroke-width: 1.0;"/><text fill="#000000" font-family="sans-serif" font-size="11" lengthAdjust="spacingAndGlyphs" textLength="122" x="90" y="309.4512">hasChildren(): boolean</text><ellipse cx="81" cy="318.7715" fill="#84BE84" rx="3" ry="3" style="stroke: #038048; stroke-width: 1.0;"/><text fill="#000000" font-family="sans-serif" font-size="11" lengthAdjust="spacingAndGlyphs" textLength="165" x="90" y="322.4063">accept(String, int, Visitor): void</text><ellipse cx="81" cy="331.7266" fill="#84BE84" rx="3" ry="3" style="stroke: #038048; stroke-width: 1.0;"/><text fill="#000000" font-family="sans-serif" font-size="11" lengthAdjust="spacingAndGlyphs" textLength="99" x="90" y="335.3613">toBuilder(): Builder</text><ellipse cx="81" cy="344.6816" fill="#84BE84" rx="3" ry="3" style="stroke: #038048; stroke-width: 1.0;"/><text fill="#000000" font-family="sans-serif" font-size="11" lengthAdjust="spacingAndGlyphs" text-decoration="underline" textLength="89" x="90" y="348.3164">builder(): Builder</text></a><!--MD5=[efbff6997283c56b83e991a8eeb6a60a]
class com.ibm.fhir.model.type.BackboneElement--><a href="../type/BackboneElement.html" target="_top" title="../type/BackboneElement.html" xlink:actuate="onRequest" xlink:href="../type/BackboneElement.html" xlink:show="new" xlink:title="../type/BackboneElement.html" xlink:type="simple"><rect fill="#FEFECE" filter="url(#fxr1u8ah316ns)" height="59.2207" id="com.ibm.fhir.model.type.BackboneElement" style="stroke: #A80036; stroke-width: 1.5;" width="153" x="6" y="8"/><ellipse cx="21" cy="27.1328" fill="#A9DCDF" rx="11" ry="11" style="stroke: #A80036; stroke-width: 1.0;"/><path d="M21.1133,22.731 L19.9595,27.8027 L22.2754,27.8027 Z M19.6191,20.4897 L22.6157,20.4897 L25.9609,32.8828 L23.5122,32.8828 L22.7485,29.8198 L19.4697,29.8198 L18.7227,32.8828 L16.2739,32.8828 Z "/><text fill="#000000" font-family="sans-serif" font-size="14" font-style="italic" lengthAdjust="spacingAndGlyphs" textLength="121" x="35" y="26.5352">BackboneElement</text><text fill="#000000" font-family="sans-serif" font-size="10" font-style="italic" lengthAdjust="spacingAndGlyphs" textLength="118" x="36.5" y="39.1563">com.ibm.fhir.model.type</text><line style="stroke: #A80036; stroke-width: 1.5;" x1="7" x2="158" y1="46.2656" y2="46.2656"/><ellipse cx="17" cy="57.2656" fill="#84BE84" rx="3" ry="3" style="stroke: #038048; stroke-width: 1.0;"/><text fill="#000000" font-family="sans-serif" font-size="11" font-style="italic" lengthAdjust="spacingAndGlyphs" textLength="99" x="26" y="60.9004">toBuilder(): Builder</text></a><!--MD5=[e97ad67a9407f4a9b0f5024be1063ab7]
class com.ibm.fhir.model.resource.PaymentReconciliation--><a href="PaymentReconciliation.html" target="_top" title="PaymentReconciliation.html" xlink:actuate="onRequest" xlink:href="PaymentReconciliation.html" xlink:show="new" xlink:title="PaymentReconciliation.html" xlink:type="simple"><rect fill="#FEFECE" filter="url(#fxr1u8ah316ns)" height="38.2656" id="com.ibm.fhir.model.resource.PaymentReconciliation" style="stroke: #A80036; stroke-width: 1.5;" width="186" x="194.5" y="18.5"/><ellipse cx="209.5" cy="37.6328" fill="#ADD1B2" rx="11" ry="11" style="stroke: #A80036; stroke-width: 1.0;"/><path d="M211.9731,43.7759 Q211.3921,44.0747 210.7529,44.2241 Q210.1138,44.3735 209.4082,44.3735 Q206.9014,44.3735 205.5815,42.7217 Q204.2617,41.0698 204.2617,37.9487 Q204.2617,34.8193 205.5815,33.1675 Q206.9014,31.5156 209.4082,31.5156 Q210.1138,31.5156 210.7612,31.665 Q211.4087,31.8145 211.9731,32.1133 L211.9731,34.8359 Q211.3423,34.2549 210.7488,33.9851 Q210.1553,33.7153 209.5244,33.7153 Q208.1797,33.7153 207.4949,34.782 Q206.8101,35.8486 206.8101,37.9487 Q206.8101,40.0405 207.4949,41.1072 Q208.1797,42.1738 209.5244,42.1738 Q210.1553,42.1738 210.7488,41.9041 Q211.3423,41.6343 211.9731,41.0532 Z "/><text fill="#000000" font-family="sans-serif" font-size="14" lengthAdjust="spacingAndGlyphs" textLength="154" x="223.5" y="37.0352">PaymentReconciliation</text><text fill="#000000" font-family="sans-serif" font-size="10" lengthAdjust="spacingAndGlyphs" textLength="139" x="231" y="49.6563">com.ibm.fhir.model.resource</text></a><!--MD5=[13b2f937c1bb7ddf74ef4d0b09e8ac48]
class com.ibm.fhir.model.resource.PaymentReconciliation.Detail.Builder--><a href="PaymentReconciliation.Detail.Builder.html" target="_top" title="PaymentReconciliation.Detail.Builder.html" xlink:actuate="onRequest" xlink:href="PaymentReconciliation.Detail.Builder.html" xlink:show="new" xlink:title="PaymentReconciliation.Detail.Builder.html" xlink:type="simple"><rect fill="#FEFECE" filter="url(#fxr1u8ah316ns)" height="38.2656" id="com.ibm.fhir.model.resource.PaymentReconciliation.Detail.Builder" style="stroke: #A80036; stroke-width: 1.5;" width="281" x="44" y="415"/><ellipse cx="59" cy="434.1328" fill="#ADD1B2" rx="11" ry="11" style="stroke: #A80036; stroke-width: 1.0;"/><path d="M61.4731,440.2759 Q60.8921,440.5747 60.2529,440.7241 Q59.6138,440.8735 58.9082,440.8735 Q56.4014,440.8735 55.0815,439.2217 Q53.7617,437.5698 53.7617,434.4487 Q53.7617,431.3193 55.0815,429.6675 Q56.4014,428.0156 58.9082,428.0156 Q59.6138,428.0156 60.2612,428.165 Q60.9087,428.3145 61.4731,428.6133 L61.4731,431.3359 Q60.8423,430.7549 60.2488,430.4851 Q59.6553,430.2153 59.0244,430.2153 Q57.6797,430.2153 56.9949,431.282 Q56.3101,432.3486 56.3101,434.4487 Q56.3101,436.5405 56.9949,437.6072 Q57.6797,438.6738 59.0244,438.6738 Q59.6553,438.6738 60.2488,438.4041 Q60.8423,438.1343 61.4731,437.5532 Z "/><text fill="#000000" font-family="sans-serif" font-size="14" lengthAdjust="spacingAndGlyphs" textLength="249" x="73" y="433.5352">PaymentReconciliation.Detail.Builder</text><text fill="#000000" font-family="sans-serif" font-size="10" lengthAdjust="spacingAndGlyphs" textLength="139" x="128" y="446.1563">com.ibm.fhir.model.resource</text></a><!--MD5=[12c11a9a7d126cac0ccd0487c178d4c8]
reverse link com.ibm.fhir.model.type.BackboneElement to com.ibm.fhir.model.resource.PaymentReconciliation.Detail--><path d="M106.5155,85.4133 C112.8191,97.9897 119.8952,112.1072 127.1454,126.5719 " fill="none" id="com.ibm.fhir.model.type.BackboneElement&lt;-com.ibm.fhir.model.resource.PaymentReconciliation.Detail" style="stroke: #A80036; stroke-width: 1.0;"/><polygon fill="none" points="100.0357,88.1071,97.3317,67.0906,112.5515,81.8337,100.0357,88.1071" style="stroke: #A80036; stroke-width: 1.0;"/><!--MD5=[7593e3ab4bca968a0bcdb474c40cd401]
reverse link com.ibm.fhir.model.resource.PaymentReconciliation to com.ibm.fhir.model.resource.PaymentReconciliation.Detail--><path d="M270.8662,70.3639 C262.8923,86.1181 252.816,106.0262 242.3847,126.6355 " fill="none" id="com.ibm.fhir.model.resource.PaymentReconciliation&lt;-com.ibm.fhir.model.resource.PaymentReconciliation.Detail" style="stroke: #A80036; stroke-width: 1.0;"/><ellipse cx="274.1973" cy="63.7826" fill="#FFFFFF" rx="8" ry="8" style="stroke: #A80036; stroke-width: 1.0;"/><line style="stroke: #A80036; stroke-width: 1.0;" x1="270.5845" x2="277.81" y1="70.9204" y2="56.6448"/><line style="stroke: #A80036; stroke-width: 1.0;" x1="267.0595" x2="281.335" y1="60.1698" y2="67.3953"/><!--MD5=[68060a09996760513850aa042f48b2f8]
reverse link com.ibm.fhir.model.resource.PaymentReconciliation.Detail to com.ibm.fhir.model.resource.PaymentReconciliation.Detail.Builder--><path d="M184.5,370.3911 C184.5,387.6592 184.5,403.3312 184.5,414.7985 " fill="none" id="com.ibm.fhir.model.resource.PaymentReconciliation.Detail&lt;-com.ibm.fhir.model.resource.PaymentReconciliation.Detail.Builder" style="stroke: #A80036; stroke-width: 1.0;"/><ellipse cx="184.5001" cy="363.2211" fill="#FFFFFF" rx="8" ry="8" style="stroke: #A80036; stroke-width: 1.0;"/><line style="stroke: #A80036; stroke-width: 1.0;" x1="184.5002" x2="184.5" y1="371.2211" y2="355.2211"/><line style="stroke: #A80036; stroke-width: 1.0;" x1="176.5001" x2="192.5001" y1="363.2212" y2="363.221"/><text fill="#888888" font-family="sans-serif" font-size="10" lengthAdjust="spacingAndGlyphs" textLength="182" x="108.5" y="472.668">UMLDoclet 2.0.7, PlantUML 1.2019.12</text><!--MD5=[0962bdaaa214dfdc24eefec19ed42db7]
@startuml
    set namespaceSeparator none
    hide empty fields
    hide empty methods

    class "<size:14>PaymentReconciliation.Detail\n<size:10>com.ibm.fhir.model.resource" as com.ibm.fhir.model.resource.PaymentReconciliation.Detail [[PaymentReconciliation.Detail.html]] {
        +getIdentifier(): Identifier
        +getPredecessor(): Identifier
        +getType(): CodeableConcept
        +getRequest(): Reference
        +getSubmitter(): Reference
        +getResponse(): Reference
        +getDate(): Date
        +getResponsible(): Reference
        +getPayee(): Reference
        +getAmount(): Money
        +hasChildren(): boolean
        +accept(String, int, Visitor): void
        +toBuilder(): Builder
        {static} +builder(): Builder
    }

    abstract class "<size:14>BackboneElement\n<size:10>com.ibm.fhir.model.type" as com.ibm.fhir.model.type.BackboneElement [[../type/BackboneElement.html]] {
        {abstract} +toBuilder(): Builder
    }
    class "<size:14>PaymentReconciliation\n<size:10>com.ibm.fhir.model.resource" as com.ibm.fhir.model.resource.PaymentReconciliation [[PaymentReconciliation.html]]
    class "<size:14>PaymentReconciliation.Detail.Builder\n<size:10>com.ibm.fhir.model.resource" as com.ibm.fhir.model.resource.PaymentReconciliation.Detail.Builder [[PaymentReconciliation.Detail.Builder.html]]

    com.ibm.fhir.model.type.BackboneElement <|- - com.ibm.fhir.model.resource.PaymentReconciliation.Detail
    com.ibm.fhir.model.resource.PaymentReconciliation +- - com.ibm.fhir.model.resource.PaymentReconciliation.Detail
    com.ibm.fhir.model.resource.PaymentReconciliation.Detail +- - com.ibm.fhir.model.resource.PaymentReconciliation.Detail.Builder

    center footer UMLDoclet 2.0.7, PlantUML 1.2019.12
@enduml

PlantUML version 1.2019.12(Sun Nov 03 05:24:54 EST 2019)
(APACHE source distribution)
Java Runtime: OpenJDK Runtime Environment
JVM: OpenJDK 64-Bit Server VM
Java Version: 11.0.4+11
Operating System: Mac OS X
Default Encoding: UTF-8
Language: en
Country: US
--></g></svg>