<?xml version="1.0" encoding="UTF-8" standalone="no"?><svg xmlns="http://www.w3.org/2000/svg" xmlns:xlink="http://www.w3.org/1999/xlink" contentScriptType="application/ecmascript" contentStyleType="text/css" height="447px" preserveAspectRatio="none" style="width:376px;height:447px;" version="1.1" viewBox="0 0 376 447" width="376px" zoomAndPan="magnify"><defs><filter height="300%" id="f1jhwno0ca60b7" width="300%" x="-1" y="-1"><feGaussianBlur result="blurOut" stdDeviation="2.0"/><feColorMatrix in="blurOut" result="blurOut2" type="matrix" values="0 0 0 0 0 0 0 0 0 0 0 0 0 0 0 0 0 0 .4 0"/><feOffset dx="4.0" dy="4.0" in="blurOut2" result="blurOut3"/><feBlend in="SourceGraphic" in2="blurOut3" mode="normal"/></filter></defs><g><!--MD5=[206c0858ee1dbb27b1ffc01361106dde]
class com.ibm.fhir.model.resource.Specimen.Collection--><a href="Specimen.Collection.html" target="_top" title="Specimen.Collection.html" xlink:actuate="onRequest" xlink:href="Specimen.Collection.html" xlink:show="new" xlink:title="Specimen.Collection.html" xlink:type="simple"><rect fill="#FEFECE" filter="url(#f1jhwno0ca60b7)" height="188.7715" id="com.ibm.fhir.model.resource.Specimen.Collection" style="stroke: #A80036; stroke-width: 1.5;" width="197" x="82" y="127"/><ellipse cx="108.7" cy="146.1328" fill="#ADD1B2" rx="11" ry="11" style="stroke: #A80036; stroke-width: 1.0;"/><path d="M111.1731,152.2759 Q110.5921,152.5747 109.9529,152.7241 Q109.3138,152.8735 108.6082,152.8735 Q106.1014,152.8735 104.7815,151.2217 Q103.4617,149.5698 103.4617,146.4487 Q103.4617,143.3193 104.7815,141.6675 Q106.1014,140.0156 108.6082,140.0156 Q109.3138,140.0156 109.9612,140.165 Q110.6087,140.3145 111.1731,140.6133 L111.1731,143.3359 Q110.5423,142.7549 109.9488,142.4851 Q109.3553,142.2153 108.7244,142.2153 Q107.3797,142.2153 106.6949,143.282 Q106.0101,144.3486 106.0101,146.4487 Q106.0101,148.5405 106.6949,149.6072 Q107.3797,150.6738 108.7244,150.6738 Q109.3553,150.6738 109.9488,150.4041 Q110.5423,150.1343 111.1731,149.5532 Z "/><text fill="#000000" font-family="sans-serif" font-size="14" lengthAdjust="spacingAndGlyphs" textLength="139" x="125.3" y="145.5352">Specimen.Collection</text><text fill="#000000" font-family="sans-serif" font-size="10" lengthAdjust="spacingAndGlyphs" textLength="139" x="125.3" y="158.1563">com.ibm.fhir.model.resource</text><line style="stroke: #A80036; stroke-width: 1.5;" x1="83" x2="278" y1="165.2656" y2="165.2656"/><ellipse cx="93" cy="176.2656" fill="#84BE84" rx="3" ry="3" style="stroke: #038048; stroke-width: 1.0;"/><text fill="#000000" font-family="sans-serif" font-size="11" lengthAdjust="spacingAndGlyphs" textLength="133" x="102" y="179.9004">getCollector(): Reference</text><ellipse cx="93" cy="189.2207" fill="#84BE84" rx="3" ry="3" style="stroke: #038048; stroke-width: 1.0;"/><text fill="#000000" font-family="sans-serif" font-size="11" lengthAdjust="spacingAndGlyphs" textLength="123" x="102" y="192.8555">getCollected(): Element</text><ellipse cx="93" cy="202.1758" fill="#84BE84" rx="3" ry="3" style="stroke: #038048; stroke-width: 1.0;"/><text fill="#000000" font-family="sans-serif" font-size="11" lengthAdjust="spacingAndGlyphs" textLength="125" x="102" y="205.8105">getDuration(): Duration</text><ellipse cx="93" cy="215.1309" fill="#84BE84" rx="3" ry="3" style="stroke: #038048; stroke-width: 1.0;"/><text fill="#000000" font-family="sans-serif" font-size="11" lengthAdjust="spacingAndGlyphs" textLength="158" x="102" y="218.7656">getQuantity(): SimpleQuantity</text><ellipse cx="93" cy="228.0859" fill="#84BE84" rx="3" ry="3" style="stroke: #038048; stroke-width: 1.0;"/><text fill="#000000" font-family="sans-serif" font-size="11" lengthAdjust="spacingAndGlyphs" textLength="166" x="102" y="231.7207">getMethod(): CodeableConcept</text><ellipse cx="93" cy="241.041" fill="#84BE84" rx="3" ry="3" style="stroke: #038048; stroke-width: 1.0;"/><text fill="#000000" font-family="sans-serif" font-size="11" lengthAdjust="spacingAndGlyphs" textLength="171" x="102" y="244.6758">getBodySite(): CodeableConcept</text><ellipse cx="93" cy="253.9961" fill="#84BE84" rx="3" ry="3" style="stroke: #038048; stroke-width: 1.0;"/><text fill="#000000" font-family="sans-serif" font-size="11" lengthAdjust="spacingAndGlyphs" textLength="145" x="102" y="257.6309">getFastingStatus(): Element</text><ellipse cx="93" cy="266.9512" fill="#84BE84" rx="3" ry="3" style="stroke: #038048; stroke-width: 1.0;"/><text fill="#000000" font-family="sans-serif" font-size="11" lengthAdjust="spacingAndGlyphs" textLength="122" x="102" y="270.5859">hasChildren(): boolean</text><ellipse cx="93" cy="279.9063" fill="#84BE84" rx="3" ry="3" style="stroke: #038048; stroke-width: 1.0;"/><text fill="#000000" font-family="sans-serif" font-size="11" lengthAdjust="spacingAndGlyphs" textLength="165" x="102" y="283.541">accept(String, int, Visitor): void</text><ellipse cx="93" cy="292.8613" fill="#84BE84" rx="3" ry="3" style="stroke: #038048; stroke-width: 1.0;"/><text fill="#000000" font-family="sans-serif" font-size="11" lengthAdjust="spacingAndGlyphs" textLength="99" x="102" y="296.4961">toBuilder(): Builder</text><ellipse cx="93" cy="305.8164" fill="#84BE84" rx="3" ry="3" style="stroke: #038048; stroke-width: 1.0;"/><text fill="#000000" font-family="sans-serif" font-size="11" lengthAdjust="spacingAndGlyphs" text-decoration="underline" textLength="89" x="102" y="309.4512">builder(): Builder</text></a><!--MD5=[efbff6997283c56b83e991a8eeb6a60a]
class com.ibm.fhir.model.type.BackboneElement--><a href="../type/BackboneElement.html" target="_top" title="../type/BackboneElement.html" xlink:actuate="onRequest" xlink:href="../type/BackboneElement.html" xlink:show="new" xlink:title="../type/BackboneElement.html" xlink:type="simple"><rect fill="#FEFECE" filter="url(#f1jhwno0ca60b7)" height="59.2207" id="com.ibm.fhir.model.type.BackboneElement" style="stroke: #A80036; stroke-width: 1.5;" width="153" x="6" y="8"/><ellipse cx="21" cy="27.1328" fill="#A9DCDF" rx="11" ry="11" style="stroke: #A80036; stroke-width: 1.0;"/><path d="M21.1133,22.731 L19.9595,27.8027 L22.2754,27.8027 Z M19.6191,20.4897 L22.6157,20.4897 L25.9609,32.8828 L23.5122,32.8828 L22.7485,29.8198 L19.4697,29.8198 L18.7227,32.8828 L16.2739,32.8828 Z "/><text fill="#000000" font-family="sans-serif" font-size="14" font-style="italic" lengthAdjust="spacingAndGlyphs" textLength="121" x="35" y="26.5352">BackboneElement</text><text fill="#000000" font-family="sans-serif" font-size="10" font-style="italic" lengthAdjust="spacingAndGlyphs" textLength="118" x="36.5" y="39.1563">com.ibm.fhir.model.type</text><line style="stroke: #A80036; stroke-width: 1.5;" x1="7" x2="158" y1="46.2656" y2="46.2656"/><ellipse cx="17" cy="57.2656" fill="#84BE84" rx="3" ry="3" style="stroke: #038048; stroke-width: 1.0;"/><text fill="#000000" font-family="sans-serif" font-size="11" font-style="italic" lengthAdjust="spacingAndGlyphs" textLength="99" x="26" y="60.9004">toBuilder(): Builder</text></a><!--MD5=[d5ccf3470f09ec2b82b8bf2aadb9465f]
class com.ibm.fhir.model.resource.Specimen--><a href="Specimen.html" target="_top" title="Specimen.html" xlink:actuate="onRequest" xlink:href="Specimen.html" xlink:show="new" xlink:title="Specimen.html" xlink:type="simple"><rect fill="#FEFECE" filter="url(#f1jhwno0ca60b7)" height="38.2656" id="com.ibm.fhir.model.resource.Specimen" style="stroke: #A80036; stroke-width: 1.5;" width="171" x="194" y="18.5"/><ellipse cx="209" cy="37.6328" fill="#ADD1B2" rx="11" ry="11" style="stroke: #A80036; stroke-width: 1.0;"/><path d="M211.4731,43.7759 Q210.8921,44.0747 210.2529,44.2241 Q209.6138,44.3735 208.9082,44.3735 Q206.4014,44.3735 205.0815,42.7217 Q203.7617,41.0698 203.7617,37.9487 Q203.7617,34.8193 205.0815,33.1675 Q206.4014,31.5156 208.9082,31.5156 Q209.6138,31.5156 210.2612,31.665 Q210.9087,31.8145 211.4731,32.1133 L211.4731,34.8359 Q210.8423,34.2549 210.2488,33.9851 Q209.6553,33.7153 209.0244,33.7153 Q207.6797,33.7153 206.9949,34.782 Q206.3101,35.8486 206.3101,37.9487 Q206.3101,40.0405 206.9949,41.1072 Q207.6797,42.1738 209.0244,42.1738 Q209.6553,42.1738 210.2488,41.9041 Q210.8423,41.6343 211.4731,41.0532 Z "/><text fill="#000000" font-family="sans-serif" font-size="14" lengthAdjust="spacingAndGlyphs" textLength="66" x="259.5" y="37.0352">Specimen</text><text fill="#000000" font-family="sans-serif" font-size="10" lengthAdjust="spacingAndGlyphs" textLength="139" x="223" y="49.6563">com.ibm.fhir.model.resource</text></a><!--MD5=[f16803681e42fa319723ad349ec39df1]
class com.ibm.fhir.model.resource.Specimen.Collection.Builder--><a href="Specimen.Collection.Builder.html" target="_top" title="Specimen.Collection.Builder.html" xlink:actuate="onRequest" xlink:href="Specimen.Collection.Builder.html" xlink:show="new" xlink:title="Specimen.Collection.Builder.html" xlink:type="simple"><rect fill="#FEFECE" filter="url(#f1jhwno0ca60b7)" height="38.2656" id="com.ibm.fhir.model.resource.Specimen.Collection.Builder" style="stroke: #A80036; stroke-width: 1.5;" width="223" x="69" y="376"/><ellipse cx="84" cy="395.1328" fill="#ADD1B2" rx="11" ry="11" style="stroke: #A80036; stroke-width: 1.0;"/><path d="M86.4731,401.2759 Q85.8921,401.5747 85.2529,401.7241 Q84.6138,401.8735 83.9082,401.8735 Q81.4014,401.8735 80.0815,400.2217 Q78.7617,398.5698 78.7617,395.4487 Q78.7617,392.3193 80.0815,390.6675 Q81.4014,389.0156 83.9082,389.0156 Q84.6138,389.0156 85.2612,389.165 Q85.9087,389.3145 86.4731,389.6133 L86.4731,392.3359 Q85.8423,391.7549 85.2488,391.4851 Q84.6553,391.2153 84.0244,391.2153 Q82.6797,391.2153 81.9949,392.282 Q81.3101,393.3486 81.3101,395.4487 Q81.3101,397.5405 81.9949,398.6072 Q82.6797,399.6738 84.0244,399.6738 Q84.6553,399.6738 85.2488,399.4041 Q85.8423,399.1343 86.4731,398.5532 Z "/><text fill="#000000" font-family="sans-serif" font-size="14" lengthAdjust="spacingAndGlyphs" textLength="191" x="98" y="394.5352">Specimen.Collection.Builder</text><text fill="#000000" font-family="sans-serif" font-size="10" lengthAdjust="spacingAndGlyphs" textLength="139" x="124" y="407.1563">com.ibm.fhir.model.resource</text></a><!--MD5=[fe8247e69aeb2b394e762c0aefeb3f37]
reverse link com.ibm.fhir.model.type.BackboneElement to com.ibm.fhir.model.resource.Specimen.Collection--><path d="M107.6508,84.7218 C114.5385,97.654 122.2578,112.1473 130.0265,126.7335 " fill="none" id="com.ibm.fhir.model.type.BackboneElement&lt;-com.ibm.fhir.model.resource.Specimen.Collection" style="stroke: #A80036; stroke-width: 1.0;"/><polygon fill="none" points="101.4689,88.0058,98.2454,67.0628,113.8256,81.4245,101.4689,88.0058" style="stroke: #A80036; stroke-width: 1.0;"/><!--MD5=[1b9fde4a943f3ff206140d2f9bf4aac1]
reverse link com.ibm.fhir.model.resource.Specimen to com.ibm.fhir.model.resource.Specimen.Collection--><path d="M261.8837,70.2414 C253.2832,86.2262 242.4473,106.3656 231.5129,126.6882 " fill="none" id="com.ibm.fhir.model.resource.Specimen&lt;-com.ibm.fhir.model.resource.Specimen.Collection" style="stroke: #A80036; stroke-width: 1.0;"/><ellipse cx="265.3019" cy="63.8885" fill="#FFFFFF" rx="8" ry="8" style="stroke: #A80036; stroke-width: 1.0;"/><line style="stroke: #A80036; stroke-width: 1.0;" x1="261.5113" x2="269.0924" y1="70.9335" y2="56.8435"/><line style="stroke: #A80036; stroke-width: 1.0;" x1="258.2569" x2="272.3469" y1="60.098" y2="67.679"/><!--MD5=[b7891ca59c6cc646114b925607617840]
reverse link com.ibm.fhir.model.resource.Specimen.Collection to com.ibm.fhir.model.resource.Specimen.Collection.Builder--><path d="M180.5,331.3491 C180.5,348.3872 180.5,364.1432 180.5,375.7167 " fill="none" id="com.ibm.fhir.model.resource.Specimen.Collection&lt;-com.ibm.fhir.model.resource.Specimen.Collection.Builder" style="stroke: #A80036; stroke-width: 1.0;"/><ellipse cx="180.5001" cy="324.119" fill="#FFFFFF" rx="8" ry="8" style="stroke: #A80036; stroke-width: 1.0;"/><line style="stroke: #A80036; stroke-width: 1.0;" x1="180.5002" x2="180.5" y1="332.119" y2="316.119"/><line style="stroke: #A80036; stroke-width: 1.0;" x1="172.5001" x2="188.5001" y1="324.1191" y2="324.1189"/><text fill="#888888" font-family="sans-serif" font-size="10" lengthAdjust="spacingAndGlyphs" textLength="182" x="100.5" y="433.668">UMLDoclet 2.0.7, PlantUML 1.2019.12</text><!--MD5=[cd76c52e315240bfe0153d23e3cfabb9]
@startuml
    set namespaceSeparator none
    hide empty fields
    hide empty methods

    class "<size:14>Specimen.Collection\n<size:10>com.ibm.fhir.model.resource" as com.ibm.fhir.model.resource.Specimen.Collection [[Specimen.Collection.html]] {
        +getCollector(): Reference
        +getCollected(): Element
        +getDuration(): Duration
        +getQuantity(): SimpleQuantity
        +getMethod(): CodeableConcept
        +getBodySite(): CodeableConcept
        +getFastingStatus(): Element
        +hasChildren(): boolean
        +accept(String, int, Visitor): void
        +toBuilder(): Builder
        {static} +builder(): Builder
    }

    abstract class "<size:14>BackboneElement\n<size:10>com.ibm.fhir.model.type" as com.ibm.fhir.model.type.BackboneElement [[../type/BackboneElement.html]] {
        {abstract} +toBuilder(): Builder
    }
    class "<size:14>Specimen\n<size:10>com.ibm.fhir.model.resource" as com.ibm.fhir.model.resource.Specimen [[Specimen.html]]
    class "<size:14>Specimen.Collection.Builder\n<size:10>com.ibm.fhir.model.resource" as com.ibm.fhir.model.resource.Specimen.Collection.Builder [[Specimen.Collection.Builder.html]]

    com.ibm.fhir.model.type.BackboneElement <|- - com.ibm.fhir.model.resource.Specimen.Collection
    com.ibm.fhir.model.resource.Specimen +- - com.ibm.fhir.model.resource.Specimen.Collection
    com.ibm.fhir.model.resource.Specimen.Collection +- - com.ibm.fhir.model.resource.Specimen.Collection.Builder

    center footer UMLDoclet 2.0.7, PlantUML 1.2019.12
@enduml

PlantUML version 1.2019.12(Sun Nov 03 05:24:54 EST 2019)
(APACHE source distribution)
Java Runtime: OpenJDK Runtime Environment
JVM: OpenJDK 64-Bit Server VM
Java Version: 11.0.4+11
Operating System: Mac OS X
Default Encoding: UTF-8
Language: en
Country: US
--></g></svg>