<?xml version="1.0" encoding="UTF-8" standalone="no"?><svg xmlns="http://www.w3.org/2000/svg" xmlns:xlink="http://www.w3.org/1999/xlink" contentScriptType="application/ecmascript" contentStyleType="text/css" height="691px" preserveAspectRatio="none" style="width:301px;height:691px;" version="1.1" viewBox="0 0 301 691" width="301px" zoomAndPan="magnify"><defs><filter height="300%" id="f1534ia52eigwo" width="300%" x="-1" y="-1"><feGaussianBlur result="blurOut" stdDeviation="2.0"/><feColorMatrix in="blurOut" result="blurOut2" type="matrix" values="0 0 0 0 0 0 0 0 0 0 0 0 0 0 0 0 0 0 .4 0"/><feOffset dx="4.0" dy="4.0" in="blurOut2" result="blurOut3"/><feBlend in="SourceGraphic" in2="blurOut3" mode="normal"/></filter></defs><g><!--MD5=[99562b398cafaab0280f48bca5c179b5]
cluster com.ibm.fhir.core.context.impl--><polygon fill="#FFFFFF" filter="url(#f1534ia52eigwo)" points="22,301,269,301,276,323.2969,279,323.2969,279,643,22,643,22,301" style="stroke: #000000; stroke-width: 1.5;"/><line style="stroke: #000000; stroke-width: 1.5;" x1="22" x2="276" y1="323.2969" y2="323.2969"/><text fill="#000000" font-family="sans-serif" font-size="14" font-weight="bold" lengthAdjust="spacingAndGlyphs" textLength="241" x="26" y="315.9951">com.ibm.fhir.core.context.impl</text><!--MD5=[603cd63fb6752d682771e6b9a49ca87a]
cluster com.ibm.fhir.core.context--><polygon fill="#FFFFFF" filter="url(#f1534ia52eigwo)" points="37,24,247,24,254,46.2969,263,46.2969,263,277,37,277,37,24" style="stroke: #000000; stroke-width: 1.5;"/><line style="stroke: #000000; stroke-width: 1.5;" x1="37" x2="254" y1="46.2969" y2="46.2969"/><text fill="#000000" font-family="sans-serif" font-size="14" font-weight="bold" lengthAdjust="spacingAndGlyphs" textLength="204" x="41" y="38.9951">com.ibm.fhir.core.context</text><!--MD5=[45d833eb4bb8e2ced7b8877016b872fd]
class com.ibm.fhir.core.context.impl.FHIRPagingContextImpl--><a href="FHIRPagingContextImpl.html" target="_top" title="FHIRPagingContextImpl.html" xlink:actuate="onRequest" xlink:href="FHIRPagingContextImpl.html" xlink:show="new" xlink:title="FHIRPagingContextImpl.html" xlink:type="simple"><rect fill="#FEFECE" filter="url(#f1534ia52eigwo)" height="291.2891" id="com.ibm.fhir.core.context.impl.FHIRPagingContextImpl" style="stroke: #A80036; stroke-width: 1.5;" width="220" x="40" y="336"/><ellipse cx="75.25" cy="352" fill="#ADD1B2" rx="11" ry="11" style="stroke: #A80036; stroke-width: 1.0;"/><path d="M78.2188,357.6406 Q77.6406,357.9375 77,358.0781 Q76.3594,358.2344 75.6563,358.2344 Q73.1563,358.2344 71.8281,356.5938 Q70.5156,354.9375 70.5156,351.8125 Q70.5156,348.6875 71.8281,347.0313 Q73.1563,345.375 75.6563,345.375 Q76.3594,345.375 77,345.5313 Q77.6563,345.6875 78.2188,345.9844 L78.2188,348.7031 Q77.5938,348.125 77,347.8594 Q76.4063,347.5781 75.7813,347.5781 Q74.4375,347.5781 73.75,348.6563 Q73.0625,349.7188 73.0625,351.8125 Q73.0625,353.9063 73.75,354.9844 Q74.4375,356.0469 75.7813,356.0469 Q76.4063,356.0469 77,355.7813 Q77.5938,355.5 78.2188,354.9219 L78.2188,357.6406 Z "/><text fill="#000000" font-family="sans-serif" font-size="12" lengthAdjust="spacingAndGlyphs" textLength="143" x="93.75" y="356.1543">FHIRPagingContextImpl</text><line style="stroke: #A80036; stroke-width: 1.5;" x1="41" x2="259" y1="368" y2="368"/><polygon fill="none" points="51,374,55,378,51,382,47,378" style="stroke: #B38D22; stroke-width: 1.0;"/><text fill="#000000" font-family="sans-serif" font-size="11" lengthAdjust="spacingAndGlyphs" text-decoration="underline" textLength="194" x="60" y="382.2104">DEFAULT_LAST_PAGE_NUMBER: int</text><polygon fill="none" points="51,386.8047,55,390.8047,51,394.8047,47,390.8047" style="stroke: #B38D22; stroke-width: 1.0;"/><text fill="#000000" font-family="sans-serif" font-size="11" lengthAdjust="spacingAndGlyphs" textLength="116" x="60" y="395.0151">lastPageNumber: int</text><polygon fill="none" points="51,399.6094,55,403.6094,51,407.6094,47,403.6094" style="stroke: #B38D22; stroke-width: 1.0;"/><text fill="#000000" font-family="sans-serif" font-size="11" lengthAdjust="spacingAndGlyphs" textLength="95" x="60" y="407.8198">pageNumber: int</text><polygon fill="none" points="51,412.4141,55,416.4141,51,420.4141,47,416.4141" style="stroke: #B38D22; stroke-width: 1.0;"/><text fill="#000000" font-family="sans-serif" font-size="11" lengthAdjust="spacingAndGlyphs" textLength="73" x="60" y="420.6245">pageSize: int</text><polygon fill="none" points="51,425.2188,55,429.2188,51,433.2188,47,429.2188" style="stroke: #B38D22; stroke-width: 1.0;"/><text fill="#000000" font-family="sans-serif" font-size="11" lengthAdjust="spacingAndGlyphs" textLength="106" x="60" y="433.4292">totalCount: Integer</text><polygon fill="none" points="51,438.0234,55,442.0234,51,446.0234,47,442.0234" style="stroke: #B38D22; stroke-width: 1.0;"/><text fill="#000000" font-family="sans-serif" font-size="11" lengthAdjust="spacingAndGlyphs" textLength="90" x="60" y="446.2339">matchCount: int</text><polygon fill="none" points="51,450.8281,55,454.8281,51,458.8281,47,454.8281" style="stroke: #B38D22; stroke-width: 1.0;"/><text fill="#000000" font-family="sans-serif" font-size="11" lengthAdjust="spacingAndGlyphs" textLength="91" x="60" y="459.0386">lenient: boolean</text><line style="stroke: #A80036; stroke-width: 1.5;" x1="41" x2="259" y1="465.6328" y2="465.6328"/><ellipse cx="51" cy="476.6328" fill="#84BE84" rx="3" ry="3" style="stroke: #038048; stroke-width: 1.0;"/><text fill="#000000" font-family="sans-serif" font-size="11" lengthAdjust="spacingAndGlyphs" textLength="145" x="60" y="479.8433">getLastPageNumber(): int</text><ellipse cx="51" cy="489.4375" fill="#84BE84" rx="3" ry="3" style="stroke: #038048; stroke-width: 1.0;"/><text fill="#000000" font-family="sans-serif" font-size="11" lengthAdjust="spacingAndGlyphs" textLength="121" x="60" y="492.6479">getPageNumber(): int</text><ellipse cx="51" cy="502.2422" fill="#84BE84" rx="3" ry="3" style="stroke: #038048; stroke-width: 1.0;"/><text fill="#000000" font-family="sans-serif" font-size="11" lengthAdjust="spacingAndGlyphs" textLength="99" x="60" y="505.4526">getPageSize(): int</text><ellipse cx="51" cy="515.0469" fill="#84BE84" rx="3" ry="3" style="stroke: #038048; stroke-width: 1.0;"/><text fill="#000000" font-family="sans-serif" font-size="11" lengthAdjust="spacingAndGlyphs" textLength="135" x="60" y="518.2573">getTotalCount(): Integer</text><ellipse cx="51" cy="527.8516" fill="#84BE84" rx="3" ry="3" style="stroke: #038048; stroke-width: 1.0;"/><text fill="#000000" font-family="sans-serif" font-size="11" lengthAdjust="spacingAndGlyphs" textLength="114" x="60" y="531.062">getMatchCount(): int</text><ellipse cx="51" cy="540.6563" fill="#84BE84" rx="3" ry="3" style="stroke: #038048; stroke-width: 1.0;"/><text fill="#000000" font-family="sans-serif" font-size="11" lengthAdjust="spacingAndGlyphs" textLength="168" x="60" y="543.8667">setLastPageNumber(int): void</text><ellipse cx="51" cy="553.4609" fill="#84BE84" rx="3" ry="3" style="stroke: #038048; stroke-width: 1.0;"/><text fill="#000000" font-family="sans-serif" font-size="11" lengthAdjust="spacingAndGlyphs" textLength="144" x="60" y="556.6714">setPageNumber(int): void</text><ellipse cx="51" cy="566.2656" fill="#84BE84" rx="3" ry="3" style="stroke: #038048; stroke-width: 1.0;"/><text fill="#000000" font-family="sans-serif" font-size="11" lengthAdjust="spacingAndGlyphs" textLength="122" x="60" y="569.4761">setPageSize(int): void</text><ellipse cx="51" cy="579.0703" fill="#84BE84" rx="3" ry="3" style="stroke: #038048; stroke-width: 1.0;"/><text fill="#000000" font-family="sans-serif" font-size="11" lengthAdjust="spacingAndGlyphs" textLength="132" x="60" y="582.2808">setTotalCount(int): void</text><ellipse cx="51" cy="591.875" fill="#84BE84" rx="3" ry="3" style="stroke: #038048; stroke-width: 1.0;"/><text fill="#000000" font-family="sans-serif" font-size="11" lengthAdjust="spacingAndGlyphs" textLength="137" x="60" y="595.0854">setMatchCount(int): void</text><ellipse cx="51" cy="604.6797" fill="#84BE84" rx="3" ry="3" style="stroke: #038048; stroke-width: 1.0;"/><text fill="#000000" font-family="sans-serif" font-size="11" lengthAdjust="spacingAndGlyphs" textLength="112" x="60" y="607.8901">isLenient(): boolean</text><ellipse cx="51" cy="617.4844" fill="#84BE84" rx="3" ry="3" style="stroke: #038048; stroke-width: 1.0;"/><text fill="#000000" font-family="sans-serif" font-size="11" lengthAdjust="spacingAndGlyphs" textLength="143" x="60" y="620.6948">setLenient(boolean): void</text></a><!--MD5=[ca073168413cf65f0d15c3628d3ab788]
class com.ibm.fhir.core.context.FHIRPagingContext--><a href="../FHIRPagingContext.html" target="_top" title="../FHIRPagingContext.html" xlink:actuate="onRequest" xlink:href="../FHIRPagingContext.html" xlink:show="new" xlink:title="../FHIRPagingContext.html" xlink:type="simple"><rect fill="#FEFECE" filter="url(#f1534ia52eigwo)" height="201.6563" id="com.ibm.fhir.core.context.FHIRPagingContext" style="stroke: #A80036; stroke-width: 1.5;" width="193" x="53.5" y="59"/><ellipse cx="87.4" cy="75" fill="#B4A7E5" rx="11" ry="11" style="stroke: #A80036; stroke-width: 1.0;"/><path d="M83.3219,70.7656 L83.3219,68.6094 L90.7125,68.6094 L90.7125,70.7656 L88.2438,70.7656 L88.2438,78.8438 L90.7125,78.8438 L90.7125,81 L83.3219,81 L83.3219,78.8438 L85.7906,78.8438 L85.7906,70.7656 L83.3219,70.7656 Z "/><text fill="#000000" font-family="sans-serif" font-size="12" font-style="italic" lengthAdjust="spacingAndGlyphs" textLength="119" x="105.6" y="79.1543">FHIRPagingContext</text><line style="stroke: #A80036; stroke-width: 1.5;" x1="54.5" x2="245.5" y1="91" y2="91"/><line style="stroke: #A80036; stroke-width: 1.5;" x1="54.5" x2="245.5" y1="99" y2="99"/><ellipse cx="64.5" cy="110" fill="#84BE84" rx="3" ry="3" style="stroke: #038048; stroke-width: 1.0;"/><text fill="#000000" font-family="sans-serif" font-size="11" font-style="italic" lengthAdjust="spacingAndGlyphs" textLength="144" x="73.5" y="113.2104">getLastPageNumber(): int</text><ellipse cx="64.5" cy="122.8047" fill="#84BE84" rx="3" ry="3" style="stroke: #038048; stroke-width: 1.0;"/><text fill="#000000" font-family="sans-serif" font-size="11" font-style="italic" lengthAdjust="spacingAndGlyphs" textLength="121" x="73.5" y="126.0151">getPageNumber(): int</text><ellipse cx="64.5" cy="135.6094" fill="#84BE84" rx="3" ry="3" style="stroke: #038048; stroke-width: 1.0;"/><text fill="#000000" font-family="sans-serif" font-size="11" font-style="italic" lengthAdjust="spacingAndGlyphs" textLength="99" x="73.5" y="138.8198">getPageSize(): int</text><ellipse cx="64.5" cy="148.4141" fill="#84BE84" rx="3" ry="3" style="stroke: #038048; stroke-width: 1.0;"/><text fill="#000000" font-family="sans-serif" font-size="11" font-style="italic" lengthAdjust="spacingAndGlyphs" textLength="135" x="73.5" y="151.6245">getTotalCount(): Integer</text><ellipse cx="64.5" cy="161.2188" fill="#84BE84" rx="3" ry="3" style="stroke: #038048; stroke-width: 1.0;"/><text fill="#000000" font-family="sans-serif" font-size="11" font-style="italic" lengthAdjust="spacingAndGlyphs" textLength="114" x="73.5" y="164.4292">getMatchCount(): int</text><ellipse cx="64.5" cy="174.0234" fill="#84BE84" rx="3" ry="3" style="stroke: #038048; stroke-width: 1.0;"/><text fill="#000000" font-family="sans-serif" font-size="11" font-style="italic" lengthAdjust="spacingAndGlyphs" textLength="167" x="73.5" y="177.2339">setLastPageNumber(int): void</text><ellipse cx="64.5" cy="186.8281" fill="#84BE84" rx="3" ry="3" style="stroke: #038048; stroke-width: 1.0;"/><text fill="#000000" font-family="sans-serif" font-size="11" font-style="italic" lengthAdjust="spacingAndGlyphs" textLength="144" x="73.5" y="190.0386">setPageNumber(int): void</text><ellipse cx="64.5" cy="199.6328" fill="#84BE84" rx="3" ry="3" style="stroke: #038048; stroke-width: 1.0;"/><text fill="#000000" font-family="sans-serif" font-size="11" font-style="italic" lengthAdjust="spacingAndGlyphs" textLength="122" x="73.5" y="202.8433">setPageSize(int): void</text><ellipse cx="64.5" cy="212.4375" fill="#84BE84" rx="3" ry="3" style="stroke: #038048; stroke-width: 1.0;"/><text fill="#000000" font-family="sans-serif" font-size="11" font-style="italic" lengthAdjust="spacingAndGlyphs" textLength="132" x="73.5" y="215.6479">setTotalCount(int): void</text><ellipse cx="64.5" cy="225.2422" fill="#84BE84" rx="3" ry="3" style="stroke: #038048; stroke-width: 1.0;"/><text fill="#000000" font-family="sans-serif" font-size="11" font-style="italic" lengthAdjust="spacingAndGlyphs" textLength="137" x="73.5" y="228.4526">setMatchCount(int): void</text><ellipse cx="64.5" cy="238.0469" fill="#84BE84" rx="3" ry="3" style="stroke: #038048; stroke-width: 1.0;"/><text fill="#000000" font-family="sans-serif" font-size="11" font-style="italic" lengthAdjust="spacingAndGlyphs" textLength="111" x="73.5" y="241.2573">isLenient(): boolean</text><ellipse cx="64.5" cy="250.8516" fill="#84BE84" rx="3" ry="3" style="stroke: #038048; stroke-width: 1.0;"/><text fill="#000000" font-family="sans-serif" font-size="11" font-style="italic" lengthAdjust="spacingAndGlyphs" textLength="143" x="73.5" y="254.062">setLenient(boolean): void</text></a><!--MD5=[ee641fcc2ba280ea4b1ada8b853acafc]
reverse link com.ibm.fhir.core.context.FHIRPagingContext to com.ibm.fhir.core.context.impl.FHIRPagingContextImpl--><path d="M150,281.35 C150,299.15 150,317.65 150,335.88 " fill="none" id="com.ibm.fhir.core.context.FHIRPagingContext&lt;-com.ibm.fhir.core.context.impl.FHIRPagingContextImpl" style="stroke: #A80036; stroke-width: 1.0; stroke-dasharray: 7.0,7.0;"/><polygon fill="none" points="143,281.22,150,261.22,157,281.22,143,281.22" style="stroke: #A80036; stroke-width: 1.0;"/><text fill="#888888" font-family="sans-serif" font-size="10" lengthAdjust="spacingAndGlyphs" textLength="186" x="63.5" y="678.2822">UMLDoclet 2.0.7, PlantUML 1.2019.12</text><!--MD5=[b34051246500904b268611fcb6f8e25a]
@startuml
    namespace com.ibm.fhir.core.context.impl {

        class FHIRPagingContextImpl [[FHIRPagingContextImpl.html]] {
            {static} #DEFAULT_LAST_PAGE_NUMBER: int
            #lastPageNumber: int
            #pageNumber: int
            #pageSize: int
            #totalCount: Integer
            #matchCount: int
            #lenient: boolean
            +getLastPageNumber(): int
            +getPageNumber(): int
            +getPageSize(): int
            +getTotalCount(): Integer
            +getMatchCount(): int
            +setLastPageNumber(int): void
            +setPageNumber(int): void
            +setPageSize(int): void
            +setTotalCount(int): void
            +setMatchCount(int): void
            +isLenient(): boolean
            +setLenient(boolean): void
        }

        com.ibm.fhir.core.context.FHIRPagingContext <|.. FHIRPagingContextImpl
    }

    namespace com.ibm.fhir.core.context {
        interface FHIRPagingContext [[../FHIRPagingContext.html]] {
            {abstract} +getLastPageNumber(): int
            {abstract} +getPageNumber(): int
            {abstract} +getPageSize(): int
            {abstract} +getTotalCount(): Integer
            {abstract} +getMatchCount(): int
            {abstract} +setLastPageNumber(int): void
            {abstract} +setPageNumber(int): void
            {abstract} +setPageSize(int): void
            {abstract} +setTotalCount(int): void
            {abstract} +setMatchCount(int): void
            {abstract} +isLenient(): boolean
            {abstract} +setLenient(boolean): void
        }
    }

    center footer UMLDoclet 2.0.7, PlantUML 1.2019.12
@enduml

PlantUML version 1.2019.12(Sun Nov 03 10:24:54 UTC 2019)
(APACHE source distribution)
Java Runtime: OpenJDK Runtime Environment
JVM: OpenJDK 64-Bit Server VM
Java Version: 11.0.10+9
Operating System: Linux
Default Encoding: UTF-8
Language: en
Country: null
--></g></svg>