<?xml version="1.0" encoding="UTF-8" standalone="no"?><svg xmlns="http://www.w3.org/2000/svg" xmlns:xlink="http://www.w3.org/1999/xlink" contentScriptType="application/ecmascript" contentStyleType="text/css" height="384px" preserveAspectRatio="none" style="width:434px;height:384px;" version="1.1" viewBox="0 0 434 384" width="434px" zoomAndPan="magnify"><defs><filter height="300%" id="fqaindd6709e8" width="300%" x="-1" y="-1"><feGaussianBlur result="blurOut" stdDeviation="2.0"/><feColorMatrix in="blurOut" result="blurOut2" type="matrix" values="0 0 0 0 0 0 0 0 0 0 0 0 0 0 0 0 0 0 .4 0"/><feOffset dx="4.0" dy="4.0" in="blurOut2" result="blurOut3"/><feBlend in="SourceGraphic" in2="blurOut3" mode="normal"/></filter></defs><g><!--MD5=[19743be841572df36854e3ec9bd040f9]
class com.ibm.fhir.model.resource.GraphDefinition.Link.Builder--><a href="GraphDefinition.Link.Builder.html" target="_top" title="GraphDefinition.Link.Builder.html" xlink:actuate="onRequest" xlink:href="GraphDefinition.Link.Builder.html" xlink:show="new" xlink:title="GraphDefinition.Link.Builder.html" xlink:type="simple"><rect fill="#FEFECE" filter="url(#fqaindd6709e8)" height="225.2031" id="com.ibm.fhir.model.resource.GraphDefinition.Link.Builder" style="stroke: #A80036; stroke-width: 1.5;" width="312" x="68.5" y="127"/><ellipse cx="125.25" cy="145.9688" fill="#ADD1B2" rx="11" ry="11" style="stroke: #A80036; stroke-width: 1.0;"/><path d="M128.2188,151.6094 Q127.6406,151.9063 127,152.0469 Q126.3594,152.2031 125.6563,152.2031 Q123.1563,152.2031 121.8281,150.5625 Q120.5156,148.9063 120.5156,145.7813 Q120.5156,142.6563 121.8281,141 Q123.1563,139.3438 125.6563,139.3438 Q126.3594,139.3438 127,139.5 Q127.6563,139.6563 128.2188,139.9531 L128.2188,142.6719 Q127.5938,142.0938 127,141.8281 Q126.4063,141.5469 125.7813,141.5469 Q124.4375,141.5469 123.75,142.625 Q123.0625,143.6875 123.0625,145.7813 Q123.0625,147.875 123.75,148.9531 Q124.4375,150.0156 125.7813,150.0156 Q126.4063,150.0156 127,149.75 Q127.5938,149.4688 128.2188,148.8906 L128.2188,151.6094 Z "/><text fill="#000000" font-family="sans-serif" font-size="14" lengthAdjust="spacingAndGlyphs" textLength="190" x="145.75" y="144.9951">GraphDefinition.Link.Builder</text><text fill="#000000" font-family="sans-serif" font-size="10" lengthAdjust="spacingAndGlyphs" textLength="139" x="171.25" y="157.5791">com.ibm.fhir.model.resource</text><line style="stroke: #A80036; stroke-width: 1.5;" x1="69.5" x2="379.5" y1="164.9375" y2="164.9375"/><ellipse cx="79.5" cy="175.9375" fill="#84BE84" rx="3" ry="3" style="stroke: #038048; stroke-width: 1.0;"/><text fill="#000000" font-family="sans-serif" font-size="11" lengthAdjust="spacingAndGlyphs" textLength="100" x="88.5" y="179.1479">id(String): Builder</text><ellipse cx="79.5" cy="188.7422" fill="#84BE84" rx="3" ry="3" style="stroke: #038048; stroke-width: 1.0;"/><text fill="#000000" font-family="sans-serif" font-size="11" lengthAdjust="spacingAndGlyphs" textLength="178" x="88.5" y="191.9526">extension(Extension...): Builder</text><ellipse cx="79.5" cy="201.5469" fill="#84BE84" rx="3" ry="3" style="stroke: #038048; stroke-width: 1.0;"/><text fill="#000000" font-family="sans-serif" font-size="11" lengthAdjust="spacingAndGlyphs" textLength="239" x="88.5" y="204.7573">extension(Collection&lt;Extension&gt;): Builder</text><ellipse cx="79.5" cy="214.3516" fill="#84BE84" rx="3" ry="3" style="stroke: #038048; stroke-width: 1.0;"/><text fill="#000000" font-family="sans-serif" font-size="11" lengthAdjust="spacingAndGlyphs" textLength="225" x="88.5" y="217.562">modifierExtension(Extension...): Builder</text><ellipse cx="79.5" cy="227.1563" fill="#84BE84" rx="3" ry="3" style="stroke: #038048; stroke-width: 1.0;"/><text fill="#000000" font-family="sans-serif" font-size="11" lengthAdjust="spacingAndGlyphs" textLength="286" x="88.5" y="230.3667">modifierExtension(Collection&lt;Extension&gt;): Builder</text><ellipse cx="79.5" cy="239.9609" fill="#84BE84" rx="3" ry="3" style="stroke: #038048; stroke-width: 1.0;"/><text fill="#000000" font-family="sans-serif" font-size="11" lengthAdjust="spacingAndGlyphs" textLength="115" x="88.5" y="243.1714">path(String): Builder</text><ellipse cx="79.5" cy="252.7656" fill="#84BE84" rx="3" ry="3" style="stroke: #038048; stroke-width: 1.0;"/><text fill="#000000" font-family="sans-serif" font-size="11" lengthAdjust="spacingAndGlyphs" textLength="149" x="88.5" y="255.9761">sliceName(String): Builder</text><ellipse cx="79.5" cy="265.5703" fill="#84BE84" rx="3" ry="3" style="stroke: #038048; stroke-width: 1.0;"/><text fill="#000000" font-family="sans-serif" font-size="11" lengthAdjust="spacingAndGlyphs" textLength="117" x="88.5" y="268.7808">min(Integer): Builder</text><ellipse cx="79.5" cy="278.375" fill="#84BE84" rx="3" ry="3" style="stroke: #038048; stroke-width: 1.0;"/><text fill="#000000" font-family="sans-serif" font-size="11" lengthAdjust="spacingAndGlyphs" textLength="114" x="88.5" y="281.5854">max(String): Builder</text><ellipse cx="79.5" cy="291.1797" fill="#84BE84" rx="3" ry="3" style="stroke: #038048; stroke-width: 1.0;"/><text fill="#000000" font-family="sans-serif" font-size="11" lengthAdjust="spacingAndGlyphs" textLength="153" x="88.5" y="294.3901">description(String): Builder</text><ellipse cx="79.5" cy="303.9844" fill="#84BE84" rx="3" ry="3" style="stroke: #038048; stroke-width: 1.0;"/><text fill="#000000" font-family="sans-serif" font-size="11" lengthAdjust="spacingAndGlyphs" textLength="139" x="88.5" y="307.1948">target(Target...): Builder</text><ellipse cx="79.5" cy="316.7891" fill="#84BE84" rx="3" ry="3" style="stroke: #038048; stroke-width: 1.0;"/><text fill="#000000" font-family="sans-serif" font-size="11" lengthAdjust="spacingAndGlyphs" textLength="200" x="88.5" y="319.9995">target(Collection&lt;Target&gt;): Builder</text><ellipse cx="79.5" cy="329.5938" fill="#84BE84" rx="3" ry="3" style="stroke: #038048; stroke-width: 1.0;"/><text fill="#000000" font-family="sans-serif" font-size="11" lengthAdjust="spacingAndGlyphs" textLength="65" x="88.5" y="332.8042">build(): Link</text><polygon fill="#FFFF44" points="79.5,337.3984,83.5,341.3984,79.5,345.3984,75.5,341.3984" style="stroke: #B38D22; stroke-width: 1.0;"/><text fill="#000000" font-family="sans-serif" font-size="11" lengthAdjust="spacingAndGlyphs" textLength="105" x="88.5" y="345.6089">from(Link): Builder</text></a><!--MD5=[b7b0ea86c8a299e1957933e33e561193]
class com.ibm.fhir.model.type.BackboneElement.Builder--><a href="../type/BackboneElement.Builder.html" target="_top" title="../type/BackboneElement.Builder.html" xlink:actuate="onRequest" xlink:href="../type/BackboneElement.Builder.html" xlink:show="new" xlink:title="../type/BackboneElement.Builder.html" xlink:type="simple"><rect fill="#FEFECE" filter="url(#fqaindd6709e8)" height="58.7422" id="com.ibm.fhir.model.type.BackboneElement.Builder" style="stroke: #A80036; stroke-width: 1.5;" width="211" x="6" y="8"/><ellipse cx="21" cy="26.9688" fill="#A9DCDF" rx="11" ry="11" style="stroke: #A80036; stroke-width: 1.0;"/><path d="M21.1094,22.3125 L19.9531,27.3906 L22.2813,27.3906 L21.1094,22.3125 Z M19.625,20.0781 L22.6094,20.0781 L25.9688,32.4688 L23.5156,32.4688 L22.75,29.4063 L19.4688,29.4063 L18.7188,32.4688 L16.2813,32.4688 L19.625,20.0781 Z "/><text fill="#000000" font-family="sans-serif" font-size="14" font-style="italic" lengthAdjust="spacingAndGlyphs" textLength="179" x="35" y="25.9951">BackboneElement.Builder</text><text fill="#000000" font-family="sans-serif" font-size="10" font-style="italic" lengthAdjust="spacingAndGlyphs" textLength="119" x="65" y="38.5791">com.ibm.fhir.model.type</text><line style="stroke: #A80036; stroke-width: 1.5;" x1="7" x2="216" y1="45.9375" y2="45.9375"/><ellipse cx="17" cy="56.9375" fill="#84BE84" rx="3" ry="3" style="stroke: #038048; stroke-width: 1.0;"/><text fill="#000000" font-family="sans-serif" font-size="11" font-style="italic" lengthAdjust="spacingAndGlyphs" textLength="144" x="26" y="60.1479">build(): BackboneElement</text></a><!--MD5=[a4f7cf7010ef9db146e9d7fba220be4d]
class com.ibm.fhir.model.resource.GraphDefinition.Link--><a href="GraphDefinition.Link.html" target="_top" title="GraphDefinition.Link.html" xlink:actuate="onRequest" xlink:href="GraphDefinition.Link.html" xlink:show="new" xlink:title="GraphDefinition.Link.html" xlink:type="simple"><rect fill="#FEFECE" filter="url(#fqaindd6709e8)" height="37.9375" id="com.ibm.fhir.model.resource.GraphDefinition.Link" style="stroke: #A80036; stroke-width: 1.5;" width="171" x="252" y="18.5"/><ellipse cx="267" cy="37.4688" fill="#ADD1B2" rx="11" ry="11" style="stroke: #A80036; stroke-width: 1.0;"/><path d="M269.9688,43.1094 Q269.3906,43.4063 268.75,43.5469 Q268.1094,43.7031 267.4063,43.7031 Q264.9063,43.7031 263.5781,42.0625 Q262.2656,40.4063 262.2656,37.2813 Q262.2656,34.1563 263.5781,32.5 Q264.9063,30.8438 267.4063,30.8438 Q268.1094,30.8438 268.75,31 Q269.4063,31.1563 269.9688,31.4531 L269.9688,34.1719 Q269.3438,33.5938 268.75,33.3281 Q268.1563,33.0469 267.5313,33.0469 Q266.1875,33.0469 265.5,34.125 Q264.8125,35.1875 264.8125,37.2813 Q264.8125,39.375 265.5,40.4531 Q266.1875,41.5156 267.5313,41.5156 Q268.1563,41.5156 268.75,41.25 Q269.3438,40.9688 269.9688,40.3906 L269.9688,43.1094 Z "/><text fill="#000000" font-family="sans-serif" font-size="14" lengthAdjust="spacingAndGlyphs" textLength="138" x="281.5" y="36.4951">GraphDefinition.Link</text><text fill="#000000" font-family="sans-serif" font-size="10" lengthAdjust="spacingAndGlyphs" textLength="139" x="281" y="49.0791">com.ibm.fhir.model.resource</text></a><!--MD5=[30962fee33b649ba6c5c9e22f09a9467]
reverse link com.ibm.fhir.model.type.BackboneElement.Builder to com.ibm.fhir.model.resource.GraphDefinition.Link.Builder--><path d="M138.1871,85.2061 C145.2902,97.9037 153.2743,112.1762 161.4438,126.7801 " fill="none" id="com.ibm.fhir.model.type.BackboneElement.Builder&lt;-com.ibm.fhir.model.resource.GraphDefinition.Link.Builder" style="stroke: #A80036; stroke-width: 1.0;"/><polygon fill="none" points="131.8287,88.1778,128.1735,67.3058,144.0469,81.3429,131.8287,88.1778" style="stroke: #A80036; stroke-width: 1.0;"/><!--MD5=[459ea489bef06478228d6c31e47dff9a]
reverse link com.ibm.fhir.model.resource.GraphDefinition.Link to com.ibm.fhir.model.resource.GraphDefinition.Link.Builder--><path d="M319.426,69.8093 C310.5153,85.7381 299.1812,105.9991 287.4714,126.9317 " fill="none" id="com.ibm.fhir.model.resource.GraphDefinition.Link&lt;-com.ibm.fhir.model.resource.GraphDefinition.Link.Builder" style="stroke: #A80036; stroke-width: 1.0;"/><ellipse cx="322.9635" cy="63.4855" fill="#FFFFFF" rx="8" ry="8" style="stroke: #A80036; stroke-width: 1.0;"/><line style="stroke: #A80036; stroke-width: 1.0;" x1="319.0579" x2="326.8692" y1="70.4673" y2="56.5037"/><line style="stroke: #A80036; stroke-width: 1.0;" x1="315.9817" x2="329.9454" y1="59.5799" y2="67.3912"/><text fill="#888888" font-family="sans-serif" font-size="10" lengthAdjust="spacingAndGlyphs" textLength="186" x="127.5" y="371.2822">UMLDoclet 2.0.7, PlantUML 1.2019.12</text><!--MD5=[d179278754a41c9b95b118b071f4c18e]
@startuml
    set namespaceSeparator none
    hide empty fields
    hide empty methods

    class "<size:14>GraphDefinition.Link.Builder\n<size:10>com.ibm.fhir.model.resource" as com.ibm.fhir.model.resource.GraphDefinition.Link.Builder [[GraphDefinition.Link.Builder.html]] {
        +id(String): Builder
        +extension(Extension...): Builder
        +extension(Collection<Extension>): Builder
        +modifierExtension(Extension...): Builder
        +modifierExtension(Collection<Extension>): Builder
        +path(String): Builder
        +sliceName(String): Builder
        +min(Integer): Builder
        +max(String): Builder
        +description(String): Builder
        +target(Target...): Builder
        +target(Collection<Target>): Builder
        +build(): Link
        #from(Link): Builder
    }

    abstract class "<size:14>BackboneElement.Builder\n<size:10>com.ibm.fhir.model.type" as com.ibm.fhir.model.type.BackboneElement.Builder [[../type/BackboneElement.Builder.html]] {
        {abstract} +build(): BackboneElement
    }
    class "<size:14>GraphDefinition.Link\n<size:10>com.ibm.fhir.model.resource" as com.ibm.fhir.model.resource.GraphDefinition.Link [[GraphDefinition.Link.html]]

    com.ibm.fhir.model.type.BackboneElement.Builder <|- - com.ibm.fhir.model.resource.GraphDefinition.Link.Builder
    com.ibm.fhir.model.resource.GraphDefinition.Link +- - com.ibm.fhir.model.resource.GraphDefinition.Link.Builder

    center footer UMLDoclet 2.0.7, PlantUML 1.2019.12
@enduml

PlantUML version 1.2019.12(Sun Nov 03 10:24:54 UTC 2019)
(APACHE source distribution)
Java Runtime: OpenJDK Runtime Environment
JVM: OpenJDK 64-Bit Server VM
Java Version: 11.0.7+10
Operating System: Linux
Default Encoding: UTF-8
Language: en
Country: null
--></g></svg>