<?xml version="1.0" encoding="UTF-8" standalone="no"?><svg xmlns="http://www.w3.org/2000/svg" xmlns:xlink="http://www.w3.org/1999/xlink" contentScriptType="application/ecmascript" contentStyleType="text/css" height="268px" preserveAspectRatio="none" style="width:219px;height:268px;" version="1.1" viewBox="0 0 219 268" width="219px" zoomAndPan="magnify"><defs><filter height="300%" id="f8dbhw8viipno" width="300%" x="-1" y="-1"><feGaussianBlur result="blurOut" stdDeviation="2.0"/><feColorMatrix in="blurOut" result="blurOut2" type="matrix" values="0 0 0 0 0 0 0 0 0 0 0 0 0 0 0 0 0 0 .4 0"/><feOffset dx="4.0" dy="4.0" in="blurOut2" result="blurOut3"/><feBlend in="SourceGraphic" in2="blurOut3" mode="normal"/></filter></defs><g><!--MD5=[c329df705b173d145f654523b6134b14]
class com.ibm.fhir.audit.logging.impl.DisabledAuditLogService--><a href="DisabledAuditLogService.html" target="_top" title="DisabledAuditLogService.html" xlink:actuate="onRequest" xlink:href="DisabledAuditLogService.html" xlink:show="new" xlink:title="DisabledAuditLogService.html" xlink:type="simple"><rect fill="#FEFECE" filter="url(#f8dbhw8viipno)" height="84.3516" id="com.ibm.fhir.audit.logging.impl.DisabledAuditLogService" style="stroke: #A80036; stroke-width: 1.5;" width="202" x="6" y="152"/><ellipse cx="21" cy="170.9688" fill="#ADD1B2" rx="11" ry="11" style="stroke: #A80036; stroke-width: 1.0;"/><path d="M23.9688,176.6094 Q23.3906,176.9063 22.75,177.0469 Q22.1094,177.2031 21.4063,177.2031 Q18.9063,177.2031 17.5781,175.5625 Q16.2656,173.9063 16.2656,170.7813 Q16.2656,167.6563 17.5781,166 Q18.9063,164.3438 21.4063,164.3438 Q22.1094,164.3438 22.75,164.5 Q23.4063,164.6563 23.9688,164.9531 L23.9688,167.6719 Q23.3438,167.0938 22.75,166.8281 Q22.1563,166.5469 21.5313,166.5469 Q20.1875,166.5469 19.5,167.625 Q18.8125,168.6875 18.8125,170.7813 Q18.8125,172.875 19.5,173.9531 Q20.1875,175.0156 21.5313,175.0156 Q22.1563,175.0156 22.75,174.75 Q23.3438,174.4688 23.9688,173.8906 L23.9688,176.6094 Z "/><text fill="#000000" font-family="sans-serif" font-size="14" lengthAdjust="spacingAndGlyphs" textLength="170" x="35" y="169.9951">DisabledAuditLogService</text><text fill="#000000" font-family="sans-serif" font-size="10" lengthAdjust="spacingAndGlyphs" textLength="148" x="46" y="182.5791">com.ibm.fhir.audit.logging.impl</text><line style="stroke: #A80036; stroke-width: 1.5;" x1="7" x2="207" y1="189.9375" y2="189.9375"/><ellipse cx="17" cy="200.9375" fill="#84BE84" rx="3" ry="3" style="stroke: #038048; stroke-width: 1.0;"/><text fill="#000000" font-family="sans-serif" font-size="11" lengthAdjust="spacingAndGlyphs" textLength="162" x="26" y="204.1479">logEntry(AuditLogEntry): void</text><ellipse cx="17" cy="213.7422" fill="#84BE84" rx="3" ry="3" style="stroke: #038048; stroke-width: 1.0;"/><text fill="#000000" font-family="sans-serif" font-size="11" lengthAdjust="spacingAndGlyphs" textLength="116" x="26" y="216.9526">isEnabled(): boolean</text><ellipse cx="17" cy="226.5469" fill="#84BE84" rx="3" ry="3" style="stroke: #038048; stroke-width: 1.0;"/><text fill="#000000" font-family="sans-serif" font-size="11" lengthAdjust="spacingAndGlyphs" textLength="167" x="26" y="229.7573">initialize(PropertyGroup): void</text></a><!--MD5=[51ac5d0f0ef27975e3db83ac6dadcfb2]
class com.ibm.fhir.audit.logging.api.AuditLogService--><a href="../api/AuditLogService.html" target="_top" title="../api/AuditLogService.html" xlink:actuate="onRequest" xlink:href="../api/AuditLogService.html" xlink:show="new" xlink:title="../api/AuditLogService.html" xlink:type="simple"><rect fill="#FEFECE" filter="url(#f8dbhw8viipno)" height="84.3516" id="com.ibm.fhir.audit.logging.api.AuditLogService" style="stroke: #A80036; stroke-width: 1.5;" width="193" x="10.5" y="8"/><ellipse cx="34.05" cy="26.9688" fill="#B4A7E5" rx="11" ry="11" style="stroke: #A80036; stroke-width: 1.0;"/><path d="M29.9719,22.7344 L29.9719,20.5781 L37.3625,20.5781 L37.3625,22.7344 L34.8938,22.7344 L34.8938,30.8125 L37.3625,30.8125 L37.3625,32.9688 L29.9719,32.9688 L29.9719,30.8125 L32.4406,30.8125 L32.4406,22.7344 L29.9719,22.7344 Z "/><text fill="#000000" font-family="sans-serif" font-size="14" font-style="italic" lengthAdjust="spacingAndGlyphs" textLength="110" x="65.95" y="25.9951">AuditLogService</text><text fill="#000000" font-family="sans-serif" font-size="10" font-style="italic" lengthAdjust="spacingAndGlyphs" textLength="142" x="49.95" y="38.5791">com.ibm.fhir.audit.logging.api</text><line style="stroke: #A80036; stroke-width: 1.5;" x1="11.5" x2="202.5" y1="45.9375" y2="45.9375"/><ellipse cx="21.5" cy="56.9375" fill="#84BE84" rx="3" ry="3" style="stroke: #038048; stroke-width: 1.0;"/><text fill="#000000" font-family="sans-serif" font-size="11" font-style="italic" lengthAdjust="spacingAndGlyphs" textLength="162" x="30.5" y="60.1479">logEntry(AuditLogEntry): void</text><ellipse cx="21.5" cy="69.7422" fill="#84BE84" rx="3" ry="3" style="stroke: #038048; stroke-width: 1.0;"/><text fill="#000000" font-family="sans-serif" font-size="11" font-style="italic" lengthAdjust="spacingAndGlyphs" textLength="116" x="30.5" y="72.9526">isEnabled(): boolean</text><ellipse cx="21.5" cy="82.5469" fill="#84BE84" rx="3" ry="3" style="stroke: #038048; stroke-width: 1.0;"/><text fill="#000000" font-family="sans-serif" font-size="11" font-style="italic" lengthAdjust="spacingAndGlyphs" textLength="167" x="30.5" y="85.7573">initialize(PropertyGroup): void</text></a><!--MD5=[777196c412af2fa94b97b3774c2a3023]
reverse link com.ibm.fhir.audit.logging.api.AuditLogService to com.ibm.fhir.audit.logging.impl.DisabledAuditLogService--><path d="M107,112.2896 C107,125.5826 107,139.3254 107,151.6606 " fill="none" id="com.ibm.fhir.audit.logging.api.AuditLogService&lt;-com.ibm.fhir.audit.logging.impl.DisabledAuditLogService" style="stroke: #A80036; stroke-width: 1.0; stroke-dasharray: 7.0,7.0;"/><polygon fill="none" points="100.0001,112.0379,107,92.0379,114.0001,112.0378,100.0001,112.0379" style="stroke: #A80036; stroke-width: 1.0;"/><text fill="#888888" font-family="sans-serif" font-size="10" lengthAdjust="spacingAndGlyphs" textLength="186" x="20" y="255.2822">UMLDoclet 2.0.7, PlantUML 1.2019.12</text><!--MD5=[ea7d7006cb287ea502ecc5ce08f2b668]
@startuml
    set namespaceSeparator none
    hide empty fields
    hide empty methods

    class "<size:14>DisabledAuditLogService\n<size:10>com.ibm.fhir.audit.logging.impl" as com.ibm.fhir.audit.logging.impl.DisabledAuditLogService [[DisabledAuditLogService.html]] {
        +logEntry(AuditLogEntry): void
        +isEnabled(): boolean
        +initialize(PropertyGroup): void
    }

    interface "<size:14>AuditLogService\n<size:10>com.ibm.fhir.audit.logging.api" as com.ibm.fhir.audit.logging.api.AuditLogService [[../api/AuditLogService.html]] {
        {abstract} +logEntry(AuditLogEntry): void
        {abstract} +isEnabled(): boolean
        {abstract} +initialize(PropertyGroup): void
    }

    com.ibm.fhir.audit.logging.api.AuditLogService <|.. com.ibm.fhir.audit.logging.impl.DisabledAuditLogService

    center footer UMLDoclet 2.0.7, PlantUML 1.2019.12
@enduml

PlantUML version 1.2019.12(Sun Nov 03 10:24:54 UTC 2019)
(APACHE source distribution)
Java Runtime: OpenJDK Runtime Environment
JVM: OpenJDK 64-Bit Server VM
Java Version: 11.0.7+10
Operating System: Linux
Default Encoding: UTF-8
Language: en
Country: null
--></g></svg>