<?xml version="1.0" encoding="UTF-8" standalone="no"?><svg xmlns="http://www.w3.org/2000/svg" xmlns:xlink="http://www.w3.org/1999/xlink" contentScriptType="application/ecmascript" contentStyleType="text/css" height="218px" preserveAspectRatio="none" style="width:338px;height:218px;" version="1.1" viewBox="0 0 338 218" width="338px" zoomAndPan="magnify"><defs><filter height="300%" id="f1a6cmcfay4xa5" width="300%" x="-1" y="-1"><feGaussianBlur result="blurOut" stdDeviation="2.0"/><feColorMatrix in="blurOut" result="blurOut2" type="matrix" values="0 0 0 0 0 0 0 0 0 0 0 0 0 0 0 0 0 0 .4 0"/><feOffset dx="4.0" dy="4.0" in="blurOut2" result="blurOut3"/><feBlend in="SourceGraphic" in2="blurOut3" mode="normal"/></filter></defs><g><!--MD5=[5474e660c31ca8d0975ec3186ec50ec3]
class com.ibm.fhir.task.core.service.TaskService--><a href="TaskService.html" target="_top" title="TaskService.html" xlink:actuate="onRequest" xlink:href="TaskService.html" xlink:show="new" xlink:title="TaskService.html" xlink:type="simple"><rect fill="#FEFECE" filter="url(#f1a6cmcfay4xa5)" height="58.7422" id="com.ibm.fhir.task.core.service.TaskService" style="stroke: #A80036; stroke-width: 1.5;" width="321" x="6" y="127"/><ellipse cx="89.75" cy="145.9688" fill="#ADD1B2" rx="11" ry="11" style="stroke: #A80036; stroke-width: 1.0;"/><path d="M92.7188,151.6094 Q92.1406,151.9063 91.5,152.0469 Q90.8594,152.2031 90.1563,152.2031 Q87.6563,152.2031 86.3281,150.5625 Q85.0156,148.9063 85.0156,145.7813 Q85.0156,142.6563 86.3281,141 Q87.6563,139.3438 90.1563,139.3438 Q90.8594,139.3438 91.5,139.5 Q92.1563,139.6563 92.7188,139.9531 L92.7188,142.6719 Q92.0938,142.0938 91.5,141.8281 Q90.9063,141.5469 90.2813,141.5469 Q88.9375,141.5469 88.25,142.625 Q87.5625,143.6875 87.5625,145.7813 Q87.5625,147.875 88.25,148.9531 Q88.9375,150.0156 90.2813,150.0156 Q90.9063,150.0156 91.5,149.75 Q92.0938,149.4688 92.7188,148.8906 L92.7188,151.6094 Z "/><text fill="#000000" font-family="sans-serif" font-size="14" lengthAdjust="spacingAndGlyphs" textLength="83" x="141.25" y="144.9951">TaskService</text><text fill="#000000" font-family="sans-serif" font-size="10" lengthAdjust="spacingAndGlyphs" textLength="145" x="110.25" y="157.5791">com.ibm.fhir.task.core.service</text><line style="stroke: #A80036; stroke-width: 1.5;" x1="7" x2="326" y1="164.9375" y2="164.9375"/><ellipse cx="17" cy="175.9375" fill="#84BE84" rx="3" ry="3" style="stroke: #038048; stroke-width: 1.0;"/><text fill="#000000" font-family="sans-serif" font-size="11" lengthAdjust="spacingAndGlyphs" textLength="295" x="26" y="179.1479">makeTaskCollector(ExecutorService): ITaskCollector</text></a><!--MD5=[e0dfd5b405852f80566e546379f12732]
class com.ibm.fhir.task.api.ITaskService--><a href="../../api/ITaskService.html" target="_top" title="../../api/ITaskService.html" xlink:actuate="onRequest" xlink:href="../../api/ITaskService.html" xlink:show="new" xlink:title="../../api/ITaskService.html" xlink:type="simple"><rect fill="#FEFECE" filter="url(#f1a6cmcfay4xa5)" height="58.7422" id="com.ibm.fhir.task.api.ITaskService" style="stroke: #A80036; stroke-width: 1.5;" width="321" x="6" y="8"/><ellipse cx="111.75" cy="26.9688" fill="#B4A7E5" rx="11" ry="11" style="stroke: #A80036; stroke-width: 1.0;"/><path d="M107.6719,22.7344 L107.6719,20.5781 L115.0625,20.5781 L115.0625,22.7344 L112.5938,22.7344 L112.5938,30.8125 L115.0625,30.8125 L115.0625,32.9688 L107.6719,32.9688 L107.6719,30.8125 L110.1406,30.8125 L110.1406,22.7344 L107.6719,22.7344 Z "/><text fill="#000000" font-family="sans-serif" font-size="14" font-style="italic" lengthAdjust="spacingAndGlyphs" textLength="86" x="139.75" y="25.9951">ITaskService</text><text fill="#000000" font-family="sans-serif" font-size="10" font-style="italic" lengthAdjust="spacingAndGlyphs" textLength="101" x="132.25" y="38.5791">com.ibm.fhir.task.api</text><line style="stroke: #A80036; stroke-width: 1.5;" x1="7" x2="326" y1="45.9375" y2="45.9375"/><ellipse cx="17" cy="56.9375" fill="#84BE84" rx="3" ry="3" style="stroke: #038048; stroke-width: 1.0;"/><text fill="#000000" font-family="sans-serif" font-size="11" font-style="italic" lengthAdjust="spacingAndGlyphs" textLength="295" x="26" y="60.1479">makeTaskCollector(ExecutorService): ITaskCollector</text></a><!--MD5=[6bbaa539be5283d2d6608008e725c0dd]
reverse link com.ibm.fhir.task.api.ITaskService to com.ibm.fhir.task.core.service.TaskService--><path d="M166.5,87.3288 C166.5,100.7348 166.5,114.8139 166.5,126.7447 " fill="none" id="com.ibm.fhir.task.api.ITaskService&lt;-com.ibm.fhir.task.core.service.TaskService" style="stroke: #A80036; stroke-width: 1.0; stroke-dasharray: 7.0,7.0;"/><polygon fill="none" points="159.5001,87.2218,166.5,67.2218,173.5001,87.2217,159.5001,87.2218" style="stroke: #A80036; stroke-width: 1.0;"/><text fill="#888888" font-family="sans-serif" font-size="10" lengthAdjust="spacingAndGlyphs" textLength="186" x="79.5" y="205.2822">UMLDoclet 2.0.7, PlantUML 1.2019.12</text><!--MD5=[b294ad0ea842e17ff18e45ad5d8b3a15]
@startuml
    set namespaceSeparator none
    hide empty fields
    hide empty methods

    class "<size:14>TaskService\n<size:10>com.ibm.fhir.task.core.service" as com.ibm.fhir.task.core.service.TaskService [[TaskService.html]] {
        +makeTaskCollector(ExecutorService): ITaskCollector
    }

    interface "<size:14>ITaskService\n<size:10>com.ibm.fhir.task.api" as com.ibm.fhir.task.api.ITaskService [[../../api/ITaskService.html]] {
        {abstract} +makeTaskCollector(ExecutorService): ITaskCollector
    }

    com.ibm.fhir.task.api.ITaskService <|.. com.ibm.fhir.task.core.service.TaskService

    center footer UMLDoclet 2.0.7, PlantUML 1.2019.12
@enduml

PlantUML version 1.2019.12(Sun Nov 03 10:24:54 UTC 2019)
(APACHE source distribution)
Java Runtime: OpenJDK Runtime Environment
JVM: OpenJDK 64-Bit Server VM
Java Version: 11.0.8+10
Operating System: Linux
Default Encoding: UTF-8
Language: en
Country: null
--></g></svg>