<?xml version="1.0" encoding="UTF-8" standalone="no"?><svg xmlns="http://www.w3.org/2000/svg" xmlns:xlink="http://www.w3.org/1999/xlink" contentScriptType="application/ecmascript" contentStyleType="text/css" height="244px" preserveAspectRatio="none" style="width:299px;height:244px;" version="1.1" viewBox="0 0 299 244" width="299px" zoomAndPan="magnify"><defs><filter height="300%" id="f4jns5qt9rkdb" width="300%" x="-1" y="-1"><feGaussianBlur result="blurOut" stdDeviation="2.0"/><feColorMatrix in="blurOut" result="blurOut2" type="matrix" values="0 0 0 0 0 0 0 0 0 0 0 0 0 0 0 0 0 0 .4 0"/><feOffset dx="4.0" dy="4.0" in="blurOut2" result="blurOut3"/><feBlend in="SourceGraphic" in2="blurOut3" mode="normal"/></filter></defs><g><!--MD5=[ff62226b1393b2dc30fed5438ba14f9c]
class com.ibm.fhir.bulkdata.jbatch.control.JobControlContextListener--><a href="JobControlContextListener.html" target="_top" title="JobControlContextListener.html" xlink:actuate="onRequest" xlink:href="JobControlContextListener.html" xlink:show="new" xlink:title="JobControlContextListener.html" xlink:type="simple"><rect fill="#FEFECE" filter="url(#f4jns5qt9rkdb)" height="71.5469" id="com.ibm.fhir.bulkdata.jbatch.control.JobControlContextListener" style="stroke: #A80036; stroke-width: 1.5;" width="278" x="8" y="140"/><ellipse cx="52.75" cy="158.9688" fill="#ADD1B2" rx="11" ry="11" style="stroke: #A80036; stroke-width: 1.0;"/><path d="M55.7188,164.6094 Q55.1406,164.9063 54.5,165.0469 Q53.8594,165.2031 53.1563,165.2031 Q50.6563,165.2031 49.3281,163.5625 Q48.0156,161.9063 48.0156,158.7813 Q48.0156,155.6563 49.3281,154 Q50.6563,152.3438 53.1563,152.3438 Q53.8594,152.3438 54.5,152.5 Q55.1563,152.6563 55.7188,152.9531 L55.7188,155.6719 Q55.0938,155.0938 54.5,154.8281 Q53.9063,154.5469 53.2813,154.5469 Q51.9375,154.5469 51.25,155.625 Q50.5625,156.6875 50.5625,158.7813 Q50.5625,160.875 51.25,161.9531 Q51.9375,163.0156 53.2813,163.0156 Q53.9063,163.0156 54.5,162.75 Q55.0938,162.4688 55.7188,161.8906 L55.7188,164.6094 Z "/><text fill="#000000" font-family="sans-serif" font-size="14" lengthAdjust="spacingAndGlyphs" textLength="180" x="73.25" y="157.9951">JobControlContextListener</text><text fill="#000000" font-family="sans-serif" font-size="10" lengthAdjust="spacingAndGlyphs" textLength="173" x="76.75" y="170.5791">com.ibm.fhir.bulkdata.jbatch.control</text><line style="stroke: #A80036; stroke-width: 1.5;" x1="9" x2="285" y1="177.9375" y2="177.9375"/><ellipse cx="19" cy="188.9375" fill="#84BE84" rx="3" ry="3" style="stroke: #038048; stroke-width: 1.0;"/><text fill="#000000" font-family="sans-serif" font-size="11" lengthAdjust="spacingAndGlyphs" textLength="246" x="28" y="192.1479">contextInitialized(ServletContextEvent): void</text><ellipse cx="19" cy="201.7422" fill="#84BE84" rx="3" ry="3" style="stroke: #038048; stroke-width: 1.0;"/><text fill="#000000" font-family="sans-serif" font-size="11" lengthAdjust="spacingAndGlyphs" textLength="252" x="28" y="204.9526">contextDestroyed(ServletContextEvent): void</text></a><!--MD5=[f45dfa88339300e09296feec928ee186]
class javax.servlet.ServletContextListener--><rect fill="#FEFECE" filter="url(#f4jns5qt9rkdb)" height="71.5469" id="javax.servlet.ServletContextListener" style="stroke: #A80036; stroke-width: 1.5;" width="282" x="6" y="8"/><ellipse cx="63.75" cy="26.9688" fill="#B4A7E5" rx="11" ry="11" style="stroke: #A80036; stroke-width: 1.0;"/><path d="M59.6719,22.7344 L59.6719,20.5781 L67.0625,20.5781 L67.0625,22.7344 L64.5938,22.7344 L64.5938,30.8125 L67.0625,30.8125 L67.0625,32.9688 L59.6719,32.9688 L59.6719,30.8125 L62.1406,30.8125 L62.1406,22.7344 L59.6719,22.7344 Z "/><text fill="#000000" font-family="sans-serif" font-size="14" font-style="italic" lengthAdjust="spacingAndGlyphs" textLength="158" x="84.25" y="25.9951">ServletContextListener</text><text fill="#000000" font-family="sans-serif" font-size="10" font-style="italic" lengthAdjust="spacingAndGlyphs" textLength="64" x="131.25" y="38.5791">javax.servlet</text><line style="stroke: #A80036; stroke-width: 1.5;" x1="7" x2="287" y1="45.9375" y2="45.9375"/><ellipse cx="17" cy="56.9375" fill="#84BE84" rx="3" ry="3" style="stroke: #038048; stroke-width: 1.0;"/><text fill="#000000" font-family="sans-serif" font-size="11" font-style="italic" lengthAdjust="spacingAndGlyphs" textLength="251" x="26" y="60.1479">contextInitialized(ServletContextEvent): void</text><ellipse cx="17" cy="69.7422" fill="#84BE84" rx="3" ry="3" style="stroke: #038048; stroke-width: 1.0;"/><text fill="#000000" font-family="sans-serif" font-size="11" font-style="italic" lengthAdjust="spacingAndGlyphs" textLength="256" x="26" y="72.9526">contextDestroyed(ServletContextEvent): void</text><!--MD5=[80c8675be5e5c0af4cc47579320ab2ca]
reverse link javax.servlet.ServletContextListener to com.ibm.fhir.bulkdata.jbatch.control.JobControlContextListener--><path d="M147,100.38 C147,113.74 147,127.65 147,139.79 " fill="none" id="javax.servlet.ServletContextListener&lt;-com.ibm.fhir.bulkdata.jbatch.control.JobControlContextListener" style="stroke: #A80036; stroke-width: 1.0; stroke-dasharray: 7.0,7.0;"/><polygon fill="none" points="140,100.18,147,80.18,154,100.18,140,100.18" style="stroke: #A80036; stroke-width: 1.0;"/><text fill="#888888" font-family="sans-serif" font-size="10" lengthAdjust="spacingAndGlyphs" textLength="186" x="60" y="231.2822">UMLDoclet 2.0.7, PlantUML 1.2019.12</text><!--MD5=[e028414d3b442088565ac4c7feaa0026]
@startuml
    set namespaceSeparator none
    hide empty fields
    hide empty methods

    class "<size:14>JobControlContextListener\n<size:10>com.ibm.fhir.bulkdata.jbatch.control" as com.ibm.fhir.bulkdata.jbatch.control.JobControlContextListener [[JobControlContextListener.html]] {
        +contextInitialized(ServletContextEvent): void
        +contextDestroyed(ServletContextEvent): void
    }

    interface "<size:14>ServletContextListener\n<size:10>javax.servlet" as javax.servlet.ServletContextListener {
        {abstract} +contextInitialized(ServletContextEvent): void
        {abstract} +contextDestroyed(ServletContextEvent): void
    }

    javax.servlet.ServletContextListener <|.. com.ibm.fhir.bulkdata.jbatch.control.JobControlContextListener

    center footer UMLDoclet 2.0.7, PlantUML 1.2019.12
@enduml

PlantUML version 1.2019.12(Sun Nov 03 10:24:54 UTC 2019)
(APACHE source distribution)
Java Runtime: OpenJDK Runtime Environment
JVM: OpenJDK 64-Bit Server VM
Java Version: 11.0.10+9
Operating System: Linux
Default Encoding: UTF-8
Language: en
Country: null
--></g></svg>