<?xml version="1.0" encoding="UTF-8" standalone="no"?><svg xmlns="http://www.w3.org/2000/svg" xmlns:xlink="http://www.w3.org/1999/xlink" contentScriptType="application/ecmascript" contentStyleType="text/css" height="393px" preserveAspectRatio="none" style="width:365px;height:393px;" version="1.1" viewBox="0 0 365 393" width="365px" zoomAndPan="magnify"><defs><filter height="300%" id="fe0e4q0qaflwb" width="300%" x="-1" y="-1"><feGaussianBlur result="blurOut" stdDeviation="2.0"/><feColorMatrix in="blurOut" result="blurOut2" type="matrix" values="0 0 0 0 0 0 0 0 0 0 0 0 0 0 0 0 0 0 .4 0"/><feOffset dx="4.0" dy="4.0" in="blurOut2" result="blurOut3"/><feBlend in="SourceGraphic" in2="blurOut3" mode="normal"/></filter></defs><g><!--MD5=[e923ab8259945dae3c199ae86bada936]
class com.ibm.fhir.model.type.DataRequirement.DateFilter--><a href="DataRequirement.DateFilter.html" target="_top" title="DataRequirement.DateFilter.html" xlink:actuate="onRequest" xlink:href="DataRequirement.DateFilter.html" xlink:show="new" xlink:title="DataRequirement.DateFilter.html" xlink:type="simple"><rect fill="#FEFECE" filter="url(#fe0e4q0qaflwb)" height="135.5703" id="com.ibm.fhir.model.type.DataRequirement.DateFilter" style="stroke: #A80036; stroke-width: 1.5;" width="224" x="69.5" y="127"/><ellipse cx="84.5" cy="145.9688" fill="#ADD1B2" rx="11" ry="11" style="stroke: #A80036; stroke-width: 1.0;"/><path d="M87.4688,151.6094 Q86.8906,151.9063 86.25,152.0469 Q85.6094,152.2031 84.9063,152.2031 Q82.4063,152.2031 81.0781,150.5625 Q79.7656,148.9063 79.7656,145.7813 Q79.7656,142.6563 81.0781,141 Q82.4063,139.3438 84.9063,139.3438 Q85.6094,139.3438 86.25,139.5 Q86.9063,139.6563 87.4688,139.9531 L87.4688,142.6719 Q86.8438,142.0938 86.25,141.8281 Q85.6563,141.5469 85.0313,141.5469 Q83.6875,141.5469 83,142.625 Q82.3125,143.6875 82.3125,145.7813 Q82.3125,147.875 83,148.9531 Q83.6875,150.0156 85.0313,150.0156 Q85.6563,150.0156 86.25,149.75 Q86.8438,149.4688 87.4688,148.8906 L87.4688,151.6094 Z "/><text fill="#000000" font-family="sans-serif" font-size="14" lengthAdjust="spacingAndGlyphs" textLength="192" x="98.5" y="144.9951">DataRequirement.DateFilter</text><text fill="#000000" font-family="sans-serif" font-size="10" lengthAdjust="spacingAndGlyphs" textLength="119" x="135" y="157.5791">com.ibm.fhir.model.type</text><line style="stroke: #A80036; stroke-width: 1.5;" x1="70.5" x2="292.5" y1="164.9375" y2="164.9375"/><ellipse cx="80.5" cy="175.9375" fill="#84BE84" rx="3" ry="3" style="stroke: #038048; stroke-width: 1.0;"/><text fill="#000000" font-family="sans-serif" font-size="11" lengthAdjust="spacingAndGlyphs" textLength="93" x="89.5" y="179.1479">getPath(): String</text><ellipse cx="80.5" cy="188.7422" fill="#84BE84" rx="3" ry="3" style="stroke: #038048; stroke-width: 1.0;"/><text fill="#000000" font-family="sans-serif" font-size="11" lengthAdjust="spacingAndGlyphs" textLength="145" x="89.5" y="191.9526">getSearchParam(): String</text><ellipse cx="80.5" cy="201.5469" fill="#84BE84" rx="3" ry="3" style="stroke: #038048; stroke-width: 1.0;"/><text fill="#000000" font-family="sans-serif" font-size="11" lengthAdjust="spacingAndGlyphs" textLength="111" x="89.5" y="204.7573">getValue(): Element</text><ellipse cx="80.5" cy="214.3516" fill="#84BE84" rx="3" ry="3" style="stroke: #038048; stroke-width: 1.0;"/><text fill="#000000" font-family="sans-serif" font-size="11" lengthAdjust="spacingAndGlyphs" textLength="129" x="89.5" y="217.562">hasChildren(): boolean</text><ellipse cx="80.5" cy="227.1563" fill="#84BE84" rx="3" ry="3" style="stroke: #038048; stroke-width: 1.0;"/><text fill="#000000" font-family="sans-serif" font-size="11" lengthAdjust="spacingAndGlyphs" textLength="176" x="89.5" y="230.3667">accept(String, int, Visitor): void</text><ellipse cx="80.5" cy="239.9609" fill="#84BE84" rx="3" ry="3" style="stroke: #038048; stroke-width: 1.0;"/><text fill="#000000" font-family="sans-serif" font-size="11" lengthAdjust="spacingAndGlyphs" textLength="107" x="89.5" y="243.1714">toBuilder(): Builder</text><ellipse cx="80.5" cy="252.7656" fill="#84BE84" rx="3" ry="3" style="stroke: #038048; stroke-width: 1.0;"/><text fill="#000000" font-family="sans-serif" font-size="11" lengthAdjust="spacingAndGlyphs" text-decoration="underline" textLength="95" x="89.5" y="255.9761">builder(): Builder</text></a><!--MD5=[efbff6997283c56b83e991a8eeb6a60a]
class com.ibm.fhir.model.type.BackboneElement--><a href="BackboneElement.html" target="_top" title="BackboneElement.html" xlink:actuate="onRequest" xlink:href="BackboneElement.html" xlink:show="new" xlink:title="BackboneElement.html" xlink:type="simple"><rect fill="#FEFECE" filter="url(#fe0e4q0qaflwb)" height="58.7422" id="com.ibm.fhir.model.type.BackboneElement" style="stroke: #A80036; stroke-width: 1.5;" width="159" x="6" y="8"/><ellipse cx="21" cy="26.9688" fill="#A9DCDF" rx="11" ry="11" style="stroke: #A80036; stroke-width: 1.0;"/><path d="M21.1094,22.3125 L19.9531,27.3906 L22.2813,27.3906 L21.1094,22.3125 Z M19.625,20.0781 L22.6094,20.0781 L25.9688,32.4688 L23.5156,32.4688 L22.75,29.4063 L19.4688,29.4063 L18.7188,32.4688 L16.2813,32.4688 L19.625,20.0781 Z "/><text fill="#000000" font-family="sans-serif" font-size="14" font-style="italic" lengthAdjust="spacingAndGlyphs" textLength="127" x="35" y="25.9951">BackboneElement</text><text fill="#000000" font-family="sans-serif" font-size="10" font-style="italic" lengthAdjust="spacingAndGlyphs" textLength="123" x="37" y="38.5791">com.ibm.fhir.model.type</text><line style="stroke: #A80036; stroke-width: 1.5;" x1="7" x2="164" y1="45.9375" y2="45.9375"/><ellipse cx="17" cy="56.9375" fill="#84BE84" rx="3" ry="3" style="stroke: #038048; stroke-width: 1.0;"/><text fill="#000000" font-family="sans-serif" font-size="11" font-style="italic" lengthAdjust="spacingAndGlyphs" textLength="107" x="26" y="60.1479">toBuilder(): Builder</text></a><!--MD5=[f80a207c58e07ede7b937c54b7a27612]
class com.ibm.fhir.model.type.DataRequirement--><a href="DataRequirement.html" target="_top" title="DataRequirement.html" xlink:actuate="onRequest" xlink:href="DataRequirement.html" xlink:show="new" xlink:title="DataRequirement.html" xlink:type="simple"><rect fill="#FEFECE" filter="url(#fe0e4q0qaflwb)" height="37.9375" id="com.ibm.fhir.model.type.DataRequirement" style="stroke: #A80036; stroke-width: 1.5;" width="154" x="200.5" y="18.5"/><ellipse cx="215.5" cy="37.4688" fill="#ADD1B2" rx="11" ry="11" style="stroke: #A80036; stroke-width: 1.0;"/><path d="M218.4688,43.1094 Q217.8906,43.4063 217.25,43.5469 Q216.6094,43.7031 215.9063,43.7031 Q213.4063,43.7031 212.0781,42.0625 Q210.7656,40.4063 210.7656,37.2813 Q210.7656,34.1563 212.0781,32.5 Q213.4063,30.8438 215.9063,30.8438 Q216.6094,30.8438 217.25,31 Q217.9063,31.1563 218.4688,31.4531 L218.4688,34.1719 Q217.8438,33.5938 217.25,33.3281 Q216.6563,33.0469 216.0313,33.0469 Q214.6875,33.0469 214,34.125 Q213.3125,35.1875 213.3125,37.2813 Q213.3125,39.375 214,40.4531 Q214.6875,41.5156 216.0313,41.5156 Q216.6563,41.5156 217.25,41.25 Q217.8438,40.9688 218.4688,40.3906 L218.4688,43.1094 Z "/><text fill="#000000" font-family="sans-serif" font-size="14" lengthAdjust="spacingAndGlyphs" textLength="122" x="229.5" y="36.4951">DataRequirement</text><text fill="#000000" font-family="sans-serif" font-size="10" lengthAdjust="spacingAndGlyphs" textLength="119" x="231" y="49.0791">com.ibm.fhir.model.type</text></a><!--MD5=[413d86e90bf00a3457500561b1e05db2]
class com.ibm.fhir.model.type.DataRequirement.DateFilter.Builder--><a href="DataRequirement.DateFilter.Builder.html" target="_top" title="DataRequirement.DateFilter.Builder.html" xlink:actuate="onRequest" xlink:href="DataRequirement.DateFilter.Builder.html" xlink:show="new" xlink:title="DataRequirement.DateFilter.Builder.html" xlink:type="simple"><rect fill="#FEFECE" filter="url(#fe0e4q0qaflwb)" height="37.9375" id="com.ibm.fhir.model.type.DataRequirement.DateFilter.Builder" style="stroke: #A80036; stroke-width: 1.5;" width="276" x="43.5" y="323"/><ellipse cx="58.5" cy="341.9688" fill="#ADD1B2" rx="11" ry="11" style="stroke: #A80036; stroke-width: 1.0;"/><path d="M61.4688,347.6094 Q60.8906,347.9063 60.25,348.0469 Q59.6094,348.2031 58.9063,348.2031 Q56.4063,348.2031 55.0781,346.5625 Q53.7656,344.9063 53.7656,341.7813 Q53.7656,338.6563 55.0781,337 Q56.4063,335.3438 58.9063,335.3438 Q59.6094,335.3438 60.25,335.5 Q60.9063,335.6563 61.4688,335.9531 L61.4688,338.6719 Q60.8438,338.0938 60.25,337.8281 Q59.6563,337.5469 59.0313,337.5469 Q57.6875,337.5469 57,338.625 Q56.3125,339.6875 56.3125,341.7813 Q56.3125,343.875 57,344.9531 Q57.6875,346.0156 59.0313,346.0156 Q59.6563,346.0156 60.25,345.75 Q60.8438,345.4688 61.4688,344.8906 L61.4688,347.6094 Z "/><text fill="#000000" font-family="sans-serif" font-size="14" lengthAdjust="spacingAndGlyphs" textLength="244" x="72.5" y="340.9951">DataRequirement.DateFilter.Builder</text><text fill="#000000" font-family="sans-serif" font-size="10" lengthAdjust="spacingAndGlyphs" textLength="119" x="135" y="353.5791">com.ibm.fhir.model.type</text></a><!--MD5=[cd4e0333994ff3c061a1aac71c51e5b0]
reverse link com.ibm.fhir.model.type.BackboneElement to com.ibm.fhir.model.type.DataRequirement.DateFilter--><path d="M114.0193,84.2895 C122.1865,97.6888 131.26,112.5749 140.0363,126.9737 " fill="none" id="com.ibm.fhir.model.type.BackboneElement&lt;-com.ibm.fhir.model.type.DataRequirement.DateFilter" style="stroke: #A80036; stroke-width: 1.0;"/><polygon fill="none" points="107.989,87.8455,103.5569,67.1245,119.9434,80.559,107.989,87.8455" style="stroke: #A80036; stroke-width: 1.0;"/><!--MD5=[8f0f457b0ce878f8456389c71a57ecf5]
reverse link com.ibm.fhir.model.type.DataRequirement to com.ibm.fhir.model.type.DataRequirement.DateFilter--><path d="M257.789,69.8384 C247.7246,86.3503 235.0803,107.0947 222.9963,126.9201 " fill="none" id="com.ibm.fhir.model.type.DataRequirement&lt;-com.ibm.fhir.model.type.DataRequirement.DateFilter" style="stroke: #A80036; stroke-width: 1.0;"/><ellipse cx="261.5648" cy="63.6437" fill="#FFFFFF" rx="8" ry="8" style="stroke: #A80036; stroke-width: 1.0;"/><line style="stroke: #A80036; stroke-width: 1.0;" x1="257.4011" x2="265.7285" y1="70.4747" y2="56.8126"/><line style="stroke: #A80036; stroke-width: 1.0;" x1="254.7337" x2="268.3958" y1="59.4799" y2="67.8074"/><!--MD5=[b4ddd62836a722df0b5503ea7436e122]
reverse link com.ibm.fhir.model.type.DataRequirement.DateFilter to com.ibm.fhir.model.type.DataRequirement.DateFilter.Builder--><path d="M181.5,278.372 C181.5,295.0058 181.5,310.9526 181.5,322.721 " fill="none" id="com.ibm.fhir.model.type.DataRequirement.DateFilter&lt;-com.ibm.fhir.model.type.DataRequirement.DateFilter.Builder" style="stroke: #A80036; stroke-width: 1.0;"/><ellipse cx="181.5001" cy="271.3358" fill="#FFFFFF" rx="8" ry="8" style="stroke: #A80036; stroke-width: 1.0;"/><line style="stroke: #A80036; stroke-width: 1.0;" x1="181.5002" x2="181.5" y1="279.3358" y2="263.3358"/><line style="stroke: #A80036; stroke-width: 1.0;" x1="173.5001" x2="189.5001" y1="271.3359" y2="271.3357"/><text fill="#888888" font-family="sans-serif" font-size="10" lengthAdjust="spacingAndGlyphs" textLength="186" x="93.5" y="380.2822">UMLDoclet 2.0.7, PlantUML 1.2019.12</text><!--MD5=[ba2c2020043a05f51030357f6c6ea9f6]
@startuml
    set namespaceSeparator none
    hide empty fields
    hide empty methods

    class "<size:14>DataRequirement.DateFilter\n<size:10>com.ibm.fhir.model.type" as com.ibm.fhir.model.type.DataRequirement.DateFilter [[DataRequirement.DateFilter.html]] {
        +getPath(): String
        +getSearchParam(): String
        +getValue(): Element
        +hasChildren(): boolean
        +accept(String, int, Visitor): void
        +toBuilder(): Builder
        {static} +builder(): Builder
    }

    abstract class "<size:14>BackboneElement\n<size:10>com.ibm.fhir.model.type" as com.ibm.fhir.model.type.BackboneElement [[BackboneElement.html]] {
        {abstract} +toBuilder(): Builder
    }
    class "<size:14>DataRequirement\n<size:10>com.ibm.fhir.model.type" as com.ibm.fhir.model.type.DataRequirement [[DataRequirement.html]]
    class "<size:14>DataRequirement.DateFilter.Builder\n<size:10>com.ibm.fhir.model.type" as com.ibm.fhir.model.type.DataRequirement.DateFilter.Builder [[DataRequirement.DateFilter.Builder.html]]

    com.ibm.fhir.model.type.BackboneElement <|- - com.ibm.fhir.model.type.DataRequirement.DateFilter
    com.ibm.fhir.model.type.DataRequirement +- - com.ibm.fhir.model.type.DataRequirement.DateFilter
    com.ibm.fhir.model.type.DataRequirement.DateFilter +- - com.ibm.fhir.model.type.DataRequirement.DateFilter.Builder

    center footer UMLDoclet 2.0.7, PlantUML 1.2019.12
@enduml

PlantUML version 1.2019.12(Sun Nov 03 10:24:54 UTC 2019)
(APACHE source distribution)
Java Runtime: OpenJDK Runtime Environment
JVM: OpenJDK 64-Bit Server VM
Java Version: 11.0.10+9
Operating System: Linux
Default Encoding: UTF-8
Language: en
Country: null
--></g></svg>