<?xml version="1.0" encoding="UTF-8" standalone="no"?><svg xmlns="http://www.w3.org/2000/svg" xmlns:xlink="http://www.w3.org/1999/xlink" contentScriptType="application/ecmascript" contentStyleType="text/css" height="371px" preserveAspectRatio="none" style="width:358px;height:371px;" version="1.1" viewBox="0 0 358 371" width="358px" zoomAndPan="magnify"><defs><filter height="300%" id="f1753d83yb098s" width="300%" x="-1" y="-1"><feGaussianBlur result="blurOut" stdDeviation="2.0"/><feColorMatrix in="blurOut" result="blurOut2" type="matrix" values="0 0 0 0 0 0 0 0 0 0 0 0 0 0 0 0 0 0 .4 0"/><feOffset dx="4.0" dy="4.0" in="blurOut2" result="blurOut3"/><feBlend in="SourceGraphic" in2="blurOut3" mode="normal"/></filter></defs><g><!--MD5=[cf5b6933e981821390c41ffb71b5dc0d]
class com.ibm.fhir.model.type.Attachment.Builder--><a href="Attachment.Builder.html" target="_top" title="Attachment.Builder.html" xlink:actuate="onRequest" xlink:href="Attachment.Builder.html" xlink:show="new" xlink:title="Attachment.Builder.html" xlink:type="simple"><rect fill="#FEFECE" filter="url(#f1753d83yb098s)" height="212.3984" id="com.ibm.fhir.model.type.Attachment.Builder" style="stroke: #A80036; stroke-width: 1.5;" width="265" x="45" y="127"/><ellipse cx="107.25" cy="145.9688" fill="#ADD1B2" rx="11" ry="11" style="stroke: #A80036; stroke-width: 1.0;"/><path d="M110.2188,151.6094 Q109.6406,151.9063 109,152.0469 Q108.3594,152.2031 107.6563,152.2031 Q105.1563,152.2031 103.8281,150.5625 Q102.5156,148.9063 102.5156,145.7813 Q102.5156,142.6563 103.8281,141 Q105.1563,139.3438 107.6563,139.3438 Q108.3594,139.3438 109,139.5 Q109.6563,139.6563 110.2188,139.9531 L110.2188,142.6719 Q109.5938,142.0938 109,141.8281 Q108.4063,141.5469 107.7813,141.5469 Q106.4375,141.5469 105.75,142.625 Q105.0625,143.6875 105.0625,145.7813 Q105.0625,147.875 105.75,148.9531 Q106.4375,150.0156 107.7813,150.0156 Q108.4063,150.0156 109,149.75 Q109.5938,149.4688 110.2188,148.8906 L110.2188,151.6094 Z "/><text fill="#000000" font-family="sans-serif" font-size="14" lengthAdjust="spacingAndGlyphs" textLength="132" x="127.75" y="144.9951">Attachment.Builder</text><text fill="#000000" font-family="sans-serif" font-size="10" lengthAdjust="spacingAndGlyphs" textLength="119" x="134.25" y="157.5791">com.ibm.fhir.model.type</text><line style="stroke: #A80036; stroke-width: 1.5;" x1="46" x2="309" y1="164.9375" y2="164.9375"/><ellipse cx="56" cy="175.9375" fill="#84BE84" rx="3" ry="3" style="stroke: #038048; stroke-width: 1.0;"/><text fill="#000000" font-family="sans-serif" font-size="11" lengthAdjust="spacingAndGlyphs" textLength="100" x="65" y="179.1479">id(String): Builder</text><ellipse cx="56" cy="188.7422" fill="#84BE84" rx="3" ry="3" style="stroke: #038048; stroke-width: 1.0;"/><text fill="#000000" font-family="sans-serif" font-size="11" lengthAdjust="spacingAndGlyphs" textLength="178" x="65" y="191.9526">extension(Extension...): Builder</text><ellipse cx="56" cy="201.5469" fill="#84BE84" rx="3" ry="3" style="stroke: #038048; stroke-width: 1.0;"/><text fill="#000000" font-family="sans-serif" font-size="11" lengthAdjust="spacingAndGlyphs" textLength="239" x="65" y="204.7573">extension(Collection&lt;Extension&gt;): Builder</text><ellipse cx="56" cy="214.3516" fill="#84BE84" rx="3" ry="3" style="stroke: #038048; stroke-width: 1.0;"/><text fill="#000000" font-family="sans-serif" font-size="11" lengthAdjust="spacingAndGlyphs" textLength="154" x="65" y="217.562">contentType(Code): Builder</text><ellipse cx="56" cy="227.1563" fill="#84BE84" rx="3" ry="3" style="stroke: #038048; stroke-width: 1.0;"/><text fill="#000000" font-family="sans-serif" font-size="11" lengthAdjust="spacingAndGlyphs" textLength="137" x="65" y="230.3667">language(Code): Builder</text><ellipse cx="56" cy="239.9609" fill="#84BE84" rx="3" ry="3" style="stroke: #038048; stroke-width: 1.0;"/><text fill="#000000" font-family="sans-serif" font-size="11" lengthAdjust="spacingAndGlyphs" textLength="160" x="65" y="243.1714">data(Base64Binary): Builder</text><ellipse cx="56" cy="252.7656" fill="#84BE84" rx="3" ry="3" style="stroke: #038048; stroke-width: 1.0;"/><text fill="#000000" font-family="sans-serif" font-size="11" lengthAdjust="spacingAndGlyphs" textLength="87" x="65" y="255.9761">url(Url): Builder</text><ellipse cx="56" cy="265.5703" fill="#84BE84" rx="3" ry="3" style="stroke: #038048; stroke-width: 1.0;"/><text fill="#000000" font-family="sans-serif" font-size="11" lengthAdjust="spacingAndGlyphs" textLength="145" x="65" y="268.7808">size(UnsignedInt): Builder</text><ellipse cx="56" cy="278.375" fill="#84BE84" rx="3" ry="3" style="stroke: #038048; stroke-width: 1.0;"/><text fill="#000000" font-family="sans-serif" font-size="11" lengthAdjust="spacingAndGlyphs" textLength="163" x="65" y="281.5854">hash(Base64Binary): Builder</text><ellipse cx="56" cy="291.1797" fill="#84BE84" rx="3" ry="3" style="stroke: #038048; stroke-width: 1.0;"/><text fill="#000000" font-family="sans-serif" font-size="11" lengthAdjust="spacingAndGlyphs" textLength="111" x="65" y="294.3901">title(String): Builder</text><ellipse cx="56" cy="303.9844" fill="#84BE84" rx="3" ry="3" style="stroke: #038048; stroke-width: 1.0;"/><text fill="#000000" font-family="sans-serif" font-size="11" lengthAdjust="spacingAndGlyphs" textLength="156" x="65" y="307.1948">creation(DateTime): Builder</text><ellipse cx="56" cy="316.7891" fill="#84BE84" rx="3" ry="3" style="stroke: #038048; stroke-width: 1.0;"/><text fill="#000000" font-family="sans-serif" font-size="11" lengthAdjust="spacingAndGlyphs" textLength="107" x="65" y="319.9995">build(): Attachment</text><polygon fill="#FFFF44" points="56,324.5938,60,328.5938,56,332.5938,52,328.5938" style="stroke: #B38D22; stroke-width: 1.0;"/><text fill="#000000" font-family="sans-serif" font-size="11" lengthAdjust="spacingAndGlyphs" textLength="147" x="65" y="332.8042">from(Attachment): Builder</text></a><!--MD5=[6c9d770aceb90b1f2e4c908e25cc69b5]
class com.ibm.fhir.model.type.Element.Builder--><a href="Element.Builder.html" target="_top" title="Element.Builder.html" xlink:actuate="onRequest" xlink:href="Element.Builder.html" xlink:show="new" xlink:title="Element.Builder.html" xlink:type="simple"><rect fill="#FEFECE" filter="url(#f1753d83yb098s)" height="58.7422" id="com.ibm.fhir.model.type.Element.Builder" style="stroke: #A80036; stroke-width: 1.5;" width="155" x="6" y="8"/><ellipse cx="21" cy="26.9688" fill="#A9DCDF" rx="11" ry="11" style="stroke: #A80036; stroke-width: 1.0;"/><path d="M21.1094,22.3125 L19.9531,27.3906 L22.2813,27.3906 L21.1094,22.3125 Z M19.625,20.0781 L22.6094,20.0781 L25.9688,32.4688 L23.5156,32.4688 L22.75,29.4063 L19.4688,29.4063 L18.7188,32.4688 L16.2813,32.4688 L19.625,20.0781 Z "/><text fill="#000000" font-family="sans-serif" font-size="14" font-style="italic" lengthAdjust="spacingAndGlyphs" textLength="109" x="42" y="25.9951">Element.Builder</text><text fill="#000000" font-family="sans-serif" font-size="10" font-style="italic" lengthAdjust="spacingAndGlyphs" textLength="123" x="35" y="38.5791">com.ibm.fhir.model.type</text><line style="stroke: #A80036; stroke-width: 1.5;" x1="7" x2="160" y1="45.9375" y2="45.9375"/><ellipse cx="17" cy="56.9375" fill="#84BE84" rx="3" ry="3" style="stroke: #038048; stroke-width: 1.0;"/><text fill="#000000" font-family="sans-serif" font-size="11" font-style="italic" lengthAdjust="spacingAndGlyphs" textLength="89" x="26" y="60.1479">build(): Element</text></a><!--MD5=[c1017cfa7a843062caa6ed17ebb31297]
class com.ibm.fhir.model.type.Attachment--><a href="Attachment.html" target="_top" title="Attachment.html" xlink:actuate="onRequest" xlink:href="Attachment.html" xlink:show="new" xlink:title="Attachment.html" xlink:type="simple"><rect fill="#FEFECE" filter="url(#f1753d83yb098s)" height="37.9375" id="com.ibm.fhir.model.type.Attachment" style="stroke: #A80036; stroke-width: 1.5;" width="151" x="196" y="18.5"/><ellipse cx="211" cy="37.4688" fill="#ADD1B2" rx="11" ry="11" style="stroke: #A80036; stroke-width: 1.0;"/><path d="M213.9688,43.1094 Q213.3906,43.4063 212.75,43.5469 Q212.1094,43.7031 211.4063,43.7031 Q208.9063,43.7031 207.5781,42.0625 Q206.2656,40.4063 206.2656,37.2813 Q206.2656,34.1563 207.5781,32.5 Q208.9063,30.8438 211.4063,30.8438 Q212.1094,30.8438 212.75,31 Q213.4063,31.1563 213.9688,31.4531 L213.9688,34.1719 Q213.3438,33.5938 212.75,33.3281 Q212.1563,33.0469 211.5313,33.0469 Q210.1875,33.0469 209.5,34.125 Q208.8125,35.1875 208.8125,37.2813 Q208.8125,39.375 209.5,40.4531 Q210.1875,41.5156 211.5313,41.5156 Q212.1563,41.5156 212.75,41.25 Q213.3438,40.9688 213.9688,40.3906 L213.9688,43.1094 Z "/><text fill="#000000" font-family="sans-serif" font-size="14" lengthAdjust="spacingAndGlyphs" textLength="80" x="244.5" y="36.4951">Attachment</text><text fill="#000000" font-family="sans-serif" font-size="10" lengthAdjust="spacingAndGlyphs" textLength="119" x="225" y="49.0791">com.ibm.fhir.model.type</text></a><!--MD5=[e368d26e3a3ecba66c56b5ef0d4357a3]
reverse link com.ibm.fhir.model.type.Element.Builder to com.ibm.fhir.model.type.Attachment.Builder--><path d="M106.28,85.4 C112.41,98.01 119.29,112.17 126.29,126.59 " fill="none" id="com.ibm.fhir.model.type.Element.Builder&lt;-com.ibm.fhir.model.type.Attachment.Builder" style="stroke: #A80036; stroke-width: 1.0;"/><polygon fill="none" points="99.81,88.1,97.37,67.05,112.41,81.98,99.81,88.1" style="stroke: #A80036; stroke-width: 1.0;"/><!--MD5=[1c7c20ada142a52bdf80e4a2b0ba54a7]
reverse link com.ibm.fhir.model.type.Attachment to com.ibm.fhir.model.type.Attachment.Builder--><path d="M255.99,70.43 C248.31,86.24 238.55,106.32 228.55,126.91 " fill="none" id="com.ibm.fhir.model.type.Attachment&lt;-com.ibm.fhir.model.type.Attachment.Builder" style="stroke: #A80036; stroke-width: 1.0;"/><ellipse cx="259.1618" cy="63.8946" fill="#FFFFFF" rx="8" ry="8" style="stroke: #A80036; stroke-width: 1.0;"/><line style="stroke: #A80036; stroke-width: 1.0;" x1="255.6635" x2="262.66" y1="71.0892" y2="56.7"/><line style="stroke: #A80036; stroke-width: 1.0;" x1="251.9672" x2="266.3564" y1="60.3964" y2="67.3928"/><text fill="#888888" font-family="sans-serif" font-size="10" lengthAdjust="spacingAndGlyphs" textLength="186" x="89.5" y="358.2822">UMLDoclet 2.0.7, PlantUML 1.2019.12</text><!--MD5=[7f5463157747e07bb883df152e2ae6bc]
@startuml
    set namespaceSeparator none
    hide empty fields
    hide empty methods

    class "<size:14>Attachment.Builder\n<size:10>com.ibm.fhir.model.type" as com.ibm.fhir.model.type.Attachment.Builder [[Attachment.Builder.html]] {
        +id(String): Builder
        +extension(Extension...): Builder
        +extension(Collection<Extension>): Builder
        +contentType(Code): Builder
        +language(Code): Builder
        +data(Base64Binary): Builder
        +url(Url): Builder
        +size(UnsignedInt): Builder
        +hash(Base64Binary): Builder
        +title(String): Builder
        +creation(DateTime): Builder
        +build(): Attachment
        #from(Attachment): Builder
    }

    abstract class "<size:14>Element.Builder\n<size:10>com.ibm.fhir.model.type" as com.ibm.fhir.model.type.Element.Builder [[Element.Builder.html]] {
        {abstract} +build(): Element
    }
    class "<size:14>Attachment\n<size:10>com.ibm.fhir.model.type" as com.ibm.fhir.model.type.Attachment [[Attachment.html]]

    com.ibm.fhir.model.type.Element.Builder <|- - com.ibm.fhir.model.type.Attachment.Builder
    com.ibm.fhir.model.type.Attachment +- - com.ibm.fhir.model.type.Attachment.Builder

    center footer UMLDoclet 2.0.7, PlantUML 1.2019.12
@enduml

PlantUML version 1.2019.12(Sun Nov 03 10:24:54 UTC 2019)
(APACHE source distribution)
Java Runtime: OpenJDK Runtime Environment
JVM: OpenJDK 64-Bit Server VM
Java Version: 11.0.10+9
Operating System: Linux
Default Encoding: UTF-8
Language: en
Country: null
--></g></svg>