<?xml version="1.0" encoding="UTF-8" standalone="no"?><svg xmlns="http://www.w3.org/2000/svg" xmlns:xlink="http://www.w3.org/1999/xlink" contentScriptType="application/ecmascript" contentStyleType="text/css" height="303px" preserveAspectRatio="none" style="width:358px;height:303px;" version="1.1" viewBox="0 0 358 303" width="358px" zoomAndPan="magnify"><defs><filter height="300%" id="fvayd3wloqjy5" width="300%" x="-1" y="-1"><feGaussianBlur result="blurOut" stdDeviation="2.0"/><feColorMatrix in="blurOut" result="blurOut2" type="matrix" values="0 0 0 0 0 0 0 0 0 0 0 0 0 0 0 0 0 0 .4 0"/><feOffset dx="4.0" dy="4.0" in="blurOut2" result="blurOut3"/><feBlend in="SourceGraphic" in2="blurOut3" mode="normal"/></filter></defs><g><!--MD5=[ba752966f61c3812346ca16bc7e3f707]
class com.ibm.fhir.model.type.String.Builder--><a href="String.Builder.html" target="_top" title="String.Builder.html" xlink:actuate="onRequest" xlink:href="String.Builder.html" xlink:show="new" xlink:title="String.Builder.html" xlink:type="simple"><rect fill="#FEFECE" filter="url(#fvayd3wloqjy5)" height="143.5703" id="com.ibm.fhir.model.type.String.Builder" style="stroke: #A80036; stroke-width: 1.5;" width="265" x="45" y="127"/><ellipse cx="113.75" cy="145.9688" fill="#ADD1B2" rx="11" ry="11" style="stroke: #A80036; stroke-width: 1.0;"/><path d="M116.7188,151.6094 Q116.1406,151.9063 115.5,152.0469 Q114.8594,152.2031 114.1563,152.2031 Q111.6563,152.2031 110.3281,150.5625 Q109.0156,148.9063 109.0156,145.7813 Q109.0156,142.6563 110.3281,141 Q111.6563,139.3438 114.1563,139.3438 Q114.8594,139.3438 115.5,139.5 Q116.1563,139.6563 116.7188,139.9531 L116.7188,142.6719 Q116.0938,142.0938 115.5,141.8281 Q114.9063,141.5469 114.2813,141.5469 Q112.9375,141.5469 112.25,142.625 Q111.5625,143.6875 111.5625,145.7813 Q111.5625,147.875 112.25,148.9531 Q112.9375,150.0156 114.2813,150.0156 Q114.9063,150.0156 115.5,149.75 Q116.0938,149.4688 116.7188,148.8906 L116.7188,151.6094 Z "/><text fill="#000000" font-family="sans-serif" font-size="14" lengthAdjust="spacingAndGlyphs" textLength="92" x="147.75" y="144.9951">String.Builder</text><text fill="#000000" font-family="sans-serif" font-size="10" lengthAdjust="spacingAndGlyphs" textLength="119" x="134.25" y="157.5791">com.ibm.fhir.model.type</text><line style="stroke: #A80036; stroke-width: 1.5;" x1="46" x2="309" y1="164.9375" y2="164.9375"/><polygon fill="none" points="56,170.9375,60,174.9375,56,178.9375,52,174.9375" style="stroke: #B38D22; stroke-width: 1.0;"/><text fill="#000000" font-family="sans-serif" font-size="11" lengthAdjust="spacingAndGlyphs" textLength="72" x="65" y="179.1479">value: String</text><line style="stroke: #A80036; stroke-width: 1.5;" x1="46" x2="309" y1="185.7422" y2="185.7422"/><ellipse cx="56" cy="196.7422" fill="#84BE84" rx="3" ry="3" style="stroke: #038048; stroke-width: 1.0;"/><text fill="#000000" font-family="sans-serif" font-size="11" lengthAdjust="spacingAndGlyphs" textLength="100" x="65" y="199.9526">id(String): Builder</text><ellipse cx="56" cy="209.5469" fill="#84BE84" rx="3" ry="3" style="stroke: #038048; stroke-width: 1.0;"/><text fill="#000000" font-family="sans-serif" font-size="11" lengthAdjust="spacingAndGlyphs" textLength="178" x="65" y="212.7573">extension(Extension...): Builder</text><ellipse cx="56" cy="222.3516" fill="#84BE84" rx="3" ry="3" style="stroke: #038048; stroke-width: 1.0;"/><text fill="#000000" font-family="sans-serif" font-size="11" lengthAdjust="spacingAndGlyphs" textLength="239" x="65" y="225.562">extension(Collection&lt;Extension&gt;): Builder</text><ellipse cx="56" cy="235.1563" fill="#84BE84" rx="3" ry="3" style="stroke: #038048; stroke-width: 1.0;"/><text fill="#000000" font-family="sans-serif" font-size="11" lengthAdjust="spacingAndGlyphs" textLength="120" x="65" y="238.3667">value(String): Builder</text><ellipse cx="56" cy="247.9609" fill="#84BE84" rx="3" ry="3" style="stroke: #038048; stroke-width: 1.0;"/><text fill="#000000" font-family="sans-serif" font-size="11" lengthAdjust="spacingAndGlyphs" textLength="77" x="65" y="251.1714">build(): String</text><polygon fill="#FFFF44" points="56,255.7656,60,259.7656,56,263.7656,52,259.7656" style="stroke: #B38D22; stroke-width: 1.0;"/><text fill="#000000" font-family="sans-serif" font-size="11" lengthAdjust="spacingAndGlyphs" textLength="117" x="65" y="263.9761">from(String): Builder</text></a><!--MD5=[6c9d770aceb90b1f2e4c908e25cc69b5]
class com.ibm.fhir.model.type.Element.Builder--><a href="Element.Builder.html" target="_top" title="Element.Builder.html" xlink:actuate="onRequest" xlink:href="Element.Builder.html" xlink:show="new" xlink:title="Element.Builder.html" xlink:type="simple"><rect fill="#FEFECE" filter="url(#fvayd3wloqjy5)" height="58.7422" id="com.ibm.fhir.model.type.Element.Builder" style="stroke: #A80036; stroke-width: 1.5;" width="155" x="6" y="8"/><ellipse cx="21" cy="26.9688" fill="#A9DCDF" rx="11" ry="11" style="stroke: #A80036; stroke-width: 1.0;"/><path d="M21.1094,22.3125 L19.9531,27.3906 L22.2813,27.3906 L21.1094,22.3125 Z M19.625,20.0781 L22.6094,20.0781 L25.9688,32.4688 L23.5156,32.4688 L22.75,29.4063 L19.4688,29.4063 L18.7188,32.4688 L16.2813,32.4688 L19.625,20.0781 Z "/><text fill="#000000" font-family="sans-serif" font-size="14" font-style="italic" lengthAdjust="spacingAndGlyphs" textLength="109" x="42" y="25.9951">Element.Builder</text><text fill="#000000" font-family="sans-serif" font-size="10" font-style="italic" lengthAdjust="spacingAndGlyphs" textLength="123" x="35" y="38.5791">com.ibm.fhir.model.type</text><line style="stroke: #A80036; stroke-width: 1.5;" x1="7" x2="160" y1="45.9375" y2="45.9375"/><ellipse cx="17" cy="56.9375" fill="#84BE84" rx="3" ry="3" style="stroke: #038048; stroke-width: 1.0;"/><text fill="#000000" font-family="sans-serif" font-size="11" font-style="italic" lengthAdjust="spacingAndGlyphs" textLength="89" x="26" y="60.1479">build(): Element</text></a><!--MD5=[f865c62f5d922d623235a708e86cd742]
class com.ibm.fhir.model.type.String--><a href="String.html" target="_top" title="String.html" xlink:actuate="onRequest" xlink:href="String.html" xlink:show="new" xlink:title="String.html" xlink:type="simple"><rect fill="#FEFECE" filter="url(#fvayd3wloqjy5)" height="37.9375" id="com.ibm.fhir.model.type.String" style="stroke: #A80036; stroke-width: 1.5;" width="151" x="196" y="18.5"/><ellipse cx="211" cy="37.4688" fill="#ADD1B2" rx="11" ry="11" style="stroke: #A80036; stroke-width: 1.0;"/><path d="M213.9688,43.1094 Q213.3906,43.4063 212.75,43.5469 Q212.1094,43.7031 211.4063,43.7031 Q208.9063,43.7031 207.5781,42.0625 Q206.2656,40.4063 206.2656,37.2813 Q206.2656,34.1563 207.5781,32.5 Q208.9063,30.8438 211.4063,30.8438 Q212.1094,30.8438 212.75,31 Q213.4063,31.1563 213.9688,31.4531 L213.9688,34.1719 Q213.3438,33.5938 212.75,33.3281 Q212.1563,33.0469 211.5313,33.0469 Q210.1875,33.0469 209.5,34.125 Q208.8125,35.1875 208.8125,37.2813 Q208.8125,39.375 209.5,40.4531 Q210.1875,41.5156 211.5313,41.5156 Q212.1563,41.5156 212.75,41.25 Q213.3438,40.9688 213.9688,40.3906 L213.9688,43.1094 Z "/><text fill="#000000" font-family="sans-serif" font-size="14" lengthAdjust="spacingAndGlyphs" textLength="40" x="264.5" y="36.4951">String</text><text fill="#000000" font-family="sans-serif" font-size="10" lengthAdjust="spacingAndGlyphs" textLength="119" x="225" y="49.0791">com.ibm.fhir.model.type</text></a><!--MD5=[f883e48d6c402efc455e8649f6fef786]
reverse link com.ibm.fhir.model.type.Element.Builder to com.ibm.fhir.model.type.String.Builder--><path d="M110.63,84.53 C118.43,97.77 127.13,112.54 135.61,126.93 " fill="none" id="com.ibm.fhir.model.type.Element.Builder&lt;-com.ibm.fhir.model.type.String.Builder" style="stroke: #A80036; stroke-width: 1.0;"/><polygon fill="none" points="104.43,87.8,100.31,67.02,116.49,80.69,104.43,87.8" style="stroke: #A80036; stroke-width: 1.0;"/><!--MD5=[9ccbb9d85bea0702439d41210e94c3c7]
reverse link com.ibm.fhir.model.type.String to com.ibm.fhir.model.type.String.Builder--><path d="M252.99,69.91 C243.36,86.24 231.18,106.92 219.42,126.88 " fill="none" id="com.ibm.fhir.model.type.String&lt;-com.ibm.fhir.model.type.String.Builder" style="stroke: #A80036; stroke-width: 1.0;"/><ellipse cx="256.6512" cy="63.688" fill="#FFFFFF" rx="8" ry="8" style="stroke: #A80036; stroke-width: 1.0;"/><line style="stroke: #A80036; stroke-width: 1.0;" x1="252.5824" x2="260.72" y1="70.576" y2="56.8"/><line style="stroke: #A80036; stroke-width: 1.0;" x1="249.7632" x2="263.5392" y1="59.6192" y2="67.7568"/><text fill="#888888" font-family="sans-serif" font-size="10" lengthAdjust="spacingAndGlyphs" textLength="186" x="89.5" y="290.2822">UMLDoclet 2.0.7, PlantUML 1.2019.12</text><!--MD5=[7a21bb062a3a96fcd743483f6f670b2c]
@startuml
    set namespaceSeparator none
    hide empty fields
    hide empty methods

    class "<size:14>String.Builder\n<size:10>com.ibm.fhir.model.type" as com.ibm.fhir.model.type.String.Builder [[String.Builder.html]] {
        #value: String
        +id(String): Builder
        +extension(Extension...): Builder
        +extension(Collection<Extension>): Builder
        +value(String): Builder
        +build(): String
        #from(String): Builder
    }

    abstract class "<size:14>Element.Builder\n<size:10>com.ibm.fhir.model.type" as com.ibm.fhir.model.type.Element.Builder [[Element.Builder.html]] {
        {abstract} +build(): Element
    }
    class "<size:14>String\n<size:10>com.ibm.fhir.model.type" as com.ibm.fhir.model.type.String [[String.html]]

    com.ibm.fhir.model.type.Element.Builder <|- - com.ibm.fhir.model.type.String.Builder
    com.ibm.fhir.model.type.String +- - com.ibm.fhir.model.type.String.Builder

    center footer UMLDoclet 2.0.7, PlantUML 1.2019.12
@enduml

PlantUML version 1.2019.12(Sun Nov 03 10:24:54 UTC 2019)
(APACHE source distribution)
Java Runtime: OpenJDK Runtime Environment
JVM: OpenJDK 64-Bit Server VM
Java Version: 11.0.10+9
Operating System: Linux
Default Encoding: UTF-8
Language: en
Country: null
--></g></svg>