<?xml version="1.0" encoding="UTF-8" standalone="no"?><svg xmlns="http://www.w3.org/2000/svg" xmlns:xlink="http://www.w3.org/1999/xlink" contentScriptType="application/ecmascript" contentStyleType="text/css" height="359px" preserveAspectRatio="none" style="width:219px;height:359px;" version="1.1" viewBox="0 0 219 359" width="219px" zoomAndPan="magnify"><defs><filter height="300%" id="fj7zrvgm9cflt" width="300%" x="-1" y="-1"><feGaussianBlur result="blurOut" stdDeviation="2.0"/><feColorMatrix in="blurOut" result="blurOut2" type="matrix" values="0 0 0 0 0 0 0 0 0 0 0 0 0 0 0 0 0 0 .4 0"/><feOffset dx="4.0" dy="4.0" in="blurOut2" result="blurOut3"/><feBlend in="SourceGraphic" in2="blurOut3" mode="normal"/></filter></defs><g><!--MD5=[7d60a965d6bca3b22fa58ef068cc24dd]
class com.ibm.fhir.model.type.Url--><a href="Url.html" target="_top" title="Url.html" xlink:actuate="onRequest" xlink:href="Url.html" xlink:show="new" xlink:title="Url.html" xlink:type="simple"><rect fill="#FEFECE" filter="url(#fj7zrvgm9cflt)" height="122.7656" id="com.ibm.fhir.model.type.Url" style="stroke: #A80036; stroke-width: 1.5;" width="202" x="6" y="106"/><ellipse cx="43.95" cy="124.9688" fill="#ADD1B2" rx="11" ry="11" style="stroke: #A80036; stroke-width: 1.0;"/><path d="M46.9188,130.6094 Q46.3406,130.9063 45.7,131.0469 Q45.0594,131.2031 44.3563,131.2031 Q41.8563,131.2031 40.5281,129.5625 Q39.2156,127.9063 39.2156,124.7813 Q39.2156,121.6563 40.5281,120 Q41.8563,118.3438 44.3563,118.3438 Q45.0594,118.3438 45.7,118.5 Q46.3563,118.6563 46.9188,118.9531 L46.9188,121.6719 Q46.2938,121.0938 45.7,120.8281 Q45.1063,120.5469 44.4813,120.5469 Q43.1375,120.5469 42.45,121.625 Q41.7625,122.6875 41.7625,124.7813 Q41.7625,126.875 42.45,127.9531 Q43.1375,129.0156 44.4813,129.0156 Q45.1063,129.0156 45.7,128.75 Q46.2938,128.4688 46.9188,127.8906 L46.9188,130.6094 Z "/><text fill="#000000" font-family="sans-serif" font-size="14" lengthAdjust="spacingAndGlyphs" textLength="18" x="113.55" y="123.9951">Url</text><text fill="#000000" font-family="sans-serif" font-size="10" lengthAdjust="spacingAndGlyphs" textLength="119" x="63.05" y="136.5791">com.ibm.fhir.model.type</text><line style="stroke: #A80036; stroke-width: 1.5;" x1="7" x2="207" y1="143.9375" y2="143.9375"/><ellipse cx="17" cy="154.9375" fill="#84BE84" rx="3" ry="3" style="stroke: #038048; stroke-width: 1.0;"/><text fill="#000000" font-family="sans-serif" font-size="11" lengthAdjust="spacingAndGlyphs" textLength="113" x="26" y="158.1479">hasValue(): boolean</text><ellipse cx="17" cy="167.7422" fill="#84BE84" rx="3" ry="3" style="stroke: #038048; stroke-width: 1.0;"/><text fill="#000000" font-family="sans-serif" font-size="11" lengthAdjust="spacingAndGlyphs" text-decoration="underline" textLength="77" x="26" y="170.9526">of(String): Url</text><ellipse cx="17" cy="180.5469" fill="#84BE84" rx="3" ry="3" style="stroke: #038048; stroke-width: 1.0;"/><text fill="#000000" font-family="sans-serif" font-size="11" lengthAdjust="spacingAndGlyphs" text-decoration="underline" textLength="81" x="26" y="183.7573">uri(String): Uri</text><ellipse cx="17" cy="193.3516" fill="#84BE84" rx="3" ry="3" style="stroke: #038048; stroke-width: 1.0;"/><text fill="#000000" font-family="sans-serif" font-size="11" lengthAdjust="spacingAndGlyphs" textLength="176" x="26" y="196.562">accept(String, int, Visitor): void</text><ellipse cx="17" cy="206.1563" fill="#84BE84" rx="3" ry="3" style="stroke: #038048; stroke-width: 1.0;"/><text fill="#000000" font-family="sans-serif" font-size="11" lengthAdjust="spacingAndGlyphs" textLength="107" x="26" y="209.3667">toBuilder(): Builder</text><ellipse cx="17" cy="218.9609" fill="#84BE84" rx="3" ry="3" style="stroke: #038048; stroke-width: 1.0;"/><text fill="#000000" font-family="sans-serif" font-size="11" lengthAdjust="spacingAndGlyphs" text-decoration="underline" textLength="95" x="26" y="222.1714">builder(): Builder</text></a><!--MD5=[424d814311e5ddf06c176649ff564610]
class com.ibm.fhir.model.type.Uri--><a href="Uri.html" target="_top" title="Uri.html" xlink:actuate="onRequest" xlink:href="Uri.html" xlink:show="new" xlink:title="Uri.html" xlink:type="simple"><rect fill="#FEFECE" filter="url(#fj7zrvgm9cflt)" height="37.9375" id="com.ibm.fhir.model.type.Uri" style="stroke: #A80036; stroke-width: 1.5;" width="151" x="31.5" y="8"/><ellipse cx="46.5" cy="26.9688" fill="#ADD1B2" rx="11" ry="11" style="stroke: #A80036; stroke-width: 1.0;"/><path d="M49.4688,32.6094 Q48.8906,32.9063 48.25,33.0469 Q47.6094,33.2031 46.9063,33.2031 Q44.4063,33.2031 43.0781,31.5625 Q41.7656,29.9063 41.7656,26.7813 Q41.7656,23.6563 43.0781,22 Q44.4063,20.3438 46.9063,20.3438 Q47.6094,20.3438 48.25,20.5 Q48.9063,20.6563 49.4688,20.9531 L49.4688,23.6719 Q48.8438,23.0938 48.25,22.8281 Q47.6563,22.5469 47.0313,22.5469 Q45.6875,22.5469 45,23.625 Q44.3125,24.6875 44.3125,26.7813 Q44.3125,28.875 45,29.9531 Q45.6875,31.0156 47.0313,31.0156 Q47.6563,31.0156 48.25,30.75 Q48.8438,30.4688 49.4688,29.8906 L49.4688,32.6094 Z "/><text fill="#000000" font-family="sans-serif" font-size="14" lengthAdjust="spacingAndGlyphs" textLength="18" x="111" y="25.9951">Uri</text><text fill="#000000" font-family="sans-serif" font-size="10" lengthAdjust="spacingAndGlyphs" textLength="119" x="60.5" y="38.5791">com.ibm.fhir.model.type</text></a><!--MD5=[e5754cf88c0bb2906a2ccd055e23e76c]
class com.ibm.fhir.model.type.Url.Builder--><a href="Url.Builder.html" target="_top" title="Url.Builder.html" xlink:actuate="onRequest" xlink:href="Url.Builder.html" xlink:show="new" xlink:title="Url.Builder.html" xlink:type="simple"><rect fill="#FEFECE" filter="url(#fj7zrvgm9cflt)" height="37.9375" id="com.ibm.fhir.model.type.Url.Builder" style="stroke: #A80036; stroke-width: 1.5;" width="151" x="31.5" y="289"/><ellipse cx="46.5" cy="307.9688" fill="#ADD1B2" rx="11" ry="11" style="stroke: #A80036; stroke-width: 1.0;"/><path d="M49.4688,313.6094 Q48.8906,313.9063 48.25,314.0469 Q47.6094,314.2031 46.9063,314.2031 Q44.4063,314.2031 43.0781,312.5625 Q41.7656,310.9063 41.7656,307.7813 Q41.7656,304.6563 43.0781,303 Q44.4063,301.3438 46.9063,301.3438 Q47.6094,301.3438 48.25,301.5 Q48.9063,301.6563 49.4688,301.9531 L49.4688,304.6719 Q48.8438,304.0938 48.25,303.8281 Q47.6563,303.5469 47.0313,303.5469 Q45.6875,303.5469 45,304.625 Q44.3125,305.6875 44.3125,307.7813 Q44.3125,309.875 45,310.9531 Q45.6875,312.0156 47.0313,312.0156 Q47.6563,312.0156 48.25,311.75 Q48.8438,311.4688 49.4688,310.8906 L49.4688,313.6094 Z "/><text fill="#000000" font-family="sans-serif" font-size="14" lengthAdjust="spacingAndGlyphs" textLength="70" x="85" y="306.9951">Url.Builder</text><text fill="#000000" font-family="sans-serif" font-size="10" lengthAdjust="spacingAndGlyphs" textLength="119" x="60.5" y="319.5791">com.ibm.fhir.model.type</text></a><!--MD5=[6fe77acead8109496b2d9ad076317847]
reverse link com.ibm.fhir.model.type.Uri to com.ibm.fhir.model.type.Url--><path d="M107,66.43 C107,78.6 107,92.36 107,105.7 " fill="none" id="com.ibm.fhir.model.type.Uri&lt;-com.ibm.fhir.model.type.Url" style="stroke: #A80036; stroke-width: 1.0;"/><polygon fill="none" points="100,66.11,107,46.11,114,66.11,100,66.11" style="stroke: #A80036; stroke-width: 1.0;"/><!--MD5=[c7f712cfd76556a208c7c9a3507059ee]
reverse link com.ibm.fhir.model.type.Url to com.ibm.fhir.model.type.Url.Builder--><path d="M107,244.3 C107,261.01 107,277.21 107,288.96 " fill="none" id="com.ibm.fhir.model.type.Url&lt;-com.ibm.fhir.model.type.Url.Builder" style="stroke: #A80036; stroke-width: 1.0;"/><ellipse cx="107" cy="237.25" fill="#FFFFFF" rx="8" ry="8" style="stroke: #A80036; stroke-width: 1.0;"/><line style="stroke: #A80036; stroke-width: 1.0;" x1="107" x2="107" y1="245.25" y2="229.25"/><line style="stroke: #A80036; stroke-width: 1.0;" x1="99" x2="115" y1="237.25" y2="237.25"/><text fill="#888888" font-family="sans-serif" font-size="10" lengthAdjust="spacingAndGlyphs" textLength="186" x="20" y="346.2822">UMLDoclet 2.0.7, PlantUML 1.2019.12</text><!--MD5=[5f20ef9509aa1d9f900e4033391fcc65]
@startuml
    set namespaceSeparator none
    hide empty fields
    hide empty methods

    class "<size:14>Url\n<size:10>com.ibm.fhir.model.type" as com.ibm.fhir.model.type.Url [[Url.html]] {
        +hasValue(): boolean
        {static} +of(String): Url
        {static} +uri(String): Uri
        +accept(String, int, Visitor): void
        +toBuilder(): Builder
        {static} +builder(): Builder
    }

    class "<size:14>Uri\n<size:10>com.ibm.fhir.model.type" as com.ibm.fhir.model.type.Uri [[Uri.html]]
    class "<size:14>Url.Builder\n<size:10>com.ibm.fhir.model.type" as com.ibm.fhir.model.type.Url.Builder [[Url.Builder.html]]

    com.ibm.fhir.model.type.Uri <|- - com.ibm.fhir.model.type.Url
    com.ibm.fhir.model.type.Url +- - com.ibm.fhir.model.type.Url.Builder

    center footer UMLDoclet 2.0.7, PlantUML 1.2019.12
@enduml

PlantUML version 1.2019.12(Sun Nov 03 10:24:54 UTC 2019)
(APACHE source distribution)
Java Runtime: OpenJDK Runtime Environment
JVM: OpenJDK 64-Bit Server VM
Java Version: 11.0.10+9
Operating System: Linux
Default Encoding: UTF-8
Language: en
Country: null
--></g></svg>