<?xml version="1.0" encoding="UTF-8" standalone="no"?><svg xmlns="http://www.w3.org/2000/svg" xmlns:xlink="http://www.w3.org/1999/xlink" contentScriptType="application/ecmascript" contentStyleType="text/css" height="414px" preserveAspectRatio="none" style="width:352px;height:414px;" version="1.1" viewBox="0 0 352 414" width="352px" zoomAndPan="magnify"><defs><filter height="300%" id="f82ir6vyz05m7" width="300%" x="-1" y="-1"><feGaussianBlur result="blurOut" stdDeviation="2.0"/><feColorMatrix in="blurOut" result="blurOut2" type="matrix" values="0 0 0 0 0 0 0 0 0 0 0 0 0 0 0 0 0 0 .4 0"/><feOffset dx="4.0" dy="4.0" in="blurOut2" result="blurOut3"/><feBlend in="SourceGraphic" in2="blurOut3" mode="normal"/></filter></defs><g><!--MD5=[d9cb9ea75b4a7b054453eb7ccf56d031]
class com.ibm.fhir.model.type.Address.Builder--><a href="Address.Builder.html" target="_top" title="Address.Builder.html" xlink:actuate="onRequest" xlink:href="Address.Builder.html" xlink:show="new" xlink:title="Address.Builder.html" xlink:type="simple"><rect fill="#FEFECE" filter="url(#f82ir6vyz05m7)" height="253.5469" id="com.ibm.fhir.model.type.Address.Builder" style="stroke: #A80036; stroke-width: 1.5;" width="255" x="45.5" y="127"/><ellipse cx="109.75" cy="146.1328" fill="#ADD1B2" rx="11" ry="11" style="stroke: #A80036; stroke-width: 1.0;"/><path d="M112.2231,152.2759 Q111.6421,152.5747 111.0029,152.7241 Q110.3638,152.8735 109.6582,152.8735 Q107.1514,152.8735 105.8315,151.2217 Q104.5117,149.5698 104.5117,146.4487 Q104.5117,143.3193 105.8315,141.6675 Q107.1514,140.0156 109.6582,140.0156 Q110.3638,140.0156 111.0112,140.165 Q111.6587,140.3145 112.2231,140.6133 L112.2231,143.3359 Q111.5923,142.7549 110.9988,142.4851 Q110.4053,142.2153 109.7744,142.2153 Q108.4297,142.2153 107.7449,143.282 Q107.0601,144.3486 107.0601,146.4487 Q107.0601,148.5405 107.7449,149.6072 Q108.4297,150.6738 109.7744,150.6738 Q110.4053,150.6738 110.9988,150.4041 Q111.5923,150.1343 112.2231,149.5532 Z "/><text fill="#000000" font-family="sans-serif" font-size="14" lengthAdjust="spacingAndGlyphs" textLength="108" x="135.25" y="145.5352">Address.Builder</text><text fill="#000000" font-family="sans-serif" font-size="10" lengthAdjust="spacingAndGlyphs" textLength="118" x="130.25" y="158.1563">com.ibm.fhir.model.type</text><line style="stroke: #A80036; stroke-width: 1.5;" x1="46.5" x2="299.5" y1="165.2656" y2="165.2656"/><ellipse cx="56.5" cy="176.2656" fill="#84BE84" rx="3" ry="3" style="stroke: #038048; stroke-width: 1.0;"/><text fill="#000000" font-family="sans-serif" font-size="11" lengthAdjust="spacingAndGlyphs" textLength="93" x="65.5" y="179.9004">id(String): Builder</text><ellipse cx="56.5" cy="189.2207" fill="#84BE84" rx="3" ry="3" style="stroke: #038048; stroke-width: 1.0;"/><text fill="#000000" font-family="sans-serif" font-size="11" lengthAdjust="spacingAndGlyphs" textLength="166" x="65.5" y="192.8555">extension(Extension...): Builder</text><ellipse cx="56.5" cy="202.1758" fill="#84BE84" rx="3" ry="3" style="stroke: #038048; stroke-width: 1.0;"/><text fill="#000000" font-family="sans-serif" font-size="11" lengthAdjust="spacingAndGlyphs" textLength="229" x="65.5" y="205.8105">extension(Collection&lt;Extension&gt;): Builder</text><ellipse cx="56.5" cy="215.1309" fill="#84BE84" rx="3" ry="3" style="stroke: #038048; stroke-width: 1.0;"/><text fill="#000000" font-family="sans-serif" font-size="11" lengthAdjust="spacingAndGlyphs" textLength="135" x="65.5" y="218.7656">use(AddressUse): Builder</text><ellipse cx="56.5" cy="228.0859" fill="#84BE84" rx="3" ry="3" style="stroke: #038048; stroke-width: 1.0;"/><text fill="#000000" font-family="sans-serif" font-size="11" lengthAdjust="spacingAndGlyphs" textLength="145" x="65.5" y="231.7207">type(AddressType): Builder</text><ellipse cx="56.5" cy="241.041" fill="#84BE84" rx="3" ry="3" style="stroke: #038048; stroke-width: 1.0;"/><text fill="#000000" font-family="sans-serif" font-size="11" lengthAdjust="spacingAndGlyphs" textLength="104" x="65.5" y="244.6758">text(String): Builder</text><ellipse cx="56.5" cy="253.9961" fill="#84BE84" rx="3" ry="3" style="stroke: #038048; stroke-width: 1.0;"/><text fill="#000000" font-family="sans-serif" font-size="11" lengthAdjust="spacingAndGlyphs" textLength="111" x="65.5" y="257.6309">line(String...): Builder</text><ellipse cx="56.5" cy="266.9512" fill="#84BE84" rx="3" ry="3" style="stroke: #038048; stroke-width: 1.0;"/><text fill="#000000" font-family="sans-serif" font-size="11" lengthAdjust="spacingAndGlyphs" textLength="174" x="65.5" y="270.5859">line(Collection&lt;String&gt;): Builder</text><ellipse cx="56.5" cy="279.9063" fill="#84BE84" rx="3" ry="3" style="stroke: #038048; stroke-width: 1.0;"/><text fill="#000000" font-family="sans-serif" font-size="11" lengthAdjust="spacingAndGlyphs" textLength="102" x="65.5" y="283.541">city(String): Builder</text><ellipse cx="56.5" cy="292.8613" fill="#84BE84" rx="3" ry="3" style="stroke: #038048; stroke-width: 1.0;"/><text fill="#000000" font-family="sans-serif" font-size="11" lengthAdjust="spacingAndGlyphs" textLength="121" x="65.5" y="296.4961">district(String): Builder</text><ellipse cx="56.5" cy="305.8164" fill="#84BE84" rx="3" ry="3" style="stroke: #038048; stroke-width: 1.0;"/><text fill="#000000" font-family="sans-serif" font-size="11" lengthAdjust="spacingAndGlyphs" textLength="109" x="65.5" y="309.4512">state(String): Builder</text><ellipse cx="56.5" cy="318.7715" fill="#84BE84" rx="3" ry="3" style="stroke: #038048; stroke-width: 1.0;"/><text fill="#000000" font-family="sans-serif" font-size="11" lengthAdjust="spacingAndGlyphs" textLength="144" x="65.5" y="322.4063">postalCode(String): Builder</text><ellipse cx="56.5" cy="331.7266" fill="#84BE84" rx="3" ry="3" style="stroke: #038048; stroke-width: 1.0;"/><text fill="#000000" font-family="sans-serif" font-size="11" lengthAdjust="spacingAndGlyphs" textLength="125" x="65.5" y="335.3613">country(String): Builder</text><ellipse cx="56.5" cy="344.6816" fill="#84BE84" rx="3" ry="3" style="stroke: #038048; stroke-width: 1.0;"/><text fill="#000000" font-family="sans-serif" font-size="11" lengthAdjust="spacingAndGlyphs" textLength="120" x="65.5" y="348.3164">period(Period): Builder</text><ellipse cx="56.5" cy="357.6367" fill="#84BE84" rx="3" ry="3" style="stroke: #038048; stroke-width: 1.0;"/><text fill="#000000" font-family="sans-serif" font-size="11" lengthAdjust="spacingAndGlyphs" textLength="86" x="65.5" y="361.2715">build(): Address</text><polygon fill="#FFFF44" points="56.5,365.5918,60.5,369.5918,56.5,373.5918,52.5,369.5918" style="stroke: #B38D22; stroke-width: 1.0;"/><text fill="#000000" font-family="sans-serif" font-size="11" lengthAdjust="spacingAndGlyphs" textLength="122" x="65.5" y="374.2266">from(Address): Builder</text></a><!--MD5=[6c9d770aceb90b1f2e4c908e25cc69b5]
class com.ibm.fhir.model.type.Element.Builder--><a href="Element.Builder.html" target="_top" title="Element.Builder.html" xlink:actuate="onRequest" xlink:href="Element.Builder.html" xlink:show="new" xlink:title="Element.Builder.html" xlink:type="simple"><rect fill="#FEFECE" filter="url(#f82ir6vyz05m7)" height="59.2207" id="com.ibm.fhir.model.type.Element.Builder" style="stroke: #A80036; stroke-width: 1.5;" width="150" x="6" y="8"/><ellipse cx="21" cy="27.1328" fill="#A9DCDF" rx="11" ry="11" style="stroke: #A80036; stroke-width: 1.0;"/><path d="M21.1133,22.731 L19.9595,27.8027 L22.2754,27.8027 Z M19.6191,20.4897 L22.6157,20.4897 L25.9609,32.8828 L23.5122,32.8828 L22.7485,29.8198 L19.4697,29.8198 L18.7227,32.8828 L16.2739,32.8828 Z "/><text fill="#000000" font-family="sans-serif" font-size="14" font-style="italic" lengthAdjust="spacingAndGlyphs" textLength="107" x="40.5" y="26.5352">Element.Builder</text><text fill="#000000" font-family="sans-serif" font-size="10" font-style="italic" lengthAdjust="spacingAndGlyphs" textLength="118" x="35" y="39.1563">com.ibm.fhir.model.type</text><line style="stroke: #A80036; stroke-width: 1.5;" x1="7" x2="155" y1="46.2656" y2="46.2656"/><ellipse cx="17" cy="57.2656" fill="#84BE84" rx="3" ry="3" style="stroke: #038048; stroke-width: 1.0;"/><text fill="#000000" font-family="sans-serif" font-size="11" font-style="italic" lengthAdjust="spacingAndGlyphs" textLength="83" x="26" y="60.9004">build(): Element</text></a><!--MD5=[64ae3e3ad8d57359559a2465736daf25]
class com.ibm.fhir.model.type.Address--><a href="Address.html" target="_top" title="Address.html" xlink:actuate="onRequest" xlink:href="Address.html" xlink:show="new" xlink:title="Address.html" xlink:type="simple"><rect fill="#FEFECE" filter="url(#f82ir6vyz05m7)" height="38.2656" id="com.ibm.fhir.model.type.Address" style="stroke: #A80036; stroke-width: 1.5;" width="150" x="191" y="18.5"/><ellipse cx="206" cy="37.6328" fill="#ADD1B2" rx="11" ry="11" style="stroke: #A80036; stroke-width: 1.0;"/><path d="M208.4731,43.7759 Q207.8921,44.0747 207.2529,44.2241 Q206.6138,44.3735 205.9082,44.3735 Q203.4014,44.3735 202.0815,42.7217 Q200.7617,41.0698 200.7617,37.9487 Q200.7617,34.8193 202.0815,33.1675 Q203.4014,31.5156 205.9082,31.5156 Q206.6138,31.5156 207.2612,31.665 Q207.9087,31.8145 208.4731,32.1133 L208.4731,34.8359 Q207.8423,34.2549 207.2488,33.9851 Q206.6553,33.7153 206.0244,33.7153 Q204.6797,33.7153 203.9949,34.782 Q203.3101,35.8486 203.3101,37.9487 Q203.3101,40.0405 203.9949,41.1072 Q204.6797,42.1738 206.0244,42.1738 Q206.6553,42.1738 207.2488,41.9041 Q207.8423,41.6343 208.4731,41.0532 Z "/><text fill="#000000" font-family="sans-serif" font-size="14" lengthAdjust="spacingAndGlyphs" textLength="56" x="251" y="37.0352">Address</text><text fill="#000000" font-family="sans-serif" font-size="10" lengthAdjust="spacingAndGlyphs" textLength="118" x="220" y="49.6563">com.ibm.fhir.model.type</text></a><!--MD5=[10a7072b896279f65486bf32a0178de3]
reverse link com.ibm.fhir.model.type.Element.Builder to com.ibm.fhir.model.type.Address.Builder--><path d="M101.5342,85.8224 C106.8112,98.2404 112.7409,112.1947 118.8696,126.617 " fill="none" id="com.ibm.fhir.model.type.Element.Builder&lt;-com.ibm.fhir.model.type.Address.Builder" style="stroke: #A80036; stroke-width: 1.0;"/><polygon fill="none" points="94.9788,88.2941,93.5993,67.1494,107.8637,82.8188,94.9788,88.2941" style="stroke: #A80036; stroke-width: 1.0;"/><!--MD5=[0e6b7d0369170ebc8ec1d39ee39daad8]
reverse link com.ibm.fhir.model.type.Address to com.ibm.fhir.model.type.Address.Builder--><path d="M251.6595,70.8842 C244.9359,86.5363 236.4543,106.2811 227.5671,126.9701 " fill="none" id="com.ibm.fhir.model.type.Address&lt;-com.ibm.fhir.model.type.Address.Builder" style="stroke: #A80036; stroke-width: 1.0;"/><ellipse cx="254.5894" cy="64.0634" fill="#FFFFFF" rx="8" ry="8" style="stroke: #A80036; stroke-width: 1.0;"/><line style="stroke: #A80036; stroke-width: 1.0;" x1="251.4318" x2="257.7469" y1="71.4139" y2="56.7129"/><line style="stroke: #A80036; stroke-width: 1.0;" x1="247.2389" x2="261.9399" y1="60.9059" y2="67.2209"/><text fill="#888888" font-family="sans-serif" font-size="10" lengthAdjust="spacingAndGlyphs" textLength="182" x="88.5" y="400.668">UMLDoclet 2.0.7, PlantUML 1.2019.12</text><!--MD5=[a346741cbe137dd32e39f6bb04c24c64]
@startuml
    set namespaceSeparator none
    hide empty fields
    hide empty methods

    class "<size:14>Address.Builder\n<size:10>com.ibm.fhir.model.type" as com.ibm.fhir.model.type.Address.Builder [[Address.Builder.html]] {
        +id(String): Builder
        +extension(Extension...): Builder
        +extension(Collection<Extension>): Builder
        +use(AddressUse): Builder
        +type(AddressType): Builder
        +text(String): Builder
        +line(String...): Builder
        +line(Collection<String>): Builder
        +city(String): Builder
        +district(String): Builder
        +state(String): Builder
        +postalCode(String): Builder
        +country(String): Builder
        +period(Period): Builder
        +build(): Address
        #from(Address): Builder
    }

    abstract class "<size:14>Element.Builder\n<size:10>com.ibm.fhir.model.type" as com.ibm.fhir.model.type.Element.Builder [[Element.Builder.html]] {
        {abstract} +build(): Element
    }
    class "<size:14>Address\n<size:10>com.ibm.fhir.model.type" as com.ibm.fhir.model.type.Address [[Address.html]]

    com.ibm.fhir.model.type.Element.Builder <|- - com.ibm.fhir.model.type.Address.Builder
    com.ibm.fhir.model.type.Address +- - com.ibm.fhir.model.type.Address.Builder

    center footer UMLDoclet 2.0.7, PlantUML 1.2019.12
@enduml

PlantUML version 1.2019.12(Sun Nov 03 05:24:54 EST 2019)
(APACHE source distribution)
Java Runtime: OpenJDK Runtime Environment
JVM: OpenJDK 64-Bit Server VM
Java Version: 11.0.4+11
Operating System: Mac OS X
Default Encoding: UTF-8
Language: en
Country: US
--></g></svg>