<?xml version="1.0" encoding="UTF-8" standalone="no"?><svg xmlns="http://www.w3.org/2000/svg" xmlns:xlink="http://www.w3.org/1999/xlink" contentScriptType="application/ecmascript" contentStyleType="text/css" height="395px" preserveAspectRatio="none" style="width:359px;height:395px;" version="1.1" viewBox="0 0 359 395" width="359px" zoomAndPan="magnify"><defs><filter height="300%" id="f1hbq94vkuyue7" width="300%" x="-1" y="-1"><feGaussianBlur result="blurOut" stdDeviation="2.0"/><feColorMatrix in="blurOut" result="blurOut2" type="matrix" values="0 0 0 0 0 0 0 0 0 0 0 0 0 0 0 0 0 0 .4 0"/><feOffset dx="4.0" dy="4.0" in="blurOut2" result="blurOut3"/><feBlend in="SourceGraphic" in2="blurOut3" mode="normal"/></filter></defs><g><!--MD5=[9b3dbf28208a7ab21b8233f49c4d30b3]
class com.ibm.fhir.model.type.ElementDefinition.Base--><a href="ElementDefinition.Base.html" target="_top" title="ElementDefinition.Base.html" xlink:actuate="onRequest" xlink:href="ElementDefinition.Base.html" xlink:show="new" xlink:title="ElementDefinition.Base.html" xlink:type="simple"><rect fill="#FEFECE" filter="url(#f1hbq94vkuyue7)" height="136.9512" id="com.ibm.fhir.model.type.ElementDefinition.Base" style="stroke: #A80036; stroke-width: 1.5;" width="191" x="81" y="127"/><ellipse cx="96.9" cy="146.1328" fill="#ADD1B2" rx="11" ry="11" style="stroke: #A80036; stroke-width: 1.0;"/><path d="M99.3731,152.2759 Q98.7921,152.5747 98.1529,152.7241 Q97.5138,152.8735 96.8082,152.8735 Q94.3014,152.8735 92.9815,151.2217 Q91.6617,149.5698 91.6617,146.4487 Q91.6617,143.3193 92.9815,141.6675 Q94.3014,140.0156 96.8082,140.0156 Q97.5138,140.0156 98.1612,140.165 Q98.8087,140.3145 99.3731,140.6133 L99.3731,143.3359 Q98.7423,142.7549 98.1488,142.4851 Q97.5553,142.2153 96.9244,142.2153 Q95.5797,142.2153 94.8949,143.282 Q94.2101,144.3486 94.2101,146.4487 Q94.2101,148.5405 94.8949,149.6072 Q95.5797,150.6738 96.9244,150.6738 Q97.5553,150.6738 98.1488,150.4041 Q98.7423,150.1343 99.3731,149.5532 Z "/><text fill="#000000" font-family="sans-serif" font-size="14" lengthAdjust="spacingAndGlyphs" textLength="157" x="111.1" y="145.5352">ElementDefinition.Base</text><text fill="#000000" font-family="sans-serif" font-size="10" lengthAdjust="spacingAndGlyphs" textLength="118" x="130.6" y="158.1563">com.ibm.fhir.model.type</text><line style="stroke: #A80036; stroke-width: 1.5;" x1="82" x2="271" y1="165.2656" y2="165.2656"/><ellipse cx="92" cy="176.2656" fill="#84BE84" rx="3" ry="3" style="stroke: #038048; stroke-width: 1.0;"/><text fill="#000000" font-family="sans-serif" font-size="11" lengthAdjust="spacingAndGlyphs" textLength="86" x="101" y="179.9004">getPath(): String</text><ellipse cx="92" cy="189.2207" fill="#84BE84" rx="3" ry="3" style="stroke: #038048; stroke-width: 1.0;"/><text fill="#000000" font-family="sans-serif" font-size="11" lengthAdjust="spacingAndGlyphs" textLength="115" x="101" y="192.8555">getMin(): UnsignedInt</text><ellipse cx="92" cy="202.1758" fill="#84BE84" rx="3" ry="3" style="stroke: #038048; stroke-width: 1.0;"/><text fill="#000000" font-family="sans-serif" font-size="11" lengthAdjust="spacingAndGlyphs" textLength="85" x="101" y="205.8105">getMax(): String</text><ellipse cx="92" cy="215.1309" fill="#84BE84" rx="3" ry="3" style="stroke: #038048; stroke-width: 1.0;"/><text fill="#000000" font-family="sans-serif" font-size="11" lengthAdjust="spacingAndGlyphs" textLength="122" x="101" y="218.7656">hasChildren(): boolean</text><ellipse cx="92" cy="228.0859" fill="#84BE84" rx="3" ry="3" style="stroke: #038048; stroke-width: 1.0;"/><text fill="#000000" font-family="sans-serif" font-size="11" lengthAdjust="spacingAndGlyphs" textLength="165" x="101" y="231.7207">accept(String, int, Visitor): void</text><ellipse cx="92" cy="241.041" fill="#84BE84" rx="3" ry="3" style="stroke: #038048; stroke-width: 1.0;"/><text fill="#000000" font-family="sans-serif" font-size="11" lengthAdjust="spacingAndGlyphs" textLength="99" x="101" y="244.6758">toBuilder(): Builder</text><ellipse cx="92" cy="253.9961" fill="#84BE84" rx="3" ry="3" style="stroke: #038048; stroke-width: 1.0;"/><text fill="#000000" font-family="sans-serif" font-size="11" lengthAdjust="spacingAndGlyphs" text-decoration="underline" textLength="89" x="101" y="257.6309">builder(): Builder</text></a><!--MD5=[efbff6997283c56b83e991a8eeb6a60a]
class com.ibm.fhir.model.type.BackboneElement--><a href="BackboneElement.html" target="_top" title="BackboneElement.html" xlink:actuate="onRequest" xlink:href="BackboneElement.html" xlink:show="new" xlink:title="BackboneElement.html" xlink:type="simple"><rect fill="#FEFECE" filter="url(#f1hbq94vkuyue7)" height="59.2207" id="com.ibm.fhir.model.type.BackboneElement" style="stroke: #A80036; stroke-width: 1.5;" width="153" x="6" y="8"/><ellipse cx="21" cy="27.1328" fill="#A9DCDF" rx="11" ry="11" style="stroke: #A80036; stroke-width: 1.0;"/><path d="M21.1133,22.731 L19.9595,27.8027 L22.2754,27.8027 Z M19.6191,20.4897 L22.6157,20.4897 L25.9609,32.8828 L23.5122,32.8828 L22.7485,29.8198 L19.4697,29.8198 L18.7227,32.8828 L16.2739,32.8828 Z "/><text fill="#000000" font-family="sans-serif" font-size="14" font-style="italic" lengthAdjust="spacingAndGlyphs" textLength="121" x="35" y="26.5352">BackboneElement</text><text fill="#000000" font-family="sans-serif" font-size="10" font-style="italic" lengthAdjust="spacingAndGlyphs" textLength="118" x="36.5" y="39.1563">com.ibm.fhir.model.type</text><line style="stroke: #A80036; stroke-width: 1.5;" x1="7" x2="158" y1="46.2656" y2="46.2656"/><ellipse cx="17" cy="57.2656" fill="#84BE84" rx="3" ry="3" style="stroke: #038048; stroke-width: 1.0;"/><text fill="#000000" font-family="sans-serif" font-size="11" font-style="italic" lengthAdjust="spacingAndGlyphs" textLength="99" x="26" y="60.9004">toBuilder(): Builder</text></a><!--MD5=[0e9009ff9d027e0a8f737e00d17a6eb8]
class com.ibm.fhir.model.type.ElementDefinition--><a href="ElementDefinition.html" target="_top" title="ElementDefinition.html" xlink:actuate="onRequest" xlink:href="ElementDefinition.html" xlink:show="new" xlink:title="ElementDefinition.html" xlink:type="simple"><rect fill="#FEFECE" filter="url(#f1hbq94vkuyue7)" height="38.2656" id="com.ibm.fhir.model.type.ElementDefinition" style="stroke: #A80036; stroke-width: 1.5;" width="154" x="194.5" y="18.5"/><ellipse cx="209.5" cy="37.6328" fill="#ADD1B2" rx="11" ry="11" style="stroke: #A80036; stroke-width: 1.0;"/><path d="M211.9731,43.7759 Q211.3921,44.0747 210.7529,44.2241 Q210.1138,44.3735 209.4082,44.3735 Q206.9014,44.3735 205.5815,42.7217 Q204.2617,41.0698 204.2617,37.9487 Q204.2617,34.8193 205.5815,33.1675 Q206.9014,31.5156 209.4082,31.5156 Q210.1138,31.5156 210.7612,31.665 Q211.4087,31.8145 211.9731,32.1133 L211.9731,34.8359 Q211.3423,34.2549 210.7488,33.9851 Q210.1553,33.7153 209.5244,33.7153 Q208.1797,33.7153 207.4949,34.782 Q206.8101,35.8486 206.8101,37.9487 Q206.8101,40.0405 207.4949,41.1072 Q208.1797,42.1738 209.5244,42.1738 Q210.1553,42.1738 210.7488,41.9041 Q211.3423,41.6343 211.9731,41.0532 Z "/><text fill="#000000" font-family="sans-serif" font-size="14" lengthAdjust="spacingAndGlyphs" textLength="122" x="223.5" y="37.0352">ElementDefinition</text><text fill="#000000" font-family="sans-serif" font-size="10" lengthAdjust="spacingAndGlyphs" textLength="118" x="225.5" y="49.6563">com.ibm.fhir.model.type</text></a><!--MD5=[576a28caab40e37ffe9b88ce00509cf7]
class com.ibm.fhir.model.type.ElementDefinition.Base.Builder--><a href="ElementDefinition.Base.Builder.html" target="_top" title="ElementDefinition.Base.Builder.html" xlink:actuate="onRequest" xlink:href="ElementDefinition.Base.Builder.html" xlink:show="new" xlink:title="ElementDefinition.Base.Builder.html" xlink:type="simple"><rect fill="#FEFECE" filter="url(#f1hbq94vkuyue7)" height="38.2656" id="com.ibm.fhir.model.type.ElementDefinition.Base.Builder" style="stroke: #A80036; stroke-width: 1.5;" width="241" x="56" y="324"/><ellipse cx="71" cy="343.1328" fill="#ADD1B2" rx="11" ry="11" style="stroke: #A80036; stroke-width: 1.0;"/><path d="M73.4731,349.2759 Q72.8921,349.5747 72.2529,349.7241 Q71.6138,349.8735 70.9082,349.8735 Q68.4014,349.8735 67.0815,348.2217 Q65.7617,346.5698 65.7617,343.4487 Q65.7617,340.3193 67.0815,338.6675 Q68.4014,337.0156 70.9082,337.0156 Q71.6138,337.0156 72.2612,337.165 Q72.9087,337.3145 73.4731,337.6133 L73.4731,340.3359 Q72.8423,339.7549 72.2488,339.4851 Q71.6553,339.2153 71.0244,339.2153 Q69.6797,339.2153 68.9949,340.282 Q68.3101,341.3486 68.3101,343.4487 Q68.3101,345.5405 68.9949,346.6072 Q69.6797,347.6738 71.0244,347.6738 Q71.6553,347.6738 72.2488,347.4041 Q72.8423,347.1343 73.4731,346.5532 Z "/><text fill="#000000" font-family="sans-serif" font-size="14" lengthAdjust="spacingAndGlyphs" textLength="209" x="85" y="342.5352">ElementDefinition.Base.Builder</text><text fill="#000000" font-family="sans-serif" font-size="10" lengthAdjust="spacingAndGlyphs" textLength="118" x="130.5" y="355.1563">com.ibm.fhir.model.type</text></a><!--MD5=[9426144f31c1112734857e2fa3eff79c]
reverse link com.ibm.fhir.model.type.BackboneElement to com.ibm.fhir.model.type.ElementDefinition.Base--><path d="M110.6391,84.7977 C118.5192,98.0429 127.2473,112.7135 135.7027,126.9259 " fill="none" id="com.ibm.fhir.model.type.BackboneElement&lt;-com.ibm.fhir.model.type.ElementDefinition.Base" style="stroke: #A80036; stroke-width: 1.0;"/><polygon fill="none" points="104.3907,87.9858,100.1807,67.2186,116.4224,80.8277,104.3907,87.9858" style="stroke: #A80036; stroke-width: 1.0;"/><!--MD5=[6f1af447840d6e6c2a49a5a57613b860]
reverse link com.ibm.fhir.model.type.ElementDefinition to com.ibm.fhir.model.type.ElementDefinition.Base--><path d="M252.2024,69.5949 C242.2539,86.141 229.7177,106.9905 217.7248,126.9367 " fill="none" id="com.ibm.fhir.model.type.ElementDefinition&lt;-com.ibm.fhir.model.type.ElementDefinition.Base" style="stroke: #A80036; stroke-width: 1.0;"/><ellipse cx="255.9185" cy="63.4146" fill="#FFFFFF" rx="8" ry="8" style="stroke: #A80036; stroke-width: 1.0;"/><line style="stroke: #A80036; stroke-width: 1.0;" x1="251.7961" x2="260.0408" y1="70.2707" y2="56.5585"/><line style="stroke: #A80036; stroke-width: 1.0;" x1="249.0623" x2="262.7746" y1="59.2923" y2="67.537"/><!--MD5=[fb8c95cb8125d2d394c143043f322694]
reverse link com.ibm.fhir.model.type.ElementDefinition.Base to com.ibm.fhir.model.type.ElementDefinition.Base.Builder--><path d="M176.5,279.259 C176.5,296.0616 176.5,312.158 176.5,323.9719 " fill="none" id="com.ibm.fhir.model.type.ElementDefinition.Base&lt;-com.ibm.fhir.model.type.ElementDefinition.Base.Builder" style="stroke: #A80036; stroke-width: 1.0;"/><ellipse cx="176.5001" cy="272.0683" fill="#FFFFFF" rx="8" ry="8" style="stroke: #A80036; stroke-width: 1.0;"/><line style="stroke: #A80036; stroke-width: 1.0;" x1="176.5002" x2="176.5" y1="280.0683" y2="264.0683"/><line style="stroke: #A80036; stroke-width: 1.0;" x1="168.5001" x2="184.5001" y1="272.0684" y2="272.0682"/><text fill="#888888" font-family="sans-serif" font-size="10" lengthAdjust="spacingAndGlyphs" textLength="182" x="92.5" y="381.668">UMLDoclet 2.0.7, PlantUML 1.2019.12</text><!--MD5=[6019408ff4ec1407314d41fb3ffd7a76]
@startuml
    set namespaceSeparator none
    hide empty fields
    hide empty methods

    class "<size:14>ElementDefinition.Base\n<size:10>com.ibm.fhir.model.type" as com.ibm.fhir.model.type.ElementDefinition.Base [[ElementDefinition.Base.html]] {
        +getPath(): String
        +getMin(): UnsignedInt
        +getMax(): String
        +hasChildren(): boolean
        +accept(String, int, Visitor): void
        +toBuilder(): Builder
        {static} +builder(): Builder
    }

    abstract class "<size:14>BackboneElement\n<size:10>com.ibm.fhir.model.type" as com.ibm.fhir.model.type.BackboneElement [[BackboneElement.html]] {
        {abstract} +toBuilder(): Builder
    }
    class "<size:14>ElementDefinition\n<size:10>com.ibm.fhir.model.type" as com.ibm.fhir.model.type.ElementDefinition [[ElementDefinition.html]]
    class "<size:14>ElementDefinition.Base.Builder\n<size:10>com.ibm.fhir.model.type" as com.ibm.fhir.model.type.ElementDefinition.Base.Builder [[ElementDefinition.Base.Builder.html]]

    com.ibm.fhir.model.type.BackboneElement <|- - com.ibm.fhir.model.type.ElementDefinition.Base
    com.ibm.fhir.model.type.ElementDefinition +- - com.ibm.fhir.model.type.ElementDefinition.Base
    com.ibm.fhir.model.type.ElementDefinition.Base +- - com.ibm.fhir.model.type.ElementDefinition.Base.Builder

    center footer UMLDoclet 2.0.7, PlantUML 1.2019.12
@enduml

PlantUML version 1.2019.12(Sun Nov 03 05:24:54 EST 2019)
(APACHE source distribution)
Java Runtime: OpenJDK Runtime Environment
JVM: OpenJDK 64-Bit Server VM
Java Version: 11.0.4+11
Operating System: Mac OS X
Default Encoding: UTF-8
Language: en
Country: US
--></g></svg>