<?xml version="1.0" encoding="UTF-8" standalone="no"?><svg xmlns="http://www.w3.org/2000/svg" xmlns:xlink="http://www.w3.org/1999/xlink" contentScriptType="application/ecmascript" contentStyleType="text/css" height="320px" preserveAspectRatio="none" style="width:493px;height:320px;" version="1.1" viewBox="0 0 493 320" width="493px" zoomAndPan="magnify"><defs><filter height="300%" id="f1fxwm4l3m81zd" width="300%" x="-1" y="-1"><feGaussianBlur result="blurOut" stdDeviation="2.0"/><feColorMatrix in="blurOut" result="blurOut2" type="matrix" values="0 0 0 0 0 0 0 0 0 0 0 0 0 0 0 0 0 0 .4 0"/><feOffset dx="4.0" dy="4.0" in="blurOut2" result="blurOut3"/><feBlend in="SourceGraphic" in2="blurOut3" mode="normal"/></filter></defs><g><!--MD5=[718290a6540bb42211582610d14a9c9b]
class com.ibm.fhir.model.resource.EpisodeOfCare.StatusHistory.Builder--><a href="EpisodeOfCare.StatusHistory.Builder.html" target="_top" title="EpisodeOfCare.StatusHistory.Builder.html" xlink:actuate="onRequest" xlink:href="EpisodeOfCare.StatusHistory.Builder.html" xlink:show="new" xlink:title="EpisodeOfCare.StatusHistory.Builder.html" xlink:type="simple"><rect fill="#FEFECE" filter="url(#f1fxwm4l3m81zd)" height="161.1797" id="com.ibm.fhir.model.resource.EpisodeOfCare.StatusHistory.Builder" style="stroke: #A80036; stroke-width: 1.5;" width="312" x="83.5" y="127"/><ellipse cx="112" cy="145.9688" fill="#ADD1B2" rx="11" ry="11" style="stroke: #A80036; stroke-width: 1.0;"/><path d="M114.9688,151.6094 Q114.3906,151.9063 113.75,152.0469 Q113.1094,152.2031 112.4063,152.2031 Q109.9063,152.2031 108.5781,150.5625 Q107.2656,148.9063 107.2656,145.7813 Q107.2656,142.6563 108.5781,141 Q109.9063,139.3438 112.4063,139.3438 Q113.1094,139.3438 113.75,139.5 Q114.4063,139.6563 114.9688,139.9531 L114.9688,142.6719 Q114.3438,142.0938 113.75,141.8281 Q113.1563,141.5469 112.5313,141.5469 Q111.1875,141.5469 110.5,142.625 Q109.8125,143.6875 109.8125,145.7813 Q109.8125,147.875 110.5,148.9531 Q111.1875,150.0156 112.5313,150.0156 Q113.1563,150.0156 113.75,149.75 Q114.3438,149.4688 114.9688,148.8906 L114.9688,151.6094 Z "/><text fill="#000000" font-family="sans-serif" font-size="14" lengthAdjust="spacingAndGlyphs" textLength="250" x="129" y="144.9951">EpisodeOfCare.StatusHistory.Builder</text><text fill="#000000" font-family="sans-serif" font-size="10" lengthAdjust="spacingAndGlyphs" textLength="139" x="184.5" y="157.5791">com.ibm.fhir.model.resource</text><line style="stroke: #A80036; stroke-width: 1.5;" x1="84.5" x2="394.5" y1="164.9375" y2="164.9375"/><ellipse cx="94.5" cy="175.9375" fill="#84BE84" rx="3" ry="3" style="stroke: #038048; stroke-width: 1.0;"/><text fill="#000000" font-family="sans-serif" font-size="11" lengthAdjust="spacingAndGlyphs" textLength="100" x="103.5" y="179.1479">id(String): Builder</text><ellipse cx="94.5" cy="188.7422" fill="#84BE84" rx="3" ry="3" style="stroke: #038048; stroke-width: 1.0;"/><text fill="#000000" font-family="sans-serif" font-size="11" lengthAdjust="spacingAndGlyphs" textLength="178" x="103.5" y="191.9526">extension(Extension...): Builder</text><ellipse cx="94.5" cy="201.5469" fill="#84BE84" rx="3" ry="3" style="stroke: #038048; stroke-width: 1.0;"/><text fill="#000000" font-family="sans-serif" font-size="11" lengthAdjust="spacingAndGlyphs" textLength="239" x="103.5" y="204.7573">extension(Collection&lt;Extension&gt;): Builder</text><ellipse cx="94.5" cy="214.3516" fill="#84BE84" rx="3" ry="3" style="stroke: #038048; stroke-width: 1.0;"/><text fill="#000000" font-family="sans-serif" font-size="11" lengthAdjust="spacingAndGlyphs" textLength="225" x="103.5" y="217.562">modifierExtension(Extension...): Builder</text><ellipse cx="94.5" cy="227.1563" fill="#84BE84" rx="3" ry="3" style="stroke: #038048; stroke-width: 1.0;"/><text fill="#000000" font-family="sans-serif" font-size="11" lengthAdjust="spacingAndGlyphs" textLength="286" x="103.5" y="230.3667">modifierExtension(Collection&lt;Extension&gt;): Builder</text><ellipse cx="94.5" cy="239.9609" fill="#84BE84" rx="3" ry="3" style="stroke: #038048; stroke-width: 1.0;"/><text fill="#000000" font-family="sans-serif" font-size="11" lengthAdjust="spacingAndGlyphs" textLength="214" x="103.5" y="243.1714">status(EpisodeOfCareStatus): Builder</text><ellipse cx="94.5" cy="252.7656" fill="#84BE84" rx="3" ry="3" style="stroke: #038048; stroke-width: 1.0;"/><text fill="#000000" font-family="sans-serif" font-size="11" lengthAdjust="spacingAndGlyphs" textLength="128" x="103.5" y="255.9761">period(Period): Builder</text><ellipse cx="94.5" cy="265.5703" fill="#84BE84" rx="3" ry="3" style="stroke: #038048; stroke-width: 1.0;"/><text fill="#000000" font-family="sans-serif" font-size="11" lengthAdjust="spacingAndGlyphs" textLength="120" x="103.5" y="268.7808">build(): StatusHistory</text><polygon fill="#FFFF44" points="94.5,273.375,98.5,277.375,94.5,281.375,90.5,277.375" style="stroke: #B38D22; stroke-width: 1.0;"/><text fill="#000000" font-family="sans-serif" font-size="11" lengthAdjust="spacingAndGlyphs" textLength="160" x="103.5" y="281.5854">from(StatusHistory): Builder</text></a><!--MD5=[b7b0ea86c8a299e1957933e33e561193]
class com.ibm.fhir.model.type.BackboneElement.Builder--><a href="../type/BackboneElement.Builder.html" target="_top" title="../type/BackboneElement.Builder.html" xlink:actuate="onRequest" xlink:href="../type/BackboneElement.Builder.html" xlink:show="new" xlink:title="../type/BackboneElement.Builder.html" xlink:type="simple"><rect fill="#FEFECE" filter="url(#f1fxwm4l3m81zd)" height="58.7422" id="com.ibm.fhir.model.type.BackboneElement.Builder" style="stroke: #A80036; stroke-width: 1.5;" width="211" x="6" y="8"/><ellipse cx="21" cy="26.9688" fill="#A9DCDF" rx="11" ry="11" style="stroke: #A80036; stroke-width: 1.0;"/><path d="M21.1094,22.3125 L19.9531,27.3906 L22.2813,27.3906 L21.1094,22.3125 Z M19.625,20.0781 L22.6094,20.0781 L25.9688,32.4688 L23.5156,32.4688 L22.75,29.4063 L19.4688,29.4063 L18.7188,32.4688 L16.2813,32.4688 L19.625,20.0781 Z "/><text fill="#000000" font-family="sans-serif" font-size="14" font-style="italic" lengthAdjust="spacingAndGlyphs" textLength="179" x="35" y="25.9951">BackboneElement.Builder</text><text fill="#000000" font-family="sans-serif" font-size="10" font-style="italic" lengthAdjust="spacingAndGlyphs" textLength="119" x="65" y="38.5791">com.ibm.fhir.model.type</text><line style="stroke: #A80036; stroke-width: 1.5;" x1="7" x2="216" y1="45.9375" y2="45.9375"/><ellipse cx="17" cy="56.9375" fill="#84BE84" rx="3" ry="3" style="stroke: #038048; stroke-width: 1.0;"/><text fill="#000000" font-family="sans-serif" font-size="11" font-style="italic" lengthAdjust="spacingAndGlyphs" textLength="144" x="26" y="60.1479">build(): BackboneElement</text></a><!--MD5=[a7ed43d2ce5adb9cd072febc5a68a4ea]
class com.ibm.fhir.model.resource.EpisodeOfCare.StatusHistory--><a href="EpisodeOfCare.StatusHistory.html" target="_top" title="EpisodeOfCare.StatusHistory.html" xlink:actuate="onRequest" xlink:href="EpisodeOfCare.StatusHistory.html" xlink:show="new" xlink:title="EpisodeOfCare.StatusHistory.html" xlink:type="simple"><rect fill="#FEFECE" filter="url(#f1fxwm4l3m81zd)" height="37.9375" id="com.ibm.fhir.model.resource.EpisodeOfCare.StatusHistory" style="stroke: #A80036; stroke-width: 1.5;" width="230" x="252.5" y="18.5"/><ellipse cx="267.5" cy="37.4688" fill="#ADD1B2" rx="11" ry="11" style="stroke: #A80036; stroke-width: 1.0;"/><path d="M270.4688,43.1094 Q269.8906,43.4063 269.25,43.5469 Q268.6094,43.7031 267.9063,43.7031 Q265.4063,43.7031 264.0781,42.0625 Q262.7656,40.4063 262.7656,37.2813 Q262.7656,34.1563 264.0781,32.5 Q265.4063,30.8438 267.9063,30.8438 Q268.6094,30.8438 269.25,31 Q269.9063,31.1563 270.4688,31.4531 L270.4688,34.1719 Q269.8438,33.5938 269.25,33.3281 Q268.6563,33.0469 268.0313,33.0469 Q266.6875,33.0469 266,34.125 Q265.3125,35.1875 265.3125,37.2813 Q265.3125,39.375 266,40.4531 Q266.6875,41.5156 268.0313,41.5156 Q268.6563,41.5156 269.25,41.25 Q269.8438,40.9688 270.4688,40.3906 L270.4688,43.1094 Z "/><text fill="#000000" font-family="sans-serif" font-size="14" lengthAdjust="spacingAndGlyphs" textLength="198" x="281.5" y="36.4951">EpisodeOfCare.StatusHistory</text><text fill="#000000" font-family="sans-serif" font-size="10" lengthAdjust="spacingAndGlyphs" textLength="139" x="311" y="49.0791">com.ibm.fhir.model.resource</text></a><!--MD5=[e5e2e2e4e66fd17b553ec63d183c7107]
reverse link com.ibm.fhir.model.type.BackboneElement.Builder to com.ibm.fhir.model.resource.EpisodeOfCare.StatusHistory.Builder--><path d="M145.8532,83.1253 C155.9939,96.5935 167.4094,111.7546 178.6922,126.7396 " fill="none" id="com.ibm.fhir.model.type.BackboneElement.Builder&lt;-com.ibm.fhir.model.resource.EpisodeOfCare.StatusHistory.Builder" style="stroke: #A80036; stroke-width: 1.0;"/><polygon fill="none" points="140.2339,87.2997,133.7959,67.1117,151.4181,78.8786,140.2339,87.2997" style="stroke: #A80036; stroke-width: 1.0;"/><!--MD5=[84c3f9f11f36200041d1020726e71a9b]
reverse link com.ibm.fhir.model.resource.EpisodeOfCare.StatusHistory to com.ibm.fhir.model.resource.EpisodeOfCare.StatusHistory.Builder--><path d="M343.962,68.7614 C331.6126,85.163 315.8558,106.0899 300.3466,126.6881 " fill="none" id="com.ibm.fhir.model.resource.EpisodeOfCare.StatusHistory&lt;-com.ibm.fhir.model.resource.EpisodeOfCare.StatusHistory.Builder" style="stroke: #A80036; stroke-width: 1.0;"/><ellipse cx="348.2536" cy="63.0617" fill="#FFFFFF" rx="8" ry="8" style="stroke: #A80036; stroke-width: 1.0;"/><line style="stroke: #A80036; stroke-width: 1.0;" x1="343.4416" x2="353.0656" y1="69.4526" y2="56.6707"/><line style="stroke: #A80036; stroke-width: 1.0;" x1="341.8626" x2="354.6446" y1="58.2497" y2="67.8737"/><text fill="#888888" font-family="sans-serif" font-size="10" lengthAdjust="spacingAndGlyphs" textLength="186" x="157.5" y="307.2822">UMLDoclet 2.0.7, PlantUML 1.2019.12</text><!--MD5=[9207a7fc01fc7292cea30cb92b7aa4a2]
@startuml
    set namespaceSeparator none
    hide empty fields
    hide empty methods

    class "<size:14>EpisodeOfCare.StatusHistory.Builder\n<size:10>com.ibm.fhir.model.resource" as com.ibm.fhir.model.resource.EpisodeOfCare.StatusHistory.Builder [[EpisodeOfCare.StatusHistory.Builder.html]] {
        +id(String): Builder
        +extension(Extension...): Builder
        +extension(Collection<Extension>): Builder
        +modifierExtension(Extension...): Builder
        +modifierExtension(Collection<Extension>): Builder
        +status(EpisodeOfCareStatus): Builder
        +period(Period): Builder
        +build(): StatusHistory
        #from(StatusHistory): Builder
    }

    abstract class "<size:14>BackboneElement.Builder\n<size:10>com.ibm.fhir.model.type" as com.ibm.fhir.model.type.BackboneElement.Builder [[../type/BackboneElement.Builder.html]] {
        {abstract} +build(): BackboneElement
    }
    class "<size:14>EpisodeOfCare.StatusHistory\n<size:10>com.ibm.fhir.model.resource" as com.ibm.fhir.model.resource.EpisodeOfCare.StatusHistory [[EpisodeOfCare.StatusHistory.html]]

    com.ibm.fhir.model.type.BackboneElement.Builder <|- - com.ibm.fhir.model.resource.EpisodeOfCare.StatusHistory.Builder
    com.ibm.fhir.model.resource.EpisodeOfCare.StatusHistory +- - com.ibm.fhir.model.resource.EpisodeOfCare.StatusHistory.Builder

    center footer UMLDoclet 2.0.7, PlantUML 1.2019.12
@enduml

PlantUML version 1.2019.12(Sun Nov 03 10:24:54 UTC 2019)
(APACHE source distribution)
Java Runtime: OpenJDK Runtime Environment
JVM: OpenJDK 64-Bit Server VM
Java Version: 11.0.6+10
Operating System: Linux
Default Encoding: UTF-8
Language: en
Country: null
--></g></svg>