<?xml version="1.0" encoding="UTF-8" standalone="no"?><svg xmlns="http://www.w3.org/2000/svg" xmlns:xlink="http://www.w3.org/1999/xlink" contentScriptType="application/ecmascript" contentStyleType="text/css" height="482px" preserveAspectRatio="none" style="width:602px;height:482px;" version="1.1" viewBox="0 0 602 482" width="602px" zoomAndPan="magnify"><defs><filter height="300%" id="f1plz7scr1xduw" width="300%" x="-1" y="-1"><feGaussianBlur result="blurOut" stdDeviation="2.0"/><feColorMatrix in="blurOut" result="blurOut2" type="matrix" values="0 0 0 0 0 0 0 0 0 0 0 0 0 0 0 0 0 0 .4 0"/><feOffset dx="4.0" dy="4.0" in="blurOut2" result="blurOut3"/><feBlend in="SourceGraphic" in2="blurOut3" mode="normal"/></filter></defs><g><!--MD5=[f7ff79fd4d7dc0800477fd6dfa1697fd]
class com.ibm.fhir.model.resource.Group--><a href="Group.html" target="_top" title="Group.html" xlink:actuate="onRequest" xlink:href="Group.html" xlink:show="new" xlink:title="Group.html" xlink:type="simple"><rect fill="#FEFECE" filter="url(#f1plz7scr1xduw)" height="225.2031" id="com.ibm.fhir.model.resource.Group" style="stroke: #A80036; stroke-width: 1.5;" width="256" x="170.5" y="127"/><ellipse cx="224.75" cy="145.9688" fill="#ADD1B2" rx="11" ry="11" style="stroke: #A80036; stroke-width: 1.0;"/><path d="M227.7188,151.6094 Q227.1406,151.9063 226.5,152.0469 Q225.8594,152.2031 225.1563,152.2031 Q222.6563,152.2031 221.3281,150.5625 Q220.0156,148.9063 220.0156,145.7813 Q220.0156,142.6563 221.3281,141 Q222.6563,139.3438 225.1563,139.3438 Q225.8594,139.3438 226.5,139.5 Q227.1563,139.6563 227.7188,139.9531 L227.7188,142.6719 Q227.0938,142.0938 226.5,141.8281 Q225.9063,141.5469 225.2813,141.5469 Q223.9375,141.5469 223.25,142.625 Q222.5625,143.6875 222.5625,145.7813 Q222.5625,147.875 223.25,148.9531 Q223.9375,150.0156 225.2813,150.0156 Q225.9063,150.0156 226.5,149.75 Q227.0938,149.4688 227.7188,148.8906 L227.7188,151.6094 Z "/><text fill="#000000" font-family="sans-serif" font-size="14" lengthAdjust="spacingAndGlyphs" textLength="43" x="293.25" y="144.9951">Group</text><text fill="#000000" font-family="sans-serif" font-size="10" lengthAdjust="spacingAndGlyphs" textLength="139" x="245.25" y="157.5791">com.ibm.fhir.model.resource</text><line style="stroke: #A80036; stroke-width: 1.5;" x1="171.5" x2="425.5" y1="164.9375" y2="164.9375"/><ellipse cx="181.5" cy="175.9375" fill="#84BE84" rx="3" ry="3" style="stroke: #038048; stroke-width: 1.0;"/><text fill="#000000" font-family="sans-serif" font-size="11" lengthAdjust="spacingAndGlyphs" textLength="172" x="190.5" y="179.1479">getIdentifier(): List&lt;Identifier&gt;</text><ellipse cx="181.5" cy="188.7422" fill="#84BE84" rx="3" ry="3" style="stroke: #038048; stroke-width: 1.0;"/><text fill="#000000" font-family="sans-serif" font-size="11" lengthAdjust="spacingAndGlyphs" textLength="113" x="190.5" y="191.9526">getActive(): Boolean</text><ellipse cx="181.5" cy="201.5469" fill="#84BE84" rx="3" ry="3" style="stroke: #038048; stroke-width: 1.0;"/><text fill="#000000" font-family="sans-serif" font-size="11" lengthAdjust="spacingAndGlyphs" textLength="123" x="190.5" y="204.7573">getType(): GroupType</text><ellipse cx="181.5" cy="214.3516" fill="#84BE84" rx="3" ry="3" style="stroke: #038048; stroke-width: 1.0;"/><text fill="#000000" font-family="sans-serif" font-size="11" lengthAdjust="spacingAndGlyphs" textLength="114" x="190.5" y="217.562">getActual(): Boolean</text><ellipse cx="181.5" cy="227.1563" fill="#84BE84" rx="3" ry="3" style="stroke: #038048; stroke-width: 1.0;"/><text fill="#000000" font-family="sans-serif" font-size="11" lengthAdjust="spacingAndGlyphs" textLength="162" x="190.5" y="230.3667">getCode(): CodeableConcept</text><ellipse cx="181.5" cy="239.9609" fill="#84BE84" rx="3" ry="3" style="stroke: #038048; stroke-width: 1.0;"/><text fill="#000000" font-family="sans-serif" font-size="11" lengthAdjust="spacingAndGlyphs" textLength="101" x="190.5" y="243.1714">getName(): String</text><ellipse cx="181.5" cy="252.7656" fill="#84BE84" rx="3" ry="3" style="stroke: #038048; stroke-width: 1.0;"/><text fill="#000000" font-family="sans-serif" font-size="11" lengthAdjust="spacingAndGlyphs" textLength="148" x="190.5" y="255.9761">getQuantity(): UnsignedInt</text><ellipse cx="181.5" cy="265.5703" fill="#84BE84" rx="3" ry="3" style="stroke: #038048; stroke-width: 1.0;"/><text fill="#000000" font-family="sans-serif" font-size="11" lengthAdjust="spacingAndGlyphs" textLength="176" x="190.5" y="268.7808">getManagingEntity(): Reference</text><ellipse cx="181.5" cy="278.375" fill="#84BE84" rx="3" ry="3" style="stroke: #038048; stroke-width: 1.0;"/><text fill="#000000" font-family="sans-serif" font-size="11" lengthAdjust="spacingAndGlyphs" textLength="230" x="190.5" y="281.5854">getCharacteristic(): List&lt;Characteristic&gt;</text><ellipse cx="181.5" cy="291.1797" fill="#84BE84" rx="3" ry="3" style="stroke: #038048; stroke-width: 1.0;"/><text fill="#000000" font-family="sans-serif" font-size="11" lengthAdjust="spacingAndGlyphs" textLength="164" x="190.5" y="294.3901">getMember(): List&lt;Member&gt;</text><ellipse cx="181.5" cy="303.9844" fill="#84BE84" rx="3" ry="3" style="stroke: #038048; stroke-width: 1.0;"/><text fill="#000000" font-family="sans-serif" font-size="11" lengthAdjust="spacingAndGlyphs" textLength="129" x="190.5" y="307.1948">hasChildren(): boolean</text><ellipse cx="181.5" cy="316.7891" fill="#84BE84" rx="3" ry="3" style="stroke: #038048; stroke-width: 1.0;"/><text fill="#000000" font-family="sans-serif" font-size="11" lengthAdjust="spacingAndGlyphs" textLength="176" x="190.5" y="319.9995">accept(String, int, Visitor): void</text><ellipse cx="181.5" cy="329.5938" fill="#84BE84" rx="3" ry="3" style="stroke: #038048; stroke-width: 1.0;"/><text fill="#000000" font-family="sans-serif" font-size="11" lengthAdjust="spacingAndGlyphs" textLength="107" x="190.5" y="332.8042">toBuilder(): Builder</text><ellipse cx="181.5" cy="342.3984" fill="#84BE84" rx="3" ry="3" style="stroke: #038048; stroke-width: 1.0;"/><text fill="#000000" font-family="sans-serif" font-size="11" lengthAdjust="spacingAndGlyphs" text-decoration="underline" textLength="95" x="190.5" y="345.6089">builder(): Builder</text></a><!--MD5=[5a92b081cf79a7020013158c64ef85a4]
class com.ibm.fhir.model.resource.DomainResource--><a href="DomainResource.html" target="_top" title="DomainResource.html" xlink:actuate="onRequest" xlink:href="DomainResource.html" xlink:show="new" xlink:title="DomainResource.html" xlink:type="simple"><rect fill="#FEFECE" filter="url(#f1plz7scr1xduw)" height="58.7422" id="com.ibm.fhir.model.resource.DomainResource" style="stroke: #A80036; stroke-width: 1.5;" width="171" x="213" y="8"/><ellipse cx="228" cy="26.9688" fill="#A9DCDF" rx="11" ry="11" style="stroke: #A80036; stroke-width: 1.0;"/><path d="M228.1094,22.3125 L226.9531,27.3906 L229.2813,27.3906 L228.1094,22.3125 Z M226.625,20.0781 L229.6094,20.0781 L232.9688,32.4688 L230.5156,32.4688 L229.75,29.4063 L226.4688,29.4063 L225.7188,32.4688 L223.2813,32.4688 L226.625,20.0781 Z "/><text fill="#000000" font-family="sans-serif" font-size="14" font-style="italic" lengthAdjust="spacingAndGlyphs" textLength="120" x="251.5" y="25.9951">DomainResource</text><text fill="#000000" font-family="sans-serif" font-size="10" font-style="italic" lengthAdjust="spacingAndGlyphs" textLength="139" x="242" y="38.5791">com.ibm.fhir.model.resource</text><line style="stroke: #A80036; stroke-width: 1.5;" x1="214" x2="383" y1="45.9375" y2="45.9375"/><ellipse cx="224" cy="56.9375" fill="#84BE84" rx="3" ry="3" style="stroke: #038048; stroke-width: 1.0;"/><text fill="#000000" font-family="sans-serif" font-size="11" font-style="italic" lengthAdjust="spacingAndGlyphs" textLength="107" x="233" y="60.1479">toBuilder(): Builder</text></a><!--MD5=[ee23b6193990d2c220ebc49bd240705b]
class com.ibm.fhir.model.resource.Group.Builder--><a href="Group.Builder.html" target="_top" title="Group.Builder.html" xlink:actuate="onRequest" xlink:href="Group.Builder.html" xlink:show="new" xlink:title="Group.Builder.html" xlink:type="simple"><rect fill="#FEFECE" filter="url(#f1plz7scr1xduw)" height="37.9375" id="com.ibm.fhir.model.resource.Group.Builder" style="stroke: #A80036; stroke-width: 1.5;" width="171" x="6" y="412"/><ellipse cx="21" cy="430.9688" fill="#ADD1B2" rx="11" ry="11" style="stroke: #A80036; stroke-width: 1.0;"/><path d="M23.9688,436.6094 Q23.3906,436.9063 22.75,437.0469 Q22.1094,437.2031 21.4063,437.2031 Q18.9063,437.2031 17.5781,435.5625 Q16.2656,433.9063 16.2656,430.7813 Q16.2656,427.6563 17.5781,426 Q18.9063,424.3438 21.4063,424.3438 Q22.1094,424.3438 22.75,424.5 Q23.4063,424.6563 23.9688,424.9531 L23.9688,427.6719 Q23.3438,427.0938 22.75,426.8281 Q22.1563,426.5469 21.5313,426.5469 Q20.1875,426.5469 19.5,427.625 Q18.8125,428.6875 18.8125,430.7813 Q18.8125,432.875 19.5,433.9531 Q20.1875,435.0156 21.5313,435.0156 Q22.1563,435.0156 22.75,434.75 Q23.3438,434.4688 23.9688,433.8906 L23.9688,436.6094 Z "/><text fill="#000000" font-family="sans-serif" font-size="14" lengthAdjust="spacingAndGlyphs" textLength="95" x="57" y="429.9951">Group.Builder</text><text fill="#000000" font-family="sans-serif" font-size="10" lengthAdjust="spacingAndGlyphs" textLength="139" x="35" y="442.5791">com.ibm.fhir.model.resource</text></a><!--MD5=[b258648ecf5e85b4a809ec9268e97882]
class com.ibm.fhir.model.resource.Group.Characteristic--><a href="Group.Characteristic.html" target="_top" title="Group.Characteristic.html" xlink:actuate="onRequest" xlink:href="Group.Characteristic.html" xlink:show="new" xlink:title="Group.Characteristic.html" xlink:type="simple"><rect fill="#FEFECE" filter="url(#f1plz7scr1xduw)" height="37.9375" id="com.ibm.fhir.model.resource.Group.Characteristic" style="stroke: #A80036; stroke-width: 1.5;" width="173" x="212" y="412"/><ellipse cx="227" cy="430.9688" fill="#ADD1B2" rx="11" ry="11" style="stroke: #A80036; stroke-width: 1.0;"/><path d="M229.9688,436.6094 Q229.3906,436.9063 228.75,437.0469 Q228.1094,437.2031 227.4063,437.2031 Q224.9063,437.2031 223.5781,435.5625 Q222.2656,433.9063 222.2656,430.7813 Q222.2656,427.6563 223.5781,426 Q224.9063,424.3438 227.4063,424.3438 Q228.1094,424.3438 228.75,424.5 Q229.4063,424.6563 229.9688,424.9531 L229.9688,427.6719 Q229.3438,427.0938 228.75,426.8281 Q228.1563,426.5469 227.5313,426.5469 Q226.1875,426.5469 225.5,427.625 Q224.8125,428.6875 224.8125,430.7813 Q224.8125,432.875 225.5,433.9531 Q226.1875,435.0156 227.5313,435.0156 Q228.1563,435.0156 228.75,434.75 Q229.3438,434.4688 229.9688,433.8906 L229.9688,436.6094 Z "/><text fill="#000000" font-family="sans-serif" font-size="14" lengthAdjust="spacingAndGlyphs" textLength="141" x="241" y="429.9951">Group.Characteristic</text><text fill="#000000" font-family="sans-serif" font-size="10" lengthAdjust="spacingAndGlyphs" textLength="139" x="242" y="442.5791">com.ibm.fhir.model.resource</text></a><!--MD5=[53830009be30b0c2521c2f2b6ab9a47d]
class com.ibm.fhir.model.resource.Group.Member--><a href="Group.Member.html" target="_top" title="Group.Member.html" xlink:actuate="onRequest" xlink:href="Group.Member.html" xlink:show="new" xlink:title="Group.Member.html" xlink:type="simple"><rect fill="#FEFECE" filter="url(#f1plz7scr1xduw)" height="37.9375" id="com.ibm.fhir.model.resource.Group.Member" style="stroke: #A80036; stroke-width: 1.5;" width="171" x="420" y="412"/><ellipse cx="435" cy="430.9688" fill="#ADD1B2" rx="11" ry="11" style="stroke: #A80036; stroke-width: 1.0;"/><path d="M437.9688,436.6094 Q437.3906,436.9063 436.75,437.0469 Q436.1094,437.2031 435.4063,437.2031 Q432.9063,437.2031 431.5781,435.5625 Q430.2656,433.9063 430.2656,430.7813 Q430.2656,427.6563 431.5781,426 Q432.9063,424.3438 435.4063,424.3438 Q436.1094,424.3438 436.75,424.5 Q437.4063,424.6563 437.9688,424.9531 L437.9688,427.6719 Q437.3438,427.0938 436.75,426.8281 Q436.1563,426.5469 435.5313,426.5469 Q434.1875,426.5469 433.5,427.625 Q432.8125,428.6875 432.8125,430.7813 Q432.8125,432.875 433.5,433.9531 Q434.1875,435.0156 435.5313,435.0156 Q436.1563,435.0156 436.75,434.75 Q437.3438,434.4688 437.9688,433.8906 L437.9688,436.6094 Z "/><text fill="#000000" font-family="sans-serif" font-size="14" lengthAdjust="spacingAndGlyphs" textLength="104" x="466.5" y="429.9951">Group.Member</text><text fill="#000000" font-family="sans-serif" font-size="10" lengthAdjust="spacingAndGlyphs" textLength="139" x="449" y="442.5791">com.ibm.fhir.model.resource</text></a><!--MD5=[5e2d30ea8c09ac5ee91bb3624d4fdd92]
reverse link com.ibm.fhir.model.resource.DomainResource to com.ibm.fhir.model.resource.Group--><path d="M298.5,87.463 C298.5,99.584 298.5,113.0353 298.5,126.7801 " fill="none" id="com.ibm.fhir.model.resource.DomainResource&lt;-com.ibm.fhir.model.resource.Group" style="stroke: #A80036; stroke-width: 1.0;"/><polygon fill="none" points="291.5001,87.3058,298.5,67.3058,305.5001,87.3058,291.5001,87.3058" style="stroke: #A80036; stroke-width: 1.0;"/><!--MD5=[c9bbff2876a86fb3b6b746ca28950a33]
reverse link com.ibm.fhir.model.resource.Group to com.ibm.fhir.model.resource.Group.Builder--><path d="M165.8761,362.1931 C145.0745,381.4371 125.9815,399.1004 112.3496,411.7116 " fill="none" id="com.ibm.fhir.model.resource.Group&lt;-com.ibm.fhir.model.resource.Group.Builder" style="stroke: #A80036; stroke-width: 1.0;"/><ellipse cx="171.0175" cy="357.4367" fill="#FFFFFF" rx="8" ry="8" style="stroke: #A80036; stroke-width: 1.0;"/><line style="stroke: #A80036; stroke-width: 1.0;" x1="165.145" x2="176.8899" y1="362.8695" y2="352.004"/><line style="stroke: #A80036; stroke-width: 1.0;" x1="165.5847" x2="176.4502" y1="351.5643" y2="363.3092"/><!--MD5=[3209c2f999e751587f0a37c00c3ee219]
reverse link com.ibm.fhir.model.resource.Group to com.ibm.fhir.model.resource.Group.Characteristic--><path d="M298.5,367.1865 C298.5,384.4776 298.5,400.1996 298.5,411.7116 " fill="none" id="com.ibm.fhir.model.resource.Group&lt;-com.ibm.fhir.model.resource.Group.Characteristic" style="stroke: #A80036; stroke-width: 1.0;"/><ellipse cx="298.5" cy="360.004" fill="#FFFFFF" rx="8" ry="8" style="stroke: #A80036; stroke-width: 1.0;"/><line style="stroke: #A80036; stroke-width: 1.0;" x1="298.5" x2="298.5" y1="368.004" y2="352.004"/><line style="stroke: #A80036; stroke-width: 1.0;" x1="290.5" x2="306.5" y1="360.004" y2="360.004"/><!--MD5=[5e1333e80b9c8b24a9b508bb868e4780]
reverse link com.ibm.fhir.model.resource.Group to com.ibm.fhir.model.resource.Group.Member--><path d="M431.1239,362.1931 C451.9255,381.4371 471.0185,399.1004 484.6504,411.7116 " fill="none" id="com.ibm.fhir.model.resource.Group&lt;-com.ibm.fhir.model.resource.Group.Member" style="stroke: #A80036; stroke-width: 1.0;"/><ellipse cx="425.9825" cy="357.4367" fill="#FFFFFF" rx="8" ry="8" style="stroke: #A80036; stroke-width: 1.0;"/><line style="stroke: #A80036; stroke-width: 1.0;" x1="431.855" x2="420.1101" y1="362.8695" y2="352.004"/><line style="stroke: #A80036; stroke-width: 1.0;" x1="420.5498" x2="431.4153" y1="363.3092" y2="351.5643"/><text fill="#888888" font-family="sans-serif" font-size="10" lengthAdjust="spacingAndGlyphs" textLength="186" x="211.5" y="469.2822">UMLDoclet 2.0.7, PlantUML 1.2019.12</text><!--MD5=[69a2e54ba97f995563ba299b4102ea19]
@startuml
    set namespaceSeparator none
    hide empty fields
    hide empty methods

    class "<size:14>Group\n<size:10>com.ibm.fhir.model.resource" as com.ibm.fhir.model.resource.Group [[Group.html]] {
        +getIdentifier(): List<Identifier>
        +getActive(): Boolean
        +getType(): GroupType
        +getActual(): Boolean
        +getCode(): CodeableConcept
        +getName(): String
        +getQuantity(): UnsignedInt
        +getManagingEntity(): Reference
        +getCharacteristic(): List<Characteristic>
        +getMember(): List<Member>
        +hasChildren(): boolean
        +accept(String, int, Visitor): void
        +toBuilder(): Builder
        {static} +builder(): Builder
    }

    abstract class "<size:14>DomainResource\n<size:10>com.ibm.fhir.model.resource" as com.ibm.fhir.model.resource.DomainResource [[DomainResource.html]] {
        {abstract} +toBuilder(): Builder
    }
    class "<size:14>Group.Builder\n<size:10>com.ibm.fhir.model.resource" as com.ibm.fhir.model.resource.Group.Builder [[Group.Builder.html]]
    class "<size:14>Group.Characteristic\n<size:10>com.ibm.fhir.model.resource" as com.ibm.fhir.model.resource.Group.Characteristic [[Group.Characteristic.html]]
    class "<size:14>Group.Member\n<size:10>com.ibm.fhir.model.resource" as com.ibm.fhir.model.resource.Group.Member [[Group.Member.html]]

    com.ibm.fhir.model.resource.DomainResource <|- - com.ibm.fhir.model.resource.Group
    com.ibm.fhir.model.resource.Group +- - com.ibm.fhir.model.resource.Group.Builder
    com.ibm.fhir.model.resource.Group +- - com.ibm.fhir.model.resource.Group.Characteristic
    com.ibm.fhir.model.resource.Group +- - com.ibm.fhir.model.resource.Group.Member

    center footer UMLDoclet 2.0.7, PlantUML 1.2019.12
@enduml

PlantUML version 1.2019.12(Sun Nov 03 10:24:54 UTC 2019)
(APACHE source distribution)
Java Runtime: OpenJDK Runtime Environment
JVM: OpenJDK 64-Bit Server VM
Java Version: 11.0.6+10
Operating System: Linux
Default Encoding: UTF-8
Language: en
Country: null
--></g></svg>