<?xml version="1.0" encoding="UTF-8" standalone="no"?><svg xmlns="http://www.w3.org/2000/svg" xmlns:xlink="http://www.w3.org/1999/xlink" contentScriptType="application/ecmascript" contentStyleType="text/css" height="461px" preserveAspectRatio="none" style="width:503px;height:461px;" version="1.1" viewBox="0 0 503 461" width="503px" zoomAndPan="magnify"><defs><filter height="300%" id="fz46ulyux3iz2" width="300%" x="-1" y="-1"><feGaussianBlur result="blurOut" stdDeviation="2.0"/><feColorMatrix in="blurOut" result="blurOut2" type="matrix" values="0 0 0 0 0 0 0 0 0 0 0 0 0 0 0 0 0 0 .4 0"/><feOffset dx="4.0" dy="4.0" in="blurOut2" result="blurOut3"/><feBlend in="SourceGraphic" in2="blurOut3" mode="normal"/></filter></defs><g><!--MD5=[922cd26260e2554585cda14597d32d39]
class com.ibm.fhir.model.resource.ImmunizationRecommendation.Builder--><a href="ImmunizationRecommendation.Builder.html" target="_top" title="ImmunizationRecommendation.Builder.html" xlink:actuate="onRequest" xlink:href="ImmunizationRecommendation.Builder.html" xlink:show="new" xlink:title="ImmunizationRecommendation.Builder.html" xlink:type="simple"><rect fill="#FEFECE" filter="url(#fz46ulyux3iz2)" height="302.0313" id="com.ibm.fhir.model.resource.ImmunizationRecommendation.Builder" style="stroke: #A80036; stroke-width: 1.5;" width="349" x="63.5" y="127"/><ellipse cx="101" cy="145.9688" fill="#ADD1B2" rx="11" ry="11" style="stroke: #A80036; stroke-width: 1.0;"/><path d="M103.9688,151.6094 Q103.3906,151.9063 102.75,152.0469 Q102.1094,152.2031 101.4063,152.2031 Q98.9063,152.2031 97.5781,150.5625 Q96.2656,148.9063 96.2656,145.7813 Q96.2656,142.6563 97.5781,141 Q98.9063,139.3438 101.4063,139.3438 Q102.1094,139.3438 102.75,139.5 Q103.4063,139.6563 103.9688,139.9531 L103.9688,142.6719 Q103.3438,142.0938 102.75,141.8281 Q102.1563,141.5469 101.5313,141.5469 Q100.1875,141.5469 99.5,142.625 Q98.8125,143.6875 98.8125,145.7813 Q98.8125,147.875 99.5,148.9531 Q100.1875,150.0156 101.5313,150.0156 Q102.1563,150.0156 102.75,149.75 Q103.3438,149.4688 103.9688,148.8906 L103.9688,151.6094 Z "/><text fill="#000000" font-family="sans-serif" font-size="14" lengthAdjust="spacingAndGlyphs" textLength="267" x="120" y="144.9951">ImmunizationRecommendation.Builder</text><text fill="#000000" font-family="sans-serif" font-size="10" lengthAdjust="spacingAndGlyphs" textLength="139" x="184" y="157.5791">com.ibm.fhir.model.resource</text><line style="stroke: #A80036; stroke-width: 1.5;" x1="64.5" x2="411.5" y1="164.9375" y2="164.9375"/><ellipse cx="74.5" cy="175.9375" fill="#84BE84" rx="3" ry="3" style="stroke: #038048; stroke-width: 1.0;"/><text fill="#000000" font-family="sans-serif" font-size="11" lengthAdjust="spacingAndGlyphs" textLength="100" x="83.5" y="179.1479">id(String): Builder</text><ellipse cx="74.5" cy="188.7422" fill="#84BE84" rx="3" ry="3" style="stroke: #038048; stroke-width: 1.0;"/><text fill="#000000" font-family="sans-serif" font-size="11" lengthAdjust="spacingAndGlyphs" textLength="112" x="83.5" y="191.9526">meta(Meta): Builder</text><ellipse cx="74.5" cy="201.5469" fill="#84BE84" rx="3" ry="3" style="stroke: #038048; stroke-width: 1.0;"/><text fill="#000000" font-family="sans-serif" font-size="11" lengthAdjust="spacingAndGlyphs" textLength="143" x="83.5" y="204.7573">implicitRules(Uri): Builder</text><ellipse cx="74.5" cy="214.3516" fill="#84BE84" rx="3" ry="3" style="stroke: #038048; stroke-width: 1.0;"/><text fill="#000000" font-family="sans-serif" font-size="11" lengthAdjust="spacingAndGlyphs" textLength="137" x="83.5" y="217.562">language(Code): Builder</text><ellipse cx="74.5" cy="227.1563" fill="#84BE84" rx="3" ry="3" style="stroke: #038048; stroke-width: 1.0;"/><text fill="#000000" font-family="sans-serif" font-size="11" lengthAdjust="spacingAndGlyphs" textLength="129" x="83.5" y="230.3667">text(Narrative): Builder</text><ellipse cx="74.5" cy="239.9609" fill="#84BE84" rx="3" ry="3" style="stroke: #038048; stroke-width: 1.0;"/><text fill="#000000" font-family="sans-serif" font-size="11" lengthAdjust="spacingAndGlyphs" textLength="176" x="83.5" y="243.1714">contained(Resource...): Builder</text><ellipse cx="74.5" cy="252.7656" fill="#84BE84" rx="3" ry="3" style="stroke: #038048; stroke-width: 1.0;"/><text fill="#000000" font-family="sans-serif" font-size="11" lengthAdjust="spacingAndGlyphs" textLength="237" x="83.5" y="255.9761">contained(Collection&lt;Resource&gt;): Builder</text><ellipse cx="74.5" cy="265.5703" fill="#84BE84" rx="3" ry="3" style="stroke: #038048; stroke-width: 1.0;"/><text fill="#000000" font-family="sans-serif" font-size="11" lengthAdjust="spacingAndGlyphs" textLength="178" x="83.5" y="268.7808">extension(Extension...): Builder</text><ellipse cx="74.5" cy="278.375" fill="#84BE84" rx="3" ry="3" style="stroke: #038048; stroke-width: 1.0;"/><text fill="#000000" font-family="sans-serif" font-size="11" lengthAdjust="spacingAndGlyphs" textLength="239" x="83.5" y="281.5854">extension(Collection&lt;Extension&gt;): Builder</text><ellipse cx="74.5" cy="291.1797" fill="#84BE84" rx="3" ry="3" style="stroke: #038048; stroke-width: 1.0;"/><text fill="#000000" font-family="sans-serif" font-size="11" lengthAdjust="spacingAndGlyphs" textLength="225" x="83.5" y="294.3901">modifierExtension(Extension...): Builder</text><ellipse cx="74.5" cy="303.9844" fill="#84BE84" rx="3" ry="3" style="stroke: #038048; stroke-width: 1.0;"/><text fill="#000000" font-family="sans-serif" font-size="11" lengthAdjust="spacingAndGlyphs" textLength="286" x="83.5" y="307.1948">modifierExtension(Collection&lt;Extension&gt;): Builder</text><ellipse cx="74.5" cy="316.7891" fill="#84BE84" rx="3" ry="3" style="stroke: #038048; stroke-width: 1.0;"/><text fill="#000000" font-family="sans-serif" font-size="11" lengthAdjust="spacingAndGlyphs" textLength="168" x="83.5" y="319.9995">identifier(Identifier...): Builder</text><ellipse cx="74.5" cy="329.5938" fill="#84BE84" rx="3" ry="3" style="stroke: #038048; stroke-width: 1.0;"/><text fill="#000000" font-family="sans-serif" font-size="11" lengthAdjust="spacingAndGlyphs" textLength="229" x="83.5" y="332.8042">identifier(Collection&lt;Identifier&gt;): Builder</text><ellipse cx="74.5" cy="342.3984" fill="#84BE84" rx="3" ry="3" style="stroke: #038048; stroke-width: 1.0;"/><text fill="#000000" font-family="sans-serif" font-size="11" lengthAdjust="spacingAndGlyphs" textLength="152" x="83.5" y="345.6089">patient(Reference): Builder</text><ellipse cx="74.5" cy="355.2031" fill="#84BE84" rx="3" ry="3" style="stroke: #038048; stroke-width: 1.0;"/><text fill="#000000" font-family="sans-serif" font-size="11" lengthAdjust="spacingAndGlyphs" textLength="135" x="83.5" y="358.4136">date(DateTime): Builder</text><ellipse cx="74.5" cy="368.0078" fill="#84BE84" rx="3" ry="3" style="stroke: #038048; stroke-width: 1.0;"/><text fill="#000000" font-family="sans-serif" font-size="11" lengthAdjust="spacingAndGlyphs" textLength="163" x="83.5" y="371.2183">authority(Reference): Builder</text><ellipse cx="74.5" cy="380.8125" fill="#84BE84" rx="3" ry="3" style="stroke: #038048; stroke-width: 1.0;"/><text fill="#000000" font-family="sans-serif" font-size="11" lengthAdjust="spacingAndGlyphs" textLength="262" x="83.5" y="384.0229">recommendation(Recommendation...): Builder</text><ellipse cx="74.5" cy="393.6172" fill="#84BE84" rx="3" ry="3" style="stroke: #038048; stroke-width: 1.0;"/><text fill="#000000" font-family="sans-serif" font-size="11" lengthAdjust="spacingAndGlyphs" textLength="323" x="83.5" y="396.8276">recommendation(Collection&lt;Recommendation&gt;): Builder</text><ellipse cx="74.5" cy="406.4219" fill="#84BE84" rx="3" ry="3" style="stroke: #038048; stroke-width: 1.0;"/><text fill="#000000" font-family="sans-serif" font-size="11" lengthAdjust="spacingAndGlyphs" textLength="216" x="83.5" y="409.6323">build(): ImmunizationRecommendation</text><polygon fill="#FFFF44" points="74.5,414.2266,78.5,418.2266,74.5,422.2266,70.5,418.2266" style="stroke: #B38D22; stroke-width: 1.0;"/><text fill="#000000" font-family="sans-serif" font-size="11" lengthAdjust="spacingAndGlyphs" textLength="256" x="83.5" y="422.437">from(ImmunizationRecommendation): Builder</text></a><!--MD5=[c11666b1ddf186d6ba406ca2c27e1a2d]
class com.ibm.fhir.model.resource.DomainResource.Builder--><a href="DomainResource.Builder.html" target="_top" title="DomainResource.Builder.html" xlink:actuate="onRequest" xlink:href="DomainResource.Builder.html" xlink:show="new" xlink:title="DomainResource.Builder.html" xlink:type="simple"><rect fill="#FEFECE" filter="url(#fz46ulyux3iz2)" height="58.7422" id="com.ibm.fhir.model.resource.DomainResource.Builder" style="stroke: #A80036; stroke-width: 1.5;" width="204" x="6" y="8"/><ellipse cx="21" cy="26.9688" fill="#A9DCDF" rx="11" ry="11" style="stroke: #A80036; stroke-width: 1.0;"/><path d="M21.1094,22.3125 L19.9531,27.3906 L22.2813,27.3906 L21.1094,22.3125 Z M19.625,20.0781 L22.6094,20.0781 L25.9688,32.4688 L23.5156,32.4688 L22.75,29.4063 L19.4688,29.4063 L18.7188,32.4688 L16.2813,32.4688 L19.625,20.0781 Z "/><text fill="#000000" font-family="sans-serif" font-size="14" font-style="italic" lengthAdjust="spacingAndGlyphs" textLength="172" x="35" y="25.9951">DomainResource.Builder</text><text fill="#000000" font-family="sans-serif" font-size="10" font-style="italic" lengthAdjust="spacingAndGlyphs" textLength="139" x="51.5" y="38.5791">com.ibm.fhir.model.resource</text><line style="stroke: #A80036; stroke-width: 1.5;" x1="7" x2="209" y1="45.9375" y2="45.9375"/><ellipse cx="17" cy="56.9375" fill="#84BE84" rx="3" ry="3" style="stroke: #038048; stroke-width: 1.0;"/><text fill="#000000" font-family="sans-serif" font-size="11" font-style="italic" lengthAdjust="spacingAndGlyphs" textLength="139" x="26" y="60.1479">build(): DomainResource</text></a><!--MD5=[6cb08e01133a5e822f6f2daa63dcecb4]
class com.ibm.fhir.model.resource.ImmunizationRecommendation--><a href="ImmunizationRecommendation.html" target="_top" title="ImmunizationRecommendation.html" xlink:actuate="onRequest" xlink:href="ImmunizationRecommendation.html" xlink:show="new" xlink:title="ImmunizationRecommendation.html" xlink:type="simple"><rect fill="#FEFECE" filter="url(#fz46ulyux3iz2)" height="37.9375" id="com.ibm.fhir.model.resource.ImmunizationRecommendation" style="stroke: #A80036; stroke-width: 1.5;" width="247" x="245.5" y="18.5"/><ellipse cx="260.5" cy="37.4688" fill="#ADD1B2" rx="11" ry="11" style="stroke: #A80036; stroke-width: 1.0;"/><path d="M263.4688,43.1094 Q262.8906,43.4063 262.25,43.5469 Q261.6094,43.7031 260.9063,43.7031 Q258.4063,43.7031 257.0781,42.0625 Q255.7656,40.4063 255.7656,37.2813 Q255.7656,34.1563 257.0781,32.5 Q258.4063,30.8438 260.9063,30.8438 Q261.6094,30.8438 262.25,31 Q262.9063,31.1563 263.4688,31.4531 L263.4688,34.1719 Q262.8438,33.5938 262.25,33.3281 Q261.6563,33.0469 261.0313,33.0469 Q259.6875,33.0469 259,34.125 Q258.3125,35.1875 258.3125,37.2813 Q258.3125,39.375 259,40.4531 Q259.6875,41.5156 261.0313,41.5156 Q261.6563,41.5156 262.25,41.25 Q262.8438,40.9688 263.4688,40.3906 L263.4688,43.1094 Z "/><text fill="#000000" font-family="sans-serif" font-size="14" lengthAdjust="spacingAndGlyphs" textLength="215" x="274.5" y="36.4951">ImmunizationRecommendation</text><text fill="#000000" font-family="sans-serif" font-size="10" lengthAdjust="spacingAndGlyphs" textLength="139" x="312.5" y="49.0791">com.ibm.fhir.model.resource</text></a><!--MD5=[c124b33bb3aba52bbfd5eabb8600b6f6]
reverse link com.ibm.fhir.model.resource.DomainResource.Builder to com.ibm.fhir.model.resource.ImmunizationRecommendation.Builder--><path d="M133.7202,85.0823 C140.4999,97.6247 148.1918,111.8547 156.2524,126.7669 " fill="none" id="com.ibm.fhir.model.resource.DomainResource.Builder&lt;-com.ibm.fhir.model.resource.ImmunizationRecommendation.Builder" style="stroke: #A80036; stroke-width: 1.0;"/><polygon fill="none" points="127.5542,88.396,124.2017,67.4732,139.8701,81.7387,127.5542,88.396" style="stroke: #A80036; stroke-width: 1.0;"/><!--MD5=[0e2c95f9385a0aff082db49a04a1447c]
reverse link com.ibm.fhir.model.resource.ImmunizationRecommendation to com.ibm.fhir.model.resource.ImmunizationRecommendation.Builder--><path d="M351.1382,70.2921 C342.6648,85.8483 331.8748,105.6573 320.3372,126.839 " fill="none" id="com.ibm.fhir.model.resource.ImmunizationRecommendation&lt;-com.ibm.fhir.model.resource.ImmunizationRecommendation.Builder" style="stroke: #A80036; stroke-width: 1.0;"/><ellipse cx="354.6745" cy="63.8" fill="#FFFFFF" rx="8" ry="8" style="stroke: #A80036; stroke-width: 1.0;"/><line style="stroke: #A80036; stroke-width: 1.0;" x1="350.8477" x2="358.5012" y1="70.8254" y2="56.7746"/><line style="stroke: #A80036; stroke-width: 1.0;" x1="347.6491" x2="361.6998" y1="59.9732" y2="67.6267"/><text fill="#888888" font-family="sans-serif" font-size="10" lengthAdjust="spacingAndGlyphs" textLength="186" x="162.5" y="448.2822">UMLDoclet 2.0.7, PlantUML 1.2019.12</text><!--MD5=[f078013fad80deb463a9f6690bc040aa]
@startuml
    set namespaceSeparator none
    hide empty fields
    hide empty methods

    class "<size:14>ImmunizationRecommendation.Builder\n<size:10>com.ibm.fhir.model.resource" as com.ibm.fhir.model.resource.ImmunizationRecommendation.Builder [[ImmunizationRecommendation.Builder.html]] {
        +id(String): Builder
        +meta(Meta): Builder
        +implicitRules(Uri): Builder
        +language(Code): Builder
        +text(Narrative): Builder
        +contained(Resource...): Builder
        +contained(Collection<Resource>): Builder
        +extension(Extension...): Builder
        +extension(Collection<Extension>): Builder
        +modifierExtension(Extension...): Builder
        +modifierExtension(Collection<Extension>): Builder
        +identifier(Identifier...): Builder
        +identifier(Collection<Identifier>): Builder
        +patient(Reference): Builder
        +date(DateTime): Builder
        +authority(Reference): Builder
        +recommendation(Recommendation...): Builder
        +recommendation(Collection<Recommendation>): Builder
        +build(): ImmunizationRecommendation
        #from(ImmunizationRecommendation): Builder
    }

    abstract class "<size:14>DomainResource.Builder\n<size:10>com.ibm.fhir.model.resource" as com.ibm.fhir.model.resource.DomainResource.Builder [[DomainResource.Builder.html]] {
        {abstract} +build(): DomainResource
    }
    class "<size:14>ImmunizationRecommendation\n<size:10>com.ibm.fhir.model.resource" as com.ibm.fhir.model.resource.ImmunizationRecommendation [[ImmunizationRecommendation.html]]

    com.ibm.fhir.model.resource.DomainResource.Builder <|- - com.ibm.fhir.model.resource.ImmunizationRecommendation.Builder
    com.ibm.fhir.model.resource.ImmunizationRecommendation +- - com.ibm.fhir.model.resource.ImmunizationRecommendation.Builder

    center footer UMLDoclet 2.0.7, PlantUML 1.2019.12
@enduml

PlantUML version 1.2019.12(Sun Nov 03 10:24:54 UTC 2019)
(APACHE source distribution)
Java Runtime: OpenJDK Runtime Environment
JVM: OpenJDK 64-Bit Server VM
Java Version: 11.0.6+10
Operating System: Linux
Default Encoding: UTF-8
Language: en
Country: null
--></g></svg>