<?xml version="1.0" encoding="UTF-8" standalone="no"?><svg xmlns="http://www.w3.org/2000/svg" xmlns:xlink="http://www.w3.org/1999/xlink" contentScriptType="application/ecmascript" contentStyleType="text/css" height="333px" preserveAspectRatio="none" style="width:656px;height:333px;" version="1.1" viewBox="0 0 656 333" width="656px" zoomAndPan="magnify"><defs><filter height="300%" id="f1kt2po4cy8jr1" width="300%" x="-1" y="-1"><feGaussianBlur result="blurOut" stdDeviation="2.0"/><feColorMatrix in="blurOut" result="blurOut2" type="matrix" values="0 0 0 0 0 0 0 0 0 0 0 0 0 0 0 0 0 0 .4 0"/><feOffset dx="4.0" dy="4.0" in="blurOut2" result="blurOut3"/><feBlend in="SourceGraphic" in2="blurOut3" mode="normal"/></filter></defs><g><!--MD5=[2785d95c532e8e2358f57e4977969164]
class com.ibm.fhir.model.resource.MedicationKnowledge.RelatedMedicationKnowledge.Builder--><a href="MedicationKnowledge.RelatedMedicationKnowledge.Builder.html" target="_top" title="MedicationKnowledge.RelatedMedicationKnowledge.Builder.html" xlink:actuate="onRequest" xlink:href="MedicationKnowledge.RelatedMedicationKnowledge.Builder.html" xlink:show="new" xlink:title="MedicationKnowledge.RelatedMedicationKnowledge.Builder.html" xlink:type="simple"><rect fill="#FEFECE" filter="url(#f1kt2po4cy8jr1)" height="173.9844" id="com.ibm.fhir.model.resource.MedicationKnowledge.RelatedMedicationKnowledge.Builder" style="stroke: #A80036; stroke-width: 1.5;" width="445" x="57" y="127"/><ellipse cx="72" cy="145.9688" fill="#ADD1B2" rx="11" ry="11" style="stroke: #A80036; stroke-width: 1.0;"/><path d="M74.9688,151.6094 Q74.3906,151.9063 73.75,152.0469 Q73.1094,152.2031 72.4063,152.2031 Q69.9063,152.2031 68.5781,150.5625 Q67.2656,148.9063 67.2656,145.7813 Q67.2656,142.6563 68.5781,141 Q69.9063,139.3438 72.4063,139.3438 Q73.1094,139.3438 73.75,139.5 Q74.4063,139.6563 74.9688,139.9531 L74.9688,142.6719 Q74.3438,142.0938 73.75,141.8281 Q73.1563,141.5469 72.5313,141.5469 Q71.1875,141.5469 70.5,142.625 Q69.8125,143.6875 69.8125,145.7813 Q69.8125,147.875 70.5,148.9531 Q71.1875,150.0156 72.5313,150.0156 Q73.1563,150.0156 73.75,149.75 Q74.3438,149.4688 74.9688,148.8906 L74.9688,151.6094 Z "/><text fill="#000000" font-family="sans-serif" font-size="14" lengthAdjust="spacingAndGlyphs" textLength="413" x="86" y="144.9951">MedicationKnowledge.RelatedMedicationKnowledge.Builder</text><text fill="#000000" font-family="sans-serif" font-size="10" lengthAdjust="spacingAndGlyphs" textLength="139" x="223" y="157.5791">com.ibm.fhir.model.resource</text><line style="stroke: #A80036; stroke-width: 1.5;" x1="58" x2="501" y1="164.9375" y2="164.9375"/><ellipse cx="68" cy="175.9375" fill="#84BE84" rx="3" ry="3" style="stroke: #038048; stroke-width: 1.0;"/><text fill="#000000" font-family="sans-serif" font-size="11" lengthAdjust="spacingAndGlyphs" textLength="100" x="77" y="179.1479">id(String): Builder</text><ellipse cx="68" cy="188.7422" fill="#84BE84" rx="3" ry="3" style="stroke: #038048; stroke-width: 1.0;"/><text fill="#000000" font-family="sans-serif" font-size="11" lengthAdjust="spacingAndGlyphs" textLength="178" x="77" y="191.9526">extension(Extension...): Builder</text><ellipse cx="68" cy="201.5469" fill="#84BE84" rx="3" ry="3" style="stroke: #038048; stroke-width: 1.0;"/><text fill="#000000" font-family="sans-serif" font-size="11" lengthAdjust="spacingAndGlyphs" textLength="239" x="77" y="204.7573">extension(Collection&lt;Extension&gt;): Builder</text><ellipse cx="68" cy="214.3516" fill="#84BE84" rx="3" ry="3" style="stroke: #038048; stroke-width: 1.0;"/><text fill="#000000" font-family="sans-serif" font-size="11" lengthAdjust="spacingAndGlyphs" textLength="225" x="77" y="217.562">modifierExtension(Extension...): Builder</text><ellipse cx="68" cy="227.1563" fill="#84BE84" rx="3" ry="3" style="stroke: #038048; stroke-width: 1.0;"/><text fill="#000000" font-family="sans-serif" font-size="11" lengthAdjust="spacingAndGlyphs" textLength="286" x="77" y="230.3667">modifierExtension(Collection&lt;Extension&gt;): Builder</text><ellipse cx="68" cy="239.9609" fill="#84BE84" rx="3" ry="3" style="stroke: #038048; stroke-width: 1.0;"/><text fill="#000000" font-family="sans-serif" font-size="11" lengthAdjust="spacingAndGlyphs" textLength="179" x="77" y="243.1714">type(CodeableConcept): Builder</text><ellipse cx="68" cy="252.7656" fill="#84BE84" rx="3" ry="3" style="stroke: #038048; stroke-width: 1.0;"/><text fill="#000000" font-family="sans-serif" font-size="11" lengthAdjust="spacingAndGlyphs" textLength="180" x="77" y="255.9761">reference(Reference...): Builder</text><ellipse cx="68" cy="265.5703" fill="#84BE84" rx="3" ry="3" style="stroke: #038048; stroke-width: 1.0;"/><text fill="#000000" font-family="sans-serif" font-size="11" lengthAdjust="spacingAndGlyphs" textLength="241" x="77" y="268.7808">reference(Collection&lt;Reference&gt;): Builder</text><ellipse cx="68" cy="278.375" fill="#84BE84" rx="3" ry="3" style="stroke: #038048; stroke-width: 1.0;"/><text fill="#000000" font-family="sans-serif" font-size="11" lengthAdjust="spacingAndGlyphs" textLength="206" x="77" y="281.5854">build(): RelatedMedicationKnowledge</text><polygon fill="#FFFF44" points="68,286.1797,72,290.1797,68,294.1797,64,290.1797" style="stroke: #B38D22; stroke-width: 1.0;"/><text fill="#000000" font-family="sans-serif" font-size="11" lengthAdjust="spacingAndGlyphs" textLength="246" x="77" y="294.3901">from(RelatedMedicationKnowledge): Builder</text></a><!--MD5=[b7b0ea86c8a299e1957933e33e561193]
class com.ibm.fhir.model.type.BackboneElement.Builder--><a href="../type/BackboneElement.Builder.html" target="_top" title="../type/BackboneElement.Builder.html" xlink:actuate="onRequest" xlink:href="../type/BackboneElement.Builder.html" xlink:show="new" xlink:title="../type/BackboneElement.Builder.html" xlink:type="simple"><rect fill="#FEFECE" filter="url(#f1kt2po4cy8jr1)" height="58.7422" id="com.ibm.fhir.model.type.BackboneElement.Builder" style="stroke: #A80036; stroke-width: 1.5;" width="211" x="6" y="8"/><ellipse cx="21" cy="26.9688" fill="#A9DCDF" rx="11" ry="11" style="stroke: #A80036; stroke-width: 1.0;"/><path d="M21.1094,22.3125 L19.9531,27.3906 L22.2813,27.3906 L21.1094,22.3125 Z M19.625,20.0781 L22.6094,20.0781 L25.9688,32.4688 L23.5156,32.4688 L22.75,29.4063 L19.4688,29.4063 L18.7188,32.4688 L16.2813,32.4688 L19.625,20.0781 Z "/><text fill="#000000" font-family="sans-serif" font-size="14" font-style="italic" lengthAdjust="spacingAndGlyphs" textLength="179" x="35" y="25.9951">BackboneElement.Builder</text><text fill="#000000" font-family="sans-serif" font-size="10" font-style="italic" lengthAdjust="spacingAndGlyphs" textLength="119" x="65" y="38.5791">com.ibm.fhir.model.type</text><line style="stroke: #A80036; stroke-width: 1.5;" x1="7" x2="216" y1="45.9375" y2="45.9375"/><ellipse cx="17" cy="56.9375" fill="#84BE84" rx="3" ry="3" style="stroke: #038048; stroke-width: 1.0;"/><text fill="#000000" font-family="sans-serif" font-size="11" font-style="italic" lengthAdjust="spacingAndGlyphs" textLength="144" x="26" y="60.1479">build(): BackboneElement</text></a><!--MD5=[9746e80d769b869d930a8e32da26abfa]
class com.ibm.fhir.model.resource.MedicationKnowledge.RelatedMedicationKnowledge--><a href="MedicationKnowledge.RelatedMedicationKnowledge.html" target="_top" title="MedicationKnowledge.RelatedMedicationKnowledge.html" xlink:actuate="onRequest" xlink:href="MedicationKnowledge.RelatedMedicationKnowledge.html" xlink:show="new" xlink:title="MedicationKnowledge.RelatedMedicationKnowledge.html" xlink:type="simple"><rect fill="#FEFECE" filter="url(#f1kt2po4cy8jr1)" height="37.9375" id="com.ibm.fhir.model.resource.MedicationKnowledge.RelatedMedicationKnowledge" style="stroke: #A80036; stroke-width: 1.5;" width="393" x="252" y="18.5"/><ellipse cx="267" cy="37.4688" fill="#ADD1B2" rx="11" ry="11" style="stroke: #A80036; stroke-width: 1.0;"/><path d="M269.9688,43.1094 Q269.3906,43.4063 268.75,43.5469 Q268.1094,43.7031 267.4063,43.7031 Q264.9063,43.7031 263.5781,42.0625 Q262.2656,40.4063 262.2656,37.2813 Q262.2656,34.1563 263.5781,32.5 Q264.9063,30.8438 267.4063,30.8438 Q268.1094,30.8438 268.75,31 Q269.4063,31.1563 269.9688,31.4531 L269.9688,34.1719 Q269.3438,33.5938 268.75,33.3281 Q268.1563,33.0469 267.5313,33.0469 Q266.1875,33.0469 265.5,34.125 Q264.8125,35.1875 264.8125,37.2813 Q264.8125,39.375 265.5,40.4531 Q266.1875,41.5156 267.5313,41.5156 Q268.1563,41.5156 268.75,41.25 Q269.3438,40.9688 269.9688,40.3906 L269.9688,43.1094 Z "/><text fill="#000000" font-family="sans-serif" font-size="14" lengthAdjust="spacingAndGlyphs" textLength="361" x="281" y="36.4951">MedicationKnowledge.RelatedMedicationKnowledge</text><text fill="#000000" font-family="sans-serif" font-size="10" lengthAdjust="spacingAndGlyphs" textLength="139" x="392" y="49.0791">com.ibm.fhir.model.resource</text></a><!--MD5=[11b500692eff22c5fafe91d9ee195b79]
reverse link com.ibm.fhir.model.type.BackboneElement.Builder to com.ibm.fhir.model.resource.MedicationKnowledge.RelatedMedicationKnowledge.Builder--><path d="M153.5497,81.6772 C166.6678,95.459 181.6223,111.1702 196.5334,126.8357 " fill="none" id="com.ibm.fhir.model.type.BackboneElement.Builder&lt;-com.ibm.fhir.model.resource.MedicationKnowledge.RelatedMedicationKnowledge.Builder" style="stroke: #A80036; stroke-width: 1.0;"/><polygon fill="none" points="148.3381,86.355,139.6194,67.0421,158.4788,76.7027,148.3381,86.355" style="stroke: #A80036; stroke-width: 1.0;"/><!--MD5=[6a610d2fdf7c7a69600f6c133acae68b]
reverse link com.ibm.fhir.model.resource.MedicationKnowledge.RelatedMedicationKnowledge to com.ibm.fhir.model.resource.MedicationKnowledge.RelatedMedicationKnowledge.Builder--><path d="M419.5211,67.765 C403.7942,84.1898 383.464,105.4222 363.1954,126.5903 " fill="none" id="com.ibm.fhir.model.resource.MedicationKnowledge.RelatedMedicationKnowledge&lt;-com.ibm.fhir.model.resource.MedicationKnowledge.RelatedMedicationKnowledge.Builder" style="stroke: #A80036; stroke-width: 1.0;"/><ellipse cx="424.5595" cy="62.5029" fill="#FFFFFF" rx="8" ry="8" style="stroke: #A80036; stroke-width: 1.0;"/><line style="stroke: #A80036; stroke-width: 1.0;" x1="419.0267" x2="430.0923" y1="68.2811" y2="56.7246"/><line style="stroke: #A80036; stroke-width: 1.0;" x1="418.7813" x2="430.3378" y1="56.9701" y2="68.0356"/><text fill="#888888" font-family="sans-serif" font-size="10" lengthAdjust="spacingAndGlyphs" textLength="186" x="238.5" y="320.2822">UMLDoclet 2.0.7, PlantUML 1.2019.12</text><!--MD5=[0d8cabb125f4d7f9d6bdebf3c1de5e6a]
@startuml
    set namespaceSeparator none
    hide empty fields
    hide empty methods

    class "<size:14>MedicationKnowledge.RelatedMedicationKnowledge.Builder\n<size:10>com.ibm.fhir.model.resource" as com.ibm.fhir.model.resource.MedicationKnowledge.RelatedMedicationKnowledge.Builder [[MedicationKnowledge.RelatedMedicationKnowledge.Builder.html]] {
        +id(String): Builder
        +extension(Extension...): Builder
        +extension(Collection<Extension>): Builder
        +modifierExtension(Extension...): Builder
        +modifierExtension(Collection<Extension>): Builder
        +type(CodeableConcept): Builder
        +reference(Reference...): Builder
        +reference(Collection<Reference>): Builder
        +build(): RelatedMedicationKnowledge
        #from(RelatedMedicationKnowledge): Builder
    }

    abstract class "<size:14>BackboneElement.Builder\n<size:10>com.ibm.fhir.model.type" as com.ibm.fhir.model.type.BackboneElement.Builder [[../type/BackboneElement.Builder.html]] {
        {abstract} +build(): BackboneElement
    }
    class "<size:14>MedicationKnowledge.RelatedMedicationKnowledge\n<size:10>com.ibm.fhir.model.resource" as com.ibm.fhir.model.resource.MedicationKnowledge.RelatedMedicationKnowledge [[MedicationKnowledge.RelatedMedicationKnowledge.html]]

    com.ibm.fhir.model.type.BackboneElement.Builder <|- - com.ibm.fhir.model.resource.MedicationKnowledge.RelatedMedicationKnowledge.Builder
    com.ibm.fhir.model.resource.MedicationKnowledge.RelatedMedicationKnowledge +- - com.ibm.fhir.model.resource.MedicationKnowledge.RelatedMedicationKnowledge.Builder

    center footer UMLDoclet 2.0.7, PlantUML 1.2019.12
@enduml

PlantUML version 1.2019.12(Sun Nov 03 10:24:54 UTC 2019)
(APACHE source distribution)
Java Runtime: OpenJDK Runtime Environment
JVM: OpenJDK 64-Bit Server VM
Java Version: 11.0.6+10
Operating System: Linux
Default Encoding: UTF-8
Language: en
Country: null
--></g></svg>