<?xml version="1.0" encoding="UTF-8" standalone="no"?><svg xmlns="http://www.w3.org/2000/svg" xmlns:xlink="http://www.w3.org/1999/xlink" contentScriptType="application/ecmascript" contentStyleType="text/css" height="457px" preserveAspectRatio="none" style="width:246px;height:457px;" version="1.1" viewBox="0 0 246 457" width="246px" zoomAndPan="magnify"><defs><filter height="300%" id="fn6eqhp81rqdg" width="300%" x="-1" y="-1"><feGaussianBlur result="blurOut" stdDeviation="2.0"/><feColorMatrix in="blurOut" result="blurOut2" type="matrix" values="0 0 0 0 0 0 0 0 0 0 0 0 0 0 0 0 0 0 .4 0"/><feOffset dx="4.0" dy="4.0" in="blurOut2" result="blurOut3"/><feBlend in="SourceGraphic" in2="blurOut3" mode="normal"/></filter></defs><g><!--MD5=[92cdd3b49d7a37216f25ccb2fdf1e878]
class com.ibm.fhir.model.resource.ResearchSubject--><a href="ResearchSubject.html" target="_top" title="ResearchSubject.html" xlink:actuate="onRequest" xlink:href="ResearchSubject.html" xlink:show="new" xlink:title="ResearchSubject.html" xlink:type="simple"><rect fill="#FEFECE" filter="url(#fn6eqhp81rqdg)" height="199.5938" id="com.ibm.fhir.model.resource.ResearchSubject" style="stroke: #A80036; stroke-width: 1.5;" width="229" x="6" y="127"/><ellipse cx="47.1" cy="145.9688" fill="#ADD1B2" rx="11" ry="11" style="stroke: #A80036; stroke-width: 1.0;"/><path d="M50.0688,151.6094 Q49.4906,151.9063 48.85,152.0469 Q48.2094,152.2031 47.5063,152.2031 Q45.0063,152.2031 43.6781,150.5625 Q42.3656,148.9063 42.3656,145.7813 Q42.3656,142.6563 43.6781,141 Q45.0063,139.3438 47.5063,139.3438 Q48.2094,139.3438 48.85,139.5 Q49.5063,139.6563 50.0688,139.9531 L50.0688,142.6719 Q49.4438,142.0938 48.85,141.8281 Q48.2563,141.5469 47.6313,141.5469 Q46.2875,141.5469 45.6,142.625 Q44.9125,143.6875 44.9125,145.7813 Q44.9125,147.875 45.6,148.9531 Q46.2875,150.0156 47.6313,150.0156 Q48.2563,150.0156 48.85,149.75 Q49.4438,149.4688 50.0688,148.8906 L50.0688,151.6094 Z "/><text fill="#000000" font-family="sans-serif" font-size="14" lengthAdjust="spacingAndGlyphs" textLength="118" x="77.4" y="144.9951">ResearchSubject</text><text fill="#000000" font-family="sans-serif" font-size="10" lengthAdjust="spacingAndGlyphs" textLength="139" x="66.9" y="157.5791">com.ibm.fhir.model.resource</text><line style="stroke: #A80036; stroke-width: 1.5;" x1="7" x2="234" y1="164.9375" y2="164.9375"/><ellipse cx="17" cy="175.9375" fill="#84BE84" rx="3" ry="3" style="stroke: #038048; stroke-width: 1.0;"/><text fill="#000000" font-family="sans-serif" font-size="11" lengthAdjust="spacingAndGlyphs" textLength="172" x="26" y="179.1479">getIdentifier(): List&lt;Identifier&gt;</text><ellipse cx="17" cy="188.7422" fill="#84BE84" rx="3" ry="3" style="stroke: #038048; stroke-width: 1.0;"/><text fill="#000000" font-family="sans-serif" font-size="11" lengthAdjust="spacingAndGlyphs" textLength="203" x="26" y="191.9526">getStatus(): ResearchSubjectStatus</text><ellipse cx="17" cy="201.5469" fill="#84BE84" rx="3" ry="3" style="stroke: #038048; stroke-width: 1.0;"/><text fill="#000000" font-family="sans-serif" font-size="11" lengthAdjust="spacingAndGlyphs" textLength="106" x="26" y="204.7573">getPeriod(): Period</text><ellipse cx="17" cy="214.3516" fill="#84BE84" rx="3" ry="3" style="stroke: #038048; stroke-width: 1.0;"/><text fill="#000000" font-family="sans-serif" font-size="11" lengthAdjust="spacingAndGlyphs" textLength="123" x="26" y="217.562">getStudy(): Reference</text><ellipse cx="17" cy="227.1563" fill="#84BE84" rx="3" ry="3" style="stroke: #038048; stroke-width: 1.0;"/><text fill="#000000" font-family="sans-serif" font-size="11" lengthAdjust="spacingAndGlyphs" textLength="144" x="26" y="230.3667">getIndividual(): Reference</text><ellipse cx="17" cy="239.9609" fill="#84BE84" rx="3" ry="3" style="stroke: #038048; stroke-width: 1.0;"/><text fill="#000000" font-family="sans-serif" font-size="11" lengthAdjust="spacingAndGlyphs" textLength="143" x="26" y="243.1714">getAssignedArm(): String</text><ellipse cx="17" cy="252.7656" fill="#84BE84" rx="3" ry="3" style="stroke: #038048; stroke-width: 1.0;"/><text fill="#000000" font-family="sans-serif" font-size="11" lengthAdjust="spacingAndGlyphs" textLength="125" x="26" y="255.9761">getActualArm(): String</text><ellipse cx="17" cy="265.5703" fill="#84BE84" rx="3" ry="3" style="stroke: #038048; stroke-width: 1.0;"/><text fill="#000000" font-family="sans-serif" font-size="11" lengthAdjust="spacingAndGlyphs" textLength="138" x="26" y="268.7808">getConsent(): Reference</text><ellipse cx="17" cy="278.375" fill="#84BE84" rx="3" ry="3" style="stroke: #038048; stroke-width: 1.0;"/><text fill="#000000" font-family="sans-serif" font-size="11" lengthAdjust="spacingAndGlyphs" textLength="129" x="26" y="281.5854">hasChildren(): boolean</text><ellipse cx="17" cy="291.1797" fill="#84BE84" rx="3" ry="3" style="stroke: #038048; stroke-width: 1.0;"/><text fill="#000000" font-family="sans-serif" font-size="11" lengthAdjust="spacingAndGlyphs" textLength="176" x="26" y="294.3901">accept(String, int, Visitor): void</text><ellipse cx="17" cy="303.9844" fill="#84BE84" rx="3" ry="3" style="stroke: #038048; stroke-width: 1.0;"/><text fill="#000000" font-family="sans-serif" font-size="11" lengthAdjust="spacingAndGlyphs" textLength="107" x="26" y="307.1948">toBuilder(): Builder</text><ellipse cx="17" cy="316.7891" fill="#84BE84" rx="3" ry="3" style="stroke: #038048; stroke-width: 1.0;"/><text fill="#000000" font-family="sans-serif" font-size="11" lengthAdjust="spacingAndGlyphs" text-decoration="underline" textLength="95" x="26" y="319.9995">builder(): Builder</text></a><!--MD5=[5a92b081cf79a7020013158c64ef85a4]
class com.ibm.fhir.model.resource.DomainResource--><a href="DomainResource.html" target="_top" title="DomainResource.html" xlink:actuate="onRequest" xlink:href="DomainResource.html" xlink:show="new" xlink:title="DomainResource.html" xlink:type="simple"><rect fill="#FEFECE" filter="url(#fn6eqhp81rqdg)" height="58.7422" id="com.ibm.fhir.model.resource.DomainResource" style="stroke: #A80036; stroke-width: 1.5;" width="171" x="35" y="8"/><ellipse cx="50" cy="26.9688" fill="#A9DCDF" rx="11" ry="11" style="stroke: #A80036; stroke-width: 1.0;"/><path d="M50.1094,22.3125 L48.9531,27.3906 L51.2813,27.3906 L50.1094,22.3125 Z M48.625,20.0781 L51.6094,20.0781 L54.9688,32.4688 L52.5156,32.4688 L51.75,29.4063 L48.4688,29.4063 L47.7188,32.4688 L45.2813,32.4688 L48.625,20.0781 Z "/><text fill="#000000" font-family="sans-serif" font-size="14" font-style="italic" lengthAdjust="spacingAndGlyphs" textLength="120" x="73.5" y="25.9951">DomainResource</text><text fill="#000000" font-family="sans-serif" font-size="10" font-style="italic" lengthAdjust="spacingAndGlyphs" textLength="139" x="64" y="38.5791">com.ibm.fhir.model.resource</text><line style="stroke: #A80036; stroke-width: 1.5;" x1="36" x2="205" y1="45.9375" y2="45.9375"/><ellipse cx="46" cy="56.9375" fill="#84BE84" rx="3" ry="3" style="stroke: #038048; stroke-width: 1.0;"/><text fill="#000000" font-family="sans-serif" font-size="11" font-style="italic" lengthAdjust="spacingAndGlyphs" textLength="107" x="55" y="60.1479">toBuilder(): Builder</text></a><!--MD5=[0eb838632cacd83988a7c6a3469abcf7]
class com.ibm.fhir.model.resource.ResearchSubject.Builder--><a href="ResearchSubject.Builder.html" target="_top" title="ResearchSubject.Builder.html" xlink:actuate="onRequest" xlink:href="ResearchSubject.Builder.html" xlink:show="new" xlink:title="ResearchSubject.Builder.html" xlink:type="simple"><rect fill="#FEFECE" filter="url(#fn6eqhp81rqdg)" height="37.9375" id="com.ibm.fhir.model.resource.ResearchSubject.Builder" style="stroke: #A80036; stroke-width: 1.5;" width="202" x="19.5" y="387"/><ellipse cx="34.5" cy="405.9688" fill="#ADD1B2" rx="11" ry="11" style="stroke: #A80036; stroke-width: 1.0;"/><path d="M37.4688,411.6094 Q36.8906,411.9063 36.25,412.0469 Q35.6094,412.2031 34.9063,412.2031 Q32.4063,412.2031 31.0781,410.5625 Q29.7656,408.9063 29.7656,405.7813 Q29.7656,402.6563 31.0781,401 Q32.4063,399.3438 34.9063,399.3438 Q35.6094,399.3438 36.25,399.5 Q36.9063,399.6563 37.4688,399.9531 L37.4688,402.6719 Q36.8438,402.0938 36.25,401.8281 Q35.6563,401.5469 35.0313,401.5469 Q33.6875,401.5469 33,402.625 Q32.3125,403.6875 32.3125,405.7813 Q32.3125,407.875 33,408.9531 Q33.6875,410.0156 35.0313,410.0156 Q35.6563,410.0156 36.25,409.75 Q36.8438,409.4688 37.4688,408.8906 L37.4688,411.6094 Z "/><text fill="#000000" font-family="sans-serif" font-size="14" lengthAdjust="spacingAndGlyphs" textLength="170" x="48.5" y="404.9951">ResearchSubject.Builder</text><text fill="#000000" font-family="sans-serif" font-size="10" lengthAdjust="spacingAndGlyphs" textLength="139" x="64" y="417.5791">com.ibm.fhir.model.resource</text></a><!--MD5=[0411248f7aacb468f7adc5457436c437]
reverse link com.ibm.fhir.model.resource.DomainResource to com.ibm.fhir.model.resource.ResearchSubject--><path d="M120.5,87.5058 C120.5,99.7513 120.5,113.2912 120.5,126.9783 " fill="none" id="com.ibm.fhir.model.resource.DomainResource&lt;-com.ibm.fhir.model.resource.ResearchSubject" style="stroke: #A80036; stroke-width: 1.0;"/><polygon fill="none" points="113.5001,87.1094,120.5,67.1094,127.5001,87.1093,113.5001,87.1094" style="stroke: #A80036; stroke-width: 1.0;"/><!--MD5=[775b21ce5c23a03900c4e6c5da69de8d]
reverse link com.ibm.fhir.model.resource.ResearchSubject to com.ibm.fhir.model.resource.ResearchSubject.Builder--><path d="M120.5,342.2814 C120.5,359.4805 120.5,375.2909 120.5,386.8604 " fill="none" id="com.ibm.fhir.model.resource.ResearchSubject&lt;-com.ibm.fhir.model.resource.ResearchSubject.Builder" style="stroke: #A80036; stroke-width: 1.0;"/><ellipse cx="120.5" cy="335.2275" fill="#FFFFFF" rx="8" ry="8" style="stroke: #A80036; stroke-width: 1.0;"/><line style="stroke: #A80036; stroke-width: 1.0;" x1="120.5" x2="120.5" y1="343.2275" y2="327.2275"/><line style="stroke: #A80036; stroke-width: 1.0;" x1="112.5" x2="128.5" y1="335.2275" y2="335.2275"/><text fill="#888888" font-family="sans-serif" font-size="10" lengthAdjust="spacingAndGlyphs" textLength="186" x="33.5" y="444.2822">UMLDoclet 2.0.7, PlantUML 1.2019.12</text><!--MD5=[9f0fd3c44806c56fbc47ebd97a913a18]
@startuml
    set namespaceSeparator none
    hide empty fields
    hide empty methods

    class "<size:14>ResearchSubject\n<size:10>com.ibm.fhir.model.resource" as com.ibm.fhir.model.resource.ResearchSubject [[ResearchSubject.html]] {
        +getIdentifier(): List<Identifier>
        +getStatus(): ResearchSubjectStatus
        +getPeriod(): Period
        +getStudy(): Reference
        +getIndividual(): Reference
        +getAssignedArm(): String
        +getActualArm(): String
        +getConsent(): Reference
        +hasChildren(): boolean
        +accept(String, int, Visitor): void
        +toBuilder(): Builder
        {static} +builder(): Builder
    }

    abstract class "<size:14>DomainResource\n<size:10>com.ibm.fhir.model.resource" as com.ibm.fhir.model.resource.DomainResource [[DomainResource.html]] {
        {abstract} +toBuilder(): Builder
    }
    class "<size:14>ResearchSubject.Builder\n<size:10>com.ibm.fhir.model.resource" as com.ibm.fhir.model.resource.ResearchSubject.Builder [[ResearchSubject.Builder.html]]

    com.ibm.fhir.model.resource.DomainResource <|- - com.ibm.fhir.model.resource.ResearchSubject
    com.ibm.fhir.model.resource.ResearchSubject +- - com.ibm.fhir.model.resource.ResearchSubject.Builder

    center footer UMLDoclet 2.0.7, PlantUML 1.2019.12
@enduml

PlantUML version 1.2019.12(Sun Nov 03 10:24:54 UTC 2019)
(APACHE source distribution)
Java Runtime: OpenJDK Runtime Environment
JVM: OpenJDK 64-Bit Server VM
Java Version: 11.0.6+10
Operating System: Linux
Default Encoding: UTF-8
Language: en
Country: null
--></g></svg>