<?xml version="1.0" encoding="UTF-8" standalone="no"?><svg xmlns="http://www.w3.org/2000/svg" xmlns:xlink="http://www.w3.org/1999/xlink" contentScriptType="application/ecmascript" contentStyleType="text/css" height="482px" preserveAspectRatio="none" style="width:509px;height:482px;" version="1.1" viewBox="0 0 509 482" width="509px" zoomAndPan="magnify"><defs><filter height="300%" id="fqa4nz1di5dsk" width="300%" x="-1" y="-1"><feGaussianBlur result="blurOut" stdDeviation="2.0"/><feColorMatrix in="blurOut" result="blurOut2" type="matrix" values="0 0 0 0 0 0 0 0 0 0 0 0 0 0 0 0 0 0 .4 0"/><feOffset dx="4.0" dy="4.0" in="blurOut2" result="blurOut3"/><feBlend in="SourceGraphic" in2="blurOut3" mode="normal"/></filter></defs><g><!--MD5=[3273214bfe98b5e031b06f60131ba252]
class com.ibm.fhir.model.type.code.CarePlanActivityKind--><a href="CarePlanActivityKind.html" target="_top" title="CarePlanActivityKind.html" xlink:actuate="onRequest" xlink:href="CarePlanActivityKind.html" xlink:show="new" xlink:title="CarePlanActivityKind.html" xlink:type="simple"><rect fill="#FEFECE" filter="url(#fqa4nz1di5dsk)" height="246.0078" id="com.ibm.fhir.model.type.code.CarePlanActivityKind" style="stroke: #A80036; stroke-width: 1.5;" width="303" x="97.5" y="106"/><ellipse cx="172.25" cy="124.9688" fill="#ADD1B2" rx="11" ry="11" style="stroke: #A80036; stroke-width: 1.0;"/><path d="M175.2188,130.6094 Q174.6406,130.9063 174,131.0469 Q173.3594,131.2031 172.6563,131.2031 Q170.1563,131.2031 168.8281,129.5625 Q167.5156,127.9063 167.5156,124.7813 Q167.5156,121.6563 168.8281,120 Q170.1563,118.3438 172.6563,118.3438 Q173.3594,118.3438 174,118.5 Q174.6563,118.6563 175.2188,118.9531 L175.2188,121.6719 Q174.5938,121.0938 174,120.8281 Q173.4063,120.5469 172.7813,120.5469 Q171.4375,120.5469 170.75,121.625 Q170.0625,122.6875 170.0625,124.7813 Q170.0625,126.875 170.75,127.9531 Q171.4375,129.0156 172.7813,129.0156 Q173.4063,129.0156 174,128.75 Q174.5938,128.4688 175.2188,127.8906 L175.2188,130.6094 Z "/><text fill="#000000" font-family="sans-serif" font-size="14" lengthAdjust="spacingAndGlyphs" textLength="138" x="196.25" y="123.9951">CarePlanActivityKind</text><text fill="#000000" font-family="sans-serif" font-size="10" lengthAdjust="spacingAndGlyphs" textLength="145" x="192.75" y="136.5791">com.ibm.fhir.model.type.code</text><line style="stroke: #A80036; stroke-width: 1.5;" x1="98.5" x2="399.5" y1="143.9375" y2="143.9375"/><ellipse cx="108.5" cy="154.9375" fill="none" rx="3" ry="3" style="stroke: #038048; stroke-width: 1.0;"/><text fill="#000000" font-family="sans-serif" font-size="11" lengthAdjust="spacingAndGlyphs" text-decoration="underline" textLength="201" x="117.5" y="158.1479">APPOINTMENT: CarePlanActivityKind</text><ellipse cx="108.5" cy="167.7422" fill="none" rx="3" ry="3" style="stroke: #038048; stroke-width: 1.0;"/><text fill="#000000" font-family="sans-serif" font-size="11" lengthAdjust="spacingAndGlyphs" text-decoration="underline" textLength="277" x="117.5" y="170.9526">COMMUNICATION_REQUEST: CarePlanActivityKind</text><ellipse cx="108.5" cy="180.5469" fill="none" rx="3" ry="3" style="stroke: #038048; stroke-width: 1.0;"/><text fill="#000000" font-family="sans-serif" font-size="11" lengthAdjust="spacingAndGlyphs" text-decoration="underline" textLength="221" x="117.5" y="183.7573">DEVICE_REQUEST: CarePlanActivityKind</text><ellipse cx="108.5" cy="193.3516" fill="none" rx="3" ry="3" style="stroke: #038048; stroke-width: 1.0;"/><text fill="#000000" font-family="sans-serif" font-size="11" lengthAdjust="spacingAndGlyphs" text-decoration="underline" textLength="250" x="117.5" y="196.562">MEDICATION_REQUEST: CarePlanActivityKind</text><ellipse cx="108.5" cy="206.1563" fill="none" rx="3" ry="3" style="stroke: #038048; stroke-width: 1.0;"/><text fill="#000000" font-family="sans-serif" font-size="11" lengthAdjust="spacingAndGlyphs" text-decoration="underline" textLength="226" x="117.5" y="209.3667">NUTRITION_ORDER: CarePlanActivityKind</text><ellipse cx="108.5" cy="218.9609" fill="none" rx="3" ry="3" style="stroke: #038048; stroke-width: 1.0;"/><text fill="#000000" font-family="sans-serif" font-size="11" lengthAdjust="spacingAndGlyphs" text-decoration="underline" textLength="151" x="117.5" y="222.1714">TASK: CarePlanActivityKind</text><ellipse cx="108.5" cy="231.7656" fill="none" rx="3" ry="3" style="stroke: #038048; stroke-width: 1.0;"/><text fill="#000000" font-family="sans-serif" font-size="11" lengthAdjust="spacingAndGlyphs" text-decoration="underline" textLength="228" x="117.5" y="234.9761">SERVICE_REQUEST: CarePlanActivityKind</text><ellipse cx="108.5" cy="244.5703" fill="none" rx="3" ry="3" style="stroke: #038048; stroke-width: 1.0;"/><text fill="#000000" font-family="sans-serif" font-size="11" lengthAdjust="spacingAndGlyphs" text-decoration="underline" textLength="247" x="117.5" y="247.7808">VISION_PRESCRIPTION: CarePlanActivityKind</text><line style="stroke: #A80036; stroke-width: 1.5;" x1="98.5" x2="399.5" y1="254.375" y2="254.375"/><ellipse cx="108.5" cy="265.375" fill="#84BE84" rx="3" ry="3" style="stroke: #038048; stroke-width: 1.0;"/><text fill="#000000" font-family="sans-serif" font-size="11" lengthAdjust="spacingAndGlyphs" textLength="212" x="117.5" y="268.5854">getValueAsEnumConstant(): ValueSet</text><ellipse cx="108.5" cy="278.1797" fill="#84BE84" rx="3" ry="3" style="stroke: #038048; stroke-width: 1.0;"/><text fill="#000000" font-family="sans-serif" font-size="11" lengthAdjust="spacingAndGlyphs" text-decoration="underline" textLength="191" x="117.5" y="281.3901">of(ValueSet): CarePlanActivityKind</text><ellipse cx="108.5" cy="290.9844" fill="#84BE84" rx="3" ry="3" style="stroke: #038048; stroke-width: 1.0;"/><text fill="#000000" font-family="sans-serif" font-size="11" lengthAdjust="spacingAndGlyphs" text-decoration="underline" textLength="175" x="117.5" y="294.1948">of(String): CarePlanActivityKind</text><ellipse cx="108.5" cy="303.7891" fill="#84BE84" rx="3" ry="3" style="stroke: #038048; stroke-width: 1.0;"/><text fill="#000000" font-family="sans-serif" font-size="11" lengthAdjust="spacingAndGlyphs" text-decoration="underline" textLength="117" x="117.5" y="306.9995">string(String): String</text><ellipse cx="108.5" cy="316.5938" fill="#84BE84" rx="3" ry="3" style="stroke: #038048; stroke-width: 1.0;"/><text fill="#000000" font-family="sans-serif" font-size="11" lengthAdjust="spacingAndGlyphs" text-decoration="underline" textLength="106" x="117.5" y="319.8042">code(String): Code</text><ellipse cx="108.5" cy="329.3984" fill="#84BE84" rx="3" ry="3" style="stroke: #038048; stroke-width: 1.0;"/><text fill="#000000" font-family="sans-serif" font-size="11" lengthAdjust="spacingAndGlyphs" textLength="107" x="117.5" y="332.6089">toBuilder(): Builder</text><ellipse cx="108.5" cy="342.2031" fill="#84BE84" rx="3" ry="3" style="stroke: #038048; stroke-width: 1.0;"/><text fill="#000000" font-family="sans-serif" font-size="11" lengthAdjust="spacingAndGlyphs" text-decoration="underline" textLength="95" x="117.5" y="345.4136">builder(): Builder</text></a><!--MD5=[36277681a3d78580011ae89cb2088b30]
class com.ibm.fhir.model.type.Code--><a href="../Code.html" target="_top" title="../Code.html" xlink:actuate="onRequest" xlink:href="../Code.html" xlink:show="new" xlink:title="../Code.html" xlink:type="simple"><rect fill="#FEFECE" filter="url(#fqa4nz1di5dsk)" height="37.9375" id="com.ibm.fhir.model.type.Code" style="stroke: #A80036; stroke-width: 1.5;" width="151" x="173.5" y="8"/><ellipse cx="188.5" cy="26.9688" fill="#ADD1B2" rx="11" ry="11" style="stroke: #A80036; stroke-width: 1.0;"/><path d="M191.4688,32.6094 Q190.8906,32.9063 190.25,33.0469 Q189.6094,33.2031 188.9063,33.2031 Q186.4063,33.2031 185.0781,31.5625 Q183.7656,29.9063 183.7656,26.7813 Q183.7656,23.6563 185.0781,22 Q186.4063,20.3438 188.9063,20.3438 Q189.6094,20.3438 190.25,20.5 Q190.9063,20.6563 191.4688,20.9531 L191.4688,23.6719 Q190.8438,23.0938 190.25,22.8281 Q189.6563,22.5469 189.0313,22.5469 Q187.6875,22.5469 187,23.625 Q186.3125,24.6875 186.3125,26.7813 Q186.3125,28.875 187,29.9531 Q187.6875,31.0156 189.0313,31.0156 Q189.6563,31.0156 190.25,30.75 Q190.8438,30.4688 191.4688,29.8906 L191.4688,32.6094 Z "/><text fill="#000000" font-family="sans-serif" font-size="14" lengthAdjust="spacingAndGlyphs" textLength="37" x="243.5" y="25.9951">Code</text><text fill="#000000" font-family="sans-serif" font-size="10" lengthAdjust="spacingAndGlyphs" textLength="119" x="202.5" y="38.5791">com.ibm.fhir.model.type</text></a><!--MD5=[aecfc27e8a2515872dd5d6c1115ab0f0]
class com.ibm.fhir.model.type.code.CarePlanActivityKind.Builder--><a href="CarePlanActivityKind.Builder.html" target="_top" title="CarePlanActivityKind.Builder.html" xlink:actuate="onRequest" xlink:href="CarePlanActivityKind.Builder.html" xlink:show="new" xlink:title="CarePlanActivityKind.Builder.html" xlink:type="simple"><rect fill="#FEFECE" filter="url(#fqa4nz1di5dsk)" height="37.9375" id="com.ibm.fhir.model.type.code.CarePlanActivityKind.Builder" style="stroke: #A80036; stroke-width: 1.5;" width="222" x="6" y="412"/><ellipse cx="21" cy="430.9688" fill="#ADD1B2" rx="11" ry="11" style="stroke: #A80036; stroke-width: 1.0;"/><path d="M23.9688,436.6094 Q23.3906,436.9063 22.75,437.0469 Q22.1094,437.2031 21.4063,437.2031 Q18.9063,437.2031 17.5781,435.5625 Q16.2656,433.9063 16.2656,430.7813 Q16.2656,427.6563 17.5781,426 Q18.9063,424.3438 21.4063,424.3438 Q22.1094,424.3438 22.75,424.5 Q23.4063,424.6563 23.9688,424.9531 L23.9688,427.6719 Q23.3438,427.0938 22.75,426.8281 Q22.1563,426.5469 21.5313,426.5469 Q20.1875,426.5469 19.5,427.625 Q18.8125,428.6875 18.8125,430.7813 Q18.8125,432.875 19.5,433.9531 Q20.1875,435.0156 21.5313,435.0156 Q22.1563,435.0156 22.75,434.75 Q23.3438,434.4688 23.9688,433.8906 L23.9688,436.6094 Z "/><text fill="#000000" font-family="sans-serif" font-size="14" lengthAdjust="spacingAndGlyphs" textLength="190" x="35" y="429.9951">CarePlanActivityKind.Builder</text><text fill="#000000" font-family="sans-serif" font-size="10" lengthAdjust="spacingAndGlyphs" textLength="145" x="57.5" y="442.5791">com.ibm.fhir.model.type.code</text></a><!--MD5=[3b0e5a0ac93dae7ab0904ef5af222473]
class com.ibm.fhir.model.type.code.CarePlanActivityKind.ValueSet--><a href="CarePlanActivityKind.ValueSet.html" target="_top" title="CarePlanActivityKind.ValueSet.html" xlink:actuate="onRequest" xlink:href="CarePlanActivityKind.ValueSet.html" xlink:show="new" xlink:title="CarePlanActivityKind.ValueSet.html" xlink:type="simple"><rect fill="#FEFECE" filter="url(#fqa4nz1di5dsk)" height="37.9375" id="com.ibm.fhir.model.type.code.CarePlanActivityKind.ValueSet" style="stroke: #A80036; stroke-width: 1.5;" width="235" x="263.5" y="412"/><ellipse cx="278.5" cy="430.9688" fill="#EB937F" rx="11" ry="11" style="stroke: #A80036; stroke-width: 1.0;"/><path d="M282.6094,436.9688 L274.8906,436.9688 L274.8906,424.5781 L282.6094,424.5781 L282.6094,426.7344 L277.3438,426.7344 L277.3438,429.4063 L282.1094,429.4063 L282.1094,431.5625 L277.3438,431.5625 L277.3438,434.8125 L282.6094,434.8125 L282.6094,436.9688 Z "/><text fill="#000000" font-family="sans-serif" font-size="14" lengthAdjust="spacingAndGlyphs" textLength="203" x="292.5" y="429.9951">CarePlanActivityKind.ValueSet</text><text fill="#000000" font-family="sans-serif" font-size="10" lengthAdjust="spacingAndGlyphs" textLength="145" x="321.5" y="442.5791">com.ibm.fhir.model.type.code</text></a><!--MD5=[07b05531440b5f862c70579f30a6300a]
reverse link com.ibm.fhir.model.type.Code to com.ibm.fhir.model.type.code.CarePlanActivityKind--><path d="M249,66.0321 C249,77.7798 249,91.3506 249,105.5446 " fill="none" id="com.ibm.fhir.model.type.Code&lt;-com.ibm.fhir.model.type.code.CarePlanActivityKind" style="stroke: #A80036; stroke-width: 1.0;"/><polygon fill="none" points="242.0001,66.0037,249,46.0037,256.0001,66.0036,242.0001,66.0037" style="stroke: #A80036; stroke-width: 1.0;"/><!--MD5=[a7aa498f5c2c1e64e5d6b739ec2ba21c]
reverse link com.ibm.fhir.model.type.code.CarePlanActivityKind to com.ibm.fhir.model.type.code.CarePlanActivityKind.Builder--><path d="M160.3126,364.7186 C148.2525,383.1742 137.343,399.869 129.4898,411.8869 " fill="none" id="com.ibm.fhir.model.type.code.CarePlanActivityKind&lt;-com.ibm.fhir.model.type.code.CarePlanActivityKind.Builder" style="stroke: #A80036; stroke-width: 1.0;"/><ellipse cx="164.2256" cy="358.7306" fill="#FFFFFF" rx="8" ry="8" style="stroke: #A80036; stroke-width: 1.0;"/><line style="stroke: #A80036; stroke-width: 1.0;" x1="159.8493" x2="168.6018" y1="365.4275" y2="352.0337"/><line style="stroke: #A80036; stroke-width: 1.0;" x1="157.5287" x2="170.9225" y1="354.3544" y2="363.1068"/><!--MD5=[00f795668fa4238368572edbb1ba2295]
reverse link com.ibm.fhir.model.type.code.CarePlanActivityKind to com.ibm.fhir.model.type.code.CarePlanActivityKind.ValueSet--><path d="M337.6874,364.7186 C349.7475,383.1742 360.657,399.869 368.5102,411.8869 " fill="none" id="com.ibm.fhir.model.type.code.CarePlanActivityKind&lt;-com.ibm.fhir.model.type.code.CarePlanActivityKind.ValueSet" style="stroke: #A80036; stroke-width: 1.0;"/><ellipse cx="333.7744" cy="358.7306" fill="#FFFFFF" rx="8" ry="8" style="stroke: #A80036; stroke-width: 1.0;"/><line style="stroke: #A80036; stroke-width: 1.0;" x1="338.1507" x2="329.3982" y1="365.4275" y2="352.0337"/><line style="stroke: #A80036; stroke-width: 1.0;" x1="327.0775" x2="340.4713" y1="363.1068" y2="354.3544"/><text fill="#888888" font-family="sans-serif" font-size="10" lengthAdjust="spacingAndGlyphs" textLength="186" x="165.5" y="469.2822">UMLDoclet 2.0.7, PlantUML 1.2019.12</text><!--MD5=[9d04e542b4f29977f29dfe3587183f76]
@startuml
    set namespaceSeparator none
    hide empty fields
    hide empty methods

    class "<size:14>CarePlanActivityKind\n<size:10>com.ibm.fhir.model.type.code" as com.ibm.fhir.model.type.code.CarePlanActivityKind [[CarePlanActivityKind.html]] {
        {static} +APPOINTMENT: CarePlanActivityKind
        {static} +COMMUNICATION_REQUEST: CarePlanActivityKind
        {static} +DEVICE_REQUEST: CarePlanActivityKind
        {static} +MEDICATION_REQUEST: CarePlanActivityKind
        {static} +NUTRITION_ORDER: CarePlanActivityKind
        {static} +TASK: CarePlanActivityKind
        {static} +SERVICE_REQUEST: CarePlanActivityKind
        {static} +VISION_PRESCRIPTION: CarePlanActivityKind
        +getValueAsEnumConstant(): ValueSet
        {static} +of(ValueSet): CarePlanActivityKind
        {static} +of(String): CarePlanActivityKind
        {static} +string(String): String
        {static} +code(String): Code
        +toBuilder(): Builder
        {static} +builder(): Builder
    }

    class "<size:14>Code\n<size:10>com.ibm.fhir.model.type" as com.ibm.fhir.model.type.Code [[../Code.html]]
    class "<size:14>CarePlanActivityKind.Builder\n<size:10>com.ibm.fhir.model.type.code" as com.ibm.fhir.model.type.code.CarePlanActivityKind.Builder [[CarePlanActivityKind.Builder.html]]
    enum "<size:14>CarePlanActivityKind.ValueSet\n<size:10>com.ibm.fhir.model.type.code" as com.ibm.fhir.model.type.code.CarePlanActivityKind.ValueSet [[CarePlanActivityKind.ValueSet.html]]

    com.ibm.fhir.model.type.Code <|- - com.ibm.fhir.model.type.code.CarePlanActivityKind
    com.ibm.fhir.model.type.code.CarePlanActivityKind +- - com.ibm.fhir.model.type.code.CarePlanActivityKind.Builder
    com.ibm.fhir.model.type.code.CarePlanActivityKind +- - com.ibm.fhir.model.type.code.CarePlanActivityKind.ValueSet

    center footer UMLDoclet 2.0.7, PlantUML 1.2019.12
@enduml

PlantUML version 1.2019.12(Sun Nov 03 10:24:54 UTC 2019)
(APACHE source distribution)
Java Runtime: OpenJDK Runtime Environment
JVM: OpenJDK 64-Bit Server VM
Java Version: 11.0.9.1+1
Operating System: Linux
Default Encoding: UTF-8
Language: en
Country: null
--></g></svg>