<?xml version="1.0" encoding="UTF-8" standalone="no"?><svg xmlns="http://www.w3.org/2000/svg" xmlns:xlink="http://www.w3.org/1999/xlink" contentScriptType="application/ecmascript" contentStyleType="text/css" height="232px" preserveAspectRatio="none" style="width:327px;height:232px;" version="1.1" viewBox="0 0 327 232" width="327px" zoomAndPan="magnify"><defs><filter height="300%" id="f13nv035snu48m" width="300%" x="-1" y="-1"><feGaussianBlur result="blurOut" stdDeviation="2.0"/><feColorMatrix in="blurOut" result="blurOut2" type="matrix" values="0 0 0 0 0 0 0 0 0 0 0 0 0 0 0 0 0 0 .4 0"/><feOffset dx="4.0" dy="4.0" in="blurOut2" result="blurOut3"/><feBlend in="SourceGraphic" in2="blurOut3" mode="normal"/></filter></defs><g><!--class com.ibm.fhir.database.utils.db2.Db2GetTableInfo--><a href="Db2GetTableInfo.html" target="_top" xlink:actuate="onRequest" xlink:show="new" xlink:title="Db2GetTableInfo.html" xlink:type="simple"><rect fill="#FEFECE" filter="url(#f13nv035snu48m)" height="72.1758" id="com.ibm.fhir.database.utils.db2.Db2GetTableInfo" style="stroke: #A80036; stroke-width: 1.5;" width="307" x="6" y="127"/><ellipse cx="78.25" cy="146.1328" fill="#ADD1B2" rx="11" ry="11" style="stroke: #A80036; stroke-width: 1.0;"/><path d="M80.7231,152.2759 Q80.1421,152.5747 79.5029,152.7241 Q78.8638,152.8735 78.1582,152.8735 Q75.6514,152.8735 74.3315,151.2217 Q73.0117,149.5698 73.0117,146.4487 Q73.0117,143.3193 74.3315,141.6675 Q75.6514,140.0156 78.1582,140.0156 Q78.8638,140.0156 79.5112,140.165 Q80.1587,140.3145 80.7231,140.6133 L80.7231,143.3359 Q80.0923,142.7549 79.4988,142.4851 Q78.9053,142.2153 78.2744,142.2153 Q76.9297,142.2153 76.2449,143.282 Q75.5601,144.3486 75.5601,146.4487 Q75.5601,148.5405 76.2449,149.6072 Q76.9297,150.6738 78.2744,150.6738 Q78.9053,150.6738 79.4988,150.4041 Q80.0923,150.1343 80.7231,149.5532 Z "/><text fill="#000000" font-family="sans-serif" font-size="14" lengthAdjust="spacingAndGlyphs" textLength="116" x="117.75" y="145.5352">Db2GetTableInfo</text><text fill="#000000" font-family="sans-serif" font-size="10" lengthAdjust="spacingAndGlyphs" textLength="154" x="98.75" y="158.1563">com.ibm.fhir.database.utils.db2</text><line style="stroke: #A80036; stroke-width: 1.5;" x1="7" x2="312" y1="165.2656" y2="165.2656"/><ellipse cx="17" cy="177.2432" fill="#84BE84" rx="3" ry="3" style="stroke: #038048; stroke-width: 1.0;"/><text fill="#000000" font-family="sans-serif" font-size="11" lengthAdjust="spacingAndGlyphs" textLength="168" x="26" y="179.9004">Db2GetTableInfo(String, String)</text><ellipse cx="17" cy="190.1982" fill="#84BE84" rx="3" ry="3" style="stroke: #038048; stroke-width: 1.0;"/><text fill="#000000" font-family="sans-serif" font-size="11" lengthAdjust="spacingAndGlyphs" textLength="281" x="26" y="192.8555">run(IDatabaseTranslator, Connection): Db2TableInfo</text></a><!--class com.ibm.fhir.database.utils.api.IDatabaseSupplier--><a href="../api/IDatabaseSupplier.html" target="_top" xlink:actuate="onRequest" xlink:show="new" xlink:title="../api/IDatabaseSupplier.html" xlink:type="simple"><rect fill="#FEFECE" filter="url(#f13nv035snu48m)" height="59.2207" id="com.ibm.fhir.database.utils.api.IDatabaseSupplier" style="stroke: #A80036; stroke-width: 1.5;" width="307" x="6" y="8"/><ellipse cx="39.45" cy="27.1328" fill="#B4A7E5" rx="11" ry="11" style="stroke: #A80036; stroke-width: 1.0;"/><path d="M35.8777,23.3979 L35.8777,21.2397 L43.2571,21.2397 L43.2571,23.3979 L40.7918,23.3979 L40.7918,31.4746 L43.2571,31.4746 L43.2571,33.6328 L35.8777,33.6328 L35.8777,31.4746 L38.3431,31.4746 L38.3431,23.3979 Z "/><text fill="#000000" font-family="sans-serif" font-size="14" font-style="italic" lengthAdjust="spacingAndGlyphs" textLength="124" x="71.05" y="26.5352">IDatabaseSupplier</text><text fill="#000000" font-family="sans-serif" font-size="10" font-style="italic" lengthAdjust="spacingAndGlyphs" textLength="151" x="57.55" y="39.1563">com.ibm.fhir.database.utils.api</text><rect fill="#FFFFFF" height="16.1328" style="stroke: #000000; stroke-width: 1.0; stroke-dasharray: 2.0,2.0;" width="81" x="235" y="5"/><text fill="#000000" font-family="sans-serif" font-size="12" font-style="italic" lengthAdjust="spacingAndGlyphs" textLength="79" x="236" y="17.6016">Db2TableInfo</text><line style="stroke: #A80036; stroke-width: 1.5;" x1="7" x2="312" y1="46.2656" y2="46.2656"/><ellipse cx="17" cy="58.2432" fill="#84BE84" rx="3" ry="3" style="stroke: #038048; stroke-width: 1.0;"/><text fill="#000000" font-family="sans-serif" font-size="11" font-style="italic" lengthAdjust="spacingAndGlyphs" textLength="281" x="26" y="60.9004">run(IDatabaseTranslator, Connection): Db2TableInfo</text></a><!--link com.ibm.fhir.database.utils.api.IDatabaseSupplier to com.ibm.fhir.database.utils.db2.Db2GetTableInfo--><path d="M159.5,87.5049 C159.5,100.6211 159.5,114.5128 159.5,126.7555 " fill="none" id="com.ibm.fhir.database.utils.api.IDatabaseSupplier-com.ibm.fhir.database.utils.db2.Db2GetTableInfo" style="stroke: #A80036; stroke-width: 1.0; stroke-dasharray: 7.0,7.0;"/><polygon fill="none" points="152.5001,87.2418,159.5,67.2417,166.5001,87.2417,152.5001,87.2418" style="stroke: #A80036; stroke-width: 1.0;"/><text fill="#888888" font-family="sans-serif" font-size="10" lengthAdjust="spacingAndGlyphs" textLength="182" x="74.5" y="218.668">UMLDoclet 2.0.5, PlantUML 1.2019.08</text><!--
@startuml
    set namespaceSeparator none
    hide empty fields
    hide empty methods

    class "<size:14>Db2GetTableInfo\n<size:10>com.ibm.fhir.database.utils.db2" as com.ibm.fhir.database.utils.db2.Db2GetTableInfo [[Db2GetTableInfo.html]] {
        +Db2GetTableInfo(String, String)
        +run(IDatabaseTranslator, Connection): Db2TableInfo
    }

    interface "<size:14>IDatabaseSupplier\n<size:10>com.ibm.fhir.database.utils.api" as com.ibm.fhir.database.utils.api.IDatabaseSupplier<Db2TableInfo> [[../api/IDatabaseSupplier.html]] {
        {abstract} +run(IDatabaseTranslator, Connection): Db2TableInfo
    }

    com.ibm.fhir.database.utils.api.IDatabaseSupplier <|.. com.ibm.fhir.database.utils.db2.Db2GetTableInfo

    center footer UMLDoclet 2.0.5, PlantUML 1.2019.08
@enduml

PlantUML version 1.2019.08(Sat Jul 13 15:25:14 EDT 2019)
(APACHE source distribution)
Java Runtime: OpenJDK Runtime Environment
JVM: OpenJDK 64-Bit Server VM
Java Version: 11.0.4+11
Operating System: Mac OS X
OS Version: 10.14.6
Default Encoding: UTF-8
Language: en
Country: US
--></g></svg>