<?xml version="1.0" encoding="UTF-8" standalone="no"?><svg xmlns="http://www.w3.org/2000/svg" xmlns:xlink="http://www.w3.org/1999/xlink" contentScriptType="application/ecmascript" contentStyleType="text/css" height="597px" preserveAspectRatio="none" style="width:555px;height:597px;" version="1.1" viewBox="0 0 555 597" width="555px" zoomAndPan="magnify"><defs><filter height="300%" id="fac2hqcxozjxo" width="300%" x="-1" y="-1"><feGaussianBlur result="blurOut" stdDeviation="2.0"/><feColorMatrix in="blurOut" result="blurOut2" type="matrix" values="0 0 0 0 0 0 0 0 0 0 0 0 0 0 0 0 0 0 .4 0"/><feOffset dx="4.0" dy="4.0" in="blurOut2" result="blurOut3"/><feBlend in="SourceGraphic" in2="blurOut3" mode="normal"/></filter></defs><g><!--MD5=[9a4c790d84b4c642ee7c9602ddde8d2e]
class com.ibm.fhir.model.type.code.QuestionnaireItemType--><a href="QuestionnaireItemType.html" target="_top" title="QuestionnaireItemType.html" xlink:actuate="onRequest" xlink:href="QuestionnaireItemType.html" xlink:show="new" xlink:title="QuestionnaireItemType.html" xlink:type="simple"><rect fill="#FEFECE" filter="url(#fac2hqcxozjxo)" height="361.25" id="com.ibm.fhir.model.type.code.QuestionnaireItemType" style="stroke: #A80036; stroke-width: 1.5;" width="246" x="148.5" y="106"/><ellipse cx="187.35" cy="124.9688" fill="#ADD1B2" rx="11" ry="11" style="stroke: #A80036; stroke-width: 1.0;"/><path d="M190.3188,130.6094 Q189.7406,130.9063 189.1,131.0469 Q188.4594,131.2031 187.7563,131.2031 Q185.2563,131.2031 183.9281,129.5625 Q182.6156,127.9063 182.6156,124.7813 Q182.6156,121.6563 183.9281,120 Q185.2563,118.3438 187.7563,118.3438 Q188.4594,118.3438 189.1,118.5 Q189.7563,118.6563 190.3188,118.9531 L190.3188,121.6719 Q189.6938,121.0938 189.1,120.8281 Q188.5063,120.5469 187.8813,120.5469 Q186.5375,120.5469 185.85,121.625 Q185.1625,122.6875 185.1625,124.7813 Q185.1625,126.875 185.85,127.9531 Q186.5375,129.0156 187.8813,129.0156 Q188.5063,129.0156 189.1,128.75 Q189.6938,128.4688 190.3188,127.8906 L190.3188,130.6094 Z "/><text fill="#000000" font-family="sans-serif" font-size="14" lengthAdjust="spacingAndGlyphs" textLength="161" x="206.65" y="123.9951">QuestionnaireItemType</text><text fill="#000000" font-family="sans-serif" font-size="10" lengthAdjust="spacingAndGlyphs" textLength="145" x="214.65" y="136.5791">com.ibm.fhir.model.type.code</text><line style="stroke: #A80036; stroke-width: 1.5;" x1="149.5" x2="393.5" y1="143.9375" y2="143.9375"/><ellipse cx="159.5" cy="154.9375" fill="none" rx="3" ry="3" style="stroke: #038048; stroke-width: 1.0;"/><text fill="#000000" font-family="sans-serif" font-size="11" lengthAdjust="spacingAndGlyphs" text-decoration="underline" textLength="180" x="168.5" y="158.1479">GROUP: QuestionnaireItemType</text><ellipse cx="159.5" cy="167.7422" fill="none" rx="3" ry="3" style="stroke: #038048; stroke-width: 1.0;"/><text fill="#000000" font-family="sans-serif" font-size="11" lengthAdjust="spacingAndGlyphs" text-decoration="underline" textLength="186" x="168.5" y="170.9526">DISPLAY: QuestionnaireItemType</text><ellipse cx="159.5" cy="180.5469" fill="none" rx="3" ry="3" style="stroke: #038048; stroke-width: 1.0;"/><text fill="#000000" font-family="sans-serif" font-size="11" lengthAdjust="spacingAndGlyphs" text-decoration="underline" textLength="199" x="168.5" y="183.7573">QUESTION: QuestionnaireItemType</text><ellipse cx="159.5" cy="193.3516" fill="none" rx="3" ry="3" style="stroke: #038048; stroke-width: 1.0;"/><text fill="#000000" font-family="sans-serif" font-size="11" lengthAdjust="spacingAndGlyphs" text-decoration="underline" textLength="194" x="168.5" y="196.562">BOOLEAN: QuestionnaireItemType</text><ellipse cx="159.5" cy="206.1563" fill="none" rx="3" ry="3" style="stroke: #038048; stroke-width: 1.0;"/><text fill="#000000" font-family="sans-serif" font-size="11" lengthAdjust="spacingAndGlyphs" text-decoration="underline" textLength="188" x="168.5" y="209.3667">DECIMAL: QuestionnaireItemType</text><ellipse cx="159.5" cy="218.9609" fill="none" rx="3" ry="3" style="stroke: #038048; stroke-width: 1.0;"/><text fill="#000000" font-family="sans-serif" font-size="11" lengthAdjust="spacingAndGlyphs" text-decoration="underline" textLength="188" x="168.5" y="222.1714">INTEGER: QuestionnaireItemType</text><ellipse cx="159.5" cy="231.7656" fill="none" rx="3" ry="3" style="stroke: #038048; stroke-width: 1.0;"/><text fill="#000000" font-family="sans-serif" font-size="11" lengthAdjust="spacingAndGlyphs" text-decoration="underline" textLength="169" x="168.5" y="234.9761">DATE: QuestionnaireItemType</text><ellipse cx="159.5" cy="244.5703" fill="none" rx="3" ry="3" style="stroke: #038048; stroke-width: 1.0;"/><text fill="#000000" font-family="sans-serif" font-size="11" lengthAdjust="spacingAndGlyphs" text-decoration="underline" textLength="201" x="168.5" y="247.7808">DATE_TIME: QuestionnaireItemType</text><ellipse cx="159.5" cy="257.375" fill="none" rx="3" ry="3" style="stroke: #038048; stroke-width: 1.0;"/><text fill="#000000" font-family="sans-serif" font-size="11" lengthAdjust="spacingAndGlyphs" text-decoration="underline" textLength="166" x="168.5" y="260.5854">TIME: QuestionnaireItemType</text><ellipse cx="159.5" cy="270.1797" fill="none" rx="3" ry="3" style="stroke: #038048; stroke-width: 1.0;"/><text fill="#000000" font-family="sans-serif" font-size="11" lengthAdjust="spacingAndGlyphs" text-decoration="underline" textLength="182" x="168.5" y="273.3901">STRING: QuestionnaireItemType</text><ellipse cx="159.5" cy="282.9844" fill="none" rx="3" ry="3" style="stroke: #038048; stroke-width: 1.0;"/><text fill="#000000" font-family="sans-serif" font-size="11" lengthAdjust="spacingAndGlyphs" text-decoration="underline" textLength="168" x="168.5" y="286.1948">TEXT: QuestionnaireItemType</text><ellipse cx="159.5" cy="295.7891" fill="none" rx="3" ry="3" style="stroke: #038048; stroke-width: 1.0;"/><text fill="#000000" font-family="sans-serif" font-size="11" lengthAdjust="spacingAndGlyphs" text-decoration="underline" textLength="161" x="168.5" y="298.9995">URL: QuestionnaireItemType</text><ellipse cx="159.5" cy="308.5938" fill="none" rx="3" ry="3" style="stroke: #038048; stroke-width: 1.0;"/><text fill="#000000" font-family="sans-serif" font-size="11" lengthAdjust="spacingAndGlyphs" text-decoration="underline" textLength="183" x="168.5" y="311.8042">CHOICE: QuestionnaireItemType</text><ellipse cx="159.5" cy="321.3984" fill="none" rx="3" ry="3" style="stroke: #038048; stroke-width: 1.0;"/><text fill="#000000" font-family="sans-serif" font-size="11" lengthAdjust="spacingAndGlyphs" text-decoration="underline" textLength="220" x="168.5" y="324.6089">OPEN_CHOICE: QuestionnaireItemType</text><ellipse cx="159.5" cy="334.2031" fill="none" rx="3" ry="3" style="stroke: #038048; stroke-width: 1.0;"/><text fill="#000000" font-family="sans-serif" font-size="11" lengthAdjust="spacingAndGlyphs" text-decoration="underline" textLength="215" x="168.5" y="337.4136">ATTACHMENT: QuestionnaireItemType</text><ellipse cx="159.5" cy="347.0078" fill="none" rx="3" ry="3" style="stroke: #038048; stroke-width: 1.0;"/><text fill="#000000" font-family="sans-serif" font-size="11" lengthAdjust="spacingAndGlyphs" text-decoration="underline" textLength="204" x="168.5" y="350.2183">REFERENCE: QuestionnaireItemType</text><ellipse cx="159.5" cy="359.8125" fill="none" rx="3" ry="3" style="stroke: #038048; stroke-width: 1.0;"/><text fill="#000000" font-family="sans-serif" font-size="11" lengthAdjust="spacingAndGlyphs" text-decoration="underline" textLength="196" x="168.5" y="363.0229">QUANTITY: QuestionnaireItemType</text><line style="stroke: #A80036; stroke-width: 1.5;" x1="149.5" x2="393.5" y1="369.6172" y2="369.6172"/><ellipse cx="159.5" cy="380.6172" fill="#84BE84" rx="3" ry="3" style="stroke: #038048; stroke-width: 1.0;"/><text fill="#000000" font-family="sans-serif" font-size="11" lengthAdjust="spacingAndGlyphs" textLength="212" x="168.5" y="383.8276">getValueAsEnumConstant(): ValueSet</text><ellipse cx="159.5" cy="393.4219" fill="#84BE84" rx="3" ry="3" style="stroke: #038048; stroke-width: 1.0;"/><text fill="#000000" font-family="sans-serif" font-size="11" lengthAdjust="spacingAndGlyphs" text-decoration="underline" textLength="209" x="168.5" y="396.6323">of(ValueSet): QuestionnaireItemType</text><ellipse cx="159.5" cy="406.2266" fill="#84BE84" rx="3" ry="3" style="stroke: #038048; stroke-width: 1.0;"/><text fill="#000000" font-family="sans-serif" font-size="11" lengthAdjust="spacingAndGlyphs" text-decoration="underline" textLength="193" x="168.5" y="409.437">of(String): QuestionnaireItemType</text><ellipse cx="159.5" cy="419.0313" fill="#84BE84" rx="3" ry="3" style="stroke: #038048; stroke-width: 1.0;"/><text fill="#000000" font-family="sans-serif" font-size="11" lengthAdjust="spacingAndGlyphs" text-decoration="underline" textLength="117" x="168.5" y="422.2417">string(String): String</text><ellipse cx="159.5" cy="431.8359" fill="#84BE84" rx="3" ry="3" style="stroke: #038048; stroke-width: 1.0;"/><text fill="#000000" font-family="sans-serif" font-size="11" lengthAdjust="spacingAndGlyphs" text-decoration="underline" textLength="106" x="168.5" y="435.0464">code(String): Code</text><ellipse cx="159.5" cy="444.6406" fill="#84BE84" rx="3" ry="3" style="stroke: #038048; stroke-width: 1.0;"/><text fill="#000000" font-family="sans-serif" font-size="11" lengthAdjust="spacingAndGlyphs" textLength="107" x="168.5" y="447.8511">toBuilder(): Builder</text><ellipse cx="159.5" cy="457.4453" fill="#84BE84" rx="3" ry="3" style="stroke: #038048; stroke-width: 1.0;"/><text fill="#000000" font-family="sans-serif" font-size="11" lengthAdjust="spacingAndGlyphs" text-decoration="underline" textLength="95" x="168.5" y="460.6558">builder(): Builder</text></a><!--MD5=[36277681a3d78580011ae89cb2088b30]
class com.ibm.fhir.model.type.Code--><a href="../Code.html" target="_top" title="../Code.html" xlink:actuate="onRequest" xlink:href="../Code.html" xlink:show="new" xlink:title="../Code.html" xlink:type="simple"><rect fill="#FEFECE" filter="url(#fac2hqcxozjxo)" height="37.9375" id="com.ibm.fhir.model.type.Code" style="stroke: #A80036; stroke-width: 1.5;" width="151" x="196" y="8"/><ellipse cx="211" cy="26.9688" fill="#ADD1B2" rx="11" ry="11" style="stroke: #A80036; stroke-width: 1.0;"/><path d="M213.9688,32.6094 Q213.3906,32.9063 212.75,33.0469 Q212.1094,33.2031 211.4063,33.2031 Q208.9063,33.2031 207.5781,31.5625 Q206.2656,29.9063 206.2656,26.7813 Q206.2656,23.6563 207.5781,22 Q208.9063,20.3438 211.4063,20.3438 Q212.1094,20.3438 212.75,20.5 Q213.4063,20.6563 213.9688,20.9531 L213.9688,23.6719 Q213.3438,23.0938 212.75,22.8281 Q212.1563,22.5469 211.5313,22.5469 Q210.1875,22.5469 209.5,23.625 Q208.8125,24.6875 208.8125,26.7813 Q208.8125,28.875 209.5,29.9531 Q210.1875,31.0156 211.5313,31.0156 Q212.1563,31.0156 212.75,30.75 Q213.3438,30.4688 213.9688,29.8906 L213.9688,32.6094 Z "/><text fill="#000000" font-family="sans-serif" font-size="14" lengthAdjust="spacingAndGlyphs" textLength="37" x="266" y="25.9951">Code</text><text fill="#000000" font-family="sans-serif" font-size="10" lengthAdjust="spacingAndGlyphs" textLength="119" x="225" y="38.5791">com.ibm.fhir.model.type</text></a><!--MD5=[689102ec1f7f103f3f53a5044556bde0]
class com.ibm.fhir.model.type.code.QuestionnaireItemType.Builder--><a href="QuestionnaireItemType.Builder.html" target="_top" title="QuestionnaireItemType.Builder.html" xlink:actuate="onRequest" xlink:href="QuestionnaireItemType.Builder.html" xlink:show="new" xlink:title="QuestionnaireItemType.Builder.html" xlink:type="simple"><rect fill="#FEFECE" filter="url(#fac2hqcxozjxo)" height="37.9375" id="com.ibm.fhir.model.type.code.QuestionnaireItemType.Builder" style="stroke: #A80036; stroke-width: 1.5;" width="245" x="6" y="527"/><ellipse cx="21" cy="545.9688" fill="#ADD1B2" rx="11" ry="11" style="stroke: #A80036; stroke-width: 1.0;"/><path d="M23.9688,551.6094 Q23.3906,551.9063 22.75,552.0469 Q22.1094,552.2031 21.4063,552.2031 Q18.9063,552.2031 17.5781,550.5625 Q16.2656,548.9063 16.2656,545.7813 Q16.2656,542.6563 17.5781,541 Q18.9063,539.3438 21.4063,539.3438 Q22.1094,539.3438 22.75,539.5 Q23.4063,539.6563 23.9688,539.9531 L23.9688,542.6719 Q23.3438,542.0938 22.75,541.8281 Q22.1563,541.5469 21.5313,541.5469 Q20.1875,541.5469 19.5,542.625 Q18.8125,543.6875 18.8125,545.7813 Q18.8125,547.875 19.5,548.9531 Q20.1875,550.0156 21.5313,550.0156 Q22.1563,550.0156 22.75,549.75 Q23.3438,549.4688 23.9688,548.8906 L23.9688,551.6094 Z "/><text fill="#000000" font-family="sans-serif" font-size="14" lengthAdjust="spacingAndGlyphs" textLength="213" x="35" y="544.9951">QuestionnaireItemType.Builder</text><text fill="#000000" font-family="sans-serif" font-size="10" lengthAdjust="spacingAndGlyphs" textLength="145" x="69" y="557.5791">com.ibm.fhir.model.type.code</text></a><!--MD5=[cc8a4bac1802988bc66c54e92068587f]
class com.ibm.fhir.model.type.code.QuestionnaireItemType.ValueSet--><a href="QuestionnaireItemType.ValueSet.html" target="_top" title="QuestionnaireItemType.ValueSet.html" xlink:actuate="onRequest" xlink:href="QuestionnaireItemType.ValueSet.html" xlink:show="new" xlink:title="QuestionnaireItemType.ValueSet.html" xlink:type="simple"><rect fill="#FEFECE" filter="url(#fac2hqcxozjxo)" height="37.9375" id="com.ibm.fhir.model.type.code.QuestionnaireItemType.ValueSet" style="stroke: #A80036; stroke-width: 1.5;" width="258" x="286.5" y="527"/><ellipse cx="301.5" cy="545.9688" fill="#EB937F" rx="11" ry="11" style="stroke: #A80036; stroke-width: 1.0;"/><path d="M305.6094,551.9688 L297.8906,551.9688 L297.8906,539.5781 L305.6094,539.5781 L305.6094,541.7344 L300.3438,541.7344 L300.3438,544.4063 L305.1094,544.4063 L305.1094,546.5625 L300.3438,546.5625 L300.3438,549.8125 L305.6094,549.8125 L305.6094,551.9688 Z "/><text fill="#000000" font-family="sans-serif" font-size="14" lengthAdjust="spacingAndGlyphs" textLength="226" x="315.5" y="544.9951">QuestionnaireItemType.ValueSet</text><text fill="#000000" font-family="sans-serif" font-size="10" lengthAdjust="spacingAndGlyphs" textLength="145" x="356" y="557.5791">com.ibm.fhir.model.type.code</text></a><!--MD5=[4ca8dbc6a15f29c848134fe2955f4422]
reverse link com.ibm.fhir.model.type.Code to com.ibm.fhir.model.type.code.QuestionnaireItemType--><path d="M271.5,66.3401 C271.5,77.9375 271.5,91.451 271.5,105.972 " fill="none" id="com.ibm.fhir.model.type.Code&lt;-com.ibm.fhir.model.type.code.QuestionnaireItemType" style="stroke: #A80036; stroke-width: 1.0;"/><polygon fill="none" points="264.5001,66.0817,271.5,46.0817,278.5001,66.0816,264.5001,66.0817" style="stroke: #A80036; stroke-width: 1.0;"/><!--MD5=[9ddd4011e2391c5b7e7f4738c0b1c21b]
reverse link com.ibm.fhir.model.type.code.QuestionnaireItemType to com.ibm.fhir.model.type.code.QuestionnaireItemType.Builder--><path d="M164.6862,480.3335 C154.4179,498.9672 145.4471,515.2463 139.0061,526.9348 " fill="none" id="com.ibm.fhir.model.type.code.QuestionnaireItemType&lt;-com.ibm.fhir.model.type.code.QuestionnaireItemType.Builder" style="stroke: #A80036; stroke-width: 1.0;"/><ellipse cx="168.126" cy="474.0911" fill="#FFFFFF" rx="8" ry="8" style="stroke: #A80036; stroke-width: 1.0;"/><line style="stroke: #A80036; stroke-width: 1.0;" x1="164.2649" x2="171.9871" y1="481.0977" y2="467.0845"/><line style="stroke: #A80036; stroke-width: 1.0;" x1="161.1194" x2="175.1326" y1="470.23" y2="477.9522"/><!--MD5=[a41970ec4fdc3493aa5ddcc7a172ea76]
reverse link com.ibm.fhir.model.type.code.QuestionnaireItemType to com.ibm.fhir.model.type.code.QuestionnaireItemType.ValueSet--><path d="M379.0608,480.3335 C389.4009,498.9672 398.4344,515.2463 404.9205,526.9348 " fill="none" id="com.ibm.fhir.model.type.code.QuestionnaireItemType&lt;-com.ibm.fhir.model.type.code.QuestionnaireItemType.ValueSet" style="stroke: #A80036; stroke-width: 1.0;"/><ellipse cx="375.5904" cy="474.0797" fill="#FFFFFF" rx="8" ry="8" style="stroke: #A80036; stroke-width: 1.0;"/><line style="stroke: #A80036; stroke-width: 1.0;" x1="379.472" x2="371.7087" y1="481.0749" y2="467.0845"/><line style="stroke: #A80036; stroke-width: 1.0;" x1="368.5952" x2="382.5856" y1="477.9614" y2="470.198"/><text fill="#888888" font-family="sans-serif" font-size="10" lengthAdjust="spacingAndGlyphs" textLength="186" x="188.5" y="584.2822">UMLDoclet 2.0.7, PlantUML 1.2019.12</text><!--MD5=[f66a63c15f9d550f4facdb6bab026351]
@startuml
    set namespaceSeparator none
    hide empty fields
    hide empty methods

    class "<size:14>QuestionnaireItemType\n<size:10>com.ibm.fhir.model.type.code" as com.ibm.fhir.model.type.code.QuestionnaireItemType [[QuestionnaireItemType.html]] {
        {static} +GROUP: QuestionnaireItemType
        {static} +DISPLAY: QuestionnaireItemType
        {static} +QUESTION: QuestionnaireItemType
        {static} +BOOLEAN: QuestionnaireItemType
        {static} +DECIMAL: QuestionnaireItemType
        {static} +INTEGER: QuestionnaireItemType
        {static} +DATE: QuestionnaireItemType
        {static} +DATE_TIME: QuestionnaireItemType
        {static} +TIME: QuestionnaireItemType
        {static} +STRING: QuestionnaireItemType
        {static} +TEXT: QuestionnaireItemType
        {static} +URL: QuestionnaireItemType
        {static} +CHOICE: QuestionnaireItemType
        {static} +OPEN_CHOICE: QuestionnaireItemType
        {static} +ATTACHMENT: QuestionnaireItemType
        {static} +REFERENCE: QuestionnaireItemType
        {static} +QUANTITY: QuestionnaireItemType
        +getValueAsEnumConstant(): ValueSet
        {static} +of(ValueSet): QuestionnaireItemType
        {static} +of(String): QuestionnaireItemType
        {static} +string(String): String
        {static} +code(String): Code
        +toBuilder(): Builder
        {static} +builder(): Builder
    }

    class "<size:14>Code\n<size:10>com.ibm.fhir.model.type" as com.ibm.fhir.model.type.Code [[../Code.html]]
    class "<size:14>QuestionnaireItemType.Builder\n<size:10>com.ibm.fhir.model.type.code" as com.ibm.fhir.model.type.code.QuestionnaireItemType.Builder [[QuestionnaireItemType.Builder.html]]
    enum "<size:14>QuestionnaireItemType.ValueSet\n<size:10>com.ibm.fhir.model.type.code" as com.ibm.fhir.model.type.code.QuestionnaireItemType.ValueSet [[QuestionnaireItemType.ValueSet.html]]

    com.ibm.fhir.model.type.Code <|- - com.ibm.fhir.model.type.code.QuestionnaireItemType
    com.ibm.fhir.model.type.code.QuestionnaireItemType +- - com.ibm.fhir.model.type.code.QuestionnaireItemType.Builder
    com.ibm.fhir.model.type.code.QuestionnaireItemType +- - com.ibm.fhir.model.type.code.QuestionnaireItemType.ValueSet

    center footer UMLDoclet 2.0.7, PlantUML 1.2019.12
@enduml

PlantUML version 1.2019.12(Sun Nov 03 10:24:54 UTC 2019)
(APACHE source distribution)
Java Runtime: OpenJDK Runtime Environment
JVM: OpenJDK 64-Bit Server VM
Java Version: 11.0.8+10
Operating System: Linux
Default Encoding: UTF-8
Language: en
Country: null
--></g></svg>