<?xml version="1.0" encoding="UTF-8" standalone="no"?><svg xmlns="http://www.w3.org/2000/svg" xmlns:xlink="http://www.w3.org/1999/xlink" contentScriptType="application/ecmascript" contentStyleType="text/css" height="600px" preserveAspectRatio="none" style="width:572px;height:600px;" version="1.1" viewBox="0 0 572 600" width="572px" zoomAndPan="magnify"><defs><filter height="300%" id="fml7i0ek4qz5e" width="300%" x="-1" y="-1"><feGaussianBlur result="blurOut" stdDeviation="2.0"/><feColorMatrix in="blurOut" result="blurOut2" type="matrix" values="0 0 0 0 0 0 0 0 0 0 0 0 0 0 0 0 0 0 .4 0"/><feOffset dx="4.0" dy="4.0" in="blurOut2" result="blurOut3"/><feBlend in="SourceGraphic" in2="blurOut3" mode="normal"/></filter></defs><g><!--cluster com.ibm.fhir.model.path.evaluator--><polygon fill="#FFFFFF" filter="url(#fml7i0ek4qz5e)" points="14,16,263,16,270,38.4883,550,38.4883,550,559,14,559,14,16" style="stroke: #000000; stroke-width: 1.5;"/><line style="stroke: #000000; stroke-width: 1.5;" x1="14" x2="270" y1="38.4883" y2="38.4883"/><text fill="#000000" font-family="sans-serif" font-size="14" font-weight="bold" lengthAdjust="spacingAndGlyphs" textLength="243" x="18" y="31.5352">com.ibm.fhir.model.path.evaluator</text><!--class com.ibm.fhir.model.path.evaluator.FHIRPathEvaluator--><a href="FHIRPathEvaluator.html" target="_top" xlink:actuate="onRequest" xlink:show="new" xlink:title="FHIRPathEvaluator.html" xlink:type="simple"><rect fill="#FEFECE" filter="url(#fml7i0ek4qz5e)" height="190.5059" id="com.ibm.fhir.model.path.evaluator.FHIRPathEvaluator" style="stroke: #A80036; stroke-width: 1.5;" width="520" x="22" y="43"/><ellipse cx="225.75" cy="59" fill="#ADD1B2" rx="11" ry="11" style="stroke: #A80036; stroke-width: 1.0;"/><path d="M228.2231,65.1431 Q227.6421,65.4419 227.0029,65.5913 Q226.3638,65.7407 225.6582,65.7407 Q223.1514,65.7407 221.8315,64.0889 Q220.5117,62.437 220.5117,59.3159 Q220.5117,56.1865 221.8315,54.5347 Q223.1514,52.8828 225.6582,52.8828 Q226.3638,52.8828 227.0112,53.0322 Q227.6587,53.1816 228.2231,53.4805 L228.2231,56.2031 Q227.5923,55.6221 226.9988,55.3523 Q226.4053,55.0825 225.7744,55.0825 Q224.4297,55.0825 223.7449,56.1492 Q223.0601,57.2158 223.0601,59.3159 Q223.0601,61.4077 223.7449,62.4744 Q224.4297,63.541 225.7744,63.541 Q226.4053,63.541 226.9988,63.2712 Q227.5923,63.0015 228.2231,62.4204 Z "/><text fill="#000000" font-family="sans-serif" font-size="12" lengthAdjust="spacingAndGlyphs" textLength="104" x="246.25" y="63.5352">FHIRPathEvaluator</text><line style="stroke: #A80036; stroke-width: 1.5;" x1="23" x2="541" y1="75" y2="75"/><ellipse cx="33" cy="86.9775" fill="none" rx="3" ry="3" style="stroke: #038048; stroke-width: 1.0;"/><text fill="#000000" font-family="sans-serif" font-size="11" lengthAdjust="spacingAndGlyphs" text-decoration="underline" textLength="85" x="42" y="89.6348">DEBUG: boolean</text><ellipse cx="33" cy="99.9326" fill="none" rx="3" ry="3" style="stroke: #038048; stroke-width: 1.0;"/><text fill="#000000" font-family="sans-serif" font-size="11" lengthAdjust="spacingAndGlyphs" text-decoration="underline" textLength="248" x="42" y="102.5898">SINGLETON_TRUE: Collection&lt;FHIRPathNode&gt;</text><ellipse cx="33" cy="112.8877" fill="none" rx="3" ry="3" style="stroke: #038048; stroke-width: 1.0;"/><text fill="#000000" font-family="sans-serif" font-size="11" lengthAdjust="spacingAndGlyphs" text-decoration="underline" textLength="252" x="42" y="115.5449">SINGLETON_FALSE: Collection&lt;FHIRPathNode&gt;</text><line style="stroke: #A80036; stroke-width: 1.5;" x1="23" x2="541" y1="121.8652" y2="121.8652"/><ellipse cx="33" cy="133.8428" fill="#84BE84" rx="3" ry="3" style="stroke: #038048; stroke-width: 1.0;"/><text fill="#000000" font-family="sans-serif" font-size="11" lengthAdjust="spacingAndGlyphs" textLength="237" x="42" y="136.5">evaluate(String): Collection&lt;FHIRPathNode&gt;</text><ellipse cx="33" cy="146.7979" fill="#84BE84" rx="3" ry="3" style="stroke: #038048; stroke-width: 1.0;"/><text fill="#000000" font-family="sans-serif" font-size="11" lengthAdjust="spacingAndGlyphs" textLength="293" x="42" y="149.4551">evaluate(Resource, String): Collection&lt;FHIRPathNode&gt;</text><ellipse cx="33" cy="159.7529" fill="#84BE84" rx="3" ry="3" style="stroke: #038048; stroke-width: 1.0;"/><text fill="#000000" font-family="sans-serif" font-size="11" lengthAdjust="spacingAndGlyphs" textLength="285" x="42" y="162.4102">evaluate(Element, String): Collection&lt;FHIRPathNode&gt;</text><ellipse cx="33" cy="172.708" fill="#84BE84" rx="3" ry="3" style="stroke: #038048; stroke-width: 1.0;"/><text fill="#000000" font-family="sans-serif" font-size="11" lengthAdjust="spacingAndGlyphs" textLength="341" x="42" y="175.3652">evaluate(EvaluationContext, String): Collection&lt;FHIRPathNode&gt;</text><ellipse cx="33" cy="185.6631" fill="#84BE84" rx="3" ry="3" style="stroke: #038048; stroke-width: 1.0;"/><text fill="#000000" font-family="sans-serif" font-size="11" lengthAdjust="spacingAndGlyphs" textLength="422" x="42" y="188.3203">evaluate(EvaluationContext, String, FHIRPathNode): Collection&lt;FHIRPathNode&gt;</text><ellipse cx="33" cy="198.6182" fill="#84BE84" rx="3" ry="3" style="stroke: #038048; stroke-width: 1.0;"/><text fill="#000000" font-family="sans-serif" font-size="11" lengthAdjust="spacingAndGlyphs" textLength="494" x="42" y="201.2754">evaluate(EvaluationContext, String, Collection&lt;FHIRPathNode&gt;): Collection&lt;FHIRPathNode&gt;</text><ellipse cx="33" cy="211.5732" fill="#84BE84" rx="3" ry="3" style="stroke: #038048; stroke-width: 1.0;"/><text fill="#000000" font-family="sans-serif" font-size="11" lengthAdjust="spacingAndGlyphs" text-decoration="underline" textLength="161" x="42" y="214.2305">evaluator(): FHIRPathEvaluator</text><ellipse cx="33" cy="224.5283" fill="#84BE84" rx="3" ry="3" style="stroke: #038048; stroke-width: 1.0;"/><text fill="#000000" font-family="sans-serif" font-size="11" lengthAdjust="spacingAndGlyphs" text-decoration="underline" textLength="103" x="42" y="227.1855">main(String[]): void</text></a><!--class com.ibm.fhir.model.path.evaluator.FHIRPathEvaluator.EvaluationContext--><a href="FHIRPathEvaluator.EvaluationContext.html" target="_top" xlink:actuate="onRequest" xlink:show="new" xlink:title="FHIRPathEvaluator.EvaluationContext.html" xlink:type="simple"><rect fill="#FEFECE" filter="url(#fml7i0ek4qz5e)" height="177.5508" id="com.ibm.fhir.model.path.evaluator.FHIRPathEvaluator.EvaluationContext" style="stroke: #A80036; stroke-width: 1.5;" width="357" x="123.5" y="373"/><ellipse cx="192.75" cy="389" fill="#ADD1B2" rx="11" ry="11" style="stroke: #A80036; stroke-width: 1.0;"/><path d="M195.2231,395.1431 Q194.6421,395.4419 194.0029,395.5913 Q193.3638,395.7407 192.6582,395.7407 Q190.1514,395.7407 188.8315,394.0889 Q187.5117,392.437 187.5117,389.3159 Q187.5117,386.1865 188.8315,384.5347 Q190.1514,382.8828 192.6582,382.8828 Q193.3638,382.8828 194.0112,383.0322 Q194.6587,383.1816 195.2231,383.4805 L195.2231,386.2031 Q194.5923,385.6221 193.9988,385.3523 Q193.4053,385.0825 192.7744,385.0825 Q191.4297,385.0825 190.7449,386.1492 Q190.0601,387.2158 190.0601,389.3159 Q190.0601,391.4077 190.7449,392.4744 Q191.4297,393.541 192.7744,393.541 Q193.4053,393.541 193.9988,393.2712 Q194.5923,393.0015 195.2231,392.4204 Z "/><text fill="#000000" font-family="sans-serif" font-size="12" lengthAdjust="spacingAndGlyphs" textLength="210" x="213.25" y="393.5352">FHIRPathEvaluator.EvaluationContext</text><line style="stroke: #A80036; stroke-width: 1.5;" x1="124.5" x2="479.5" y1="405" y2="405"/><line style="stroke: #A80036; stroke-width: 1.5;" x1="124.5" x2="479.5" y1="413" y2="413"/><ellipse cx="134.5" cy="424.9775" fill="#84BE84" rx="3" ry="3" style="stroke: #038048; stroke-width: 1.0;"/><text fill="#000000" font-family="sans-serif" font-size="11" lengthAdjust="spacingAndGlyphs" textLength="106" x="143.5" y="427.6348">EvaluationContext()</text><ellipse cx="134.5" cy="437.9326" fill="#84BE84" rx="3" ry="3" style="stroke: #038048; stroke-width: 1.0;"/><text fill="#000000" font-family="sans-serif" font-size="11" lengthAdjust="spacingAndGlyphs" textLength="156" x="143.5" y="440.5898">EvaluationContext(Resource)</text><ellipse cx="134.5" cy="450.8877" fill="#84BE84" rx="3" ry="3" style="stroke: #038048; stroke-width: 1.0;"/><text fill="#000000" font-family="sans-serif" font-size="11" lengthAdjust="spacingAndGlyphs" textLength="148" x="143.5" y="453.5449">EvaluationContext(Element)</text><ellipse cx="134.5" cy="463.8428" fill="#84BE84" rx="3" ry="3" style="stroke: #038048; stroke-width: 1.0;"/><text fill="#000000" font-family="sans-serif" font-size="11" lengthAdjust="spacingAndGlyphs" textLength="177" x="143.5" y="466.5">EvaluationContext(FHIRPathTree)</text><ellipse cx="134.5" cy="476.7979" fill="#84BE84" rx="3" ry="3" style="stroke: #038048; stroke-width: 1.0;"/><text fill="#000000" font-family="sans-serif" font-size="11" lengthAdjust="spacingAndGlyphs" textLength="126" x="143.5" y="479.4551">getTree(): FHIRPathTree</text><ellipse cx="134.5" cy="489.7529" fill="#84BE84" rx="3" ry="3" style="stroke: #038048; stroke-width: 1.0;"/><text fill="#000000" font-family="sans-serif" font-size="11" lengthAdjust="spacingAndGlyphs" textLength="259" x="143.5" y="492.4102">setExternalConstant(String, FHIRPathNode): void</text><ellipse cx="134.5" cy="502.708" fill="#84BE84" rx="3" ry="3" style="stroke: #038048; stroke-width: 1.0;"/><text fill="#000000" font-family="sans-serif" font-size="11" lengthAdjust="spacingAndGlyphs" textLength="331" x="143.5" y="505.3652">setExternalConstant(String, Collection&lt;FHIRPathNode&gt;): void</text><ellipse cx="134.5" cy="515.6631" fill="#84BE84" rx="3" ry="3" style="stroke: #038048; stroke-width: 1.0;"/><text fill="#000000" font-family="sans-serif" font-size="11" lengthAdjust="spacingAndGlyphs" textLength="192" x="143.5" y="518.3203">unsetExternalConstant(String): void</text><ellipse cx="134.5" cy="528.6182" fill="#84BE84" rx="3" ry="3" style="stroke: #038048; stroke-width: 1.0;"/><text fill="#000000" font-family="sans-serif" font-size="11" lengthAdjust="spacingAndGlyphs" textLength="303" x="143.5" y="531.2754">getExternalConstant(String): Collection&lt;FHIRPathNode&gt;</text><ellipse cx="134.5" cy="541.5732" fill="#84BE84" rx="3" ry="3" style="stroke: #038048; stroke-width: 1.0;"/><text fill="#000000" font-family="sans-serif" font-size="11" lengthAdjust="spacingAndGlyphs" textLength="201" x="143.5" y="544.2305">hasExternalConstant(String): boolean</text></a><!--link com.ibm.fhir.model.path.evaluator.FHIRPathEvaluator to com.ibm.fhir.model.path.evaluator.FHIRPathEvaluator.EvaluationContext--><path d="M222.7165,234.1544 C213.5795,259.1565 209.1574,286.3081 216,312 C221.0922,331.1197 229.2635,350.3378 238.5906,368.3361 " fill="none" id="com.ibm.fhir.model.path.evaluator.FHIRPathEvaluator-com.ibm.fhir.model.path.evaluator.FHIRPathEvaluator.EvaluationContext" style="stroke: #A80036; stroke-width: 1.0;"/><polygon fill="#A80036" points="240.9857,372.8848,240.332,363.0577,238.6562,368.4606,233.2533,366.7848,240.9857,372.8848" style="stroke: #A80036; stroke-width: 1.0;"/><text fill="#000000" font-family="sans-serif" font-size="13" lengthAdjust="spacingAndGlyphs" textLength="115" x="217" y="308.5684">evaluationContext</text><!--link com.ibm.fhir.model.path.evaluator.FHIRPathEvaluator to com.ibm.fhir.model.path.evaluator.FHIRPathEvaluator.EvaluationContext--><path d="M325.9528,248.9055 C330.5095,264.1804 334.4124,279.833 337,295 C341.3342,320.4049 338.6802,347.8299 333.2872,372.9678 " fill="none" id="com.ibm.fhir.model.path.evaluator.FHIRPathEvaluator-com.ibm.fhir.model.path.evaluator.FHIRPathEvaluator.EvaluationContext-1" style="stroke: #A80036; stroke-width: 1.0;"/><ellipse cx="323.7992" cy="242.0379" fill="#FFFFFF" rx="8" ry="8" style="stroke: #A80036; stroke-width: 1.0;"/><line style="stroke: #A80036; stroke-width: 1.0;" x1="326.193" x2="321.4054" y1="249.6713" y2="234.4044"/><line style="stroke: #A80036; stroke-width: 1.0;" x1="316.1657" x2="331.4327" y1="244.4317" y2="239.6441"/><text fill="#888888" font-family="sans-serif" font-size="10" lengthAdjust="spacingAndGlyphs" textLength="182" x="197" y="586.668">UMLDoclet 2.0.5, PlantUML 1.2019.08</text><!--
@startuml
    namespace com.ibm.fhir.model.path.evaluator {

        class FHIRPathEvaluator [[FHIRPathEvaluator.html]] {
            {static} +DEBUG: boolean
            {static} +SINGLETON_TRUE: Collection<FHIRPathNode>
            {static} +SINGLETON_FALSE: Collection<FHIRPathNode>
            +evaluate(String): Collection<FHIRPathNode>
            +evaluate(Resource, String): Collection<FHIRPathNode>
            +evaluate(Element, String): Collection<FHIRPathNode>
            +evaluate(EvaluationContext, String): Collection<FHIRPathNode>
            +evaluate(EvaluationContext, String, FHIRPathNode): Collection<FHIRPathNode>
            +evaluate(EvaluationContext, String, Collection<FHIRPathNode>): Collection<FHIRPathNode>
            {static} +evaluator(): FHIRPathEvaluator
            {static} +main(String[]): void
        }

        class com.ibm.fhir.model.path.evaluator.FHIRPathEvaluator.EvaluationContext [[FHIRPathEvaluator.EvaluationContext.html]] {
            +EvaluationContext()
            +EvaluationContext(Resource)
            +EvaluationContext(Element)
            +EvaluationContext(FHIRPathTree)
            +getTree(): FHIRPathTree
            +setExternalConstant(String, FHIRPathNode): void
            +setExternalConstant(String, Collection<FHIRPathNode>): void
            +unsetExternalConstant(String): void
            +getExternalConstant(String): Collection<FHIRPathNode>
            +hasExternalConstant(String): boolean
        }

        FHIRPathEvaluator - -> com.ibm.fhir.model.path.evaluator.FHIRPathEvaluator.EvaluationContext: evaluationContext
        FHIRPathEvaluator +- - com.ibm.fhir.model.path.evaluator.FHIRPathEvaluator.EvaluationContext
    }

    center footer UMLDoclet 2.0.5, PlantUML 1.2019.08
@enduml

PlantUML version 1.2019.08(Sat Jul 13 15:25:14 EDT 2019)
(APACHE source distribution)
Java Runtime: OpenJDK Runtime Environment
JVM: OpenJDK 64-Bit Server VM
Java Version: 11.0.4+11
Operating System: Mac OS X
OS Version: 10.14.6
Default Encoding: UTF-8
Language: en
Country: US
--></g></svg>