<?xml version="1.0" encoding="UTF-8" standalone="no"?><svg xmlns="http://www.w3.org/2000/svg" xmlns:xlink="http://www.w3.org/1999/xlink" contentScriptType="application/ecmascript" contentStyleType="text/css" height="261px" preserveAspectRatio="none" style="width:413px;height:261px;" version="1.1" viewBox="0 0 413 261" width="413px" zoomAndPan="magnify"><defs><filter height="300%" id="f35ahkfklwlho" width="300%" x="-1" y="-1"><feGaussianBlur result="blurOut" stdDeviation="2.0"/><feColorMatrix in="blurOut" result="blurOut2" type="matrix" values="0 0 0 0 0 0 0 0 0 0 0 0 0 0 0 0 0 0 .4 0"/><feOffset dx="4.0" dy="4.0" in="blurOut2" result="blurOut3"/><feBlend in="SourceGraphic" in2="blurOut3" mode="normal"/></filter></defs><g><!--MD5=[4fea521ff8934e4de09a9b8bd1338530]
class com.ibm.fhir.model.type.code.AssertionResponseTypes.Builder--><a href="AssertionResponseTypes.Builder.html" target="_top" title="AssertionResponseTypes.Builder.html" xlink:actuate="onRequest" xlink:href="AssertionResponseTypes.Builder.html" xlink:show="new" xlink:title="AssertionResponseTypes.Builder.html" xlink:type="simple"><rect fill="#FEFECE" filter="url(#f35ahkfklwlho)" height="122.7656" id="com.ibm.fhir.model.type.code.AssertionResponseTypes.Builder" style="stroke: #A80036; stroke-width: 1.5;" width="265" x="57" y="106"/><ellipse cx="73.35" cy="124.9688" fill="#ADD1B2" rx="11" ry="11" style="stroke: #A80036; stroke-width: 1.0;"/><path d="M76.3188,130.6094 Q75.7406,130.9063 75.1,131.0469 Q74.4594,131.2031 73.7563,131.2031 Q71.2563,131.2031 69.9281,129.5625 Q68.6156,127.9063 68.6156,124.7813 Q68.6156,121.6563 69.9281,120 Q71.2563,118.3438 73.7563,118.3438 Q74.4594,118.3438 75.1,118.5 Q75.7563,118.6563 76.3188,118.9531 L76.3188,121.6719 Q75.6938,121.0938 75.1,120.8281 Q74.5063,120.5469 73.8813,120.5469 Q72.5375,120.5469 71.85,121.625 Q71.1625,122.6875 71.1625,124.7813 Q71.1625,126.875 71.85,127.9531 Q72.5375,129.0156 73.8813,129.0156 Q74.5063,129.0156 75.1,128.75 Q75.6938,128.4688 76.3188,127.8906 L76.3188,130.6094 Z "/><text fill="#000000" font-family="sans-serif" font-size="14" lengthAdjust="spacingAndGlyphs" textLength="230" x="87.65" y="123.9951">AssertionResponseTypes.Builder</text><text fill="#000000" font-family="sans-serif" font-size="10" lengthAdjust="spacingAndGlyphs" textLength="145" x="130.15" y="136.5791">com.ibm.fhir.model.type.code</text><line style="stroke: #A80036; stroke-width: 1.5;" x1="58" x2="321" y1="143.9375" y2="143.9375"/><ellipse cx="68" cy="154.9375" fill="#84BE84" rx="3" ry="3" style="stroke: #038048; stroke-width: 1.0;"/><text fill="#000000" font-family="sans-serif" font-size="11" lengthAdjust="spacingAndGlyphs" textLength="100" x="77" y="158.1479">id(String): Builder</text><ellipse cx="68" cy="167.7422" fill="#84BE84" rx="3" ry="3" style="stroke: #038048; stroke-width: 1.0;"/><text fill="#000000" font-family="sans-serif" font-size="11" lengthAdjust="spacingAndGlyphs" textLength="178" x="77" y="170.9526">extension(Extension...): Builder</text><ellipse cx="68" cy="180.5469" fill="#84BE84" rx="3" ry="3" style="stroke: #038048; stroke-width: 1.0;"/><text fill="#000000" font-family="sans-serif" font-size="11" lengthAdjust="spacingAndGlyphs" textLength="239" x="77" y="183.7573">extension(Collection&lt;Extension&gt;): Builder</text><ellipse cx="68" cy="193.3516" fill="#84BE84" rx="3" ry="3" style="stroke: #038048; stroke-width: 1.0;"/><text fill="#000000" font-family="sans-serif" font-size="11" lengthAdjust="spacingAndGlyphs" textLength="120" x="77" y="196.562">value(String): Builder</text><ellipse cx="68" cy="206.1563" fill="#84BE84" rx="3" ry="3" style="stroke: #038048; stroke-width: 1.0;"/><text fill="#000000" font-family="sans-serif" font-size="11" lengthAdjust="spacingAndGlyphs" textLength="136" x="77" y="209.3667">value(ValueSet): Builder</text><ellipse cx="68" cy="218.9609" fill="#84BE84" rx="3" ry="3" style="stroke: #038048; stroke-width: 1.0;"/><text fill="#000000" font-family="sans-serif" font-size="11" lengthAdjust="spacingAndGlyphs" textLength="187" x="77" y="222.1714">build(): AssertionResponseTypes</text></a><!--MD5=[d58206fe609464c205fa3b8b97dbba54]
class com.ibm.fhir.model.type.Code.Builder--><a href="../Code.Builder.html" target="_top" title="../Code.Builder.html" xlink:actuate="onRequest" xlink:href="../Code.Builder.html" xlink:show="new" xlink:title="../Code.Builder.html" xlink:type="simple"><rect fill="#FEFECE" filter="url(#f35ahkfklwlho)" height="37.9375" id="com.ibm.fhir.model.type.Code.Builder" style="stroke: #A80036; stroke-width: 1.5;" width="151" x="6" y="8"/><ellipse cx="21" cy="26.9688" fill="#ADD1B2" rx="11" ry="11" style="stroke: #A80036; stroke-width: 1.0;"/><path d="M23.9688,32.6094 Q23.3906,32.9063 22.75,33.0469 Q22.1094,33.2031 21.4063,33.2031 Q18.9063,33.2031 17.5781,31.5625 Q16.2656,29.9063 16.2656,26.7813 Q16.2656,23.6563 17.5781,22 Q18.9063,20.3438 21.4063,20.3438 Q22.1094,20.3438 22.75,20.5 Q23.4063,20.6563 23.9688,20.9531 L23.9688,23.6719 Q23.3438,23.0938 22.75,22.8281 Q22.1563,22.5469 21.5313,22.5469 Q20.1875,22.5469 19.5,23.625 Q18.8125,24.6875 18.8125,26.7813 Q18.8125,28.875 19.5,29.9531 Q20.1875,31.0156 21.5313,31.0156 Q22.1563,31.0156 22.75,30.75 Q23.3438,30.4688 23.9688,29.8906 L23.9688,32.6094 Z "/><text fill="#000000" font-family="sans-serif" font-size="14" lengthAdjust="spacingAndGlyphs" textLength="89" x="50" y="25.9951">Code.Builder</text><text fill="#000000" font-family="sans-serif" font-size="10" lengthAdjust="spacingAndGlyphs" textLength="119" x="35" y="38.5791">com.ibm.fhir.model.type</text></a><!--MD5=[70d25a6d80faa28da978fdc6301cd83c]
class com.ibm.fhir.model.type.code.AssertionResponseTypes--><a href="AssertionResponseTypes.html" target="_top" title="AssertionResponseTypes.html" xlink:actuate="onRequest" xlink:href="AssertionResponseTypes.html" xlink:show="new" xlink:title="AssertionResponseTypes.html" xlink:type="simple"><rect fill="#FEFECE" filter="url(#f35ahkfklwlho)" height="37.9375" id="com.ibm.fhir.model.type.code.AssertionResponseTypes" style="stroke: #A80036; stroke-width: 1.5;" width="210" x="192.5" y="8"/><ellipse cx="207.5" cy="26.9688" fill="#ADD1B2" rx="11" ry="11" style="stroke: #A80036; stroke-width: 1.0;"/><path d="M210.4688,32.6094 Q209.8906,32.9063 209.25,33.0469 Q208.6094,33.2031 207.9063,33.2031 Q205.4063,33.2031 204.0781,31.5625 Q202.7656,29.9063 202.7656,26.7813 Q202.7656,23.6563 204.0781,22 Q205.4063,20.3438 207.9063,20.3438 Q208.6094,20.3438 209.25,20.5 Q209.9063,20.6563 210.4688,20.9531 L210.4688,23.6719 Q209.8438,23.0938 209.25,22.8281 Q208.6563,22.5469 208.0313,22.5469 Q206.6875,22.5469 206,23.625 Q205.3125,24.6875 205.3125,26.7813 Q205.3125,28.875 206,29.9531 Q206.6875,31.0156 208.0313,31.0156 Q208.6563,31.0156 209.25,30.75 Q209.8438,30.4688 210.4688,29.8906 L210.4688,32.6094 Z "/><text fill="#000000" font-family="sans-serif" font-size="14" lengthAdjust="spacingAndGlyphs" textLength="178" x="221.5" y="25.9951">AssertionResponseTypes</text><text fill="#000000" font-family="sans-serif" font-size="10" lengthAdjust="spacingAndGlyphs" textLength="145" x="238" y="38.5791">com.ibm.fhir.model.type.code</text></a><!--MD5=[12c38a2f04f4942ddc69f91601d36ad1]
reverse link com.ibm.fhir.model.type.Code.Builder to com.ibm.fhir.model.type.code.AssertionResponseTypes.Builder--><path d="M108.5238,62.1559 C118.7235,75.425 130.651,90.9418 142.1677,105.9242 " fill="none" id="com.ibm.fhir.model.type.Code.Builder&lt;-com.ibm.fhir.model.type.code.AssertionResponseTypes.Builder" style="stroke: #A80036; stroke-width: 1.0;"/><polygon fill="none" points="102.9294,66.3641,96.2905,46.2413,114.0291,57.8319,102.9294,66.3641" style="stroke: #A80036; stroke-width: 1.0;"/><!--MD5=[de46cc47c20564fa76ad53bb1b782678]
reverse link com.ibm.fhir.model.type.code.AssertionResponseTypes to com.ibm.fhir.model.type.code.AssertionResponseTypes.Builder--><path d="M273.5153,58.2023 C262.6931,72.2813 249.5136,89.4267 236.8323,105.9242 " fill="none" id="com.ibm.fhir.model.type.code.AssertionResponseTypes&lt;-com.ibm.fhir.model.type.code.AssertionResponseTypes.Builder" style="stroke: #A80036; stroke-width: 1.0;"/><ellipse cx="277.834" cy="52.584" fill="#FFFFFF" rx="8" ry="8" style="stroke: #A80036; stroke-width: 1.0;"/><line style="stroke: #A80036; stroke-width: 1.0;" x1="272.9585" x2="282.7095" y1="58.9267" y2="46.2413"/><line style="stroke: #A80036; stroke-width: 1.0;" x1="271.4913" x2="284.1767" y1="47.7085" y2="57.4595"/><text fill="#888888" font-family="sans-serif" font-size="10" lengthAdjust="spacingAndGlyphs" textLength="186" x="117.5" y="248.2822">UMLDoclet 2.0.7, PlantUML 1.2019.12</text><!--MD5=[b6a467169b04fc633eab176671c5cf4d]
@startuml
    set namespaceSeparator none
    hide empty fields
    hide empty methods

    class "<size:14>AssertionResponseTypes.Builder\n<size:10>com.ibm.fhir.model.type.code" as com.ibm.fhir.model.type.code.AssertionResponseTypes.Builder [[AssertionResponseTypes.Builder.html]] {
        +id(String): Builder
        +extension(Extension...): Builder
        +extension(Collection<Extension>): Builder
        +value(String): Builder
        +value(ValueSet): Builder
        +build(): AssertionResponseTypes
    }

    class "<size:14>Code.Builder\n<size:10>com.ibm.fhir.model.type" as com.ibm.fhir.model.type.Code.Builder [[../Code.Builder.html]]
    class "<size:14>AssertionResponseTypes\n<size:10>com.ibm.fhir.model.type.code" as com.ibm.fhir.model.type.code.AssertionResponseTypes [[AssertionResponseTypes.html]]

    com.ibm.fhir.model.type.Code.Builder <|- - com.ibm.fhir.model.type.code.AssertionResponseTypes.Builder
    com.ibm.fhir.model.type.code.AssertionResponseTypes +- - com.ibm.fhir.model.type.code.AssertionResponseTypes.Builder

    center footer UMLDoclet 2.0.7, PlantUML 1.2019.12
@enduml

PlantUML version 1.2019.12(Sun Nov 03 10:24:54 UTC 2019)
(APACHE source distribution)
Java Runtime: OpenJDK Runtime Environment
JVM: OpenJDK 64-Bit Server VM
Java Version: 11.0.9.1+1
Operating System: Linux
Default Encoding: UTF-8
Language: en
Country: null
--></g></svg>