<?xml version="1.0" encoding="UTF-8" standalone="no"?><svg xmlns="http://www.w3.org/2000/svg" xmlns:xlink="http://www.w3.org/1999/xlink" contentScriptType="application/ecmascript" contentStyleType="text/css" height="495px" preserveAspectRatio="none" style="width:409px;height:495px;" version="1.1" viewBox="0 0 409 495" width="409px" zoomAndPan="magnify"><defs><filter height="300%" id="f1bjse1o5cfeiu" width="300%" x="-1" y="-1"><feGaussianBlur result="blurOut" stdDeviation="2.0"/><feColorMatrix in="blurOut" result="blurOut2" type="matrix" values="0 0 0 0 0 0 0 0 0 0 0 0 0 0 0 0 0 0 .4 0"/><feOffset dx="4.0" dy="4.0" in="blurOut2" result="blurOut3"/><feBlend in="SourceGraphic" in2="blurOut3" mode="normal"/></filter></defs><g><!--MD5=[0c3c2c0ffaf46b6c0f214c7572e99cad]
class com.ibm.fhir.model.type.code.BundleType--><a href="BundleType.html" target="_top" title="BundleType.html" xlink:actuate="onRequest" xlink:href="BundleType.html" xlink:show="new" xlink:title="BundleType.html" xlink:type="simple"><rect fill="#FEFECE" filter="url(#f1bjse1o5cfeiu)" height="258.8125" id="com.ibm.fhir.model.type.code.BundleType" style="stroke: #A80036; stroke-width: 1.5;" width="246" x="78.5" y="106"/><ellipse cx="124.75" cy="124.9688" fill="#ADD1B2" rx="11" ry="11" style="stroke: #A80036; stroke-width: 1.0;"/><path d="M127.7188,130.6094 Q127.1406,130.9063 126.5,131.0469 Q125.8594,131.2031 125.1563,131.2031 Q122.6563,131.2031 121.3281,129.5625 Q120.0156,127.9063 120.0156,124.7813 Q120.0156,121.6563 121.3281,120 Q122.6563,118.3438 125.1563,118.3438 Q125.8594,118.3438 126.5,118.5 Q127.1563,118.6563 127.7188,118.9531 L127.7188,121.6719 Q127.0938,121.0938 126.5,120.8281 Q125.9063,120.5469 125.2813,120.5469 Q123.9375,120.5469 123.25,121.625 Q122.5625,122.6875 122.5625,124.7813 Q122.5625,126.875 123.25,127.9531 Q123.9375,129.0156 125.2813,129.0156 Q125.9063,129.0156 126.5,128.75 Q127.0938,128.4688 127.7188,127.8906 L127.7188,130.6094 Z "/><text fill="#000000" font-family="sans-serif" font-size="14" lengthAdjust="spacingAndGlyphs" textLength="83" x="176.25" y="123.9951">BundleType</text><text fill="#000000" font-family="sans-serif" font-size="10" lengthAdjust="spacingAndGlyphs" textLength="145" x="145.25" y="136.5791">com.ibm.fhir.model.type.code</text><line style="stroke: #A80036; stroke-width: 1.5;" x1="79.5" x2="323.5" y1="143.9375" y2="143.9375"/><ellipse cx="89.5" cy="154.9375" fill="none" rx="3" ry="3" style="stroke: #038048; stroke-width: 1.0;"/><text fill="#000000" font-family="sans-serif" font-size="11" lengthAdjust="spacingAndGlyphs" text-decoration="underline" textLength="138" x="98.5" y="158.1479">DOCUMENT: BundleType</text><ellipse cx="89.5" cy="167.7422" fill="none" rx="3" ry="3" style="stroke: #038048; stroke-width: 1.0;"/><text fill="#000000" font-family="sans-serif" font-size="11" lengthAdjust="spacingAndGlyphs" text-decoration="underline" textLength="129" x="98.5" y="170.9526">MESSAGE: BundleType</text><ellipse cx="89.5" cy="180.5469" fill="none" rx="3" ry="3" style="stroke: #038048; stroke-width: 1.0;"/><text fill="#000000" font-family="sans-serif" font-size="11" lengthAdjust="spacingAndGlyphs" text-decoration="underline" textLength="153" x="98.5" y="183.7573">TRANSACTION: BundleType</text><ellipse cx="89.5" cy="193.3516" fill="none" rx="3" ry="3" style="stroke: #038048; stroke-width: 1.0;"/><text fill="#000000" font-family="sans-serif" font-size="11" lengthAdjust="spacingAndGlyphs" text-decoration="underline" textLength="220" x="98.5" y="196.562">TRANSACTION_RESPONSE: BundleType</text><ellipse cx="89.5" cy="206.1563" fill="none" rx="3" ry="3" style="stroke: #038048; stroke-width: 1.0;"/><text fill="#000000" font-family="sans-serif" font-size="11" lengthAdjust="spacingAndGlyphs" text-decoration="underline" textLength="112" x="98.5" y="209.3667">BATCH: BundleType</text><ellipse cx="89.5" cy="218.9609" fill="none" rx="3" ry="3" style="stroke: #038048; stroke-width: 1.0;"/><text fill="#000000" font-family="sans-serif" font-size="11" lengthAdjust="spacingAndGlyphs" text-decoration="underline" textLength="179" x="98.5" y="222.1714">BATCH_RESPONSE: BundleType</text><ellipse cx="89.5" cy="231.7656" fill="none" rx="3" ry="3" style="stroke: #038048; stroke-width: 1.0;"/><text fill="#000000" font-family="sans-serif" font-size="11" lengthAdjust="spacingAndGlyphs" text-decoration="underline" textLength="123" x="98.5" y="234.9761">HISTORY: BundleType</text><ellipse cx="89.5" cy="244.5703" fill="none" rx="3" ry="3" style="stroke: #038048; stroke-width: 1.0;"/><text fill="#000000" font-family="sans-serif" font-size="11" lengthAdjust="spacingAndGlyphs" text-decoration="underline" textLength="141" x="98.5" y="247.7808">SEARCHSET: BundleType</text><ellipse cx="89.5" cy="257.375" fill="none" rx="3" ry="3" style="stroke: #038048; stroke-width: 1.0;"/><text fill="#000000" font-family="sans-serif" font-size="11" lengthAdjust="spacingAndGlyphs" text-decoration="underline" textLength="145" x="98.5" y="260.5854">COLLECTION: BundleType</text><line style="stroke: #A80036; stroke-width: 1.5;" x1="79.5" x2="323.5" y1="267.1797" y2="267.1797"/><ellipse cx="89.5" cy="278.1797" fill="#84BE84" rx="3" ry="3" style="stroke: #038048; stroke-width: 1.0;"/><text fill="#000000" font-family="sans-serif" font-size="11" lengthAdjust="spacingAndGlyphs" textLength="212" x="98.5" y="281.3901">getValueAsEnumConstant(): ValueSet</text><ellipse cx="89.5" cy="290.9844" fill="#84BE84" rx="3" ry="3" style="stroke: #038048; stroke-width: 1.0;"/><text fill="#000000" font-family="sans-serif" font-size="11" lengthAdjust="spacingAndGlyphs" text-decoration="underline" textLength="143" x="98.5" y="294.1948">of(ValueSet): BundleType</text><ellipse cx="89.5" cy="303.7891" fill="#84BE84" rx="3" ry="3" style="stroke: #038048; stroke-width: 1.0;"/><text fill="#000000" font-family="sans-serif" font-size="11" lengthAdjust="spacingAndGlyphs" text-decoration="underline" textLength="127" x="98.5" y="306.9995">of(String): BundleType</text><ellipse cx="89.5" cy="316.5938" fill="#84BE84" rx="3" ry="3" style="stroke: #038048; stroke-width: 1.0;"/><text fill="#000000" font-family="sans-serif" font-size="11" lengthAdjust="spacingAndGlyphs" text-decoration="underline" textLength="117" x="98.5" y="319.8042">string(String): String</text><ellipse cx="89.5" cy="329.3984" fill="#84BE84" rx="3" ry="3" style="stroke: #038048; stroke-width: 1.0;"/><text fill="#000000" font-family="sans-serif" font-size="11" lengthAdjust="spacingAndGlyphs" text-decoration="underline" textLength="106" x="98.5" y="332.6089">code(String): Code</text><ellipse cx="89.5" cy="342.2031" fill="#84BE84" rx="3" ry="3" style="stroke: #038048; stroke-width: 1.0;"/><text fill="#000000" font-family="sans-serif" font-size="11" lengthAdjust="spacingAndGlyphs" textLength="107" x="98.5" y="345.4136">toBuilder(): Builder</text><ellipse cx="89.5" cy="355.0078" fill="#84BE84" rx="3" ry="3" style="stroke: #038048; stroke-width: 1.0;"/><text fill="#000000" font-family="sans-serif" font-size="11" lengthAdjust="spacingAndGlyphs" text-decoration="underline" textLength="95" x="98.5" y="358.2183">builder(): Builder</text></a><!--MD5=[36277681a3d78580011ae89cb2088b30]
class com.ibm.fhir.model.type.Code--><a href="../Code.html" target="_top" title="../Code.html" xlink:actuate="onRequest" xlink:href="../Code.html" xlink:show="new" xlink:title="../Code.html" xlink:type="simple"><rect fill="#FEFECE" filter="url(#f1bjse1o5cfeiu)" height="37.9375" id="com.ibm.fhir.model.type.Code" style="stroke: #A80036; stroke-width: 1.5;" width="151" x="126" y="8"/><ellipse cx="141" cy="26.9688" fill="#ADD1B2" rx="11" ry="11" style="stroke: #A80036; stroke-width: 1.0;"/><path d="M143.9688,32.6094 Q143.3906,32.9063 142.75,33.0469 Q142.1094,33.2031 141.4063,33.2031 Q138.9063,33.2031 137.5781,31.5625 Q136.2656,29.9063 136.2656,26.7813 Q136.2656,23.6563 137.5781,22 Q138.9063,20.3438 141.4063,20.3438 Q142.1094,20.3438 142.75,20.5 Q143.4063,20.6563 143.9688,20.9531 L143.9688,23.6719 Q143.3438,23.0938 142.75,22.8281 Q142.1563,22.5469 141.5313,22.5469 Q140.1875,22.5469 139.5,23.625 Q138.8125,24.6875 138.8125,26.7813 Q138.8125,28.875 139.5,29.9531 Q140.1875,31.0156 141.5313,31.0156 Q142.1563,31.0156 142.75,30.75 Q143.3438,30.4688 143.9688,29.8906 L143.9688,32.6094 Z "/><text fill="#000000" font-family="sans-serif" font-size="14" lengthAdjust="spacingAndGlyphs" textLength="37" x="196" y="25.9951">Code</text><text fill="#000000" font-family="sans-serif" font-size="10" lengthAdjust="spacingAndGlyphs" textLength="119" x="155" y="38.5791">com.ibm.fhir.model.type</text></a><!--MD5=[17977bd3872e949178fd76f06b839330]
class com.ibm.fhir.model.type.code.BundleType.Builder--><a href="BundleType.Builder.html" target="_top" title="BundleType.Builder.html" xlink:actuate="onRequest" xlink:href="BundleType.Builder.html" xlink:show="new" xlink:title="BundleType.Builder.html" xlink:type="simple"><rect fill="#FEFECE" filter="url(#f1bjse1o5cfeiu)" height="37.9375" id="com.ibm.fhir.model.type.code.BundleType.Builder" style="stroke: #A80036; stroke-width: 1.5;" width="177" x="6" y="425"/><ellipse cx="21" cy="443.9688" fill="#ADD1B2" rx="11" ry="11" style="stroke: #A80036; stroke-width: 1.0;"/><path d="M23.9688,449.6094 Q23.3906,449.9063 22.75,450.0469 Q22.1094,450.2031 21.4063,450.2031 Q18.9063,450.2031 17.5781,448.5625 Q16.2656,446.9063 16.2656,443.7813 Q16.2656,440.6563 17.5781,439 Q18.9063,437.3438 21.4063,437.3438 Q22.1094,437.3438 22.75,437.5 Q23.4063,437.6563 23.9688,437.9531 L23.9688,440.6719 Q23.3438,440.0938 22.75,439.8281 Q22.1563,439.5469 21.5313,439.5469 Q20.1875,439.5469 19.5,440.625 Q18.8125,441.6875 18.8125,443.7813 Q18.8125,445.875 19.5,446.9531 Q20.1875,448.0156 21.5313,448.0156 Q22.1563,448.0156 22.75,447.75 Q23.3438,447.4688 23.9688,446.8906 L23.9688,449.6094 Z "/><text fill="#000000" font-family="sans-serif" font-size="14" lengthAdjust="spacingAndGlyphs" textLength="135" x="40" y="442.9951">BundleType.Builder</text><text fill="#000000" font-family="sans-serif" font-size="10" lengthAdjust="spacingAndGlyphs" textLength="145" x="35" y="455.5791">com.ibm.fhir.model.type.code</text></a><!--MD5=[b1f7eaef9a55a358cf1bcb04cfad014b]
class com.ibm.fhir.model.type.code.BundleType.ValueSet--><a href="BundleType.ValueSet.html" target="_top" title="BundleType.ValueSet.html" xlink:actuate="onRequest" xlink:href="BundleType.ValueSet.html" xlink:show="new" xlink:title="BundleType.ValueSet.html" xlink:type="simple"><rect fill="#FEFECE" filter="url(#f1bjse1o5cfeiu)" height="37.9375" id="com.ibm.fhir.model.type.code.BundleType.ValueSet" style="stroke: #A80036; stroke-width: 1.5;" width="180" x="218.5" y="425"/><ellipse cx="233.5" cy="443.9688" fill="#EB937F" rx="11" ry="11" style="stroke: #A80036; stroke-width: 1.0;"/><path d="M237.6094,449.9688 L229.8906,449.9688 L229.8906,437.5781 L237.6094,437.5781 L237.6094,439.7344 L232.3438,439.7344 L232.3438,442.4063 L237.1094,442.4063 L237.1094,444.5625 L232.3438,444.5625 L232.3438,447.8125 L237.6094,447.8125 L237.6094,449.9688 Z "/><text fill="#000000" font-family="sans-serif" font-size="14" lengthAdjust="spacingAndGlyphs" textLength="148" x="247.5" y="442.9951">BundleType.ValueSet</text><text fill="#000000" font-family="sans-serif" font-size="10" lengthAdjust="spacingAndGlyphs" textLength="145" x="249" y="455.5791">com.ibm.fhir.model.type.code</text></a><!--MD5=[1110f90c479a91ae9dada6509a92d53b]
reverse link com.ibm.fhir.model.type.Code to com.ibm.fhir.model.type.code.BundleType--><path d="M201.5,66.679 C201.5,78.2948 201.5,91.675 201.5,105.7135 " fill="none" id="com.ibm.fhir.model.type.Code&lt;-com.ibm.fhir.model.type.code.BundleType" style="stroke: #A80036; stroke-width: 1.0;"/><polygon fill="none" points="194.5001,66.2415,201.5,46.2415,208.5001,66.2414,194.5001,66.2415" style="stroke: #A80036; stroke-width: 1.0;"/><!--MD5=[c26126d79d2a92df5ef6b6d3ac9fa6c0]
reverse link com.ibm.fhir.model.type.code.BundleType to com.ibm.fhir.model.type.code.BundleType.Builder--><path d="M128.0558,378.6133 C118.7844,396.6795 110.4456,412.9283 104.3999,424.7091 " fill="none" id="com.ibm.fhir.model.type.code.BundleType&lt;-com.ibm.fhir.model.type.code.BundleType.Builder" style="stroke: #A80036; stroke-width: 1.0;"/><ellipse cx="131.2995" cy="372.2926" fill="#FFFFFF" rx="8" ry="8" style="stroke: #A80036; stroke-width: 1.0;"/><line style="stroke: #A80036; stroke-width: 1.0;" x1="127.6468" x2="134.9521" y1="379.41" y2="365.1751"/><line style="stroke: #A80036; stroke-width: 1.0;" x1="124.182" x2="138.4169" y1="368.6399" y2="375.9452"/><!--MD5=[534da23495d76407d9dbcc1a8ae1a42b]
reverse link com.ibm.fhir.model.type.code.BundleType to com.ibm.fhir.model.type.code.BundleType.ValueSet--><path d="M274.9442,378.6133 C284.2156,396.6795 292.5544,412.9283 298.6001,424.7091 " fill="none" id="com.ibm.fhir.model.type.code.BundleType&lt;-com.ibm.fhir.model.type.code.BundleType.ValueSet" style="stroke: #A80036; stroke-width: 1.0;"/><ellipse cx="271.7005" cy="372.2926" fill="#FFFFFF" rx="8" ry="8" style="stroke: #A80036; stroke-width: 1.0;"/><line style="stroke: #A80036; stroke-width: 1.0;" x1="275.3532" x2="268.0479" y1="379.41" y2="365.1751"/><line style="stroke: #A80036; stroke-width: 1.0;" x1="264.5831" x2="278.818" y1="375.9452" y2="368.6399"/><text fill="#888888" font-family="sans-serif" font-size="10" lengthAdjust="spacingAndGlyphs" textLength="186" x="115.5" y="482.2822">UMLDoclet 2.0.7, PlantUML 1.2019.12</text><!--MD5=[d8b4611bc4edeff39e16e1e5f125ef08]
@startuml
    set namespaceSeparator none
    hide empty fields
    hide empty methods

    class "<size:14>BundleType\n<size:10>com.ibm.fhir.model.type.code" as com.ibm.fhir.model.type.code.BundleType [[BundleType.html]] {
        {static} +DOCUMENT: BundleType
        {static} +MESSAGE: BundleType
        {static} +TRANSACTION: BundleType
        {static} +TRANSACTION_RESPONSE: BundleType
        {static} +BATCH: BundleType
        {static} +BATCH_RESPONSE: BundleType
        {static} +HISTORY: BundleType
        {static} +SEARCHSET: BundleType
        {static} +COLLECTION: BundleType
        +getValueAsEnumConstant(): ValueSet
        {static} +of(ValueSet): BundleType
        {static} +of(String): BundleType
        {static} +string(String): String
        {static} +code(String): Code
        +toBuilder(): Builder
        {static} +builder(): Builder
    }

    class "<size:14>Code\n<size:10>com.ibm.fhir.model.type" as com.ibm.fhir.model.type.Code [[../Code.html]]
    class "<size:14>BundleType.Builder\n<size:10>com.ibm.fhir.model.type.code" as com.ibm.fhir.model.type.code.BundleType.Builder [[BundleType.Builder.html]]
    enum "<size:14>BundleType.ValueSet\n<size:10>com.ibm.fhir.model.type.code" as com.ibm.fhir.model.type.code.BundleType.ValueSet [[BundleType.ValueSet.html]]

    com.ibm.fhir.model.type.Code <|- - com.ibm.fhir.model.type.code.BundleType
    com.ibm.fhir.model.type.code.BundleType +- - com.ibm.fhir.model.type.code.BundleType.Builder
    com.ibm.fhir.model.type.code.BundleType +- - com.ibm.fhir.model.type.code.BundleType.ValueSet

    center footer UMLDoclet 2.0.7, PlantUML 1.2019.12
@enduml

PlantUML version 1.2019.12(Sun Nov 03 10:24:54 UTC 2019)
(APACHE source distribution)
Java Runtime: OpenJDK Runtime Environment
JVM: OpenJDK 64-Bit Server VM
Java Version: 11.0.9.1+1
Operating System: Linux
Default Encoding: UTF-8
Language: en
Country: null
--></g></svg>