<?xml version="1.0" encoding="UTF-8" standalone="no"?><svg xmlns="http://www.w3.org/2000/svg" xmlns:xlink="http://www.w3.org/1999/xlink" contentScriptType="application/ecmascript" contentStyleType="text/css" height="294px" preserveAspectRatio="none" style="width:205px;height:294px;" version="1.1" viewBox="0 0 205 294" width="205px" zoomAndPan="magnify"><defs><filter height="300%" id="f1awvsx4alxaic" width="300%" x="-1" y="-1"><feGaussianBlur result="blurOut" stdDeviation="2.0"/><feColorMatrix in="blurOut" result="blurOut2" type="matrix" values="0 0 0 0 0 0 0 0 0 0 0 0 0 0 0 0 0 0 .4 0"/><feOffset dx="4.0" dy="4.0" in="blurOut2" result="blurOut3"/><feBlend in="SourceGraphic" in2="blurOut3" mode="normal"/></filter></defs><g><!--MD5=[9361f92e46ac903f282df7b314ac0e88]
class com.ibm.fhir.model.type.code.HTTPVerb.ValueSet--><a href="HTTPVerb.ValueSet.html" target="_top" title="HTTPVerb.ValueSet.html" xlink:actuate="onRequest" xlink:href="HTTPVerb.ValueSet.html" xlink:show="new" xlink:title="HTTPVerb.ValueSet.html" xlink:type="simple"><rect fill="#FEFECE" filter="url(#f1awvsx4alxaic)" height="156.375" id="com.ibm.fhir.model.type.code.HTTPVerb.ValueSet" style="stroke: #A80036; stroke-width: 1.5;" width="177" x="6" y="106"/><ellipse cx="21" cy="124.9688" fill="#EB937F" rx="11" ry="11" style="stroke: #A80036; stroke-width: 1.0;"/><path d="M25.1094,130.9688 L17.3906,130.9688 L17.3906,118.5781 L25.1094,118.5781 L25.1094,120.7344 L19.8438,120.7344 L19.8438,123.4063 L24.6094,123.4063 L24.6094,125.5625 L19.8438,125.5625 L19.8438,128.8125 L25.1094,128.8125 L25.1094,130.9688 Z "/><text fill="#000000" font-family="sans-serif" font-size="14" lengthAdjust="spacingAndGlyphs" textLength="134" x="40.5" y="123.9951">HTTPVerb.ValueSet</text><text fill="#000000" font-family="sans-serif" font-size="10" lengthAdjust="spacingAndGlyphs" textLength="145" x="35" y="136.5791">com.ibm.fhir.model.type.code</text><line style="stroke: #A80036; stroke-width: 1.5;" x1="7" x2="182" y1="143.9375" y2="143.9375"/><ellipse cx="17" cy="154.9375" fill="none" rx="3" ry="3" style="stroke: #038048; stroke-width: 1.0;"/><text fill="#000000" font-family="sans-serif" font-size="11" lengthAdjust="spacingAndGlyphs" text-decoration="underline" textLength="23" x="26" y="158.1479">GET</text><ellipse cx="17" cy="167.7422" fill="none" rx="3" ry="3" style="stroke: #038048; stroke-width: 1.0;"/><text fill="#000000" font-family="sans-serif" font-size="11" lengthAdjust="spacingAndGlyphs" text-decoration="underline" textLength="30" x="26" y="170.9526">HEAD</text><ellipse cx="17" cy="180.5469" fill="none" rx="3" ry="3" style="stroke: #038048; stroke-width: 1.0;"/><text fill="#000000" font-family="sans-serif" font-size="11" lengthAdjust="spacingAndGlyphs" text-decoration="underline" textLength="31" x="26" y="183.7573">POST</text><ellipse cx="17" cy="193.3516" fill="none" rx="3" ry="3" style="stroke: #038048; stroke-width: 1.0;"/><text fill="#000000" font-family="sans-serif" font-size="11" lengthAdjust="spacingAndGlyphs" text-decoration="underline" textLength="22" x="26" y="196.562">PUT</text><ellipse cx="17" cy="206.1563" fill="none" rx="3" ry="3" style="stroke: #038048; stroke-width: 1.0;"/><text fill="#000000" font-family="sans-serif" font-size="11" lengthAdjust="spacingAndGlyphs" text-decoration="underline" textLength="42" x="26" y="209.3667">DELETE</text><ellipse cx="17" cy="218.9609" fill="none" rx="3" ry="3" style="stroke: #038048; stroke-width: 1.0;"/><text fill="#000000" font-family="sans-serif" font-size="11" lengthAdjust="spacingAndGlyphs" text-decoration="underline" textLength="37" x="26" y="222.1714">PATCH</text><line style="stroke: #A80036; stroke-width: 1.5;" x1="7" x2="182" y1="228.7656" y2="228.7656"/><ellipse cx="17" cy="239.7656" fill="#84BE84" rx="3" ry="3" style="stroke: #038048; stroke-width: 1.0;"/><text fill="#000000" font-family="sans-serif" font-size="11" lengthAdjust="spacingAndGlyphs" textLength="80" x="26" y="242.9761">value(): String</text><ellipse cx="17" cy="252.5703" fill="#84BE84" rx="3" ry="3" style="stroke: #038048; stroke-width: 1.0;"/><text fill="#000000" font-family="sans-serif" font-size="11" lengthAdjust="spacingAndGlyphs" text-decoration="underline" textLength="127" x="26" y="255.7808">from(String): ValueSet</text></a><!--MD5=[0d1a050035e9fe7f9d6b1d0dba96b894]
class com.ibm.fhir.model.type.code.HTTPVerb--><a href="HTTPVerb.html" target="_top" title="HTTPVerb.html" xlink:actuate="onRequest" xlink:href="HTTPVerb.html" xlink:show="new" xlink:title="HTTPVerb.html" xlink:type="simple"><rect fill="#FEFECE" filter="url(#f1awvsx4alxaic)" height="37.9375" id="com.ibm.fhir.model.type.code.HTTPVerb" style="stroke: #A80036; stroke-width: 1.5;" width="177" x="6" y="8"/><ellipse cx="21" cy="26.9688" fill="#ADD1B2" rx="11" ry="11" style="stroke: #A80036; stroke-width: 1.0;"/><path d="M23.9688,32.6094 Q23.3906,32.9063 22.75,33.0469 Q22.1094,33.2031 21.4063,33.2031 Q18.9063,33.2031 17.5781,31.5625 Q16.2656,29.9063 16.2656,26.7813 Q16.2656,23.6563 17.5781,22 Q18.9063,20.3438 21.4063,20.3438 Q22.1094,20.3438 22.75,20.5 Q23.4063,20.6563 23.9688,20.9531 L23.9688,23.6719 Q23.3438,23.0938 22.75,22.8281 Q22.1563,22.5469 21.5313,22.5469 Q20.1875,22.5469 19.5,23.625 Q18.8125,24.6875 18.8125,26.7813 Q18.8125,28.875 19.5,29.9531 Q20.1875,31.0156 21.5313,31.0156 Q22.1563,31.0156 22.75,30.75 Q23.3438,30.4688 23.9688,29.8906 L23.9688,32.6094 Z "/><text fill="#000000" font-family="sans-serif" font-size="14" lengthAdjust="spacingAndGlyphs" textLength="69" x="73" y="25.9951">HTTPVerb</text><text fill="#000000" font-family="sans-serif" font-size="10" lengthAdjust="spacingAndGlyphs" textLength="145" x="35" y="38.5791">com.ibm.fhir.model.type.code</text></a><!--MD5=[23d7aba5ce417993ff3a4e2f192f7090]
reverse link com.ibm.fhir.model.type.code.HTTPVerb to com.ibm.fhir.model.type.code.HTTPVerb.ValueSet--><path d="M94.5,61.4185 C94.5,74.5697 94.5,90.1635 94.5,105.7444 " fill="none" id="com.ibm.fhir.model.type.code.HTTPVerb&lt;-com.ibm.fhir.model.type.code.HTTPVerb.ValueSet" style="stroke: #A80036; stroke-width: 1.0;"/><ellipse cx="94.5001" cy="54.2513" fill="#FFFFFF" rx="8" ry="8" style="stroke: #A80036; stroke-width: 1.0;"/><line style="stroke: #A80036; stroke-width: 1.0;" x1="94.5002" x2="94.5" y1="62.2513" y2="46.2513"/><line style="stroke: #A80036; stroke-width: 1.0;" x1="86.5001" x2="102.5001" y1="54.2514" y2="54.2512"/><text fill="#888888" font-family="sans-serif" font-size="10" lengthAdjust="spacingAndGlyphs" textLength="186" x="7.5" y="281.2822">UMLDoclet 2.0.7, PlantUML 1.2019.12</text><!--MD5=[7b7d159ec2cc50b15beafc0cb57c7c92]
@startuml
    set namespaceSeparator none
    hide empty fields
    hide empty methods

    enum "<size:14>HTTPVerb.ValueSet\n<size:10>com.ibm.fhir.model.type.code" as com.ibm.fhir.model.type.code.HTTPVerb.ValueSet [[HTTPVerb.ValueSet.html]] {
        {static} +GET
        {static} +HEAD
        {static} +POST
        {static} +PUT
        {static} +DELETE
        {static} +PATCH
        +value(): String
        {static} +from(String): ValueSet
    }

    class "<size:14>HTTPVerb\n<size:10>com.ibm.fhir.model.type.code" as com.ibm.fhir.model.type.code.HTTPVerb [[HTTPVerb.html]]

    com.ibm.fhir.model.type.code.HTTPVerb +- - com.ibm.fhir.model.type.code.HTTPVerb.ValueSet

    center footer UMLDoclet 2.0.7, PlantUML 1.2019.12
@enduml

PlantUML version 1.2019.12(Sun Nov 03 10:24:54 UTC 2019)
(APACHE source distribution)
Java Runtime: OpenJDK Runtime Environment
JVM: OpenJDK 64-Bit Server VM
Java Version: 11.0.9.1+1
Operating System: Linux
Default Encoding: UTF-8
Language: en
Country: null
--></g></svg>