<?xml version="1.0" encoding="UTF-8" standalone="no"?><svg xmlns="http://www.w3.org/2000/svg" xmlns:xlink="http://www.w3.org/1999/xlink" contentScriptType="application/ecmascript" contentStyleType="text/css" height="250px" preserveAspectRatio="none" style="width:372px;height:250px;" version="1.1" viewBox="0 0 372 250" width="372px" zoomAndPan="magnify"><defs><filter height="300%" id="fanj4gnx70shb" width="300%" x="-1" y="-1"><feGaussianBlur result="blurOut" stdDeviation="2.0"/><feColorMatrix in="blurOut" result="blurOut2" type="matrix" values="0 0 0 0 0 0 0 0 0 0 0 0 0 0 0 0 0 0 .4 0"/><feOffset dx="4.0" dy="4.0" in="blurOut2" result="blurOut3"/><feBlend in="SourceGraphic" in2="blurOut3" mode="normal"/></filter></defs><g><!--MD5=[5be049ed46e58ec6f431553776e93168]
class com.ibm.fhir.database.utils.model.ObjectGroup--><a href="ObjectGroup.html" target="_top" title="ObjectGroup.html" xlink:actuate="onRequest" xlink:href="ObjectGroup.html" xlink:show="new" xlink:title="ObjectGroup.html" xlink:type="simple"><rect fill="#FEFECE" filter="url(#fanj4gnx70shb)" height="111.041" id="com.ibm.fhir.database.utils.model.ObjectGroup" style="stroke: #A80036; stroke-width: 1.5;" width="355" x="6" y="106"/><ellipse cx="96.25" cy="125.1328" fill="#ADD1B2" rx="11" ry="11" style="stroke: #A80036; stroke-width: 1.0;"/><path d="M98.7231,131.2759 Q98.1421,131.5747 97.5029,131.7241 Q96.8638,131.8735 96.1582,131.8735 Q93.6514,131.8735 92.3315,130.2217 Q91.0117,128.5698 91.0117,125.4487 Q91.0117,122.3193 92.3315,120.6675 Q93.6514,119.0156 96.1582,119.0156 Q96.8638,119.0156 97.5112,119.165 Q98.1587,119.3145 98.7231,119.6133 L98.7231,122.3359 Q98.0923,121.7549 97.4988,121.4851 Q96.9053,121.2153 96.2744,121.2153 Q94.9297,121.2153 94.2449,122.282 Q93.5601,123.3486 93.5601,125.4487 Q93.5601,127.5405 94.2449,128.6072 Q94.9297,129.6738 96.2744,129.6738 Q96.9053,129.6738 97.4988,129.4041 Q98.0923,129.1343 98.7231,128.5532 Z "/><text fill="#000000" font-family="sans-serif" font-size="14" lengthAdjust="spacingAndGlyphs" textLength="87" x="156.25" y="124.5352">ObjectGroup</text><text fill="#000000" font-family="sans-serif" font-size="10" lengthAdjust="spacingAndGlyphs" textLength="166" x="116.75" y="137.1563">com.ibm.fhir.database.utils.model</text><line style="stroke: #A80036; stroke-width: 1.5;" x1="7" x2="360" y1="144.2656" y2="144.2656"/><ellipse cx="17" cy="155.2656" fill="#84BE84" rx="3" ry="3" style="stroke: #038048; stroke-width: 1.0;"/><text fill="#000000" font-family="sans-serif" font-size="11" lengthAdjust="spacingAndGlyphs" textLength="312" x="26" y="158.9004">ObjectGroup(String, String, Collection&lt;IDatabaseObject&gt;)</text><ellipse cx="17" cy="168.2207" fill="#84BE84" rx="3" ry="3" style="stroke: #038048; stroke-width: 1.0;"/><text fill="#000000" font-family="sans-serif" font-size="11" lengthAdjust="spacingAndGlyphs" textLength="329" x="26" y="171.8555">applyVersion(IDatabaseAdapter, IVersionHistoryService): void</text><ellipse cx="17" cy="181.1758" fill="#84BE84" rx="3" ry="3" style="stroke: #038048; stroke-width: 1.0;"/><text fill="#000000" font-family="sans-serif" font-size="11" lengthAdjust="spacingAndGlyphs" textLength="158" x="26" y="184.8105">drop(IDatabaseAdapter): void</text><ellipse cx="17" cy="194.1309" fill="#84BE84" rx="3" ry="3" style="stroke: #038048; stroke-width: 1.0;"/><text fill="#000000" font-family="sans-serif" font-size="11" lengthAdjust="spacingAndGlyphs" textLength="237" x="26" y="197.7656">grant(IDatabaseAdapter, String, String): void</text><ellipse cx="17" cy="207.0859" fill="#84BE84" rx="3" ry="3" style="stroke: #038048; stroke-width: 1.0;"/><text fill="#000000" font-family="sans-serif" font-size="11" lengthAdjust="spacingAndGlyphs" textLength="161" x="26" y="210.7207">apply(IDatabaseAdapter): void</text></a><!--MD5=[37ad94e878ea8ca2b27676e9b95b5c74]
class com.ibm.fhir.database.utils.model.BaseObject--><a href="BaseObject.html" target="_top" title="BaseObject.html" xlink:actuate="onRequest" xlink:href="BaseObject.html" xlink:show="new" xlink:title="BaseObject.html" xlink:type="simple"><rect fill="#FEFECE" filter="url(#fanj4gnx70shb)" height="38.2656" id="com.ibm.fhir.database.utils.model.BaseObject" style="stroke: #A80036; stroke-width: 1.5;" width="198" x="84.5" y="8"/><ellipse cx="99.5" cy="27.1328" fill="#A9DCDF" rx="11" ry="11" style="stroke: #A80036; stroke-width: 1.0;"/><path d="M99.6133,22.731 L98.4595,27.8027 L100.7754,27.8027 Z M98.1191,20.4897 L101.1157,20.4897 L104.4609,32.8828 L102.0122,32.8828 L101.2485,29.8198 L97.9697,29.8198 L97.2227,32.8828 L94.7739,32.8828 Z "/><text fill="#000000" font-family="sans-serif" font-size="14" font-style="italic" lengthAdjust="spacingAndGlyphs" textLength="75" x="159" y="26.5352">BaseObject</text><text fill="#000000" font-family="sans-serif" font-size="10" font-style="italic" lengthAdjust="spacingAndGlyphs" textLength="166" x="113.5" y="39.1563">com.ibm.fhir.database.utils.model</text></a><!--MD5=[e7b318446200e63e5484964664699731]
reverse link com.ibm.fhir.database.utils.model.BaseObject to com.ibm.fhir.database.utils.model.ObjectGroup--><path d="M183.5,66.4143 C183.5,78.7777 183.5,92.6652 183.5,105.9276 " fill="none" id="com.ibm.fhir.database.utils.model.BaseObject&lt;-com.ibm.fhir.database.utils.model.ObjectGroup" style="stroke: #A80036; stroke-width: 1.0;"/><polygon fill="none" points="176.5001,66.2706,183.5,46.2706,190.5001,66.2705,176.5001,66.2706" style="stroke: #A80036; stroke-width: 1.0;"/><text fill="#888888" font-family="sans-serif" font-size="10" lengthAdjust="spacingAndGlyphs" textLength="182" x="98.5" y="236.668">UMLDoclet 2.0.7, PlantUML 1.2019.12</text><!--MD5=[02e4fc0227d32cc816b2ac80df801737]
@startuml
    set namespaceSeparator none
    hide empty fields
    hide empty methods

    class "<size:14>ObjectGroup\n<size:10>com.ibm.fhir.database.utils.model" as com.ibm.fhir.database.utils.model.ObjectGroup [[ObjectGroup.html]] {
        +ObjectGroup(String, String, Collection<IDatabaseObject>)
        +applyVersion(IDatabaseAdapter, IVersionHistoryService): void
        +drop(IDatabaseAdapter): void
        +grant(IDatabaseAdapter, String, String): void
        +apply(IDatabaseAdapter): void
    }

    abstract class "<size:14>BaseObject\n<size:10>com.ibm.fhir.database.utils.model" as com.ibm.fhir.database.utils.model.BaseObject [[BaseObject.html]]

    com.ibm.fhir.database.utils.model.BaseObject <|- - com.ibm.fhir.database.utils.model.ObjectGroup

    center footer UMLDoclet 2.0.7, PlantUML 1.2019.12
@enduml

PlantUML version 1.2019.12(Sun Nov 03 05:24:54 EST 2019)
(APACHE source distribution)
Java Runtime: OpenJDK Runtime Environment
JVM: OpenJDK 64-Bit Server VM
Java Version: 11.0.4+11
Operating System: Mac OS X
Default Encoding: UTF-8
Language: en
Country: US
--></g></svg>