<?xml version="1.0" encoding="UTF-8" standalone="no"?><svg xmlns="http://www.w3.org/2000/svg" xmlns:xlink="http://www.w3.org/1999/xlink" contentScriptType="application/ecmascript" contentStyleType="text/css" height="383px" preserveAspectRatio="none" style="width:567px;height:383px;" version="1.1" viewBox="0 0 567 383" width="567px" zoomAndPan="magnify"><defs><filter height="300%" id="f1wrfjsjenlfxm" width="300%" x="-1" y="-1"><feGaussianBlur result="blurOut" stdDeviation="2.0"/><feColorMatrix in="blurOut" result="blurOut2" type="matrix" values="0 0 0 0 0 0 0 0 0 0 0 0 0 0 0 0 0 0 .4 0"/><feOffset dx="4.0" dy="4.0" in="blurOut2" result="blurOut3"/><feBlend in="SourceGraphic" in2="blurOut3" mode="normal"/></filter></defs><g><!--MD5=[981ee6e3f0ad0e97bdfe2c10ec37d1cc]
cluster com.ibm.fhir.audit.mapper.impl--><polygon fill="#FFFFFF" filter="url(#f1wrfjsjenlfxm)" points="22,185,272,185,279,207.2969,545,207.2969,545,335,22,335,22,185" style="stroke: #000000; stroke-width: 1.5;"/><line style="stroke: #000000; stroke-width: 1.5;" x1="22" x2="279" y1="207.2969" y2="207.2969"/><text fill="#000000" font-family="sans-serif" font-size="14" font-weight="bold" lengthAdjust="spacingAndGlyphs" textLength="244" x="26" y="199.9951">com.ibm.fhir.audit.mapper.impl</text><!--MD5=[a42240a05ced55df1c576f805ae424dd]
cluster com.ibm.fhir.audit.mapper--><polygon fill="#FFFFFF" filter="url(#f1wrfjsjenlfxm)" points="192,24,405,24,412,46.2969,415,46.2969,415,161,192,161,192,24" style="stroke: #000000; stroke-width: 1.5;"/><line style="stroke: #000000; stroke-width: 1.5;" x1="192" x2="412" y1="46.2969" y2="46.2969"/><text fill="#000000" font-family="sans-serif" font-size="14" font-weight="bold" lengthAdjust="spacingAndGlyphs" textLength="207" x="196" y="38.9951">com.ibm.fhir.audit.mapper</text><!--MD5=[e1970ce0a1de2ecd09f62a2ededccf94]
class com.ibm.fhir.audit.mapper.impl.AuditEventMapper--><a href="AuditEventMapper.html" target="_top" title="AuditEventMapper.html" xlink:actuate="onRequest" xlink:href="AuditEventMapper.html" xlink:show="new" xlink:title="AuditEventMapper.html" xlink:type="simple"><rect fill="#FEFECE" filter="url(#f1wrfjsjenlfxm)" height="86.4141" id="com.ibm.fhir.audit.mapper.impl.AuditEventMapper" style="stroke: #A80036; stroke-width: 1.5;" width="186" x="343" y="226.5"/><ellipse cx="376" cy="242.5" fill="#ADD1B2" rx="11" ry="11" style="stroke: #A80036; stroke-width: 1.0;"/><path d="M378.9688,248.1406 Q378.3906,248.4375 377.75,248.5781 Q377.1094,248.7344 376.4063,248.7344 Q373.9063,248.7344 372.5781,247.0938 Q371.2656,245.4375 371.2656,242.3125 Q371.2656,239.1875 372.5781,237.5313 Q373.9063,235.875 376.4063,235.875 Q377.1094,235.875 377.75,236.0313 Q378.4063,236.1875 378.9688,236.4844 L378.9688,239.2031 Q378.3438,238.625 377.75,238.3594 Q377.1563,238.0781 376.5313,238.0781 Q375.1875,238.0781 374.5,239.1563 Q373.8125,240.2188 373.8125,242.3125 Q373.8125,244.4063 374.5,245.4844 Q375.1875,246.5469 376.5313,246.5469 Q377.1563,246.5469 377.75,246.2813 Q378.3438,246 378.9688,245.4219 L378.9688,248.1406 Z "/><text fill="#000000" font-family="sans-serif" font-size="12" lengthAdjust="spacingAndGlyphs" textLength="114" x="394" y="246.6543">AuditEventMapper</text><line style="stroke: #A80036; stroke-width: 1.5;" x1="344" x2="528" y1="258.5" y2="258.5"/><line style="stroke: #A80036; stroke-width: 1.5;" x1="344" x2="528" y1="266.5" y2="266.5"/><ellipse cx="354" cy="277.5" fill="#84BE84" rx="3" ry="3" style="stroke: #038048; stroke-width: 1.0;"/><text fill="#000000" font-family="sans-serif" font-size="11" lengthAdjust="spacingAndGlyphs" textLength="158" x="363" y="280.7104">init(PropertyGroup): Mapper</text><ellipse cx="354" cy="290.3047" fill="#84BE84" rx="3" ry="3" style="stroke: #038048; stroke-width: 1.0;"/><text fill="#000000" font-family="sans-serif" font-size="11" lengthAdjust="spacingAndGlyphs" textLength="160" x="363" y="293.5151">map(AuditLogEntry): Mapper</text><ellipse cx="354" cy="303.1094" fill="#84BE84" rx="3" ry="3" style="stroke: #038048; stroke-width: 1.0;"/><text fill="#000000" font-family="sans-serif" font-size="11" lengthAdjust="spacingAndGlyphs" textLength="97" x="363" y="306.3198">serialize(): String</text></a><!--MD5=[14965d628181b0ab5e87dffde5a3d7c1]
class com.ibm.fhir.audit.mapper.impl.CADFMapper--><a href="CADFMapper.html" target="_top" title="CADFMapper.html" xlink:actuate="onRequest" xlink:href="CADFMapper.html" xlink:show="new" xlink:title="CADFMapper.html" xlink:type="simple"><rect fill="#FEFECE" filter="url(#f1wrfjsjenlfxm)" height="99.2188" id="com.ibm.fhir.audit.mapper.impl.CADFMapper" style="stroke: #A80036; stroke-width: 1.5;" width="269" x="38.5" y="220"/><ellipse cx="129.25" cy="236" fill="#ADD1B2" rx="11" ry="11" style="stroke: #A80036; stroke-width: 1.0;"/><path d="M132.2188,241.6406 Q131.6406,241.9375 131,242.0781 Q130.3594,242.2344 129.6563,242.2344 Q127.1563,242.2344 125.8281,240.5938 Q124.5156,238.9375 124.5156,235.8125 Q124.5156,232.6875 125.8281,231.0313 Q127.1563,229.375 129.6563,229.375 Q130.3594,229.375 131,229.5313 Q131.6563,229.6875 132.2188,229.9844 L132.2188,232.7031 Q131.5938,232.125 131,231.8594 Q130.4063,231.5781 129.7813,231.5781 Q128.4375,231.5781 127.75,232.6563 Q127.0625,233.7188 127.0625,235.8125 Q127.0625,237.9063 127.75,238.9844 Q128.4375,240.0469 129.7813,240.0469 Q130.4063,240.0469 131,239.7813 Q131.5938,239.5 132.2188,238.9219 L132.2188,241.6406 Z "/><text fill="#000000" font-family="sans-serif" font-size="12" lengthAdjust="spacingAndGlyphs" textLength="79" x="149.75" y="240.1543">CADFMapper</text><line style="stroke: #A80036; stroke-width: 1.5;" x1="39.5" x2="306.5" y1="252" y2="252"/><line style="stroke: #A80036; stroke-width: 1.5;" x1="39.5" x2="306.5" y1="260" y2="260"/><ellipse cx="49.5" cy="271" fill="#84BE84" rx="3" ry="3" style="stroke: #038048; stroke-width: 1.0;"/><text fill="#000000" font-family="sans-serif" font-size="11" lengthAdjust="spacingAndGlyphs" textLength="158" x="58.5" y="274.2104">init(PropertyGroup): Mapper</text><ellipse cx="49.5" cy="283.8047" fill="#84BE84" rx="3" ry="3" style="stroke: #038048; stroke-width: 1.0;"/><text fill="#000000" font-family="sans-serif" font-size="11" lengthAdjust="spacingAndGlyphs" textLength="160" x="58.5" y="287.0151">map(AuditLogEntry): Mapper</text><ellipse cx="49.5" cy="296.6094" fill="#84BE84" rx="3" ry="3" style="stroke: #038048; stroke-width: 1.0;"/><text fill="#000000" font-family="sans-serif" font-size="11" lengthAdjust="spacingAndGlyphs" textLength="97" x="58.5" y="299.8198">serialize(): String</text><ellipse cx="49.5" cy="309.4141" fill="#84BE84" rx="3" ry="3" style="stroke: #038048; stroke-width: 1.0;"/><text fill="#000000" font-family="sans-serif" font-size="11" lengthAdjust="spacingAndGlyphs" textLength="243" x="58.5" y="312.6245">createCadfEvent(AuditLogEntry): CadfEvent</text></a><!--MD5=[52f3ddc1223de553c802e8d78620140c]
class com.ibm.fhir.audit.mapper.Mapper--><a href="../Mapper.html" target="_top" title="../Mapper.html" xlink:actuate="onRequest" xlink:href="../Mapper.html" xlink:show="new" xlink:title="../Mapper.html" xlink:type="simple"><rect fill="#FEFECE" filter="url(#f1wrfjsjenlfxm)" height="86.4141" id="com.ibm.fhir.audit.mapper.Mapper" style="stroke: #A80036; stroke-width: 1.5;" width="188" x="209" y="59"/><ellipse cx="275.25" cy="75" fill="#B4A7E5" rx="11" ry="11" style="stroke: #A80036; stroke-width: 1.0;"/><path d="M271.1719,70.7656 L271.1719,68.6094 L278.5625,68.6094 L278.5625,70.7656 L276.0938,70.7656 L276.0938,78.8438 L278.5625,78.8438 L278.5625,81 L271.1719,81 L271.1719,78.8438 L273.6406,78.8438 L273.6406,70.7656 L271.1719,70.7656 Z "/><text fill="#000000" font-family="sans-serif" font-size="12" font-style="italic" lengthAdjust="spacingAndGlyphs" textLength="47" x="295.75" y="79.1543">Mapper</text><line style="stroke: #A80036; stroke-width: 1.5;" x1="210" x2="396" y1="91" y2="91"/><line style="stroke: #A80036; stroke-width: 1.5;" x1="210" x2="396" y1="99" y2="99"/><ellipse cx="220" cy="110" fill="#84BE84" rx="3" ry="3" style="stroke: #038048; stroke-width: 1.0;"/><text fill="#000000" font-family="sans-serif" font-size="11" font-style="italic" lengthAdjust="spacingAndGlyphs" textLength="159" x="229" y="113.2104">init(PropertyGroup): Mapper</text><ellipse cx="220" cy="122.8047" fill="#84BE84" rx="3" ry="3" style="stroke: #038048; stroke-width: 1.0;"/><text fill="#000000" font-family="sans-serif" font-size="11" font-style="italic" lengthAdjust="spacingAndGlyphs" textLength="162" x="229" y="126.0151">map(AuditLogEntry): Mapper</text><ellipse cx="220" cy="135.6094" fill="#84BE84" rx="3" ry="3" style="stroke: #038048; stroke-width: 1.0;"/><text fill="#000000" font-family="sans-serif" font-size="11" font-style="italic" lengthAdjust="spacingAndGlyphs" textLength="96" x="229" y="138.8198">serialize(): String</text></a><!--MD5=[6ae3740784bd2eee112c6a294c673026]
reverse link com.ibm.fhir.audit.mapper.Mapper to com.ibm.fhir.audit.mapper.impl.AuditEventMapper--><path d="M349.66,161.06 C366.95,182.58 386.22,206.55 402.16,226.39 " fill="none" id="com.ibm.fhir.audit.mapper.Mapper&lt;-com.ibm.fhir.audit.mapper.impl.AuditEventMapper" style="stroke: #A80036; stroke-width: 1.0; stroke-dasharray: 7.0,7.0;"/><polygon fill="none" points="343.98,165.17,336.91,145.19,354.89,156.4,343.98,165.17" style="stroke: #A80036; stroke-width: 1.0;"/><!--MD5=[c1c10f30384723b7d868aab4fd2a22c0]
reverse link com.ibm.fhir.audit.mapper.Mapper to com.ibm.fhir.audit.mapper.impl.CADFMapper--><path d="M257.35,161.12 C242.25,180.34 225.62,201.51 211.15,219.94 " fill="none" id="com.ibm.fhir.audit.mapper.Mapper&lt;-com.ibm.fhir.audit.mapper.impl.CADFMapper" style="stroke: #A80036; stroke-width: 1.0; stroke-dasharray: 7.0,7.0;"/><polygon fill="none" points="252,156.59,269.86,145.19,263.01,165.24,252,156.59" style="stroke: #A80036; stroke-width: 1.0;"/><text fill="#888888" font-family="sans-serif" font-size="10" lengthAdjust="spacingAndGlyphs" textLength="186" x="196.5" y="370.2822">UMLDoclet 2.0.7, PlantUML 1.2019.12</text><!--MD5=[80efa357e0bd727c0ad7818850004380]
@startuml
    namespace com.ibm.fhir.audit.mapper.impl {

        class AuditEventMapper [[AuditEventMapper.html]] {
            +init(PropertyGroup): Mapper
            +map(AuditLogEntry): Mapper
            +serialize(): String
        }

        class CADFMapper [[CADFMapper.html]] {
            +init(PropertyGroup): Mapper
            +map(AuditLogEntry): Mapper
            +serialize(): String
            +createCadfEvent(AuditLogEntry): CadfEvent
        }

        com.ibm.fhir.audit.mapper.Mapper <|.. AuditEventMapper
        com.ibm.fhir.audit.mapper.Mapper <|.. CADFMapper
    }

    namespace com.ibm.fhir.audit.mapper {
        interface Mapper [[../Mapper.html]] {
            {abstract} +init(PropertyGroup): Mapper
            {abstract} +map(AuditLogEntry): Mapper
            {abstract} +serialize(): String
        }
    }

    center footer UMLDoclet 2.0.7, PlantUML 1.2019.12
@enduml

PlantUML version 1.2019.12(Sun Nov 03 10:24:54 UTC 2019)
(APACHE source distribution)
Java Runtime: OpenJDK Runtime Environment
JVM: OpenJDK 64-Bit Server VM
Java Version: 11.0.10+9
Operating System: Linux
Default Encoding: UTF-8
Language: en
Country: null
--></g></svg>