<?xml version="1.0" encoding="UTF-8" standalone="no"?><svg xmlns="http://www.w3.org/2000/svg" xmlns:xlink="http://www.w3.org/1999/xlink" contentScriptType="application/ecmascript" contentStyleType="text/css" height="434px" preserveAspectRatio="none" style="width:803px;height:434px;" version="1.1" viewBox="0 0 803 434" width="803px" zoomAndPan="magnify"><defs><filter height="300%" id="fan3qobjg9rre" width="300%" x="-1" y="-1"><feGaussianBlur result="blurOut" stdDeviation="2.0"/><feColorMatrix in="blurOut" result="blurOut2" type="matrix" values="0 0 0 0 0 0 0 0 0 0 0 0 0 0 0 0 0 0 .4 0"/><feOffset dx="4.0" dy="4.0" in="blurOut2" result="blurOut3"/><feBlend in="SourceGraphic" in2="blurOut3" mode="normal"/></filter></defs><g><!--MD5=[3c43c69ff576de48cb85fb8c1b86c52f]
cluster com.ibm.fhir.task.core.impl--><polygon fill="#FFFFFF" filter="url(#fan3qobjg9rre)" points="22,185,242,185,249,207.2969,781,207.2969,781,386,22,386,22,185" style="stroke: #000000; stroke-width: 1.5;"/><line style="stroke: #000000; stroke-width: 1.5;" x1="22" x2="249" y1="207.2969" y2="207.2969"/><text fill="#000000" font-family="sans-serif" font-size="14" font-weight="bold" lengthAdjust="spacingAndGlyphs" textLength="214" x="26" y="199.9951">com.ibm.fhir.task.core.impl</text><!--MD5=[2a101627c71d02da225ea35f1e44cfcf]
cluster com.ibm.fhir.task.api--><polygon fill="#FFFFFF" filter="url(#fan3qobjg9rre)" points="39,24,209,24,216,46.2969,771,46.2969,771,161,39,161,39,24" style="stroke: #000000; stroke-width: 1.5;"/><line style="stroke: #000000; stroke-width: 1.5;" x1="39" x2="216" y1="46.2969" y2="46.2969"/><text fill="#000000" font-family="sans-serif" font-size="14" font-weight="bold" lengthAdjust="spacingAndGlyphs" textLength="164" x="43" y="38.9951">com.ibm.fhir.task.api</text><!--MD5=[cec6307e0da175739e529ccb7267fa34]
class com.ibm.fhir.task.core.impl.TaskManager--><a href="TaskManager.html" target="_top" title="TaskManager.html" xlink:actuate="onRequest" xlink:href="TaskManager.html" xlink:show="new" xlink:title="TaskManager.html" xlink:type="simple"><rect fill="#FEFECE" filter="url(#fan3qobjg9rre)" height="137.6328" id="com.ibm.fhir.task.core.impl.TaskManager" style="stroke: #A80036; stroke-width: 1.5;" width="405" x="359.5" y="226"/><ellipse cx="515.75" cy="242" fill="#ADD1B2" rx="11" ry="11" style="stroke: #A80036; stroke-width: 1.0;"/><path d="M518.7188,247.6406 Q518.1406,247.9375 517.5,248.0781 Q516.8594,248.2344 516.1563,248.2344 Q513.6563,248.2344 512.3281,246.5938 Q511.0156,244.9375 511.0156,241.8125 Q511.0156,238.6875 512.3281,237.0313 Q513.6563,235.375 516.1563,235.375 Q516.8594,235.375 517.5,235.5313 Q518.1563,235.6875 518.7188,235.9844 L518.7188,238.7031 Q518.0938,238.125 517.5,237.8594 Q516.9063,237.5781 516.2813,237.5781 Q514.9375,237.5781 514.25,238.6563 Q513.5625,239.7188 513.5625,241.8125 Q513.5625,243.9063 514.25,244.9844 Q514.9375,246.0469 516.2813,246.0469 Q516.9063,246.0469 517.5,245.7813 Q518.0938,245.5 518.7188,244.9219 L518.7188,247.6406 Z "/><text fill="#000000" font-family="sans-serif" font-size="12" lengthAdjust="spacingAndGlyphs" textLength="84" x="536.25" y="246.1543">TaskManager</text><line style="stroke: #A80036; stroke-width: 1.5;" x1="360.5" x2="763.5" y1="258" y2="258"/><line style="stroke: #A80036; stroke-width: 1.5;" x1="360.5" x2="763.5" y1="266" y2="266"/><ellipse cx="370.5" cy="277" fill="#84BE84" rx="3" ry="3" style="stroke: #038048; stroke-width: 1.0;"/><text fill="#000000" font-family="sans-serif" font-size="11" lengthAdjust="spacingAndGlyphs" textLength="175" x="379.5" y="280.2104">TaskManager(ExecutorService)</text><ellipse cx="370.5" cy="289.8047" fill="#84BE84" rx="3" ry="3" style="stroke: #038048; stroke-width: 1.0;"/><text fill="#000000" font-family="sans-serif" font-size="11" lengthAdjust="spacingAndGlyphs" textLength="140" x="379.5" y="293.0151">submit(TaskGroup): void</text><ellipse cx="370.5" cy="302.6094" fill="#84BE84" rx="3" ry="3" style="stroke: #038048; stroke-width: 1.0;"/><text fill="#000000" font-family="sans-serif" font-size="11" lengthAdjust="spacingAndGlyphs" textLength="274" x="379.5" y="305.8198">getFailedTaskGroups(): Collection&lt;ITaskGroup&gt;</text><ellipse cx="370.5" cy="315.4141" fill="#84BE84" rx="3" ry="3" style="stroke: #038048; stroke-width: 1.0;"/><text fill="#000000" font-family="sans-serif" font-size="11" lengthAdjust="spacingAndGlyphs" textLength="379" x="379.5" y="318.6245">makeTaskGroup(String, Runnable, List&lt;ITaskGroup&gt;): ITaskGroup</text><ellipse cx="370.5" cy="328.2188" fill="#84BE84" rx="3" ry="3" style="stroke: #038048; stroke-width: 1.0;"/><text fill="#000000" font-family="sans-serif" font-size="11" lengthAdjust="spacingAndGlyphs" textLength="110" x="379.5" y="331.4292">startAndWait(): void</text><ellipse cx="370.5" cy="341.0234" fill="#84BE84" rx="3" ry="3" style="stroke: #038048; stroke-width: 1.0;"/><text fill="#000000" font-family="sans-serif" font-size="11" lengthAdjust="spacingAndGlyphs" textLength="179" x="379.5" y="344.2339">taskComplete(TaskGroup): void</text><ellipse cx="370.5" cy="353.8281" fill="#84BE84" rx="3" ry="3" style="stroke: #038048; stroke-width: 1.0;"/><text fill="#000000" font-family="sans-serif" font-size="11" lengthAdjust="spacingAndGlyphs" textLength="158" x="379.5" y="357.0386">taskFailed(TaskGroup): void</text></a><!--MD5=[90186e599f80d79e5bbf1ea61dbcb9a4]
class com.ibm.fhir.task.core.impl.TaskGroup--><a href="TaskGroup.html" target="_top" title="TaskGroup.html" xlink:actuate="onRequest" xlink:href="TaskGroup.html" xlink:show="new" xlink:title="TaskGroup.html" xlink:type="simple"><rect fill="#FEFECE" filter="url(#fan3qobjg9rre)" height="150.4375" id="com.ibm.fhir.task.core.impl.TaskGroup" style="stroke: #A80036; stroke-width: 1.5;" width="286" x="38" y="220"/><ellipse cx="143.25" cy="236" fill="#ADD1B2" rx="11" ry="11" style="stroke: #A80036; stroke-width: 1.0;"/><path d="M146.2188,241.6406 Q145.6406,241.9375 145,242.0781 Q144.3594,242.2344 143.6563,242.2344 Q141.1563,242.2344 139.8281,240.5938 Q138.5156,238.9375 138.5156,235.8125 Q138.5156,232.6875 139.8281,231.0313 Q141.1563,229.375 143.6563,229.375 Q144.3594,229.375 145,229.5313 Q145.6563,229.6875 146.2188,229.9844 L146.2188,232.7031 Q145.5938,232.125 145,231.8594 Q144.4063,231.5781 143.7813,231.5781 Q142.4375,231.5781 141.75,232.6563 Q141.0625,233.7188 141.0625,235.8125 Q141.0625,237.9063 141.75,238.9844 Q142.4375,240.0469 143.7813,240.0469 Q144.4063,240.0469 145,239.7813 Q145.5938,239.5 146.2188,238.9219 L146.2188,241.6406 Z "/><text fill="#000000" font-family="sans-serif" font-size="12" lengthAdjust="spacingAndGlyphs" textLength="67" x="163.75" y="240.1543">TaskGroup</text><line style="stroke: #A80036; stroke-width: 1.5;" x1="39" x2="323" y1="252" y2="252"/><line style="stroke: #A80036; stroke-width: 1.5;" x1="39" x2="323" y1="260" y2="260"/><ellipse cx="49" cy="271" fill="#84BE84" rx="3" ry="3" style="stroke: #038048; stroke-width: 1.0;"/><text fill="#000000" font-family="sans-serif" font-size="11" lengthAdjust="spacingAndGlyphs" textLength="248" x="58" y="274.2104">TaskGroup(String, TaskManager, Runnable)</text><ellipse cx="49" cy="283.8047" fill="#84BE84" rx="3" ry="3" style="stroke: #038048; stroke-width: 1.0;"/><text fill="#000000" font-family="sans-serif" font-size="11" lengthAdjust="spacingAndGlyphs" textLength="105" x="58" y="287.0151">getTaskId(): String</text><ellipse cx="49" cy="296.6094" fill="#84BE84" rx="3" ry="3" style="stroke: #038048; stroke-width: 1.0;"/><text fill="#000000" font-family="sans-serif" font-size="11" lengthAdjust="spacingAndGlyphs" textLength="215" x="58" y="299.8198">addDependsOnThis(ITaskGroup): void</text><ellipse cx="49" cy="309.4141" fill="#84BE84" rx="3" ry="3" style="stroke: #038048; stroke-width: 1.0;"/><text fill="#000000" font-family="sans-serif" font-size="11" lengthAdjust="spacingAndGlyphs" textLength="239" x="58" y="312.6245">taskCompletionCallback(ITaskGroup): void</text><ellipse cx="49" cy="322.2188" fill="#84BE84" rx="3" ry="3" style="stroke: #038048; stroke-width: 1.0;"/><text fill="#000000" font-family="sans-serif" font-size="11" lengthAdjust="spacingAndGlyphs" textLength="260" x="58" y="325.4292">addChildTaskGroups(List&lt;ITaskGroup&gt;): void</text><ellipse cx="49" cy="335.0234" fill="#84BE84" rx="3" ry="3" style="stroke: #038048; stroke-width: 1.0;"/><text fill="#000000" font-family="sans-serif" font-size="11" lengthAdjust="spacingAndGlyphs" textLength="176" x="58" y="338.2339">runTask(ExecutorService): void</text><ellipse cx="49" cy="347.8281" fill="#84BE84" rx="3" ry="3" style="stroke: #038048; stroke-width: 1.0;"/><text fill="#000000" font-family="sans-serif" font-size="11" lengthAdjust="spacingAndGlyphs" textLength="85" x="58" y="351.0386">runTask(): void</text><ellipse cx="49" cy="360.6328" fill="#84BE84" rx="3" ry="3" style="stroke: #038048; stroke-width: 1.0;"/><text fill="#000000" font-family="sans-serif" font-size="11" lengthAdjust="spacingAndGlyphs" textLength="162" x="58" y="363.8433">addParent(ITaskGroup): void</text></a><!--MD5=[2bf343ac0d264586bc1c50e716c73982]
class com.ibm.fhir.task.api.ITaskCollector--><a href="../../api/ITaskCollector.html" target="_top" title="../../api/ITaskCollector.html" xlink:actuate="onRequest" xlink:href="../../api/ITaskCollector.html" xlink:show="new" xlink:title="../../api/ITaskCollector.html" xlink:type="simple"><rect fill="#FEFECE" filter="url(#fan3qobjg9rre)" height="86.4141" id="com.ibm.fhir.task.api.ITaskCollector" style="stroke: #A80036; stroke-width: 1.5;" width="401" x="354.5" y="59"/><ellipse cx="507.25" cy="75" fill="#B4A7E5" rx="11" ry="11" style="stroke: #A80036; stroke-width: 1.0;"/><path d="M503.1719,70.7656 L503.1719,68.6094 L510.5625,68.6094 L510.5625,70.7656 L508.0938,70.7656 L508.0938,78.8438 L510.5625,78.8438 L510.5625,81 L503.1719,81 L503.1719,78.8438 L505.6406,78.8438 L505.6406,70.7656 L503.1719,70.7656 Z "/><text fill="#000000" font-family="sans-serif" font-size="12" font-style="italic" lengthAdjust="spacingAndGlyphs" textLength="87" x="527.75" y="79.1543">ITaskCollector</text><line style="stroke: #A80036; stroke-width: 1.5;" x1="355.5" x2="754.5" y1="91" y2="91"/><line style="stroke: #A80036; stroke-width: 1.5;" x1="355.5" x2="754.5" y1="99" y2="99"/><ellipse cx="365.5" cy="110" fill="#84BE84" rx="3" ry="3" style="stroke: #038048; stroke-width: 1.0;"/><text fill="#000000" font-family="sans-serif" font-size="11" font-style="italic" lengthAdjust="spacingAndGlyphs" textLength="375" x="374.5" y="113.2104">makeTaskGroup(String, Runnable, List&lt;ITaskGroup&gt;): ITaskGroup</text><ellipse cx="365.5" cy="122.8047" fill="#84BE84" rx="3" ry="3" style="stroke: #038048; stroke-width: 1.0;"/><text fill="#000000" font-family="sans-serif" font-size="11" font-style="italic" lengthAdjust="spacingAndGlyphs" textLength="113" x="374.5" y="126.0151">startAndWait(): void</text><ellipse cx="365.5" cy="135.6094" fill="#84BE84" rx="3" ry="3" style="stroke: #038048; stroke-width: 1.0;"/><text fill="#000000" font-family="sans-serif" font-size="11" font-style="italic" lengthAdjust="spacingAndGlyphs" textLength="271" x="374.5" y="138.8198">getFailedTaskGroups(): Collection&lt;ITaskGroup&gt;</text></a><!--MD5=[b68503855168366ca72145ec14fdbe7f]
class com.ibm.fhir.task.api.ITaskGroup--><a href="../../api/ITaskGroup.html" target="_top" title="../../api/ITaskGroup.html" xlink:actuate="onRequest" xlink:href="../../api/ITaskGroup.html" xlink:show="new" xlink:title="../../api/ITaskGroup.html" xlink:type="simple"><rect fill="#FEFECE" filter="url(#fan3qobjg9rre)" height="86.4141" id="com.ibm.fhir.task.api.ITaskGroup" style="stroke: #A80036; stroke-width: 1.5;" width="264" x="55" y="59"/><ellipse cx="147.75" cy="75" fill="#B4A7E5" rx="11" ry="11" style="stroke: #A80036; stroke-width: 1.0;"/><path d="M143.6719,70.7656 L143.6719,68.6094 L151.0625,68.6094 L151.0625,70.7656 L148.5938,70.7656 L148.5938,78.8438 L151.0625,78.8438 L151.0625,81 L143.6719,81 L143.6719,78.8438 L146.1406,78.8438 L146.1406,70.7656 L143.6719,70.7656 Z "/><text fill="#000000" font-family="sans-serif" font-size="12" font-style="italic" lengthAdjust="spacingAndGlyphs" textLength="70" x="168.25" y="79.1543">ITaskGroup</text><line style="stroke: #A80036; stroke-width: 1.5;" x1="56" x2="318" y1="91" y2="91"/><line style="stroke: #A80036; stroke-width: 1.5;" x1="56" x2="318" y1="99" y2="99"/><ellipse cx="66" cy="110" fill="#84BE84" rx="3" ry="3" style="stroke: #038048; stroke-width: 1.0;"/><text fill="#000000" font-family="sans-serif" font-size="11" font-style="italic" lengthAdjust="spacingAndGlyphs" textLength="103" x="75" y="113.2104">getTaskId(): String</text><ellipse cx="66" cy="122.8047" fill="#84BE84" rx="3" ry="3" style="stroke: #038048; stroke-width: 1.0;"/><text fill="#000000" font-family="sans-serif" font-size="11" font-style="italic" lengthAdjust="spacingAndGlyphs" textLength="162" x="75" y="126.0151">addParent(ITaskGroup): void</text><ellipse cx="66" cy="135.6094" fill="#84BE84" rx="3" ry="3" style="stroke: #038048; stroke-width: 1.0;"/><text fill="#000000" font-family="sans-serif" font-size="11" font-style="italic" lengthAdjust="spacingAndGlyphs" textLength="238" x="75" y="138.8198">taskCompletionCallback(ITaskGroup): void</text></a><!--MD5=[581a374cb042a0dc0d436338a81ea2e0]
reverse link com.ibm.fhir.task.api.ITaskCollector to com.ibm.fhir.task.core.impl.TaskManager--><path d="M557.29,165.39 C558,184.73 558.78,206.14 559.5,225.85 " fill="none" id="com.ibm.fhir.task.api.ITaskCollector&lt;-com.ibm.fhir.task.core.impl.TaskManager" style="stroke: #A80036; stroke-width: 1.0; stroke-dasharray: 7.0,7.0;"/><polygon fill="none" points="550.29,165.63,556.55,145.39,564.28,165.12,550.29,165.63" style="stroke: #A80036; stroke-width: 1.0;"/><!--MD5=[d824f274b02cca61f5714310156dc8b4]
reverse link com.ibm.fhir.task.api.ITaskGroup to com.ibm.fhir.task.core.impl.TaskGroup--><path d="M185.04,165.54 C184.49,182.88 183.89,201.87 183.33,219.81 " fill="none" id="com.ibm.fhir.task.api.ITaskGroup&lt;-com.ibm.fhir.task.core.impl.TaskGroup" style="stroke: #A80036; stroke-width: 1.0; stroke-dasharray: 7.0,7.0;"/><polygon fill="none" points="178.04,165.16,185.67,145.39,192.04,165.6,178.04,165.16" style="stroke: #A80036; stroke-width: 1.0;"/><text fill="#888888" font-family="sans-serif" font-size="10" lengthAdjust="spacingAndGlyphs" textLength="186" x="314.5" y="421.2822">UMLDoclet 2.0.7, PlantUML 1.2019.12</text><!--MD5=[3e5511234a5614f602a8d8626e3c3eb2]
@startuml
    namespace com.ibm.fhir.task.core.impl {

        class TaskManager [[TaskManager.html]] {
            +TaskManager(ExecutorService)
            +submit(TaskGroup): void
            +getFailedTaskGroups(): Collection<ITaskGroup>
            +makeTaskGroup(String, Runnable, List<ITaskGroup>): ITaskGroup
            +startAndWait(): void
            +taskComplete(TaskGroup): void
            +taskFailed(TaskGroup): void
        }

        class TaskGroup [[TaskGroup.html]] {
            +TaskGroup(String, TaskManager, Runnable)
            +getTaskId(): String
            +addDependsOnThis(ITaskGroup): void
            +taskCompletionCallback(ITaskGroup): void
            +addChildTaskGroups(List<ITaskGroup>): void
            +runTask(ExecutorService): void
            +runTask(): void
            +addParent(ITaskGroup): void
        }

        com.ibm.fhir.task.api.ITaskCollector <|.. TaskManager
        com.ibm.fhir.task.api.ITaskGroup <|.. TaskGroup
    }

    namespace com.ibm.fhir.task.api {
        interface ITaskCollector [[../../api/ITaskCollector.html]] {
            {abstract} +makeTaskGroup(String, Runnable, List<ITaskGroup>): ITaskGroup
            {abstract} +startAndWait(): void
            {abstract} +getFailedTaskGroups(): Collection<ITaskGroup>
        }
        interface ITaskGroup [[../../api/ITaskGroup.html]] {
            {abstract} +getTaskId(): String
            {abstract} +addParent(ITaskGroup): void
            {abstract} +taskCompletionCallback(ITaskGroup): void
        }
    }

    center footer UMLDoclet 2.0.7, PlantUML 1.2019.12
@enduml

PlantUML version 1.2019.12(Sun Nov 03 10:24:54 UTC 2019)
(APACHE source distribution)
Java Runtime: OpenJDK Runtime Environment
JVM: OpenJDK 64-Bit Server VM
Java Version: 11.0.10+9
Operating System: Linux
Default Encoding: UTF-8
Language: en
Country: null
--></g></svg>