<?xml version="1.0" encoding="UTF-8" standalone="no"?><svg xmlns="http://www.w3.org/2000/svg" xmlns:xlink="http://www.w3.org/1999/xlink" contentScriptType="application/ecmascript" contentStyleType="text/css" height="333px" preserveAspectRatio="none" style="width:434px;height:333px;" version="1.1" viewBox="0 0 434 333" width="434px" zoomAndPan="magnify"><defs><filter height="300%" id="f17crpwb9a0q0d" width="300%" x="-1" y="-1"><feGaussianBlur result="blurOut" stdDeviation="2.0"/><feColorMatrix in="blurOut" result="blurOut2" type="matrix" values="0 0 0 0 0 0 0 0 0 0 0 0 0 0 0 0 0 0 .4 0"/><feOffset dx="4.0" dy="4.0" in="blurOut2" result="blurOut3"/><feBlend in="SourceGraphic" in2="blurOut3" mode="normal"/></filter></defs><g><!--MD5=[a63994acd9082da07b0f029d2e41a6d7]
class com.ibm.fhir.model.resource.ResearchStudy.Arm.Builder--><a href="ResearchStudy.Arm.Builder.html" target="_top" title="ResearchStudy.Arm.Builder.html" xlink:actuate="onRequest" xlink:href="ResearchStudy.Arm.Builder.html" xlink:show="new" xlink:title="ResearchStudy.Arm.Builder.html" xlink:type="simple"><rect fill="#FEFECE" filter="url(#f17crpwb9a0q0d)" height="173.9844" id="com.ibm.fhir.model.resource.ResearchStudy.Arm.Builder" style="stroke: #A80036; stroke-width: 1.5;" width="312" x="68.5" y="127"/><ellipse cx="126.25" cy="145.9688" fill="#ADD1B2" rx="11" ry="11" style="stroke: #A80036; stroke-width: 1.0;"/><path d="M129.2188,151.6094 Q128.6406,151.9063 128,152.0469 Q127.3594,152.2031 126.6563,152.2031 Q124.1563,152.2031 122.8281,150.5625 Q121.5156,148.9063 121.5156,145.7813 Q121.5156,142.6563 122.8281,141 Q124.1563,139.3438 126.6563,139.3438 Q127.3594,139.3438 128,139.5 Q128.6563,139.6563 129.2188,139.9531 L129.2188,142.6719 Q128.5938,142.0938 128,141.8281 Q127.4063,141.5469 126.7813,141.5469 Q125.4375,141.5469 124.75,142.625 Q124.0625,143.6875 124.0625,145.7813 Q124.0625,147.875 124.75,148.9531 Q125.4375,150.0156 126.7813,150.0156 Q127.4063,150.0156 128,149.75 Q128.5938,149.4688 129.2188,148.8906 L129.2188,151.6094 Z "/><text fill="#000000" font-family="sans-serif" font-size="14" lengthAdjust="spacingAndGlyphs" textLength="188" x="146.75" y="144.9951">ResearchStudy.Arm.Builder</text><text fill="#000000" font-family="sans-serif" font-size="10" lengthAdjust="spacingAndGlyphs" textLength="139" x="171.25" y="157.5791">com.ibm.fhir.model.resource</text><line style="stroke: #A80036; stroke-width: 1.5;" x1="69.5" x2="379.5" y1="164.9375" y2="164.9375"/><ellipse cx="79.5" cy="175.9375" fill="#84BE84" rx="3" ry="3" style="stroke: #038048; stroke-width: 1.0;"/><text fill="#000000" font-family="sans-serif" font-size="11" lengthAdjust="spacingAndGlyphs" textLength="100" x="88.5" y="179.1479">id(String): Builder</text><ellipse cx="79.5" cy="188.7422" fill="#84BE84" rx="3" ry="3" style="stroke: #038048; stroke-width: 1.0;"/><text fill="#000000" font-family="sans-serif" font-size="11" lengthAdjust="spacingAndGlyphs" textLength="178" x="88.5" y="191.9526">extension(Extension...): Builder</text><ellipse cx="79.5" cy="201.5469" fill="#84BE84" rx="3" ry="3" style="stroke: #038048; stroke-width: 1.0;"/><text fill="#000000" font-family="sans-serif" font-size="11" lengthAdjust="spacingAndGlyphs" textLength="239" x="88.5" y="204.7573">extension(Collection&lt;Extension&gt;): Builder</text><ellipse cx="79.5" cy="214.3516" fill="#84BE84" rx="3" ry="3" style="stroke: #038048; stroke-width: 1.0;"/><text fill="#000000" font-family="sans-serif" font-size="11" lengthAdjust="spacingAndGlyphs" textLength="225" x="88.5" y="217.562">modifierExtension(Extension...): Builder</text><ellipse cx="79.5" cy="227.1563" fill="#84BE84" rx="3" ry="3" style="stroke: #038048; stroke-width: 1.0;"/><text fill="#000000" font-family="sans-serif" font-size="11" lengthAdjust="spacingAndGlyphs" textLength="286" x="88.5" y="230.3667">modifierExtension(Collection&lt;Extension&gt;): Builder</text><ellipse cx="79.5" cy="239.9609" fill="#84BE84" rx="3" ry="3" style="stroke: #038048; stroke-width: 1.0;"/><text fill="#000000" font-family="sans-serif" font-size="11" lengthAdjust="spacingAndGlyphs" textLength="122" x="88.5" y="243.1714">name(String): Builder</text><ellipse cx="79.5" cy="252.7656" fill="#84BE84" rx="3" ry="3" style="stroke: #038048; stroke-width: 1.0;"/><text fill="#000000" font-family="sans-serif" font-size="11" lengthAdjust="spacingAndGlyphs" textLength="179" x="88.5" y="255.9761">type(CodeableConcept): Builder</text><ellipse cx="79.5" cy="265.5703" fill="#84BE84" rx="3" ry="3" style="stroke: #038048; stroke-width: 1.0;"/><text fill="#000000" font-family="sans-serif" font-size="11" lengthAdjust="spacingAndGlyphs" textLength="153" x="88.5" y="268.7808">description(String): Builder</text><ellipse cx="79.5" cy="278.375" fill="#84BE84" rx="3" ry="3" style="stroke: #038048; stroke-width: 1.0;"/><text fill="#000000" font-family="sans-serif" font-size="11" lengthAdjust="spacingAndGlyphs" textLength="66" x="88.5" y="281.5854">build(): Arm</text><polygon fill="#FFFF44" points="79.5,286.1797,83.5,290.1797,79.5,294.1797,75.5,290.1797" style="stroke: #B38D22; stroke-width: 1.0;"/><text fill="#000000" font-family="sans-serif" font-size="11" lengthAdjust="spacingAndGlyphs" textLength="106" x="88.5" y="294.3901">from(Arm): Builder</text></a><!--MD5=[b7b0ea86c8a299e1957933e33e561193]
class com.ibm.fhir.model.type.BackboneElement.Builder--><a href="../type/BackboneElement.Builder.html" target="_top" title="../type/BackboneElement.Builder.html" xlink:actuate="onRequest" xlink:href="../type/BackboneElement.Builder.html" xlink:show="new" xlink:title="../type/BackboneElement.Builder.html" xlink:type="simple"><rect fill="#FEFECE" filter="url(#f17crpwb9a0q0d)" height="58.7422" id="com.ibm.fhir.model.type.BackboneElement.Builder" style="stroke: #A80036; stroke-width: 1.5;" width="211" x="6" y="8"/><ellipse cx="21" cy="26.9688" fill="#A9DCDF" rx="11" ry="11" style="stroke: #A80036; stroke-width: 1.0;"/><path d="M21.1094,22.3125 L19.9531,27.3906 L22.2813,27.3906 L21.1094,22.3125 Z M19.625,20.0781 L22.6094,20.0781 L25.9688,32.4688 L23.5156,32.4688 L22.75,29.4063 L19.4688,29.4063 L18.7188,32.4688 L16.2813,32.4688 L19.625,20.0781 Z "/><text fill="#000000" font-family="sans-serif" font-size="14" font-style="italic" lengthAdjust="spacingAndGlyphs" textLength="179" x="35" y="25.9951">BackboneElement.Builder</text><text fill="#000000" font-family="sans-serif" font-size="10" font-style="italic" lengthAdjust="spacingAndGlyphs" textLength="119" x="65" y="38.5791">com.ibm.fhir.model.type</text><line style="stroke: #A80036; stroke-width: 1.5;" x1="7" x2="216" y1="45.9375" y2="45.9375"/><ellipse cx="17" cy="56.9375" fill="#84BE84" rx="3" ry="3" style="stroke: #038048; stroke-width: 1.0;"/><text fill="#000000" font-family="sans-serif" font-size="11" font-style="italic" lengthAdjust="spacingAndGlyphs" textLength="144" x="26" y="60.1479">build(): BackboneElement</text></a><!--MD5=[3ce67a9321a5ab36f185a605290a04b9]
class com.ibm.fhir.model.resource.ResearchStudy.Arm--><a href="ResearchStudy.Arm.html" target="_top" title="ResearchStudy.Arm.html" xlink:actuate="onRequest" xlink:href="ResearchStudy.Arm.html" xlink:show="new" xlink:title="ResearchStudy.Arm.html" xlink:type="simple"><rect fill="#FEFECE" filter="url(#f17crpwb9a0q0d)" height="37.9375" id="com.ibm.fhir.model.resource.ResearchStudy.Arm" style="stroke: #A80036; stroke-width: 1.5;" width="171" x="252" y="18.5"/><ellipse cx="267" cy="37.4688" fill="#ADD1B2" rx="11" ry="11" style="stroke: #A80036; stroke-width: 1.0;"/><path d="M269.9688,43.1094 Q269.3906,43.4063 268.75,43.5469 Q268.1094,43.7031 267.4063,43.7031 Q264.9063,43.7031 263.5781,42.0625 Q262.2656,40.4063 262.2656,37.2813 Q262.2656,34.1563 263.5781,32.5 Q264.9063,30.8438 267.4063,30.8438 Q268.1094,30.8438 268.75,31 Q269.4063,31.1563 269.9688,31.4531 L269.9688,34.1719 Q269.3438,33.5938 268.75,33.3281 Q268.1563,33.0469 267.5313,33.0469 Q266.1875,33.0469 265.5,34.125 Q264.8125,35.1875 264.8125,37.2813 Q264.8125,39.375 265.5,40.4531 Q266.1875,41.5156 267.5313,41.5156 Q268.1563,41.5156 268.75,41.25 Q269.3438,40.9688 269.9688,40.3906 L269.9688,43.1094 Z "/><text fill="#000000" font-family="sans-serif" font-size="14" lengthAdjust="spacingAndGlyphs" textLength="136" x="282.5" y="36.4951">ResearchStudy.Arm</text><text fill="#000000" font-family="sans-serif" font-size="10" lengthAdjust="spacingAndGlyphs" textLength="139" x="281" y="49.0791">com.ibm.fhir.model.resource</text></a><!--MD5=[78706d510d6bf9b08a8de8abd19e156c]
reverse link com.ibm.fhir.model.type.BackboneElement.Builder to com.ibm.fhir.model.resource.ResearchStudy.Arm.Builder--><path d="M141.2171,83.9165 C149.6884,97.1483 159.2048,112.0124 168.6951,126.8357 " fill="none" id="com.ibm.fhir.model.type.BackboneElement.Builder&lt;-com.ibm.fhir.model.resource.ResearchStudy.Arm.Builder" style="stroke: #A80036; stroke-width: 1.0;"/><polygon fill="none" points="135.3022,87.6602,130.4137,67.0421,147.0928,80.1115,135.3022,87.6602" style="stroke: #A80036; stroke-width: 1.0;"/><!--MD5=[60e8e7ed721031baa705ea7c1d45afe1]
reverse link com.ibm.fhir.model.resource.ResearchStudy.Arm to com.ibm.fhir.model.resource.ResearchStudy.Arm.Builder--><path d="M316.8847,69.7 C306.5522,85.8388 293.4881,106.2443 280.462,126.5903 " fill="none" id="com.ibm.fhir.model.resource.ResearchStudy.Arm&lt;-com.ibm.fhir.model.resource.ResearchStudy.Arm.Builder" style="stroke: #A80036; stroke-width: 1.0;"/><ellipse cx="320.8784" cy="63.4621" fill="#FFFFFF" rx="8" ry="8" style="stroke: #A80036; stroke-width: 1.0;"/><line style="stroke: #A80036; stroke-width: 1.0;" x1="316.5648" x2="325.1919" y1="70.1995" y2="56.7246"/><line style="stroke: #A80036; stroke-width: 1.0;" x1="314.1409" x2="327.6158" y1="59.1485" y2="67.7756"/><text fill="#888888" font-family="sans-serif" font-size="10" lengthAdjust="spacingAndGlyphs" textLength="186" x="127.5" y="320.2822">UMLDoclet 2.0.7, PlantUML 1.2019.12</text><!--MD5=[1e58d2b5f99b115dc78e5ebcc152b48d]
@startuml
    set namespaceSeparator none
    hide empty fields
    hide empty methods

    class "<size:14>ResearchStudy.Arm.Builder\n<size:10>com.ibm.fhir.model.resource" as com.ibm.fhir.model.resource.ResearchStudy.Arm.Builder [[ResearchStudy.Arm.Builder.html]] {
        +id(String): Builder
        +extension(Extension...): Builder
        +extension(Collection<Extension>): Builder
        +modifierExtension(Extension...): Builder
        +modifierExtension(Collection<Extension>): Builder
        +name(String): Builder
        +type(CodeableConcept): Builder
        +description(String): Builder
        +build(): Arm
        #from(Arm): Builder
    }

    abstract class "<size:14>BackboneElement.Builder\n<size:10>com.ibm.fhir.model.type" as com.ibm.fhir.model.type.BackboneElement.Builder [[../type/BackboneElement.Builder.html]] {
        {abstract} +build(): BackboneElement
    }
    class "<size:14>ResearchStudy.Arm\n<size:10>com.ibm.fhir.model.resource" as com.ibm.fhir.model.resource.ResearchStudy.Arm [[ResearchStudy.Arm.html]]

    com.ibm.fhir.model.type.BackboneElement.Builder <|- - com.ibm.fhir.model.resource.ResearchStudy.Arm.Builder
    com.ibm.fhir.model.resource.ResearchStudy.Arm +- - com.ibm.fhir.model.resource.ResearchStudy.Arm.Builder

    center footer UMLDoclet 2.0.7, PlantUML 1.2019.12
@enduml

PlantUML version 1.2019.12(Sun Nov 03 10:24:54 UTC 2019)
(APACHE source distribution)
Java Runtime: OpenJDK Runtime Environment
JVM: OpenJDK 64-Bit Server VM
Java Version: 11.0.7+10
Operating System: Linux
Default Encoding: UTF-8
Language: en
Country: null
--></g></svg>