<?xml version="1.0" encoding="UTF-8" standalone="no"?><svg xmlns="http://www.w3.org/2000/svg" xmlns:xlink="http://www.w3.org/1999/xlink" contentScriptType="application/ecmascript" contentStyleType="text/css" height="423px" preserveAspectRatio="none" style="width:519px;height:423px;" version="1.1" viewBox="0 0 519 423" width="519px" zoomAndPan="magnify"><defs><filter height="300%" id="fu2ilakjj2ype" width="300%" x="-1" y="-1"><feGaussianBlur result="blurOut" stdDeviation="2.0"/><feColorMatrix in="blurOut" result="blurOut2" type="matrix" values="0 0 0 0 0 0 0 0 0 0 0 0 0 0 0 0 0 0 .4 0"/><feOffset dx="4.0" dy="4.0" in="blurOut2" result="blurOut3"/><feBlend in="SourceGraphic" in2="blurOut3" mode="normal"/></filter></defs><g><!--MD5=[d1e91360d0be96bb7f2d2d5393bf6cf8]
class com.ibm.fhir.model.resource.StructureMap.Group.Rule.Target.Builder--><a href="StructureMap.Group.Rule.Target.Builder.html" target="_top" title="StructureMap.Group.Rule.Target.Builder.html" xlink:actuate="onRequest" xlink:href="StructureMap.Group.Rule.Target.Builder.html" xlink:show="new" xlink:title="StructureMap.Group.Rule.Target.Builder.html" xlink:type="simple"><rect fill="#FEFECE" filter="url(#fu2ilakjj2ype)" height="263.6172" id="com.ibm.fhir.model.resource.StructureMap.Group.Rule.Target.Builder" style="stroke: #A80036; stroke-width: 1.5;" width="365" x="63" y="127"/><ellipse cx="103.65" cy="145.9688" fill="#ADD1B2" rx="11" ry="11" style="stroke: #A80036; stroke-width: 1.0;"/><path d="M106.6188,151.6094 Q106.0406,151.9063 105.4,152.0469 Q104.7594,152.2031 104.0563,152.2031 Q101.5563,152.2031 100.2281,150.5625 Q98.9156,148.9063 98.9156,145.7813 Q98.9156,142.6563 100.2281,141 Q101.5563,139.3438 104.0563,139.3438 Q104.7594,139.3438 105.4,139.5 Q106.0563,139.6563 106.6188,139.9531 L106.6188,142.6719 Q105.9938,142.0938 105.4,141.8281 Q104.8063,141.5469 104.1813,141.5469 Q102.8375,141.5469 102.15,142.625 Q101.4625,143.6875 101.4625,145.7813 Q101.4625,147.875 102.15,148.9531 Q102.8375,150.0156 104.1813,150.0156 Q104.8063,150.0156 105.4,149.75 Q105.9938,149.4688 106.6188,148.8906 L106.6188,151.6094 Z "/><text fill="#000000" font-family="sans-serif" font-size="14" lengthAdjust="spacingAndGlyphs" textLength="276" x="123.35" y="144.9951">StructureMap.Group.Rule.Target.Builder</text><text fill="#000000" font-family="sans-serif" font-size="10" lengthAdjust="spacingAndGlyphs" textLength="139" x="191.85" y="157.5791">com.ibm.fhir.model.resource</text><line style="stroke: #A80036; stroke-width: 1.5;" x1="64" x2="427" y1="164.9375" y2="164.9375"/><ellipse cx="74" cy="175.9375" fill="#84BE84" rx="3" ry="3" style="stroke: #038048; stroke-width: 1.0;"/><text fill="#000000" font-family="sans-serif" font-size="11" lengthAdjust="spacingAndGlyphs" textLength="100" x="83" y="179.1479">id(String): Builder</text><ellipse cx="74" cy="188.7422" fill="#84BE84" rx="3" ry="3" style="stroke: #038048; stroke-width: 1.0;"/><text fill="#000000" font-family="sans-serif" font-size="11" lengthAdjust="spacingAndGlyphs" textLength="178" x="83" y="191.9526">extension(Extension...): Builder</text><ellipse cx="74" cy="201.5469" fill="#84BE84" rx="3" ry="3" style="stroke: #038048; stroke-width: 1.0;"/><text fill="#000000" font-family="sans-serif" font-size="11" lengthAdjust="spacingAndGlyphs" textLength="239" x="83" y="204.7573">extension(Collection&lt;Extension&gt;): Builder</text><ellipse cx="74" cy="214.3516" fill="#84BE84" rx="3" ry="3" style="stroke: #038048; stroke-width: 1.0;"/><text fill="#000000" font-family="sans-serif" font-size="11" lengthAdjust="spacingAndGlyphs" textLength="225" x="83" y="217.562">modifierExtension(Extension...): Builder</text><ellipse cx="74" cy="227.1563" fill="#84BE84" rx="3" ry="3" style="stroke: #038048; stroke-width: 1.0;"/><text fill="#000000" font-family="sans-serif" font-size="11" lengthAdjust="spacingAndGlyphs" textLength="286" x="83" y="230.3667">modifierExtension(Collection&lt;Extension&gt;): Builder</text><ellipse cx="74" cy="239.9609" fill="#84BE84" rx="3" ry="3" style="stroke: #038048; stroke-width: 1.0;"/><text fill="#000000" font-family="sans-serif" font-size="11" lengthAdjust="spacingAndGlyphs" textLength="107" x="83" y="243.1714">context(Id): Builder</text><ellipse cx="74" cy="252.7656" fill="#84BE84" rx="3" ry="3" style="stroke: #038048; stroke-width: 1.0;"/><text fill="#000000" font-family="sans-serif" font-size="11" lengthAdjust="spacingAndGlyphs" textLength="270" x="83" y="255.9761">contextType(StructureMapContextType): Builder</text><ellipse cx="74" cy="265.5703" fill="#84BE84" rx="3" ry="3" style="stroke: #038048; stroke-width: 1.0;"/><text fill="#000000" font-family="sans-serif" font-size="11" lengthAdjust="spacingAndGlyphs" textLength="136" x="83" y="268.7808">element(String): Builder</text><ellipse cx="74" cy="278.375" fill="#84BE84" rx="3" ry="3" style="stroke: #038048; stroke-width: 1.0;"/><text fill="#000000" font-family="sans-serif" font-size="11" lengthAdjust="spacingAndGlyphs" textLength="111" x="83" y="281.5854">variable(Id): Builder</text><ellipse cx="74" cy="291.1797" fill="#84BE84" rx="3" ry="3" style="stroke: #038048; stroke-width: 1.0;"/><text fill="#000000" font-family="sans-serif" font-size="11" lengthAdjust="spacingAndGlyphs" textLength="278" x="83" y="294.3901">listMode(StructureMapTargetListMode...): Builder</text><ellipse cx="74" cy="303.9844" fill="#84BE84" rx="3" ry="3" style="stroke: #038048; stroke-width: 1.0;"/><text fill="#000000" font-family="sans-serif" font-size="11" lengthAdjust="spacingAndGlyphs" textLength="339" x="83" y="307.1948">listMode(Collection&lt;StructureMapTargetListMode&gt;): Builder</text><ellipse cx="74" cy="316.7891" fill="#84BE84" rx="3" ry="3" style="stroke: #038048; stroke-width: 1.0;"/><text fill="#000000" font-family="sans-serif" font-size="11" lengthAdjust="spacingAndGlyphs" textLength="117" x="83" y="319.9995">listRuleId(Id): Builder</text><ellipse cx="74" cy="329.5938" fill="#84BE84" rx="3" ry="3" style="stroke: #038048; stroke-width: 1.0;"/><text fill="#000000" font-family="sans-serif" font-size="11" lengthAdjust="spacingAndGlyphs" textLength="249" x="83" y="332.8042">transform(StructureMapTransform): Builder</text><ellipse cx="74" cy="342.3984" fill="#84BE84" rx="3" ry="3" style="stroke: #038048; stroke-width: 1.0;"/><text fill="#000000" font-family="sans-serif" font-size="11" lengthAdjust="spacingAndGlyphs" textLength="188" x="83" y="345.6089">parameter(Parameter...): Builder</text><ellipse cx="74" cy="355.2031" fill="#84BE84" rx="3" ry="3" style="stroke: #038048; stroke-width: 1.0;"/><text fill="#000000" font-family="sans-serif" font-size="11" lengthAdjust="spacingAndGlyphs" textLength="249" x="83" y="358.4136">parameter(Collection&lt;Parameter&gt;): Builder</text><ellipse cx="74" cy="368.0078" fill="#84BE84" rx="3" ry="3" style="stroke: #038048; stroke-width: 1.0;"/><text fill="#000000" font-family="sans-serif" font-size="11" lengthAdjust="spacingAndGlyphs" textLength="80" x="83" y="371.2183">build(): Target</text><polygon fill="#FFFF44" points="74,375.8125,78,379.8125,74,383.8125,70,379.8125" style="stroke: #B38D22; stroke-width: 1.0;"/><text fill="#000000" font-family="sans-serif" font-size="11" lengthAdjust="spacingAndGlyphs" textLength="120" x="83" y="384.0229">from(Target): Builder</text></a><!--MD5=[b7b0ea86c8a299e1957933e33e561193]
class com.ibm.fhir.model.type.BackboneElement.Builder--><a href="../type/BackboneElement.Builder.html" target="_top" title="../type/BackboneElement.Builder.html" xlink:actuate="onRequest" xlink:href="../type/BackboneElement.Builder.html" xlink:show="new" xlink:title="../type/BackboneElement.Builder.html" xlink:type="simple"><rect fill="#FEFECE" filter="url(#fu2ilakjj2ype)" height="58.7422" id="com.ibm.fhir.model.type.BackboneElement.Builder" style="stroke: #A80036; stroke-width: 1.5;" width="211" x="6" y="8"/><ellipse cx="21" cy="26.9688" fill="#A9DCDF" rx="11" ry="11" style="stroke: #A80036; stroke-width: 1.0;"/><path d="M21.1094,22.3125 L19.9531,27.3906 L22.2813,27.3906 L21.1094,22.3125 Z M19.625,20.0781 L22.6094,20.0781 L25.9688,32.4688 L23.5156,32.4688 L22.75,29.4063 L19.4688,29.4063 L18.7188,32.4688 L16.2813,32.4688 L19.625,20.0781 Z "/><text fill="#000000" font-family="sans-serif" font-size="14" font-style="italic" lengthAdjust="spacingAndGlyphs" textLength="179" x="35" y="25.9951">BackboneElement.Builder</text><text fill="#000000" font-family="sans-serif" font-size="10" font-style="italic" lengthAdjust="spacingAndGlyphs" textLength="119" x="65" y="38.5791">com.ibm.fhir.model.type</text><line style="stroke: #A80036; stroke-width: 1.5;" x1="7" x2="216" y1="45.9375" y2="45.9375"/><ellipse cx="17" cy="56.9375" fill="#84BE84" rx="3" ry="3" style="stroke: #038048; stroke-width: 1.0;"/><text fill="#000000" font-family="sans-serif" font-size="11" font-style="italic" lengthAdjust="spacingAndGlyphs" textLength="144" x="26" y="60.1479">build(): BackboneElement</text></a><!--MD5=[733552e28b1e7bb860341dcba1cccb18]
class com.ibm.fhir.model.resource.StructureMap.Group.Rule.Target--><a href="StructureMap.Group.Rule.Target.html" target="_top" title="StructureMap.Group.Rule.Target.html" xlink:actuate="onRequest" xlink:href="StructureMap.Group.Rule.Target.html" xlink:show="new" xlink:title="StructureMap.Group.Rule.Target.html" xlink:type="simple"><rect fill="#FEFECE" filter="url(#fu2ilakjj2ype)" height="37.9375" id="com.ibm.fhir.model.resource.StructureMap.Group.Rule.Target" style="stroke: #A80036; stroke-width: 1.5;" width="256" x="252.5" y="18.5"/><ellipse cx="267.5" cy="37.4688" fill="#ADD1B2" rx="11" ry="11" style="stroke: #A80036; stroke-width: 1.0;"/><path d="M270.4688,43.1094 Q269.8906,43.4063 269.25,43.5469 Q268.6094,43.7031 267.9063,43.7031 Q265.4063,43.7031 264.0781,42.0625 Q262.7656,40.4063 262.7656,37.2813 Q262.7656,34.1563 264.0781,32.5 Q265.4063,30.8438 267.9063,30.8438 Q268.6094,30.8438 269.25,31 Q269.9063,31.1563 270.4688,31.4531 L270.4688,34.1719 Q269.8438,33.5938 269.25,33.3281 Q268.6563,33.0469 268.0313,33.0469 Q266.6875,33.0469 266,34.125 Q265.3125,35.1875 265.3125,37.2813 Q265.3125,39.375 266,40.4531 Q266.6875,41.5156 268.0313,41.5156 Q268.6563,41.5156 269.25,41.25 Q269.8438,40.9688 270.4688,40.3906 L270.4688,43.1094 Z "/><text fill="#000000" font-family="sans-serif" font-size="14" lengthAdjust="spacingAndGlyphs" textLength="224" x="281.5" y="36.4951">StructureMap.Group.Rule.Target</text><text fill="#000000" font-family="sans-serif" font-size="10" lengthAdjust="spacingAndGlyphs" textLength="139" x="324" y="49.0791">com.ibm.fhir.model.resource</text></a><!--MD5=[8a9d64860675b6390ef522c3bff299d4]
reverse link com.ibm.fhir.model.type.BackboneElement.Builder to com.ibm.fhir.model.resource.StructureMap.Group.Rule.Target.Builder--><path d="M140.0296,84.659 C147.7224,97.3751 156.4386,111.7828 165.484,126.7347 " fill="none" id="com.ibm.fhir.model.type.BackboneElement.Builder&lt;-com.ibm.fhir.model.resource.StructureMap.Group.Rule.Target.Builder" style="stroke: #A80036; stroke-width: 1.0;"/><polygon fill="none" points="133.9349,88.1081,129.5718,67.3725,145.9135,80.8614,133.9349,88.1081" style="stroke: #A80036; stroke-width: 1.0;"/><!--MD5=[d448ffd9ef1e12789aa545fae2643e33]
reverse link com.ibm.fhir.model.resource.StructureMap.Group.Rule.Target to com.ibm.fhir.model.resource.StructureMap.Group.Rule.Target.Builder--><path d="M360.754,69.8981 C351.174,85.6163 338.9634,105.6508 326.0923,126.769 " fill="none" id="com.ibm.fhir.model.resource.StructureMap.Group.Rule.Target&lt;-com.ibm.fhir.model.resource.StructureMap.Group.Rule.Target.Builder" style="stroke: #A80036; stroke-width: 1.0;"/><ellipse cx="364.5923" cy="63.6004" fill="#FFFFFF" rx="8" ry="8" style="stroke: #A80036; stroke-width: 1.0;"/><line style="stroke: #A80036; stroke-width: 1.0;" x1="360.4288" x2="368.7558" y1="70.4316" y2="56.7692"/><line style="stroke: #A80036; stroke-width: 1.0;" x1="357.7611" x2="371.4235" y1="59.4369" y2="67.7639"/><text fill="#888888" font-family="sans-serif" font-size="10" lengthAdjust="spacingAndGlyphs" textLength="186" x="170.5" y="410.2822">UMLDoclet 2.0.7, PlantUML 1.2019.12</text><!--MD5=[8fa2b2625733221b59988db236afd1f3]
@startuml
    set namespaceSeparator none
    hide empty fields
    hide empty methods

    class "<size:14>StructureMap.Group.Rule.Target.Builder\n<size:10>com.ibm.fhir.model.resource" as com.ibm.fhir.model.resource.StructureMap.Group.Rule.Target.Builder [[StructureMap.Group.Rule.Target.Builder.html]] {
        +id(String): Builder
        +extension(Extension...): Builder
        +extension(Collection<Extension>): Builder
        +modifierExtension(Extension...): Builder
        +modifierExtension(Collection<Extension>): Builder
        +context(Id): Builder
        +contextType(StructureMapContextType): Builder
        +element(String): Builder
        +variable(Id): Builder
        +listMode(StructureMapTargetListMode...): Builder
        +listMode(Collection<StructureMapTargetListMode>): Builder
        +listRuleId(Id): Builder
        +transform(StructureMapTransform): Builder
        +parameter(Parameter...): Builder
        +parameter(Collection<Parameter>): Builder
        +build(): Target
        #from(Target): Builder
    }

    abstract class "<size:14>BackboneElement.Builder\n<size:10>com.ibm.fhir.model.type" as com.ibm.fhir.model.type.BackboneElement.Builder [[../type/BackboneElement.Builder.html]] {
        {abstract} +build(): BackboneElement
    }
    class "<size:14>StructureMap.Group.Rule.Target\n<size:10>com.ibm.fhir.model.resource" as com.ibm.fhir.model.resource.StructureMap.Group.Rule.Target [[StructureMap.Group.Rule.Target.html]]

    com.ibm.fhir.model.type.BackboneElement.Builder <|- - com.ibm.fhir.model.resource.StructureMap.Group.Rule.Target.Builder
    com.ibm.fhir.model.resource.StructureMap.Group.Rule.Target +- - com.ibm.fhir.model.resource.StructureMap.Group.Rule.Target.Builder

    center footer UMLDoclet 2.0.7, PlantUML 1.2019.12
@enduml

PlantUML version 1.2019.12(Sun Nov 03 10:24:54 UTC 2019)
(APACHE source distribution)
Java Runtime: OpenJDK Runtime Environment
JVM: OpenJDK 64-Bit Server VM
Java Version: 11.0.7+10
Operating System: Linux
Default Encoding: UTF-8
Language: en
Country: null
--></g></svg>