<?xml version="1.0" encoding="UTF-8" standalone="no"?><svg xmlns="http://www.w3.org/2000/svg" xmlns:xlink="http://www.w3.org/1999/xlink" contentScriptType="application/ecmascript" contentStyleType="text/css" height="367px" preserveAspectRatio="none" style="width:386px;height:367px;" version="1.1" viewBox="0 0 386 367" width="386px" zoomAndPan="magnify"><defs><filter height="300%" id="f4518spgxw7wq" width="300%" x="-1" y="-1"><feGaussianBlur result="blurOut" stdDeviation="2.0"/><feColorMatrix in="blurOut" result="blurOut2" type="matrix" values="0 0 0 0 0 0 0 0 0 0 0 0 0 0 0 0 0 0 .4 0"/><feOffset dx="4.0" dy="4.0" in="blurOut2" result="blurOut3"/><feBlend in="SourceGraphic" in2="blurOut3" mode="normal"/></filter></defs><g><!--MD5=[9653ea8569d582378bf20617aad5846b]
class com.ibm.fhir.model.resource.TestScript.Teardown.Action--><a href="TestScript.Teardown.Action.html" target="_top" title="TestScript.Teardown.Action.html" xlink:actuate="onRequest" xlink:href="TestScript.Teardown.Action.html" xlink:show="new" xlink:title="TestScript.Teardown.Action.html" xlink:type="simple"><rect fill="#FEFECE" filter="url(#f4518spgxw7wq)" height="109.9609" id="com.ibm.fhir.model.resource.TestScript.Teardown.Action" style="stroke: #A80036; stroke-width: 1.5;" width="222" x="75.5" y="127"/><ellipse cx="90.5" cy="145.9688" fill="#ADD1B2" rx="11" ry="11" style="stroke: #A80036; stroke-width: 1.0;"/><path d="M93.4688,151.6094 Q92.8906,151.9063 92.25,152.0469 Q91.6094,152.2031 90.9063,152.2031 Q88.4063,152.2031 87.0781,150.5625 Q85.7656,148.9063 85.7656,145.7813 Q85.7656,142.6563 87.0781,141 Q88.4063,139.3438 90.9063,139.3438 Q91.6094,139.3438 92.25,139.5 Q92.9063,139.6563 93.4688,139.9531 L93.4688,142.6719 Q92.8438,142.0938 92.25,141.8281 Q91.6563,141.5469 91.0313,141.5469 Q89.6875,141.5469 89,142.625 Q88.3125,143.6875 88.3125,145.7813 Q88.3125,147.875 89,148.9531 Q89.6875,150.0156 91.0313,150.0156 Q91.6563,150.0156 92.25,149.75 Q92.8438,149.4688 93.4688,148.8906 L93.4688,151.6094 Z "/><text fill="#000000" font-family="sans-serif" font-size="14" lengthAdjust="spacingAndGlyphs" textLength="190" x="104.5" y="144.9951">TestScript.Teardown.Action</text><text fill="#000000" font-family="sans-serif" font-size="10" lengthAdjust="spacingAndGlyphs" textLength="139" x="130" y="157.5791">com.ibm.fhir.model.resource</text><line style="stroke: #A80036; stroke-width: 1.5;" x1="76.5" x2="296.5" y1="164.9375" y2="164.9375"/><ellipse cx="86.5" cy="175.9375" fill="#84BE84" rx="3" ry="3" style="stroke: #038048; stroke-width: 1.0;"/><text fill="#000000" font-family="sans-serif" font-size="11" lengthAdjust="spacingAndGlyphs" textLength="146" x="95.5" y="179.1479">getOperation(): Operation</text><ellipse cx="86.5" cy="188.7422" fill="#84BE84" rx="3" ry="3" style="stroke: #038048; stroke-width: 1.0;"/><text fill="#000000" font-family="sans-serif" font-size="11" lengthAdjust="spacingAndGlyphs" textLength="129" x="95.5" y="191.9526">hasChildren(): boolean</text><ellipse cx="86.5" cy="201.5469" fill="#84BE84" rx="3" ry="3" style="stroke: #038048; stroke-width: 1.0;"/><text fill="#000000" font-family="sans-serif" font-size="11" lengthAdjust="spacingAndGlyphs" textLength="176" x="95.5" y="204.7573">accept(String, int, Visitor): void</text><ellipse cx="86.5" cy="214.3516" fill="#84BE84" rx="3" ry="3" style="stroke: #038048; stroke-width: 1.0;"/><text fill="#000000" font-family="sans-serif" font-size="11" lengthAdjust="spacingAndGlyphs" textLength="107" x="95.5" y="217.562">toBuilder(): Builder</text><ellipse cx="86.5" cy="227.1563" fill="#84BE84" rx="3" ry="3" style="stroke: #038048; stroke-width: 1.0;"/><text fill="#000000" font-family="sans-serif" font-size="11" lengthAdjust="spacingAndGlyphs" text-decoration="underline" textLength="95" x="95.5" y="230.3667">builder(): Builder</text></a><!--MD5=[efbff6997283c56b83e991a8eeb6a60a]
class com.ibm.fhir.model.type.BackboneElement--><a href="../type/BackboneElement.html" target="_top" title="../type/BackboneElement.html" xlink:actuate="onRequest" xlink:href="../type/BackboneElement.html" xlink:show="new" xlink:title="../type/BackboneElement.html" xlink:type="simple"><rect fill="#FEFECE" filter="url(#f4518spgxw7wq)" height="58.7422" id="com.ibm.fhir.model.type.BackboneElement" style="stroke: #A80036; stroke-width: 1.5;" width="159" x="6" y="8"/><ellipse cx="21" cy="26.9688" fill="#A9DCDF" rx="11" ry="11" style="stroke: #A80036; stroke-width: 1.0;"/><path d="M21.1094,22.3125 L19.9531,27.3906 L22.2813,27.3906 L21.1094,22.3125 Z M19.625,20.0781 L22.6094,20.0781 L25.9688,32.4688 L23.5156,32.4688 L22.75,29.4063 L19.4688,29.4063 L18.7188,32.4688 L16.2813,32.4688 L19.625,20.0781 Z "/><text fill="#000000" font-family="sans-serif" font-size="14" font-style="italic" lengthAdjust="spacingAndGlyphs" textLength="127" x="35" y="25.9951">BackboneElement</text><text fill="#000000" font-family="sans-serif" font-size="10" font-style="italic" lengthAdjust="spacingAndGlyphs" textLength="119" x="39" y="38.5791">com.ibm.fhir.model.type</text><line style="stroke: #A80036; stroke-width: 1.5;" x1="7" x2="164" y1="45.9375" y2="45.9375"/><ellipse cx="17" cy="56.9375" fill="#84BE84" rx="3" ry="3" style="stroke: #038048; stroke-width: 1.0;"/><text fill="#000000" font-family="sans-serif" font-size="11" font-style="italic" lengthAdjust="spacingAndGlyphs" textLength="107" x="26" y="60.1479">toBuilder(): Builder</text></a><!--MD5=[5108234cf2b85c9912038bb0dffea9a3]
class com.ibm.fhir.model.resource.TestScript.Teardown--><a href="TestScript.Teardown.html" target="_top" title="TestScript.Teardown.html" xlink:actuate="onRequest" xlink:href="TestScript.Teardown.html" xlink:show="new" xlink:title="TestScript.Teardown.html" xlink:type="simple"><rect fill="#FEFECE" filter="url(#f4518spgxw7wq)" height="37.9375" id="com.ibm.fhir.model.resource.TestScript.Teardown" style="stroke: #A80036; stroke-width: 1.5;" width="175" x="200" y="18.5"/><ellipse cx="215" cy="37.4688" fill="#ADD1B2" rx="11" ry="11" style="stroke: #A80036; stroke-width: 1.0;"/><path d="M217.9688,43.1094 Q217.3906,43.4063 216.75,43.5469 Q216.1094,43.7031 215.4063,43.7031 Q212.9063,43.7031 211.5781,42.0625 Q210.2656,40.4063 210.2656,37.2813 Q210.2656,34.1563 211.5781,32.5 Q212.9063,30.8438 215.4063,30.8438 Q216.1094,30.8438 216.75,31 Q217.4063,31.1563 217.9688,31.4531 L217.9688,34.1719 Q217.3438,33.5938 216.75,33.3281 Q216.1563,33.0469 215.5313,33.0469 Q214.1875,33.0469 213.5,34.125 Q212.8125,35.1875 212.8125,37.2813 Q212.8125,39.375 213.5,40.4531 Q214.1875,41.5156 215.5313,41.5156 Q216.1563,41.5156 216.75,41.25 Q217.3438,40.9688 217.9688,40.3906 L217.9688,43.1094 Z "/><text fill="#000000" font-family="sans-serif" font-size="14" lengthAdjust="spacingAndGlyphs" textLength="143" x="229" y="36.4951">TestScript.Teardown</text><text fill="#000000" font-family="sans-serif" font-size="10" lengthAdjust="spacingAndGlyphs" textLength="139" x="231" y="49.0791">com.ibm.fhir.model.resource</text></a><!--MD5=[3f215bdadf5ddd7575c2ab780a7f54cd]
class com.ibm.fhir.model.resource.TestScript.Teardown.Action.Builder--><a href="TestScript.Teardown.Action.Builder.html" target="_top" title="TestScript.Teardown.Action.Builder.html" xlink:actuate="onRequest" xlink:href="TestScript.Teardown.Action.Builder.html" xlink:show="new" xlink:title="TestScript.Teardown.Action.Builder.html" xlink:type="simple"><rect fill="#FEFECE" filter="url(#f4518spgxw7wq)" height="37.9375" id="com.ibm.fhir.model.resource.TestScript.Teardown.Action.Builder" style="stroke: #A80036; stroke-width: 1.5;" width="274" x="49.5" y="297"/><ellipse cx="64.5" cy="315.9688" fill="#ADD1B2" rx="11" ry="11" style="stroke: #A80036; stroke-width: 1.0;"/><path d="M67.4688,321.6094 Q66.8906,321.9063 66.25,322.0469 Q65.6094,322.2031 64.9063,322.2031 Q62.4063,322.2031 61.0781,320.5625 Q59.7656,318.9063 59.7656,315.7813 Q59.7656,312.6563 61.0781,311 Q62.4063,309.3438 64.9063,309.3438 Q65.6094,309.3438 66.25,309.5 Q66.9063,309.6563 67.4688,309.9531 L67.4688,312.6719 Q66.8438,312.0938 66.25,311.8281 Q65.6563,311.5469 65.0313,311.5469 Q63.6875,311.5469 63,312.625 Q62.3125,313.6875 62.3125,315.7813 Q62.3125,317.875 63,318.9531 Q63.6875,320.0156 65.0313,320.0156 Q65.6563,320.0156 66.25,319.75 Q66.8438,319.4688 67.4688,318.8906 L67.4688,321.6094 Z "/><text fill="#000000" font-family="sans-serif" font-size="14" lengthAdjust="spacingAndGlyphs" textLength="242" x="78.5" y="314.9951">TestScript.Teardown.Action.Builder</text><text fill="#000000" font-family="sans-serif" font-size="10" lengthAdjust="spacingAndGlyphs" textLength="139" x="130" y="327.5791">com.ibm.fhir.model.resource</text></a><!--MD5=[01bd92156c91d554da603f199886b803]
reverse link com.ibm.fhir.model.type.BackboneElement to com.ibm.fhir.model.resource.TestScript.Teardown.Action--><path d="M117.6735,83.5304 C127.2769,97.27 137.9033,112.4731 147.8749,126.7393 " fill="none" id="com.ibm.fhir.model.type.BackboneElement&lt;-com.ibm.fhir.model.resource.TestScript.Teardown.Action" style="stroke: #A80036; stroke-width: 1.0;"/><polygon fill="none" points="111.903,87.4933,106.1826,67.0904,123.3779,79.4728,111.903,87.4933" style="stroke: #A80036; stroke-width: 1.0;"/><!--MD5=[8c6047f506320438d43f4857951c9fb1]
reverse link com.ibm.fhir.model.resource.TestScript.Teardown to com.ibm.fhir.model.resource.TestScript.Teardown.Action--><path d="M265.3558,69.1816 C253.547,86.0763 238.6776,107.3498 225.0423,126.8578 " fill="none" id="com.ibm.fhir.model.resource.TestScript.Teardown&lt;-com.ibm.fhir.model.resource.TestScript.Teardown.Action" style="stroke: #A80036; stroke-width: 1.0;"/><ellipse cx="269.5048" cy="63.2455" fill="#FFFFFF" rx="8" ry="8" style="stroke: #A80036; stroke-width: 1.0;"/><line style="stroke: #A80036; stroke-width: 1.0;" x1="264.9217" x2="274.088" y1="69.8026" y2="56.6885"/><line style="stroke: #A80036; stroke-width: 1.0;" x1="262.9478" x2="276.0619" y1="58.6624" y2="67.8287"/><!--MD5=[85802afb880c5b00a10226db2ad39ebd]
reverse link com.ibm.fhir.model.resource.TestScript.Teardown.Action to com.ibm.fhir.model.resource.TestScript.Teardown.Action.Builder--><path d="M186.5,252.332 C186.5,268.7676 186.5,284.9352 186.5,296.8656 " fill="none" id="com.ibm.fhir.model.resource.TestScript.Teardown.Action&lt;-com.ibm.fhir.model.resource.TestScript.Teardown.Action.Builder" style="stroke: #A80036; stroke-width: 1.0;"/><ellipse cx="186.5001" cy="245.2766" fill="#FFFFFF" rx="8" ry="8" style="stroke: #A80036; stroke-width: 1.0;"/><line style="stroke: #A80036; stroke-width: 1.0;" x1="186.5002" x2="186.5" y1="253.2766" y2="237.2766"/><line style="stroke: #A80036; stroke-width: 1.0;" x1="178.5001" x2="194.5001" y1="245.2767" y2="245.2765"/><text fill="#888888" font-family="sans-serif" font-size="10" lengthAdjust="spacingAndGlyphs" textLength="186" x="103.5" y="354.2822">UMLDoclet 2.0.7, PlantUML 1.2019.12</text><!--MD5=[5f8cdadb7e987fe126961a1a3e5e9d8e]
@startuml
    set namespaceSeparator none
    hide empty fields
    hide empty methods

    class "<size:14>TestScript.Teardown.Action\n<size:10>com.ibm.fhir.model.resource" as com.ibm.fhir.model.resource.TestScript.Teardown.Action [[TestScript.Teardown.Action.html]] {
        +getOperation(): Operation
        +hasChildren(): boolean
        +accept(String, int, Visitor): void
        +toBuilder(): Builder
        {static} +builder(): Builder
    }

    abstract class "<size:14>BackboneElement\n<size:10>com.ibm.fhir.model.type" as com.ibm.fhir.model.type.BackboneElement [[../type/BackboneElement.html]] {
        {abstract} +toBuilder(): Builder
    }
    class "<size:14>TestScript.Teardown\n<size:10>com.ibm.fhir.model.resource" as com.ibm.fhir.model.resource.TestScript.Teardown [[TestScript.Teardown.html]]
    class "<size:14>TestScript.Teardown.Action.Builder\n<size:10>com.ibm.fhir.model.resource" as com.ibm.fhir.model.resource.TestScript.Teardown.Action.Builder [[TestScript.Teardown.Action.Builder.html]]

    com.ibm.fhir.model.type.BackboneElement <|- - com.ibm.fhir.model.resource.TestScript.Teardown.Action
    com.ibm.fhir.model.resource.TestScript.Teardown +- - com.ibm.fhir.model.resource.TestScript.Teardown.Action
    com.ibm.fhir.model.resource.TestScript.Teardown.Action +- - com.ibm.fhir.model.resource.TestScript.Teardown.Action.Builder

    center footer UMLDoclet 2.0.7, PlantUML 1.2019.12
@enduml

PlantUML version 1.2019.12(Sun Nov 03 10:24:54 UTC 2019)
(APACHE source distribution)
Java Runtime: OpenJDK Runtime Environment
JVM: OpenJDK 64-Bit Server VM
Java Version: 11.0.7+10
Operating System: Linux
Default Encoding: UTF-8
Language: en
Country: null
--></g></svg>