<?xml version="1.0" encoding="UTF-8" standalone="no"?><svg xmlns="http://www.w3.org/2000/svg" xmlns:xlink="http://www.w3.org/1999/xlink" contentScriptType="application/ecmascript" contentStyleType="text/css" height="254px" preserveAspectRatio="none" style="width:573px;height:254px;" version="1.1" viewBox="0 0 573 254" width="573px" zoomAndPan="magnify"><defs><filter height="300%" id="f1qoroson1hz1p" width="300%" x="-1" y="-1"><feGaussianBlur result="blurOut" stdDeviation="2.0"/><feColorMatrix in="blurOut" result="blurOut2" type="matrix" values="0 0 0 0 0 0 0 0 0 0 0 0 0 0 0 0 0 0 .4 0"/><feOffset dx="4.0" dy="4.0" in="blurOut2" result="blurOut3"/><feBlend in="SourceGraphic" in2="blurOut3" mode="normal"/></filter></defs><g><!--MD5=[d366b24d26a8063703904301be85100b]
cluster com.ibm.fhir.model.lang.util--><polygon fill="#FFFFFF" filter="url(#f1qoroson1hz1p)" points="14,16,238,16,245,38.2969,551,38.2969,551,214,14,214,14,16" style="stroke: #000000; stroke-width: 1.5;"/><line style="stroke: #000000; stroke-width: 1.5;" x1="14" x2="245" y1="38.2969" y2="38.2969"/><text fill="#000000" font-family="sans-serif" font-size="14" font-weight="bold" lengthAdjust="spacingAndGlyphs" textLength="218" x="18" y="30.9951">com.ibm.fhir.model.lang.util</text><!--MD5=[1519066d58ca530c9e38a5e57a234d4c]
class com.ibm.fhir.model.lang.util.LanguageRegistry--><a href="LanguageRegistry.html" target="_top" title="LanguageRegistry.html" xlink:actuate="onRequest" xlink:href="LanguageRegistry.html" xlink:show="new" xlink:title="LanguageRegistry.html" xlink:type="simple"><rect fill="#FEFECE" filter="url(#f1qoroson1hz1p)" height="163.2422" id="com.ibm.fhir.model.lang.util.LanguageRegistry" style="stroke: #A80036; stroke-width: 1.5;" width="252" x="291" y="43"/><ellipse cx="356.75" cy="59" fill="#ADD1B2" rx="11" ry="11" style="stroke: #A80036; stroke-width: 1.0;"/><path d="M359.7188,64.6406 Q359.1406,64.9375 358.5,65.0781 Q357.8594,65.2344 357.1563,65.2344 Q354.6563,65.2344 353.3281,63.5938 Q352.0156,61.9375 352.0156,58.8125 Q352.0156,55.6875 353.3281,54.0313 Q354.6563,52.375 357.1563,52.375 Q357.8594,52.375 358.5,52.5313 Q359.1563,52.6875 359.7188,52.9844 L359.7188,55.7031 Q359.0938,55.125 358.5,54.8594 Q357.9063,54.5781 357.2813,54.5781 Q355.9375,54.5781 355.25,55.6563 Q354.5625,56.7188 354.5625,58.8125 Q354.5625,60.9063 355.25,61.9844 Q355.9375,63.0469 357.2813,63.0469 Q357.9063,63.0469 358.5,62.7813 Q359.0938,62.5 359.7188,61.9219 L359.7188,64.6406 Z "/><text fill="#000000" font-family="sans-serif" font-size="12" lengthAdjust="spacingAndGlyphs" textLength="112" x="377.25" y="63.1543">LanguageRegistry</text><line style="stroke: #A80036; stroke-width: 1.5;" x1="292" x2="542" y1="75" y2="75"/><line style="stroke: #A80036; stroke-width: 1.5;" x1="292" x2="542" y1="83" y2="83"/><polygon fill="#4177AF" points="302,90,298,96,306,96" style="stroke: #1963A0; stroke-width: 1.0;"/><text fill="#000000" font-family="sans-serif" font-size="11" lengthAdjust="spacingAndGlyphs" text-decoration="underline" textLength="56" x="311" y="97.2104">init(): void</text><polygon fill="#4177AF" points="302,102.8047,298,108.8047,306,108.8047" style="stroke: #1963A0; stroke-width: 1.0;"/><text fill="#000000" font-family="sans-serif" font-size="11" lengthAdjust="spacingAndGlyphs" text-decoration="underline" textLength="200" x="311" y="110.0151">isLanguageSubtag(String): boolean</text><polygon fill="#4177AF" points="302,115.6094,298,121.6094,306,121.6094" style="stroke: #1963A0; stroke-width: 1.0;"/><text fill="#000000" font-family="sans-serif" font-size="11" lengthAdjust="spacingAndGlyphs" text-decoration="underline" textLength="186" x="311" y="122.8198">isExtlangSubtag(String): boolean</text><polygon fill="#4177AF" points="302,128.4141,298,134.4141,306,134.4141" style="stroke: #1963A0; stroke-width: 1.0;"/><text fill="#000000" font-family="sans-serif" font-size="11" lengthAdjust="spacingAndGlyphs" text-decoration="underline" textLength="175" x="311" y="135.6245">getExtlangPrefix(String): String</text><polygon fill="#4177AF" points="302,141.2188,298,147.2188,306,147.2188" style="stroke: #1963A0; stroke-width: 1.0;"/><text fill="#000000" font-family="sans-serif" font-size="11" lengthAdjust="spacingAndGlyphs" text-decoration="underline" textLength="178" x="311" y="148.4292">isScriptSubtag(String): boolean</text><polygon fill="#4177AF" points="302,154.0234,298,160.0234,306,160.0234" style="stroke: #1963A0; stroke-width: 1.0;"/><text fill="#000000" font-family="sans-serif" font-size="11" lengthAdjust="spacingAndGlyphs" text-decoration="underline" textLength="183" x="311" y="161.2339">isRegionSubtag(String): boolean</text><polygon fill="#4177AF" points="302,166.8281,298,172.8281,306,172.8281" style="stroke: #1963A0; stroke-width: 1.0;"/><text fill="#000000" font-family="sans-serif" font-size="11" lengthAdjust="spacingAndGlyphs" text-decoration="underline" textLength="185" x="311" y="174.0386">isVariantSubtag(String): boolean</text><polygon fill="#4177AF" points="302,179.6328,298,185.6328,306,185.6328" style="stroke: #1963A0; stroke-width: 1.0;"/><text fill="#000000" font-family="sans-serif" font-size="11" lengthAdjust="spacingAndGlyphs" text-decoration="underline" textLength="226" x="311" y="186.8433">getVariantPrefixes(String): List&lt;String&gt;</text><polygon fill="#4177AF" points="302,192.4375,298,198.4375,306,198.4375" style="stroke: #1963A0; stroke-width: 1.0;"/><text fill="#000000" font-family="sans-serif" font-size="11" lengthAdjust="spacingAndGlyphs" text-decoration="underline" textLength="209" x="311" y="199.6479">isGrandfatheredTag(String): boolean</text></a><!--MD5=[e39a9d99fad06033247d76921394141b]
class com.ibm.fhir.model.lang.util.LanguageRegistryUtil--><a href="LanguageRegistryUtil.html" target="_top" title="LanguageRegistryUtil.html" xlink:actuate="onRequest" xlink:href="LanguageRegistryUtil.html" xlink:show="new" xlink:title="LanguageRegistryUtil.html" xlink:type="simple"><rect fill="#FEFECE" filter="url(#f1qoroson1hz1p)" height="73.6094" id="com.ibm.fhir.model.lang.util.LanguageRegistryUtil" style="stroke: #A80036; stroke-width: 1.5;" width="234" x="22" y="87.5"/><ellipse cx="68.75" cy="103.5" fill="#ADD1B2" rx="11" ry="11" style="stroke: #A80036; stroke-width: 1.0;"/><path d="M71.7188,109.1406 Q71.1406,109.4375 70.5,109.5781 Q69.8594,109.7344 69.1563,109.7344 Q66.6563,109.7344 65.3281,108.0938 Q64.0156,106.4375 64.0156,103.3125 Q64.0156,100.1875 65.3281,98.5313 Q66.6563,96.875 69.1563,96.875 Q69.8594,96.875 70.5,97.0313 Q71.1563,97.1875 71.7188,97.4844 L71.7188,100.2031 Q71.0938,99.625 70.5,99.3594 Q69.9063,99.0781 69.2813,99.0781 Q67.9375,99.0781 67.25,100.1563 Q66.5625,101.2188 66.5625,103.3125 Q66.5625,105.4063 67.25,106.4844 Q67.9375,107.5469 69.2813,107.5469 Q69.9063,107.5469 70.5,107.2813 Q71.0938,107 71.7188,106.4219 L71.7188,109.1406 Z "/><text fill="#000000" font-family="sans-serif" font-size="12" lengthAdjust="spacingAndGlyphs" textLength="132" x="89.25" y="107.6543">LanguageRegistryUtil</text><line style="stroke: #A80036; stroke-width: 1.5;" x1="23" x2="255" y1="119.5" y2="119.5"/><line style="stroke: #A80036; stroke-width: 1.5;" x1="23" x2="255" y1="127.5" y2="127.5"/><ellipse cx="33" cy="138.5" fill="#84BE84" rx="3" ry="3" style="stroke: #038048; stroke-width: 1.0;"/><text fill="#000000" font-family="sans-serif" font-size="11" lengthAdjust="spacingAndGlyphs" text-decoration="underline" textLength="56" x="42" y="141.7104">init(): void</text><ellipse cx="33" cy="151.3047" fill="#84BE84" rx="3" ry="3" style="stroke: #038048; stroke-width: 1.0;"/><text fill="#000000" font-family="sans-serif" font-size="11" lengthAdjust="spacingAndGlyphs" text-decoration="underline" textLength="208" x="42" y="154.5151">isValidLanguageTag(String): boolean</text></a><text fill="#888888" font-family="sans-serif" font-size="10" lengthAdjust="spacingAndGlyphs" textLength="186" x="195.5" y="241.2822">UMLDoclet 2.0.7, PlantUML 1.2019.12</text><!--MD5=[795bbe978afbf6a9a4362f146e0fc472]
@startuml
    namespace com.ibm.fhir.model.lang.util {

        class LanguageRegistry [[LanguageRegistry.html]] {
            {static} ~init(): void
            {static} ~isLanguageSubtag(String): boolean
            {static} ~isExtlangSubtag(String): boolean
            {static} ~getExtlangPrefix(String): String
            {static} ~isScriptSubtag(String): boolean
            {static} ~isRegionSubtag(String): boolean
            {static} ~isVariantSubtag(String): boolean
            {static} ~getVariantPrefixes(String): List<String>
            {static} ~isGrandfatheredTag(String): boolean
        }

        class LanguageRegistryUtil [[LanguageRegistryUtil.html]] {
            {static} +init(): void
            {static} +isValidLanguageTag(String): boolean
        }

    }

    center footer UMLDoclet 2.0.7, PlantUML 1.2019.12
@enduml

PlantUML version 1.2019.12(Sun Nov 03 10:24:54 UTC 2019)
(APACHE source distribution)
Java Runtime: OpenJDK Runtime Environment
JVM: OpenJDK 64-Bit Server VM
Java Version: 11.0.8+10
Operating System: Linux
Default Encoding: UTF-8
Language: en
Country: null
--></g></svg>