<?xml version="1.0" encoding="UTF-8" standalone="no"?><svg xmlns="http://www.w3.org/2000/svg" xmlns:xlink="http://www.w3.org/1999/xlink" contentScriptType="application/ecmascript" contentStyleType="text/css" height="395px" preserveAspectRatio="none" style="width:355px;height:395px;" version="1.1" viewBox="0 0 355 395" width="355px" zoomAndPan="magnify"><defs><filter height="300%" id="f8ycx439g4l32" width="300%" x="-1" y="-1"><feGaussianBlur result="blurOut" stdDeviation="2.0"/><feColorMatrix in="blurOut" result="blurOut2" type="matrix" values="0 0 0 0 0 0 0 0 0 0 0 0 0 0 0 0 0 0 .4 0"/><feOffset dx="4.0" dy="4.0" in="blurOut2" result="blurOut3"/><feBlend in="SourceGraphic" in2="blurOut3" mode="normal"/></filter></defs><g><!--MD5=[7e9da6562f789845bf1c2b941c4894a8]
class com.ibm.fhir.model.type.Dosage.DoseAndRate--><a href="Dosage.DoseAndRate.html" target="_top" title="Dosage.DoseAndRate.html" xlink:actuate="onRequest" xlink:href="Dosage.DoseAndRate.html" xlink:show="new" xlink:title="Dosage.DoseAndRate.html" xlink:type="simple"><rect fill="#FEFECE" filter="url(#f8ycx439g4l32)" height="136.9512" id="com.ibm.fhir.model.type.Dosage.DoseAndRate" style="stroke: #A80036; stroke-width: 1.5;" width="191" x="80" y="127"/><ellipse cx="100.4" cy="146.1328" fill="#ADD1B2" rx="11" ry="11" style="stroke: #A80036; stroke-width: 1.0;"/><path d="M102.8731,152.2759 Q102.2921,152.5747 101.6529,152.7241 Q101.0138,152.8735 100.3082,152.8735 Q97.8014,152.8735 96.4815,151.2217 Q95.1617,149.5698 95.1617,146.4487 Q95.1617,143.3193 96.4815,141.6675 Q97.8014,140.0156 100.3082,140.0156 Q101.0138,140.0156 101.6612,140.165 Q102.3087,140.3145 102.8731,140.6133 L102.8731,143.3359 Q102.2423,142.7549 101.6488,142.4851 Q101.0553,142.2153 100.4244,142.2153 Q99.0797,142.2153 98.3949,143.282 Q97.7101,144.3486 97.7101,146.4487 Q97.7101,148.5405 98.3949,149.6072 Q99.0797,150.6738 100.4244,150.6738 Q101.0553,150.6738 101.6488,150.4041 Q102.2423,150.1343 102.8731,149.5532 Z "/><text fill="#000000" font-family="sans-serif" font-size="14" lengthAdjust="spacingAndGlyphs" textLength="147" x="115.6" y="145.5352">Dosage.DoseAndRate</text><text fill="#000000" font-family="sans-serif" font-size="10" lengthAdjust="spacingAndGlyphs" textLength="118" x="130.1" y="158.1563">com.ibm.fhir.model.type</text><line style="stroke: #A80036; stroke-width: 1.5;" x1="81" x2="270" y1="165.2656" y2="165.2656"/><ellipse cx="91" cy="176.2656" fill="#84BE84" rx="3" ry="3" style="stroke: #038048; stroke-width: 1.0;"/><text fill="#000000" font-family="sans-serif" font-size="11" lengthAdjust="spacingAndGlyphs" textLength="152" x="100" y="179.9004">getType(): CodeableConcept</text><ellipse cx="91" cy="189.2207" fill="#84BE84" rx="3" ry="3" style="stroke: #038048; stroke-width: 1.0;"/><text fill="#000000" font-family="sans-serif" font-size="11" lengthAdjust="spacingAndGlyphs" textLength="100" x="100" y="192.8555">getDose(): Element</text><ellipse cx="91" cy="202.1758" fill="#84BE84" rx="3" ry="3" style="stroke: #038048; stroke-width: 1.0;"/><text fill="#000000" font-family="sans-serif" font-size="11" lengthAdjust="spacingAndGlyphs" textLength="96" x="100" y="205.8105">getRate(): Element</text><ellipse cx="91" cy="215.1309" fill="#84BE84" rx="3" ry="3" style="stroke: #038048; stroke-width: 1.0;"/><text fill="#000000" font-family="sans-serif" font-size="11" lengthAdjust="spacingAndGlyphs" textLength="122" x="100" y="218.7656">hasChildren(): boolean</text><ellipse cx="91" cy="228.0859" fill="#84BE84" rx="3" ry="3" style="stroke: #038048; stroke-width: 1.0;"/><text fill="#000000" font-family="sans-serif" font-size="11" lengthAdjust="spacingAndGlyphs" textLength="165" x="100" y="231.7207">accept(String, int, Visitor): void</text><ellipse cx="91" cy="241.041" fill="#84BE84" rx="3" ry="3" style="stroke: #038048; stroke-width: 1.0;"/><text fill="#000000" font-family="sans-serif" font-size="11" lengthAdjust="spacingAndGlyphs" textLength="99" x="100" y="244.6758">toBuilder(): Builder</text><ellipse cx="91" cy="253.9961" fill="#84BE84" rx="3" ry="3" style="stroke: #038048; stroke-width: 1.0;"/><text fill="#000000" font-family="sans-serif" font-size="11" lengthAdjust="spacingAndGlyphs" text-decoration="underline" textLength="89" x="100" y="257.6309">builder(): Builder</text></a><!--MD5=[efbff6997283c56b83e991a8eeb6a60a]
class com.ibm.fhir.model.type.BackboneElement--><a href="BackboneElement.html" target="_top" title="BackboneElement.html" xlink:actuate="onRequest" xlink:href="BackboneElement.html" xlink:show="new" xlink:title="BackboneElement.html" xlink:type="simple"><rect fill="#FEFECE" filter="url(#f8ycx439g4l32)" height="59.2207" id="com.ibm.fhir.model.type.BackboneElement" style="stroke: #A80036; stroke-width: 1.5;" width="153" x="6" y="8"/><ellipse cx="21" cy="27.1328" fill="#A9DCDF" rx="11" ry="11" style="stroke: #A80036; stroke-width: 1.0;"/><path d="M21.1133,22.731 L19.9595,27.8027 L22.2754,27.8027 Z M19.6191,20.4897 L22.6157,20.4897 L25.9609,32.8828 L23.5122,32.8828 L22.7485,29.8198 L19.4697,29.8198 L18.7227,32.8828 L16.2739,32.8828 Z "/><text fill="#000000" font-family="sans-serif" font-size="14" font-style="italic" lengthAdjust="spacingAndGlyphs" textLength="121" x="35" y="26.5352">BackboneElement</text><text fill="#000000" font-family="sans-serif" font-size="10" font-style="italic" lengthAdjust="spacingAndGlyphs" textLength="118" x="36.5" y="39.1563">com.ibm.fhir.model.type</text><line style="stroke: #A80036; stroke-width: 1.5;" x1="7" x2="158" y1="46.2656" y2="46.2656"/><ellipse cx="17" cy="57.2656" fill="#84BE84" rx="3" ry="3" style="stroke: #038048; stroke-width: 1.0;"/><text fill="#000000" font-family="sans-serif" font-size="11" font-style="italic" lengthAdjust="spacingAndGlyphs" textLength="99" x="26" y="60.9004">toBuilder(): Builder</text></a><!--MD5=[6eea5c6942b50fbf7c81d9567c8a5bdc]
class com.ibm.fhir.model.type.Dosage--><a href="Dosage.html" target="_top" title="Dosage.html" xlink:actuate="onRequest" xlink:href="Dosage.html" xlink:show="new" xlink:title="Dosage.html" xlink:type="simple"><rect fill="#FEFECE" filter="url(#f8ycx439g4l32)" height="38.2656" id="com.ibm.fhir.model.type.Dosage" style="stroke: #A80036; stroke-width: 1.5;" width="150" x="194.5" y="18.5"/><ellipse cx="209.5" cy="37.6328" fill="#ADD1B2" rx="11" ry="11" style="stroke: #A80036; stroke-width: 1.0;"/><path d="M211.9731,43.7759 Q211.3921,44.0747 210.7529,44.2241 Q210.1138,44.3735 209.4082,44.3735 Q206.9014,44.3735 205.5815,42.7217 Q204.2617,41.0698 204.2617,37.9487 Q204.2617,34.8193 205.5815,33.1675 Q206.9014,31.5156 209.4082,31.5156 Q210.1138,31.5156 210.7612,31.665 Q211.4087,31.8145 211.9731,32.1133 L211.9731,34.8359 Q211.3423,34.2549 210.7488,33.9851 Q210.1553,33.7153 209.5244,33.7153 Q208.1797,33.7153 207.4949,34.782 Q206.8101,35.8486 206.8101,37.9487 Q206.8101,40.0405 207.4949,41.1072 Q208.1797,42.1738 209.5244,42.1738 Q210.1553,42.1738 210.7488,41.9041 Q211.3423,41.6343 211.9731,41.0532 Z "/><text fill="#000000" font-family="sans-serif" font-size="14" lengthAdjust="spacingAndGlyphs" textLength="51" x="257" y="37.0352">Dosage</text><text fill="#000000" font-family="sans-serif" font-size="10" lengthAdjust="spacingAndGlyphs" textLength="118" x="223.5" y="49.6563">com.ibm.fhir.model.type</text></a><!--MD5=[302fda6c72f3ba825c6f3cc6ce0d2ad5]
class com.ibm.fhir.model.type.Dosage.DoseAndRate.Builder--><a href="Dosage.DoseAndRate.Builder.html" target="_top" title="Dosage.DoseAndRate.Builder.html" xlink:actuate="onRequest" xlink:href="Dosage.DoseAndRate.Builder.html" xlink:show="new" xlink:title="Dosage.DoseAndRate.Builder.html" xlink:type="simple"><rect fill="#FEFECE" filter="url(#f8ycx439g4l32)" height="38.2656" id="com.ibm.fhir.model.type.Dosage.DoseAndRate.Builder" style="stroke: #A80036; stroke-width: 1.5;" width="231" x="60" y="324"/><ellipse cx="75" cy="343.1328" fill="#ADD1B2" rx="11" ry="11" style="stroke: #A80036; stroke-width: 1.0;"/><path d="M77.4731,349.2759 Q76.8921,349.5747 76.2529,349.7241 Q75.6138,349.8735 74.9082,349.8735 Q72.4014,349.8735 71.0815,348.2217 Q69.7617,346.5698 69.7617,343.4487 Q69.7617,340.3193 71.0815,338.6675 Q72.4014,337.0156 74.9082,337.0156 Q75.6138,337.0156 76.2612,337.165 Q76.9087,337.3145 77.4731,337.6133 L77.4731,340.3359 Q76.8423,339.7549 76.2488,339.4851 Q75.6553,339.2153 75.0244,339.2153 Q73.6797,339.2153 72.9949,340.282 Q72.3101,341.3486 72.3101,343.4487 Q72.3101,345.5405 72.9949,346.6072 Q73.6797,347.6738 75.0244,347.6738 Q75.6553,347.6738 76.2488,347.4041 Q76.8423,347.1343 77.4731,346.5532 Z "/><text fill="#000000" font-family="sans-serif" font-size="14" lengthAdjust="spacingAndGlyphs" textLength="199" x="89" y="342.5352">Dosage.DoseAndRate.Builder</text><text fill="#000000" font-family="sans-serif" font-size="10" lengthAdjust="spacingAndGlyphs" textLength="118" x="129.5" y="355.1563">com.ibm.fhir.model.type</text></a><!--MD5=[1ad29622a2c4ad0cd3c7385aaa154528]
reverse link com.ibm.fhir.model.type.BackboneElement to com.ibm.fhir.model.type.Dosage.DoseAndRate--><path d="M110.3398,84.7977 C118.136,98.0429 126.7712,112.7135 135.1368,126.9259 " fill="none" id="com.ibm.fhir.model.type.BackboneElement&lt;-com.ibm.fhir.model.type.Dosage.DoseAndRate" style="stroke: #A80036; stroke-width: 1.0;"/><polygon fill="none" points="104.1052,88.0053,99.9926,67.2186,116.1704,80.9037,104.1052,88.0053" style="stroke: #A80036; stroke-width: 1.0;"/><!--MD5=[86caeb693ca49cfc519a81c70f2b2d0d]
reverse link com.ibm.fhir.model.type.Dosage to com.ibm.fhir.model.type.Dosage.DoseAndRate--><path d="M250.4056,69.5949 C240.5617,86.141 228.1575,106.9905 216.2908,126.9367 " fill="none" id="com.ibm.fhir.model.type.Dosage&lt;-com.ibm.fhir.model.type.Dosage.DoseAndRate" style="stroke: #A80036; stroke-width: 1.0;"/><ellipse cx="254.0711" cy="63.4338" fill="#FFFFFF" rx="8" ry="8" style="stroke: #A80036; stroke-width: 1.0;"/><line style="stroke: #A80036; stroke-width: 1.0;" x1="249.9807" x2="258.1614" y1="70.309" y2="56.5585"/><line style="stroke: #A80036; stroke-width: 1.0;" x1="247.1958" x2="260.9463" y1="59.3434" y2="67.5241"/><!--MD5=[f7f5b242793c103071af8bf8495022ae]
reverse link com.ibm.fhir.model.type.Dosage.DoseAndRate to com.ibm.fhir.model.type.Dosage.DoseAndRate.Builder--><path d="M175.5,279.259 C175.5,296.0616 175.5,312.158 175.5,323.9719 " fill="none" id="com.ibm.fhir.model.type.Dosage.DoseAndRate&lt;-com.ibm.fhir.model.type.Dosage.DoseAndRate.Builder" style="stroke: #A80036; stroke-width: 1.0;"/><ellipse cx="175.5001" cy="272.0683" fill="#FFFFFF" rx="8" ry="8" style="stroke: #A80036; stroke-width: 1.0;"/><line style="stroke: #A80036; stroke-width: 1.0;" x1="175.5002" x2="175.5" y1="280.0683" y2="264.0683"/><line style="stroke: #A80036; stroke-width: 1.0;" x1="167.5001" x2="183.5001" y1="272.0684" y2="272.0682"/><text fill="#888888" font-family="sans-serif" font-size="10" lengthAdjust="spacingAndGlyphs" textLength="182" x="90.5" y="381.668">UMLDoclet 2.0.7, PlantUML 1.2019.12</text><!--MD5=[c382a940d11149c95abf8b890a09f132]
@startuml
    set namespaceSeparator none
    hide empty fields
    hide empty methods

    class "<size:14>Dosage.DoseAndRate\n<size:10>com.ibm.fhir.model.type" as com.ibm.fhir.model.type.Dosage.DoseAndRate [[Dosage.DoseAndRate.html]] {
        +getType(): CodeableConcept
        +getDose(): Element
        +getRate(): Element
        +hasChildren(): boolean
        +accept(String, int, Visitor): void
        +toBuilder(): Builder
        {static} +builder(): Builder
    }

    abstract class "<size:14>BackboneElement\n<size:10>com.ibm.fhir.model.type" as com.ibm.fhir.model.type.BackboneElement [[BackboneElement.html]] {
        {abstract} +toBuilder(): Builder
    }
    class "<size:14>Dosage\n<size:10>com.ibm.fhir.model.type" as com.ibm.fhir.model.type.Dosage [[Dosage.html]]
    class "<size:14>Dosage.DoseAndRate.Builder\n<size:10>com.ibm.fhir.model.type" as com.ibm.fhir.model.type.Dosage.DoseAndRate.Builder [[Dosage.DoseAndRate.Builder.html]]

    com.ibm.fhir.model.type.BackboneElement <|- - com.ibm.fhir.model.type.Dosage.DoseAndRate
    com.ibm.fhir.model.type.Dosage +- - com.ibm.fhir.model.type.Dosage.DoseAndRate
    com.ibm.fhir.model.type.Dosage.DoseAndRate +- - com.ibm.fhir.model.type.Dosage.DoseAndRate.Builder

    center footer UMLDoclet 2.0.7, PlantUML 1.2019.12
@enduml

PlantUML version 1.2019.12(Sun Nov 03 05:24:54 EST 2019)
(APACHE source distribution)
Java Runtime: OpenJDK Runtime Environment
JVM: OpenJDK 64-Bit Server VM
Java Version: 11.0.4+11
Operating System: Mac OS X
Default Encoding: UTF-8
Language: en
Country: US
--></g></svg>