<?xml version="1.0" encoding="UTF-8" standalone="no"?><svg xmlns="http://www.w3.org/2000/svg" xmlns:xlink="http://www.w3.org/1999/xlink" contentScriptType="application/ecmascript" contentStyleType="text/css" height="408px" preserveAspectRatio="none" style="width:533px;height:408px;" version="1.1" viewBox="0 0 533 408" width="533px" zoomAndPan="magnify"><defs><filter height="300%" id="f1vdfxr90pywq0" width="300%" x="-1" y="-1"><feGaussianBlur result="blurOut" stdDeviation="2.0"/><feColorMatrix in="blurOut" result="blurOut2" type="matrix" values="0 0 0 0 0 0 0 0 0 0 0 0 0 0 0 0 0 0 .4 0"/><feOffset dx="4.0" dy="4.0" in="blurOut2" result="blurOut3"/><feBlend in="SourceGraphic" in2="blurOut3" mode="normal"/></filter></defs><g><!--MD5=[4ac6b9993b42a89880c900e6c0c2485a]
class com.ibm.fhir.model.type.SubstanceAmount--><a href="SubstanceAmount.html" target="_top" title="SubstanceAmount.html" xlink:actuate="onRequest" xlink:href="SubstanceAmount.html" xlink:show="new" xlink:title="SubstanceAmount.html" xlink:type="simple"><rect fill="#FEFECE" filter="url(#f1vdfxr90pywq0)" height="149.9063" id="com.ibm.fhir.model.type.SubstanceAmount" style="stroke: #A80036; stroke-width: 1.5;" width="229" x="134" y="127"/><ellipse cx="181.75" cy="146.1328" fill="#ADD1B2" rx="11" ry="11" style="stroke: #A80036; stroke-width: 1.0;"/><path d="M184.2231,152.2759 Q183.6421,152.5747 183.0029,152.7241 Q182.3638,152.8735 181.6582,152.8735 Q179.1514,152.8735 177.8315,151.2217 Q176.5117,149.5698 176.5117,146.4487 Q176.5117,143.3193 177.8315,141.6675 Q179.1514,140.0156 181.6582,140.0156 Q182.3638,140.0156 183.0112,140.165 Q183.6587,140.3145 184.2231,140.6133 L184.2231,143.3359 Q183.5923,142.7549 182.9988,142.4851 Q182.4053,142.2153 181.7744,142.2153 Q180.4297,142.2153 179.7449,143.282 Q179.0601,144.3486 179.0601,146.4487 Q179.0601,148.5405 179.7449,149.6072 Q180.4297,150.6738 181.7744,150.6738 Q182.4053,150.6738 182.9988,150.4041 Q183.5923,150.1343 184.2231,149.5532 Z "/><text fill="#000000" font-family="sans-serif" font-size="14" lengthAdjust="spacingAndGlyphs" textLength="125" x="202.25" y="145.5352">SubstanceAmount</text><text fill="#000000" font-family="sans-serif" font-size="10" lengthAdjust="spacingAndGlyphs" textLength="118" x="205.75" y="158.1563">com.ibm.fhir.model.type</text><line style="stroke: #A80036; stroke-width: 1.5;" x1="135" x2="362" y1="165.2656" y2="165.2656"/><ellipse cx="145" cy="176.2656" fill="#84BE84" rx="3" ry="3" style="stroke: #038048; stroke-width: 1.0;"/><text fill="#000000" font-family="sans-serif" font-size="11" lengthAdjust="spacingAndGlyphs" textLength="116" x="154" y="179.9004">getAmount(): Element</text><ellipse cx="145" cy="189.2207" fill="#84BE84" rx="3" ry="3" style="stroke: #038048; stroke-width: 1.0;"/><text fill="#000000" font-family="sans-serif" font-size="11" lengthAdjust="spacingAndGlyphs" textLength="195" x="154" y="192.8555">getAmountType(): CodeableConcept</text><ellipse cx="145" cy="202.1758" fill="#84BE84" rx="3" ry="3" style="stroke: #038048; stroke-width: 1.0;"/><text fill="#000000" font-family="sans-serif" font-size="11" lengthAdjust="spacingAndGlyphs" textLength="130" x="154" y="205.8105">getAmountText(): String</text><ellipse cx="145" cy="215.1309" fill="#84BE84" rx="3" ry="3" style="stroke: #038048; stroke-width: 1.0;"/><text fill="#000000" font-family="sans-serif" font-size="11" lengthAdjust="spacingAndGlyphs" textLength="203" x="154" y="218.7656">getReferenceRange(): ReferenceRange</text><ellipse cx="145" cy="228.0859" fill="#84BE84" rx="3" ry="3" style="stroke: #038048; stroke-width: 1.0;"/><text fill="#000000" font-family="sans-serif" font-size="11" lengthAdjust="spacingAndGlyphs" textLength="122" x="154" y="231.7207">hasChildren(): boolean</text><ellipse cx="145" cy="241.041" fill="#84BE84" rx="3" ry="3" style="stroke: #038048; stroke-width: 1.0;"/><text fill="#000000" font-family="sans-serif" font-size="11" lengthAdjust="spacingAndGlyphs" textLength="165" x="154" y="244.6758">accept(String, int, Visitor): void</text><ellipse cx="145" cy="253.9961" fill="#84BE84" rx="3" ry="3" style="stroke: #038048; stroke-width: 1.0;"/><text fill="#000000" font-family="sans-serif" font-size="11" lengthAdjust="spacingAndGlyphs" textLength="99" x="154" y="257.6309">toBuilder(): Builder</text><ellipse cx="145" cy="266.9512" fill="#84BE84" rx="3" ry="3" style="stroke: #038048; stroke-width: 1.0;"/><text fill="#000000" font-family="sans-serif" font-size="11" lengthAdjust="spacingAndGlyphs" text-decoration="underline" textLength="89" x="154" y="270.5859">builder(): Builder</text></a><!--MD5=[efbff6997283c56b83e991a8eeb6a60a]
class com.ibm.fhir.model.type.BackboneElement--><a href="BackboneElement.html" target="_top" title="BackboneElement.html" xlink:actuate="onRequest" xlink:href="BackboneElement.html" xlink:show="new" xlink:title="BackboneElement.html" xlink:type="simple"><rect fill="#FEFECE" filter="url(#f1vdfxr90pywq0)" height="59.2207" id="com.ibm.fhir.model.type.BackboneElement" style="stroke: #A80036; stroke-width: 1.5;" width="153" x="172" y="8"/><ellipse cx="187" cy="27.1328" fill="#A9DCDF" rx="11" ry="11" style="stroke: #A80036; stroke-width: 1.0;"/><path d="M187.1133,22.731 L185.9595,27.8027 L188.2754,27.8027 Z M185.6191,20.4897 L188.6157,20.4897 L191.9609,32.8828 L189.5122,32.8828 L188.7485,29.8198 L185.4697,29.8198 L184.7227,32.8828 L182.2739,32.8828 Z "/><text fill="#000000" font-family="sans-serif" font-size="14" font-style="italic" lengthAdjust="spacingAndGlyphs" textLength="121" x="201" y="26.5352">BackboneElement</text><text fill="#000000" font-family="sans-serif" font-size="10" font-style="italic" lengthAdjust="spacingAndGlyphs" textLength="118" x="202.5" y="39.1563">com.ibm.fhir.model.type</text><line style="stroke: #A80036; stroke-width: 1.5;" x1="173" x2="324" y1="46.2656" y2="46.2656"/><ellipse cx="183" cy="57.2656" fill="#84BE84" rx="3" ry="3" style="stroke: #038048; stroke-width: 1.0;"/><text fill="#000000" font-family="sans-serif" font-size="11" font-style="italic" lengthAdjust="spacingAndGlyphs" textLength="99" x="192" y="60.9004">toBuilder(): Builder</text></a><!--MD5=[0e300e416f8d38c1bc8fa81ec53967f8]
class com.ibm.fhir.model.type.SubstanceAmount.Builder--><a href="SubstanceAmount.Builder.html" target="_top" title="SubstanceAmount.Builder.html" xlink:actuate="onRequest" xlink:href="SubstanceAmount.Builder.html" xlink:show="new" xlink:title="SubstanceAmount.Builder.html" xlink:type="simple"><rect fill="#FEFECE" filter="url(#f1vdfxr90pywq0)" height="38.2656" id="com.ibm.fhir.model.type.SubstanceAmount.Builder" style="stroke: #A80036; stroke-width: 1.5;" width="209" x="6" y="337"/><ellipse cx="21" cy="356.1328" fill="#ADD1B2" rx="11" ry="11" style="stroke: #A80036; stroke-width: 1.0;"/><path d="M23.4731,362.2759 Q22.8921,362.5747 22.2529,362.7241 Q21.6138,362.8735 20.9082,362.8735 Q18.4014,362.8735 17.0815,361.2217 Q15.7617,359.5698 15.7617,356.4487 Q15.7617,353.3193 17.0815,351.6675 Q18.4014,350.0156 20.9082,350.0156 Q21.6138,350.0156 22.2612,350.165 Q22.9087,350.3145 23.4731,350.6133 L23.4731,353.3359 Q22.8423,352.7549 22.2488,352.4851 Q21.6553,352.2153 21.0244,352.2153 Q19.6797,352.2153 18.9949,353.282 Q18.3101,354.3486 18.3101,356.4487 Q18.3101,358.5405 18.9949,359.6072 Q19.6797,360.6738 21.0244,360.6738 Q21.6553,360.6738 22.2488,360.4041 Q22.8423,360.1343 23.4731,359.5532 Z "/><text fill="#000000" font-family="sans-serif" font-size="14" lengthAdjust="spacingAndGlyphs" textLength="177" x="35" y="355.5352">SubstanceAmount.Builder</text><text fill="#000000" font-family="sans-serif" font-size="10" lengthAdjust="spacingAndGlyphs" textLength="118" x="64.5" y="368.1563">com.ibm.fhir.model.type</text></a><!--MD5=[25d03b92b9932b168ed7c77639a9cfcd]
class com.ibm.fhir.model.type.SubstanceAmount.ReferenceRange--><a href="SubstanceAmount.ReferenceRange.html" target="_top" title="SubstanceAmount.ReferenceRange.html" xlink:actuate="onRequest" xlink:href="SubstanceAmount.ReferenceRange.html" xlink:show="new" xlink:title="SubstanceAmount.ReferenceRange.html" xlink:type="simple"><rect fill="#FEFECE" filter="url(#f1vdfxr90pywq0)" height="38.2656" id="com.ibm.fhir.model.type.SubstanceAmount.ReferenceRange" style="stroke: #A80036; stroke-width: 1.5;" width="272" x="250.5" y="337"/><ellipse cx="265.5" cy="356.1328" fill="#ADD1B2" rx="11" ry="11" style="stroke: #A80036; stroke-width: 1.0;"/><path d="M267.9731,362.2759 Q267.3921,362.5747 266.7529,362.7241 Q266.1138,362.8735 265.4082,362.8735 Q262.9014,362.8735 261.5815,361.2217 Q260.2617,359.5698 260.2617,356.4487 Q260.2617,353.3193 261.5815,351.6675 Q262.9014,350.0156 265.4082,350.0156 Q266.1138,350.0156 266.7612,350.165 Q267.4087,350.3145 267.9731,350.6133 L267.9731,353.3359 Q267.3423,352.7549 266.7488,352.4851 Q266.1553,352.2153 265.5244,352.2153 Q264.1797,352.2153 263.4949,353.282 Q262.8101,354.3486 262.8101,356.4487 Q262.8101,358.5405 263.4949,359.6072 Q264.1797,360.6738 265.5244,360.6738 Q266.1553,360.6738 266.7488,360.4041 Q267.3423,360.1343 267.9731,359.5532 Z "/><text fill="#000000" font-family="sans-serif" font-size="14" lengthAdjust="spacingAndGlyphs" textLength="240" x="279.5" y="355.5352">SubstanceAmount.ReferenceRange</text><text fill="#000000" font-family="sans-serif" font-size="10" lengthAdjust="spacingAndGlyphs" textLength="118" x="340.5" y="368.1563">com.ibm.fhir.model.type</text></a><!--MD5=[28e8e0006ab29a66ce91ec5c95ea53f7]
reverse link com.ibm.fhir.model.type.BackboneElement to com.ibm.fhir.model.type.SubstanceAmount--><path d="M248.5,87.4887 C248.5,99.9313 248.5,113.5446 248.5,126.9041 " fill="none" id="com.ibm.fhir.model.type.BackboneElement&lt;-com.ibm.fhir.model.type.SubstanceAmount" style="stroke: #A80036; stroke-width: 1.0;"/><polygon fill="none" points="241.5001,87.2897,248.5,67.2897,255.5001,87.2897,241.5001,87.2897" style="stroke: #A80036; stroke-width: 1.0;"/><!--MD5=[b00caca82c8b3927eb960edbf25b7d7f]
reverse link com.ibm.fhir.model.type.SubstanceAmount to com.ibm.fhir.model.type.SubstanceAmount.Builder--><path d="M170.9038,288.5928 C154.5825,306.8065 138.9129,324.2929 127.6249,336.8895 " fill="none" id="com.ibm.fhir.model.type.SubstanceAmount&lt;-com.ibm.fhir.model.type.SubstanceAmount.Builder" style="stroke: #A80036; stroke-width: 1.0;"/><ellipse cx="175.7782" cy="283.1534" fill="#FFFFFF" rx="8" ry="8" style="stroke: #A80036; stroke-width: 1.0;"/><line style="stroke: #A80036; stroke-width: 1.0;" x1="170.4393" x2="181.1171" y1="289.1112" y2="277.1955"/><line style="stroke: #A80036; stroke-width: 1.0;" x1="169.8203" x2="181.7361" y1="277.8145" y2="288.4923"/><!--MD5=[4c7715dbb3ed91331abdcc60c307588d]
reverse link com.ibm.fhir.model.type.SubstanceAmount to com.ibm.fhir.model.type.SubstanceAmount.ReferenceRange--><path d="M326.0962,288.5928 C342.4175,306.8065 358.0871,324.2929 369.3751,336.8895 " fill="none" id="com.ibm.fhir.model.type.SubstanceAmount&lt;-com.ibm.fhir.model.type.SubstanceAmount.ReferenceRange" style="stroke: #A80036; stroke-width: 1.0;"/><ellipse cx="321.2218" cy="283.1534" fill="#FFFFFF" rx="8" ry="8" style="stroke: #A80036; stroke-width: 1.0;"/><line style="stroke: #A80036; stroke-width: 1.0;" x1="326.5607" x2="315.8829" y1="289.1112" y2="277.1955"/><line style="stroke: #A80036; stroke-width: 1.0;" x1="315.2639" x2="327.1797" y1="288.4923" y2="277.8145"/><text fill="#888888" font-family="sans-serif" font-size="10" lengthAdjust="spacingAndGlyphs" textLength="182" x="179.5" y="394.668">UMLDoclet 2.0.7, PlantUML 1.2019.12</text><!--MD5=[056d982920d7c1a607fafe422de80df9]
@startuml
    set namespaceSeparator none
    hide empty fields
    hide empty methods

    class "<size:14>SubstanceAmount\n<size:10>com.ibm.fhir.model.type" as com.ibm.fhir.model.type.SubstanceAmount [[SubstanceAmount.html]] {
        +getAmount(): Element
        +getAmountType(): CodeableConcept
        +getAmountText(): String
        +getReferenceRange(): ReferenceRange
        +hasChildren(): boolean
        +accept(String, int, Visitor): void
        +toBuilder(): Builder
        {static} +builder(): Builder
    }

    abstract class "<size:14>BackboneElement\n<size:10>com.ibm.fhir.model.type" as com.ibm.fhir.model.type.BackboneElement [[BackboneElement.html]] {
        {abstract} +toBuilder(): Builder
    }
    class "<size:14>SubstanceAmount.Builder\n<size:10>com.ibm.fhir.model.type" as com.ibm.fhir.model.type.SubstanceAmount.Builder [[SubstanceAmount.Builder.html]]
    class "<size:14>SubstanceAmount.ReferenceRange\n<size:10>com.ibm.fhir.model.type" as com.ibm.fhir.model.type.SubstanceAmount.ReferenceRange [[SubstanceAmount.ReferenceRange.html]]

    com.ibm.fhir.model.type.BackboneElement <|- - com.ibm.fhir.model.type.SubstanceAmount
    com.ibm.fhir.model.type.SubstanceAmount +- - com.ibm.fhir.model.type.SubstanceAmount.Builder
    com.ibm.fhir.model.type.SubstanceAmount +- - com.ibm.fhir.model.type.SubstanceAmount.ReferenceRange

    center footer UMLDoclet 2.0.7, PlantUML 1.2019.12
@enduml

PlantUML version 1.2019.12(Sun Nov 03 05:24:54 EST 2019)
(APACHE source distribution)
Java Runtime: OpenJDK Runtime Environment
JVM: OpenJDK 64-Bit Server VM
Java Version: 11.0.4+11
Operating System: Mac OS X
Default Encoding: UTF-8
Language: en
Country: US
--></g></svg>