<?xml version="1.0" encoding="UTF-8" standalone="no"?><svg xmlns="http://www.w3.org/2000/svg" xmlns:xlink="http://www.w3.org/1999/xlink" contentScriptType="application/ecmascript" contentStyleType="text/css" height="521px" preserveAspectRatio="none" style="width:5442px;height:521px;" version="1.1" viewBox="0 0 5442 521" width="5442px" zoomAndPan="magnify"><defs><filter height="300%" id="f1emde9joto6cm" width="300%" x="-1" y="-1"><feGaussianBlur result="blurOut" stdDeviation="2.0"/><feColorMatrix in="blurOut" result="blurOut2" type="matrix" values="0 0 0 0 0 0 0 0 0 0 0 0 0 0 0 0 0 0 .4 0"/><feOffset dx="4.0" dy="4.0" in="blurOut2" result="blurOut3"/><feBlend in="SourceGraphic" in2="blurOut3" mode="normal"/></filter></defs><g><!--MD5=[acfd4dc76c61bb3e03b5b0ff2abd73dc]
cluster com.ibm.fhir.operation.term--><polygon fill="#FFFFFF" filter="url(#f1emde9joto6cm)" points="14,162,241,162,248,184.2969,5420,184.2969,5420,481,14,481,14,162" style="stroke: #000000; stroke-width: 1.5;"/><line style="stroke: #000000; stroke-width: 1.5;" x1="14" x2="248" y1="184.2969" y2="184.2969"/><text fill="#000000" font-family="sans-serif" font-size="14" font-weight="bold" lengthAdjust="spacingAndGlyphs" textLength="221" x="18" y="176.9951">com.ibm.fhir.operation.term</text><!--MD5=[5c87acdb41b397a941b5e83f788ab09f]
cluster com.ibm.fhir.server.operation.spi--><polygon fill="#FFFFFF" filter="url(#f1emde9joto6cm)" points="2340,16,2610,16,2617,38.2969,3094,38.2969,3094,137,2340,137,2340,16" style="stroke: #000000; stroke-width: 1.5;"/><line style="stroke: #000000; stroke-width: 1.5;" x1="2340" x2="2617" y1="38.2969" y2="38.2969"/><text fill="#000000" font-family="sans-serif" font-size="14" font-weight="bold" lengthAdjust="spacingAndGlyphs" textLength="264" x="2344" y="30.9951">com.ibm.fhir.server.operation.spi</text><!--MD5=[ccff1167ca37f9a63cba2fbf7ec57642]
class com.ibm.fhir.operation.term.ExpandOperation--><a href="ExpandOperation.html" target="_top" title="ExpandOperation.html" xlink:actuate="onRequest" xlink:href="ExpandOperation.html" xlink:show="new" xlink:title="ExpandOperation.html" xlink:type="simple"><rect fill="#FEFECE" filter="url(#f1emde9joto6cm)" height="73.6094" id="com.ibm.fhir.operation.term.ExpandOperation" style="stroke: #A80036; stroke-width: 1.5;" width="740" x="22" y="399"/><ellipse cx="333.75" cy="415" fill="#ADD1B2" rx="11" ry="11" style="stroke: #A80036; stroke-width: 1.0;"/><path d="M336.7188,420.6406 Q336.1406,420.9375 335.5,421.0781 Q334.8594,421.2344 334.1563,421.2344 Q331.6563,421.2344 330.3281,419.5938 Q329.0156,417.9375 329.0156,414.8125 Q329.0156,411.6875 330.3281,410.0313 Q331.6563,408.375 334.1563,408.375 Q334.8594,408.375 335.5,408.5313 Q336.1563,408.6875 336.7188,408.9844 L336.7188,411.7031 Q336.0938,411.125 335.5,410.8594 Q334.9063,410.5781 334.2813,410.5781 Q332.9375,410.5781 332.25,411.6563 Q331.5625,412.7188 331.5625,414.8125 Q331.5625,416.9063 332.25,417.9844 Q332.9375,419.0469 334.2813,419.0469 Q334.9063,419.0469 335.5,418.7813 Q336.0938,418.5 336.7188,417.9219 L336.7188,420.6406 Z "/><text fill="#000000" font-family="sans-serif" font-size="12" lengthAdjust="spacingAndGlyphs" textLength="108" x="354.25" y="419.1543">ExpandOperation</text><line style="stroke: #A80036; stroke-width: 1.5;" x1="23" x2="761" y1="431" y2="431"/><line style="stroke: #A80036; stroke-width: 1.5;" x1="23" x2="761" y1="439" y2="439"/><polygon fill="#FFFF44" points="33,445,37,449,33,453,29,449" style="stroke: #B38D22; stroke-width: 1.0;"/><text fill="#000000" font-family="sans-serif" font-size="11" lengthAdjust="spacingAndGlyphs" textLength="261" x="42" y="453.2104">buildOperationDefinition(): OperationDefinition</text><polygon fill="#FFFF44" points="33,457.8047,37,461.8047,33,465.8047,29,461.8047" style="stroke: #B38D22; stroke-width: 1.0;"/><text fill="#000000" font-family="sans-serif" font-size="11" lengthAdjust="spacingAndGlyphs" textLength="714" x="42" y="466.0151">doInvoke(FHIROperationContext, Class&lt;? extends Resource&gt;, String, String, Parameters, FHIRResourceHelpers): Parameters</text></a><!--MD5=[2cc369d231e380751bd564025422ff16]
class com.ibm.fhir.operation.term.SubsumesOperation--><a href="SubsumesOperation.html" target="_top" title="SubsumesOperation.html" xlink:actuate="onRequest" xlink:href="SubsumesOperation.html" xlink:show="new" xlink:title="SubsumesOperation.html" xlink:type="simple"><rect fill="#FEFECE" filter="url(#f1emde9joto6cm)" height="73.6094" id="com.ibm.fhir.operation.term.SubsumesOperation" style="stroke: #A80036; stroke-width: 1.5;" width="740" x="797" y="399"/><ellipse cx="1099.25" cy="415" fill="#ADD1B2" rx="11" ry="11" style="stroke: #A80036; stroke-width: 1.0;"/><path d="M1102.2188,420.6406 Q1101.6406,420.9375 1101,421.0781 Q1100.3594,421.2344 1099.6563,421.2344 Q1097.1563,421.2344 1095.8281,419.5938 Q1094.5156,417.9375 1094.5156,414.8125 Q1094.5156,411.6875 1095.8281,410.0313 Q1097.1563,408.375 1099.6563,408.375 Q1100.3594,408.375 1101,408.5313 Q1101.6563,408.6875 1102.2188,408.9844 L1102.2188,411.7031 Q1101.5938,411.125 1101,410.8594 Q1100.4063,410.5781 1099.7813,410.5781 Q1098.4375,410.5781 1097.75,411.6563 Q1097.0625,412.7188 1097.0625,414.8125 Q1097.0625,416.9063 1097.75,417.9844 Q1098.4375,419.0469 1099.7813,419.0469 Q1100.4063,419.0469 1101,418.7813 Q1101.5938,418.5 1102.2188,417.9219 L1102.2188,420.6406 Z "/><text fill="#000000" font-family="sans-serif" font-size="12" lengthAdjust="spacingAndGlyphs" textLength="127" x="1119.75" y="419.1543">SubsumesOperation</text><line style="stroke: #A80036; stroke-width: 1.5;" x1="798" x2="1536" y1="431" y2="431"/><line style="stroke: #A80036; stroke-width: 1.5;" x1="798" x2="1536" y1="439" y2="439"/><polygon fill="#FFFF44" points="808,445,812,449,808,453,804,449" style="stroke: #B38D22; stroke-width: 1.0;"/><text fill="#000000" font-family="sans-serif" font-size="11" lengthAdjust="spacingAndGlyphs" textLength="261" x="817" y="453.2104">buildOperationDefinition(): OperationDefinition</text><polygon fill="#FFFF44" points="808,457.8047,812,461.8047,808,465.8047,804,461.8047" style="stroke: #B38D22; stroke-width: 1.0;"/><text fill="#000000" font-family="sans-serif" font-size="11" lengthAdjust="spacingAndGlyphs" textLength="714" x="817" y="466.0151">doInvoke(FHIROperationContext, Class&lt;? extends Resource&gt;, String, String, Parameters, FHIRResourceHelpers): Parameters</text></a><!--MD5=[1b524dadc69ed3ab96cb5278fb17fbf6]
class com.ibm.fhir.operation.term.TranslateOperation--><a href="TranslateOperation.html" target="_top" title="TranslateOperation.html" xlink:actuate="onRequest" xlink:href="TranslateOperation.html" xlink:show="new" xlink:title="TranslateOperation.html" xlink:type="simple"><rect fill="#FEFECE" filter="url(#f1emde9joto6cm)" height="73.6094" id="com.ibm.fhir.operation.term.TranslateOperation" style="stroke: #A80036; stroke-width: 1.5;" width="740" x="1572" y="399"/><ellipse cx="1877.25" cy="415" fill="#ADD1B2" rx="11" ry="11" style="stroke: #A80036; stroke-width: 1.0;"/><path d="M1880.2188,420.6406 Q1879.6406,420.9375 1879,421.0781 Q1878.3594,421.2344 1877.6563,421.2344 Q1875.1563,421.2344 1873.8281,419.5938 Q1872.5156,417.9375 1872.5156,414.8125 Q1872.5156,411.6875 1873.8281,410.0313 Q1875.1563,408.375 1877.6563,408.375 Q1878.3594,408.375 1879,408.5313 Q1879.6563,408.6875 1880.2188,408.9844 L1880.2188,411.7031 Q1879.5938,411.125 1879,410.8594 Q1878.4063,410.5781 1877.7813,410.5781 Q1876.4375,410.5781 1875.75,411.6563 Q1875.0625,412.7188 1875.0625,414.8125 Q1875.0625,416.9063 1875.75,417.9844 Q1876.4375,419.0469 1877.7813,419.0469 Q1878.4063,419.0469 1879,418.7813 Q1879.5938,418.5 1880.2188,417.9219 L1880.2188,420.6406 Z "/><text fill="#000000" font-family="sans-serif" font-size="12" lengthAdjust="spacingAndGlyphs" textLength="121" x="1897.75" y="419.1543">TranslateOperation</text><line style="stroke: #A80036; stroke-width: 1.5;" x1="1573" x2="2311" y1="431" y2="431"/><line style="stroke: #A80036; stroke-width: 1.5;" x1="1573" x2="2311" y1="439" y2="439"/><polygon fill="#FFFF44" points="1583,445,1587,449,1583,453,1579,449" style="stroke: #B38D22; stroke-width: 1.0;"/><text fill="#000000" font-family="sans-serif" font-size="11" lengthAdjust="spacingAndGlyphs" textLength="261" x="1592" y="453.2104">buildOperationDefinition(): OperationDefinition</text><polygon fill="#FFFF44" points="1583,457.8047,1587,461.8047,1583,465.8047,1579,461.8047" style="stroke: #B38D22; stroke-width: 1.0;"/><text fill="#000000" font-family="sans-serif" font-size="11" lengthAdjust="spacingAndGlyphs" textLength="714" x="1592" y="466.0151">doInvoke(FHIROperationContext, Class&lt;? extends Resource&gt;, String, String, Parameters, FHIRResourceHelpers): Parameters</text></a><!--MD5=[f51907d2fd1f8433ee4a8f4ec58ab4c3]
class com.ibm.fhir.operation.term.ClosureOperation--><a href="ClosureOperation.html" target="_top" title="ClosureOperation.html" xlink:actuate="onRequest" xlink:href="ClosureOperation.html" xlink:show="new" xlink:title="ClosureOperation.html" xlink:type="simple"><rect fill="#FEFECE" filter="url(#f1emde9joto6cm)" height="73.6094" id="com.ibm.fhir.operation.term.ClosureOperation" style="stroke: #A80036; stroke-width: 1.5;" width="740" x="2347" y="399"/><ellipse cx="2658.25" cy="415" fill="#ADD1B2" rx="11" ry="11" style="stroke: #A80036; stroke-width: 1.0;"/><path d="M2661.2188,420.6406 Q2660.6406,420.9375 2660,421.0781 Q2659.3594,421.2344 2658.6563,421.2344 Q2656.1563,421.2344 2654.8281,419.5938 Q2653.5156,417.9375 2653.5156,414.8125 Q2653.5156,411.6875 2654.8281,410.0313 Q2656.1563,408.375 2658.6563,408.375 Q2659.3594,408.375 2660,408.5313 Q2660.6563,408.6875 2661.2188,408.9844 L2661.2188,411.7031 Q2660.5938,411.125 2660,410.8594 Q2659.4063,410.5781 2658.7813,410.5781 Q2657.4375,410.5781 2656.75,411.6563 Q2656.0625,412.7188 2656.0625,414.8125 Q2656.0625,416.9063 2656.75,417.9844 Q2657.4375,419.0469 2658.7813,419.0469 Q2659.4063,419.0469 2660,418.7813 Q2660.5938,418.5 2661.2188,417.9219 L2661.2188,420.6406 Z "/><text fill="#000000" font-family="sans-serif" font-size="12" lengthAdjust="spacingAndGlyphs" textLength="109" x="2678.75" y="419.1543">ClosureOperation</text><line style="stroke: #A80036; stroke-width: 1.5;" x1="2348" x2="3086" y1="431" y2="431"/><line style="stroke: #A80036; stroke-width: 1.5;" x1="2348" x2="3086" y1="439" y2="439"/><polygon fill="#FFFF44" points="2358,445,2362,449,2358,453,2354,449" style="stroke: #B38D22; stroke-width: 1.0;"/><text fill="#000000" font-family="sans-serif" font-size="11" lengthAdjust="spacingAndGlyphs" textLength="261" x="2367" y="453.2104">buildOperationDefinition(): OperationDefinition</text><polygon fill="#FFFF44" points="2358,457.8047,2362,461.8047,2358,465.8047,2354,461.8047" style="stroke: #B38D22; stroke-width: 1.0;"/><text fill="#000000" font-family="sans-serif" font-size="11" lengthAdjust="spacingAndGlyphs" textLength="714" x="2367" y="466.0151">doInvoke(FHIROperationContext, Class&lt;? extends Resource&gt;, String, String, Parameters, FHIRResourceHelpers): Parameters</text></a><!--MD5=[c129debf7c109d64197c3c3f1481b9f6]
class com.ibm.fhir.operation.term.ValueSetValidateCodeOperation--><a href="ValueSetValidateCodeOperation.html" target="_top" title="ValueSetValidateCodeOperation.html" xlink:actuate="onRequest" xlink:href="ValueSetValidateCodeOperation.html" xlink:show="new" xlink:title="ValueSetValidateCodeOperation.html" xlink:type="simple"><rect fill="#FEFECE" filter="url(#f1emde9joto6cm)" height="73.6094" id="com.ibm.fhir.operation.term.ValueSetValidateCodeOperation" style="stroke: #A80036; stroke-width: 1.5;" width="740" x="3122" y="399"/><ellipse cx="3387.25" cy="415" fill="#ADD1B2" rx="11" ry="11" style="stroke: #A80036; stroke-width: 1.0;"/><path d="M3390.2188,420.6406 Q3389.6406,420.9375 3389,421.0781 Q3388.3594,421.2344 3387.6563,421.2344 Q3385.1563,421.2344 3383.8281,419.5938 Q3382.5156,417.9375 3382.5156,414.8125 Q3382.5156,411.6875 3383.8281,410.0313 Q3385.1563,408.375 3387.6563,408.375 Q3388.3594,408.375 3389,408.5313 Q3389.6563,408.6875 3390.2188,408.9844 L3390.2188,411.7031 Q3389.5938,411.125 3389,410.8594 Q3388.4063,410.5781 3387.7813,410.5781 Q3386.4375,410.5781 3385.75,411.6563 Q3385.0625,412.7188 3385.0625,414.8125 Q3385.0625,416.9063 3385.75,417.9844 Q3386.4375,419.0469 3387.7813,419.0469 Q3388.4063,419.0469 3389,418.7813 Q3389.5938,418.5 3390.2188,417.9219 L3390.2188,420.6406 Z "/><text fill="#000000" font-family="sans-serif" font-size="12" lengthAdjust="spacingAndGlyphs" textLength="201" x="3407.75" y="419.1543">ValueSetValidateCodeOperation</text><line style="stroke: #A80036; stroke-width: 1.5;" x1="3123" x2="3861" y1="431" y2="431"/><line style="stroke: #A80036; stroke-width: 1.5;" x1="3123" x2="3861" y1="439" y2="439"/><polygon fill="#FFFF44" points="3133,445,3137,449,3133,453,3129,449" style="stroke: #B38D22; stroke-width: 1.0;"/><text fill="#000000" font-family="sans-serif" font-size="11" lengthAdjust="spacingAndGlyphs" textLength="261" x="3142" y="453.2104">buildOperationDefinition(): OperationDefinition</text><polygon fill="#FFFF44" points="3133,457.8047,3137,461.8047,3133,465.8047,3129,461.8047" style="stroke: #B38D22; stroke-width: 1.0;"/><text fill="#000000" font-family="sans-serif" font-size="11" lengthAdjust="spacingAndGlyphs" textLength="714" x="3142" y="466.0151">doInvoke(FHIROperationContext, Class&lt;? extends Resource&gt;, String, String, Parameters, FHIRResourceHelpers): Parameters</text></a><!--MD5=[d4354e022eaa3a1888c6cd281d27a185]
class com.ibm.fhir.operation.term.AbstractTermOperation--><a href="AbstractTermOperation.html" target="_top" title="AbstractTermOperation.html" xlink:actuate="onRequest" xlink:href="AbstractTermOperation.html" xlink:show="new" xlink:title="AbstractTermOperation.html" xlink:type="simple"><rect fill="#FEFECE" filter="url(#f1emde9joto6cm)" height="150.4375" id="com.ibm.fhir.operation.term.AbstractTermOperation" style="stroke: #A80036; stroke-width: 1.5;" width="766" x="2334" y="189"/><ellipse cx="2640.75" cy="205" fill="#A9DCDF" rx="11" ry="11" style="stroke: #A80036; stroke-width: 1.0;"/><path d="M2640.8594,200.3438 L2639.7031,205.4219 L2642.0313,205.4219 L2640.8594,200.3438 Z M2639.375,198.1094 L2642.3594,198.1094 L2645.7188,210.5 L2643.2656,210.5 L2642.5,207.4375 L2639.2188,207.4375 L2638.4688,210.5 L2636.0313,210.5 L2639.375,198.1094 Z "/><text fill="#000000" font-family="sans-serif" font-size="12" font-style="italic" lengthAdjust="spacingAndGlyphs" textLength="144" x="2661.25" y="209.1543">AbstractTermOperation</text><line style="stroke: #A80036; stroke-width: 1.5;" x1="2335" x2="3099" y1="221" y2="221"/><polygon fill="none" points="2345,227,2349,231,2345,235,2341,231" style="stroke: #B38D22; stroke-width: 1.0;"/><text fill="#000000" font-family="sans-serif" font-size="11" lengthAdjust="spacingAndGlyphs" textLength="145" x="2354" y="235.2104">service: FHIRTermService</text><line style="stroke: #A80036; stroke-width: 1.5;" x1="2335" x2="3099" y1="241.8047" y2="241.8047"/><polygon fill="#FFFF44" points="2345,247.8047,2349,251.8047,2345,255.8047,2341,251.8047" style="stroke: #B38D22; stroke-width: 1.0;"/><text fill="#000000" font-family="sans-serif" font-size="11" font-style="italic" lengthAdjust="spacingAndGlyphs" textLength="261" x="2354" y="256.0151">buildOperationDefinition(): OperationDefinition</text><polygon fill="#FFFF44" points="2345,260.6094,2349,264.6094,2345,268.6094,2341,264.6094" style="stroke: #B38D22; stroke-width: 1.0;"/><text fill="#000000" font-family="sans-serif" font-size="11" font-style="italic" lengthAdjust="spacingAndGlyphs" textLength="711" x="2354" y="268.8198">doInvoke(FHIROperationContext, Class&lt;? extends Resource&gt;, String, String, Parameters, FHIRResourceHelpers): Parameters</text><polygon fill="#FFFF44" points="2345,273.4141,2349,277.4141,2345,281.4141,2341,277.4141" style="stroke: #B38D22; stroke-width: 1.0;"/><text fill="#000000" font-family="sans-serif" font-size="11" lengthAdjust="spacingAndGlyphs" textLength="740" x="2354" y="281.6245">getResource(FHIROperationContext, String, Parameters, FHIRResourceHelpers, Class&lt;T extends Resource&gt;): T extends Resource</text><polygon fill="#FFFF44" points="2345,286.2188,2349,290.2188,2345,294.2188,2341,290.2188" style="stroke: #B38D22; stroke-width: 1.0;"/><text fill="#000000" font-family="sans-serif" font-size="11" lengthAdjust="spacingAndGlyphs" textLength="355" x="2354" y="294.4292">getCodedElement(Parameters, String, String, String): Element</text><polygon fill="#FFFF44" points="2345,299.0234,2349,303.0234,2345,307.0234,2341,303.0234" style="stroke: #B38D22; stroke-width: 1.0;"/><text fill="#000000" font-family="sans-serif" font-size="11" lengthAdjust="spacingAndGlyphs" textLength="408" x="2354" y="307.2339">getCodedElement(Parameters, String, String, String, boolean): Element</text><polygon fill="#FFFF44" points="2345,311.8281,2349,315.8281,2345,319.8281,2341,315.8281" style="stroke: #B38D22; stroke-width: 1.0;"/><text fill="#000000" font-family="sans-serif" font-size="11" lengthAdjust="spacingAndGlyphs" textLength="263" x="2354" y="320.0386">getCoding(Parameters, String, String): Coding</text><polygon fill="#FFFF44" points="2345,324.6328,2349,328.6328,2345,332.6328,2341,328.6328" style="stroke: #B38D22; stroke-width: 1.0;"/><text fill="#000000" font-family="sans-serif" font-size="11" lengthAdjust="spacingAndGlyphs" textLength="316" x="2354" y="332.8433">getCoding(Parameters, String, String, boolean): Coding</text></a><!--MD5=[cc9467542fd46d83c3b9952a398dbf1f]
class com.ibm.fhir.operation.term.LookupOperation--><a href="LookupOperation.html" target="_top" title="LookupOperation.html" xlink:actuate="onRequest" xlink:href="LookupOperation.html" xlink:show="new" xlink:title="LookupOperation.html" xlink:type="simple"><rect fill="#FEFECE" filter="url(#f1emde9joto6cm)" height="73.6094" id="com.ibm.fhir.operation.term.LookupOperation" style="stroke: #A80036; stroke-width: 1.5;" width="740" x="3897" y="399"/><ellipse cx="4209.25" cy="415" fill="#ADD1B2" rx="11" ry="11" style="stroke: #A80036; stroke-width: 1.0;"/><path d="M4212.2188,420.6406 Q4211.6406,420.9375 4211,421.0781 Q4210.3594,421.2344 4209.6563,421.2344 Q4207.1563,421.2344 4205.8281,419.5938 Q4204.5156,417.9375 4204.5156,414.8125 Q4204.5156,411.6875 4205.8281,410.0313 Q4207.1563,408.375 4209.6563,408.375 Q4210.3594,408.375 4211,408.5313 Q4211.6563,408.6875 4212.2188,408.9844 L4212.2188,411.7031 Q4211.5938,411.125 4211,410.8594 Q4210.4063,410.5781 4209.7813,410.5781 Q4208.4375,410.5781 4207.75,411.6563 Q4207.0625,412.7188 4207.0625,414.8125 Q4207.0625,416.9063 4207.75,417.9844 Q4208.4375,419.0469 4209.7813,419.0469 Q4210.4063,419.0469 4211,418.7813 Q4211.5938,418.5 4212.2188,417.9219 L4212.2188,420.6406 Z "/><text fill="#000000" font-family="sans-serif" font-size="12" lengthAdjust="spacingAndGlyphs" textLength="107" x="4229.75" y="419.1543">LookupOperation</text><line style="stroke: #A80036; stroke-width: 1.5;" x1="3898" x2="4636" y1="431" y2="431"/><line style="stroke: #A80036; stroke-width: 1.5;" x1="3898" x2="4636" y1="439" y2="439"/><polygon fill="#FFFF44" points="3908,445,3912,449,3908,453,3904,449" style="stroke: #B38D22; stroke-width: 1.0;"/><text fill="#000000" font-family="sans-serif" font-size="11" lengthAdjust="spacingAndGlyphs" textLength="261" x="3917" y="453.2104">buildOperationDefinition(): OperationDefinition</text><polygon fill="#FFFF44" points="3908,457.8047,3912,461.8047,3908,465.8047,3904,461.8047" style="stroke: #B38D22; stroke-width: 1.0;"/><text fill="#000000" font-family="sans-serif" font-size="11" lengthAdjust="spacingAndGlyphs" textLength="714" x="3917" y="466.0151">doInvoke(FHIROperationContext, Class&lt;? extends Resource&gt;, String, String, Parameters, FHIRResourceHelpers): Parameters</text></a><!--MD5=[30e02ced4105638e8b859411d66b61b2]
class com.ibm.fhir.operation.term.CodeSystemValidateCodeOperation--><a href="CodeSystemValidateCodeOperation.html" target="_top" title="CodeSystemValidateCodeOperation.html" xlink:actuate="onRequest" xlink:href="CodeSystemValidateCodeOperation.html" xlink:show="new" xlink:title="CodeSystemValidateCodeOperation.html" xlink:type="simple"><rect fill="#FEFECE" filter="url(#f1emde9joto6cm)" height="73.6094" id="com.ibm.fhir.operation.term.CodeSystemValidateCodeOperation" style="stroke: #A80036; stroke-width: 1.5;" width="740" x="4672" y="399"/><ellipse cx="4926.75" cy="415" fill="#ADD1B2" rx="11" ry="11" style="stroke: #A80036; stroke-width: 1.0;"/><path d="M4929.7188,420.6406 Q4929.1406,420.9375 4928.5,421.0781 Q4927.8594,421.2344 4927.1563,421.2344 Q4924.6563,421.2344 4923.3281,419.5938 Q4922.0156,417.9375 4922.0156,414.8125 Q4922.0156,411.6875 4923.3281,410.0313 Q4924.6563,408.375 4927.1563,408.375 Q4927.8594,408.375 4928.5,408.5313 Q4929.1563,408.6875 4929.7188,408.9844 L4929.7188,411.7031 Q4929.0938,411.125 4928.5,410.8594 Q4927.9063,410.5781 4927.2813,410.5781 Q4925.9375,410.5781 4925.25,411.6563 Q4924.5625,412.7188 4924.5625,414.8125 Q4924.5625,416.9063 4925.25,417.9844 Q4925.9375,419.0469 4927.2813,419.0469 Q4927.9063,419.0469 4928.5,418.7813 Q4929.0938,418.5 4929.7188,417.9219 L4929.7188,420.6406 Z "/><text fill="#000000" font-family="sans-serif" font-size="12" lengthAdjust="spacingAndGlyphs" textLength="222" x="4947.25" y="419.1543">CodeSystemValidateCodeOperation</text><line style="stroke: #A80036; stroke-width: 1.5;" x1="4673" x2="5411" y1="431" y2="431"/><line style="stroke: #A80036; stroke-width: 1.5;" x1="4673" x2="5411" y1="439" y2="439"/><polygon fill="#FFFF44" points="4683,445,4687,449,4683,453,4679,449" style="stroke: #B38D22; stroke-width: 1.0;"/><text fill="#000000" font-family="sans-serif" font-size="11" lengthAdjust="spacingAndGlyphs" textLength="261" x="4692" y="453.2104">buildOperationDefinition(): OperationDefinition</text><polygon fill="#FFFF44" points="4683,457.8047,4687,461.8047,4683,465.8047,4679,461.8047" style="stroke: #B38D22; stroke-width: 1.0;"/><text fill="#000000" font-family="sans-serif" font-size="11" lengthAdjust="spacingAndGlyphs" textLength="714" x="4692" y="466.0151">doInvoke(FHIROperationContext, Class&lt;? extends Resource&gt;, String, String, Parameters, FHIRResourceHelpers): Parameters</text></a><!--MD5=[0ba1f7d6b3969472b3fe632fea4579eb]
class com.ibm.fhir.server.operation.spi.AbstractOperation--><a href="../../server/operation/spi/AbstractOperation.html" target="_top" title="../../server/operation/spi/AbstractOperation.html" xlink:actuate="onRequest" xlink:href="../../server/operation/spi/AbstractOperation.html" xlink:show="new" xlink:title="../../server/operation/spi/AbstractOperation.html" xlink:type="simple"><rect fill="#FEFECE" filter="url(#f1emde9joto6cm)" height="86.4141" id="com.ibm.fhir.server.operation.spi.AbstractOperation" style="stroke: #A80036; stroke-width: 1.5;" width="737" x="2348.5" y="43"/><ellipse cx="2656.25" cy="59" fill="#A9DCDF" rx="11" ry="11" style="stroke: #A80036; stroke-width: 1.0;"/><path d="M2656.3594,54.3438 L2655.2031,59.4219 L2657.5313,59.4219 L2656.3594,54.3438 Z M2654.875,52.1094 L2657.8594,52.1094 L2661.2188,64.5 L2658.7656,64.5 L2658,61.4375 L2654.7188,61.4375 L2653.9688,64.5 L2651.5313,64.5 L2654.875,52.1094 Z "/><text fill="#000000" font-family="sans-serif" font-size="12" font-style="italic" lengthAdjust="spacingAndGlyphs" textLength="113" x="2676.75" y="63.1543">AbstractOperation</text><line style="stroke: #A80036; stroke-width: 1.5;" x1="2349.5" x2="3084.5" y1="75" y2="75"/><polygon fill="none" points="2359.5,81,2363.5,85,2359.5,89,2355.5,85" style="stroke: #B38D22; stroke-width: 1.0;"/><text fill="#000000" font-family="sans-serif" font-size="11" lengthAdjust="spacingAndGlyphs" textLength="169" x="2368.5" y="89.2104">definition: OperationDefinition</text><line style="stroke: #A80036; stroke-width: 1.5;" x1="2349.5" x2="3084.5" y1="95.8047" y2="95.8047"/><polygon fill="#FFFF44" points="2359.5,101.8047,2363.5,105.8047,2359.5,109.8047,2355.5,105.8047" style="stroke: #B38D22; stroke-width: 1.0;"/><text fill="#000000" font-family="sans-serif" font-size="11" font-style="italic" lengthAdjust="spacingAndGlyphs" textLength="261" x="2368.5" y="110.0151">buildOperationDefinition(): OperationDefinition</text><polygon fill="#FFFF44" points="2359.5,114.6094,2363.5,118.6094,2359.5,122.6094,2355.5,118.6094" style="stroke: #B38D22; stroke-width: 1.0;"/><text fill="#000000" font-family="sans-serif" font-size="11" font-style="italic" lengthAdjust="spacingAndGlyphs" textLength="711" x="2368.5" y="122.8198">doInvoke(FHIROperationContext, Class&lt;? extends Resource&gt;, String, String, Parameters, FHIRResourceHelpers): Parameters</text></a><!--MD5=[6bd643799b7c404bf1b22145e2f0bc8c]
reverse link com.ibm.fhir.operation.term.AbstractTermOperation to com.ibm.fhir.operation.term.ExpandOperation--><path d="M2313.3939,289.1225 C1921.408,314.232 1309.5859,355.3014 780,399 C774.0992,399.4869 768.1485,399.9837 762.1582,400.4893 " fill="none" id="com.ibm.fhir.operation.term.AbstractTermOperation&lt;-com.ibm.fhir.operation.term.ExpandOperation" style="stroke: #A80036; stroke-width: 1.0;"/><polygon fill="none" points="2313.2332,282.1186,2333.6393,287.8273,2314.1271,296.09,2313.2332,282.1186" style="stroke: #A80036; stroke-width: 1.0;"/><!--MD5=[dc8254963bd840259e502b77e9597a04]
reverse link com.ibm.fhir.operation.term.AbstractTermOperation to com.ibm.fhir.operation.term.SubsumesOperation--><path d="M2313.8569,308.7359 C2061.0788,336.7861 1739.1257,372.5125 1500.7244,398.9674 " fill="none" id="com.ibm.fhir.operation.term.AbstractTermOperation&lt;-com.ibm.fhir.operation.term.SubsumesOperation" style="stroke: #A80036; stroke-width: 1.0;"/><polygon fill="none" points="2313.2038,301.7655,2333.8538,306.5169,2314.7479,315.6801,2313.2038,301.7655" style="stroke: #A80036; stroke-width: 1.0;"/><!--MD5=[9e1e3ec9678294a99cb5a8fdd3344305]
reverse link com.ibm.fhir.operation.term.AbstractTermOperation to com.ibm.fhir.operation.term.TranslateOperation--><path d="M2359.2567,343.3959 C2271.847,362.7952 2182.4062,382.6453 2108.8657,398.9666 " fill="none" id="com.ibm.fhir.operation.term.AbstractTermOperation&lt;-com.ibm.fhir.operation.term.TranslateOperation" style="stroke: #A80036; stroke-width: 1.0;"/><polygon fill="none" points="2358.0049,336.5035,2379.0465,339.0039,2361.0382,350.171,2358.0049,336.5035" style="stroke: #A80036; stroke-width: 1.0;"/><!--MD5=[59e11a98d8b15fa7c5ea33e0596197e7]
reverse link com.ibm.fhir.operation.term.AbstractTermOperation to com.ibm.fhir.operation.term.ClosureOperation--><path d="M2717,359.5806 C2717,373.4492 2717,386.9813 2717,398.71 " fill="none" id="com.ibm.fhir.operation.term.AbstractTermOperation&lt;-com.ibm.fhir.operation.term.ClosureOperation" style="stroke: #A80036; stroke-width: 1.0;"/><polygon fill="none" points="2710.0001,359.1915,2717,339.1915,2724.0001,359.1915,2710.0001,359.1915" style="stroke: #A80036; stroke-width: 1.0;"/><!--MD5=[5490546d23009a962089f63be8f38ac7]
reverse link com.ibm.fhir.operation.term.AbstractTermOperation to com.ibm.fhir.operation.term.ValueSetValidateCodeOperation--><path d="M3074.7433,343.3959 C3162.153,362.7952 3251.5938,382.6453 3325.1343,398.9666 " fill="none" id="com.ibm.fhir.operation.term.AbstractTermOperation&lt;-com.ibm.fhir.operation.term.ValueSetValidateCodeOperation" style="stroke: #A80036; stroke-width: 1.0;"/><polygon fill="none" points="3072.9618,350.171,3054.9535,339.0039,3075.9951,336.5035,3072.9618,350.171" style="stroke: #A80036; stroke-width: 1.0;"/><!--MD5=[3561c94a2deebd01ab7d6facac876066]
reverse link com.ibm.fhir.server.operation.spi.AbstractOperation to com.ibm.fhir.operation.term.AbstractTermOperation--><path d="M2717,149.1654 C2717,162.0573 2717,175.7411 2717,188.9997 " fill="none" id="com.ibm.fhir.server.operation.spi.AbstractOperation&lt;-com.ibm.fhir.operation.term.AbstractTermOperation" style="stroke: #A80036; stroke-width: 1.0;"/><polygon fill="none" points="2710.0001,149.0889,2717,129.0888,2724.0001,149.0888,2710.0001,149.0889" style="stroke: #A80036; stroke-width: 1.0;"/><!--MD5=[36502f6cd0c75950bf5860a406051db5]
reverse link com.ibm.fhir.operation.term.AbstractTermOperation to com.ibm.fhir.operation.term.LookupOperation--><path d="M3120.1431,308.7359 C3372.9212,336.7861 3694.8743,372.5125 3933.2756,398.9674 " fill="none" id="com.ibm.fhir.operation.term.AbstractTermOperation&lt;-com.ibm.fhir.operation.term.LookupOperation" style="stroke: #A80036; stroke-width: 1.0;"/><polygon fill="none" points="3119.2521,315.6801,3100.1462,306.5169,3120.7962,301.7655,3119.2521,315.6801" style="stroke: #A80036; stroke-width: 1.0;"/><!--MD5=[1c0e629ecfb2504669c3d5d0e6466f1a]
reverse link com.ibm.fhir.operation.term.AbstractTermOperation to com.ibm.fhir.operation.term.CodeSystemValidateCodeOperation--><path d="M3120.0664,289.0401 C3512.2259,314.1199 4124.8085,355.1958 4655,399 C4660.5493,399.4585 4666.1429,399.9258 4671.7721,400.401 " fill="none" id="com.ibm.fhir.operation.term.AbstractTermOperation&lt;-com.ibm.fhir.operation.term.CodeSystemValidateCodeOperation" style="stroke: #A80036; stroke-width: 1.0;"/><polygon fill="none" points="3119.617,296.0258,3100.1039,287.7651,3120.5094,282.0543,3119.617,296.0258" style="stroke: #A80036; stroke-width: 1.0;"/><text fill="#888888" font-family="sans-serif" font-size="10" lengthAdjust="spacingAndGlyphs" textLength="186" x="2630" y="508.2822">UMLDoclet 2.0.7, PlantUML 1.2019.12</text><!--MD5=[052c33f86e407af9787420ffdb420682]
@startuml
    namespace com.ibm.fhir.operation.term {

        class ExpandOperation [[ExpandOperation.html]] {
            #buildOperationDefinition(): OperationDefinition
            #doInvoke(FHIROperationContext, Class<? extends Resource>, String, String, Parameters, FHIRResourceHelpers): Parameters
        }

        class SubsumesOperation [[SubsumesOperation.html]] {
            #buildOperationDefinition(): OperationDefinition
            #doInvoke(FHIROperationContext, Class<? extends Resource>, String, String, Parameters, FHIRResourceHelpers): Parameters
        }

        class TranslateOperation [[TranslateOperation.html]] {
            #buildOperationDefinition(): OperationDefinition
            #doInvoke(FHIROperationContext, Class<? extends Resource>, String, String, Parameters, FHIRResourceHelpers): Parameters
        }

        class ClosureOperation [[ClosureOperation.html]] {
            #buildOperationDefinition(): OperationDefinition
            #doInvoke(FHIROperationContext, Class<? extends Resource>, String, String, Parameters, FHIRResourceHelpers): Parameters
        }

        class ValueSetValidateCodeOperation [[ValueSetValidateCodeOperation.html]] {
            #buildOperationDefinition(): OperationDefinition
            #doInvoke(FHIROperationContext, Class<? extends Resource>, String, String, Parameters, FHIRResourceHelpers): Parameters
        }

        abstract class AbstractTermOperation [[AbstractTermOperation.html]] {
            #service: FHIRTermService
            {abstract} #buildOperationDefinition(): OperationDefinition
            {abstract} #doInvoke(FHIROperationContext, Class<? extends Resource>, String, String, Parameters, FHIRResourceHelpers): Parameters
            #getResource(FHIROperationContext, String, Parameters, FHIRResourceHelpers, Class<T extends Resource>): T extends Resource
            #getCodedElement(Parameters, String, String, String): Element
            #getCodedElement(Parameters, String, String, String, boolean): Element
            #getCoding(Parameters, String, String): Coding
            #getCoding(Parameters, String, String, boolean): Coding
        }

        class LookupOperation [[LookupOperation.html]] {
            #buildOperationDefinition(): OperationDefinition
            #doInvoke(FHIROperationContext, Class<? extends Resource>, String, String, Parameters, FHIRResourceHelpers): Parameters
        }

        class CodeSystemValidateCodeOperation [[CodeSystemValidateCodeOperation.html]] {
            #buildOperationDefinition(): OperationDefinition
            #doInvoke(FHIROperationContext, Class<? extends Resource>, String, String, Parameters, FHIRResourceHelpers): Parameters
        }

        AbstractTermOperation <|- - ExpandOperation
        AbstractTermOperation <|- - SubsumesOperation
        AbstractTermOperation <|- - TranslateOperation
        AbstractTermOperation <|- - ClosureOperation
        AbstractTermOperation <|- - ValueSetValidateCodeOperation
        com.ibm.fhir.server.operation.spi.AbstractOperation <|- - AbstractTermOperation
        AbstractTermOperation <|- - LookupOperation
        AbstractTermOperation <|- - CodeSystemValidateCodeOperation
    }

    namespace com.ibm.fhir.server.operation.spi {
        abstract class AbstractOperation [[../../server/operation/spi/AbstractOperation.html]] {
            #definition: OperationDefinition
            {abstract} #buildOperationDefinition(): OperationDefinition
            {abstract} #doInvoke(FHIROperationContext, Class<? extends Resource>, String, String, Parameters, FHIRResourceHelpers): Parameters
        }
    }

    center footer UMLDoclet 2.0.7, PlantUML 1.2019.12
@enduml

PlantUML version 1.2019.12(Sun Nov 03 10:24:54 UTC 2019)
(APACHE source distribution)
Java Runtime: OpenJDK Runtime Environment
JVM: OpenJDK 64-Bit Server VM
Java Version: 11.0.10+9
Operating System: Linux
Default Encoding: UTF-8
Language: en
Country: null
--></g></svg>