<?xml version="1.0" encoding="UTF-8" standalone="no"?><svg xmlns="http://www.w3.org/2000/svg" xmlns:xlink="http://www.w3.org/1999/xlink" contentScriptType="application/ecmascript" contentStyleType="text/css" height="198px" preserveAspectRatio="none" style="width:212px;height:198px;" version="1.1" viewBox="0 0 212 198" width="212px" zoomAndPan="magnify"><defs><filter height="300%" id="f1c2x49uxrpayl" width="300%" x="-1" y="-1"><feGaussianBlur result="blurOut" stdDeviation="2.0"/><feColorMatrix in="blurOut" result="blurOut2" type="matrix" values="0 0 0 0 0 0 0 0 0 0 0 0 0 0 0 0 0 0 .4 0"/><feOffset dx="4.0" dy="4.0" in="blurOut2" result="blurOut3"/><feBlend in="SourceGraphic" in2="blurOut3" mode="normal"/></filter></defs><g><!--MD5=[be98c3d276c163e3f6b807bc98228840]
class com.ibm.fhir.audit.logging.beans.ConfigData.Parser--><a href="ConfigData.Parser.html" target="_top" title="ConfigData.Parser.html" xlink:actuate="onRequest" xlink:href="ConfigData.Parser.html" xlink:show="new" xlink:title="ConfigData.Parser.html" xlink:type="simple"><rect fill="#FEFECE" filter="url(#f1c2x49uxrpayl)" height="59.2207" id="com.ibm.fhir.audit.logging.beans.ConfigData.Parser" style="stroke: #A80036; stroke-width: 1.5;" width="195" x="6" y="106"/><ellipse cx="22.35" cy="125.1328" fill="#ADD1B2" rx="11" ry="11" style="stroke: #A80036; stroke-width: 1.0;"/><path d="M24.8231,131.2759 Q24.2421,131.5747 23.6029,131.7241 Q22.9638,131.8735 22.2582,131.8735 Q19.7514,131.8735 18.4315,130.2217 Q17.1117,128.5698 17.1117,125.4487 Q17.1117,122.3193 18.4315,120.6675 Q19.7514,119.0156 22.2582,119.0156 Q22.9638,119.0156 23.6112,119.165 Q24.2587,119.3145 24.8231,119.6133 L24.8231,122.3359 Q24.1923,121.7549 23.5988,121.4851 Q23.0053,121.2153 22.3744,121.2153 Q21.0297,121.2153 20.3449,122.282 Q19.6601,123.3486 19.6601,125.4487 Q19.6601,127.5405 20.3449,128.6072 Q21.0297,129.6738 22.3744,129.6738 Q23.0053,129.6738 23.5988,129.4041 Q24.1923,129.1343 24.8231,128.5532 Z "/><text fill="#000000" font-family="sans-serif" font-size="14" lengthAdjust="spacingAndGlyphs" textLength="124" x="54.65" y="124.5352">ConfigData.Parser</text><text fill="#000000" font-family="sans-serif" font-size="10" lengthAdjust="spacingAndGlyphs" textLength="160" x="36.65" y="137.1563">com.ibm.fhir.audit.logging.beans</text><line style="stroke: #A80036; stroke-width: 1.5;" x1="7" x2="200" y1="144.2656" y2="144.2656"/><ellipse cx="17" cy="155.2656" fill="#84BE84" rx="3" ry="3" style="stroke: #038048; stroke-width: 1.0;"/><text fill="#000000" font-family="sans-serif" font-size="11" lengthAdjust="spacingAndGlyphs" text-decoration="underline" textLength="169" x="26" y="158.9004">parse(InputStream): ConfigData</text></a><!--MD5=[0597867ffd23446339e1dff730bec5a7]
class com.ibm.fhir.audit.logging.beans.ConfigData--><a href="ConfigData.html" target="_top" title="ConfigData.html" xlink:actuate="onRequest" xlink:href="ConfigData.html" xlink:show="new" xlink:title="ConfigData.html" xlink:type="simple"><rect fill="#FEFECE" filter="url(#f1c2x49uxrpayl)" height="38.2656" id="com.ibm.fhir.audit.logging.beans.ConfigData" style="stroke: #A80036; stroke-width: 1.5;" width="192" x="7.5" y="8"/><ellipse cx="22.5" cy="27.1328" fill="#ADD1B2" rx="11" ry="11" style="stroke: #A80036; stroke-width: 1.0;"/><path d="M24.9731,33.2759 Q24.3921,33.5747 23.7529,33.7241 Q23.1138,33.8735 22.4082,33.8735 Q19.9014,33.8735 18.5815,32.2217 Q17.2617,30.5698 17.2617,27.4487 Q17.2617,24.3193 18.5815,22.6675 Q19.9014,21.0156 22.4082,21.0156 Q23.1138,21.0156 23.7612,21.165 Q24.4087,21.3145 24.9731,21.6133 L24.9731,24.3359 Q24.3423,23.7549 23.7488,23.4851 Q23.1553,23.2153 22.5244,23.2153 Q21.1797,23.2153 20.4949,24.282 Q19.8101,25.3486 19.8101,27.4487 Q19.8101,29.5405 20.4949,30.6072 Q21.1797,31.6738 22.5244,31.6738 Q23.1553,31.6738 23.7488,31.4041 Q24.3423,31.1343 24.9731,30.5532 Z "/><text fill="#000000" font-family="sans-serif" font-size="14" lengthAdjust="spacingAndGlyphs" textLength="77" x="78" y="26.5352">ConfigData</text><text fill="#000000" font-family="sans-serif" font-size="10" lengthAdjust="spacingAndGlyphs" textLength="160" x="36.5" y="39.1563">com.ibm.fhir.audit.logging.beans</text></a><!--MD5=[99aa15daab6d2eb36ee8421782eaf25b]
reverse link com.ibm.fhir.audit.logging.beans.ConfigData to com.ibm.fhir.audit.logging.beans.ConfigData.Parser--><path d="M103.5,61.1734 C103.5,75.5357 103.5,92.0838 103.5,105.9146 " fill="none" id="com.ibm.fhir.audit.logging.beans.ConfigData&lt;-com.ibm.fhir.audit.logging.beans.ConfigData.Parser" style="stroke: #A80036; stroke-width: 1.0;"/><ellipse cx="103.5001" cy="54.1479" fill="#FFFFFF" rx="8" ry="8" style="stroke: #A80036; stroke-width: 1.0;"/><line style="stroke: #A80036; stroke-width: 1.0;" x1="103.5002" x2="103.5" y1="62.1479" y2="46.1479"/><line style="stroke: #A80036; stroke-width: 1.0;" x1="95.5001" x2="111.5001" y1="54.148" y2="54.1478"/><text fill="#888888" font-family="sans-serif" font-size="10" lengthAdjust="spacingAndGlyphs" textLength="182" x="18.5" y="184.668">UMLDoclet 2.0.7, PlantUML 1.2019.12</text><!--MD5=[86f6a3a773f7a9c6e6261650f1c4a91e]
@startuml
    set namespaceSeparator none
    hide empty fields
    hide empty methods

    class "<size:14>ConfigData.Parser\n<size:10>com.ibm.fhir.audit.logging.beans" as com.ibm.fhir.audit.logging.beans.ConfigData.Parser [[ConfigData.Parser.html]] {
        {static} +parse(InputStream): ConfigData
    }

    class "<size:14>ConfigData\n<size:10>com.ibm.fhir.audit.logging.beans" as com.ibm.fhir.audit.logging.beans.ConfigData [[ConfigData.html]]

    com.ibm.fhir.audit.logging.beans.ConfigData +- - com.ibm.fhir.audit.logging.beans.ConfigData.Parser

    center footer UMLDoclet 2.0.7, PlantUML 1.2019.12
@enduml

PlantUML version 1.2019.12(Sun Nov 03 05:24:54 EST 2019)
(APACHE source distribution)
Java Runtime: OpenJDK Runtime Environment
JVM: OpenJDK 64-Bit Server VM
Java Version: 11.0.4+11
Operating System: Mac OS X
Default Encoding: UTF-8
Language: en
Country: US
--></g></svg>