<?xml version="1.0" encoding="UTF-8" standalone="no"?><svg xmlns="http://www.w3.org/2000/svg" xmlns:xlink="http://www.w3.org/1999/xlink" contentScriptType="application/ecmascript" contentStyleType="text/css" height="344px" preserveAspectRatio="none" style="width:216px;height:344px;" version="1.1" viewBox="0 0 216 344" width="216px" zoomAndPan="magnify"><defs><filter height="300%" id="fcknfz9bbdk26" width="300%" x="-1" y="-1"><feGaussianBlur result="blurOut" stdDeviation="2.0"/><feColorMatrix in="blurOut" result="blurOut2" type="matrix" values="0 0 0 0 0 0 0 0 0 0 0 0 0 0 0 0 0 0 .4 0"/><feOffset dx="4.0" dy="4.0" in="blurOut2" result="blurOut3"/><feBlend in="SourceGraphic" in2="blurOut3" mode="normal"/></filter></defs><g><!--MD5=[6b3311d8ad18fbf7c0e88147851e4a6b]
class com.ibm.fhir.bulkexport.common.CheckPointAlgorithm--><a href="CheckPointAlgorithm.html" target="_top" title="CheckPointAlgorithm.html" xlink:actuate="onRequest" xlink:href="CheckPointAlgorithm.html" xlink:show="new" xlink:title="CheckPointAlgorithm.html" xlink:type="simple"><rect fill="#FEFECE" filter="url(#fcknfz9bbdk26)" height="144.9512" id="com.ibm.fhir.bulkexport.common.CheckPointAlgorithm" style="stroke: #A80036; stroke-width: 1.5;" width="199" x="6" y="166"/><ellipse cx="23.7" cy="185.1328" fill="#ADD1B2" rx="11" ry="11" style="stroke: #A80036; stroke-width: 1.0;"/><path d="M26.1731,191.2759 Q25.5921,191.5747 24.9529,191.7241 Q24.3138,191.8735 23.6082,191.8735 Q21.1014,191.8735 19.7815,190.2217 Q18.4617,188.5698 18.4617,185.4487 Q18.4617,182.3193 19.7815,180.6675 Q21.1014,179.0156 23.6082,179.0156 Q24.3138,179.0156 24.9612,179.165 Q25.6087,179.3145 26.1731,179.6133 L26.1731,182.3359 Q25.5423,181.7549 24.9488,181.4851 Q24.3553,181.2153 23.7244,181.2153 Q22.3797,181.2153 21.6949,182.282 Q21.0101,183.3486 21.0101,185.4487 Q21.0101,187.5405 21.6949,188.6072 Q22.3797,189.6738 23.7244,189.6738 Q24.3553,189.6738 24.9488,189.4041 Q25.5423,189.1343 26.1731,188.5532 Z "/><text fill="#000000" font-family="sans-serif" font-size="14" lengthAdjust="spacingAndGlyphs" textLength="146" x="45.8" y="184.5352">CheckPointAlgorithm</text><text fill="#000000" font-family="sans-serif" font-size="10" lengthAdjust="spacingAndGlyphs" textLength="161" x="38.3" y="197.1563">com.ibm.fhir.bulkexport.common</text><line style="stroke: #A80036; stroke-width: 1.5;" x1="7" x2="204" y1="204.2656" y2="204.2656"/><polygon fill="none" points="17,211.2656,13,217.2656,21,217.2656" style="stroke: #1963A0; stroke-width: 1.0;"/><text fill="#000000" font-family="sans-serif" font-size="11" lengthAdjust="spacingAndGlyphs" textLength="126" x="26" y="218.9004">jobContext: JobContext</text><polygon fill="none" points="17,224.2207,13,230.2207,21,230.2207" style="stroke: #1963A0; stroke-width: 1.0;"/><text fill="#000000" font-family="sans-serif" font-size="11" lengthAdjust="spacingAndGlyphs" textLength="143" x="26" y="231.8555">pagesPerCosObject: String</text><polygon fill="none" points="17,237.1758,13,243.1758,21,243.1758" style="stroke: #1963A0; stroke-width: 1.0;"/><text fill="#000000" font-family="sans-serif" font-size="11" lengthAdjust="spacingAndGlyphs" textLength="153" x="26" y="244.8105">cosBucketMaxFileSize: String</text><line style="stroke: #A80036; stroke-width: 1.5;" x1="7" x2="204" y1="251.1309" y2="251.1309"/><ellipse cx="17" cy="262.1309" fill="#84BE84" rx="3" ry="3" style="stroke: #038048; stroke-width: 1.0;"/><text fill="#000000" font-family="sans-serif" font-size="11" lengthAdjust="spacingAndGlyphs" textLength="131" x="26" y="265.7656">checkpointTimeout(): int</text><ellipse cx="17" cy="275.0859" fill="#84BE84" rx="3" ry="3" style="stroke: #038048; stroke-width: 1.0;"/><text fill="#000000" font-family="sans-serif" font-size="11" lengthAdjust="spacingAndGlyphs" textLength="118" x="26" y="278.7207">endCheckpoint(): void</text><ellipse cx="17" cy="288.041" fill="#84BE84" rx="3" ry="3" style="stroke: #038048; stroke-width: 1.0;"/><text fill="#000000" font-family="sans-serif" font-size="11" lengthAdjust="spacingAndGlyphs" textLength="128" x="26" y="291.6758">beginCheckpoint(): void</text><ellipse cx="17" cy="300.9961" fill="#84BE84" rx="3" ry="3" style="stroke: #038048; stroke-width: 1.0;"/><text fill="#000000" font-family="sans-serif" font-size="11" lengthAdjust="spacingAndGlyphs" textLength="173" x="26" y="304.6309">isReadyToCheckpoint(): boolean</text></a><!--MD5=[a7f57bf06c2680029e5d3e57a4fc4576]
class javax.batch.api.chunk.CheckpointAlgorithm--><rect fill="#FEFECE" filter="url(#fcknfz9bbdk26)" height="98.0859" id="javax.batch.api.chunk.CheckpointAlgorithm" style="stroke: #A80036; stroke-width: 1.5;" width="199" x="6" y="8"/><ellipse cx="30" cy="27.1328" fill="#B4A7E5" rx="11" ry="11" style="stroke: #A80036; stroke-width: 1.0;"/><path d="M26.4277,23.3979 L26.4277,21.2397 L33.8071,21.2397 L33.8071,23.3979 L31.3418,23.3979 L31.3418,31.4746 L33.8071,31.4746 L33.8071,33.6328 L26.4277,33.6328 L26.4277,31.4746 L28.8931,31.4746 L28.8931,23.3979 Z "/><text fill="#000000" font-family="sans-serif" font-size="14" font-style="italic" lengthAdjust="spacingAndGlyphs" textLength="147" x="46" y="26.5352">CheckpointAlgorithm</text><text fill="#000000" font-family="sans-serif" font-size="10" font-style="italic" lengthAdjust="spacingAndGlyphs" textLength="106" x="66.5" y="39.1563">javax.batch.api.chunk</text><line style="stroke: #A80036; stroke-width: 1.5;" x1="7" x2="204" y1="46.2656" y2="46.2656"/><ellipse cx="17" cy="57.2656" fill="#84BE84" rx="3" ry="3" style="stroke: #038048; stroke-width: 1.0;"/><text fill="#000000" font-family="sans-serif" font-size="11" font-style="italic" lengthAdjust="spacingAndGlyphs" textLength="131" x="26" y="60.9004">checkpointTimeout(): int</text><ellipse cx="17" cy="70.2207" fill="#84BE84" rx="3" ry="3" style="stroke: #038048; stroke-width: 1.0;"/><text fill="#000000" font-family="sans-serif" font-size="11" font-style="italic" lengthAdjust="spacingAndGlyphs" textLength="128" x="26" y="73.8555">beginCheckpoint(): void</text><ellipse cx="17" cy="83.1758" fill="#84BE84" rx="3" ry="3" style="stroke: #038048; stroke-width: 1.0;"/><text fill="#000000" font-family="sans-serif" font-size="11" font-style="italic" lengthAdjust="spacingAndGlyphs" textLength="173" x="26" y="86.8105">isReadyToCheckpoint(): boolean</text><ellipse cx="17" cy="96.1309" fill="#84BE84" rx="3" ry="3" style="stroke: #038048; stroke-width: 1.0;"/><text fill="#000000" font-family="sans-serif" font-size="11" font-style="italic" lengthAdjust="spacingAndGlyphs" textLength="118" x="26" y="99.7656">endCheckpoint(): void</text><!--MD5=[cf290dceb95f395b6d289257ae7c8a4a]
reverse link javax.batch.api.chunk.CheckpointAlgorithm to com.ibm.fhir.bulkexport.common.CheckPointAlgorithm--><path d="M105.5,126.3916 C105.5,139.2988 105.5,152.8172 105.5,165.8197 " fill="none" id="javax.batch.api.chunk.CheckpointAlgorithm&lt;-com.ibm.fhir.bulkexport.common.CheckPointAlgorithm" style="stroke: #A80036; stroke-width: 1.0; stroke-dasharray: 7.0,7.0;"/><polygon fill="none" points="98.5001,126.1165,105.5,106.1165,112.5001,126.1165,98.5001,126.1165" style="stroke: #A80036; stroke-width: 1.0;"/><text fill="#888888" font-family="sans-serif" font-size="10" lengthAdjust="spacingAndGlyphs" textLength="182" x="20.5" y="330.668">UMLDoclet 2.0.7, PlantUML 1.2019.12</text><!--MD5=[c6bbec86de35c542d69476d96edcb43b]
@startuml
    set namespaceSeparator none
    hide empty fields
    hide empty methods

    class "<size:14>CheckPointAlgorithm\n<size:10>com.ibm.fhir.bulkexport.common" as com.ibm.fhir.bulkexport.common.CheckPointAlgorithm [[CheckPointAlgorithm.html]] {
        ~jobContext: JobContext
        ~pagesPerCosObject: String
        ~cosBucketMaxFileSize: String
        +checkpointTimeout(): int
        +endCheckpoint(): void
        +beginCheckpoint(): void
        +isReadyToCheckpoint(): boolean
    }

    interface "<size:14>CheckpointAlgorithm\n<size:10>javax.batch.api.chunk" as javax.batch.api.chunk.CheckpointAlgorithm {
        {abstract} +checkpointTimeout(): int
        {abstract} +beginCheckpoint(): void
        {abstract} +isReadyToCheckpoint(): boolean
        {abstract} +endCheckpoint(): void
    }

    javax.batch.api.chunk.CheckpointAlgorithm <|.. com.ibm.fhir.bulkexport.common.CheckPointAlgorithm

    center footer UMLDoclet 2.0.7, PlantUML 1.2019.12
@enduml

PlantUML version 1.2019.12(Sun Nov 03 05:24:54 EST 2019)
(APACHE source distribution)
Java Runtime: OpenJDK Runtime Environment
JVM: OpenJDK 64-Bit Server VM
Java Version: 11.0.4+11
Operating System: Mac OS X
Default Encoding: UTF-8
Language: en
Country: US
--></g></svg>