<?xml version="1.0" encoding="UTF-8" standalone="no"?><svg xmlns="http://www.w3.org/2000/svg" xmlns:xlink="http://www.w3.org/1999/xlink" contentScriptType="application/ecmascript" contentStyleType="text/css" height="421px" preserveAspectRatio="none" style="width:210px;height:421px;" version="1.1" viewBox="0 0 210 421" width="210px" zoomAndPan="magnify"><defs><filter height="300%" id="f1ah3b2v1bbw4e" width="300%" x="-1" y="-1"><feGaussianBlur result="blurOut" stdDeviation="2.0"/><feColorMatrix in="blurOut" result="blurOut2" type="matrix" values="0 0 0 0 0 0 0 0 0 0 0 0 0 0 0 0 0 0 .4 0"/><feOffset dx="4.0" dy="4.0" in="blurOut2" result="blurOut3"/><feBlend in="SourceGraphic" in2="blurOut3" mode="normal"/></filter></defs><g><!--class com.ibm.fhir.model.type.Coding--><a href="Coding.html" target="_top" xlink:actuate="onRequest" xlink:show="new" xlink:title="Coding.html" xlink:type="simple"><rect fill="#FEFECE" filter="url(#f1ah3b2v1bbw4e)" height="162.8613" id="com.ibm.fhir.model.type.Coding" style="stroke: #A80036; stroke-width: 1.5;" width="191" x="6" y="127"/><ellipse cx="39.45" cy="146.1328" fill="#ADD1B2" rx="11" ry="11" style="stroke: #A80036; stroke-width: 1.0;"/><path d="M41.9231,152.2759 Q41.3421,152.5747 40.7029,152.7241 Q40.0638,152.8735 39.3582,152.8735 Q36.8514,152.8735 35.5315,151.2217 Q34.2117,149.5698 34.2117,146.4487 Q34.2117,143.3193 35.5315,141.6675 Q36.8514,140.0156 39.3582,140.0156 Q40.0638,140.0156 40.7112,140.165 Q41.3587,140.3145 41.9231,140.6133 L41.9231,143.3359 Q41.2923,142.7549 40.6988,142.4851 Q40.1053,142.2153 39.4744,142.2153 Q38.1297,142.2153 37.4449,143.282 Q36.7601,144.3486 36.7601,146.4487 Q36.7601,148.5405 37.4449,149.6072 Q38.1297,150.6738 39.4744,150.6738 Q40.1053,150.6738 40.6988,150.4041 Q41.2923,150.1343 41.9231,149.5532 Z "/><text fill="#000000" font-family="sans-serif" font-size="14" lengthAdjust="spacingAndGlyphs" textLength="50" x="91.55" y="145.5352">Coding</text><text fill="#000000" font-family="sans-serif" font-size="10" lengthAdjust="spacingAndGlyphs" textLength="118" x="57.55" y="158.1563">com.ibm.fhir.model.type</text><line style="stroke: #A80036; stroke-width: 1.5;" x1="7" x2="196" y1="165.2656" y2="165.2656"/><ellipse cx="17" cy="177.2432" fill="#84BE84" rx="3" ry="3" style="stroke: #038048; stroke-width: 1.0;"/><text fill="#000000" font-family="sans-serif" font-size="11" lengthAdjust="spacingAndGlyphs" textLength="85" x="26" y="179.9004">getSystem(): Uri</text><ellipse cx="17" cy="190.1982" fill="#84BE84" rx="3" ry="3" style="stroke: #038048; stroke-width: 1.0;"/><text fill="#000000" font-family="sans-serif" font-size="11" lengthAdjust="spacingAndGlyphs" textLength="104" x="26" y="192.8555">getVersion(): String</text><ellipse cx="17" cy="203.1533" fill="#84BE84" rx="3" ry="3" style="stroke: #038048; stroke-width: 1.0;"/><text fill="#000000" font-family="sans-serif" font-size="11" lengthAdjust="spacingAndGlyphs" textLength="87" x="26" y="205.8105">getCode(): Code</text><ellipse cx="17" cy="216.1084" fill="#84BE84" rx="3" ry="3" style="stroke: #038048; stroke-width: 1.0;"/><text fill="#000000" font-family="sans-serif" font-size="11" lengthAdjust="spacingAndGlyphs" textLength="102" x="26" y="218.7656">getDisplay(): String</text><ellipse cx="17" cy="229.0635" fill="#84BE84" rx="3" ry="3" style="stroke: #038048; stroke-width: 1.0;"/><text fill="#000000" font-family="sans-serif" font-size="11" lengthAdjust="spacingAndGlyphs" textLength="142" x="26" y="231.7207">getUserSelected(): Boolean</text><ellipse cx="17" cy="242.0186" fill="#84BE84" rx="3" ry="3" style="stroke: #038048; stroke-width: 1.0;"/><text fill="#000000" font-family="sans-serif" font-size="11" lengthAdjust="spacingAndGlyphs" textLength="122" x="26" y="244.6758">hasChildren(): boolean</text><ellipse cx="17" cy="254.9736" fill="#84BE84" rx="3" ry="3" style="stroke: #038048; stroke-width: 1.0;"/><text fill="#000000" font-family="sans-serif" font-size="11" lengthAdjust="spacingAndGlyphs" textLength="165" x="26" y="257.6309">accept(String, int, Visitor): void</text><ellipse cx="17" cy="267.9287" fill="#84BE84" rx="3" ry="3" style="stroke: #038048; stroke-width: 1.0;"/><text fill="#000000" font-family="sans-serif" font-size="11" lengthAdjust="spacingAndGlyphs" textLength="99" x="26" y="270.5859">toBuilder(): Builder</text><ellipse cx="17" cy="280.8838" fill="#84BE84" rx="3" ry="3" style="stroke: #038048; stroke-width: 1.0;"/><text fill="#000000" font-family="sans-serif" font-size="11" lengthAdjust="spacingAndGlyphs" text-decoration="underline" textLength="89" x="26" y="283.541">builder(): Builder</text></a><!--class com.ibm.fhir.model.type.Element--><a href="Element.html" target="_top" xlink:actuate="onRequest" xlink:show="new" xlink:title="Element.html" xlink:type="simple"><rect fill="#FEFECE" filter="url(#f1ah3b2v1bbw4e)" height="59.2207" id="com.ibm.fhir.model.type.Element" style="stroke: #A80036; stroke-width: 1.5;" width="150" x="26.5" y="8"/><ellipse cx="41.5" cy="27.1328" fill="#A9DCDF" rx="11" ry="11" style="stroke: #A80036; stroke-width: 1.0;"/><path d="M41.6133,22.731 L40.4595,27.8027 L42.7754,27.8027 Z M40.1191,20.4897 L43.1157,20.4897 L46.4609,32.8828 L44.0122,32.8828 L43.2485,29.8198 L39.9697,29.8198 L39.2227,32.8828 L36.7739,32.8828 Z "/><text fill="#000000" font-family="sans-serif" font-size="14" font-style="italic" lengthAdjust="spacingAndGlyphs" textLength="55" x="87" y="26.5352">Element</text><text fill="#000000" font-family="sans-serif" font-size="10" font-style="italic" lengthAdjust="spacingAndGlyphs" textLength="118" x="55.5" y="39.1563">com.ibm.fhir.model.type</text><line style="stroke: #A80036; stroke-width: 1.5;" x1="27.5" x2="175.5" y1="46.2656" y2="46.2656"/><ellipse cx="37.5" cy="58.2432" fill="#84BE84" rx="3" ry="3" style="stroke: #038048; stroke-width: 1.0;"/><text fill="#000000" font-family="sans-serif" font-size="11" font-style="italic" lengthAdjust="spacingAndGlyphs" textLength="99" x="46.5" y="60.9004">toBuilder(): Builder</text></a><!--class com.ibm.fhir.model.type.Coding.Builder--><a href="Coding.Builder.html" target="_top" xlink:actuate="onRequest" xlink:show="new" xlink:title="Coding.Builder.html" xlink:type="simple"><rect fill="#FEFECE" filter="url(#f1ah3b2v1bbw4e)" height="38.2656" id="com.ibm.fhir.model.type.Coding.Builder" style="stroke: #A80036; stroke-width: 1.5;" width="150" x="26.5" y="350"/><ellipse cx="41.5" cy="369.1328" fill="#ADD1B2" rx="11" ry="11" style="stroke: #A80036; stroke-width: 1.0;"/><path d="M43.9731,375.2759 Q43.3921,375.5747 42.7529,375.7241 Q42.1138,375.8735 41.4082,375.8735 Q38.9014,375.8735 37.5815,374.2217 Q36.2617,372.5698 36.2617,369.4487 Q36.2617,366.3193 37.5815,364.6675 Q38.9014,363.0156 41.4082,363.0156 Q42.1138,363.0156 42.7612,363.165 Q43.4087,363.3145 43.9731,363.6133 L43.9731,366.3359 Q43.3423,365.7549 42.7488,365.4851 Q42.1553,365.2153 41.5244,365.2153 Q40.1797,365.2153 39.4949,366.282 Q38.8101,367.3486 38.8101,369.4487 Q38.8101,371.5405 39.4949,372.6072 Q40.1797,373.6738 41.5244,373.6738 Q42.1553,373.6738 42.7488,373.4041 Q43.3423,373.1343 43.9731,372.5532 Z "/><text fill="#000000" font-family="sans-serif" font-size="14" lengthAdjust="spacingAndGlyphs" textLength="102" x="63.5" y="368.5352">Coding.Builder</text><text fill="#000000" font-family="sans-serif" font-size="10" lengthAdjust="spacingAndGlyphs" textLength="118" x="55.5" y="381.1563">com.ibm.fhir.model.type</text></a><!--link com.ibm.fhir.model.type.Element to com.ibm.fhir.model.type.Coding--><path d="M101.5,87.383 C101.5,99.7858 101.5,113.4062 101.5,126.897 " fill="none" id="com.ibm.fhir.model.type.Element-com.ibm.fhir.model.type.Coding" style="stroke: #A80036; stroke-width: 1.0;"/><polygon fill="none" points="94.5001,87.286,101.5,67.2859,108.5001,87.2859,94.5001,87.286" style="stroke: #A80036; stroke-width: 1.0;"/><!--link com.ibm.fhir.model.type.Coding to com.ibm.fhir.model.type.Coding.Builder--><path d="M101.5,305.2169 C101.5,322.1421 101.5,338.0461 101.5,349.7396 " fill="none" id="com.ibm.fhir.model.type.Coding-com.ibm.fhir.model.type.Coding.Builder" style="stroke: #A80036; stroke-width: 1.0;"/><ellipse cx="101.5001" cy="298.1606" fill="#FFFFFF" rx="8" ry="8" style="stroke: #A80036; stroke-width: 1.0;"/><line style="stroke: #A80036; stroke-width: 1.0;" x1="101.5002" x2="101.5" y1="306.1606" y2="290.1606"/><line style="stroke: #A80036; stroke-width: 1.0;" x1="93.5001" x2="109.5001" y1="298.1607" y2="298.1605"/><text fill="#888888" font-family="sans-serif" font-size="10" lengthAdjust="spacingAndGlyphs" textLength="182" x="16.5" y="407.668">UMLDoclet 2.0.5, PlantUML 1.2019.08</text><!--
@startuml
    set namespaceSeparator none
    hide empty fields
    hide empty methods

    class "<size:14>Coding\n<size:10>com.ibm.fhir.model.type" as com.ibm.fhir.model.type.Coding [[Coding.html]] {
        +getSystem(): Uri
        +getVersion(): String
        +getCode(): Code
        +getDisplay(): String
        +getUserSelected(): Boolean
        +hasChildren(): boolean
        +accept(String, int, Visitor): void
        +toBuilder(): Builder
        {static} +builder(): Builder
    }

    abstract class "<size:14>Element\n<size:10>com.ibm.fhir.model.type" as com.ibm.fhir.model.type.Element [[Element.html]] {
        {abstract} +toBuilder(): Builder
    }
    class "<size:14>Coding.Builder\n<size:10>com.ibm.fhir.model.type" as com.ibm.fhir.model.type.Coding.Builder [[Coding.Builder.html]]

    com.ibm.fhir.model.type.Element <|- - com.ibm.fhir.model.type.Coding
    com.ibm.fhir.model.type.Coding +- - com.ibm.fhir.model.type.Coding.Builder

    center footer UMLDoclet 2.0.5, PlantUML 1.2019.08
@enduml

PlantUML version 1.2019.08(Sat Jul 13 15:25:14 EDT 2019)
(APACHE source distribution)
Java Runtime: OpenJDK Runtime Environment
JVM: OpenJDK 64-Bit Server VM
Java Version: 11.0.4+11
Operating System: Mac OS X
OS Version: 10.14.6
Default Encoding: UTF-8
Language: en
Country: US
--></g></svg>