<?xml version="1.0" encoding="UTF-8" standalone="no"?><svg xmlns="http://www.w3.org/2000/svg" xmlns:xlink="http://www.w3.org/1999/xlink" contentScriptType="application/ecmascript" contentStyleType="text/css" height="491px" preserveAspectRatio="none" style="width:407px;height:491px;" version="1.1" viewBox="0 0 407 491" width="407px" zoomAndPan="magnify"><defs><filter height="300%" id="fx9jvj9xy7xj4" width="300%" x="-1" y="-1"><feGaussianBlur result="blurOut" stdDeviation="2.0"/><feColorMatrix in="blurOut" result="blurOut2" type="matrix" values="0 0 0 0 0 0 0 0 0 0 0 0 0 0 0 0 0 0 .4 0"/><feOffset dx="4.0" dy="4.0" in="blurOut2" result="blurOut3"/><feBlend in="SourceGraphic" in2="blurOut3" mode="normal"/></filter></defs><g><!--class com.ibm.fhir.model.type.Dosage.Builder--><a href="Dosage.Builder.html" target="_top" xlink:actuate="onRequest" xlink:show="new" xlink:title="Dosage.Builder.html" xlink:type="simple"><rect fill="#FEFECE" filter="url(#fx9jvj9xy7xj4)" height="331.2773" id="com.ibm.fhir.model.type.Dosage.Builder" style="stroke: #A80036; stroke-width: 1.5;" width="356" x="36.5" y="127"/><ellipse cx="151.25" cy="146.1328" fill="#ADD1B2" rx="11" ry="11" style="stroke: #A80036; stroke-width: 1.0;"/><path d="M153.7231,152.2759 Q153.1421,152.5747 152.5029,152.7241 Q151.8638,152.8735 151.1582,152.8735 Q148.6514,152.8735 147.3315,151.2217 Q146.0117,149.5698 146.0117,146.4487 Q146.0117,143.3193 147.3315,141.6675 Q148.6514,140.0156 151.1582,140.0156 Q151.8638,140.0156 152.5112,140.165 Q153.1587,140.3145 153.7231,140.6133 L153.7231,143.3359 Q153.0923,142.7549 152.4988,142.4851 Q151.9053,142.2153 151.2744,142.2153 Q149.9297,142.2153 149.2449,143.282 Q148.5601,144.3486 148.5601,146.4487 Q148.5601,148.5405 149.2449,149.6072 Q149.9297,150.6738 151.2744,150.6738 Q151.9053,150.6738 152.4988,150.4041 Q153.0923,150.1343 153.7231,149.5532 Z "/><text fill="#000000" font-family="sans-serif" font-size="14" lengthAdjust="spacingAndGlyphs" textLength="103" x="179.25" y="145.5352">Dosage.Builder</text><text fill="#000000" font-family="sans-serif" font-size="10" lengthAdjust="spacingAndGlyphs" textLength="118" x="171.75" y="158.1563">com.ibm.fhir.model.type</text><line style="stroke: #A80036; stroke-width: 1.5;" x1="37.5" x2="391.5" y1="165.2656" y2="165.2656"/><ellipse cx="47.5" cy="177.2432" fill="#84BE84" rx="3" ry="3" style="stroke: #038048; stroke-width: 1.0;"/><text fill="#000000" font-family="sans-serif" font-size="11" lengthAdjust="spacingAndGlyphs" textLength="93" x="56.5" y="179.9004">id(String): Builder</text><ellipse cx="47.5" cy="190.1982" fill="#84BE84" rx="3" ry="3" style="stroke: #038048; stroke-width: 1.0;"/><text fill="#000000" font-family="sans-serif" font-size="11" lengthAdjust="spacingAndGlyphs" textLength="166" x="56.5" y="192.8555">extension(Extension...): Builder</text><ellipse cx="47.5" cy="203.1533" fill="#84BE84" rx="3" ry="3" style="stroke: #038048; stroke-width: 1.0;"/><text fill="#000000" font-family="sans-serif" font-size="11" lengthAdjust="spacingAndGlyphs" textLength="229" x="56.5" y="205.8105">extension(Collection&lt;Extension&gt;): Builder</text><ellipse cx="47.5" cy="216.1084" fill="#84BE84" rx="3" ry="3" style="stroke: #038048; stroke-width: 1.0;"/><text fill="#000000" font-family="sans-serif" font-size="11" lengthAdjust="spacingAndGlyphs" textLength="211" x="56.5" y="218.7656">modifierExtension(Extension...): Builder</text><ellipse cx="47.5" cy="229.0635" fill="#84BE84" rx="3" ry="3" style="stroke: #038048; stroke-width: 1.0;"/><text fill="#000000" font-family="sans-serif" font-size="11" lengthAdjust="spacingAndGlyphs" textLength="274" x="56.5" y="231.7207">modifierExtension(Collection&lt;Extension&gt;): Builder</text><ellipse cx="47.5" cy="242.0186" fill="#84BE84" rx="3" ry="3" style="stroke: #038048; stroke-width: 1.0;"/><text fill="#000000" font-family="sans-serif" font-size="11" lengthAdjust="spacingAndGlyphs" textLength="140" x="56.5" y="244.6758">sequence(Integer): Builder</text><ellipse cx="47.5" cy="254.9736" fill="#84BE84" rx="3" ry="3" style="stroke: #038048; stroke-width: 1.0;"/><text fill="#000000" font-family="sans-serif" font-size="11" lengthAdjust="spacingAndGlyphs" textLength="104" x="56.5" y="257.6309">text(String): Builder</text><ellipse cx="47.5" cy="267.9287" fill="#84BE84" rx="3" ry="3" style="stroke: #038048; stroke-width: 1.0;"/><text fill="#000000" font-family="sans-serif" font-size="11" lengthAdjust="spacingAndGlyphs" textLength="267" x="56.5" y="270.5859">additionalInstruction(CodeableConcept...): Builder</text><ellipse cx="47.5" cy="280.8838" fill="#84BE84" rx="3" ry="3" style="stroke: #038048; stroke-width: 1.0;"/><text fill="#000000" font-family="sans-serif" font-size="11" lengthAdjust="spacingAndGlyphs" textLength="330" x="56.5" y="283.541">additionalInstruction(Collection&lt;CodeableConcept&gt;): Builder</text><ellipse cx="47.5" cy="293.8389" fill="#84BE84" rx="3" ry="3" style="stroke: #038048; stroke-width: 1.0;"/><text fill="#000000" font-family="sans-serif" font-size="11" lengthAdjust="spacingAndGlyphs" textLength="179" x="56.5" y="296.4961">patientInstruction(String): Builder</text><ellipse cx="47.5" cy="306.7939" fill="#84BE84" rx="3" ry="3" style="stroke: #038048; stroke-width: 1.0;"/><text fill="#000000" font-family="sans-serif" font-size="11" lengthAdjust="spacingAndGlyphs" textLength="122" x="56.5" y="309.4512">timing(Timing): Builder</text><ellipse cx="47.5" cy="319.749" fill="#84BE84" rx="3" ry="3" style="stroke: #038048; stroke-width: 1.0;"/><text fill="#000000" font-family="sans-serif" font-size="11" lengthAdjust="spacingAndGlyphs" textLength="145" x="56.5" y="322.4063">asNeeded(Element): Builder</text><ellipse cx="47.5" cy="332.7041" fill="#84BE84" rx="3" ry="3" style="stroke: #038048; stroke-width: 1.0;"/><text fill="#000000" font-family="sans-serif" font-size="11" lengthAdjust="spacingAndGlyphs" textLength="165" x="56.5" y="335.3613">site(CodeableConcept): Builder</text><ellipse cx="47.5" cy="345.6592" fill="#84BE84" rx="3" ry="3" style="stroke: #038048; stroke-width: 1.0;"/><text fill="#000000" font-family="sans-serif" font-size="11" lengthAdjust="spacingAndGlyphs" textLength="175" x="56.5" y="348.3164">route(CodeableConcept): Builder</text><ellipse cx="47.5" cy="358.6143" fill="#84BE84" rx="3" ry="3" style="stroke: #038048; stroke-width: 1.0;"/><text fill="#000000" font-family="sans-serif" font-size="11" lengthAdjust="spacingAndGlyphs" textLength="187" x="56.5" y="361.2715">method(CodeableConcept): Builder</text><ellipse cx="47.5" cy="371.5693" fill="#84BE84" rx="3" ry="3" style="stroke: #038048; stroke-width: 1.0;"/><text fill="#000000" font-family="sans-serif" font-size="11" lengthAdjust="spacingAndGlyphs" textLength="203" x="56.5" y="374.2266">doseAndRate(DoseAndRate...): Builder</text><ellipse cx="47.5" cy="384.5244" fill="#84BE84" rx="3" ry="3" style="stroke: #038048; stroke-width: 1.0;"/><text fill="#000000" font-family="sans-serif" font-size="11" lengthAdjust="spacingAndGlyphs" textLength="266" x="56.5" y="387.1816">doseAndRate(Collection&lt;DoseAndRate&gt;): Builder</text><ellipse cx="47.5" cy="397.4795" fill="#84BE84" rx="3" ry="3" style="stroke: #038048; stroke-width: 1.0;"/><text fill="#000000" font-family="sans-serif" font-size="11" lengthAdjust="spacingAndGlyphs" textLength="179" x="56.5" y="400.1367">maxDosePerPeriod(Ratio): Builder</text><ellipse cx="47.5" cy="410.4346" fill="#84BE84" rx="3" ry="3" style="stroke: #038048; stroke-width: 1.0;"/><text fill="#000000" font-family="sans-serif" font-size="11" lengthAdjust="spacingAndGlyphs" textLength="279" x="56.5" y="413.0918">maxDosePerAdministration(SimpleQuantity): Builder</text><ellipse cx="47.5" cy="423.3896" fill="#84BE84" rx="3" ry="3" style="stroke: #038048; stroke-width: 1.0;"/><text fill="#000000" font-family="sans-serif" font-size="11" lengthAdjust="spacingAndGlyphs" textLength="241" x="56.5" y="426.0469">maxDosePerLifetime(SimpleQuantity): Builder</text><ellipse cx="47.5" cy="436.3447" fill="#84BE84" rx="3" ry="3" style="stroke: #038048; stroke-width: 1.0;"/><text fill="#000000" font-family="sans-serif" font-size="11" lengthAdjust="spacingAndGlyphs" textLength="81" x="56.5" y="439.002">build(): Dosage</text><polygon fill="#FFFF44" points="47.5,444.2998,51.5,448.2998,47.5,452.2998,43.5,448.2998" style="stroke: #B38D22; stroke-width: 1.0;"/><text fill="#000000" font-family="sans-serif" font-size="11" lengthAdjust="spacingAndGlyphs" textLength="117" x="56.5" y="451.957">from(Dosage): Builder</text></a><!--class com.ibm.fhir.model.type.BackboneElement.Builder--><a href="BackboneElement.Builder.html" target="_top" xlink:actuate="onRequest" xlink:show="new" xlink:title="BackboneElement.Builder.html" xlink:type="simple"><rect fill="#FEFECE" filter="url(#fx9jvj9xy7xj4)" height="59.2207" id="com.ibm.fhir.model.type.BackboneElement.Builder" style="stroke: #A80036; stroke-width: 1.5;" width="205" x="6" y="8"/><ellipse cx="21" cy="27.1328" fill="#A9DCDF" rx="11" ry="11" style="stroke: #A80036; stroke-width: 1.0;"/><path d="M21.1133,22.731 L19.9595,27.8027 L22.2754,27.8027 Z M19.6191,20.4897 L22.6157,20.4897 L25.9609,32.8828 L23.5122,32.8828 L22.7485,29.8198 L19.4697,29.8198 L18.7227,32.8828 L16.2739,32.8828 Z "/><text fill="#000000" font-family="sans-serif" font-size="14" font-style="italic" lengthAdjust="spacingAndGlyphs" textLength="173" x="35" y="26.5352">BackboneElement.Builder</text><text fill="#000000" font-family="sans-serif" font-size="10" font-style="italic" lengthAdjust="spacingAndGlyphs" textLength="118" x="62.5" y="39.1563">com.ibm.fhir.model.type</text><line style="stroke: #A80036; stroke-width: 1.5;" x1="7" x2="210" y1="46.2656" y2="46.2656"/><ellipse cx="17" cy="58.2432" fill="#84BE84" rx="3" ry="3" style="stroke: #038048; stroke-width: 1.0;"/><text fill="#000000" font-family="sans-serif" font-size="11" font-style="italic" lengthAdjust="spacingAndGlyphs" textLength="134" x="26" y="60.9004">build(): BackboneElement</text></a><!--class com.ibm.fhir.model.type.Dosage--><a href="Dosage.html" target="_top" xlink:actuate="onRequest" xlink:show="new" xlink:title="Dosage.html" xlink:type="simple"><rect fill="#FEFECE" filter="url(#fx9jvj9xy7xj4)" height="38.2656" id="com.ibm.fhir.model.type.Dosage" style="stroke: #A80036; stroke-width: 1.5;" width="150" x="246.5" y="18.5"/><ellipse cx="261.5" cy="37.6328" fill="#ADD1B2" rx="11" ry="11" style="stroke: #A80036; stroke-width: 1.0;"/><path d="M263.9731,43.7759 Q263.3921,44.0747 262.7529,44.2241 Q262.1138,44.3735 261.4082,44.3735 Q258.9014,44.3735 257.5815,42.7217 Q256.2617,41.0698 256.2617,37.9487 Q256.2617,34.8193 257.5815,33.1675 Q258.9014,31.5156 261.4082,31.5156 Q262.1138,31.5156 262.7612,31.665 Q263.4087,31.8145 263.9731,32.1133 L263.9731,34.8359 Q263.3423,34.2549 262.7488,33.9851 Q262.1553,33.7153 261.5244,33.7153 Q260.1797,33.7153 259.4949,34.782 Q258.8101,35.8486 258.8101,37.9487 Q258.8101,40.0405 259.4949,41.1072 Q260.1797,42.1738 261.5244,42.1738 Q262.1553,42.1738 262.7488,41.9041 Q263.3423,41.6343 263.9731,41.0532 Z "/><text fill="#000000" font-family="sans-serif" font-size="14" lengthAdjust="spacingAndGlyphs" textLength="51" x="309" y="37.0352">Dosage</text><text fill="#000000" font-family="sans-serif" font-size="10" lengthAdjust="spacingAndGlyphs" textLength="118" x="275.5" y="49.6563">com.ibm.fhir.model.type</text></a><!--link com.ibm.fhir.model.type.BackboneElement.Builder to com.ibm.fhir.model.type.Dosage.Builder--><path d="M128.4784,85.5612 C133.6347,97.9656 139.4842,112.0375 145.6488,126.8675 " fill="none" id="com.ibm.fhir.model.type.BackboneElement.Builder-com.ibm.fhir.model.type.Dosage.Builder" style="stroke: #A80036; stroke-width: 1.0;"/><polygon fill="none" points="121.9762,88.1557,120.7631,67.0009,134.9038,82.7819,121.9762,88.1557" style="stroke: #A80036; stroke-width: 1.0;"/><!--link com.ibm.fhir.model.type.Dosage to com.ibm.fhir.model.type.Dosage.Builder--><path d="M307.6132,70.5947 C301.1415,86.0179 292.9113,105.6319 284.032,126.793 " fill="none" id="com.ibm.fhir.model.type.Dosage-com.ibm.fhir.model.type.Dosage.Builder" style="stroke: #A80036; stroke-width: 1.0;"/><ellipse cx="310.3622" cy="64.0433" fill="#FFFFFF" rx="8" ry="8" style="stroke: #A80036; stroke-width: 1.0;"/><line style="stroke: #A80036; stroke-width: 1.0;" x1="307.2667" x2="313.4576" y1="71.4201" y2="56.6664"/><line style="stroke: #A80036; stroke-width: 1.0;" x1="302.9853" x2="317.739" y1="60.9478" y2="67.1387"/><text fill="#888888" font-family="sans-serif" font-size="10" lengthAdjust="spacingAndGlyphs" textLength="182" x="116.5" y="477.668">UMLDoclet 2.0.5, PlantUML 1.2019.08</text><!--
@startuml
    set namespaceSeparator none
    hide empty fields
    hide empty methods

    class "<size:14>Dosage.Builder\n<size:10>com.ibm.fhir.model.type" as com.ibm.fhir.model.type.Dosage.Builder [[Dosage.Builder.html]] {
        +id(String): Builder
        +extension(Extension...): Builder
        +extension(Collection<Extension>): Builder
        +modifierExtension(Extension...): Builder
        +modifierExtension(Collection<Extension>): Builder
        +sequence(Integer): Builder
        +text(String): Builder
        +additionalInstruction(CodeableConcept...): Builder
        +additionalInstruction(Collection<CodeableConcept>): Builder
        +patientInstruction(String): Builder
        +timing(Timing): Builder
        +asNeeded(Element): Builder
        +site(CodeableConcept): Builder
        +route(CodeableConcept): Builder
        +method(CodeableConcept): Builder
        +doseAndRate(DoseAndRate...): Builder
        +doseAndRate(Collection<DoseAndRate>): Builder
        +maxDosePerPeriod(Ratio): Builder
        +maxDosePerAdministration(SimpleQuantity): Builder
        +maxDosePerLifetime(SimpleQuantity): Builder
        +build(): Dosage
        #from(Dosage): Builder
    }

    abstract class "<size:14>BackboneElement.Builder\n<size:10>com.ibm.fhir.model.type" as com.ibm.fhir.model.type.BackboneElement.Builder [[BackboneElement.Builder.html]] {
        {abstract} +build(): BackboneElement
    }
    class "<size:14>Dosage\n<size:10>com.ibm.fhir.model.type" as com.ibm.fhir.model.type.Dosage [[Dosage.html]]

    com.ibm.fhir.model.type.BackboneElement.Builder <|- - com.ibm.fhir.model.type.Dosage.Builder
    com.ibm.fhir.model.type.Dosage +- - com.ibm.fhir.model.type.Dosage.Builder

    center footer UMLDoclet 2.0.5, PlantUML 1.2019.08
@enduml

PlantUML version 1.2019.08(Sat Jul 13 15:25:14 EDT 2019)
(APACHE source distribution)
Java Runtime: OpenJDK Runtime Environment
JVM: OpenJDK 64-Bit Server VM
Java Version: 11.0.4+11
Operating System: Mac OS X
OS Version: 10.14.6
Default Encoding: UTF-8
Language: en
Country: US
--></g></svg>