<?xml version="1.0" encoding="UTF-8" standalone="no"?><svg xmlns="http://www.w3.org/2000/svg" xmlns:xlink="http://www.w3.org/1999/xlink" contentScriptType="application/ecmascript" contentStyleType="text/css" height="447px" preserveAspectRatio="none" style="width:359px;height:447px;" version="1.1" viewBox="0 0 359 447" width="359px" zoomAndPan="magnify"><defs><filter height="300%" id="f1u0raj7dqsjfx" width="300%" x="-1" y="-1"><feGaussianBlur result="blurOut" stdDeviation="2.0"/><feColorMatrix in="blurOut" result="blurOut2" type="matrix" values="0 0 0 0 0 0 0 0 0 0 0 0 0 0 0 0 0 0 .4 0"/><feOffset dx="4.0" dy="4.0" in="blurOut2" result="blurOut3"/><feBlend in="SourceGraphic" in2="blurOut3" mode="normal"/></filter></defs><g><!--class com.ibm.fhir.model.type.ElementDefinition.Constraint--><a href="ElementDefinition.Constraint.html" target="_top" xlink:actuate="onRequest" xlink:show="new" xlink:title="ElementDefinition.Constraint.html" xlink:type="simple"><rect fill="#FEFECE" filter="url(#f1u0raj7dqsjfx)" height="188.7715" id="com.ibm.fhir.model.type.ElementDefinition.Constraint" style="stroke: #A80036; stroke-width: 1.5;" width="230" x="61.5" y="127"/><ellipse cx="76.5" cy="146.1328" fill="#ADD1B2" rx="11" ry="11" style="stroke: #A80036; stroke-width: 1.0;"/><path d="M78.9731,152.2759 Q78.3921,152.5747 77.7529,152.7241 Q77.1138,152.8735 76.4082,152.8735 Q73.9014,152.8735 72.5815,151.2217 Q71.2617,149.5698 71.2617,146.4487 Q71.2617,143.3193 72.5815,141.6675 Q73.9014,140.0156 76.4082,140.0156 Q77.1138,140.0156 77.7612,140.165 Q78.4087,140.3145 78.9731,140.6133 L78.9731,143.3359 Q78.3423,142.7549 77.7488,142.4851 Q77.1553,142.2153 76.5244,142.2153 Q75.1797,142.2153 74.4949,143.282 Q73.8101,144.3486 73.8101,146.4487 Q73.8101,148.5405 74.4949,149.6072 Q75.1797,150.6738 76.5244,150.6738 Q77.1553,150.6738 77.7488,150.4041 Q78.3423,150.1343 78.9731,149.5532 Z "/><text fill="#000000" font-family="sans-serif" font-size="14" lengthAdjust="spacingAndGlyphs" textLength="198" x="90.5" y="145.5352">ElementDefinition.Constraint</text><text fill="#000000" font-family="sans-serif" font-size="10" lengthAdjust="spacingAndGlyphs" textLength="118" x="130.5" y="158.1563">com.ibm.fhir.model.type</text><line style="stroke: #A80036; stroke-width: 1.5;" x1="62.5" x2="290.5" y1="165.2656" y2="165.2656"/><ellipse cx="72.5" cy="177.2432" fill="#84BE84" rx="3" ry="3" style="stroke: #038048; stroke-width: 1.0;"/><text fill="#000000" font-family="sans-serif" font-size="11" lengthAdjust="spacingAndGlyphs" textLength="60" x="81.5" y="179.9004">getKey(): Id</text><ellipse cx="72.5" cy="190.1982" fill="#84BE84" rx="3" ry="3" style="stroke: #038048; stroke-width: 1.0;"/><text fill="#000000" font-family="sans-serif" font-size="11" lengthAdjust="spacingAndGlyphs" textLength="137" x="81.5" y="192.8555">getRequirements(): String</text><ellipse cx="72.5" cy="203.1533" fill="#84BE84" rx="3" ry="3" style="stroke: #038048; stroke-width: 1.0;"/><text fill="#000000" font-family="sans-serif" font-size="11" lengthAdjust="spacingAndGlyphs" textLength="172" x="81.5" y="205.8105">getSeverity(): ConstraintSeverity</text><ellipse cx="72.5" cy="216.1084" fill="#84BE84" rx="3" ry="3" style="stroke: #038048; stroke-width: 1.0;"/><text fill="#000000" font-family="sans-serif" font-size="11" lengthAdjust="spacingAndGlyphs" textLength="101" x="81.5" y="218.7656">getHuman(): String</text><ellipse cx="72.5" cy="229.0635" fill="#84BE84" rx="3" ry="3" style="stroke: #038048; stroke-width: 1.0;"/><text fill="#000000" font-family="sans-serif" font-size="11" lengthAdjust="spacingAndGlyphs" textLength="123" x="81.5" y="231.7207">getExpression(): String</text><ellipse cx="72.5" cy="242.0186" fill="#84BE84" rx="3" ry="3" style="stroke: #038048; stroke-width: 1.0;"/><text fill="#000000" font-family="sans-serif" font-size="11" lengthAdjust="spacingAndGlyphs" textLength="94" x="81.5" y="244.6758">getXpath(): String</text><ellipse cx="72.5" cy="254.9736" fill="#84BE84" rx="3" ry="3" style="stroke: #038048; stroke-width: 1.0;"/><text fill="#000000" font-family="sans-serif" font-size="11" lengthAdjust="spacingAndGlyphs" textLength="121" x="81.5" y="257.6309">getSource(): Canonical</text><ellipse cx="72.5" cy="267.9287" fill="#84BE84" rx="3" ry="3" style="stroke: #038048; stroke-width: 1.0;"/><text fill="#000000" font-family="sans-serif" font-size="11" lengthAdjust="spacingAndGlyphs" textLength="122" x="81.5" y="270.5859">hasChildren(): boolean</text><ellipse cx="72.5" cy="280.8838" fill="#84BE84" rx="3" ry="3" style="stroke: #038048; stroke-width: 1.0;"/><text fill="#000000" font-family="sans-serif" font-size="11" lengthAdjust="spacingAndGlyphs" textLength="165" x="81.5" y="283.541">accept(String, int, Visitor): void</text><ellipse cx="72.5" cy="293.8389" fill="#84BE84" rx="3" ry="3" style="stroke: #038048; stroke-width: 1.0;"/><text fill="#000000" font-family="sans-serif" font-size="11" lengthAdjust="spacingAndGlyphs" textLength="99" x="81.5" y="296.4961">toBuilder(): Builder</text><ellipse cx="72.5" cy="306.7939" fill="#84BE84" rx="3" ry="3" style="stroke: #038048; stroke-width: 1.0;"/><text fill="#000000" font-family="sans-serif" font-size="11" lengthAdjust="spacingAndGlyphs" text-decoration="underline" textLength="89" x="81.5" y="309.4512">builder(): Builder</text></a><!--class com.ibm.fhir.model.type.BackboneElement--><a href="BackboneElement.html" target="_top" xlink:actuate="onRequest" xlink:show="new" xlink:title="BackboneElement.html" xlink:type="simple"><rect fill="#FEFECE" filter="url(#f1u0raj7dqsjfx)" height="59.2207" id="com.ibm.fhir.model.type.BackboneElement" style="stroke: #A80036; stroke-width: 1.5;" width="153" x="6" y="8"/><ellipse cx="21" cy="27.1328" fill="#A9DCDF" rx="11" ry="11" style="stroke: #A80036; stroke-width: 1.0;"/><path d="M21.1133,22.731 L19.9595,27.8027 L22.2754,27.8027 Z M19.6191,20.4897 L22.6157,20.4897 L25.9609,32.8828 L23.5122,32.8828 L22.7485,29.8198 L19.4697,29.8198 L18.7227,32.8828 L16.2739,32.8828 Z "/><text fill="#000000" font-family="sans-serif" font-size="14" font-style="italic" lengthAdjust="spacingAndGlyphs" textLength="121" x="35" y="26.5352">BackboneElement</text><text fill="#000000" font-family="sans-serif" font-size="10" font-style="italic" lengthAdjust="spacingAndGlyphs" textLength="118" x="36.5" y="39.1563">com.ibm.fhir.model.type</text><line style="stroke: #A80036; stroke-width: 1.5;" x1="7" x2="158" y1="46.2656" y2="46.2656"/><ellipse cx="17" cy="58.2432" fill="#84BE84" rx="3" ry="3" style="stroke: #038048; stroke-width: 1.0;"/><text fill="#000000" font-family="sans-serif" font-size="11" font-style="italic" lengthAdjust="spacingAndGlyphs" textLength="99" x="26" y="60.9004">toBuilder(): Builder</text></a><!--class com.ibm.fhir.model.type.ElementDefinition--><a href="ElementDefinition.html" target="_top" xlink:actuate="onRequest" xlink:show="new" xlink:title="ElementDefinition.html" xlink:type="simple"><rect fill="#FEFECE" filter="url(#f1u0raj7dqsjfx)" height="38.2656" id="com.ibm.fhir.model.type.ElementDefinition" style="stroke: #A80036; stroke-width: 1.5;" width="154" x="194.5" y="18.5"/><ellipse cx="209.5" cy="37.6328" fill="#ADD1B2" rx="11" ry="11" style="stroke: #A80036; stroke-width: 1.0;"/><path d="M211.9731,43.7759 Q211.3921,44.0747 210.7529,44.2241 Q210.1138,44.3735 209.4082,44.3735 Q206.9014,44.3735 205.5815,42.7217 Q204.2617,41.0698 204.2617,37.9487 Q204.2617,34.8193 205.5815,33.1675 Q206.9014,31.5156 209.4082,31.5156 Q210.1138,31.5156 210.7612,31.665 Q211.4087,31.8145 211.9731,32.1133 L211.9731,34.8359 Q211.3423,34.2549 210.7488,33.9851 Q210.1553,33.7153 209.5244,33.7153 Q208.1797,33.7153 207.4949,34.782 Q206.8101,35.8486 206.8101,37.9487 Q206.8101,40.0405 207.4949,41.1072 Q208.1797,42.1738 209.5244,42.1738 Q210.1553,42.1738 210.7488,41.9041 Q211.3423,41.6343 211.9731,41.0532 Z "/><text fill="#000000" font-family="sans-serif" font-size="14" lengthAdjust="spacingAndGlyphs" textLength="122" x="223.5" y="37.0352">ElementDefinition</text><text fill="#000000" font-family="sans-serif" font-size="10" lengthAdjust="spacingAndGlyphs" textLength="118" x="225.5" y="49.6563">com.ibm.fhir.model.type</text></a><!--class com.ibm.fhir.model.type.ElementDefinition.Constraint.Builder--><a href="ElementDefinition.Constraint.Builder.html" target="_top" xlink:actuate="onRequest" xlink:show="new" xlink:title="ElementDefinition.Constraint.Builder.html" xlink:type="simple"><rect fill="#FEFECE" filter="url(#f1u0raj7dqsjfx)" height="38.2656" id="com.ibm.fhir.model.type.ElementDefinition.Constraint.Builder" style="stroke: #A80036; stroke-width: 1.5;" width="282" x="35.5" y="376"/><ellipse cx="50.5" cy="395.1328" fill="#ADD1B2" rx="11" ry="11" style="stroke: #A80036; stroke-width: 1.0;"/><path d="M52.9731,401.2759 Q52.3921,401.5747 51.7529,401.7241 Q51.1138,401.8735 50.4082,401.8735 Q47.9014,401.8735 46.5815,400.2217 Q45.2617,398.5698 45.2617,395.4487 Q45.2617,392.3193 46.5815,390.6675 Q47.9014,389.0156 50.4082,389.0156 Q51.1138,389.0156 51.7612,389.165 Q52.4087,389.3145 52.9731,389.6133 L52.9731,392.3359 Q52.3423,391.7549 51.7488,391.4851 Q51.1553,391.2153 50.5244,391.2153 Q49.1797,391.2153 48.4949,392.282 Q47.8101,393.3486 47.8101,395.4487 Q47.8101,397.5405 48.4949,398.6072 Q49.1797,399.6738 50.5244,399.6738 Q51.1553,399.6738 51.7488,399.4041 Q52.3423,399.1343 52.9731,398.5532 Z "/><text fill="#000000" font-family="sans-serif" font-size="14" lengthAdjust="spacingAndGlyphs" textLength="250" x="64.5" y="394.5352">ElementDefinition.Constraint.Builder</text><text fill="#000000" font-family="sans-serif" font-size="10" lengthAdjust="spacingAndGlyphs" textLength="118" x="130.5" y="407.1563">com.ibm.fhir.model.type</text></a><!--link com.ibm.fhir.model.type.BackboneElement to com.ibm.fhir.model.type.ElementDefinition.Constraint--><path d="M106.855,85.1736 C113.403,97.9911 120.7217,112.3169 128.0867,126.7335 " fill="none" id="com.ibm.fhir.model.type.BackboneElement-com.ibm.fhir.model.type.ElementDefinition.Constraint" style="stroke: #A80036; stroke-width: 1.0;"/><polygon fill="none" points="100.4679,88.0578,97.6027,67.0628,112.9352,81.6886,100.4679,88.0578" style="stroke: #A80036; stroke-width: 1.0;"/><!--link com.ibm.fhir.model.type.ElementDefinition to com.ibm.fhir.model.type.ElementDefinition.Constraint--><path d="M254.5955,70.2414 C246.3425,86.2262 235.9444,106.3656 225.4517,126.6882 " fill="none" id="com.ibm.fhir.model.type.ElementDefinition-com.ibm.fhir.model.type.ElementDefinition.Constraint" style="stroke: #A80036; stroke-width: 1.0;"/><ellipse cx="257.8428" cy="63.9519" fill="#FFFFFF" rx="8" ry="8" style="stroke: #A80036; stroke-width: 1.0;"/><line style="stroke: #A80036; stroke-width: 1.0;" x1="254.1726" x2="261.5129" y1="71.0604" y2="56.8435"/><line style="stroke: #A80036; stroke-width: 1.0;" x1="250.7343" x2="264.9512" y1="60.2818" y2="67.6221"/><!--link com.ibm.fhir.model.type.ElementDefinition.Constraint to com.ibm.fhir.model.type.ElementDefinition.Constraint.Builder--><path d="M176.5,331.3491 C176.5,348.3872 176.5,364.1432 176.5,375.7167 " fill="none" id="com.ibm.fhir.model.type.ElementDefinition.Constraint-com.ibm.fhir.model.type.ElementDefinition.Constraint.Builder" style="stroke: #A80036; stroke-width: 1.0;"/><ellipse cx="176.5001" cy="324.119" fill="#FFFFFF" rx="8" ry="8" style="stroke: #A80036; stroke-width: 1.0;"/><line style="stroke: #A80036; stroke-width: 1.0;" x1="176.5002" x2="176.5" y1="332.119" y2="316.119"/><line style="stroke: #A80036; stroke-width: 1.0;" x1="168.5001" x2="184.5001" y1="324.1191" y2="324.1189"/><text fill="#888888" font-family="sans-serif" font-size="10" lengthAdjust="spacingAndGlyphs" textLength="182" x="92.5" y="433.668">UMLDoclet 2.0.5, PlantUML 1.2019.08</text><!--
@startuml
    set namespaceSeparator none
    hide empty fields
    hide empty methods

    class "<size:14>ElementDefinition.Constraint\n<size:10>com.ibm.fhir.model.type" as com.ibm.fhir.model.type.ElementDefinition.Constraint [[ElementDefinition.Constraint.html]] {
        +getKey(): Id
        +getRequirements(): String
        +getSeverity(): ConstraintSeverity
        +getHuman(): String
        +getExpression(): String
        +getXpath(): String
        +getSource(): Canonical
        +hasChildren(): boolean
        +accept(String, int, Visitor): void
        +toBuilder(): Builder
        {static} +builder(): Builder
    }

    abstract class "<size:14>BackboneElement\n<size:10>com.ibm.fhir.model.type" as com.ibm.fhir.model.type.BackboneElement [[BackboneElement.html]] {
        {abstract} +toBuilder(): Builder
    }
    class "<size:14>ElementDefinition\n<size:10>com.ibm.fhir.model.type" as com.ibm.fhir.model.type.ElementDefinition [[ElementDefinition.html]]
    class "<size:14>ElementDefinition.Constraint.Builder\n<size:10>com.ibm.fhir.model.type" as com.ibm.fhir.model.type.ElementDefinition.Constraint.Builder [[ElementDefinition.Constraint.Builder.html]]

    com.ibm.fhir.model.type.BackboneElement <|- - com.ibm.fhir.model.type.ElementDefinition.Constraint
    com.ibm.fhir.model.type.ElementDefinition +- - com.ibm.fhir.model.type.ElementDefinition.Constraint
    com.ibm.fhir.model.type.ElementDefinition.Constraint +- - com.ibm.fhir.model.type.ElementDefinition.Constraint.Builder

    center footer UMLDoclet 2.0.5, PlantUML 1.2019.08
@enduml

PlantUML version 1.2019.08(Sat Jul 13 15:25:14 EDT 2019)
(APACHE source distribution)
Java Runtime: OpenJDK Runtime Environment
JVM: OpenJDK 64-Bit Server VM
Java Version: 11.0.4+11
Operating System: Mac OS X
OS Version: 10.14.6
Default Encoding: UTF-8
Language: en
Country: US
--></g></svg>