<?xml version="1.0" encoding="UTF-8" standalone="no"?><svg xmlns="http://www.w3.org/2000/svg" xmlns:xlink="http://www.w3.org/1999/xlink" contentScriptType="application/ecmascript" contentStyleType="text/css" height="361px" preserveAspectRatio="none" style="width:210px;height:361px;" version="1.1" viewBox="0 0 210 361" width="210px" zoomAndPan="magnify"><defs><filter height="300%" id="fr5h944i7esc4" width="300%" x="-1" y="-1"><feGaussianBlur result="blurOut" stdDeviation="2.0"/><feColorMatrix in="blurOut" result="blurOut2" type="matrix" values="0 0 0 0 0 0 0 0 0 0 0 0 0 0 0 0 0 0 .4 0"/><feOffset dx="4.0" dy="4.0" in="blurOut2" result="blurOut3"/><feBlend in="SourceGraphic" in2="blurOut3" mode="normal"/></filter></defs><g><!--class com.ibm.fhir.model.type.Oid--><a href="Oid.html" target="_top" xlink:actuate="onRequest" xlink:show="new" xlink:title="Oid.html" xlink:type="simple"><rect fill="#FEFECE" filter="url(#fr5h944i7esc4)" height="123.9961" id="com.ibm.fhir.model.type.Oid" style="stroke: #A80036; stroke-width: 1.5;" width="191" x="6" y="106"/><ellipse cx="39.45" cy="125.1328" fill="#ADD1B2" rx="11" ry="11" style="stroke: #A80036; stroke-width: 1.0;"/><path d="M41.9231,131.2759 Q41.3421,131.5747 40.7029,131.7241 Q40.0638,131.8735 39.3582,131.8735 Q36.8514,131.8735 35.5315,130.2217 Q34.2117,128.5698 34.2117,125.4487 Q34.2117,122.3193 35.5315,120.6675 Q36.8514,119.0156 39.3582,119.0156 Q40.0638,119.0156 40.7112,119.165 Q41.3587,119.3145 41.9231,119.6133 L41.9231,122.3359 Q41.2923,121.7549 40.6988,121.4851 Q40.1053,121.2153 39.4744,121.2153 Q38.1297,121.2153 37.4449,122.282 Q36.7601,123.3486 36.7601,125.4487 Q36.7601,127.5405 37.4449,128.6072 Q38.1297,129.6738 39.4744,129.6738 Q40.1053,129.6738 40.6988,129.4041 Q41.2923,129.1343 41.9231,128.5532 Z "/><text fill="#000000" font-family="sans-serif" font-size="14" lengthAdjust="spacingAndGlyphs" textLength="24" x="104.55" y="124.5352">Oid</text><text fill="#000000" font-family="sans-serif" font-size="10" lengthAdjust="spacingAndGlyphs" textLength="118" x="57.55" y="137.1563">com.ibm.fhir.model.type</text><line style="stroke: #A80036; stroke-width: 1.5;" x1="7" x2="196" y1="144.2656" y2="144.2656"/><ellipse cx="17" cy="156.2432" fill="#84BE84" rx="3" ry="3" style="stroke: #038048; stroke-width: 1.0;"/><text fill="#000000" font-family="sans-serif" font-size="11" lengthAdjust="spacingAndGlyphs" textLength="105" x="26" y="158.9004">hasValue(): boolean</text><ellipse cx="17" cy="169.1982" fill="#84BE84" rx="3" ry="3" style="stroke: #038048; stroke-width: 1.0;"/><text fill="#000000" font-family="sans-serif" font-size="11" lengthAdjust="spacingAndGlyphs" text-decoration="underline" textLength="76" x="26" y="171.8555">of(String): Oid</text><ellipse cx="17" cy="182.1533" fill="#84BE84" rx="3" ry="3" style="stroke: #038048; stroke-width: 1.0;"/><text fill="#000000" font-family="sans-serif" font-size="11" lengthAdjust="spacingAndGlyphs" text-decoration="underline" textLength="77" x="26" y="184.8105">uri(String): Uri</text><ellipse cx="17" cy="195.1084" fill="#84BE84" rx="3" ry="3" style="stroke: #038048; stroke-width: 1.0;"/><text fill="#000000" font-family="sans-serif" font-size="11" lengthAdjust="spacingAndGlyphs" textLength="165" x="26" y="197.7656">accept(String, int, Visitor): void</text><ellipse cx="17" cy="208.0635" fill="#84BE84" rx="3" ry="3" style="stroke: #038048; stroke-width: 1.0;"/><text fill="#000000" font-family="sans-serif" font-size="11" lengthAdjust="spacingAndGlyphs" textLength="99" x="26" y="210.7207">toBuilder(): Builder</text><ellipse cx="17" cy="221.0186" fill="#84BE84" rx="3" ry="3" style="stroke: #038048; stroke-width: 1.0;"/><text fill="#000000" font-family="sans-serif" font-size="11" lengthAdjust="spacingAndGlyphs" text-decoration="underline" textLength="89" x="26" y="223.6758">builder(): Builder</text></a><!--class com.ibm.fhir.model.type.Uri--><a href="Uri.html" target="_top" xlink:actuate="onRequest" xlink:show="new" xlink:title="Uri.html" xlink:type="simple"><rect fill="#FEFECE" filter="url(#fr5h944i7esc4)" height="38.2656" id="com.ibm.fhir.model.type.Uri" style="stroke: #A80036; stroke-width: 1.5;" width="150" x="26.5" y="8"/><ellipse cx="41.5" cy="27.1328" fill="#ADD1B2" rx="11" ry="11" style="stroke: #A80036; stroke-width: 1.0;"/><path d="M43.9731,33.2759 Q43.3921,33.5747 42.7529,33.7241 Q42.1138,33.8735 41.4082,33.8735 Q38.9014,33.8735 37.5815,32.2217 Q36.2617,30.5698 36.2617,27.4487 Q36.2617,24.3193 37.5815,22.6675 Q38.9014,21.0156 41.4082,21.0156 Q42.1138,21.0156 42.7612,21.165 Q43.4087,21.3145 43.9731,21.6133 L43.9731,24.3359 Q43.3423,23.7549 42.7488,23.4851 Q42.1553,23.2153 41.5244,23.2153 Q40.1797,23.2153 39.4949,24.282 Q38.8101,25.3486 38.8101,27.4487 Q38.8101,29.5405 39.4949,30.6072 Q40.1797,31.6738 41.5244,31.6738 Q42.1553,31.6738 42.7488,31.4041 Q43.3423,31.1343 43.9731,30.5532 Z "/><text fill="#000000" font-family="sans-serif" font-size="14" lengthAdjust="spacingAndGlyphs" textLength="20" x="104.5" y="26.5352">Uri</text><text fill="#000000" font-family="sans-serif" font-size="10" lengthAdjust="spacingAndGlyphs" textLength="118" x="55.5" y="39.1563">com.ibm.fhir.model.type</text></a><!--class com.ibm.fhir.model.type.Oid.Builder--><a href="Oid.Builder.html" target="_top" xlink:actuate="onRequest" xlink:show="new" xlink:title="Oid.Builder.html" xlink:type="simple"><rect fill="#FEFECE" filter="url(#fr5h944i7esc4)" height="38.2656" id="com.ibm.fhir.model.type.Oid.Builder" style="stroke: #A80036; stroke-width: 1.5;" width="150" x="26.5" y="290"/><ellipse cx="41.5" cy="309.1328" fill="#ADD1B2" rx="11" ry="11" style="stroke: #A80036; stroke-width: 1.0;"/><path d="M43.9731,315.2759 Q43.3921,315.5747 42.7529,315.7241 Q42.1138,315.8735 41.4082,315.8735 Q38.9014,315.8735 37.5815,314.2217 Q36.2617,312.5698 36.2617,309.4487 Q36.2617,306.3193 37.5815,304.6675 Q38.9014,303.0156 41.4082,303.0156 Q42.1138,303.0156 42.7612,303.165 Q43.4087,303.3145 43.9731,303.6133 L43.9731,306.3359 Q43.3423,305.7549 42.7488,305.4851 Q42.1553,305.2153 41.5244,305.2153 Q40.1797,305.2153 39.4949,306.282 Q38.8101,307.3486 38.8101,309.4487 Q38.8101,311.5405 39.4949,312.6072 Q40.1797,313.6738 41.5244,313.6738 Q42.1553,313.6738 42.7488,313.4041 Q43.3423,313.1343 43.9731,312.5532 Z "/><text fill="#000000" font-family="sans-serif" font-size="14" lengthAdjust="spacingAndGlyphs" textLength="76" x="76.5" y="308.5352">Oid.Builder</text><text fill="#000000" font-family="sans-serif" font-size="10" lengthAdjust="spacingAndGlyphs" textLength="118" x="55.5" y="321.1563">com.ibm.fhir.model.type</text></a><!--link com.ibm.fhir.model.type.Uri to com.ibm.fhir.model.type.Oid--><path d="M101.5,66.069 C101.5,78.4269 101.5,92.405 101.5,105.9598 " fill="none" id="com.ibm.fhir.model.type.Uri-com.ibm.fhir.model.type.Oid" style="stroke: #A80036; stroke-width: 1.0;"/><polygon fill="none" points="94.5001,66.0159,101.5,46.0159,108.5001,66.0159,94.5001,66.0159" style="stroke: #A80036; stroke-width: 1.0;"/><!--link com.ibm.fhir.model.type.Oid to com.ibm.fhir.model.type.Oid.Builder--><path d="M101.5,245.4678 C101.5,261.9897 101.5,277.9963 101.5,289.8098 " fill="none" id="com.ibm.fhir.model.type.Oid-com.ibm.fhir.model.type.Oid.Builder" style="stroke: #A80036; stroke-width: 1.0;"/><ellipse cx="101.5" cy="238.2551" fill="#FFFFFF" rx="8" ry="8" style="stroke: #A80036; stroke-width: 1.0;"/><line style="stroke: #A80036; stroke-width: 1.0;" x1="101.5" x2="101.5" y1="246.2551" y2="230.2551"/><line style="stroke: #A80036; stroke-width: 1.0;" x1="93.5" x2="109.5" y1="238.2551" y2="238.2551"/><text fill="#888888" font-family="sans-serif" font-size="10" lengthAdjust="spacingAndGlyphs" textLength="182" x="16.5" y="347.668">UMLDoclet 2.0.5, PlantUML 1.2019.08</text><!--
@startuml
    set namespaceSeparator none
    hide empty fields
    hide empty methods

    class "<size:14>Oid\n<size:10>com.ibm.fhir.model.type" as com.ibm.fhir.model.type.Oid [[Oid.html]] {
        +hasValue(): boolean
        {static} +of(String): Oid
        {static} +uri(String): Uri
        +accept(String, int, Visitor): void
        +toBuilder(): Builder
        {static} +builder(): Builder
    }

    class "<size:14>Uri\n<size:10>com.ibm.fhir.model.type" as com.ibm.fhir.model.type.Uri [[Uri.html]]
    class "<size:14>Oid.Builder\n<size:10>com.ibm.fhir.model.type" as com.ibm.fhir.model.type.Oid.Builder [[Oid.Builder.html]]

    com.ibm.fhir.model.type.Uri <|- - com.ibm.fhir.model.type.Oid
    com.ibm.fhir.model.type.Oid +- - com.ibm.fhir.model.type.Oid.Builder

    center footer UMLDoclet 2.0.5, PlantUML 1.2019.08
@enduml

PlantUML version 1.2019.08(Sat Jul 13 15:25:14 EDT 2019)
(APACHE source distribution)
Java Runtime: OpenJDK Runtime Environment
JVM: OpenJDK 64-Bit Server VM
Java Version: 11.0.4+11
Operating System: Mac OS X
OS Version: 10.14.6
Default Encoding: UTF-8
Language: en
Country: US
--></g></svg>