<?xml version="1.0" encoding="UTF-8" standalone="no"?><svg xmlns="http://www.w3.org/2000/svg" xmlns:xlink="http://www.w3.org/1999/xlink" contentScriptType="application/ecmascript" contentStyleType="text/css" height="172px" preserveAspectRatio="none" style="width:367px;height:172px;" version="1.1" viewBox="0 0 367 172" width="367px" zoomAndPan="magnify"><defs><filter height="300%" id="fd5ow6zrzjtks" width="300%" x="-1" y="-1"><feGaussianBlur result="blurOut" stdDeviation="2.0"/><feColorMatrix in="blurOut" result="blurOut2" type="matrix" values="0 0 0 0 0 0 0 0 0 0 0 0 0 0 0 0 0 0 .4 0"/><feOffset dx="4.0" dy="4.0" in="blurOut2" result="blurOut3"/><feBlend in="SourceGraphic" in2="blurOut3" mode="normal"/></filter></defs><g><!--MD5=[10b5c5d89ed1849a59cdd31ef9db718d]
class com.ibm.fhir.bucket.api.ResourceBundleError--><a href="ResourceBundleError.html" target="_top" title="ResourceBundleError.html" xlink:actuate="onRequest" xlink:href="ResourceBundleError.html" xlink:show="new" xlink:title="ResourceBundleError.html" xlink:type="simple"><rect fill="#FEFECE" filter="url(#fd5ow6zrzjtks)" height="135.5703" id="com.ibm.fhir.bucket.api.ResourceBundleError" style="stroke: #A80036; stroke-width: 1.5;" width="349" x="7" y="7"/><ellipse cx="102.75" cy="25.9688" fill="#ADD1B2" rx="11" ry="11" style="stroke: #A80036; stroke-width: 1.0;"/><path d="M105.7188,31.6094 Q105.1406,31.9063 104.5,32.0469 Q103.8594,32.2031 103.1563,32.2031 Q100.6563,32.2031 99.3281,30.5625 Q98.0156,28.9063 98.0156,25.7813 Q98.0156,22.6563 99.3281,21 Q100.6563,19.3438 103.1563,19.3438 Q103.8594,19.3438 104.5,19.5 Q105.1563,19.6563 105.7188,19.9531 L105.7188,22.6719 Q105.0938,22.0938 104.5,21.8281 Q103.9063,21.5469 103.2813,21.5469 Q101.9375,21.5469 101.25,22.625 Q100.5625,23.6875 100.5625,25.7813 Q100.5625,27.875 101.25,28.9531 Q101.9375,30.0156 103.2813,30.0156 Q103.9063,30.0156 104.5,29.75 Q105.0938,29.4688 105.7188,28.8906 L105.7188,31.6094 Z "/><text fill="#000000" font-family="sans-serif" font-size="14" lengthAdjust="spacingAndGlyphs" textLength="149" x="123.25" y="24.9951">ResourceBundleError</text><text fill="#000000" font-family="sans-serif" font-size="10" lengthAdjust="spacingAndGlyphs" textLength="113" x="141.25" y="37.5791">com.ibm.fhir.bucket.api</text><line style="stroke: #A80036; stroke-width: 1.5;" x1="8" x2="355" y1="44.9375" y2="44.9375"/><ellipse cx="18" cy="55.9375" fill="#84BE84" rx="3" ry="3" style="stroke: #038048; stroke-width: 1.0;"/><text fill="#000000" font-family="sans-serif" font-size="11" lengthAdjust="spacingAndGlyphs" textLength="323" x="27" y="59.1479">ResourceBundleError(int, String, Integer, Integer, String)</text><ellipse cx="18" cy="68.7422" fill="#84BE84" rx="3" ry="3" style="stroke: #038048; stroke-width: 1.0;"/><text fill="#000000" font-family="sans-serif" font-size="11" lengthAdjust="spacingAndGlyphs" textLength="185" x="27" y="71.9526">ResourceBundleError(int, String)</text><ellipse cx="18" cy="81.5469" fill="#84BE84" rx="3" ry="3" style="stroke: #038048; stroke-width: 1.0;"/><text fill="#000000" font-family="sans-serif" font-size="11" lengthAdjust="spacingAndGlyphs" textLength="116" x="27" y="84.7573">getLineNumber(): int</text><ellipse cx="18" cy="94.3516" fill="#84BE84" rx="3" ry="3" style="stroke: #038048; stroke-width: 1.0;"/><text fill="#000000" font-family="sans-serif" font-size="11" lengthAdjust="spacingAndGlyphs" textLength="121" x="27" y="97.562">getErrorText(): String</text><ellipse cx="18" cy="107.1563" fill="#84BE84" rx="3" ry="3" style="stroke: #038048; stroke-width: 1.0;"/><text fill="#000000" font-family="sans-serif" font-size="11" lengthAdjust="spacingAndGlyphs" textLength="174" x="27" y="110.3667">getResponseTimeMs(): Integer</text><ellipse cx="18" cy="119.9609" fill="#84BE84" rx="3" ry="3" style="stroke: #038048; stroke-width: 1.0;"/><text fill="#000000" font-family="sans-serif" font-size="11" lengthAdjust="spacingAndGlyphs" textLength="163" x="27" y="123.1714">getHttpStatusCode(): Integer</text><ellipse cx="18" cy="132.7656" fill="#84BE84" rx="3" ry="3" style="stroke: #038048; stroke-width: 1.0;"/><text fill="#000000" font-family="sans-serif" font-size="11" lengthAdjust="spacingAndGlyphs" textLength="152" x="27" y="135.9761">getHttpStatusText(): String</text></a><text fill="#888888" font-family="sans-serif" font-size="10" lengthAdjust="spacingAndGlyphs" textLength="186" x="88.5" y="158.8525">UMLDoclet 2.0.7, PlantUML 1.2019.12</text><!--MD5=[9c77d73ab913651df90f0c400be822fe]
@startuml
    set namespaceSeparator none
    hide empty fields
    hide empty methods

    class "<size:14>ResourceBundleError\n<size:10>com.ibm.fhir.bucket.api" as com.ibm.fhir.bucket.api.ResourceBundleError [[ResourceBundleError.html]] {
        +ResourceBundleError(int, String, Integer, Integer, String)
        +ResourceBundleError(int, String)
        +getLineNumber(): int
        +getErrorText(): String
        +getResponseTimeMs(): Integer
        +getHttpStatusCode(): Integer
        +getHttpStatusText(): String
    }

    center footer UMLDoclet 2.0.7, PlantUML 1.2019.12
@enduml

PlantUML version 1.2019.12(Sun Nov 03 10:24:54 UTC 2019)
(APACHE source distribution)
Java Runtime: OpenJDK Runtime Environment
JVM: OpenJDK 64-Bit Server VM
Java Version: 11.0.8+10
Operating System: Linux
Default Encoding: UTF-8
Language: en
Country: null
--></g></svg>