<?xml version="1.0" encoding="UTF-8" standalone="no"?><svg xmlns="http://www.w3.org/2000/svg" xmlns:xlink="http://www.w3.org/1999/xlink" contentScriptType="application/ecmascript" contentStyleType="text/css" height="224px" preserveAspectRatio="none" style="width:339px;height:224px;" version="1.1" viewBox="0 0 339 224" width="339px" zoomAndPan="magnify"><defs><filter height="300%" id="f1ge4oqus44av0" width="300%" x="-1" y="-1"><feGaussianBlur result="blurOut" stdDeviation="2.0"/><feColorMatrix in="blurOut" result="blurOut2" type="matrix" values="0 0 0 0 0 0 0 0 0 0 0 0 0 0 0 0 0 0 .4 0"/><feOffset dx="4.0" dy="4.0" in="blurOut2" result="blurOut3"/><feBlend in="SourceGraphic" in2="blurOut3" mode="normal"/></filter></defs><g><!--class com.ibm.fhir.server.util.ReferenceMappingVisitor--><a href="ReferenceMappingVisitor.html" target="_top" xlink:actuate="onRequest" xlink:show="new" xlink:title="ReferenceMappingVisitor.html" xlink:type="simple"><rect fill="#FEFECE" filter="url(#f1ge4oqus44av0)" height="85.1309" id="com.ibm.fhir.server.util.ReferenceMappingVisitor" style="stroke: #A80036; stroke-width: 1.5;" width="319" x="6" y="106"/><ellipse cx="21" cy="125.1328" fill="#ADD1B2" rx="11" ry="11" style="stroke: #A80036; stroke-width: 1.0;"/><path d="M23.4731,131.2759 Q22.8921,131.5747 22.2529,131.7241 Q21.6138,131.8735 20.9082,131.8735 Q18.4014,131.8735 17.0815,130.2217 Q15.7617,128.5698 15.7617,125.4487 Q15.7617,122.3193 17.0815,120.6675 Q18.4014,119.0156 20.9082,119.0156 Q21.6138,119.0156 22.2612,119.165 Q22.9087,119.3145 23.4731,119.6133 L23.4731,122.3359 Q22.8423,121.7549 22.2488,121.4851 Q21.6553,121.2153 21.0244,121.2153 Q19.6797,121.2153 18.9949,122.282 Q18.3101,123.3486 18.3101,125.4487 Q18.3101,127.5405 18.9949,128.6072 Q19.6797,129.6738 21.0244,129.6738 Q21.6553,129.6738 22.2488,129.4041 Q22.8423,129.1343 23.4731,128.5532 Z "/><text fill="#000000" font-family="sans-serif" font-size="14" lengthAdjust="spacingAndGlyphs" textLength="172" x="35" y="124.5352">ReferenceMappingVisitor</text><text fill="#000000" font-family="sans-serif" font-size="10" lengthAdjust="spacingAndGlyphs" textLength="113" x="64.5" y="137.1563">com.ibm.fhir.server.util</text><rect fill="#FFFFFF" height="16.1328" style="stroke: #000000; stroke-width: 1.0; stroke-dasharray: 2.0,2.0;" width="113" x="215" y="103"/><text fill="#000000" font-family="sans-serif" font-size="12" font-style="italic" lengthAdjust="spacingAndGlyphs" textLength="111" x="216" y="115.6016">T extends Visitable</text><line style="stroke: #A80036; stroke-width: 1.5;" x1="7" x2="324" y1="144.2656" y2="144.2656"/><ellipse cx="17" cy="156.2432" fill="#84BE84" rx="3" ry="3" style="stroke: #038048; stroke-width: 1.0;"/><text fill="#000000" font-family="sans-serif" font-size="11" lengthAdjust="spacingAndGlyphs" textLength="252" x="26" y="158.9004">ReferenceMappingVisitor(Map&lt;String, String&gt;)</text><ellipse cx="17" cy="169.1982" fill="#84BE84" rx="3" ry="3" style="stroke: #038048; stroke-width: 1.0;"/><text fill="#000000" font-family="sans-serif" font-size="11" lengthAdjust="spacingAndGlyphs" textLength="190" x="26" y="171.8555">visit(String, int, Reference): boolean</text><ellipse cx="17" cy="182.1533" fill="#84BE84" rx="3" ry="3" style="stroke: #038048; stroke-width: 1.0;"/><text fill="#000000" font-family="sans-serif" font-size="11" lengthAdjust="spacingAndGlyphs" textLength="113" x="26" y="184.8105">getErrorMsg(): String</text></a><!--class com.ibm.fhir.model.visitor.CopyingVisitor--><a href="../../model/visitor/CopyingVisitor.html" target="_top" xlink:actuate="onRequest" xlink:show="new" xlink:title="../../model/visitor/CopyingVisitor.html" xlink:type="simple"><rect fill="#FEFECE" filter="url(#f1ge4oqus44av0)" height="38.2656" id="com.ibm.fhir.model.visitor.CopyingVisitor" style="stroke: #A80036; stroke-width: 1.5;" width="274" x="28.5" y="8"/><ellipse cx="43.5" cy="27.1328" fill="#ADD1B2" rx="11" ry="11" style="stroke: #A80036; stroke-width: 1.0;"/><path d="M45.9731,33.2759 Q45.3921,33.5747 44.7529,33.7241 Q44.1138,33.8735 43.4082,33.8735 Q40.9014,33.8735 39.5815,32.2217 Q38.2617,30.5698 38.2617,27.4487 Q38.2617,24.3193 39.5815,22.6675 Q40.9014,21.0156 43.4082,21.0156 Q44.1138,21.0156 44.7612,21.165 Q45.4087,21.3145 45.9731,21.6133 L45.9731,24.3359 Q45.3423,23.7549 44.7488,23.4851 Q44.1553,23.2153 43.5244,23.2153 Q42.1797,23.2153 41.4949,24.282 Q40.8101,25.3486 40.8101,27.4487 Q40.8101,29.5405 41.4949,30.6072 Q42.1797,31.6738 43.5244,31.6738 Q44.1553,31.6738 44.7488,31.4041 Q45.3423,31.1343 45.9731,30.5532 Z "/><text fill="#000000" font-family="sans-serif" font-size="14" lengthAdjust="spacingAndGlyphs" textLength="101" x="70.5" y="26.5352">CopyingVisitor</text><text fill="#000000" font-family="sans-serif" font-size="10" lengthAdjust="spacingAndGlyphs" textLength="127" x="57.5" y="39.1563">com.ibm.fhir.model.visitor</text><rect fill="#FFFFFF" height="16.1328" style="stroke: #000000; stroke-width: 1.0; stroke-dasharray: 2.0,2.0;" width="113" x="192.5" y="5"/><text fill="#000000" font-family="sans-serif" font-size="12" font-style="italic" lengthAdjust="spacingAndGlyphs" textLength="111" x="193.5" y="17.6016">T extends Visitable</text></a><!--link com.ibm.fhir.model.visitor.CopyingVisitor to com.ibm.fhir.server.util.ReferenceMappingVisitor--><path d="M165.5,66.3291 C165.5,78.9819 165.5,93.0566 165.5,105.9312 " fill="none" id="com.ibm.fhir.model.visitor.CopyingVisitor-com.ibm.fhir.server.util.ReferenceMappingVisitor" style="stroke: #A80036; stroke-width: 1.0;"/><polygon fill="none" points="158.5001,66.2521,165.5,46.252,172.5001,66.252,158.5001,66.2521" style="stroke: #A80036; stroke-width: 1.0;"/><text fill="#888888" font-family="sans-serif" font-size="10" lengthAdjust="spacingAndGlyphs" textLength="182" x="80.5" y="210.668">UMLDoclet 2.0.5, PlantUML 1.2019.08</text><!--
@startuml
    set namespaceSeparator none
    hide empty fields
    hide empty methods

    class "<size:14>ReferenceMappingVisitor\n<size:10>com.ibm.fhir.server.util" as com.ibm.fhir.server.util.ReferenceMappingVisitor<T extends Visitable> [[ReferenceMappingVisitor.html]] {
        +ReferenceMappingVisitor(Map<String, String>)
        +visit(String, int, Reference): boolean
        +getErrorMsg(): String
    }

    class "<size:14>CopyingVisitor\n<size:10>com.ibm.fhir.model.visitor" as com.ibm.fhir.model.visitor.CopyingVisitor<T extends Visitable> [[../../model/visitor/CopyingVisitor.html]]

    com.ibm.fhir.model.visitor.CopyingVisitor <|- - com.ibm.fhir.server.util.ReferenceMappingVisitor

    center footer UMLDoclet 2.0.5, PlantUML 1.2019.08
@enduml

PlantUML version 1.2019.08(Sat Jul 13 15:25:14 EDT 2019)
(APACHE source distribution)
Java Runtime: OpenJDK Runtime Environment
JVM: OpenJDK 64-Bit Server VM
Java Version: 11.0.4+11
Operating System: Mac OS X
OS Version: 10.14.6
Default Encoding: UTF-8
Language: en
Country: US
--></g></svg>