<?xml version="1.0" encoding="UTF-8" standalone="no"?><svg xmlns="http://www.w3.org/2000/svg" xmlns:xlink="http://www.w3.org/1999/xlink" contentScriptType="application/ecmascript" contentStyleType="text/css" height="273px" preserveAspectRatio="none" style="width:2469px;height:273px;" version="1.1" viewBox="0 0 2469 273" width="2469px" zoomAndPan="magnify"><defs><filter height="300%" id="f1hdqekzwf4ed1" width="300%" x="-1" y="-1"><feGaussianBlur result="blurOut" stdDeviation="2.0"/><feColorMatrix in="blurOut" result="blurOut2" type="matrix" values="0 0 0 0 0 0 0 0 0 0 0 0 0 0 0 0 0 0 .4 0"/><feOffset dx="4.0" dy="4.0" in="blurOut2" result="blurOut3"/><feBlend in="SourceGraphic" in2="blurOut3" mode="normal"/></filter></defs><g><!--MD5=[ac0808f4dc5a1c646f325f3143376d37]
cluster com.ibm.fhir.search.reference.value--><polygon fill="#FFFFFF" filter="url(#f1hdqekzwf4ed1)" points="14,16,308,16,315,38.2969,2447,38.2969,2447,233,14,233,14,16" style="stroke: #000000; stroke-width: 1.5;"/><line style="stroke: #000000; stroke-width: 1.5;" x1="14" x2="315" y1="38.2969" y2="38.2969"/><text fill="#000000" font-family="sans-serif" font-size="14" font-weight="bold" lengthAdjust="spacingAndGlyphs" textLength="288" x="18" y="30.9951">com.ibm.fhir.search.reference.value</text><!--MD5=[191cd1c4dda870442f3137f76d865d75]
class com.ibm.fhir.search.reference.value.IdHandlerImpl--><a href="IdHandlerImpl.html" target="_top" title="IdHandlerImpl.html" xlink:actuate="onRequest" xlink:href="IdHandlerImpl.html" xlink:show="new" xlink:title="IdHandlerImpl.html" xlink:type="simple"><rect fill="#FEFECE" filter="url(#f1hdqekzwf4ed1)" height="60.8047" id="com.ibm.fhir.search.reference.value.IdHandlerImpl" style="stroke: #A80036; stroke-width: 1.5;" width="578" x="22" y="164"/><ellipse cx="264.25" cy="180" fill="#ADD1B2" rx="11" ry="11" style="stroke: #A80036; stroke-width: 1.0;"/><path d="M267.2188,185.6406 Q266.6406,185.9375 266,186.0781 Q265.3594,186.2344 264.6563,186.2344 Q262.1563,186.2344 260.8281,184.5938 Q259.5156,182.9375 259.5156,179.8125 Q259.5156,176.6875 260.8281,175.0313 Q262.1563,173.375 264.6563,173.375 Q265.3594,173.375 266,173.5313 Q266.6563,173.6875 267.2188,173.9844 L267.2188,176.7031 Q266.5938,176.125 266,175.8594 Q265.4063,175.5781 264.7813,175.5781 Q263.4375,175.5781 262.75,176.6563 Q262.0625,177.7188 262.0625,179.8125 Q262.0625,181.9063 262.75,182.9844 Q263.4375,184.0469 264.7813,184.0469 Q265.4063,184.0469 266,183.7813 Q266.5938,183.5 267.2188,182.9219 L267.2188,185.6406 Z "/><text fill="#000000" font-family="sans-serif" font-size="12" lengthAdjust="spacingAndGlyphs" textLength="85" x="284.75" y="184.1543">IdHandlerImpl</text><line style="stroke: #A80036; stroke-width: 1.5;" x1="23" x2="599" y1="196" y2="196"/><line style="stroke: #A80036; stroke-width: 1.5;" x1="23" x2="599" y1="204" y2="204"/><ellipse cx="33" cy="215" fill="#84BE84" rx="3" ry="3" style="stroke: #038048; stroke-width: 1.0;"/><text fill="#000000" font-family="sans-serif" font-size="11" lengthAdjust="spacingAndGlyphs" textLength="552" x="42" y="218.2104">processParameter(String, List&lt;String&gt;, List&lt;QueryParameterValue&gt;, String, List&lt;String&gt;): void</text></a><!--MD5=[91c5f7c4b642bb57e222f3240f845dad]
class com.ibm.fhir.search.reference.value.CanonicalUrlHandlerImpl--><a href="CanonicalUrlHandlerImpl.html" target="_top" title="CanonicalUrlHandlerImpl.html" xlink:actuate="onRequest" xlink:href="CanonicalUrlHandlerImpl.html" xlink:show="new" xlink:title="CanonicalUrlHandlerImpl.html" xlink:type="simple"><rect fill="#FEFECE" filter="url(#f1hdqekzwf4ed1)" height="60.8047" id="com.ibm.fhir.search.reference.value.CanonicalUrlHandlerImpl" style="stroke: #A80036; stroke-width: 1.5;" width="578" x="635" y="164"/><ellipse cx="843.75" cy="180" fill="#ADD1B2" rx="11" ry="11" style="stroke: #A80036; stroke-width: 1.0;"/><path d="M846.7188,185.6406 Q846.1406,185.9375 845.5,186.0781 Q844.8594,186.2344 844.1563,186.2344 Q841.6563,186.2344 840.3281,184.5938 Q839.0156,182.9375 839.0156,179.8125 Q839.0156,176.6875 840.3281,175.0313 Q841.6563,173.375 844.1563,173.375 Q844.8594,173.375 845.5,173.5313 Q846.1563,173.6875 846.7188,173.9844 L846.7188,176.7031 Q846.0938,176.125 845.5,175.8594 Q844.9063,175.5781 844.2813,175.5781 Q842.9375,175.5781 842.25,176.6563 Q841.5625,177.7188 841.5625,179.8125 Q841.5625,181.9063 842.25,182.9844 Q842.9375,184.0469 844.2813,184.0469 Q844.9063,184.0469 845.5,183.7813 Q846.0938,183.5 846.7188,182.9219 L846.7188,185.6406 Z "/><text fill="#000000" font-family="sans-serif" font-size="12" lengthAdjust="spacingAndGlyphs" textLength="152" x="864.25" y="184.1543">CanonicalUrlHandlerImpl</text><line style="stroke: #A80036; stroke-width: 1.5;" x1="636" x2="1212" y1="196" y2="196"/><line style="stroke: #A80036; stroke-width: 1.5;" x1="636" x2="1212" y1="204" y2="204"/><ellipse cx="646" cy="215" fill="#84BE84" rx="3" ry="3" style="stroke: #038048; stroke-width: 1.0;"/><text fill="#000000" font-family="sans-serif" font-size="11" lengthAdjust="spacingAndGlyphs" textLength="552" x="655" y="218.2104">processParameter(String, List&lt;String&gt;, List&lt;QueryParameterValue&gt;, String, List&lt;String&gt;): void</text></a><!--MD5=[a2cde1dd3a185f9a72d1accc593619e7]
class com.ibm.fhir.search.reference.value.ParameterValueHandler--><a href="ParameterValueHandler.html" target="_top" title="ParameterValueHandler.html" xlink:actuate="onRequest" xlink:href="ParameterValueHandler.html" xlink:show="new" xlink:title="ParameterValueHandler.html" xlink:type="simple"><rect fill="#FEFECE" filter="url(#f1hdqekzwf4ed1)" height="60.8047" id="com.ibm.fhir.search.reference.value.ParameterValueHandler" style="stroke: #A80036; stroke-width: 1.5;" width="578" x="941" y="43"/><ellipse cx="1150.75" cy="59" fill="#B4A7E5" rx="11" ry="11" style="stroke: #A80036; stroke-width: 1.0;"/><path d="M1146.6719,54.7656 L1146.6719,52.6094 L1154.0625,52.6094 L1154.0625,54.7656 L1151.5938,54.7656 L1151.5938,62.8438 L1154.0625,62.8438 L1154.0625,65 L1146.6719,65 L1146.6719,62.8438 L1149.1406,62.8438 L1149.1406,54.7656 L1146.6719,54.7656 Z "/><text fill="#000000" font-family="sans-serif" font-size="12" font-style="italic" lengthAdjust="spacingAndGlyphs" textLength="150" x="1171.25" y="63.1543">ParameterValueHandler</text><line style="stroke: #A80036; stroke-width: 1.5;" x1="942" x2="1518" y1="75" y2="75"/><line style="stroke: #A80036; stroke-width: 1.5;" x1="942" x2="1518" y1="83" y2="83"/><ellipse cx="952" cy="94" fill="#84BE84" rx="3" ry="3" style="stroke: #038048; stroke-width: 1.0;"/><text fill="#000000" font-family="sans-serif" font-size="11" font-style="italic" lengthAdjust="spacingAndGlyphs" textLength="552" x="961" y="97.2104">processParameter(String, List&lt;String&gt;, List&lt;QueryParameterValue&gt;, String, List&lt;String&gt;): void</text></a><!--MD5=[9cfad085079e9761d327b6ba319548a1]
class com.ibm.fhir.search.reference.value.TypeIdHandlerImpl--><a href="TypeIdHandlerImpl.html" target="_top" title="TypeIdHandlerImpl.html" xlink:actuate="onRequest" xlink:href="TypeIdHandlerImpl.html" xlink:show="new" xlink:title="TypeIdHandlerImpl.html" xlink:type="simple"><rect fill="#FEFECE" filter="url(#f1hdqekzwf4ed1)" height="60.8047" id="com.ibm.fhir.search.reference.value.TypeIdHandlerImpl" style="stroke: #A80036; stroke-width: 1.5;" width="578" x="1248" y="164"/><ellipse cx="1475.75" cy="180" fill="#ADD1B2" rx="11" ry="11" style="stroke: #A80036; stroke-width: 1.0;"/><path d="M1478.7188,185.6406 Q1478.1406,185.9375 1477.5,186.0781 Q1476.8594,186.2344 1476.1563,186.2344 Q1473.6563,186.2344 1472.3281,184.5938 Q1471.0156,182.9375 1471.0156,179.8125 Q1471.0156,176.6875 1472.3281,175.0313 Q1473.6563,173.375 1476.1563,173.375 Q1476.8594,173.375 1477.5,173.5313 Q1478.1563,173.6875 1478.7188,173.9844 L1478.7188,176.7031 Q1478.0938,176.125 1477.5,175.8594 Q1476.9063,175.5781 1476.2813,175.5781 Q1474.9375,175.5781 1474.25,176.6563 Q1473.5625,177.7188 1473.5625,179.8125 Q1473.5625,181.9063 1474.25,182.9844 Q1474.9375,184.0469 1476.2813,184.0469 Q1476.9063,184.0469 1477.5,183.7813 Q1478.0938,183.5 1478.7188,182.9219 L1478.7188,185.6406 Z "/><text fill="#000000" font-family="sans-serif" font-size="12" lengthAdjust="spacingAndGlyphs" textLength="114" x="1496.25" y="184.1543">TypeIdHandlerImpl</text><line style="stroke: #A80036; stroke-width: 1.5;" x1="1249" x2="1825" y1="196" y2="196"/><line style="stroke: #A80036; stroke-width: 1.5;" x1="1249" x2="1825" y1="204" y2="204"/><ellipse cx="1259" cy="215" fill="#84BE84" rx="3" ry="3" style="stroke: #038048; stroke-width: 1.0;"/><text fill="#000000" font-family="sans-serif" font-size="11" lengthAdjust="spacingAndGlyphs" textLength="552" x="1268" y="218.2104">processParameter(String, List&lt;String&gt;, List&lt;QueryParameterValue&gt;, String, List&lt;String&gt;): void</text></a><!--MD5=[4a1d3ac687dcf2c9c8615224281d5725]
class com.ibm.fhir.search.reference.value.UrlHandlerImpl--><a href="UrlHandlerImpl.html" target="_top" title="UrlHandlerImpl.html" xlink:actuate="onRequest" xlink:href="UrlHandlerImpl.html" xlink:show="new" xlink:title="UrlHandlerImpl.html" xlink:type="simple"><rect fill="#FEFECE" filter="url(#f1hdqekzwf4ed1)" height="60.8047" id="com.ibm.fhir.search.reference.value.UrlHandlerImpl" style="stroke: #A80036; stroke-width: 1.5;" width="578" x="1861" y="164"/><ellipse cx="2100.25" cy="180" fill="#ADD1B2" rx="11" ry="11" style="stroke: #A80036; stroke-width: 1.0;"/><path d="M2103.2188,185.6406 Q2102.6406,185.9375 2102,186.0781 Q2101.3594,186.2344 2100.6563,186.2344 Q2098.1563,186.2344 2096.8281,184.5938 Q2095.5156,182.9375 2095.5156,179.8125 Q2095.5156,176.6875 2096.8281,175.0313 Q2098.1563,173.375 2100.6563,173.375 Q2101.3594,173.375 2102,173.5313 Q2102.6563,173.6875 2103.2188,173.9844 L2103.2188,176.7031 Q2102.5938,176.125 2102,175.8594 Q2101.4063,175.5781 2100.7813,175.5781 Q2099.4375,175.5781 2098.75,176.6563 Q2098.0625,177.7188 2098.0625,179.8125 Q2098.0625,181.9063 2098.75,182.9844 Q2099.4375,184.0469 2100.7813,184.0469 Q2101.4063,184.0469 2102,183.7813 Q2102.5938,183.5 2103.2188,182.9219 L2103.2188,185.6406 Z "/><text fill="#000000" font-family="sans-serif" font-size="12" lengthAdjust="spacingAndGlyphs" textLength="91" x="2120.75" y="184.1543">UrlHandlerImpl</text><line style="stroke: #A80036; stroke-width: 1.5;" x1="1862" x2="2438" y1="196" y2="196"/><line style="stroke: #A80036; stroke-width: 1.5;" x1="1862" x2="2438" y1="204" y2="204"/><ellipse cx="1872" cy="215" fill="#84BE84" rx="3" ry="3" style="stroke: #038048; stroke-width: 1.0;"/><text fill="#000000" font-family="sans-serif" font-size="11" lengthAdjust="spacingAndGlyphs" textLength="552" x="1881" y="218.2104">processParameter(String, List&lt;String&gt;, List&lt;QueryParameterValue&gt;, String, List&lt;String&gt;): void</text></a><!--MD5=[421790143d6dcf9f3b5a7877d9c92de0]
reverse link com.ibm.fhir.search.reference.value.ParameterValueHandler to com.ibm.fhir.search.reference.value.IdHandlerImpl--><path d="M978.2681,106.6442 C842.3046,124.5459 675.5988,146.4951 542.8283,163.9764 " fill="none" id="com.ibm.fhir.search.reference.value.ParameterValueHandler&lt;-com.ibm.fhir.search.reference.value.IdHandlerImpl" style="stroke: #A80036; stroke-width: 1.0; stroke-dasharray: 7.0,7.0;"/><polygon fill="none" points="977.3548,99.7042,998.0975,104.0334,979.1824,113.5844,977.3548,99.7042" style="stroke: #A80036; stroke-width: 1.0;"/><!--MD5=[9295a7f4e5f859158e2d39db654e849e]
reverse link com.ibm.fhir.search.reference.value.ParameterValueHandler to com.ibm.fhir.search.reference.value.CanonicalUrlHandlerImpl--><path d="M1133.9896,111.4649 C1091.2144,128.3793 1041.5053,148.0355 1001.192,163.9764 " fill="none" id="com.ibm.fhir.search.reference.value.ParameterValueHandler&lt;-com.ibm.fhir.search.reference.value.CanonicalUrlHandlerImpl" style="stroke: #A80036; stroke-width: 1.0; stroke-dasharray: 7.0,7.0;"/><polygon fill="none" points="1131.6105,104.8783,1152.7833,104.0334,1136.7586,117.8974,1131.6105,104.8783" style="stroke: #A80036; stroke-width: 1.0;"/><!--MD5=[9618ce20830c3076c2d8c5e7584b1830]
reverse link com.ibm.fhir.search.reference.value.ParameterValueHandler to com.ibm.fhir.search.reference.value.TypeIdHandlerImpl--><path d="M1326.3241,111.4649 C1369.2392,128.3793 1419.1107,148.0355 1459.5557,163.9764 " fill="none" id="com.ibm.fhir.search.reference.value.ParameterValueHandler&lt;-com.ibm.fhir.search.reference.value.TypeIdHandlerImpl" style="stroke: #A80036; stroke-width: 1.0; stroke-dasharray: 7.0,7.0;"/><polygon fill="none" points="1323.5092,117.8796,1307.4691,104.0334,1328.6428,104.8547,1323.5092,117.8796" style="stroke: #A80036; stroke-width: 1.0;"/><!--MD5=[a76566d2f59b4bbbe72980f44377cfa2]
reverse link com.ibm.fhir.search.reference.value.ParameterValueHandler to com.ibm.fhir.search.reference.value.UrlHandlerImpl--><path d="M1482.0058,106.6442 C1618.1172,124.5459 1785.0044,146.4951 1917.9194,163.9764 " fill="none" id="com.ibm.fhir.search.reference.value.ParameterValueHandler&lt;-com.ibm.fhir.search.reference.value.UrlHandlerImpl" style="stroke: #A80036; stroke-width: 1.0; stroke-dasharray: 7.0,7.0;"/><polygon fill="none" points="1481.0713,113.5817,1462.1548,104.0334,1482.8969,99.7012,1481.0713,113.5817" style="stroke: #A80036; stroke-width: 1.0;"/><text fill="#888888" font-family="sans-serif" font-size="10" lengthAdjust="spacingAndGlyphs" textLength="186" x="1143.5" y="260.2822">UMLDoclet 2.0.7, PlantUML 1.2019.12</text><!--MD5=[183b7e4cd53e47381441f426c5a48f33]
@startuml
    namespace com.ibm.fhir.search.reference.value {

        class IdHandlerImpl [[IdHandlerImpl.html]] {
            +processParameter(String, List<String>, List<QueryParameterValue>, String, List<String>): void
        }

        class CanonicalUrlHandlerImpl [[CanonicalUrlHandlerImpl.html]] {
            +processParameter(String, List<String>, List<QueryParameterValue>, String, List<String>): void
        }

        interface ParameterValueHandler [[ParameterValueHandler.html]] {
            {abstract} +processParameter(String, List<String>, List<QueryParameterValue>, String, List<String>): void
        }

        class TypeIdHandlerImpl [[TypeIdHandlerImpl.html]] {
            +processParameter(String, List<String>, List<QueryParameterValue>, String, List<String>): void
        }

        class UrlHandlerImpl [[UrlHandlerImpl.html]] {
            +processParameter(String, List<String>, List<QueryParameterValue>, String, List<String>): void
        }

        ParameterValueHandler <|.. IdHandlerImpl
        ParameterValueHandler <|.. CanonicalUrlHandlerImpl
        ParameterValueHandler <|.. TypeIdHandlerImpl
        ParameterValueHandler <|.. UrlHandlerImpl
    }

    center footer UMLDoclet 2.0.7, PlantUML 1.2019.12
@enduml

PlantUML version 1.2019.12(Sun Nov 03 10:24:54 UTC 2019)
(APACHE source distribution)
Java Runtime: OpenJDK Runtime Environment
JVM: OpenJDK 64-Bit Server VM
Java Version: 11.0.8+10
Operating System: Linux
Default Encoding: UTF-8
Language: en
Country: null
--></g></svg>