<?xml version="1.0" encoding="UTF-8" standalone="no"?><svg xmlns="http://www.w3.org/2000/svg" xmlns:xlink="http://www.w3.org/1999/xlink" contentScriptType="application/ecmascript" contentStyleType="text/css" height="197px" preserveAspectRatio="none" style="width:429px;height:197px;" version="1.1" viewBox="0 0 429 197" width="429px" zoomAndPan="magnify"><defs><filter height="300%" id="f1nf4yt7svl6lh" width="300%" x="-1" y="-1"><feGaussianBlur result="blurOut" stdDeviation="2.0"/><feColorMatrix in="blurOut" result="blurOut2" type="matrix" values="0 0 0 0 0 0 0 0 0 0 0 0 0 0 0 0 0 0 .4 0"/><feOffset dx="4.0" dy="4.0" in="blurOut2" result="blurOut3"/><feBlend in="SourceGraphic" in2="blurOut3" mode="normal"/></filter></defs><g><!--MD5=[b6efd79a1d6aa746cf59c1e201049ab3]
cluster com.ibm.fhir.core.util.handler--><polygon fill="#FFFFFF" filter="url(#f1nf4yt7svl6lh)" points="22,24,261,24,268,46.2969,407,46.2969,407,149,22,149,22,24" style="stroke: #000000; stroke-width: 1.5;"/><line style="stroke: #000000; stroke-width: 1.5;" x1="22" x2="268" y1="46.2969" y2="46.2969"/><text fill="#000000" font-family="sans-serif" font-size="14" font-weight="bold" lengthAdjust="spacingAndGlyphs" textLength="233" x="26" y="38.9951">com.ibm.fhir.core.util.handler</text><!--MD5=[b72c25b709c0df8ae7ba7efbe07302a3]
class com.ibm.fhir.core.util.handler.HostnameHandler--><a href="HostnameHandler.html" target="_top" title="HostnameHandler.html" xlink:actuate="onRequest" xlink:href="HostnameHandler.html" xlink:show="new" xlink:title="HostnameHandler.html" xlink:type="simple"><rect fill="#FEFECE" filter="url(#f1nf4yt7svl6lh)" height="60.8047" id="com.ibm.fhir.core.util.handler.HostnameHandler" style="stroke: #A80036; stroke-width: 1.5;" width="152" x="239" y="65.5"/><ellipse cx="257.15" cy="81.5" fill="#ADD1B2" rx="11" ry="11" style="stroke: #A80036; stroke-width: 1.0;"/><path d="M260.1188,87.1406 Q259.5406,87.4375 258.9,87.5781 Q258.2594,87.7344 257.5563,87.7344 Q255.0562,87.7344 253.7281,86.0938 Q252.4156,84.4375 252.4156,81.3125 Q252.4156,78.1875 253.7281,76.5313 Q255.0562,74.875 257.5563,74.875 Q258.2594,74.875 258.9,75.0313 Q259.5563,75.1875 260.1188,75.4844 L260.1188,78.2031 Q259.4938,77.625 258.9,77.3594 Q258.3063,77.0781 257.6813,77.0781 Q256.3375,77.0781 255.65,78.1563 Q254.9625,79.2188 254.9625,81.3125 Q254.9625,83.4063 255.65,84.4844 Q256.3375,85.5469 257.6813,85.5469 Q258.3063,85.5469 258.9,85.2813 Q259.4938,85 260.1188,84.4219 L260.1188,87.1406 Z "/><text fill="#000000" font-family="sans-serif" font-size="12" lengthAdjust="spacingAndGlyphs" textLength="113" x="271.85" y="85.6543">HostnameHandler</text><line style="stroke: #A80036; stroke-width: 1.5;" x1="240" x2="390" y1="97.5" y2="97.5"/><line style="stroke: #A80036; stroke-width: 1.5;" x1="240" x2="390" y1="105.5" y2="105.5"/><ellipse cx="250" cy="116.5" fill="#84BE84" rx="3" ry="3" style="stroke: #038048; stroke-width: 1.0;"/><text fill="#000000" font-family="sans-serif" font-size="11" lengthAdjust="spacingAndGlyphs" textLength="126" x="259" y="119.7104">getHostname(): String</text></a><!--MD5=[c1a4c2bf8cbc692a42a13db433c26299]
class com.ibm.fhir.core.util.handler.IPHandler--><a href="IPHandler.html" target="_top" title="IPHandler.html" xlink:actuate="onRequest" xlink:href="IPHandler.html" xlink:show="new" xlink:title="IPHandler.html" xlink:type="simple"><rect fill="#FEFECE" filter="url(#f1nf4yt7svl6lh)" height="73.6094" id="com.ibm.fhir.core.util.handler.IPHandler" style="stroke: #A80036; stroke-width: 1.5;" width="165" x="38.5" y="59"/><ellipse cx="86.75" cy="75" fill="#ADD1B2" rx="11" ry="11" style="stroke: #A80036; stroke-width: 1.0;"/><path d="M89.7188,80.6406 Q89.1406,80.9375 88.5,81.0781 Q87.8594,81.2344 87.1563,81.2344 Q84.6563,81.2344 83.3281,79.5938 Q82.0156,77.9375 82.0156,74.8125 Q82.0156,71.6875 83.3281,70.0313 Q84.6563,68.375 87.1563,68.375 Q87.8594,68.375 88.5,68.5313 Q89.1563,68.6875 89.7188,68.9844 L89.7188,71.7031 Q89.0938,71.125 88.5,70.8594 Q87.9063,70.5781 87.2813,70.5781 Q85.9375,70.5781 85.25,71.6563 Q84.5625,72.7188 84.5625,74.8125 Q84.5625,76.9063 85.25,77.9844 Q85.9375,79.0469 87.2813,79.0469 Q87.9063,79.0469 88.5,78.7813 Q89.0938,78.5 89.7188,77.9219 L89.7188,80.6406 Z "/><text fill="#000000" font-family="sans-serif" font-size="12" lengthAdjust="spacingAndGlyphs" textLength="60" x="107.25" y="79.1543">IPHandler</text><line style="stroke: #A80036; stroke-width: 1.5;" x1="39.5" x2="202.5" y1="91" y2="91"/><line style="stroke: #A80036; stroke-width: 1.5;" x1="39.5" x2="202.5" y1="99" y2="99"/><ellipse cx="49.5" cy="110" fill="#84BE84" rx="3" ry="3" style="stroke: #038048; stroke-width: 1.0;"/><text fill="#000000" font-family="sans-serif" font-size="11" lengthAdjust="spacingAndGlyphs" textLength="125" x="58.5" y="113.2104">getIpAddress(): String</text><ellipse cx="49.5" cy="122.8047" fill="#84BE84" rx="3" ry="3" style="stroke: #038048; stroke-width: 1.0;"/><text fill="#000000" font-family="sans-serif" font-size="11" lengthAdjust="spacingAndGlyphs" textLength="139" x="58.5" y="126.0151">getIpAddresses(): String</text></a><text fill="#888888" font-family="sans-serif" font-size="10" lengthAdjust="spacingAndGlyphs" textLength="186" x="127.5" y="184.2822">UMLDoclet 2.0.7, PlantUML 1.2019.12</text><!--MD5=[00c25ba42aa5358d7173d0956853feaf]
@startuml
    namespace com.ibm.fhir.core.util.handler {

        class HostnameHandler [[HostnameHandler.html]] {
            +getHostname(): String
        }

        class IPHandler [[IPHandler.html]] {
            +getIpAddress(): String
            +getIpAddresses(): String
        }

    }

    center footer UMLDoclet 2.0.7, PlantUML 1.2019.12
@enduml

PlantUML version 1.2019.12(Sun Nov 03 10:24:54 UTC 2019)
(APACHE source distribution)
Java Runtime: OpenJDK Runtime Environment
JVM: OpenJDK 64-Bit Server VM
Java Version: 11.0.10+9
Operating System: Linux
Default Encoding: UTF-8
Language: en
Country: null
--></g></svg>