<?xml version="1.0" encoding="UTF-8" standalone="no"?><svg xmlns="http://www.w3.org/2000/svg" xmlns:xlink="http://www.w3.org/1999/xlink" contentScriptType="application/ecmascript" contentStyleType="text/css" height="113px" preserveAspectRatio="none" style="width:211px;height:113px;" version="1.1" viewBox="0 0 211 113" width="211px" zoomAndPan="magnify"><defs><filter height="300%" id="f1ejnqbtlnicdr" width="300%" x="-1" y="-1"><feGaussianBlur result="blurOut" stdDeviation="2.0"/><feColorMatrix in="blurOut" result="blurOut2" type="matrix" values="0 0 0 0 0 0 0 0 0 0 0 0 0 0 0 0 0 0 .4 0"/><feOffset dx="4.0" dy="4.0" in="blurOut2" result="blurOut3"/><feBlend in="SourceGraphic" in2="blurOut3" mode="normal"/></filter></defs><g><!--class com.ibm.fhir.audit.logging.api.AuditLogServiceFactory--><a href="AuditLogServiceFactory.html" target="_top" xlink:actuate="onRequest" xlink:show="new" xlink:title="AuditLogServiceFactory.html" xlink:type="simple"><rect fill="#FEFECE" filter="url(#f1ejnqbtlnicdr)" height="72.1758" id="com.ibm.fhir.audit.logging.api.AuditLogServiceFactory" style="stroke: #A80036; stroke-width: 1.5;" width="192" x="6" y="8"/><ellipse cx="21" cy="27.1328" fill="#ADD1B2" rx="11" ry="11" style="stroke: #A80036; stroke-width: 1.0;"/><path d="M23.4731,33.2759 Q22.8921,33.5747 22.2529,33.7241 Q21.6138,33.8735 20.9082,33.8735 Q18.4014,33.8735 17.0815,32.2217 Q15.7617,30.5698 15.7617,27.4487 Q15.7617,24.3193 17.0815,22.6675 Q18.4014,21.0156 20.9082,21.0156 Q21.6138,21.0156 22.2612,21.165 Q22.9087,21.3145 23.4731,21.6133 L23.4731,24.3359 Q22.8423,23.7549 22.2488,23.4851 Q21.6553,23.2153 21.0244,23.2153 Q19.6797,23.2153 18.9949,24.282 Q18.3101,25.3486 18.3101,27.4487 Q18.3101,29.5405 18.9949,30.6072 Q19.6797,31.6738 21.0244,31.6738 Q21.6553,31.6738 22.2488,31.4041 Q22.8423,31.1343 23.4731,30.5532 Z "/><text fill="#000000" font-family="sans-serif" font-size="14" lengthAdjust="spacingAndGlyphs" textLength="160" x="35" y="26.5352">AuditLogServiceFactory</text><text fill="#000000" font-family="sans-serif" font-size="10" lengthAdjust="spacingAndGlyphs" textLength="146" x="42" y="39.1563">com.ibm.fhir.audit.logging.api</text><line style="stroke: #A80036; stroke-width: 1.5;" x1="7" x2="197" y1="46.2656" y2="46.2656"/><ellipse cx="17" cy="58.2432" fill="#84BE84" rx="3" ry="3" style="stroke: #038048; stroke-width: 1.0;"/><text fill="#000000" font-family="sans-serif" font-size="11" lengthAdjust="spacingAndGlyphs" text-decoration="underline" textLength="156" x="26" y="60.9004">getService(): AuditLogService</text><ellipse cx="17" cy="71.1982" fill="#84BE84" rx="3" ry="3" style="stroke: #038048; stroke-width: 1.0;"/><text fill="#000000" font-family="sans-serif" font-size="11" lengthAdjust="spacingAndGlyphs" text-decoration="underline" textLength="166" x="26" y="73.8555">resetService(): AuditLogService</text></a><text fill="#888888" font-family="sans-serif" font-size="10" lengthAdjust="spacingAndGlyphs" textLength="182" x="17" y="99.668">UMLDoclet 2.0.5, PlantUML 1.2019.08</text><!--
@startuml
    set namespaceSeparator none
    hide empty fields
    hide empty methods

    class "<size:14>AuditLogServiceFactory\n<size:10>com.ibm.fhir.audit.logging.api" as com.ibm.fhir.audit.logging.api.AuditLogServiceFactory [[AuditLogServiceFactory.html]] {
        {static} +getService(): AuditLogService
        {static} +resetService(): AuditLogService
    }

    center footer UMLDoclet 2.0.5, PlantUML 1.2019.08
@enduml

PlantUML version 1.2019.08(Sat Jul 13 15:25:14 EDT 2019)
(APACHE source distribution)
Java Runtime: OpenJDK Runtime Environment
JVM: OpenJDK 64-Bit Server VM
Java Version: 11.0.4+11
Operating System: Mac OS X
OS Version: 10.14.6
Default Encoding: UTF-8
Language: en
Country: US
--></g></svg>