<?xml version="1.0" encoding="UTF-8" standalone="no"?><svg xmlns="http://www.w3.org/2000/svg" xmlns:xlink="http://www.w3.org/1999/xlink" contentScriptType="application/ecmascript" contentStyleType="text/css" height="197px" preserveAspectRatio="none" style="width:390px;height:197px;" version="1.1" viewBox="0 0 390 197" width="390px" zoomAndPan="magnify"><defs><filter height="300%" id="fty58zl2n5yp" width="300%" x="-1" y="-1"><feGaussianBlur result="blurOut" stdDeviation="2.0"/><feColorMatrix in="blurOut" result="blurOut2" type="matrix" values="0 0 0 0 0 0 0 0 0 0 0 0 0 0 0 0 0 0 .4 0"/><feOffset dx="4.0" dy="4.0" in="blurOut2" result="blurOut3"/><feBlend in="SourceGraphic" in2="blurOut3" mode="normal"/></filter></defs><g><!--MD5=[1bd7c4b239c010165340e5ee246d1bba]
cluster com.ibm.fhir.server.operation--><polygon fill="#FFFFFF" filter="url(#fty58zl2n5yp)" points="22,24,264,24,271,46.2969,368,46.2969,368,149,22,149,22,24" style="stroke: #000000; stroke-width: 1.5;"/><line style="stroke: #000000; stroke-width: 1.5;" x1="22" x2="271" y1="46.2969" y2="46.2969"/><text fill="#000000" font-family="sans-serif" font-size="14" font-weight="bold" lengthAdjust="spacingAndGlyphs" textLength="236" x="26" y="38.9951">com.ibm.fhir.server.operation</text><!--MD5=[ad7dc8b9782f4d779cbe16e65764cb75]
class com.ibm.fhir.server.operation.FHIROperationRegistry--><a href="FHIROperationRegistry.html" target="_top" title="FHIROperationRegistry.html" xlink:actuate="onRequest" xlink:href="FHIROperationRegistry.html" xlink:show="new" xlink:title="FHIROperationRegistry.html" xlink:type="simple"><rect fill="#FEFECE" filter="url(#fty58zl2n5yp)" height="73.6094" id="com.ibm.fhir.server.operation.FHIROperationRegistry" style="stroke: #A80036; stroke-width: 1.5;" width="230" x="38" y="59"/><ellipse cx="79.55" cy="75" fill="#ADD1B2" rx="11" ry="11" style="stroke: #A80036; stroke-width: 1.0;"/><path d="M82.5188,80.6406 Q81.9406,80.9375 81.3,81.0781 Q80.6594,81.2344 79.9563,81.2344 Q77.4563,81.2344 76.1281,79.5938 Q74.8156,77.9375 74.8156,74.8125 Q74.8156,71.6875 76.1281,70.0313 Q77.4563,68.375 79.9563,68.375 Q80.6594,68.375 81.3,68.5313 Q81.9563,68.6875 82.5188,68.9844 L82.5188,71.7031 Q81.8938,71.125 81.3,70.8594 Q80.7063,70.5781 80.0813,70.5781 Q78.7375,70.5781 78.05,71.6563 Q77.3625,72.7188 77.3625,74.8125 Q77.3625,76.9063 78.05,77.9844 Q78.7375,79.0469 80.0813,79.0469 Q80.7063,79.0469 81.3,78.7813 Q81.8938,78.5 82.5188,77.9219 L82.5188,80.6406 Z "/><text fill="#000000" font-family="sans-serif" font-size="12" lengthAdjust="spacingAndGlyphs" textLength="139" x="99.45" y="79.1543">FHIROperationRegistry</text><line style="stroke: #A80036; stroke-width: 1.5;" x1="39" x2="267" y1="91" y2="91"/><line style="stroke: #A80036; stroke-width: 1.5;" x1="39" x2="267" y1="99" y2="99"/><ellipse cx="49" cy="110" fill="#84BE84" rx="3" ry="3" style="stroke: #038048; stroke-width: 1.0;"/><text fill="#000000" font-family="sans-serif" font-size="11" lengthAdjust="spacingAndGlyphs" textLength="202" x="58" y="113.2104">getOperationNames(): List&lt;String&gt;</text><ellipse cx="49" cy="122.8047" fill="#84BE84" rx="3" ry="3" style="stroke: #038048; stroke-width: 1.0;"/><text fill="#000000" font-family="sans-serif" font-size="11" lengthAdjust="spacingAndGlyphs" textLength="204" x="58" y="126.0151">getOperation(String): FHIROperation</text></a><!--MD5=[5eba9870e0e0b1c19a20b7b465c1ab12]
link com.ibm.fhir.server.operation.FHIROperationRegistry to com.ibm.fhir.server.operation.FHIROperationRegistry--><path d="M268.09,82.94 C288.64,84.64 303,88.99 303,96 C303,102.41 291,106.6 273.25,108.56 " fill="none" id="com.ibm.fhir.server.operation.FHIROperationRegistry-&gt;com.ibm.fhir.server.operation.FHIROperationRegistry" style="stroke: #A80036; stroke-width: 1.0;"/><polygon fill="#A80036" points="268.09,109.06,277.4274,112.1925,273.0677,108.588,276.6722,104.2282,268.09,109.06" style="stroke: #A80036; stroke-width: 1.0;"/><text fill="#000000" font-family="sans-serif" font-size="13" lengthAdjust="spacingAndGlyphs" textLength="54" x="309" y="100.5669">instance</text><text fill="#888888" font-family="sans-serif" font-size="10" lengthAdjust="spacingAndGlyphs" textLength="186" x="108" y="184.2822">UMLDoclet 2.0.7, PlantUML 1.2019.12</text><!--MD5=[d6a8c114e08a6f834e8825c9c4945b34]
@startuml
    namespace com.ibm.fhir.server.operation {

        class FHIROperationRegistry [[FHIROperationRegistry.html]] {
            +getOperationNames(): List<String>
            +getOperation(String): FHIROperation
        }

        FHIROperationRegistry - -> FHIROperationRegistry: instance
    }

    center footer UMLDoclet 2.0.7, PlantUML 1.2019.12
@enduml

PlantUML version 1.2019.12(Sun Nov 03 10:24:54 UTC 2019)
(APACHE source distribution)
Java Runtime: OpenJDK Runtime Environment
JVM: OpenJDK 64-Bit Server VM
Java Version: 11.0.10+9
Operating System: Linux
Default Encoding: UTF-8
Language: en
Country: null
--></g></svg>