<?xml version="1.0" encoding="UTF-8" standalone="no"?><svg xmlns="http://www.w3.org/2000/svg" xmlns:xlink="http://www.w3.org/1999/xlink" contentScriptType="application/ecmascript" contentStyleType="text/css" height="218px" preserveAspectRatio="none" style="width:333px;height:218px;" version="1.1" viewBox="0 0 333 218" width="333px" zoomAndPan="magnify"><defs><filter height="300%" id="fpx74n4rissv0" width="300%" x="-1" y="-1"><feGaussianBlur result="blurOut" stdDeviation="2.0"/><feColorMatrix in="blurOut" result="blurOut2" type="matrix" values="0 0 0 0 0 0 0 0 0 0 0 0 0 0 0 0 0 0 .4 0"/><feOffset dx="4.0" dy="4.0" in="blurOut2" result="blurOut3"/><feBlend in="SourceGraphic" in2="blurOut3" mode="normal"/></filter></defs><g><!--MD5=[03c019b15b161a673501ad9b7a1c0510]
class com.ibm.fhir.ig.us.core.USCoreResourceProvider--><a href="USCoreResourceProvider.html" target="_top" title="USCoreResourceProvider.html" xlink:actuate="onRequest" xlink:href="USCoreResourceProvider.html" xlink:show="new" xlink:title="USCoreResourceProvider.html" xlink:type="simple"><rect fill="#FEFECE" filter="url(#fpx74n4rissv0)" height="58.7422" id="com.ibm.fhir.ig.us.core.USCoreResourceProvider" style="stroke: #A80036; stroke-width: 1.5;" width="316" x="6" y="127"/><ellipse cx="72.25" cy="145.9688" fill="#ADD1B2" rx="11" ry="11" style="stroke: #A80036; stroke-width: 1.0;"/><path d="M75.2188,151.6094 Q74.6406,151.9063 74,152.0469 Q73.3594,152.2031 72.6563,152.2031 Q70.1563,152.2031 68.8281,150.5625 Q67.5156,148.9063 67.5156,145.7813 Q67.5156,142.6563 68.8281,141 Q70.1563,139.3438 72.6563,139.3438 Q73.3594,139.3438 74,139.5 Q74.6563,139.6563 75.2188,139.9531 L75.2188,142.6719 Q74.5938,142.0938 74,141.8281 Q73.4063,141.5469 72.7813,141.5469 Q71.4375,141.5469 70.75,142.625 Q70.0625,143.6875 70.0625,145.7813 Q70.0625,147.875 70.75,148.9531 Q71.4375,150.0156 72.7813,150.0156 Q73.4063,150.0156 74,149.75 Q74.5938,149.4688 75.2188,148.8906 L75.2188,151.6094 Z "/><text fill="#000000" font-family="sans-serif" font-size="14" lengthAdjust="spacingAndGlyphs" textLength="175" x="92.75" y="144.9951">USCoreResourceProvider</text><text fill="#000000" font-family="sans-serif" font-size="10" lengthAdjust="spacingAndGlyphs" textLength="110" x="125.25" y="157.5791">com.ibm.fhir.ig.us.core</text><line style="stroke: #A80036; stroke-width: 1.5;" x1="7" x2="321" y1="164.9375" y2="164.9375"/><ellipse cx="17" cy="175.9375" fill="#84BE84" rx="3" ry="3" style="stroke: #038048; stroke-width: 1.0;"/><text fill="#000000" font-family="sans-serif" font-size="11" lengthAdjust="spacingAndGlyphs" textLength="290" x="26" y="179.1479">getResources(): Collection&lt;FHIRRegistryResource&gt;</text></a><!--MD5=[509afb3451867307ebbf23388aa0004a]
class com.ibm.fhir.registry.spi.FHIRRegistryResourceProvider--><a href="../../../registry/spi/FHIRRegistryResourceProvider.html" target="_top" title="../../../registry/spi/FHIRRegistryResourceProvider.html" xlink:actuate="onRequest" xlink:href="../../../registry/spi/FHIRRegistryResourceProvider.html" xlink:show="new" xlink:title="../../../registry/spi/FHIRRegistryResourceProvider.html" xlink:type="simple"><rect fill="#FEFECE" filter="url(#fpx74n4rissv0)" height="58.7422" id="com.ibm.fhir.registry.spi.FHIRRegistryResourceProvider" style="stroke: #A80036; stroke-width: 1.5;" width="316" x="6" y="8"/><ellipse cx="54.75" cy="26.9688" fill="#B4A7E5" rx="11" ry="11" style="stroke: #A80036; stroke-width: 1.0;"/><path d="M50.6719,22.7344 L50.6719,20.5781 L58.0625,20.5781 L58.0625,22.7344 L55.5938,22.7344 L55.5938,30.8125 L58.0625,30.8125 L58.0625,32.9688 L50.6719,32.9688 L50.6719,30.8125 L53.1406,30.8125 L53.1406,22.7344 L50.6719,22.7344 Z "/><text fill="#000000" font-family="sans-serif" font-size="14" font-style="italic" lengthAdjust="spacingAndGlyphs" textLength="210" x="75.25" y="25.9951">FHIRRegistryResourceProvider</text><text fill="#000000" font-family="sans-serif" font-size="10" font-style="italic" lengthAdjust="spacingAndGlyphs" textLength="117" x="121.75" y="38.5791">com.ibm.fhir.registry.spi</text><line style="stroke: #A80036; stroke-width: 1.5;" x1="7" x2="321" y1="45.9375" y2="45.9375"/><ellipse cx="17" cy="56.9375" fill="#84BE84" rx="3" ry="3" style="stroke: #038048; stroke-width: 1.0;"/><text fill="#000000" font-family="sans-serif" font-size="11" font-style="italic" lengthAdjust="spacingAndGlyphs" textLength="290" x="26" y="60.1479">getResources(): Collection&lt;FHIRRegistryResource&gt;</text></a><!--MD5=[33ddcf61a7a0f6c85d30d32d5fce65d0]
reverse link com.ibm.fhir.registry.spi.FHIRRegistryResourceProvider to com.ibm.fhir.ig.us.core.USCoreResourceProvider--><path d="M164,87.3288 C164,100.7348 164,114.8139 164,126.7447 " fill="none" id="com.ibm.fhir.registry.spi.FHIRRegistryResourceProvider&lt;-com.ibm.fhir.ig.us.core.USCoreResourceProvider" style="stroke: #A80036; stroke-width: 1.0; stroke-dasharray: 7.0,7.0;"/><polygon fill="none" points="157.0001,87.2218,164,67.2218,171.0001,87.2217,157.0001,87.2218" style="stroke: #A80036; stroke-width: 1.0;"/><text fill="#888888" font-family="sans-serif" font-size="10" lengthAdjust="spacingAndGlyphs" textLength="186" x="77" y="205.2822">UMLDoclet 2.0.7, PlantUML 1.2019.12</text><!--MD5=[78ee561804ca549b051c59cfdf73f628]
@startuml
    set namespaceSeparator none
    hide empty fields
    hide empty methods

    class "<size:14>USCoreResourceProvider\n<size:10>com.ibm.fhir.ig.us.core" as com.ibm.fhir.ig.us.core.USCoreResourceProvider [[USCoreResourceProvider.html]] {
        +getResources(): Collection<FHIRRegistryResource>
    }

    interface "<size:14>FHIRRegistryResourceProvider\n<size:10>com.ibm.fhir.registry.spi" as com.ibm.fhir.registry.spi.FHIRRegistryResourceProvider [[../../../registry/spi/FHIRRegistryResourceProvider.html]] {
        {abstract} +getResources(): Collection<FHIRRegistryResource>
    }

    com.ibm.fhir.registry.spi.FHIRRegistryResourceProvider <|.. com.ibm.fhir.ig.us.core.USCoreResourceProvider

    center footer UMLDoclet 2.0.7, PlantUML 1.2019.12
@enduml

PlantUML version 1.2019.12(Sun Nov 03 10:24:54 UTC 2019)
(APACHE source distribution)
Java Runtime: OpenJDK Runtime Environment
JVM: OpenJDK 64-Bit Server VM
Java Version: 11.0.6+10
Operating System: Linux
Default Encoding: UTF-8
Language: en
Country: null
--></g></svg>