<?xml version="1.0" encoding="UTF-8" standalone="no"?><svg xmlns="http://www.w3.org/2000/svg" xmlns:xlink="http://www.w3.org/1999/xlink" contentScriptType="application/ecmascript" contentStyleType="text/css" height="615px" preserveAspectRatio="none" style="width:447px;height:615px;" version="1.1" viewBox="0 0 447 615" width="447px" zoomAndPan="magnify"><defs><filter height="300%" id="ficn59xlbip3c" width="300%" x="-1" y="-1"><feGaussianBlur result="blurOut" stdDeviation="2.0"/><feColorMatrix in="blurOut" result="blurOut2" type="matrix" values="0 0 0 0 0 0 0 0 0 0 0 0 0 0 0 0 0 0 .4 0"/><feOffset dx="4.0" dy="4.0" in="blurOut2" result="blurOut3"/><feBlend in="SourceGraphic" in2="blurOut3" mode="normal"/></filter></defs><g><!--class com.ibm.fhir.model.resource.AdverseEvent--><a href="AdverseEvent.html" target="_top" xlink:actuate="onRequest" xlink:show="new" xlink:title="AdverseEvent.html" xlink:type="simple"><rect fill="#FEFECE" filter="url(#ficn59xlbip3c)" height="357.1875" id="com.ibm.fhir.model.resource.AdverseEvent" style="stroke: #A80036; stroke-width: 1.5;" width="265" x="77.5" y="127"/><ellipse cx="136.25" cy="146.1328" fill="#ADD1B2" rx="11" ry="11" style="stroke: #A80036; stroke-width: 1.0;"/><path d="M138.7231,152.2759 Q138.1421,152.5747 137.5029,152.7241 Q136.8638,152.8735 136.1582,152.8735 Q133.6514,152.8735 132.3315,151.2217 Q131.0117,149.5698 131.0117,146.4487 Q131.0117,143.3193 132.3315,141.6675 Q133.6514,140.0156 136.1582,140.0156 Q136.8638,140.0156 137.5112,140.165 Q138.1587,140.3145 138.7231,140.6133 L138.7231,143.3359 Q138.0923,142.7549 137.4988,142.4851 Q136.9053,142.2153 136.2744,142.2153 Q134.9297,142.2153 134.2449,143.282 Q133.5601,144.3486 133.5601,146.4487 Q133.5601,148.5405 134.2449,149.6072 Q134.9297,150.6738 136.2744,150.6738 Q136.9053,150.6738 137.4988,150.4041 Q138.0923,150.1343 138.7231,149.5532 Z "/><text fill="#000000" font-family="sans-serif" font-size="14" lengthAdjust="spacingAndGlyphs" textLength="92" x="180.25" y="145.5352">AdverseEvent</text><text fill="#000000" font-family="sans-serif" font-size="10" lengthAdjust="spacingAndGlyphs" textLength="139" x="156.75" y="158.1563">com.ibm.fhir.model.resource</text><line style="stroke: #A80036; stroke-width: 1.5;" x1="78.5" x2="341.5" y1="165.2656" y2="165.2656"/><ellipse cx="88.5" cy="177.2432" fill="#84BE84" rx="3" ry="3" style="stroke: #038048; stroke-width: 1.0;"/><text fill="#000000" font-family="sans-serif" font-size="11" lengthAdjust="spacingAndGlyphs" textLength="127" x="97.5" y="179.9004">getIdentifier(): Identifier</text><ellipse cx="88.5" cy="190.1982" fill="#84BE84" rx="3" ry="3" style="stroke: #038048; stroke-width: 1.0;"/><text fill="#000000" font-family="sans-serif" font-size="11" lengthAdjust="spacingAndGlyphs" textLength="198" x="97.5" y="192.8555">getActuality(): AdverseEventActuality</text><ellipse cx="88.5" cy="203.1533" fill="#84BE84" rx="3" ry="3" style="stroke: #038048; stroke-width: 1.0;"/><text fill="#000000" font-family="sans-serif" font-size="11" lengthAdjust="spacingAndGlyphs" textLength="212" x="97.5" y="205.8105">getCategory(): List&lt;CodeableConcept&gt;</text><ellipse cx="88.5" cy="216.1084" fill="#84BE84" rx="3" ry="3" style="stroke: #038048; stroke-width: 1.0;"/><text fill="#000000" font-family="sans-serif" font-size="11" lengthAdjust="spacingAndGlyphs" textLength="155" x="97.5" y="218.7656">getEvent(): CodeableConcept</text><ellipse cx="88.5" cy="229.0635" fill="#84BE84" rx="3" ry="3" style="stroke: #038048; stroke-width: 1.0;"/><text fill="#000000" font-family="sans-serif" font-size="11" lengthAdjust="spacingAndGlyphs" textLength="123" x="97.5" y="231.7207">getSubject(): Reference</text><ellipse cx="88.5" cy="242.0186" fill="#84BE84" rx="3" ry="3" style="stroke: #038048; stroke-width: 1.0;"/><text fill="#000000" font-family="sans-serif" font-size="11" lengthAdjust="spacingAndGlyphs" textLength="139" x="97.5" y="244.6758">getEncounter(): Reference</text><ellipse cx="88.5" cy="254.9736" fill="#84BE84" rx="3" ry="3" style="stroke: #038048; stroke-width: 1.0;"/><text fill="#000000" font-family="sans-serif" font-size="11" lengthAdjust="spacingAndGlyphs" textLength="105" x="97.5" y="257.6309">getDate(): DateTime</text><ellipse cx="88.5" cy="267.9287" fill="#84BE84" rx="3" ry="3" style="stroke: #038048; stroke-width: 1.0;"/><text fill="#000000" font-family="sans-serif" font-size="11" lengthAdjust="spacingAndGlyphs" textLength="128" x="97.5" y="270.5859">getDetected(): DateTime</text><ellipse cx="88.5" cy="280.8838" fill="#84BE84" rx="3" ry="3" style="stroke: #038048; stroke-width: 1.0;"/><text fill="#000000" font-family="sans-serif" font-size="11" lengthAdjust="spacingAndGlyphs" textLength="156" x="97.5" y="283.541">getRecordedDate(): DateTime</text><ellipse cx="88.5" cy="293.8389" fill="#84BE84" rx="3" ry="3" style="stroke: #038048; stroke-width: 1.0;"/><text fill="#000000" font-family="sans-serif" font-size="11" lengthAdjust="spacingAndGlyphs" textLength="224" x="97.5" y="296.4961">getResultingCondition(): List&lt;Reference&gt;</text><ellipse cx="88.5" cy="306.7939" fill="#84BE84" rx="3" ry="3" style="stroke: #038048; stroke-width: 1.0;"/><text fill="#000000" font-family="sans-serif" font-size="11" lengthAdjust="spacingAndGlyphs" textLength="130" x="97.5" y="309.4512">getLocation(): Reference</text><ellipse cx="88.5" cy="319.749" fill="#84BE84" rx="3" ry="3" style="stroke: #038048; stroke-width: 1.0;"/><text fill="#000000" font-family="sans-serif" font-size="11" lengthAdjust="spacingAndGlyphs" textLength="191" x="97.5" y="322.4063">getSeriousness(): CodeableConcept</text><ellipse cx="88.5" cy="332.7041" fill="#84BE84" rx="3" ry="3" style="stroke: #038048; stroke-width: 1.0;"/><text fill="#000000" font-family="sans-serif" font-size="11" lengthAdjust="spacingAndGlyphs" textLength="168" x="97.5" y="335.3613">getSeverity(): CodeableConcept</text><ellipse cx="88.5" cy="345.6592" fill="#84BE84" rx="3" ry="3" style="stroke: #038048; stroke-width: 1.0;"/><text fill="#000000" font-family="sans-serif" font-size="11" lengthAdjust="spacingAndGlyphs" textLength="175" x="97.5" y="348.3164">getOutcome(): CodeableConcept</text><ellipse cx="88.5" cy="358.6143" fill="#84BE84" rx="3" ry="3" style="stroke: #038048; stroke-width: 1.0;"/><text fill="#000000" font-family="sans-serif" font-size="11" lengthAdjust="spacingAndGlyphs" textLength="133" x="97.5" y="361.2715">getRecorder(): Reference</text><ellipse cx="88.5" cy="371.5693" fill="#84BE84" rx="3" ry="3" style="stroke: #038048; stroke-width: 1.0;"/><text fill="#000000" font-family="sans-serif" font-size="11" lengthAdjust="spacingAndGlyphs" textLength="185" x="97.5" y="374.2266">getContributor(): List&lt;Reference&gt;</text><ellipse cx="88.5" cy="384.5244" fill="#84BE84" rx="3" ry="3" style="stroke: #038048; stroke-width: 1.0;"/><text fill="#000000" font-family="sans-serif" font-size="11" lengthAdjust="spacingAndGlyphs" textLength="212" x="97.5" y="387.1816">getSuspectEntity(): List&lt;SuspectEntity&gt;</text><ellipse cx="88.5" cy="397.4795" fill="#84BE84" rx="3" ry="3" style="stroke: #038048; stroke-width: 1.0;"/><text fill="#000000" font-family="sans-serif" font-size="11" lengthAdjust="spacingAndGlyphs" textLength="239" x="97.5" y="400.1367">getSubjectMedicalHistory(): List&lt;Reference&gt;</text><ellipse cx="88.5" cy="410.4346" fill="#84BE84" rx="3" ry="3" style="stroke: #038048; stroke-width: 1.0;"/><text fill="#000000" font-family="sans-serif" font-size="11" lengthAdjust="spacingAndGlyphs" textLength="229" x="97.5" y="413.0918">getReferenceDocument(): List&lt;Reference&gt;</text><ellipse cx="88.5" cy="423.3896" fill="#84BE84" rx="3" ry="3" style="stroke: #038048; stroke-width: 1.0;"/><text fill="#000000" font-family="sans-serif" font-size="11" lengthAdjust="spacingAndGlyphs" textLength="151" x="97.5" y="426.0469">getStudy(): List&lt;Reference&gt;</text><ellipse cx="88.5" cy="436.3447" fill="#84BE84" rx="3" ry="3" style="stroke: #038048; stroke-width: 1.0;"/><text fill="#000000" font-family="sans-serif" font-size="11" lengthAdjust="spacingAndGlyphs" textLength="122" x="97.5" y="439.002">hasChildren(): boolean</text><ellipse cx="88.5" cy="449.2998" fill="#84BE84" rx="3" ry="3" style="stroke: #038048; stroke-width: 1.0;"/><text fill="#000000" font-family="sans-serif" font-size="11" lengthAdjust="spacingAndGlyphs" textLength="165" x="97.5" y="451.957">accept(String, int, Visitor): void</text><ellipse cx="88.5" cy="462.2549" fill="#84BE84" rx="3" ry="3" style="stroke: #038048; stroke-width: 1.0;"/><text fill="#000000" font-family="sans-serif" font-size="11" lengthAdjust="spacingAndGlyphs" textLength="99" x="97.5" y="464.9121">toBuilder(): Builder</text><ellipse cx="88.5" cy="475.21" fill="#84BE84" rx="3" ry="3" style="stroke: #038048; stroke-width: 1.0;"/><text fill="#000000" font-family="sans-serif" font-size="11" lengthAdjust="spacingAndGlyphs" text-decoration="underline" textLength="89" x="97.5" y="477.8672">builder(): Builder</text></a><!--class com.ibm.fhir.model.resource.DomainResource--><a href="DomainResource.html" target="_top" xlink:actuate="onRequest" xlink:show="new" xlink:title="DomainResource.html" xlink:type="simple"><rect fill="#FEFECE" filter="url(#ficn59xlbip3c)" height="59.2207" id="com.ibm.fhir.model.resource.DomainResource" style="stroke: #A80036; stroke-width: 1.5;" width="171" x="124.5" y="8"/><ellipse cx="139.5" cy="27.1328" fill="#A9DCDF" rx="11" ry="11" style="stroke: #A80036; stroke-width: 1.0;"/><path d="M139.6133,22.731 L138.4595,27.8027 L140.7754,27.8027 Z M138.1191,20.4897 L141.1157,20.4897 L144.4609,32.8828 L142.0122,32.8828 L141.2485,29.8198 L137.9697,29.8198 L137.2227,32.8828 L134.7739,32.8828 Z "/><text fill="#000000" font-family="sans-serif" font-size="14" font-style="italic" lengthAdjust="spacingAndGlyphs" textLength="116" x="165" y="26.5352">DomainResource</text><text fill="#000000" font-family="sans-serif" font-size="10" font-style="italic" lengthAdjust="spacingAndGlyphs" textLength="139" x="153.5" y="39.1563">com.ibm.fhir.model.resource</text><line style="stroke: #A80036; stroke-width: 1.5;" x1="125.5" x2="294.5" y1="46.2656" y2="46.2656"/><ellipse cx="135.5" cy="58.2432" fill="#84BE84" rx="3" ry="3" style="stroke: #038048; stroke-width: 1.0;"/><text fill="#000000" font-family="sans-serif" font-size="11" font-style="italic" lengthAdjust="spacingAndGlyphs" textLength="99" x="144.5" y="60.9004">toBuilder(): Builder</text></a><!--class com.ibm.fhir.model.resource.AdverseEvent.Builder--><a href="AdverseEvent.Builder.html" target="_top" xlink:actuate="onRequest" xlink:show="new" xlink:title="AdverseEvent.Builder.html" xlink:type="simple"><rect fill="#FEFECE" filter="url(#ficn59xlbip3c)" height="38.2656" id="com.ibm.fhir.model.resource.AdverseEvent.Builder" style="stroke: #A80036; stroke-width: 1.5;" width="176" x="6" y="544"/><ellipse cx="21" cy="563.1328" fill="#ADD1B2" rx="11" ry="11" style="stroke: #A80036; stroke-width: 1.0;"/><path d="M23.4731,569.2759 Q22.8921,569.5747 22.2529,569.7241 Q21.6138,569.8735 20.9082,569.8735 Q18.4014,569.8735 17.0815,568.2217 Q15.7617,566.5698 15.7617,563.4487 Q15.7617,560.3193 17.0815,558.6675 Q18.4014,557.0156 20.9082,557.0156 Q21.6138,557.0156 22.2612,557.165 Q22.9087,557.3145 23.4731,557.6133 L23.4731,560.3359 Q22.8423,559.7549 22.2488,559.4851 Q21.6553,559.2153 21.0244,559.2153 Q19.6797,559.2153 18.9949,560.282 Q18.3101,561.3486 18.3101,563.4487 Q18.3101,565.5405 18.9949,566.6072 Q19.6797,567.6738 21.0244,567.6738 Q21.6553,567.6738 22.2488,567.4041 Q22.8423,567.1343 23.4731,566.5532 Z "/><text fill="#000000" font-family="sans-serif" font-size="14" lengthAdjust="spacingAndGlyphs" textLength="144" x="35" y="562.5352">AdverseEvent.Builder</text><text fill="#000000" font-family="sans-serif" font-size="10" lengthAdjust="spacingAndGlyphs" textLength="139" x="37.5" y="575.1563">com.ibm.fhir.model.resource</text></a><!--class com.ibm.fhir.model.resource.AdverseEvent.SuspectEntity--><a href="AdverseEvent.SuspectEntity.html" target="_top" xlink:actuate="onRequest" xlink:show="new" xlink:title="AdverseEvent.SuspectEntity.html" xlink:type="simple"><rect fill="#FEFECE" filter="url(#ficn59xlbip3c)" height="38.2656" id="com.ibm.fhir.model.resource.AdverseEvent.SuspectEntity" style="stroke: #A80036; stroke-width: 1.5;" width="219" x="217.5" y="544"/><ellipse cx="232.5" cy="563.1328" fill="#ADD1B2" rx="11" ry="11" style="stroke: #A80036; stroke-width: 1.0;"/><path d="M234.9731,569.2759 Q234.3921,569.5747 233.7529,569.7241 Q233.1138,569.8735 232.4082,569.8735 Q229.9014,569.8735 228.5815,568.2217 Q227.2617,566.5698 227.2617,563.4487 Q227.2617,560.3193 228.5815,558.6675 Q229.9014,557.0156 232.4082,557.0156 Q233.1138,557.0156 233.7612,557.165 Q234.4087,557.3145 234.9731,557.6133 L234.9731,560.3359 Q234.3423,559.7549 233.7488,559.4851 Q233.1553,559.2153 232.5244,559.2153 Q231.1797,559.2153 230.4949,560.282 Q229.8101,561.3486 229.8101,563.4487 Q229.8101,565.5405 230.4949,566.6072 Q231.1797,567.6738 232.5244,567.6738 Q233.1553,567.6738 233.7488,567.4041 Q234.3423,567.1343 234.9731,566.5532 Z "/><text fill="#000000" font-family="sans-serif" font-size="14" lengthAdjust="spacingAndGlyphs" textLength="187" x="246.5" y="562.5352">AdverseEvent.SuspectEntity</text><text fill="#000000" font-family="sans-serif" font-size="10" lengthAdjust="spacingAndGlyphs" textLength="139" x="270.5" y="575.1563">com.ibm.fhir.model.resource</text></a><!--link com.ibm.fhir.model.resource.DomainResource to com.ibm.fhir.model.resource.AdverseEvent--><path d="M210,87.4141 C210,99.285 210,112.6334 210,126.7285 " fill="none" id="com.ibm.fhir.model.resource.DomainResource-com.ibm.fhir.model.resource.AdverseEvent" style="stroke: #A80036; stroke-width: 1.0;"/><polygon fill="none" points="203.0001,87.2047,210,67.2047,217.0001,87.2046,203.0001,87.2047" style="stroke: #A80036; stroke-width: 1.0;"/><!--link com.ibm.fhir.model.resource.AdverseEvent to com.ibm.fhir.model.resource.AdverseEvent.Builder--><path d="M123.2476,498.0755 C114.985,516.4168 107.7646,532.4449 102.5651,543.987 " fill="none" id="com.ibm.fhir.model.resource.AdverseEvent-com.ibm.fhir.model.resource.AdverseEvent.Builder" style="stroke: #A80036; stroke-width: 1.0;"/><ellipse cx="126.1482" cy="491.6363" fill="#FFFFFF" rx="8" ry="8" style="stroke: #A80036; stroke-width: 1.0;"/><line style="stroke: #A80036; stroke-width: 1.0;" x1="122.8622" x2="129.4341" y1="498.9303" y2="484.3423"/><line style="stroke: #A80036; stroke-width: 1.0;" x1="118.8541" x2="133.4422" y1="488.3504" y2="494.9223"/><!--link com.ibm.fhir.model.resource.AdverseEvent to com.ibm.fhir.model.resource.AdverseEvent.SuspectEntity--><path d="M297.5003,498.0755 C305.8341,516.4168 313.1167,532.4449 318.3611,543.987 " fill="none" id="com.ibm.fhir.model.resource.AdverseEvent-com.ibm.fhir.model.resource.AdverseEvent.SuspectEntity" style="stroke: #A80036; stroke-width: 1.0;"/><ellipse cx="294.5697" cy="491.6257" fill="#FFFFFF" rx="8" ry="8" style="stroke: #A80036; stroke-width: 1.0;"/><line style="stroke: #A80036; stroke-width: 1.0;" x1="297.8791" x2="291.2604" y1="498.9092" y2="484.3423"/><line style="stroke: #A80036; stroke-width: 1.0;" x1="287.2863" x2="301.8532" y1="494.9351" y2="488.3164"/><text fill="#888888" font-family="sans-serif" font-size="10" lengthAdjust="spacingAndGlyphs" textLength="182" x="136.5" y="601.668">UMLDoclet 2.0.5, PlantUML 1.2019.08</text><!--
@startuml
    set namespaceSeparator none
    hide empty fields
    hide empty methods

    class "<size:14>AdverseEvent\n<size:10>com.ibm.fhir.model.resource" as com.ibm.fhir.model.resource.AdverseEvent [[AdverseEvent.html]] {
        +getIdentifier(): Identifier
        +getActuality(): AdverseEventActuality
        +getCategory(): List<CodeableConcept>
        +getEvent(): CodeableConcept
        +getSubject(): Reference
        +getEncounter(): Reference
        +getDate(): DateTime
        +getDetected(): DateTime
        +getRecordedDate(): DateTime
        +getResultingCondition(): List<Reference>
        +getLocation(): Reference
        +getSeriousness(): CodeableConcept
        +getSeverity(): CodeableConcept
        +getOutcome(): CodeableConcept
        +getRecorder(): Reference
        +getContributor(): List<Reference>
        +getSuspectEntity(): List<SuspectEntity>
        +getSubjectMedicalHistory(): List<Reference>
        +getReferenceDocument(): List<Reference>
        +getStudy(): List<Reference>
        +hasChildren(): boolean
        +accept(String, int, Visitor): void
        +toBuilder(): Builder
        {static} +builder(): Builder
    }

    abstract class "<size:14>DomainResource\n<size:10>com.ibm.fhir.model.resource" as com.ibm.fhir.model.resource.DomainResource [[DomainResource.html]] {
        {abstract} +toBuilder(): Builder
    }
    class "<size:14>AdverseEvent.Builder\n<size:10>com.ibm.fhir.model.resource" as com.ibm.fhir.model.resource.AdverseEvent.Builder [[AdverseEvent.Builder.html]]
    class "<size:14>AdverseEvent.SuspectEntity\n<size:10>com.ibm.fhir.model.resource" as com.ibm.fhir.model.resource.AdverseEvent.SuspectEntity [[AdverseEvent.SuspectEntity.html]]

    com.ibm.fhir.model.resource.DomainResource <|- - com.ibm.fhir.model.resource.AdverseEvent
    com.ibm.fhir.model.resource.AdverseEvent +- - com.ibm.fhir.model.resource.AdverseEvent.Builder
    com.ibm.fhir.model.resource.AdverseEvent +- - com.ibm.fhir.model.resource.AdverseEvent.SuspectEntity

    center footer UMLDoclet 2.0.5, PlantUML 1.2019.08
@enduml

PlantUML version 1.2019.08(Sat Jul 13 15:25:14 EDT 2019)
(APACHE source distribution)
Java Runtime: OpenJDK Runtime Environment
JVM: OpenJDK 64-Bit Server VM
Java Version: 11.0.4+11
Operating System: Mac OS X
OS Version: 10.14.6
Default Encoding: UTF-8
Language: en
Country: US
--></g></svg>