<?xml version="1.0" encoding="UTF-8" standalone="no"?><svg xmlns="http://www.w3.org/2000/svg" xmlns:xlink="http://www.w3.org/1999/xlink" contentScriptType="application/ecmascript" contentStyleType="text/css" height="525px" preserveAspectRatio="none" style="width:434px;height:525px;" version="1.1" viewBox="0 0 434 525" width="434px" zoomAndPan="magnify"><defs><filter height="300%" id="f12dm3x4cxtxgo" width="300%" x="-1" y="-1"><feGaussianBlur result="blurOut" stdDeviation="2.0"/><feColorMatrix in="blurOut" result="blurOut2" type="matrix" values="0 0 0 0 0 0 0 0 0 0 0 0 0 0 0 0 0 0 .4 0"/><feOffset dx="4.0" dy="4.0" in="blurOut2" result="blurOut3"/><feBlend in="SourceGraphic" in2="blurOut3" mode="normal"/></filter></defs><g><!--class com.ibm.fhir.model.resource.CatalogEntry--><a href="CatalogEntry.html" target="_top" xlink:actuate="onRequest" xlink:show="new" xlink:title="CatalogEntry.html" xlink:type="simple"><rect fill="#FEFECE" filter="url(#f12dm3x4cxtxgo)" height="266.502" id="com.ibm.fhir.model.resource.CatalogEntry" style="stroke: #A80036; stroke-width: 1.5;" width="319" x="45.5" y="127"/><ellipse cx="131.25" cy="146.1328" fill="#ADD1B2" rx="11" ry="11" style="stroke: #A80036; stroke-width: 1.0;"/><path d="M133.7231,152.2759 Q133.1421,152.5747 132.5029,152.7241 Q131.8638,152.8735 131.1582,152.8735 Q128.6514,152.8735 127.3315,151.2217 Q126.0117,149.5698 126.0117,146.4487 Q126.0117,143.3193 127.3315,141.6675 Q128.6514,140.0156 131.1582,140.0156 Q131.8638,140.0156 132.5112,140.165 Q133.1587,140.3145 133.7231,140.6133 L133.7231,143.3359 Q133.0923,142.7549 132.4988,142.4851 Q131.9053,142.2153 131.2744,142.2153 Q129.9297,142.2153 129.2449,143.282 Q128.5601,144.3486 128.5601,146.4487 Q128.5601,148.5405 129.2449,149.6072 Q129.9297,150.6738 131.2744,150.6738 Q131.9053,150.6738 132.4988,150.4041 Q133.0923,150.1343 133.7231,149.5532 Z "/><text fill="#000000" font-family="sans-serif" font-size="14" lengthAdjust="spacingAndGlyphs" textLength="88" x="177.25" y="145.5352">CatalogEntry</text><text fill="#000000" font-family="sans-serif" font-size="10" lengthAdjust="spacingAndGlyphs" textLength="139" x="151.75" y="158.1563">com.ibm.fhir.model.resource</text><line style="stroke: #A80036; stroke-width: 1.5;" x1="46.5" x2="363.5" y1="165.2656" y2="165.2656"/><ellipse cx="56.5" cy="177.2432" fill="#84BE84" rx="3" ry="3" style="stroke: #038048; stroke-width: 1.0;"/><text fill="#000000" font-family="sans-serif" font-size="11" lengthAdjust="spacingAndGlyphs" textLength="164" x="65.5" y="179.9004">getIdentifier(): List&lt;Identifier&gt;</text><ellipse cx="56.5" cy="190.1982" fill="#84BE84" rx="3" ry="3" style="stroke: #038048; stroke-width: 1.0;"/><text fill="#000000" font-family="sans-serif" font-size="11" lengthAdjust="spacingAndGlyphs" textLength="152" x="65.5" y="192.8555">getType(): CodeableConcept</text><ellipse cx="56.5" cy="203.1533" fill="#84BE84" rx="3" ry="3" style="stroke: #038048; stroke-width: 1.0;"/><text fill="#000000" font-family="sans-serif" font-size="11" lengthAdjust="spacingAndGlyphs" textLength="127" x="65.5" y="205.8105">getOrderable(): Boolean</text><ellipse cx="56.5" cy="216.1084" fill="#84BE84" rx="3" ry="3" style="stroke: #038048; stroke-width: 1.0;"/><text fill="#000000" font-family="sans-serif" font-size="11" lengthAdjust="spacingAndGlyphs" textLength="167" x="65.5" y="218.7656">getReferencedItem(): Reference</text><ellipse cx="56.5" cy="229.0635" fill="#84BE84" rx="3" ry="3" style="stroke: #038048; stroke-width: 1.0;"/><text fill="#000000" font-family="sans-serif" font-size="11" lengthAdjust="spacingAndGlyphs" textLength="219" x="65.5" y="231.7207">getAdditionalIdentifier(): List&lt;Identifier&gt;</text><ellipse cx="56.5" cy="242.0186" fill="#84BE84" rx="3" ry="3" style="stroke: #038048; stroke-width: 1.0;"/><text fill="#000000" font-family="sans-serif" font-size="11" lengthAdjust="spacingAndGlyphs" textLength="235" x="65.5" y="244.6758">getClassification(): List&lt;CodeableConcept&gt;</text><ellipse cx="56.5" cy="254.9736" fill="#84BE84" rx="3" ry="3" style="stroke: #038048; stroke-width: 1.0;"/><text fill="#000000" font-family="sans-serif" font-size="11" lengthAdjust="spacingAndGlyphs" textLength="156" x="65.5" y="257.6309">getStatus(): PublicationStatus</text><ellipse cx="56.5" cy="267.9287" fill="#84BE84" rx="3" ry="3" style="stroke: #038048; stroke-width: 1.0;"/><text fill="#000000" font-family="sans-serif" font-size="11" lengthAdjust="spacingAndGlyphs" textLength="138" x="65.5" y="270.5859">getValidityPeriod(): Period</text><ellipse cx="56.5" cy="280.8838" fill="#84BE84" rx="3" ry="3" style="stroke: #038048; stroke-width: 1.0;"/><text fill="#000000" font-family="sans-serif" font-size="11" lengthAdjust="spacingAndGlyphs" textLength="121" x="65.5" y="283.541">getValidTo(): DateTime</text><ellipse cx="56.5" cy="293.8389" fill="#84BE84" rx="3" ry="3" style="stroke: #038048; stroke-width: 1.0;"/><text fill="#000000" font-family="sans-serif" font-size="11" lengthAdjust="spacingAndGlyphs" textLength="148" x="65.5" y="296.4961">getLastUpdated(): DateTime</text><ellipse cx="56.5" cy="306.7939" fill="#84BE84" rx="3" ry="3" style="stroke: #038048; stroke-width: 1.0;"/><text fill="#000000" font-family="sans-serif" font-size="11" lengthAdjust="spacingAndGlyphs" textLength="293" x="65.5" y="309.4512">getAdditionalCharacteristic(): List&lt;CodeableConcept&gt;</text><ellipse cx="56.5" cy="319.749" fill="#84BE84" rx="3" ry="3" style="stroke: #038048; stroke-width: 1.0;"/><text fill="#000000" font-family="sans-serif" font-size="11" lengthAdjust="spacingAndGlyphs" textLength="290" x="65.5" y="322.4063">getAdditionalClassification(): List&lt;CodeableConcept&gt;</text><ellipse cx="56.5" cy="332.7041" fill="#84BE84" rx="3" ry="3" style="stroke: #038048; stroke-width: 1.0;"/><text fill="#000000" font-family="sans-serif" font-size="11" lengthAdjust="spacingAndGlyphs" textLength="202" x="65.5" y="335.3613">getRelatedEntry(): List&lt;RelatedEntry&gt;</text><ellipse cx="56.5" cy="345.6592" fill="#84BE84" rx="3" ry="3" style="stroke: #038048; stroke-width: 1.0;"/><text fill="#000000" font-family="sans-serif" font-size="11" lengthAdjust="spacingAndGlyphs" textLength="122" x="65.5" y="348.3164">hasChildren(): boolean</text><ellipse cx="56.5" cy="358.6143" fill="#84BE84" rx="3" ry="3" style="stroke: #038048; stroke-width: 1.0;"/><text fill="#000000" font-family="sans-serif" font-size="11" lengthAdjust="spacingAndGlyphs" textLength="165" x="65.5" y="361.2715">accept(String, int, Visitor): void</text><ellipse cx="56.5" cy="371.5693" fill="#84BE84" rx="3" ry="3" style="stroke: #038048; stroke-width: 1.0;"/><text fill="#000000" font-family="sans-serif" font-size="11" lengthAdjust="spacingAndGlyphs" textLength="99" x="65.5" y="374.2266">toBuilder(): Builder</text><ellipse cx="56.5" cy="384.5244" fill="#84BE84" rx="3" ry="3" style="stroke: #038048; stroke-width: 1.0;"/><text fill="#000000" font-family="sans-serif" font-size="11" lengthAdjust="spacingAndGlyphs" text-decoration="underline" textLength="89" x="65.5" y="387.1816">builder(): Builder</text></a><!--class com.ibm.fhir.model.resource.DomainResource--><a href="DomainResource.html" target="_top" xlink:actuate="onRequest" xlink:show="new" xlink:title="DomainResource.html" xlink:type="simple"><rect fill="#FEFECE" filter="url(#f12dm3x4cxtxgo)" height="59.2207" id="com.ibm.fhir.model.resource.DomainResource" style="stroke: #A80036; stroke-width: 1.5;" width="171" x="119.5" y="8"/><ellipse cx="134.5" cy="27.1328" fill="#A9DCDF" rx="11" ry="11" style="stroke: #A80036; stroke-width: 1.0;"/><path d="M134.6133,22.731 L133.4595,27.8027 L135.7754,27.8027 Z M133.1191,20.4897 L136.1157,20.4897 L139.4609,32.8828 L137.0122,32.8828 L136.2485,29.8198 L132.9697,29.8198 L132.2227,32.8828 L129.7739,32.8828 Z "/><text fill="#000000" font-family="sans-serif" font-size="14" font-style="italic" lengthAdjust="spacingAndGlyphs" textLength="116" x="160" y="26.5352">DomainResource</text><text fill="#000000" font-family="sans-serif" font-size="10" font-style="italic" lengthAdjust="spacingAndGlyphs" textLength="139" x="148.5" y="39.1563">com.ibm.fhir.model.resource</text><line style="stroke: #A80036; stroke-width: 1.5;" x1="120.5" x2="289.5" y1="46.2656" y2="46.2656"/><ellipse cx="130.5" cy="58.2432" fill="#84BE84" rx="3" ry="3" style="stroke: #038048; stroke-width: 1.0;"/><text fill="#000000" font-family="sans-serif" font-size="11" font-style="italic" lengthAdjust="spacingAndGlyphs" textLength="99" x="139.5" y="60.9004">toBuilder(): Builder</text></a><!--class com.ibm.fhir.model.resource.CatalogEntry.Builder--><a href="CatalogEntry.Builder.html" target="_top" xlink:actuate="onRequest" xlink:show="new" xlink:title="CatalogEntry.Builder.html" xlink:type="simple"><rect fill="#FEFECE" filter="url(#f12dm3x4cxtxgo)" height="38.2656" id="com.ibm.fhir.model.resource.CatalogEntry.Builder" style="stroke: #A80036; stroke-width: 1.5;" width="172" x="6" y="454"/><ellipse cx="21" cy="473.1328" fill="#ADD1B2" rx="11" ry="11" style="stroke: #A80036; stroke-width: 1.0;"/><path d="M23.4731,479.2759 Q22.8921,479.5747 22.2529,479.7241 Q21.6138,479.8735 20.9082,479.8735 Q18.4014,479.8735 17.0815,478.2217 Q15.7617,476.5698 15.7617,473.4487 Q15.7617,470.3193 17.0815,468.6675 Q18.4014,467.0156 20.9082,467.0156 Q21.6138,467.0156 22.2612,467.165 Q22.9087,467.3145 23.4731,467.6133 L23.4731,470.3359 Q22.8423,469.7549 22.2488,469.4851 Q21.6553,469.2153 21.0244,469.2153 Q19.6797,469.2153 18.9949,470.282 Q18.3101,471.3486 18.3101,473.4487 Q18.3101,475.5405 18.9949,476.6072 Q19.6797,477.6738 21.0244,477.6738 Q21.6553,477.6738 22.2488,477.4041 Q22.8423,477.1343 23.4731,476.5532 Z "/><text fill="#000000" font-family="sans-serif" font-size="14" lengthAdjust="spacingAndGlyphs" textLength="140" x="35" y="472.5352">CatalogEntry.Builder</text><text fill="#000000" font-family="sans-serif" font-size="10" lengthAdjust="spacingAndGlyphs" textLength="139" x="35.5" y="485.1563">com.ibm.fhir.model.resource</text></a><!--class com.ibm.fhir.model.resource.CatalogEntry.RelatedEntry--><a href="CatalogEntry.RelatedEntry.html" target="_top" xlink:actuate="onRequest" xlink:show="new" xlink:title="CatalogEntry.RelatedEntry.html" xlink:type="simple"><rect fill="#FEFECE" filter="url(#f12dm3x4cxtxgo)" height="38.2656" id="com.ibm.fhir.model.resource.CatalogEntry.RelatedEntry" style="stroke: #A80036; stroke-width: 1.5;" width="210" x="213" y="454"/><ellipse cx="228" cy="473.1328" fill="#ADD1B2" rx="11" ry="11" style="stroke: #A80036; stroke-width: 1.0;"/><path d="M230.4731,479.2759 Q229.8921,479.5747 229.2529,479.7241 Q228.6138,479.8735 227.9082,479.8735 Q225.4014,479.8735 224.0815,478.2217 Q222.7617,476.5698 222.7617,473.4487 Q222.7617,470.3193 224.0815,468.6675 Q225.4014,467.0156 227.9082,467.0156 Q228.6138,467.0156 229.2612,467.165 Q229.9087,467.3145 230.4731,467.6133 L230.4731,470.3359 Q229.8423,469.7549 229.2488,469.4851 Q228.6553,469.2153 228.0244,469.2153 Q226.6797,469.2153 225.9949,470.282 Q225.3101,471.3486 225.3101,473.4487 Q225.3101,475.5405 225.9949,476.6072 Q226.6797,477.6738 228.0244,477.6738 Q228.6553,477.6738 229.2488,477.4041 Q229.8423,477.1343 230.4731,476.5532 Z "/><text fill="#000000" font-family="sans-serif" font-size="14" lengthAdjust="spacingAndGlyphs" textLength="178" x="242" y="472.5352">CatalogEntry.RelatedEntry</text><text fill="#000000" font-family="sans-serif" font-size="10" lengthAdjust="spacingAndGlyphs" textLength="139" x="261.5" y="485.1563">com.ibm.fhir.model.resource</text></a><!--link com.ibm.fhir.model.resource.DomainResource to com.ibm.fhir.model.resource.CatalogEntry--><path d="M205,87.1824 C205,99.2992 205,112.8399 205,126.8676 " fill="none" id="com.ibm.fhir.model.resource.DomainResource-com.ibm.fhir.model.resource.CatalogEntry" style="stroke: #A80036; stroke-width: 1.0;"/><polygon fill="none" points="198.0001,87.1127,205,67.1127,212.0001,87.1126,198.0001,87.1127" style="stroke: #A80036; stroke-width: 1.0;"/><!--link com.ibm.fhir.model.resource.CatalogEntry to com.ibm.fhir.model.resource.CatalogEntry.Builder--><path d="M126.7481,407.6552 C117.1178,425.7652 108.4826,442.004 102.2293,453.7636 " fill="none" id="com.ibm.fhir.model.resource.CatalogEntry-com.ibm.fhir.model.resource.CatalogEntry.Builder" style="stroke: #A80036; stroke-width: 1.0;"/><ellipse cx="130.1603" cy="401.2382" fill="#FFFFFF" rx="8" ry="8" style="stroke: #A80036; stroke-width: 1.0;"/><line style="stroke: #A80036; stroke-width: 1.0;" x1="126.4042" x2="133.9164" y1="408.3016" y2="394.1748"/><line style="stroke: #A80036; stroke-width: 1.0;" x1="123.0969" x2="137.2237" y1="397.4821" y2="404.9943"/><!--link com.ibm.fhir.model.resource.CatalogEntry to com.ibm.fhir.model.resource.CatalogEntry.RelatedEntry--><path d="M283.2519,407.6552 C292.8822,425.7652 301.5174,442.004 307.7707,453.7636 " fill="none" id="com.ibm.fhir.model.resource.CatalogEntry-com.ibm.fhir.model.resource.CatalogEntry.RelatedEntry" style="stroke: #A80036; stroke-width: 1.0;"/><ellipse cx="279.8397" cy="401.2382" fill="#FFFFFF" rx="8" ry="8" style="stroke: #A80036; stroke-width: 1.0;"/><line style="stroke: #A80036; stroke-width: 1.0;" x1="283.5958" x2="276.0836" y1="408.3016" y2="394.1748"/><line style="stroke: #A80036; stroke-width: 1.0;" x1="272.7763" x2="286.9031" y1="404.9943" y2="397.4821"/><text fill="#888888" font-family="sans-serif" font-size="10" lengthAdjust="spacingAndGlyphs" textLength="182" x="129.5" y="511.668">UMLDoclet 2.0.5, PlantUML 1.2019.08</text><!--
@startuml
    set namespaceSeparator none
    hide empty fields
    hide empty methods

    class "<size:14>CatalogEntry\n<size:10>com.ibm.fhir.model.resource" as com.ibm.fhir.model.resource.CatalogEntry [[CatalogEntry.html]] {
        +getIdentifier(): List<Identifier>
        +getType(): CodeableConcept
        +getOrderable(): Boolean
        +getReferencedItem(): Reference
        +getAdditionalIdentifier(): List<Identifier>
        +getClassification(): List<CodeableConcept>
        +getStatus(): PublicationStatus
        +getValidityPeriod(): Period
        +getValidTo(): DateTime
        +getLastUpdated(): DateTime
        +getAdditionalCharacteristic(): List<CodeableConcept>
        +getAdditionalClassification(): List<CodeableConcept>
        +getRelatedEntry(): List<RelatedEntry>
        +hasChildren(): boolean
        +accept(String, int, Visitor): void
        +toBuilder(): Builder
        {static} +builder(): Builder
    }

    abstract class "<size:14>DomainResource\n<size:10>com.ibm.fhir.model.resource" as com.ibm.fhir.model.resource.DomainResource [[DomainResource.html]] {
        {abstract} +toBuilder(): Builder
    }
    class "<size:14>CatalogEntry.Builder\n<size:10>com.ibm.fhir.model.resource" as com.ibm.fhir.model.resource.CatalogEntry.Builder [[CatalogEntry.Builder.html]]
    class "<size:14>CatalogEntry.RelatedEntry\n<size:10>com.ibm.fhir.model.resource" as com.ibm.fhir.model.resource.CatalogEntry.RelatedEntry [[CatalogEntry.RelatedEntry.html]]

    com.ibm.fhir.model.resource.DomainResource <|- - com.ibm.fhir.model.resource.CatalogEntry
    com.ibm.fhir.model.resource.CatalogEntry +- - com.ibm.fhir.model.resource.CatalogEntry.Builder
    com.ibm.fhir.model.resource.CatalogEntry +- - com.ibm.fhir.model.resource.CatalogEntry.RelatedEntry

    center footer UMLDoclet 2.0.5, PlantUML 1.2019.08
@enduml

PlantUML version 1.2019.08(Sat Jul 13 15:25:14 EDT 2019)
(APACHE source distribution)
Java Runtime: OpenJDK Runtime Environment
JVM: OpenJDK 64-Bit Server VM
Java Version: 11.0.4+11
Operating System: Mac OS X
OS Version: 10.14.6
Default Encoding: UTF-8
Language: en
Country: US
--></g></svg>