<?xml version="1.0" encoding="UTF-8" standalone="no"?><svg xmlns="http://www.w3.org/2000/svg" xmlns:xlink="http://www.w3.org/1999/xlink" contentScriptType="application/ecmascript" contentStyleType="text/css" height="641px" preserveAspectRatio="none" style="width:553px;height:641px;" version="1.1" viewBox="0 0 553 641" width="553px" zoomAndPan="magnify"><defs><filter height="300%" id="f14ksob743tx5y" width="300%" x="-1" y="-1"><feGaussianBlur result="blurOut" stdDeviation="2.0"/><feColorMatrix in="blurOut" result="blurOut2" type="matrix" values="0 0 0 0 0 0 0 0 0 0 0 0 0 0 0 0 0 0 .4 0"/><feOffset dx="4.0" dy="4.0" in="blurOut2" result="blurOut3"/><feBlend in="SourceGraphic" in2="blurOut3" mode="normal"/></filter></defs><g><!--class com.ibm.fhir.model.resource.CommunicationRequest--><a href="CommunicationRequest.html" target="_top" xlink:actuate="onRequest" xlink:show="new" xlink:title="CommunicationRequest.html" xlink:type="simple"><rect fill="#FEFECE" filter="url(#f14ksob743tx5y)" height="383.0977" id="com.ibm.fhir.model.resource.CommunicationRequest" style="stroke: #A80036; stroke-width: 1.5;" width="256" x="145" y="127"/><ellipse cx="187" cy="146.1328" fill="#ADD1B2" rx="11" ry="11" style="stroke: #A80036; stroke-width: 1.0;"/><path d="M189.4731,152.2759 Q188.8921,152.5747 188.2529,152.7241 Q187.6138,152.8735 186.9082,152.8735 Q184.4014,152.8735 183.0815,151.2217 Q181.7617,149.5698 181.7617,146.4487 Q181.7617,143.3193 183.0815,141.6675 Q184.4014,140.0156 186.9082,140.0156 Q187.6138,140.0156 188.2612,140.165 Q188.9087,140.3145 189.4731,140.6133 L189.4731,143.3359 Q188.8423,142.7549 188.2488,142.4851 Q187.6553,142.2153 187.0244,142.2153 Q185.6797,142.2153 184.9949,143.282 Q184.3101,144.3486 184.3101,146.4487 Q184.3101,148.5405 184.9949,149.6072 Q185.6797,150.6738 187.0244,150.6738 Q187.6553,150.6738 188.2488,150.4041 Q188.8423,150.1343 189.4731,149.5532 Z "/><text fill="#000000" font-family="sans-serif" font-size="14" lengthAdjust="spacingAndGlyphs" textLength="164" x="207" y="145.5352">CommunicationRequest</text><text fill="#000000" font-family="sans-serif" font-size="10" lengthAdjust="spacingAndGlyphs" textLength="139" x="219.5" y="158.1563">com.ibm.fhir.model.resource</text><line style="stroke: #A80036; stroke-width: 1.5;" x1="146" x2="400" y1="165.2656" y2="165.2656"/><ellipse cx="156" cy="177.2432" fill="#84BE84" rx="3" ry="3" style="stroke: #038048; stroke-width: 1.0;"/><text fill="#000000" font-family="sans-serif" font-size="11" lengthAdjust="spacingAndGlyphs" textLength="164" x="165" y="179.9004">getIdentifier(): List&lt;Identifier&gt;</text><ellipse cx="156" cy="190.1982" fill="#84BE84" rx="3" ry="3" style="stroke: #038048; stroke-width: 1.0;"/><text fill="#000000" font-family="sans-serif" font-size="11" lengthAdjust="spacingAndGlyphs" textLength="168" x="165" y="192.8555">getBasedOn(): List&lt;Reference&gt;</text><ellipse cx="156" cy="203.1533" fill="#84BE84" rx="3" ry="3" style="stroke: #038048; stroke-width: 1.0;"/><text fill="#000000" font-family="sans-serif" font-size="11" lengthAdjust="spacingAndGlyphs" textLength="168" x="165" y="205.8105">getReplaces(): List&lt;Reference&gt;</text><ellipse cx="156" cy="216.1084" fill="#84BE84" rx="3" ry="3" style="stroke: #038048; stroke-width: 1.0;"/><text fill="#000000" font-family="sans-serif" font-size="11" lengthAdjust="spacingAndGlyphs" textLength="161" x="165" y="218.7656">getGroupIdentifier(): Identifier</text><ellipse cx="156" cy="229.0635" fill="#84BE84" rx="3" ry="3" style="stroke: #038048; stroke-width: 1.0;"/><text fill="#000000" font-family="sans-serif" font-size="11" lengthAdjust="spacingAndGlyphs" textLength="225" x="165" y="231.7207">getStatus(): CommunicationRequestStatus</text><ellipse cx="156" cy="242.0186" fill="#84BE84" rx="3" ry="3" style="stroke: #038048; stroke-width: 1.0;"/><text fill="#000000" font-family="sans-serif" font-size="11" lengthAdjust="spacingAndGlyphs" textLength="198" x="165" y="244.6758">getStatusReason(): CodeableConcept</text><ellipse cx="156" cy="254.9736" fill="#84BE84" rx="3" ry="3" style="stroke: #038048; stroke-width: 1.0;"/><text fill="#000000" font-family="sans-serif" font-size="11" lengthAdjust="spacingAndGlyphs" textLength="212" x="165" y="257.6309">getCategory(): List&lt;CodeableConcept&gt;</text><ellipse cx="156" cy="267.9287" fill="#84BE84" rx="3" ry="3" style="stroke: #038048; stroke-width: 1.0;"/><text fill="#000000" font-family="sans-serif" font-size="11" lengthAdjust="spacingAndGlyphs" textLength="194" x="165" y="270.5859">getPriority(): CommunicationPriority</text><ellipse cx="156" cy="280.8838" fill="#84BE84" rx="3" ry="3" style="stroke: #038048; stroke-width: 1.0;"/><text fill="#000000" font-family="sans-serif" font-size="11" lengthAdjust="spacingAndGlyphs" textLength="150" x="165" y="283.541">getDoNotPerform(): Boolean</text><ellipse cx="156" cy="293.8389" fill="#84BE84" rx="3" ry="3" style="stroke: #038048; stroke-width: 1.0;"/><text fill="#000000" font-family="sans-serif" font-size="11" lengthAdjust="spacingAndGlyphs" textLength="205" x="165" y="296.4961">getMedium(): List&lt;CodeableConcept&gt;</text><ellipse cx="156" cy="306.7939" fill="#84BE84" rx="3" ry="3" style="stroke: #038048; stroke-width: 1.0;"/><text fill="#000000" font-family="sans-serif" font-size="11" lengthAdjust="spacingAndGlyphs" textLength="123" x="165" y="309.4512">getSubject(): Reference</text><ellipse cx="156" cy="319.749" fill="#84BE84" rx="3" ry="3" style="stroke: #038048; stroke-width: 1.0;"/><text fill="#000000" font-family="sans-serif" font-size="11" lengthAdjust="spacingAndGlyphs" textLength="154" x="165" y="322.4063">getAbout(): List&lt;Reference&gt;</text><ellipse cx="156" cy="332.7041" fill="#84BE84" rx="3" ry="3" style="stroke: #038048; stroke-width: 1.0;"/><text fill="#000000" font-family="sans-serif" font-size="11" lengthAdjust="spacingAndGlyphs" textLength="139" x="165" y="335.3613">getEncounter(): Reference</text><ellipse cx="156" cy="345.6592" fill="#84BE84" rx="3" ry="3" style="stroke: #038048; stroke-width: 1.0;"/><text fill="#000000" font-family="sans-serif" font-size="11" lengthAdjust="spacingAndGlyphs" textLength="150" x="165" y="348.3164">getPayload(): List&lt;Payload&gt;</text><ellipse cx="156" cy="358.6143" fill="#84BE84" rx="3" ry="3" style="stroke: #038048; stroke-width: 1.0;"/><text fill="#000000" font-family="sans-serif" font-size="11" lengthAdjust="spacingAndGlyphs" textLength="136" x="165" y="361.2715">getOccurrence(): Element</text><ellipse cx="156" cy="371.5693" fill="#84BE84" rx="3" ry="3" style="stroke: #038048; stroke-width: 1.0;"/><text fill="#000000" font-family="sans-serif" font-size="11" lengthAdjust="spacingAndGlyphs" textLength="148" x="165" y="374.2266">getAuthoredOn(): DateTime</text><ellipse cx="156" cy="384.5244" fill="#84BE84" rx="3" ry="3" style="stroke: #038048; stroke-width: 1.0;"/><text fill="#000000" font-family="sans-serif" font-size="11" lengthAdjust="spacingAndGlyphs" textLength="138" x="165" y="387.1816">getRequester(): Reference</text><ellipse cx="156" cy="397.4795" fill="#84BE84" rx="3" ry="3" style="stroke: #038048; stroke-width: 1.0;"/><text fill="#000000" font-family="sans-serif" font-size="11" lengthAdjust="spacingAndGlyphs" textLength="170" x="165" y="400.1367">getRecipient(): List&lt;Reference&gt;</text><ellipse cx="156" cy="410.4346" fill="#84BE84" rx="3" ry="3" style="stroke: #038048; stroke-width: 1.0;"/><text fill="#000000" font-family="sans-serif" font-size="11" lengthAdjust="spacingAndGlyphs" textLength="121" x="165" y="413.0918">getSender(): Reference</text><ellipse cx="156" cy="423.3896" fill="#84BE84" rx="3" ry="3" style="stroke: #038048; stroke-width: 1.0;"/><text fill="#000000" font-family="sans-serif" font-size="11" lengthAdjust="spacingAndGlyphs" textLength="230" x="165" y="426.0469">getReasonCode(): List&lt;CodeableConcept&gt;</text><ellipse cx="156" cy="436.3447" fill="#84BE84" rx="3" ry="3" style="stroke: #038048; stroke-width: 1.0;"/><text fill="#000000" font-family="sans-serif" font-size="11" lengthAdjust="spacingAndGlyphs" textLength="213" x="165" y="439.002">getReasonReference(): List&lt;Reference&gt;</text><ellipse cx="156" cy="449.2998" fill="#84BE84" rx="3" ry="3" style="stroke: #038048; stroke-width: 1.0;"/><text fill="#000000" font-family="sans-serif" font-size="11" lengthAdjust="spacingAndGlyphs" textLength="153" x="165" y="451.957">getNote(): List&lt;Annotation&gt;</text><ellipse cx="156" cy="462.2549" fill="#84BE84" rx="3" ry="3" style="stroke: #038048; stroke-width: 1.0;"/><text fill="#000000" font-family="sans-serif" font-size="11" lengthAdjust="spacingAndGlyphs" textLength="122" x="165" y="464.9121">hasChildren(): boolean</text><ellipse cx="156" cy="475.21" fill="#84BE84" rx="3" ry="3" style="stroke: #038048; stroke-width: 1.0;"/><text fill="#000000" font-family="sans-serif" font-size="11" lengthAdjust="spacingAndGlyphs" textLength="165" x="165" y="477.8672">accept(String, int, Visitor): void</text><ellipse cx="156" cy="488.165" fill="#84BE84" rx="3" ry="3" style="stroke: #038048; stroke-width: 1.0;"/><text fill="#000000" font-family="sans-serif" font-size="11" lengthAdjust="spacingAndGlyphs" textLength="99" x="165" y="490.8223">toBuilder(): Builder</text><ellipse cx="156" cy="501.1201" fill="#84BE84" rx="3" ry="3" style="stroke: #038048; stroke-width: 1.0;"/><text fill="#000000" font-family="sans-serif" font-size="11" lengthAdjust="spacingAndGlyphs" text-decoration="underline" textLength="89" x="165" y="503.7773">builder(): Builder</text></a><!--class com.ibm.fhir.model.resource.DomainResource--><a href="DomainResource.html" target="_top" xlink:actuate="onRequest" xlink:show="new" xlink:title="DomainResource.html" xlink:type="simple"><rect fill="#FEFECE" filter="url(#f14ksob743tx5y)" height="59.2207" id="com.ibm.fhir.model.resource.DomainResource" style="stroke: #A80036; stroke-width: 1.5;" width="171" x="187.5" y="8"/><ellipse cx="202.5" cy="27.1328" fill="#A9DCDF" rx="11" ry="11" style="stroke: #A80036; stroke-width: 1.0;"/><path d="M202.6133,22.731 L201.4595,27.8027 L203.7754,27.8027 Z M201.1191,20.4897 L204.1157,20.4897 L207.4609,32.8828 L205.0122,32.8828 L204.2485,29.8198 L200.9697,29.8198 L200.2227,32.8828 L197.7739,32.8828 Z "/><text fill="#000000" font-family="sans-serif" font-size="14" font-style="italic" lengthAdjust="spacingAndGlyphs" textLength="116" x="228" y="26.5352">DomainResource</text><text fill="#000000" font-family="sans-serif" font-size="10" font-style="italic" lengthAdjust="spacingAndGlyphs" textLength="139" x="216.5" y="39.1563">com.ibm.fhir.model.resource</text><line style="stroke: #A80036; stroke-width: 1.5;" x1="188.5" x2="357.5" y1="46.2656" y2="46.2656"/><ellipse cx="198.5" cy="58.2432" fill="#84BE84" rx="3" ry="3" style="stroke: #038048; stroke-width: 1.0;"/><text fill="#000000" font-family="sans-serif" font-size="11" font-style="italic" lengthAdjust="spacingAndGlyphs" textLength="99" x="207.5" y="60.9004">toBuilder(): Builder</text></a><!--class com.ibm.fhir.model.resource.CommunicationRequest.Builder--><a href="CommunicationRequest.Builder.html" target="_top" xlink:actuate="onRequest" xlink:show="new" xlink:title="CommunicationRequest.Builder.html" xlink:type="simple"><rect fill="#FEFECE" filter="url(#f14ksob743tx5y)" height="38.2656" id="com.ibm.fhir.model.resource.CommunicationRequest.Builder" style="stroke: #A80036; stroke-width: 1.5;" width="248" x="6" y="570"/><ellipse cx="21" cy="589.1328" fill="#ADD1B2" rx="11" ry="11" style="stroke: #A80036; stroke-width: 1.0;"/><path d="M23.4731,595.2759 Q22.8921,595.5747 22.2529,595.7241 Q21.6138,595.8735 20.9082,595.8735 Q18.4014,595.8735 17.0815,594.2217 Q15.7617,592.5698 15.7617,589.4487 Q15.7617,586.3193 17.0815,584.6675 Q18.4014,583.0156 20.9082,583.0156 Q21.6138,583.0156 22.2612,583.165 Q22.9087,583.3145 23.4731,583.6133 L23.4731,586.3359 Q22.8423,585.7549 22.2488,585.4851 Q21.6553,585.2153 21.0244,585.2153 Q19.6797,585.2153 18.9949,586.282 Q18.3101,587.3486 18.3101,589.4487 Q18.3101,591.5405 18.9949,592.6072 Q19.6797,593.6738 21.0244,593.6738 Q21.6553,593.6738 22.2488,593.4041 Q22.8423,593.1343 23.4731,592.5532 Z "/><text fill="#000000" font-family="sans-serif" font-size="14" lengthAdjust="spacingAndGlyphs" textLength="216" x="35" y="588.5352">CommunicationRequest.Builder</text><text fill="#000000" font-family="sans-serif" font-size="10" lengthAdjust="spacingAndGlyphs" textLength="139" x="73.5" y="601.1563">com.ibm.fhir.model.resource</text></a><!--class com.ibm.fhir.model.resource.CommunicationRequest.Payload--><a href="CommunicationRequest.Payload.html" target="_top" xlink:actuate="onRequest" xlink:show="new" xlink:title="CommunicationRequest.Payload.html" xlink:type="simple"><rect fill="#FEFECE" filter="url(#f14ksob743tx5y)" height="38.2656" id="com.ibm.fhir.model.resource.CommunicationRequest.Payload" style="stroke: #A80036; stroke-width: 1.5;" width="253" x="289.5" y="570"/><ellipse cx="304.5" cy="589.1328" fill="#ADD1B2" rx="11" ry="11" style="stroke: #A80036; stroke-width: 1.0;"/><path d="M306.9731,595.2759 Q306.3921,595.5747 305.7529,595.7241 Q305.1138,595.8735 304.4082,595.8735 Q301.9014,595.8735 300.5815,594.2217 Q299.2617,592.5698 299.2617,589.4487 Q299.2617,586.3193 300.5815,584.6675 Q301.9014,583.0156 304.4082,583.0156 Q305.1138,583.0156 305.7612,583.165 Q306.4087,583.3145 306.9731,583.6133 L306.9731,586.3359 Q306.3423,585.7549 305.7488,585.4851 Q305.1553,585.2153 304.5244,585.2153 Q303.1797,585.2153 302.4949,586.282 Q301.8101,587.3486 301.8101,589.4487 Q301.8101,591.5405 302.4949,592.6072 Q303.1797,593.6738 304.5244,593.6738 Q305.1553,593.6738 305.7488,593.4041 Q306.3423,593.1343 306.9731,592.5532 Z "/><text fill="#000000" font-family="sans-serif" font-size="14" lengthAdjust="spacingAndGlyphs" textLength="221" x="318.5" y="588.5352">CommunicationRequest.Payload</text><text fill="#000000" font-family="sans-serif" font-size="10" lengthAdjust="spacingAndGlyphs" textLength="139" x="359.5" y="601.1563">com.ibm.fhir.model.resource</text></a><!--link com.ibm.fhir.model.resource.DomainResource to com.ibm.fhir.model.resource.CommunicationRequest--><path d="M273,87.2516 C273,99.144 273,112.5525 273,126.7721 " fill="none" id="com.ibm.fhir.model.resource.DomainResource-com.ibm.fhir.model.resource.CommunicationRequest" style="stroke: #A80036; stroke-width: 1.0;"/><polygon fill="none" points="266.0001,87.0409,273,67.0408,280.0001,87.0408,266.0001,87.0409" style="stroke: #A80036; stroke-width: 1.0;"/><!--link com.ibm.fhir.model.resource.CommunicationRequest to com.ibm.fhir.model.resource.CommunicationRequest.Builder--><path d="M164.6095,523.5324 C154.8391,542.0141 146.3345,558.1014 140.2009,569.704 " fill="none" id="com.ibm.fhir.model.resource.CommunicationRequest-com.ibm.fhir.model.resource.CommunicationRequest.Builder" style="stroke: #A80036; stroke-width: 1.0;"/><ellipse cx="168.007" cy="517.1055" fill="#FFFFFF" rx="8" ry="8" style="stroke: #A80036; stroke-width: 1.0;"/><line style="stroke: #A80036; stroke-width: 1.0;" x1="164.2681" x2="171.7459" y1="524.1781" y2="510.033"/><line style="stroke: #A80036; stroke-width: 1.0;" x1="160.9345" x2="175.0795" y1="513.3666" y2="520.8444"/><!--link com.ibm.fhir.model.resource.CommunicationRequest to com.ibm.fhir.model.resource.CommunicationRequest.Payload--><path d="M381.3905,523.5324 C391.1609,542.0141 399.6655,558.1014 405.7991,569.704 " fill="none" id="com.ibm.fhir.model.resource.CommunicationRequest-com.ibm.fhir.model.resource.CommunicationRequest.Payload" style="stroke: #A80036; stroke-width: 1.0;"/><ellipse cx="377.993" cy="517.1055" fill="#FFFFFF" rx="8" ry="8" style="stroke: #A80036; stroke-width: 1.0;"/><line style="stroke: #A80036; stroke-width: 1.0;" x1="381.7319" x2="374.2541" y1="524.1781" y2="510.033"/><line style="stroke: #A80036; stroke-width: 1.0;" x1="370.9205" x2="385.0655" y1="520.8444" y2="513.3666"/><text fill="#888888" font-family="sans-serif" font-size="10" lengthAdjust="spacingAndGlyphs" textLength="182" x="189.5" y="627.668">UMLDoclet 2.0.5, PlantUML 1.2019.08</text><!--
@startuml
    set namespaceSeparator none
    hide empty fields
    hide empty methods

    class "<size:14>CommunicationRequest\n<size:10>com.ibm.fhir.model.resource" as com.ibm.fhir.model.resource.CommunicationRequest [[CommunicationRequest.html]] {
        +getIdentifier(): List<Identifier>
        +getBasedOn(): List<Reference>
        +getReplaces(): List<Reference>
        +getGroupIdentifier(): Identifier
        +getStatus(): CommunicationRequestStatus
        +getStatusReason(): CodeableConcept
        +getCategory(): List<CodeableConcept>
        +getPriority(): CommunicationPriority
        +getDoNotPerform(): Boolean
        +getMedium(): List<CodeableConcept>
        +getSubject(): Reference
        +getAbout(): List<Reference>
        +getEncounter(): Reference
        +getPayload(): List<Payload>
        +getOccurrence(): Element
        +getAuthoredOn(): DateTime
        +getRequester(): Reference
        +getRecipient(): List<Reference>
        +getSender(): Reference
        +getReasonCode(): List<CodeableConcept>
        +getReasonReference(): List<Reference>
        +getNote(): List<Annotation>
        +hasChildren(): boolean
        +accept(String, int, Visitor): void
        +toBuilder(): Builder
        {static} +builder(): Builder
    }

    abstract class "<size:14>DomainResource\n<size:10>com.ibm.fhir.model.resource" as com.ibm.fhir.model.resource.DomainResource [[DomainResource.html]] {
        {abstract} +toBuilder(): Builder
    }
    class "<size:14>CommunicationRequest.Builder\n<size:10>com.ibm.fhir.model.resource" as com.ibm.fhir.model.resource.CommunicationRequest.Builder [[CommunicationRequest.Builder.html]]
    class "<size:14>CommunicationRequest.Payload\n<size:10>com.ibm.fhir.model.resource" as com.ibm.fhir.model.resource.CommunicationRequest.Payload [[CommunicationRequest.Payload.html]]

    com.ibm.fhir.model.resource.DomainResource <|- - com.ibm.fhir.model.resource.CommunicationRequest
    com.ibm.fhir.model.resource.CommunicationRequest +- - com.ibm.fhir.model.resource.CommunicationRequest.Builder
    com.ibm.fhir.model.resource.CommunicationRequest +- - com.ibm.fhir.model.resource.CommunicationRequest.Payload

    center footer UMLDoclet 2.0.5, PlantUML 1.2019.08
@enduml

PlantUML version 1.2019.08(Sat Jul 13 15:25:14 EDT 2019)
(APACHE source distribution)
Java Runtime: OpenJDK Runtime Environment
JVM: OpenJDK 64-Bit Server VM
Java Version: 11.0.4+11
Operating System: Mac OS X
OS Version: 10.14.6
Default Encoding: UTF-8
Language: en
Country: US
--></g></svg>