<?xml version="1.0" encoding="UTF-8" standalone="no"?><svg xmlns="http://www.w3.org/2000/svg" xmlns:xlink="http://www.w3.org/1999/xlink" contentScriptType="application/ecmascript" contentStyleType="text/css" height="349px" preserveAspectRatio="none" style="width:428px;height:349px;" version="1.1" viewBox="0 0 428 349" width="428px" zoomAndPan="magnify"><defs><filter height="300%" id="f1cndusf25biy5" width="300%" x="-1" y="-1"><feGaussianBlur result="blurOut" stdDeviation="2.0"/><feColorMatrix in="blurOut" result="blurOut2" type="matrix" values="0 0 0 0 0 0 0 0 0 0 0 0 0 0 0 0 0 0 .4 0"/><feOffset dx="4.0" dy="4.0" in="blurOut2" result="blurOut3"/><feBlend in="SourceGraphic" in2="blurOut3" mode="normal"/></filter></defs><g><!--class com.ibm.fhir.model.resource.Condition.Stage.Builder--><a href="Condition.Stage.Builder.html" target="_top" xlink:actuate="onRequest" xlink:show="new" xlink:title="Condition.Stage.Builder.html" xlink:type="simple"><rect fill="#FEFECE" filter="url(#f1cndusf25biy5)" height="188.7715" id="com.ibm.fhir.model.resource.Condition.Stage.Builder" style="stroke: #A80036; stroke-width: 1.5;" width="300" x="69.5" y="127"/><ellipse cx="134.25" cy="146.1328" fill="#ADD1B2" rx="11" ry="11" style="stroke: #A80036; stroke-width: 1.0;"/><path d="M136.7231,152.2759 Q136.1421,152.5747 135.5029,152.7241 Q134.8638,152.8735 134.1582,152.8735 Q131.6514,152.8735 130.3315,151.2217 Q129.0117,149.5698 129.0117,146.4487 Q129.0117,143.3193 130.3315,141.6675 Q131.6514,140.0156 134.1582,140.0156 Q134.8638,140.0156 135.5112,140.165 Q136.1587,140.3145 136.7231,140.6133 L136.7231,143.3359 Q136.0923,142.7549 135.4988,142.4851 Q134.9053,142.2153 134.2744,142.2153 Q132.9297,142.2153 132.2449,143.282 Q131.5601,144.3486 131.5601,146.4487 Q131.5601,148.5405 132.2449,149.6072 Q132.9297,150.6738 134.2744,150.6738 Q134.9053,150.6738 135.4988,150.4041 Q136.0923,150.1343 136.7231,149.5532 Z "/><text fill="#000000" font-family="sans-serif" font-size="14" lengthAdjust="spacingAndGlyphs" textLength="162" x="154.75" y="145.5352">Condition.Stage.Builder</text><text fill="#000000" font-family="sans-serif" font-size="10" lengthAdjust="spacingAndGlyphs" textLength="139" x="166.25" y="158.1563">com.ibm.fhir.model.resource</text><line style="stroke: #A80036; stroke-width: 1.5;" x1="70.5" x2="368.5" y1="165.2656" y2="165.2656"/><ellipse cx="80.5" cy="177.2432" fill="#84BE84" rx="3" ry="3" style="stroke: #038048; stroke-width: 1.0;"/><text fill="#000000" font-family="sans-serif" font-size="11" lengthAdjust="spacingAndGlyphs" textLength="93" x="89.5" y="179.9004">id(String): Builder</text><ellipse cx="80.5" cy="190.1982" fill="#84BE84" rx="3" ry="3" style="stroke: #038048; stroke-width: 1.0;"/><text fill="#000000" font-family="sans-serif" font-size="11" lengthAdjust="spacingAndGlyphs" textLength="166" x="89.5" y="192.8555">extension(Extension...): Builder</text><ellipse cx="80.5" cy="203.1533" fill="#84BE84" rx="3" ry="3" style="stroke: #038048; stroke-width: 1.0;"/><text fill="#000000" font-family="sans-serif" font-size="11" lengthAdjust="spacingAndGlyphs" textLength="229" x="89.5" y="205.8105">extension(Collection&lt;Extension&gt;): Builder</text><ellipse cx="80.5" cy="216.1084" fill="#84BE84" rx="3" ry="3" style="stroke: #038048; stroke-width: 1.0;"/><text fill="#000000" font-family="sans-serif" font-size="11" lengthAdjust="spacingAndGlyphs" textLength="211" x="89.5" y="218.7656">modifierExtension(Extension...): Builder</text><ellipse cx="80.5" cy="229.0635" fill="#84BE84" rx="3" ry="3" style="stroke: #038048; stroke-width: 1.0;"/><text fill="#000000" font-family="sans-serif" font-size="11" lengthAdjust="spacingAndGlyphs" textLength="274" x="89.5" y="231.7207">modifierExtension(Collection&lt;Extension&gt;): Builder</text><ellipse cx="80.5" cy="242.0186" fill="#84BE84" rx="3" ry="3" style="stroke: #038048; stroke-width: 1.0;"/><text fill="#000000" font-family="sans-serif" font-size="11" lengthAdjust="spacingAndGlyphs" textLength="196" x="89.5" y="244.6758">summary(CodeableConcept): Builder</text><ellipse cx="80.5" cy="254.9736" fill="#84BE84" rx="3" ry="3" style="stroke: #038048; stroke-width: 1.0;"/><text fill="#000000" font-family="sans-serif" font-size="11" lengthAdjust="spacingAndGlyphs" textLength="176" x="89.5" y="257.6309">assessment(Reference...): Builder</text><ellipse cx="80.5" cy="267.9287" fill="#84BE84" rx="3" ry="3" style="stroke: #038048; stroke-width: 1.0;"/><text fill="#000000" font-family="sans-serif" font-size="11" lengthAdjust="spacingAndGlyphs" textLength="239" x="89.5" y="270.5859">assessment(Collection&lt;Reference&gt;): Builder</text><ellipse cx="80.5" cy="280.8838" fill="#84BE84" rx="3" ry="3" style="stroke: #038048; stroke-width: 1.0;"/><text fill="#000000" font-family="sans-serif" font-size="11" lengthAdjust="spacingAndGlyphs" textLength="169" x="89.5" y="283.541">type(CodeableConcept): Builder</text><ellipse cx="80.5" cy="293.8389" fill="#84BE84" rx="3" ry="3" style="stroke: #038048; stroke-width: 1.0;"/><text fill="#000000" font-family="sans-serif" font-size="11" lengthAdjust="spacingAndGlyphs" textLength="70" x="89.5" y="296.4961">build(): Stage</text><polygon fill="#FFFF44" points="80.5,301.7939,84.5,305.7939,80.5,309.7939,76.5,305.7939" style="stroke: #B38D22; stroke-width: 1.0;"/><text fill="#000000" font-family="sans-serif" font-size="11" lengthAdjust="spacingAndGlyphs" textLength="106" x="89.5" y="309.4512">from(Stage): Builder</text></a><!--class com.ibm.fhir.model.type.BackboneElement.Builder--><a href="../type/BackboneElement.Builder.html" target="_top" xlink:actuate="onRequest" xlink:show="new" xlink:title="../type/BackboneElement.Builder.html" xlink:type="simple"><rect fill="#FEFECE" filter="url(#f1cndusf25biy5)" height="59.2207" id="com.ibm.fhir.model.type.BackboneElement.Builder" style="stroke: #A80036; stroke-width: 1.5;" width="205" x="6" y="8"/><ellipse cx="21" cy="27.1328" fill="#A9DCDF" rx="11" ry="11" style="stroke: #A80036; stroke-width: 1.0;"/><path d="M21.1133,22.731 L19.9595,27.8027 L22.2754,27.8027 Z M19.6191,20.4897 L22.6157,20.4897 L25.9609,32.8828 L23.5122,32.8828 L22.7485,29.8198 L19.4697,29.8198 L18.7227,32.8828 L16.2739,32.8828 Z "/><text fill="#000000" font-family="sans-serif" font-size="14" font-style="italic" lengthAdjust="spacingAndGlyphs" textLength="173" x="35" y="26.5352">BackboneElement.Builder</text><text fill="#000000" font-family="sans-serif" font-size="10" font-style="italic" lengthAdjust="spacingAndGlyphs" textLength="118" x="62.5" y="39.1563">com.ibm.fhir.model.type</text><line style="stroke: #A80036; stroke-width: 1.5;" x1="7" x2="210" y1="46.2656" y2="46.2656"/><ellipse cx="17" cy="58.2432" fill="#84BE84" rx="3" ry="3" style="stroke: #038048; stroke-width: 1.0;"/><text fill="#000000" font-family="sans-serif" font-size="11" font-style="italic" lengthAdjust="spacingAndGlyphs" textLength="134" x="26" y="60.9004">build(): BackboneElement</text></a><!--class com.ibm.fhir.model.resource.Condition.Stage--><a href="Condition.Stage.html" target="_top" xlink:actuate="onRequest" xlink:show="new" xlink:title="Condition.Stage.html" xlink:type="simple"><rect fill="#FEFECE" filter="url(#f1cndusf25biy5)" height="38.2656" id="com.ibm.fhir.model.resource.Condition.Stage" style="stroke: #A80036; stroke-width: 1.5;" width="171" x="246" y="18.5"/><ellipse cx="261" cy="37.6328" fill="#ADD1B2" rx="11" ry="11" style="stroke: #A80036; stroke-width: 1.0;"/><path d="M263.4731,43.7759 Q262.8921,44.0747 262.2529,44.2241 Q261.6138,44.3735 260.9082,44.3735 Q258.4014,44.3735 257.0815,42.7217 Q255.7617,41.0698 255.7617,37.9487 Q255.7617,34.8193 257.0815,33.1675 Q258.4014,31.5156 260.9082,31.5156 Q261.6138,31.5156 262.2612,31.665 Q262.9087,31.8145 263.4731,32.1133 L263.4731,34.8359 Q262.8423,34.2549 262.2488,33.9851 Q261.6553,33.7153 261.0244,33.7153 Q259.6797,33.7153 258.9949,34.782 Q258.3101,35.8486 258.3101,37.9487 Q258.3101,40.0405 258.9949,41.1072 Q259.6797,42.1738 261.0244,42.1738 Q261.6553,42.1738 262.2488,41.9041 Q262.8423,41.6343 263.4731,41.0532 Z "/><text fill="#000000" font-family="sans-serif" font-size="14" lengthAdjust="spacingAndGlyphs" textLength="110" x="289.5" y="37.0352">Condition.Stage</text><text fill="#000000" font-family="sans-serif" font-size="10" lengthAdjust="spacingAndGlyphs" textLength="139" x="275" y="49.6563">com.ibm.fhir.model.resource</text></a><!--link com.ibm.fhir.model.type.BackboneElement.Builder to com.ibm.fhir.model.resource.Condition.Stage.Builder--><path d="M136.7153,84.2714 C144.5852,97.317 153.4295,111.9777 162.3311,126.7335 " fill="none" id="com.ibm.fhir.model.type.BackboneElement.Builder-com.ibm.fhir.model.resource.Condition.Stage.Builder" style="stroke: #A80036; stroke-width: 1.0;"/><polygon fill="none" points="130.6712,87.8038,126.3341,67.0628,142.6589,80.5721,130.6712,87.8038" style="stroke: #A80036; stroke-width: 1.0;"/><!--link com.ibm.fhir.model.resource.Condition.Stage to com.ibm.fhir.model.resource.Condition.Stage.Builder--><path d="M311.8675,69.7534 C302.0908,85.8152 289.708,106.1583 277.2115,126.6882 " fill="none" id="com.ibm.fhir.model.resource.Condition.Stage-com.ibm.fhir.model.resource.Condition.Stage.Builder" style="stroke: #A80036; stroke-width: 1.0;"/><ellipse cx="315.5661" cy="63.6771" fill="#FFFFFF" rx="8" ry="8" style="stroke: #A80036; stroke-width: 1.0;"/><line style="stroke: #A80036; stroke-width: 1.0;" x1="311.4065" x2="319.7257" y1="70.5106" y2="56.8435"/><line style="stroke: #A80036; stroke-width: 1.0;" x1="308.7325" x2="322.3997" y1="59.5175" y2="67.8367"/><text fill="#888888" font-family="sans-serif" font-size="10" lengthAdjust="spacingAndGlyphs" textLength="182" x="126.5" y="335.668">UMLDoclet 2.0.5, PlantUML 1.2019.08</text><!--
@startuml
    set namespaceSeparator none
    hide empty fields
    hide empty methods

    class "<size:14>Condition.Stage.Builder\n<size:10>com.ibm.fhir.model.resource" as com.ibm.fhir.model.resource.Condition.Stage.Builder [[Condition.Stage.Builder.html]] {
        +id(String): Builder
        +extension(Extension...): Builder
        +extension(Collection<Extension>): Builder
        +modifierExtension(Extension...): Builder
        +modifierExtension(Collection<Extension>): Builder
        +summary(CodeableConcept): Builder
        +assessment(Reference...): Builder
        +assessment(Collection<Reference>): Builder
        +type(CodeableConcept): Builder
        +build(): Stage
        #from(Stage): Builder
    }

    abstract class "<size:14>BackboneElement.Builder\n<size:10>com.ibm.fhir.model.type" as com.ibm.fhir.model.type.BackboneElement.Builder [[../type/BackboneElement.Builder.html]] {
        {abstract} +build(): BackboneElement
    }
    class "<size:14>Condition.Stage\n<size:10>com.ibm.fhir.model.resource" as com.ibm.fhir.model.resource.Condition.Stage [[Condition.Stage.html]]

    com.ibm.fhir.model.type.BackboneElement.Builder <|- - com.ibm.fhir.model.resource.Condition.Stage.Builder
    com.ibm.fhir.model.resource.Condition.Stage +- - com.ibm.fhir.model.resource.Condition.Stage.Builder

    center footer UMLDoclet 2.0.5, PlantUML 1.2019.08
@enduml

PlantUML version 1.2019.08(Sat Jul 13 15:25:14 EDT 2019)
(APACHE source distribution)
Java Runtime: OpenJDK Runtime Environment
JVM: OpenJDK 64-Bit Server VM
Java Version: 11.0.4+11
Operating System: Mac OS X
OS Version: 10.14.6
Default Encoding: UTF-8
Language: en
Country: US
--></g></svg>