<?xml version="1.0" encoding="UTF-8" standalone="no"?><svg xmlns="http://www.w3.org/2000/svg" xmlns:xlink="http://www.w3.org/1999/xlink" contentScriptType="application/ecmascript" contentStyleType="text/css" height="310px" preserveAspectRatio="none" style="width:482px;height:310px;" version="1.1" viewBox="0 0 482 310" width="482px" zoomAndPan="magnify"><defs><filter height="300%" id="f1c3drgxu30hav" width="300%" x="-1" y="-1"><feGaussianBlur result="blurOut" stdDeviation="2.0"/><feColorMatrix in="blurOut" result="blurOut2" type="matrix" values="0 0 0 0 0 0 0 0 0 0 0 0 0 0 0 0 0 0 .4 0"/><feOffset dx="4.0" dy="4.0" in="blurOut2" result="blurOut3"/><feBlend in="SourceGraphic" in2="blurOut3" mode="normal"/></filter></defs><g><!--class com.ibm.fhir.model.resource.Contract.Term.Offer.Answer.Builder--><a href="Contract.Term.Offer.Answer.Builder.html" target="_top" xlink:actuate="onRequest" xlink:show="new" xlink:title="Contract.Term.Offer.Answer.Builder.html" xlink:type="simple"><rect fill="#FEFECE" filter="url(#f1c3drgxu30hav)" height="149.9063" id="com.ibm.fhir.model.resource.Contract.Term.Offer.Answer.Builder" style="stroke: #A80036; stroke-width: 1.5;" width="300" x="83.5" y="127"/><ellipse cx="108.85" cy="146.1328" fill="#ADD1B2" rx="11" ry="11" style="stroke: #A80036; stroke-width: 1.0;"/><path d="M111.3231,152.2759 Q110.7421,152.5747 110.1029,152.7241 Q109.4638,152.8735 108.7582,152.8735 Q106.2514,152.8735 104.9315,151.2217 Q103.6117,149.5698 103.6117,146.4487 Q103.6117,143.3193 104.9315,141.6675 Q106.2514,140.0156 108.7582,140.0156 Q109.4638,140.0156 110.1112,140.165 Q110.7587,140.3145 111.3231,140.6133 L111.3231,143.3359 Q110.6923,142.7549 110.0988,142.4851 Q109.5053,142.2153 108.8744,142.2153 Q107.5297,142.2153 106.8449,143.282 Q106.1601,144.3486 106.1601,146.4487 Q106.1601,148.5405 106.8449,149.6072 Q107.5297,150.6738 108.8744,150.6738 Q109.5053,150.6738 110.0988,150.4041 Q110.6923,150.1343 111.3231,149.5532 Z "/><text fill="#000000" font-family="sans-serif" font-size="14" lengthAdjust="spacingAndGlyphs" textLength="245" x="125.15" y="145.5352">Contract.Term.Offer.Answer.Builder</text><text fill="#000000" font-family="sans-serif" font-size="10" lengthAdjust="spacingAndGlyphs" textLength="139" x="178.15" y="158.1563">com.ibm.fhir.model.resource</text><line style="stroke: #A80036; stroke-width: 1.5;" x1="84.5" x2="382.5" y1="165.2656" y2="165.2656"/><ellipse cx="94.5" cy="177.2432" fill="#84BE84" rx="3" ry="3" style="stroke: #038048; stroke-width: 1.0;"/><text fill="#000000" font-family="sans-serif" font-size="11" lengthAdjust="spacingAndGlyphs" textLength="93" x="103.5" y="179.9004">id(String): Builder</text><ellipse cx="94.5" cy="190.1982" fill="#84BE84" rx="3" ry="3" style="stroke: #038048; stroke-width: 1.0;"/><text fill="#000000" font-family="sans-serif" font-size="11" lengthAdjust="spacingAndGlyphs" textLength="166" x="103.5" y="192.8555">extension(Extension...): Builder</text><ellipse cx="94.5" cy="203.1533" fill="#84BE84" rx="3" ry="3" style="stroke: #038048; stroke-width: 1.0;"/><text fill="#000000" font-family="sans-serif" font-size="11" lengthAdjust="spacingAndGlyphs" textLength="229" x="103.5" y="205.8105">extension(Collection&lt;Extension&gt;): Builder</text><ellipse cx="94.5" cy="216.1084" fill="#84BE84" rx="3" ry="3" style="stroke: #038048; stroke-width: 1.0;"/><text fill="#000000" font-family="sans-serif" font-size="11" lengthAdjust="spacingAndGlyphs" textLength="211" x="103.5" y="218.7656">modifierExtension(Extension...): Builder</text><ellipse cx="94.5" cy="229.0635" fill="#84BE84" rx="3" ry="3" style="stroke: #038048; stroke-width: 1.0;"/><text fill="#000000" font-family="sans-serif" font-size="11" lengthAdjust="spacingAndGlyphs" textLength="274" x="103.5" y="231.7207">modifierExtension(Collection&lt;Extension&gt;): Builder</text><ellipse cx="94.5" cy="242.0186" fill="#84BE84" rx="3" ry="3" style="stroke: #038048; stroke-width: 1.0;"/><text fill="#000000" font-family="sans-serif" font-size="11" lengthAdjust="spacingAndGlyphs" textLength="121" x="103.5" y="244.6758">value(Element): Builder</text><ellipse cx="94.5" cy="254.9736" fill="#84BE84" rx="3" ry="3" style="stroke: #038048; stroke-width: 1.0;"/><text fill="#000000" font-family="sans-serif" font-size="11" lengthAdjust="spacingAndGlyphs" textLength="81" x="103.5" y="257.6309">build(): Answer</text><polygon fill="#FFFF44" points="94.5,262.9287,98.5,266.9287,94.5,270.9287,90.5,266.9287" style="stroke: #B38D22; stroke-width: 1.0;"/><text fill="#000000" font-family="sans-serif" font-size="11" lengthAdjust="spacingAndGlyphs" textLength="117" x="103.5" y="270.5859">from(Answer): Builder</text></a><!--class com.ibm.fhir.model.type.BackboneElement.Builder--><a href="../type/BackboneElement.Builder.html" target="_top" xlink:actuate="onRequest" xlink:show="new" xlink:title="../type/BackboneElement.Builder.html" xlink:type="simple"><rect fill="#FEFECE" filter="url(#f1c3drgxu30hav)" height="59.2207" id="com.ibm.fhir.model.type.BackboneElement.Builder" style="stroke: #A80036; stroke-width: 1.5;" width="205" x="6" y="8"/><ellipse cx="21" cy="27.1328" fill="#A9DCDF" rx="11" ry="11" style="stroke: #A80036; stroke-width: 1.0;"/><path d="M21.1133,22.731 L19.9595,27.8027 L22.2754,27.8027 Z M19.6191,20.4897 L22.6157,20.4897 L25.9609,32.8828 L23.5122,32.8828 L22.7485,29.8198 L19.4697,29.8198 L18.7227,32.8828 L16.2739,32.8828 Z "/><text fill="#000000" font-family="sans-serif" font-size="14" font-style="italic" lengthAdjust="spacingAndGlyphs" textLength="173" x="35" y="26.5352">BackboneElement.Builder</text><text fill="#000000" font-family="sans-serif" font-size="10" font-style="italic" lengthAdjust="spacingAndGlyphs" textLength="118" x="62.5" y="39.1563">com.ibm.fhir.model.type</text><line style="stroke: #A80036; stroke-width: 1.5;" x1="7" x2="210" y1="46.2656" y2="46.2656"/><ellipse cx="17" cy="58.2432" fill="#84BE84" rx="3" ry="3" style="stroke: #038048; stroke-width: 1.0;"/><text fill="#000000" font-family="sans-serif" font-size="11" font-style="italic" lengthAdjust="spacingAndGlyphs" textLength="134" x="26" y="60.9004">build(): BackboneElement</text></a><!--class com.ibm.fhir.model.resource.Contract.Term.Offer.Answer--><a href="Contract.Term.Offer.Answer.html" target="_top" xlink:actuate="onRequest" xlink:show="new" xlink:title="Contract.Term.Offer.Answer.html" xlink:type="simple"><rect fill="#FEFECE" filter="url(#f1c3drgxu30hav)" height="38.2656" id="com.ibm.fhir.model.resource.Contract.Term.Offer.Answer" style="stroke: #A80036; stroke-width: 1.5;" width="225" x="246" y="18.5"/><ellipse cx="261" cy="37.6328" fill="#ADD1B2" rx="11" ry="11" style="stroke: #A80036; stroke-width: 1.0;"/><path d="M263.4731,43.7759 Q262.8921,44.0747 262.2529,44.2241 Q261.6138,44.3735 260.9082,44.3735 Q258.4014,44.3735 257.0815,42.7217 Q255.7617,41.0698 255.7617,37.9487 Q255.7617,34.8193 257.0815,33.1675 Q258.4014,31.5156 260.9082,31.5156 Q261.6138,31.5156 262.2612,31.665 Q262.9087,31.8145 263.4731,32.1133 L263.4731,34.8359 Q262.8423,34.2549 262.2488,33.9851 Q261.6553,33.7153 261.0244,33.7153 Q259.6797,33.7153 258.9949,34.782 Q258.3101,35.8486 258.3101,37.9487 Q258.3101,40.0405 258.9949,41.1072 Q259.6797,42.1738 261.0244,42.1738 Q261.6553,42.1738 262.2488,41.9041 Q262.8423,41.6343 263.4731,41.0532 Z "/><text fill="#000000" font-family="sans-serif" font-size="14" lengthAdjust="spacingAndGlyphs" textLength="193" x="275" y="37.0352">Contract.Term.Offer.Answer</text><text fill="#000000" font-family="sans-serif" font-size="10" lengthAdjust="spacingAndGlyphs" textLength="139" x="302" y="49.6563">com.ibm.fhir.model.resource</text></a><!--link com.ibm.fhir.model.type.BackboneElement.Builder to com.ibm.fhir.model.resource.Contract.Term.Offer.Answer.Builder--><path d="M143.3681,83.3864 C153.6391,96.9031 165.1567,112.0602 176.4363,126.9041 " fill="none" id="com.ibm.fhir.model.type.BackboneElement.Builder-com.ibm.fhir.model.resource.Contract.Term.Offer.Answer.Builder" style="stroke: #A80036; stroke-width: 1.0;"/><polygon fill="none" points="137.6636,87.4491,131.1366,67.2897,148.8105,78.9787,137.6636,87.4491" style="stroke: #A80036; stroke-width: 1.0;"/><!--link com.ibm.fhir.model.resource.Contract.Term.Offer.Answer to com.ibm.fhir.model.resource.Contract.Term.Offer.Answer.Builder--><path d="M334.6835,68.8425 C322.1677,85.3134 306.2409,106.273 290.7477,126.6621 " fill="none" id="com.ibm.fhir.model.resource.Contract.Term.Offer.Answer-com.ibm.fhir.model.resource.Contract.Term.Offer.Answer.Builder" style="stroke: #A80036; stroke-width: 1.0;"/><ellipse cx="339.0761" cy="63.0619" fill="#FFFFFF" rx="8" ry="8" style="stroke: #A80036; stroke-width: 1.0;"/><line style="stroke: #A80036; stroke-width: 1.0;" x1="334.236" x2="343.9163" y1="69.4316" y2="56.6922"/><line style="stroke: #A80036; stroke-width: 1.0;" x1="332.7065" x2="345.4458" y1="58.2217" y2="67.902"/><text fill="#888888" font-family="sans-serif" font-size="10" lengthAdjust="spacingAndGlyphs" textLength="182" x="153.5" y="296.668">UMLDoclet 2.0.5, PlantUML 1.2019.08</text><!--
@startuml
    set namespaceSeparator none
    hide empty fields
    hide empty methods

    class "<size:14>Contract.Term.Offer.Answer.Builder\n<size:10>com.ibm.fhir.model.resource" as com.ibm.fhir.model.resource.Contract.Term.Offer.Answer.Builder [[Contract.Term.Offer.Answer.Builder.html]] {
        +id(String): Builder
        +extension(Extension...): Builder
        +extension(Collection<Extension>): Builder
        +modifierExtension(Extension...): Builder
        +modifierExtension(Collection<Extension>): Builder
        +value(Element): Builder
        +build(): Answer
        #from(Answer): Builder
    }

    abstract class "<size:14>BackboneElement.Builder\n<size:10>com.ibm.fhir.model.type" as com.ibm.fhir.model.type.BackboneElement.Builder [[../type/BackboneElement.Builder.html]] {
        {abstract} +build(): BackboneElement
    }
    class "<size:14>Contract.Term.Offer.Answer\n<size:10>com.ibm.fhir.model.resource" as com.ibm.fhir.model.resource.Contract.Term.Offer.Answer [[Contract.Term.Offer.Answer.html]]

    com.ibm.fhir.model.type.BackboneElement.Builder <|- - com.ibm.fhir.model.resource.Contract.Term.Offer.Answer.Builder
    com.ibm.fhir.model.resource.Contract.Term.Offer.Answer +- - com.ibm.fhir.model.resource.Contract.Term.Offer.Answer.Builder

    center footer UMLDoclet 2.0.5, PlantUML 1.2019.08
@enduml

PlantUML version 1.2019.08(Sat Jul 13 15:25:14 EDT 2019)
(APACHE source distribution)
Java Runtime: OpenJDK Runtime Environment
JVM: OpenJDK 64-Bit Server VM
Java Version: 11.0.4+11
Operating System: Mac OS X
OS Version: 10.14.6
Default Encoding: UTF-8
Language: en
Country: US
--></g></svg>