<?xml version="1.0" encoding="UTF-8" standalone="no"?><svg xmlns="http://www.w3.org/2000/svg" xmlns:xlink="http://www.w3.org/1999/xlink" contentScriptType="application/ecmascript" contentStyleType="text/css" height="434px" preserveAspectRatio="none" style="width:376px;height:434px;" version="1.1" viewBox="0 0 376 434" width="376px" zoomAndPan="magnify"><defs><filter height="300%" id="f1cqtinzs3679y" width="300%" x="-1" y="-1"><feGaussianBlur result="blurOut" stdDeviation="2.0"/><feColorMatrix in="blurOut" result="blurOut2" type="matrix" values="0 0 0 0 0 0 0 0 0 0 0 0 0 0 0 0 0 0 .4 0"/><feOffset dx="4.0" dy="4.0" in="blurOut2" result="blurOut3"/><feBlend in="SourceGraphic" in2="blurOut3" mode="normal"/></filter></defs><g><!--class com.ibm.fhir.model.resource.Contract.ContentDefinition--><a href="Contract.ContentDefinition.html" target="_top" xlink:actuate="onRequest" xlink:show="new" xlink:title="Contract.ContentDefinition.html" xlink:type="simple"><rect fill="#FEFECE" filter="url(#f1cqtinzs3679y)" height="175.8164" id="com.ibm.fhir.model.resource.Contract.ContentDefinition" style="stroke: #A80036; stroke-width: 1.5;" width="288" x="36.5" y="127"/><ellipse cx="83.75" cy="146.1328" fill="#ADD1B2" rx="11" ry="11" style="stroke: #A80036; stroke-width: 1.0;"/><path d="M86.2231,152.2759 Q85.6421,152.5747 85.0029,152.7241 Q84.3638,152.8735 83.6582,152.8735 Q81.1514,152.8735 79.8315,151.2217 Q78.5117,149.5698 78.5117,146.4487 Q78.5117,143.3193 79.8315,141.6675 Q81.1514,140.0156 83.6582,140.0156 Q84.3638,140.0156 85.0112,140.165 Q85.6587,140.3145 86.2231,140.6133 L86.2231,143.3359 Q85.5923,142.7549 84.9988,142.4851 Q84.4053,142.2153 83.7744,142.2153 Q82.4297,142.2153 81.7449,143.282 Q81.0601,144.3486 81.0601,146.4487 Q81.0601,148.5405 81.7449,149.6072 Q82.4297,150.6738 83.7744,150.6738 Q84.4053,150.6738 84.9988,150.4041 Q85.5923,150.1343 86.2231,149.5532 Z "/><text fill="#000000" font-family="sans-serif" font-size="14" lengthAdjust="spacingAndGlyphs" textLength="185" x="104.25" y="145.5352">Contract.ContentDefinition</text><text fill="#000000" font-family="sans-serif" font-size="10" lengthAdjust="spacingAndGlyphs" textLength="139" x="127.25" y="158.1563">com.ibm.fhir.model.resource</text><line style="stroke: #A80036; stroke-width: 1.5;" x1="37.5" x2="323.5" y1="165.2656" y2="165.2656"/><ellipse cx="47.5" cy="177.2432" fill="#84BE84" rx="3" ry="3" style="stroke: #038048; stroke-width: 1.0;"/><text fill="#000000" font-family="sans-serif" font-size="11" lengthAdjust="spacingAndGlyphs" textLength="152" x="56.5" y="179.9004">getType(): CodeableConcept</text><ellipse cx="47.5" cy="190.1982" fill="#84BE84" rx="3" ry="3" style="stroke: #038048; stroke-width: 1.0;"/><text fill="#000000" font-family="sans-serif" font-size="11" lengthAdjust="spacingAndGlyphs" textLength="172" x="56.5" y="192.8555">getSubType(): CodeableConcept</text><ellipse cx="47.5" cy="203.1533" fill="#84BE84" rx="3" ry="3" style="stroke: #038048; stroke-width: 1.0;"/><text fill="#000000" font-family="sans-serif" font-size="11" lengthAdjust="spacingAndGlyphs" textLength="134" x="56.5" y="205.8105">getPublisher(): Reference</text><ellipse cx="47.5" cy="216.1084" fill="#84BE84" rx="3" ry="3" style="stroke: #038048; stroke-width: 1.0;"/><text fill="#000000" font-family="sans-serif" font-size="11" lengthAdjust="spacingAndGlyphs" textLength="164" x="56.5" y="218.7656">getPublicationDate(): DateTime</text><ellipse cx="47.5" cy="229.0635" fill="#84BE84" rx="3" ry="3" style="stroke: #038048; stroke-width: 1.0;"/><text fill="#000000" font-family="sans-serif" font-size="11" lengthAdjust="spacingAndGlyphs" textLength="262" x="56.5" y="231.7207">getPublicationStatus(): ContractPublicationStatus</text><ellipse cx="47.5" cy="242.0186" fill="#84BE84" rx="3" ry="3" style="stroke: #038048; stroke-width: 1.0;"/><text fill="#000000" font-family="sans-serif" font-size="11" lengthAdjust="spacingAndGlyphs" textLength="140" x="56.5" y="244.6758">getCopyright(): Markdown</text><ellipse cx="47.5" cy="254.9736" fill="#84BE84" rx="3" ry="3" style="stroke: #038048; stroke-width: 1.0;"/><text fill="#000000" font-family="sans-serif" font-size="11" lengthAdjust="spacingAndGlyphs" textLength="122" x="56.5" y="257.6309">hasChildren(): boolean</text><ellipse cx="47.5" cy="267.9287" fill="#84BE84" rx="3" ry="3" style="stroke: #038048; stroke-width: 1.0;"/><text fill="#000000" font-family="sans-serif" font-size="11" lengthAdjust="spacingAndGlyphs" textLength="165" x="56.5" y="270.5859">accept(String, int, Visitor): void</text><ellipse cx="47.5" cy="280.8838" fill="#84BE84" rx="3" ry="3" style="stroke: #038048; stroke-width: 1.0;"/><text fill="#000000" font-family="sans-serif" font-size="11" lengthAdjust="spacingAndGlyphs" textLength="99" x="56.5" y="283.541">toBuilder(): Builder</text><ellipse cx="47.5" cy="293.8389" fill="#84BE84" rx="3" ry="3" style="stroke: #038048; stroke-width: 1.0;"/><text fill="#000000" font-family="sans-serif" font-size="11" lengthAdjust="spacingAndGlyphs" text-decoration="underline" textLength="89" x="56.5" y="296.4961">builder(): Builder</text></a><!--class com.ibm.fhir.model.type.BackboneElement--><a href="../type/BackboneElement.html" target="_top" xlink:actuate="onRequest" xlink:show="new" xlink:title="../type/BackboneElement.html" xlink:type="simple"><rect fill="#FEFECE" filter="url(#f1cqtinzs3679y)" height="59.2207" id="com.ibm.fhir.model.type.BackboneElement" style="stroke: #A80036; stroke-width: 1.5;" width="153" x="6" y="8"/><ellipse cx="21" cy="27.1328" fill="#A9DCDF" rx="11" ry="11" style="stroke: #A80036; stroke-width: 1.0;"/><path d="M21.1133,22.731 L19.9595,27.8027 L22.2754,27.8027 Z M19.6191,20.4897 L22.6157,20.4897 L25.9609,32.8828 L23.5122,32.8828 L22.7485,29.8198 L19.4697,29.8198 L18.7227,32.8828 L16.2739,32.8828 Z "/><text fill="#000000" font-family="sans-serif" font-size="14" font-style="italic" lengthAdjust="spacingAndGlyphs" textLength="121" x="35" y="26.5352">BackboneElement</text><text fill="#000000" font-family="sans-serif" font-size="10" font-style="italic" lengthAdjust="spacingAndGlyphs" textLength="118" x="36.5" y="39.1563">com.ibm.fhir.model.type</text><line style="stroke: #A80036; stroke-width: 1.5;" x1="7" x2="158" y1="46.2656" y2="46.2656"/><ellipse cx="17" cy="58.2432" fill="#84BE84" rx="3" ry="3" style="stroke: #038048; stroke-width: 1.0;"/><text fill="#000000" font-family="sans-serif" font-size="11" font-style="italic" lengthAdjust="spacingAndGlyphs" textLength="99" x="26" y="60.9004">toBuilder(): Builder</text></a><!--class com.ibm.fhir.model.resource.Contract--><a href="Contract.html" target="_top" xlink:actuate="onRequest" xlink:show="new" xlink:title="Contract.html" xlink:type="simple"><rect fill="#FEFECE" filter="url(#f1cqtinzs3679y)" height="38.2656" id="com.ibm.fhir.model.resource.Contract" style="stroke: #A80036; stroke-width: 1.5;" width="171" x="194" y="18.5"/><ellipse cx="209" cy="37.6328" fill="#ADD1B2" rx="11" ry="11" style="stroke: #A80036; stroke-width: 1.0;"/><path d="M211.4731,43.7759 Q210.8921,44.0747 210.2529,44.2241 Q209.6138,44.3735 208.9082,44.3735 Q206.4014,44.3735 205.0815,42.7217 Q203.7617,41.0698 203.7617,37.9487 Q203.7617,34.8193 205.0815,33.1675 Q206.4014,31.5156 208.9082,31.5156 Q209.6138,31.5156 210.2612,31.665 Q210.9087,31.8145 211.4731,32.1133 L211.4731,34.8359 Q210.8423,34.2549 210.2488,33.9851 Q209.6553,33.7153 209.0244,33.7153 Q207.6797,33.7153 206.9949,34.782 Q206.3101,35.8486 206.3101,37.9487 Q206.3101,40.0405 206.9949,41.1072 Q207.6797,42.1738 209.0244,42.1738 Q209.6553,42.1738 210.2488,41.9041 Q210.8423,41.6343 211.4731,41.0532 Z "/><text fill="#000000" font-family="sans-serif" font-size="14" lengthAdjust="spacingAndGlyphs" textLength="59" x="263" y="37.0352">Contract</text><text fill="#000000" font-family="sans-serif" font-size="10" lengthAdjust="spacingAndGlyphs" textLength="139" x="223" y="49.6563">com.ibm.fhir.model.resource</text></a><!--class com.ibm.fhir.model.resource.Contract.ContentDefinition.Builder--><a href="Contract.ContentDefinition.Builder.html" target="_top" xlink:actuate="onRequest" xlink:show="new" xlink:title="Contract.ContentDefinition.Builder.html" xlink:type="simple"><rect fill="#FEFECE" filter="url(#f1cqtinzs3679y)" height="38.2656" id="com.ibm.fhir.model.resource.Contract.ContentDefinition.Builder" style="stroke: #A80036; stroke-width: 1.5;" width="269" x="46" y="363"/><ellipse cx="61" cy="382.1328" fill="#ADD1B2" rx="11" ry="11" style="stroke: #A80036; stroke-width: 1.0;"/><path d="M63.4731,388.2759 Q62.8921,388.5747 62.2529,388.7241 Q61.6138,388.8735 60.9082,388.8735 Q58.4014,388.8735 57.0815,387.2217 Q55.7617,385.5698 55.7617,382.4487 Q55.7617,379.3193 57.0815,377.6675 Q58.4014,376.0156 60.9082,376.0156 Q61.6138,376.0156 62.2612,376.165 Q62.9087,376.3145 63.4731,376.6133 L63.4731,379.3359 Q62.8423,378.7549 62.2488,378.4851 Q61.6553,378.2153 61.0244,378.2153 Q59.6797,378.2153 58.9949,379.282 Q58.3101,380.3486 58.3101,382.4487 Q58.3101,384.5405 58.9949,385.6072 Q59.6797,386.6738 61.0244,386.6738 Q61.6553,386.6738 62.2488,386.4041 Q62.8423,386.1343 63.4731,385.5532 Z "/><text fill="#000000" font-family="sans-serif" font-size="14" lengthAdjust="spacingAndGlyphs" textLength="237" x="75" y="381.5352">Contract.ContentDefinition.Builder</text><text fill="#000000" font-family="sans-serif" font-size="10" lengthAdjust="spacingAndGlyphs" textLength="139" x="124" y="394.1563">com.ibm.fhir.model.resource</text></a><!--link com.ibm.fhir.model.type.BackboneElement to com.ibm.fhir.model.resource.Contract.ContentDefinition--><path d="M108.7121,84.976 C115.8841,97.9662 123.8941,112.4741 131.8903,126.9569 " fill="none" id="com.ibm.fhir.model.type.BackboneElement-com.ibm.fhir.model.resource.Contract.ContentDefinition" style="stroke: #A80036; stroke-width: 1.0;"/><polygon fill="none" points="102.4418,88.1016,98.903,67.2095,114.6978,81.3348,102.4418,88.1016" style="stroke: #A80036; stroke-width: 1.0;"/><!--link com.ibm.fhir.model.resource.Contract to com.ibm.fhir.model.resource.Contract.ContentDefinition--><path d="M261.2068,70.2984 C252.2526,86.3527 240.9976,106.532 229.7592,126.6817 " fill="none" id="com.ibm.fhir.model.resource.Contract-com.ibm.fhir.model.resource.Contract.ContentDefinition" style="stroke: #A80036; stroke-width: 1.0;"/><ellipse cx="264.82" cy="63.8202" fill="#FFFFFF" rx="8" ry="8" style="stroke: #A80036; stroke-width: 1.0;"/><line style="stroke: #A80036; stroke-width: 1.0;" x1="260.9231" x2="268.7168" y1="70.807" y2="56.8335"/><line style="stroke: #A80036; stroke-width: 1.0;" x1="257.8332" x2="271.8067" y1="59.9234" y2="67.7171"/><!--link com.ibm.fhir.model.resource.Contract.ContentDefinition to com.ibm.fhir.model.resource.Contract.ContentDefinition.Builder--><path d="M180.5,318.5552 C180.5,335.5539 180.5,351.3741 180.5,362.965 " fill="none" id="com.ibm.fhir.model.resource.Contract.ContentDefinition-com.ibm.fhir.model.resource.Contract.ContentDefinition.Builder" style="stroke: #A80036; stroke-width: 1.0;"/><ellipse cx="180.5" cy="311.3901" fill="#FFFFFF" rx="8" ry="8" style="stroke: #A80036; stroke-width: 1.0;"/><line style="stroke: #A80036; stroke-width: 1.0;" x1="180.5" x2="180.5" y1="319.3901" y2="303.3901"/><line style="stroke: #A80036; stroke-width: 1.0;" x1="172.5" x2="188.5" y1="311.3901" y2="311.3901"/><text fill="#888888" font-family="sans-serif" font-size="10" lengthAdjust="spacingAndGlyphs" textLength="182" x="100.5" y="420.668">UMLDoclet 2.0.5, PlantUML 1.2019.08</text><!--
@startuml
    set namespaceSeparator none
    hide empty fields
    hide empty methods

    class "<size:14>Contract.ContentDefinition\n<size:10>com.ibm.fhir.model.resource" as com.ibm.fhir.model.resource.Contract.ContentDefinition [[Contract.ContentDefinition.html]] {
        +getType(): CodeableConcept
        +getSubType(): CodeableConcept
        +getPublisher(): Reference
        +getPublicationDate(): DateTime
        +getPublicationStatus(): ContractPublicationStatus
        +getCopyright(): Markdown
        +hasChildren(): boolean
        +accept(String, int, Visitor): void
        +toBuilder(): Builder
        {static} +builder(): Builder
    }

    abstract class "<size:14>BackboneElement\n<size:10>com.ibm.fhir.model.type" as com.ibm.fhir.model.type.BackboneElement [[../type/BackboneElement.html]] {
        {abstract} +toBuilder(): Builder
    }
    class "<size:14>Contract\n<size:10>com.ibm.fhir.model.resource" as com.ibm.fhir.model.resource.Contract [[Contract.html]]
    class "<size:14>Contract.ContentDefinition.Builder\n<size:10>com.ibm.fhir.model.resource" as com.ibm.fhir.model.resource.Contract.ContentDefinition.Builder [[Contract.ContentDefinition.Builder.html]]

    com.ibm.fhir.model.type.BackboneElement <|- - com.ibm.fhir.model.resource.Contract.ContentDefinition
    com.ibm.fhir.model.resource.Contract +- - com.ibm.fhir.model.resource.Contract.ContentDefinition
    com.ibm.fhir.model.resource.Contract.ContentDefinition +- - com.ibm.fhir.model.resource.Contract.ContentDefinition.Builder

    center footer UMLDoclet 2.0.5, PlantUML 1.2019.08
@enduml

PlantUML version 1.2019.08(Sat Jul 13 15:25:14 EDT 2019)
(APACHE source distribution)
Java Runtime: OpenJDK Runtime Environment
JVM: OpenJDK 64-Bit Server VM
Java Version: 11.0.4+11
Operating System: Mac OS X
OS Version: 10.14.6
Default Encoding: UTF-8
Language: en
Country: US
--></g></svg>