<?xml version="1.0" encoding="UTF-8" standalone="no"?><svg xmlns="http://www.w3.org/2000/svg" xmlns:xlink="http://www.w3.org/1999/xlink" contentScriptType="application/ecmascript" contentStyleType="text/css" height="310px" preserveAspectRatio="none" style="width:428px;height:310px;" version="1.1" viewBox="0 0 428 310" width="428px" zoomAndPan="magnify"><defs><filter height="300%" id="f1mvai6o3xeqng" width="300%" x="-1" y="-1"><feGaussianBlur result="blurOut" stdDeviation="2.0"/><feColorMatrix in="blurOut" result="blurOut2" type="matrix" values="0 0 0 0 0 0 0 0 0 0 0 0 0 0 0 0 0 0 .4 0"/><feOffset dx="4.0" dy="4.0" in="blurOut2" result="blurOut3"/><feBlend in="SourceGraphic" in2="blurOut3" mode="normal"/></filter></defs><g><!--class com.ibm.fhir.model.resource.Contract.Friendly.Builder--><a href="Contract.Friendly.Builder.html" target="_top" xlink:actuate="onRequest" xlink:show="new" xlink:title="Contract.Friendly.Builder.html" xlink:type="simple"><rect fill="#FEFECE" filter="url(#f1mvai6o3xeqng)" height="149.9063" id="com.ibm.fhir.model.resource.Contract.Friendly.Builder" style="stroke: #A80036; stroke-width: 1.5;" width="300" x="69.5" y="127"/><ellipse cx="130.25" cy="146.1328" fill="#ADD1B2" rx="11" ry="11" style="stroke: #A80036; stroke-width: 1.0;"/><path d="M132.7231,152.2759 Q132.1421,152.5747 131.5029,152.7241 Q130.8638,152.8735 130.1582,152.8735 Q127.6514,152.8735 126.3315,151.2217 Q125.0117,149.5698 125.0117,146.4487 Q125.0117,143.3193 126.3315,141.6675 Q127.6514,140.0156 130.1582,140.0156 Q130.8638,140.0156 131.5112,140.165 Q132.1587,140.3145 132.7231,140.6133 L132.7231,143.3359 Q132.0923,142.7549 131.4988,142.4851 Q130.9053,142.2153 130.2744,142.2153 Q128.9297,142.2153 128.2449,143.282 Q127.5601,144.3486 127.5601,146.4487 Q127.5601,148.5405 128.2449,149.6072 Q128.9297,150.6738 130.2744,150.6738 Q130.9053,150.6738 131.4988,150.4041 Q132.0923,150.1343 132.7231,149.5532 Z "/><text fill="#000000" font-family="sans-serif" font-size="14" lengthAdjust="spacingAndGlyphs" textLength="170" x="150.75" y="145.5352">Contract.Friendly.Builder</text><text fill="#000000" font-family="sans-serif" font-size="10" lengthAdjust="spacingAndGlyphs" textLength="139" x="166.25" y="158.1563">com.ibm.fhir.model.resource</text><line style="stroke: #A80036; stroke-width: 1.5;" x1="70.5" x2="368.5" y1="165.2656" y2="165.2656"/><ellipse cx="80.5" cy="177.2432" fill="#84BE84" rx="3" ry="3" style="stroke: #038048; stroke-width: 1.0;"/><text fill="#000000" font-family="sans-serif" font-size="11" lengthAdjust="spacingAndGlyphs" textLength="93" x="89.5" y="179.9004">id(String): Builder</text><ellipse cx="80.5" cy="190.1982" fill="#84BE84" rx="3" ry="3" style="stroke: #038048; stroke-width: 1.0;"/><text fill="#000000" font-family="sans-serif" font-size="11" lengthAdjust="spacingAndGlyphs" textLength="166" x="89.5" y="192.8555">extension(Extension...): Builder</text><ellipse cx="80.5" cy="203.1533" fill="#84BE84" rx="3" ry="3" style="stroke: #038048; stroke-width: 1.0;"/><text fill="#000000" font-family="sans-serif" font-size="11" lengthAdjust="spacingAndGlyphs" textLength="229" x="89.5" y="205.8105">extension(Collection&lt;Extension&gt;): Builder</text><ellipse cx="80.5" cy="216.1084" fill="#84BE84" rx="3" ry="3" style="stroke: #038048; stroke-width: 1.0;"/><text fill="#000000" font-family="sans-serif" font-size="11" lengthAdjust="spacingAndGlyphs" textLength="211" x="89.5" y="218.7656">modifierExtension(Extension...): Builder</text><ellipse cx="80.5" cy="229.0635" fill="#84BE84" rx="3" ry="3" style="stroke: #038048; stroke-width: 1.0;"/><text fill="#000000" font-family="sans-serif" font-size="11" lengthAdjust="spacingAndGlyphs" textLength="274" x="89.5" y="231.7207">modifierExtension(Collection&lt;Extension&gt;): Builder</text><ellipse cx="80.5" cy="242.0186" fill="#84BE84" rx="3" ry="3" style="stroke: #038048; stroke-width: 1.0;"/><text fill="#000000" font-family="sans-serif" font-size="11" lengthAdjust="spacingAndGlyphs" textLength="134" x="89.5" y="244.6758">content(Element): Builder</text><ellipse cx="80.5" cy="254.9736" fill="#84BE84" rx="3" ry="3" style="stroke: #038048; stroke-width: 1.0;"/><text fill="#000000" font-family="sans-serif" font-size="11" lengthAdjust="spacingAndGlyphs" textLength="84" x="89.5" y="257.6309">build(): Friendly</text><polygon fill="#FFFF44" points="80.5,262.9287,84.5,266.9287,80.5,270.9287,76.5,266.9287" style="stroke: #B38D22; stroke-width: 1.0;"/><text fill="#000000" font-family="sans-serif" font-size="11" lengthAdjust="spacingAndGlyphs" textLength="120" x="89.5" y="270.5859">from(Friendly): Builder</text></a><!--class com.ibm.fhir.model.type.BackboneElement.Builder--><a href="../type/BackboneElement.Builder.html" target="_top" xlink:actuate="onRequest" xlink:show="new" xlink:title="../type/BackboneElement.Builder.html" xlink:type="simple"><rect fill="#FEFECE" filter="url(#f1mvai6o3xeqng)" height="59.2207" id="com.ibm.fhir.model.type.BackboneElement.Builder" style="stroke: #A80036; stroke-width: 1.5;" width="205" x="6" y="8"/><ellipse cx="21" cy="27.1328" fill="#A9DCDF" rx="11" ry="11" style="stroke: #A80036; stroke-width: 1.0;"/><path d="M21.1133,22.731 L19.9595,27.8027 L22.2754,27.8027 Z M19.6191,20.4897 L22.6157,20.4897 L25.9609,32.8828 L23.5122,32.8828 L22.7485,29.8198 L19.4697,29.8198 L18.7227,32.8828 L16.2739,32.8828 Z "/><text fill="#000000" font-family="sans-serif" font-size="14" font-style="italic" lengthAdjust="spacingAndGlyphs" textLength="173" x="35" y="26.5352">BackboneElement.Builder</text><text fill="#000000" font-family="sans-serif" font-size="10" font-style="italic" lengthAdjust="spacingAndGlyphs" textLength="118" x="62.5" y="39.1563">com.ibm.fhir.model.type</text><line style="stroke: #A80036; stroke-width: 1.5;" x1="7" x2="210" y1="46.2656" y2="46.2656"/><ellipse cx="17" cy="58.2432" fill="#84BE84" rx="3" ry="3" style="stroke: #038048; stroke-width: 1.0;"/><text fill="#000000" font-family="sans-serif" font-size="11" font-style="italic" lengthAdjust="spacingAndGlyphs" textLength="134" x="26" y="60.9004">build(): BackboneElement</text></a><!--class com.ibm.fhir.model.resource.Contract.Friendly--><a href="Contract.Friendly.html" target="_top" xlink:actuate="onRequest" xlink:show="new" xlink:title="Contract.Friendly.html" xlink:type="simple"><rect fill="#FEFECE" filter="url(#f1mvai6o3xeqng)" height="38.2656" id="com.ibm.fhir.model.resource.Contract.Friendly" style="stroke: #A80036; stroke-width: 1.5;" width="171" x="246" y="18.5"/><ellipse cx="261" cy="37.6328" fill="#ADD1B2" rx="11" ry="11" style="stroke: #A80036; stroke-width: 1.0;"/><path d="M263.4731,43.7759 Q262.8921,44.0747 262.2529,44.2241 Q261.6138,44.3735 260.9082,44.3735 Q258.4014,44.3735 257.0815,42.7217 Q255.7617,41.0698 255.7617,37.9487 Q255.7617,34.8193 257.0815,33.1675 Q258.4014,31.5156 260.9082,31.5156 Q261.6138,31.5156 262.2612,31.665 Q262.9087,31.8145 263.4731,32.1133 L263.4731,34.8359 Q262.8423,34.2549 262.2488,33.9851 Q261.6553,33.7153 261.0244,33.7153 Q259.6797,33.7153 258.9949,34.782 Q258.3101,35.8486 258.3101,37.9487 Q258.3101,40.0405 258.9949,41.1072 Q259.6797,42.1738 261.0244,42.1738 Q261.6553,42.1738 262.2488,41.9041 Q262.8423,41.6343 263.4731,41.0532 Z "/><text fill="#000000" font-family="sans-serif" font-size="14" lengthAdjust="spacingAndGlyphs" textLength="118" x="285.5" y="37.0352">Contract.Friendly</text><text fill="#000000" font-family="sans-serif" font-size="10" lengthAdjust="spacingAndGlyphs" textLength="139" x="275" y="49.6563">com.ibm.fhir.model.resource</text></a><!--link com.ibm.fhir.model.type.BackboneElement.Builder to com.ibm.fhir.model.resource.Contract.Friendly.Builder--><path d="M140.0725,84.2899 C149.038,97.5766 159.0337,112.39 168.8274,126.9041 " fill="none" id="com.ibm.fhir.model.type.BackboneElement.Builder-com.ibm.fhir.model.resource.Contract.Friendly.Builder" style="stroke: #A80036; stroke-width: 1.0;"/><polygon fill="none" points="133.9856,87.7839,128.6013,67.2897,145.5907,79.953,133.9856,87.7839" style="stroke: #A80036; stroke-width: 1.0;"/><!--link com.ibm.fhir.model.resource.Contract.Friendly to com.ibm.fhir.model.resource.Contract.Friendly.Builder--><path d="M309.8264,69.333 C298.6637,85.7283 284.5384,106.4748 270.7939,126.6621 " fill="none" id="com.ibm.fhir.model.resource.Contract.Friendly-com.ibm.fhir.model.resource.Contract.Friendly.Builder" style="stroke: #A80036; stroke-width: 1.0;"/><ellipse cx="313.9306" cy="63.305" fill="#FFFFFF" rx="8" ry="8" style="stroke: #A80036; stroke-width: 1.0;"/><line style="stroke: #A80036; stroke-width: 1.0;" x1="309.4283" x2="318.433" y1="69.9177" y2="56.6922"/><line style="stroke: #A80036; stroke-width: 1.0;" x1="307.3179" x2="320.5434" y1="58.8026" y2="67.8073"/><text fill="#888888" font-family="sans-serif" font-size="10" lengthAdjust="spacingAndGlyphs" textLength="182" x="126.5" y="296.668">UMLDoclet 2.0.5, PlantUML 1.2019.08</text><!--
@startuml
    set namespaceSeparator none
    hide empty fields
    hide empty methods

    class "<size:14>Contract.Friendly.Builder\n<size:10>com.ibm.fhir.model.resource" as com.ibm.fhir.model.resource.Contract.Friendly.Builder [[Contract.Friendly.Builder.html]] {
        +id(String): Builder
        +extension(Extension...): Builder
        +extension(Collection<Extension>): Builder
        +modifierExtension(Extension...): Builder
        +modifierExtension(Collection<Extension>): Builder
        +content(Element): Builder
        +build(): Friendly
        #from(Friendly): Builder
    }

    abstract class "<size:14>BackboneElement.Builder\n<size:10>com.ibm.fhir.model.type" as com.ibm.fhir.model.type.BackboneElement.Builder [[../type/BackboneElement.Builder.html]] {
        {abstract} +build(): BackboneElement
    }
    class "<size:14>Contract.Friendly\n<size:10>com.ibm.fhir.model.resource" as com.ibm.fhir.model.resource.Contract.Friendly [[Contract.Friendly.html]]

    com.ibm.fhir.model.type.BackboneElement.Builder <|- - com.ibm.fhir.model.resource.Contract.Friendly.Builder
    com.ibm.fhir.model.resource.Contract.Friendly +- - com.ibm.fhir.model.resource.Contract.Friendly.Builder

    center footer UMLDoclet 2.0.5, PlantUML 1.2019.08
@enduml

PlantUML version 1.2019.08(Sat Jul 13 15:25:14 EDT 2019)
(APACHE source distribution)
Java Runtime: OpenJDK Runtime Environment
JVM: OpenJDK 64-Bit Server VM
Java Version: 11.0.4+11
Operating System: Mac OS X
OS Version: 10.14.6
Default Encoding: UTF-8
Language: en
Country: US
--></g></svg>