<?xml version="1.0" encoding="UTF-8" standalone="no"?><svg xmlns="http://www.w3.org/2000/svg" xmlns:xlink="http://www.w3.org/1999/xlink" contentScriptType="application/ecmascript" contentStyleType="text/css" height="395px" preserveAspectRatio="none" style="width:624px;height:395px;" version="1.1" viewBox="0 0 624 395" width="624px" zoomAndPan="magnify"><defs><filter height="300%" id="f50860cr31xgu" width="300%" x="-1" y="-1"><feGaussianBlur result="blurOut" stdDeviation="2.0"/><feColorMatrix in="blurOut" result="blurOut2" type="matrix" values="0 0 0 0 0 0 0 0 0 0 0 0 0 0 0 0 0 0 .4 0"/><feOffset dx="4.0" dy="4.0" in="blurOut2" result="blurOut3"/><feBlend in="SourceGraphic" in2="blurOut3" mode="normal"/></filter></defs><g><!--class com.ibm.fhir.model.resource.Coverage.CostToBeneficiary--><a href="Coverage.CostToBeneficiary.html" target="_top" xlink:actuate="onRequest" xlink:show="new" xlink:title="Coverage.CostToBeneficiary.html" xlink:type="simple"><rect fill="#FEFECE" filter="url(#f50860cr31xgu)" height="136.9512" id="com.ibm.fhir.model.resource.Coverage.CostToBeneficiary" style="stroke: #A80036; stroke-width: 1.5;" width="224" x="192" y="127"/><ellipse cx="207" cy="146.1328" fill="#ADD1B2" rx="11" ry="11" style="stroke: #A80036; stroke-width: 1.0;"/><path d="M209.4731,152.2759 Q208.8921,152.5747 208.2529,152.7241 Q207.6138,152.8735 206.9082,152.8735 Q204.4014,152.8735 203.0815,151.2217 Q201.7617,149.5698 201.7617,146.4487 Q201.7617,143.3193 203.0815,141.6675 Q204.4014,140.0156 206.9082,140.0156 Q207.6138,140.0156 208.2612,140.165 Q208.9087,140.3145 209.4731,140.6133 L209.4731,143.3359 Q208.8423,142.7549 208.2488,142.4851 Q207.6553,142.2153 207.0244,142.2153 Q205.6797,142.2153 204.9949,143.282 Q204.3101,144.3486 204.3101,146.4487 Q204.3101,148.5405 204.9949,149.6072 Q205.6797,150.6738 207.0244,150.6738 Q207.6553,150.6738 208.2488,150.4041 Q208.8423,150.1343 209.4731,149.5532 Z "/><text fill="#000000" font-family="sans-serif" font-size="14" lengthAdjust="spacingAndGlyphs" textLength="192" x="221" y="145.5352">Coverage.CostToBeneficiary</text><text fill="#000000" font-family="sans-serif" font-size="10" lengthAdjust="spacingAndGlyphs" textLength="139" x="247.5" y="158.1563">com.ibm.fhir.model.resource</text><line style="stroke: #A80036; stroke-width: 1.5;" x1="193" x2="415" y1="165.2656" y2="165.2656"/><ellipse cx="203" cy="177.2432" fill="#84BE84" rx="3" ry="3" style="stroke: #038048; stroke-width: 1.0;"/><text fill="#000000" font-family="sans-serif" font-size="11" lengthAdjust="spacingAndGlyphs" textLength="152" x="212" y="179.9004">getType(): CodeableConcept</text><ellipse cx="203" cy="190.1982" fill="#84BE84" rx="3" ry="3" style="stroke: #038048; stroke-width: 1.0;"/><text fill="#000000" font-family="sans-serif" font-size="11" lengthAdjust="spacingAndGlyphs" textLength="102" x="212" y="192.8555">getValue(): Element</text><ellipse cx="203" cy="203.1533" fill="#84BE84" rx="3" ry="3" style="stroke: #038048; stroke-width: 1.0;"/><text fill="#000000" font-family="sans-serif" font-size="11" lengthAdjust="spacingAndGlyphs" textLength="174" x="212" y="205.8105">getException(): List&lt;Exception&gt;</text><ellipse cx="203" cy="216.1084" fill="#84BE84" rx="3" ry="3" style="stroke: #038048; stroke-width: 1.0;"/><text fill="#000000" font-family="sans-serif" font-size="11" lengthAdjust="spacingAndGlyphs" textLength="122" x="212" y="218.7656">hasChildren(): boolean</text><ellipse cx="203" cy="229.0635" fill="#84BE84" rx="3" ry="3" style="stroke: #038048; stroke-width: 1.0;"/><text fill="#000000" font-family="sans-serif" font-size="11" lengthAdjust="spacingAndGlyphs" textLength="165" x="212" y="231.7207">accept(String, int, Visitor): void</text><ellipse cx="203" cy="242.0186" fill="#84BE84" rx="3" ry="3" style="stroke: #038048; stroke-width: 1.0;"/><text fill="#000000" font-family="sans-serif" font-size="11" lengthAdjust="spacingAndGlyphs" textLength="99" x="212" y="244.6758">toBuilder(): Builder</text><ellipse cx="203" cy="254.9736" fill="#84BE84" rx="3" ry="3" style="stroke: #038048; stroke-width: 1.0;"/><text fill="#000000" font-family="sans-serif" font-size="11" lengthAdjust="spacingAndGlyphs" text-decoration="underline" textLength="89" x="212" y="257.6309">builder(): Builder</text></a><!--class com.ibm.fhir.model.type.BackboneElement--><a href="../type/BackboneElement.html" target="_top" xlink:actuate="onRequest" xlink:show="new" xlink:title="../type/BackboneElement.html" xlink:type="simple"><rect fill="#FEFECE" filter="url(#f50860cr31xgu)" height="59.2207" id="com.ibm.fhir.model.type.BackboneElement" style="stroke: #A80036; stroke-width: 1.5;" width="153" x="129.5" y="8"/><ellipse cx="144.5" cy="27.1328" fill="#A9DCDF" rx="11" ry="11" style="stroke: #A80036; stroke-width: 1.0;"/><path d="M144.6133,22.731 L143.4595,27.8027 L145.7754,27.8027 Z M143.1191,20.4897 L146.1157,20.4897 L149.4609,32.8828 L147.0122,32.8828 L146.2485,29.8198 L142.9697,29.8198 L142.2227,32.8828 L139.7739,32.8828 Z "/><text fill="#000000" font-family="sans-serif" font-size="14" font-style="italic" lengthAdjust="spacingAndGlyphs" textLength="121" x="158.5" y="26.5352">BackboneElement</text><text fill="#000000" font-family="sans-serif" font-size="10" font-style="italic" lengthAdjust="spacingAndGlyphs" textLength="118" x="160" y="39.1563">com.ibm.fhir.model.type</text><line style="stroke: #A80036; stroke-width: 1.5;" x1="130.5" x2="281.5" y1="46.2656" y2="46.2656"/><ellipse cx="140.5" cy="58.2432" fill="#84BE84" rx="3" ry="3" style="stroke: #038048; stroke-width: 1.0;"/><text fill="#000000" font-family="sans-serif" font-size="11" font-style="italic" lengthAdjust="spacingAndGlyphs" textLength="99" x="149.5" y="60.9004">toBuilder(): Builder</text></a><!--class com.ibm.fhir.model.resource.Coverage--><a href="Coverage.html" target="_top" xlink:actuate="onRequest" xlink:show="new" xlink:title="Coverage.html" xlink:type="simple"><rect fill="#FEFECE" filter="url(#f50860cr31xgu)" height="38.2656" id="com.ibm.fhir.model.resource.Coverage" style="stroke: #A80036; stroke-width: 1.5;" width="171" x="317.5" y="18.5"/><ellipse cx="332.5" cy="37.6328" fill="#ADD1B2" rx="11" ry="11" style="stroke: #A80036; stroke-width: 1.0;"/><path d="M334.9731,43.7759 Q334.3921,44.0747 333.7529,44.2241 Q333.1138,44.3735 332.4082,44.3735 Q329.9014,44.3735 328.5815,42.7217 Q327.2617,41.0698 327.2617,37.9487 Q327.2617,34.8193 328.5815,33.1675 Q329.9014,31.5156 332.4082,31.5156 Q333.1138,31.5156 333.7612,31.665 Q334.4087,31.8145 334.9731,32.1133 L334.9731,34.8359 Q334.3423,34.2549 333.7488,33.9851 Q333.1553,33.7153 332.5244,33.7153 Q331.1797,33.7153 330.4949,34.782 Q329.8101,35.8486 329.8101,37.9487 Q329.8101,40.0405 330.4949,41.1072 Q331.1797,42.1738 332.5244,42.1738 Q333.1553,42.1738 333.7488,41.9041 Q334.3423,41.6343 334.9731,41.0532 Z "/><text fill="#000000" font-family="sans-serif" font-size="14" lengthAdjust="spacingAndGlyphs" textLength="65" x="383.5" y="37.0352">Coverage</text><text fill="#000000" font-family="sans-serif" font-size="10" lengthAdjust="spacingAndGlyphs" textLength="139" x="346.5" y="49.6563">com.ibm.fhir.model.resource</text></a><!--class com.ibm.fhir.model.resource.Coverage.CostToBeneficiary.Builder--><a href="Coverage.CostToBeneficiary.Builder.html" target="_top" xlink:actuate="onRequest" xlink:show="new" xlink:title="Coverage.CostToBeneficiary.Builder.html" xlink:type="simple"><rect fill="#FEFECE" filter="url(#f50860cr31xgu)" height="38.2656" id="com.ibm.fhir.model.resource.Coverage.CostToBeneficiary.Builder" style="stroke: #A80036; stroke-width: 1.5;" width="276" x="6" y="324"/><ellipse cx="21" cy="343.1328" fill="#ADD1B2" rx="11" ry="11" style="stroke: #A80036; stroke-width: 1.0;"/><path d="M23.4731,349.2759 Q22.8921,349.5747 22.2529,349.7241 Q21.6138,349.8735 20.9082,349.8735 Q18.4014,349.8735 17.0815,348.2217 Q15.7617,346.5698 15.7617,343.4487 Q15.7617,340.3193 17.0815,338.6675 Q18.4014,337.0156 20.9082,337.0156 Q21.6138,337.0156 22.2612,337.165 Q22.9087,337.3145 23.4731,337.6133 L23.4731,340.3359 Q22.8423,339.7549 22.2488,339.4851 Q21.6553,339.2153 21.0244,339.2153 Q19.6797,339.2153 18.9949,340.282 Q18.3101,341.3486 18.3101,343.4487 Q18.3101,345.5405 18.9949,346.6072 Q19.6797,347.6738 21.0244,347.6738 Q21.6553,347.6738 22.2488,347.4041 Q22.8423,347.1343 23.4731,346.5532 Z "/><text fill="#000000" font-family="sans-serif" font-size="14" lengthAdjust="spacingAndGlyphs" textLength="244" x="35" y="342.5352">Coverage.CostToBeneficiary.Builder</text><text fill="#000000" font-family="sans-serif" font-size="10" lengthAdjust="spacingAndGlyphs" textLength="139" x="87.5" y="355.1563">com.ibm.fhir.model.resource</text></a><!--class com.ibm.fhir.model.resource.Coverage.CostToBeneficiary.Exception--><a href="Coverage.CostToBeneficiary.Exception.html" target="_top" xlink:actuate="onRequest" xlink:show="new" xlink:title="Coverage.CostToBeneficiary.Exception.html" xlink:type="simple"><rect fill="#FEFECE" filter="url(#f50860cr31xgu)" height="38.2656" id="com.ibm.fhir.model.resource.Coverage.CostToBeneficiary.Exception" style="stroke: #A80036; stroke-width: 1.5;" width="296" x="317" y="324"/><ellipse cx="332" cy="343.1328" fill="#ADD1B2" rx="11" ry="11" style="stroke: #A80036; stroke-width: 1.0;"/><path d="M334.4731,349.2759 Q333.8921,349.5747 333.2529,349.7241 Q332.6138,349.8735 331.9082,349.8735 Q329.4014,349.8735 328.0815,348.2217 Q326.7617,346.5698 326.7617,343.4487 Q326.7617,340.3193 328.0815,338.6675 Q329.4014,337.0156 331.9082,337.0156 Q332.6138,337.0156 333.2612,337.165 Q333.9087,337.3145 334.4731,337.6133 L334.4731,340.3359 Q333.8423,339.7549 333.2488,339.4851 Q332.6553,339.2153 332.0244,339.2153 Q330.6797,339.2153 329.9949,340.282 Q329.3101,341.3486 329.3101,343.4487 Q329.3101,345.5405 329.9949,346.6072 Q330.6797,347.6738 332.0244,347.6738 Q332.6553,347.6738 333.2488,347.4041 Q333.8423,347.1343 334.4731,346.5532 Z "/><text fill="#000000" font-family="sans-serif" font-size="14" lengthAdjust="spacingAndGlyphs" textLength="264" x="346" y="342.5352">Coverage.CostToBeneficiary.Exception</text><text fill="#000000" font-family="sans-serif" font-size="10" lengthAdjust="spacingAndGlyphs" textLength="139" x="408.5" y="355.1563">com.ibm.fhir.model.resource</text></a><!--link com.ibm.fhir.model.type.BackboneElement to com.ibm.fhir.model.resource.Coverage.CostToBeneficiary--><path d="M235.0536,84.3416 C243.3427,97.7056 252.5501,112.5501 261.4667,126.9259 " fill="none" id="com.ibm.fhir.model.type.BackboneElement-com.ibm.fhir.model.resource.Coverage.CostToBeneficiary" style="stroke: #A80036; stroke-width: 1.0;"/><polygon fill="none" points="229.0263,87.9044,224.4331,67.2186,240.9236,80.5251,229.0263,87.9044" style="stroke: #A80036; stroke-width: 1.0;"/><!--link com.ibm.fhir.model.resource.Coverage to com.ibm.fhir.model.resource.Coverage.CostToBeneficiary--><path d="M383.046,69.3458 C372.6537,85.9314 359.5213,106.8903 346.9606,126.9367 " fill="none" id="com.ibm.fhir.model.resource.Coverage-com.ibm.fhir.model.resource.Coverage.CostToBeneficiary" style="stroke: #A80036; stroke-width: 1.0;"/><ellipse cx="386.8106" cy="63.3377" fill="#FFFFFF" rx="8" ry="8" style="stroke: #A80036; stroke-width: 1.0;"/><line style="stroke: #A80036; stroke-width: 1.0;" x1="382.5629" x2="391.0583" y1="70.1168" y2="56.5585"/><line style="stroke: #A80036; stroke-width: 1.0;" x1="380.0314" x2="393.5897" y1="59.0899" y2="67.5854"/><!--link com.ibm.fhir.model.resource.Coverage.CostToBeneficiary to com.ibm.fhir.model.resource.Coverage.CostToBeneficiary.Builder--><path d="M218.4344,274.3808 C198.3275,292.9168 178.6917,311.0185 164.6407,323.9719 " fill="none" id="com.ibm.fhir.model.resource.Coverage.CostToBeneficiary-com.ibm.fhir.model.resource.Coverage.CostToBeneficiary.Builder" style="stroke: #A80036; stroke-width: 1.0;"/><ellipse cx="223.739" cy="269.4907" fill="#FFFFFF" rx="8" ry="8" style="stroke: #A80036; stroke-width: 1.0;"/><line style="stroke: #A80036; stroke-width: 1.0;" x1="217.857" x2="229.6209" y1="274.9132" y2="264.0683"/><line style="stroke: #A80036; stroke-width: 1.0;" x1="218.3165" x2="229.1614" y1="263.6088" y2="275.3727"/><!--link com.ibm.fhir.model.resource.Coverage.CostToBeneficiary to com.ibm.fhir.model.resource.Coverage.CostToBeneficiary.Exception--><path d="M390.1004,274.3808 C410.333,292.9168 430.0914,311.0185 444.2303,323.9719 " fill="none" id="com.ibm.fhir.model.resource.Coverage.CostToBeneficiary-com.ibm.fhir.model.resource.Coverage.CostToBeneficiary.Exception" style="stroke: #A80036; stroke-width: 1.0;"/><ellipse cx="384.7427" cy="269.4725" fill="#FFFFFF" rx="8" ry="8" style="stroke: #A80036; stroke-width: 1.0;"/><line style="stroke: #A80036; stroke-width: 1.0;" x1="390.6414" x2="378.844" y1="274.8766" y2="264.0683"/><line style="stroke: #A80036; stroke-width: 1.0;" x1="379.3386" x2="390.1469" y1="275.3712" y2="263.5737"/><text fill="#888888" font-family="sans-serif" font-size="10" lengthAdjust="spacingAndGlyphs" textLength="182" x="224.5" y="381.668">UMLDoclet 2.0.5, PlantUML 1.2019.08</text><!--
@startuml
    set namespaceSeparator none
    hide empty fields
    hide empty methods

    class "<size:14>Coverage.CostToBeneficiary\n<size:10>com.ibm.fhir.model.resource" as com.ibm.fhir.model.resource.Coverage.CostToBeneficiary [[Coverage.CostToBeneficiary.html]] {
        +getType(): CodeableConcept
        +getValue(): Element
        +getException(): List<Exception>
        +hasChildren(): boolean
        +accept(String, int, Visitor): void
        +toBuilder(): Builder
        {static} +builder(): Builder
    }

    abstract class "<size:14>BackboneElement\n<size:10>com.ibm.fhir.model.type" as com.ibm.fhir.model.type.BackboneElement [[../type/BackboneElement.html]] {
        {abstract} +toBuilder(): Builder
    }
    class "<size:14>Coverage\n<size:10>com.ibm.fhir.model.resource" as com.ibm.fhir.model.resource.Coverage [[Coverage.html]]
    class "<size:14>Coverage.CostToBeneficiary.Builder\n<size:10>com.ibm.fhir.model.resource" as com.ibm.fhir.model.resource.Coverage.CostToBeneficiary.Builder [[Coverage.CostToBeneficiary.Builder.html]]
    class "<size:14>Coverage.CostToBeneficiary.Exception\n<size:10>com.ibm.fhir.model.resource" as com.ibm.fhir.model.resource.Coverage.CostToBeneficiary.Exception [[Coverage.CostToBeneficiary.Exception.html]]

    com.ibm.fhir.model.type.BackboneElement <|- - com.ibm.fhir.model.resource.Coverage.CostToBeneficiary
    com.ibm.fhir.model.resource.Coverage +- - com.ibm.fhir.model.resource.Coverage.CostToBeneficiary
    com.ibm.fhir.model.resource.Coverage.CostToBeneficiary +- - com.ibm.fhir.model.resource.Coverage.CostToBeneficiary.Builder
    com.ibm.fhir.model.resource.Coverage.CostToBeneficiary +- - com.ibm.fhir.model.resource.Coverage.CostToBeneficiary.Exception

    center footer UMLDoclet 2.0.5, PlantUML 1.2019.08
@enduml

PlantUML version 1.2019.08(Sat Jul 13 15:25:14 EDT 2019)
(APACHE source distribution)
Java Runtime: OpenJDK Runtime Environment
JVM: OpenJDK 64-Bit Server VM
Java Version: 11.0.4+11
Operating System: Mac OS X
OS Version: 10.14.6
Default Encoding: UTF-8
Language: en
Country: US
--></g></svg>