<?xml version="1.0" encoding="UTF-8" standalone="no"?><svg xmlns="http://www.w3.org/2000/svg" xmlns:xlink="http://www.w3.org/1999/xlink" contentScriptType="application/ecmascript" contentStyleType="text/css" height="395px" preserveAspectRatio="none" style="width:376px;height:395px;" version="1.1" viewBox="0 0 376 395" width="376px" zoomAndPan="magnify"><defs><filter height="300%" id="f1rxywh2ytak2v" width="300%" x="-1" y="-1"><feGaussianBlur result="blurOut" stdDeviation="2.0"/><feColorMatrix in="blurOut" result="blurOut2" type="matrix" values="0 0 0 0 0 0 0 0 0 0 0 0 0 0 0 0 0 0 .4 0"/><feOffset dx="4.0" dy="4.0" in="blurOut2" result="blurOut3"/><feBlend in="SourceGraphic" in2="blurOut3" mode="normal"/></filter></defs><g><!--class com.ibm.fhir.model.resource.DeviceDefinition.UdiDeviceIdentifier--><a href="DeviceDefinition.UdiDeviceIdentifier.html" target="_top" xlink:actuate="onRequest" xlink:show="new" xlink:title="DeviceDefinition.UdiDeviceIdentifier.html" xlink:type="simple"><rect fill="#FEFECE" filter="url(#f1rxywh2ytak2v)" height="136.9512" id="com.ibm.fhir.model.resource.DeviceDefinition.UdiDeviceIdentifier" style="stroke: #A80036; stroke-width: 1.5;" width="276" x="42.5" y="127"/><ellipse cx="57.5" cy="146.1328" fill="#ADD1B2" rx="11" ry="11" style="stroke: #A80036; stroke-width: 1.0;"/><path d="M59.9731,152.2759 Q59.3921,152.5747 58.7529,152.7241 Q58.1138,152.8735 57.4082,152.8735 Q54.9014,152.8735 53.5815,151.2217 Q52.2617,149.5698 52.2617,146.4487 Q52.2617,143.3193 53.5815,141.6675 Q54.9014,140.0156 57.4082,140.0156 Q58.1138,140.0156 58.7612,140.165 Q59.4087,140.3145 59.9731,140.6133 L59.9731,143.3359 Q59.3423,142.7549 58.7488,142.4851 Q58.1553,142.2153 57.5244,142.2153 Q56.1797,142.2153 55.4949,143.282 Q54.8101,144.3486 54.8101,146.4487 Q54.8101,148.5405 55.4949,149.6072 Q56.1797,150.6738 57.5244,150.6738 Q58.1553,150.6738 58.7488,150.4041 Q59.3423,150.1343 59.9731,149.5532 Z "/><text fill="#000000" font-family="sans-serif" font-size="14" lengthAdjust="spacingAndGlyphs" textLength="244" x="71.5" y="145.5352">DeviceDefinition.UdiDeviceIdentifier</text><text fill="#000000" font-family="sans-serif" font-size="10" lengthAdjust="spacingAndGlyphs" textLength="139" x="124" y="158.1563">com.ibm.fhir.model.resource</text><line style="stroke: #A80036; stroke-width: 1.5;" x1="43.5" x2="317.5" y1="165.2656" y2="165.2656"/><ellipse cx="53.5" cy="177.2432" fill="#84BE84" rx="3" ry="3" style="stroke: #038048; stroke-width: 1.0;"/><text fill="#000000" font-family="sans-serif" font-size="11" lengthAdjust="spacingAndGlyphs" textLength="146" x="62.5" y="179.9004">getDeviceIdentifier(): String</text><ellipse cx="53.5" cy="190.1982" fill="#84BE84" rx="3" ry="3" style="stroke: #038048; stroke-width: 1.0;"/><text fill="#000000" font-family="sans-serif" font-size="11" lengthAdjust="spacingAndGlyphs" textLength="80" x="62.5" y="192.8555">getIssuer(): Uri</text><ellipse cx="53.5" cy="203.1533" fill="#84BE84" rx="3" ry="3" style="stroke: #038048; stroke-width: 1.0;"/><text fill="#000000" font-family="sans-serif" font-size="11" lengthAdjust="spacingAndGlyphs" textLength="108" x="62.5" y="205.8105">getJurisdiction(): Uri</text><ellipse cx="53.5" cy="216.1084" fill="#84BE84" rx="3" ry="3" style="stroke: #038048; stroke-width: 1.0;"/><text fill="#000000" font-family="sans-serif" font-size="11" lengthAdjust="spacingAndGlyphs" textLength="122" x="62.5" y="218.7656">hasChildren(): boolean</text><ellipse cx="53.5" cy="229.0635" fill="#84BE84" rx="3" ry="3" style="stroke: #038048; stroke-width: 1.0;"/><text fill="#000000" font-family="sans-serif" font-size="11" lengthAdjust="spacingAndGlyphs" textLength="165" x="62.5" y="231.7207">accept(String, int, Visitor): void</text><ellipse cx="53.5" cy="242.0186" fill="#84BE84" rx="3" ry="3" style="stroke: #038048; stroke-width: 1.0;"/><text fill="#000000" font-family="sans-serif" font-size="11" lengthAdjust="spacingAndGlyphs" textLength="99" x="62.5" y="244.6758">toBuilder(): Builder</text><ellipse cx="53.5" cy="254.9736" fill="#84BE84" rx="3" ry="3" style="stroke: #038048; stroke-width: 1.0;"/><text fill="#000000" font-family="sans-serif" font-size="11" lengthAdjust="spacingAndGlyphs" text-decoration="underline" textLength="89" x="62.5" y="257.6309">builder(): Builder</text></a><!--class com.ibm.fhir.model.type.BackboneElement--><a href="../type/BackboneElement.html" target="_top" xlink:actuate="onRequest" xlink:show="new" xlink:title="../type/BackboneElement.html" xlink:type="simple"><rect fill="#FEFECE" filter="url(#f1rxywh2ytak2v)" height="59.2207" id="com.ibm.fhir.model.type.BackboneElement" style="stroke: #A80036; stroke-width: 1.5;" width="153" x="6" y="8"/><ellipse cx="21" cy="27.1328" fill="#A9DCDF" rx="11" ry="11" style="stroke: #A80036; stroke-width: 1.0;"/><path d="M21.1133,22.731 L19.9595,27.8027 L22.2754,27.8027 Z M19.6191,20.4897 L22.6157,20.4897 L25.9609,32.8828 L23.5122,32.8828 L22.7485,29.8198 L19.4697,29.8198 L18.7227,32.8828 L16.2739,32.8828 Z "/><text fill="#000000" font-family="sans-serif" font-size="14" font-style="italic" lengthAdjust="spacingAndGlyphs" textLength="121" x="35" y="26.5352">BackboneElement</text><text fill="#000000" font-family="sans-serif" font-size="10" font-style="italic" lengthAdjust="spacingAndGlyphs" textLength="118" x="36.5" y="39.1563">com.ibm.fhir.model.type</text><line style="stroke: #A80036; stroke-width: 1.5;" x1="7" x2="158" y1="46.2656" y2="46.2656"/><ellipse cx="17" cy="58.2432" fill="#84BE84" rx="3" ry="3" style="stroke: #038048; stroke-width: 1.0;"/><text fill="#000000" font-family="sans-serif" font-size="11" font-style="italic" lengthAdjust="spacingAndGlyphs" textLength="99" x="26" y="60.9004">toBuilder(): Builder</text></a><!--class com.ibm.fhir.model.resource.DeviceDefinition--><a href="DeviceDefinition.html" target="_top" xlink:actuate="onRequest" xlink:show="new" xlink:title="DeviceDefinition.html" xlink:type="simple"><rect fill="#FEFECE" filter="url(#f1rxywh2ytak2v)" height="38.2656" id="com.ibm.fhir.model.resource.DeviceDefinition" style="stroke: #A80036; stroke-width: 1.5;" width="171" x="194" y="18.5"/><ellipse cx="209" cy="37.6328" fill="#ADD1B2" rx="11" ry="11" style="stroke: #A80036; stroke-width: 1.0;"/><path d="M211.4731,43.7759 Q210.8921,44.0747 210.2529,44.2241 Q209.6138,44.3735 208.9082,44.3735 Q206.4014,44.3735 205.0815,42.7217 Q203.7617,41.0698 203.7617,37.9487 Q203.7617,34.8193 205.0815,33.1675 Q206.4014,31.5156 208.9082,31.5156 Q209.6138,31.5156 210.2612,31.665 Q210.9087,31.8145 211.4731,32.1133 L211.4731,34.8359 Q210.8423,34.2549 210.2488,33.9851 Q209.6553,33.7153 209.0244,33.7153 Q207.6797,33.7153 206.9949,34.782 Q206.3101,35.8486 206.3101,37.9487 Q206.3101,40.0405 206.9949,41.1072 Q207.6797,42.1738 209.0244,42.1738 Q209.6553,42.1738 210.2488,41.9041 Q210.8423,41.6343 211.4731,41.0532 Z "/><text fill="#000000" font-family="sans-serif" font-size="14" lengthAdjust="spacingAndGlyphs" textLength="111" x="237" y="37.0352">DeviceDefinition</text><text fill="#000000" font-family="sans-serif" font-size="10" lengthAdjust="spacingAndGlyphs" textLength="139" x="223" y="49.6563">com.ibm.fhir.model.resource</text></a><!--class com.ibm.fhir.model.resource.DeviceDefinition.UdiDeviceIdentifier.Builder--><a href="DeviceDefinition.UdiDeviceIdentifier.Builder.html" target="_top" xlink:actuate="onRequest" xlink:show="new" xlink:title="DeviceDefinition.UdiDeviceIdentifier.Builder.html" xlink:type="simple"><rect fill="#FEFECE" filter="url(#f1rxywh2ytak2v)" height="38.2656" id="com.ibm.fhir.model.resource.DeviceDefinition.UdiDeviceIdentifier.Builder" style="stroke: #A80036; stroke-width: 1.5;" width="328" x="16.5" y="324"/><ellipse cx="31.5" cy="343.1328" fill="#ADD1B2" rx="11" ry="11" style="stroke: #A80036; stroke-width: 1.0;"/><path d="M33.9731,349.2759 Q33.3921,349.5747 32.7529,349.7241 Q32.1138,349.8735 31.4082,349.8735 Q28.9014,349.8735 27.5815,348.2217 Q26.2617,346.5698 26.2617,343.4487 Q26.2617,340.3193 27.5815,338.6675 Q28.9014,337.0156 31.4082,337.0156 Q32.1138,337.0156 32.7612,337.165 Q33.4087,337.3145 33.9731,337.6133 L33.9731,340.3359 Q33.3423,339.7549 32.7488,339.4851 Q32.1553,339.2153 31.5244,339.2153 Q30.1797,339.2153 29.4949,340.282 Q28.8101,341.3486 28.8101,343.4487 Q28.8101,345.5405 29.4949,346.6072 Q30.1797,347.6738 31.5244,347.6738 Q32.1553,347.6738 32.7488,347.4041 Q33.3423,347.1343 33.9731,346.5532 Z "/><text fill="#000000" font-family="sans-serif" font-size="14" lengthAdjust="spacingAndGlyphs" textLength="296" x="45.5" y="342.5352">DeviceDefinition.UdiDeviceIdentifier.Builder</text><text fill="#000000" font-family="sans-serif" font-size="10" lengthAdjust="spacingAndGlyphs" textLength="139" x="124" y="355.1563">com.ibm.fhir.model.resource</text></a><!--link com.ibm.fhir.model.type.BackboneElement to com.ibm.fhir.model.resource.DeviceDefinition.UdiDeviceIdentifier--><path d="M111.5536,84.3416 C119.8427,97.7056 129.0501,112.5501 137.9667,126.9259 " fill="none" id="com.ibm.fhir.model.type.BackboneElement-com.ibm.fhir.model.resource.DeviceDefinition.UdiDeviceIdentifier" style="stroke: #A80036; stroke-width: 1.0;"/><polygon fill="none" points="105.5263,87.9044,100.9331,67.2186,117.4236,80.5251,105.5263,87.9044" style="stroke: #A80036; stroke-width: 1.0;"/><!--link com.ibm.fhir.model.resource.DeviceDefinition to com.ibm.fhir.model.resource.DeviceDefinition.UdiDeviceIdentifier--><path d="M259.546,69.3458 C249.1537,85.9314 236.0213,106.8903 223.4606,126.9367 " fill="none" id="com.ibm.fhir.model.resource.DeviceDefinition-com.ibm.fhir.model.resource.DeviceDefinition.UdiDeviceIdentifier" style="stroke: #A80036; stroke-width: 1.0;"/><ellipse cx="263.3106" cy="63.3377" fill="#FFFFFF" rx="8" ry="8" style="stroke: #A80036; stroke-width: 1.0;"/><line style="stroke: #A80036; stroke-width: 1.0;" x1="259.0629" x2="267.5583" y1="70.1168" y2="56.5585"/><line style="stroke: #A80036; stroke-width: 1.0;" x1="256.5314" x2="270.0897" y1="59.0899" y2="67.5854"/><!--link com.ibm.fhir.model.resource.DeviceDefinition.UdiDeviceIdentifier to com.ibm.fhir.model.resource.DeviceDefinition.UdiDeviceIdentifier.Builder--><path d="M180.5,279.259 C180.5,296.0616 180.5,312.158 180.5,323.9719 " fill="none" id="com.ibm.fhir.model.resource.DeviceDefinition.UdiDeviceIdentifier-com.ibm.fhir.model.resource.DeviceDefinition.UdiDeviceIdentifier.Builder" style="stroke: #A80036; stroke-width: 1.0;"/><ellipse cx="180.5001" cy="272.0683" fill="#FFFFFF" rx="8" ry="8" style="stroke: #A80036; stroke-width: 1.0;"/><line style="stroke: #A80036; stroke-width: 1.0;" x1="180.5002" x2="180.5" y1="280.0683" y2="264.0683"/><line style="stroke: #A80036; stroke-width: 1.0;" x1="172.5001" x2="188.5001" y1="272.0684" y2="272.0682"/><text fill="#888888" font-family="sans-serif" font-size="10" lengthAdjust="spacingAndGlyphs" textLength="182" x="100.5" y="381.668">UMLDoclet 2.0.5, PlantUML 1.2019.08</text><!--
@startuml
    set namespaceSeparator none
    hide empty fields
    hide empty methods

    class "<size:14>DeviceDefinition.UdiDeviceIdentifier\n<size:10>com.ibm.fhir.model.resource" as com.ibm.fhir.model.resource.DeviceDefinition.UdiDeviceIdentifier [[DeviceDefinition.UdiDeviceIdentifier.html]] {
        +getDeviceIdentifier(): String
        +getIssuer(): Uri
        +getJurisdiction(): Uri
        +hasChildren(): boolean
        +accept(String, int, Visitor): void
        +toBuilder(): Builder
        {static} +builder(): Builder
    }

    abstract class "<size:14>BackboneElement\n<size:10>com.ibm.fhir.model.type" as com.ibm.fhir.model.type.BackboneElement [[../type/BackboneElement.html]] {
        {abstract} +toBuilder(): Builder
    }
    class "<size:14>DeviceDefinition\n<size:10>com.ibm.fhir.model.resource" as com.ibm.fhir.model.resource.DeviceDefinition [[DeviceDefinition.html]]
    class "<size:14>DeviceDefinition.UdiDeviceIdentifier.Builder\n<size:10>com.ibm.fhir.model.resource" as com.ibm.fhir.model.resource.DeviceDefinition.UdiDeviceIdentifier.Builder [[DeviceDefinition.UdiDeviceIdentifier.Builder.html]]

    com.ibm.fhir.model.type.BackboneElement <|- - com.ibm.fhir.model.resource.DeviceDefinition.UdiDeviceIdentifier
    com.ibm.fhir.model.resource.DeviceDefinition +- - com.ibm.fhir.model.resource.DeviceDefinition.UdiDeviceIdentifier
    com.ibm.fhir.model.resource.DeviceDefinition.UdiDeviceIdentifier +- - com.ibm.fhir.model.resource.DeviceDefinition.UdiDeviceIdentifier.Builder

    center footer UMLDoclet 2.0.5, PlantUML 1.2019.08
@enduml

PlantUML version 1.2019.08(Sat Jul 13 15:25:14 EDT 2019)
(APACHE source distribution)
Java Runtime: OpenJDK Runtime Environment
JVM: OpenJDK 64-Bit Server VM
Java Version: 11.0.4+11
Operating System: Mac OS X
OS Version: 10.14.6
Default Encoding: UTF-8
Language: en
Country: US
--></g></svg>