<?xml version="1.0" encoding="UTF-8" standalone="no"?><svg xmlns="http://www.w3.org/2000/svg" xmlns:xlink="http://www.w3.org/1999/xlink" contentScriptType="application/ecmascript" contentStyleType="text/css" height="525px" preserveAspectRatio="none" style="width:273px;height:525px;" version="1.1" viewBox="0 0 273 525" width="273px" zoomAndPan="magnify"><defs><filter height="300%" id="fphoof1zwmsk7" width="300%" x="-1" y="-1"><feGaussianBlur result="blurOut" stdDeviation="2.0"/><feColorMatrix in="blurOut" result="blurOut2" type="matrix" values="0 0 0 0 0 0 0 0 0 0 0 0 0 0 0 0 0 0 .4 0"/><feOffset dx="4.0" dy="4.0" in="blurOut2" result="blurOut3"/><feBlend in="SourceGraphic" in2="blurOut3" mode="normal"/></filter></defs><g><!--class com.ibm.fhir.model.resource.DeviceUseStatement--><a href="DeviceUseStatement.html" target="_top" xlink:actuate="onRequest" xlink:show="new" xlink:title="DeviceUseStatement.html" xlink:type="simple"><rect fill="#FEFECE" filter="url(#fphoof1zwmsk7)" height="266.502" id="com.ibm.fhir.model.resource.DeviceUseStatement" style="stroke: #A80036; stroke-width: 1.5;" width="256" x="6" y="127"/><ellipse cx="60.25" cy="146.1328" fill="#ADD1B2" rx="11" ry="11" style="stroke: #A80036; stroke-width: 1.0;"/><path d="M62.7231,152.2759 Q62.1421,152.5747 61.5029,152.7241 Q60.8638,152.8735 60.1582,152.8735 Q57.6514,152.8735 56.3315,151.2217 Q55.0117,149.5698 55.0117,146.4487 Q55.0117,143.3193 56.3315,141.6675 Q57.6514,140.0156 60.1582,140.0156 Q60.8638,140.0156 61.5112,140.165 Q62.1587,140.3145 62.7231,140.6133 L62.7231,143.3359 Q62.0923,142.7549 61.4988,142.4851 Q60.9053,142.2153 60.2744,142.2153 Q58.9297,142.2153 58.2449,143.282 Q57.5601,144.3486 57.5601,146.4487 Q57.5601,148.5405 58.2449,149.6072 Q58.9297,150.6738 60.2744,150.6738 Q60.9053,150.6738 61.4988,150.4041 Q62.0923,150.1343 62.7231,149.5532 Z "/><text fill="#000000" font-family="sans-serif" font-size="14" lengthAdjust="spacingAndGlyphs" textLength="138" x="81.25" y="145.5352">DeviceUseStatement</text><text fill="#000000" font-family="sans-serif" font-size="10" lengthAdjust="spacingAndGlyphs" textLength="139" x="80.75" y="158.1563">com.ibm.fhir.model.resource</text><line style="stroke: #A80036; stroke-width: 1.5;" x1="7" x2="261" y1="165.2656" y2="165.2656"/><ellipse cx="17" cy="177.2432" fill="#84BE84" rx="3" ry="3" style="stroke: #038048; stroke-width: 1.0;"/><text fill="#000000" font-family="sans-serif" font-size="11" lengthAdjust="spacingAndGlyphs" textLength="164" x="26" y="179.9004">getIdentifier(): List&lt;Identifier&gt;</text><ellipse cx="17" cy="190.1982" fill="#84BE84" rx="3" ry="3" style="stroke: #038048; stroke-width: 1.0;"/><text fill="#000000" font-family="sans-serif" font-size="11" lengthAdjust="spacingAndGlyphs" textLength="168" x="26" y="192.8555">getBasedOn(): List&lt;Reference&gt;</text><ellipse cx="17" cy="203.1533" fill="#84BE84" rx="3" ry="3" style="stroke: #038048; stroke-width: 1.0;"/><text fill="#000000" font-family="sans-serif" font-size="11" lengthAdjust="spacingAndGlyphs" textLength="205" x="26" y="205.8105">getStatus(): DeviceUseStatementStatus</text><ellipse cx="17" cy="216.1084" fill="#84BE84" rx="3" ry="3" style="stroke: #038048; stroke-width: 1.0;"/><text fill="#000000" font-family="sans-serif" font-size="11" lengthAdjust="spacingAndGlyphs" textLength="123" x="26" y="218.7656">getSubject(): Reference</text><ellipse cx="17" cy="229.0635" fill="#84BE84" rx="3" ry="3" style="stroke: #038048; stroke-width: 1.0;"/><text fill="#000000" font-family="sans-serif" font-size="11" lengthAdjust="spacingAndGlyphs" textLength="190" x="26" y="231.7207">getDerivedFrom(): List&lt;Reference&gt;</text><ellipse cx="17" cy="242.0186" fill="#84BE84" rx="3" ry="3" style="stroke: #038048; stroke-width: 1.0;"/><text fill="#000000" font-family="sans-serif" font-size="11" lengthAdjust="spacingAndGlyphs" textLength="110" x="26" y="244.6758">getTiming(): Element</text><ellipse cx="17" cy="254.9736" fill="#84BE84" rx="3" ry="3" style="stroke: #038048; stroke-width: 1.0;"/><text fill="#000000" font-family="sans-serif" font-size="11" lengthAdjust="spacingAndGlyphs" textLength="148" x="26" y="257.6309">getRecordedOn(): DateTime</text><ellipse cx="17" cy="267.9287" fill="#84BE84" rx="3" ry="3" style="stroke: #038048; stroke-width: 1.0;"/><text fill="#000000" font-family="sans-serif" font-size="11" lengthAdjust="spacingAndGlyphs" textLength="121" x="26" y="270.5859">getSource(): Reference</text><ellipse cx="17" cy="280.8838" fill="#84BE84" rx="3" ry="3" style="stroke: #038048; stroke-width: 1.0;"/><text fill="#000000" font-family="sans-serif" font-size="11" lengthAdjust="spacingAndGlyphs" textLength="119" x="26" y="283.541">getDevice(): Reference</text><ellipse cx="17" cy="293.8389" fill="#84BE84" rx="3" ry="3" style="stroke: #038048; stroke-width: 1.0;"/><text fill="#000000" font-family="sans-serif" font-size="11" lengthAdjust="spacingAndGlyphs" textLength="230" x="26" y="296.4961">getReasonCode(): List&lt;CodeableConcept&gt;</text><ellipse cx="17" cy="306.7939" fill="#84BE84" rx="3" ry="3" style="stroke: #038048; stroke-width: 1.0;"/><text fill="#000000" font-family="sans-serif" font-size="11" lengthAdjust="spacingAndGlyphs" textLength="213" x="26" y="309.4512">getReasonReference(): List&lt;Reference&gt;</text><ellipse cx="17" cy="319.749" fill="#84BE84" rx="3" ry="3" style="stroke: #038048; stroke-width: 1.0;"/><text fill="#000000" font-family="sans-serif" font-size="11" lengthAdjust="spacingAndGlyphs" textLength="171" x="26" y="322.4063">getBodySite(): CodeableConcept</text><ellipse cx="17" cy="332.7041" fill="#84BE84" rx="3" ry="3" style="stroke: #038048; stroke-width: 1.0;"/><text fill="#000000" font-family="sans-serif" font-size="11" lengthAdjust="spacingAndGlyphs" textLength="153" x="26" y="335.3613">getNote(): List&lt;Annotation&gt;</text><ellipse cx="17" cy="345.6592" fill="#84BE84" rx="3" ry="3" style="stroke: #038048; stroke-width: 1.0;"/><text fill="#000000" font-family="sans-serif" font-size="11" lengthAdjust="spacingAndGlyphs" textLength="122" x="26" y="348.3164">hasChildren(): boolean</text><ellipse cx="17" cy="358.6143" fill="#84BE84" rx="3" ry="3" style="stroke: #038048; stroke-width: 1.0;"/><text fill="#000000" font-family="sans-serif" font-size="11" lengthAdjust="spacingAndGlyphs" textLength="165" x="26" y="361.2715">accept(String, int, Visitor): void</text><ellipse cx="17" cy="371.5693" fill="#84BE84" rx="3" ry="3" style="stroke: #038048; stroke-width: 1.0;"/><text fill="#000000" font-family="sans-serif" font-size="11" lengthAdjust="spacingAndGlyphs" textLength="99" x="26" y="374.2266">toBuilder(): Builder</text><ellipse cx="17" cy="384.5244" fill="#84BE84" rx="3" ry="3" style="stroke: #038048; stroke-width: 1.0;"/><text fill="#000000" font-family="sans-serif" font-size="11" lengthAdjust="spacingAndGlyphs" text-decoration="underline" textLength="89" x="26" y="387.1816">builder(): Builder</text></a><!--class com.ibm.fhir.model.resource.DomainResource--><a href="DomainResource.html" target="_top" xlink:actuate="onRequest" xlink:show="new" xlink:title="DomainResource.html" xlink:type="simple"><rect fill="#FEFECE" filter="url(#fphoof1zwmsk7)" height="59.2207" id="com.ibm.fhir.model.resource.DomainResource" style="stroke: #A80036; stroke-width: 1.5;" width="171" x="48.5" y="8"/><ellipse cx="63.5" cy="27.1328" fill="#A9DCDF" rx="11" ry="11" style="stroke: #A80036; stroke-width: 1.0;"/><path d="M63.6133,22.731 L62.4595,27.8027 L64.7754,27.8027 Z M62.1191,20.4897 L65.1157,20.4897 L68.4609,32.8828 L66.0122,32.8828 L65.2485,29.8198 L61.9697,29.8198 L61.2227,32.8828 L58.7739,32.8828 Z "/><text fill="#000000" font-family="sans-serif" font-size="14" font-style="italic" lengthAdjust="spacingAndGlyphs" textLength="116" x="89" y="26.5352">DomainResource</text><text fill="#000000" font-family="sans-serif" font-size="10" font-style="italic" lengthAdjust="spacingAndGlyphs" textLength="139" x="77.5" y="39.1563">com.ibm.fhir.model.resource</text><line style="stroke: #A80036; stroke-width: 1.5;" x1="49.5" x2="218.5" y1="46.2656" y2="46.2656"/><ellipse cx="59.5" cy="58.2432" fill="#84BE84" rx="3" ry="3" style="stroke: #038048; stroke-width: 1.0;"/><text fill="#000000" font-family="sans-serif" font-size="11" font-style="italic" lengthAdjust="spacingAndGlyphs" textLength="99" x="68.5" y="60.9004">toBuilder(): Builder</text></a><!--class com.ibm.fhir.model.resource.DeviceUseStatement.Builder--><a href="DeviceUseStatement.Builder.html" target="_top" xlink:actuate="onRequest" xlink:show="new" xlink:title="DeviceUseStatement.Builder.html" xlink:type="simple"><rect fill="#FEFECE" filter="url(#fphoof1zwmsk7)" height="38.2656" id="com.ibm.fhir.model.resource.DeviceUseStatement.Builder" style="stroke: #A80036; stroke-width: 1.5;" width="222" x="23" y="454"/><ellipse cx="38" cy="473.1328" fill="#ADD1B2" rx="11" ry="11" style="stroke: #A80036; stroke-width: 1.0;"/><path d="M40.4731,479.2759 Q39.8921,479.5747 39.2529,479.7241 Q38.6138,479.8735 37.9082,479.8735 Q35.4014,479.8735 34.0815,478.2217 Q32.7617,476.5698 32.7617,473.4487 Q32.7617,470.3193 34.0815,468.6675 Q35.4014,467.0156 37.9082,467.0156 Q38.6138,467.0156 39.2612,467.165 Q39.9087,467.3145 40.4731,467.6133 L40.4731,470.3359 Q39.8423,469.7549 39.2488,469.4851 Q38.6553,469.2153 38.0244,469.2153 Q36.6797,469.2153 35.9949,470.282 Q35.3101,471.3486 35.3101,473.4487 Q35.3101,475.5405 35.9949,476.6072 Q36.6797,477.6738 38.0244,477.6738 Q38.6553,477.6738 39.2488,477.4041 Q39.8423,477.1343 40.4731,476.5532 Z "/><text fill="#000000" font-family="sans-serif" font-size="14" lengthAdjust="spacingAndGlyphs" textLength="190" x="52" y="472.5352">DeviceUseStatement.Builder</text><text fill="#000000" font-family="sans-serif" font-size="10" lengthAdjust="spacingAndGlyphs" textLength="139" x="77.5" y="485.1563">com.ibm.fhir.model.resource</text></a><!--link com.ibm.fhir.model.resource.DomainResource to com.ibm.fhir.model.resource.DeviceUseStatement--><path d="M134,87.1824 C134,99.2992 134,112.8399 134,126.8676 " fill="none" id="com.ibm.fhir.model.resource.DomainResource-com.ibm.fhir.model.resource.DeviceUseStatement" style="stroke: #A80036; stroke-width: 1.0;"/><polygon fill="none" points="127.0001,87.1127,134,67.1127,141.0001,87.1126,127.0001,87.1127" style="stroke: #A80036; stroke-width: 1.0;"/><!--link com.ibm.fhir.model.resource.DeviceUseStatement to com.ibm.fhir.model.resource.DeviceUseStatement.Builder--><path d="M134,409.2328 C134,426.7074 134,442.3466 134,453.7636 " fill="none" id="com.ibm.fhir.model.resource.DeviceUseStatement-com.ibm.fhir.model.resource.DeviceUseStatement.Builder" style="stroke: #A80036; stroke-width: 1.0;"/><ellipse cx="134.0001" cy="402.1748" fill="#FFFFFF" rx="8" ry="8" style="stroke: #A80036; stroke-width: 1.0;"/><line style="stroke: #A80036; stroke-width: 1.0;" x1="134.0002" x2="134" y1="410.1748" y2="394.1748"/><line style="stroke: #A80036; stroke-width: 1.0;" x1="126.0001" x2="142.0001" y1="402.1749" y2="402.1747"/><text fill="#888888" font-family="sans-serif" font-size="10" lengthAdjust="spacingAndGlyphs" textLength="182" x="49" y="511.668">UMLDoclet 2.0.5, PlantUML 1.2019.08</text><!--
@startuml
    set namespaceSeparator none
    hide empty fields
    hide empty methods

    class "<size:14>DeviceUseStatement\n<size:10>com.ibm.fhir.model.resource" as com.ibm.fhir.model.resource.DeviceUseStatement [[DeviceUseStatement.html]] {
        +getIdentifier(): List<Identifier>
        +getBasedOn(): List<Reference>
        +getStatus(): DeviceUseStatementStatus
        +getSubject(): Reference
        +getDerivedFrom(): List<Reference>
        +getTiming(): Element
        +getRecordedOn(): DateTime
        +getSource(): Reference
        +getDevice(): Reference
        +getReasonCode(): List<CodeableConcept>
        +getReasonReference(): List<Reference>
        +getBodySite(): CodeableConcept
        +getNote(): List<Annotation>
        +hasChildren(): boolean
        +accept(String, int, Visitor): void
        +toBuilder(): Builder
        {static} +builder(): Builder
    }

    abstract class "<size:14>DomainResource\n<size:10>com.ibm.fhir.model.resource" as com.ibm.fhir.model.resource.DomainResource [[DomainResource.html]] {
        {abstract} +toBuilder(): Builder
    }
    class "<size:14>DeviceUseStatement.Builder\n<size:10>com.ibm.fhir.model.resource" as com.ibm.fhir.model.resource.DeviceUseStatement.Builder [[DeviceUseStatement.Builder.html]]

    com.ibm.fhir.model.resource.DomainResource <|- - com.ibm.fhir.model.resource.DeviceUseStatement
    com.ibm.fhir.model.resource.DeviceUseStatement +- - com.ibm.fhir.model.resource.DeviceUseStatement.Builder

    center footer UMLDoclet 2.0.5, PlantUML 1.2019.08
@enduml

PlantUML version 1.2019.08(Sat Jul 13 15:25:14 EDT 2019)
(APACHE source distribution)
Java Runtime: OpenJDK Runtime Environment
JVM: OpenJDK 64-Bit Server VM
Java Version: 11.0.4+11
Operating System: Mac OS X
OS Version: 10.14.6
Default Encoding: UTF-8
Language: en
Country: US
--></g></svg>