<?xml version="1.0" encoding="UTF-8" standalone="no"?><svg xmlns="http://www.w3.org/2000/svg" xmlns:xlink="http://www.w3.org/1999/xlink" contentScriptType="application/ecmascript" contentStyleType="text/css" height="499px" preserveAspectRatio="none" style="width:273px;height:499px;" version="1.1" viewBox="0 0 273 499" width="273px" zoomAndPan="magnify"><defs><filter height="300%" id="f166ittn2tufiw" width="300%" x="-1" y="-1"><feGaussianBlur result="blurOut" stdDeviation="2.0"/><feColorMatrix in="blurOut" result="blurOut2" type="matrix" values="0 0 0 0 0 0 0 0 0 0 0 0 0 0 0 0 0 0 .4 0"/><feOffset dx="4.0" dy="4.0" in="blurOut2" result="blurOut3"/><feBlend in="SourceGraphic" in2="blurOut3" mode="normal"/></filter></defs><g><!--class com.ibm.fhir.model.resource.Endpoint--><a href="Endpoint.html" target="_top" xlink:actuate="onRequest" xlink:show="new" xlink:title="Endpoint.html" xlink:type="simple"><rect fill="#FEFECE" filter="url(#f166ittn2tufiw)" height="240.5918" id="com.ibm.fhir.model.resource.Endpoint" style="stroke: #A80036; stroke-width: 1.5;" width="256" x="6" y="127"/><ellipse cx="60.25" cy="146.1328" fill="#ADD1B2" rx="11" ry="11" style="stroke: #A80036; stroke-width: 1.0;"/><path d="M62.7231,152.2759 Q62.1421,152.5747 61.5029,152.7241 Q60.8638,152.8735 60.1582,152.8735 Q57.6514,152.8735 56.3315,151.2217 Q55.0117,149.5698 55.0117,146.4487 Q55.0117,143.3193 56.3315,141.6675 Q57.6514,140.0156 60.1582,140.0156 Q60.8638,140.0156 61.5112,140.165 Q62.1587,140.3145 62.7231,140.6133 L62.7231,143.3359 Q62.0923,142.7549 61.4988,142.4851 Q60.9053,142.2153 60.2744,142.2153 Q58.9297,142.2153 58.2449,143.282 Q57.5601,144.3486 57.5601,146.4487 Q57.5601,148.5405 58.2449,149.6072 Q58.9297,150.6738 60.2744,150.6738 Q60.9053,150.6738 61.4988,150.4041 Q62.0923,150.1343 62.7231,149.5532 Z "/><text fill="#000000" font-family="sans-serif" font-size="14" lengthAdjust="spacingAndGlyphs" textLength="62" x="119.25" y="145.5352">Endpoint</text><text fill="#000000" font-family="sans-serif" font-size="10" lengthAdjust="spacingAndGlyphs" textLength="139" x="80.75" y="158.1563">com.ibm.fhir.model.resource</text><line style="stroke: #A80036; stroke-width: 1.5;" x1="7" x2="261" y1="165.2656" y2="165.2656"/><ellipse cx="17" cy="177.2432" fill="#84BE84" rx="3" ry="3" style="stroke: #038048; stroke-width: 1.0;"/><text fill="#000000" font-family="sans-serif" font-size="11" lengthAdjust="spacingAndGlyphs" textLength="164" x="26" y="179.9004">getIdentifier(): List&lt;Identifier&gt;</text><ellipse cx="17" cy="190.1982" fill="#84BE84" rx="3" ry="3" style="stroke: #038048; stroke-width: 1.0;"/><text fill="#000000" font-family="sans-serif" font-size="11" lengthAdjust="spacingAndGlyphs" textLength="145" x="26" y="192.8555">getStatus(): EndpointStatus</text><ellipse cx="17" cy="203.1533" fill="#84BE84" rx="3" ry="3" style="stroke: #038048; stroke-width: 1.0;"/><text fill="#000000" font-family="sans-serif" font-size="11" lengthAdjust="spacingAndGlyphs" textLength="158" x="26" y="205.8105">getConnectionType(): Coding</text><ellipse cx="17" cy="216.1084" fill="#84BE84" rx="3" ry="3" style="stroke: #038048; stroke-width: 1.0;"/><text fill="#000000" font-family="sans-serif" font-size="11" lengthAdjust="spacingAndGlyphs" textLength="93" x="26" y="218.7656">getName(): String</text><ellipse cx="17" cy="229.0635" fill="#84BE84" rx="3" ry="3" style="stroke: #038048; stroke-width: 1.0;"/><text fill="#000000" font-family="sans-serif" font-size="11" lengthAdjust="spacingAndGlyphs" textLength="206" x="26" y="231.7207">getManagingOrganization(): Reference</text><ellipse cx="17" cy="242.0186" fill="#84BE84" rx="3" ry="3" style="stroke: #038048; stroke-width: 1.0;"/><text fill="#000000" font-family="sans-serif" font-size="11" lengthAdjust="spacingAndGlyphs" textLength="179" x="26" y="244.6758">getContact(): List&lt;ContactPoint&gt;</text><ellipse cx="17" cy="254.9736" fill="#84BE84" rx="3" ry="3" style="stroke: #038048; stroke-width: 1.0;"/><text fill="#000000" font-family="sans-serif" font-size="11" lengthAdjust="spacingAndGlyphs" textLength="99" x="26" y="257.6309">getPeriod(): Period</text><ellipse cx="17" cy="267.9287" fill="#84BE84" rx="3" ry="3" style="stroke: #038048; stroke-width: 1.0;"/><text fill="#000000" font-family="sans-serif" font-size="11" lengthAdjust="spacingAndGlyphs" textLength="230" x="26" y="270.5859">getPayloadType(): List&lt;CodeableConcept&gt;</text><ellipse cx="17" cy="280.8838" fill="#84BE84" rx="3" ry="3" style="stroke: #038048; stroke-width: 1.0;"/><text fill="#000000" font-family="sans-serif" font-size="11" lengthAdjust="spacingAndGlyphs" textLength="191" x="26" y="283.541">getPayloadMimeType(): List&lt;Code&gt;</text><ellipse cx="17" cy="293.8389" fill="#84BE84" rx="3" ry="3" style="stroke: #038048; stroke-width: 1.0;"/><text fill="#000000" font-family="sans-serif" font-size="11" lengthAdjust="spacingAndGlyphs" textLength="92" x="26" y="296.4961">getAddress(): Url</text><ellipse cx="17" cy="306.7939" fill="#84BE84" rx="3" ry="3" style="stroke: #038048; stroke-width: 1.0;"/><text fill="#000000" font-family="sans-serif" font-size="11" lengthAdjust="spacingAndGlyphs" textLength="138" x="26" y="309.4512">getHeader(): List&lt;String&gt;</text><ellipse cx="17" cy="319.749" fill="#84BE84" rx="3" ry="3" style="stroke: #038048; stroke-width: 1.0;"/><text fill="#000000" font-family="sans-serif" font-size="11" lengthAdjust="spacingAndGlyphs" textLength="122" x="26" y="322.4063">hasChildren(): boolean</text><ellipse cx="17" cy="332.7041" fill="#84BE84" rx="3" ry="3" style="stroke: #038048; stroke-width: 1.0;"/><text fill="#000000" font-family="sans-serif" font-size="11" lengthAdjust="spacingAndGlyphs" textLength="165" x="26" y="335.3613">accept(String, int, Visitor): void</text><ellipse cx="17" cy="345.6592" fill="#84BE84" rx="3" ry="3" style="stroke: #038048; stroke-width: 1.0;"/><text fill="#000000" font-family="sans-serif" font-size="11" lengthAdjust="spacingAndGlyphs" textLength="99" x="26" y="348.3164">toBuilder(): Builder</text><ellipse cx="17" cy="358.6143" fill="#84BE84" rx="3" ry="3" style="stroke: #038048; stroke-width: 1.0;"/><text fill="#000000" font-family="sans-serif" font-size="11" lengthAdjust="spacingAndGlyphs" text-decoration="underline" textLength="89" x="26" y="361.2715">builder(): Builder</text></a><!--class com.ibm.fhir.model.resource.DomainResource--><a href="DomainResource.html" target="_top" xlink:actuate="onRequest" xlink:show="new" xlink:title="DomainResource.html" xlink:type="simple"><rect fill="#FEFECE" filter="url(#f166ittn2tufiw)" height="59.2207" id="com.ibm.fhir.model.resource.DomainResource" style="stroke: #A80036; stroke-width: 1.5;" width="171" x="48.5" y="8"/><ellipse cx="63.5" cy="27.1328" fill="#A9DCDF" rx="11" ry="11" style="stroke: #A80036; stroke-width: 1.0;"/><path d="M63.6133,22.731 L62.4595,27.8027 L64.7754,27.8027 Z M62.1191,20.4897 L65.1157,20.4897 L68.4609,32.8828 L66.0122,32.8828 L65.2485,29.8198 L61.9697,29.8198 L61.2227,32.8828 L58.7739,32.8828 Z "/><text fill="#000000" font-family="sans-serif" font-size="14" font-style="italic" lengthAdjust="spacingAndGlyphs" textLength="116" x="89" y="26.5352">DomainResource</text><text fill="#000000" font-family="sans-serif" font-size="10" font-style="italic" lengthAdjust="spacingAndGlyphs" textLength="139" x="77.5" y="39.1563">com.ibm.fhir.model.resource</text><line style="stroke: #A80036; stroke-width: 1.5;" x1="49.5" x2="218.5" y1="46.2656" y2="46.2656"/><ellipse cx="59.5" cy="58.2432" fill="#84BE84" rx="3" ry="3" style="stroke: #038048; stroke-width: 1.0;"/><text fill="#000000" font-family="sans-serif" font-size="11" font-style="italic" lengthAdjust="spacingAndGlyphs" textLength="99" x="68.5" y="60.9004">toBuilder(): Builder</text></a><!--class com.ibm.fhir.model.resource.Endpoint.Builder--><a href="Endpoint.Builder.html" target="_top" xlink:actuate="onRequest" xlink:show="new" xlink:title="Endpoint.Builder.html" xlink:type="simple"><rect fill="#FEFECE" filter="url(#f166ittn2tufiw)" height="38.2656" id="com.ibm.fhir.model.resource.Endpoint.Builder" style="stroke: #A80036; stroke-width: 1.5;" width="171" x="48.5" y="428"/><ellipse cx="63.5" cy="447.1328" fill="#ADD1B2" rx="11" ry="11" style="stroke: #A80036; stroke-width: 1.0;"/><path d="M65.9731,453.2759 Q65.3921,453.5747 64.7529,453.7241 Q64.1138,453.8735 63.4082,453.8735 Q60.9014,453.8735 59.5815,452.2217 Q58.2617,450.5698 58.2617,447.4487 Q58.2617,444.3193 59.5815,442.6675 Q60.9014,441.0156 63.4082,441.0156 Q64.1138,441.0156 64.7612,441.165 Q65.4087,441.3145 65.9731,441.6133 L65.9731,444.3359 Q65.3423,443.7549 64.7488,443.4851 Q64.1553,443.2153 63.5244,443.2153 Q62.1797,443.2153 61.4949,444.282 Q60.8101,445.3486 60.8101,447.4487 Q60.8101,449.5405 61.4949,450.6072 Q62.1797,451.6738 63.5244,451.6738 Q64.1553,451.6738 64.7488,451.4041 Q65.3423,451.1343 65.9731,450.5532 Z "/><text fill="#000000" font-family="sans-serif" font-size="14" lengthAdjust="spacingAndGlyphs" textLength="114" x="90" y="446.5352">Endpoint.Builder</text><text fill="#000000" font-family="sans-serif" font-size="10" lengthAdjust="spacingAndGlyphs" textLength="139" x="77.5" y="459.1563">com.ibm.fhir.model.resource</text></a><!--link com.ibm.fhir.model.resource.DomainResource to com.ibm.fhir.model.resource.Endpoint--><path d="M134,87.2415 C134,99.3496 134,112.8287 134,126.6838 " fill="none" id="com.ibm.fhir.model.resource.DomainResource-com.ibm.fhir.model.resource.Endpoint" style="stroke: #A80036; stroke-width: 1.0;"/><polygon fill="none" points="127.0001,87.1425,134,67.1425,141.0001,87.1424,127.0001,87.1425" style="stroke: #A80036; stroke-width: 1.0;"/><!--link com.ibm.fhir.model.resource.Endpoint to com.ibm.fhir.model.resource.Endpoint.Builder--><path d="M134,383.1606 C134,400.6205 134,416.3865 134,427.8824 " fill="none" id="com.ibm.fhir.model.resource.Endpoint-com.ibm.fhir.model.resource.Endpoint.Builder" style="stroke: #A80036; stroke-width: 1.0;"/><ellipse cx="134.0001" cy="376.1523" fill="#FFFFFF" rx="8" ry="8" style="stroke: #A80036; stroke-width: 1.0;"/><line style="stroke: #A80036; stroke-width: 1.0;" x1="134.0002" x2="134" y1="384.1523" y2="368.1523"/><line style="stroke: #A80036; stroke-width: 1.0;" x1="126.0001" x2="142.0001" y1="376.1524" y2="376.1522"/><text fill="#888888" font-family="sans-serif" font-size="10" lengthAdjust="spacingAndGlyphs" textLength="182" x="49" y="485.668">UMLDoclet 2.0.5, PlantUML 1.2019.08</text><!--
@startuml
    set namespaceSeparator none
    hide empty fields
    hide empty methods

    class "<size:14>Endpoint\n<size:10>com.ibm.fhir.model.resource" as com.ibm.fhir.model.resource.Endpoint [[Endpoint.html]] {
        +getIdentifier(): List<Identifier>
        +getStatus(): EndpointStatus
        +getConnectionType(): Coding
        +getName(): String
        +getManagingOrganization(): Reference
        +getContact(): List<ContactPoint>
        +getPeriod(): Period
        +getPayloadType(): List<CodeableConcept>
        +getPayloadMimeType(): List<Code>
        +getAddress(): Url
        +getHeader(): List<String>
        +hasChildren(): boolean
        +accept(String, int, Visitor): void
        +toBuilder(): Builder
        {static} +builder(): Builder
    }

    abstract class "<size:14>DomainResource\n<size:10>com.ibm.fhir.model.resource" as com.ibm.fhir.model.resource.DomainResource [[DomainResource.html]] {
        {abstract} +toBuilder(): Builder
    }
    class "<size:14>Endpoint.Builder\n<size:10>com.ibm.fhir.model.resource" as com.ibm.fhir.model.resource.Endpoint.Builder [[Endpoint.Builder.html]]

    com.ibm.fhir.model.resource.DomainResource <|- - com.ibm.fhir.model.resource.Endpoint
    com.ibm.fhir.model.resource.Endpoint +- - com.ibm.fhir.model.resource.Endpoint.Builder

    center footer UMLDoclet 2.0.5, PlantUML 1.2019.08
@enduml

PlantUML version 1.2019.08(Sat Jul 13 15:25:14 EDT 2019)
(APACHE source distribution)
Java Runtime: OpenJDK Runtime Environment
JVM: OpenJDK 64-Bit Server VM
Java Version: 11.0.4+11
Operating System: Mac OS X
OS Version: 10.14.6
Default Encoding: UTF-8
Language: en
Country: US
--></g></svg>