<?xml version="1.0" encoding="UTF-8" standalone="no"?><svg xmlns="http://www.w3.org/2000/svg" xmlns:xlink="http://www.w3.org/1999/xlink" contentScriptType="application/ecmascript" contentStyleType="text/css" height="512px" preserveAspectRatio="none" style="width:786px;height:512px;" version="1.1" viewBox="0 0 786 512" width="786px" zoomAndPan="magnify"><defs><filter height="300%" id="fx7kr8f8ivdu1" width="300%" x="-1" y="-1"><feGaussianBlur result="blurOut" stdDeviation="2.0"/><feColorMatrix in="blurOut" result="blurOut2" type="matrix" values="0 0 0 0 0 0 0 0 0 0 0 0 0 0 0 0 0 0 .4 0"/><feOffset dx="4.0" dy="4.0" in="blurOut2" result="blurOut3"/><feBlend in="SourceGraphic" in2="blurOut3" mode="normal"/></filter></defs><g><!--class com.ibm.fhir.model.resource.ImagingStudy.Series--><a href="ImagingStudy.Series.html" target="_top" xlink:actuate="onRequest" xlink:show="new" xlink:title="ImagingStudy.Series.html" xlink:type="simple"><rect fill="#FEFECE" filter="url(#fx7kr8f8ivdu1)" height="253.5469" id="com.ibm.fhir.model.resource.ImagingStudy.Series" style="stroke: #A80036; stroke-width: 1.5;" width="229" x="272" y="127"/><ellipse cx="313.1" cy="146.1328" fill="#ADD1B2" rx="11" ry="11" style="stroke: #A80036; stroke-width: 1.0;"/><path d="M315.5731,152.2759 Q314.9921,152.5747 314.3529,152.7241 Q313.7138,152.8735 313.0082,152.8735 Q310.5014,152.8735 309.1815,151.2217 Q307.8617,149.5698 307.8617,146.4487 Q307.8617,143.3193 309.1815,141.6675 Q310.5014,140.0156 313.0082,140.0156 Q313.7138,140.0156 314.3612,140.165 Q315.0087,140.3145 315.5731,140.6133 L315.5731,143.3359 Q314.9423,142.7549 314.3488,142.4851 Q313.7553,142.2153 313.1244,142.2153 Q311.7797,142.2153 311.0949,143.282 Q310.4101,144.3486 310.4101,146.4487 Q310.4101,148.5405 311.0949,149.6072 Q311.7797,150.6738 313.1244,150.6738 Q313.7553,150.6738 314.3488,150.4041 Q314.9423,150.1343 315.5731,149.5532 Z "/><text fill="#000000" font-family="sans-serif" font-size="14" lengthAdjust="spacingAndGlyphs" textLength="139" x="332.9" y="145.5352">ImagingStudy.Series</text><text fill="#000000" font-family="sans-serif" font-size="10" lengthAdjust="spacingAndGlyphs" textLength="139" x="332.9" y="158.1563">com.ibm.fhir.model.resource</text><line style="stroke: #A80036; stroke-width: 1.5;" x1="273" x2="500" y1="165.2656" y2="165.2656"/><ellipse cx="283" cy="177.2432" fill="#84BE84" rx="3" ry="3" style="stroke: #038048; stroke-width: 1.0;"/><text fill="#000000" font-family="sans-serif" font-size="11" lengthAdjust="spacingAndGlyphs" textLength="59" x="292" y="179.9004">getUid(): Id</text><ellipse cx="283" cy="190.1982" fill="#84BE84" rx="3" ry="3" style="stroke: #038048; stroke-width: 1.0;"/><text fill="#000000" font-family="sans-serif" font-size="11" lengthAdjust="spacingAndGlyphs" textLength="139" x="292" y="192.8555">getNumber(): UnsignedInt</text><ellipse cx="283" cy="203.1533" fill="#84BE84" rx="3" ry="3" style="stroke: #038048; stroke-width: 1.0;"/><text fill="#000000" font-family="sans-serif" font-size="11" lengthAdjust="spacingAndGlyphs" textLength="115" x="292" y="205.8105">getModality(): Coding</text><ellipse cx="283" cy="216.1084" fill="#84BE84" rx="3" ry="3" style="stroke: #038048; stroke-width: 1.0;"/><text fill="#000000" font-family="sans-serif" font-size="11" lengthAdjust="spacingAndGlyphs" textLength="125" x="292" y="218.7656">getDescription(): String</text><ellipse cx="283" cy="229.0635" fill="#84BE84" rx="3" ry="3" style="stroke: #038048; stroke-width: 1.0;"/><text fill="#000000" font-family="sans-serif" font-size="11" lengthAdjust="spacingAndGlyphs" textLength="203" x="292" y="231.7207">getNumberOfInstances(): UnsignedInt</text><ellipse cx="283" cy="242.0186" fill="#84BE84" rx="3" ry="3" style="stroke: #038048; stroke-width: 1.0;"/><text fill="#000000" font-family="sans-serif" font-size="11" lengthAdjust="spacingAndGlyphs" textLength="169" x="292" y="244.6758">getEndpoint(): List&lt;Reference&gt;</text><ellipse cx="283" cy="254.9736" fill="#84BE84" rx="3" ry="3" style="stroke: #038048; stroke-width: 1.0;"/><text fill="#000000" font-family="sans-serif" font-size="11" lengthAdjust="spacingAndGlyphs" textLength="115" x="292" y="257.6309">getBodySite(): Coding</text><ellipse cx="283" cy="267.9287" fill="#84BE84" rx="3" ry="3" style="stroke: #038048; stroke-width: 1.0;"/><text fill="#000000" font-family="sans-serif" font-size="11" lengthAdjust="spacingAndGlyphs" textLength="119" x="292" y="270.5859">getLaterality(): Coding</text><ellipse cx="283" cy="280.8838" fill="#84BE84" rx="3" ry="3" style="stroke: #038048; stroke-width: 1.0;"/><text fill="#000000" font-family="sans-serif" font-size="11" lengthAdjust="spacingAndGlyphs" textLength="172" x="292" y="283.541">getSpecimen(): List&lt;Reference&gt;</text><ellipse cx="283" cy="293.8389" fill="#84BE84" rx="3" ry="3" style="stroke: #038048; stroke-width: 1.0;"/><text fill="#000000" font-family="sans-serif" font-size="11" lengthAdjust="spacingAndGlyphs" textLength="119" x="292" y="296.4961">getStarted(): DateTime</text><ellipse cx="283" cy="306.7939" fill="#84BE84" rx="3" ry="3" style="stroke: #038048; stroke-width: 1.0;"/><text fill="#000000" font-family="sans-serif" font-size="11" lengthAdjust="spacingAndGlyphs" textLength="176" x="292" y="309.4512">getPerformer(): List&lt;Performer&gt;</text><ellipse cx="283" cy="319.749" fill="#84BE84" rx="3" ry="3" style="stroke: #038048; stroke-width: 1.0;"/><text fill="#000000" font-family="sans-serif" font-size="11" lengthAdjust="spacingAndGlyphs" textLength="158" x="292" y="322.4063">getInstance(): List&lt;Instance&gt;</text><ellipse cx="283" cy="332.7041" fill="#84BE84" rx="3" ry="3" style="stroke: #038048; stroke-width: 1.0;"/><text fill="#000000" font-family="sans-serif" font-size="11" lengthAdjust="spacingAndGlyphs" textLength="122" x="292" y="335.3613">hasChildren(): boolean</text><ellipse cx="283" cy="345.6592" fill="#84BE84" rx="3" ry="3" style="stroke: #038048; stroke-width: 1.0;"/><text fill="#000000" font-family="sans-serif" font-size="11" lengthAdjust="spacingAndGlyphs" textLength="165" x="292" y="348.3164">accept(String, int, Visitor): void</text><ellipse cx="283" cy="358.6143" fill="#84BE84" rx="3" ry="3" style="stroke: #038048; stroke-width: 1.0;"/><text fill="#000000" font-family="sans-serif" font-size="11" lengthAdjust="spacingAndGlyphs" textLength="99" x="292" y="361.2715">toBuilder(): Builder</text><ellipse cx="283" cy="371.5693" fill="#84BE84" rx="3" ry="3" style="stroke: #038048; stroke-width: 1.0;"/><text fill="#000000" font-family="sans-serif" font-size="11" lengthAdjust="spacingAndGlyphs" text-decoration="underline" textLength="89" x="292" y="374.2266">builder(): Builder</text></a><!--class com.ibm.fhir.model.type.BackboneElement--><a href="../type/BackboneElement.html" target="_top" xlink:actuate="onRequest" xlink:show="new" xlink:title="../type/BackboneElement.html" xlink:type="simple"><rect fill="#FEFECE" filter="url(#fx7kr8f8ivdu1)" height="59.2207" id="com.ibm.fhir.model.type.BackboneElement" style="stroke: #A80036; stroke-width: 1.5;" width="153" x="212" y="8"/><ellipse cx="227" cy="27.1328" fill="#A9DCDF" rx="11" ry="11" style="stroke: #A80036; stroke-width: 1.0;"/><path d="M227.1133,22.731 L225.9595,27.8027 L228.2754,27.8027 Z M225.6191,20.4897 L228.6157,20.4897 L231.9609,32.8828 L229.5122,32.8828 L228.7485,29.8198 L225.4697,29.8198 L224.7227,32.8828 L222.2739,32.8828 Z "/><text fill="#000000" font-family="sans-serif" font-size="14" font-style="italic" lengthAdjust="spacingAndGlyphs" textLength="121" x="241" y="26.5352">BackboneElement</text><text fill="#000000" font-family="sans-serif" font-size="10" font-style="italic" lengthAdjust="spacingAndGlyphs" textLength="118" x="242.5" y="39.1563">com.ibm.fhir.model.type</text><line style="stroke: #A80036; stroke-width: 1.5;" x1="213" x2="364" y1="46.2656" y2="46.2656"/><ellipse cx="223" cy="58.2432" fill="#84BE84" rx="3" ry="3" style="stroke: #038048; stroke-width: 1.0;"/><text fill="#000000" font-family="sans-serif" font-size="11" font-style="italic" lengthAdjust="spacingAndGlyphs" textLength="99" x="232" y="60.9004">toBuilder(): Builder</text></a><!--class com.ibm.fhir.model.resource.ImagingStudy--><a href="ImagingStudy.html" target="_top" xlink:actuate="onRequest" xlink:show="new" xlink:title="ImagingStudy.html" xlink:type="simple"><rect fill="#FEFECE" filter="url(#fx7kr8f8ivdu1)" height="38.2656" id="com.ibm.fhir.model.resource.ImagingStudy" style="stroke: #A80036; stroke-width: 1.5;" width="171" x="400" y="18.5"/><ellipse cx="415" cy="37.6328" fill="#ADD1B2" rx="11" ry="11" style="stroke: #A80036; stroke-width: 1.0;"/><path d="M417.4731,43.7759 Q416.8921,44.0747 416.2529,44.2241 Q415.6138,44.3735 414.9082,44.3735 Q412.4014,44.3735 411.0815,42.7217 Q409.7617,41.0698 409.7617,37.9487 Q409.7617,34.8193 411.0815,33.1675 Q412.4014,31.5156 414.9082,31.5156 Q415.6138,31.5156 416.2612,31.665 Q416.9087,31.8145 417.4731,32.1133 L417.4731,34.8359 Q416.8423,34.2549 416.2488,33.9851 Q415.6553,33.7153 415.0244,33.7153 Q413.6797,33.7153 412.9949,34.782 Q412.3101,35.8486 412.3101,37.9487 Q412.3101,40.0405 412.9949,41.1072 Q413.6797,42.1738 415.0244,42.1738 Q415.6553,42.1738 416.2488,41.9041 Q416.8423,41.6343 417.4731,41.0532 Z "/><text fill="#000000" font-family="sans-serif" font-size="14" lengthAdjust="spacingAndGlyphs" textLength="94" x="451.5" y="37.0352">ImagingStudy</text><text fill="#000000" font-family="sans-serif" font-size="10" lengthAdjust="spacingAndGlyphs" textLength="139" x="429" y="49.6563">com.ibm.fhir.model.resource</text></a><!--class com.ibm.fhir.model.resource.ImagingStudy.Series.Builder--><a href="ImagingStudy.Series.Builder.html" target="_top" xlink:actuate="onRequest" xlink:show="new" xlink:title="ImagingStudy.Series.Builder.html" xlink:type="simple"><rect fill="#FEFECE" filter="url(#fx7kr8f8ivdu1)" height="38.2656" id="com.ibm.fhir.model.resource.ImagingStudy.Series.Builder" style="stroke: #A80036; stroke-width: 1.5;" width="223" x="6" y="441"/><ellipse cx="21" cy="460.1328" fill="#ADD1B2" rx="11" ry="11" style="stroke: #A80036; stroke-width: 1.0;"/><path d="M23.4731,466.2759 Q22.8921,466.5747 22.2529,466.7241 Q21.6138,466.8735 20.9082,466.8735 Q18.4014,466.8735 17.0815,465.2217 Q15.7617,463.5698 15.7617,460.4487 Q15.7617,457.3193 17.0815,455.6675 Q18.4014,454.0156 20.9082,454.0156 Q21.6138,454.0156 22.2612,454.165 Q22.9087,454.3145 23.4731,454.6133 L23.4731,457.3359 Q22.8423,456.7549 22.2488,456.4851 Q21.6553,456.2153 21.0244,456.2153 Q19.6797,456.2153 18.9949,457.282 Q18.3101,458.3486 18.3101,460.4487 Q18.3101,462.5405 18.9949,463.6072 Q19.6797,464.6738 21.0244,464.6738 Q21.6553,464.6738 22.2488,464.4041 Q22.8423,464.1343 23.4731,463.5532 Z "/><text fill="#000000" font-family="sans-serif" font-size="14" lengthAdjust="spacingAndGlyphs" textLength="191" x="35" y="459.5352">ImagingStudy.Series.Builder</text><text fill="#000000" font-family="sans-serif" font-size="10" lengthAdjust="spacingAndGlyphs" textLength="139" x="61" y="472.1563">com.ibm.fhir.model.resource</text></a><!--class com.ibm.fhir.model.resource.ImagingStudy.Series.Performer--><a href="ImagingStudy.Series.Performer.html" target="_top" xlink:actuate="onRequest" xlink:show="new" xlink:title="ImagingStudy.Series.Performer.html" xlink:type="simple"><rect fill="#FEFECE" filter="url(#fx7kr8f8ivdu1)" height="38.2656" id="com.ibm.fhir.model.resource.ImagingStudy.Series.Performer" style="stroke: #A80036; stroke-width: 1.5;" width="244" x="264.5" y="441"/><ellipse cx="279.5" cy="460.1328" fill="#ADD1B2" rx="11" ry="11" style="stroke: #A80036; stroke-width: 1.0;"/><path d="M281.9731,466.2759 Q281.3921,466.5747 280.7529,466.7241 Q280.1138,466.8735 279.4082,466.8735 Q276.9014,466.8735 275.5815,465.2217 Q274.2617,463.5698 274.2617,460.4487 Q274.2617,457.3193 275.5815,455.6675 Q276.9014,454.0156 279.4082,454.0156 Q280.1138,454.0156 280.7612,454.165 Q281.4087,454.3145 281.9731,454.6133 L281.9731,457.3359 Q281.3423,456.7549 280.7488,456.4851 Q280.1553,456.2153 279.5244,456.2153 Q278.1797,456.2153 277.4949,457.282 Q276.8101,458.3486 276.8101,460.4487 Q276.8101,462.5405 277.4949,463.6072 Q278.1797,464.6738 279.5244,464.6738 Q280.1553,464.6738 280.7488,464.4041 Q281.3423,464.1343 281.9731,463.5532 Z "/><text fill="#000000" font-family="sans-serif" font-size="14" lengthAdjust="spacingAndGlyphs" textLength="212" x="293.5" y="459.5352">ImagingStudy.Series.Performer</text><text fill="#000000" font-family="sans-serif" font-size="10" lengthAdjust="spacingAndGlyphs" textLength="139" x="330" y="472.1563">com.ibm.fhir.model.resource</text></a><!--class com.ibm.fhir.model.resource.ImagingStudy.Series.Instance--><a href="ImagingStudy.Series.Instance.html" target="_top" xlink:actuate="onRequest" xlink:show="new" xlink:title="ImagingStudy.Series.Instance.html" xlink:type="simple"><rect fill="#FEFECE" filter="url(#fx7kr8f8ivdu1)" height="38.2656" id="com.ibm.fhir.model.resource.ImagingStudy.Series.Instance" style="stroke: #A80036; stroke-width: 1.5;" width="232" x="543.5" y="441"/><ellipse cx="558.5" cy="460.1328" fill="#ADD1B2" rx="11" ry="11" style="stroke: #A80036; stroke-width: 1.0;"/><path d="M560.9731,466.2759 Q560.3921,466.5747 559.7529,466.7241 Q559.1138,466.8735 558.4082,466.8735 Q555.9014,466.8735 554.5815,465.2217 Q553.2617,463.5698 553.2617,460.4487 Q553.2617,457.3193 554.5815,455.6675 Q555.9014,454.0156 558.4082,454.0156 Q559.1138,454.0156 559.7612,454.165 Q560.4087,454.3145 560.9731,454.6133 L560.9731,457.3359 Q560.3423,456.7549 559.7488,456.4851 Q559.1553,456.2153 558.5244,456.2153 Q557.1797,456.2153 556.4949,457.282 Q555.8101,458.3486 555.8101,460.4487 Q555.8101,462.5405 556.4949,463.6072 Q557.1797,464.6738 558.5244,464.6738 Q559.1553,464.6738 559.7488,464.4041 Q560.3423,464.1343 560.9731,463.5532 Z "/><text fill="#000000" font-family="sans-serif" font-size="14" lengthAdjust="spacingAndGlyphs" textLength="200" x="572.5" y="459.5352">ImagingStudy.Series.Instance</text><text fill="#000000" font-family="sans-serif" font-size="10" lengthAdjust="spacingAndGlyphs" textLength="139" x="603" y="472.1563">com.ibm.fhir.model.resource</text></a><!--link com.ibm.fhir.model.type.BackboneElement to com.ibm.fhir.model.resource.ImagingStudy.Series--><path d="M310.1706,85.3742 C315.8423,97.9042 322.2323,112.021 328.8393,126.617 " fill="none" id="com.ibm.fhir.model.type.BackboneElement-com.ibm.fhir.model.resource.ImagingStudy.Series" style="stroke: #A80036; stroke-width: 1.0;"/><polygon fill="none" points="303.7915,88.2564,301.921,67.1494,316.5457,82.4831,303.7915,88.2564" style="stroke: #A80036; stroke-width: 1.0;"/><!--link com.ibm.fhir.model.resource.ImagingStudy to com.ibm.fhir.model.resource.ImagingStudy.Series--><path d="M470.4573,70.3964 C463.265,86.125 454.1467,106.0656 444.5876,126.9701 " fill="none" id="com.ibm.fhir.model.resource.ImagingStudy-com.ibm.fhir.model.resource.ImagingStudy.Series" style="stroke: #A80036; stroke-width: 1.0;"/><ellipse cx="473.3875" cy="63.9883" fill="#FFFFFF" rx="8" ry="8" style="stroke: #A80036; stroke-width: 1.0;"/><line style="stroke: #A80036; stroke-width: 1.0;" x1="470.0606" x2="476.7144" y1="71.2637" y2="56.7129"/><line style="stroke: #A80036; stroke-width: 1.0;" x1="466.1121" x2="480.6629" y1="60.6614" y2="67.3152"/><!--link com.ibm.fhir.model.resource.ImagingStudy.Series to com.ibm.fhir.model.resource.ImagingStudy.Series.Builder--><path d="M259.4571,351.2893 C215.0117,385.3256 169.4771,420.196 142.3463,440.9727 " fill="none" id="com.ibm.fhir.model.resource.ImagingStudy.Series-com.ibm.fhir.model.resource.ImagingStudy.Series.Builder" style="stroke: #A80036; stroke-width: 1.0;"/><ellipse cx="265.288" cy="346.8241" fill="#FFFFFF" rx="8" ry="8" style="stroke: #A80036; stroke-width: 1.0;"/><line style="stroke: #A80036; stroke-width: 1.0;" x1="258.9365" x2="271.6395" y1="351.6881" y2="341.9601"/><line style="stroke: #A80036; stroke-width: 1.0;" x1="260.424" x2="270.152" y1="340.4726" y2="353.1756"/><!--link com.ibm.fhir.model.resource.ImagingStudy.Series to com.ibm.fhir.model.resource.ImagingStudy.Series.Performer--><path d="M386.5,396.4717 C386.5,413.7643 386.5,429.308 386.5,440.6916 " fill="none" id="com.ibm.fhir.model.resource.ImagingStudy.Series-com.ibm.fhir.model.resource.ImagingStudy.Series.Performer" style="stroke: #A80036; stroke-width: 1.0;"/><ellipse cx="386.5001" cy="389.2385" fill="#FFFFFF" rx="8" ry="8" style="stroke: #A80036; stroke-width: 1.0;"/><line style="stroke: #A80036; stroke-width: 1.0;" x1="386.5002" x2="386.5" y1="397.2385" y2="381.2385"/><line style="stroke: #A80036; stroke-width: 1.0;" x1="378.5001" x2="394.5001" y1="389.2386" y2="389.2384"/><!--link com.ibm.fhir.model.resource.ImagingStudy.Series to com.ibm.fhir.model.resource.ImagingStudy.Series.Instance--><path d="M513.2917,349.6743 C558.9912,384.1582 606.1492,419.7426 634.1374,440.8619 " fill="none" id="com.ibm.fhir.model.resource.ImagingStudy.Series-com.ibm.fhir.model.resource.ImagingStudy.Series.Instance" style="stroke: #A80036; stroke-width: 1.0;"/><ellipse cx="507.4759" cy="345.2859" fill="#FFFFFF" rx="8" ry="8" style="stroke: #A80036; stroke-width: 1.0;"/><line style="stroke: #A80036; stroke-width: 1.0;" x1="513.8618" x2="501.09" y1="350.1047" y2="340.4672"/><line style="stroke: #A80036; stroke-width: 1.0;" x1="502.6572" x2="512.2946" y1="351.6718" y2="338.9"/><text fill="#888888" font-family="sans-serif" font-size="10" lengthAdjust="spacingAndGlyphs" textLength="182" x="306" y="498.668">UMLDoclet 2.0.5, PlantUML 1.2019.08</text><!--
@startuml
    set namespaceSeparator none
    hide empty fields
    hide empty methods

    class "<size:14>ImagingStudy.Series\n<size:10>com.ibm.fhir.model.resource" as com.ibm.fhir.model.resource.ImagingStudy.Series [[ImagingStudy.Series.html]] {
        +getUid(): Id
        +getNumber(): UnsignedInt
        +getModality(): Coding
        +getDescription(): String
        +getNumberOfInstances(): UnsignedInt
        +getEndpoint(): List<Reference>
        +getBodySite(): Coding
        +getLaterality(): Coding
        +getSpecimen(): List<Reference>
        +getStarted(): DateTime
        +getPerformer(): List<Performer>
        +getInstance(): List<Instance>
        +hasChildren(): boolean
        +accept(String, int, Visitor): void
        +toBuilder(): Builder
        {static} +builder(): Builder
    }

    abstract class "<size:14>BackboneElement\n<size:10>com.ibm.fhir.model.type" as com.ibm.fhir.model.type.BackboneElement [[../type/BackboneElement.html]] {
        {abstract} +toBuilder(): Builder
    }
    class "<size:14>ImagingStudy\n<size:10>com.ibm.fhir.model.resource" as com.ibm.fhir.model.resource.ImagingStudy [[ImagingStudy.html]]
    class "<size:14>ImagingStudy.Series.Builder\n<size:10>com.ibm.fhir.model.resource" as com.ibm.fhir.model.resource.ImagingStudy.Series.Builder [[ImagingStudy.Series.Builder.html]]
    class "<size:14>ImagingStudy.Series.Performer\n<size:10>com.ibm.fhir.model.resource" as com.ibm.fhir.model.resource.ImagingStudy.Series.Performer [[ImagingStudy.Series.Performer.html]]
    class "<size:14>ImagingStudy.Series.Instance\n<size:10>com.ibm.fhir.model.resource" as com.ibm.fhir.model.resource.ImagingStudy.Series.Instance [[ImagingStudy.Series.Instance.html]]

    com.ibm.fhir.model.type.BackboneElement <|- - com.ibm.fhir.model.resource.ImagingStudy.Series
    com.ibm.fhir.model.resource.ImagingStudy +- - com.ibm.fhir.model.resource.ImagingStudy.Series
    com.ibm.fhir.model.resource.ImagingStudy.Series +- - com.ibm.fhir.model.resource.ImagingStudy.Series.Builder
    com.ibm.fhir.model.resource.ImagingStudy.Series +- - com.ibm.fhir.model.resource.ImagingStudy.Series.Performer
    com.ibm.fhir.model.resource.ImagingStudy.Series +- - com.ibm.fhir.model.resource.ImagingStudy.Series.Instance

    center footer UMLDoclet 2.0.5, PlantUML 1.2019.08
@enduml

PlantUML version 1.2019.08(Sat Jul 13 15:25:14 EDT 2019)
(APACHE source distribution)
Java Runtime: OpenJDK Runtime Environment
JVM: OpenJDK 64-Bit Server VM
Java Version: 11.0.4+11
Operating System: Mac OS X
OS Version: 10.14.6
Default Encoding: UTF-8
Language: en
Country: US
--></g></svg>