<?xml version="1.0" encoding="UTF-8" standalone="no"?><svg xmlns="http://www.w3.org/2000/svg" xmlns:xlink="http://www.w3.org/1999/xlink" contentScriptType="application/ecmascript" contentStyleType="text/css" height="382px" preserveAspectRatio="none" style="width:456px;height:382px;" version="1.1" viewBox="0 0 456 382" width="456px" zoomAndPan="magnify"><defs><filter height="300%" id="f1bzg1059n10fh" width="300%" x="-1" y="-1"><feGaussianBlur result="blurOut" stdDeviation="2.0"/><feColorMatrix in="blurOut" result="blurOut2" type="matrix" values="0 0 0 0 0 0 0 0 0 0 0 0 0 0 0 0 0 0 .4 0"/><feOffset dx="4.0" dy="4.0" in="blurOut2" result="blurOut3"/><feBlend in="SourceGraphic" in2="blurOut3" mode="normal"/></filter></defs><g><!--class com.ibm.fhir.model.resource.ImplementationGuide.Definition.Parameter--><a href="ImplementationGuide.Definition.Parameter.html" target="_top" xlink:actuate="onRequest" xlink:show="new" xlink:title="ImplementationGuide.Definition.Parameter.html" xlink:type="simple"><rect fill="#FEFECE" filter="url(#f1bzg1059n10fh)" height="123.9961" id="com.ibm.fhir.model.resource.ImplementationGuide.Definition.Parameter" style="stroke: #A80036; stroke-width: 1.5;" width="325" x="38" y="127"/><ellipse cx="53" cy="146.1328" fill="#ADD1B2" rx="11" ry="11" style="stroke: #A80036; stroke-width: 1.0;"/><path d="M55.4731,152.2759 Q54.8921,152.5747 54.2529,152.7241 Q53.6138,152.8735 52.9082,152.8735 Q50.4014,152.8735 49.0815,151.2217 Q47.7617,149.5698 47.7617,146.4487 Q47.7617,143.3193 49.0815,141.6675 Q50.4014,140.0156 52.9082,140.0156 Q53.6138,140.0156 54.2612,140.165 Q54.9087,140.3145 55.4731,140.6133 L55.4731,143.3359 Q54.8423,142.7549 54.2488,142.4851 Q53.6553,142.2153 53.0244,142.2153 Q51.6797,142.2153 50.9949,143.282 Q50.3101,144.3486 50.3101,146.4487 Q50.3101,148.5405 50.9949,149.6072 Q51.6797,150.6738 53.0244,150.6738 Q53.6553,150.6738 54.2488,150.4041 Q54.8423,150.1343 55.4731,149.5532 Z "/><text fill="#000000" font-family="sans-serif" font-size="14" lengthAdjust="spacingAndGlyphs" textLength="293" x="67" y="145.5352">ImplementationGuide.Definition.Parameter</text><text fill="#000000" font-family="sans-serif" font-size="10" lengthAdjust="spacingAndGlyphs" textLength="139" x="144" y="158.1563">com.ibm.fhir.model.resource</text><line style="stroke: #A80036; stroke-width: 1.5;" x1="39" x2="362" y1="165.2656" y2="165.2656"/><ellipse cx="49" cy="177.2432" fill="#84BE84" rx="3" ry="3" style="stroke: #038048; stroke-width: 1.0;"/><text fill="#000000" font-family="sans-serif" font-size="11" lengthAdjust="spacingAndGlyphs" textLength="172" x="58" y="179.9004">getCode(): GuideParameterCode</text><ellipse cx="49" cy="190.1982" fill="#84BE84" rx="3" ry="3" style="stroke: #038048; stroke-width: 1.0;"/><text fill="#000000" font-family="sans-serif" font-size="11" lengthAdjust="spacingAndGlyphs" textLength="92" x="58" y="192.8555">getValue(): String</text><ellipse cx="49" cy="203.1533" fill="#84BE84" rx="3" ry="3" style="stroke: #038048; stroke-width: 1.0;"/><text fill="#000000" font-family="sans-serif" font-size="11" lengthAdjust="spacingAndGlyphs" textLength="122" x="58" y="205.8105">hasChildren(): boolean</text><ellipse cx="49" cy="216.1084" fill="#84BE84" rx="3" ry="3" style="stroke: #038048; stroke-width: 1.0;"/><text fill="#000000" font-family="sans-serif" font-size="11" lengthAdjust="spacingAndGlyphs" textLength="165" x="58" y="218.7656">accept(String, int, Visitor): void</text><ellipse cx="49" cy="229.0635" fill="#84BE84" rx="3" ry="3" style="stroke: #038048; stroke-width: 1.0;"/><text fill="#000000" font-family="sans-serif" font-size="11" lengthAdjust="spacingAndGlyphs" textLength="99" x="58" y="231.7207">toBuilder(): Builder</text><ellipse cx="49" cy="242.0186" fill="#84BE84" rx="3" ry="3" style="stroke: #038048; stroke-width: 1.0;"/><text fill="#000000" font-family="sans-serif" font-size="11" lengthAdjust="spacingAndGlyphs" text-decoration="underline" textLength="89" x="58" y="244.6758">builder(): Builder</text></a><!--class com.ibm.fhir.model.type.BackboneElement--><a href="../type/BackboneElement.html" target="_top" xlink:actuate="onRequest" xlink:show="new" xlink:title="../type/BackboneElement.html" xlink:type="simple"><rect fill="#FEFECE" filter="url(#f1bzg1059n10fh)" height="59.2207" id="com.ibm.fhir.model.type.BackboneElement" style="stroke: #A80036; stroke-width: 1.5;" width="153" x="6" y="8"/><ellipse cx="21" cy="27.1328" fill="#A9DCDF" rx="11" ry="11" style="stroke: #A80036; stroke-width: 1.0;"/><path d="M21.1133,22.731 L19.9595,27.8027 L22.2754,27.8027 Z M19.6191,20.4897 L22.6157,20.4897 L25.9609,32.8828 L23.5122,32.8828 L22.7485,29.8198 L19.4697,29.8198 L18.7227,32.8828 L16.2739,32.8828 Z "/><text fill="#000000" font-family="sans-serif" font-size="14" font-style="italic" lengthAdjust="spacingAndGlyphs" textLength="121" x="35" y="26.5352">BackboneElement</text><text fill="#000000" font-family="sans-serif" font-size="10" font-style="italic" lengthAdjust="spacingAndGlyphs" textLength="118" x="36.5" y="39.1563">com.ibm.fhir.model.type</text><line style="stroke: #A80036; stroke-width: 1.5;" x1="7" x2="158" y1="46.2656" y2="46.2656"/><ellipse cx="17" cy="58.2432" fill="#84BE84" rx="3" ry="3" style="stroke: #038048; stroke-width: 1.0;"/><text fill="#000000" font-family="sans-serif" font-size="11" font-style="italic" lengthAdjust="spacingAndGlyphs" textLength="99" x="26" y="60.9004">toBuilder(): Builder</text></a><!--class com.ibm.fhir.model.resource.ImplementationGuide.Definition--><a href="ImplementationGuide.Definition.html" target="_top" xlink:actuate="onRequest" xlink:show="new" xlink:title="ImplementationGuide.Definition.html" xlink:type="simple"><rect fill="#FEFECE" filter="url(#f1bzg1059n10fh)" height="38.2656" id="com.ibm.fhir.model.resource.ImplementationGuide.Definition" style="stroke: #A80036; stroke-width: 1.5;" width="251" x="194" y="18.5"/><ellipse cx="209" cy="37.6328" fill="#ADD1B2" rx="11" ry="11" style="stroke: #A80036; stroke-width: 1.0;"/><path d="M211.4731,43.7759 Q210.8921,44.0747 210.2529,44.2241 Q209.6138,44.3735 208.9082,44.3735 Q206.4014,44.3735 205.0815,42.7217 Q203.7617,41.0698 203.7617,37.9487 Q203.7617,34.8193 205.0815,33.1675 Q206.4014,31.5156 208.9082,31.5156 Q209.6138,31.5156 210.2612,31.665 Q210.9087,31.8145 211.4731,32.1133 L211.4731,34.8359 Q210.8423,34.2549 210.2488,33.9851 Q209.6553,33.7153 209.0244,33.7153 Q207.6797,33.7153 206.9949,34.782 Q206.3101,35.8486 206.3101,37.9487 Q206.3101,40.0405 206.9949,41.1072 Q207.6797,42.1738 209.0244,42.1738 Q209.6553,42.1738 210.2488,41.9041 Q210.8423,41.6343 211.4731,41.0532 Z "/><text fill="#000000" font-family="sans-serif" font-size="14" lengthAdjust="spacingAndGlyphs" textLength="219" x="223" y="37.0352">ImplementationGuide.Definition</text><text fill="#000000" font-family="sans-serif" font-size="10" lengthAdjust="spacingAndGlyphs" textLength="139" x="263" y="49.6563">com.ibm.fhir.model.resource</text></a><!--class com.ibm.fhir.model.resource.ImplementationGuide.Definition.Parameter.Builder--><a href="ImplementationGuide.Definition.Parameter.Builder.html" target="_top" xlink:actuate="onRequest" xlink:show="new" xlink:title="ImplementationGuide.Definition.Parameter.Builder.html" xlink:type="simple"><rect fill="#FEFECE" filter="url(#f1bzg1059n10fh)" height="38.2656" id="com.ibm.fhir.model.resource.ImplementationGuide.Definition.Parameter.Builder" style="stroke: #A80036; stroke-width: 1.5;" width="377" x="12" y="311"/><ellipse cx="27" cy="330.1328" fill="#ADD1B2" rx="11" ry="11" style="stroke: #A80036; stroke-width: 1.0;"/><path d="M29.4731,336.2759 Q28.8921,336.5747 28.2529,336.7241 Q27.6138,336.8735 26.9082,336.8735 Q24.4014,336.8735 23.0815,335.2217 Q21.7617,333.5698 21.7617,330.4487 Q21.7617,327.3193 23.0815,325.6675 Q24.4014,324.0156 26.9082,324.0156 Q27.6138,324.0156 28.2612,324.165 Q28.9087,324.3145 29.4731,324.6133 L29.4731,327.3359 Q28.8423,326.7549 28.2488,326.4851 Q27.6553,326.2153 27.0244,326.2153 Q25.6797,326.2153 24.9949,327.282 Q24.3101,328.3486 24.3101,330.4487 Q24.3101,332.5405 24.9949,333.6072 Q25.6797,334.6738 27.0244,334.6738 Q27.6553,334.6738 28.2488,334.4041 Q28.8423,334.1343 29.4731,333.5532 Z "/><text fill="#000000" font-family="sans-serif" font-size="14" lengthAdjust="spacingAndGlyphs" textLength="345" x="41" y="329.5352">ImplementationGuide.Definition.Parameter.Builder</text><text fill="#000000" font-family="sans-serif" font-size="10" lengthAdjust="spacingAndGlyphs" textLength="139" x="144" y="342.1563">com.ibm.fhir.model.resource</text></a><!--link com.ibm.fhir.model.type.BackboneElement to com.ibm.fhir.model.resource.ImplementationGuide.Definition.Parameter--><path d="M117.912,82.9654 C128.6705,96.7782 140.6816,112.1993 152.1391,126.9096 " fill="none" id="com.ibm.fhir.model.type.BackboneElement-com.ibm.fhir.model.resource.ImplementationGuide.Definition.Parameter" style="stroke: #A80036; stroke-width: 1.0;"/><polygon fill="none" points="112.2988,87.1504,105.5317,67.0704,123.3439,78.5476,112.2988,87.1504" style="stroke: #A80036; stroke-width: 1.0;"/><!--link com.ibm.fhir.model.resource.ImplementationGuide.Definition to com.ibm.fhir.model.resource.ImplementationGuide.Definition.Parameter--><path d="M295.1161,68.5434 C281.9242,85.3382 265.1459,106.6987 249.3928,126.7541 " fill="none" id="com.ibm.fhir.model.resource.ImplementationGuide.Definition-com.ibm.fhir.model.resource.ImplementationGuide.Definition.Parameter" style="stroke: #A80036; stroke-width: 1.0;"/><ellipse cx="299.487" cy="62.9789" fill="#FFFFFF" rx="8" ry="8" style="stroke: #A80036; stroke-width: 1.0;"/><line style="stroke: #A80036; stroke-width: 1.0;" x1="294.5453" x2="304.4286" y1="69.2702" y2="56.6876"/><line style="stroke: #A80036; stroke-width: 1.0;" x1="293.1957" x2="305.7782" y1="58.0372" y2="67.9205"/><!--link com.ibm.fhir.model.resource.ImplementationGuide.Definition.Parameter to com.ibm.fhir.model.resource.ImplementationGuide.Definition.Parameter.Builder--><path d="M200.5,266.4678 C200.5,282.9897 200.5,298.9963 200.5,310.8098 " fill="none" id="com.ibm.fhir.model.resource.ImplementationGuide.Definition.Parameter-com.ibm.fhir.model.resource.ImplementationGuide.Definition.Parameter.Builder" style="stroke: #A80036; stroke-width: 1.0;"/><ellipse cx="200.5" cy="259.2551" fill="#FFFFFF" rx="8" ry="8" style="stroke: #A80036; stroke-width: 1.0;"/><line style="stroke: #A80036; stroke-width: 1.0;" x1="200.5" x2="200.5" y1="267.2551" y2="251.2551"/><line style="stroke: #A80036; stroke-width: 1.0;" x1="192.5" x2="208.5" y1="259.2551" y2="259.2551"/><text fill="#888888" font-family="sans-serif" font-size="10" lengthAdjust="spacingAndGlyphs" textLength="182" x="140.5" y="368.668">UMLDoclet 2.0.5, PlantUML 1.2019.08</text><!--
@startuml
    set namespaceSeparator none
    hide empty fields
    hide empty methods

    class "<size:14>ImplementationGuide.Definition.Parameter\n<size:10>com.ibm.fhir.model.resource" as com.ibm.fhir.model.resource.ImplementationGuide.Definition.Parameter [[ImplementationGuide.Definition.Parameter.html]] {
        +getCode(): GuideParameterCode
        +getValue(): String
        +hasChildren(): boolean
        +accept(String, int, Visitor): void
        +toBuilder(): Builder
        {static} +builder(): Builder
    }

    abstract class "<size:14>BackboneElement\n<size:10>com.ibm.fhir.model.type" as com.ibm.fhir.model.type.BackboneElement [[../type/BackboneElement.html]] {
        {abstract} +toBuilder(): Builder
    }
    class "<size:14>ImplementationGuide.Definition\n<size:10>com.ibm.fhir.model.resource" as com.ibm.fhir.model.resource.ImplementationGuide.Definition [[ImplementationGuide.Definition.html]]
    class "<size:14>ImplementationGuide.Definition.Parameter.Builder\n<size:10>com.ibm.fhir.model.resource" as com.ibm.fhir.model.resource.ImplementationGuide.Definition.Parameter.Builder [[ImplementationGuide.Definition.Parameter.Builder.html]]

    com.ibm.fhir.model.type.BackboneElement <|- - com.ibm.fhir.model.resource.ImplementationGuide.Definition.Parameter
    com.ibm.fhir.model.resource.ImplementationGuide.Definition +- - com.ibm.fhir.model.resource.ImplementationGuide.Definition.Parameter
    com.ibm.fhir.model.resource.ImplementationGuide.Definition.Parameter +- - com.ibm.fhir.model.resource.ImplementationGuide.Definition.Parameter.Builder

    center footer UMLDoclet 2.0.5, PlantUML 1.2019.08
@enduml

PlantUML version 1.2019.08(Sat Jul 13 15:25:14 EDT 2019)
(APACHE source distribution)
Java Runtime: OpenJDK Runtime Environment
JVM: OpenJDK 64-Bit Server VM
Java Version: 11.0.4+11
Operating System: Mac OS X
OS Version: 10.14.6
Default Encoding: UTF-8
Language: en
Country: US
--></g></svg>