<?xml version="1.0" encoding="UTF-8" standalone="no"?><svg xmlns="http://www.w3.org/2000/svg" xmlns:xlink="http://www.w3.org/1999/xlink" contentScriptType="application/ecmascript" contentStyleType="text/css" height="439px" preserveAspectRatio="none" style="width:428px;height:439px;" version="1.1" viewBox="0 0 428 439" width="428px" zoomAndPan="magnify"><defs><filter height="300%" id="f1tjxhfhwh9e9r" width="300%" x="-1" y="-1"><feGaussianBlur result="blurOut" stdDeviation="2.0"/><feColorMatrix in="blurOut" result="blurOut2" type="matrix" values="0 0 0 0 0 0 0 0 0 0 0 0 0 0 0 0 0 0 .4 0"/><feOffset dx="4.0" dy="4.0" in="blurOut2" result="blurOut3"/><feBlend in="SourceGraphic" in2="blurOut3" mode="normal"/></filter></defs><g><!--class com.ibm.fhir.model.resource.InsurancePlan.Plan.Builder--><a href="InsurancePlan.Plan.Builder.html" target="_top" xlink:actuate="onRequest" xlink:show="new" xlink:title="InsurancePlan.Plan.Builder.html" xlink:type="simple"><rect fill="#FEFECE" filter="url(#f1tjxhfhwh9e9r)" height="279.457" id="com.ibm.fhir.model.resource.InsurancePlan.Plan.Builder" style="stroke: #A80036; stroke-width: 1.5;" width="300" x="69.5" y="127"/><ellipse cx="124.75" cy="146.1328" fill="#ADD1B2" rx="11" ry="11" style="stroke: #A80036; stroke-width: 1.0;"/><path d="M127.2231,152.2759 Q126.6421,152.5747 126.0029,152.7241 Q125.3638,152.8735 124.6582,152.8735 Q122.1514,152.8735 120.8315,151.2217 Q119.5117,149.5698 119.5117,146.4487 Q119.5117,143.3193 120.8315,141.6675 Q122.1514,140.0156 124.6582,140.0156 Q125.3638,140.0156 126.0112,140.165 Q126.6587,140.3145 127.2231,140.6133 L127.2231,143.3359 Q126.5923,142.7549 125.9988,142.4851 Q125.4053,142.2153 124.7744,142.2153 Q123.4297,142.2153 122.7449,143.282 Q122.0601,144.3486 122.0601,146.4487 Q122.0601,148.5405 122.7449,149.6072 Q123.4297,150.6738 124.7744,150.6738 Q125.4053,150.6738 125.9988,150.4041 Q126.5923,150.1343 127.2231,149.5532 Z "/><text fill="#000000" font-family="sans-serif" font-size="14" lengthAdjust="spacingAndGlyphs" textLength="181" x="145.25" y="145.5352">InsurancePlan.Plan.Builder</text><text fill="#000000" font-family="sans-serif" font-size="10" lengthAdjust="spacingAndGlyphs" textLength="139" x="166.25" y="158.1563">com.ibm.fhir.model.resource</text><line style="stroke: #A80036; stroke-width: 1.5;" x1="70.5" x2="368.5" y1="165.2656" y2="165.2656"/><ellipse cx="80.5" cy="177.2432" fill="#84BE84" rx="3" ry="3" style="stroke: #038048; stroke-width: 1.0;"/><text fill="#000000" font-family="sans-serif" font-size="11" lengthAdjust="spacingAndGlyphs" textLength="93" x="89.5" y="179.9004">id(String): Builder</text><ellipse cx="80.5" cy="190.1982" fill="#84BE84" rx="3" ry="3" style="stroke: #038048; stroke-width: 1.0;"/><text fill="#000000" font-family="sans-serif" font-size="11" lengthAdjust="spacingAndGlyphs" textLength="166" x="89.5" y="192.8555">extension(Extension...): Builder</text><ellipse cx="80.5" cy="203.1533" fill="#84BE84" rx="3" ry="3" style="stroke: #038048; stroke-width: 1.0;"/><text fill="#000000" font-family="sans-serif" font-size="11" lengthAdjust="spacingAndGlyphs" textLength="229" x="89.5" y="205.8105">extension(Collection&lt;Extension&gt;): Builder</text><ellipse cx="80.5" cy="216.1084" fill="#84BE84" rx="3" ry="3" style="stroke: #038048; stroke-width: 1.0;"/><text fill="#000000" font-family="sans-serif" font-size="11" lengthAdjust="spacingAndGlyphs" textLength="211" x="89.5" y="218.7656">modifierExtension(Extension...): Builder</text><ellipse cx="80.5" cy="229.0635" fill="#84BE84" rx="3" ry="3" style="stroke: #038048; stroke-width: 1.0;"/><text fill="#000000" font-family="sans-serif" font-size="11" lengthAdjust="spacingAndGlyphs" textLength="274" x="89.5" y="231.7207">modifierExtension(Collection&lt;Extension&gt;): Builder</text><ellipse cx="80.5" cy="242.0186" fill="#84BE84" rx="3" ry="3" style="stroke: #038048; stroke-width: 1.0;"/><text fill="#000000" font-family="sans-serif" font-size="11" lengthAdjust="spacingAndGlyphs" textLength="156" x="89.5" y="244.6758">identifier(Identifier...): Builder</text><ellipse cx="80.5" cy="254.9736" fill="#84BE84" rx="3" ry="3" style="stroke: #038048; stroke-width: 1.0;"/><text fill="#000000" font-family="sans-serif" font-size="11" lengthAdjust="spacingAndGlyphs" textLength="219" x="89.5" y="257.6309">identifier(Collection&lt;Identifier&gt;): Builder</text><ellipse cx="80.5" cy="267.9287" fill="#84BE84" rx="3" ry="3" style="stroke: #038048; stroke-width: 1.0;"/><text fill="#000000" font-family="sans-serif" font-size="11" lengthAdjust="spacingAndGlyphs" textLength="169" x="89.5" y="270.5859">type(CodeableConcept): Builder</text><ellipse cx="80.5" cy="280.8838" fill="#84BE84" rx="3" ry="3" style="stroke: #038048; stroke-width: 1.0;"/><text fill="#000000" font-family="sans-serif" font-size="11" lengthAdjust="spacingAndGlyphs" textLength="187" x="89.5" y="283.541">coverageArea(Reference...): Builder</text><ellipse cx="80.5" cy="293.8389" fill="#84BE84" rx="3" ry="3" style="stroke: #038048; stroke-width: 1.0;"/><text fill="#000000" font-family="sans-serif" font-size="11" lengthAdjust="spacingAndGlyphs" textLength="250" x="89.5" y="296.4961">coverageArea(Collection&lt;Reference&gt;): Builder</text><ellipse cx="80.5" cy="306.7939" fill="#84BE84" rx="3" ry="3" style="stroke: #038048; stroke-width: 1.0;"/><text fill="#000000" font-family="sans-serif" font-size="11" lengthAdjust="spacingAndGlyphs" textLength="156" x="89.5" y="309.4512">network(Reference...): Builder</text><ellipse cx="80.5" cy="319.749" fill="#84BE84" rx="3" ry="3" style="stroke: #038048; stroke-width: 1.0;"/><text fill="#000000" font-family="sans-serif" font-size="11" lengthAdjust="spacingAndGlyphs" textLength="219" x="89.5" y="322.4063">network(Collection&lt;Reference&gt;): Builder</text><ellipse cx="80.5" cy="332.7041" fill="#84BE84" rx="3" ry="3" style="stroke: #038048; stroke-width: 1.0;"/><text fill="#000000" font-family="sans-serif" font-size="11" lengthAdjust="spacingAndGlyphs" textLength="191" x="89.5" y="335.3613">generalCost(GeneralCost...): Builder</text><ellipse cx="80.5" cy="345.6592" fill="#84BE84" rx="3" ry="3" style="stroke: #038048; stroke-width: 1.0;"/><text fill="#000000" font-family="sans-serif" font-size="11" lengthAdjust="spacingAndGlyphs" textLength="254" x="89.5" y="348.3164">generalCost(Collection&lt;GeneralCost&gt;): Builder</text><ellipse cx="80.5" cy="358.6143" fill="#84BE84" rx="3" ry="3" style="stroke: #038048; stroke-width: 1.0;"/><text fill="#000000" font-family="sans-serif" font-size="11" lengthAdjust="spacingAndGlyphs" textLength="192" x="89.5" y="361.2715">specificCost(SpecificCost...): Builder</text><ellipse cx="80.5" cy="371.5693" fill="#84BE84" rx="3" ry="3" style="stroke: #038048; stroke-width: 1.0;"/><text fill="#000000" font-family="sans-serif" font-size="11" lengthAdjust="spacingAndGlyphs" textLength="255" x="89.5" y="374.2266">specificCost(Collection&lt;SpecificCost&gt;): Builder</text><ellipse cx="80.5" cy="384.5244" fill="#84BE84" rx="3" ry="3" style="stroke: #038048; stroke-width: 1.0;"/><text fill="#000000" font-family="sans-serif" font-size="11" lengthAdjust="spacingAndGlyphs" textLength="63" x="89.5" y="387.1816">build(): Plan</text><polygon fill="#FFFF44" points="80.5,392.4795,84.5,396.4795,80.5,400.4795,76.5,396.4795" style="stroke: #B38D22; stroke-width: 1.0;"/><text fill="#000000" font-family="sans-serif" font-size="11" lengthAdjust="spacingAndGlyphs" textLength="99" x="89.5" y="400.1367">from(Plan): Builder</text></a><!--class com.ibm.fhir.model.type.BackboneElement.Builder--><a href="../type/BackboneElement.Builder.html" target="_top" xlink:actuate="onRequest" xlink:show="new" xlink:title="../type/BackboneElement.Builder.html" xlink:type="simple"><rect fill="#FEFECE" filter="url(#f1tjxhfhwh9e9r)" height="59.2207" id="com.ibm.fhir.model.type.BackboneElement.Builder" style="stroke: #A80036; stroke-width: 1.5;" width="205" x="6" y="8"/><ellipse cx="21" cy="27.1328" fill="#A9DCDF" rx="11" ry="11" style="stroke: #A80036; stroke-width: 1.0;"/><path d="M21.1133,22.731 L19.9595,27.8027 L22.2754,27.8027 Z M19.6191,20.4897 L22.6157,20.4897 L25.9609,32.8828 L23.5122,32.8828 L22.7485,29.8198 L19.4697,29.8198 L18.7227,32.8828 L16.2739,32.8828 Z "/><text fill="#000000" font-family="sans-serif" font-size="14" font-style="italic" lengthAdjust="spacingAndGlyphs" textLength="173" x="35" y="26.5352">BackboneElement.Builder</text><text fill="#000000" font-family="sans-serif" font-size="10" font-style="italic" lengthAdjust="spacingAndGlyphs" textLength="118" x="62.5" y="39.1563">com.ibm.fhir.model.type</text><line style="stroke: #A80036; stroke-width: 1.5;" x1="7" x2="210" y1="46.2656" y2="46.2656"/><ellipse cx="17" cy="58.2432" fill="#84BE84" rx="3" ry="3" style="stroke: #038048; stroke-width: 1.0;"/><text fill="#000000" font-family="sans-serif" font-size="11" font-style="italic" lengthAdjust="spacingAndGlyphs" textLength="134" x="26" y="60.9004">build(): BackboneElement</text></a><!--class com.ibm.fhir.model.resource.InsurancePlan.Plan--><a href="InsurancePlan.Plan.html" target="_top" xlink:actuate="onRequest" xlink:show="new" xlink:title="InsurancePlan.Plan.html" xlink:type="simple"><rect fill="#FEFECE" filter="url(#f1tjxhfhwh9e9r)" height="38.2656" id="com.ibm.fhir.model.resource.InsurancePlan.Plan" style="stroke: #A80036; stroke-width: 1.5;" width="171" x="246" y="18.5"/><ellipse cx="261" cy="37.6328" fill="#ADD1B2" rx="11" ry="11" style="stroke: #A80036; stroke-width: 1.0;"/><path d="M263.4731,43.7759 Q262.8921,44.0747 262.2529,44.2241 Q261.6138,44.3735 260.9082,44.3735 Q258.4014,44.3735 257.0815,42.7217 Q255.7617,41.0698 255.7617,37.9487 Q255.7617,34.8193 257.0815,33.1675 Q258.4014,31.5156 260.9082,31.5156 Q261.6138,31.5156 262.2612,31.665 Q262.9087,31.8145 263.4731,32.1133 L263.4731,34.8359 Q262.8423,34.2549 262.2488,33.9851 Q261.6553,33.7153 261.0244,33.7153 Q259.6797,33.7153 258.9949,34.782 Q258.3101,35.8486 258.3101,37.9487 Q258.3101,40.0405 258.9949,41.1072 Q259.6797,42.1738 261.0244,42.1738 Q261.6553,42.1738 262.2488,41.9041 Q262.8423,41.6343 263.4731,41.0532 Z "/><text fill="#000000" font-family="sans-serif" font-size="14" lengthAdjust="spacingAndGlyphs" textLength="129" x="280" y="37.0352">InsurancePlan.Plan</text><text fill="#000000" font-family="sans-serif" font-size="10" lengthAdjust="spacingAndGlyphs" textLength="139" x="275" y="49.6563">com.ibm.fhir.model.resource</text></a><!--link com.ibm.fhir.model.type.BackboneElement.Builder to com.ibm.fhir.model.resource.InsurancePlan.Plan.Builder--><path d="M131.7949,85.5588 C137.8379,98.0259 144.6598,112.0999 151.7632,126.7546 " fill="none" id="com.ibm.fhir.model.type.BackboneElement.Builder-com.ibm.fhir.model.resource.InsurancePlan.Plan.Builder" style="stroke: #A80036; stroke-width: 1.0;"/><polygon fill="none" points="125.4359,88.4882,123.0113,67.4378,138.0339,82.3817,125.4359,88.4882" style="stroke: #A80036; stroke-width: 1.0;"/><!--link com.ibm.fhir.model.resource.InsurancePlan.Plan to com.ibm.fhir.model.resource.InsurancePlan.Plan.Builder--><path d="M315.4848,70.2454 C307.821,85.9151 298.069,105.8545 287.7324,126.9892 " fill="none" id="com.ibm.fhir.model.resource.InsurancePlan.Plan-com.ibm.fhir.model.resource.InsurancePlan.Plan.Builder" style="stroke: #A80036; stroke-width: 1.0;"/><ellipse cx="318.6288" cy="63.817" fill="#FFFFFF" rx="8" ry="8" style="stroke: #A80036; stroke-width: 1.0;"/><line style="stroke: #A80036; stroke-width: 1.0;" x1="315.114" x2="322.1436" y1="71.0035" y2="56.6305"/><line style="stroke: #A80036; stroke-width: 1.0;" x1="311.4423" x2="325.8153" y1="60.3022" y2="67.3318"/><text fill="#888888" font-family="sans-serif" font-size="10" lengthAdjust="spacingAndGlyphs" textLength="182" x="126.5" y="425.668">UMLDoclet 2.0.5, PlantUML 1.2019.08</text><!--
@startuml
    set namespaceSeparator none
    hide empty fields
    hide empty methods

    class "<size:14>InsurancePlan.Plan.Builder\n<size:10>com.ibm.fhir.model.resource" as com.ibm.fhir.model.resource.InsurancePlan.Plan.Builder [[InsurancePlan.Plan.Builder.html]] {
        +id(String): Builder
        +extension(Extension...): Builder
        +extension(Collection<Extension>): Builder
        +modifierExtension(Extension...): Builder
        +modifierExtension(Collection<Extension>): Builder
        +identifier(Identifier...): Builder
        +identifier(Collection<Identifier>): Builder
        +type(CodeableConcept): Builder
        +coverageArea(Reference...): Builder
        +coverageArea(Collection<Reference>): Builder
        +network(Reference...): Builder
        +network(Collection<Reference>): Builder
        +generalCost(GeneralCost...): Builder
        +generalCost(Collection<GeneralCost>): Builder
        +specificCost(SpecificCost...): Builder
        +specificCost(Collection<SpecificCost>): Builder
        +build(): Plan
        #from(Plan): Builder
    }

    abstract class "<size:14>BackboneElement.Builder\n<size:10>com.ibm.fhir.model.type" as com.ibm.fhir.model.type.BackboneElement.Builder [[../type/BackboneElement.Builder.html]] {
        {abstract} +build(): BackboneElement
    }
    class "<size:14>InsurancePlan.Plan\n<size:10>com.ibm.fhir.model.resource" as com.ibm.fhir.model.resource.InsurancePlan.Plan [[InsurancePlan.Plan.html]]

    com.ibm.fhir.model.type.BackboneElement.Builder <|- - com.ibm.fhir.model.resource.InsurancePlan.Plan.Builder
    com.ibm.fhir.model.resource.InsurancePlan.Plan +- - com.ibm.fhir.model.resource.InsurancePlan.Plan.Builder

    center footer UMLDoclet 2.0.5, PlantUML 1.2019.08
@enduml

PlantUML version 1.2019.08(Sat Jul 13 15:25:14 EDT 2019)
(APACHE source distribution)
Java Runtime: OpenJDK Runtime Environment
JVM: OpenJDK 64-Bit Server VM
Java Version: 11.0.4+11
Operating System: Mac OS X
OS Version: 10.14.6
Default Encoding: UTF-8
Language: en
Country: US
--></g></svg>