<?xml version="1.0" encoding="UTF-8" standalone="no"?><svg xmlns="http://www.w3.org/2000/svg" xmlns:xlink="http://www.w3.org/1999/xlink" contentScriptType="application/ecmascript" contentStyleType="text/css" height="408px" preserveAspectRatio="none" style="width:376px;height:408px;" version="1.1" viewBox="0 0 376 408" width="376px" zoomAndPan="magnify"><defs><filter height="300%" id="f1inh1gumap5fb" width="300%" x="-1" y="-1"><feGaussianBlur result="blurOut" stdDeviation="2.0"/><feColorMatrix in="blurOut" result="blurOut2" type="matrix" values="0 0 0 0 0 0 0 0 0 0 0 0 0 0 0 0 0 0 .4 0"/><feOffset dx="4.0" dy="4.0" in="blurOut2" result="blurOut3"/><feBlend in="SourceGraphic" in2="blurOut3" mode="normal"/></filter></defs><g><!--class com.ibm.fhir.model.resource.Invoice.LineItem.PriceComponent--><a href="Invoice.LineItem.PriceComponent.html" target="_top" xlink:actuate="onRequest" xlink:show="new" xlink:title="Invoice.LineItem.PriceComponent.html" xlink:type="simple"><rect fill="#FEFECE" filter="url(#f1inh1gumap5fb)" height="149.9063" id="com.ibm.fhir.model.resource.Invoice.LineItem.PriceComponent" style="stroke: #A80036; stroke-width: 1.5;" width="260" x="50.5" y="127"/><ellipse cx="65.5" cy="146.1328" fill="#ADD1B2" rx="11" ry="11" style="stroke: #A80036; stroke-width: 1.0;"/><path d="M67.9731,152.2759 Q67.3921,152.5747 66.7529,152.7241 Q66.1138,152.8735 65.4082,152.8735 Q62.9014,152.8735 61.5815,151.2217 Q60.2617,149.5698 60.2617,146.4487 Q60.2617,143.3193 61.5815,141.6675 Q62.9014,140.0156 65.4082,140.0156 Q66.1138,140.0156 66.7612,140.165 Q67.4087,140.3145 67.9731,140.6133 L67.9731,143.3359 Q67.3423,142.7549 66.7488,142.4851 Q66.1553,142.2153 65.5244,142.2153 Q64.1797,142.2153 63.4949,143.282 Q62.8101,144.3486 62.8101,146.4487 Q62.8101,148.5405 63.4949,149.6072 Q64.1797,150.6738 65.5244,150.6738 Q66.1553,150.6738 66.7488,150.4041 Q67.3423,150.1343 67.9731,149.5532 Z "/><text fill="#000000" font-family="sans-serif" font-size="14" lengthAdjust="spacingAndGlyphs" textLength="228" x="79.5" y="145.5352">Invoice.LineItem.PriceComponent</text><text fill="#000000" font-family="sans-serif" font-size="10" lengthAdjust="spacingAndGlyphs" textLength="139" x="124" y="158.1563">com.ibm.fhir.model.resource</text><line style="stroke: #A80036; stroke-width: 1.5;" x1="51.5" x2="309.5" y1="165.2656" y2="165.2656"/><ellipse cx="61.5" cy="177.2432" fill="#84BE84" rx="3" ry="3" style="stroke: #038048; stroke-width: 1.0;"/><text fill="#000000" font-family="sans-serif" font-size="11" lengthAdjust="spacingAndGlyphs" textLength="210" x="70.5" y="179.9004">getType(): InvoicePriceComponentType</text><ellipse cx="61.5" cy="190.1982" fill="#84BE84" rx="3" ry="3" style="stroke: #038048; stroke-width: 1.0;"/><text fill="#000000" font-family="sans-serif" font-size="11" lengthAdjust="spacingAndGlyphs" textLength="154" x="70.5" y="192.8555">getCode(): CodeableConcept</text><ellipse cx="61.5" cy="203.1533" fill="#84BE84" rx="3" ry="3" style="stroke: #038048; stroke-width: 1.0;"/><text fill="#000000" font-family="sans-serif" font-size="11" lengthAdjust="spacingAndGlyphs" textLength="107" x="70.5" y="205.8105">getFactor(): Decimal</text><ellipse cx="61.5" cy="216.1084" fill="#84BE84" rx="3" ry="3" style="stroke: #038048; stroke-width: 1.0;"/><text fill="#000000" font-family="sans-serif" font-size="11" lengthAdjust="spacingAndGlyphs" textLength="109" x="70.5" y="218.7656">getAmount(): Money</text><ellipse cx="61.5" cy="229.0635" fill="#84BE84" rx="3" ry="3" style="stroke: #038048; stroke-width: 1.0;"/><text fill="#000000" font-family="sans-serif" font-size="11" lengthAdjust="spacingAndGlyphs" textLength="122" x="70.5" y="231.7207">hasChildren(): boolean</text><ellipse cx="61.5" cy="242.0186" fill="#84BE84" rx="3" ry="3" style="stroke: #038048; stroke-width: 1.0;"/><text fill="#000000" font-family="sans-serif" font-size="11" lengthAdjust="spacingAndGlyphs" textLength="165" x="70.5" y="244.6758">accept(String, int, Visitor): void</text><ellipse cx="61.5" cy="254.9736" fill="#84BE84" rx="3" ry="3" style="stroke: #038048; stroke-width: 1.0;"/><text fill="#000000" font-family="sans-serif" font-size="11" lengthAdjust="spacingAndGlyphs" textLength="99" x="70.5" y="257.6309">toBuilder(): Builder</text><ellipse cx="61.5" cy="267.9287" fill="#84BE84" rx="3" ry="3" style="stroke: #038048; stroke-width: 1.0;"/><text fill="#000000" font-family="sans-serif" font-size="11" lengthAdjust="spacingAndGlyphs" text-decoration="underline" textLength="89" x="70.5" y="270.5859">builder(): Builder</text></a><!--class com.ibm.fhir.model.type.BackboneElement--><a href="../type/BackboneElement.html" target="_top" xlink:actuate="onRequest" xlink:show="new" xlink:title="../type/BackboneElement.html" xlink:type="simple"><rect fill="#FEFECE" filter="url(#f1inh1gumap5fb)" height="59.2207" id="com.ibm.fhir.model.type.BackboneElement" style="stroke: #A80036; stroke-width: 1.5;" width="153" x="6" y="8"/><ellipse cx="21" cy="27.1328" fill="#A9DCDF" rx="11" ry="11" style="stroke: #A80036; stroke-width: 1.0;"/><path d="M21.1133,22.731 L19.9595,27.8027 L22.2754,27.8027 Z M19.6191,20.4897 L22.6157,20.4897 L25.9609,32.8828 L23.5122,32.8828 L22.7485,29.8198 L19.4697,29.8198 L18.7227,32.8828 L16.2739,32.8828 Z "/><text fill="#000000" font-family="sans-serif" font-size="14" font-style="italic" lengthAdjust="spacingAndGlyphs" textLength="121" x="35" y="26.5352">BackboneElement</text><text fill="#000000" font-family="sans-serif" font-size="10" font-style="italic" lengthAdjust="spacingAndGlyphs" textLength="118" x="36.5" y="39.1563">com.ibm.fhir.model.type</text><line style="stroke: #A80036; stroke-width: 1.5;" x1="7" x2="158" y1="46.2656" y2="46.2656"/><ellipse cx="17" cy="58.2432" fill="#84BE84" rx="3" ry="3" style="stroke: #038048; stroke-width: 1.0;"/><text fill="#000000" font-family="sans-serif" font-size="11" font-style="italic" lengthAdjust="spacingAndGlyphs" textLength="99" x="26" y="60.9004">toBuilder(): Builder</text></a><!--class com.ibm.fhir.model.resource.Invoice.LineItem--><a href="Invoice.LineItem.html" target="_top" xlink:actuate="onRequest" xlink:show="new" xlink:title="Invoice.LineItem.html" xlink:type="simple"><rect fill="#FEFECE" filter="url(#f1inh1gumap5fb)" height="38.2656" id="com.ibm.fhir.model.resource.Invoice.LineItem" style="stroke: #A80036; stroke-width: 1.5;" width="171" x="194" y="18.5"/><ellipse cx="209" cy="37.6328" fill="#ADD1B2" rx="11" ry="11" style="stroke: #A80036; stroke-width: 1.0;"/><path d="M211.4731,43.7759 Q210.8921,44.0747 210.2529,44.2241 Q209.6138,44.3735 208.9082,44.3735 Q206.4014,44.3735 205.0815,42.7217 Q203.7617,41.0698 203.7617,37.9487 Q203.7617,34.8193 205.0815,33.1675 Q206.4014,31.5156 208.9082,31.5156 Q209.6138,31.5156 210.2612,31.665 Q210.9087,31.8145 211.4731,32.1133 L211.4731,34.8359 Q210.8423,34.2549 210.2488,33.9851 Q209.6553,33.7153 209.0244,33.7153 Q207.6797,33.7153 206.9949,34.782 Q206.3101,35.8486 206.3101,37.9487 Q206.3101,40.0405 206.9949,41.1072 Q207.6797,42.1738 209.0244,42.1738 Q209.6553,42.1738 210.2488,41.9041 Q210.8423,41.6343 211.4731,41.0532 Z "/><text fill="#000000" font-family="sans-serif" font-size="14" lengthAdjust="spacingAndGlyphs" textLength="110" x="237.5" y="37.0352">Invoice.LineItem</text><text fill="#000000" font-family="sans-serif" font-size="10" lengthAdjust="spacingAndGlyphs" textLength="139" x="223" y="49.6563">com.ibm.fhir.model.resource</text></a><!--class com.ibm.fhir.model.resource.Invoice.LineItem.PriceComponent.Builder--><a href="Invoice.LineItem.PriceComponent.Builder.html" target="_top" xlink:actuate="onRequest" xlink:show="new" xlink:title="Invoice.LineItem.PriceComponent.Builder.html" xlink:type="simple"><rect fill="#FEFECE" filter="url(#f1inh1gumap5fb)" height="38.2656" id="com.ibm.fhir.model.resource.Invoice.LineItem.PriceComponent.Builder" style="stroke: #A80036; stroke-width: 1.5;" width="312" x="24.5" y="337"/><ellipse cx="39.5" cy="356.1328" fill="#ADD1B2" rx="11" ry="11" style="stroke: #A80036; stroke-width: 1.0;"/><path d="M41.9731,362.2759 Q41.3921,362.5747 40.7529,362.7241 Q40.1138,362.8735 39.4082,362.8735 Q36.9014,362.8735 35.5815,361.2217 Q34.2617,359.5698 34.2617,356.4487 Q34.2617,353.3193 35.5815,351.6675 Q36.9014,350.0156 39.4082,350.0156 Q40.1138,350.0156 40.7612,350.165 Q41.4087,350.3145 41.9731,350.6133 L41.9731,353.3359 Q41.3423,352.7549 40.7488,352.4851 Q40.1553,352.2153 39.5244,352.2153 Q38.1797,352.2153 37.4949,353.282 Q36.8101,354.3486 36.8101,356.4487 Q36.8101,358.5405 37.4949,359.6072 Q38.1797,360.6738 39.5244,360.6738 Q40.1553,360.6738 40.7488,360.4041 Q41.3423,360.1343 41.9731,359.5532 Z "/><text fill="#000000" font-family="sans-serif" font-size="14" lengthAdjust="spacingAndGlyphs" textLength="280" x="53.5" y="355.5352">Invoice.LineItem.PriceComponent.Builder</text><text fill="#000000" font-family="sans-serif" font-size="10" lengthAdjust="spacingAndGlyphs" textLength="139" x="124" y="368.1563">com.ibm.fhir.model.resource</text></a><!--link com.ibm.fhir.model.type.BackboneElement to com.ibm.fhir.model.resource.Invoice.LineItem.PriceComponent--><path d="M110.645,84.7435 C118.4908,97.9132 127.2136,112.555 135.762,126.9041 " fill="none" id="com.ibm.fhir.model.type.BackboneElement-com.ibm.fhir.model.resource.Invoice.LineItem.PriceComponent" style="stroke: #A80036; stroke-width: 1.0;"/><polygon fill="none" points="104.4695,88.0544,100.2471,67.2897,116.4969,80.8891,104.4695,88.0544" style="stroke: #A80036; stroke-width: 1.0;"/><!--link com.ibm.fhir.model.resource.Invoice.LineItem to com.ibm.fhir.model.resource.Invoice.LineItem.PriceComponent--><path d="M260.0453,69.8262 C250.2254,86.1432 237.8678,106.6767 225.8402,126.6621 " fill="none" id="com.ibm.fhir.model.resource.Invoice.LineItem-com.ibm.fhir.model.resource.Invoice.LineItem.PriceComponent" style="stroke: #A80036; stroke-width: 1.0;"/><ellipse cx="263.8245" cy="63.5466" fill="#FFFFFF" rx="8" ry="8" style="stroke: #A80036; stroke-width: 1.0;"/><line style="stroke: #A80036; stroke-width: 1.0;" x1="259.6993" x2="267.9497" y1="70.401" y2="56.6922"/><line style="stroke: #A80036; stroke-width: 1.0;" x1="256.9701" x2="270.6789" y1="59.4214" y2="67.6718"/><!--link com.ibm.fhir.model.resource.Invoice.LineItem.PriceComponent to com.ibm.fhir.model.resource.Invoice.LineItem.PriceComponent.Builder--><path d="M180.5,292.4466 C180.5,309.2565 180.5,325.1841 180.5,336.8895 " fill="none" id="com.ibm.fhir.model.resource.Invoice.LineItem.PriceComponent-com.ibm.fhir.model.resource.Invoice.LineItem.PriceComponent.Builder" style="stroke: #A80036; stroke-width: 1.0;"/><ellipse cx="180.5001" cy="285.1955" fill="#FFFFFF" rx="8" ry="8" style="stroke: #A80036; stroke-width: 1.0;"/><line style="stroke: #A80036; stroke-width: 1.0;" x1="180.5002" x2="180.5" y1="293.1955" y2="277.1955"/><line style="stroke: #A80036; stroke-width: 1.0;" x1="172.5001" x2="188.5001" y1="285.1956" y2="285.1954"/><text fill="#888888" font-family="sans-serif" font-size="10" lengthAdjust="spacingAndGlyphs" textLength="182" x="100.5" y="394.668">UMLDoclet 2.0.5, PlantUML 1.2019.08</text><!--
@startuml
    set namespaceSeparator none
    hide empty fields
    hide empty methods

    class "<size:14>Invoice.LineItem.PriceComponent\n<size:10>com.ibm.fhir.model.resource" as com.ibm.fhir.model.resource.Invoice.LineItem.PriceComponent [[Invoice.LineItem.PriceComponent.html]] {
        +getType(): InvoicePriceComponentType
        +getCode(): CodeableConcept
        +getFactor(): Decimal
        +getAmount(): Money
        +hasChildren(): boolean
        +accept(String, int, Visitor): void
        +toBuilder(): Builder
        {static} +builder(): Builder
    }

    abstract class "<size:14>BackboneElement\n<size:10>com.ibm.fhir.model.type" as com.ibm.fhir.model.type.BackboneElement [[../type/BackboneElement.html]] {
        {abstract} +toBuilder(): Builder
    }
    class "<size:14>Invoice.LineItem\n<size:10>com.ibm.fhir.model.resource" as com.ibm.fhir.model.resource.Invoice.LineItem [[Invoice.LineItem.html]]
    class "<size:14>Invoice.LineItem.PriceComponent.Builder\n<size:10>com.ibm.fhir.model.resource" as com.ibm.fhir.model.resource.Invoice.LineItem.PriceComponent.Builder [[Invoice.LineItem.PriceComponent.Builder.html]]

    com.ibm.fhir.model.type.BackboneElement <|- - com.ibm.fhir.model.resource.Invoice.LineItem.PriceComponent
    com.ibm.fhir.model.resource.Invoice.LineItem +- - com.ibm.fhir.model.resource.Invoice.LineItem.PriceComponent
    com.ibm.fhir.model.resource.Invoice.LineItem.PriceComponent +- - com.ibm.fhir.model.resource.Invoice.LineItem.PriceComponent.Builder

    center footer UMLDoclet 2.0.5, PlantUML 1.2019.08
@enduml

PlantUML version 1.2019.08(Sat Jul 13 15:25:14 EDT 2019)
(APACHE source distribution)
Java Runtime: OpenJDK Runtime Environment
JVM: OpenJDK 64-Bit Server VM
Java Version: 11.0.4+11
Operating System: Mac OS X
OS Version: 10.14.6
Default Encoding: UTF-8
Language: en
Country: US
--></g></svg>