<?xml version="1.0" encoding="UTF-8" standalone="no"?><svg xmlns="http://www.w3.org/2000/svg" xmlns:xlink="http://www.w3.org/1999/xlink" contentScriptType="application/ecmascript" contentStyleType="text/css" height="362px" preserveAspectRatio="none" style="width:614px;height:362px;" version="1.1" viewBox="0 0 614 362" width="614px" zoomAndPan="magnify"><defs><filter height="300%" id="f1qpnano96pysh" width="300%" x="-1" y="-1"><feGaussianBlur result="blurOut" stdDeviation="2.0"/><feColorMatrix in="blurOut" result="blurOut2" type="matrix" values="0 0 0 0 0 0 0 0 0 0 0 0 0 0 0 0 0 0 .4 0"/><feOffset dx="4.0" dy="4.0" in="blurOut2" result="blurOut3"/><feBlend in="SourceGraphic" in2="blurOut3" mode="normal"/></filter></defs><g><!--class com.ibm.fhir.model.resource.MedicinalProductIngredient.SpecifiedSubstance.Builder--><a href="MedicinalProductIngredient.SpecifiedSubstance.Builder.html" target="_top" xlink:actuate="onRequest" xlink:show="new" xlink:title="MedicinalProductIngredient.SpecifiedSubstance.Builder.html" xlink:type="simple"><rect fill="#FEFECE" filter="url(#f1qpnano96pysh)" height="201.7266" id="com.ibm.fhir.model.resource.MedicinalProductIngredient.SpecifiedSubstance.Builder" style="stroke: #A80036; stroke-width: 1.5;" width="409" x="62" y="127"/><ellipse cx="77" cy="146.1328" fill="#ADD1B2" rx="11" ry="11" style="stroke: #A80036; stroke-width: 1.0;"/><path d="M79.4731,152.2759 Q78.8921,152.5747 78.2529,152.7241 Q77.6138,152.8735 76.9082,152.8735 Q74.4014,152.8735 73.0815,151.2217 Q71.7617,149.5698 71.7617,146.4487 Q71.7617,143.3193 73.0815,141.6675 Q74.4014,140.0156 76.9082,140.0156 Q77.6138,140.0156 78.2612,140.165 Q78.9087,140.3145 79.4731,140.6133 L79.4731,143.3359 Q78.8423,142.7549 78.2488,142.4851 Q77.6553,142.2153 77.0244,142.2153 Q75.6797,142.2153 74.9949,143.282 Q74.3101,144.3486 74.3101,146.4487 Q74.3101,148.5405 74.9949,149.6072 Q75.6797,150.6738 77.0244,150.6738 Q77.6553,150.6738 78.2488,150.4041 Q78.8423,150.1343 79.4731,149.5532 Z "/><text fill="#000000" font-family="sans-serif" font-size="14" lengthAdjust="spacingAndGlyphs" textLength="377" x="91" y="145.5352">MedicinalProductIngredient.SpecifiedSubstance.Builder</text><text fill="#000000" font-family="sans-serif" font-size="10" lengthAdjust="spacingAndGlyphs" textLength="139" x="210" y="158.1563">com.ibm.fhir.model.resource</text><line style="stroke: #A80036; stroke-width: 1.5;" x1="63" x2="470" y1="165.2656" y2="165.2656"/><ellipse cx="73" cy="177.2432" fill="#84BE84" rx="3" ry="3" style="stroke: #038048; stroke-width: 1.0;"/><text fill="#000000" font-family="sans-serif" font-size="11" lengthAdjust="spacingAndGlyphs" textLength="93" x="82" y="179.9004">id(String): Builder</text><ellipse cx="73" cy="190.1982" fill="#84BE84" rx="3" ry="3" style="stroke: #038048; stroke-width: 1.0;"/><text fill="#000000" font-family="sans-serif" font-size="11" lengthAdjust="spacingAndGlyphs" textLength="166" x="82" y="192.8555">extension(Extension...): Builder</text><ellipse cx="73" cy="203.1533" fill="#84BE84" rx="3" ry="3" style="stroke: #038048; stroke-width: 1.0;"/><text fill="#000000" font-family="sans-serif" font-size="11" lengthAdjust="spacingAndGlyphs" textLength="229" x="82" y="205.8105">extension(Collection&lt;Extension&gt;): Builder</text><ellipse cx="73" cy="216.1084" fill="#84BE84" rx="3" ry="3" style="stroke: #038048; stroke-width: 1.0;"/><text fill="#000000" font-family="sans-serif" font-size="11" lengthAdjust="spacingAndGlyphs" textLength="211" x="82" y="218.7656">modifierExtension(Extension...): Builder</text><ellipse cx="73" cy="229.0635" fill="#84BE84" rx="3" ry="3" style="stroke: #038048; stroke-width: 1.0;"/><text fill="#000000" font-family="sans-serif" font-size="11" lengthAdjust="spacingAndGlyphs" textLength="274" x="82" y="231.7207">modifierExtension(Collection&lt;Extension&gt;): Builder</text><ellipse cx="73" cy="242.0186" fill="#84BE84" rx="3" ry="3" style="stroke: #038048; stroke-width: 1.0;"/><text fill="#000000" font-family="sans-serif" font-size="11" lengthAdjust="spacingAndGlyphs" textLength="172" x="82" y="244.6758">code(CodeableConcept): Builder</text><ellipse cx="73" cy="254.9736" fill="#84BE84" rx="3" ry="3" style="stroke: #038048; stroke-width: 1.0;"/><text fill="#000000" font-family="sans-serif" font-size="11" lengthAdjust="spacingAndGlyphs" textLength="179" x="82" y="257.6309">group(CodeableConcept): Builder</text><ellipse cx="73" cy="267.9287" fill="#84BE84" rx="3" ry="3" style="stroke: #038048; stroke-width: 1.0;"/><text fill="#000000" font-family="sans-serif" font-size="11" lengthAdjust="spacingAndGlyphs" textLength="222" x="82" y="270.5859">confidentiality(CodeableConcept): Builder</text><ellipse cx="73" cy="280.8838" fill="#84BE84" rx="3" ry="3" style="stroke: #038048; stroke-width: 1.0;"/><text fill="#000000" font-family="sans-serif" font-size="11" lengthAdjust="spacingAndGlyphs" textLength="152" x="82" y="283.541">strength(Strength...): Builder</text><ellipse cx="73" cy="293.8389" fill="#84BE84" rx="3" ry="3" style="stroke: #038048; stroke-width: 1.0;"/><text fill="#000000" font-family="sans-serif" font-size="11" lengthAdjust="spacingAndGlyphs" textLength="215" x="82" y="296.4961">strength(Collection&lt;Strength&gt;): Builder</text><ellipse cx="73" cy="306.7939" fill="#84BE84" rx="3" ry="3" style="stroke: #038048; stroke-width: 1.0;"/><text fill="#000000" font-family="sans-serif" font-size="11" lengthAdjust="spacingAndGlyphs" textLength="144" x="82" y="309.4512">build(): SpecifiedSubstance</text><polygon fill="#FFFF44" points="73,314.749,77,318.749,73,322.749,69,318.749" style="stroke: #B38D22; stroke-width: 1.0;"/><text fill="#000000" font-family="sans-serif" font-size="11" lengthAdjust="spacingAndGlyphs" textLength="180" x="82" y="322.4063">from(SpecifiedSubstance): Builder</text></a><!--class com.ibm.fhir.model.type.BackboneElement.Builder--><a href="../type/BackboneElement.Builder.html" target="_top" xlink:actuate="onRequest" xlink:show="new" xlink:title="../type/BackboneElement.Builder.html" xlink:type="simple"><rect fill="#FEFECE" filter="url(#f1qpnano96pysh)" height="59.2207" id="com.ibm.fhir.model.type.BackboneElement.Builder" style="stroke: #A80036; stroke-width: 1.5;" width="205" x="6" y="8"/><ellipse cx="21" cy="27.1328" fill="#A9DCDF" rx="11" ry="11" style="stroke: #A80036; stroke-width: 1.0;"/><path d="M21.1133,22.731 L19.9595,27.8027 L22.2754,27.8027 Z M19.6191,20.4897 L22.6157,20.4897 L25.9609,32.8828 L23.5122,32.8828 L22.7485,29.8198 L19.4697,29.8198 L18.7227,32.8828 L16.2739,32.8828 Z "/><text fill="#000000" font-family="sans-serif" font-size="14" font-style="italic" lengthAdjust="spacingAndGlyphs" textLength="173" x="35" y="26.5352">BackboneElement.Builder</text><text fill="#000000" font-family="sans-serif" font-size="10" font-style="italic" lengthAdjust="spacingAndGlyphs" textLength="118" x="62.5" y="39.1563">com.ibm.fhir.model.type</text><line style="stroke: #A80036; stroke-width: 1.5;" x1="7" x2="210" y1="46.2656" y2="46.2656"/><ellipse cx="17" cy="58.2432" fill="#84BE84" rx="3" ry="3" style="stroke: #038048; stroke-width: 1.0;"/><text fill="#000000" font-family="sans-serif" font-size="11" font-style="italic" lengthAdjust="spacingAndGlyphs" textLength="134" x="26" y="60.9004">build(): BackboneElement</text></a><!--class com.ibm.fhir.model.resource.MedicinalProductIngredient.SpecifiedSubstance--><a href="MedicinalProductIngredient.SpecifiedSubstance.html" target="_top" xlink:actuate="onRequest" xlink:show="new" xlink:title="MedicinalProductIngredient.SpecifiedSubstance.html" xlink:type="simple"><rect fill="#FEFECE" filter="url(#f1qpnano96pysh)" height="38.2656" id="com.ibm.fhir.model.resource.MedicinalProductIngredient.SpecifiedSubstance" style="stroke: #A80036; stroke-width: 1.5;" width="357" x="246" y="18.5"/><ellipse cx="261" cy="37.6328" fill="#ADD1B2" rx="11" ry="11" style="stroke: #A80036; stroke-width: 1.0;"/><path d="M263.4731,43.7759 Q262.8921,44.0747 262.2529,44.2241 Q261.6138,44.3735 260.9082,44.3735 Q258.4014,44.3735 257.0815,42.7217 Q255.7617,41.0698 255.7617,37.9487 Q255.7617,34.8193 257.0815,33.1675 Q258.4014,31.5156 260.9082,31.5156 Q261.6138,31.5156 262.2612,31.665 Q262.9087,31.8145 263.4731,32.1133 L263.4731,34.8359 Q262.8423,34.2549 262.2488,33.9851 Q261.6553,33.7153 261.0244,33.7153 Q259.6797,33.7153 258.9949,34.782 Q258.3101,35.8486 258.3101,37.9487 Q258.3101,40.0405 258.9949,41.1072 Q259.6797,42.1738 261.0244,42.1738 Q261.6553,42.1738 262.2488,41.9041 Q262.8423,41.6343 263.4731,41.0532 Z "/><text fill="#000000" font-family="sans-serif" font-size="14" lengthAdjust="spacingAndGlyphs" textLength="325" x="275" y="37.0352">MedicinalProductIngredient.SpecifiedSubstance</text><text fill="#000000" font-family="sans-serif" font-size="10" lengthAdjust="spacingAndGlyphs" textLength="139" x="368" y="49.6563">com.ibm.fhir.model.resource</text></a><!--link com.ibm.fhir.model.type.BackboneElement.Builder to com.ibm.fhir.model.resource.MedicinalProductIngredient.SpecifiedSubstance.Builder--><path d="M146.2383,83.0009 C157.2468,96.2739 169.7414,111.3386 182.4113,126.6146 " fill="none" id="com.ibm.fhir.model.type.BackboneElement.Builder-com.ibm.fhir.model.resource.MedicinalProductIngredient.SpecifiedSubstance.Builder" style="stroke: #A80036; stroke-width: 1.0;"/><polygon fill="none" points="140.5674,87.1286,133.1875,67.2656,151.3434,78.1911,140.5674,87.1286" style="stroke: #A80036; stroke-width: 1.0;"/><!--link com.ibm.fhir.model.resource.MedicinalProductIngredient.SpecifiedSubstance to com.ibm.fhir.model.resource.MedicinalProductIngredient.SpecifiedSubstance.Builder--><path d="M398.5939,68.7349 C385.1642,84.927 367.9235,105.7141 350.3612,126.8888 " fill="none" id="com.ibm.fhir.model.resource.MedicinalProductIngredient.SpecifiedSubstance-com.ibm.fhir.model.resource.MedicinalProductIngredient.SpecifiedSubstance.Builder" style="stroke: #A80036; stroke-width: 1.0;"/><ellipse cx="403.3734" cy="62.9722" fill="#FFFFFF" rx="8" ry="8" style="stroke: #A80036; stroke-width: 1.0;"/><line style="stroke: #A80036; stroke-width: 1.0;" x1="398.2663" x2="408.4806" y1="69.1298" y2="56.8145"/><line style="stroke: #A80036; stroke-width: 1.0;" x1="397.2158" x2="409.5311" y1="57.865" y2="68.0793"/><text fill="#888888" font-family="sans-serif" font-size="10" lengthAdjust="spacingAndGlyphs" textLength="182" x="219.5" y="348.668">UMLDoclet 2.0.5, PlantUML 1.2019.08</text><!--
@startuml
    set namespaceSeparator none
    hide empty fields
    hide empty methods

    class "<size:14>MedicinalProductIngredient.SpecifiedSubstance.Builder\n<size:10>com.ibm.fhir.model.resource" as com.ibm.fhir.model.resource.MedicinalProductIngredient.SpecifiedSubstance.Builder [[MedicinalProductIngredient.SpecifiedSubstance.Builder.html]] {
        +id(String): Builder
        +extension(Extension...): Builder
        +extension(Collection<Extension>): Builder
        +modifierExtension(Extension...): Builder
        +modifierExtension(Collection<Extension>): Builder
        +code(CodeableConcept): Builder
        +group(CodeableConcept): Builder
        +confidentiality(CodeableConcept): Builder
        +strength(Strength...): Builder
        +strength(Collection<Strength>): Builder
        +build(): SpecifiedSubstance
        #from(SpecifiedSubstance): Builder
    }

    abstract class "<size:14>BackboneElement.Builder\n<size:10>com.ibm.fhir.model.type" as com.ibm.fhir.model.type.BackboneElement.Builder [[../type/BackboneElement.Builder.html]] {
        {abstract} +build(): BackboneElement
    }
    class "<size:14>MedicinalProductIngredient.SpecifiedSubstance\n<size:10>com.ibm.fhir.model.resource" as com.ibm.fhir.model.resource.MedicinalProductIngredient.SpecifiedSubstance [[MedicinalProductIngredient.SpecifiedSubstance.html]]

    com.ibm.fhir.model.type.BackboneElement.Builder <|- - com.ibm.fhir.model.resource.MedicinalProductIngredient.SpecifiedSubstance.Builder
    com.ibm.fhir.model.resource.MedicinalProductIngredient.SpecifiedSubstance +- - com.ibm.fhir.model.resource.MedicinalProductIngredient.SpecifiedSubstance.Builder

    center footer UMLDoclet 2.0.5, PlantUML 1.2019.08
@enduml

PlantUML version 1.2019.08(Sat Jul 13 15:25:14 EDT 2019)
(APACHE source distribution)
Java Runtime: OpenJDK Runtime Environment
JVM: OpenJDK 64-Bit Server VM
Java Version: 11.0.4+11
Operating System: Mac OS X
OS Version: 10.14.6
Default Encoding: UTF-8
Language: en
Country: US
--></g></svg>