<?xml version="1.0" encoding="UTF-8" standalone="no"?><svg xmlns="http://www.w3.org/2000/svg" xmlns:xlink="http://www.w3.org/1999/xlink" contentScriptType="application/ecmascript" contentStyleType="text/css" height="382px" preserveAspectRatio="none" style="width:577px;height:382px;" version="1.1" viewBox="0 0 577 382" width="577px" zoomAndPan="magnify"><defs><filter height="300%" id="f71ssmj2hxlzb" width="300%" x="-1" y="-1"><feGaussianBlur result="blurOut" stdDeviation="2.0"/><feColorMatrix in="blurOut" result="blurOut2" type="matrix" values="0 0 0 0 0 0 0 0 0 0 0 0 0 0 0 0 0 0 .4 0"/><feOffset dx="4.0" dy="4.0" in="blurOut2" result="blurOut3"/><feBlend in="SourceGraphic" in2="blurOut3" mode="normal"/></filter></defs><g><!--class com.ibm.fhir.model.resource.MedicationKnowledge.AdministrationGuidelines.Dosage--><a href="MedicationKnowledge.AdministrationGuidelines.Dosage.html" target="_top" xlink:actuate="onRequest" xlink:show="new" xlink:title="MedicationKnowledge.AdministrationGuidelines.Dosage.html" xlink:type="simple"><rect fill="#FEFECE" filter="url(#f71ssmj2hxlzb)" height="123.9961" id="com.ibm.fhir.model.resource.MedicationKnowledge.AdministrationGuidelines.Dosage" style="stroke: #A80036; stroke-width: 1.5;" width="416" x="32" y="127"/><ellipse cx="47" cy="146.1328" fill="#ADD1B2" rx="11" ry="11" style="stroke: #A80036; stroke-width: 1.0;"/><path d="M49.4731,152.2759 Q48.8921,152.5747 48.2529,152.7241 Q47.6138,152.8735 46.9082,152.8735 Q44.4014,152.8735 43.0815,151.2217 Q41.7617,149.5698 41.7617,146.4487 Q41.7617,143.3193 43.0815,141.6675 Q44.4014,140.0156 46.9082,140.0156 Q47.6138,140.0156 48.2612,140.165 Q48.9087,140.3145 49.4731,140.6133 L49.4731,143.3359 Q48.8423,142.7549 48.2488,142.4851 Q47.6553,142.2153 47.0244,142.2153 Q45.6797,142.2153 44.9949,143.282 Q44.3101,144.3486 44.3101,146.4487 Q44.3101,148.5405 44.9949,149.6072 Q45.6797,150.6738 47.0244,150.6738 Q47.6553,150.6738 48.2488,150.4041 Q48.8423,150.1343 49.4731,149.5532 Z "/><text fill="#000000" font-family="sans-serif" font-size="14" lengthAdjust="spacingAndGlyphs" textLength="384" x="61" y="145.5352">MedicationKnowledge.AdministrationGuidelines.Dosage</text><text fill="#000000" font-family="sans-serif" font-size="10" lengthAdjust="spacingAndGlyphs" textLength="139" x="183.5" y="158.1563">com.ibm.fhir.model.resource</text><line style="stroke: #A80036; stroke-width: 1.5;" x1="33" x2="447" y1="165.2656" y2="165.2656"/><ellipse cx="43" cy="177.2432" fill="#84BE84" rx="3" ry="3" style="stroke: #038048; stroke-width: 1.0;"/><text fill="#000000" font-family="sans-serif" font-size="11" lengthAdjust="spacingAndGlyphs" textLength="152" x="52" y="179.9004">getType(): CodeableConcept</text><ellipse cx="43" cy="190.1982" fill="#84BE84" rx="3" ry="3" style="stroke: #038048; stroke-width: 1.0;"/><text fill="#000000" font-family="sans-serif" font-size="11" lengthAdjust="spacingAndGlyphs" textLength="148" x="52" y="192.8555">getDosage(): List&lt;Dosage&gt;</text><ellipse cx="43" cy="203.1533" fill="#84BE84" rx="3" ry="3" style="stroke: #038048; stroke-width: 1.0;"/><text fill="#000000" font-family="sans-serif" font-size="11" lengthAdjust="spacingAndGlyphs" textLength="122" x="52" y="205.8105">hasChildren(): boolean</text><ellipse cx="43" cy="216.1084" fill="#84BE84" rx="3" ry="3" style="stroke: #038048; stroke-width: 1.0;"/><text fill="#000000" font-family="sans-serif" font-size="11" lengthAdjust="spacingAndGlyphs" textLength="165" x="52" y="218.7656">accept(String, int, Visitor): void</text><ellipse cx="43" cy="229.0635" fill="#84BE84" rx="3" ry="3" style="stroke: #038048; stroke-width: 1.0;"/><text fill="#000000" font-family="sans-serif" font-size="11" lengthAdjust="spacingAndGlyphs" textLength="99" x="52" y="231.7207">toBuilder(): Builder</text><ellipse cx="43" cy="242.0186" fill="#84BE84" rx="3" ry="3" style="stroke: #038048; stroke-width: 1.0;"/><text fill="#000000" font-family="sans-serif" font-size="11" lengthAdjust="spacingAndGlyphs" text-decoration="underline" textLength="89" x="52" y="244.6758">builder(): Builder</text></a><!--class com.ibm.fhir.model.type.BackboneElement--><a href="../type/BackboneElement.html" target="_top" xlink:actuate="onRequest" xlink:show="new" xlink:title="../type/BackboneElement.html" xlink:type="simple"><rect fill="#FEFECE" filter="url(#f71ssmj2hxlzb)" height="59.2207" id="com.ibm.fhir.model.type.BackboneElement" style="stroke: #A80036; stroke-width: 1.5;" width="153" x="17.5" y="8"/><ellipse cx="32.5" cy="27.1328" fill="#A9DCDF" rx="11" ry="11" style="stroke: #A80036; stroke-width: 1.0;"/><path d="M32.6133,22.731 L31.4595,27.8027 L33.7754,27.8027 Z M31.1191,20.4897 L34.1157,20.4897 L37.4609,32.8828 L35.0122,32.8828 L34.2485,29.8198 L30.9697,29.8198 L30.2227,32.8828 L27.7739,32.8828 Z "/><text fill="#000000" font-family="sans-serif" font-size="14" font-style="italic" lengthAdjust="spacingAndGlyphs" textLength="121" x="46.5" y="26.5352">BackboneElement</text><text fill="#000000" font-family="sans-serif" font-size="10" font-style="italic" lengthAdjust="spacingAndGlyphs" textLength="118" x="48" y="39.1563">com.ibm.fhir.model.type</text><line style="stroke: #A80036; stroke-width: 1.5;" x1="18.5" x2="169.5" y1="46.2656" y2="46.2656"/><ellipse cx="28.5" cy="58.2432" fill="#84BE84" rx="3" ry="3" style="stroke: #038048; stroke-width: 1.0;"/><text fill="#000000" font-family="sans-serif" font-size="11" font-style="italic" lengthAdjust="spacingAndGlyphs" textLength="99" x="37.5" y="60.9004">toBuilder(): Builder</text></a><!--class com.ibm.fhir.model.resource.MedicationKnowledge.AdministrationGuidelines--><a href="MedicationKnowledge.AdministrationGuidelines.html" target="_top" xlink:actuate="onRequest" xlink:show="new" xlink:title="MedicationKnowledge.AdministrationGuidelines.html" xlink:type="simple"><rect fill="#FEFECE" filter="url(#f71ssmj2hxlzb)" height="38.2656" id="com.ibm.fhir.model.resource.MedicationKnowledge.AdministrationGuidelines" style="stroke: #A80036; stroke-width: 1.5;" width="361" x="205.5" y="18.5"/><ellipse cx="220.5" cy="37.6328" fill="#ADD1B2" rx="11" ry="11" style="stroke: #A80036; stroke-width: 1.0;"/><path d="M222.9731,43.7759 Q222.3921,44.0747 221.7529,44.2241 Q221.1138,44.3735 220.4082,44.3735 Q217.9014,44.3735 216.5815,42.7217 Q215.2617,41.0698 215.2617,37.9487 Q215.2617,34.8193 216.5815,33.1675 Q217.9014,31.5156 220.4082,31.5156 Q221.1138,31.5156 221.7612,31.665 Q222.4087,31.8145 222.9731,32.1133 L222.9731,34.8359 Q222.3423,34.2549 221.7488,33.9851 Q221.1553,33.7153 220.5244,33.7153 Q219.1797,33.7153 218.4949,34.782 Q217.8101,35.8486 217.8101,37.9487 Q217.8101,40.0405 218.4949,41.1072 Q219.1797,42.1738 220.5244,42.1738 Q221.1553,42.1738 221.7488,41.9041 Q222.3423,41.6343 222.9731,41.0532 Z "/><text fill="#000000" font-family="sans-serif" font-size="14" lengthAdjust="spacingAndGlyphs" textLength="329" x="234.5" y="37.0352">MedicationKnowledge.AdministrationGuidelines</text><text fill="#000000" font-family="sans-serif" font-size="10" lengthAdjust="spacingAndGlyphs" textLength="139" x="329.5" y="49.6563">com.ibm.fhir.model.resource</text></a><!--class com.ibm.fhir.model.resource.MedicationKnowledge.AdministrationGuidelines.Dosage.Builder--><a href="MedicationKnowledge.AdministrationGuidelines.Dosage.Builder.html" target="_top" xlink:actuate="onRequest" xlink:show="new" xlink:title="MedicationKnowledge.AdministrationGuidelines.Dosage.Builder.html" xlink:type="simple"><rect fill="#FEFECE" filter="url(#f71ssmj2hxlzb)" height="38.2656" id="com.ibm.fhir.model.resource.MedicationKnowledge.AdministrationGuidelines.Dosage.Builder" style="stroke: #A80036; stroke-width: 1.5;" width="468" x="6" y="311"/><ellipse cx="21" cy="330.1328" fill="#ADD1B2" rx="11" ry="11" style="stroke: #A80036; stroke-width: 1.0;"/><path d="M23.4731,336.2759 Q22.8921,336.5747 22.2529,336.7241 Q21.6138,336.8735 20.9082,336.8735 Q18.4014,336.8735 17.0815,335.2217 Q15.7617,333.5698 15.7617,330.4487 Q15.7617,327.3193 17.0815,325.6675 Q18.4014,324.0156 20.9082,324.0156 Q21.6138,324.0156 22.2612,324.165 Q22.9087,324.3145 23.4731,324.6133 L23.4731,327.3359 Q22.8423,326.7549 22.2488,326.4851 Q21.6553,326.2153 21.0244,326.2153 Q19.6797,326.2153 18.9949,327.282 Q18.3101,328.3486 18.3101,330.4487 Q18.3101,332.5405 18.9949,333.6072 Q19.6797,334.6738 21.0244,334.6738 Q21.6553,334.6738 22.2488,334.4041 Q22.8423,334.1343 23.4731,333.5532 Z "/><text fill="#000000" font-family="sans-serif" font-size="14" lengthAdjust="spacingAndGlyphs" textLength="436" x="35" y="329.5352">MedicationKnowledge.AdministrationGuidelines.Dosage.Builder</text><text fill="#000000" font-family="sans-serif" font-size="10" lengthAdjust="spacingAndGlyphs" textLength="139" x="183.5" y="342.1563">com.ibm.fhir.model.resource</text></a><!--link com.ibm.fhir.model.type.BackboneElement to com.ibm.fhir.model.resource.MedicationKnowledge.AdministrationGuidelines.Dosage--><path d="M136.5035,81.6047 C150.1456,95.7607 165.5201,111.7143 180.1637,126.9096 " fill="none" id="com.ibm.fhir.model.type.BackboneElement-com.ibm.fhir.model.resource.MedicationKnowledge.AdministrationGuidelines.Dosage" style="stroke: #A80036; stroke-width: 1.0;"/><polygon fill="none" points="131.3348,86.3289,122.4969,67.0704,141.4156,76.6141,131.3348,86.3289" style="stroke: #A80036; stroke-width: 1.0;"/><!--link com.ibm.fhir.model.resource.MedicationKnowledge.AdministrationGuidelines to com.ibm.fhir.model.resource.MedicationKnowledge.AdministrationGuidelines.Dosage--><path d="M357.0305,67.5608 C340.7063,84.5 319.6925,106.3054 299.9862,126.7541 " fill="none" id="com.ibm.fhir.model.resource.MedicationKnowledge.AdministrationGuidelines-com.ibm.fhir.model.resource.MedicationKnowledge.AdministrationGuidelines.Dosage" style="stroke: #A80036; stroke-width: 1.0;"/><ellipse cx="361.9577" cy="62.4481" fill="#FFFFFF" rx="8" ry="8" style="stroke: #A80036; stroke-width: 1.0;"/><line style="stroke: #A80036; stroke-width: 1.0;" x1="356.4064" x2="367.509" y1="68.2085" y2="56.6876"/><line style="stroke: #A80036; stroke-width: 1.0;" x1="356.1972" x2="367.7181" y1="56.8967" y2="67.9994"/><!--link com.ibm.fhir.model.resource.MedicationKnowledge.AdministrationGuidelines.Dosage to com.ibm.fhir.model.resource.MedicationKnowledge.AdministrationGuidelines.Dosage.Builder--><path d="M240,266.4678 C240,282.9897 240,298.9963 240,310.8098 " fill="none" id="com.ibm.fhir.model.resource.MedicationKnowledge.AdministrationGuidelines.Dosage-com.ibm.fhir.model.resource.MedicationKnowledge.AdministrationGuidelines.Dosage.Builder" style="stroke: #A80036; stroke-width: 1.0;"/><ellipse cx="240" cy="259.2551" fill="#FFFFFF" rx="8" ry="8" style="stroke: #A80036; stroke-width: 1.0;"/><line style="stroke: #A80036; stroke-width: 1.0;" x1="240" x2="240" y1="267.2551" y2="251.2551"/><line style="stroke: #A80036; stroke-width: 1.0;" x1="232" x2="248" y1="259.2551" y2="259.2551"/><text fill="#888888" font-family="sans-serif" font-size="10" lengthAdjust="spacingAndGlyphs" textLength="182" x="201.5" y="368.668">UMLDoclet 2.0.5, PlantUML 1.2019.08</text><!--
@startuml
    set namespaceSeparator none
    hide empty fields
    hide empty methods

    class "<size:14>MedicationKnowledge.AdministrationGuidelines.Dosage\n<size:10>com.ibm.fhir.model.resource" as com.ibm.fhir.model.resource.MedicationKnowledge.AdministrationGuidelines.Dosage [[MedicationKnowledge.AdministrationGuidelines.Dosage.html]] {
        +getType(): CodeableConcept
        +getDosage(): List<Dosage>
        +hasChildren(): boolean
        +accept(String, int, Visitor): void
        +toBuilder(): Builder
        {static} +builder(): Builder
    }

    abstract class "<size:14>BackboneElement\n<size:10>com.ibm.fhir.model.type" as com.ibm.fhir.model.type.BackboneElement [[../type/BackboneElement.html]] {
        {abstract} +toBuilder(): Builder
    }
    class "<size:14>MedicationKnowledge.AdministrationGuidelines\n<size:10>com.ibm.fhir.model.resource" as com.ibm.fhir.model.resource.MedicationKnowledge.AdministrationGuidelines [[MedicationKnowledge.AdministrationGuidelines.html]]
    class "<size:14>MedicationKnowledge.AdministrationGuidelines.Dosage.Builder\n<size:10>com.ibm.fhir.model.resource" as com.ibm.fhir.model.resource.MedicationKnowledge.AdministrationGuidelines.Dosage.Builder [[MedicationKnowledge.AdministrationGuidelines.Dosage.Builder.html]]

    com.ibm.fhir.model.type.BackboneElement <|- - com.ibm.fhir.model.resource.MedicationKnowledge.AdministrationGuidelines.Dosage
    com.ibm.fhir.model.resource.MedicationKnowledge.AdministrationGuidelines +- - com.ibm.fhir.model.resource.MedicationKnowledge.AdministrationGuidelines.Dosage
    com.ibm.fhir.model.resource.MedicationKnowledge.AdministrationGuidelines.Dosage +- - com.ibm.fhir.model.resource.MedicationKnowledge.AdministrationGuidelines.Dosage.Builder

    center footer UMLDoclet 2.0.5, PlantUML 1.2019.08
@enduml

PlantUML version 1.2019.08(Sat Jul 13 15:25:14 EDT 2019)
(APACHE source distribution)
Java Runtime: OpenJDK Runtime Environment
JVM: OpenJDK 64-Bit Server VM
Java Version: 11.0.4+11
Operating System: Mac OS X
OS Version: 10.14.6
Default Encoding: UTF-8
Language: en
Country: US
--></g></svg>