<?xml version="1.0" encoding="UTF-8" standalone="no"?><svg xmlns="http://www.w3.org/2000/svg" xmlns:xlink="http://www.w3.org/1999/xlink" contentScriptType="application/ecmascript" contentStyleType="text/css" height="408px" preserveAspectRatio="none" style="width:881px;height:408px;" version="1.1" viewBox="0 0 881 408" width="881px" zoomAndPan="magnify"><defs><filter height="300%" id="f7cffsscljbwh" width="300%" x="-1" y="-1"><feGaussianBlur result="blurOut" stdDeviation="2.0"/><feColorMatrix in="blurOut" result="blurOut2" type="matrix" values="0 0 0 0 0 0 0 0 0 0 0 0 0 0 0 0 0 0 .4 0"/><feOffset dx="4.0" dy="4.0" in="blurOut2" result="blurOut3"/><feBlend in="SourceGraphic" in2="blurOut3" mode="normal"/></filter></defs><g><!--class com.ibm.fhir.model.resource.MedicinalProductIngredient.SpecifiedSubstance--><a href="MedicinalProductIngredient.SpecifiedSubstance.html" target="_top" xlink:actuate="onRequest" xlink:show="new" xlink:title="MedicinalProductIngredient.SpecifiedSubstance.html" xlink:type="simple"><rect fill="#FEFECE" filter="url(#f7cffsscljbwh)" height="149.9063" id="com.ibm.fhir.model.resource.MedicinalProductIngredient.SpecifiedSubstance" style="stroke: #A80036; stroke-width: 1.5;" width="357" x="257" y="127"/><ellipse cx="272" cy="146.1328" fill="#ADD1B2" rx="11" ry="11" style="stroke: #A80036; stroke-width: 1.0;"/><path d="M274.4731,152.2759 Q273.8921,152.5747 273.2529,152.7241 Q272.6138,152.8735 271.9082,152.8735 Q269.4014,152.8735 268.0815,151.2217 Q266.7617,149.5698 266.7617,146.4487 Q266.7617,143.3193 268.0815,141.6675 Q269.4014,140.0156 271.9082,140.0156 Q272.6138,140.0156 273.2612,140.165 Q273.9087,140.3145 274.4731,140.6133 L274.4731,143.3359 Q273.8423,142.7549 273.2488,142.4851 Q272.6553,142.2153 272.0244,142.2153 Q270.6797,142.2153 269.9949,143.282 Q269.3101,144.3486 269.3101,146.4487 Q269.3101,148.5405 269.9949,149.6072 Q270.6797,150.6738 272.0244,150.6738 Q272.6553,150.6738 273.2488,150.4041 Q273.8423,150.1343 274.4731,149.5532 Z "/><text fill="#000000" font-family="sans-serif" font-size="14" lengthAdjust="spacingAndGlyphs" textLength="325" x="286" y="145.5352">MedicinalProductIngredient.SpecifiedSubstance</text><text fill="#000000" font-family="sans-serif" font-size="10" lengthAdjust="spacingAndGlyphs" textLength="139" x="379" y="158.1563">com.ibm.fhir.model.resource</text><line style="stroke: #A80036; stroke-width: 1.5;" x1="258" x2="613" y1="165.2656" y2="165.2656"/><ellipse cx="268" cy="177.2432" fill="#84BE84" rx="3" ry="3" style="stroke: #038048; stroke-width: 1.0;"/><text fill="#000000" font-family="sans-serif" font-size="11" lengthAdjust="spacingAndGlyphs" textLength="154" x="277" y="179.9004">getCode(): CodeableConcept</text><ellipse cx="268" cy="190.1982" fill="#84BE84" rx="3" ry="3" style="stroke: #038048; stroke-width: 1.0;"/><text fill="#000000" font-family="sans-serif" font-size="11" lengthAdjust="spacingAndGlyphs" textLength="160" x="277" y="192.8555">getGroup(): CodeableConcept</text><ellipse cx="268" cy="203.1533" fill="#84BE84" rx="3" ry="3" style="stroke: #038048; stroke-width: 1.0;"/><text fill="#000000" font-family="sans-serif" font-size="11" lengthAdjust="spacingAndGlyphs" textLength="204" x="277" y="205.8105">getConfidentiality(): CodeableConcept</text><ellipse cx="268" cy="216.1084" fill="#84BE84" rx="3" ry="3" style="stroke: #038048; stroke-width: 1.0;"/><text fill="#000000" font-family="sans-serif" font-size="11" lengthAdjust="spacingAndGlyphs" textLength="160" x="277" y="218.7656">getStrength(): List&lt;Strength&gt;</text><ellipse cx="268" cy="229.0635" fill="#84BE84" rx="3" ry="3" style="stroke: #038048; stroke-width: 1.0;"/><text fill="#000000" font-family="sans-serif" font-size="11" lengthAdjust="spacingAndGlyphs" textLength="122" x="277" y="231.7207">hasChildren(): boolean</text><ellipse cx="268" cy="242.0186" fill="#84BE84" rx="3" ry="3" style="stroke: #038048; stroke-width: 1.0;"/><text fill="#000000" font-family="sans-serif" font-size="11" lengthAdjust="spacingAndGlyphs" textLength="165" x="277" y="244.6758">accept(String, int, Visitor): void</text><ellipse cx="268" cy="254.9736" fill="#84BE84" rx="3" ry="3" style="stroke: #038048; stroke-width: 1.0;"/><text fill="#000000" font-family="sans-serif" font-size="11" lengthAdjust="spacingAndGlyphs" textLength="99" x="277" y="257.6309">toBuilder(): Builder</text><ellipse cx="268" cy="267.9287" fill="#84BE84" rx="3" ry="3" style="stroke: #038048; stroke-width: 1.0;"/><text fill="#000000" font-family="sans-serif" font-size="11" lengthAdjust="spacingAndGlyphs" text-decoration="underline" textLength="89" x="277" y="270.5859">builder(): Builder</text></a><!--class com.ibm.fhir.model.type.BackboneElement--><a href="../type/BackboneElement.html" target="_top" xlink:actuate="onRequest" xlink:show="new" xlink:title="../type/BackboneElement.html" xlink:type="simple"><rect fill="#FEFECE" filter="url(#f7cffsscljbwh)" height="59.2207" id="com.ibm.fhir.model.type.BackboneElement" style="stroke: #A80036; stroke-width: 1.5;" width="153" x="248" y="8"/><ellipse cx="263" cy="27.1328" fill="#A9DCDF" rx="11" ry="11" style="stroke: #A80036; stroke-width: 1.0;"/><path d="M263.1133,22.731 L261.9595,27.8027 L264.2754,27.8027 Z M261.6191,20.4897 L264.6157,20.4897 L267.9609,32.8828 L265.5122,32.8828 L264.7485,29.8198 L261.4697,29.8198 L260.7227,32.8828 L258.2739,32.8828 Z "/><text fill="#000000" font-family="sans-serif" font-size="14" font-style="italic" lengthAdjust="spacingAndGlyphs" textLength="121" x="277" y="26.5352">BackboneElement</text><text fill="#000000" font-family="sans-serif" font-size="10" font-style="italic" lengthAdjust="spacingAndGlyphs" textLength="118" x="278.5" y="39.1563">com.ibm.fhir.model.type</text><line style="stroke: #A80036; stroke-width: 1.5;" x1="249" x2="400" y1="46.2656" y2="46.2656"/><ellipse cx="259" cy="58.2432" fill="#84BE84" rx="3" ry="3" style="stroke: #038048; stroke-width: 1.0;"/><text fill="#000000" font-family="sans-serif" font-size="11" font-style="italic" lengthAdjust="spacingAndGlyphs" textLength="99" x="268" y="60.9004">toBuilder(): Builder</text></a><!--class com.ibm.fhir.model.resource.MedicinalProductIngredient--><a href="MedicinalProductIngredient.html" target="_top" xlink:actuate="onRequest" xlink:show="new" xlink:title="MedicinalProductIngredient.html" xlink:type="simple"><rect fill="#FEFECE" filter="url(#f7cffsscljbwh)" height="38.2656" id="com.ibm.fhir.model.resource.MedicinalProductIngredient" style="stroke: #A80036; stroke-width: 1.5;" width="221" x="436" y="18.5"/><ellipse cx="451" cy="37.6328" fill="#ADD1B2" rx="11" ry="11" style="stroke: #A80036; stroke-width: 1.0;"/><path d="M453.4731,43.7759 Q452.8921,44.0747 452.2529,44.2241 Q451.6138,44.3735 450.9082,44.3735 Q448.4014,44.3735 447.0815,42.7217 Q445.7617,41.0698 445.7617,37.9487 Q445.7617,34.8193 447.0815,33.1675 Q448.4014,31.5156 450.9082,31.5156 Q451.6138,31.5156 452.2612,31.665 Q452.9087,31.8145 453.4731,32.1133 L453.4731,34.8359 Q452.8423,34.2549 452.2488,33.9851 Q451.6553,33.7153 451.0244,33.7153 Q449.6797,33.7153 448.9949,34.782 Q448.3101,35.8486 448.3101,37.9487 Q448.3101,40.0405 448.9949,41.1072 Q449.6797,42.1738 451.0244,42.1738 Q451.6553,42.1738 452.2488,41.9041 Q452.8423,41.6343 453.4731,41.0532 Z "/><text fill="#000000" font-family="sans-serif" font-size="14" lengthAdjust="spacingAndGlyphs" textLength="189" x="465" y="37.0352">MedicinalProductIngredient</text><text fill="#000000" font-family="sans-serif" font-size="10" lengthAdjust="spacingAndGlyphs" textLength="139" x="490" y="49.6563">com.ibm.fhir.model.resource</text></a><!--class com.ibm.fhir.model.resource.MedicinalProductIngredient.SpecifiedSubstance.Builder--><a href="MedicinalProductIngredient.SpecifiedSubstance.Builder.html" target="_top" xlink:actuate="onRequest" xlink:show="new" xlink:title="MedicinalProductIngredient.SpecifiedSubstance.Builder.html" xlink:type="simple"><rect fill="#FEFECE" filter="url(#f7cffsscljbwh)" height="38.2656" id="com.ibm.fhir.model.resource.MedicinalProductIngredient.SpecifiedSubstance.Builder" style="stroke: #A80036; stroke-width: 1.5;" width="409" x="6" y="337"/><ellipse cx="21" cy="356.1328" fill="#ADD1B2" rx="11" ry="11" style="stroke: #A80036; stroke-width: 1.0;"/><path d="M23.4731,362.2759 Q22.8921,362.5747 22.2529,362.7241 Q21.6138,362.8735 20.9082,362.8735 Q18.4014,362.8735 17.0815,361.2217 Q15.7617,359.5698 15.7617,356.4487 Q15.7617,353.3193 17.0815,351.6675 Q18.4014,350.0156 20.9082,350.0156 Q21.6138,350.0156 22.2612,350.165 Q22.9087,350.3145 23.4731,350.6133 L23.4731,353.3359 Q22.8423,352.7549 22.2488,352.4851 Q21.6553,352.2153 21.0244,352.2153 Q19.6797,352.2153 18.9949,353.282 Q18.3101,354.3486 18.3101,356.4487 Q18.3101,358.5405 18.9949,359.6072 Q19.6797,360.6738 21.0244,360.6738 Q21.6553,360.6738 22.2488,360.4041 Q22.8423,360.1343 23.4731,359.5532 Z "/><text fill="#000000" font-family="sans-serif" font-size="14" lengthAdjust="spacingAndGlyphs" textLength="377" x="35" y="355.5352">MedicinalProductIngredient.SpecifiedSubstance.Builder</text><text fill="#000000" font-family="sans-serif" font-size="10" lengthAdjust="spacingAndGlyphs" textLength="139" x="154" y="368.1563">com.ibm.fhir.model.resource</text></a><!--class com.ibm.fhir.model.resource.MedicinalProductIngredient.SpecifiedSubstance.Strength--><a href="MedicinalProductIngredient.SpecifiedSubstance.Strength.html" target="_top" xlink:actuate="onRequest" xlink:show="new" xlink:title="MedicinalProductIngredient.SpecifiedSubstance.Strength.html" xlink:type="simple"><rect fill="#FEFECE" filter="url(#f7cffsscljbwh)" height="38.2656" id="com.ibm.fhir.model.resource.MedicinalProductIngredient.SpecifiedSubstance.Strength" style="stroke: #A80036; stroke-width: 1.5;" width="420" x="450.5" y="337"/><ellipse cx="465.5" cy="356.1328" fill="#ADD1B2" rx="11" ry="11" style="stroke: #A80036; stroke-width: 1.0;"/><path d="M467.9731,362.2759 Q467.3921,362.5747 466.7529,362.7241 Q466.1138,362.8735 465.4082,362.8735 Q462.9014,362.8735 461.5815,361.2217 Q460.2617,359.5698 460.2617,356.4487 Q460.2617,353.3193 461.5815,351.6675 Q462.9014,350.0156 465.4082,350.0156 Q466.1138,350.0156 466.7612,350.165 Q467.4087,350.3145 467.9731,350.6133 L467.9731,353.3359 Q467.3423,352.7549 466.7488,352.4851 Q466.1553,352.2153 465.5244,352.2153 Q464.1797,352.2153 463.4949,353.282 Q462.8101,354.3486 462.8101,356.4487 Q462.8101,358.5405 463.4949,359.6072 Q464.1797,360.6738 465.5244,360.6738 Q466.1553,360.6738 466.7488,360.4041 Q467.3423,360.1343 467.9731,359.5532 Z "/><text fill="#000000" font-family="sans-serif" font-size="14" lengthAdjust="spacingAndGlyphs" textLength="388" x="479.5" y="355.5352">MedicinalProductIngredient.SpecifiedSubstance.Strength</text><text fill="#000000" font-family="sans-serif" font-size="10" lengthAdjust="spacingAndGlyphs" textLength="139" x="604" y="368.1563">com.ibm.fhir.model.resource</text></a><!--link com.ibm.fhir.model.type.BackboneElement to com.ibm.fhir.model.resource.MedicinalProductIngredient.SpecifiedSubstance--><path d="M356.0725,84.2899 C365.038,97.5766 375.0337,112.39 384.8274,126.9041 " fill="none" id="com.ibm.fhir.model.type.BackboneElement-com.ibm.fhir.model.resource.MedicinalProductIngredient.SpecifiedSubstance" style="stroke: #A80036; stroke-width: 1.0;"/><polygon fill="none" points="349.9856,87.7839,344.6013,67.2897,361.5907,79.953,349.9856,87.7839" style="stroke: #A80036; stroke-width: 1.0;"/><!--link com.ibm.fhir.model.resource.MedicinalProductIngredient to com.ibm.fhir.model.resource.MedicinalProductIngredient.SpecifiedSubstance--><path d="M525.02,69.333 C513.9569,85.7283 499.9577,106.4748 486.3359,126.6621 " fill="none" id="com.ibm.fhir.model.resource.MedicinalProductIngredient-com.ibm.fhir.model.resource.MedicinalProductIngredient.SpecifiedSubstance" style="stroke: #A80036; stroke-width: 1.0;"/><ellipse cx="529.075" cy="63.3237" fill="#FFFFFF" rx="8" ry="8" style="stroke: #A80036; stroke-width: 1.0;"/><line style="stroke: #A80036; stroke-width: 1.0;" x1="524.6003" x2="533.5497" y1="69.9552" y2="56.6922"/><line style="stroke: #A80036; stroke-width: 1.0;" x1="522.4435" x2="535.7065" y1="58.849" y2="67.7984"/><!--link com.ibm.fhir.model.resource.MedicinalProductIngredient.SpecifiedSubstance to com.ibm.fhir.model.resource.MedicinalProductIngredient.SpecifiedSubstance.Builder--><path d="M313.1345,285.7524 C285.044,304.9787 257.7803,323.6393 238.4211,336.8895 " fill="none" id="com.ibm.fhir.model.resource.MedicinalProductIngredient.SpecifiedSubstance-com.ibm.fhir.model.resource.MedicinalProductIngredient.SpecifiedSubstance.Builder" style="stroke: #A80036; stroke-width: 1.0;"/><ellipse cx="319.0348" cy="281.714" fill="#FFFFFF" rx="8" ry="8" style="stroke: #A80036; stroke-width: 1.0;"/><line style="stroke: #A80036; stroke-width: 1.0;" x1="312.433" x2="325.6365" y1="286.2326" y2="277.1955"/><line style="stroke: #A80036; stroke-width: 1.0;" x1="314.5162" x2="323.5533" y1="275.1123" y2="288.3158"/><!--link com.ibm.fhir.model.resource.MedicinalProductIngredient.SpecifiedSubstance to com.ibm.fhir.model.resource.MedicinalProductIngredient.SpecifiedSubstance.Strength--><path d="M557.8655,285.7524 C585.956,304.9787 613.2197,323.6393 632.5789,336.8895 " fill="none" id="com.ibm.fhir.model.resource.MedicinalProductIngredient.SpecifiedSubstance-com.ibm.fhir.model.resource.MedicinalProductIngredient.SpecifiedSubstance.Strength" style="stroke: #A80036; stroke-width: 1.0;"/><ellipse cx="551.9652" cy="281.714" fill="#FFFFFF" rx="8" ry="8" style="stroke: #A80036; stroke-width: 1.0;"/><line style="stroke: #A80036; stroke-width: 1.0;" x1="558.567" x2="545.3635" y1="286.2326" y2="277.1955"/><line style="stroke: #A80036; stroke-width: 1.0;" x1="547.4467" x2="556.4838" y1="288.3158" y2="275.1123"/><text fill="#888888" font-family="sans-serif" font-size="10" lengthAdjust="spacingAndGlyphs" textLength="182" x="353.5" y="394.668">UMLDoclet 2.0.5, PlantUML 1.2019.08</text><!--
@startuml
    set namespaceSeparator none
    hide empty fields
    hide empty methods

    class "<size:14>MedicinalProductIngredient.SpecifiedSubstance\n<size:10>com.ibm.fhir.model.resource" as com.ibm.fhir.model.resource.MedicinalProductIngredient.SpecifiedSubstance [[MedicinalProductIngredient.SpecifiedSubstance.html]] {
        +getCode(): CodeableConcept
        +getGroup(): CodeableConcept
        +getConfidentiality(): CodeableConcept
        +getStrength(): List<Strength>
        +hasChildren(): boolean
        +accept(String, int, Visitor): void
        +toBuilder(): Builder
        {static} +builder(): Builder
    }

    abstract class "<size:14>BackboneElement\n<size:10>com.ibm.fhir.model.type" as com.ibm.fhir.model.type.BackboneElement [[../type/BackboneElement.html]] {
        {abstract} +toBuilder(): Builder
    }
    class "<size:14>MedicinalProductIngredient\n<size:10>com.ibm.fhir.model.resource" as com.ibm.fhir.model.resource.MedicinalProductIngredient [[MedicinalProductIngredient.html]]
    class "<size:14>MedicinalProductIngredient.SpecifiedSubstance.Builder\n<size:10>com.ibm.fhir.model.resource" as com.ibm.fhir.model.resource.MedicinalProductIngredient.SpecifiedSubstance.Builder [[MedicinalProductIngredient.SpecifiedSubstance.Builder.html]]
    class "<size:14>MedicinalProductIngredient.SpecifiedSubstance.Strength\n<size:10>com.ibm.fhir.model.resource" as com.ibm.fhir.model.resource.MedicinalProductIngredient.SpecifiedSubstance.Strength [[MedicinalProductIngredient.SpecifiedSubstance.Strength.html]]

    com.ibm.fhir.model.type.BackboneElement <|- - com.ibm.fhir.model.resource.MedicinalProductIngredient.SpecifiedSubstance
    com.ibm.fhir.model.resource.MedicinalProductIngredient +- - com.ibm.fhir.model.resource.MedicinalProductIngredient.SpecifiedSubstance
    com.ibm.fhir.model.resource.MedicinalProductIngredient.SpecifiedSubstance +- - com.ibm.fhir.model.resource.MedicinalProductIngredient.SpecifiedSubstance.Builder
    com.ibm.fhir.model.resource.MedicinalProductIngredient.SpecifiedSubstance +- - com.ibm.fhir.model.resource.MedicinalProductIngredient.SpecifiedSubstance.Strength

    center footer UMLDoclet 2.0.5, PlantUML 1.2019.08
@enduml

PlantUML version 1.2019.08(Sat Jul 13 15:25:14 EDT 2019)
(APACHE source distribution)
Java Runtime: OpenJDK Runtime Environment
JVM: OpenJDK 64-Bit Server VM
Java Version: 11.0.4+11
Operating System: Mac OS X
OS Version: 10.14.6
Default Encoding: UTF-8
Language: en
Country: US
--></g></svg>