<?xml version="1.0" encoding="UTF-8" standalone="no"?><svg xmlns="http://www.w3.org/2000/svg" xmlns:xlink="http://www.w3.org/1999/xlink" contentScriptType="application/ecmascript" contentStyleType="text/css" height="382px" preserveAspectRatio="none" style="width:414px;height:382px;" version="1.1" viewBox="0 0 414 382" width="414px" zoomAndPan="magnify"><defs><filter height="300%" id="f232yuvbf1qh3" width="300%" x="-1" y="-1"><feGaussianBlur result="blurOut" stdDeviation="2.0"/><feColorMatrix in="blurOut" result="blurOut2" type="matrix" values="0 0 0 0 0 0 0 0 0 0 0 0 0 0 0 0 0 0 .4 0"/><feOffset dx="4.0" dy="4.0" in="blurOut2" result="blurOut3"/><feBlend in="SourceGraphic" in2="blurOut3" mode="normal"/></filter></defs><g><!--class com.ibm.fhir.model.resource.MedicationAdministration.Performer--><a href="MedicationAdministration.Performer.html" target="_top" xlink:actuate="onRequest" xlink:show="new" xlink:title="MedicationAdministration.Performer.html" xlink:type="simple"><rect fill="#FEFECE" filter="url(#f232yuvbf1qh3)" height="123.9961" id="com.ibm.fhir.model.resource.MedicationAdministration.Performer" style="stroke: #A80036; stroke-width: 1.5;" width="282" x="49.5" y="127"/><ellipse cx="64.5" cy="146.1328" fill="#ADD1B2" rx="11" ry="11" style="stroke: #A80036; stroke-width: 1.0;"/><path d="M66.9731,152.2759 Q66.3921,152.5747 65.7529,152.7241 Q65.1138,152.8735 64.4082,152.8735 Q61.9014,152.8735 60.5815,151.2217 Q59.2617,149.5698 59.2617,146.4487 Q59.2617,143.3193 60.5815,141.6675 Q61.9014,140.0156 64.4082,140.0156 Q65.1138,140.0156 65.7612,140.165 Q66.4087,140.3145 66.9731,140.6133 L66.9731,143.3359 Q66.3423,142.7549 65.7488,142.4851 Q65.1553,142.2153 64.5244,142.2153 Q63.1797,142.2153 62.4949,143.282 Q61.8101,144.3486 61.8101,146.4487 Q61.8101,148.5405 62.4949,149.6072 Q63.1797,150.6738 64.5244,150.6738 Q65.1553,150.6738 65.7488,150.4041 Q66.3423,150.1343 66.9731,149.5532 Z "/><text fill="#000000" font-family="sans-serif" font-size="14" lengthAdjust="spacingAndGlyphs" textLength="250" x="78.5" y="145.5352">MedicationAdministration.Performer</text><text fill="#000000" font-family="sans-serif" font-size="10" lengthAdjust="spacingAndGlyphs" textLength="139" x="134" y="158.1563">com.ibm.fhir.model.resource</text><line style="stroke: #A80036; stroke-width: 1.5;" x1="50.5" x2="330.5" y1="165.2656" y2="165.2656"/><ellipse cx="60.5" cy="177.2432" fill="#84BE84" rx="3" ry="3" style="stroke: #038048; stroke-width: 1.0;"/><text fill="#000000" font-family="sans-serif" font-size="11" lengthAdjust="spacingAndGlyphs" textLength="173" x="69.5" y="179.9004">getFunction(): CodeableConcept</text><ellipse cx="60.5" cy="190.1982" fill="#84BE84" rx="3" ry="3" style="stroke: #038048; stroke-width: 1.0;"/><text fill="#000000" font-family="sans-serif" font-size="11" lengthAdjust="spacingAndGlyphs" textLength="114" x="69.5" y="192.8555">getActor(): Reference</text><ellipse cx="60.5" cy="203.1533" fill="#84BE84" rx="3" ry="3" style="stroke: #038048; stroke-width: 1.0;"/><text fill="#000000" font-family="sans-serif" font-size="11" lengthAdjust="spacingAndGlyphs" textLength="122" x="69.5" y="205.8105">hasChildren(): boolean</text><ellipse cx="60.5" cy="216.1084" fill="#84BE84" rx="3" ry="3" style="stroke: #038048; stroke-width: 1.0;"/><text fill="#000000" font-family="sans-serif" font-size="11" lengthAdjust="spacingAndGlyphs" textLength="165" x="69.5" y="218.7656">accept(String, int, Visitor): void</text><ellipse cx="60.5" cy="229.0635" fill="#84BE84" rx="3" ry="3" style="stroke: #038048; stroke-width: 1.0;"/><text fill="#000000" font-family="sans-serif" font-size="11" lengthAdjust="spacingAndGlyphs" textLength="99" x="69.5" y="231.7207">toBuilder(): Builder</text><ellipse cx="60.5" cy="242.0186" fill="#84BE84" rx="3" ry="3" style="stroke: #038048; stroke-width: 1.0;"/><text fill="#000000" font-family="sans-serif" font-size="11" lengthAdjust="spacingAndGlyphs" text-decoration="underline" textLength="89" x="69.5" y="244.6758">builder(): Builder</text></a><!--class com.ibm.fhir.model.type.BackboneElement--><a href="../type/BackboneElement.html" target="_top" xlink:actuate="onRequest" xlink:show="new" xlink:title="../type/BackboneElement.html" xlink:type="simple"><rect fill="#FEFECE" filter="url(#f232yuvbf1qh3)" height="59.2207" id="com.ibm.fhir.model.type.BackboneElement" style="stroke: #A80036; stroke-width: 1.5;" width="153" x="6" y="8"/><ellipse cx="21" cy="27.1328" fill="#A9DCDF" rx="11" ry="11" style="stroke: #A80036; stroke-width: 1.0;"/><path d="M21.1133,22.731 L19.9595,27.8027 L22.2754,27.8027 Z M19.6191,20.4897 L22.6157,20.4897 L25.9609,32.8828 L23.5122,32.8828 L22.7485,29.8198 L19.4697,29.8198 L18.7227,32.8828 L16.2739,32.8828 Z "/><text fill="#000000" font-family="sans-serif" font-size="14" font-style="italic" lengthAdjust="spacingAndGlyphs" textLength="121" x="35" y="26.5352">BackboneElement</text><text fill="#000000" font-family="sans-serif" font-size="10" font-style="italic" lengthAdjust="spacingAndGlyphs" textLength="118" x="36.5" y="39.1563">com.ibm.fhir.model.type</text><line style="stroke: #A80036; stroke-width: 1.5;" x1="7" x2="158" y1="46.2656" y2="46.2656"/><ellipse cx="17" cy="58.2432" fill="#84BE84" rx="3" ry="3" style="stroke: #038048; stroke-width: 1.0;"/><text fill="#000000" font-family="sans-serif" font-size="11" font-style="italic" lengthAdjust="spacingAndGlyphs" textLength="99" x="26" y="60.9004">toBuilder(): Builder</text></a><!--class com.ibm.fhir.model.resource.MedicationAdministration--><a href="MedicationAdministration.html" target="_top" xlink:actuate="onRequest" xlink:show="new" xlink:title="MedicationAdministration.html" xlink:type="simple"><rect fill="#FEFECE" filter="url(#f232yuvbf1qh3)" height="38.2656" id="com.ibm.fhir.model.resource.MedicationAdministration" style="stroke: #A80036; stroke-width: 1.5;" width="209" x="194" y="18.5"/><ellipse cx="209" cy="37.6328" fill="#ADD1B2" rx="11" ry="11" style="stroke: #A80036; stroke-width: 1.0;"/><path d="M211.4731,43.7759 Q210.8921,44.0747 210.2529,44.2241 Q209.6138,44.3735 208.9082,44.3735 Q206.4014,44.3735 205.0815,42.7217 Q203.7617,41.0698 203.7617,37.9487 Q203.7617,34.8193 205.0815,33.1675 Q206.4014,31.5156 208.9082,31.5156 Q209.6138,31.5156 210.2612,31.665 Q210.9087,31.8145 211.4731,32.1133 L211.4731,34.8359 Q210.8423,34.2549 210.2488,33.9851 Q209.6553,33.7153 209.0244,33.7153 Q207.6797,33.7153 206.9949,34.782 Q206.3101,35.8486 206.3101,37.9487 Q206.3101,40.0405 206.9949,41.1072 Q207.6797,42.1738 209.0244,42.1738 Q209.6553,42.1738 210.2488,41.9041 Q210.8423,41.6343 211.4731,41.0532 Z "/><text fill="#000000" font-family="sans-serif" font-size="14" lengthAdjust="spacingAndGlyphs" textLength="177" x="223" y="37.0352">MedicationAdministration</text><text fill="#000000" font-family="sans-serif" font-size="10" lengthAdjust="spacingAndGlyphs" textLength="139" x="242" y="49.6563">com.ibm.fhir.model.resource</text></a><!--class com.ibm.fhir.model.resource.MedicationAdministration.Performer.Builder--><a href="MedicationAdministration.Performer.Builder.html" target="_top" xlink:actuate="onRequest" xlink:show="new" xlink:title="MedicationAdministration.Performer.Builder.html" xlink:type="simple"><rect fill="#FEFECE" filter="url(#f232yuvbf1qh3)" height="38.2656" id="com.ibm.fhir.model.resource.MedicationAdministration.Performer.Builder" style="stroke: #A80036; stroke-width: 1.5;" width="334" x="23.5" y="311"/><ellipse cx="38.5" cy="330.1328" fill="#ADD1B2" rx="11" ry="11" style="stroke: #A80036; stroke-width: 1.0;"/><path d="M40.9731,336.2759 Q40.3921,336.5747 39.7529,336.7241 Q39.1138,336.8735 38.4082,336.8735 Q35.9014,336.8735 34.5815,335.2217 Q33.2617,333.5698 33.2617,330.4487 Q33.2617,327.3193 34.5815,325.6675 Q35.9014,324.0156 38.4082,324.0156 Q39.1138,324.0156 39.7612,324.165 Q40.4087,324.3145 40.9731,324.6133 L40.9731,327.3359 Q40.3423,326.7549 39.7488,326.4851 Q39.1553,326.2153 38.5244,326.2153 Q37.1797,326.2153 36.4949,327.282 Q35.8101,328.3486 35.8101,330.4487 Q35.8101,332.5405 36.4949,333.6072 Q37.1797,334.6738 38.5244,334.6738 Q39.1553,334.6738 39.7488,334.4041 Q40.3423,334.1343 40.9731,333.5532 Z "/><text fill="#000000" font-family="sans-serif" font-size="14" lengthAdjust="spacingAndGlyphs" textLength="302" x="52.5" y="329.5352">MedicationAdministration.Performer.Builder</text><text fill="#000000" font-family="sans-serif" font-size="10" lengthAdjust="spacingAndGlyphs" textLength="139" x="134" y="342.1563">com.ibm.fhir.model.resource</text></a><!--link com.ibm.fhir.model.type.BackboneElement to com.ibm.fhir.model.resource.MedicationAdministration.Performer--><path d="M115.236,83.4214 C124.9993,97.1171 135.8662,112.3609 146.2375,126.9096 " fill="none" id="com.ibm.fhir.model.type.BackboneElement-com.ibm.fhir.model.resource.MedicationAdministration.Performer" style="stroke: #A80036; stroke-width: 1.0;"/><polygon fill="none" points="109.4895,87.4193,103.5799,67.0704,120.8894,79.2926,109.4895,87.4193" style="stroke: #A80036; stroke-width: 1.0;"/><!--link com.ibm.fhir.model.resource.MedicationAdministration to com.ibm.fhir.model.resource.MedicationAdministration.Performer--><path d="M276.017,69.0387 C264.0991,85.7569 249.0301,106.8953 234.8733,126.7541 " fill="none" id="com.ibm.fhir.model.resource.MedicationAdministration-com.ibm.fhir.model.resource.MedicationAdministration.Performer" style="stroke: #A80036; stroke-width: 1.0;"/><ellipse cx="280.1779" cy="63.2018" fill="#FFFFFF" rx="8" ry="8" style="stroke: #A80036; stroke-width: 1.0;"/><line style="stroke: #A80036; stroke-width: 1.0;" x1="275.5341" x2="284.8217" y1="69.716" y2="56.6876"/><line style="stroke: #A80036; stroke-width: 1.0;" x1="273.6637" x2="286.6921" y1="58.558" y2="67.8456"/><!--link com.ibm.fhir.model.resource.MedicationAdministration.Performer to com.ibm.fhir.model.resource.MedicationAdministration.Performer.Builder--><path d="M190.5,266.4678 C190.5,282.9897 190.5,298.9963 190.5,310.8098 " fill="none" id="com.ibm.fhir.model.resource.MedicationAdministration.Performer-com.ibm.fhir.model.resource.MedicationAdministration.Performer.Builder" style="stroke: #A80036; stroke-width: 1.0;"/><ellipse cx="190.5" cy="259.2551" fill="#FFFFFF" rx="8" ry="8" style="stroke: #A80036; stroke-width: 1.0;"/><line style="stroke: #A80036; stroke-width: 1.0;" x1="190.5" x2="190.5" y1="267.2551" y2="251.2551"/><line style="stroke: #A80036; stroke-width: 1.0;" x1="182.5" x2="198.5" y1="259.2551" y2="259.2551"/><text fill="#888888" font-family="sans-serif" font-size="10" lengthAdjust="spacingAndGlyphs" textLength="182" x="119.5" y="368.668">UMLDoclet 2.0.5, PlantUML 1.2019.08</text><!--
@startuml
    set namespaceSeparator none
    hide empty fields
    hide empty methods

    class "<size:14>MedicationAdministration.Performer\n<size:10>com.ibm.fhir.model.resource" as com.ibm.fhir.model.resource.MedicationAdministration.Performer [[MedicationAdministration.Performer.html]] {
        +getFunction(): CodeableConcept
        +getActor(): Reference
        +hasChildren(): boolean
        +accept(String, int, Visitor): void
        +toBuilder(): Builder
        {static} +builder(): Builder
    }

    abstract class "<size:14>BackboneElement\n<size:10>com.ibm.fhir.model.type" as com.ibm.fhir.model.type.BackboneElement [[../type/BackboneElement.html]] {
        {abstract} +toBuilder(): Builder
    }
    class "<size:14>MedicationAdministration\n<size:10>com.ibm.fhir.model.resource" as com.ibm.fhir.model.resource.MedicationAdministration [[MedicationAdministration.html]]
    class "<size:14>MedicationAdministration.Performer.Builder\n<size:10>com.ibm.fhir.model.resource" as com.ibm.fhir.model.resource.MedicationAdministration.Performer.Builder [[MedicationAdministration.Performer.Builder.html]]

    com.ibm.fhir.model.type.BackboneElement <|- - com.ibm.fhir.model.resource.MedicationAdministration.Performer
    com.ibm.fhir.model.resource.MedicationAdministration +- - com.ibm.fhir.model.resource.MedicationAdministration.Performer
    com.ibm.fhir.model.resource.MedicationAdministration.Performer +- - com.ibm.fhir.model.resource.MedicationAdministration.Performer.Builder

    center footer UMLDoclet 2.0.5, PlantUML 1.2019.08
@enduml

PlantUML version 1.2019.08(Sat Jul 13 15:25:14 EDT 2019)
(APACHE source distribution)
Java Runtime: OpenJDK Runtime Environment
JVM: OpenJDK 64-Bit Server VM
Java Version: 11.0.4+11
Operating System: Mac OS X
OS Version: 10.14.6
Default Encoding: UTF-8
Language: en
Country: US
--></g></svg>