<?xml version="1.0" encoding="UTF-8" standalone="no"?><svg xmlns="http://www.w3.org/2000/svg" xmlns:xlink="http://www.w3.org/1999/xlink" contentScriptType="application/ecmascript" contentStyleType="text/css" height="369px" preserveAspectRatio="none" style="width:466px;height:369px;" version="1.1" viewBox="0 0 466 369" width="466px" zoomAndPan="magnify"><defs><filter height="300%" id="fbakv22fxt2c1" width="300%" x="-1" y="-1"><feGaussianBlur result="blurOut" stdDeviation="2.0"/><feColorMatrix in="blurOut" result="blurOut2" type="matrix" values="0 0 0 0 0 0 0 0 0 0 0 0 0 0 0 0 0 0 .4 0"/><feOffset dx="4.0" dy="4.0" in="blurOut2" result="blurOut3"/><feBlend in="SourceGraphic" in2="blurOut3" mode="normal"/></filter></defs><g><!--class com.ibm.fhir.model.resource.MedicationKnowledge.Regulatory.Schedule--><a href="MedicationKnowledge.Regulatory.Schedule.html" target="_top" xlink:actuate="onRequest" xlink:show="new" xlink:title="MedicationKnowledge.Regulatory.Schedule.html" xlink:type="simple"><rect fill="#FEFECE" filter="url(#fbakv22fxt2c1)" height="111.041" id="com.ibm.fhir.model.resource.MedicationKnowledge.Regulatory.Schedule" style="stroke: #A80036; stroke-width: 1.5;" width="327" x="40" y="127"/><ellipse cx="55" cy="146.1328" fill="#ADD1B2" rx="11" ry="11" style="stroke: #A80036; stroke-width: 1.0;"/><path d="M57.4731,152.2759 Q56.8921,152.5747 56.2529,152.7241 Q55.6138,152.8735 54.9082,152.8735 Q52.4014,152.8735 51.0815,151.2217 Q49.7617,149.5698 49.7617,146.4487 Q49.7617,143.3193 51.0815,141.6675 Q52.4014,140.0156 54.9082,140.0156 Q55.6138,140.0156 56.2612,140.165 Q56.9087,140.3145 57.4731,140.6133 L57.4731,143.3359 Q56.8423,142.7549 56.2488,142.4851 Q55.6553,142.2153 55.0244,142.2153 Q53.6797,142.2153 52.9949,143.282 Q52.3101,144.3486 52.3101,146.4487 Q52.3101,148.5405 52.9949,149.6072 Q53.6797,150.6738 55.0244,150.6738 Q55.6553,150.6738 56.2488,150.4041 Q56.8423,150.1343 57.4731,149.5532 Z "/><text fill="#000000" font-family="sans-serif" font-size="14" lengthAdjust="spacingAndGlyphs" textLength="295" x="69" y="145.5352">MedicationKnowledge.Regulatory.Schedule</text><text fill="#000000" font-family="sans-serif" font-size="10" lengthAdjust="spacingAndGlyphs" textLength="139" x="147" y="158.1563">com.ibm.fhir.model.resource</text><line style="stroke: #A80036; stroke-width: 1.5;" x1="41" x2="366" y1="165.2656" y2="165.2656"/><ellipse cx="51" cy="177.2432" fill="#84BE84" rx="3" ry="3" style="stroke: #038048; stroke-width: 1.0;"/><text fill="#000000" font-family="sans-serif" font-size="11" lengthAdjust="spacingAndGlyphs" textLength="174" x="60" y="179.9004">getSchedule(): CodeableConcept</text><ellipse cx="51" cy="190.1982" fill="#84BE84" rx="3" ry="3" style="stroke: #038048; stroke-width: 1.0;"/><text fill="#000000" font-family="sans-serif" font-size="11" lengthAdjust="spacingAndGlyphs" textLength="122" x="60" y="192.8555">hasChildren(): boolean</text><ellipse cx="51" cy="203.1533" fill="#84BE84" rx="3" ry="3" style="stroke: #038048; stroke-width: 1.0;"/><text fill="#000000" font-family="sans-serif" font-size="11" lengthAdjust="spacingAndGlyphs" textLength="165" x="60" y="205.8105">accept(String, int, Visitor): void</text><ellipse cx="51" cy="216.1084" fill="#84BE84" rx="3" ry="3" style="stroke: #038048; stroke-width: 1.0;"/><text fill="#000000" font-family="sans-serif" font-size="11" lengthAdjust="spacingAndGlyphs" textLength="99" x="60" y="218.7656">toBuilder(): Builder</text><ellipse cx="51" cy="229.0635" fill="#84BE84" rx="3" ry="3" style="stroke: #038048; stroke-width: 1.0;"/><text fill="#000000" font-family="sans-serif" font-size="11" lengthAdjust="spacingAndGlyphs" text-decoration="underline" textLength="89" x="60" y="231.7207">builder(): Builder</text></a><!--class com.ibm.fhir.model.type.BackboneElement--><a href="../type/BackboneElement.html" target="_top" xlink:actuate="onRequest" xlink:show="new" xlink:title="../type/BackboneElement.html" xlink:type="simple"><rect fill="#FEFECE" filter="url(#fbakv22fxt2c1)" height="59.2207" id="com.ibm.fhir.model.type.BackboneElement" style="stroke: #A80036; stroke-width: 1.5;" width="153" x="6" y="8"/><ellipse cx="21" cy="27.1328" fill="#A9DCDF" rx="11" ry="11" style="stroke: #A80036; stroke-width: 1.0;"/><path d="M21.1133,22.731 L19.9595,27.8027 L22.2754,27.8027 Z M19.6191,20.4897 L22.6157,20.4897 L25.9609,32.8828 L23.5122,32.8828 L22.7485,29.8198 L19.4697,29.8198 L18.7227,32.8828 L16.2739,32.8828 Z "/><text fill="#000000" font-family="sans-serif" font-size="14" font-style="italic" lengthAdjust="spacingAndGlyphs" textLength="121" x="35" y="26.5352">BackboneElement</text><text fill="#000000" font-family="sans-serif" font-size="10" font-style="italic" lengthAdjust="spacingAndGlyphs" textLength="118" x="36.5" y="39.1563">com.ibm.fhir.model.type</text><line style="stroke: #A80036; stroke-width: 1.5;" x1="7" x2="158" y1="46.2656" y2="46.2656"/><ellipse cx="17" cy="58.2432" fill="#84BE84" rx="3" ry="3" style="stroke: #038048; stroke-width: 1.0;"/><text fill="#000000" font-family="sans-serif" font-size="11" font-style="italic" lengthAdjust="spacingAndGlyphs" textLength="99" x="26" y="60.9004">toBuilder(): Builder</text></a><!--class com.ibm.fhir.model.resource.MedicationKnowledge.Regulatory--><a href="MedicationKnowledge.Regulatory.html" target="_top" xlink:actuate="onRequest" xlink:show="new" xlink:title="MedicationKnowledge.Regulatory.html" xlink:type="simple"><rect fill="#FEFECE" filter="url(#fbakv22fxt2c1)" height="38.2656" id="com.ibm.fhir.model.resource.MedicationKnowledge.Regulatory" style="stroke: #A80036; stroke-width: 1.5;" width="261" x="194" y="18.5"/><ellipse cx="209" cy="37.6328" fill="#ADD1B2" rx="11" ry="11" style="stroke: #A80036; stroke-width: 1.0;"/><path d="M211.4731,43.7759 Q210.8921,44.0747 210.2529,44.2241 Q209.6138,44.3735 208.9082,44.3735 Q206.4014,44.3735 205.0815,42.7217 Q203.7617,41.0698 203.7617,37.9487 Q203.7617,34.8193 205.0815,33.1675 Q206.4014,31.5156 208.9082,31.5156 Q209.6138,31.5156 210.2612,31.665 Q210.9087,31.8145 211.4731,32.1133 L211.4731,34.8359 Q210.8423,34.2549 210.2488,33.9851 Q209.6553,33.7153 209.0244,33.7153 Q207.6797,33.7153 206.9949,34.782 Q206.3101,35.8486 206.3101,37.9487 Q206.3101,40.0405 206.9949,41.1072 Q207.6797,42.1738 209.0244,42.1738 Q209.6553,42.1738 210.2488,41.9041 Q210.8423,41.6343 211.4731,41.0532 Z "/><text fill="#000000" font-family="sans-serif" font-size="14" lengthAdjust="spacingAndGlyphs" textLength="229" x="223" y="37.0352">MedicationKnowledge.Regulatory</text><text fill="#000000" font-family="sans-serif" font-size="10" lengthAdjust="spacingAndGlyphs" textLength="139" x="268" y="49.6563">com.ibm.fhir.model.resource</text></a><!--class com.ibm.fhir.model.resource.MedicationKnowledge.Regulatory.Schedule.Builder--><a href="MedicationKnowledge.Regulatory.Schedule.Builder.html" target="_top" xlink:actuate="onRequest" xlink:show="new" xlink:title="MedicationKnowledge.Regulatory.Schedule.Builder.html" xlink:type="simple"><rect fill="#FEFECE" filter="url(#fbakv22fxt2c1)" height="38.2656" id="com.ibm.fhir.model.resource.MedicationKnowledge.Regulatory.Schedule.Builder" style="stroke: #A80036; stroke-width: 1.5;" width="379" x="14" y="298"/><ellipse cx="29" cy="317.1328" fill="#ADD1B2" rx="11" ry="11" style="stroke: #A80036; stroke-width: 1.0;"/><path d="M31.4731,323.2759 Q30.8921,323.5747 30.2529,323.7241 Q29.6138,323.8735 28.9082,323.8735 Q26.4014,323.8735 25.0815,322.2217 Q23.7617,320.5698 23.7617,317.4487 Q23.7617,314.3193 25.0815,312.6675 Q26.4014,311.0156 28.9082,311.0156 Q29.6138,311.0156 30.2612,311.165 Q30.9087,311.3145 31.4731,311.6133 L31.4731,314.3359 Q30.8423,313.7549 30.2488,313.4851 Q29.6553,313.2153 29.0244,313.2153 Q27.6797,313.2153 26.9949,314.282 Q26.3101,315.3486 26.3101,317.4487 Q26.3101,319.5405 26.9949,320.6072 Q27.6797,321.6738 29.0244,321.6738 Q29.6553,321.6738 30.2488,321.4041 Q30.8423,321.1343 31.4731,320.5532 Z "/><text fill="#000000" font-family="sans-serif" font-size="14" lengthAdjust="spacingAndGlyphs" textLength="347" x="43" y="316.5352">MedicationKnowledge.Regulatory.Schedule.Builder</text><text fill="#000000" font-family="sans-serif" font-size="10" lengthAdjust="spacingAndGlyphs" textLength="139" x="147" y="329.1563">com.ibm.fhir.model.resource</text></a><!--link com.ibm.fhir.model.type.BackboneElement to com.ibm.fhir.model.resource.MedicationKnowledge.Regulatory.Schedule--><path d="M120.2133,82.6936 C131.8561,96.6458 144.8175,112.178 156.9812,126.7543 " fill="none" id="com.ibm.fhir.model.type.BackboneElement-com.ibm.fhir.model.resource.MedicationKnowledge.Regulatory.Schedule" style="stroke: #A80036; stroke-width: 1.0;"/><polygon fill="none" points="114.7178,87.0335,107.2781,67.1928,125.4668,78.0636,114.7178,87.0335" style="stroke: #A80036; stroke-width: 1.0;"/><!--link com.ibm.fhir.model.resource.MedicationKnowledge.Regulatory to com.ibm.fhir.model.resource.MedicationKnowledge.Regulatory.Schedule--><path d="M298.4366,68.733 C284.2925,85.6826 266.3835,107.1437 249.9411,126.8474 " fill="none" id="com.ibm.fhir.model.resource.MedicationKnowledge.Regulatory-com.ibm.fhir.model.resource.MedicationKnowledge.Regulatory.Schedule" style="stroke: #A80036; stroke-width: 1.0;"/><ellipse cx="303.3065" cy="62.8972" fill="#FFFFFF" rx="8" ry="8" style="stroke: #A80036; stroke-width: 1.0;"/><line style="stroke: #A80036; stroke-width: 1.0;" x1="298.1808" x2="308.4321" y1="69.0395" y2="56.7549"/><line style="stroke: #A80036; stroke-width: 1.0;" x1="297.1642" x2="309.4488" y1="57.7716" y2="68.0228"/><!--link com.ibm.fhir.model.resource.MedicationKnowledge.Regulatory.Schedule to com.ibm.fhir.model.resource.MedicationKnowledge.Regulatory.Schedule.Builder--><path d="M203.5,253.435 C203.5,269.8704 203.5,286.0114 203.5,297.9157 " fill="none" id="com.ibm.fhir.model.resource.MedicationKnowledge.Regulatory.Schedule-com.ibm.fhir.model.resource.MedicationKnowledge.Regulatory.Schedule.Builder" style="stroke: #A80036; stroke-width: 1.0;"/><ellipse cx="203.5001" cy="246.3716" fill="#FFFFFF" rx="8" ry="8" style="stroke: #A80036; stroke-width: 1.0;"/><line style="stroke: #A80036; stroke-width: 1.0;" x1="203.5002" x2="203.5" y1="254.3716" y2="238.3716"/><line style="stroke: #A80036; stroke-width: 1.0;" x1="195.5001" x2="211.5001" y1="246.3717" y2="246.3715"/><text fill="#888888" font-family="sans-serif" font-size="10" lengthAdjust="spacingAndGlyphs" textLength="182" x="145.5" y="355.668">UMLDoclet 2.0.5, PlantUML 1.2019.08</text><!--
@startuml
    set namespaceSeparator none
    hide empty fields
    hide empty methods

    class "<size:14>MedicationKnowledge.Regulatory.Schedule\n<size:10>com.ibm.fhir.model.resource" as com.ibm.fhir.model.resource.MedicationKnowledge.Regulatory.Schedule [[MedicationKnowledge.Regulatory.Schedule.html]] {
        +getSchedule(): CodeableConcept
        +hasChildren(): boolean
        +accept(String, int, Visitor): void
        +toBuilder(): Builder
        {static} +builder(): Builder
    }

    abstract class "<size:14>BackboneElement\n<size:10>com.ibm.fhir.model.type" as com.ibm.fhir.model.type.BackboneElement [[../type/BackboneElement.html]] {
        {abstract} +toBuilder(): Builder
    }
    class "<size:14>MedicationKnowledge.Regulatory\n<size:10>com.ibm.fhir.model.resource" as com.ibm.fhir.model.resource.MedicationKnowledge.Regulatory [[MedicationKnowledge.Regulatory.html]]
    class "<size:14>MedicationKnowledge.Regulatory.Schedule.Builder\n<size:10>com.ibm.fhir.model.resource" as com.ibm.fhir.model.resource.MedicationKnowledge.Regulatory.Schedule.Builder [[MedicationKnowledge.Regulatory.Schedule.Builder.html]]

    com.ibm.fhir.model.type.BackboneElement <|- - com.ibm.fhir.model.resource.MedicationKnowledge.Regulatory.Schedule
    com.ibm.fhir.model.resource.MedicationKnowledge.Regulatory +- - com.ibm.fhir.model.resource.MedicationKnowledge.Regulatory.Schedule
    com.ibm.fhir.model.resource.MedicationKnowledge.Regulatory.Schedule +- - com.ibm.fhir.model.resource.MedicationKnowledge.Regulatory.Schedule.Builder

    center footer UMLDoclet 2.0.5, PlantUML 1.2019.08
@enduml

PlantUML version 1.2019.08(Sat Jul 13 15:25:14 EDT 2019)
(APACHE source distribution)
Java Runtime: OpenJDK Runtime Environment
JVM: OpenJDK 64-Bit Server VM
Java Version: 11.0.4+11
Operating System: Mac OS X
OS Version: 10.14.6
Default Encoding: UTF-8
Language: en
Country: US
--></g></svg>