<?xml version="1.0" encoding="UTF-8" standalone="no"?><svg xmlns="http://www.w3.org/2000/svg" xmlns:xlink="http://www.w3.org/1999/xlink" contentScriptType="application/ecmascript" contentStyleType="text/css" height="382px" preserveAspectRatio="none" style="width:398px;height:382px;" version="1.1" viewBox="0 0 398 382" width="398px" zoomAndPan="magnify"><defs><filter height="300%" id="fj151y0un51h7" width="300%" x="-1" y="-1"><feGaussianBlur result="blurOut" stdDeviation="2.0"/><feColorMatrix in="blurOut" result="blurOut2" type="matrix" values="0 0 0 0 0 0 0 0 0 0 0 0 0 0 0 0 0 0 .4 0"/><feOffset dx="4.0" dy="4.0" in="blurOut2" result="blurOut3"/><feBlend in="SourceGraphic" in2="blurOut3" mode="normal"/></filter></defs><g><!--class com.ibm.fhir.model.resource.NutritionOrder.OralDiet.Nutrient--><a href="NutritionOrder.OralDiet.Nutrient.html" target="_top" xlink:actuate="onRequest" xlink:show="new" xlink:title="NutritionOrder.OralDiet.Nutrient.html" xlink:type="simple"><rect fill="#FEFECE" filter="url(#fj151y0un51h7)" height="123.9961" id="com.ibm.fhir.model.resource.NutritionOrder.OralDiet.Nutrient" style="stroke: #A80036; stroke-width: 1.5;" width="253" x="60" y="127"/><ellipse cx="75" cy="146.1328" fill="#ADD1B2" rx="11" ry="11" style="stroke: #A80036; stroke-width: 1.0;"/><path d="M77.4731,152.2759 Q76.8921,152.5747 76.2529,152.7241 Q75.6138,152.8735 74.9082,152.8735 Q72.4014,152.8735 71.0815,151.2217 Q69.7617,149.5698 69.7617,146.4487 Q69.7617,143.3193 71.0815,141.6675 Q72.4014,140.0156 74.9082,140.0156 Q75.6138,140.0156 76.2612,140.165 Q76.9087,140.3145 77.4731,140.6133 L77.4731,143.3359 Q76.8423,142.7549 76.2488,142.4851 Q75.6553,142.2153 75.0244,142.2153 Q73.6797,142.2153 72.9949,143.282 Q72.3101,144.3486 72.3101,146.4487 Q72.3101,148.5405 72.9949,149.6072 Q73.6797,150.6738 75.0244,150.6738 Q75.6553,150.6738 76.2488,150.4041 Q76.8423,150.1343 77.4731,149.5532 Z "/><text fill="#000000" font-family="sans-serif" font-size="14" lengthAdjust="spacingAndGlyphs" textLength="221" x="89" y="145.5352">NutritionOrder.OralDiet.Nutrient</text><text fill="#000000" font-family="sans-serif" font-size="10" lengthAdjust="spacingAndGlyphs" textLength="139" x="130" y="158.1563">com.ibm.fhir.model.resource</text><line style="stroke: #A80036; stroke-width: 1.5;" x1="61" x2="312" y1="165.2656" y2="165.2656"/><ellipse cx="71" cy="177.2432" fill="#84BE84" rx="3" ry="3" style="stroke: #038048; stroke-width: 1.0;"/><text fill="#000000" font-family="sans-serif" font-size="11" lengthAdjust="spacingAndGlyphs" textLength="170" x="80" y="179.9004">getModifier(): CodeableConcept</text><ellipse cx="71" cy="190.1982" fill="#84BE84" rx="3" ry="3" style="stroke: #038048; stroke-width: 1.0;"/><text fill="#000000" font-family="sans-serif" font-size="11" lengthAdjust="spacingAndGlyphs" textLength="155" x="80" y="192.8555">getAmount(): SimpleQuantity</text><ellipse cx="71" cy="203.1533" fill="#84BE84" rx="3" ry="3" style="stroke: #038048; stroke-width: 1.0;"/><text fill="#000000" font-family="sans-serif" font-size="11" lengthAdjust="spacingAndGlyphs" textLength="122" x="80" y="205.8105">hasChildren(): boolean</text><ellipse cx="71" cy="216.1084" fill="#84BE84" rx="3" ry="3" style="stroke: #038048; stroke-width: 1.0;"/><text fill="#000000" font-family="sans-serif" font-size="11" lengthAdjust="spacingAndGlyphs" textLength="165" x="80" y="218.7656">accept(String, int, Visitor): void</text><ellipse cx="71" cy="229.0635" fill="#84BE84" rx="3" ry="3" style="stroke: #038048; stroke-width: 1.0;"/><text fill="#000000" font-family="sans-serif" font-size="11" lengthAdjust="spacingAndGlyphs" textLength="99" x="80" y="231.7207">toBuilder(): Builder</text><ellipse cx="71" cy="242.0186" fill="#84BE84" rx="3" ry="3" style="stroke: #038048; stroke-width: 1.0;"/><text fill="#000000" font-family="sans-serif" font-size="11" lengthAdjust="spacingAndGlyphs" text-decoration="underline" textLength="89" x="80" y="244.6758">builder(): Builder</text></a><!--class com.ibm.fhir.model.type.BackboneElement--><a href="../type/BackboneElement.html" target="_top" xlink:actuate="onRequest" xlink:show="new" xlink:title="../type/BackboneElement.html" xlink:type="simple"><rect fill="#FEFECE" filter="url(#fj151y0un51h7)" height="59.2207" id="com.ibm.fhir.model.type.BackboneElement" style="stroke: #A80036; stroke-width: 1.5;" width="153" x="6" y="8"/><ellipse cx="21" cy="27.1328" fill="#A9DCDF" rx="11" ry="11" style="stroke: #A80036; stroke-width: 1.0;"/><path d="M21.1133,22.731 L19.9595,27.8027 L22.2754,27.8027 Z M19.6191,20.4897 L22.6157,20.4897 L25.9609,32.8828 L23.5122,32.8828 L22.7485,29.8198 L19.4697,29.8198 L18.7227,32.8828 L16.2739,32.8828 Z "/><text fill="#000000" font-family="sans-serif" font-size="14" font-style="italic" lengthAdjust="spacingAndGlyphs" textLength="121" x="35" y="26.5352">BackboneElement</text><text fill="#000000" font-family="sans-serif" font-size="10" font-style="italic" lengthAdjust="spacingAndGlyphs" textLength="118" x="36.5" y="39.1563">com.ibm.fhir.model.type</text><line style="stroke: #A80036; stroke-width: 1.5;" x1="7" x2="158" y1="46.2656" y2="46.2656"/><ellipse cx="17" cy="58.2432" fill="#84BE84" rx="3" ry="3" style="stroke: #038048; stroke-width: 1.0;"/><text fill="#000000" font-family="sans-serif" font-size="11" font-style="italic" lengthAdjust="spacingAndGlyphs" textLength="99" x="26" y="60.9004">toBuilder(): Builder</text></a><!--class com.ibm.fhir.model.resource.NutritionOrder.OralDiet--><a href="NutritionOrder.OralDiet.html" target="_top" xlink:actuate="onRequest" xlink:show="new" xlink:title="NutritionOrder.OralDiet.html" xlink:type="simple"><rect fill="#FEFECE" filter="url(#fj151y0un51h7)" height="38.2656" id="com.ibm.fhir.model.resource.NutritionOrder.OralDiet" style="stroke: #A80036; stroke-width: 1.5;" width="193" x="194" y="18.5"/><ellipse cx="209" cy="37.6328" fill="#ADD1B2" rx="11" ry="11" style="stroke: #A80036; stroke-width: 1.0;"/><path d="M211.4731,43.7759 Q210.8921,44.0747 210.2529,44.2241 Q209.6138,44.3735 208.9082,44.3735 Q206.4014,44.3735 205.0815,42.7217 Q203.7617,41.0698 203.7617,37.9487 Q203.7617,34.8193 205.0815,33.1675 Q206.4014,31.5156 208.9082,31.5156 Q209.6138,31.5156 210.2612,31.665 Q210.9087,31.8145 211.4731,32.1133 L211.4731,34.8359 Q210.8423,34.2549 210.2488,33.9851 Q209.6553,33.7153 209.0244,33.7153 Q207.6797,33.7153 206.9949,34.782 Q206.3101,35.8486 206.3101,37.9487 Q206.3101,40.0405 206.9949,41.1072 Q207.6797,42.1738 209.0244,42.1738 Q209.6553,42.1738 210.2488,41.9041 Q210.8423,41.6343 211.4731,41.0532 Z "/><text fill="#000000" font-family="sans-serif" font-size="14" lengthAdjust="spacingAndGlyphs" textLength="161" x="223" y="37.0352">NutritionOrder.OralDiet</text><text fill="#000000" font-family="sans-serif" font-size="10" lengthAdjust="spacingAndGlyphs" textLength="139" x="234" y="49.6563">com.ibm.fhir.model.resource</text></a><!--class com.ibm.fhir.model.resource.NutritionOrder.OralDiet.Nutrient.Builder--><a href="NutritionOrder.OralDiet.Nutrient.Builder.html" target="_top" xlink:actuate="onRequest" xlink:show="new" xlink:title="NutritionOrder.OralDiet.Nutrient.Builder.html" xlink:type="simple"><rect fill="#FEFECE" filter="url(#fj151y0un51h7)" height="38.2656" id="com.ibm.fhir.model.resource.NutritionOrder.OralDiet.Nutrient.Builder" style="stroke: #A80036; stroke-width: 1.5;" width="305" x="34" y="311"/><ellipse cx="49" cy="330.1328" fill="#ADD1B2" rx="11" ry="11" style="stroke: #A80036; stroke-width: 1.0;"/><path d="M51.4731,336.2759 Q50.8921,336.5747 50.2529,336.7241 Q49.6138,336.8735 48.9082,336.8735 Q46.4014,336.8735 45.0815,335.2217 Q43.7617,333.5698 43.7617,330.4487 Q43.7617,327.3193 45.0815,325.6675 Q46.4014,324.0156 48.9082,324.0156 Q49.6138,324.0156 50.2612,324.165 Q50.9087,324.3145 51.4731,324.6133 L51.4731,327.3359 Q50.8423,326.7549 50.2488,326.4851 Q49.6553,326.2153 49.0244,326.2153 Q47.6797,326.2153 46.9949,327.282 Q46.3101,328.3486 46.3101,330.4487 Q46.3101,332.5405 46.9949,333.6072 Q47.6797,334.6738 49.0244,334.6738 Q49.6553,334.6738 50.2488,334.4041 Q50.8423,334.1343 51.4731,333.5532 Z "/><text fill="#000000" font-family="sans-serif" font-size="14" lengthAdjust="spacingAndGlyphs" textLength="273" x="63" y="329.5352">NutritionOrder.OralDiet.Nutrient.Builder</text><text fill="#000000" font-family="sans-serif" font-size="10" lengthAdjust="spacingAndGlyphs" textLength="139" x="130" y="342.1563">com.ibm.fhir.model.resource</text></a><!--link com.ibm.fhir.model.type.BackboneElement to com.ibm.fhir.model.resource.NutritionOrder.OralDiet.Nutrient--><path d="M114.3374,83.8785 C123.6577,97.4557 134.0007,112.5226 143.8769,126.9096 " fill="none" id="com.ibm.fhir.model.type.BackboneElement-com.ibm.fhir.model.resource.NutritionOrder.OralDiet.Nutrient" style="stroke: #A80036; stroke-width: 1.0;"/><polygon fill="none" points="108.3471,87.5208,102.7991,67.0704,119.8893,79.5975,108.3471,87.5208" style="stroke: #A80036; stroke-width: 1.0;"/><!--link com.ibm.fhir.model.resource.NutritionOrder.OralDiet to com.ibm.fhir.model.resource.NutritionOrder.OralDiet.Nutrient--><path d="M268.5079,69.5366 C257.0859,86.1753 242.7273,107.0919 229.2299,126.7541 " fill="none" id="com.ibm.fhir.model.resource.NutritionOrder.OralDiet-com.ibm.fhir.model.resource.NutritionOrder.OralDiet.Nutrient" style="stroke: #A80036; stroke-width: 1.0;"/><ellipse cx="272.8007" cy="63.2831" fill="#FFFFFF" rx="8" ry="8" style="stroke: #A80036; stroke-width: 1.0;"/><line style="stroke: #A80036; stroke-width: 1.0;" x1="268.2731" x2="277.3283" y1="69.8786" y2="56.6876"/><line style="stroke: #A80036; stroke-width: 1.0;" x1="266.2052" x2="279.3962" y1="58.7555" y2="67.8107"/><!--link com.ibm.fhir.model.resource.NutritionOrder.OralDiet.Nutrient to com.ibm.fhir.model.resource.NutritionOrder.OralDiet.Nutrient.Builder--><path d="M186.5,266.4678 C186.5,282.9897 186.5,298.9963 186.5,310.8098 " fill="none" id="com.ibm.fhir.model.resource.NutritionOrder.OralDiet.Nutrient-com.ibm.fhir.model.resource.NutritionOrder.OralDiet.Nutrient.Builder" style="stroke: #A80036; stroke-width: 1.0;"/><ellipse cx="186.5" cy="259.2551" fill="#FFFFFF" rx="8" ry="8" style="stroke: #A80036; stroke-width: 1.0;"/><line style="stroke: #A80036; stroke-width: 1.0;" x1="186.5" x2="186.5" y1="267.2551" y2="251.2551"/><line style="stroke: #A80036; stroke-width: 1.0;" x1="178.5" x2="194.5" y1="259.2551" y2="259.2551"/><text fill="#888888" font-family="sans-serif" font-size="10" lengthAdjust="spacingAndGlyphs" textLength="182" x="111.5" y="368.668">UMLDoclet 2.0.5, PlantUML 1.2019.08</text><!--
@startuml
    set namespaceSeparator none
    hide empty fields
    hide empty methods

    class "<size:14>NutritionOrder.OralDiet.Nutrient\n<size:10>com.ibm.fhir.model.resource" as com.ibm.fhir.model.resource.NutritionOrder.OralDiet.Nutrient [[NutritionOrder.OralDiet.Nutrient.html]] {
        +getModifier(): CodeableConcept
        +getAmount(): SimpleQuantity
        +hasChildren(): boolean
        +accept(String, int, Visitor): void
        +toBuilder(): Builder
        {static} +builder(): Builder
    }

    abstract class "<size:14>BackboneElement\n<size:10>com.ibm.fhir.model.type" as com.ibm.fhir.model.type.BackboneElement [[../type/BackboneElement.html]] {
        {abstract} +toBuilder(): Builder
    }
    class "<size:14>NutritionOrder.OralDiet\n<size:10>com.ibm.fhir.model.resource" as com.ibm.fhir.model.resource.NutritionOrder.OralDiet [[NutritionOrder.OralDiet.html]]
    class "<size:14>NutritionOrder.OralDiet.Nutrient.Builder\n<size:10>com.ibm.fhir.model.resource" as com.ibm.fhir.model.resource.NutritionOrder.OralDiet.Nutrient.Builder [[NutritionOrder.OralDiet.Nutrient.Builder.html]]

    com.ibm.fhir.model.type.BackboneElement <|- - com.ibm.fhir.model.resource.NutritionOrder.OralDiet.Nutrient
    com.ibm.fhir.model.resource.NutritionOrder.OralDiet +- - com.ibm.fhir.model.resource.NutritionOrder.OralDiet.Nutrient
    com.ibm.fhir.model.resource.NutritionOrder.OralDiet.Nutrient +- - com.ibm.fhir.model.resource.NutritionOrder.OralDiet.Nutrient.Builder

    center footer UMLDoclet 2.0.5, PlantUML 1.2019.08
@enduml

PlantUML version 1.2019.08(Sat Jul 13 15:25:14 EDT 2019)
(APACHE source distribution)
Java Runtime: OpenJDK Runtime Environment
JVM: OpenJDK 64-Bit Server VM
Java Version: 11.0.4+11
Operating System: Mac OS X
OS Version: 10.14.6
Default Encoding: UTF-8
Language: en
Country: US
--></g></svg>