<?xml version="1.0" encoding="UTF-8" standalone="no"?><svg xmlns="http://www.w3.org/2000/svg" xmlns:xlink="http://www.w3.org/1999/xlink" contentScriptType="application/ecmascript" contentStyleType="text/css" height="382px" preserveAspectRatio="none" style="width:381px;height:382px;" version="1.1" viewBox="0 0 381 382" width="381px" zoomAndPan="magnify"><defs><filter height="300%" id="f1g8n82zyjlyd4" width="300%" x="-1" y="-1"><feGaussianBlur result="blurOut" stdDeviation="2.0"/><feColorMatrix in="blurOut" result="blurOut2" type="matrix" values="0 0 0 0 0 0 0 0 0 0 0 0 0 0 0 0 0 0 .4 0"/><feOffset dx="4.0" dy="4.0" in="blurOut2" result="blurOut3"/><feBlend in="SourceGraphic" in2="blurOut3" mode="normal"/></filter></defs><g><!--class com.ibm.fhir.model.resource.PlanDefinition.Action.DynamicValue--><a href="PlanDefinition.Action.DynamicValue.html" target="_top" xlink:actuate="onRequest" xlink:show="new" xlink:title="PlanDefinition.Action.DynamicValue.html" xlink:type="simple"><rect fill="#FEFECE" filter="url(#f1g8n82zyjlyd4)" height="123.9961" id="com.ibm.fhir.model.resource.PlanDefinition.Action.DynamicValue" style="stroke: #A80036; stroke-width: 1.5;" width="276" x="44.5" y="127"/><ellipse cx="59.5" cy="146.1328" fill="#ADD1B2" rx="11" ry="11" style="stroke: #A80036; stroke-width: 1.0;"/><path d="M61.9731,152.2759 Q61.3921,152.5747 60.7529,152.7241 Q60.1138,152.8735 59.4082,152.8735 Q56.9014,152.8735 55.5815,151.2217 Q54.2617,149.5698 54.2617,146.4487 Q54.2617,143.3193 55.5815,141.6675 Q56.9014,140.0156 59.4082,140.0156 Q60.1138,140.0156 60.7612,140.165 Q61.4087,140.3145 61.9731,140.6133 L61.9731,143.3359 Q61.3423,142.7549 60.7488,142.4851 Q60.1553,142.2153 59.5244,142.2153 Q58.1797,142.2153 57.4949,143.282 Q56.8101,144.3486 56.8101,146.4487 Q56.8101,148.5405 57.4949,149.6072 Q58.1797,150.6738 59.5244,150.6738 Q60.1553,150.6738 60.7488,150.4041 Q61.3423,150.1343 61.9731,149.5532 Z "/><text fill="#000000" font-family="sans-serif" font-size="14" lengthAdjust="spacingAndGlyphs" textLength="244" x="73.5" y="145.5352">PlanDefinition.Action.DynamicValue</text><text fill="#000000" font-family="sans-serif" font-size="10" lengthAdjust="spacingAndGlyphs" textLength="139" x="126" y="158.1563">com.ibm.fhir.model.resource</text><line style="stroke: #A80036; stroke-width: 1.5;" x1="45.5" x2="319.5" y1="165.2656" y2="165.2656"/><ellipse cx="55.5" cy="177.2432" fill="#84BE84" rx="3" ry="3" style="stroke: #038048; stroke-width: 1.0;"/><text fill="#000000" font-family="sans-serif" font-size="11" lengthAdjust="spacingAndGlyphs" textLength="86" x="64.5" y="179.9004">getPath(): String</text><ellipse cx="55.5" cy="190.1982" fill="#84BE84" rx="3" ry="3" style="stroke: #038048; stroke-width: 1.0;"/><text fill="#000000" font-family="sans-serif" font-size="11" lengthAdjust="spacingAndGlyphs" textLength="151" x="64.5" y="192.8555">getExpression(): Expression</text><ellipse cx="55.5" cy="203.1533" fill="#84BE84" rx="3" ry="3" style="stroke: #038048; stroke-width: 1.0;"/><text fill="#000000" font-family="sans-serif" font-size="11" lengthAdjust="spacingAndGlyphs" textLength="122" x="64.5" y="205.8105">hasChildren(): boolean</text><ellipse cx="55.5" cy="216.1084" fill="#84BE84" rx="3" ry="3" style="stroke: #038048; stroke-width: 1.0;"/><text fill="#000000" font-family="sans-serif" font-size="11" lengthAdjust="spacingAndGlyphs" textLength="165" x="64.5" y="218.7656">accept(String, int, Visitor): void</text><ellipse cx="55.5" cy="229.0635" fill="#84BE84" rx="3" ry="3" style="stroke: #038048; stroke-width: 1.0;"/><text fill="#000000" font-family="sans-serif" font-size="11" lengthAdjust="spacingAndGlyphs" textLength="99" x="64.5" y="231.7207">toBuilder(): Builder</text><ellipse cx="55.5" cy="242.0186" fill="#84BE84" rx="3" ry="3" style="stroke: #038048; stroke-width: 1.0;"/><text fill="#000000" font-family="sans-serif" font-size="11" lengthAdjust="spacingAndGlyphs" text-decoration="underline" textLength="89" x="64.5" y="244.6758">builder(): Builder</text></a><!--class com.ibm.fhir.model.type.BackboneElement--><a href="../type/BackboneElement.html" target="_top" xlink:actuate="onRequest" xlink:show="new" xlink:title="../type/BackboneElement.html" xlink:type="simple"><rect fill="#FEFECE" filter="url(#f1g8n82zyjlyd4)" height="59.2207" id="com.ibm.fhir.model.type.BackboneElement" style="stroke: #A80036; stroke-width: 1.5;" width="153" x="6" y="8"/><ellipse cx="21" cy="27.1328" fill="#A9DCDF" rx="11" ry="11" style="stroke: #A80036; stroke-width: 1.0;"/><path d="M21.1133,22.731 L19.9595,27.8027 L22.2754,27.8027 Z M19.6191,20.4897 L22.6157,20.4897 L25.9609,32.8828 L23.5122,32.8828 L22.7485,29.8198 L19.4697,29.8198 L18.7227,32.8828 L16.2739,32.8828 Z "/><text fill="#000000" font-family="sans-serif" font-size="14" font-style="italic" lengthAdjust="spacingAndGlyphs" textLength="121" x="35" y="26.5352">BackboneElement</text><text fill="#000000" font-family="sans-serif" font-size="10" font-style="italic" lengthAdjust="spacingAndGlyphs" textLength="118" x="36.5" y="39.1563">com.ibm.fhir.model.type</text><line style="stroke: #A80036; stroke-width: 1.5;" x1="7" x2="158" y1="46.2656" y2="46.2656"/><ellipse cx="17" cy="58.2432" fill="#84BE84" rx="3" ry="3" style="stroke: #038048; stroke-width: 1.0;"/><text fill="#000000" font-family="sans-serif" font-size="11" font-style="italic" lengthAdjust="spacingAndGlyphs" textLength="99" x="26" y="60.9004">toBuilder(): Builder</text></a><!--class com.ibm.fhir.model.resource.PlanDefinition.Action--><a href="PlanDefinition.Action.html" target="_top" xlink:actuate="onRequest" xlink:show="new" xlink:title="PlanDefinition.Action.html" xlink:type="simple"><rect fill="#FEFECE" filter="url(#f1g8n82zyjlyd4)" height="38.2656" id="com.ibm.fhir.model.resource.PlanDefinition.Action" style="stroke: #A80036; stroke-width: 1.5;" width="176" x="194.5" y="18.5"/><ellipse cx="209.5" cy="37.6328" fill="#ADD1B2" rx="11" ry="11" style="stroke: #A80036; stroke-width: 1.0;"/><path d="M211.9731,43.7759 Q211.3921,44.0747 210.7529,44.2241 Q210.1138,44.3735 209.4082,44.3735 Q206.9014,44.3735 205.5815,42.7217 Q204.2617,41.0698 204.2617,37.9487 Q204.2617,34.8193 205.5815,33.1675 Q206.9014,31.5156 209.4082,31.5156 Q210.1138,31.5156 210.7612,31.665 Q211.4087,31.8145 211.9731,32.1133 L211.9731,34.8359 Q211.3423,34.2549 210.7488,33.9851 Q210.1553,33.7153 209.5244,33.7153 Q208.1797,33.7153 207.4949,34.782 Q206.8101,35.8486 206.8101,37.9487 Q206.8101,40.0405 207.4949,41.1072 Q208.1797,42.1738 209.5244,42.1738 Q210.1553,42.1738 210.7488,41.9041 Q211.3423,41.6343 211.9731,41.0532 Z "/><text fill="#000000" font-family="sans-serif" font-size="14" lengthAdjust="spacingAndGlyphs" textLength="144" x="223.5" y="37.0352">PlanDefinition.Action</text><text fill="#000000" font-family="sans-serif" font-size="10" lengthAdjust="spacingAndGlyphs" textLength="139" x="226" y="49.6563">com.ibm.fhir.model.resource</text></a><!--class com.ibm.fhir.model.resource.PlanDefinition.Action.DynamicValue.Builder--><a href="PlanDefinition.Action.DynamicValue.Builder.html" target="_top" xlink:actuate="onRequest" xlink:show="new" xlink:title="PlanDefinition.Action.DynamicValue.Builder.html" xlink:type="simple"><rect fill="#FEFECE" filter="url(#f1g8n82zyjlyd4)" height="38.2656" id="com.ibm.fhir.model.resource.PlanDefinition.Action.DynamicValue.Builder" style="stroke: #A80036; stroke-width: 1.5;" width="328" x="18.5" y="311"/><ellipse cx="33.5" cy="330.1328" fill="#ADD1B2" rx="11" ry="11" style="stroke: #A80036; stroke-width: 1.0;"/><path d="M35.9731,336.2759 Q35.3921,336.5747 34.7529,336.7241 Q34.1138,336.8735 33.4082,336.8735 Q30.9014,336.8735 29.5815,335.2217 Q28.2617,333.5698 28.2617,330.4487 Q28.2617,327.3193 29.5815,325.6675 Q30.9014,324.0156 33.4082,324.0156 Q34.1138,324.0156 34.7612,324.165 Q35.4087,324.3145 35.9731,324.6133 L35.9731,327.3359 Q35.3423,326.7549 34.7488,326.4851 Q34.1553,326.2153 33.5244,326.2153 Q32.1797,326.2153 31.4949,327.282 Q30.8101,328.3486 30.8101,330.4487 Q30.8101,332.5405 31.4949,333.6072 Q32.1797,334.6738 33.5244,334.6738 Q34.1553,334.6738 34.7488,334.4041 Q35.3423,334.1343 35.9731,333.5532 Z "/><text fill="#000000" font-family="sans-serif" font-size="14" lengthAdjust="spacingAndGlyphs" textLength="296" x="47.5" y="329.5352">PlanDefinition.Action.DynamicValue.Builder</text><text fill="#000000" font-family="sans-serif" font-size="10" lengthAdjust="spacingAndGlyphs" textLength="139" x="126" y="342.1563">com.ibm.fhir.model.resource</text></a><!--link com.ibm.fhir.model.type.BackboneElement to com.ibm.fhir.model.resource.PlanDefinition.Action.DynamicValue--><path d="M113.1129,83.8785 C122.0747,97.4557 132.0199,112.5226 141.5162,126.9096 " fill="none" id="com.ibm.fhir.model.type.BackboneElement-com.ibm.fhir.model.resource.PlanDefinition.Action.DynamicValue" style="stroke: #A80036; stroke-width: 1.0;"/><polygon fill="none" points="107.194,87.6183,102.0184,67.0704,118.8781,79.9059,107.194,87.6183" style="stroke: #A80036; stroke-width: 1.0;"/><!--link com.ibm.fhir.model.resource.PlanDefinition.Action to com.ibm.fhir.model.resource.PlanDefinition.Action.DynamicValue--><path d="M261.3538,69.5366 C250.3711,86.1753 236.5647,107.0919 223.5864,126.7541 " fill="none" id="com.ibm.fhir.model.resource.PlanDefinition.Action-com.ibm.fhir.model.resource.PlanDefinition.Action.DynamicValue" style="stroke: #A80036; stroke-width: 1.0;"/><ellipse cx="265.4279" cy="63.3643" fill="#FFFFFF" rx="8" ry="8" style="stroke: #A80036; stroke-width: 1.0;"/><line style="stroke: #A80036; stroke-width: 1.0;" x1="261.0208" x2="269.8349" y1="70.0409" y2="56.6876"/><line style="stroke: #A80036; stroke-width: 1.0;" x1="258.7512" x2="272.1045" y1="58.9572" y2="67.7713"/><!--link com.ibm.fhir.model.resource.PlanDefinition.Action.DynamicValue to com.ibm.fhir.model.resource.PlanDefinition.Action.DynamicValue.Builder--><path d="M182.5,266.4678 C182.5,282.9897 182.5,298.9963 182.5,310.8098 " fill="none" id="com.ibm.fhir.model.resource.PlanDefinition.Action.DynamicValue-com.ibm.fhir.model.resource.PlanDefinition.Action.DynamicValue.Builder" style="stroke: #A80036; stroke-width: 1.0;"/><ellipse cx="182.5" cy="259.2551" fill="#FFFFFF" rx="8" ry="8" style="stroke: #A80036; stroke-width: 1.0;"/><line style="stroke: #A80036; stroke-width: 1.0;" x1="182.5" x2="182.5" y1="267.2551" y2="251.2551"/><line style="stroke: #A80036; stroke-width: 1.0;" x1="174.5" x2="190.5" y1="259.2551" y2="259.2551"/><text fill="#888888" font-family="sans-serif" font-size="10" lengthAdjust="spacingAndGlyphs" textLength="182" x="103.5" y="368.668">UMLDoclet 2.0.5, PlantUML 1.2019.08</text><!--
@startuml
    set namespaceSeparator none
    hide empty fields
    hide empty methods

    class "<size:14>PlanDefinition.Action.DynamicValue\n<size:10>com.ibm.fhir.model.resource" as com.ibm.fhir.model.resource.PlanDefinition.Action.DynamicValue [[PlanDefinition.Action.DynamicValue.html]] {
        +getPath(): String
        +getExpression(): Expression
        +hasChildren(): boolean
        +accept(String, int, Visitor): void
        +toBuilder(): Builder
        {static} +builder(): Builder
    }

    abstract class "<size:14>BackboneElement\n<size:10>com.ibm.fhir.model.type" as com.ibm.fhir.model.type.BackboneElement [[../type/BackboneElement.html]] {
        {abstract} +toBuilder(): Builder
    }
    class "<size:14>PlanDefinition.Action\n<size:10>com.ibm.fhir.model.resource" as com.ibm.fhir.model.resource.PlanDefinition.Action [[PlanDefinition.Action.html]]
    class "<size:14>PlanDefinition.Action.DynamicValue.Builder\n<size:10>com.ibm.fhir.model.resource" as com.ibm.fhir.model.resource.PlanDefinition.Action.DynamicValue.Builder [[PlanDefinition.Action.DynamicValue.Builder.html]]

    com.ibm.fhir.model.type.BackboneElement <|- - com.ibm.fhir.model.resource.PlanDefinition.Action.DynamicValue
    com.ibm.fhir.model.resource.PlanDefinition.Action +- - com.ibm.fhir.model.resource.PlanDefinition.Action.DynamicValue
    com.ibm.fhir.model.resource.PlanDefinition.Action.DynamicValue +- - com.ibm.fhir.model.resource.PlanDefinition.Action.DynamicValue.Builder

    center footer UMLDoclet 2.0.5, PlantUML 1.2019.08
@enduml

PlantUML version 1.2019.08(Sat Jul 13 15:25:14 EDT 2019)
(APACHE source distribution)
Java Runtime: OpenJDK Runtime Environment
JVM: OpenJDK 64-Bit Server VM
Java Version: 11.0.4+11
Operating System: Mac OS X
OS Version: 10.14.6
Default Encoding: UTF-8
Language: en
Country: US
--></g></svg>