<?xml version="1.0" encoding="UTF-8" standalone="no"?><svg xmlns="http://www.w3.org/2000/svg" xmlns:xlink="http://www.w3.org/1999/xlink" contentScriptType="application/ecmascript" contentStyleType="text/css" height="382px" preserveAspectRatio="none" style="width:713px;height:382px;" version="1.1" viewBox="0 0 713 382" width="713px" zoomAndPan="magnify"><defs><filter height="300%" id="f1owosxshtiu6n" width="300%" x="-1" y="-1"><feGaussianBlur result="blurOut" stdDeviation="2.0"/><feColorMatrix in="blurOut" result="blurOut2" type="matrix" values="0 0 0 0 0 0 0 0 0 0 0 0 0 0 0 0 0 0 .4 0"/><feOffset dx="4.0" dy="4.0" in="blurOut2" result="blurOut3"/><feBlend in="SourceGraphic" in2="blurOut3" mode="normal"/></filter></defs><g><!--class com.ibm.fhir.model.resource.SubstancePolymer.MonomerSet--><a href="SubstancePolymer.MonomerSet.html" target="_top" xlink:actuate="onRequest" xlink:show="new" xlink:title="SubstancePolymer.MonomerSet.html" xlink:type="simple"><rect fill="#FEFECE" filter="url(#f1owosxshtiu6n)" height="123.9961" id="com.ibm.fhir.model.resource.SubstancePolymer.MonomerSet" style="stroke: #A80036; stroke-width: 1.5;" width="262" x="208" y="127"/><ellipse cx="229.3" cy="146.1328" fill="#ADD1B2" rx="11" ry="11" style="stroke: #A80036; stroke-width: 1.0;"/><path d="M231.7731,152.2759 Q231.1921,152.5747 230.5529,152.7241 Q229.9138,152.8735 229.2082,152.8735 Q226.7014,152.8735 225.3815,151.2217 Q224.0617,149.5698 224.0617,146.4487 Q224.0617,143.3193 225.3815,141.6675 Q226.7014,140.0156 229.2082,140.0156 Q229.9138,140.0156 230.5612,140.165 Q231.2087,140.3145 231.7731,140.6133 L231.7731,143.3359 Q231.1423,142.7549 230.5488,142.4851 Q229.9553,142.2153 229.3244,142.2153 Q227.9797,142.2153 227.2949,143.282 Q226.6101,144.3486 226.6101,146.4487 Q226.6101,148.5405 227.2949,149.6072 Q227.9797,150.6738 229.3244,150.6738 Q229.9553,150.6738 230.5488,150.4041 Q231.1423,150.1343 231.7731,149.5532 Z "/><text fill="#000000" font-family="sans-serif" font-size="14" lengthAdjust="spacingAndGlyphs" textLength="216" x="244.7" y="145.5352">SubstancePolymer.MonomerSet</text><text fill="#000000" font-family="sans-serif" font-size="10" lengthAdjust="spacingAndGlyphs" textLength="139" x="283.2" y="158.1563">com.ibm.fhir.model.resource</text><line style="stroke: #A80036; stroke-width: 1.5;" x1="209" x2="469" y1="165.2656" y2="165.2656"/><ellipse cx="219" cy="177.2432" fill="#84BE84" rx="3" ry="3" style="stroke: #038048; stroke-width: 1.0;"/><text fill="#000000" font-family="sans-serif" font-size="11" lengthAdjust="spacingAndGlyphs" textLength="179" x="228" y="179.9004">getRatioType(): CodeableConcept</text><ellipse cx="219" cy="190.1982" fill="#84BE84" rx="3" ry="3" style="stroke: #038048; stroke-width: 1.0;"/><text fill="#000000" font-family="sans-serif" font-size="11" lengthAdjust="spacingAndGlyphs" textLength="236" x="228" y="192.8555">getStartingMaterial(): List&lt;StartingMaterial&gt;</text><ellipse cx="219" cy="203.1533" fill="#84BE84" rx="3" ry="3" style="stroke: #038048; stroke-width: 1.0;"/><text fill="#000000" font-family="sans-serif" font-size="11" lengthAdjust="spacingAndGlyphs" textLength="122" x="228" y="205.8105">hasChildren(): boolean</text><ellipse cx="219" cy="216.1084" fill="#84BE84" rx="3" ry="3" style="stroke: #038048; stroke-width: 1.0;"/><text fill="#000000" font-family="sans-serif" font-size="11" lengthAdjust="spacingAndGlyphs" textLength="165" x="228" y="218.7656">accept(String, int, Visitor): void</text><ellipse cx="219" cy="229.0635" fill="#84BE84" rx="3" ry="3" style="stroke: #038048; stroke-width: 1.0;"/><text fill="#000000" font-family="sans-serif" font-size="11" lengthAdjust="spacingAndGlyphs" textLength="99" x="228" y="231.7207">toBuilder(): Builder</text><ellipse cx="219" cy="242.0186" fill="#84BE84" rx="3" ry="3" style="stroke: #038048; stroke-width: 1.0;"/><text fill="#000000" font-family="sans-serif" font-size="11" lengthAdjust="spacingAndGlyphs" text-decoration="underline" textLength="89" x="228" y="244.6758">builder(): Builder</text></a><!--class com.ibm.fhir.model.type.BackboneElement--><a href="../type/BackboneElement.html" target="_top" xlink:actuate="onRequest" xlink:show="new" xlink:title="../type/BackboneElement.html" xlink:type="simple"><rect fill="#FEFECE" filter="url(#f1owosxshtiu6n)" height="59.2207" id="com.ibm.fhir.model.type.BackboneElement" style="stroke: #A80036; stroke-width: 1.5;" width="153" x="164.5" y="8"/><ellipse cx="179.5" cy="27.1328" fill="#A9DCDF" rx="11" ry="11" style="stroke: #A80036; stroke-width: 1.0;"/><path d="M179.6133,22.731 L178.4595,27.8027 L180.7754,27.8027 Z M178.1191,20.4897 L181.1157,20.4897 L184.4609,32.8828 L182.0122,32.8828 L181.2485,29.8198 L177.9697,29.8198 L177.2227,32.8828 L174.7739,32.8828 Z "/><text fill="#000000" font-family="sans-serif" font-size="14" font-style="italic" lengthAdjust="spacingAndGlyphs" textLength="121" x="193.5" y="26.5352">BackboneElement</text><text fill="#000000" font-family="sans-serif" font-size="10" font-style="italic" lengthAdjust="spacingAndGlyphs" textLength="118" x="195" y="39.1563">com.ibm.fhir.model.type</text><line style="stroke: #A80036; stroke-width: 1.5;" x1="165.5" x2="316.5" y1="46.2656" y2="46.2656"/><ellipse cx="175.5" cy="58.2432" fill="#84BE84" rx="3" ry="3" style="stroke: #038048; stroke-width: 1.0;"/><text fill="#000000" font-family="sans-serif" font-size="11" font-style="italic" lengthAdjust="spacingAndGlyphs" textLength="99" x="184.5" y="60.9004">toBuilder(): Builder</text></a><!--class com.ibm.fhir.model.resource.SubstancePolymer--><a href="SubstancePolymer.html" target="_top" xlink:actuate="onRequest" xlink:show="new" xlink:title="SubstancePolymer.html" xlink:type="simple"><rect fill="#FEFECE" filter="url(#f1owosxshtiu6n)" height="38.2656" id="com.ibm.fhir.model.resource.SubstancePolymer" style="stroke: #A80036; stroke-width: 1.5;" width="171" x="352.5" y="18.5"/><ellipse cx="367.5" cy="37.6328" fill="#ADD1B2" rx="11" ry="11" style="stroke: #A80036; stroke-width: 1.0;"/><path d="M369.9731,43.7759 Q369.3921,44.0747 368.7529,44.2241 Q368.1138,44.3735 367.4082,44.3735 Q364.9014,44.3735 363.5815,42.7217 Q362.2617,41.0698 362.2617,37.9487 Q362.2617,34.8193 363.5815,33.1675 Q364.9014,31.5156 367.4082,31.5156 Q368.1138,31.5156 368.7612,31.665 Q369.4087,31.8145 369.9731,32.1133 L369.9731,34.8359 Q369.3423,34.2549 368.7488,33.9851 Q368.1553,33.7153 367.5244,33.7153 Q366.1797,33.7153 365.4949,34.782 Q364.8101,35.8486 364.8101,37.9487 Q364.8101,40.0405 365.4949,41.1072 Q366.1797,42.1738 367.5244,42.1738 Q368.1553,42.1738 368.7488,41.9041 Q369.3423,41.6343 369.9731,41.0532 Z "/><text fill="#000000" font-family="sans-serif" font-size="14" lengthAdjust="spacingAndGlyphs" textLength="125" x="388.5" y="37.0352">SubstancePolymer</text><text fill="#000000" font-family="sans-serif" font-size="10" lengthAdjust="spacingAndGlyphs" textLength="139" x="381.5" y="49.6563">com.ibm.fhir.model.resource</text></a><!--class com.ibm.fhir.model.resource.SubstancePolymer.MonomerSet.Builder--><a href="SubstancePolymer.MonomerSet.Builder.html" target="_top" xlink:actuate="onRequest" xlink:show="new" xlink:title="SubstancePolymer.MonomerSet.Builder.html" xlink:type="simple"><rect fill="#FEFECE" filter="url(#f1owosxshtiu6n)" height="38.2656" id="com.ibm.fhir.model.resource.SubstancePolymer.MonomerSet.Builder" style="stroke: #A80036; stroke-width: 1.5;" width="300" x="6" y="311"/><ellipse cx="21" cy="330.1328" fill="#ADD1B2" rx="11" ry="11" style="stroke: #A80036; stroke-width: 1.0;"/><path d="M23.4731,336.2759 Q22.8921,336.5747 22.2529,336.7241 Q21.6138,336.8735 20.9082,336.8735 Q18.4014,336.8735 17.0815,335.2217 Q15.7617,333.5698 15.7617,330.4487 Q15.7617,327.3193 17.0815,325.6675 Q18.4014,324.0156 20.9082,324.0156 Q21.6138,324.0156 22.2612,324.165 Q22.9087,324.3145 23.4731,324.6133 L23.4731,327.3359 Q22.8423,326.7549 22.2488,326.4851 Q21.6553,326.2153 21.0244,326.2153 Q19.6797,326.2153 18.9949,327.282 Q18.3101,328.3486 18.3101,330.4487 Q18.3101,332.5405 18.9949,333.6072 Q19.6797,334.6738 21.0244,334.6738 Q21.6553,334.6738 22.2488,334.4041 Q22.8423,334.1343 23.4731,333.5532 Z "/><text fill="#000000" font-family="sans-serif" font-size="14" lengthAdjust="spacingAndGlyphs" textLength="268" x="35" y="329.5352">SubstancePolymer.MonomerSet.Builder</text><text fill="#000000" font-family="sans-serif" font-size="10" lengthAdjust="spacingAndGlyphs" textLength="139" x="99.5" y="342.1563">com.ibm.fhir.model.resource</text></a><!--class com.ibm.fhir.model.resource.SubstancePolymer.MonomerSet.StartingMaterial--><a href="SubstancePolymer.MonomerSet.StartingMaterial.html" target="_top" xlink:actuate="onRequest" xlink:show="new" xlink:title="SubstancePolymer.MonomerSet.StartingMaterial.html" xlink:type="simple"><rect fill="#FEFECE" filter="url(#f1owosxshtiu6n)" height="38.2656" id="com.ibm.fhir.model.resource.SubstancePolymer.MonomerSet.StartingMaterial" style="stroke: #A80036; stroke-width: 1.5;" width="361" x="341.5" y="311"/><ellipse cx="356.5" cy="330.1328" fill="#ADD1B2" rx="11" ry="11" style="stroke: #A80036; stroke-width: 1.0;"/><path d="M358.9731,336.2759 Q358.3921,336.5747 357.7529,336.7241 Q357.1138,336.8735 356.4082,336.8735 Q353.9014,336.8735 352.5815,335.2217 Q351.2617,333.5698 351.2617,330.4487 Q351.2617,327.3193 352.5815,325.6675 Q353.9014,324.0156 356.4082,324.0156 Q357.1138,324.0156 357.7612,324.165 Q358.4087,324.3145 358.9731,324.6133 L358.9731,327.3359 Q358.3423,326.7549 357.7488,326.4851 Q357.1553,326.2153 356.5244,326.2153 Q355.1797,326.2153 354.4949,327.282 Q353.8101,328.3486 353.8101,330.4487 Q353.8101,332.5405 354.4949,333.6072 Q355.1797,334.6738 356.5244,334.6738 Q357.1553,334.6738 357.7488,334.4041 Q358.3423,334.1343 358.9731,333.5532 Z "/><text fill="#000000" font-family="sans-serif" font-size="14" lengthAdjust="spacingAndGlyphs" textLength="329" x="370.5" y="329.5352">SubstancePolymer.MonomerSet.StartingMaterial</text><text fill="#000000" font-family="sans-serif" font-size="10" lengthAdjust="spacingAndGlyphs" textLength="139" x="465.5" y="342.1563">com.ibm.fhir.model.resource</text></a><!--link com.ibm.fhir.model.type.BackboneElement to com.ibm.fhir.model.resource.SubstancePolymer.MonomerSet--><path d="M271.0006,83.8785 C279.7832,97.4557 289.5295,112.5226 298.8359,126.9096 " fill="none" id="com.ibm.fhir.model.type.BackboneElement-com.ibm.fhir.model.resource.SubstancePolymer.MonomerSet" style="stroke: #A80036; stroke-width: 1.0;"/><polygon fill="none" points="265.1133,87.6652,260.128,67.0704,276.8683,80.0613,265.1133,87.6652" style="stroke: #A80036; stroke-width: 1.0;"/><!--link com.ibm.fhir.model.resource.SubstancePolymer to com.ibm.fhir.model.resource.SubstancePolymer.MonomerSet--><path d="M417.0652,69.5366 C406.1924,86.1753 392.5241,107.0919 379.6756,126.7541 " fill="none" id="com.ibm.fhir.model.resource.SubstancePolymer-com.ibm.fhir.model.resource.SubstancePolymer.MonomerSet" style="stroke: #A80036; stroke-width: 1.0;"/><ellipse cx="421.0854" cy="63.3845" fill="#FFFFFF" rx="8" ry="8" style="stroke: #A80036; stroke-width: 1.0;"/><line style="stroke: #A80036; stroke-width: 1.0;" x1="416.7091" x2="425.4616" y1="70.0814" y2="56.6876"/><line style="stroke: #A80036; stroke-width: 1.0;" x1="414.3885" x2="427.7823" y1="59.0083" y2="67.7607"/><!--link com.ibm.fhir.model.resource.SubstancePolymer.MonomerSet to com.ibm.fhir.model.resource.SubstancePolymer.MonomerSet.Builder--><path d="M246.2716,260.4465 C222.1654,279.0201 198.1729,297.5061 180.9885,310.7466 " fill="none" id="com.ibm.fhir.model.resource.SubstancePolymer.MonomerSet-com.ibm.fhir.model.resource.SubstancePolymer.MonomerSet.Builder" style="stroke: #A80036; stroke-width: 1.0;"/><ellipse cx="252.1301" cy="255.9325" fill="#FFFFFF" rx="8" ry="8" style="stroke: #A80036; stroke-width: 1.0;"/><line style="stroke: #A80036; stroke-width: 1.0;" x1="245.793" x2="258.4672" y1="260.8152" y2="251.0498"/><line style="stroke: #A80036; stroke-width: 1.0;" x1="247.2474" x2="257.0128" y1="249.5954" y2="262.2696"/><!--link com.ibm.fhir.model.resource.SubstancePolymer.MonomerSet to com.ibm.fhir.model.resource.SubstancePolymer.MonomerSet.StartingMaterial--><path d="M431.7284,260.4465 C455.8346,279.0201 479.8271,297.5061 497.0115,310.7466 " fill="none" id="com.ibm.fhir.model.resource.SubstancePolymer.MonomerSet-com.ibm.fhir.model.resource.SubstancePolymer.MonomerSet.StartingMaterial" style="stroke: #A80036; stroke-width: 1.0;"/><ellipse cx="425.8699" cy="255.9325" fill="#FFFFFF" rx="8" ry="8" style="stroke: #A80036; stroke-width: 1.0;"/><line style="stroke: #A80036; stroke-width: 1.0;" x1="432.207" x2="419.5328" y1="260.8152" y2="251.0498"/><line style="stroke: #A80036; stroke-width: 1.0;" x1="420.9872" x2="430.7526" y1="262.2696" y2="249.5954"/><text fill="#888888" font-family="sans-serif" font-size="10" lengthAdjust="spacingAndGlyphs" textLength="182" x="269.5" y="368.668">UMLDoclet 2.0.5, PlantUML 1.2019.08</text><!--
@startuml
    set namespaceSeparator none
    hide empty fields
    hide empty methods

    class "<size:14>SubstancePolymer.MonomerSet\n<size:10>com.ibm.fhir.model.resource" as com.ibm.fhir.model.resource.SubstancePolymer.MonomerSet [[SubstancePolymer.MonomerSet.html]] {
        +getRatioType(): CodeableConcept
        +getStartingMaterial(): List<StartingMaterial>
        +hasChildren(): boolean
        +accept(String, int, Visitor): void
        +toBuilder(): Builder
        {static} +builder(): Builder
    }

    abstract class "<size:14>BackboneElement\n<size:10>com.ibm.fhir.model.type" as com.ibm.fhir.model.type.BackboneElement [[../type/BackboneElement.html]] {
        {abstract} +toBuilder(): Builder
    }
    class "<size:14>SubstancePolymer\n<size:10>com.ibm.fhir.model.resource" as com.ibm.fhir.model.resource.SubstancePolymer [[SubstancePolymer.html]]
    class "<size:14>SubstancePolymer.MonomerSet.Builder\n<size:10>com.ibm.fhir.model.resource" as com.ibm.fhir.model.resource.SubstancePolymer.MonomerSet.Builder [[SubstancePolymer.MonomerSet.Builder.html]]
    class "<size:14>SubstancePolymer.MonomerSet.StartingMaterial\n<size:10>com.ibm.fhir.model.resource" as com.ibm.fhir.model.resource.SubstancePolymer.MonomerSet.StartingMaterial [[SubstancePolymer.MonomerSet.StartingMaterial.html]]

    com.ibm.fhir.model.type.BackboneElement <|- - com.ibm.fhir.model.resource.SubstancePolymer.MonomerSet
    com.ibm.fhir.model.resource.SubstancePolymer +- - com.ibm.fhir.model.resource.SubstancePolymer.MonomerSet
    com.ibm.fhir.model.resource.SubstancePolymer.MonomerSet +- - com.ibm.fhir.model.resource.SubstancePolymer.MonomerSet.Builder
    com.ibm.fhir.model.resource.SubstancePolymer.MonomerSet +- - com.ibm.fhir.model.resource.SubstancePolymer.MonomerSet.StartingMaterial

    center footer UMLDoclet 2.0.5, PlantUML 1.2019.08
@enduml

PlantUML version 1.2019.08(Sat Jul 13 15:25:14 EDT 2019)
(APACHE source distribution)
Java Runtime: OpenJDK Runtime Environment
JVM: OpenJDK 64-Bit Server VM
Java Version: 11.0.4+11
Operating System: Mac OS X
OS Version: 10.14.6
Default Encoding: UTF-8
Language: en
Country: US
--></g></svg>