<?xml version="1.0" encoding="UTF-8" standalone="no"?><svg xmlns="http://www.w3.org/2000/svg" xmlns:xlink="http://www.w3.org/1999/xlink" contentScriptType="application/ecmascript" contentStyleType="text/css" height="667px" preserveAspectRatio="none" style="width:2481px;height:667px;" version="1.1" viewBox="0 0 2481 667" width="2481px" zoomAndPan="magnify"><defs><filter height="300%" id="f11qwavrdnp606" width="300%" x="-1" y="-1"><feGaussianBlur result="blurOut" stdDeviation="2.0"/><feColorMatrix in="blurOut" result="blurOut2" type="matrix" values="0 0 0 0 0 0 0 0 0 0 0 0 0 0 0 0 0 0 .4 0"/><feOffset dx="4.0" dy="4.0" in="blurOut2" result="blurOut3"/><feBlend in="SourceGraphic" in2="blurOut3" mode="normal"/></filter></defs><g><!--class com.ibm.fhir.model.resource.TerminologyCapabilities--><a href="TerminologyCapabilities.html" target="_top" xlink:actuate="onRequest" xlink:show="new" xlink:title="TerminologyCapabilities.html" xlink:type="simple"><rect fill="#FEFECE" filter="url(#f11qwavrdnp606)" height="409.0078" id="com.ibm.fhir.model.resource.TerminologyCapabilities" style="stroke: #A80036; stroke-width: 1.5;" width="250" x="1112.5" y="127"/><ellipse cx="1150.45" cy="146.1328" fill="#ADD1B2" rx="11" ry="11" style="stroke: #A80036; stroke-width: 1.0;"/><path d="M1152.9231,152.2759 Q1152.3421,152.5747 1151.7029,152.7241 Q1151.0638,152.8735 1150.3582,152.8735 Q1147.8514,152.8735 1146.5315,151.2217 Q1145.2117,149.5698 1145.2117,146.4487 Q1145.2117,143.3193 1146.5315,141.6675 Q1147.8514,140.0156 1150.3582,140.0156 Q1151.0638,140.0156 1151.7112,140.165 Q1152.3587,140.3145 1152.9231,140.6133 L1152.9231,143.3359 Q1152.2923,142.7549 1151.6988,142.4851 Q1151.1053,142.2153 1150.4744,142.2153 Q1149.1297,142.2153 1148.4449,143.282 Q1147.7601,144.3486 1147.7601,146.4487 Q1147.7601,148.5405 1148.4449,149.6072 Q1149.1297,150.6738 1150.4744,150.6738 Q1151.1053,150.6738 1151.6988,150.4041 Q1152.2923,150.1343 1152.9231,149.5532 Z "/><text fill="#000000" font-family="sans-serif" font-size="14" lengthAdjust="spacingAndGlyphs" textLength="167" x="1169.55" y="145.5352">TerminologyCapabilities</text><text fill="#000000" font-family="sans-serif" font-size="10" lengthAdjust="spacingAndGlyphs" textLength="139" x="1183.55" y="158.1563">com.ibm.fhir.model.resource</text><line style="stroke: #A80036; stroke-width: 1.5;" x1="1113.5" x2="1361.5" y1="165.2656" y2="165.2656"/><ellipse cx="1123.5" cy="177.2432" fill="#84BE84" rx="3" ry="3" style="stroke: #038048; stroke-width: 1.0;"/><text fill="#000000" font-family="sans-serif" font-size="11" lengthAdjust="spacingAndGlyphs" textLength="63" x="1132.5" y="179.9004">getUrl(): Uri</text><ellipse cx="1123.5" cy="190.1982" fill="#84BE84" rx="3" ry="3" style="stroke: #038048; stroke-width: 1.0;"/><text fill="#000000" font-family="sans-serif" font-size="11" lengthAdjust="spacingAndGlyphs" textLength="104" x="1132.5" y="192.8555">getVersion(): String</text><ellipse cx="1123.5" cy="203.1533" fill="#84BE84" rx="3" ry="3" style="stroke: #038048; stroke-width: 1.0;"/><text fill="#000000" font-family="sans-serif" font-size="11" lengthAdjust="spacingAndGlyphs" textLength="93" x="1132.5" y="205.8105">getName(): String</text><ellipse cx="1123.5" cy="216.1084" fill="#84BE84" rx="3" ry="3" style="stroke: #038048; stroke-width: 1.0;"/><text fill="#000000" font-family="sans-serif" font-size="11" lengthAdjust="spacingAndGlyphs" textLength="86" x="1132.5" y="218.7656">getTitle(): String</text><ellipse cx="1123.5" cy="229.0635" fill="#84BE84" rx="3" ry="3" style="stroke: #038048; stroke-width: 1.0;"/><text fill="#000000" font-family="sans-serif" font-size="11" lengthAdjust="spacingAndGlyphs" textLength="156" x="1132.5" y="231.7207">getStatus(): PublicationStatus</text><ellipse cx="1123.5" cy="242.0186" fill="#84BE84" rx="3" ry="3" style="stroke: #038048; stroke-width: 1.0;"/><text fill="#000000" font-family="sans-serif" font-size="11" lengthAdjust="spacingAndGlyphs" textLength="143" x="1132.5" y="244.6758">getExperimental(): Boolean</text><ellipse cx="1123.5" cy="254.9736" fill="#84BE84" rx="3" ry="3" style="stroke: #038048; stroke-width: 1.0;"/><text fill="#000000" font-family="sans-serif" font-size="11" lengthAdjust="spacingAndGlyphs" textLength="105" x="1132.5" y="257.6309">getDate(): DateTime</text><ellipse cx="1123.5" cy="267.9287" fill="#84BE84" rx="3" ry="3" style="stroke: #038048; stroke-width: 1.0;"/><text fill="#000000" font-family="sans-serif" font-size="11" lengthAdjust="spacingAndGlyphs" textLength="113" x="1132.5" y="270.5859">getPublisher(): String</text><ellipse cx="1123.5" cy="280.8838" fill="#84BE84" rx="3" ry="3" style="stroke: #038048; stroke-width: 1.0;"/><text fill="#000000" font-family="sans-serif" font-size="11" lengthAdjust="spacingAndGlyphs" textLength="182" x="1132.5" y="283.541">getContact(): List&lt;ContactDetail&gt;</text><ellipse cx="1123.5" cy="293.8389" fill="#84BE84" rx="3" ry="3" style="stroke: #038048; stroke-width: 1.0;"/><text fill="#000000" font-family="sans-serif" font-size="11" lengthAdjust="spacingAndGlyphs" textLength="148" x="1132.5" y="296.4961">getDescription(): Markdown</text><ellipse cx="1123.5" cy="306.7939" fill="#84BE84" rx="3" ry="3" style="stroke: #038048; stroke-width: 1.0;"/><text fill="#000000" font-family="sans-serif" font-size="11" lengthAdjust="spacingAndGlyphs" textLength="207" x="1132.5" y="309.4512">getUseContext(): List&lt;UsageContext&gt;</text><ellipse cx="1123.5" cy="319.749" fill="#84BE84" rx="3" ry="3" style="stroke: #038048; stroke-width: 1.0;"/><text fill="#000000" font-family="sans-serif" font-size="11" lengthAdjust="spacingAndGlyphs" textLength="224" x="1132.5" y="322.4063">getJurisdiction(): List&lt;CodeableConcept&gt;</text><ellipse cx="1123.5" cy="332.7041" fill="#84BE84" rx="3" ry="3" style="stroke: #038048; stroke-width: 1.0;"/><text fill="#000000" font-family="sans-serif" font-size="11" lengthAdjust="spacingAndGlyphs" textLength="130" x="1132.5" y="335.3613">getPurpose(): Markdown</text><ellipse cx="1123.5" cy="345.6592" fill="#84BE84" rx="3" ry="3" style="stroke: #038048; stroke-width: 1.0;"/><text fill="#000000" font-family="sans-serif" font-size="11" lengthAdjust="spacingAndGlyphs" textLength="140" x="1132.5" y="348.3164">getCopyright(): Markdown</text><ellipse cx="1123.5" cy="358.6143" fill="#84BE84" rx="3" ry="3" style="stroke: #038048; stroke-width: 1.0;"/><text fill="#000000" font-family="sans-serif" font-size="11" lengthAdjust="spacingAndGlyphs" textLength="185" x="1132.5" y="361.2715">getKind(): CapabilityStatementKind</text><ellipse cx="1123.5" cy="371.5693" fill="#84BE84" rx="3" ry="3" style="stroke: #038048; stroke-width: 1.0;"/><text fill="#000000" font-family="sans-serif" font-size="11" lengthAdjust="spacingAndGlyphs" textLength="123" x="1132.5" y="374.2266">getSoftware(): Software</text><ellipse cx="1123.5" cy="384.5244" fill="#84BE84" rx="3" ry="3" style="stroke: #038048; stroke-width: 1.0;"/><text fill="#000000" font-family="sans-serif" font-size="11" lengthAdjust="spacingAndGlyphs" textLength="197" x="1132.5" y="387.1816">getImplementation(): Implementation</text><ellipse cx="1123.5" cy="397.4795" fill="#84BE84" rx="3" ry="3" style="stroke: #038048; stroke-width: 1.0;"/><text fill="#000000" font-family="sans-serif" font-size="11" lengthAdjust="spacingAndGlyphs" textLength="135" x="1132.5" y="400.1367">getLockedDate(): Boolean</text><ellipse cx="1123.5" cy="410.4346" fill="#84BE84" rx="3" ry="3" style="stroke: #038048; stroke-width: 1.0;"/><text fill="#000000" font-family="sans-serif" font-size="11" lengthAdjust="spacingAndGlyphs" textLength="200" x="1132.5" y="413.0918">getCodeSystem(): List&lt;CodeSystem&gt;</text><ellipse cx="1123.5" cy="423.3896" fill="#84BE84" rx="3" ry="3" style="stroke: #038048; stroke-width: 1.0;"/><text fill="#000000" font-family="sans-serif" font-size="11" lengthAdjust="spacingAndGlyphs" textLength="143" x="1132.5" y="426.0469">getExpansion(): Expansion</text><ellipse cx="1123.5" cy="436.3447" fill="#84BE84" rx="3" ry="3" style="stroke: #038048; stroke-width: 1.0;"/><text fill="#000000" font-family="sans-serif" font-size="11" lengthAdjust="spacingAndGlyphs" textLength="202" x="1132.5" y="439.002">getCodeSearch(): CodeSearchSupport</text><ellipse cx="1123.5" cy="449.2998" fill="#84BE84" rx="3" ry="3" style="stroke: #038048; stroke-width: 1.0;"/><text fill="#000000" font-family="sans-serif" font-size="11" lengthAdjust="spacingAndGlyphs" textLength="171" x="1132.5" y="451.957">getValidateCode(): ValidateCode</text><ellipse cx="1123.5" cy="462.2549" fill="#84BE84" rx="3" ry="3" style="stroke: #038048; stroke-width: 1.0;"/><text fill="#000000" font-family="sans-serif" font-size="11" lengthAdjust="spacingAndGlyphs" textLength="153" x="1132.5" y="464.9121">getTranslation(): Translation</text><ellipse cx="1123.5" cy="475.21" fill="#84BE84" rx="3" ry="3" style="stroke: #038048; stroke-width: 1.0;"/><text fill="#000000" font-family="sans-serif" font-size="11" lengthAdjust="spacingAndGlyphs" textLength="115" x="1132.5" y="477.8672">getClosure(): Closure</text><ellipse cx="1123.5" cy="488.165" fill="#84BE84" rx="3" ry="3" style="stroke: #038048; stroke-width: 1.0;"/><text fill="#000000" font-family="sans-serif" font-size="11" lengthAdjust="spacingAndGlyphs" textLength="122" x="1132.5" y="490.8223">hasChildren(): boolean</text><ellipse cx="1123.5" cy="501.1201" fill="#84BE84" rx="3" ry="3" style="stroke: #038048; stroke-width: 1.0;"/><text fill="#000000" font-family="sans-serif" font-size="11" lengthAdjust="spacingAndGlyphs" textLength="165" x="1132.5" y="503.7773">accept(String, int, Visitor): void</text><ellipse cx="1123.5" cy="514.0752" fill="#84BE84" rx="3" ry="3" style="stroke: #038048; stroke-width: 1.0;"/><text fill="#000000" font-family="sans-serif" font-size="11" lengthAdjust="spacingAndGlyphs" textLength="99" x="1132.5" y="516.7324">toBuilder(): Builder</text><ellipse cx="1123.5" cy="527.0303" fill="#84BE84" rx="3" ry="3" style="stroke: #038048; stroke-width: 1.0;"/><text fill="#000000" font-family="sans-serif" font-size="11" lengthAdjust="spacingAndGlyphs" text-decoration="underline" textLength="89" x="1132.5" y="529.6875">builder(): Builder</text></a><!--class com.ibm.fhir.model.resource.DomainResource--><a href="DomainResource.html" target="_top" xlink:actuate="onRequest" xlink:show="new" xlink:title="DomainResource.html" xlink:type="simple"><rect fill="#FEFECE" filter="url(#f11qwavrdnp606)" height="59.2207" id="com.ibm.fhir.model.resource.DomainResource" style="stroke: #A80036; stroke-width: 1.5;" width="171" x="1152" y="8"/><ellipse cx="1167" cy="27.1328" fill="#A9DCDF" rx="11" ry="11" style="stroke: #A80036; stroke-width: 1.0;"/><path d="M1167.1133,22.731 L1165.9595,27.8027 L1168.2754,27.8027 Z M1165.6191,20.4897 L1168.6157,20.4897 L1171.9609,32.8828 L1169.5122,32.8828 L1168.7485,29.8198 L1165.4697,29.8198 L1164.7227,32.8828 L1162.2739,32.8828 Z "/><text fill="#000000" font-family="sans-serif" font-size="14" font-style="italic" lengthAdjust="spacingAndGlyphs" textLength="116" x="1192.5" y="26.5352">DomainResource</text><text fill="#000000" font-family="sans-serif" font-size="10" font-style="italic" lengthAdjust="spacingAndGlyphs" textLength="139" x="1181" y="39.1563">com.ibm.fhir.model.resource</text><line style="stroke: #A80036; stroke-width: 1.5;" x1="1153" x2="1322" y1="46.2656" y2="46.2656"/><ellipse cx="1163" cy="58.2432" fill="#84BE84" rx="3" ry="3" style="stroke: #038048; stroke-width: 1.0;"/><text fill="#000000" font-family="sans-serif" font-size="11" font-style="italic" lengthAdjust="spacingAndGlyphs" textLength="99" x="1172" y="60.9004">toBuilder(): Builder</text></a><!--class com.ibm.fhir.model.resource.TerminologyCapabilities.Builder--><a href="TerminologyCapabilities.Builder.html" target="_top" xlink:actuate="onRequest" xlink:show="new" xlink:title="TerminologyCapabilities.Builder.html" xlink:type="simple"><rect fill="#FEFECE" filter="url(#f11qwavrdnp606)" height="38.2656" id="com.ibm.fhir.model.resource.TerminologyCapabilities.Builder" style="stroke: #A80036; stroke-width: 1.5;" width="251" x="6" y="596"/><ellipse cx="21" cy="615.1328" fill="#ADD1B2" rx="11" ry="11" style="stroke: #A80036; stroke-width: 1.0;"/><path d="M23.4731,621.2759 Q22.8921,621.5747 22.2529,621.7241 Q21.6138,621.8735 20.9082,621.8735 Q18.4014,621.8735 17.0815,620.2217 Q15.7617,618.5698 15.7617,615.4487 Q15.7617,612.3193 17.0815,610.6675 Q18.4014,609.0156 20.9082,609.0156 Q21.6138,609.0156 22.2612,609.165 Q22.9087,609.3145 23.4731,609.6133 L23.4731,612.3359 Q22.8423,611.7549 22.2488,611.4851 Q21.6553,611.2153 21.0244,611.2153 Q19.6797,611.2153 18.9949,612.282 Q18.3101,613.3486 18.3101,615.4487 Q18.3101,617.5405 18.9949,618.6072 Q19.6797,619.6738 21.0244,619.6738 Q21.6553,619.6738 22.2488,619.4041 Q22.8423,619.1343 23.4731,618.5532 Z "/><text fill="#000000" font-family="sans-serif" font-size="14" lengthAdjust="spacingAndGlyphs" textLength="219" x="35" y="614.5352">TerminologyCapabilities.Builder</text><text fill="#000000" font-family="sans-serif" font-size="10" lengthAdjust="spacingAndGlyphs" textLength="139" x="75" y="627.1563">com.ibm.fhir.model.resource</text></a><!--class com.ibm.fhir.model.resource.TerminologyCapabilities.Software--><a href="TerminologyCapabilities.Software.html" target="_top" xlink:actuate="onRequest" xlink:show="new" xlink:title="TerminologyCapabilities.Software.html" xlink:type="simple"><rect fill="#FEFECE" filter="url(#f11qwavrdnp606)" height="38.2656" id="com.ibm.fhir.model.resource.TerminologyCapabilities.Software" style="stroke: #A80036; stroke-width: 1.5;" width="263" x="292" y="596"/><ellipse cx="307" cy="615.1328" fill="#ADD1B2" rx="11" ry="11" style="stroke: #A80036; stroke-width: 1.0;"/><path d="M309.4731,621.2759 Q308.8921,621.5747 308.2529,621.7241 Q307.6138,621.8735 306.9082,621.8735 Q304.4014,621.8735 303.0815,620.2217 Q301.7617,618.5698 301.7617,615.4487 Q301.7617,612.3193 303.0815,610.6675 Q304.4014,609.0156 306.9082,609.0156 Q307.6138,609.0156 308.2612,609.165 Q308.9087,609.3145 309.4731,609.6133 L309.4731,612.3359 Q308.8423,611.7549 308.2488,611.4851 Q307.6553,611.2153 307.0244,611.2153 Q305.6797,611.2153 304.9949,612.282 Q304.3101,613.3486 304.3101,615.4487 Q304.3101,617.5405 304.9949,618.6072 Q305.6797,619.6738 307.0244,619.6738 Q307.6553,619.6738 308.2488,619.4041 Q308.8423,619.1343 309.4731,618.5532 Z "/><text fill="#000000" font-family="sans-serif" font-size="14" lengthAdjust="spacingAndGlyphs" textLength="231" x="321" y="614.5352">TerminologyCapabilities.Software</text><text fill="#000000" font-family="sans-serif" font-size="10" lengthAdjust="spacingAndGlyphs" textLength="139" x="367" y="627.1563">com.ibm.fhir.model.resource</text></a><!--class com.ibm.fhir.model.resource.TerminologyCapabilities.Implementation--><a href="TerminologyCapabilities.Implementation.html" target="_top" xlink:actuate="onRequest" xlink:show="new" xlink:title="TerminologyCapabilities.Implementation.html" xlink:type="simple"><rect fill="#FEFECE" filter="url(#f11qwavrdnp606)" height="38.2656" id="com.ibm.fhir.model.resource.TerminologyCapabilities.Implementation" style="stroke: #A80036; stroke-width: 1.5;" width="311" x="590" y="596"/><ellipse cx="605" cy="615.1328" fill="#ADD1B2" rx="11" ry="11" style="stroke: #A80036; stroke-width: 1.0;"/><path d="M607.4731,621.2759 Q606.8921,621.5747 606.2529,621.7241 Q605.6138,621.8735 604.9082,621.8735 Q602.4014,621.8735 601.0815,620.2217 Q599.7617,618.5698 599.7617,615.4487 Q599.7617,612.3193 601.0815,610.6675 Q602.4014,609.0156 604.9082,609.0156 Q605.6138,609.0156 606.2612,609.165 Q606.9087,609.3145 607.4731,609.6133 L607.4731,612.3359 Q606.8423,611.7549 606.2488,611.4851 Q605.6553,611.2153 605.0244,611.2153 Q603.6797,611.2153 602.9949,612.282 Q602.3101,613.3486 602.3101,615.4487 Q602.3101,617.5405 602.9949,618.6072 Q603.6797,619.6738 605.0244,619.6738 Q605.6553,619.6738 606.2488,619.4041 Q606.8423,619.1343 607.4731,618.5532 Z "/><text fill="#000000" font-family="sans-serif" font-size="14" lengthAdjust="spacingAndGlyphs" textLength="279" x="619" y="614.5352">TerminologyCapabilities.Implementation</text><text fill="#000000" font-family="sans-serif" font-size="10" lengthAdjust="spacingAndGlyphs" textLength="139" x="689" y="627.1563">com.ibm.fhir.model.resource</text></a><!--class com.ibm.fhir.model.resource.TerminologyCapabilities.CodeSystem--><a href="TerminologyCapabilities.CodeSystem.html" target="_top" xlink:actuate="onRequest" xlink:show="new" xlink:title="TerminologyCapabilities.CodeSystem.html" xlink:type="simple"><rect fill="#FEFECE" filter="url(#f11qwavrdnp606)" height="38.2656" id="com.ibm.fhir.model.resource.TerminologyCapabilities.CodeSystem" style="stroke: #A80036; stroke-width: 1.5;" width="287" x="936" y="596"/><ellipse cx="951" cy="615.1328" fill="#ADD1B2" rx="11" ry="11" style="stroke: #A80036; stroke-width: 1.0;"/><path d="M953.4731,621.2759 Q952.8921,621.5747 952.2529,621.7241 Q951.6138,621.8735 950.9082,621.8735 Q948.4014,621.8735 947.0815,620.2217 Q945.7617,618.5698 945.7617,615.4487 Q945.7617,612.3193 947.0815,610.6675 Q948.4014,609.0156 950.9082,609.0156 Q951.6138,609.0156 952.2612,609.165 Q952.9087,609.3145 953.4731,609.6133 L953.4731,612.3359 Q952.8423,611.7549 952.2488,611.4851 Q951.6553,611.2153 951.0244,611.2153 Q949.6797,611.2153 948.9949,612.282 Q948.3101,613.3486 948.3101,615.4487 Q948.3101,617.5405 948.9949,618.6072 Q949.6797,619.6738 951.0244,619.6738 Q951.6553,619.6738 952.2488,619.4041 Q952.8423,619.1343 953.4731,618.5532 Z "/><text fill="#000000" font-family="sans-serif" font-size="14" lengthAdjust="spacingAndGlyphs" textLength="255" x="965" y="614.5352">TerminologyCapabilities.CodeSystem</text><text fill="#000000" font-family="sans-serif" font-size="10" lengthAdjust="spacingAndGlyphs" textLength="139" x="1023" y="627.1563">com.ibm.fhir.model.resource</text></a><!--class com.ibm.fhir.model.resource.TerminologyCapabilities.Expansion--><a href="TerminologyCapabilities.Expansion.html" target="_top" xlink:actuate="onRequest" xlink:show="new" xlink:title="TerminologyCapabilities.Expansion.html" xlink:type="simple"><rect fill="#FEFECE" filter="url(#f11qwavrdnp606)" height="38.2656" id="com.ibm.fhir.model.resource.TerminologyCapabilities.Expansion" style="stroke: #A80036; stroke-width: 1.5;" width="275" x="1258" y="596"/><ellipse cx="1273" cy="615.1328" fill="#ADD1B2" rx="11" ry="11" style="stroke: #A80036; stroke-width: 1.0;"/><path d="M1275.4731,621.2759 Q1274.8921,621.5747 1274.2529,621.7241 Q1273.6138,621.8735 1272.9082,621.8735 Q1270.4014,621.8735 1269.0815,620.2217 Q1267.7617,618.5698 1267.7617,615.4487 Q1267.7617,612.3193 1269.0815,610.6675 Q1270.4014,609.0156 1272.9082,609.0156 Q1273.6138,609.0156 1274.2612,609.165 Q1274.9087,609.3145 1275.4731,609.6133 L1275.4731,612.3359 Q1274.8423,611.7549 1274.2488,611.4851 Q1273.6553,611.2153 1273.0244,611.2153 Q1271.6797,611.2153 1270.9949,612.282 Q1270.3101,613.3486 1270.3101,615.4487 Q1270.3101,617.5405 1270.9949,618.6072 Q1271.6797,619.6738 1273.0244,619.6738 Q1273.6553,619.6738 1274.2488,619.4041 Q1274.8423,619.1343 1275.4731,618.5532 Z "/><text fill="#000000" font-family="sans-serif" font-size="14" lengthAdjust="spacingAndGlyphs" textLength="243" x="1287" y="614.5352">TerminologyCapabilities.Expansion</text><text fill="#000000" font-family="sans-serif" font-size="10" lengthAdjust="spacingAndGlyphs" textLength="139" x="1339" y="627.1563">com.ibm.fhir.model.resource</text></a><!--class com.ibm.fhir.model.resource.TerminologyCapabilities.ValidateCode--><a href="TerminologyCapabilities.ValidateCode.html" target="_top" xlink:actuate="onRequest" xlink:show="new" xlink:title="TerminologyCapabilities.ValidateCode.html" xlink:type="simple"><rect fill="#FEFECE" filter="url(#f11qwavrdnp606)" height="38.2656" id="com.ibm.fhir.model.resource.TerminologyCapabilities.ValidateCode" style="stroke: #A80036; stroke-width: 1.5;" width="294" x="1568.5" y="596"/><ellipse cx="1583.5" cy="615.1328" fill="#ADD1B2" rx="11" ry="11" style="stroke: #A80036; stroke-width: 1.0;"/><path d="M1585.9731,621.2759 Q1585.3921,621.5747 1584.7529,621.7241 Q1584.1138,621.8735 1583.4082,621.8735 Q1580.9014,621.8735 1579.5815,620.2217 Q1578.2617,618.5698 1578.2617,615.4487 Q1578.2617,612.3193 1579.5815,610.6675 Q1580.9014,609.0156 1583.4082,609.0156 Q1584.1138,609.0156 1584.7612,609.165 Q1585.4087,609.3145 1585.9731,609.6133 L1585.9731,612.3359 Q1585.3423,611.7549 1584.7488,611.4851 Q1584.1553,611.2153 1583.5244,611.2153 Q1582.1797,611.2153 1581.4949,612.282 Q1580.8101,613.3486 1580.8101,615.4487 Q1580.8101,617.5405 1581.4949,618.6072 Q1582.1797,619.6738 1583.5244,619.6738 Q1584.1553,619.6738 1584.7488,619.4041 Q1585.3423,619.1343 1585.9731,618.5532 Z "/><text fill="#000000" font-family="sans-serif" font-size="14" lengthAdjust="spacingAndGlyphs" textLength="262" x="1597.5" y="614.5352">TerminologyCapabilities.ValidateCode</text><text fill="#000000" font-family="sans-serif" font-size="10" lengthAdjust="spacingAndGlyphs" textLength="139" x="1659" y="627.1563">com.ibm.fhir.model.resource</text></a><!--class com.ibm.fhir.model.resource.TerminologyCapabilities.Translation--><a href="TerminologyCapabilities.Translation.html" target="_top" xlink:actuate="onRequest" xlink:show="new" xlink:title="TerminologyCapabilities.Translation.html" xlink:type="simple"><rect fill="#FEFECE" filter="url(#f11qwavrdnp606)" height="38.2656" id="com.ibm.fhir.model.resource.TerminologyCapabilities.Translation" style="stroke: #A80036; stroke-width: 1.5;" width="281" x="1898" y="596"/><ellipse cx="1913" cy="615.1328" fill="#ADD1B2" rx="11" ry="11" style="stroke: #A80036; stroke-width: 1.0;"/><path d="M1915.4731,621.2759 Q1914.8921,621.5747 1914.2529,621.7241 Q1913.6138,621.8735 1912.9082,621.8735 Q1910.4014,621.8735 1909.0815,620.2217 Q1907.7617,618.5698 1907.7617,615.4487 Q1907.7617,612.3193 1909.0815,610.6675 Q1910.4014,609.0156 1912.9082,609.0156 Q1913.6138,609.0156 1914.2612,609.165 Q1914.9087,609.3145 1915.4731,609.6133 L1915.4731,612.3359 Q1914.8423,611.7549 1914.2488,611.4851 Q1913.6553,611.2153 1913.0244,611.2153 Q1911.6797,611.2153 1910.9949,612.282 Q1910.3101,613.3486 1910.3101,615.4487 Q1910.3101,617.5405 1910.9949,618.6072 Q1911.6797,619.6738 1913.0244,619.6738 Q1913.6553,619.6738 1914.2488,619.4041 Q1914.8423,619.1343 1915.4731,618.5532 Z "/><text fill="#000000" font-family="sans-serif" font-size="14" lengthAdjust="spacingAndGlyphs" textLength="249" x="1927" y="614.5352">TerminologyCapabilities.Translation</text><text fill="#000000" font-family="sans-serif" font-size="10" lengthAdjust="spacingAndGlyphs" textLength="139" x="1982" y="627.1563">com.ibm.fhir.model.resource</text></a><!--class com.ibm.fhir.model.resource.TerminologyCapabilities.Closure--><a href="TerminologyCapabilities.Closure.html" target="_top" xlink:actuate="onRequest" xlink:show="new" xlink:title="TerminologyCapabilities.Closure.html" xlink:type="simple"><rect fill="#FEFECE" filter="url(#f11qwavrdnp606)" height="38.2656" id="com.ibm.fhir.model.resource.TerminologyCapabilities.Closure" style="stroke: #A80036; stroke-width: 1.5;" width="256" x="2214.5" y="596"/><ellipse cx="2229.5" cy="615.1328" fill="#ADD1B2" rx="11" ry="11" style="stroke: #A80036; stroke-width: 1.0;"/><path d="M2231.9731,621.2759 Q2231.3921,621.5747 2230.7529,621.7241 Q2230.1138,621.8735 2229.4082,621.8735 Q2226.9014,621.8735 2225.5815,620.2217 Q2224.2617,618.5698 2224.2617,615.4487 Q2224.2617,612.3193 2225.5815,610.6675 Q2226.9014,609.0156 2229.4082,609.0156 Q2230.1138,609.0156 2230.7612,609.165 Q2231.4087,609.3145 2231.9731,609.6133 L2231.9731,612.3359 Q2231.3423,611.7549 2230.7488,611.4851 Q2230.1553,611.2153 2229.5244,611.2153 Q2228.1797,611.2153 2227.4949,612.282 Q2226.8101,613.3486 2226.8101,615.4487 Q2226.8101,617.5405 2227.4949,618.6072 Q2228.1797,619.6738 2229.5244,619.6738 Q2230.1553,619.6738 2230.7488,619.4041 Q2231.3423,619.1343 2231.9731,618.5532 Z "/><text fill="#000000" font-family="sans-serif" font-size="14" lengthAdjust="spacingAndGlyphs" textLength="224" x="2243.5" y="614.5352">TerminologyCapabilities.Closure</text><text fill="#000000" font-family="sans-serif" font-size="10" lengthAdjust="spacingAndGlyphs" textLength="139" x="2286" y="627.1563">com.ibm.fhir.model.resource</text></a><!--link com.ibm.fhir.model.resource.DomainResource to com.ibm.fhir.model.resource.TerminologyCapabilities--><path d="M1237.5,87.1924 C1237.5,99.0647 1237.5,112.4744 1237.5,126.7479 " fill="none" id="com.ibm.fhir.model.resource.DomainResource-com.ibm.fhir.model.resource.TerminologyCapabilities" style="stroke: #A80036; stroke-width: 1.0;"/><polygon fill="none" points="1230.5001,87.036,1237.5,67.0359,1244.5001,87.0359,1230.5001,87.036" style="stroke: #A80036; stroke-width: 1.0;"/><!--link com.ibm.fhir.model.resource.TerminologyCapabilities to com.ibm.fhir.model.resource.TerminologyCapabilities.Builder--><path d="M1097.6737,367.3416 C860.7369,428.0753 388.3239,549.1686 205.8353,595.9457 " fill="none" id="com.ibm.fhir.model.resource.TerminologyCapabilities-com.ibm.fhir.model.resource.TerminologyCapabilities.Builder" style="stroke: #A80036; stroke-width: 1.0;"/><ellipse cx="1104.4921" cy="365.5938" fill="#FFFFFF" rx="8" ry="8" style="stroke: #A80036; stroke-width: 1.0;"/><line style="stroke: #A80036; stroke-width: 1.0;" x1="1096.7427" x2="1112.2416" y1="367.5803" y2="363.6074"/><line style="stroke: #A80036; stroke-width: 1.0;" x1="1102.5057" x2="1106.4786" y1="357.8444" y2="373.3433"/><!--link com.ibm.fhir.model.resource.TerminologyCapabilities to com.ibm.fhir.model.resource.TerminologyCapabilities.Software--><path d="M1097.8244,380.1462 C915.2588,443.7302 604.0177,552.1293 478.441,595.8651 " fill="none" id="com.ibm.fhir.model.resource.TerminologyCapabilities-com.ibm.fhir.model.resource.TerminologyCapabilities.Software" style="stroke: #A80036; stroke-width: 1.0;"/><ellipse cx="1104.5415" cy="377.8068" fill="#FFFFFF" rx="8" ry="8" style="stroke: #A80036; stroke-width: 1.0;"/><line style="stroke: #A80036; stroke-width: 1.0;" x1="1096.9866" x2="1112.0964" y1="380.4381" y2="375.1756"/><line style="stroke: #A80036; stroke-width: 1.0;" x1="1101.9103" x2="1107.1727" y1="370.2519" y2="385.3617"/><!--link com.ibm.fhir.model.resource.TerminologyCapabilities to com.ibm.fhir.model.resource.TerminologyCapabilities.Implementation--><path d="M1099.1551,411.217 C989.0815,474.6436 843.185,558.712 778.6374,595.9056 " fill="none" id="com.ibm.fhir.model.resource.TerminologyCapabilities-com.ibm.fhir.model.resource.TerminologyCapabilities.Implementation" style="stroke: #A80036; stroke-width: 1.0;"/><ellipse cx="1105.4616" cy="407.5831" fill="#FFFFFF" rx="8" ry="8" style="stroke: #A80036; stroke-width: 1.0;"/><line style="stroke: #A80036; stroke-width: 1.0;" x1="1098.53" x2="1112.3932" y1="411.5772" y2="403.589"/><line style="stroke: #A80036; stroke-width: 1.0;" x1="1101.4675" x2="1109.4557" y1="400.6515" y2="414.5147"/><!--link com.ibm.fhir.model.resource.TerminologyCapabilities to com.ibm.fhir.model.resource.TerminologyCapabilities.CodeSystem--><path d="M1116.0972,549.3336 C1105.6889,568.0092 1096.6762,584.1808 1090.199,595.8027 " fill="none" id="com.ibm.fhir.model.resource.TerminologyCapabilities-com.ibm.fhir.model.resource.TerminologyCapabilities.CodeSystem" style="stroke: #A80036; stroke-width: 1.0;"/><ellipse cx="1119.6173" cy="543.0174" fill="#FFFFFF" rx="8" ry="8" style="stroke: #A80036; stroke-width: 1.0;"/><line style="stroke: #A80036; stroke-width: 1.0;" x1="1115.7227" x2="1123.5118" y1="550.0055" y2="536.0294"/><line style="stroke: #A80036; stroke-width: 1.0;" x1="1112.6292" x2="1126.6053" y1="539.1229" y2="546.912"/><!--link com.ibm.fhir.model.resource.TerminologyCapabilities to com.ibm.fhir.model.resource.TerminologyCapabilities.Expansion--><path d="M1358.9028,549.3336 C1369.3111,568.0092 1378.3238,584.1808 1384.801,595.8027 " fill="none" id="com.ibm.fhir.model.resource.TerminologyCapabilities-com.ibm.fhir.model.resource.TerminologyCapabilities.Expansion" style="stroke: #A80036; stroke-width: 1.0;"/><ellipse cx="1355.3827" cy="543.0174" fill="#FFFFFF" rx="8" ry="8" style="stroke: #A80036; stroke-width: 1.0;"/><line style="stroke: #A80036; stroke-width: 1.0;" x1="1359.2773" x2="1351.4882" y1="550.0055" y2="536.0294"/><line style="stroke: #A80036; stroke-width: 1.0;" x1="1348.3947" x2="1362.3708" y1="546.912" y2="539.1229"/><!--link com.ibm.fhir.model.resource.TerminologyCapabilities to com.ibm.fhir.model.resource.TerminologyCapabilities.ValidateCode--><path d="M1375.9206,413.5967 C1482.3877,476.742 1621.4254,559.2047 1683.3387,595.9253 " fill="none" id="com.ibm.fhir.model.resource.TerminologyCapabilities-com.ibm.fhir.model.resource.TerminologyCapabilities.ValidateCode" style="stroke: #A80036; stroke-width: 1.0;"/><ellipse cx="1369.6574" cy="409.8821" fill="#FFFFFF" rx="8" ry="8" style="stroke: #A80036; stroke-width: 1.0;"/><line style="stroke: #A80036; stroke-width: 1.0;" x1="1376.5382" x2="1362.7766" y1="413.9631" y2="405.8011"/><line style="stroke: #A80036; stroke-width: 1.0;" x1="1365.5764" x2="1373.7384" y1="416.7629" y2="403.0013"/><!--link com.ibm.fhir.model.resource.TerminologyCapabilities to com.ibm.fhir.model.resource.TerminologyCapabilities.Translation--><path d="M1377.0039,380.875 C1557.0548,444.6009 1861.7718,552.4501 1984.7004,595.9586 " fill="none" id="com.ibm.fhir.model.resource.TerminologyCapabilities-com.ibm.fhir.model.resource.TerminologyCapabilities.Translation" style="stroke: #A80036; stroke-width: 1.0;"/><ellipse cx="1370.1979" cy="378.4661" fill="#FFFFFF" rx="8" ry="8" style="stroke: #A80036; stroke-width: 1.0;"/><line style="stroke: #A80036; stroke-width: 1.0;" x1="1377.7394" x2="1362.6563" y1="381.1354" y2="375.7969"/><line style="stroke: #A80036; stroke-width: 1.0;" x1="1367.5286" x2="1372.8671" y1="386.0077" y2="370.9246"/><!--link com.ibm.fhir.model.resource.TerminologyCapabilities to com.ibm.fhir.model.resource.TerminologyCapabilities.Closure--><path d="M1377.1999,367.3416 C1613.9224,428.0753 2085.9083,549.1686 2268.2319,595.9457 " fill="none" id="com.ibm.fhir.model.resource.TerminologyCapabilities-com.ibm.fhir.model.resource.TerminologyCapabilities.Closure" style="stroke: #A80036; stroke-width: 1.0;"/><ellipse cx="1370.3942" cy="365.5955" fill="#FFFFFF" rx="8" ry="8" style="stroke: #A80036; stroke-width: 1.0;"/><line style="stroke: #A80036; stroke-width: 1.0;" x1="1378.1433" x2="1362.6452" y1="367.5836" y2="363.6074"/><line style="stroke: #A80036; stroke-width: 1.0;" x1="1368.4061" x2="1372.3823" y1="373.3445" y2="357.8465"/><text fill="#888888" font-family="sans-serif" font-size="10" lengthAdjust="spacingAndGlyphs" textLength="182" x="1153.5" y="653.668">UMLDoclet 2.0.5, PlantUML 1.2019.08</text><!--
@startuml
    set namespaceSeparator none
    hide empty fields
    hide empty methods

    class "<size:14>TerminologyCapabilities\n<size:10>com.ibm.fhir.model.resource" as com.ibm.fhir.model.resource.TerminologyCapabilities [[TerminologyCapabilities.html]] {
        +getUrl(): Uri
        +getVersion(): String
        +getName(): String
        +getTitle(): String
        +getStatus(): PublicationStatus
        +getExperimental(): Boolean
        +getDate(): DateTime
        +getPublisher(): String
        +getContact(): List<ContactDetail>
        +getDescription(): Markdown
        +getUseContext(): List<UsageContext>
        +getJurisdiction(): List<CodeableConcept>
        +getPurpose(): Markdown
        +getCopyright(): Markdown
        +getKind(): CapabilityStatementKind
        +getSoftware(): Software
        +getImplementation(): Implementation
        +getLockedDate(): Boolean
        +getCodeSystem(): List<CodeSystem>
        +getExpansion(): Expansion
        +getCodeSearch(): CodeSearchSupport
        +getValidateCode(): ValidateCode
        +getTranslation(): Translation
        +getClosure(): Closure
        +hasChildren(): boolean
        +accept(String, int, Visitor): void
        +toBuilder(): Builder
        {static} +builder(): Builder
    }

    abstract class "<size:14>DomainResource\n<size:10>com.ibm.fhir.model.resource" as com.ibm.fhir.model.resource.DomainResource [[DomainResource.html]] {
        {abstract} +toBuilder(): Builder
    }
    class "<size:14>TerminologyCapabilities.Builder\n<size:10>com.ibm.fhir.model.resource" as com.ibm.fhir.model.resource.TerminologyCapabilities.Builder [[TerminologyCapabilities.Builder.html]]
    class "<size:14>TerminologyCapabilities.Software\n<size:10>com.ibm.fhir.model.resource" as com.ibm.fhir.model.resource.TerminologyCapabilities.Software [[TerminologyCapabilities.Software.html]]
    class "<size:14>TerminologyCapabilities.Implementation\n<size:10>com.ibm.fhir.model.resource" as com.ibm.fhir.model.resource.TerminologyCapabilities.Implementation [[TerminologyCapabilities.Implementation.html]]
    class "<size:14>TerminologyCapabilities.CodeSystem\n<size:10>com.ibm.fhir.model.resource" as com.ibm.fhir.model.resource.TerminologyCapabilities.CodeSystem [[TerminologyCapabilities.CodeSystem.html]]
    class "<size:14>TerminologyCapabilities.Expansion\n<size:10>com.ibm.fhir.model.resource" as com.ibm.fhir.model.resource.TerminologyCapabilities.Expansion [[TerminologyCapabilities.Expansion.html]]
    class "<size:14>TerminologyCapabilities.ValidateCode\n<size:10>com.ibm.fhir.model.resource" as com.ibm.fhir.model.resource.TerminologyCapabilities.ValidateCode [[TerminologyCapabilities.ValidateCode.html]]
    class "<size:14>TerminologyCapabilities.Translation\n<size:10>com.ibm.fhir.model.resource" as com.ibm.fhir.model.resource.TerminologyCapabilities.Translation [[TerminologyCapabilities.Translation.html]]
    class "<size:14>TerminologyCapabilities.Closure\n<size:10>com.ibm.fhir.model.resource" as com.ibm.fhir.model.resource.TerminologyCapabilities.Closure [[TerminologyCapabilities.Closure.html]]

    com.ibm.fhir.model.resource.DomainResource <|- - com.ibm.fhir.model.resource.TerminologyCapabilities
    com.ibm.fhir.model.resource.TerminologyCapabilities +- - com.ibm.fhir.model.resource.TerminologyCapabilities.Builder
    com.ibm.fhir.model.resource.TerminologyCapabilities +- - com.ibm.fhir.model.resource.TerminologyCapabilities.Software
    com.ibm.fhir.model.resource.TerminologyCapabilities +- - com.ibm.fhir.model.resource.TerminologyCapabilities.Implementation
    com.ibm.fhir.model.resource.TerminologyCapabilities +- - com.ibm.fhir.model.resource.TerminologyCapabilities.CodeSystem
    com.ibm.fhir.model.resource.TerminologyCapabilities +- - com.ibm.fhir.model.resource.TerminologyCapabilities.Expansion
    com.ibm.fhir.model.resource.TerminologyCapabilities +- - com.ibm.fhir.model.resource.TerminologyCapabilities.ValidateCode
    com.ibm.fhir.model.resource.TerminologyCapabilities +- - com.ibm.fhir.model.resource.TerminologyCapabilities.Translation
    com.ibm.fhir.model.resource.TerminologyCapabilities +- - com.ibm.fhir.model.resource.TerminologyCapabilities.Closure

    center footer UMLDoclet 2.0.5, PlantUML 1.2019.08
@enduml

PlantUML version 1.2019.08(Sat Jul 13 15:25:14 EDT 2019)
(APACHE source distribution)
Java Runtime: OpenJDK Runtime Environment
JVM: OpenJDK 64-Bit Server VM
Java Version: 11.0.4+11
Operating System: Mac OS X
OS Version: 10.14.6
Default Encoding: UTF-8
Language: en
Country: US
--></g></svg>