<?xml version="1.0" encoding="UTF-8" standalone="no"?><svg xmlns="http://www.w3.org/2000/svg" xmlns:xlink="http://www.w3.org/1999/xlink" contentScriptType="application/ecmascript" contentStyleType="text/css" height="414px" preserveAspectRatio="none" style="width:600px;height:414px;" version="1.1" viewBox="0 0 600 414" width="600px" zoomAndPan="magnify"><defs><filter height="300%" id="f312qqvfs6bpt" width="300%" x="-1" y="-1"><feGaussianBlur result="blurOut" stdDeviation="2.0"/><feColorMatrix in="blurOut" result="blurOut2" type="matrix" values="0 0 0 0 0 0 0 0 0 0 0 0 0 0 0 0 0 0 .4 0"/><feOffset dx="4.0" dy="4.0" in="blurOut2" result="blurOut3"/><feBlend in="SourceGraphic" in2="blurOut3" mode="normal"/></filter></defs><g><!--class com.ibm.fhir.model.resource.TerminologyCapabilities.CodeSystem.Version.Builder--><a href="TerminologyCapabilities.CodeSystem.Version.Builder.html" target="_top" xlink:actuate="onRequest" xlink:show="new" xlink:title="TerminologyCapabilities.CodeSystem.Version.Builder.html" xlink:type="simple"><rect fill="#FEFECE" filter="url(#f312qqvfs6bpt)" height="253.5469" id="com.ibm.fhir.model.resource.TerminologyCapabilities.CodeSystem.Version.Builder" style="stroke: #A80036; stroke-width: 1.5;" width="395" x="65" y="127"/><ellipse cx="80" cy="146.1328" fill="#ADD1B2" rx="11" ry="11" style="stroke: #A80036; stroke-width: 1.0;"/><path d="M82.4731,152.2759 Q81.8921,152.5747 81.2529,152.7241 Q80.6138,152.8735 79.9082,152.8735 Q77.4014,152.8735 76.0815,151.2217 Q74.7617,149.5698 74.7617,146.4487 Q74.7617,143.3193 76.0815,141.6675 Q77.4014,140.0156 79.9082,140.0156 Q80.6138,140.0156 81.2612,140.165 Q81.9087,140.3145 82.4731,140.6133 L82.4731,143.3359 Q81.8423,142.7549 81.2488,142.4851 Q80.6553,142.2153 80.0244,142.2153 Q78.6797,142.2153 77.9949,143.282 Q77.3101,144.3486 77.3101,146.4487 Q77.3101,148.5405 77.9949,149.6072 Q78.6797,150.6738 80.0244,150.6738 Q80.6553,150.6738 81.2488,150.4041 Q81.8423,150.1343 82.4731,149.5532 Z "/><text fill="#000000" font-family="sans-serif" font-size="14" lengthAdjust="spacingAndGlyphs" textLength="363" x="94" y="145.5352">TerminologyCapabilities.CodeSystem.Version.Builder</text><text fill="#000000" font-family="sans-serif" font-size="10" lengthAdjust="spacingAndGlyphs" textLength="139" x="206" y="158.1563">com.ibm.fhir.model.resource</text><line style="stroke: #A80036; stroke-width: 1.5;" x1="66" x2="459" y1="165.2656" y2="165.2656"/><ellipse cx="76" cy="177.2432" fill="#84BE84" rx="3" ry="3" style="stroke: #038048; stroke-width: 1.0;"/><text fill="#000000" font-family="sans-serif" font-size="11" lengthAdjust="spacingAndGlyphs" textLength="93" x="85" y="179.9004">id(String): Builder</text><ellipse cx="76" cy="190.1982" fill="#84BE84" rx="3" ry="3" style="stroke: #038048; stroke-width: 1.0;"/><text fill="#000000" font-family="sans-serif" font-size="11" lengthAdjust="spacingAndGlyphs" textLength="166" x="85" y="192.8555">extension(Extension...): Builder</text><ellipse cx="76" cy="203.1533" fill="#84BE84" rx="3" ry="3" style="stroke: #038048; stroke-width: 1.0;"/><text fill="#000000" font-family="sans-serif" font-size="11" lengthAdjust="spacingAndGlyphs" textLength="229" x="85" y="205.8105">extension(Collection&lt;Extension&gt;): Builder</text><ellipse cx="76" cy="216.1084" fill="#84BE84" rx="3" ry="3" style="stroke: #038048; stroke-width: 1.0;"/><text fill="#000000" font-family="sans-serif" font-size="11" lengthAdjust="spacingAndGlyphs" textLength="211" x="85" y="218.7656">modifierExtension(Extension...): Builder</text><ellipse cx="76" cy="229.0635" fill="#84BE84" rx="3" ry="3" style="stroke: #038048; stroke-width: 1.0;"/><text fill="#000000" font-family="sans-serif" font-size="11" lengthAdjust="spacingAndGlyphs" textLength="274" x="85" y="231.7207">modifierExtension(Collection&lt;Extension&gt;): Builder</text><ellipse cx="76" cy="242.0186" fill="#84BE84" rx="3" ry="3" style="stroke: #038048; stroke-width: 1.0;"/><text fill="#000000" font-family="sans-serif" font-size="11" lengthAdjust="spacingAndGlyphs" textLength="109" x="85" y="244.6758">code(String): Builder</text><ellipse cx="76" cy="254.9736" fill="#84BE84" rx="3" ry="3" style="stroke: #038048; stroke-width: 1.0;"/><text fill="#000000" font-family="sans-serif" font-size="11" lengthAdjust="spacingAndGlyphs" textLength="140" x="85" y="257.6309">isDefault(Boolean): Builder</text><ellipse cx="76" cy="267.9287" fill="#84BE84" rx="3" ry="3" style="stroke: #038048; stroke-width: 1.0;"/><text fill="#000000" font-family="sans-serif" font-size="11" lengthAdjust="spacingAndGlyphs" textLength="169" x="85" y="270.5859">compositional(Boolean): Builder</text><ellipse cx="76" cy="280.8838" fill="#84BE84" rx="3" ry="3" style="stroke: #038048; stroke-width: 1.0;"/><text fill="#000000" font-family="sans-serif" font-size="11" lengthAdjust="spacingAndGlyphs" textLength="137" x="85" y="283.541">language(Code...): Builder</text><ellipse cx="76" cy="293.8389" fill="#84BE84" rx="3" ry="3" style="stroke: #038048; stroke-width: 1.0;"/><text fill="#000000" font-family="sans-serif" font-size="11" lengthAdjust="spacingAndGlyphs" textLength="200" x="85" y="296.4961">language(Collection&lt;Code&gt;): Builder</text><ellipse cx="76" cy="306.7939" fill="#84BE84" rx="3" ry="3" style="stroke: #038048; stroke-width: 1.0;"/><text fill="#000000" font-family="sans-serif" font-size="11" lengthAdjust="spacingAndGlyphs" textLength="112" x="85" y="309.4512">filter(Filter...): Builder</text><ellipse cx="76" cy="319.749" fill="#84BE84" rx="3" ry="3" style="stroke: #038048; stroke-width: 1.0;"/><text fill="#000000" font-family="sans-serif" font-size="11" lengthAdjust="spacingAndGlyphs" textLength="175" x="85" y="322.4063">filter(Collection&lt;Filter&gt;): Builder</text><ellipse cx="76" cy="332.7041" fill="#84BE84" rx="3" ry="3" style="stroke: #038048; stroke-width: 1.0;"/><text fill="#000000" font-family="sans-serif" font-size="11" lengthAdjust="spacingAndGlyphs" textLength="135" x="85" y="335.3613">property(Code...): Builder</text><ellipse cx="76" cy="345.6592" fill="#84BE84" rx="3" ry="3" style="stroke: #038048; stroke-width: 1.0;"/><text fill="#000000" font-family="sans-serif" font-size="11" lengthAdjust="spacingAndGlyphs" textLength="198" x="85" y="348.3164">property(Collection&lt;Code&gt;): Builder</text><ellipse cx="76" cy="358.6143" fill="#84BE84" rx="3" ry="3" style="stroke: #038048; stroke-width: 1.0;"/><text fill="#000000" font-family="sans-serif" font-size="11" lengthAdjust="spacingAndGlyphs" textLength="82" x="85" y="361.2715">build(): Version</text><polygon fill="#FFFF44" points="76,366.5693,80,370.5693,76,374.5693,72,370.5693" style="stroke: #B38D22; stroke-width: 1.0;"/><text fill="#000000" font-family="sans-serif" font-size="11" lengthAdjust="spacingAndGlyphs" textLength="118" x="85" y="374.2266">from(Version): Builder</text></a><!--class com.ibm.fhir.model.type.BackboneElement.Builder--><a href="../type/BackboneElement.Builder.html" target="_top" xlink:actuate="onRequest" xlink:show="new" xlink:title="../type/BackboneElement.Builder.html" xlink:type="simple"><rect fill="#FEFECE" filter="url(#f312qqvfs6bpt)" height="59.2207" id="com.ibm.fhir.model.type.BackboneElement.Builder" style="stroke: #A80036; stroke-width: 1.5;" width="205" x="6" y="8"/><ellipse cx="21" cy="27.1328" fill="#A9DCDF" rx="11" ry="11" style="stroke: #A80036; stroke-width: 1.0;"/><path d="M21.1133,22.731 L19.9595,27.8027 L22.2754,27.8027 Z M19.6191,20.4897 L22.6157,20.4897 L25.9609,32.8828 L23.5122,32.8828 L22.7485,29.8198 L19.4697,29.8198 L18.7227,32.8828 L16.2739,32.8828 Z "/><text fill="#000000" font-family="sans-serif" font-size="14" font-style="italic" lengthAdjust="spacingAndGlyphs" textLength="173" x="35" y="26.5352">BackboneElement.Builder</text><text fill="#000000" font-family="sans-serif" font-size="10" font-style="italic" lengthAdjust="spacingAndGlyphs" textLength="118" x="62.5" y="39.1563">com.ibm.fhir.model.type</text><line style="stroke: #A80036; stroke-width: 1.5;" x1="7" x2="210" y1="46.2656" y2="46.2656"/><ellipse cx="17" cy="58.2432" fill="#84BE84" rx="3" ry="3" style="stroke: #038048; stroke-width: 1.0;"/><text fill="#000000" font-family="sans-serif" font-size="11" font-style="italic" lengthAdjust="spacingAndGlyphs" textLength="134" x="26" y="60.9004">build(): BackboneElement</text></a><!--class com.ibm.fhir.model.resource.TerminologyCapabilities.CodeSystem.Version--><a href="TerminologyCapabilities.CodeSystem.Version.html" target="_top" xlink:actuate="onRequest" xlink:show="new" xlink:title="TerminologyCapabilities.CodeSystem.Version.html" xlink:type="simple"><rect fill="#FEFECE" filter="url(#f312qqvfs6bpt)" height="38.2656" id="com.ibm.fhir.model.resource.TerminologyCapabilities.CodeSystem.Version" style="stroke: #A80036; stroke-width: 1.5;" width="343" x="246" y="18.5"/><ellipse cx="261" cy="37.6328" fill="#ADD1B2" rx="11" ry="11" style="stroke: #A80036; stroke-width: 1.0;"/><path d="M263.4731,43.7759 Q262.8921,44.0747 262.2529,44.2241 Q261.6138,44.3735 260.9082,44.3735 Q258.4014,44.3735 257.0815,42.7217 Q255.7617,41.0698 255.7617,37.9487 Q255.7617,34.8193 257.0815,33.1675 Q258.4014,31.5156 260.9082,31.5156 Q261.6138,31.5156 262.2612,31.665 Q262.9087,31.8145 263.4731,32.1133 L263.4731,34.8359 Q262.8423,34.2549 262.2488,33.9851 Q261.6553,33.7153 261.0244,33.7153 Q259.6797,33.7153 258.9949,34.782 Q258.3101,35.8486 258.3101,37.9487 Q258.3101,40.0405 258.9949,41.1072 Q259.6797,42.1738 261.0244,42.1738 Q261.6553,42.1738 262.2488,41.9041 Q262.8423,41.6343 263.4731,41.0532 Z "/><text fill="#000000" font-family="sans-serif" font-size="14" lengthAdjust="spacingAndGlyphs" textLength="311" x="275" y="37.0352">TerminologyCapabilities.CodeSystem.Version</text><text fill="#000000" font-family="sans-serif" font-size="10" lengthAdjust="spacingAndGlyphs" textLength="139" x="361" y="49.6563">com.ibm.fhir.model.resource</text></a><!--link com.ibm.fhir.model.type.BackboneElement.Builder to com.ibm.fhir.model.resource.TerminologyCapabilities.CodeSystem.Version.Builder--><path d="M141.2882,83.5951 C150.511,96.5609 161.0136,111.3259 171.8904,126.617 " fill="none" id="com.ibm.fhir.model.type.BackboneElement.Builder-com.ibm.fhir.model.resource.TerminologyCapabilities.CodeSystem.Version.Builder" style="stroke: #A80036; stroke-width: 1.0;"/><polygon fill="none" points="135.4787,87.5045,129.5901,67.1494,146.887,79.3895,135.4787,87.5045" style="stroke: #A80036; stroke-width: 1.0;"/><!--link com.ibm.fhir.model.resource.TerminologyCapabilities.CodeSystem.Version to com.ibm.fhir.model.resource.TerminologyCapabilities.CodeSystem.Version.Builder--><path d="M394.9844,68.9492 C383.57,84.8925 368.8743,105.4191 353.4452,126.9701 " fill="none" id="com.ibm.fhir.model.resource.TerminologyCapabilities.CodeSystem.Version-com.ibm.fhir.model.resource.TerminologyCapabilities.CodeSystem.Version.Builder" style="stroke: #A80036; stroke-width: 1.0;"/><ellipse cx="399.0878" cy="63.2177" fill="#FFFFFF" rx="8" ry="8" style="stroke: #A80036; stroke-width: 1.0;"/><line style="stroke: #A80036; stroke-width: 1.0;" x1="394.4308" x2="403.7448" y1="69.7225" y2="56.7129"/><line style="stroke: #A80036; stroke-width: 1.0;" x1="392.583" x2="405.5926" y1="58.5607" y2="67.8747"/><text fill="#888888" font-family="sans-serif" font-size="10" lengthAdjust="spacingAndGlyphs" textLength="182" x="212.5" y="400.668">UMLDoclet 2.0.5, PlantUML 1.2019.08</text><!--
@startuml
    set namespaceSeparator none
    hide empty fields
    hide empty methods

    class "<size:14>TerminologyCapabilities.CodeSystem.Version.Builder\n<size:10>com.ibm.fhir.model.resource" as com.ibm.fhir.model.resource.TerminologyCapabilities.CodeSystem.Version.Builder [[TerminologyCapabilities.CodeSystem.Version.Builder.html]] {
        +id(String): Builder
        +extension(Extension...): Builder
        +extension(Collection<Extension>): Builder
        +modifierExtension(Extension...): Builder
        +modifierExtension(Collection<Extension>): Builder
        +code(String): Builder
        +isDefault(Boolean): Builder
        +compositional(Boolean): Builder
        +language(Code...): Builder
        +language(Collection<Code>): Builder
        +filter(Filter...): Builder
        +filter(Collection<Filter>): Builder
        +property(Code...): Builder
        +property(Collection<Code>): Builder
        +build(): Version
        #from(Version): Builder
    }

    abstract class "<size:14>BackboneElement.Builder\n<size:10>com.ibm.fhir.model.type" as com.ibm.fhir.model.type.BackboneElement.Builder [[../type/BackboneElement.Builder.html]] {
        {abstract} +build(): BackboneElement
    }
    class "<size:14>TerminologyCapabilities.CodeSystem.Version\n<size:10>com.ibm.fhir.model.resource" as com.ibm.fhir.model.resource.TerminologyCapabilities.CodeSystem.Version [[TerminologyCapabilities.CodeSystem.Version.html]]

    com.ibm.fhir.model.type.BackboneElement.Builder <|- - com.ibm.fhir.model.resource.TerminologyCapabilities.CodeSystem.Version.Builder
    com.ibm.fhir.model.resource.TerminologyCapabilities.CodeSystem.Version +- - com.ibm.fhir.model.resource.TerminologyCapabilities.CodeSystem.Version.Builder

    center footer UMLDoclet 2.0.5, PlantUML 1.2019.08
@enduml

PlantUML version 1.2019.08(Sat Jul 13 15:25:14 EDT 2019)
(APACHE source distribution)
Java Runtime: OpenJDK Runtime Environment
JVM: OpenJDK 64-Bit Server VM
Java Version: 11.0.4+11
Operating System: Mac OS X
OS Version: 10.14.6
Default Encoding: UTF-8
Language: en
Country: US
--></g></svg>