<?xml version="1.0" encoding="UTF-8" standalone="no"?><svg xmlns="http://www.w3.org/2000/svg" xmlns:xlink="http://www.w3.org/1999/xlink" contentScriptType="application/ecmascript" contentStyleType="text/css" height="273px" preserveAspectRatio="none" style="width:1837px;height:273px;" version="1.1" viewBox="0 0 1837 273" width="1837px" zoomAndPan="magnify"><defs><filter height="300%" id="fw1b5c58jgpr6" width="300%" x="-1" y="-1"><feGaussianBlur result="blurOut" stdDeviation="2.0"/><feColorMatrix in="blurOut" result="blurOut2" type="matrix" values="0 0 0 0 0 0 0 0 0 0 0 0 0 0 0 0 0 0 .4 0"/><feOffset dx="4.0" dy="4.0" in="blurOut2" result="blurOut3"/><feBlend in="SourceGraphic" in2="blurOut3" mode="normal"/></filter></defs><g><!--MD5=[3da7587d87633970ec25ae3c2965f2c5]
cluster com.ibm.fhir.search.group.characteristic--><polygon fill="#FFFFFF" filter="url(#fw1b5c58jgpr6)" points="14,16,342,16,349,38.2969,1815,38.2969,1815,233,14,233,14,16" style="stroke: #000000; stroke-width: 1.5;"/><line style="stroke: #000000; stroke-width: 1.5;" x1="14" x2="349" y1="38.2969" y2="38.2969"/><text fill="#000000" font-family="sans-serif" font-size="14" font-weight="bold" lengthAdjust="spacingAndGlyphs" textLength="322" x="18" y="30.9951">com.ibm.fhir.search.group.characteristic</text><!--MD5=[cf2c644fa0f94b894cc1b8fbdc9f7927]
class com.ibm.fhir.search.group.characteristic.NoOpCharacteristicProcessor--><a href="NoOpCharacteristicProcessor.html" target="_top" title="NoOpCharacteristicProcessor.html" xlink:actuate="onRequest" xlink:href="NoOpCharacteristicProcessor.html" xlink:show="new" xlink:title="NoOpCharacteristicProcessor.html" xlink:type="simple"><rect fill="#FEFECE" filter="url(#fw1b5c58jgpr6)" height="60.8047" id="com.ibm.fhir.search.group.characteristic.NoOpCharacteristicProcessor" style="stroke: #A80036; stroke-width: 1.5;" width="420" x="22" y="164"/><ellipse cx="135.75" cy="180" fill="#ADD1B2" rx="11" ry="11" style="stroke: #A80036; stroke-width: 1.0;"/><path d="M138.7188,185.6406 Q138.1406,185.9375 137.5,186.0781 Q136.8594,186.2344 136.1563,186.2344 Q133.6563,186.2344 132.3281,184.5938 Q131.0156,182.9375 131.0156,179.8125 Q131.0156,176.6875 132.3281,175.0313 Q133.6563,173.375 136.1563,173.375 Q136.8594,173.375 137.5,173.5313 Q138.1563,173.6875 138.7188,173.9844 L138.7188,176.7031 Q138.0938,176.125 137.5,175.8594 Q136.9063,175.5781 136.2813,175.5781 Q134.9375,175.5781 134.25,176.6563 Q133.5625,177.7188 133.5625,179.8125 Q133.5625,181.9063 134.25,182.9844 Q134.9375,184.0469 136.2813,184.0469 Q136.9063,184.0469 137.5,183.7813 Q138.0938,183.5 138.7188,182.9219 L138.7188,185.6406 Z "/><text fill="#000000" font-family="sans-serif" font-size="12" lengthAdjust="spacingAndGlyphs" textLength="184" x="156.25" y="184.1543">NoOpCharacteristicProcessor</text><line style="stroke: #A80036; stroke-width: 1.5;" x1="23" x2="441" y1="196" y2="196"/><line style="stroke: #A80036; stroke-width: 1.5;" x1="23" x2="441" y1="204" y2="204"/><ellipse cx="33" cy="215" fill="#84BE84" rx="3" ry="3" style="stroke: #038048; stroke-width: 1.0;"/><text fill="#000000" font-family="sans-serif" font-size="11" lengthAdjust="spacingAndGlyphs" textLength="394" x="42" y="218.2104">process(Characteristic, String, MultivaluedMap&lt;String, String&gt;): void</text></a><!--MD5=[6097faa3c94df113b384d1074946cc8d]
class com.ibm.fhir.search.group.characteristic.PatientAgeCharacteristicProcessor--><a href="PatientAgeCharacteristicProcessor.html" target="_top" title="PatientAgeCharacteristicProcessor.html" xlink:actuate="onRequest" xlink:href="PatientAgeCharacteristicProcessor.html" xlink:show="new" xlink:title="PatientAgeCharacteristicProcessor.html" xlink:type="simple"><rect fill="#FEFECE" filter="url(#fw1b5c58jgpr6)" height="60.8047" id="com.ibm.fhir.search.group.characteristic.PatientAgeCharacteristicProcessor" style="stroke: #A80036; stroke-width: 1.5;" width="420" x="477" y="164"/><ellipse cx="573.25" cy="180" fill="#ADD1B2" rx="11" ry="11" style="stroke: #A80036; stroke-width: 1.0;"/><path d="M576.2188,185.6406 Q575.6406,185.9375 575,186.0781 Q574.3594,186.2344 573.6563,186.2344 Q571.1563,186.2344 569.8281,184.5938 Q568.5156,182.9375 568.5156,179.8125 Q568.5156,176.6875 569.8281,175.0313 Q571.1563,173.375 573.6563,173.375 Q574.3594,173.375 575,173.5313 Q575.6563,173.6875 576.2188,173.9844 L576.2188,176.7031 Q575.5938,176.125 575,175.8594 Q574.4063,175.5781 573.7813,175.5781 Q572.4375,175.5781 571.75,176.6563 Q571.0625,177.7188 571.0625,179.8125 Q571.0625,181.9063 571.75,182.9844 Q572.4375,184.0469 573.7813,184.0469 Q574.4063,184.0469 575,183.7813 Q575.5938,183.5 576.2188,182.9219 L576.2188,185.6406 Z "/><text fill="#000000" font-family="sans-serif" font-size="12" lengthAdjust="spacingAndGlyphs" textLength="219" x="593.75" y="184.1543">PatientAgeCharacteristicProcessor</text><line style="stroke: #A80036; stroke-width: 1.5;" x1="478" x2="896" y1="196" y2="196"/><line style="stroke: #A80036; stroke-width: 1.5;" x1="478" x2="896" y1="204" y2="204"/><ellipse cx="488" cy="215" fill="#84BE84" rx="3" ry="3" style="stroke: #038048; stroke-width: 1.0;"/><text fill="#000000" font-family="sans-serif" font-size="11" lengthAdjust="spacingAndGlyphs" textLength="394" x="497" y="218.2104">process(Characteristic, String, MultivaluedMap&lt;String, String&gt;): void</text></a><!--MD5=[9ba4cc0f2f2bb47e279275ea92d65578]
class com.ibm.fhir.search.group.characteristic.CharacteristicProcessor--><a href="CharacteristicProcessor.html" target="_top" title="CharacteristicProcessor.html" xlink:actuate="onRequest" xlink:href="CharacteristicProcessor.html" xlink:show="new" xlink:title="CharacteristicProcessor.html" xlink:type="simple"><rect fill="#FEFECE" filter="url(#fw1b5c58jgpr6)" height="60.8047" id="com.ibm.fhir.search.group.characteristic.CharacteristicProcessor" style="stroke: #A80036; stroke-width: 1.5;" width="416" x="706" y="43"/><ellipse cx="836.75" cy="59" fill="#B4A7E5" rx="11" ry="11" style="stroke: #A80036; stroke-width: 1.0;"/><path d="M832.6719,54.7656 L832.6719,52.6094 L840.0625,52.6094 L840.0625,54.7656 L837.5938,54.7656 L837.5938,62.8438 L840.0625,62.8438 L840.0625,65 L832.6719,65 L832.6719,62.8438 L835.1406,62.8438 L835.1406,54.7656 L832.6719,54.7656 Z "/><text fill="#000000" font-family="sans-serif" font-size="12" font-style="italic" lengthAdjust="spacingAndGlyphs" textLength="146" x="857.25" y="63.1543">CharacteristicProcessor</text><line style="stroke: #A80036; stroke-width: 1.5;" x1="707" x2="1121" y1="75" y2="75"/><line style="stroke: #A80036; stroke-width: 1.5;" x1="707" x2="1121" y1="83" y2="83"/><ellipse cx="717" cy="94" fill="#84BE84" rx="3" ry="3" style="stroke: #038048; stroke-width: 1.0;"/><text fill="#000000" font-family="sans-serif" font-size="11" font-style="italic" lengthAdjust="spacingAndGlyphs" textLength="390" x="726" y="97.2104">process(Characteristic, String, MultivaluedMap&lt;String, String&gt;): void</text></a><!--MD5=[2e6c190cc6de263b5119cff5014f2591]
class com.ibm.fhir.search.group.characteristic.PregnancyStatusCharacteristicProcessor--><a href="PregnancyStatusCharacteristicProcessor.html" target="_top" title="PregnancyStatusCharacteristicProcessor.html" xlink:actuate="onRequest" xlink:href="PregnancyStatusCharacteristicProcessor.html" xlink:show="new" xlink:title="PregnancyStatusCharacteristicProcessor.html" xlink:type="simple"><rect fill="#FEFECE" filter="url(#fw1b5c58jgpr6)" height="60.8047" id="com.ibm.fhir.search.group.characteristic.PregnancyStatusCharacteristicProcessor" style="stroke: #A80036; stroke-width: 1.5;" width="420" x="932" y="164"/><ellipse cx="1009.25" cy="180" fill="#ADD1B2" rx="11" ry="11" style="stroke: #A80036; stroke-width: 1.0;"/><path d="M1012.2188,185.6406 Q1011.6406,185.9375 1011,186.0781 Q1010.3594,186.2344 1009.6563,186.2344 Q1007.1563,186.2344 1005.8281,184.5938 Q1004.5156,182.9375 1004.5156,179.8125 Q1004.5156,176.6875 1005.8281,175.0313 Q1007.1563,173.375 1009.6563,173.375 Q1010.3594,173.375 1011,173.5313 Q1011.6563,173.6875 1012.2188,173.9844 L1012.2188,176.7031 Q1011.5938,176.125 1011,175.8594 Q1010.4063,175.5781 1009.7813,175.5781 Q1008.4375,175.5781 1007.75,176.6563 Q1007.0625,177.7188 1007.0625,179.8125 Q1007.0625,181.9063 1007.75,182.9844 Q1008.4375,184.0469 1009.7813,184.0469 Q1010.4063,184.0469 1011,183.7813 Q1011.5938,183.5 1012.2188,182.9219 L1012.2188,185.6406 Z "/><text fill="#000000" font-family="sans-serif" font-size="12" lengthAdjust="spacingAndGlyphs" textLength="257" x="1029.75" y="184.1543">PregnancyStatusCharacteristicProcessor</text><line style="stroke: #A80036; stroke-width: 1.5;" x1="933" x2="1351" y1="196" y2="196"/><line style="stroke: #A80036; stroke-width: 1.5;" x1="933" x2="1351" y1="204" y2="204"/><ellipse cx="943" cy="215" fill="#84BE84" rx="3" ry="3" style="stroke: #038048; stroke-width: 1.0;"/><text fill="#000000" font-family="sans-serif" font-size="11" lengthAdjust="spacingAndGlyphs" textLength="394" x="952" y="218.2104">process(Characteristic, String, MultivaluedMap&lt;String, String&gt;): void</text></a><!--MD5=[118f378862caf0b6c3555be337b8060e]
class com.ibm.fhir.search.group.characteristic.AdministrativeGenderCharacteristicProcessor--><a href="AdministrativeGenderCharacteristicProcessor.html" target="_top" title="AdministrativeGenderCharacteristicProcessor.html" xlink:actuate="onRequest" xlink:href="AdministrativeGenderCharacteristicProcessor.html" xlink:show="new" xlink:title="AdministrativeGenderCharacteristicProcessor.html" xlink:type="simple"><rect fill="#FEFECE" filter="url(#fw1b5c58jgpr6)" height="60.8047" id="com.ibm.fhir.search.group.characteristic.AdministrativeGenderCharacteristicProcessor" style="stroke: #A80036; stroke-width: 1.5;" width="420" x="1387" y="164"/><ellipse cx="1450.75" cy="180" fill="#ADD1B2" rx="11" ry="11" style="stroke: #A80036; stroke-width: 1.0;"/><path d="M1453.7188,185.6406 Q1453.1406,185.9375 1452.5,186.0781 Q1451.8594,186.2344 1451.1563,186.2344 Q1448.6563,186.2344 1447.3281,184.5938 Q1446.0156,182.9375 1446.0156,179.8125 Q1446.0156,176.6875 1447.3281,175.0313 Q1448.6563,173.375 1451.1563,173.375 Q1451.8594,173.375 1452.5,173.5313 Q1453.1563,173.6875 1453.7188,173.9844 L1453.7188,176.7031 Q1453.0938,176.125 1452.5,175.8594 Q1451.9063,175.5781 1451.2813,175.5781 Q1449.9375,175.5781 1449.25,176.6563 Q1448.5625,177.7188 1448.5625,179.8125 Q1448.5625,181.9063 1449.25,182.9844 Q1449.9375,184.0469 1451.2813,184.0469 Q1451.9063,184.0469 1452.5,183.7813 Q1453.0938,183.5 1453.7188,182.9219 L1453.7188,185.6406 Z "/><text fill="#000000" font-family="sans-serif" font-size="12" lengthAdjust="spacingAndGlyphs" textLength="284" x="1471.25" y="184.1543">AdministrativeGenderCharacteristicProcessor</text><line style="stroke: #A80036; stroke-width: 1.5;" x1="1388" x2="1806" y1="196" y2="196"/><line style="stroke: #A80036; stroke-width: 1.5;" x1="1388" x2="1806" y1="204" y2="204"/><ellipse cx="1398" cy="215" fill="#84BE84" rx="3" ry="3" style="stroke: #038048; stroke-width: 1.0;"/><text fill="#000000" font-family="sans-serif" font-size="11" lengthAdjust="spacingAndGlyphs" textLength="394" x="1407" y="218.2104">process(Characteristic, String, MultivaluedMap&lt;String, String&gt;): void</text></a><!--MD5=[57bbdd0bf6ab83d29821227c3ebaa5cb]
reverse link com.ibm.fhir.search.group.characteristic.CharacteristicProcessor to com.ibm.fhir.search.group.characteristic.NoOpCharacteristicProcessor--><path d="M722.2065,107.5279 C622.2376,125.2643 500.9575,146.7817 404.0423,163.9764 " fill="none" id="com.ibm.fhir.search.group.characteristic.CharacteristicProcessor&lt;-com.ibm.fhir.search.group.characteristic.NoOpCharacteristicProcessor" style="stroke: #A80036; stroke-width: 1.0; stroke-dasharray: 7.0,7.0;"/><polygon fill="none" points="720.9873,100.635,741.9026,104.0334,723.433,114.4197,720.9873,100.635" style="stroke: #A80036; stroke-width: 1.0;"/><!--MD5=[ce4a6b83340aac92a8049170d9b8f7a9]
reverse link com.ibm.fhir.search.group.characteristic.CharacteristicProcessor to com.ibm.fhir.search.group.characteristic.PatientAgeCharacteristicProcessor--><path d="M838.6849,113.6459 C807.9084,130.051 772.8921,148.7161 744.2634,163.9764 " fill="none" id="com.ibm.fhir.search.group.characteristic.CharacteristicProcessor&lt;-com.ibm.fhir.search.group.characteristic.PatientAgeCharacteristicProcessor" style="stroke: #A80036; stroke-width: 1.0; stroke-dasharray: 7.0,7.0;"/><polygon fill="none" points="835.7764,107.264,856.7183,104.0334,842.3618,119.6184,835.7764,107.264" style="stroke: #A80036; stroke-width: 1.0;"/><!--MD5=[84183774b61039a6a88cae6269e93d6c]
reverse link com.ibm.fhir.search.group.characteristic.CharacteristicProcessor to com.ibm.fhir.search.group.characteristic.PregnancyStatusCharacteristicProcessor--><path d="M989.2118,113.415 C1020.2285,129.8757 1055.5946,148.6445 1084.4844,163.9764 " fill="none" id="com.ibm.fhir.search.group.characteristic.CharacteristicProcessor&lt;-com.ibm.fhir.search.group.characteristic.PregnancyStatusCharacteristicProcessor" style="stroke: #A80036; stroke-width: 1.0; stroke-dasharray: 7.0,7.0;"/><polygon fill="none" points="985.9189,119.5922,971.534,104.0334,992.4818,107.2258,985.9189,119.5922" style="stroke: #A80036; stroke-width: 1.0;"/><!--MD5=[3bdb135fa1a3c51ce8e7d3d9ab6c89ed]
reverse link com.ibm.fhir.search.group.characteristic.CharacteristicProcessor to com.ibm.fhir.search.group.characteristic.AdministrativeGenderCharacteristicProcessor--><path d="M1106.0747,107.5279 C1206.1902,125.2643 1327.6481,146.7817 1424.7054,163.9764 " fill="none" id="com.ibm.fhir.search.group.characteristic.CharacteristicProcessor&lt;-com.ibm.fhir.search.group.characteristic.AdministrativeGenderCharacteristicProcessor" style="stroke: #A80036; stroke-width: 1.0; stroke-dasharray: 7.0,7.0;"/><polygon fill="none" points="1104.822,114.415,1086.3497,104.0334,1107.2642,100.6297,1104.822,114.415" style="stroke: #A80036; stroke-width: 1.0;"/><text fill="#888888" font-family="sans-serif" font-size="10" lengthAdjust="spacingAndGlyphs" textLength="186" x="827.5" y="260.2822">UMLDoclet 2.0.7, PlantUML 1.2019.12</text><!--MD5=[4ee9a0bf5fdda790f5066f23a031b292]
@startuml
    namespace com.ibm.fhir.search.group.characteristic {

        class NoOpCharacteristicProcessor [[NoOpCharacteristicProcessor.html]] {
            +process(Characteristic, String, MultivaluedMap<String, String>): void
        }

        class PatientAgeCharacteristicProcessor [[PatientAgeCharacteristicProcessor.html]] {
            +process(Characteristic, String, MultivaluedMap<String, String>): void
        }

        interface CharacteristicProcessor [[CharacteristicProcessor.html]] {
            {abstract} +process(Characteristic, String, MultivaluedMap<String, String>): void
        }

        class PregnancyStatusCharacteristicProcessor [[PregnancyStatusCharacteristicProcessor.html]] {
            +process(Characteristic, String, MultivaluedMap<String, String>): void
        }

        class AdministrativeGenderCharacteristicProcessor [[AdministrativeGenderCharacteristicProcessor.html]] {
            +process(Characteristic, String, MultivaluedMap<String, String>): void
        }

        CharacteristicProcessor <|.. NoOpCharacteristicProcessor
        CharacteristicProcessor <|.. PatientAgeCharacteristicProcessor
        CharacteristicProcessor <|.. PregnancyStatusCharacteristicProcessor
        CharacteristicProcessor <|.. AdministrativeGenderCharacteristicProcessor
    }

    center footer UMLDoclet 2.0.7, PlantUML 1.2019.12
@enduml

PlantUML version 1.2019.12(Sun Nov 03 10:24:54 UTC 2019)
(APACHE source distribution)
Java Runtime: OpenJDK Runtime Environment
JVM: OpenJDK 64-Bit Server VM
Java Version: 11.0.10+9
Operating System: Linux
Default Encoding: UTF-8
Language: en
Country: null
--></g></svg>