<?xml version="1.0" encoding="UTF-8" standalone="no"?><svg xmlns="http://www.w3.org/2000/svg" xmlns:xlink="http://www.w3.org/1999/xlink" contentScriptType="application/ecmascript" contentStyleType="text/css" height="393px" preserveAspectRatio="none" style="width:391px;height:393px;" version="1.1" viewBox="0 0 391 393" width="391px" zoomAndPan="magnify"><defs><filter height="300%" id="fcxp0wgb6iibf" width="300%" x="-1" y="-1"><feGaussianBlur result="blurOut" stdDeviation="2.0"/><feColorMatrix in="blurOut" result="blurOut2" type="matrix" values="0 0 0 0 0 0 0 0 0 0 0 0 0 0 0 0 0 0 .4 0"/><feOffset dx="4.0" dy="4.0" in="blurOut2" result="blurOut3"/><feBlend in="SourceGraphic" in2="blurOut3" mode="normal"/></filter></defs><g><!--MD5=[f438efa23b6e1967574b4d8ec6a27fc3]
class com.ibm.fhir.model.resource.ImplementationGuide.DependsOn--><a href="ImplementationGuide.DependsOn.html" target="_top" title="ImplementationGuide.DependsOn.html" xlink:actuate="onRequest" xlink:href="ImplementationGuide.DependsOn.html" xlink:show="new" xlink:title="ImplementationGuide.DependsOn.html" xlink:type="simple"><rect fill="#FEFECE" filter="url(#fcxp0wgb6iibf)" height="135.5703" id="com.ibm.fhir.model.resource.ImplementationGuide.DependsOn" style="stroke: #A80036; stroke-width: 1.5;" width="268" x="53.5" y="127"/><ellipse cx="68.5" cy="145.9688" fill="#ADD1B2" rx="11" ry="11" style="stroke: #A80036; stroke-width: 1.0;"/><path d="M71.4688,151.6094 Q70.8906,151.9063 70.25,152.0469 Q69.6094,152.2031 68.9063,152.2031 Q66.4063,152.2031 65.0781,150.5625 Q63.7656,148.9063 63.7656,145.7813 Q63.7656,142.6563 65.0781,141 Q66.4063,139.3438 68.9063,139.3438 Q69.6094,139.3438 70.25,139.5 Q70.9063,139.6563 71.4688,139.9531 L71.4688,142.6719 Q70.8438,142.0938 70.25,141.8281 Q69.6563,141.5469 69.0313,141.5469 Q67.6875,141.5469 67,142.625 Q66.3125,143.6875 66.3125,145.7813 Q66.3125,147.875 67,148.9531 Q67.6875,150.0156 69.0313,150.0156 Q69.6563,150.0156 70.25,149.75 Q70.8438,149.4688 71.4688,148.8906 L71.4688,151.6094 Z "/><text fill="#000000" font-family="sans-serif" font-size="14" lengthAdjust="spacingAndGlyphs" textLength="236" x="82.5" y="144.9951">ImplementationGuide.DependsOn</text><text fill="#000000" font-family="sans-serif" font-size="10" lengthAdjust="spacingAndGlyphs" textLength="139" x="131" y="157.5791">com.ibm.fhir.model.resource</text><line style="stroke: #A80036; stroke-width: 1.5;" x1="54.5" x2="320.5" y1="164.9375" y2="164.9375"/><ellipse cx="64.5" cy="175.9375" fill="#84BE84" rx="3" ry="3" style="stroke: #038048; stroke-width: 1.0;"/><text fill="#000000" font-family="sans-serif" font-size="11" lengthAdjust="spacingAndGlyphs" textLength="105" x="73.5" y="179.1479">getUri(): Canonical</text><ellipse cx="64.5" cy="188.7422" fill="#84BE84" rx="3" ry="3" style="stroke: #038048; stroke-width: 1.0;"/><text fill="#000000" font-family="sans-serif" font-size="11" lengthAdjust="spacingAndGlyphs" textLength="101" x="73.5" y="191.9526">getPackageId(): Id</text><ellipse cx="64.5" cy="201.5469" fill="#84BE84" rx="3" ry="3" style="stroke: #038048; stroke-width: 1.0;"/><text fill="#000000" font-family="sans-serif" font-size="11" lengthAdjust="spacingAndGlyphs" textLength="111" x="73.5" y="204.7573">getVersion(): String</text><ellipse cx="64.5" cy="214.3516" fill="#84BE84" rx="3" ry="3" style="stroke: #038048; stroke-width: 1.0;"/><text fill="#000000" font-family="sans-serif" font-size="11" lengthAdjust="spacingAndGlyphs" textLength="129" x="73.5" y="217.562">hasChildren(): boolean</text><ellipse cx="64.5" cy="227.1563" fill="#84BE84" rx="3" ry="3" style="stroke: #038048; stroke-width: 1.0;"/><text fill="#000000" font-family="sans-serif" font-size="11" lengthAdjust="spacingAndGlyphs" textLength="176" x="73.5" y="230.3667">accept(String, int, Visitor): void</text><ellipse cx="64.5" cy="239.9609" fill="#84BE84" rx="3" ry="3" style="stroke: #038048; stroke-width: 1.0;"/><text fill="#000000" font-family="sans-serif" font-size="11" lengthAdjust="spacingAndGlyphs" textLength="107" x="73.5" y="243.1714">toBuilder(): Builder</text><ellipse cx="64.5" cy="252.7656" fill="#84BE84" rx="3" ry="3" style="stroke: #038048; stroke-width: 1.0;"/><text fill="#000000" font-family="sans-serif" font-size="11" lengthAdjust="spacingAndGlyphs" text-decoration="underline" textLength="95" x="73.5" y="255.9761">builder(): Builder</text></a><!--MD5=[efbff6997283c56b83e991a8eeb6a60a]
class com.ibm.fhir.model.type.BackboneElement--><a href="../type/BackboneElement.html" target="_top" title="../type/BackboneElement.html" xlink:actuate="onRequest" xlink:href="../type/BackboneElement.html" xlink:show="new" xlink:title="../type/BackboneElement.html" xlink:type="simple"><rect fill="#FEFECE" filter="url(#fcxp0wgb6iibf)" height="58.7422" id="com.ibm.fhir.model.type.BackboneElement" style="stroke: #A80036; stroke-width: 1.5;" width="159" x="6" y="8"/><ellipse cx="21" cy="26.9688" fill="#A9DCDF" rx="11" ry="11" style="stroke: #A80036; stroke-width: 1.0;"/><path d="M21.1094,22.3125 L19.9531,27.3906 L22.2813,27.3906 L21.1094,22.3125 Z M19.625,20.0781 L22.6094,20.0781 L25.9688,32.4688 L23.5156,32.4688 L22.75,29.4063 L19.4688,29.4063 L18.7188,32.4688 L16.2813,32.4688 L19.625,20.0781 Z "/><text fill="#000000" font-family="sans-serif" font-size="14" font-style="italic" lengthAdjust="spacingAndGlyphs" textLength="127" x="35" y="25.9951">BackboneElement</text><text fill="#000000" font-family="sans-serif" font-size="10" font-style="italic" lengthAdjust="spacingAndGlyphs" textLength="119" x="39" y="38.5791">com.ibm.fhir.model.type</text><line style="stroke: #A80036; stroke-width: 1.5;" x1="7" x2="164" y1="45.9375" y2="45.9375"/><ellipse cx="17" cy="56.9375" fill="#84BE84" rx="3" ry="3" style="stroke: #038048; stroke-width: 1.0;"/><text fill="#000000" font-family="sans-serif" font-size="11" font-style="italic" lengthAdjust="spacingAndGlyphs" textLength="107" x="26" y="60.1479">toBuilder(): Builder</text></a><!--MD5=[469ab64c8a0771298a39360a57e5bd4d]
class com.ibm.fhir.model.resource.ImplementationGuide--><a href="ImplementationGuide.html" target="_top" title="ImplementationGuide.html" xlink:actuate="onRequest" xlink:href="ImplementationGuide.html" xlink:show="new" xlink:title="ImplementationGuide.html" xlink:type="simple"><rect fill="#FEFECE" filter="url(#fcxp0wgb6iibf)" height="37.9375" id="com.ibm.fhir.model.resource.ImplementationGuide" style="stroke: #A80036; stroke-width: 1.5;" width="180" x="200.5" y="18.5"/><ellipse cx="215.5" cy="37.4688" fill="#ADD1B2" rx="11" ry="11" style="stroke: #A80036; stroke-width: 1.0;"/><path d="M218.4688,43.1094 Q217.8906,43.4063 217.25,43.5469 Q216.6094,43.7031 215.9063,43.7031 Q213.4063,43.7031 212.0781,42.0625 Q210.7656,40.4063 210.7656,37.2813 Q210.7656,34.1563 212.0781,32.5 Q213.4063,30.8438 215.9063,30.8438 Q216.6094,30.8438 217.25,31 Q217.9063,31.1563 218.4688,31.4531 L218.4688,34.1719 Q217.8438,33.5938 217.25,33.3281 Q216.6563,33.0469 216.0313,33.0469 Q214.6875,33.0469 214,34.125 Q213.3125,35.1875 213.3125,37.2813 Q213.3125,39.375 214,40.4531 Q214.6875,41.5156 216.0313,41.5156 Q216.6563,41.5156 217.25,41.25 Q217.8438,40.9688 218.4688,40.3906 L218.4688,43.1094 Z "/><text fill="#000000" font-family="sans-serif" font-size="14" lengthAdjust="spacingAndGlyphs" textLength="148" x="229.5" y="36.4951">ImplementationGuide</text><text fill="#000000" font-family="sans-serif" font-size="10" lengthAdjust="spacingAndGlyphs" textLength="139" x="234" y="49.0791">com.ibm.fhir.model.resource</text></a><!--MD5=[19650e751f3b5770fc4a21fed702058b]
class com.ibm.fhir.model.resource.ImplementationGuide.DependsOn.Builder--><a href="ImplementationGuide.DependsOn.Builder.html" target="_top" title="ImplementationGuide.DependsOn.Builder.html" xlink:actuate="onRequest" xlink:href="ImplementationGuide.DependsOn.Builder.html" xlink:show="new" xlink:title="ImplementationGuide.DependsOn.Builder.html" xlink:type="simple"><rect fill="#FEFECE" filter="url(#fcxp0wgb6iibf)" height="37.9375" id="com.ibm.fhir.model.resource.ImplementationGuide.DependsOn.Builder" style="stroke: #A80036; stroke-width: 1.5;" width="320" x="27.5" y="323"/><ellipse cx="42.5" cy="341.9688" fill="#ADD1B2" rx="11" ry="11" style="stroke: #A80036; stroke-width: 1.0;"/><path d="M45.4688,347.6094 Q44.8906,347.9063 44.25,348.0469 Q43.6094,348.2031 42.9063,348.2031 Q40.4063,348.2031 39.0781,346.5625 Q37.7656,344.9063 37.7656,341.7813 Q37.7656,338.6563 39.0781,337 Q40.4063,335.3438 42.9063,335.3438 Q43.6094,335.3438 44.25,335.5 Q44.9063,335.6563 45.4688,335.9531 L45.4688,338.6719 Q44.8438,338.0938 44.25,337.8281 Q43.6563,337.5469 43.0313,337.5469 Q41.6875,337.5469 41,338.625 Q40.3125,339.6875 40.3125,341.7813 Q40.3125,343.875 41,344.9531 Q41.6875,346.0156 43.0313,346.0156 Q43.6563,346.0156 44.25,345.75 Q44.8438,345.4688 45.4688,344.8906 L45.4688,347.6094 Z "/><text fill="#000000" font-family="sans-serif" font-size="14" lengthAdjust="spacingAndGlyphs" textLength="288" x="56.5" y="340.9951">ImplementationGuide.DependsOn.Builder</text><text fill="#000000" font-family="sans-serif" font-size="10" lengthAdjust="spacingAndGlyphs" textLength="139" x="131" y="353.5791">com.ibm.fhir.model.resource</text></a><!--MD5=[d32221520a99ef0ca04eefc094475b47]
reverse link com.ibm.fhir.model.type.BackboneElement to com.ibm.fhir.model.resource.ImplementationGuide.DependsOn--><path d="M115.8017,84.2895 C124.4794,97.6888 134.12,112.5749 143.4449,126.9737 " fill="none" id="com.ibm.fhir.model.type.BackboneElement&lt;-com.ibm.fhir.model.resource.ImplementationGuide.DependsOn" style="stroke: #A80036; stroke-width: 1.0;"/><polygon fill="none" points="109.6816,87.7168,104.6854,67.1245,121.4326,80.1066,109.6816,87.7168" style="stroke: #A80036; stroke-width: 1.0;"/><!--MD5=[db4368c75e12ac1f35bb44859a518d2f]
reverse link com.ibm.fhir.model.resource.ImplementationGuide to com.ibm.fhir.model.resource.ImplementationGuide.DependsOn--><path d="M269.5143,69.5898 C258.6898,86.1418 245.0524,106.9951 232.0221,126.9201 " fill="none" id="com.ibm.fhir.model.resource.ImplementationGuide&lt;-com.ibm.fhir.model.resource.ImplementationGuide.DependsOn" style="stroke: #A80036; stroke-width: 1.0;"/><ellipse cx="273.4916" cy="63.508" fill="#FFFFFF" rx="8" ry="8" style="stroke: #A80036; stroke-width: 1.0;"/><line style="stroke: #A80036; stroke-width: 1.0;" x1="269.113" x2="277.8702" y1="70.2033" y2="56.8126"/><line style="stroke: #A80036; stroke-width: 1.0;" x1="266.7962" x2="280.187" y1="59.1294" y2="67.8866"/><!--MD5=[4f4aae93f456a75f8ae147361f54828d]
reverse link com.ibm.fhir.model.resource.ImplementationGuide.DependsOn to com.ibm.fhir.model.resource.ImplementationGuide.DependsOn.Builder--><path d="M187.5,278.372 C187.5,295.0058 187.5,310.9526 187.5,322.721 " fill="none" id="com.ibm.fhir.model.resource.ImplementationGuide.DependsOn&lt;-com.ibm.fhir.model.resource.ImplementationGuide.DependsOn.Builder" style="stroke: #A80036; stroke-width: 1.0;"/><ellipse cx="187.5001" cy="271.3358" fill="#FFFFFF" rx="8" ry="8" style="stroke: #A80036; stroke-width: 1.0;"/><line style="stroke: #A80036; stroke-width: 1.0;" x1="187.5002" x2="187.5" y1="279.3358" y2="263.3358"/><line style="stroke: #A80036; stroke-width: 1.0;" x1="179.5001" x2="195.5001" y1="271.3359" y2="271.3357"/><text fill="#888888" font-family="sans-serif" font-size="10" lengthAdjust="spacingAndGlyphs" textLength="186" x="106.5" y="380.2822">UMLDoclet 2.0.7, PlantUML 1.2019.12</text><!--MD5=[339a8ad97b40dba6dcfd280138f5c039]
@startuml
    set namespaceSeparator none
    hide empty fields
    hide empty methods

    class "<size:14>ImplementationGuide.DependsOn\n<size:10>com.ibm.fhir.model.resource" as com.ibm.fhir.model.resource.ImplementationGuide.DependsOn [[ImplementationGuide.DependsOn.html]] {
        +getUri(): Canonical
        +getPackageId(): Id
        +getVersion(): String
        +hasChildren(): boolean
        +accept(String, int, Visitor): void
        +toBuilder(): Builder
        {static} +builder(): Builder
    }

    abstract class "<size:14>BackboneElement\n<size:10>com.ibm.fhir.model.type" as com.ibm.fhir.model.type.BackboneElement [[../type/BackboneElement.html]] {
        {abstract} +toBuilder(): Builder
    }
    class "<size:14>ImplementationGuide\n<size:10>com.ibm.fhir.model.resource" as com.ibm.fhir.model.resource.ImplementationGuide [[ImplementationGuide.html]]
    class "<size:14>ImplementationGuide.DependsOn.Builder\n<size:10>com.ibm.fhir.model.resource" as com.ibm.fhir.model.resource.ImplementationGuide.DependsOn.Builder [[ImplementationGuide.DependsOn.Builder.html]]

    com.ibm.fhir.model.type.BackboneElement <|- - com.ibm.fhir.model.resource.ImplementationGuide.DependsOn
    com.ibm.fhir.model.resource.ImplementationGuide +- - com.ibm.fhir.model.resource.ImplementationGuide.DependsOn
    com.ibm.fhir.model.resource.ImplementationGuide.DependsOn +- - com.ibm.fhir.model.resource.ImplementationGuide.DependsOn.Builder

    center footer UMLDoclet 2.0.7, PlantUML 1.2019.12
@enduml

PlantUML version 1.2019.12(Sun Nov 03 10:24:54 UTC 2019)
(APACHE source distribution)
Java Runtime: OpenJDK Runtime Environment
JVM: OpenJDK 64-Bit Server VM
Java Version: 11.0.7+10
Operating System: Linux
Default Encoding: UTF-8
Language: en
Country: null
--></g></svg>