<?xml version="1.0" encoding="UTF-8" standalone="no"?><svg xmlns="http://www.w3.org/2000/svg" xmlns:xlink="http://www.w3.org/1999/xlink" contentScriptType="application/ecmascript" contentStyleType="text/css" height="444px" preserveAspectRatio="none" style="width:465px;height:444px;" version="1.1" viewBox="0 0 465 444" width="465px" zoomAndPan="magnify"><defs><filter height="300%" id="f1co9w2b2qj1zm" width="300%" x="-1" y="-1"><feGaussianBlur result="blurOut" stdDeviation="2.0"/><feColorMatrix in="blurOut" result="blurOut2" type="matrix" values="0 0 0 0 0 0 0 0 0 0 0 0 0 0 0 0 0 0 .4 0"/><feOffset dx="4.0" dy="4.0" in="blurOut2" result="blurOut3"/><feBlend in="SourceGraphic" in2="blurOut3" mode="normal"/></filter></defs><g><!--MD5=[734da2d00f760e3103df3c86fa8935d0]
class com.ibm.fhir.model.type.code.ContactPointUse--><a href="ContactPointUse.html" target="_top" title="ContactPointUse.html" xlink:actuate="onRequest" xlink:href="ContactPointUse.html" xlink:show="new" xlink:title="ContactPointUse.html" xlink:type="simple"><rect fill="#FEFECE" filter="url(#f1co9w2b2qj1zm)" height="207.5938" id="com.ibm.fhir.model.type.code.ContactPointUse" style="stroke: #A80036; stroke-width: 1.5;" width="238" x="108" y="106"/><ellipse cx="150.45" cy="124.9688" fill="#ADD1B2" rx="11" ry="11" style="stroke: #A80036; stroke-width: 1.0;"/><path d="M153.4188,130.6094 Q152.8406,130.9063 152.2,131.0469 Q151.5594,131.2031 150.8563,131.2031 Q148.3563,131.2031 147.0281,129.5625 Q145.7156,127.9063 145.7156,124.7813 Q145.7156,121.6563 147.0281,120 Q148.3563,118.3438 150.8563,118.3438 Q151.5594,118.3438 152.2,118.5 Q152.8563,118.6563 153.4188,118.9531 L153.4188,121.6719 Q152.7938,121.0938 152.2,120.8281 Q151.6063,120.5469 150.9813,120.5469 Q149.6375,120.5469 148.95,121.625 Q148.2625,122.6875 148.2625,124.7813 Q148.2625,126.875 148.95,127.9531 Q149.6375,129.0156 150.9813,129.0156 Q151.6063,129.0156 152.2,128.75 Q152.7938,128.4688 153.4188,127.8906 L153.4188,130.6094 Z "/><text fill="#000000" font-family="sans-serif" font-size="14" lengthAdjust="spacingAndGlyphs" textLength="116" x="185.05" y="123.9951">ContactPointUse</text><text fill="#000000" font-family="sans-serif" font-size="10" lengthAdjust="spacingAndGlyphs" textLength="145" x="170.55" y="136.5791">com.ibm.fhir.model.type.code</text><line style="stroke: #A80036; stroke-width: 1.5;" x1="109" x2="345" y1="143.9375" y2="143.9375"/><ellipse cx="119" cy="154.9375" fill="none" rx="3" ry="3" style="stroke: #038048; stroke-width: 1.0;"/><text fill="#000000" font-family="sans-serif" font-size="11" lengthAdjust="spacingAndGlyphs" text-decoration="underline" textLength="134" x="128" y="158.1479">HOME: ContactPointUse</text><ellipse cx="119" cy="167.7422" fill="none" rx="3" ry="3" style="stroke: #038048; stroke-width: 1.0;"/><text fill="#000000" font-family="sans-serif" font-size="11" lengthAdjust="spacingAndGlyphs" text-decoration="underline" textLength="133" x="128" y="170.9526">WORK: ContactPointUse</text><ellipse cx="119" cy="180.5469" fill="none" rx="3" ry="3" style="stroke: #038048; stroke-width: 1.0;"/><text fill="#000000" font-family="sans-serif" font-size="11" lengthAdjust="spacingAndGlyphs" text-decoration="underline" textLength="131" x="128" y="183.7573">TEMP: ContactPointUse</text><ellipse cx="119" cy="193.3516" fill="none" rx="3" ry="3" style="stroke: #038048; stroke-width: 1.0;"/><text fill="#000000" font-family="sans-serif" font-size="11" lengthAdjust="spacingAndGlyphs" text-decoration="underline" textLength="124" x="128" y="196.562">OLD: ContactPointUse</text><ellipse cx="119" cy="206.1563" fill="none" rx="3" ry="3" style="stroke: #038048; stroke-width: 1.0;"/><text fill="#000000" font-family="sans-serif" font-size="11" lengthAdjust="spacingAndGlyphs" text-decoration="underline" textLength="143" x="128" y="209.3667">MOBILE: ContactPointUse</text><line style="stroke: #A80036; stroke-width: 1.5;" x1="109" x2="345" y1="215.9609" y2="215.9609"/><ellipse cx="119" cy="226.9609" fill="#84BE84" rx="3" ry="3" style="stroke: #038048; stroke-width: 1.0;"/><text fill="#000000" font-family="sans-serif" font-size="11" lengthAdjust="spacingAndGlyphs" textLength="212" x="128" y="230.1714">getValueAsEnumConstant(): ValueSet</text><ellipse cx="119" cy="239.7656" fill="#84BE84" rx="3" ry="3" style="stroke: #038048; stroke-width: 1.0;"/><text fill="#000000" font-family="sans-serif" font-size="11" lengthAdjust="spacingAndGlyphs" text-decoration="underline" textLength="170" x="128" y="242.9761">of(ValueSet): ContactPointUse</text><ellipse cx="119" cy="252.5703" fill="#84BE84" rx="3" ry="3" style="stroke: #038048; stroke-width: 1.0;"/><text fill="#000000" font-family="sans-serif" font-size="11" lengthAdjust="spacingAndGlyphs" text-decoration="underline" textLength="154" x="128" y="255.7808">of(String): ContactPointUse</text><ellipse cx="119" cy="265.375" fill="#84BE84" rx="3" ry="3" style="stroke: #038048; stroke-width: 1.0;"/><text fill="#000000" font-family="sans-serif" font-size="11" lengthAdjust="spacingAndGlyphs" text-decoration="underline" textLength="117" x="128" y="268.5854">string(String): String</text><ellipse cx="119" cy="278.1797" fill="#84BE84" rx="3" ry="3" style="stroke: #038048; stroke-width: 1.0;"/><text fill="#000000" font-family="sans-serif" font-size="11" lengthAdjust="spacingAndGlyphs" text-decoration="underline" textLength="106" x="128" y="281.3901">code(String): Code</text><ellipse cx="119" cy="290.9844" fill="#84BE84" rx="3" ry="3" style="stroke: #038048; stroke-width: 1.0;"/><text fill="#000000" font-family="sans-serif" font-size="11" lengthAdjust="spacingAndGlyphs" textLength="107" x="128" y="294.1948">toBuilder(): Builder</text><ellipse cx="119" cy="303.7891" fill="#84BE84" rx="3" ry="3" style="stroke: #038048; stroke-width: 1.0;"/><text fill="#000000" font-family="sans-serif" font-size="11" lengthAdjust="spacingAndGlyphs" text-decoration="underline" textLength="95" x="128" y="306.9995">builder(): Builder</text></a><!--MD5=[36277681a3d78580011ae89cb2088b30]
class com.ibm.fhir.model.type.Code--><a href="../Code.html" target="_top" title="../Code.html" xlink:actuate="onRequest" xlink:href="../Code.html" xlink:show="new" xlink:title="../Code.html" xlink:type="simple"><rect fill="#FEFECE" filter="url(#f1co9w2b2qj1zm)" height="37.9375" id="com.ibm.fhir.model.type.Code" style="stroke: #A80036; stroke-width: 1.5;" width="151" x="151.5" y="8"/><ellipse cx="166.5" cy="26.9688" fill="#ADD1B2" rx="11" ry="11" style="stroke: #A80036; stroke-width: 1.0;"/><path d="M169.4688,32.6094 Q168.8906,32.9063 168.25,33.0469 Q167.6094,33.2031 166.9063,33.2031 Q164.4063,33.2031 163.0781,31.5625 Q161.7656,29.9063 161.7656,26.7813 Q161.7656,23.6563 163.0781,22 Q164.4063,20.3438 166.9063,20.3438 Q167.6094,20.3438 168.25,20.5 Q168.9063,20.6563 169.4688,20.9531 L169.4688,23.6719 Q168.8438,23.0938 168.25,22.8281 Q167.6563,22.5469 167.0313,22.5469 Q165.6875,22.5469 165,23.625 Q164.3125,24.6875 164.3125,26.7813 Q164.3125,28.875 165,29.9531 Q165.6875,31.0156 167.0313,31.0156 Q167.6563,31.0156 168.25,30.75 Q168.8438,30.4688 169.4688,29.8906 L169.4688,32.6094 Z "/><text fill="#000000" font-family="sans-serif" font-size="14" lengthAdjust="spacingAndGlyphs" textLength="37" x="221.5" y="25.9951">Code</text><text fill="#000000" font-family="sans-serif" font-size="10" lengthAdjust="spacingAndGlyphs" textLength="119" x="180.5" y="38.5791">com.ibm.fhir.model.type</text></a><!--MD5=[1052b0cdb159f2a77ea525b4b2f2d7e8]
class com.ibm.fhir.model.type.code.ContactPointUse.Builder--><a href="ContactPointUse.Builder.html" target="_top" title="ContactPointUse.Builder.html" xlink:actuate="onRequest" xlink:href="ContactPointUse.Builder.html" xlink:show="new" xlink:title="ContactPointUse.Builder.html" xlink:type="simple"><rect fill="#FEFECE" filter="url(#f1co9w2b2qj1zm)" height="37.9375" id="com.ibm.fhir.model.type.code.ContactPointUse.Builder" style="stroke: #A80036; stroke-width: 1.5;" width="200" x="6" y="374"/><ellipse cx="21" cy="392.9688" fill="#ADD1B2" rx="11" ry="11" style="stroke: #A80036; stroke-width: 1.0;"/><path d="M23.9688,398.6094 Q23.3906,398.9063 22.75,399.0469 Q22.1094,399.2031 21.4063,399.2031 Q18.9063,399.2031 17.5781,397.5625 Q16.2656,395.9063 16.2656,392.7813 Q16.2656,389.6563 17.5781,388 Q18.9063,386.3438 21.4063,386.3438 Q22.1094,386.3438 22.75,386.5 Q23.4063,386.6563 23.9688,386.9531 L23.9688,389.6719 Q23.3438,389.0938 22.75,388.8281 Q22.1563,388.5469 21.5313,388.5469 Q20.1875,388.5469 19.5,389.625 Q18.8125,390.6875 18.8125,392.7813 Q18.8125,394.875 19.5,395.9531 Q20.1875,397.0156 21.5313,397.0156 Q22.1563,397.0156 22.75,396.75 Q23.3438,396.4688 23.9688,395.8906 L23.9688,398.6094 Z "/><text fill="#000000" font-family="sans-serif" font-size="14" lengthAdjust="spacingAndGlyphs" textLength="168" x="35" y="391.9951">ContactPointUse.Builder</text><text fill="#000000" font-family="sans-serif" font-size="10" lengthAdjust="spacingAndGlyphs" textLength="145" x="46.5" y="404.5791">com.ibm.fhir.model.type.code</text></a><!--MD5=[122a317c1d8a6b232fb1af03f0be5b44]
class com.ibm.fhir.model.type.code.ContactPointUse.ValueSet--><a href="ContactPointUse.ValueSet.html" target="_top" title="ContactPointUse.ValueSet.html" xlink:actuate="onRequest" xlink:href="ContactPointUse.ValueSet.html" xlink:show="new" xlink:title="ContactPointUse.ValueSet.html" xlink:type="simple"><rect fill="#FEFECE" filter="url(#f1co9w2b2qj1zm)" height="37.9375" id="com.ibm.fhir.model.type.code.ContactPointUse.ValueSet" style="stroke: #A80036; stroke-width: 1.5;" width="213" x="241.5" y="374"/><ellipse cx="256.5" cy="392.9688" fill="#EB937F" rx="11" ry="11" style="stroke: #A80036; stroke-width: 1.0;"/><path d="M260.6094,398.9688 L252.8906,398.9688 L252.8906,386.5781 L260.6094,386.5781 L260.6094,388.7344 L255.3438,388.7344 L255.3438,391.4063 L260.1094,391.4063 L260.1094,393.5625 L255.3438,393.5625 L255.3438,396.8125 L260.6094,396.8125 L260.6094,398.9688 Z "/><text fill="#000000" font-family="sans-serif" font-size="14" lengthAdjust="spacingAndGlyphs" textLength="181" x="270.5" y="391.9951">ContactPointUse.ValueSet</text><text fill="#000000" font-family="sans-serif" font-size="10" lengthAdjust="spacingAndGlyphs" textLength="145" x="288.5" y="404.5791">com.ibm.fhir.model.type.code</text></a><!--MD5=[8a11eb437bbf371f658f8855313381f5]
reverse link com.ibm.fhir.model.type.Code to com.ibm.fhir.model.type.code.ContactPointUse--><path d="M227,66.5059 C227,78.3418 227,91.9152 227,105.8885 " fill="none" id="com.ibm.fhir.model.type.Code&lt;-com.ibm.fhir.model.type.code.ContactPointUse" style="stroke: #A80036; stroke-width: 1.0;"/><polygon fill="none" points="220.0001,66.2384,227,46.2383,234.0001,66.2383,220.0001,66.2384" style="stroke: #A80036; stroke-width: 1.0;"/><!--MD5=[40fab0e73637cc63fd1964a6408aaaa6]
reverse link com.ibm.fhir.model.type.code.ContactPointUse to com.ibm.fhir.model.type.code.ContactPointUse.Builder--><path d="M149.9083,326.5932 C137.808,344.8937 126.6673,361.7428 118.6355,373.8901 " fill="none" id="com.ibm.fhir.model.type.code.ContactPointUse&lt;-com.ibm.fhir.model.type.code.ContactPointUse.Builder" style="stroke: #A80036; stroke-width: 1.0;"/><ellipse cx="153.7805" cy="320.7369" fill="#FFFFFF" rx="8" ry="8" style="stroke: #A80036; stroke-width: 1.0;"/><line style="stroke: #A80036; stroke-width: 1.0;" x1="149.3682" x2="158.1928" y1="327.4101" y2="314.0637"/><line style="stroke: #A80036; stroke-width: 1.0;" x1="147.1073" x2="160.4537" y1="316.3246" y2="325.1492"/><!--MD5=[2cde077e7090b776b894f75313c0f252]
reverse link com.ibm.fhir.model.type.code.ContactPointUse to com.ibm.fhir.model.type.code.ContactPointUse.ValueSet--><path d="M304.0917,326.5932 C316.192,344.8937 327.3327,361.7428 335.3645,373.8901 " fill="none" id="com.ibm.fhir.model.type.code.ContactPointUse&lt;-com.ibm.fhir.model.type.code.ContactPointUse.ValueSet" style="stroke: #A80036; stroke-width: 1.0;"/><ellipse cx="300.2195" cy="320.7369" fill="#FFFFFF" rx="8" ry="8" style="stroke: #A80036; stroke-width: 1.0;"/><line style="stroke: #A80036; stroke-width: 1.0;" x1="304.6318" x2="295.8072" y1="327.4101" y2="314.0637"/><line style="stroke: #A80036; stroke-width: 1.0;" x1="293.5463" x2="306.8927" y1="325.1492" y2="316.3246"/><text fill="#888888" font-family="sans-serif" font-size="10" lengthAdjust="spacingAndGlyphs" textLength="186" x="143.5" y="431.2822">UMLDoclet 2.0.7, PlantUML 1.2019.12</text><!--MD5=[59adbd0b05a4cc61f304095efb4d47e9]
@startuml
    set namespaceSeparator none
    hide empty fields
    hide empty methods

    class "<size:14>ContactPointUse\n<size:10>com.ibm.fhir.model.type.code" as com.ibm.fhir.model.type.code.ContactPointUse [[ContactPointUse.html]] {
        {static} +HOME: ContactPointUse
        {static} +WORK: ContactPointUse
        {static} +TEMP: ContactPointUse
        {static} +OLD: ContactPointUse
        {static} +MOBILE: ContactPointUse
        +getValueAsEnumConstant(): ValueSet
        {static} +of(ValueSet): ContactPointUse
        {static} +of(String): ContactPointUse
        {static} +string(String): String
        {static} +code(String): Code
        +toBuilder(): Builder
        {static} +builder(): Builder
    }

    class "<size:14>Code\n<size:10>com.ibm.fhir.model.type" as com.ibm.fhir.model.type.Code [[../Code.html]]
    class "<size:14>ContactPointUse.Builder\n<size:10>com.ibm.fhir.model.type.code" as com.ibm.fhir.model.type.code.ContactPointUse.Builder [[ContactPointUse.Builder.html]]
    enum "<size:14>ContactPointUse.ValueSet\n<size:10>com.ibm.fhir.model.type.code" as com.ibm.fhir.model.type.code.ContactPointUse.ValueSet [[ContactPointUse.ValueSet.html]]

    com.ibm.fhir.model.type.Code <|- - com.ibm.fhir.model.type.code.ContactPointUse
    com.ibm.fhir.model.type.code.ContactPointUse +- - com.ibm.fhir.model.type.code.ContactPointUse.Builder
    com.ibm.fhir.model.type.code.ContactPointUse +- - com.ibm.fhir.model.type.code.ContactPointUse.ValueSet

    center footer UMLDoclet 2.0.7, PlantUML 1.2019.12
@enduml

PlantUML version 1.2019.12(Sun Nov 03 10:24:54 UTC 2019)
(APACHE source distribution)
Java Runtime: OpenJDK Runtime Environment
JVM: OpenJDK 64-Bit Server VM
Java Version: 11.0.7+10
Operating System: Linux
Default Encoding: UTF-8
Language: en
Country: null
--></g></svg>