<?xml version="1.0" encoding="UTF-8" standalone="no"?><svg xmlns="http://www.w3.org/2000/svg" xmlns:xlink="http://www.w3.org/1999/xlink" contentScriptType="application/ecmascript" contentStyleType="text/css" height="274px" preserveAspectRatio="none" style="width:850px;height:274px;" version="1.1" viewBox="0 0 850 274" width="850px" zoomAndPan="magnify"><defs><filter height="300%" id="fxqb15ffncf4w" width="300%" x="-1" y="-1"><feGaussianBlur result="blurOut" stdDeviation="2.0"/><feColorMatrix in="blurOut" result="blurOut2" type="matrix" values="0 0 0 0 0 0 0 0 0 0 0 0 0 0 0 0 0 0 .4 0"/><feOffset dx="4.0" dy="4.0" in="blurOut2" result="blurOut3"/><feBlend in="SourceGraphic" in2="blurOut3" mode="normal"/></filter></defs><g><!--MD5=[c9ec475da60f2e12e4388fe82995edd1]
class com.ibm.fhir.persistence.jdbc.derby.DerbyResourceDAO--><a href="DerbyResourceDAO.html" target="_top" title="DerbyResourceDAO.html" xlink:actuate="onRequest" xlink:href="DerbyResourceDAO.html" xlink:show="new" xlink:title="DerbyResourceDAO.html" xlink:type="simple"><rect fill="#FEFECE" filter="url(#fxqb15ffncf4w)" height="135.5703" id="com.ibm.fhir.persistence.jdbc.derby.DerbyResourceDAO" style="stroke: #A80036; stroke-width: 1.5;" width="833" x="6" y="106"/><ellipse cx="332.25" cy="124.9688" fill="#ADD1B2" rx="11" ry="11" style="stroke: #A80036; stroke-width: 1.0;"/><path d="M335.2188,130.6094 Q334.6406,130.9063 334,131.0469 Q333.3594,131.2031 332.6563,131.2031 Q330.1563,131.2031 328.8281,129.5625 Q327.5156,127.9063 327.5156,124.7813 Q327.5156,121.6563 328.8281,120 Q330.1563,118.3438 332.6563,118.3438 Q333.3594,118.3438 334,118.5 Q334.6563,118.6563 335.2188,118.9531 L335.2188,121.6719 Q334.5938,121.0938 334,120.8281 Q333.4063,120.5469 332.7813,120.5469 Q331.4375,120.5469 330.75,121.625 Q330.0625,122.6875 330.0625,124.7813 Q330.0625,126.875 330.75,127.9531 Q331.4375,129.0156 332.7813,129.0156 Q333.4063,129.0156 334,128.75 Q334.5938,128.4688 335.2188,127.8906 L335.2188,130.6094 Z "/><text fill="#000000" font-family="sans-serif" font-size="14" lengthAdjust="spacingAndGlyphs" textLength="139" x="369.25" y="123.9951">DerbyResourceDAO</text><text fill="#000000" font-family="sans-serif" font-size="10" lengthAdjust="spacingAndGlyphs" textLength="172" x="352.75" y="136.5791">com.ibm.fhir.persistence.jdbc.derby</text><line style="stroke: #A80036; stroke-width: 1.5;" x1="7" x2="838" y1="143.9375" y2="143.9375"/><ellipse cx="17" cy="154.9375" fill="#84BE84" rx="3" ry="3" style="stroke: #038048; stroke-width: 1.0;"/><text fill="#000000" font-family="sans-serif" font-size="11" lengthAdjust="spacingAndGlyphs" textLength="304" x="26" y="158.1479">DerbyResourceDAO(Connection, String, FHIRDbFlavor)</text><ellipse cx="17" cy="167.7422" fill="#84BE84" rx="3" ry="3" style="stroke: #038048; stroke-width: 1.0;"/><text fill="#000000" font-family="sans-serif" font-size="11" lengthAdjust="spacingAndGlyphs" textLength="514" x="26" y="170.9526">DerbyResourceDAO(Connection, String, FHIRDbFlavor, TransactionSynchronizationRegistry)</text><ellipse cx="17" cy="180.5469" fill="#84BE84" rx="3" ry="3" style="stroke: #038048; stroke-width: 1.0;"/><text fill="#000000" font-family="sans-serif" font-size="11" lengthAdjust="spacingAndGlyphs" textLength="437" x="26" y="183.7573">insert(Resource, List&lt;ExtractedParameterValue&gt;, ParameterDAO): Resource</text><ellipse cx="17" cy="193.3516" fill="#84BE84" rx="3" ry="3" style="stroke: #038048; stroke-width: 1.0;"/><text fill="#000000" font-family="sans-serif" font-size="11" lengthAdjust="spacingAndGlyphs" textLength="807" x="26" y="196.562">storeResource(String, List&lt;ExtractedParameterValue&gt;, String, byte[], Timestamp, boolean, String, Integer, Connection, ParameterDAO): long</text><polygon fill="#FFFF44" points="17,201.1563,21,205.1563,17,209.1563,13,205.1563" style="stroke: #B38D22; stroke-width: 1.0;"/><text fill="#000000" font-family="sans-serif" font-size="11" lengthAdjust="spacingAndGlyphs" textLength="331" x="26" y="209.3667">deleteFromParameterTable(Connection, String, long): void</text><polygon fill="#FFFF44" points="17,213.9609,21,217.9609,17,221.9609,13,217.9609" style="stroke: #B38D22; stroke-width: 1.0;"/><text fill="#000000" font-family="sans-serif" font-size="11" lengthAdjust="spacingAndGlyphs" textLength="269" x="26" y="222.1714">getResourceTypeId(String, Connection): Integer</text><ellipse cx="17" cy="231.7656" fill="#84BE84" rx="3" ry="3" style="stroke: #038048; stroke-width: 1.0;"/><text fill="#000000" font-family="sans-serif" font-size="11" lengthAdjust="spacingAndGlyphs" textLength="285" x="26" y="234.9761">getOrCreateResourceType(String, Connection): int</text></a><!--MD5=[e91a7ae6814eada2839158a0cb0dee3b]
class com.ibm.fhir.persistence.jdbc.dao.impl.ResourceDAOImpl--><a href="../dao/impl/ResourceDAOImpl.html" target="_top" title="../dao/impl/ResourceDAOImpl.html" xlink:actuate="onRequest" xlink:href="../dao/impl/ResourceDAOImpl.html" xlink:show="new" xlink:title="../dao/impl/ResourceDAOImpl.html" xlink:type="simple"><rect fill="#FEFECE" filter="url(#fxqb15ffncf4w)" height="37.9375" id="com.ibm.fhir.persistence.jdbc.dao.impl.ResourceDAOImpl" style="stroke: #A80036; stroke-width: 1.5;" width="217" x="314" y="8"/><ellipse cx="329" cy="26.9688" fill="#ADD1B2" rx="11" ry="11" style="stroke: #A80036; stroke-width: 1.0;"/><path d="M331.9688,32.6094 Q331.3906,32.9063 330.75,33.0469 Q330.1094,33.2031 329.4063,33.2031 Q326.9063,33.2031 325.5781,31.5625 Q324.2656,29.9063 324.2656,26.7813 Q324.2656,23.6563 325.5781,22 Q326.9063,20.3438 329.4063,20.3438 Q330.1094,20.3438 330.75,20.5 Q331.4063,20.6563 331.9688,20.9531 L331.9688,23.6719 Q331.3438,23.0938 330.75,22.8281 Q330.1563,22.5469 329.5313,22.5469 Q328.1875,22.5469 327.5,23.625 Q326.8125,24.6875 326.8125,26.7813 Q326.8125,28.875 327.5,29.9531 Q328.1875,31.0156 329.5313,31.0156 Q330.1563,31.0156 330.75,30.75 Q331.3438,30.4688 331.9688,29.8906 L331.9688,32.6094 Z "/><text fill="#000000" font-family="sans-serif" font-size="14" lengthAdjust="spacingAndGlyphs" textLength="126" x="372.5" y="25.9951">ResourceDAOImpl</text><text fill="#000000" font-family="sans-serif" font-size="10" lengthAdjust="spacingAndGlyphs" textLength="185" x="343" y="38.5791">com.ibm.fhir.persistence.jdbc.dao.impl</text></a><!--MD5=[e40245605fefddfdb44b260694c528fc]
reverse link com.ibm.fhir.persistence.jdbc.dao.impl.ResourceDAOImpl to com.ibm.fhir.persistence.jdbc.derby.DerbyResourceDAO--><path d="M422.5,66.5201 C422.5,78.6459 422.5,92.3537 422.5,105.822 " fill="none" id="com.ibm.fhir.persistence.jdbc.dao.impl.ResourceDAOImpl&lt;-com.ibm.fhir.persistence.jdbc.derby.DerbyResourceDAO" style="stroke: #A80036; stroke-width: 1.0;"/><polygon fill="none" points="415.5001,66.2177,422.5,46.2177,429.5001,66.2176,415.5001,66.2177" style="stroke: #A80036; stroke-width: 1.0;"/><text fill="#888888" font-family="sans-serif" font-size="10" lengthAdjust="spacingAndGlyphs" textLength="186" x="335.5" y="261.2822">UMLDoclet 2.0.7, PlantUML 1.2019.12</text><!--MD5=[8b677676059dc0606ea70bcfb298f97f]
@startuml
    set namespaceSeparator none
    hide empty fields
    hide empty methods

    class "<size:14>DerbyResourceDAO\n<size:10>com.ibm.fhir.persistence.jdbc.derby" as com.ibm.fhir.persistence.jdbc.derby.DerbyResourceDAO [[DerbyResourceDAO.html]] {
        +DerbyResourceDAO(Connection, String, FHIRDbFlavor)
        +DerbyResourceDAO(Connection, String, FHIRDbFlavor, TransactionSynchronizationRegistry)
        +insert(Resource, List<ExtractedParameterValue>, ParameterDAO): Resource
        +storeResource(String, List<ExtractedParameterValue>, String, byte[], Timestamp, boolean, String, Integer, Connection, ParameterDAO): long
        #deleteFromParameterTable(Connection, String, long): void
        #getResourceTypeId(String, Connection): Integer
        +getOrCreateResourceType(String, Connection): int
    }

    class "<size:14>ResourceDAOImpl\n<size:10>com.ibm.fhir.persistence.jdbc.dao.impl" as com.ibm.fhir.persistence.jdbc.dao.impl.ResourceDAOImpl [[../dao/impl/ResourceDAOImpl.html]]

    com.ibm.fhir.persistence.jdbc.dao.impl.ResourceDAOImpl <|- - com.ibm.fhir.persistence.jdbc.derby.DerbyResourceDAO

    center footer UMLDoclet 2.0.7, PlantUML 1.2019.12
@enduml

PlantUML version 1.2019.12(Sun Nov 03 10:24:54 UTC 2019)
(APACHE source distribution)
Java Runtime: OpenJDK Runtime Environment
JVM: OpenJDK 64-Bit Server VM
Java Version: 11.0.8+10
Operating System: Linux
Default Encoding: UTF-8
Language: en
Country: null
--></g></svg>