<?xml version="1.0" encoding="UTF-8" standalone="no"?><svg xmlns="http://www.w3.org/2000/svg" xmlns:xlink="http://www.w3.org/1999/xlink" contentScriptType="application/ecmascript" contentStyleType="text/css" height="231px" preserveAspectRatio="none" style="width:591px;height:231px;" version="1.1" viewBox="0 0 591 231" width="591px" zoomAndPan="magnify"><defs><filter height="300%" id="f14xuzcxgf5qqd" width="300%" x="-1" y="-1"><feGaussianBlur result="blurOut" stdDeviation="2.0"/><feColorMatrix in="blurOut" result="blurOut2" type="matrix" values="0 0 0 0 0 0 0 0 0 0 0 0 0 0 0 0 0 0 .4 0"/><feOffset dx="4.0" dy="4.0" in="blurOut2" result="blurOut3"/><feBlend in="SourceGraphic" in2="blurOut3" mode="normal"/></filter></defs><g><!--MD5=[e5820ea9b5636b1fa3d900db8e2d64ac]
class com.ibm.fhir.notifications.kafka.impl.FHIRNotificationKafkaPublisher.KafkaPublisherCallback--><a href="FHIRNotificationKafkaPublisher.KafkaPublisherCallback.html" target="_top" title="FHIRNotificationKafkaPublisher.KafkaPublisherCallback.html" xlink:actuate="onRequest" xlink:href="FHIRNotificationKafkaPublisher.KafkaPublisherCallback.html" xlink:show="new" xlink:title="FHIRNotificationKafkaPublisher.KafkaPublisherCallback.html" xlink:type="simple"><rect fill="#FEFECE" filter="url(#f14xuzcxgf5qqd)" height="71.5469" id="com.ibm.fhir.notifications.kafka.impl.FHIRNotificationKafkaPublisher.KafkaPublisherCallback" style="stroke: #A80036; stroke-width: 1.5;" width="402" x="106.5" y="127"/><ellipse cx="121.5" cy="145.9688" fill="#ADD1B2" rx="11" ry="11" style="stroke: #A80036; stroke-width: 1.0;"/><path d="M124.4688,151.6094 Q123.8906,151.9063 123.25,152.0469 Q122.6094,152.2031 121.9063,152.2031 Q119.4063,152.2031 118.0781,150.5625 Q116.7656,148.9063 116.7656,145.7813 Q116.7656,142.6563 118.0781,141 Q119.4063,139.3438 121.9063,139.3438 Q122.6094,139.3438 123.25,139.5 Q123.9063,139.6563 124.4688,139.9531 L124.4688,142.6719 Q123.8438,142.0938 123.25,141.8281 Q122.6563,141.5469 122.0313,141.5469 Q120.6875,141.5469 120,142.625 Q119.3125,143.6875 119.3125,145.7813 Q119.3125,147.875 120,148.9531 Q120.6875,150.0156 122.0313,150.0156 Q122.6563,150.0156 123.25,149.75 Q123.8438,149.4688 124.4688,148.8906 L124.4688,151.6094 Z "/><text fill="#000000" font-family="sans-serif" font-size="14" lengthAdjust="spacingAndGlyphs" textLength="370" x="135.5" y="144.9951">FHIRNotificationKafkaPublisher.KafkaPublisherCallback</text><text fill="#000000" font-family="sans-serif" font-size="10" lengthAdjust="spacingAndGlyphs" textLength="174" x="233.5" y="157.5791">com.ibm.fhir.notifications.kafka.impl</text><line style="stroke: #A80036; stroke-width: 1.5;" x1="107.5" x2="507.5" y1="164.9375" y2="164.9375"/><ellipse cx="117.5" cy="175.9375" fill="#84BE84" rx="3" ry="3" style="stroke: #038048; stroke-width: 1.0;"/><text fill="#000000" font-family="sans-serif" font-size="11" lengthAdjust="spacingAndGlyphs" textLength="341" x="126.5" y="179.1479">KafkaPublisherCallback(FHIRNotificationEvent, String, String)</text><ellipse cx="117.5" cy="188.7422" fill="#84BE84" rx="3" ry="3" style="stroke: #038048; stroke-width: 1.0;"/><text fill="#000000" font-family="sans-serif" font-size="11" lengthAdjust="spacingAndGlyphs" textLength="270" x="126.5" y="191.9526">onCompletion(RecordMetadata, Exception): void</text></a><!--MD5=[b6196abc0b75482ae913c479995727c9]
class org.apache.kafka.clients.producer.Callback--><rect fill="#FEFECE" filter="url(#f14xuzcxgf5qqd)" height="58.7422" id="org.apache.kafka.clients.producer.Callback" style="stroke: #A80036; stroke-width: 1.5;" width="299" x="6" y="8"/><ellipse cx="66.75" cy="26.9688" fill="#B4A7E5" rx="11" ry="11" style="stroke: #A80036; stroke-width: 1.0;"/><path d="M62.6719,22.7344 L62.6719,20.5781 L70.0625,20.5781 L70.0625,22.7344 L67.5938,22.7344 L67.5938,30.8125 L70.0625,30.8125 L70.0625,32.9688 L62.6719,32.9688 L62.6719,30.8125 L65.1406,30.8125 L65.1406,22.7344 L62.6719,22.7344 Z "/><text fill="#000000" font-family="sans-serif" font-size="14" font-style="italic" lengthAdjust="spacingAndGlyphs" textLength="57" x="143.25" y="25.9951">Callback</text><text fill="#000000" font-family="sans-serif" font-size="10" font-style="italic" lengthAdjust="spacingAndGlyphs" textLength="169" x="87.25" y="38.5791">org.apache.kafka.clients.producer</text><line style="stroke: #A80036; stroke-width: 1.5;" x1="7" x2="304" y1="45.9375" y2="45.9375"/><ellipse cx="17" cy="56.9375" fill="#84BE84" rx="3" ry="3" style="stroke: #038048; stroke-width: 1.0;"/><text fill="#000000" font-family="sans-serif" font-size="11" font-style="italic" lengthAdjust="spacingAndGlyphs" textLength="273" x="26" y="60.1479">onCompletion(RecordMetadata, Exception): void</text><!--MD5=[807c71fc6a9baed85ec8235ad3df33ae]
class com.ibm.fhir.notifications.kafka.impl.FHIRNotificationKafkaPublisher--><a href="FHIRNotificationKafkaPublisher.html" target="_top" title="FHIRNotificationKafkaPublisher.html" xlink:actuate="onRequest" xlink:href="FHIRNotificationKafkaPublisher.html" xlink:show="new" xlink:title="FHIRNotificationKafkaPublisher.html" xlink:type="simple"><rect fill="#FEFECE" filter="url(#f14xuzcxgf5qqd)" height="37.9375" id="com.ibm.fhir.notifications.kafka.impl.FHIRNotificationKafkaPublisher" style="stroke: #A80036; stroke-width: 1.5;" width="240" x="340.5" y="18.5"/><ellipse cx="355.5" cy="37.4688" fill="#ADD1B2" rx="11" ry="11" style="stroke: #A80036; stroke-width: 1.0;"/><path d="M358.4688,43.1094 Q357.8906,43.4063 357.25,43.5469 Q356.6094,43.7031 355.9063,43.7031 Q353.4063,43.7031 352.0781,42.0625 Q350.7656,40.4063 350.7656,37.2813 Q350.7656,34.1563 352.0781,32.5 Q353.4063,30.8438 355.9063,30.8438 Q356.6094,30.8438 357.25,31 Q357.9063,31.1563 358.4688,31.4531 L358.4688,34.1719 Q357.8438,33.5938 357.25,33.3281 Q356.6563,33.0469 356.0313,33.0469 Q354.6875,33.0469 354,34.125 Q353.3125,35.1875 353.3125,37.2813 Q353.3125,39.375 354,40.4531 Q354.6875,41.5156 356.0313,41.5156 Q356.6563,41.5156 357.25,41.25 Q357.8438,40.9688 358.4688,40.3906 L358.4688,43.1094 Z "/><text fill="#000000" font-family="sans-serif" font-size="14" lengthAdjust="spacingAndGlyphs" textLength="208" x="369.5" y="36.4951">FHIRNotificationKafkaPublisher</text><text fill="#000000" font-family="sans-serif" font-size="10" lengthAdjust="spacingAndGlyphs" textLength="174" x="386.5" y="49.0791">com.ibm.fhir.notifications.kafka.impl</text></a><!--MD5=[49661d1b449e311b0dd89a9b9fcedac3]
reverse link org.apache.kafka.clients.producer.Callback to com.ibm.fhir.notifications.kafka.impl.FHIRNotificationKafkaPublisher.KafkaPublisherCallback--><path d="M207.0682,80.0777 C225.5339,95.3241 246.153,112.3484 263.8809,126.9855 " fill="none" id="org.apache.kafka.clients.producer.Callback&lt;-com.ibm.fhir.notifications.kafka.impl.FHIRNotificationKafkaPublisher.KafkaPublisherCallback" style="stroke: #A80036; stroke-width: 1.0; stroke-dasharray: 7.0,7.0;"/><polygon fill="none" points="202.4876,85.3734,191.5219,67.2417,211.4012,74.5776,202.4876,85.3734" style="stroke: #A80036; stroke-width: 1.0;"/><!--MD5=[d7e51514f02164d39c1269f8cb0ec6a8]
reverse link com.ibm.fhir.notifications.kafka.impl.FHIRNotificationKafkaPublisher to com.ibm.fhir.notifications.kafka.impl.FHIRNotificationKafkaPublisher.KafkaPublisherCallback--><path d="M425.5056,66.2045 C403.5701,84.1974 375.1047,107.5465 351.6272,126.8041 " fill="none" id="com.ibm.fhir.notifications.kafka.impl.FHIRNotificationKafkaPublisher&lt;-com.ibm.fhir.notifications.kafka.impl.FHIRNotificationKafkaPublisher.KafkaPublisherCallback" style="stroke: #A80036; stroke-width: 1.0;"/><ellipse cx="431.0772" cy="61.6343" fill="#FFFFFF" rx="8" ry="8" style="stroke: #A80036; stroke-width: 1.0;"/><line style="stroke: #A80036; stroke-width: 1.0;" x1="424.8919" x2="437.2626" y1="66.7079" y2="56.5607"/><line style="stroke: #A80036; stroke-width: 1.0;" x1="426.0036" x2="436.1508" y1="55.4489" y2="67.8197"/><text fill="#888888" font-family="sans-serif" font-size="10" lengthAdjust="spacingAndGlyphs" textLength="186" x="206.5" y="218.2822">UMLDoclet 2.0.7, PlantUML 1.2019.12</text><!--MD5=[de42fdd143952ab8c4088982bbf5788a]
@startuml
    set namespaceSeparator none
    hide empty fields
    hide empty methods

    class "<size:14>FHIRNotificationKafkaPublisher.KafkaPublisherCallback\n<size:10>com.ibm.fhir.notifications.kafka.impl" as com.ibm.fhir.notifications.kafka.impl.FHIRNotificationKafkaPublisher.KafkaPublisherCallback [[FHIRNotificationKafkaPublisher.KafkaPublisherCallback.html]] {
        +KafkaPublisherCallback(FHIRNotificationEvent, String, String)
        +onCompletion(RecordMetadata, Exception): void
    }

    interface "<size:14>Callback\n<size:10>org.apache.kafka.clients.producer" as org.apache.kafka.clients.producer.Callback {
        {abstract} +onCompletion(RecordMetadata, Exception): void
    }
    class "<size:14>FHIRNotificationKafkaPublisher\n<size:10>com.ibm.fhir.notifications.kafka.impl" as com.ibm.fhir.notifications.kafka.impl.FHIRNotificationKafkaPublisher [[FHIRNotificationKafkaPublisher.html]]

    org.apache.kafka.clients.producer.Callback <|.. com.ibm.fhir.notifications.kafka.impl.FHIRNotificationKafkaPublisher.KafkaPublisherCallback
    com.ibm.fhir.notifications.kafka.impl.FHIRNotificationKafkaPublisher +- - com.ibm.fhir.notifications.kafka.impl.FHIRNotificationKafkaPublisher.KafkaPublisherCallback

    center footer UMLDoclet 2.0.7, PlantUML 1.2019.12
@enduml

PlantUML version 1.2019.12(Sun Nov 03 10:24:54 UTC 2019)
(APACHE source distribution)
Java Runtime: OpenJDK Runtime Environment
JVM: OpenJDK 64-Bit Server VM
Java Version: 11.0.10+9
Operating System: Linux
Default Encoding: UTF-8
Language: en
Country: null
--></g></svg>