<?xml version="1.0" encoding="UTF-8" standalone="no"?><svg xmlns="http://www.w3.org/2000/svg" xmlns:xlink="http://www.w3.org/1999/xlink" contentScriptType="application/ecmascript" contentStyleType="text/css" height="407px" preserveAspectRatio="none" style="width:792px;height:407px;" version="1.1" viewBox="0 0 792 407" width="792px" zoomAndPan="magnify"><defs><filter height="300%" id="fk8hq9ww6prla" width="300%" x="-1" y="-1"><feGaussianBlur result="blurOut" stdDeviation="2.0"/><feColorMatrix in="blurOut" result="blurOut2" type="matrix" values="0 0 0 0 0 0 0 0 0 0 0 0 0 0 0 0 0 0 .4 0"/><feOffset dx="4.0" dy="4.0" in="blurOut2" result="blurOut3"/><feBlend in="SourceGraphic" in2="blurOut3" mode="normal"/></filter></defs><g><!--MD5=[7e989081cba79c9ab096bfe7a6a7b1ca]
cluster com.ibm.fhir.persistence.helper--><polygon fill="#FFFFFF" filter="url(#fk8hq9ww6prla)" points="22,24,281,24,288,46.2969,770,46.2969,770,359,22,359,22,24" style="stroke: #000000; stroke-width: 1.5;"/><line style="stroke: #000000; stroke-width: 1.5;" x1="22" x2="288" y1="46.2969" y2="46.2969"/><text fill="#000000" font-family="sans-serif" font-size="14" font-weight="bold" lengthAdjust="spacingAndGlyphs" textLength="253" x="26" y="38.9951">com.ibm.fhir.persistence.helper</text><!--MD5=[c14a99a1449b32933d4d113b476b2e7a]
class com.ibm.fhir.persistence.helper.FHIRPersistenceHelper--><a href="FHIRPersistenceHelper.html" target="_top" title="FHIRPersistenceHelper.html" xlink:actuate="onRequest" xlink:href="FHIRPersistenceHelper.html" xlink:show="new" xlink:title="FHIRPersistenceHelper.html" xlink:type="simple"><rect fill="#FEFECE" filter="url(#fk8hq9ww6prla)" height="99.2188" id="com.ibm.fhir.persistence.helper.FHIRPersistenceHelper" style="stroke: #A80036; stroke-width: 1.5;" width="364" x="38" y="244"/><ellipse cx="144.75" cy="260" fill="#ADD1B2" rx="11" ry="11" style="stroke: #A80036; stroke-width: 1.0;"/><path d="M147.7188,265.6406 Q147.1406,265.9375 146.5,266.0781 Q145.8594,266.2344 145.1563,266.2344 Q142.6563,266.2344 141.3281,264.5938 Q140.0156,262.9375 140.0156,259.8125 Q140.0156,256.6875 141.3281,255.0313 Q142.6563,253.375 145.1563,253.375 Q145.8594,253.375 146.5,253.5313 Q147.1563,253.6875 147.7188,253.9844 L147.7188,256.7031 Q147.0938,256.125 146.5,255.8594 Q145.9063,255.5781 145.2813,255.5781 Q143.9375,255.5781 143.25,256.6563 Q142.5625,257.7188 142.5625,259.8125 Q142.5625,261.9063 143.25,262.9844 Q143.9375,264.0469 145.2813,264.0469 Q145.9063,264.0469 146.5,263.7813 Q147.0938,263.5 147.7188,262.9219 L147.7188,265.6406 Z "/><text fill="#000000" font-family="sans-serif" font-size="12" lengthAdjust="spacingAndGlyphs" textLength="142" x="165.25" y="264.1543">FHIRPersistenceHelper</text><line style="stroke: #A80036; stroke-width: 1.5;" x1="39" x2="401" y1="276" y2="276"/><polygon fill="none" points="49,282,53,286,49,290,45,286" style="stroke: #B38D22; stroke-width: 1.0;"/><text fill="#000000" font-family="sans-serif" font-size="11" lengthAdjust="spacingAndGlyphs" textLength="146" x="58" y="290.2104">fhirConfig: PropertyGroup</text><line style="stroke: #A80036; stroke-width: 1.5;" x1="39" x2="401" y1="296.8047" y2="296.8047"/><polygon fill="#FFFF44" points="49,302.8047,53,306.8047,49,310.8047,45,306.8047" style="stroke: #B38D22; stroke-width: 1.0;"/><text fill="#000000" font-family="sans-serif" font-size="11" lengthAdjust="spacingAndGlyphs" textLength="234" x="58" y="311.0151">retrieveFactoryClassName(String): String</text><ellipse cx="49" cy="320.6094" fill="#84BE84" rx="3" ry="3" style="stroke: #038048; stroke-width: 1.0;"/><text fill="#000000" font-family="sans-serif" font-size="11" lengthAdjust="spacingAndGlyphs" textLength="304" x="58" y="323.8198">getFHIRPersistenceImplementation(): FHIRPersistence</text><ellipse cx="49" cy="333.4141" fill="#84BE84" rx="3" ry="3" style="stroke: #038048; stroke-width: 1.0;"/><text fill="#000000" font-family="sans-serif" font-size="11" lengthAdjust="spacingAndGlyphs" textLength="338" x="58" y="336.6245">getFHIRPersistenceImplementation(String): FHIRPersistence</text></a><!--MD5=[f9f5e07eff58e27f63f7e7805c6b0a05]
class com.ibm.fhir.persistence.helper.FHIRTransactionHelper--><a href="FHIRTransactionHelper.html" target="_top" title="FHIRTransactionHelper.html" xlink:actuate="onRequest" xlink:href="FHIRTransactionHelper.html" xlink:show="new" xlink:title="FHIRTransactionHelper.html" xlink:type="simple"><rect fill="#FEFECE" filter="url(#fk8hq9ww6prla)" height="124.8281" id="com.ibm.fhir.persistence.helper.FHIRTransactionHelper" style="stroke: #A80036; stroke-width: 1.5;" width="320" x="434" y="59"/><ellipse cx="518.75" cy="75" fill="#ADD1B2" rx="11" ry="11" style="stroke: #A80036; stroke-width: 1.0;"/><path d="M521.7188,80.6406 Q521.1406,80.9375 520.5,81.0781 Q519.8594,81.2344 519.1563,81.2344 Q516.6563,81.2344 515.3281,79.5938 Q514.0156,77.9375 514.0156,74.8125 Q514.0156,71.6875 515.3281,70.0313 Q516.6563,68.375 519.1563,68.375 Q519.8594,68.375 520.5,68.5313 Q521.1563,68.6875 521.7188,68.9844 L521.7188,71.7031 Q521.0938,71.125 520.5,70.8594 Q519.9063,70.5781 519.2813,70.5781 Q517.9375,70.5781 517.25,71.6563 Q516.5625,72.7188 516.5625,74.8125 Q516.5625,76.9063 517.25,77.9844 Q517.9375,79.0469 519.2813,79.0469 Q519.9063,79.0469 520.5,78.7813 Q521.0938,78.5 521.7188,77.9219 L521.7188,80.6406 Z "/><text fill="#000000" font-family="sans-serif" font-size="12" lengthAdjust="spacingAndGlyphs" textLength="142" x="539.25" y="79.1543">FHIRTransactionHelper</text><line style="stroke: #A80036; stroke-width: 1.5;" x1="435" x2="753" y1="91" y2="91"/><line style="stroke: #A80036; stroke-width: 1.5;" x1="435" x2="753" y1="99" y2="99"/><ellipse cx="445" cy="110" fill="#84BE84" rx="3" ry="3" style="stroke: #038048; stroke-width: 1.0;"/><text fill="#000000" font-family="sans-serif" font-size="11" lengthAdjust="spacingAndGlyphs" textLength="294" x="454" y="113.2104">FHIRTransactionHelper(FHIRPersistenceTransaction)</text><ellipse cx="445" cy="122.8047" fill="#84BE84" rx="3" ry="3" style="stroke: #038048; stroke-width: 1.0;"/><text fill="#000000" font-family="sans-serif" font-size="11" lengthAdjust="spacingAndGlyphs" textLength="70" x="454" y="126.0151">begin(): void</text><ellipse cx="445" cy="135.6094" fill="#84BE84" rx="3" ry="3" style="stroke: #038048; stroke-width: 1.0;"/><text fill="#000000" font-family="sans-serif" font-size="11" lengthAdjust="spacingAndGlyphs" textLength="81" x="454" y="138.8198">commit(): void</text><ellipse cx="445" cy="148.4141" fill="#84BE84" rx="3" ry="3" style="stroke: #038048; stroke-width: 1.0;"/><text fill="#000000" font-family="sans-serif" font-size="11" lengthAdjust="spacingAndGlyphs" textLength="60" x="454" y="151.6245">end(): void</text><ellipse cx="445" cy="161.2188" fill="#84BE84" rx="3" ry="3" style="stroke: #038048; stroke-width: 1.0;"/><text fill="#000000" font-family="sans-serif" font-size="11" lengthAdjust="spacingAndGlyphs" textLength="83" x="454" y="164.4292">rollback(): void</text><ellipse cx="445" cy="174.0234" fill="#84BE84" rx="3" ry="3" style="stroke: #038048; stroke-width: 1.0;"/><text fill="#000000" font-family="sans-serif" font-size="11" lengthAdjust="spacingAndGlyphs" textLength="128" x="454" y="177.2339">setRollbackOnly(): void</text></a><!--MD5=[8e7b9a8e038870f343cd95c61bec87a5]
class com.ibm.fhir.persistence.helper.PersistenceHelper--><a href="PersistenceHelper.html" target="_top" title="PersistenceHelper.html" xlink:actuate="onRequest" xlink:href="PersistenceHelper.html" xlink:show="new" xlink:title="PersistenceHelper.html" xlink:type="simple"><rect fill="#FEFECE" filter="url(#fk8hq9ww6prla)" height="86.4141" id="com.ibm.fhir.persistence.helper.PersistenceHelper" style="stroke: #A80036; stroke-width: 1.5;" width="361" x="37.5" y="78.5"/><ellipse cx="157.75" cy="94.5" fill="#B4A7E5" rx="11" ry="11" style="stroke: #A80036; stroke-width: 1.0;"/><path d="M153.6719,90.2656 L153.6719,88.1094 L161.0625,88.1094 L161.0625,90.2656 L158.5938,90.2656 L158.5938,98.3438 L161.0625,98.3438 L161.0625,100.5 L153.6719,100.5 L153.6719,98.3438 L156.1406,98.3438 L156.1406,90.2656 L153.6719,90.2656 Z "/><text fill="#000000" font-family="sans-serif" font-size="12" font-style="italic" lengthAdjust="spacingAndGlyphs" textLength="112" x="178.25" y="98.6543">PersistenceHelper</text><line style="stroke: #A80036; stroke-width: 1.5;" x1="38.5" x2="397.5" y1="110.5" y2="110.5"/><line style="stroke: #A80036; stroke-width: 1.5;" x1="38.5" x2="397.5" y1="118.5" y2="118.5"/><ellipse cx="48.5" cy="129.5" fill="#84BE84" rx="3" ry="3" style="stroke: #038048; stroke-width: 1.0;"/><text fill="#000000" font-family="sans-serif" font-size="11" font-style="italic" lengthAdjust="spacingAndGlyphs" textLength="302" x="57.5" y="132.7104">getFHIRPersistenceImplementation(): FHIRPersistence</text><ellipse cx="48.5" cy="142.3047" fill="#84BE84" rx="3" ry="3" style="stroke: #038048; stroke-width: 1.0;"/><text fill="#000000" font-family="sans-serif" font-size="11" font-style="italic" lengthAdjust="spacingAndGlyphs" textLength="335" x="57.5" y="145.5151">getFHIRPersistenceImplementation(String): FHIRPersistence</text><ellipse cx="48.5" cy="155.1094" fill="#84BE84" rx="3" ry="3" style="stroke: #038048; stroke-width: 1.0;"/><text fill="#000000" font-family="sans-serif" font-size="11" lengthAdjust="spacingAndGlyphs" textLength="311" x="57.5" y="158.3198">isValidFHIRPersistenceImplementation(String): boolean</text></a><!--MD5=[a8289d1982d720ee5990f0d58dd21e7c]
reverse link com.ibm.fhir.persistence.helper.PersistenceHelper to com.ibm.fhir.persistence.helper.FHIRPersistenceHelper--><path d="M218.73,184.74 C218.96,204.19 219.21,225.35 219.43,243.74 " fill="none" id="com.ibm.fhir.persistence.helper.PersistenceHelper&lt;-com.ibm.fhir.persistence.helper.FHIRPersistenceHelper" style="stroke: #A80036; stroke-width: 1.0; stroke-dasharray: 7.0,7.0;"/><polygon fill="none" points="211.73,184.6,218.49,164.52,225.73,184.44,211.73,184.6" style="stroke: #A80036; stroke-width: 1.0;"/><text fill="#888888" font-family="sans-serif" font-size="10" lengthAdjust="spacingAndGlyphs" textLength="186" x="309" y="394.2822">UMLDoclet 2.0.7, PlantUML 1.2019.12</text><!--MD5=[81826b85e223fe0547815136a9c46502]
@startuml
    namespace com.ibm.fhir.persistence.helper {

        class FHIRPersistenceHelper [[FHIRPersistenceHelper.html]] {
            #fhirConfig: PropertyGroup
            #retrieveFactoryClassName(String): String
            +getFHIRPersistenceImplementation(): FHIRPersistence
            +getFHIRPersistenceImplementation(String): FHIRPersistence
        }

        class FHIRTransactionHelper [[FHIRTransactionHelper.html]] {
            +FHIRTransactionHelper(FHIRPersistenceTransaction)
            +begin(): void
            +commit(): void
            +end(): void
            +rollback(): void
            +setRollbackOnly(): void
        }

        interface PersistenceHelper [[PersistenceHelper.html]] {
            {abstract} +getFHIRPersistenceImplementation(): FHIRPersistence
            {abstract} +getFHIRPersistenceImplementation(String): FHIRPersistence
            +isValidFHIRPersistenceImplementation(String): boolean
        }

        PersistenceHelper <|.. FHIRPersistenceHelper
    }

    center footer UMLDoclet 2.0.7, PlantUML 1.2019.12
@enduml

PlantUML version 1.2019.12(Sun Nov 03 10:24:54 UTC 2019)
(APACHE source distribution)
Java Runtime: OpenJDK Runtime Environment
JVM: OpenJDK 64-Bit Server VM
Java Version: 11.0.10+9
Operating System: Linux
Default Encoding: UTF-8
Language: en
Country: null
--></g></svg>