<?xml version="1.0" encoding="UTF-8" standalone="no"?><svg xmlns="http://www.w3.org/2000/svg" xmlns:xlink="http://www.w3.org/1999/xlink" contentScriptType="application/ecmascript" contentStyleType="text/css" height="469px" preserveAspectRatio="none" style="width:662px;height:469px;" version="1.1" viewBox="0 0 662 469" width="662px" zoomAndPan="magnify"><defs><filter height="300%" id="f6bo7mkrkccth" width="300%" x="-1" y="-1"><feGaussianBlur result="blurOut" stdDeviation="2.0"/><feColorMatrix in="blurOut" result="blurOut2" type="matrix" values="0 0 0 0 0 0 0 0 0 0 0 0 0 0 0 0 0 0 .4 0"/><feOffset dx="4.0" dy="4.0" in="blurOut2" result="blurOut3"/><feBlend in="SourceGraphic" in2="blurOut3" mode="normal"/></filter></defs><g><!--MD5=[d5d309bdd91b7859f02b4cb7464846bc]
class com.ibm.fhir.model.resource.ClaimResponse.AddItem.Detail--><a href="ClaimResponse.AddItem.Detail.html" target="_top" title="ClaimResponse.AddItem.Detail.html" xlink:actuate="onRequest" xlink:href="ClaimResponse.AddItem.Detail.html" xlink:show="new" xlink:title="ClaimResponse.AddItem.Detail.html" xlink:type="simple"><rect fill="#FEFECE" filter="url(#f6bo7mkrkccth)" height="212.3984" id="com.ibm.fhir.model.resource.ClaimResponse.AddItem.Detail" style="stroke: #A80036; stroke-width: 1.5;" width="258" x="195" y="127"/><ellipse cx="216.3" cy="145.9688" fill="#ADD1B2" rx="11" ry="11" style="stroke: #A80036; stroke-width: 1.0;"/><path d="M219.2688,151.6094 Q218.6906,151.9063 218.05,152.0469 Q217.4094,152.2031 216.7063,152.2031 Q214.2063,152.2031 212.8781,150.5625 Q211.5656,148.9063 211.5656,145.7813 Q211.5656,142.6563 212.8781,141 Q214.2063,139.3438 216.7063,139.3438 Q217.4094,139.3438 218.05,139.5 Q218.7063,139.6563 219.2688,139.9531 L219.2688,142.6719 Q218.6438,142.0938 218.05,141.8281 Q217.4563,141.5469 216.8313,141.5469 Q215.4875,141.5469 214.8,142.625 Q214.1125,143.6875 214.1125,145.7813 Q214.1125,147.875 214.8,148.9531 Q215.4875,150.0156 216.8313,150.0156 Q217.4563,150.0156 218.05,149.75 Q218.6438,149.4688 219.2688,148.8906 L219.2688,151.6094 Z "/><text fill="#000000" font-family="sans-serif" font-size="14" lengthAdjust="spacingAndGlyphs" textLength="212" x="231.7" y="144.9951">ClaimResponse.AddItem.Detail</text><text fill="#000000" font-family="sans-serif" font-size="10" lengthAdjust="spacingAndGlyphs" textLength="139" x="268.2" y="157.5791">com.ibm.fhir.model.resource</text><line style="stroke: #A80036; stroke-width: 1.5;" x1="196" x2="452" y1="164.9375" y2="164.9375"/><ellipse cx="206" cy="175.9375" fill="#84BE84" rx="3" ry="3" style="stroke: #038048; stroke-width: 1.0;"/><text fill="#000000" font-family="sans-serif" font-size="11" lengthAdjust="spacingAndGlyphs" textLength="232" x="215" y="179.1479">getProductOrService(): CodeableConcept</text><ellipse cx="206" cy="188.7422" fill="#84BE84" rx="3" ry="3" style="stroke: #038048; stroke-width: 1.0;"/><text fill="#000000" font-family="sans-serif" font-size="11" lengthAdjust="spacingAndGlyphs" textLength="216" x="215" y="191.9526">getModifier(): List&lt;CodeableConcept&gt;</text><ellipse cx="206" cy="201.5469" fill="#84BE84" rx="3" ry="3" style="stroke: #038048; stroke-width: 1.0;"/><text fill="#000000" font-family="sans-serif" font-size="11" lengthAdjust="spacingAndGlyphs" textLength="167" x="215" y="204.7573">getQuantity(): SimpleQuantity</text><ellipse cx="206" cy="214.3516" fill="#84BE84" rx="3" ry="3" style="stroke: #038048; stroke-width: 1.0;"/><text fill="#000000" font-family="sans-serif" font-size="11" lengthAdjust="spacingAndGlyphs" textLength="120" x="215" y="217.562">getUnitPrice(): Money</text><ellipse cx="206" cy="227.1563" fill="#84BE84" rx="3" ry="3" style="stroke: #038048; stroke-width: 1.0;"/><text fill="#000000" font-family="sans-serif" font-size="11" lengthAdjust="spacingAndGlyphs" textLength="114" x="215" y="230.3667">getFactor(): Decimal</text><ellipse cx="206" cy="239.9609" fill="#84BE84" rx="3" ry="3" style="stroke: #038048; stroke-width: 1.0;"/><text fill="#000000" font-family="sans-serif" font-size="11" lengthAdjust="spacingAndGlyphs" textLength="89" x="215" y="243.1714">getNet(): Money</text><ellipse cx="206" cy="252.7656" fill="#84BE84" rx="3" ry="3" style="stroke: #038048; stroke-width: 1.0;"/><text fill="#000000" font-family="sans-serif" font-size="11" lengthAdjust="spacingAndGlyphs" textLength="201" x="215" y="255.9761">getNoteNumber(): List&lt;PositiveInt&gt;</text><ellipse cx="206" cy="265.5703" fill="#84BE84" rx="3" ry="3" style="stroke: #038048; stroke-width: 1.0;"/><text fill="#000000" font-family="sans-serif" font-size="11" lengthAdjust="spacingAndGlyphs" textLength="208" x="215" y="268.7808">getAdjudication(): List&lt;Adjudication&gt;</text><ellipse cx="206" cy="278.375" fill="#84BE84" rx="3" ry="3" style="stroke: #038048; stroke-width: 1.0;"/><text fill="#000000" font-family="sans-serif" font-size="11" lengthAdjust="spacingAndGlyphs" textLength="180" x="215" y="281.5854">getSubDetail(): List&lt;SubDetail&gt;</text><ellipse cx="206" cy="291.1797" fill="#84BE84" rx="3" ry="3" style="stroke: #038048; stroke-width: 1.0;"/><text fill="#000000" font-family="sans-serif" font-size="11" lengthAdjust="spacingAndGlyphs" textLength="129" x="215" y="294.3901">hasChildren(): boolean</text><ellipse cx="206" cy="303.9844" fill="#84BE84" rx="3" ry="3" style="stroke: #038048; stroke-width: 1.0;"/><text fill="#000000" font-family="sans-serif" font-size="11" lengthAdjust="spacingAndGlyphs" textLength="176" x="215" y="307.1948">accept(String, int, Visitor): void</text><ellipse cx="206" cy="316.7891" fill="#84BE84" rx="3" ry="3" style="stroke: #038048; stroke-width: 1.0;"/><text fill="#000000" font-family="sans-serif" font-size="11" lengthAdjust="spacingAndGlyphs" textLength="107" x="215" y="319.9995">toBuilder(): Builder</text><ellipse cx="206" cy="329.5938" fill="#84BE84" rx="3" ry="3" style="stroke: #038048; stroke-width: 1.0;"/><text fill="#000000" font-family="sans-serif" font-size="11" lengthAdjust="spacingAndGlyphs" text-decoration="underline" textLength="95" x="215" y="332.8042">builder(): Builder</text></a><!--MD5=[efbff6997283c56b83e991a8eeb6a60a]
class com.ibm.fhir.model.type.BackboneElement--><a href="../type/BackboneElement.html" target="_top" title="../type/BackboneElement.html" xlink:actuate="onRequest" xlink:href="../type/BackboneElement.html" xlink:show="new" xlink:title="../type/BackboneElement.html" xlink:type="simple"><rect fill="#FEFECE" filter="url(#f6bo7mkrkccth)" height="58.7422" id="com.ibm.fhir.model.type.BackboneElement" style="stroke: #A80036; stroke-width: 1.5;" width="159" x="137.5" y="8"/><ellipse cx="152.5" cy="26.9688" fill="#A9DCDF" rx="11" ry="11" style="stroke: #A80036; stroke-width: 1.0;"/><path d="M152.6094,22.3125 L151.4531,27.3906 L153.7813,27.3906 L152.6094,22.3125 Z M151.125,20.0781 L154.1094,20.0781 L157.4688,32.4688 L155.0156,32.4688 L154.25,29.4063 L150.9688,29.4063 L150.2188,32.4688 L147.7813,32.4688 L151.125,20.0781 Z "/><text fill="#000000" font-family="sans-serif" font-size="14" font-style="italic" lengthAdjust="spacingAndGlyphs" textLength="127" x="166.5" y="25.9951">BackboneElement</text><text fill="#000000" font-family="sans-serif" font-size="10" font-style="italic" lengthAdjust="spacingAndGlyphs" textLength="123" x="168.5" y="38.5791">com.ibm.fhir.model.type</text><line style="stroke: #A80036; stroke-width: 1.5;" x1="138.5" x2="295.5" y1="45.9375" y2="45.9375"/><ellipse cx="148.5" cy="56.9375" fill="#84BE84" rx="3" ry="3" style="stroke: #038048; stroke-width: 1.0;"/><text fill="#000000" font-family="sans-serif" font-size="11" font-style="italic" lengthAdjust="spacingAndGlyphs" textLength="107" x="157.5" y="60.1479">toBuilder(): Builder</text></a><!--MD5=[105a7d4052152c4e29b63b04f50383e2]
class com.ibm.fhir.model.resource.ClaimResponse.AddItem--><a href="ClaimResponse.AddItem.html" target="_top" title="ClaimResponse.AddItem.html" xlink:actuate="onRequest" xlink:href="ClaimResponse.AddItem.html" xlink:show="new" xlink:title="ClaimResponse.AddItem.html" xlink:type="simple"><rect fill="#FEFECE" filter="url(#f6bo7mkrkccth)" height="37.9375" id="com.ibm.fhir.model.resource.ClaimResponse.AddItem" style="stroke: #A80036; stroke-width: 1.5;" width="201" x="331.5" y="18.5"/><ellipse cx="346.5" cy="37.4688" fill="#ADD1B2" rx="11" ry="11" style="stroke: #A80036; stroke-width: 1.0;"/><path d="M349.4688,43.1094 Q348.8906,43.4063 348.25,43.5469 Q347.6094,43.7031 346.9063,43.7031 Q344.4063,43.7031 343.0781,42.0625 Q341.7656,40.4063 341.7656,37.2813 Q341.7656,34.1563 343.0781,32.5 Q344.4063,30.8438 346.9063,30.8438 Q347.6094,30.8438 348.25,31 Q348.9063,31.1563 349.4688,31.4531 L349.4688,34.1719 Q348.8438,33.5938 348.25,33.3281 Q347.6563,33.0469 347.0313,33.0469 Q345.6875,33.0469 345,34.125 Q344.3125,35.1875 344.3125,37.2813 Q344.3125,39.375 345,40.4531 Q345.6875,41.5156 347.0313,41.5156 Q347.6563,41.5156 348.25,41.25 Q348.8438,40.9688 349.4688,40.3906 L349.4688,43.1094 Z "/><text fill="#000000" font-family="sans-serif" font-size="14" lengthAdjust="spacingAndGlyphs" textLength="169" x="360.5" y="36.4951">ClaimResponse.AddItem</text><text fill="#000000" font-family="sans-serif" font-size="10" lengthAdjust="spacingAndGlyphs" textLength="139" x="375.5" y="49.0791">com.ibm.fhir.model.resource</text></a><!--MD5=[cc40100e659255f21c5d0f840b4f748e]
class com.ibm.fhir.model.resource.ClaimResponse.AddItem.Detail.Builder--><a href="ClaimResponse.AddItem.Detail.Builder.html" target="_top" title="ClaimResponse.AddItem.Detail.Builder.html" xlink:actuate="onRequest" xlink:href="ClaimResponse.AddItem.Detail.Builder.html" xlink:show="new" xlink:title="ClaimResponse.AddItem.Detail.Builder.html" xlink:type="simple"><rect fill="#FEFECE" filter="url(#f6bo7mkrkccth)" height="37.9375" id="com.ibm.fhir.model.resource.ClaimResponse.AddItem.Detail.Builder" style="stroke: #A80036; stroke-width: 1.5;" width="296" x="6" y="399"/><ellipse cx="21" cy="417.9688" fill="#ADD1B2" rx="11" ry="11" style="stroke: #A80036; stroke-width: 1.0;"/><path d="M23.9688,423.6094 Q23.3906,423.9063 22.75,424.0469 Q22.1094,424.2031 21.4063,424.2031 Q18.9063,424.2031 17.5781,422.5625 Q16.2656,420.9063 16.2656,417.7813 Q16.2656,414.6563 17.5781,413 Q18.9063,411.3438 21.4063,411.3438 Q22.1094,411.3438 22.75,411.5 Q23.4063,411.6563 23.9688,411.9531 L23.9688,414.6719 Q23.3438,414.0938 22.75,413.8281 Q22.1563,413.5469 21.5313,413.5469 Q20.1875,413.5469 19.5,414.625 Q18.8125,415.6875 18.8125,417.7813 Q18.8125,419.875 19.5,420.9531 Q20.1875,422.0156 21.5313,422.0156 Q22.1563,422.0156 22.75,421.75 Q23.3438,421.4688 23.9688,420.8906 L23.9688,423.6094 Z "/><text fill="#000000" font-family="sans-serif" font-size="14" lengthAdjust="spacingAndGlyphs" textLength="264" x="35" y="416.9951">ClaimResponse.AddItem.Detail.Builder</text><text fill="#000000" font-family="sans-serif" font-size="10" lengthAdjust="spacingAndGlyphs" textLength="139" x="97.5" y="429.5791">com.ibm.fhir.model.resource</text></a><!--MD5=[b0fd79354ab574dd4420df1def33f0d2]
class com.ibm.fhir.model.resource.ClaimResponse.AddItem.Detail.SubDetail--><a href="ClaimResponse.AddItem.Detail.SubDetail.html" target="_top" title="ClaimResponse.AddItem.Detail.SubDetail.html" xlink:actuate="onRequest" xlink:href="ClaimResponse.AddItem.Detail.SubDetail.html" xlink:show="new" xlink:title="ClaimResponse.AddItem.Detail.SubDetail.html" xlink:type="simple"><rect fill="#FEFECE" filter="url(#f6bo7mkrkccth)" height="37.9375" id="com.ibm.fhir.model.resource.ClaimResponse.AddItem.Detail.SubDetail" style="stroke: #A80036; stroke-width: 1.5;" width="314" x="337" y="399"/><ellipse cx="352" cy="417.9688" fill="#ADD1B2" rx="11" ry="11" style="stroke: #A80036; stroke-width: 1.0;"/><path d="M354.9688,423.6094 Q354.3906,423.9063 353.75,424.0469 Q353.1094,424.2031 352.4063,424.2031 Q349.9063,424.2031 348.5781,422.5625 Q347.2656,420.9063 347.2656,417.7813 Q347.2656,414.6563 348.5781,413 Q349.9063,411.3438 352.4063,411.3438 Q353.1094,411.3438 353.75,411.5 Q354.4063,411.6563 354.9688,411.9531 L354.9688,414.6719 Q354.3438,414.0938 353.75,413.8281 Q353.1563,413.5469 352.5313,413.5469 Q351.1875,413.5469 350.5,414.625 Q349.8125,415.6875 349.8125,417.7813 Q349.8125,419.875 350.5,420.9531 Q351.1875,422.0156 352.5313,422.0156 Q353.1563,422.0156 353.75,421.75 Q354.3438,421.4688 354.9688,420.8906 L354.9688,423.6094 Z "/><text fill="#000000" font-family="sans-serif" font-size="14" lengthAdjust="spacingAndGlyphs" textLength="282" x="366" y="416.9951">ClaimResponse.AddItem.Detail.SubDetail</text><text fill="#000000" font-family="sans-serif" font-size="10" lengthAdjust="spacingAndGlyphs" textLength="139" x="437.5" y="429.5791">com.ibm.fhir.model.resource</text></a><!--MD5=[939aa4941ba6e7f158b9d4bc80479413]
reverse link com.ibm.fhir.model.type.BackboneElement to com.ibm.fhir.model.resource.ClaimResponse.AddItem.Detail--><path d="M242.68,84.95 C249.72,97.67 257.64,112 265.71,126.59 " fill="none" id="com.ibm.fhir.model.type.BackboneElement&lt;-com.ibm.fhir.model.resource.ClaimResponse.AddItem.Detail" style="stroke: #A80036; stroke-width: 1.0;"/><polygon fill="none" points="236.34,87.94,232.79,67.05,248.59,81.17,236.34,87.94" style="stroke: #A80036; stroke-width: 1.0;"/><!--MD5=[91ed5527c3aba99a342fd82b9ae8bde2]
reverse link com.ibm.fhir.model.resource.ClaimResponse.AddItem to com.ibm.fhir.model.resource.ClaimResponse.AddItem.Detail--><path d="M414.45,69.94 C405.59,85.82 394.26,106.11 382.65,126.91 " fill="none" id="com.ibm.fhir.model.resource.ClaimResponse.AddItem&lt;-com.ibm.fhir.model.resource.ClaimResponse.AddItem.Detail" style="stroke: #A80036; stroke-width: 1.0;"/><ellipse cx="417.94" cy="63.685" fill="#FFFFFF" rx="8" ry="8" style="stroke: #A80036; stroke-width: 1.0;"/><line style="stroke: #A80036; stroke-width: 1.0;" x1="414.04" x2="421.84" y1="70.67" y2="56.7"/><line style="stroke: #A80036; stroke-width: 1.0;" x1="410.955" x2="424.925" y1="59.785" y2="67.585"/><!--MD5=[c2135bdbe3c6605f3885cb0889c4b005]
reverse link com.ibm.fhir.model.resource.ClaimResponse.AddItem.Detail to com.ibm.fhir.model.resource.ClaimResponse.AddItem.Detail.Builder--><path d="M215.89,350.37 C198.38,369.22 182.29,386.55 170.9,398.8 " fill="none" id="com.ibm.fhir.model.resource.ClaimResponse.AddItem.Detail&lt;-com.ibm.fhir.model.resource.ClaimResponse.AddItem.Detail.Builder" style="stroke: #A80036; stroke-width: 1.0;"/><ellipse cx="220.8926" cy="344.9888" fill="#FFFFFF" rx="8" ry="8" style="stroke: #A80036; stroke-width: 1.0;"/><line style="stroke: #A80036; stroke-width: 1.0;" x1="215.4452" x2="226.34" y1="350.8476" y2="339.13"/><line style="stroke: #A80036; stroke-width: 1.0;" x1="215.0338" x2="226.7514" y1="339.5414" y2="350.4362"/><!--MD5=[774583b9718dabe0dbf89f153f8f0ae1]
reverse link com.ibm.fhir.model.resource.ClaimResponse.AddItem.Detail to com.ibm.fhir.model.resource.ClaimResponse.AddItem.Detail.SubDetail--><path d="M432.11,350.37 C449.62,369.22 465.71,386.55 477.1,398.8 " fill="none" id="com.ibm.fhir.model.resource.ClaimResponse.AddItem.Detail&lt;-com.ibm.fhir.model.resource.ClaimResponse.AddItem.Detail.SubDetail" style="stroke: #A80036; stroke-width: 1.0;"/><ellipse cx="427.1074" cy="344.9888" fill="#FFFFFF" rx="8" ry="8" style="stroke: #A80036; stroke-width: 1.0;"/><line style="stroke: #A80036; stroke-width: 1.0;" x1="432.5548" x2="421.66" y1="350.8476" y2="339.13"/><line style="stroke: #A80036; stroke-width: 1.0;" x1="421.2486" x2="432.9662" y1="350.4362" y2="339.5414"/><text fill="#888888" font-family="sans-serif" font-size="10" lengthAdjust="spacingAndGlyphs" textLength="186" x="241.5" y="456.2822">UMLDoclet 2.0.7, PlantUML 1.2019.12</text><!--MD5=[146904b991bfc2000127eb8823ccc0f9]
@startuml
    set namespaceSeparator none
    hide empty fields
    hide empty methods

    class "<size:14>ClaimResponse.AddItem.Detail\n<size:10>com.ibm.fhir.model.resource" as com.ibm.fhir.model.resource.ClaimResponse.AddItem.Detail [[ClaimResponse.AddItem.Detail.html]] {
        +getProductOrService(): CodeableConcept
        +getModifier(): List<CodeableConcept>
        +getQuantity(): SimpleQuantity
        +getUnitPrice(): Money
        +getFactor(): Decimal
        +getNet(): Money
        +getNoteNumber(): List<PositiveInt>
        +getAdjudication(): List<Adjudication>
        +getSubDetail(): List<SubDetail>
        +hasChildren(): boolean
        +accept(String, int, Visitor): void
        +toBuilder(): Builder
        {static} +builder(): Builder
    }

    abstract class "<size:14>BackboneElement\n<size:10>com.ibm.fhir.model.type" as com.ibm.fhir.model.type.BackboneElement [[../type/BackboneElement.html]] {
        {abstract} +toBuilder(): Builder
    }
    class "<size:14>ClaimResponse.AddItem\n<size:10>com.ibm.fhir.model.resource" as com.ibm.fhir.model.resource.ClaimResponse.AddItem [[ClaimResponse.AddItem.html]]
    class "<size:14>ClaimResponse.AddItem.Detail.Builder\n<size:10>com.ibm.fhir.model.resource" as com.ibm.fhir.model.resource.ClaimResponse.AddItem.Detail.Builder [[ClaimResponse.AddItem.Detail.Builder.html]]
    class "<size:14>ClaimResponse.AddItem.Detail.SubDetail\n<size:10>com.ibm.fhir.model.resource" as com.ibm.fhir.model.resource.ClaimResponse.AddItem.Detail.SubDetail [[ClaimResponse.AddItem.Detail.SubDetail.html]]

    com.ibm.fhir.model.type.BackboneElement <|- - com.ibm.fhir.model.resource.ClaimResponse.AddItem.Detail
    com.ibm.fhir.model.resource.ClaimResponse.AddItem +- - com.ibm.fhir.model.resource.ClaimResponse.AddItem.Detail
    com.ibm.fhir.model.resource.ClaimResponse.AddItem.Detail +- - com.ibm.fhir.model.resource.ClaimResponse.AddItem.Detail.Builder
    com.ibm.fhir.model.resource.ClaimResponse.AddItem.Detail +- - com.ibm.fhir.model.resource.ClaimResponse.AddItem.Detail.SubDetail

    center footer UMLDoclet 2.0.7, PlantUML 1.2019.12
@enduml

PlantUML version 1.2019.12(Sun Nov 03 10:24:54 UTC 2019)
(APACHE source distribution)
Java Runtime: OpenJDK Runtime Environment
JVM: OpenJDK 64-Bit Server VM
Java Version: 11.0.10+9
Operating System: Linux
Default Encoding: UTF-8
Language: en
Country: null
--></g></svg>