<?xml version="1.0" encoding="UTF-8" standalone="no"?><svg xmlns="http://www.w3.org/2000/svg" xmlns:xlink="http://www.w3.org/1999/xlink" contentScriptType="application/ecmascript" contentStyleType="text/css" height="346px" preserveAspectRatio="none" style="width:464px;height:346px;" version="1.1" viewBox="0 0 464 346" width="464px" zoomAndPan="magnify"><defs><filter height="300%" id="fja07ffqqn3jf" width="300%" x="-1" y="-1"><feGaussianBlur result="blurOut" stdDeviation="2.0"/><feColorMatrix in="blurOut" result="blurOut2" type="matrix" values="0 0 0 0 0 0 0 0 0 0 0 0 0 0 0 0 0 0 .4 0"/><feOffset dx="4.0" dy="4.0" in="blurOut2" result="blurOut3"/><feBlend in="SourceGraphic" in2="blurOut3" mode="normal"/></filter></defs><g><!--MD5=[5d72bfad4b6a057abdc9621bde473352]
class com.ibm.fhir.model.resource.DetectedIssue.Evidence.Builder--><a href="DetectedIssue.Evidence.Builder.html" target="_top" title="DetectedIssue.Evidence.Builder.html" xlink:actuate="onRequest" xlink:href="DetectedIssue.Evidence.Builder.html" xlink:show="new" xlink:title="DetectedIssue.Evidence.Builder.html" xlink:type="simple"><rect fill="#FEFECE" filter="url(#fja07ffqqn3jf)" height="186.7891" id="com.ibm.fhir.model.resource.DetectedIssue.Evidence.Builder" style="stroke: #A80036; stroke-width: 1.5;" width="312" x="75.5" y="127"/><ellipse cx="117.05" cy="145.9688" fill="#ADD1B2" rx="11" ry="11" style="stroke: #A80036; stroke-width: 1.0;"/><path d="M120.0188,151.6094 Q119.4406,151.9063 118.8,152.0469 Q118.1594,152.2031 117.4563,152.2031 Q114.9563,152.2031 113.6281,150.5625 Q112.3156,148.9063 112.3156,145.7813 Q112.3156,142.6563 113.6281,141 Q114.9563,139.3438 117.4563,139.3438 Q118.1594,139.3438 118.8,139.5 Q119.4563,139.6563 120.0188,139.9531 L120.0188,142.6719 Q119.3938,142.0938 118.8,141.8281 Q118.2063,141.5469 117.5813,141.5469 Q116.2375,141.5469 115.55,142.625 Q114.8625,143.6875 114.8625,145.7813 Q114.8625,147.875 115.55,148.9531 Q116.2375,150.0156 117.5813,150.0156 Q118.2063,150.0156 118.8,149.75 Q119.3938,149.4688 120.0188,148.8906 L120.0188,151.6094 Z "/><text fill="#000000" font-family="sans-serif" font-size="14" lengthAdjust="spacingAndGlyphs" textLength="221" x="136.95" y="144.9951">DetectedIssue.Evidence.Builder</text><text fill="#000000" font-family="sans-serif" font-size="10" lengthAdjust="spacingAndGlyphs" textLength="139" x="177.95" y="157.5791">com.ibm.fhir.model.resource</text><line style="stroke: #A80036; stroke-width: 1.5;" x1="76.5" x2="386.5" y1="164.9375" y2="164.9375"/><ellipse cx="86.5" cy="175.9375" fill="#84BE84" rx="3" ry="3" style="stroke: #038048; stroke-width: 1.0;"/><text fill="#000000" font-family="sans-serif" font-size="11" lengthAdjust="spacingAndGlyphs" textLength="100" x="95.5" y="179.1479">id(String): Builder</text><ellipse cx="86.5" cy="188.7422" fill="#84BE84" rx="3" ry="3" style="stroke: #038048; stroke-width: 1.0;"/><text fill="#000000" font-family="sans-serif" font-size="11" lengthAdjust="spacingAndGlyphs" textLength="178" x="95.5" y="191.9526">extension(Extension...): Builder</text><ellipse cx="86.5" cy="201.5469" fill="#84BE84" rx="3" ry="3" style="stroke: #038048; stroke-width: 1.0;"/><text fill="#000000" font-family="sans-serif" font-size="11" lengthAdjust="spacingAndGlyphs" textLength="239" x="95.5" y="204.7573">extension(Collection&lt;Extension&gt;): Builder</text><ellipse cx="86.5" cy="214.3516" fill="#84BE84" rx="3" ry="3" style="stroke: #038048; stroke-width: 1.0;"/><text fill="#000000" font-family="sans-serif" font-size="11" lengthAdjust="spacingAndGlyphs" textLength="225" x="95.5" y="217.562">modifierExtension(Extension...): Builder</text><ellipse cx="86.5" cy="227.1563" fill="#84BE84" rx="3" ry="3" style="stroke: #038048; stroke-width: 1.0;"/><text fill="#000000" font-family="sans-serif" font-size="11" lengthAdjust="spacingAndGlyphs" textLength="286" x="95.5" y="230.3667">modifierExtension(Collection&lt;Extension&gt;): Builder</text><ellipse cx="86.5" cy="239.9609" fill="#84BE84" rx="3" ry="3" style="stroke: #038048; stroke-width: 1.0;"/><text fill="#000000" font-family="sans-serif" font-size="11" lengthAdjust="spacingAndGlyphs" textLength="194" x="95.5" y="243.1714">code(CodeableConcept...): Builder</text><ellipse cx="86.5" cy="252.7656" fill="#84BE84" rx="3" ry="3" style="stroke: #038048; stroke-width: 1.0;"/><text fill="#000000" font-family="sans-serif" font-size="11" lengthAdjust="spacingAndGlyphs" textLength="255" x="95.5" y="255.9761">code(Collection&lt;CodeableConcept&gt;): Builder</text><ellipse cx="86.5" cy="265.5703" fill="#84BE84" rx="3" ry="3" style="stroke: #038048; stroke-width: 1.0;"/><text fill="#000000" font-family="sans-serif" font-size="11" lengthAdjust="spacingAndGlyphs" textLength="156" x="95.5" y="268.7808">detail(Reference...): Builder</text><ellipse cx="86.5" cy="278.375" fill="#84BE84" rx="3" ry="3" style="stroke: #038048; stroke-width: 1.0;"/><text fill="#000000" font-family="sans-serif" font-size="11" lengthAdjust="spacingAndGlyphs" textLength="217" x="95.5" y="281.5854">detail(Collection&lt;Reference&gt;): Builder</text><ellipse cx="86.5" cy="291.1797" fill="#84BE84" rx="3" ry="3" style="stroke: #038048; stroke-width: 1.0;"/><text fill="#000000" font-family="sans-serif" font-size="11" lengthAdjust="spacingAndGlyphs" textLength="93" x="95.5" y="294.3901">build(): Evidence</text><polygon fill="#FFFF44" points="86.5,298.9844,90.5,302.9844,86.5,306.9844,82.5,302.9844" style="stroke: #B38D22; stroke-width: 1.0;"/><text fill="#000000" font-family="sans-serif" font-size="11" lengthAdjust="spacingAndGlyphs" textLength="133" x="95.5" y="307.1948">from(Evidence): Builder</text></a><!--MD5=[b7b0ea86c8a299e1957933e33e561193]
class com.ibm.fhir.model.type.BackboneElement.Builder--><a href="../type/BackboneElement.Builder.html" target="_top" title="../type/BackboneElement.Builder.html" xlink:actuate="onRequest" xlink:href="../type/BackboneElement.Builder.html" xlink:show="new" xlink:title="../type/BackboneElement.Builder.html" xlink:type="simple"><rect fill="#FEFECE" filter="url(#fja07ffqqn3jf)" height="58.7422" id="com.ibm.fhir.model.type.BackboneElement.Builder" style="stroke: #A80036; stroke-width: 1.5;" width="211" x="6" y="8"/><ellipse cx="21" cy="26.9688" fill="#A9DCDF" rx="11" ry="11" style="stroke: #A80036; stroke-width: 1.0;"/><path d="M21.1094,22.3125 L19.9531,27.3906 L22.2813,27.3906 L21.1094,22.3125 Z M19.625,20.0781 L22.6094,20.0781 L25.9688,32.4688 L23.5156,32.4688 L22.75,29.4063 L19.4688,29.4063 L18.7188,32.4688 L16.2813,32.4688 L19.625,20.0781 Z "/><text fill="#000000" font-family="sans-serif" font-size="14" font-style="italic" lengthAdjust="spacingAndGlyphs" textLength="179" x="35" y="25.9951">BackboneElement.Builder</text><text fill="#000000" font-family="sans-serif" font-size="10" font-style="italic" lengthAdjust="spacingAndGlyphs" textLength="123" x="63" y="38.5791">com.ibm.fhir.model.type</text><line style="stroke: #A80036; stroke-width: 1.5;" x1="7" x2="216" y1="45.9375" y2="45.9375"/><ellipse cx="17" cy="56.9375" fill="#84BE84" rx="3" ry="3" style="stroke: #038048; stroke-width: 1.0;"/><text fill="#000000" font-family="sans-serif" font-size="11" font-style="italic" lengthAdjust="spacingAndGlyphs" textLength="144" x="26" y="60.1479">build(): BackboneElement</text></a><!--MD5=[3f0a36b2929d35fe20ce55bf2ee575e1]
class com.ibm.fhir.model.resource.DetectedIssue.Evidence--><a href="DetectedIssue.Evidence.html" target="_top" title="DetectedIssue.Evidence.html" xlink:actuate="onRequest" xlink:href="DetectedIssue.Evidence.html" xlink:show="new" xlink:title="DetectedIssue.Evidence.html" xlink:type="simple"><rect fill="#FEFECE" filter="url(#fja07ffqqn3jf)" height="37.9375" id="com.ibm.fhir.model.resource.DetectedIssue.Evidence" style="stroke: #A80036; stroke-width: 1.5;" width="201" x="252" y="18.5"/><ellipse cx="267" cy="37.4688" fill="#ADD1B2" rx="11" ry="11" style="stroke: #A80036; stroke-width: 1.0;"/><path d="M269.9688,43.1094 Q269.3906,43.4063 268.75,43.5469 Q268.1094,43.7031 267.4063,43.7031 Q264.9063,43.7031 263.5781,42.0625 Q262.2656,40.4063 262.2656,37.2813 Q262.2656,34.1563 263.5781,32.5 Q264.9063,30.8438 267.4063,30.8438 Q268.1094,30.8438 268.75,31 Q269.4063,31.1563 269.9688,31.4531 L269.9688,34.1719 Q269.3438,33.5938 268.75,33.3281 Q268.1563,33.0469 267.5313,33.0469 Q266.1875,33.0469 265.5,34.125 Q264.8125,35.1875 264.8125,37.2813 Q264.8125,39.375 265.5,40.4531 Q266.1875,41.5156 267.5313,41.5156 Q268.1563,41.5156 268.75,41.25 Q269.3438,40.9688 269.9688,40.3906 L269.9688,43.1094 Z "/><text fill="#000000" font-family="sans-serif" font-size="14" lengthAdjust="spacingAndGlyphs" textLength="169" x="281" y="36.4951">DetectedIssue.Evidence</text><text fill="#000000" font-family="sans-serif" font-size="10" lengthAdjust="spacingAndGlyphs" textLength="139" x="296" y="49.0791">com.ibm.fhir.model.resource</text></a><!--MD5=[500c7f7efe848000f16ee216f5261ebc]
reverse link com.ibm.fhir.model.type.BackboneElement.Builder to com.ibm.fhir.model.resource.DetectedIssue.Evidence.Builder--><path d="M141.58,83.86 C150.27,96.98 160.1,111.81 169.98,126.71 " fill="none" id="com.ibm.fhir.model.type.BackboneElement.Builder&lt;-com.ibm.fhir.model.resource.DetectedIssue.Evidence.Builder" style="stroke: #A80036; stroke-width: 1.0;"/><polygon fill="none" points="135.73,87.72,130.51,67.18,147.4,79.98,135.73,87.72" style="stroke: #A80036; stroke-width: 1.0;"/><!--MD5=[bd8d195b8a4a16caea183051595ea1e4]
reverse link com.ibm.fhir.model.resource.DetectedIssue.Evidence to com.ibm.fhir.model.resource.DetectedIssue.Evidence.Builder--><path d="M331.85,69.39 C321.08,85.5 307.28,106.14 293.39,126.92 " fill="none" id="com.ibm.fhir.model.resource.DetectedIssue.Evidence&lt;-com.ibm.fhir.model.resource.DetectedIssue.Evidence.Builder" style="stroke: #A80036; stroke-width: 1.0;"/><ellipse cx="336.0171" cy="63.1729" fill="#FFFFFF" rx="8" ry="8" style="stroke: #A80036; stroke-width: 1.0;"/><line style="stroke: #A80036; stroke-width: 1.0;" x1="331.5742" x2="340.46" y1="69.8258" y2="56.52"/><line style="stroke: #A80036; stroke-width: 1.0;" x1="329.3642" x2="342.67" y1="58.73" y2="67.6158"/><text fill="#888888" font-family="sans-serif" font-size="10" lengthAdjust="spacingAndGlyphs" textLength="186" x="142.5" y="333.2822">UMLDoclet 2.0.7, PlantUML 1.2019.12</text><!--MD5=[56ffe23fb365addf94f0e0d4a19230b8]
@startuml
    set namespaceSeparator none
    hide empty fields
    hide empty methods

    class "<size:14>DetectedIssue.Evidence.Builder\n<size:10>com.ibm.fhir.model.resource" as com.ibm.fhir.model.resource.DetectedIssue.Evidence.Builder [[DetectedIssue.Evidence.Builder.html]] {
        +id(String): Builder
        +extension(Extension...): Builder
        +extension(Collection<Extension>): Builder
        +modifierExtension(Extension...): Builder
        +modifierExtension(Collection<Extension>): Builder
        +code(CodeableConcept...): Builder
        +code(Collection<CodeableConcept>): Builder
        +detail(Reference...): Builder
        +detail(Collection<Reference>): Builder
        +build(): Evidence
        #from(Evidence): Builder
    }

    abstract class "<size:14>BackboneElement.Builder\n<size:10>com.ibm.fhir.model.type" as com.ibm.fhir.model.type.BackboneElement.Builder [[../type/BackboneElement.Builder.html]] {
        {abstract} +build(): BackboneElement
    }
    class "<size:14>DetectedIssue.Evidence\n<size:10>com.ibm.fhir.model.resource" as com.ibm.fhir.model.resource.DetectedIssue.Evidence [[DetectedIssue.Evidence.html]]

    com.ibm.fhir.model.type.BackboneElement.Builder <|- - com.ibm.fhir.model.resource.DetectedIssue.Evidence.Builder
    com.ibm.fhir.model.resource.DetectedIssue.Evidence +- - com.ibm.fhir.model.resource.DetectedIssue.Evidence.Builder

    center footer UMLDoclet 2.0.7, PlantUML 1.2019.12
@enduml

PlantUML version 1.2019.12(Sun Nov 03 10:24:54 UTC 2019)
(APACHE source distribution)
Java Runtime: OpenJDK Runtime Environment
JVM: OpenJDK 64-Bit Server VM
Java Version: 11.0.10+9
Operating System: Linux
Default Encoding: UTF-8
Language: en
Country: null
--></g></svg>