<?xml version="1.0" encoding="UTF-8" standalone="no"?><svg xmlns="http://www.w3.org/2000/svg" xmlns:xlink="http://www.w3.org/1999/xlink" contentScriptType="application/ecmascript" contentStyleType="text/css" height="444px" preserveAspectRatio="none" style="width:382px;height:444px;" version="1.1" viewBox="0 0 382 444" width="382px" zoomAndPan="magnify"><defs><filter height="300%" id="f15a89gr7rud71" width="300%" x="-1" y="-1"><feGaussianBlur result="blurOut" stdDeviation="2.0"/><feColorMatrix in="blurOut" result="blurOut2" type="matrix" values="0 0 0 0 0 0 0 0 0 0 0 0 0 0 0 0 0 0 .4 0"/><feOffset dx="4.0" dy="4.0" in="blurOut2" result="blurOut3"/><feBlend in="SourceGraphic" in2="blurOut3" mode="normal"/></filter></defs><g><!--MD5=[db9fb6a8a8fe69ec49653cee0e796192]
class com.ibm.fhir.model.resource.EvidenceVariable.Characteristic--><a href="EvidenceVariable.Characteristic.html" target="_top" title="EvidenceVariable.Characteristic.html" xlink:actuate="onRequest" xlink:href="EvidenceVariable.Characteristic.html" xlink:show="new" xlink:title="EvidenceVariable.Characteristic.html" xlink:type="simple"><rect fill="#FEFECE" filter="url(#f15a89gr7rud71)" height="186.7891" id="com.ibm.fhir.model.resource.EvidenceVariable.Characteristic" style="stroke: #A80036; stroke-width: 1.5;" width="256" x="57.5" y="127"/><ellipse cx="76.55" cy="145.9688" fill="#ADD1B2" rx="11" ry="11" style="stroke: #A80036; stroke-width: 1.0;"/><path d="M79.5188,151.6094 Q78.9406,151.9063 78.3,152.0469 Q77.6594,152.2031 76.9563,152.2031 Q74.4563,152.2031 73.1281,150.5625 Q71.8156,148.9063 71.8156,145.7813 Q71.8156,142.6563 73.1281,141 Q74.4563,139.3438 76.9563,139.3438 Q77.6594,139.3438 78.3,139.5 Q78.9563,139.6563 79.5188,139.9531 L79.5188,142.6719 Q78.8938,142.0938 78.3,141.8281 Q77.7063,141.5469 77.0813,141.5469 Q75.7375,141.5469 75.05,142.625 Q74.3625,143.6875 74.3625,145.7813 Q74.3625,147.875 75.05,148.9531 Q75.7375,150.0156 77.0813,150.0156 Q77.7063,150.0156 78.3,149.75 Q78.8938,149.4688 79.5188,148.8906 L79.5188,151.6094 Z "/><text fill="#000000" font-family="sans-serif" font-size="14" lengthAdjust="spacingAndGlyphs" textLength="215" x="91.45" y="144.9951">EvidenceVariable.Characteristic</text><text fill="#000000" font-family="sans-serif" font-size="10" lengthAdjust="spacingAndGlyphs" textLength="139" x="129.45" y="157.5791">com.ibm.fhir.model.resource</text><line style="stroke: #A80036; stroke-width: 1.5;" x1="58.5" x2="312.5" y1="164.9375" y2="164.9375"/><ellipse cx="68.5" cy="175.9375" fill="#84BE84" rx="3" ry="3" style="stroke: #038048; stroke-width: 1.0;"/><text fill="#000000" font-family="sans-serif" font-size="11" lengthAdjust="spacingAndGlyphs" textLength="132" x="77.5" y="179.1479">getDescription(): String</text><ellipse cx="68.5" cy="188.7422" fill="#84BE84" rx="3" ry="3" style="stroke: #038048; stroke-width: 1.0;"/><text fill="#000000" font-family="sans-serif" font-size="11" lengthAdjust="spacingAndGlyphs" textLength="133" x="77.5" y="191.9526">getDefinition(): Element</text><ellipse cx="68.5" cy="201.5469" fill="#84BE84" rx="3" ry="3" style="stroke: #038048; stroke-width: 1.0;"/><text fill="#000000" font-family="sans-serif" font-size="11" lengthAdjust="spacingAndGlyphs" textLength="230" x="77.5" y="204.7573">getUsageContext(): List&lt;UsageContext&gt;</text><ellipse cx="68.5" cy="214.3516" fill="#84BE84" rx="3" ry="3" style="stroke: #038048; stroke-width: 1.0;"/><text fill="#000000" font-family="sans-serif" font-size="11" lengthAdjust="spacingAndGlyphs" textLength="123" x="77.5" y="217.562">getExclude(): Boolean</text><ellipse cx="68.5" cy="227.1563" fill="#84BE84" rx="3" ry="3" style="stroke: #038048; stroke-width: 1.0;"/><text fill="#000000" font-family="sans-serif" font-size="11" lengthAdjust="spacingAndGlyphs" textLength="188" x="77.5" y="230.3667">getParticipantEffective(): Element</text><ellipse cx="68.5" cy="239.9609" fill="#84BE84" rx="3" ry="3" style="stroke: #038048; stroke-width: 1.0;"/><text fill="#000000" font-family="sans-serif" font-size="11" lengthAdjust="spacingAndGlyphs" textLength="167" x="77.5" y="243.1714">getTimeFromStart(): Duration</text><ellipse cx="68.5" cy="252.7656" fill="#84BE84" rx="3" ry="3" style="stroke: #038048; stroke-width: 1.0;"/><text fill="#000000" font-family="sans-serif" font-size="11" lengthAdjust="spacingAndGlyphs" textLength="202" x="77.5" y="255.9761">getGroupMeasure(): GroupMeasure</text><ellipse cx="68.5" cy="265.5703" fill="#84BE84" rx="3" ry="3" style="stroke: #038048; stroke-width: 1.0;"/><text fill="#000000" font-family="sans-serif" font-size="11" lengthAdjust="spacingAndGlyphs" textLength="129" x="77.5" y="268.7808">hasChildren(): boolean</text><ellipse cx="68.5" cy="278.375" fill="#84BE84" rx="3" ry="3" style="stroke: #038048; stroke-width: 1.0;"/><text fill="#000000" font-family="sans-serif" font-size="11" lengthAdjust="spacingAndGlyphs" textLength="176" x="77.5" y="281.5854">accept(String, int, Visitor): void</text><ellipse cx="68.5" cy="291.1797" fill="#84BE84" rx="3" ry="3" style="stroke: #038048; stroke-width: 1.0;"/><text fill="#000000" font-family="sans-serif" font-size="11" lengthAdjust="spacingAndGlyphs" textLength="107" x="77.5" y="294.3901">toBuilder(): Builder</text><ellipse cx="68.5" cy="303.9844" fill="#84BE84" rx="3" ry="3" style="stroke: #038048; stroke-width: 1.0;"/><text fill="#000000" font-family="sans-serif" font-size="11" lengthAdjust="spacingAndGlyphs" text-decoration="underline" textLength="95" x="77.5" y="307.1948">builder(): Builder</text></a><!--MD5=[efbff6997283c56b83e991a8eeb6a60a]
class com.ibm.fhir.model.type.BackboneElement--><a href="../type/BackboneElement.html" target="_top" title="../type/BackboneElement.html" xlink:actuate="onRequest" xlink:href="../type/BackboneElement.html" xlink:show="new" xlink:title="../type/BackboneElement.html" xlink:type="simple"><rect fill="#FEFECE" filter="url(#f15a89gr7rud71)" height="58.7422" id="com.ibm.fhir.model.type.BackboneElement" style="stroke: #A80036; stroke-width: 1.5;" width="159" x="6" y="8"/><ellipse cx="21" cy="26.9688" fill="#A9DCDF" rx="11" ry="11" style="stroke: #A80036; stroke-width: 1.0;"/><path d="M21.1094,22.3125 L19.9531,27.3906 L22.2813,27.3906 L21.1094,22.3125 Z M19.625,20.0781 L22.6094,20.0781 L25.9688,32.4688 L23.5156,32.4688 L22.75,29.4063 L19.4688,29.4063 L18.7188,32.4688 L16.2813,32.4688 L19.625,20.0781 Z "/><text fill="#000000" font-family="sans-serif" font-size="14" font-style="italic" lengthAdjust="spacingAndGlyphs" textLength="127" x="35" y="25.9951">BackboneElement</text><text fill="#000000" font-family="sans-serif" font-size="10" font-style="italic" lengthAdjust="spacingAndGlyphs" textLength="123" x="37" y="38.5791">com.ibm.fhir.model.type</text><line style="stroke: #A80036; stroke-width: 1.5;" x1="7" x2="164" y1="45.9375" y2="45.9375"/><ellipse cx="17" cy="56.9375" fill="#84BE84" rx="3" ry="3" style="stroke: #038048; stroke-width: 1.0;"/><text fill="#000000" font-family="sans-serif" font-size="11" font-style="italic" lengthAdjust="spacingAndGlyphs" textLength="107" x="26" y="60.1479">toBuilder(): Builder</text></a><!--MD5=[57a2c767c2c79ec108647890eedf7f3b]
class com.ibm.fhir.model.resource.EvidenceVariable--><a href="EvidenceVariable.html" target="_top" title="EvidenceVariable.html" xlink:actuate="onRequest" xlink:href="EvidenceVariable.html" xlink:show="new" xlink:title="EvidenceVariable.html" xlink:type="simple"><rect fill="#FEFECE" filter="url(#f15a89gr7rud71)" height="37.9375" id="com.ibm.fhir.model.resource.EvidenceVariable" style="stroke: #A80036; stroke-width: 1.5;" width="171" x="200" y="18.5"/><ellipse cx="215" cy="37.4688" fill="#ADD1B2" rx="11" ry="11" style="stroke: #A80036; stroke-width: 1.0;"/><path d="M217.9688,43.1094 Q217.3906,43.4063 216.75,43.5469 Q216.1094,43.7031 215.4063,43.7031 Q212.9063,43.7031 211.5781,42.0625 Q210.2656,40.4063 210.2656,37.2813 Q210.2656,34.1563 211.5781,32.5 Q212.9063,30.8438 215.4063,30.8438 Q216.1094,30.8438 216.75,31 Q217.4063,31.1563 217.9688,31.4531 L217.9688,34.1719 Q217.3438,33.5938 216.75,33.3281 Q216.1563,33.0469 215.5313,33.0469 Q214.1875,33.0469 213.5,34.125 Q212.8125,35.1875 212.8125,37.2813 Q212.8125,39.375 213.5,40.4531 Q214.1875,41.5156 215.5313,41.5156 Q216.1563,41.5156 216.75,41.25 Q217.3438,40.9688 217.9688,40.3906 L217.9688,43.1094 Z "/><text fill="#000000" font-family="sans-serif" font-size="14" lengthAdjust="spacingAndGlyphs" textLength="117" x="240" y="36.4951">EvidenceVariable</text><text fill="#000000" font-family="sans-serif" font-size="10" lengthAdjust="spacingAndGlyphs" textLength="139" x="229" y="49.0791">com.ibm.fhir.model.resource</text></a><!--MD5=[49fd5657382d42cc224b75f816d75c69]
class com.ibm.fhir.model.resource.EvidenceVariable.Characteristic.Builder--><a href="EvidenceVariable.Characteristic.Builder.html" target="_top" title="EvidenceVariable.Characteristic.Builder.html" xlink:actuate="onRequest" xlink:href="EvidenceVariable.Characteristic.Builder.html" xlink:show="new" xlink:title="EvidenceVariable.Characteristic.Builder.html" xlink:type="simple"><rect fill="#FEFECE" filter="url(#f15a89gr7rud71)" height="37.9375" id="com.ibm.fhir.model.resource.EvidenceVariable.Characteristic.Builder" style="stroke: #A80036; stroke-width: 1.5;" width="299" x="36" y="374"/><ellipse cx="51" cy="392.9688" fill="#ADD1B2" rx="11" ry="11" style="stroke: #A80036; stroke-width: 1.0;"/><path d="M53.9688,398.6094 Q53.3906,398.9063 52.75,399.0469 Q52.1094,399.2031 51.4063,399.2031 Q48.9063,399.2031 47.5781,397.5625 Q46.2656,395.9063 46.2656,392.7813 Q46.2656,389.6563 47.5781,388 Q48.9063,386.3438 51.4063,386.3438 Q52.1094,386.3438 52.75,386.5 Q53.4063,386.6563 53.9688,386.9531 L53.9688,389.6719 Q53.3438,389.0938 52.75,388.8281 Q52.1563,388.5469 51.5313,388.5469 Q50.1875,388.5469 49.5,389.625 Q48.8125,390.6875 48.8125,392.7813 Q48.8125,394.875 49.5,395.9531 Q50.1875,397.0156 51.5313,397.0156 Q52.1563,397.0156 52.75,396.75 Q53.3438,396.4688 53.9688,395.8906 L53.9688,398.6094 Z "/><text fill="#000000" font-family="sans-serif" font-size="14" lengthAdjust="spacingAndGlyphs" textLength="267" x="65" y="391.9951">EvidenceVariable.Characteristic.Builder</text><text fill="#000000" font-family="sans-serif" font-size="10" lengthAdjust="spacingAndGlyphs" textLength="139" x="129" y="404.5791">com.ibm.fhir.model.resource</text></a><!--MD5=[47673fc3f6f47c75c7ee99a925877b48]
reverse link com.ibm.fhir.model.type.BackboneElement to com.ibm.fhir.model.resource.EvidenceVariable.Characteristic--><path d="M111.06,84.76 C118.18,97.66 126.19,112.14 134.23,126.71 " fill="none" id="com.ibm.fhir.model.type.BackboneElement&lt;-com.ibm.fhir.model.resource.EvidenceVariable.Characteristic" style="stroke: #A80036; stroke-width: 1.0;"/><polygon fill="none" points="104.89,88.07,101.35,67.18,117.14,81.3,104.89,88.07" style="stroke: #A80036; stroke-width: 1.0;"/><!--MD5=[1f8bb5009e0a23ee78808b9d3752e0fb]
reverse link com.ibm.fhir.model.resource.EvidenceVariable to com.ibm.fhir.model.resource.EvidenceVariable.Characteristic--><path d="M268.16,69.88 C259.3,85.91 248.02,106.35 236.65,126.92 " fill="none" id="com.ibm.fhir.model.resource.EvidenceVariable&lt;-com.ibm.fhir.model.resource.EvidenceVariable.Characteristic" style="stroke: #A80036; stroke-width: 1.0;"/><ellipse cx="271.6856" cy="63.5247" fill="#FFFFFF" rx="8" ry="8" style="stroke: #A80036; stroke-width: 1.0;"/><line style="stroke: #A80036; stroke-width: 1.0;" x1="267.8212" x2="275.55" y1="70.5295" y2="56.52"/><line style="stroke: #A80036; stroke-width: 1.0;" x1="264.6809" x2="278.6903" y1="59.6603" y2="67.3891"/><!--MD5=[21e5be068819c3c513feaa518866a07a]
reverse link com.ibm.fhir.model.resource.EvidenceVariable.Characteristic to com.ibm.fhir.model.resource.EvidenceVariable.Characteristic.Builder--><path d="M185.5,329.29 C185.5,346.51 185.5,362.42 185.5,373.9 " fill="none" id="com.ibm.fhir.model.resource.EvidenceVariable.Characteristic&lt;-com.ibm.fhir.model.resource.EvidenceVariable.Characteristic.Builder" style="stroke: #A80036; stroke-width: 1.0;"/><ellipse cx="185.5" cy="322.23" fill="#FFFFFF" rx="8" ry="8" style="stroke: #A80036; stroke-width: 1.0;"/><line style="stroke: #A80036; stroke-width: 1.0;" x1="185.5" x2="185.5" y1="330.23" y2="314.23"/><line style="stroke: #A80036; stroke-width: 1.0;" x1="177.5" x2="193.5" y1="322.23" y2="322.23"/><text fill="#888888" font-family="sans-serif" font-size="10" lengthAdjust="spacingAndGlyphs" textLength="186" x="101.5" y="431.2822">UMLDoclet 2.0.7, PlantUML 1.2019.12</text><!--MD5=[bc23435785b2a6a2d7ffeb88f4b6bab1]
@startuml
    set namespaceSeparator none
    hide empty fields
    hide empty methods

    class "<size:14>EvidenceVariable.Characteristic\n<size:10>com.ibm.fhir.model.resource" as com.ibm.fhir.model.resource.EvidenceVariable.Characteristic [[EvidenceVariable.Characteristic.html]] {
        +getDescription(): String
        +getDefinition(): Element
        +getUsageContext(): List<UsageContext>
        +getExclude(): Boolean
        +getParticipantEffective(): Element
        +getTimeFromStart(): Duration
        +getGroupMeasure(): GroupMeasure
        +hasChildren(): boolean
        +accept(String, int, Visitor): void
        +toBuilder(): Builder
        {static} +builder(): Builder
    }

    abstract class "<size:14>BackboneElement\n<size:10>com.ibm.fhir.model.type" as com.ibm.fhir.model.type.BackboneElement [[../type/BackboneElement.html]] {
        {abstract} +toBuilder(): Builder
    }
    class "<size:14>EvidenceVariable\n<size:10>com.ibm.fhir.model.resource" as com.ibm.fhir.model.resource.EvidenceVariable [[EvidenceVariable.html]]
    class "<size:14>EvidenceVariable.Characteristic.Builder\n<size:10>com.ibm.fhir.model.resource" as com.ibm.fhir.model.resource.EvidenceVariable.Characteristic.Builder [[EvidenceVariable.Characteristic.Builder.html]]

    com.ibm.fhir.model.type.BackboneElement <|- - com.ibm.fhir.model.resource.EvidenceVariable.Characteristic
    com.ibm.fhir.model.resource.EvidenceVariable +- - com.ibm.fhir.model.resource.EvidenceVariable.Characteristic
    com.ibm.fhir.model.resource.EvidenceVariable.Characteristic +- - com.ibm.fhir.model.resource.EvidenceVariable.Characteristic.Builder

    center footer UMLDoclet 2.0.7, PlantUML 1.2019.12
@enduml

PlantUML version 1.2019.12(Sun Nov 03 10:24:54 UTC 2019)
(APACHE source distribution)
Java Runtime: OpenJDK Runtime Environment
JVM: OpenJDK 64-Bit Server VM
Java Version: 11.0.10+9
Operating System: Linux
Default Encoding: UTF-8
Language: en
Country: null
--></g></svg>