<?xml version="1.0" encoding="UTF-8" standalone="no"?><svg xmlns="http://www.w3.org/2000/svg" xmlns:xlink="http://www.w3.org/1999/xlink" contentScriptType="application/ecmascript" contentStyleType="text/css" height="521px" preserveAspectRatio="none" style="width:925px;height:521px;" version="1.1" viewBox="0 0 925 521" width="925px" zoomAndPan="magnify"><defs><filter height="300%" id="fmjllabk3jxrr" width="300%" x="-1" y="-1"><feGaussianBlur result="blurOut" stdDeviation="2.0"/><feColorMatrix in="blurOut" result="blurOut2" type="matrix" values="0 0 0 0 0 0 0 0 0 0 0 0 0 0 0 0 0 0 .4 0"/><feOffset dx="4.0" dy="4.0" in="blurOut2" result="blurOut3"/><feBlend in="SourceGraphic" in2="blurOut3" mode="normal"/></filter></defs><g><!--MD5=[a3e8e97bd34e6e7509e5ba174d7bb799]
class com.ibm.fhir.model.resource.ObservationDefinition--><a href="ObservationDefinition.html" target="_top" title="ObservationDefinition.html" xlink:actuate="onRequest" xlink:href="ObservationDefinition.html" xlink:show="new" xlink:title="ObservationDefinition.html" xlink:type="simple"><rect fill="#FEFECE" filter="url(#fmjllabk3jxrr)" height="263.6172" id="com.ibm.fhir.model.resource.ObservationDefinition" style="stroke: #A80036; stroke-width: 1.5;" width="328" x="266" y="127"/><ellipse cx="351.75" cy="145.9688" fill="#ADD1B2" rx="11" ry="11" style="stroke: #A80036; stroke-width: 1.0;"/><path d="M354.7188,151.6094 Q354.1406,151.9063 353.5,152.0469 Q352.8594,152.2031 352.1563,152.2031 Q349.6563,152.2031 348.3281,150.5625 Q347.0156,148.9063 347.0156,145.7813 Q347.0156,142.6563 348.3281,141 Q349.6563,139.3438 352.1563,139.3438 Q352.8594,139.3438 353.5,139.5 Q354.1563,139.6563 354.7188,139.9531 L354.7188,142.6719 Q354.0938,142.0938 353.5,141.8281 Q352.9063,141.5469 352.2813,141.5469 Q350.9375,141.5469 350.25,142.625 Q349.5625,143.6875 349.5625,145.7813 Q349.5625,147.875 350.25,148.9531 Q350.9375,150.0156 352.2813,150.0156 Q352.9063,150.0156 353.5,149.75 Q354.0938,149.4688 354.7188,148.8906 L354.7188,151.6094 Z "/><text fill="#000000" font-family="sans-serif" font-size="14" lengthAdjust="spacingAndGlyphs" textLength="148" x="372.25" y="144.9951">ObservationDefinition</text><text fill="#000000" font-family="sans-serif" font-size="10" lengthAdjust="spacingAndGlyphs" textLength="139" x="376.75" y="157.5791">com.ibm.fhir.model.resource</text><line style="stroke: #A80036; stroke-width: 1.5;" x1="267" x2="593" y1="164.9375" y2="164.9375"/><ellipse cx="277" cy="175.9375" fill="#84BE84" rx="3" ry="3" style="stroke: #038048; stroke-width: 1.0;"/><text fill="#000000" font-family="sans-serif" font-size="11" lengthAdjust="spacingAndGlyphs" textLength="222" x="286" y="179.1479">getCategory(): List&lt;CodeableConcept&gt;</text><ellipse cx="277" cy="188.7422" fill="#84BE84" rx="3" ry="3" style="stroke: #038048; stroke-width: 1.0;"/><text fill="#000000" font-family="sans-serif" font-size="11" lengthAdjust="spacingAndGlyphs" textLength="162" x="286" y="191.9526">getCode(): CodeableConcept</text><ellipse cx="277" cy="201.5469" fill="#84BE84" rx="3" ry="3" style="stroke: #038048; stroke-width: 1.0;"/><text fill="#000000" font-family="sans-serif" font-size="11" lengthAdjust="spacingAndGlyphs" textLength="172" x="286" y="204.7573">getIdentifier(): List&lt;Identifier&gt;</text><ellipse cx="277" cy="214.3516" fill="#84BE84" rx="3" ry="3" style="stroke: #038048; stroke-width: 1.0;"/><text fill="#000000" font-family="sans-serif" font-size="11" lengthAdjust="spacingAndGlyphs" textLength="302" x="286" y="217.562">getPermittedDataType(): List&lt;ObservationDataType&gt;</text><ellipse cx="277" cy="227.1563" fill="#84BE84" rx="3" ry="3" style="stroke: #038048; stroke-width: 1.0;"/><text fill="#000000" font-family="sans-serif" font-size="11" lengthAdjust="spacingAndGlyphs" textLength="208" x="286" y="230.3667">getMultipleResultsAllowed(): Boolean</text><ellipse cx="277" cy="239.9609" fill="#84BE84" rx="3" ry="3" style="stroke: #038048; stroke-width: 1.0;"/><text fill="#000000" font-family="sans-serif" font-size="11" lengthAdjust="spacingAndGlyphs" textLength="174" x="286" y="243.1714">getMethod(): CodeableConcept</text><ellipse cx="277" cy="252.7656" fill="#84BE84" rx="3" ry="3" style="stroke: #038048; stroke-width: 1.0;"/><text fill="#000000" font-family="sans-serif" font-size="11" lengthAdjust="spacingAndGlyphs" textLength="192" x="286" y="255.9761">getPreferredReportName(): String</text><ellipse cx="277" cy="265.5703" fill="#84BE84" rx="3" ry="3" style="stroke: #038048; stroke-width: 1.0;"/><text fill="#000000" font-family="sans-serif" font-size="11" lengthAdjust="spacingAndGlyphs" textLength="248" x="286" y="268.7808">getQuantitativeDetails(): QuantitativeDetails</text><ellipse cx="277" cy="278.375" fill="#84BE84" rx="3" ry="3" style="stroke: #038048; stroke-width: 1.0;"/><text fill="#000000" font-family="sans-serif" font-size="11" lengthAdjust="spacingAndGlyphs" textLength="256" x="286" y="281.5854">getQualifiedInterval(): List&lt;QualifiedInterval&gt;</text><ellipse cx="277" cy="291.1797" fill="#84BE84" rx="3" ry="3" style="stroke: #038048; stroke-width: 1.0;"/><text fill="#000000" font-family="sans-serif" font-size="11" lengthAdjust="spacingAndGlyphs" textLength="204" x="286" y="294.3901">getValidCodedValueSet(): Reference</text><ellipse cx="277" cy="303.9844" fill="#84BE84" rx="3" ry="3" style="stroke: #038048; stroke-width: 1.0;"/><text fill="#000000" font-family="sans-serif" font-size="11" lengthAdjust="spacingAndGlyphs" textLength="218" x="286" y="307.1948">getNormalCodedValueSet(): Reference</text><ellipse cx="277" cy="316.7891" fill="#84BE84" rx="3" ry="3" style="stroke: #038048; stroke-width: 1.0;"/><text fill="#000000" font-family="sans-serif" font-size="11" lengthAdjust="spacingAndGlyphs" textLength="231" x="286" y="319.9995">getAbnormalCodedValueSet(): Reference</text><ellipse cx="277" cy="329.5938" fill="#84BE84" rx="3" ry="3" style="stroke: #038048; stroke-width: 1.0;"/><text fill="#000000" font-family="sans-serif" font-size="11" lengthAdjust="spacingAndGlyphs" textLength="216" x="286" y="332.8042">getCriticalCodedValueSet(): Reference</text><ellipse cx="277" cy="342.3984" fill="#84BE84" rx="3" ry="3" style="stroke: #038048; stroke-width: 1.0;"/><text fill="#000000" font-family="sans-serif" font-size="11" lengthAdjust="spacingAndGlyphs" textLength="129" x="286" y="345.6089">hasChildren(): boolean</text><ellipse cx="277" cy="355.2031" fill="#84BE84" rx="3" ry="3" style="stroke: #038048; stroke-width: 1.0;"/><text fill="#000000" font-family="sans-serif" font-size="11" lengthAdjust="spacingAndGlyphs" textLength="176" x="286" y="358.4136">accept(String, int, Visitor): void</text><ellipse cx="277" cy="368.0078" fill="#84BE84" rx="3" ry="3" style="stroke: #038048; stroke-width: 1.0;"/><text fill="#000000" font-family="sans-serif" font-size="11" lengthAdjust="spacingAndGlyphs" textLength="107" x="286" y="371.2183">toBuilder(): Builder</text><ellipse cx="277" cy="380.8125" fill="#84BE84" rx="3" ry="3" style="stroke: #038048; stroke-width: 1.0;"/><text fill="#000000" font-family="sans-serif" font-size="11" lengthAdjust="spacingAndGlyphs" text-decoration="underline" textLength="95" x="286" y="384.0229">builder(): Builder</text></a><!--MD5=[5a92b081cf79a7020013158c64ef85a4]
class com.ibm.fhir.model.resource.DomainResource--><a href="DomainResource.html" target="_top" title="DomainResource.html" xlink:actuate="onRequest" xlink:href="DomainResource.html" xlink:show="new" xlink:title="DomainResource.html" xlink:type="simple"><rect fill="#FEFECE" filter="url(#fmjllabk3jxrr)" height="58.7422" id="com.ibm.fhir.model.resource.DomainResource" style="stroke: #A80036; stroke-width: 1.5;" width="176" x="342" y="8"/><ellipse cx="357" cy="26.9688" fill="#A9DCDF" rx="11" ry="11" style="stroke: #A80036; stroke-width: 1.0;"/><path d="M357.1094,22.3125 L355.9531,27.3906 L358.2813,27.3906 L357.1094,22.3125 Z M355.625,20.0781 L358.6094,20.0781 L361.9688,32.4688 L359.5156,32.4688 L358.75,29.4063 L355.4688,29.4063 L354.7188,32.4688 L352.2813,32.4688 L355.625,20.0781 Z "/><text fill="#000000" font-family="sans-serif" font-size="14" font-style="italic" lengthAdjust="spacingAndGlyphs" textLength="119" x="383.5" y="25.9951">DomainResource</text><text fill="#000000" font-family="sans-serif" font-size="10" font-style="italic" lengthAdjust="spacingAndGlyphs" textLength="144" x="371" y="38.5791">com.ibm.fhir.model.resource</text><line style="stroke: #A80036; stroke-width: 1.5;" x1="343" x2="517" y1="45.9375" y2="45.9375"/><ellipse cx="353" cy="56.9375" fill="#84BE84" rx="3" ry="3" style="stroke: #038048; stroke-width: 1.0;"/><text fill="#000000" font-family="sans-serif" font-size="11" font-style="italic" lengthAdjust="spacingAndGlyphs" textLength="107" x="362" y="60.1479">toBuilder(): Builder</text></a><!--MD5=[d8db1ef400e2c9a31916ae365c2474bb]
class com.ibm.fhir.model.resource.ObservationDefinition.Builder--><a href="ObservationDefinition.Builder.html" target="_top" title="ObservationDefinition.Builder.html" xlink:actuate="onRequest" xlink:href="ObservationDefinition.Builder.html" xlink:show="new" xlink:title="ObservationDefinition.Builder.html" xlink:type="simple"><rect fill="#FEFECE" filter="url(#fmjllabk3jxrr)" height="37.9375" id="com.ibm.fhir.model.resource.ObservationDefinition.Builder" style="stroke: #A80036; stroke-width: 1.5;" width="232" x="6" y="451"/><ellipse cx="21" cy="469.9688" fill="#ADD1B2" rx="11" ry="11" style="stroke: #A80036; stroke-width: 1.0;"/><path d="M23.9688,475.6094 Q23.3906,475.9063 22.75,476.0469 Q22.1094,476.2031 21.4063,476.2031 Q18.9063,476.2031 17.5781,474.5625 Q16.2656,472.9063 16.2656,469.7813 Q16.2656,466.6563 17.5781,465 Q18.9063,463.3438 21.4063,463.3438 Q22.1094,463.3438 22.75,463.5 Q23.4063,463.6563 23.9688,463.9531 L23.9688,466.6719 Q23.3438,466.0938 22.75,465.8281 Q22.1563,465.5469 21.5313,465.5469 Q20.1875,465.5469 19.5,466.625 Q18.8125,467.6875 18.8125,469.7813 Q18.8125,471.875 19.5,472.9531 Q20.1875,474.0156 21.5313,474.0156 Q22.1563,474.0156 22.75,473.75 Q23.3438,473.4688 23.9688,472.8906 L23.9688,475.6094 Z "/><text fill="#000000" font-family="sans-serif" font-size="14" lengthAdjust="spacingAndGlyphs" textLength="200" x="35" y="468.9951">ObservationDefinition.Builder</text><text fill="#000000" font-family="sans-serif" font-size="10" lengthAdjust="spacingAndGlyphs" textLength="139" x="65.5" y="481.5791">com.ibm.fhir.model.resource</text></a><!--MD5=[8520c1fca71aa00e45db91096e397816]
class com.ibm.fhir.model.resource.ObservationDefinition.QuantitativeDetails--><a href="ObservationDefinition.QuantitativeDetails.html" target="_top" title="ObservationDefinition.QuantitativeDetails.html" xlink:actuate="onRequest" xlink:href="ObservationDefinition.QuantitativeDetails.html" xlink:show="new" xlink:title="ObservationDefinition.QuantitativeDetails.html" xlink:type="simple"><rect fill="#FEFECE" filter="url(#fmjllabk3jxrr)" height="37.9375" id="com.ibm.fhir.model.resource.ObservationDefinition.QuantitativeDetails" style="stroke: #A80036; stroke-width: 1.5;" width="313" x="273.5" y="451"/><ellipse cx="288.5" cy="469.9688" fill="#ADD1B2" rx="11" ry="11" style="stroke: #A80036; stroke-width: 1.0;"/><path d="M291.4688,475.6094 Q290.8906,475.9063 290.25,476.0469 Q289.6094,476.2031 288.9063,476.2031 Q286.4063,476.2031 285.0781,474.5625 Q283.7656,472.9063 283.7656,469.7813 Q283.7656,466.6563 285.0781,465 Q286.4063,463.3438 288.9063,463.3438 Q289.6094,463.3438 290.25,463.5 Q290.9063,463.6563 291.4688,463.9531 L291.4688,466.6719 Q290.8438,466.0938 290.25,465.8281 Q289.6563,465.5469 289.0313,465.5469 Q287.6875,465.5469 287,466.625 Q286.3125,467.6875 286.3125,469.7813 Q286.3125,471.875 287,472.9531 Q287.6875,474.0156 289.0313,474.0156 Q289.6563,474.0156 290.25,473.75 Q290.8438,473.4688 291.4688,472.8906 L291.4688,475.6094 Z "/><text fill="#000000" font-family="sans-serif" font-size="14" lengthAdjust="spacingAndGlyphs" textLength="281" x="302.5" y="468.9951">ObservationDefinition.QuantitativeDetails</text><text fill="#000000" font-family="sans-serif" font-size="10" lengthAdjust="spacingAndGlyphs" textLength="139" x="373.5" y="481.5791">com.ibm.fhir.model.resource</text></a><!--MD5=[413709c21d97bfc0310dab66b6a25a23]
class com.ibm.fhir.model.resource.ObservationDefinition.QualifiedInterval--><a href="ObservationDefinition.QualifiedInterval.html" target="_top" title="ObservationDefinition.QualifiedInterval.html" xlink:actuate="onRequest" xlink:href="ObservationDefinition.QualifiedInterval.html" xlink:show="new" xlink:title="ObservationDefinition.QualifiedInterval.html" xlink:type="simple"><rect fill="#FEFECE" filter="url(#fmjllabk3jxrr)" height="37.9375" id="com.ibm.fhir.model.resource.ObservationDefinition.QualifiedInterval" style="stroke: #A80036; stroke-width: 1.5;" width="292" x="622" y="451"/><ellipse cx="637" cy="469.9688" fill="#ADD1B2" rx="11" ry="11" style="stroke: #A80036; stroke-width: 1.0;"/><path d="M639.9688,475.6094 Q639.3906,475.9063 638.75,476.0469 Q638.1094,476.2031 637.4063,476.2031 Q634.9063,476.2031 633.5781,474.5625 Q632.2656,472.9063 632.2656,469.7813 Q632.2656,466.6563 633.5781,465 Q634.9063,463.3438 637.4063,463.3438 Q638.1094,463.3438 638.75,463.5 Q639.4063,463.6563 639.9688,463.9531 L639.9688,466.6719 Q639.3438,466.0938 638.75,465.8281 Q638.1563,465.5469 637.5313,465.5469 Q636.1875,465.5469 635.5,466.625 Q634.8125,467.6875 634.8125,469.7813 Q634.8125,471.875 635.5,472.9531 Q636.1875,474.0156 637.5313,474.0156 Q638.1563,474.0156 638.75,473.75 Q639.3438,473.4688 639.9688,472.8906 L639.9688,475.6094 Z "/><text fill="#000000" font-family="sans-serif" font-size="14" lengthAdjust="spacingAndGlyphs" textLength="260" x="651" y="468.9951">ObservationDefinition.QualifiedInterval</text><text fill="#000000" font-family="sans-serif" font-size="10" lengthAdjust="spacingAndGlyphs" textLength="139" x="711.5" y="481.5791">com.ibm.fhir.model.resource</text></a><!--MD5=[1eb8811f0797aaaeaadd42cf09023bee]
reverse link com.ibm.fhir.model.resource.DomainResource to com.ibm.fhir.model.resource.ObservationDefinition--><path d="M430,87.23 C430,99.35 430,112.92 430,126.98 " fill="none" id="com.ibm.fhir.model.resource.DomainResource&lt;-com.ibm.fhir.model.resource.ObservationDefinition" style="stroke: #A80036; stroke-width: 1.0;"/><polygon fill="none" points="423,87.2,430,67.2,437,87.2,423,87.2" style="stroke: #A80036; stroke-width: 1.0;"/><!--MD5=[8602449ecadbae2ef91b4dc273f99de4]
reverse link com.ibm.fhir.model.resource.ObservationDefinition to com.ibm.fhir.model.resource.ObservationDefinition.Builder--><path d="M253.12,380.03 C212.05,407.9 173.19,434.26 148.6,450.95 " fill="none" id="com.ibm.fhir.model.resource.ObservationDefinition&lt;-com.ibm.fhir.model.resource.ObservationDefinition.Builder" style="stroke: #A80036; stroke-width: 1.0;"/><ellipse cx="259.0137" cy="376.0372" fill="#FFFFFF" rx="8" ry="8" style="stroke: #A80036; stroke-width: 1.0;"/><line style="stroke: #A80036; stroke-width: 1.0;" x1="252.3975" x2="265.63" y1="380.5345" y2="371.54"/><line style="stroke: #A80036; stroke-width: 1.0;" x1="254.5165" x2="263.511" y1="369.421" y2="382.6535"/><!--MD5=[204c64fc97eb5a474b4968ceeda44b06]
reverse link com.ibm.fhir.model.resource.ObservationDefinition to com.ibm.fhir.model.resource.ObservationDefinition.QuantitativeDetails--><path d="M430,406.34 C430,423.93 430,439.63 430,450.91 " fill="none" id="com.ibm.fhir.model.resource.ObservationDefinition&lt;-com.ibm.fhir.model.resource.ObservationDefinition.QuantitativeDetails" style="stroke: #A80036; stroke-width: 1.0;"/><ellipse cx="430" cy="399.18" fill="#FFFFFF" rx="8" ry="8" style="stroke: #A80036; stroke-width: 1.0;"/><line style="stroke: #A80036; stroke-width: 1.0;" x1="430" x2="430" y1="407.18" y2="391.18"/><line style="stroke: #A80036; stroke-width: 1.0;" x1="422" x2="438" y1="399.18" y2="399.18"/><!--MD5=[715345f0f6724c5b7d33ad4436e4bda1]
reverse link com.ibm.fhir.model.resource.ObservationDefinition to com.ibm.fhir.model.resource.ObservationDefinition.QualifiedInterval--><path d="M607.06,369.48 C658.2,401.1 708.35,432.11 738.73,450.9 " fill="none" id="com.ibm.fhir.model.resource.ObservationDefinition&lt;-com.ibm.fhir.model.resource.ObservationDefinition.QualifiedInterval" style="stroke: #A80036; stroke-width: 1.0;"/><ellipse cx="600.8549" cy="365.6464" fill="#FFFFFF" rx="8" ry="8" style="stroke: #A80036; stroke-width: 1.0;"/><line style="stroke: #A80036; stroke-width: 1.0;" x1="607.6598" x2="594.05" y1="369.8528" y2="361.44"/><line style="stroke: #A80036; stroke-width: 1.0;" x1="596.6485" x2="605.0613" y1="372.4513" y2="358.8415"/><text fill="#888888" font-family="sans-serif" font-size="10" lengthAdjust="spacingAndGlyphs" textLength="186" x="373" y="508.2822">UMLDoclet 2.0.7, PlantUML 1.2019.12</text><!--MD5=[270060d8b032192d4bf1a6b781942ff0]
@startuml
    set namespaceSeparator none
    hide empty fields
    hide empty methods

    class "<size:14>ObservationDefinition\n<size:10>com.ibm.fhir.model.resource" as com.ibm.fhir.model.resource.ObservationDefinition [[ObservationDefinition.html]] {
        +getCategory(): List<CodeableConcept>
        +getCode(): CodeableConcept
        +getIdentifier(): List<Identifier>
        +getPermittedDataType(): List<ObservationDataType>
        +getMultipleResultsAllowed(): Boolean
        +getMethod(): CodeableConcept
        +getPreferredReportName(): String
        +getQuantitativeDetails(): QuantitativeDetails
        +getQualifiedInterval(): List<QualifiedInterval>
        +getValidCodedValueSet(): Reference
        +getNormalCodedValueSet(): Reference
        +getAbnormalCodedValueSet(): Reference
        +getCriticalCodedValueSet(): Reference
        +hasChildren(): boolean
        +accept(String, int, Visitor): void
        +toBuilder(): Builder
        {static} +builder(): Builder
    }

    abstract class "<size:14>DomainResource\n<size:10>com.ibm.fhir.model.resource" as com.ibm.fhir.model.resource.DomainResource [[DomainResource.html]] {
        {abstract} +toBuilder(): Builder
    }
    class "<size:14>ObservationDefinition.Builder\n<size:10>com.ibm.fhir.model.resource" as com.ibm.fhir.model.resource.ObservationDefinition.Builder [[ObservationDefinition.Builder.html]]
    class "<size:14>ObservationDefinition.QuantitativeDetails\n<size:10>com.ibm.fhir.model.resource" as com.ibm.fhir.model.resource.ObservationDefinition.QuantitativeDetails [[ObservationDefinition.QuantitativeDetails.html]]
    class "<size:14>ObservationDefinition.QualifiedInterval\n<size:10>com.ibm.fhir.model.resource" as com.ibm.fhir.model.resource.ObservationDefinition.QualifiedInterval [[ObservationDefinition.QualifiedInterval.html]]

    com.ibm.fhir.model.resource.DomainResource <|- - com.ibm.fhir.model.resource.ObservationDefinition
    com.ibm.fhir.model.resource.ObservationDefinition +- - com.ibm.fhir.model.resource.ObservationDefinition.Builder
    com.ibm.fhir.model.resource.ObservationDefinition +- - com.ibm.fhir.model.resource.ObservationDefinition.QuantitativeDetails
    com.ibm.fhir.model.resource.ObservationDefinition +- - com.ibm.fhir.model.resource.ObservationDefinition.QualifiedInterval

    center footer UMLDoclet 2.0.7, PlantUML 1.2019.12
@enduml

PlantUML version 1.2019.12(Sun Nov 03 10:24:54 UTC 2019)
(APACHE source distribution)
Java Runtime: OpenJDK Runtime Environment
JVM: OpenJDK 64-Bit Server VM
Java Version: 11.0.10+9
Operating System: Linux
Default Encoding: UTF-8
Language: en
Country: null
--></g></svg>