<?xml version="1.0" encoding="UTF-8" standalone="no"?><svg xmlns="http://www.w3.org/2000/svg" xmlns:xlink="http://www.w3.org/1999/xlink" contentScriptType="application/ecmascript" contentStyleType="text/css" height="751px" preserveAspectRatio="none" style="width:1180px;height:751px;" version="1.1" viewBox="0 0 1180 751" width="1180px" zoomAndPan="magnify"><defs><filter height="300%" id="f114aqgpwnkt6t" width="300%" x="-1" y="-1"><feGaussianBlur result="blurOut" stdDeviation="2.0"/><feColorMatrix in="blurOut" result="blurOut2" type="matrix" values="0 0 0 0 0 0 0 0 0 0 0 0 0 0 0 0 0 0 .4 0"/><feOffset dx="4.0" dy="4.0" in="blurOut2" result="blurOut3"/><feBlend in="SourceGraphic" in2="blurOut3" mode="normal"/></filter></defs><g><!--MD5=[78ca02031b31c77ba45ee21d55f30977]
class com.ibm.fhir.model.resource.RiskEvidenceSynthesis--><a href="RiskEvidenceSynthesis.html" target="_top" title="RiskEvidenceSynthesis.html" xlink:actuate="onRequest" xlink:href="RiskEvidenceSynthesis.html" xlink:show="new" xlink:title="RiskEvidenceSynthesis.html" xlink:type="simple"><rect fill="#FEFECE" filter="url(#f114aqgpwnkt6t)" height="494.1016" id="com.ibm.fhir.model.resource.RiskEvidenceSynthesis" style="stroke: #A80036; stroke-width: 1.5;" width="262" x="447.5" y="127"/><ellipse cx="494.75" cy="145.9688" fill="#ADD1B2" rx="11" ry="11" style="stroke: #A80036; stroke-width: 1.0;"/><path d="M497.7188,151.6094 Q497.1406,151.9063 496.5,152.0469 Q495.8594,152.2031 495.1563,152.2031 Q492.6563,152.2031 491.3281,150.5625 Q490.0156,148.9063 490.0156,145.7813 Q490.0156,142.6563 491.3281,141 Q492.6563,139.3438 495.1563,139.3438 Q495.8594,139.3438 496.5,139.5 Q497.1563,139.6563 497.7188,139.9531 L497.7188,142.6719 Q497.0938,142.0938 496.5,141.8281 Q495.9063,141.5469 495.2813,141.5469 Q493.9375,141.5469 493.25,142.625 Q492.5625,143.6875 492.5625,145.7813 Q492.5625,147.875 493.25,148.9531 Q493.9375,150.0156 495.2813,150.0156 Q495.9063,150.0156 496.5,149.75 Q497.0938,149.4688 497.7188,148.8906 L497.7188,151.6094 Z "/><text fill="#000000" font-family="sans-serif" font-size="14" lengthAdjust="spacingAndGlyphs" textLength="159" x="515.25" y="144.9951">RiskEvidenceSynthesis</text><text fill="#000000" font-family="sans-serif" font-size="10" lengthAdjust="spacingAndGlyphs" textLength="139" x="525.25" y="157.5791">com.ibm.fhir.model.resource</text><line style="stroke: #A80036; stroke-width: 1.5;" x1="448.5" x2="708.5" y1="164.9375" y2="164.9375"/><ellipse cx="458.5" cy="175.9375" fill="#84BE84" rx="3" ry="3" style="stroke: #038048; stroke-width: 1.0;"/><text fill="#000000" font-family="sans-serif" font-size="11" lengthAdjust="spacingAndGlyphs" textLength="66" x="467.5" y="179.1479">getUrl(): Uri</text><ellipse cx="458.5" cy="188.7422" fill="#84BE84" rx="3" ry="3" style="stroke: #038048; stroke-width: 1.0;"/><text fill="#000000" font-family="sans-serif" font-size="11" lengthAdjust="spacingAndGlyphs" textLength="172" x="467.5" y="191.9526">getIdentifier(): List&lt;Identifier&gt;</text><ellipse cx="458.5" cy="201.5469" fill="#84BE84" rx="3" ry="3" style="stroke: #038048; stroke-width: 1.0;"/><text fill="#000000" font-family="sans-serif" font-size="11" lengthAdjust="spacingAndGlyphs" textLength="111" x="467.5" y="204.7573">getVersion(): String</text><ellipse cx="458.5" cy="214.3516" fill="#84BE84" rx="3" ry="3" style="stroke: #038048; stroke-width: 1.0;"/><text fill="#000000" font-family="sans-serif" font-size="11" lengthAdjust="spacingAndGlyphs" textLength="101" x="467.5" y="217.562">getName(): String</text><ellipse cx="458.5" cy="227.1563" fill="#84BE84" rx="3" ry="3" style="stroke: #038048; stroke-width: 1.0;"/><text fill="#000000" font-family="sans-serif" font-size="11" lengthAdjust="spacingAndGlyphs" textLength="92" x="467.5" y="230.3667">getTitle(): String</text><ellipse cx="458.5" cy="239.9609" fill="#84BE84" rx="3" ry="3" style="stroke: #038048; stroke-width: 1.0;"/><text fill="#000000" font-family="sans-serif" font-size="11" lengthAdjust="spacingAndGlyphs" textLength="169" x="467.5" y="243.1714">getStatus(): PublicationStatus</text><ellipse cx="458.5" cy="252.7656" fill="#84BE84" rx="3" ry="3" style="stroke: #038048; stroke-width: 1.0;"/><text fill="#000000" font-family="sans-serif" font-size="11" lengthAdjust="spacingAndGlyphs" textLength="114" x="467.5" y="255.9761">getDate(): DateTime</text><ellipse cx="458.5" cy="265.5703" fill="#84BE84" rx="3" ry="3" style="stroke: #038048; stroke-width: 1.0;"/><text fill="#000000" font-family="sans-serif" font-size="11" lengthAdjust="spacingAndGlyphs" textLength="121" x="467.5" y="268.7808">getPublisher(): String</text><ellipse cx="458.5" cy="278.375" fill="#84BE84" rx="3" ry="3" style="stroke: #038048; stroke-width: 1.0;"/><text fill="#000000" font-family="sans-serif" font-size="11" lengthAdjust="spacingAndGlyphs" textLength="190" x="467.5" y="281.5854">getContact(): List&lt;ContactDetail&gt;</text><ellipse cx="458.5" cy="291.1797" fill="#84BE84" rx="3" ry="3" style="stroke: #038048; stroke-width: 1.0;"/><text fill="#000000" font-family="sans-serif" font-size="11" lengthAdjust="spacingAndGlyphs" textLength="155" x="467.5" y="294.3901">getDescription(): Markdown</text><ellipse cx="458.5" cy="303.9844" fill="#84BE84" rx="3" ry="3" style="stroke: #038048; stroke-width: 1.0;"/><text fill="#000000" font-family="sans-serif" font-size="11" lengthAdjust="spacingAndGlyphs" textLength="158" x="467.5" y="307.1948">getNote(): List&lt;Annotation&gt;</text><ellipse cx="458.5" cy="316.7891" fill="#84BE84" rx="3" ry="3" style="stroke: #038048; stroke-width: 1.0;"/><text fill="#000000" font-family="sans-serif" font-size="11" lengthAdjust="spacingAndGlyphs" textLength="216" x="467.5" y="319.9995">getUseContext(): List&lt;UsageContext&gt;</text><ellipse cx="458.5" cy="329.5938" fill="#84BE84" rx="3" ry="3" style="stroke: #038048; stroke-width: 1.0;"/><text fill="#000000" font-family="sans-serif" font-size="11" lengthAdjust="spacingAndGlyphs" textLength="233" x="467.5" y="332.8042">getJurisdiction(): List&lt;CodeableConcept&gt;</text><ellipse cx="458.5" cy="342.3984" fill="#84BE84" rx="3" ry="3" style="stroke: #038048; stroke-width: 1.0;"/><text fill="#000000" font-family="sans-serif" font-size="11" lengthAdjust="spacingAndGlyphs" textLength="145" x="467.5" y="345.6089">getCopyright(): Markdown</text><ellipse cx="458.5" cy="355.2031" fill="#84BE84" rx="3" ry="3" style="stroke: #038048; stroke-width: 1.0;"/><text fill="#000000" font-family="sans-serif" font-size="11" lengthAdjust="spacingAndGlyphs" textLength="135" x="467.5" y="358.4136">getApprovalDate(): Date</text><ellipse cx="458.5" cy="368.0078" fill="#84BE84" rx="3" ry="3" style="stroke: #038048; stroke-width: 1.0;"/><text fill="#000000" font-family="sans-serif" font-size="11" lengthAdjust="spacingAndGlyphs" textLength="149" x="467.5" y="371.2183">getLastReviewDate(): Date</text><ellipse cx="458.5" cy="380.8125" fill="#84BE84" rx="3" ry="3" style="stroke: #038048; stroke-width: 1.0;"/><text fill="#000000" font-family="sans-serif" font-size="11" lengthAdjust="spacingAndGlyphs" textLength="154" x="467.5" y="384.0229">getEffectivePeriod(): Period</text><ellipse cx="458.5" cy="393.6172" fill="#84BE84" rx="3" ry="3" style="stroke: #038048; stroke-width: 1.0;"/><text fill="#000000" font-family="sans-serif" font-size="11" lengthAdjust="spacingAndGlyphs" textLength="201" x="467.5" y="396.8276">getTopic(): List&lt;CodeableConcept&gt;</text><ellipse cx="458.5" cy="406.4219" fill="#84BE84" rx="3" ry="3" style="stroke: #038048; stroke-width: 1.0;"/><text fill="#000000" font-family="sans-serif" font-size="11" lengthAdjust="spacingAndGlyphs" textLength="184" x="467.5" y="409.6323">getAuthor(): List&lt;ContactDetail&gt;</text><ellipse cx="458.5" cy="419.2266" fill="#84BE84" rx="3" ry="3" style="stroke: #038048; stroke-width: 1.0;"/><text fill="#000000" font-family="sans-serif" font-size="11" lengthAdjust="spacingAndGlyphs" textLength="180" x="467.5" y="422.437">getEditor(): List&lt;ContactDetail&gt;</text><ellipse cx="458.5" cy="432.0313" fill="#84BE84" rx="3" ry="3" style="stroke: #038048; stroke-width: 1.0;"/><text fill="#000000" font-family="sans-serif" font-size="11" lengthAdjust="spacingAndGlyphs" textLength="198" x="467.5" y="435.2417">getReviewer(): List&lt;ContactDetail&gt;</text><ellipse cx="458.5" cy="444.8359" fill="#84BE84" rx="3" ry="3" style="stroke: #038048; stroke-width: 1.0;"/><text fill="#000000" font-family="sans-serif" font-size="11" lengthAdjust="spacingAndGlyphs" textLength="199" x="467.5" y="448.0464">getEndorser(): List&lt;ContactDetail&gt;</text><ellipse cx="458.5" cy="457.6406" fill="#84BE84" rx="3" ry="3" style="stroke: #038048; stroke-width: 1.0;"/><text fill="#000000" font-family="sans-serif" font-size="11" lengthAdjust="spacingAndGlyphs" textLength="236" x="467.5" y="460.8511">getRelatedArtifact(): List&lt;RelatedArtifact&gt;</text><ellipse cx="458.5" cy="470.4453" fill="#84BE84" rx="3" ry="3" style="stroke: #038048; stroke-width: 1.0;"/><text fill="#000000" font-family="sans-serif" font-size="11" lengthAdjust="spacingAndGlyphs" textLength="216" x="467.5" y="473.6558">getSynthesisType(): CodeableConcept</text><ellipse cx="458.5" cy="483.25" fill="#84BE84" rx="3" ry="3" style="stroke: #038048; stroke-width: 1.0;"/><text fill="#000000" font-family="sans-serif" font-size="11" lengthAdjust="spacingAndGlyphs" textLength="192" x="467.5" y="486.4604">getStudyType(): CodeableConcept</text><ellipse cx="458.5" cy="496.0547" fill="#84BE84" rx="3" ry="3" style="stroke: #038048; stroke-width: 1.0;"/><text fill="#000000" font-family="sans-serif" font-size="11" lengthAdjust="spacingAndGlyphs" textLength="150" x="467.5" y="499.2651">getPopulation(): Reference</text><ellipse cx="458.5" cy="508.8594" fill="#84BE84" rx="3" ry="3" style="stroke: #038048; stroke-width: 1.0;"/><text fill="#000000" font-family="sans-serif" font-size="11" lengthAdjust="spacingAndGlyphs" textLength="144" x="467.5" y="512.0698">getExposure(): Reference</text><ellipse cx="458.5" cy="521.6641" fill="#84BE84" rx="3" ry="3" style="stroke: #038048; stroke-width: 1.0;"/><text fill="#000000" font-family="sans-serif" font-size="11" lengthAdjust="spacingAndGlyphs" textLength="142" x="467.5" y="524.8745">getOutcome(): Reference</text><ellipse cx="458.5" cy="534.4688" fill="#84BE84" rx="3" ry="3" style="stroke: #038048; stroke-width: 1.0;"/><text fill="#000000" font-family="sans-serif" font-size="11" lengthAdjust="spacingAndGlyphs" textLength="166" x="467.5" y="537.6792">getSampleSize(): SampleSize</text><ellipse cx="458.5" cy="547.2734" fill="#84BE84" rx="3" ry="3" style="stroke: #038048; stroke-width: 1.0;"/><text fill="#000000" font-family="sans-serif" font-size="11" lengthAdjust="spacingAndGlyphs" textLength="180" x="467.5" y="550.4839">getRiskEstimate(): RiskEstimate</text><ellipse cx="458.5" cy="560.0781" fill="#84BE84" rx="3" ry="3" style="stroke: #038048; stroke-width: 1.0;"/><text fill="#000000" font-family="sans-serif" font-size="11" lengthAdjust="spacingAndGlyphs" textLength="174" x="467.5" y="563.2886">getCertainty(): List&lt;Certainty&gt;</text><ellipse cx="458.5" cy="572.8828" fill="#84BE84" rx="3" ry="3" style="stroke: #038048; stroke-width: 1.0;"/><text fill="#000000" font-family="sans-serif" font-size="11" lengthAdjust="spacingAndGlyphs" textLength="129" x="467.5" y="576.0933">hasChildren(): boolean</text><ellipse cx="458.5" cy="585.6875" fill="#84BE84" rx="3" ry="3" style="stroke: #038048; stroke-width: 1.0;"/><text fill="#000000" font-family="sans-serif" font-size="11" lengthAdjust="spacingAndGlyphs" textLength="176" x="467.5" y="588.8979">accept(String, int, Visitor): void</text><ellipse cx="458.5" cy="598.4922" fill="#84BE84" rx="3" ry="3" style="stroke: #038048; stroke-width: 1.0;"/><text fill="#000000" font-family="sans-serif" font-size="11" lengthAdjust="spacingAndGlyphs" textLength="107" x="467.5" y="601.7026">toBuilder(): Builder</text><ellipse cx="458.5" cy="611.2969" fill="#84BE84" rx="3" ry="3" style="stroke: #038048; stroke-width: 1.0;"/><text fill="#000000" font-family="sans-serif" font-size="11" lengthAdjust="spacingAndGlyphs" text-decoration="underline" textLength="95" x="467.5" y="614.5073">builder(): Builder</text></a><!--MD5=[5a92b081cf79a7020013158c64ef85a4]
class com.ibm.fhir.model.resource.DomainResource--><a href="DomainResource.html" target="_top" title="DomainResource.html" xlink:actuate="onRequest" xlink:href="DomainResource.html" xlink:show="new" xlink:title="DomainResource.html" xlink:type="simple"><rect fill="#FEFECE" filter="url(#f114aqgpwnkt6t)" height="58.7422" id="com.ibm.fhir.model.resource.DomainResource" style="stroke: #A80036; stroke-width: 1.5;" width="176" x="490.5" y="8"/><ellipse cx="505.5" cy="26.9688" fill="#A9DCDF" rx="11" ry="11" style="stroke: #A80036; stroke-width: 1.0;"/><path d="M505.6094,22.3125 L504.4531,27.3906 L506.7813,27.3906 L505.6094,22.3125 Z M504.125,20.0781 L507.1094,20.0781 L510.4688,32.4688 L508.0156,32.4688 L507.25,29.4063 L503.9688,29.4063 L503.2188,32.4688 L500.7813,32.4688 L504.125,20.0781 Z "/><text fill="#000000" font-family="sans-serif" font-size="14" font-style="italic" lengthAdjust="spacingAndGlyphs" textLength="119" x="532" y="25.9951">DomainResource</text><text fill="#000000" font-family="sans-serif" font-size="10" font-style="italic" lengthAdjust="spacingAndGlyphs" textLength="144" x="519.5" y="38.5791">com.ibm.fhir.model.resource</text><line style="stroke: #A80036; stroke-width: 1.5;" x1="491.5" x2="665.5" y1="45.9375" y2="45.9375"/><ellipse cx="501.5" cy="56.9375" fill="#84BE84" rx="3" ry="3" style="stroke: #038048; stroke-width: 1.0;"/><text fill="#000000" font-family="sans-serif" font-size="11" font-style="italic" lengthAdjust="spacingAndGlyphs" textLength="107" x="510.5" y="60.1479">toBuilder(): Builder</text></a><!--MD5=[ce1caeb7b046ce03c7313e00f6ea041f]
class com.ibm.fhir.model.resource.RiskEvidenceSynthesis.Builder--><a href="RiskEvidenceSynthesis.Builder.html" target="_top" title="RiskEvidenceSynthesis.Builder.html" xlink:actuate="onRequest" xlink:href="RiskEvidenceSynthesis.Builder.html" xlink:show="new" xlink:title="RiskEvidenceSynthesis.Builder.html" xlink:type="simple"><rect fill="#FEFECE" filter="url(#f114aqgpwnkt6t)" height="37.9375" id="com.ibm.fhir.model.resource.RiskEvidenceSynthesis.Builder" style="stroke: #A80036; stroke-width: 1.5;" width="243" x="6" y="681"/><ellipse cx="21" cy="699.9688" fill="#ADD1B2" rx="11" ry="11" style="stroke: #A80036; stroke-width: 1.0;"/><path d="M23.9688,705.6094 Q23.3906,705.9063 22.75,706.0469 Q22.1094,706.2031 21.4063,706.2031 Q18.9063,706.2031 17.5781,704.5625 Q16.2656,702.9063 16.2656,699.7813 Q16.2656,696.6563 17.5781,695 Q18.9063,693.3438 21.4063,693.3438 Q22.1094,693.3438 22.75,693.5 Q23.4063,693.6563 23.9688,693.9531 L23.9688,696.6719 Q23.3438,696.0938 22.75,695.8281 Q22.1563,695.5469 21.5313,695.5469 Q20.1875,695.5469 19.5,696.625 Q18.8125,697.6875 18.8125,699.7813 Q18.8125,701.875 19.5,702.9531 Q20.1875,704.0156 21.5313,704.0156 Q22.1563,704.0156 22.75,703.75 Q23.3438,703.4688 23.9688,702.8906 L23.9688,705.6094 Z "/><text fill="#000000" font-family="sans-serif" font-size="14" lengthAdjust="spacingAndGlyphs" textLength="211" x="35" y="698.9951">RiskEvidenceSynthesis.Builder</text><text fill="#000000" font-family="sans-serif" font-size="10" lengthAdjust="spacingAndGlyphs" textLength="139" x="71" y="711.5791">com.ibm.fhir.model.resource</text></a><!--MD5=[22280a079c948c1332743bda0e353932]
class com.ibm.fhir.model.resource.RiskEvidenceSynthesis.SampleSize--><a href="RiskEvidenceSynthesis.SampleSize.html" target="_top" title="RiskEvidenceSynthesis.SampleSize.html" xlink:actuate="onRequest" xlink:href="RiskEvidenceSynthesis.SampleSize.html" xlink:show="new" xlink:title="RiskEvidenceSynthesis.SampleSize.html" xlink:type="simple"><rect fill="#FEFECE" filter="url(#f114aqgpwnkt6t)" height="37.9375" id="com.ibm.fhir.model.resource.RiskEvidenceSynthesis.SampleSize" style="stroke: #A80036; stroke-width: 1.5;" width="275" x="284" y="681"/><ellipse cx="299" cy="699.9688" fill="#ADD1B2" rx="11" ry="11" style="stroke: #A80036; stroke-width: 1.0;"/><path d="M301.9688,705.6094 Q301.3906,705.9063 300.75,706.0469 Q300.1094,706.2031 299.4063,706.2031 Q296.9063,706.2031 295.5781,704.5625 Q294.2656,702.9063 294.2656,699.7813 Q294.2656,696.6563 295.5781,695 Q296.9063,693.3438 299.4063,693.3438 Q300.1094,693.3438 300.75,693.5 Q301.4063,693.6563 301.9688,693.9531 L301.9688,696.6719 Q301.3438,696.0938 300.75,695.8281 Q300.1563,695.5469 299.5313,695.5469 Q298.1875,695.5469 297.5,696.625 Q296.8125,697.6875 296.8125,699.7813 Q296.8125,701.875 297.5,702.9531 Q298.1875,704.0156 299.5313,704.0156 Q300.1563,704.0156 300.75,703.75 Q301.3438,703.4688 301.9688,702.8906 L301.9688,705.6094 Z "/><text fill="#000000" font-family="sans-serif" font-size="14" lengthAdjust="spacingAndGlyphs" textLength="243" x="313" y="698.9951">RiskEvidenceSynthesis.SampleSize</text><text fill="#000000" font-family="sans-serif" font-size="10" lengthAdjust="spacingAndGlyphs" textLength="139" x="365" y="711.5791">com.ibm.fhir.model.resource</text></a><!--MD5=[f80e82c44f5253de6c828ab0c9adc994]
class com.ibm.fhir.model.resource.RiskEvidenceSynthesis.RiskEstimate--><a href="RiskEvidenceSynthesis.RiskEstimate.html" target="_top" title="RiskEvidenceSynthesis.RiskEstimate.html" xlink:actuate="onRequest" xlink:href="RiskEvidenceSynthesis.RiskEstimate.html" xlink:show="new" xlink:title="RiskEvidenceSynthesis.RiskEstimate.html" xlink:type="simple"><rect fill="#FEFECE" filter="url(#f114aqgpwnkt6t)" height="37.9375" id="com.ibm.fhir.model.resource.RiskEvidenceSynthesis.RiskEstimate" style="stroke: #A80036; stroke-width: 1.5;" width="284" x="594.5" y="681"/><ellipse cx="609.5" cy="699.9688" fill="#ADD1B2" rx="11" ry="11" style="stroke: #A80036; stroke-width: 1.0;"/><path d="M612.4688,705.6094 Q611.8906,705.9063 611.25,706.0469 Q610.6094,706.2031 609.9063,706.2031 Q607.4063,706.2031 606.0781,704.5625 Q604.7656,702.9063 604.7656,699.7813 Q604.7656,696.6563 606.0781,695 Q607.4063,693.3438 609.9063,693.3438 Q610.6094,693.3438 611.25,693.5 Q611.9063,693.6563 612.4688,693.9531 L612.4688,696.6719 Q611.8438,696.0938 611.25,695.8281 Q610.6563,695.5469 610.0313,695.5469 Q608.6875,695.5469 608,696.625 Q607.3125,697.6875 607.3125,699.7813 Q607.3125,701.875 608,702.9531 Q608.6875,704.0156 610.0313,704.0156 Q610.6563,704.0156 611.25,703.75 Q611.8438,703.4688 612.4688,702.8906 L612.4688,705.6094 Z "/><text fill="#000000" font-family="sans-serif" font-size="14" lengthAdjust="spacingAndGlyphs" textLength="252" x="623.5" y="698.9951">RiskEvidenceSynthesis.RiskEstimate</text><text fill="#000000" font-family="sans-serif" font-size="10" lengthAdjust="spacingAndGlyphs" textLength="139" x="680" y="711.5791">com.ibm.fhir.model.resource</text></a><!--MD5=[aa0d7760ff8ed84b615c7800546c40b6]
class com.ibm.fhir.model.resource.RiskEvidenceSynthesis.Certainty--><a href="RiskEvidenceSynthesis.Certainty.html" target="_top" title="RiskEvidenceSynthesis.Certainty.html" xlink:actuate="onRequest" xlink:href="RiskEvidenceSynthesis.Certainty.html" xlink:show="new" xlink:title="RiskEvidenceSynthesis.Certainty.html" xlink:type="simple"><rect fill="#FEFECE" filter="url(#f114aqgpwnkt6t)" height="37.9375" id="com.ibm.fhir.model.resource.RiskEvidenceSynthesis.Certainty" style="stroke: #A80036; stroke-width: 1.5;" width="256" x="913.5" y="681"/><ellipse cx="928.5" cy="699.9688" fill="#ADD1B2" rx="11" ry="11" style="stroke: #A80036; stroke-width: 1.0;"/><path d="M931.4688,705.6094 Q930.8906,705.9063 930.25,706.0469 Q929.6094,706.2031 928.9063,706.2031 Q926.4063,706.2031 925.0781,704.5625 Q923.7656,702.9063 923.7656,699.7813 Q923.7656,696.6563 925.0781,695 Q926.4063,693.3438 928.9063,693.3438 Q929.6094,693.3438 930.25,693.5 Q930.9063,693.6563 931.4688,693.9531 L931.4688,696.6719 Q930.8438,696.0938 930.25,695.8281 Q929.6563,695.5469 929.0313,695.5469 Q927.6875,695.5469 927,696.625 Q926.3125,697.6875 926.3125,699.7813 Q926.3125,701.875 927,702.9531 Q927.6875,704.0156 929.0313,704.0156 Q929.6563,704.0156 930.25,703.75 Q930.8438,703.4688 931.4688,702.8906 L931.4688,705.6094 Z "/><text fill="#000000" font-family="sans-serif" font-size="14" lengthAdjust="spacingAndGlyphs" textLength="224" x="942.5" y="698.9951">RiskEvidenceSynthesis.Certainty</text><text fill="#000000" font-family="sans-serif" font-size="10" lengthAdjust="spacingAndGlyphs" textLength="139" x="985" y="711.5791">com.ibm.fhir.model.resource</text></a><!--MD5=[1bfcb2753cfa15638d1f2cc6f7e7c2d3]
reverse link com.ibm.fhir.model.resource.DomainResource to com.ibm.fhir.model.resource.RiskEvidenceSynthesis--><path d="M578.5,87.43 C578.5,99.14 578.5,112.43 578.5,126.73 " fill="none" id="com.ibm.fhir.model.resource.DomainResource&lt;-com.ibm.fhir.model.resource.RiskEvidenceSynthesis" style="stroke: #A80036; stroke-width: 1.0;"/><polygon fill="none" points="571.5,87.02,578.5,67.02,585.5,87.02,571.5,87.02" style="stroke: #A80036; stroke-width: 1.0;"/><!--MD5=[4ff3f8a215505abde7e5198111d919a4]
reverse link com.ibm.fhir.model.resource.RiskEvidenceSynthesis to com.ibm.fhir.model.resource.RiskEvidenceSynthesis.Builder--><path d="M435.17,477.97 C333.44,551.05 205.86,642.71 152.63,680.95 " fill="none" id="com.ibm.fhir.model.resource.RiskEvidenceSynthesis&lt;-com.ibm.fhir.model.resource.RiskEvidenceSynthesis.Builder" style="stroke: #A80036; stroke-width: 1.0;"/><ellipse cx="440.9535" cy="473.8186" fill="#FFFFFF" rx="8" ry="8" style="stroke: #A80036; stroke-width: 1.0;"/><line style="stroke: #A80036; stroke-width: 1.0;" x1="434.4571" x2="447.45" y1="478.4872" y2="469.15"/><line style="stroke: #A80036; stroke-width: 1.0;" x1="436.2849" x2="445.6222" y1="467.3222" y2="480.3151"/><!--MD5=[bb6e032c7ff83672f1f34beb42accd7a]
reverse link com.ibm.fhir.model.resource.RiskEvidenceSynthesis to com.ibm.fhir.model.resource.RiskEvidenceSynthesis.SampleSize--><path d="M452.49,635.04 C443.49,653.63 435.82,669.46 430.36,680.72 " fill="none" id="com.ibm.fhir.model.resource.RiskEvidenceSynthesis&lt;-com.ibm.fhir.model.resource.RiskEvidenceSynthesis.SampleSize" style="stroke: #A80036; stroke-width: 1.0;"/><ellipse cx="455.6209" cy="628.5891" fill="#FFFFFF" rx="8" ry="8" style="stroke: #A80036; stroke-width: 1.0;"/><line style="stroke: #A80036; stroke-width: 1.0;" x1="452.1319" x2="459.11" y1="635.7881" y2="621.39"/><line style="stroke: #A80036; stroke-width: 1.0;" x1="448.4219" x2="462.82" y1="625.1" y2="632.0781"/><!--MD5=[6b88116f717f61b924b35322b791e8ef]
reverse link com.ibm.fhir.model.resource.RiskEvidenceSynthesis to com.ibm.fhir.model.resource.RiskEvidenceSynthesis.RiskEstimate--><path d="M705.31,635.04 C714.37,653.63 722.09,669.46 727.58,680.72 " fill="none" id="com.ibm.fhir.model.resource.RiskEvidenceSynthesis&lt;-com.ibm.fhir.model.resource.RiskEvidenceSynthesis.RiskEstimate" style="stroke: #A80036; stroke-width: 1.0;"/><ellipse cx="702.1644" cy="628.5816" fill="#FFFFFF" rx="8" ry="8" style="stroke: #A80036; stroke-width: 1.0;"/><line style="stroke: #A80036; stroke-width: 1.0;" x1="705.6688" x2="698.66" y1="635.7732" y2="621.39"/><line style="stroke: #A80036; stroke-width: 1.0;" x1="694.9728" x2="709.356" y1="632.086" y2="625.0772"/><!--MD5=[3fc8fc2bd20756de0248440f621c4f19]
reverse link com.ibm.fhir.model.resource.RiskEvidenceSynthesis to com.ibm.fhir.model.resource.RiskEvidenceSynthesis.Certainty--><path d="M721.97,475.4 C827,548.9 960.46,642.29 1015.73,680.97 " fill="none" id="com.ibm.fhir.model.resource.RiskEvidenceSynthesis&lt;-com.ibm.fhir.model.resource.RiskEvidenceSynthesis.Certainty" style="stroke: #A80036; stroke-width: 1.0;"/><ellipse cx="716.1839" cy="471.3477" fill="#FFFFFF" rx="8" ry="8" style="stroke: #A80036; stroke-width: 1.0;"/><line style="stroke: #A80036; stroke-width: 1.0;" x1="722.7377" x2="709.63" y1="475.9354" y2="466.76"/><line style="stroke: #A80036; stroke-width: 1.0;" x1="711.5962" x2="720.7716" y1="477.9016" y2="464.7938"/><text fill="#888888" font-family="sans-serif" font-size="10" lengthAdjust="spacingAndGlyphs" textLength="186" x="501" y="738.2822">UMLDoclet 2.0.7, PlantUML 1.2019.12</text><!--MD5=[268fec67a8abe8a96ec3adc94316eb91]
@startuml
    set namespaceSeparator none
    hide empty fields
    hide empty methods

    class "<size:14>RiskEvidenceSynthesis\n<size:10>com.ibm.fhir.model.resource" as com.ibm.fhir.model.resource.RiskEvidenceSynthesis [[RiskEvidenceSynthesis.html]] {
        +getUrl(): Uri
        +getIdentifier(): List<Identifier>
        +getVersion(): String
        +getName(): String
        +getTitle(): String
        +getStatus(): PublicationStatus
        +getDate(): DateTime
        +getPublisher(): String
        +getContact(): List<ContactDetail>
        +getDescription(): Markdown
        +getNote(): List<Annotation>
        +getUseContext(): List<UsageContext>
        +getJurisdiction(): List<CodeableConcept>
        +getCopyright(): Markdown
        +getApprovalDate(): Date
        +getLastReviewDate(): Date
        +getEffectivePeriod(): Period
        +getTopic(): List<CodeableConcept>
        +getAuthor(): List<ContactDetail>
        +getEditor(): List<ContactDetail>
        +getReviewer(): List<ContactDetail>
        +getEndorser(): List<ContactDetail>
        +getRelatedArtifact(): List<RelatedArtifact>
        +getSynthesisType(): CodeableConcept
        +getStudyType(): CodeableConcept
        +getPopulation(): Reference
        +getExposure(): Reference
        +getOutcome(): Reference
        +getSampleSize(): SampleSize
        +getRiskEstimate(): RiskEstimate
        +getCertainty(): List<Certainty>
        +hasChildren(): boolean
        +accept(String, int, Visitor): void
        +toBuilder(): Builder
        {static} +builder(): Builder
    }

    abstract class "<size:14>DomainResource\n<size:10>com.ibm.fhir.model.resource" as com.ibm.fhir.model.resource.DomainResource [[DomainResource.html]] {
        {abstract} +toBuilder(): Builder
    }
    class "<size:14>RiskEvidenceSynthesis.Builder\n<size:10>com.ibm.fhir.model.resource" as com.ibm.fhir.model.resource.RiskEvidenceSynthesis.Builder [[RiskEvidenceSynthesis.Builder.html]]
    class "<size:14>RiskEvidenceSynthesis.SampleSize\n<size:10>com.ibm.fhir.model.resource" as com.ibm.fhir.model.resource.RiskEvidenceSynthesis.SampleSize [[RiskEvidenceSynthesis.SampleSize.html]]
    class "<size:14>RiskEvidenceSynthesis.RiskEstimate\n<size:10>com.ibm.fhir.model.resource" as com.ibm.fhir.model.resource.RiskEvidenceSynthesis.RiskEstimate [[RiskEvidenceSynthesis.RiskEstimate.html]]
    class "<size:14>RiskEvidenceSynthesis.Certainty\n<size:10>com.ibm.fhir.model.resource" as com.ibm.fhir.model.resource.RiskEvidenceSynthesis.Certainty [[RiskEvidenceSynthesis.Certainty.html]]

    com.ibm.fhir.model.resource.DomainResource <|- - com.ibm.fhir.model.resource.RiskEvidenceSynthesis
    com.ibm.fhir.model.resource.RiskEvidenceSynthesis +- - com.ibm.fhir.model.resource.RiskEvidenceSynthesis.Builder
    com.ibm.fhir.model.resource.RiskEvidenceSynthesis +- - com.ibm.fhir.model.resource.RiskEvidenceSynthesis.SampleSize
    com.ibm.fhir.model.resource.RiskEvidenceSynthesis +- - com.ibm.fhir.model.resource.RiskEvidenceSynthesis.RiskEstimate
    com.ibm.fhir.model.resource.RiskEvidenceSynthesis +- - com.ibm.fhir.model.resource.RiskEvidenceSynthesis.Certainty

    center footer UMLDoclet 2.0.7, PlantUML 1.2019.12
@enduml

PlantUML version 1.2019.12(Sun Nov 03 10:24:54 UTC 2019)
(APACHE source distribution)
Java Runtime: OpenJDK Runtime Environment
JVM: OpenJDK 64-Bit Server VM
Java Version: 11.0.10+9
Operating System: Linux
Default Encoding: UTF-8
Language: en
Country: null
--></g></svg>