<?xml version="1.0" encoding="UTF-8" standalone="no"?><svg xmlns="http://www.w3.org/2000/svg" xmlns:xlink="http://www.w3.org/1999/xlink" contentScriptType="application/ecmascript" contentStyleType="text/css" height="359px" preserveAspectRatio="none" style="width:354px;height:359px;" version="1.1" viewBox="0 0 354 359" width="354px" zoomAndPan="magnify"><defs><filter height="300%" id="f3d357g7bpjl8" width="300%" x="-1" y="-1"><feGaussianBlur result="blurOut" stdDeviation="2.0"/><feColorMatrix in="blurOut" result="blurOut2" type="matrix" values="0 0 0 0 0 0 0 0 0 0 0 0 0 0 0 0 0 0 .4 0"/><feOffset dx="4.0" dy="4.0" in="blurOut2" result="blurOut3"/><feBlend in="SourceGraphic" in2="blurOut3" mode="normal"/></filter></defs><g><!--MD5=[1aa07f0988c595a9cc80b3a7242d2686]
class com.ibm.fhir.model.type.SampledData.Builder--><a href="SampledData.Builder.html" target="_top" title="SampledData.Builder.html" xlink:actuate="onRequest" xlink:href="SampledData.Builder.html" xlink:show="new" xlink:title="SampledData.Builder.html" xlink:type="simple"><rect fill="#FEFECE" filter="url(#f3d357g7bpjl8)" height="199.5938" id="com.ibm.fhir.model.type.SampledData.Builder" style="stroke: #A80036; stroke-width: 1.5;" width="265" x="42" y="127"/><ellipse cx="98.25" cy="145.9688" fill="#ADD1B2" rx="11" ry="11" style="stroke: #A80036; stroke-width: 1.0;"/><path d="M101.2188,151.6094 Q100.6406,151.9063 100,152.0469 Q99.3594,152.2031 98.6563,152.2031 Q96.1563,152.2031 94.8281,150.5625 Q93.5156,148.9063 93.5156,145.7813 Q93.5156,142.6563 94.8281,141 Q96.1563,139.3438 98.6563,139.3438 Q99.3594,139.3438 100,139.5 Q100.6563,139.6563 101.2188,139.9531 L101.2188,142.6719 Q100.5938,142.0938 100,141.8281 Q99.4063,141.5469 98.7813,141.5469 Q97.4375,141.5469 96.75,142.625 Q96.0625,143.6875 96.0625,145.7813 Q96.0625,147.875 96.75,148.9531 Q97.4375,150.0156 98.7813,150.0156 Q99.4063,150.0156 100,149.75 Q100.5938,149.4688 101.2188,148.8906 L101.2188,151.6094 Z "/><text fill="#000000" font-family="sans-serif" font-size="14" lengthAdjust="spacingAndGlyphs" textLength="144" x="118.75" y="144.9951">SampledData.Builder</text><text fill="#000000" font-family="sans-serif" font-size="10" lengthAdjust="spacingAndGlyphs" textLength="119" x="131.25" y="157.5791">com.ibm.fhir.model.type</text><line style="stroke: #A80036; stroke-width: 1.5;" x1="43" x2="306" y1="164.9375" y2="164.9375"/><ellipse cx="53" cy="175.9375" fill="#84BE84" rx="3" ry="3" style="stroke: #038048; stroke-width: 1.0;"/><text fill="#000000" font-family="sans-serif" font-size="11" lengthAdjust="spacingAndGlyphs" textLength="100" x="62" y="179.1479">id(String): Builder</text><ellipse cx="53" cy="188.7422" fill="#84BE84" rx="3" ry="3" style="stroke: #038048; stroke-width: 1.0;"/><text fill="#000000" font-family="sans-serif" font-size="11" lengthAdjust="spacingAndGlyphs" textLength="178" x="62" y="191.9526">extension(Extension...): Builder</text><ellipse cx="53" cy="201.5469" fill="#84BE84" rx="3" ry="3" style="stroke: #038048; stroke-width: 1.0;"/><text fill="#000000" font-family="sans-serif" font-size="11" lengthAdjust="spacingAndGlyphs" textLength="239" x="62" y="204.7573">extension(Collection&lt;Extension&gt;): Builder</text><ellipse cx="53" cy="214.3516" fill="#84BE84" rx="3" ry="3" style="stroke: #038048; stroke-width: 1.0;"/><text fill="#000000" font-family="sans-serif" font-size="11" lengthAdjust="spacingAndGlyphs" textLength="174" x="62" y="217.562">origin(SimpleQuantity): Builder</text><ellipse cx="53" cy="227.1563" fill="#84BE84" rx="3" ry="3" style="stroke: #038048; stroke-width: 1.0;"/><text fill="#000000" font-family="sans-serif" font-size="11" lengthAdjust="spacingAndGlyphs" textLength="137" x="62" y="230.3667">period(Decimal): Builder</text><ellipse cx="53" cy="239.9609" fill="#84BE84" rx="3" ry="3" style="stroke: #038048; stroke-width: 1.0;"/><text fill="#000000" font-family="sans-serif" font-size="11" lengthAdjust="spacingAndGlyphs" textLength="134" x="62" y="243.1714">factor(Decimal): Builder</text><ellipse cx="53" cy="252.7656" fill="#84BE84" rx="3" ry="3" style="stroke: #038048; stroke-width: 1.0;"/><text fill="#000000" font-family="sans-serif" font-size="11" lengthAdjust="spacingAndGlyphs" textLength="159" x="62" y="255.9761">lowerLimit(Decimal): Builder</text><ellipse cx="53" cy="265.5703" fill="#84BE84" rx="3" ry="3" style="stroke: #038048; stroke-width: 1.0;"/><text fill="#000000" font-family="sans-serif" font-size="11" lengthAdjust="spacingAndGlyphs" textLength="161" x="62" y="268.7808">upperLimit(Decimal): Builder</text><ellipse cx="53" cy="278.375" fill="#84BE84" rx="3" ry="3" style="stroke: #038048; stroke-width: 1.0;"/><text fill="#000000" font-family="sans-serif" font-size="11" lengthAdjust="spacingAndGlyphs" textLength="180" x="62" y="281.5854">dimensions(PositiveInt): Builder</text><ellipse cx="53" cy="291.1797" fill="#84BE84" rx="3" ry="3" style="stroke: #038048; stroke-width: 1.0;"/><text fill="#000000" font-family="sans-serif" font-size="11" lengthAdjust="spacingAndGlyphs" textLength="115" x="62" y="294.3901">data(String): Builder</text><ellipse cx="53" cy="303.9844" fill="#84BE84" rx="3" ry="3" style="stroke: #038048; stroke-width: 1.0;"/><text fill="#000000" font-family="sans-serif" font-size="11" lengthAdjust="spacingAndGlyphs" textLength="119" x="62" y="307.1948">build(): SampledData</text><polygon fill="#FFFF44" points="53,311.7891,57,315.7891,53,319.7891,49,315.7891" style="stroke: #B38D22; stroke-width: 1.0;"/><text fill="#000000" font-family="sans-serif" font-size="11" lengthAdjust="spacingAndGlyphs" textLength="159" x="62" y="319.9995">from(SampledData): Builder</text></a><!--MD5=[6c9d770aceb90b1f2e4c908e25cc69b5]
class com.ibm.fhir.model.type.Element.Builder--><a href="Element.Builder.html" target="_top" title="Element.Builder.html" xlink:actuate="onRequest" xlink:href="Element.Builder.html" xlink:show="new" xlink:title="Element.Builder.html" xlink:type="simple"><rect fill="#FEFECE" filter="url(#f3d357g7bpjl8)" height="58.7422" id="com.ibm.fhir.model.type.Element.Builder" style="stroke: #A80036; stroke-width: 1.5;" width="151" x="6" y="8"/><ellipse cx="21" cy="26.9688" fill="#A9DCDF" rx="11" ry="11" style="stroke: #A80036; stroke-width: 1.0;"/><path d="M21.1094,22.3125 L19.9531,27.3906 L22.2813,27.3906 L21.1094,22.3125 Z M19.625,20.0781 L22.6094,20.0781 L25.9688,32.4688 L23.5156,32.4688 L22.75,29.4063 L19.4688,29.4063 L18.7188,32.4688 L16.2813,32.4688 L19.625,20.0781 Z "/><text fill="#000000" font-family="sans-serif" font-size="14" font-style="italic" lengthAdjust="spacingAndGlyphs" textLength="109" x="40" y="25.9951">Element.Builder</text><text fill="#000000" font-family="sans-serif" font-size="10" font-style="italic" lengthAdjust="spacingAndGlyphs" textLength="119" x="35" y="38.5791">com.ibm.fhir.model.type</text><line style="stroke: #A80036; stroke-width: 1.5;" x1="7" x2="156" y1="45.9375" y2="45.9375"/><ellipse cx="17" cy="56.9375" fill="#84BE84" rx="3" ry="3" style="stroke: #038048; stroke-width: 1.0;"/><text fill="#000000" font-family="sans-serif" font-size="11" font-style="italic" lengthAdjust="spacingAndGlyphs" textLength="89" x="26" y="60.1479">build(): Element</text></a><!--MD5=[982d5b76a33cd1a70651cff56d3550dc]
class com.ibm.fhir.model.type.SampledData--><a href="SampledData.html" target="_top" title="SampledData.html" xlink:actuate="onRequest" xlink:href="SampledData.html" xlink:show="new" xlink:title="SampledData.html" xlink:type="simple"><rect fill="#FEFECE" filter="url(#f3d357g7bpjl8)" height="37.9375" id="com.ibm.fhir.model.type.SampledData" style="stroke: #A80036; stroke-width: 1.5;" width="151" x="192" y="18.5"/><ellipse cx="207" cy="37.4688" fill="#ADD1B2" rx="11" ry="11" style="stroke: #A80036; stroke-width: 1.0;"/><path d="M209.9688,43.1094 Q209.3906,43.4063 208.75,43.5469 Q208.1094,43.7031 207.4063,43.7031 Q204.9063,43.7031 203.5781,42.0625 Q202.2656,40.4063 202.2656,37.2813 Q202.2656,34.1563 203.5781,32.5 Q204.9063,30.8438 207.4063,30.8438 Q208.1094,30.8438 208.75,31 Q209.4063,31.1563 209.9688,31.4531 L209.9688,34.1719 Q209.3438,33.5938 208.75,33.3281 Q208.1563,33.0469 207.5313,33.0469 Q206.1875,33.0469 205.5,34.125 Q204.8125,35.1875 204.8125,37.2813 Q204.8125,39.375 205.5,40.4531 Q206.1875,41.5156 207.5313,41.5156 Q208.1563,41.5156 208.75,41.25 Q209.3438,40.9688 209.9688,40.3906 L209.9688,43.1094 Z "/><text fill="#000000" font-family="sans-serif" font-size="14" lengthAdjust="spacingAndGlyphs" textLength="92" x="234.5" y="36.4951">SampledData</text><text fill="#000000" font-family="sans-serif" font-size="10" lengthAdjust="spacingAndGlyphs" textLength="119" x="221" y="49.0791">com.ibm.fhir.model.type</text></a><!--MD5=[19d804c2b32fe3bc184754f4eec582ab]
reverse link com.ibm.fhir.model.type.Element.Builder to com.ibm.fhir.model.type.SampledData.Builder--><path d="M104.9219,85.2252 C111.2205,98.0594 118.2759,112.4358 125.4128,126.9783 " fill="none" id="com.ibm.fhir.model.type.Element.Builder&lt;-com.ibm.fhir.model.type.SampledData.Builder" style="stroke: #A80036; stroke-width: 1.0;"/><polygon fill="none" points="98.5587,88.1478,96.0313,67.1094,111.1267,81.9798,98.5587,88.1478" style="stroke: #A80036; stroke-width: 1.0;"/><!--MD5=[7a6535875d8a24bf82ce94eb24024c1c]
reverse link com.ibm.fhir.model.type.SampledData to com.ibm.fhir.model.type.SampledData.Builder--><path d="M251.2605,70.5901 C243.451,86.5031 233.6285,106.5177 223.643,126.8646 " fill="none" id="com.ibm.fhir.model.type.SampledData&lt;-com.ibm.fhir.model.type.SampledData.Builder" style="stroke: #A80036; stroke-width: 1.0;"/><ellipse cx="254.5463" cy="63.8948" fill="#FFFFFF" rx="8" ry="8" style="stroke: #A80036; stroke-width: 1.0;"/><line style="stroke: #A80036; stroke-width: 1.0;" x1="251.0217" x2="258.0709" y1="71.0766" y2="56.7131"/><line style="stroke: #A80036; stroke-width: 1.0;" x1="247.3646" x2="261.7281" y1="60.3703" y2="67.4194"/><text fill="#888888" font-family="sans-serif" font-size="10" lengthAdjust="spacingAndGlyphs" textLength="186" x="87.5" y="346.2822">UMLDoclet 2.0.7, PlantUML 1.2019.12</text><!--MD5=[651658b2130a2513543412c7259db9ae]
@startuml
    set namespaceSeparator none
    hide empty fields
    hide empty methods

    class "<size:14>SampledData.Builder\n<size:10>com.ibm.fhir.model.type" as com.ibm.fhir.model.type.SampledData.Builder [[SampledData.Builder.html]] {
        +id(String): Builder
        +extension(Extension...): Builder
        +extension(Collection<Extension>): Builder
        +origin(SimpleQuantity): Builder
        +period(Decimal): Builder
        +factor(Decimal): Builder
        +lowerLimit(Decimal): Builder
        +upperLimit(Decimal): Builder
        +dimensions(PositiveInt): Builder
        +data(String): Builder
        +build(): SampledData
        #from(SampledData): Builder
    }

    abstract class "<size:14>Element.Builder\n<size:10>com.ibm.fhir.model.type" as com.ibm.fhir.model.type.Element.Builder [[Element.Builder.html]] {
        {abstract} +build(): Element
    }
    class "<size:14>SampledData\n<size:10>com.ibm.fhir.model.type" as com.ibm.fhir.model.type.SampledData [[SampledData.html]]

    com.ibm.fhir.model.type.Element.Builder <|- - com.ibm.fhir.model.type.SampledData.Builder
    com.ibm.fhir.model.type.SampledData +- - com.ibm.fhir.model.type.SampledData.Builder

    center footer UMLDoclet 2.0.7, PlantUML 1.2019.12
@enduml

PlantUML version 1.2019.12(Sun Nov 03 10:24:54 UTC 2019)
(APACHE source distribution)
Java Runtime: OpenJDK Runtime Environment
JVM: OpenJDK 64-Bit Server VM
Java Version: 11.0.6+10
Operating System: Linux
Default Encoding: UTF-8
Language: en
Country: null
--></g></svg>