<?xml version="1.0" encoding="UTF-8" standalone="no"?><svg xmlns="http://www.w3.org/2000/svg" xmlns:xlink="http://www.w3.org/1999/xlink" contentScriptType="application/ecmascript" contentStyleType="text/css" height="486px" preserveAspectRatio="none" style="width:404px;height:486px;" version="1.1" viewBox="0 0 404 486" width="404px" zoomAndPan="magnify"><defs><filter height="300%" id="f2xotg6g9g41g" width="300%" x="-1" y="-1"><feGaussianBlur result="blurOut" stdDeviation="2.0"/><feColorMatrix in="blurOut" result="blurOut2" type="matrix" values="0 0 0 0 0 0 0 0 0 0 0 0 0 0 0 0 0 0 .4 0"/><feOffset dx="4.0" dy="4.0" in="blurOut2" result="blurOut3"/><feBlend in="SourceGraphic" in2="blurOut3" mode="normal"/></filter></defs><g><!--MD5=[0c3c2c0ffaf46b6c0f214c7572e99cad]
class com.ibm.fhir.model.type.code.BundleType--><a href="BundleType.html" target="_top" title="BundleType.html" xlink:actuate="onRequest" xlink:href="BundleType.html" xlink:show="new" xlink:title="BundleType.html" xlink:type="simple"><rect fill="#FEFECE" filter="url(#f2xotg6g9g41g)" height="248.5918" id="com.ibm.fhir.model.type.code.BundleType" style="stroke: #A80036; stroke-width: 1.5;" width="233" x="82.5" y="106"/><ellipse cx="123.15" cy="125.1328" fill="#ADD1B2" rx="11" ry="11" style="stroke: #A80036; stroke-width: 1.0;"/><path d="M125.6231,131.2759 Q125.0421,131.5747 124.4029,131.7241 Q123.7638,131.8735 123.0582,131.8735 Q120.5514,131.8735 119.2315,130.2217 Q117.9117,128.5698 117.9117,125.4487 Q117.9117,122.3193 119.2315,120.6675 Q120.5514,119.0156 123.0582,119.0156 Q123.7638,119.0156 124.4112,119.165 Q125.0587,119.3145 125.6231,119.6133 L125.6231,122.3359 Q124.9923,121.7549 124.3988,121.4851 Q123.8053,121.2153 123.1744,121.2153 Q121.8297,121.2153 121.1449,122.282 Q120.4601,123.3486 120.4601,125.4487 Q120.4601,127.5405 121.1449,128.6072 Q121.8297,129.6738 123.1744,129.6738 Q123.8053,129.6738 124.3988,129.4041 Q124.9923,129.1343 125.6231,128.5532 Z "/><text fill="#000000" font-family="sans-serif" font-size="14" lengthAdjust="spacingAndGlyphs" textLength="80" x="174.85" y="124.5352">BundleType</text><text fill="#000000" font-family="sans-serif" font-size="10" lengthAdjust="spacingAndGlyphs" textLength="144" x="142.85" y="137.1563">com.ibm.fhir.model.type.code</text><line style="stroke: #A80036; stroke-width: 1.5;" x1="83.5" x2="314.5" y1="144.2656" y2="144.2656"/><ellipse cx="93.5" cy="155.2656" fill="none" rx="3" ry="3" style="stroke: #038048; stroke-width: 1.0;"/><text fill="#000000" font-family="sans-serif" font-size="11" lengthAdjust="spacingAndGlyphs" text-decoration="underline" textLength="131" x="102.5" y="158.9004">DOCUMENT: BundleType</text><ellipse cx="93.5" cy="168.2207" fill="none" rx="3" ry="3" style="stroke: #038048; stroke-width: 1.0;"/><text fill="#000000" font-family="sans-serif" font-size="11" lengthAdjust="spacingAndGlyphs" text-decoration="underline" textLength="117" x="102.5" y="171.8555">MESSAGE: BundleType</text><ellipse cx="93.5" cy="181.1758" fill="none" rx="3" ry="3" style="stroke: #038048; stroke-width: 1.0;"/><text fill="#000000" font-family="sans-serif" font-size="11" lengthAdjust="spacingAndGlyphs" text-decoration="underline" textLength="147" x="102.5" y="184.8105">TRANSACTION: BundleType</text><ellipse cx="93.5" cy="194.1309" fill="none" rx="3" ry="3" style="stroke: #038048; stroke-width: 1.0;"/><text fill="#000000" font-family="sans-serif" font-size="11" lengthAdjust="spacingAndGlyphs" text-decoration="underline" textLength="207" x="102.5" y="197.7656">TRANSACTION_RESPONSE: BundleType</text><ellipse cx="93.5" cy="207.0859" fill="none" rx="3" ry="3" style="stroke: #038048; stroke-width: 1.0;"/><text fill="#000000" font-family="sans-serif" font-size="11" lengthAdjust="spacingAndGlyphs" text-decoration="underline" textLength="105" x="102.5" y="210.7207">BATCH: BundleType</text><ellipse cx="93.5" cy="220.041" fill="none" rx="3" ry="3" style="stroke: #038048; stroke-width: 1.0;"/><text fill="#000000" font-family="sans-serif" font-size="11" lengthAdjust="spacingAndGlyphs" text-decoration="underline" textLength="165" x="102.5" y="223.6758">BATCH_RESPONSE: BundleType</text><ellipse cx="93.5" cy="232.9961" fill="none" rx="3" ry="3" style="stroke: #038048; stroke-width: 1.0;"/><text fill="#000000" font-family="sans-serif" font-size="11" lengthAdjust="spacingAndGlyphs" text-decoration="underline" textLength="115" x="102.5" y="236.6309">HISTORY: BundleType</text><ellipse cx="93.5" cy="245.9512" fill="none" rx="3" ry="3" style="stroke: #038048; stroke-width: 1.0;"/><text fill="#000000" font-family="sans-serif" font-size="11" lengthAdjust="spacingAndGlyphs" text-decoration="underline" textLength="130" x="102.5" y="249.5859">SEARCHSET: BundleType</text><ellipse cx="93.5" cy="258.9063" fill="none" rx="3" ry="3" style="stroke: #038048; stroke-width: 1.0;"/><text fill="#000000" font-family="sans-serif" font-size="11" lengthAdjust="spacingAndGlyphs" text-decoration="underline" textLength="138" x="102.5" y="262.541">COLLECTION: BundleType</text><line style="stroke: #A80036; stroke-width: 1.5;" x1="83.5" x2="314.5" y1="268.8613" y2="268.8613"/><ellipse cx="93.5" cy="279.8613" fill="#84BE84" rx="3" ry="3" style="stroke: #038048; stroke-width: 1.0;"/><text fill="#000000" font-family="sans-serif" font-size="11" lengthAdjust="spacingAndGlyphs" text-decoration="underline" textLength="132" x="102.5" y="283.4961">of(ValueSet): BundleType</text><ellipse cx="93.5" cy="292.8164" fill="#84BE84" rx="3" ry="3" style="stroke: #038048; stroke-width: 1.0;"/><text fill="#000000" font-family="sans-serif" font-size="11" lengthAdjust="spacingAndGlyphs" text-decoration="underline" textLength="119" x="102.5" y="296.4512">of(String): BundleType</text><ellipse cx="93.5" cy="305.7715" fill="#84BE84" rx="3" ry="3" style="stroke: #038048; stroke-width: 1.0;"/><text fill="#000000" font-family="sans-serif" font-size="11" lengthAdjust="spacingAndGlyphs" text-decoration="underline" textLength="110" x="102.5" y="309.4063">string(String): String</text><ellipse cx="93.5" cy="318.7266" fill="#84BE84" rx="3" ry="3" style="stroke: #038048; stroke-width: 1.0;"/><text fill="#000000" font-family="sans-serif" font-size="11" lengthAdjust="spacingAndGlyphs" text-decoration="underline" textLength="100" x="102.5" y="322.3613">code(String): Code</text><ellipse cx="93.5" cy="331.6816" fill="#84BE84" rx="3" ry="3" style="stroke: #038048; stroke-width: 1.0;"/><text fill="#000000" font-family="sans-serif" font-size="11" lengthAdjust="spacingAndGlyphs" textLength="99" x="102.5" y="335.3164">toBuilder(): Builder</text><ellipse cx="93.5" cy="344.6367" fill="#84BE84" rx="3" ry="3" style="stroke: #038048; stroke-width: 1.0;"/><text fill="#000000" font-family="sans-serif" font-size="11" lengthAdjust="spacingAndGlyphs" text-decoration="underline" textLength="89" x="102.5" y="348.2715">builder(): Builder</text></a><!--MD5=[36277681a3d78580011ae89cb2088b30]
class com.ibm.fhir.model.type.Code--><a href="../Code.html" target="_top" title="../Code.html" xlink:actuate="onRequest" xlink:href="../Code.html" xlink:show="new" xlink:title="../Code.html" xlink:type="simple"><rect fill="#FEFECE" filter="url(#f2xotg6g9g41g)" height="38.2656" id="com.ibm.fhir.model.type.Code" style="stroke: #A80036; stroke-width: 1.5;" width="150" x="124" y="8"/><ellipse cx="139" cy="27.1328" fill="#ADD1B2" rx="11" ry="11" style="stroke: #A80036; stroke-width: 1.0;"/><path d="M141.4731,33.2759 Q140.8921,33.5747 140.2529,33.7241 Q139.6138,33.8735 138.9082,33.8735 Q136.4014,33.8735 135.0815,32.2217 Q133.7617,30.5698 133.7617,27.4487 Q133.7617,24.3193 135.0815,22.6675 Q136.4014,21.0156 138.9082,21.0156 Q139.6138,21.0156 140.2612,21.165 Q140.9087,21.3145 141.4731,21.6133 L141.4731,24.3359 Q140.8423,23.7549 140.2488,23.4851 Q139.6553,23.2153 139.0244,23.2153 Q137.6797,23.2153 136.9949,24.282 Q136.3101,25.3486 136.3101,27.4487 Q136.3101,29.5405 136.9949,30.6072 Q137.6797,31.6738 139.0244,31.6738 Q139.6553,31.6738 140.2488,31.4041 Q140.8423,31.1343 141.4731,30.5532 Z "/><text fill="#000000" font-family="sans-serif" font-size="14" lengthAdjust="spacingAndGlyphs" textLength="36" x="194" y="26.5352">Code</text><text fill="#000000" font-family="sans-serif" font-size="10" lengthAdjust="spacingAndGlyphs" textLength="118" x="153" y="39.1563">com.ibm.fhir.model.type</text></a><!--MD5=[17977bd3872e949178fd76f06b839330]
class com.ibm.fhir.model.type.code.BundleType.Builder--><a href="BundleType.Builder.html" target="_top" title="BundleType.Builder.html" xlink:actuate="onRequest" xlink:href="BundleType.Builder.html" xlink:show="new" xlink:title="BundleType.Builder.html" xlink:type="simple"><rect fill="#FEFECE" filter="url(#f2xotg6g9g41g)" height="38.2656" id="com.ibm.fhir.model.type.code.BundleType.Builder" style="stroke: #A80036; stroke-width: 1.5;" width="176" x="6" y="415"/><ellipse cx="21" cy="434.1328" fill="#ADD1B2" rx="11" ry="11" style="stroke: #A80036; stroke-width: 1.0;"/><path d="M23.4731,440.2759 Q22.8921,440.5747 22.2529,440.7241 Q21.6138,440.8735 20.9082,440.8735 Q18.4014,440.8735 17.0815,439.2217 Q15.7617,437.5698 15.7617,434.4487 Q15.7617,431.3193 17.0815,429.6675 Q18.4014,428.0156 20.9082,428.0156 Q21.6138,428.0156 22.2612,428.165 Q22.9087,428.3145 23.4731,428.6133 L23.4731,431.3359 Q22.8423,430.7549 22.2488,430.4851 Q21.6553,430.2153 21.0244,430.2153 Q19.6797,430.2153 18.9949,431.282 Q18.3101,432.3486 18.3101,434.4487 Q18.3101,436.5405 18.9949,437.6072 Q19.6797,438.6738 21.0244,438.6738 Q21.6553,438.6738 22.2488,438.4041 Q22.8423,438.1343 23.4731,437.5532 Z "/><text fill="#000000" font-family="sans-serif" font-size="14" lengthAdjust="spacingAndGlyphs" textLength="132" x="41" y="433.5352">BundleType.Builder</text><text fill="#000000" font-family="sans-serif" font-size="10" lengthAdjust="spacingAndGlyphs" textLength="144" x="35" y="446.1563">com.ibm.fhir.model.type.code</text></a><!--MD5=[b1f7eaef9a55a358cf1bcb04cfad014b]
class com.ibm.fhir.model.type.code.BundleType.ValueSet--><a href="BundleType.ValueSet.html" target="_top" title="BundleType.ValueSet.html" xlink:actuate="onRequest" xlink:href="BundleType.ValueSet.html" xlink:show="new" xlink:title="BundleType.ValueSet.html" xlink:type="simple"><rect fill="#FEFECE" filter="url(#f2xotg6g9g41g)" height="38.2656" id="com.ibm.fhir.model.type.code.BundleType.ValueSet" style="stroke: #A80036; stroke-width: 1.5;" width="176" x="217" y="415"/><ellipse cx="232" cy="434.1328" fill="#EB937F" rx="11" ry="11" style="stroke: #A80036; stroke-width: 1.0;"/><path d="M235.6143,440.6328 L227.8945,440.6328 L227.8945,428.2397 L235.6143,428.2397 L235.6143,430.3979 L230.3433,430.3979 L230.3433,433.0708 L235.1162,433.0708 L235.1162,435.229 L230.3433,435.229 L230.3433,438.4746 L235.6143,438.4746 Z "/><text fill="#000000" font-family="sans-serif" font-size="14" lengthAdjust="spacingAndGlyphs" textLength="143" x="246.5" y="433.5352">BundleType.ValueSet</text><text fill="#000000" font-family="sans-serif" font-size="10" lengthAdjust="spacingAndGlyphs" textLength="144" x="246" y="446.1563">com.ibm.fhir.model.type.code</text></a><!--MD5=[1110f90c479a91ae9dada6509a92d53b]
reverse link com.ibm.fhir.model.type.Code to com.ibm.fhir.model.type.code.BundleType--><path d="M199,66.1693 C199,77.9091 199,91.4661 199,105.6557 " fill="none" id="com.ibm.fhir.model.type.Code&lt;-com.ibm.fhir.model.type.code.BundleType" style="stroke: #A80036; stroke-width: 1.0;"/><polygon fill="none" points="192.0001,66.1448,199,46.1448,206.0001,66.1448,192.0001,66.1448" style="stroke: #A80036; stroke-width: 1.0;"/><!--MD5=[c26126d79d2a92df5ef6b6d3ac9fa6c0]
reverse link com.ibm.fhir.model.type.code.BundleType to com.ibm.fhir.model.type.code.BundleType.Builder--><path d="M127.7823,368.5267 C118.4127,386.6858 109.9584,403.0711 103.8509,414.9081 " fill="none" id="com.ibm.fhir.model.type.code.BundleType&lt;-com.ibm.fhir.model.type.code.BundleType.Builder" style="stroke: #A80036; stroke-width: 1.0;"/><ellipse cx="131.0778" cy="362.1397" fill="#FFFFFF" rx="8" ry="8" style="stroke: #A80036; stroke-width: 1.0;"/><line style="stroke: #A80036; stroke-width: 1.0;" x1="127.4095" x2="134.746" y1="369.2492" y2="355.0303"/><line style="stroke: #A80036; stroke-width: 1.0;" x1="123.9683" x2="138.1872" y1="358.4715" y2="365.808"/><!--MD5=[534da23495d76407d9dbcc1a8ae1a42b]
reverse link com.ibm.fhir.model.type.code.BundleType to com.ibm.fhir.model.type.code.BundleType.ValueSet--><path d="M270.896,368.5267 C280.3548,386.6858 288.8896,403.0711 295.0553,414.9081 " fill="none" id="com.ibm.fhir.model.type.code.BundleType&lt;-com.ibm.fhir.model.type.code.BundleType.ValueSet" style="stroke: #A80036; stroke-width: 1.0;"/><ellipse cx="267.5617" cy="362.1255" fill="#FFFFFF" rx="8" ry="8" style="stroke: #A80036; stroke-width: 1.0;"/><line style="stroke: #A80036; stroke-width: 1.0;" x1="271.2574" x2="263.8659" y1="369.2206" y2="355.0303"/><line style="stroke: #A80036; stroke-width: 1.0;" x1="260.4665" x2="274.6568" y1="365.8212" y2="358.4297"/><text fill="#888888" font-family="sans-serif" font-size="10" lengthAdjust="spacingAndGlyphs" textLength="182" x="114.5" y="472.668">UMLDoclet 2.0.7, PlantUML 1.2019.12</text><!--MD5=[b9148705a6e2d5f6423b0d473ffb80a7]
@startuml
    set namespaceSeparator none
    hide empty fields
    hide empty methods

    class "<size:14>BundleType\n<size:10>com.ibm.fhir.model.type.code" as com.ibm.fhir.model.type.code.BundleType [[BundleType.html]] {
        {static} +DOCUMENT: BundleType
        {static} +MESSAGE: BundleType
        {static} +TRANSACTION: BundleType
        {static} +TRANSACTION_RESPONSE: BundleType
        {static} +BATCH: BundleType
        {static} +BATCH_RESPONSE: BundleType
        {static} +HISTORY: BundleType
        {static} +SEARCHSET: BundleType
        {static} +COLLECTION: BundleType
        {static} +of(ValueSet): BundleType
        {static} +of(String): BundleType
        {static} +string(String): String
        {static} +code(String): Code
        +toBuilder(): Builder
        {static} +builder(): Builder
    }

    class "<size:14>Code\n<size:10>com.ibm.fhir.model.type" as com.ibm.fhir.model.type.Code [[../Code.html]]
    class "<size:14>BundleType.Builder\n<size:10>com.ibm.fhir.model.type.code" as com.ibm.fhir.model.type.code.BundleType.Builder [[BundleType.Builder.html]]
    enum "<size:14>BundleType.ValueSet\n<size:10>com.ibm.fhir.model.type.code" as com.ibm.fhir.model.type.code.BundleType.ValueSet [[BundleType.ValueSet.html]]

    com.ibm.fhir.model.type.Code <|- - com.ibm.fhir.model.type.code.BundleType
    com.ibm.fhir.model.type.code.BundleType +- - com.ibm.fhir.model.type.code.BundleType.Builder
    com.ibm.fhir.model.type.code.BundleType +- - com.ibm.fhir.model.type.code.BundleType.ValueSet

    center footer UMLDoclet 2.0.7, PlantUML 1.2019.12
@enduml

PlantUML version 1.2019.12(Sun Nov 03 05:24:54 EST 2019)
(APACHE source distribution)
Java Runtime: OpenJDK Runtime Environment
JVM: OpenJDK 64-Bit Server VM
Java Version: 11.0.4+11
Operating System: Mac OS X
Default Encoding: UTF-8
Language: en
Country: US
--></g></svg>