<?xml version="1.0" encoding="UTF-8" standalone="no"?><svg xmlns="http://www.w3.org/2000/svg" xmlns:xlink="http://www.w3.org/1999/xlink" contentScriptType="application/ecmascript" contentStyleType="text/css" height="395px" preserveAspectRatio="none" style="width:517px;height:395px;" version="1.1" viewBox="0 0 517 395" width="517px" zoomAndPan="magnify"><defs><filter height="300%" id="ft6bok2yi3m2m" width="300%" x="-1" y="-1"><feGaussianBlur result="blurOut" stdDeviation="2.0"/><feColorMatrix in="blurOut" result="blurOut2" type="matrix" values="0 0 0 0 0 0 0 0 0 0 0 0 0 0 0 0 0 0 .4 0"/><feOffset dx="4.0" dy="4.0" in="blurOut2" result="blurOut3"/><feBlend in="SourceGraphic" in2="blurOut3" mode="normal"/></filter></defs><g><!--MD5=[c07c649c032993178db78c22279f01c0]
class com.ibm.fhir.model.type.code.EventCapabilityMode--><a href="EventCapabilityMode.html" target="_top" title="EventCapabilityMode.html" xlink:actuate="onRequest" xlink:href="EventCapabilityMode.html" xlink:show="new" xlink:title="EventCapabilityMode.html" xlink:type="simple"><rect fill="#FEFECE" filter="url(#ft6bok2yi3m2m)" height="157.9063" id="com.ibm.fhir.model.type.code.EventCapabilityMode" style="stroke: #A80036; stroke-width: 1.5;" width="207" x="150" y="106"/><ellipse cx="178.95" cy="125.1328" fill="#ADD1B2" rx="11" ry="11" style="stroke: #A80036; stroke-width: 1.0;"/><path d="M181.4231,131.2759 Q180.8421,131.5747 180.2029,131.7241 Q179.5638,131.8735 178.8582,131.8735 Q176.3514,131.8735 175.0315,130.2217 Q173.7117,128.5698 173.7117,125.4487 Q173.7117,122.3193 175.0315,120.6675 Q176.3514,119.0156 178.8582,119.0156 Q179.5638,119.0156 180.2112,119.165 Q180.8587,119.3145 181.4231,119.6133 L181.4231,122.3359 Q180.7923,121.7549 180.1988,121.4851 Q179.6053,121.2153 178.9744,121.2153 Q177.6297,121.2153 176.9449,122.282 Q176.2601,123.3486 176.2601,125.4487 Q176.2601,127.5405 176.9449,128.6072 Q177.6297,129.6738 178.9744,129.6738 Q179.6053,129.6738 180.1988,129.4041 Q180.7923,129.1343 181.4231,128.5532 Z "/><text fill="#000000" font-family="sans-serif" font-size="14" lengthAdjust="spacingAndGlyphs" textLength="143" x="196.55" y="124.5352">EventCapabilityMode</text><text fill="#000000" font-family="sans-serif" font-size="10" lengthAdjust="spacingAndGlyphs" textLength="144" x="196.05" y="137.1563">com.ibm.fhir.model.type.code</text><line style="stroke: #A80036; stroke-width: 1.5;" x1="151" x2="356" y1="144.2656" y2="144.2656"/><ellipse cx="161" cy="155.2656" fill="none" rx="3" ry="3" style="stroke: #038048; stroke-width: 1.0;"/><text fill="#000000" font-family="sans-serif" font-size="11" lengthAdjust="spacingAndGlyphs" text-decoration="underline" textLength="158" x="170" y="158.9004">SENDER: EventCapabilityMode</text><ellipse cx="161" cy="168.2207" fill="none" rx="3" ry="3" style="stroke: #038048; stroke-width: 1.0;"/><text fill="#000000" font-family="sans-serif" font-size="11" lengthAdjust="spacingAndGlyphs" text-decoration="underline" textLength="167" x="170" y="171.8555">RECEIVER: EventCapabilityMode</text><line style="stroke: #A80036; stroke-width: 1.5;" x1="151" x2="356" y1="178.1758" y2="178.1758"/><ellipse cx="161" cy="189.1758" fill="#84BE84" rx="3" ry="3" style="stroke: #038048; stroke-width: 1.0;"/><text fill="#000000" font-family="sans-serif" font-size="11" lengthAdjust="spacingAndGlyphs" text-decoration="underline" textLength="181" x="170" y="192.8105">of(ValueSet): EventCapabilityMode</text><ellipse cx="161" cy="202.1309" fill="#84BE84" rx="3" ry="3" style="stroke: #038048; stroke-width: 1.0;"/><text fill="#000000" font-family="sans-serif" font-size="11" lengthAdjust="spacingAndGlyphs" text-decoration="underline" textLength="168" x="170" y="205.7656">of(String): EventCapabilityMode</text><ellipse cx="161" cy="215.0859" fill="#84BE84" rx="3" ry="3" style="stroke: #038048; stroke-width: 1.0;"/><text fill="#000000" font-family="sans-serif" font-size="11" lengthAdjust="spacingAndGlyphs" text-decoration="underline" textLength="110" x="170" y="218.7207">string(String): String</text><ellipse cx="161" cy="228.041" fill="#84BE84" rx="3" ry="3" style="stroke: #038048; stroke-width: 1.0;"/><text fill="#000000" font-family="sans-serif" font-size="11" lengthAdjust="spacingAndGlyphs" text-decoration="underline" textLength="100" x="170" y="231.6758">code(String): Code</text><ellipse cx="161" cy="240.9961" fill="#84BE84" rx="3" ry="3" style="stroke: #038048; stroke-width: 1.0;"/><text fill="#000000" font-family="sans-serif" font-size="11" lengthAdjust="spacingAndGlyphs" textLength="99" x="170" y="244.6309">toBuilder(): Builder</text><ellipse cx="161" cy="253.9512" fill="#84BE84" rx="3" ry="3" style="stroke: #038048; stroke-width: 1.0;"/><text fill="#000000" font-family="sans-serif" font-size="11" lengthAdjust="spacingAndGlyphs" text-decoration="underline" textLength="89" x="170" y="257.5859">builder(): Builder</text></a><!--MD5=[36277681a3d78580011ae89cb2088b30]
class com.ibm.fhir.model.type.Code--><a href="../Code.html" target="_top" title="../Code.html" xlink:actuate="onRequest" xlink:href="../Code.html" xlink:show="new" xlink:title="../Code.html" xlink:type="simple"><rect fill="#FEFECE" filter="url(#ft6bok2yi3m2m)" height="38.2656" id="com.ibm.fhir.model.type.Code" style="stroke: #A80036; stroke-width: 1.5;" width="150" x="178.5" y="8"/><ellipse cx="193.5" cy="27.1328" fill="#ADD1B2" rx="11" ry="11" style="stroke: #A80036; stroke-width: 1.0;"/><path d="M195.9731,33.2759 Q195.3921,33.5747 194.7529,33.7241 Q194.1138,33.8735 193.4082,33.8735 Q190.9014,33.8735 189.5815,32.2217 Q188.2617,30.5698 188.2617,27.4487 Q188.2617,24.3193 189.5815,22.6675 Q190.9014,21.0156 193.4082,21.0156 Q194.1138,21.0156 194.7612,21.165 Q195.4087,21.3145 195.9731,21.6133 L195.9731,24.3359 Q195.3423,23.7549 194.7488,23.4851 Q194.1553,23.2153 193.5244,23.2153 Q192.1797,23.2153 191.4949,24.282 Q190.8101,25.3486 190.8101,27.4487 Q190.8101,29.5405 191.4949,30.6072 Q192.1797,31.6738 193.5244,31.6738 Q194.1553,31.6738 194.7488,31.4041 Q195.3423,31.1343 195.9731,30.5532 Z "/><text fill="#000000" font-family="sans-serif" font-size="14" lengthAdjust="spacingAndGlyphs" textLength="36" x="248.5" y="26.5352">Code</text><text fill="#000000" font-family="sans-serif" font-size="10" lengthAdjust="spacingAndGlyphs" textLength="118" x="207.5" y="39.1563">com.ibm.fhir.model.type</text></a><!--MD5=[827e01bc69624befa7a81aab94cab6f6]
class com.ibm.fhir.model.type.code.EventCapabilityMode.Builder--><a href="EventCapabilityMode.Builder.html" target="_top" title="EventCapabilityMode.Builder.html" xlink:actuate="onRequest" xlink:href="EventCapabilityMode.Builder.html" xlink:show="new" xlink:title="EventCapabilityMode.Builder.html" xlink:type="simple"><rect fill="#FEFECE" filter="url(#ft6bok2yi3m2m)" height="38.2656" id="com.ibm.fhir.model.type.code.EventCapabilityMode.Builder" style="stroke: #A80036; stroke-width: 1.5;" width="227" x="6" y="324"/><ellipse cx="21" cy="343.1328" fill="#ADD1B2" rx="11" ry="11" style="stroke: #A80036; stroke-width: 1.0;"/><path d="M23.4731,349.2759 Q22.8921,349.5747 22.2529,349.7241 Q21.6138,349.8735 20.9082,349.8735 Q18.4014,349.8735 17.0815,348.2217 Q15.7617,346.5698 15.7617,343.4487 Q15.7617,340.3193 17.0815,338.6675 Q18.4014,337.0156 20.9082,337.0156 Q21.6138,337.0156 22.2612,337.165 Q22.9087,337.3145 23.4731,337.6133 L23.4731,340.3359 Q22.8423,339.7549 22.2488,339.4851 Q21.6553,339.2153 21.0244,339.2153 Q19.6797,339.2153 18.9949,340.282 Q18.3101,341.3486 18.3101,343.4487 Q18.3101,345.5405 18.9949,346.6072 Q19.6797,347.6738 21.0244,347.6738 Q21.6553,347.6738 22.2488,347.4041 Q22.8423,347.1343 23.4731,346.5532 Z "/><text fill="#000000" font-family="sans-serif" font-size="14" lengthAdjust="spacingAndGlyphs" textLength="195" x="35" y="342.5352">EventCapabilityMode.Builder</text><text fill="#000000" font-family="sans-serif" font-size="10" lengthAdjust="spacingAndGlyphs" textLength="144" x="60.5" y="355.1563">com.ibm.fhir.model.type.code</text></a><!--MD5=[cc7deafafdadb0c60e3addfe8b626cbe]
class com.ibm.fhir.model.type.code.EventCapabilityMode.ValueSet--><a href="EventCapabilityMode.ValueSet.html" target="_top" title="EventCapabilityMode.ValueSet.html" xlink:actuate="onRequest" xlink:href="EventCapabilityMode.ValueSet.html" xlink:show="new" xlink:title="EventCapabilityMode.ValueSet.html" xlink:type="simple"><rect fill="#FEFECE" filter="url(#ft6bok2yi3m2m)" height="38.2656" id="com.ibm.fhir.model.type.code.EventCapabilityMode.ValueSet" style="stroke: #A80036; stroke-width: 1.5;" width="238" x="268.5" y="324"/><ellipse cx="283.5" cy="343.1328" fill="#EB937F" rx="11" ry="11" style="stroke: #A80036; stroke-width: 1.0;"/><path d="M287.1143,349.6328 L279.3945,349.6328 L279.3945,337.2397 L287.1143,337.2397 L287.1143,339.3979 L281.8433,339.3979 L281.8433,342.0708 L286.6162,342.0708 L286.6162,344.229 L281.8433,344.229 L281.8433,347.4746 L287.1143,347.4746 Z "/><text fill="#000000" font-family="sans-serif" font-size="14" lengthAdjust="spacingAndGlyphs" textLength="206" x="297.5" y="342.5352">EventCapabilityMode.ValueSet</text><text fill="#000000" font-family="sans-serif" font-size="10" lengthAdjust="spacingAndGlyphs" textLength="144" x="328.5" y="355.1563">com.ibm.fhir.model.type.code</text></a><!--MD5=[d5b7c5f4b8c4aebf03dfa65ed7a221ac]
reverse link com.ibm.fhir.model.type.Code to com.ibm.fhir.model.type.code.EventCapabilityMode--><path d="M253.5,66.2457 C253.5,78.356 253.5,92.1521 253.5,105.9503 " fill="none" id="com.ibm.fhir.model.type.Code&lt;-com.ibm.fhir.model.type.code.EventCapabilityMode" style="stroke: #A80036; stroke-width: 1.0;"/><polygon fill="none" points="246.5001,66.0585,253.5,46.0585,260.5001,66.0585,246.5001,66.0585" style="stroke: #A80036; stroke-width: 1.0;"/><!--MD5=[34889959b92905b677e473b56425c55c]
reverse link com.ibm.fhir.model.type.code.EventCapabilityMode to com.ibm.fhir.model.type.code.EventCapabilityMode.Builder--><path d="M176.2451,276.0916 C160.9366,294.1419 146.3597,311.3296 135.8138,323.7643 " fill="none" id="com.ibm.fhir.model.type.code.EventCapabilityMode&lt;-com.ibm.fhir.model.type.code.EventCapabilityMode.Builder" style="stroke: #A80036; stroke-width: 1.0;"/><ellipse cx="180.9329" cy="270.5641" fill="#FFFFFF" rx="8" ry="8" style="stroke: #A80036; stroke-width: 1.0;"/><line style="stroke: #A80036; stroke-width: 1.0;" x1="175.7585" x2="186.1074" y1="276.6654" y2="264.4629"/><line style="stroke: #A80036; stroke-width: 1.0;" x1="174.8317" x2="187.0342" y1="265.3897" y2="275.7386"/><!--MD5=[7505aeb9c13bb65bc22cad842942662d]
reverse link com.ibm.fhir.model.type.code.EventCapabilityMode to com.ibm.fhir.model.type.code.EventCapabilityMode.ValueSet--><path d="M330.7549,276.0916 C346.0634,294.1419 360.6403,311.3296 371.1862,323.7643 " fill="none" id="com.ibm.fhir.model.type.code.EventCapabilityMode&lt;-com.ibm.fhir.model.type.code.EventCapabilityMode.ValueSet" style="stroke: #A80036; stroke-width: 1.0;"/><ellipse cx="326.0671" cy="270.5641" fill="#FFFFFF" rx="8" ry="8" style="stroke: #A80036; stroke-width: 1.0;"/><line style="stroke: #A80036; stroke-width: 1.0;" x1="331.2415" x2="320.8926" y1="276.6654" y2="264.4629"/><line style="stroke: #A80036; stroke-width: 1.0;" x1="319.9658" x2="332.1683" y1="275.7386" y2="265.3897"/><text fill="#888888" font-family="sans-serif" font-size="10" lengthAdjust="spacingAndGlyphs" textLength="182" x="171.5" y="381.668">UMLDoclet 2.0.7, PlantUML 1.2019.12</text><!--MD5=[86ee97252fafa521ec97de20335f9678]
@startuml
    set namespaceSeparator none
    hide empty fields
    hide empty methods

    class "<size:14>EventCapabilityMode\n<size:10>com.ibm.fhir.model.type.code" as com.ibm.fhir.model.type.code.EventCapabilityMode [[EventCapabilityMode.html]] {
        {static} +SENDER: EventCapabilityMode
        {static} +RECEIVER: EventCapabilityMode
        {static} +of(ValueSet): EventCapabilityMode
        {static} +of(String): EventCapabilityMode
        {static} +string(String): String
        {static} +code(String): Code
        +toBuilder(): Builder
        {static} +builder(): Builder
    }

    class "<size:14>Code\n<size:10>com.ibm.fhir.model.type" as com.ibm.fhir.model.type.Code [[../Code.html]]
    class "<size:14>EventCapabilityMode.Builder\n<size:10>com.ibm.fhir.model.type.code" as com.ibm.fhir.model.type.code.EventCapabilityMode.Builder [[EventCapabilityMode.Builder.html]]
    enum "<size:14>EventCapabilityMode.ValueSet\n<size:10>com.ibm.fhir.model.type.code" as com.ibm.fhir.model.type.code.EventCapabilityMode.ValueSet [[EventCapabilityMode.ValueSet.html]]

    com.ibm.fhir.model.type.Code <|- - com.ibm.fhir.model.type.code.EventCapabilityMode
    com.ibm.fhir.model.type.code.EventCapabilityMode +- - com.ibm.fhir.model.type.code.EventCapabilityMode.Builder
    com.ibm.fhir.model.type.code.EventCapabilityMode +- - com.ibm.fhir.model.type.code.EventCapabilityMode.ValueSet

    center footer UMLDoclet 2.0.7, PlantUML 1.2019.12
@enduml

PlantUML version 1.2019.12(Sun Nov 03 05:24:54 EST 2019)
(APACHE source distribution)
Java Runtime: OpenJDK Runtime Environment
JVM: OpenJDK 64-Bit Server VM
Java Version: 11.0.4+11
Operating System: Mac OS X
Default Encoding: UTF-8
Language: en
Country: US
--></g></svg>