<?xml version="1.0" encoding="UTF-8" standalone="no"?><svg xmlns="http://www.w3.org/2000/svg" xmlns:xlink="http://www.w3.org/1999/xlink" contentScriptType="application/ecmascript" contentStyleType="text/css" height="486px" preserveAspectRatio="none" style="width:425px;height:486px;" version="1.1" viewBox="0 0 425 486" width="425px" zoomAndPan="magnify"><defs><filter height="300%" id="fcc5wlkd87b08" width="300%" x="-1" y="-1"><feGaussianBlur result="blurOut" stdDeviation="2.0"/><feColorMatrix in="blurOut" result="blurOut2" type="matrix" values="0 0 0 0 0 0 0 0 0 0 0 0 0 0 0 0 0 0 .4 0"/><feOffset dx="4.0" dy="4.0" in="blurOut2" result="blurOut3"/><feBlend in="SourceGraphic" in2="blurOut3" mode="normal"/></filter></defs><g><!--MD5=[dbe3135a289519bfcdcb6ccb7ca55c36]
class com.ibm.fhir.model.type.code.FilterOperator--><a href="FilterOperator.html" target="_top" title="FilterOperator.html" xlink:actuate="onRequest" xlink:href="FilterOperator.html" xlink:show="new" xlink:title="FilterOperator.html" xlink:type="simple"><rect fill="#FEFECE" filter="url(#fcc5wlkd87b08)" height="248.5918" id="com.ibm.fhir.model.type.code.FilterOperator" style="stroke: #A80036; stroke-width: 1.5;" width="200" x="107.5" y="106"/><ellipse cx="133.3" cy="125.1328" fill="#ADD1B2" rx="11" ry="11" style="stroke: #A80036; stroke-width: 1.0;"/><path d="M135.7731,131.2759 Q135.1921,131.5747 134.5529,131.7241 Q133.9138,131.8735 133.2082,131.8735 Q130.7014,131.8735 129.3815,130.2217 Q128.0617,128.5698 128.0617,125.4487 Q128.0617,122.3193 129.3815,120.6675 Q130.7014,119.0156 133.2082,119.0156 Q133.9138,119.0156 134.5612,119.165 Q135.2087,119.3145 135.7731,119.6133 L135.7731,122.3359 Q135.1423,121.7549 134.5488,121.4851 Q133.9553,121.2153 133.3244,121.2153 Q131.9797,121.2153 131.2949,122.282 Q130.6101,123.3486 130.6101,125.4487 Q130.6101,127.5405 131.2949,128.6072 Q131.9797,129.6738 133.3244,129.6738 Q133.9553,129.6738 134.5488,129.4041 Q135.1423,129.1343 135.7731,128.5532 Z "/><text fill="#000000" font-family="sans-serif" font-size="14" lengthAdjust="spacingAndGlyphs" textLength="97" x="173.2" y="124.5352">FilterOperator</text><text fill="#000000" font-family="sans-serif" font-size="10" lengthAdjust="spacingAndGlyphs" textLength="144" x="149.7" y="137.1563">com.ibm.fhir.model.type.code</text><line style="stroke: #A80036; stroke-width: 1.5;" x1="108.5" x2="306.5" y1="144.2656" y2="144.2656"/><ellipse cx="118.5" cy="155.2656" fill="none" rx="3" ry="3" style="stroke: #038048; stroke-width: 1.0;"/><text fill="#000000" font-family="sans-serif" font-size="11" lengthAdjust="spacingAndGlyphs" text-decoration="underline" textLength="125" x="127.5" y="158.9004">EQUALS: FilterOperator</text><ellipse cx="118.5" cy="168.2207" fill="none" rx="3" ry="3" style="stroke: #038048; stroke-width: 1.0;"/><text fill="#000000" font-family="sans-serif" font-size="11" lengthAdjust="spacingAndGlyphs" text-decoration="underline" textLength="105" x="127.5" y="171.8555">IS_A: FilterOperator</text><ellipse cx="118.5" cy="181.1758" fill="none" rx="3" ry="3" style="stroke: #038048; stroke-width: 1.0;"/><text fill="#000000" font-family="sans-serif" font-size="11" lengthAdjust="spacingAndGlyphs" text-decoration="underline" textLength="174" x="127.5" y="184.8105">DESCENDENT_OF: FilterOperator</text><ellipse cx="118.5" cy="194.1309" fill="none" rx="3" ry="3" style="stroke: #038048; stroke-width: 1.0;"/><text fill="#000000" font-family="sans-serif" font-size="11" lengthAdjust="spacingAndGlyphs" text-decoration="underline" textLength="135" x="127.5" y="197.7656">IS_NOT_A: FilterOperator</text><ellipse cx="118.5" cy="207.0859" fill="none" rx="3" ry="3" style="stroke: #038048; stroke-width: 1.0;"/><text fill="#000000" font-family="sans-serif" font-size="11" lengthAdjust="spacingAndGlyphs" text-decoration="underline" textLength="116" x="127.5" y="210.7207">REGEX: FilterOperator</text><ellipse cx="118.5" cy="220.041" fill="none" rx="3" ry="3" style="stroke: #038048; stroke-width: 1.0;"/><text fill="#000000" font-family="sans-serif" font-size="11" lengthAdjust="spacingAndGlyphs" text-decoration="underline" textLength="93" x="127.5" y="223.6758">IN: FilterOperator</text><ellipse cx="118.5" cy="232.9961" fill="none" rx="3" ry="3" style="stroke: #038048; stroke-width: 1.0;"/><text fill="#000000" font-family="sans-serif" font-size="11" lengthAdjust="spacingAndGlyphs" text-decoration="underline" textLength="123" x="127.5" y="236.6309">NOT_IN: FilterOperator</text><ellipse cx="118.5" cy="245.9512" fill="none" rx="3" ry="3" style="stroke: #038048; stroke-width: 1.0;"/><text fill="#000000" font-family="sans-serif" font-size="11" lengthAdjust="spacingAndGlyphs" text-decoration="underline" textLength="153" x="127.5" y="249.5859">GENERALIZES: FilterOperator</text><ellipse cx="118.5" cy="258.9063" fill="none" rx="3" ry="3" style="stroke: #038048; stroke-width: 1.0;"/><text fill="#000000" font-family="sans-serif" font-size="11" lengthAdjust="spacingAndGlyphs" text-decoration="underline" textLength="117" x="127.5" y="262.541">EXISTS: FilterOperator</text><line style="stroke: #A80036; stroke-width: 1.5;" x1="108.5" x2="306.5" y1="268.8613" y2="268.8613"/><ellipse cx="118.5" cy="279.8613" fill="#84BE84" rx="3" ry="3" style="stroke: #038048; stroke-width: 1.0;"/><text fill="#000000" font-family="sans-serif" font-size="11" lengthAdjust="spacingAndGlyphs" text-decoration="underline" textLength="146" x="127.5" y="283.4961">of(ValueSet): FilterOperator</text><ellipse cx="118.5" cy="292.8164" fill="#84BE84" rx="3" ry="3" style="stroke: #038048; stroke-width: 1.0;"/><text fill="#000000" font-family="sans-serif" font-size="11" lengthAdjust="spacingAndGlyphs" text-decoration="underline" textLength="133" x="127.5" y="296.4512">of(String): FilterOperator</text><ellipse cx="118.5" cy="305.7715" fill="#84BE84" rx="3" ry="3" style="stroke: #038048; stroke-width: 1.0;"/><text fill="#000000" font-family="sans-serif" font-size="11" lengthAdjust="spacingAndGlyphs" text-decoration="underline" textLength="110" x="127.5" y="309.4063">string(String): String</text><ellipse cx="118.5" cy="318.7266" fill="#84BE84" rx="3" ry="3" style="stroke: #038048; stroke-width: 1.0;"/><text fill="#000000" font-family="sans-serif" font-size="11" lengthAdjust="spacingAndGlyphs" text-decoration="underline" textLength="100" x="127.5" y="322.3613">code(String): Code</text><ellipse cx="118.5" cy="331.6816" fill="#84BE84" rx="3" ry="3" style="stroke: #038048; stroke-width: 1.0;"/><text fill="#000000" font-family="sans-serif" font-size="11" lengthAdjust="spacingAndGlyphs" textLength="99" x="127.5" y="335.3164">toBuilder(): Builder</text><ellipse cx="118.5" cy="344.6367" fill="#84BE84" rx="3" ry="3" style="stroke: #038048; stroke-width: 1.0;"/><text fill="#000000" font-family="sans-serif" font-size="11" lengthAdjust="spacingAndGlyphs" text-decoration="underline" textLength="89" x="127.5" y="348.2715">builder(): Builder</text></a><!--MD5=[36277681a3d78580011ae89cb2088b30]
class com.ibm.fhir.model.type.Code--><a href="../Code.html" target="_top" title="../Code.html" xlink:actuate="onRequest" xlink:href="../Code.html" xlink:show="new" xlink:title="../Code.html" xlink:type="simple"><rect fill="#FEFECE" filter="url(#fcc5wlkd87b08)" height="38.2656" id="com.ibm.fhir.model.type.Code" style="stroke: #A80036; stroke-width: 1.5;" width="150" x="132.5" y="8"/><ellipse cx="147.5" cy="27.1328" fill="#ADD1B2" rx="11" ry="11" style="stroke: #A80036; stroke-width: 1.0;"/><path d="M149.9731,33.2759 Q149.3921,33.5747 148.7529,33.7241 Q148.1138,33.8735 147.4082,33.8735 Q144.9014,33.8735 143.5815,32.2217 Q142.2617,30.5698 142.2617,27.4487 Q142.2617,24.3193 143.5815,22.6675 Q144.9014,21.0156 147.4082,21.0156 Q148.1138,21.0156 148.7612,21.165 Q149.4087,21.3145 149.9731,21.6133 L149.9731,24.3359 Q149.3423,23.7549 148.7488,23.4851 Q148.1553,23.2153 147.5244,23.2153 Q146.1797,23.2153 145.4949,24.282 Q144.8101,25.3486 144.8101,27.4487 Q144.8101,29.5405 145.4949,30.6072 Q146.1797,31.6738 147.5244,31.6738 Q148.1553,31.6738 148.7488,31.4041 Q149.3423,31.1343 149.9731,30.5532 Z "/><text fill="#000000" font-family="sans-serif" font-size="14" lengthAdjust="spacingAndGlyphs" textLength="36" x="202.5" y="26.5352">Code</text><text fill="#000000" font-family="sans-serif" font-size="10" lengthAdjust="spacingAndGlyphs" textLength="118" x="161.5" y="39.1563">com.ibm.fhir.model.type</text></a><!--MD5=[4aeb25ae515715297d40f75837de6023]
class com.ibm.fhir.model.type.code.FilterOperator.Builder--><a href="FilterOperator.Builder.html" target="_top" title="FilterOperator.Builder.html" xlink:actuate="onRequest" xlink:href="FilterOperator.Builder.html" xlink:show="new" xlink:title="FilterOperator.Builder.html" xlink:type="simple"><rect fill="#FEFECE" filter="url(#fcc5wlkd87b08)" height="38.2656" id="com.ibm.fhir.model.type.code.FilterOperator.Builder" style="stroke: #A80036; stroke-width: 1.5;" width="181" x="6" y="415"/><ellipse cx="21" cy="434.1328" fill="#ADD1B2" rx="11" ry="11" style="stroke: #A80036; stroke-width: 1.0;"/><path d="M23.4731,440.2759 Q22.8921,440.5747 22.2529,440.7241 Q21.6138,440.8735 20.9082,440.8735 Q18.4014,440.8735 17.0815,439.2217 Q15.7617,437.5698 15.7617,434.4487 Q15.7617,431.3193 17.0815,429.6675 Q18.4014,428.0156 20.9082,428.0156 Q21.6138,428.0156 22.2612,428.165 Q22.9087,428.3145 23.4731,428.6133 L23.4731,431.3359 Q22.8423,430.7549 22.2488,430.4851 Q21.6553,430.2153 21.0244,430.2153 Q19.6797,430.2153 18.9949,431.282 Q18.3101,432.3486 18.3101,434.4487 Q18.3101,436.5405 18.9949,437.6072 Q19.6797,438.6738 21.0244,438.6738 Q21.6553,438.6738 22.2488,438.4041 Q22.8423,438.1343 23.4731,437.5532 Z "/><text fill="#000000" font-family="sans-serif" font-size="14" lengthAdjust="spacingAndGlyphs" textLength="149" x="35" y="433.5352">FilterOperator.Builder</text><text fill="#000000" font-family="sans-serif" font-size="10" lengthAdjust="spacingAndGlyphs" textLength="144" x="37.5" y="446.1563">com.ibm.fhir.model.type.code</text></a><!--MD5=[94f7a3fc3c5eaf77dcbbe0a4dc4d2935]
class com.ibm.fhir.model.type.code.FilterOperator.ValueSet--><a href="FilterOperator.ValueSet.html" target="_top" title="FilterOperator.ValueSet.html" xlink:actuate="onRequest" xlink:href="FilterOperator.ValueSet.html" xlink:show="new" xlink:title="FilterOperator.ValueSet.html" xlink:type="simple"><rect fill="#FEFECE" filter="url(#fcc5wlkd87b08)" height="38.2656" id="com.ibm.fhir.model.type.code.FilterOperator.ValueSet" style="stroke: #A80036; stroke-width: 1.5;" width="192" x="222.5" y="415"/><ellipse cx="237.5" cy="434.1328" fill="#EB937F" rx="11" ry="11" style="stroke: #A80036; stroke-width: 1.0;"/><path d="M241.1143,440.6328 L233.3945,440.6328 L233.3945,428.2397 L241.1143,428.2397 L241.1143,430.3979 L235.8433,430.3979 L235.8433,433.0708 L240.6162,433.0708 L240.6162,435.229 L235.8433,435.229 L235.8433,438.4746 L241.1143,438.4746 Z "/><text fill="#000000" font-family="sans-serif" font-size="14" lengthAdjust="spacingAndGlyphs" textLength="160" x="251.5" y="433.5352">FilterOperator.ValueSet</text><text fill="#000000" font-family="sans-serif" font-size="10" lengthAdjust="spacingAndGlyphs" textLength="144" x="259.5" y="446.1563">com.ibm.fhir.model.type.code</text></a><!--MD5=[393a446df54e06b6ecb1be6f9a3788f7]
reverse link com.ibm.fhir.model.type.Code to com.ibm.fhir.model.type.code.FilterOperator--><path d="M207.5,66.1693 C207.5,77.9091 207.5,91.4661 207.5,105.6557 " fill="none" id="com.ibm.fhir.model.type.Code&lt;-com.ibm.fhir.model.type.code.FilterOperator" style="stroke: #A80036; stroke-width: 1.0;"/><polygon fill="none" points="200.5001,66.1448,207.5,46.1448,214.5001,66.1448,200.5001,66.1448" style="stroke: #A80036; stroke-width: 1.0;"/><!--MD5=[9e8c7cf5cc4399ce657643e62151dd8b]
reverse link com.ibm.fhir.model.type.code.FilterOperator to com.ibm.fhir.model.type.code.FilterOperator.Builder--><path d="M132.357,368.2622 C122.3946,386.5266 113.4017,403.0136 106.9138,414.9081 " fill="none" id="com.ibm.fhir.model.type.code.FilterOperator&lt;-com.ibm.fhir.model.type.code.FilterOperator.Builder" style="stroke: #A80036; stroke-width: 1.0;"/><ellipse cx="135.7436" cy="362.0534" fill="#FFFFFF" rx="8" ry="8" style="stroke: #A80036; stroke-width: 1.0;"/><line style="stroke: #A80036; stroke-width: 1.0;" x1="131.9127" x2="139.5744" y1="369.0766" y2="355.0303"/><line style="stroke: #A80036; stroke-width: 1.0;" x1="128.7204" x2="142.7667" y1="358.2226" y2="365.8843"/><!--MD5=[8d10cc2469dc7853737f6bd92887f5f9]
reverse link com.ibm.fhir.model.type.code.FilterOperator to com.ibm.fhir.model.type.code.FilterOperator.ValueSet--><path d="M282.643,368.2622 C292.6054,386.5266 301.5983,403.0136 308.0862,414.9081 " fill="none" id="com.ibm.fhir.model.type.code.FilterOperator&lt;-com.ibm.fhir.model.type.code.FilterOperator.ValueSet" style="stroke: #A80036; stroke-width: 1.0;"/><ellipse cx="279.2564" cy="362.0534" fill="#FFFFFF" rx="8" ry="8" style="stroke: #A80036; stroke-width: 1.0;"/><line style="stroke: #A80036; stroke-width: 1.0;" x1="283.0873" x2="275.4256" y1="369.0766" y2="355.0303"/><line style="stroke: #A80036; stroke-width: 1.0;" x1="272.2333" x2="286.2796" y1="365.8843" y2="358.2226"/><text fill="#888888" font-family="sans-serif" font-size="10" lengthAdjust="spacingAndGlyphs" textLength="182" x="125.5" y="472.668">UMLDoclet 2.0.7, PlantUML 1.2019.12</text><!--MD5=[8a1980aabb7d6d525e10a36b68b4e8c3]
@startuml
    set namespaceSeparator none
    hide empty fields
    hide empty methods

    class "<size:14>FilterOperator\n<size:10>com.ibm.fhir.model.type.code" as com.ibm.fhir.model.type.code.FilterOperator [[FilterOperator.html]] {
        {static} +EQUALS: FilterOperator
        {static} +IS_A: FilterOperator
        {static} +DESCENDENT_OF: FilterOperator
        {static} +IS_NOT_A: FilterOperator
        {static} +REGEX: FilterOperator
        {static} +IN: FilterOperator
        {static} +NOT_IN: FilterOperator
        {static} +GENERALIZES: FilterOperator
        {static} +EXISTS: FilterOperator
        {static} +of(ValueSet): FilterOperator
        {static} +of(String): FilterOperator
        {static} +string(String): String
        {static} +code(String): Code
        +toBuilder(): Builder
        {static} +builder(): Builder
    }

    class "<size:14>Code\n<size:10>com.ibm.fhir.model.type" as com.ibm.fhir.model.type.Code [[../Code.html]]
    class "<size:14>FilterOperator.Builder\n<size:10>com.ibm.fhir.model.type.code" as com.ibm.fhir.model.type.code.FilterOperator.Builder [[FilterOperator.Builder.html]]
    enum "<size:14>FilterOperator.ValueSet\n<size:10>com.ibm.fhir.model.type.code" as com.ibm.fhir.model.type.code.FilterOperator.ValueSet [[FilterOperator.ValueSet.html]]

    com.ibm.fhir.model.type.Code <|- - com.ibm.fhir.model.type.code.FilterOperator
    com.ibm.fhir.model.type.code.FilterOperator +- - com.ibm.fhir.model.type.code.FilterOperator.Builder
    com.ibm.fhir.model.type.code.FilterOperator +- - com.ibm.fhir.model.type.code.FilterOperator.ValueSet

    center footer UMLDoclet 2.0.7, PlantUML 1.2019.12
@enduml

PlantUML version 1.2019.12(Sun Nov 03 05:24:54 EST 2019)
(APACHE source distribution)
Java Runtime: OpenJDK Runtime Environment
JVM: OpenJDK 64-Bit Server VM
Java Version: 11.0.4+11
Operating System: Mac OS X
Default Encoding: UTF-8
Language: en
Country: US
--></g></svg>