<?xml version="1.0" encoding="UTF-8" standalone="no"?><svg xmlns="http://www.w3.org/2000/svg" xmlns:xlink="http://www.w3.org/1999/xlink" contentScriptType="application/ecmascript" contentStyleType="text/css" height="297px" preserveAspectRatio="none" style="width:213px;height:297px;" version="1.1" viewBox="0 0 213 297" width="213px" zoomAndPan="magnify"><defs><filter height="300%" id="fghj7f7cswzed" width="300%" x="-1" y="-1"><feGaussianBlur result="blurOut" stdDeviation="2.0"/><feColorMatrix in="blurOut" result="blurOut2" type="matrix" values="0 0 0 0 0 0 0 0 0 0 0 0 0 0 0 0 0 0 .4 0"/><feOffset dx="4.0" dy="4.0" in="blurOut2" result="blurOut3"/><feBlend in="SourceGraphic" in2="blurOut3" mode="normal"/></filter></defs><g><!--MD5=[0ab6dbfd496d6c73118a146562fa1ffa]
class com.ibm.fhir.model.type.code.GroupMeasure.ValueSet--><a href="GroupMeasure.ValueSet.html" target="_top" title="GroupMeasure.ValueSet.html" xlink:actuate="onRequest" xlink:href="GroupMeasure.ValueSet.html" xlink:show="new" xlink:title="GroupMeasure.ValueSet.html" xlink:type="simple"><rect fill="#FEFECE" filter="url(#fghj7f7cswzed)" height="157.9063" id="com.ibm.fhir.model.type.code.GroupMeasure.ValueSet" style="stroke: #A80036; stroke-width: 1.5;" width="196" x="6" y="106"/><ellipse cx="21" cy="125.1328" fill="#EB937F" rx="11" ry="11" style="stroke: #A80036; stroke-width: 1.0;"/><path d="M24.6143,131.6328 L16.8945,131.6328 L16.8945,119.2397 L24.6143,119.2397 L24.6143,121.3979 L19.3433,121.3979 L19.3433,124.0708 L24.1162,124.0708 L24.1162,126.229 L19.3433,126.229 L19.3433,129.4746 L24.6143,129.4746 Z "/><text fill="#000000" font-family="sans-serif" font-size="14" lengthAdjust="spacingAndGlyphs" textLength="164" x="35" y="124.5352">GroupMeasure.ValueSet</text><text fill="#000000" font-family="sans-serif" font-size="10" lengthAdjust="spacingAndGlyphs" textLength="144" x="45" y="137.1563">com.ibm.fhir.model.type.code</text><line style="stroke: #A80036; stroke-width: 1.5;" x1="7" x2="201" y1="144.2656" y2="144.2656"/><ellipse cx="17" cy="155.2656" fill="none" rx="3" ry="3" style="stroke: #038048; stroke-width: 1.0;"/><text fill="#000000" font-family="sans-serif" font-size="11" lengthAdjust="spacingAndGlyphs" text-decoration="underline" textLength="31" x="26" y="158.9004">MEAN</text><ellipse cx="17" cy="168.2207" fill="none" rx="3" ry="3" style="stroke: #038048; stroke-width: 1.0;"/><text fill="#000000" font-family="sans-serif" font-size="11" lengthAdjust="spacingAndGlyphs" text-decoration="underline" textLength="42" x="26" y="171.8555">MEDIAN</text><ellipse cx="17" cy="181.1758" fill="none" rx="3" ry="3" style="stroke: #038048; stroke-width: 1.0;"/><text fill="#000000" font-family="sans-serif" font-size="11" lengthAdjust="spacingAndGlyphs" text-decoration="underline" textLength="89" x="26" y="184.8105">MEAN_OF_MEAN</text><ellipse cx="17" cy="194.1309" fill="none" rx="3" ry="3" style="stroke: #038048; stroke-width: 1.0;"/><text fill="#000000" font-family="sans-serif" font-size="11" lengthAdjust="spacingAndGlyphs" text-decoration="underline" textLength="100" x="26" y="197.7656">MEAN_OF_MEDIAN</text><ellipse cx="17" cy="207.0859" fill="none" rx="3" ry="3" style="stroke: #038048; stroke-width: 1.0;"/><text fill="#000000" font-family="sans-serif" font-size="11" lengthAdjust="spacingAndGlyphs" text-decoration="underline" textLength="100" x="26" y="210.7207">MEDIAN_OF_MEAN</text><ellipse cx="17" cy="220.041" fill="none" rx="3" ry="3" style="stroke: #038048; stroke-width: 1.0;"/><text fill="#000000" font-family="sans-serif" font-size="11" lengthAdjust="spacingAndGlyphs" text-decoration="underline" textLength="111" x="26" y="223.6758">MEDIAN_OF_MEDIAN</text><line style="stroke: #A80036; stroke-width: 1.5;" x1="7" x2="201" y1="229.9961" y2="229.9961"/><ellipse cx="17" cy="240.9961" fill="#84BE84" rx="3" ry="3" style="stroke: #038048; stroke-width: 1.0;"/><text fill="#000000" font-family="sans-serif" font-size="11" lengthAdjust="spacingAndGlyphs" textLength="74" x="26" y="244.6309">value(): String</text><ellipse cx="17" cy="253.9512" fill="#84BE84" rx="3" ry="3" style="stroke: #038048; stroke-width: 1.0;"/><text fill="#000000" font-family="sans-serif" font-size="11" lengthAdjust="spacingAndGlyphs" text-decoration="underline" textLength="117" x="26" y="257.5859">from(String): ValueSet</text></a><!--MD5=[17be678a8783a0a8e1f5f959aecfa871]
class com.ibm.fhir.model.type.code.GroupMeasure--><a href="GroupMeasure.html" target="_top" title="GroupMeasure.html" xlink:actuate="onRequest" xlink:href="GroupMeasure.html" xlink:show="new" xlink:title="GroupMeasure.html" xlink:type="simple"><rect fill="#FEFECE" filter="url(#fghj7f7cswzed)" height="38.2656" id="com.ibm.fhir.model.type.code.GroupMeasure" style="stroke: #A80036; stroke-width: 1.5;" width="176" x="16" y="8"/><ellipse cx="31" cy="27.1328" fill="#ADD1B2" rx="11" ry="11" style="stroke: #A80036; stroke-width: 1.0;"/><path d="M33.4731,33.2759 Q32.8921,33.5747 32.2529,33.7241 Q31.6138,33.8735 30.9082,33.8735 Q28.4014,33.8735 27.0815,32.2217 Q25.7617,30.5698 25.7617,27.4487 Q25.7617,24.3193 27.0815,22.6675 Q28.4014,21.0156 30.9082,21.0156 Q31.6138,21.0156 32.2612,21.165 Q32.9087,21.3145 33.4731,21.6133 L33.4731,24.3359 Q32.8423,23.7549 32.2488,23.4851 Q31.6553,23.2153 31.0244,23.2153 Q29.6797,23.2153 28.9949,24.282 Q28.3101,25.3486 28.3101,27.4487 Q28.3101,29.5405 28.9949,30.6072 Q29.6797,31.6738 31.0244,31.6738 Q31.6553,31.6738 32.2488,31.4041 Q32.8423,31.1343 33.4731,30.5532 Z "/><text fill="#000000" font-family="sans-serif" font-size="14" lengthAdjust="spacingAndGlyphs" textLength="101" x="66.5" y="26.5352">GroupMeasure</text><text fill="#000000" font-family="sans-serif" font-size="10" lengthAdjust="spacingAndGlyphs" textLength="144" x="45" y="39.1563">com.ibm.fhir.model.type.code</text></a><!--MD5=[7456187a7a552a5f082df9300f1a80f9]
reverse link com.ibm.fhir.model.type.code.GroupMeasure to com.ibm.fhir.model.type.code.GroupMeasure.ValueSet--><path d="M104,61.2895 C104,74.5141 104,90.2309 104,105.9503 " fill="none" id="com.ibm.fhir.model.type.code.GroupMeasure&lt;-com.ibm.fhir.model.type.code.GroupMeasure.ValueSet" style="stroke: #A80036; stroke-width: 1.0;"/><ellipse cx="104" cy="54.0585" fill="#FFFFFF" rx="8" ry="8" style="stroke: #A80036; stroke-width: 1.0;"/><line style="stroke: #A80036; stroke-width: 1.0;" x1="104" x2="104" y1="62.0585" y2="46.0585"/><line style="stroke: #A80036; stroke-width: 1.0;" x1="96" x2="112" y1="54.0585" y2="54.0585"/><text fill="#888888" font-family="sans-serif" font-size="10" lengthAdjust="spacingAndGlyphs" textLength="182" x="19" y="283.668">UMLDoclet 2.0.7, PlantUML 1.2019.12</text><!--MD5=[ae6b5db7fcab40e2080ab20958152091]
@startuml
    set namespaceSeparator none
    hide empty fields
    hide empty methods

    enum "<size:14>GroupMeasure.ValueSet\n<size:10>com.ibm.fhir.model.type.code" as com.ibm.fhir.model.type.code.GroupMeasure.ValueSet [[GroupMeasure.ValueSet.html]] {
        {static} +MEAN
        {static} +MEDIAN
        {static} +MEAN_OF_MEAN
        {static} +MEAN_OF_MEDIAN
        {static} +MEDIAN_OF_MEAN
        {static} +MEDIAN_OF_MEDIAN
        +value(): String
        {static} +from(String): ValueSet
    }

    class "<size:14>GroupMeasure\n<size:10>com.ibm.fhir.model.type.code" as com.ibm.fhir.model.type.code.GroupMeasure [[GroupMeasure.html]]

    com.ibm.fhir.model.type.code.GroupMeasure +- - com.ibm.fhir.model.type.code.GroupMeasure.ValueSet

    center footer UMLDoclet 2.0.7, PlantUML 1.2019.12
@enduml

PlantUML version 1.2019.12(Sun Nov 03 05:24:54 EST 2019)
(APACHE source distribution)
Java Runtime: OpenJDK Runtime Environment
JVM: OpenJDK 64-Bit Server VM
Java Version: 11.0.4+11
Operating System: Mac OS X
Default Encoding: UTF-8
Language: en
Country: US
--></g></svg>