<?xml version="1.0" encoding="UTF-8" standalone="no"?><svg xmlns="http://www.w3.org/2000/svg" xmlns:xlink="http://www.w3.org/1999/xlink" contentScriptType="application/ecmascript" contentStyleType="text/css" height="271px" preserveAspectRatio="none" style="width:249px;height:271px;" version="1.1" viewBox="0 0 249 271" width="249px" zoomAndPan="magnify"><defs><filter height="300%" id="fk2rfedu6skej" width="300%" x="-1" y="-1"><feGaussianBlur result="blurOut" stdDeviation="2.0"/><feColorMatrix in="blurOut" result="blurOut2" type="matrix" values="0 0 0 0 0 0 0 0 0 0 0 0 0 0 0 0 0 0 .4 0"/><feOffset dx="4.0" dy="4.0" in="blurOut2" result="blurOut3"/><feBlend in="SourceGraphic" in2="blurOut3" mode="normal"/></filter></defs><g><!--MD5=[ed6a52e630ea06e38bf0c0efa03c8656]
class com.ibm.fhir.model.type.code.MeasureReportType.ValueSet--><a href="MeasureReportType.ValueSet.html" target="_top" title="MeasureReportType.ValueSet.html" xlink:actuate="onRequest" xlink:href="MeasureReportType.ValueSet.html" xlink:show="new" xlink:title="MeasureReportType.ValueSet.html" xlink:type="simple"><rect fill="#FEFECE" filter="url(#fk2rfedu6skej)" height="131.9961" id="com.ibm.fhir.model.type.code.MeasureReportType.ValueSet" style="stroke: #A80036; stroke-width: 1.5;" width="232" x="6" y="106"/><ellipse cx="21" cy="125.1328" fill="#EB937F" rx="11" ry="11" style="stroke: #A80036; stroke-width: 1.0;"/><path d="M24.6143,131.6328 L16.8945,131.6328 L16.8945,119.2397 L24.6143,119.2397 L24.6143,121.3979 L19.3433,121.3979 L19.3433,124.0708 L24.1162,124.0708 L24.1162,126.229 L19.3433,126.229 L19.3433,129.4746 L24.6143,129.4746 Z "/><text fill="#000000" font-family="sans-serif" font-size="14" lengthAdjust="spacingAndGlyphs" textLength="200" x="35" y="124.5352">MeasureReportType.ValueSet</text><text fill="#000000" font-family="sans-serif" font-size="10" lengthAdjust="spacingAndGlyphs" textLength="144" x="63" y="137.1563">com.ibm.fhir.model.type.code</text><line style="stroke: #A80036; stroke-width: 1.5;" x1="7" x2="237" y1="144.2656" y2="144.2656"/><ellipse cx="17" cy="155.2656" fill="none" rx="3" ry="3" style="stroke: #038048; stroke-width: 1.0;"/><text fill="#000000" font-family="sans-serif" font-size="11" lengthAdjust="spacingAndGlyphs" text-decoration="underline" textLength="62" x="26" y="158.9004">INDIVIDUAL</text><ellipse cx="17" cy="168.2207" fill="none" rx="3" ry="3" style="stroke: #038048; stroke-width: 1.0;"/><text fill="#000000" font-family="sans-serif" font-size="11" lengthAdjust="spacingAndGlyphs" text-decoration="underline" textLength="72" x="26" y="171.8555">SUBJECT_LIST</text><ellipse cx="17" cy="181.1758" fill="none" rx="3" ry="3" style="stroke: #038048; stroke-width: 1.0;"/><text fill="#000000" font-family="sans-serif" font-size="11" lengthAdjust="spacingAndGlyphs" text-decoration="underline" textLength="54" x="26" y="184.8105">SUMMARY</text><ellipse cx="17" cy="194.1309" fill="none" rx="3" ry="3" style="stroke: #038048; stroke-width: 1.0;"/><text fill="#000000" font-family="sans-serif" font-size="11" lengthAdjust="spacingAndGlyphs" text-decoration="underline" textLength="107" x="26" y="197.7656">DATA_COLLECTION</text><line style="stroke: #A80036; stroke-width: 1.5;" x1="7" x2="237" y1="204.0859" y2="204.0859"/><ellipse cx="17" cy="215.0859" fill="#84BE84" rx="3" ry="3" style="stroke: #038048; stroke-width: 1.0;"/><text fill="#000000" font-family="sans-serif" font-size="11" lengthAdjust="spacingAndGlyphs" textLength="74" x="26" y="218.7207">value(): String</text><ellipse cx="17" cy="228.041" fill="#84BE84" rx="3" ry="3" style="stroke: #038048; stroke-width: 1.0;"/><text fill="#000000" font-family="sans-serif" font-size="11" lengthAdjust="spacingAndGlyphs" text-decoration="underline" textLength="117" x="26" y="231.6758">from(String): ValueSet</text></a><!--MD5=[bc0278998fd49183d2d7b5c4cf6b73b4]
class com.ibm.fhir.model.type.code.MeasureReportType--><a href="MeasureReportType.html" target="_top" title="MeasureReportType.html" xlink:actuate="onRequest" xlink:href="MeasureReportType.html" xlink:show="new" xlink:title="MeasureReportType.html" xlink:type="simple"><rect fill="#FEFECE" filter="url(#fk2rfedu6skej)" height="38.2656" id="com.ibm.fhir.model.type.code.MeasureReportType" style="stroke: #A80036; stroke-width: 1.5;" width="176" x="34" y="8"/><ellipse cx="49" cy="27.1328" fill="#ADD1B2" rx="11" ry="11" style="stroke: #A80036; stroke-width: 1.0;"/><path d="M51.4731,33.2759 Q50.8921,33.5747 50.2529,33.7241 Q49.6138,33.8735 48.9082,33.8735 Q46.4014,33.8735 45.0815,32.2217 Q43.7617,30.5698 43.7617,27.4487 Q43.7617,24.3193 45.0815,22.6675 Q46.4014,21.0156 48.9082,21.0156 Q49.6138,21.0156 50.2612,21.165 Q50.9087,21.3145 51.4731,21.6133 L51.4731,24.3359 Q50.8423,23.7549 50.2488,23.4851 Q49.6553,23.2153 49.0244,23.2153 Q47.6797,23.2153 46.9949,24.282 Q46.3101,25.3486 46.3101,27.4487 Q46.3101,29.5405 46.9949,30.6072 Q47.6797,31.6738 49.0244,31.6738 Q49.6553,31.6738 50.2488,31.4041 Q50.8423,31.1343 51.4731,30.5532 Z "/><text fill="#000000" font-family="sans-serif" font-size="14" lengthAdjust="spacingAndGlyphs" textLength="137" x="66.5" y="26.5352">MeasureReportType</text><text fill="#000000" font-family="sans-serif" font-size="10" lengthAdjust="spacingAndGlyphs" textLength="144" x="63" y="39.1563">com.ibm.fhir.model.type.code</text></a><!--MD5=[30909a2574e0fd5837db7878d626c87a]
reverse link com.ibm.fhir.model.type.code.MeasureReportType to com.ibm.fhir.model.type.code.MeasureReportType.ValueSet--><path d="M122,61.6599 C122,74.9864 122,90.6829 122,105.9905 " fill="none" id="com.ibm.fhir.model.type.code.MeasureReportType&lt;-com.ibm.fhir.model.type.code.MeasureReportType.ValueSet" style="stroke: #A80036; stroke-width: 1.0;"/><ellipse cx="122.0001" cy="54.2549" fill="#FFFFFF" rx="8" ry="8" style="stroke: #A80036; stroke-width: 1.0;"/><line style="stroke: #A80036; stroke-width: 1.0;" x1="122.0002" x2="122" y1="62.2549" y2="46.2549"/><line style="stroke: #A80036; stroke-width: 1.0;" x1="114.0001" x2="130.0001" y1="54.255" y2="54.2548"/><text fill="#888888" font-family="sans-serif" font-size="10" lengthAdjust="spacingAndGlyphs" textLength="182" x="37" y="257.668">UMLDoclet 2.0.7, PlantUML 1.2019.12</text><!--MD5=[9e660d3abea1fb286904e7a960f90e41]
@startuml
    set namespaceSeparator none
    hide empty fields
    hide empty methods

    enum "<size:14>MeasureReportType.ValueSet\n<size:10>com.ibm.fhir.model.type.code" as com.ibm.fhir.model.type.code.MeasureReportType.ValueSet [[MeasureReportType.ValueSet.html]] {
        {static} +INDIVIDUAL
        {static} +SUBJECT_LIST
        {static} +SUMMARY
        {static} +DATA_COLLECTION
        +value(): String
        {static} +from(String): ValueSet
    }

    class "<size:14>MeasureReportType\n<size:10>com.ibm.fhir.model.type.code" as com.ibm.fhir.model.type.code.MeasureReportType [[MeasureReportType.html]]

    com.ibm.fhir.model.type.code.MeasureReportType +- - com.ibm.fhir.model.type.code.MeasureReportType.ValueSet

    center footer UMLDoclet 2.0.7, PlantUML 1.2019.12
@enduml

PlantUML version 1.2019.12(Sun Nov 03 05:24:54 EST 2019)
(APACHE source distribution)
Java Runtime: OpenJDK Runtime Environment
JVM: OpenJDK 64-Bit Server VM
Java Version: 11.0.4+11
Operating System: Mac OS X
Default Encoding: UTF-8
Language: en
Country: US
--></g></svg>