<?xml version="1.0" encoding="UTF-8" standalone="no"?><svg xmlns="http://www.w3.org/2000/svg" xmlns:xlink="http://www.w3.org/1999/xlink" contentScriptType="application/ecmascript" contentStyleType="text/css" height="263px" preserveAspectRatio="none" style="width:463px;height:263px;" version="1.1" viewBox="0 0 463 263" width="463px" zoomAndPan="magnify"><defs><filter height="300%" id="f17guudmqlrxbg" width="300%" x="-1" y="-1"><feGaussianBlur result="blurOut" stdDeviation="2.0"/><feColorMatrix in="blurOut" result="blurOut2" type="matrix" values="0 0 0 0 0 0 0 0 0 0 0 0 0 0 0 0 0 0 .4 0"/><feOffset dx="4.0" dy="4.0" in="blurOut2" result="blurOut3"/><feBlend in="SourceGraphic" in2="blurOut3" mode="normal"/></filter></defs><g><!--MD5=[b36c486ece6f504ef4d3b5e39d74e3aa]
class com.ibm.fhir.model.type.code.MessageHeaderResponseRequest.Builder--><a href="MessageHeaderResponseRequest.Builder.html" target="_top" title="MessageHeaderResponseRequest.Builder.html" xlink:actuate="onRequest" xlink:href="MessageHeaderResponseRequest.Builder.html" xlink:show="new" xlink:title="MessageHeaderResponseRequest.Builder.html" xlink:type="simple"><rect fill="#FEFECE" filter="url(#f17guudmqlrxbg)" height="123.9961" id="com.ibm.fhir.model.type.code.MessageHeaderResponseRequest.Builder" style="stroke: #A80036; stroke-width: 1.5;" width="313" x="44.5" y="106"/><ellipse cx="59.5" cy="125.1328" fill="#ADD1B2" rx="11" ry="11" style="stroke: #A80036; stroke-width: 1.0;"/><path d="M61.9731,131.2759 Q61.3921,131.5747 60.7529,131.7241 Q60.1138,131.8735 59.4082,131.8735 Q56.9014,131.8735 55.5815,130.2217 Q54.2617,128.5698 54.2617,125.4487 Q54.2617,122.3193 55.5815,120.6675 Q56.9014,119.0156 59.4082,119.0156 Q60.1138,119.0156 60.7612,119.165 Q61.4087,119.3145 61.9731,119.6133 L61.9731,122.3359 Q61.3423,121.7549 60.7488,121.4851 Q60.1553,121.2153 59.5244,121.2153 Q58.1797,121.2153 57.4949,122.282 Q56.8101,123.3486 56.8101,125.4487 Q56.8101,127.5405 57.4949,128.6072 Q58.1797,129.6738 59.5244,129.6738 Q60.1553,129.6738 60.7488,129.4041 Q61.3423,129.1343 61.9731,128.5532 Z "/><text fill="#000000" font-family="sans-serif" font-size="14" lengthAdjust="spacingAndGlyphs" textLength="281" x="73.5" y="124.5352">MessageHeaderResponseRequest.Builder</text><text fill="#000000" font-family="sans-serif" font-size="10" lengthAdjust="spacingAndGlyphs" textLength="144" x="142" y="137.1563">com.ibm.fhir.model.type.code</text><line style="stroke: #A80036; stroke-width: 1.5;" x1="45.5" x2="356.5" y1="144.2656" y2="144.2656"/><ellipse cx="55.5" cy="155.2656" fill="#84BE84" rx="3" ry="3" style="stroke: #038048; stroke-width: 1.0;"/><text fill="#000000" font-family="sans-serif" font-size="11" lengthAdjust="spacingAndGlyphs" textLength="93" x="64.5" y="158.9004">id(String): Builder</text><ellipse cx="55.5" cy="168.2207" fill="#84BE84" rx="3" ry="3" style="stroke: #038048; stroke-width: 1.0;"/><text fill="#000000" font-family="sans-serif" font-size="11" lengthAdjust="spacingAndGlyphs" textLength="166" x="64.5" y="171.8555">extension(Extension...): Builder</text><ellipse cx="55.5" cy="181.1758" fill="#84BE84" rx="3" ry="3" style="stroke: #038048; stroke-width: 1.0;"/><text fill="#000000" font-family="sans-serif" font-size="11" lengthAdjust="spacingAndGlyphs" textLength="229" x="64.5" y="184.8105">extension(Collection&lt;Extension&gt;): Builder</text><ellipse cx="55.5" cy="194.1309" fill="#84BE84" rx="3" ry="3" style="stroke: #038048; stroke-width: 1.0;"/><text fill="#000000" font-family="sans-serif" font-size="11" lengthAdjust="spacingAndGlyphs" textLength="111" x="64.5" y="197.7656">value(String): Builder</text><ellipse cx="55.5" cy="207.0859" fill="#84BE84" rx="3" ry="3" style="stroke: #038048; stroke-width: 1.0;"/><text fill="#000000" font-family="sans-serif" font-size="11" lengthAdjust="spacingAndGlyphs" textLength="124" x="64.5" y="210.7207">value(ValueSet): Builder</text><ellipse cx="55.5" cy="220.041" fill="#84BE84" rx="3" ry="3" style="stroke: #038048; stroke-width: 1.0;"/><text fill="#000000" font-family="sans-serif" font-size="11" lengthAdjust="spacingAndGlyphs" textLength="220" x="64.5" y="223.6758">build(): MessageHeaderResponseRequest</text></a><!--MD5=[d58206fe609464c205fa3b8b97dbba54]
class com.ibm.fhir.model.type.Code.Builder--><a href="../Code.Builder.html" target="_top" title="../Code.Builder.html" xlink:actuate="onRequest" xlink:href="../Code.Builder.html" xlink:show="new" xlink:title="../Code.Builder.html" xlink:type="simple"><rect fill="#FEFECE" filter="url(#f17guudmqlrxbg)" height="38.2656" id="com.ibm.fhir.model.type.Code.Builder" style="stroke: #A80036; stroke-width: 1.5;" width="150" x="6" y="8"/><ellipse cx="21" cy="27.1328" fill="#ADD1B2" rx="11" ry="11" style="stroke: #A80036; stroke-width: 1.0;"/><path d="M23.4731,33.2759 Q22.8921,33.5747 22.2529,33.7241 Q21.6138,33.8735 20.9082,33.8735 Q18.4014,33.8735 17.0815,32.2217 Q15.7617,30.5698 15.7617,27.4487 Q15.7617,24.3193 17.0815,22.6675 Q18.4014,21.0156 20.9082,21.0156 Q21.6138,21.0156 22.2612,21.165 Q22.9087,21.3145 23.4731,21.6133 L23.4731,24.3359 Q22.8423,23.7549 22.2488,23.4851 Q21.6553,23.2153 21.0244,23.2153 Q19.6797,23.2153 18.9949,24.282 Q18.3101,25.3486 18.3101,27.4487 Q18.3101,29.5405 18.9949,30.6072 Q19.6797,31.6738 21.0244,31.6738 Q21.6553,31.6738 22.2488,31.4041 Q22.8423,31.1343 23.4731,30.5532 Z "/><text fill="#000000" font-family="sans-serif" font-size="14" lengthAdjust="spacingAndGlyphs" textLength="88" x="50" y="26.5352">Code.Builder</text><text fill="#000000" font-family="sans-serif" font-size="10" lengthAdjust="spacingAndGlyphs" textLength="118" x="35" y="39.1563">com.ibm.fhir.model.type</text></a><!--MD5=[b80235bc4db28f562c4f6bc46593565f]
class com.ibm.fhir.model.type.code.MessageHeaderResponseRequest--><a href="MessageHeaderResponseRequest.html" target="_top" title="MessageHeaderResponseRequest.html" xlink:actuate="onRequest" xlink:href="MessageHeaderResponseRequest.html" xlink:show="new" xlink:title="MessageHeaderResponseRequest.html" xlink:type="simple"><rect fill="#FEFECE" filter="url(#f17guudmqlrxbg)" height="38.2656" id="com.ibm.fhir.model.type.code.MessageHeaderResponseRequest" style="stroke: #A80036; stroke-width: 1.5;" width="261" x="191.5" y="8"/><ellipse cx="206.5" cy="27.1328" fill="#ADD1B2" rx="11" ry="11" style="stroke: #A80036; stroke-width: 1.0;"/><path d="M208.9731,33.2759 Q208.3921,33.5747 207.7529,33.7241 Q207.1138,33.8735 206.4082,33.8735 Q203.9014,33.8735 202.5815,32.2217 Q201.2617,30.5698 201.2617,27.4487 Q201.2617,24.3193 202.5815,22.6675 Q203.9014,21.0156 206.4082,21.0156 Q207.1138,21.0156 207.7612,21.165 Q208.4087,21.3145 208.9731,21.6133 L208.9731,24.3359 Q208.3423,23.7549 207.7488,23.4851 Q207.1553,23.2153 206.5244,23.2153 Q205.1797,23.2153 204.4949,24.282 Q203.8101,25.3486 203.8101,27.4487 Q203.8101,29.5405 204.4949,30.6072 Q205.1797,31.6738 206.5244,31.6738 Q207.1553,31.6738 207.7488,31.4041 Q208.3423,31.1343 208.9731,30.5532 Z "/><text fill="#000000" font-family="sans-serif" font-size="14" lengthAdjust="spacingAndGlyphs" textLength="229" x="220.5" y="26.5352">MessageHeaderResponseRequest</text><text fill="#000000" font-family="sans-serif" font-size="10" lengthAdjust="spacingAndGlyphs" textLength="144" x="263" y="39.1563">com.ibm.fhir.model.type.code</text></a><!--MD5=[2896e648df36df787c29adeefd3097bb]
reverse link com.ibm.fhir.model.type.Code.Builder to com.ibm.fhir.model.type.code.MessageHeaderResponseRequest.Builder--><path d="M110.3742,61.5147 C121.7879,74.9258 135.2218,90.7107 148.1998,105.9598 " fill="none" id="com.ibm.fhir.model.type.Code.Builder&lt;-com.ibm.fhir.model.type.code.MessageHeaderResponseRequest.Builder" style="stroke: #A80036; stroke-width: 1.0;"/><polygon fill="none" points="104.8154,65.7835,97.1837,46.0159,115.4769,56.7099,104.8154,65.7835" style="stroke: #A80036; stroke-width: 1.0;"/><!--MD5=[6f0c638e899472687121f5905238df15]
reverse link com.ibm.fhir.model.type.code.MessageHeaderResponseRequest to com.ibm.fhir.model.type.code.MessageHeaderResponseRequest.Builder--><path d="M295.77,57.5655 C283.5859,71.7635 268.6349,89.1857 254.2402,105.9598 " fill="none" id="com.ibm.fhir.model.type.code.MessageHeaderResponseRequest&lt;-com.ibm.fhir.model.type.code.MessageHeaderResponseRequest.Builder" style="stroke: #A80036; stroke-width: 1.0;"/><ellipse cx="300.4715" cy="52.0869" fill="#FFFFFF" rx="8" ry="8" style="stroke: #A80036; stroke-width: 1.0;"/><line style="stroke: #A80036; stroke-width: 1.0;" x1="295.2617" x2="305.6814" y1="58.158" y2="46.0159"/><line style="stroke: #A80036; stroke-width: 1.0;" x1="294.4005" x2="306.5426" y1="46.8771" y2="57.2968"/><text fill="#888888" font-family="sans-serif" font-size="10" lengthAdjust="spacingAndGlyphs" textLength="182" x="144.5" y="249.668">UMLDoclet 2.0.7, PlantUML 1.2019.12</text><!--MD5=[ab1a9ec0d9e02ae19e9b70d5a32049fa]
@startuml
    set namespaceSeparator none
    hide empty fields
    hide empty methods

    class "<size:14>MessageHeaderResponseRequest.Builder\n<size:10>com.ibm.fhir.model.type.code" as com.ibm.fhir.model.type.code.MessageHeaderResponseRequest.Builder [[MessageHeaderResponseRequest.Builder.html]] {
        +id(String): Builder
        +extension(Extension...): Builder
        +extension(Collection<Extension>): Builder
        +value(String): Builder
        +value(ValueSet): Builder
        +build(): MessageHeaderResponseRequest
    }

    class "<size:14>Code.Builder\n<size:10>com.ibm.fhir.model.type" as com.ibm.fhir.model.type.Code.Builder [[../Code.Builder.html]]
    class "<size:14>MessageHeaderResponseRequest\n<size:10>com.ibm.fhir.model.type.code" as com.ibm.fhir.model.type.code.MessageHeaderResponseRequest [[MessageHeaderResponseRequest.html]]

    com.ibm.fhir.model.type.Code.Builder <|- - com.ibm.fhir.model.type.code.MessageHeaderResponseRequest.Builder
    com.ibm.fhir.model.type.code.MessageHeaderResponseRequest +- - com.ibm.fhir.model.type.code.MessageHeaderResponseRequest.Builder

    center footer UMLDoclet 2.0.7, PlantUML 1.2019.12
@enduml

PlantUML version 1.2019.12(Sun Nov 03 05:24:54 EST 2019)
(APACHE source distribution)
Java Runtime: OpenJDK Runtime Environment
JVM: OpenJDK 64-Bit Server VM
Java Version: 11.0.4+11
Operating System: Mac OS X
Default Encoding: UTF-8
Language: en
Country: US
--></g></svg>