<?xml version="1.0" encoding="UTF-8" standalone="no"?><svg xmlns="http://www.w3.org/2000/svg" xmlns:xlink="http://www.w3.org/1999/xlink" contentScriptType="application/ecmascript" contentStyleType="text/css" height="263px" preserveAspectRatio="none" style="width:386px;height:263px;" version="1.1" viewBox="0 0 386 263" width="386px" zoomAndPan="magnify"><defs><filter height="300%" id="f5k3j8gr0p0dg" width="300%" x="-1" y="-1"><feGaussianBlur result="blurOut" stdDeviation="2.0"/><feColorMatrix in="blurOut" result="blurOut2" type="matrix" values="0 0 0 0 0 0 0 0 0 0 0 0 0 0 0 0 0 0 .4 0"/><feOffset dx="4.0" dy="4.0" in="blurOut2" result="blurOut3"/><feBlend in="SourceGraphic" in2="blurOut3" mode="normal"/></filter></defs><g><!--MD5=[b43c16649d8db33c4b5d3a71f73dbc3a]
class com.ibm.fhir.model.type.code.ServiceRequestPriority.Builder--><a href="ServiceRequestPriority.Builder.html" target="_top" title="ServiceRequestPriority.Builder.html" xlink:actuate="onRequest" xlink:href="ServiceRequestPriority.Builder.html" xlink:show="new" xlink:title="ServiceRequestPriority.Builder.html" xlink:type="simple"><rect fill="#FEFECE" filter="url(#f5k3j8gr0p0dg)" height="123.9961" id="com.ibm.fhir.model.type.code.ServiceRequestPriority.Builder" style="stroke: #A80036; stroke-width: 1.5;" width="255" x="54.5" y="106"/><ellipse cx="78.05" cy="125.1328" fill="#ADD1B2" rx="11" ry="11" style="stroke: #A80036; stroke-width: 1.0;"/><path d="M80.5231,131.2759 Q79.9421,131.5747 79.3029,131.7241 Q78.6638,131.8735 77.9582,131.8735 Q75.4514,131.8735 74.1315,130.2217 Q72.8117,128.5698 72.8117,125.4487 Q72.8117,122.3193 74.1315,120.6675 Q75.4514,119.0156 77.9582,119.0156 Q78.6638,119.0156 79.3112,119.165 Q79.9587,119.3145 80.5231,119.6133 L80.5231,122.3359 Q79.8923,121.7549 79.2988,121.4851 Q78.7053,121.2153 78.0744,121.2153 Q76.7297,121.2153 76.0449,122.282 Q75.3601,123.3486 75.3601,125.4487 Q75.3601,127.5405 76.0449,128.6072 Q76.7297,129.6738 78.0744,129.6738 Q78.7053,129.6738 79.2988,129.4041 Q79.8923,129.1343 80.5231,128.5532 Z "/><text fill="#000000" font-family="sans-serif" font-size="14" lengthAdjust="spacingAndGlyphs" textLength="204" x="93.95" y="124.5352">ServiceRequestPriority.Builder</text><text fill="#000000" font-family="sans-serif" font-size="10" lengthAdjust="spacingAndGlyphs" textLength="144" x="123.95" y="137.1563">com.ibm.fhir.model.type.code</text><line style="stroke: #A80036; stroke-width: 1.5;" x1="55.5" x2="308.5" y1="144.2656" y2="144.2656"/><ellipse cx="65.5" cy="155.2656" fill="#84BE84" rx="3" ry="3" style="stroke: #038048; stroke-width: 1.0;"/><text fill="#000000" font-family="sans-serif" font-size="11" lengthAdjust="spacingAndGlyphs" textLength="93" x="74.5" y="158.9004">id(String): Builder</text><ellipse cx="65.5" cy="168.2207" fill="#84BE84" rx="3" ry="3" style="stroke: #038048; stroke-width: 1.0;"/><text fill="#000000" font-family="sans-serif" font-size="11" lengthAdjust="spacingAndGlyphs" textLength="166" x="74.5" y="171.8555">extension(Extension...): Builder</text><ellipse cx="65.5" cy="181.1758" fill="#84BE84" rx="3" ry="3" style="stroke: #038048; stroke-width: 1.0;"/><text fill="#000000" font-family="sans-serif" font-size="11" lengthAdjust="spacingAndGlyphs" textLength="229" x="74.5" y="184.8105">extension(Collection&lt;Extension&gt;): Builder</text><ellipse cx="65.5" cy="194.1309" fill="#84BE84" rx="3" ry="3" style="stroke: #038048; stroke-width: 1.0;"/><text fill="#000000" font-family="sans-serif" font-size="11" lengthAdjust="spacingAndGlyphs" textLength="111" x="74.5" y="197.7656">value(String): Builder</text><ellipse cx="65.5" cy="207.0859" fill="#84BE84" rx="3" ry="3" style="stroke: #038048; stroke-width: 1.0;"/><text fill="#000000" font-family="sans-serif" font-size="11" lengthAdjust="spacingAndGlyphs" textLength="124" x="74.5" y="210.7207">value(ValueSet): Builder</text><ellipse cx="65.5" cy="220.041" fill="#84BE84" rx="3" ry="3" style="stroke: #038048; stroke-width: 1.0;"/><text fill="#000000" font-family="sans-serif" font-size="11" lengthAdjust="spacingAndGlyphs" textLength="161" x="74.5" y="223.6758">build(): ServiceRequestPriority</text></a><!--MD5=[d58206fe609464c205fa3b8b97dbba54]
class com.ibm.fhir.model.type.Code.Builder--><a href="../Code.Builder.html" target="_top" title="../Code.Builder.html" xlink:actuate="onRequest" xlink:href="../Code.Builder.html" xlink:show="new" xlink:title="../Code.Builder.html" xlink:type="simple"><rect fill="#FEFECE" filter="url(#f5k3j8gr0p0dg)" height="38.2656" id="com.ibm.fhir.model.type.Code.Builder" style="stroke: #A80036; stroke-width: 1.5;" width="150" x="6" y="8"/><ellipse cx="21" cy="27.1328" fill="#ADD1B2" rx="11" ry="11" style="stroke: #A80036; stroke-width: 1.0;"/><path d="M23.4731,33.2759 Q22.8921,33.5747 22.2529,33.7241 Q21.6138,33.8735 20.9082,33.8735 Q18.4014,33.8735 17.0815,32.2217 Q15.7617,30.5698 15.7617,27.4487 Q15.7617,24.3193 17.0815,22.6675 Q18.4014,21.0156 20.9082,21.0156 Q21.6138,21.0156 22.2612,21.165 Q22.9087,21.3145 23.4731,21.6133 L23.4731,24.3359 Q22.8423,23.7549 22.2488,23.4851 Q21.6553,23.2153 21.0244,23.2153 Q19.6797,23.2153 18.9949,24.282 Q18.3101,25.3486 18.3101,27.4487 Q18.3101,29.5405 18.9949,30.6072 Q19.6797,31.6738 21.0244,31.6738 Q21.6553,31.6738 22.2488,31.4041 Q22.8423,31.1343 23.4731,30.5532 Z "/><text fill="#000000" font-family="sans-serif" font-size="14" lengthAdjust="spacingAndGlyphs" textLength="88" x="50" y="26.5352">Code.Builder</text><text fill="#000000" font-family="sans-serif" font-size="10" lengthAdjust="spacingAndGlyphs" textLength="118" x="35" y="39.1563">com.ibm.fhir.model.type</text></a><!--MD5=[b20ef57863427d24b5931a43d85a3fb7]
class com.ibm.fhir.model.type.code.ServiceRequestPriority--><a href="ServiceRequestPriority.html" target="_top" title="ServiceRequestPriority.html" xlink:actuate="onRequest" xlink:href="ServiceRequestPriority.html" xlink:show="new" xlink:title="ServiceRequestPriority.html" xlink:type="simple"><rect fill="#FEFECE" filter="url(#f5k3j8gr0p0dg)" height="38.2656" id="com.ibm.fhir.model.type.code.ServiceRequestPriority" style="stroke: #A80036; stroke-width: 1.5;" width="184" x="191" y="8"/><ellipse cx="206" cy="27.1328" fill="#ADD1B2" rx="11" ry="11" style="stroke: #A80036; stroke-width: 1.0;"/><path d="M208.4731,33.2759 Q207.8921,33.5747 207.2529,33.7241 Q206.6138,33.8735 205.9082,33.8735 Q203.4014,33.8735 202.0815,32.2217 Q200.7617,30.5698 200.7617,27.4487 Q200.7617,24.3193 202.0815,22.6675 Q203.4014,21.0156 205.9082,21.0156 Q206.6138,21.0156 207.2612,21.165 Q207.9087,21.3145 208.4731,21.6133 L208.4731,24.3359 Q207.8423,23.7549 207.2488,23.4851 Q206.6553,23.2153 206.0244,23.2153 Q204.6797,23.2153 203.9949,24.282 Q203.3101,25.3486 203.3101,27.4487 Q203.3101,29.5405 203.9949,30.6072 Q204.6797,31.6738 206.0244,31.6738 Q206.6553,31.6738 207.2488,31.4041 Q207.8423,31.1343 208.4731,30.5532 Z "/><text fill="#000000" font-family="sans-serif" font-size="14" lengthAdjust="spacingAndGlyphs" textLength="152" x="220" y="26.5352">ServiceRequestPriority</text><text fill="#000000" font-family="sans-serif" font-size="10" lengthAdjust="spacingAndGlyphs" textLength="144" x="224" y="39.1563">com.ibm.fhir.model.type.code</text></a><!--MD5=[d204076acc0de75597ea019cb7da3c2a]
reverse link com.ibm.fhir.model.type.Code.Builder to com.ibm.fhir.model.type.code.ServiceRequestPriority.Builder--><path d="M106.3662,62.4123 C115.8322,75.6271 126.8794,91.0495 137.5598,105.9598 " fill="none" id="com.ibm.fhir.model.type.Code.Builder&lt;-com.ibm.fhir.model.type.code.ServiceRequestPriority.Builder" style="stroke: #A80036; stroke-width: 1.0;"/><polygon fill="none" points="100.5772,66.3513,94.6213,46.0159,111.9586,58.1987,100.5772,66.3513" style="stroke: #A80036; stroke-width: 1.0;"/><!--MD5=[a208b38985ec667d2507e5bc901ee1e2]
reverse link com.ibm.fhir.model.type.code.ServiceRequestPriority to com.ibm.fhir.model.type.code.ServiceRequestPriority.Builder--><path d="M260.4864,58.4299 C250.4313,72.4671 238.2129,89.5246 226.4402,105.9598 " fill="none" id="com.ibm.fhir.model.type.code.ServiceRequestPriority&lt;-com.ibm.fhir.model.type.code.ServiceRequestPriority.Builder" style="stroke: #A80036; stroke-width: 1.0;"/><ellipse cx="264.7201" cy="52.5195" fill="#FFFFFF" rx="8" ry="8" style="stroke: #A80036; stroke-width: 1.0;"/><line style="stroke: #A80036; stroke-width: 1.0;" x1="260.0615" x2="269.3787" y1="59.0232" y2="46.0159"/><line style="stroke: #A80036; stroke-width: 1.0;" x1="258.2164" x2="271.2237" y1="47.8609" y2="57.1782"/><text fill="#888888" font-family="sans-serif" font-size="10" lengthAdjust="spacingAndGlyphs" textLength="182" x="105.5" y="249.668">UMLDoclet 2.0.7, PlantUML 1.2019.12</text><!--MD5=[c4468eba28a89ca0063fb876749ab400]
@startuml
    set namespaceSeparator none
    hide empty fields
    hide empty methods

    class "<size:14>ServiceRequestPriority.Builder\n<size:10>com.ibm.fhir.model.type.code" as com.ibm.fhir.model.type.code.ServiceRequestPriority.Builder [[ServiceRequestPriority.Builder.html]] {
        +id(String): Builder
        +extension(Extension...): Builder
        +extension(Collection<Extension>): Builder
        +value(String): Builder
        +value(ValueSet): Builder
        +build(): ServiceRequestPriority
    }

    class "<size:14>Code.Builder\n<size:10>com.ibm.fhir.model.type" as com.ibm.fhir.model.type.Code.Builder [[../Code.Builder.html]]
    class "<size:14>ServiceRequestPriority\n<size:10>com.ibm.fhir.model.type.code" as com.ibm.fhir.model.type.code.ServiceRequestPriority [[ServiceRequestPriority.html]]

    com.ibm.fhir.model.type.Code.Builder <|- - com.ibm.fhir.model.type.code.ServiceRequestPriority.Builder
    com.ibm.fhir.model.type.code.ServiceRequestPriority +- - com.ibm.fhir.model.type.code.ServiceRequestPriority.Builder

    center footer UMLDoclet 2.0.7, PlantUML 1.2019.12
@enduml

PlantUML version 1.2019.12(Sun Nov 03 05:24:54 EST 2019)
(APACHE source distribution)
Java Runtime: OpenJDK Runtime Environment
JVM: OpenJDK 64-Bit Server VM
Java Version: 11.0.4+11
Operating System: Mac OS X
Default Encoding: UTF-8
Language: en
Country: US
--></g></svg>