<?xml version="1.0" encoding="UTF-8" standalone="no"?><svg xmlns="http://www.w3.org/2000/svg" xmlns:xlink="http://www.w3.org/1999/xlink" contentScriptType="application/ecmascript" contentStyleType="text/css" height="1088px" preserveAspectRatio="none" style="width:846px;height:1088px;" version="1.1" viewBox="0 0 846 1088" width="846px" zoomAndPan="magnify"><defs><filter height="300%" id="f16qoy8t30pgqf" width="300%" x="-1" y="-1"><feGaussianBlur result="blurOut" stdDeviation="2.0"/><feColorMatrix in="blurOut" result="blurOut2" type="matrix" values="0 0 0 0 0 0 0 0 0 0 0 0 0 0 0 0 0 0 .4 0"/><feOffset dx="4.0" dy="4.0" in="blurOut2" result="blurOut3"/><feBlend in="SourceGraphic" in2="blurOut3" mode="normal"/></filter></defs><g><!--MD5=[16973ea1348d039f8c08bf5ba24e3948]
cluster com.ibm.fhir.server.filter.rest--><polygon fill="#FFFFFF" filter="url(#f16qoy8t30pgqf)" points="22,147,262,147,269,169.2969,824,169.2969,824,1040,22,1040,22,147" style="stroke: #000000; stroke-width: 1.5;"/><line style="stroke: #000000; stroke-width: 1.5;" x1="22" x2="269" y1="169.2969" y2="169.2969"/><text fill="#000000" font-family="sans-serif" font-size="14" font-weight="bold" lengthAdjust="spacingAndGlyphs" textLength="234" x="26" y="161.9951">com.ibm.fhir.server.filter.rest</text><!--MD5=[737c6b32201ecf86b9d7c6a8bb692317]
cluster javax.servlet.http--><polygon fill="#FFFFFF" filter="url(#f16qoy8t30pgqf)" points="189,24,332,24,339,46.2969,554,46.2969,554,123,189,123,189,24" style="stroke: #000000; stroke-width: 1.5;"/><line style="stroke: #000000; stroke-width: 1.5;" x1="189" x2="339" y1="46.2969" y2="46.2969"/><text fill="#000000" font-family="sans-serif" font-size="14" font-weight="bold" lengthAdjust="spacingAndGlyphs" textLength="137" x="193" y="38.9951">javax.servlet.http</text><!--MD5=[c88abab4467f1203152080f15622242c]
class com.ibm.fhir.server.filter.rest.FHIRRestServletFilter--><a href="FHIRRestServletFilter.html" target="_top" title="FHIRRestServletFilter.html" xlink:actuate="onRequest" xlink:href="FHIRRestServletFilter.html" xlink:show="new" xlink:title="FHIRRestServletFilter.html" xlink:type="simple"><rect fill="#FEFECE" filter="url(#f16qoy8t30pgqf)" height="86.4141" id="com.ibm.fhir.server.filter.rest.FHIRRestServletFilter" style="stroke: #A80036; stroke-width: 1.5;" width="411" x="396.5" y="560"/><ellipse cx="533.25" cy="576" fill="#ADD1B2" rx="11" ry="11" style="stroke: #A80036; stroke-width: 1.0;"/><path d="M536.2188,581.6406 Q535.6406,581.9375 535,582.0781 Q534.3594,582.2344 533.6563,582.2344 Q531.1563,582.2344 529.8281,580.5938 Q528.5156,578.9375 528.5156,575.8125 Q528.5156,572.6875 529.8281,571.0313 Q531.1563,569.375 533.6563,569.375 Q534.3594,569.375 535,569.5313 Q535.6563,569.6875 536.2188,569.9844 L536.2188,572.7031 Q535.5938,572.125 535,571.8594 Q534.4063,571.5781 533.7813,571.5781 Q532.4375,571.5781 531.75,572.6563 Q531.0625,573.7188 531.0625,575.8125 Q531.0625,577.9063 531.75,578.9844 Q532.4375,580.0469 533.7813,580.0469 Q534.4063,580.0469 535,579.7813 Q535.5938,579.5 536.2188,578.9219 L536.2188,581.6406 Z "/><text fill="#000000" font-family="sans-serif" font-size="12" lengthAdjust="spacingAndGlyphs" textLength="129" x="553.75" y="580.1543">FHIRRestServletFilter</text><line style="stroke: #A80036; stroke-width: 1.5;" x1="397.5" x2="806.5" y1="592" y2="592"/><line style="stroke: #A80036; stroke-width: 1.5;" x1="397.5" x2="806.5" y1="600" y2="600"/><ellipse cx="407.5" cy="611" fill="#84BE84" rx="3" ry="3" style="stroke: #038048; stroke-width: 1.0;"/><text fill="#000000" font-family="sans-serif" font-size="11" lengthAdjust="spacingAndGlyphs" textLength="385" x="416.5" y="614.2104">doFilter(HttpServletRequest, HttpServletResponse, FilterChain): void</text><ellipse cx="407.5" cy="623.8047" fill="#84BE84" rx="3" ry="3" style="stroke: #038048; stroke-width: 1.0;"/><text fill="#000000" font-family="sans-serif" font-size="11" lengthAdjust="spacingAndGlyphs" textLength="82" x="416.5" y="627.0151">destroy(): void</text><ellipse cx="407.5" cy="636.6094" fill="#84BE84" rx="3" ry="3" style="stroke: #038048; stroke-width: 1.0;"/><text fill="#000000" font-family="sans-serif" font-size="11" lengthAdjust="spacingAndGlyphs" textLength="120" x="416.5" y="639.8198">init(FilterConfig): void</text></a><!--MD5=[1a74de42c0e1cd67da7eec09565299a4]
class com.ibm.fhir.server.filter.rest.FHIRHttpServletRequestWrapper--><a href="FHIRHttpServletRequestWrapper.html" target="_top" title="FHIRHttpServletRequestWrapper.html" xlink:actuate="onRequest" xlink:href="FHIRHttpServletRequestWrapper.html" xlink:show="new" xlink:title="FHIRHttpServletRequestWrapper.html" xlink:type="simple"><rect fill="#FEFECE" filter="url(#f16qoy8t30pgqf)" height="841.8906" id="com.ibm.fhir.server.filter.rest.FHIRHttpServletRequestWrapper" style="stroke: #A80036; stroke-width: 1.5;" width="323" x="38.5" y="182"/><ellipse cx="94.75" cy="198" fill="#ADD1B2" rx="11" ry="11" style="stroke: #A80036; stroke-width: 1.0;"/><path d="M97.7188,203.6406 Q97.1406,203.9375 96.5,204.0781 Q95.8594,204.2344 95.1563,204.2344 Q92.6563,204.2344 91.3281,202.5938 Q90.0156,200.9375 90.0156,197.8125 Q90.0156,194.6875 91.3281,193.0313 Q92.6563,191.375 95.1563,191.375 Q95.8594,191.375 96.5,191.5313 Q97.1563,191.6875 97.7188,191.9844 L97.7188,194.7031 Q97.0938,194.125 96.5,193.8594 Q95.9063,193.5781 95.2813,193.5781 Q93.9375,193.5781 93.25,194.6563 Q92.5625,195.7188 92.5625,197.8125 Q92.5625,199.9063 93.25,200.9844 Q93.9375,202.0469 95.2813,202.0469 Q95.9063,202.0469 96.5,201.7813 Q97.0938,201.5 97.7188,200.9219 L97.7188,203.6406 Z "/><text fill="#000000" font-family="sans-serif" font-size="12" lengthAdjust="spacingAndGlyphs" textLength="202" x="115.25" y="202.1543">FHIRHttpServletRequestWrapper</text><line style="stroke: #A80036; stroke-width: 1.5;" x1="39.5" x2="360.5" y1="214" y2="214"/><ellipse cx="49.5" cy="225" fill="none" rx="3" ry="3" style="stroke: #038048; stroke-width: 1.0;"/><text fill="#000000" font-family="sans-serif" font-size="11" lengthAdjust="spacingAndGlyphs" text-decoration="underline" textLength="70" x="58.5" y="228.2104">UTF8: String</text><ellipse cx="49.5" cy="237.8047" fill="none" rx="3" ry="3" style="stroke: #038048; stroke-width: 1.0;"/><text fill="#000000" font-family="sans-serif" font-size="11" lengthAdjust="spacingAndGlyphs" text-decoration="underline" textLength="77" x="58.5" y="241.0151">UTF16: String</text><ellipse cx="49.5" cy="250.6094" fill="none" rx="3" ry="3" style="stroke: #038048; stroke-width: 1.0;"/><text fill="#000000" font-family="sans-serif" font-size="11" lengthAdjust="spacingAndGlyphs" text-decoration="underline" textLength="232" x="58.5" y="253.8198">DEFAULT_ACCEPT_HEADER_VALUE: String</text><ellipse cx="49.5" cy="263.4141" fill="none" rx="3" ry="3" style="stroke: #038048; stroke-width: 1.0;"/><text fill="#000000" font-family="sans-serif" font-size="11" lengthAdjust="spacingAndGlyphs" text-decoration="underline" textLength="214" x="58.5" y="266.6245">HEADER_X_METHOD_OVERRIDE: String</text><ellipse cx="49.5" cy="276.2188" fill="none" rx="3" ry="3" style="stroke: #038048; stroke-width: 1.0;"/><text fill="#000000" font-family="sans-serif" font-size="11" lengthAdjust="spacingAndGlyphs" text-decoration="underline" textLength="94" x="58.5" y="279.4292">CHARSET: String</text><ellipse cx="49.5" cy="289.0234" fill="none" rx="3" ry="3" style="stroke: #038048; stroke-width: 1.0;"/><text fill="#000000" font-family="sans-serif" font-size="11" lengthAdjust="spacingAndGlyphs" text-decoration="underline" textLength="86" x="58.5" y="292.2339">ACCEPT: String</text><ellipse cx="49.5" cy="301.8281" fill="none" rx="3" ry="3" style="stroke: #038048; stroke-width: 1.0;"/><text fill="#000000" font-family="sans-serif" font-size="11" lengthAdjust="spacingAndGlyphs" text-decoration="underline" textLength="144" x="58.5" y="305.0386">ACCEPT_CHARSET: String</text><line style="stroke: #A80036; stroke-width: 1.5;" x1="39.5" x2="360.5" y1="311.6328" y2="311.6328"/><ellipse cx="49.5" cy="322.6328" fill="#84BE84" rx="3" ry="3" style="stroke: #038048; stroke-width: 1.0;"/><text fill="#000000" font-family="sans-serif" font-size="11" lengthAdjust="spacingAndGlyphs" textLength="297" x="58.5" y="325.8433">FHIRHttpServletRequestWrapper(HttpServletRequest)</text><ellipse cx="49.5" cy="335.4375" fill="#84BE84" rx="3" ry="3" style="stroke: #038048; stroke-width: 1.0;"/><text fill="#000000" font-family="sans-serif" font-size="11" lengthAdjust="spacingAndGlyphs" textLength="143" x="58.5" y="338.6479">getHeader(String): String</text><ellipse cx="49.5" cy="348.2422" fill="#84BE84" rx="3" ry="3" style="stroke: #038048; stroke-width: 1.0;"/><text fill="#000000" font-family="sans-serif" font-size="11" lengthAdjust="spacingAndGlyphs" textLength="239" x="58.5" y="351.4526">getHeaderNames(): Enumeration&lt;String&gt;</text><ellipse cx="49.5" cy="361.0469" fill="#84BE84" rx="3" ry="3" style="stroke: #038048; stroke-width: 1.0;"/><text fill="#000000" font-family="sans-serif" font-size="11" lengthAdjust="spacingAndGlyphs" textLength="240" x="58.5" y="364.2573">getHeaders(String): Enumeration&lt;String&gt;</text><ellipse cx="49.5" cy="373.8516" fill="#84BE84" rx="3" ry="3" style="stroke: #038048; stroke-width: 1.0;"/><text fill="#000000" font-family="sans-serif" font-size="11" lengthAdjust="spacingAndGlyphs" textLength="152" x="58.5" y="377.062">getAttribute(String): Object</text><ellipse cx="49.5" cy="386.6563" fill="#84BE84" rx="3" ry="3" style="stroke: #038048; stroke-width: 1.0;"/><text fill="#000000" font-family="sans-serif" font-size="11" lengthAdjust="spacingAndGlyphs" textLength="246" x="58.5" y="389.8667">getAttributeNames(): Enumeration&lt;String&gt;</text><ellipse cx="49.5" cy="399.4609" fill="#84BE84" rx="3" ry="3" style="stroke: #038048; stroke-width: 1.0;"/><text fill="#000000" font-family="sans-serif" font-size="11" lengthAdjust="spacingAndGlyphs" textLength="120" x="58.5" y="402.6714">getAuthType(): String</text><ellipse cx="49.5" cy="412.2656" fill="#84BE84" rx="3" ry="3" style="stroke: #038048; stroke-width: 1.0;"/><text fill="#000000" font-family="sans-serif" font-size="11" lengthAdjust="spacingAndGlyphs" textLength="175" x="58.5" y="415.4761">getCharacterEncoding(): String</text><ellipse cx="49.5" cy="425.0703" fill="#84BE84" rx="3" ry="3" style="stroke: #038048; stroke-width: 1.0;"/><text fill="#000000" font-family="sans-serif" font-size="11" lengthAdjust="spacingAndGlyphs" textLength="130" x="58.5" y="428.2808">getContentLength(): int</text><ellipse cx="49.5" cy="437.875" fill="#84BE84" rx="3" ry="3" style="stroke: #038048; stroke-width: 1.0;"/><text fill="#000000" font-family="sans-serif" font-size="11" lengthAdjust="spacingAndGlyphs" textLength="139" x="58.5" y="441.0854">getContentType(): String</text><ellipse cx="49.5" cy="450.6797" fill="#84BE84" rx="3" ry="3" style="stroke: #038048; stroke-width: 1.0;"/><text fill="#000000" font-family="sans-serif" font-size="11" lengthAdjust="spacingAndGlyphs" textLength="136" x="58.5" y="453.8901">getContextPath(): String</text><ellipse cx="49.5" cy="463.4844" fill="#84BE84" rx="3" ry="3" style="stroke: #038048; stroke-width: 1.0;"/><text fill="#000000" font-family="sans-serif" font-size="11" lengthAdjust="spacingAndGlyphs" textLength="125" x="58.5" y="466.6948">getCookies(): Cookie[]</text><ellipse cx="49.5" cy="476.2891" fill="#84BE84" rx="3" ry="3" style="stroke: #038048; stroke-width: 1.0;"/><text fill="#000000" font-family="sans-serif" font-size="11" lengthAdjust="spacingAndGlyphs" textLength="159" x="58.5" y="479.4995">getDateHeader(String): long</text><ellipse cx="49.5" cy="489.0938" fill="#84BE84" rx="3" ry="3" style="stroke: #038048; stroke-width: 1.0;"/><text fill="#000000" font-family="sans-serif" font-size="11" lengthAdjust="spacingAndGlyphs" textLength="214" x="58.5" y="492.3042">getInputStream(): ServletInputStream</text><ellipse cx="49.5" cy="501.8984" fill="#84BE84" rx="3" ry="3" style="stroke: #038048; stroke-width: 1.0;"/><text fill="#000000" font-family="sans-serif" font-size="11" lengthAdjust="spacingAndGlyphs" textLength="137" x="58.5" y="505.1089">getIntHeader(String): int</text><ellipse cx="49.5" cy="514.7031" fill="#84BE84" rx="3" ry="3" style="stroke: #038048; stroke-width: 1.0;"/><text fill="#000000" font-family="sans-serif" font-size="11" lengthAdjust="spacingAndGlyphs" textLength="123" x="58.5" y="517.9136">getLocalAddr(): String</text><ellipse cx="49.5" cy="527.5078" fill="#84BE84" rx="3" ry="3" style="stroke: #038048; stroke-width: 1.0;"/><text fill="#000000" font-family="sans-serif" font-size="11" lengthAdjust="spacingAndGlyphs" textLength="130" x="58.5" y="530.7183">getLocalName(): String</text><ellipse cx="49.5" cy="540.3125" fill="#84BE84" rx="3" ry="3" style="stroke: #038048; stroke-width: 1.0;"/><text fill="#000000" font-family="sans-serif" font-size="11" lengthAdjust="spacingAndGlyphs" textLength="100" x="58.5" y="543.5229">getLocalPort(): int</text><ellipse cx="49.5" cy="553.1172" fill="#84BE84" rx="3" ry="3" style="stroke: #038048; stroke-width: 1.0;"/><text fill="#000000" font-family="sans-serif" font-size="11" lengthAdjust="spacingAndGlyphs" textLength="106" x="58.5" y="556.3276">getLocale(): Locale</text><ellipse cx="49.5" cy="565.9219" fill="#84BE84" rx="3" ry="3" style="stroke: #038048; stroke-width: 1.0;"/><text fill="#000000" font-family="sans-serif" font-size="11" lengthAdjust="spacingAndGlyphs" textLength="203" x="58.5" y="569.1323">getLocales(): Enumeration&lt;Locale&gt;</text><ellipse cx="49.5" cy="578.7266" fill="#84BE84" rx="3" ry="3" style="stroke: #038048; stroke-width: 1.0;"/><text fill="#000000" font-family="sans-serif" font-size="11" lengthAdjust="spacingAndGlyphs" textLength="109" x="58.5" y="581.937">getMethod(): String</text><ellipse cx="49.5" cy="591.5313" fill="#84BE84" rx="3" ry="3" style="stroke: #038048; stroke-width: 1.0;"/><text fill="#000000" font-family="sans-serif" font-size="11" lengthAdjust="spacingAndGlyphs" textLength="162" x="58.5" y="594.7417">getParameter(String): String</text><ellipse cx="49.5" cy="604.3359" fill="#84BE84" rx="3" ry="3" style="stroke: #038048; stroke-width: 1.0;"/><text fill="#000000" font-family="sans-serif" font-size="11" lengthAdjust="spacingAndGlyphs" textLength="242" x="58.5" y="607.5464">getParameterMap(): Map&lt;String, String[]&gt;</text><ellipse cx="49.5" cy="617.1406" fill="#84BE84" rx="3" ry="3" style="stroke: #038048; stroke-width: 1.0;"/><text fill="#000000" font-family="sans-serif" font-size="11" lengthAdjust="spacingAndGlyphs" textLength="258" x="58.5" y="620.3511">getParameterNames(): Enumeration&lt;String&gt;</text><ellipse cx="49.5" cy="629.9453" fill="#84BE84" rx="3" ry="3" style="stroke: #038048; stroke-width: 1.0;"/><text fill="#000000" font-family="sans-serif" font-size="11" lengthAdjust="spacingAndGlyphs" textLength="208" x="58.5" y="633.1558">getParameterValues(String): String[]</text><ellipse cx="49.5" cy="642.75" fill="#84BE84" rx="3" ry="3" style="stroke: #038048; stroke-width: 1.0;"/><text fill="#000000" font-family="sans-serif" font-size="11" lengthAdjust="spacingAndGlyphs" textLength="114" x="58.5" y="645.9604">getPathInfo(): String</text><ellipse cx="49.5" cy="655.5547" fill="#84BE84" rx="3" ry="3" style="stroke: #038048; stroke-width: 1.0;"/><text fill="#000000" font-family="sans-serif" font-size="11" lengthAdjust="spacingAndGlyphs" textLength="154" x="58.5" y="658.7651">getPathTranslated(): String</text><ellipse cx="49.5" cy="668.3594" fill="#84BE84" rx="3" ry="3" style="stroke: #038048; stroke-width: 1.0;"/><text fill="#000000" font-family="sans-serif" font-size="11" lengthAdjust="spacingAndGlyphs" textLength="114" x="58.5" y="671.5698">getProtocol(): String</text><ellipse cx="49.5" cy="681.1641" fill="#84BE84" rx="3" ry="3" style="stroke: #038048; stroke-width: 1.0;"/><text fill="#000000" font-family="sans-serif" font-size="11" lengthAdjust="spacingAndGlyphs" textLength="136" x="58.5" y="684.3745">getQueryString(): String</text><ellipse cx="49.5" cy="693.9688" fill="#84BE84" rx="3" ry="3" style="stroke: #038048; stroke-width: 1.0;"/><text fill="#000000" font-family="sans-serif" font-size="11" lengthAdjust="spacingAndGlyphs" textLength="163" x="58.5" y="697.1792">getReader(): BufferedReader</text><ellipse cx="49.5" cy="706.7734" fill="#84BE84" rx="3" ry="3" style="stroke: #038048; stroke-width: 1.0;"/><text fill="#000000" font-family="sans-serif" font-size="11" lengthAdjust="spacingAndGlyphs" text-decoration="line-through" textLength="67" x="58.5" y="709.9839">getRealPath</text><text fill="#000000" font-family="sans-serif" font-size="11" lengthAdjust="spacingAndGlyphs" textLength="84" x="125.5" y="709.9839">(String): String</text><ellipse cx="49.5" cy="719.5781" fill="#84BE84" rx="3" ry="3" style="stroke: #038048; stroke-width: 1.0;"/><text fill="#000000" font-family="sans-serif" font-size="11" lengthAdjust="spacingAndGlyphs" textLength="137" x="58.5" y="722.7886">getRemoteAddr(): String</text><ellipse cx="49.5" cy="732.3828" fill="#84BE84" rx="3" ry="3" style="stroke: #038048; stroke-width: 1.0;"/><text fill="#000000" font-family="sans-serif" font-size="11" lengthAdjust="spacingAndGlyphs" textLength="137" x="58.5" y="735.5933">getRemoteHost(): String</text><ellipse cx="49.5" cy="745.1875" fill="#84BE84" rx="3" ry="3" style="stroke: #038048; stroke-width: 1.0;"/><text fill="#000000" font-family="sans-serif" font-size="11" lengthAdjust="spacingAndGlyphs" textLength="114" x="58.5" y="748.3979">getRemotePort(): int</text><ellipse cx="49.5" cy="757.9922" fill="#84BE84" rx="3" ry="3" style="stroke: #038048; stroke-width: 1.0;"/><text fill="#000000" font-family="sans-serif" font-size="11" lengthAdjust="spacingAndGlyphs" textLength="138" x="58.5" y="761.2026">getRemoteUser(): String</text><ellipse cx="49.5" cy="770.7969" fill="#84BE84" rx="3" ry="3" style="stroke: #038048; stroke-width: 1.0;"/><text fill="#000000" font-family="sans-serif" font-size="11" lengthAdjust="spacingAndGlyphs" textLength="282" x="58.5" y="774.0073">getRequestDispatcher(String): RequestDispatcher</text><ellipse cx="49.5" cy="783.6016" fill="#84BE84" rx="3" ry="3" style="stroke: #038048; stroke-width: 1.0;"/><text fill="#000000" font-family="sans-serif" font-size="11" lengthAdjust="spacingAndGlyphs" textLength="132" x="58.5" y="786.812">getRequestURI(): String</text><ellipse cx="49.5" cy="796.4063" fill="#84BE84" rx="3" ry="3" style="stroke: #038048; stroke-width: 1.0;"/><text fill="#000000" font-family="sans-serif" font-size="11" lengthAdjust="spacingAndGlyphs" textLength="170" x="58.5" y="799.6167">getRequestURL(): StringBuffer</text><ellipse cx="49.5" cy="809.2109" fill="#84BE84" rx="3" ry="3" style="stroke: #038048; stroke-width: 1.0;"/><text fill="#000000" font-family="sans-serif" font-size="11" lengthAdjust="spacingAndGlyphs" textLength="184" x="58.5" y="812.4214">getRequestedSessionId(): String</text><ellipse cx="49.5" cy="822.0156" fill="#84BE84" rx="3" ry="3" style="stroke: #038048; stroke-width: 1.0;"/><text fill="#000000" font-family="sans-serif" font-size="11" lengthAdjust="spacingAndGlyphs" textLength="114" x="58.5" y="825.2261">getScheme(): String</text><ellipse cx="49.5" cy="834.8203" fill="#84BE84" rx="3" ry="3" style="stroke: #038048; stroke-width: 1.0;"/><text fill="#000000" font-family="sans-serif" font-size="11" lengthAdjust="spacingAndGlyphs" textLength="139" x="58.5" y="838.0308">getServerName(): String</text><ellipse cx="49.5" cy="847.625" fill="#84BE84" rx="3" ry="3" style="stroke: #038048; stroke-width: 1.0;"/><text fill="#000000" font-family="sans-serif" font-size="11" lengthAdjust="spacingAndGlyphs" textLength="109" x="58.5" y="850.8354">getServerPort(): int</text><ellipse cx="49.5" cy="860.4297" fill="#84BE84" rx="3" ry="3" style="stroke: #038048; stroke-width: 1.0;"/><text fill="#000000" font-family="sans-serif" font-size="11" lengthAdjust="spacingAndGlyphs" textLength="133" x="58.5" y="863.6401">getServletPath(): String</text><ellipse cx="49.5" cy="873.2344" fill="#84BE84" rx="3" ry="3" style="stroke: #038048; stroke-width: 1.0;"/><text fill="#000000" font-family="sans-serif" font-size="11" lengthAdjust="spacingAndGlyphs" textLength="149" x="58.5" y="876.4448">getSession(): HttpSession</text><ellipse cx="49.5" cy="886.0391" fill="#84BE84" rx="3" ry="3" style="stroke: #038048; stroke-width: 1.0;"/><text fill="#000000" font-family="sans-serif" font-size="11" lengthAdjust="spacingAndGlyphs" textLength="194" x="58.5" y="889.2495">getSession(boolean): HttpSession</text><ellipse cx="49.5" cy="898.8438" fill="#84BE84" rx="3" ry="3" style="stroke: #038048; stroke-width: 1.0;"/><text fill="#000000" font-family="sans-serif" font-size="11" lengthAdjust="spacingAndGlyphs" textLength="157" x="58.5" y="902.0542">getUserPrincipal(): Principal</text><ellipse cx="49.5" cy="911.6484" fill="#84BE84" rx="3" ry="3" style="stroke: #038048; stroke-width: 1.0;"/><text fill="#000000" font-family="sans-serif" font-size="11" lengthAdjust="spacingAndGlyphs" textLength="254" x="58.5" y="914.8589">isRequestedSessionIdFromCookie(): boolean</text><ellipse cx="49.5" cy="924.4531" fill="#84BE84" rx="3" ry="3" style="stroke: #038048; stroke-width: 1.0;"/><text fill="#000000" font-family="sans-serif" font-size="11" lengthAdjust="spacingAndGlyphs" textLength="237" x="58.5" y="927.6636">isRequestedSessionIdFromURL(): boolean</text><ellipse cx="49.5" cy="937.2578" fill="#84BE84" rx="3" ry="3" style="stroke: #038048; stroke-width: 1.0;"/><text fill="#000000" font-family="sans-serif" font-size="11" lengthAdjust="spacingAndGlyphs" text-decoration="line-through" textLength="171" x="58.5" y="940.4683">isRequestedSessionIdFromUrl</text><text fill="#000000" font-family="sans-serif" font-size="11" lengthAdjust="spacingAndGlyphs" textLength="61" x="229.5" y="940.4683">(): boolean</text><ellipse cx="49.5" cy="950.0625" fill="#84BE84" rx="3" ry="3" style="stroke: #038048; stroke-width: 1.0;"/><text fill="#000000" font-family="sans-serif" font-size="11" lengthAdjust="spacingAndGlyphs" textLength="214" x="58.5" y="953.2729">isRequestedSessionIdValid(): boolean</text><ellipse cx="49.5" cy="962.8672" fill="#84BE84" rx="3" ry="3" style="stroke: #038048; stroke-width: 1.0;"/><text fill="#000000" font-family="sans-serif" font-size="11" lengthAdjust="spacingAndGlyphs" textLength="111" x="58.5" y="966.0776">isSecure(): boolean</text><ellipse cx="49.5" cy="975.6719" fill="#84BE84" rx="3" ry="3" style="stroke: #038048; stroke-width: 1.0;"/><text fill="#000000" font-family="sans-serif" font-size="11" lengthAdjust="spacingAndGlyphs" textLength="166" x="58.5" y="978.8823">isUserInRole(String): boolean</text><ellipse cx="49.5" cy="988.4766" fill="#84BE84" rx="3" ry="3" style="stroke: #038048; stroke-width: 1.0;"/><text fill="#000000" font-family="sans-serif" font-size="11" lengthAdjust="spacingAndGlyphs" textLength="164" x="58.5" y="991.687">removeAttribute(String): void</text><ellipse cx="49.5" cy="1001.2813" fill="#84BE84" rx="3" ry="3" style="stroke: #038048; stroke-width: 1.0;"/><text fill="#000000" font-family="sans-serif" font-size="11" lengthAdjust="spacingAndGlyphs" textLength="183" x="58.5" y="1004.4917">setAttribute(String, Object): void</text><ellipse cx="49.5" cy="1014.0859" fill="#84BE84" rx="3" ry="3" style="stroke: #038048; stroke-width: 1.0;"/><text fill="#000000" font-family="sans-serif" font-size="11" lengthAdjust="spacingAndGlyphs" textLength="198" x="58.5" y="1017.2964">setCharacterEncoding(String): void</text></a><!--MD5=[99cc355d2fa367f0614485feba26505d]
class javax.servlet.http.HttpFilter--><rect fill="#FEFECE" filter="url(#f16qoy8t30pgqf)" height="48" id="javax.servlet.http.HttpFilter" style="stroke: #A80036; stroke-width: 1.5;" width="90" x="448" y="59"/><ellipse cx="463" cy="75" fill="#A9DCDF" rx="11" ry="11" style="stroke: #A80036; stroke-width: 1.0;"/><path d="M463.1094,70.3438 L461.9531,75.4219 L464.2813,75.4219 L463.1094,70.3438 Z M461.625,68.1094 L464.6094,68.1094 L467.9688,80.5 L465.5156,80.5 L464.75,77.4375 L461.4688,77.4375 L460.7188,80.5 L458.2813,80.5 L461.625,68.1094 Z "/><text fill="#000000" font-family="sans-serif" font-size="12" font-style="italic" lengthAdjust="spacingAndGlyphs" textLength="58" x="477" y="79.1543">HttpFilter</text><line style="stroke: #A80036; stroke-width: 1.5;" x1="449" x2="537" y1="91" y2="91"/><line style="stroke: #A80036; stroke-width: 1.5;" x1="449" x2="537" y1="99" y2="99"/><!--MD5=[580c64216bd27b5e77aa2770e0ea4afb]
class javax.servlet.http.HttpServletRequestWrapper--><rect fill="#FEFECE" filter="url(#f16qoy8t30pgqf)" height="48" id="javax.servlet.http.HttpServletRequestWrapper" style="stroke: #A80036; stroke-width: 1.5;" width="207" x="205.5" y="59"/><ellipse cx="220.5" cy="75" fill="#ADD1B2" rx="11" ry="11" style="stroke: #A80036; stroke-width: 1.0;"/><path d="M223.4688,80.6406 Q222.8906,80.9375 222.25,81.0781 Q221.6094,81.2344 220.9063,81.2344 Q218.4063,81.2344 217.0781,79.5938 Q215.7656,77.9375 215.7656,74.8125 Q215.7656,71.6875 217.0781,70.0313 Q218.4063,68.375 220.9063,68.375 Q221.6094,68.375 222.25,68.5313 Q222.9063,68.6875 223.4688,68.9844 L223.4688,71.7031 Q222.8438,71.125 222.25,70.8594 Q221.6563,70.5781 221.0313,70.5781 Q219.6875,70.5781 219,71.6563 Q218.3125,72.7188 218.3125,74.8125 Q218.3125,76.9063 219,77.9844 Q219.6875,79.0469 221.0313,79.0469 Q221.6563,79.0469 222.25,78.7813 Q222.8438,78.5 223.4688,77.9219 L223.4688,80.6406 Z "/><text fill="#000000" font-family="sans-serif" font-size="12" lengthAdjust="spacingAndGlyphs" textLength="175" x="234.5" y="79.1543">HttpServletRequestWrapper</text><line style="stroke: #A80036; stroke-width: 1.5;" x1="206.5" x2="411.5" y1="91" y2="91"/><line style="stroke: #A80036; stroke-width: 1.5;" x1="206.5" x2="411.5" y1="99" y2="99"/><!--MD5=[610d159cd879a81ce51989a592f77eef]
reverse link javax.servlet.http.HttpFilter to com.ibm.fhir.server.filter.rest.FHIRRestServletFilter--><path d="M502.03,126.9 C522.59,224.6 572.69,462.7 593.11,559.77 " fill="none" id="javax.servlet.http.HttpFilter&lt;-com.ibm.fhir.server.filter.rest.FHIRRestServletFilter" style="stroke: #A80036; stroke-width: 1.0;"/><polygon fill="none" points="495.16,128.28,497.9,107.26,508.86,125.39,495.16,128.28" style="stroke: #A80036; stroke-width: 1.0;"/><!--MD5=[0fc06075143fdb21018c7a4120298966]
reverse link javax.servlet.http.HttpServletRequestWrapper to com.ibm.fhir.server.filter.rest.FHIRHttpServletRequestWrapper--><path d="M299.94,127.05 C296.73,142.31 292.8,160.98 288.38,181.99 " fill="none" id="javax.servlet.http.HttpServletRequestWrapper&lt;-com.ibm.fhir.server.filter.rest.FHIRHttpServletRequestWrapper" style="stroke: #A80036; stroke-width: 1.0;"/><polygon fill="none" points="293.14,125.39,304.1,107.26,306.84,128.28,293.14,125.39" style="stroke: #A80036; stroke-width: 1.0;"/><text fill="#888888" font-family="sans-serif" font-size="10" lengthAdjust="spacingAndGlyphs" textLength="186" x="336" y="1075.2822">UMLDoclet 2.0.7, PlantUML 1.2019.12</text><!--MD5=[7d854b1e4d82de21972818649d082c09]
@startuml
    namespace com.ibm.fhir.server.filter.rest {

        class FHIRRestServletFilter [[FHIRRestServletFilter.html]] {
            +doFilter(HttpServletRequest, HttpServletResponse, FilterChain): void
            +destroy(): void
            +init(FilterConfig): void
        }

        class FHIRHttpServletRequestWrapper [[FHIRHttpServletRequestWrapper.html]] {
            {static} +UTF8: String
            {static} +UTF16: String
            {static} +DEFAULT_ACCEPT_HEADER_VALUE: String
            {static} +HEADER_X_METHOD_OVERRIDE: String
            {static} +CHARSET: String
            {static} +ACCEPT: String
            {static} +ACCEPT_CHARSET: String
            +FHIRHttpServletRequestWrapper(HttpServletRequest)
            +getHeader(String): String
            +getHeaderNames(): Enumeration<String>
            +getHeaders(String): Enumeration<String>
            +getAttribute(String): Object
            +getAttributeNames(): Enumeration<String>
            +getAuthType(): String
            +getCharacterEncoding(): String
            +getContentLength(): int
            +getContentType(): String
            +getContextPath(): String
            +getCookies(): Cookie[]
            +getDateHeader(String): long
            +getInputStream(): ServletInputStream
            +getIntHeader(String): int
            +getLocalAddr(): String
            +getLocalName(): String
            +getLocalPort(): int
            +getLocale(): Locale
            +getLocales(): Enumeration<Locale>
            +getMethod(): String
            +getParameter(String): String
            +getParameterMap(): Map<String, String[]>
            +getParameterNames(): Enumeration<String>
            +getParameterValues(String): String[]
            +getPathInfo(): String
            +getPathTranslated(): String
            +getProtocol(): String
            +getQueryString(): String
            +getReader(): BufferedReader
            +- -getRealPath- -(String): String
            +getRemoteAddr(): String
            +getRemoteHost(): String
            +getRemotePort(): int
            +getRemoteUser(): String
            +getRequestDispatcher(String): RequestDispatcher
            +getRequestURI(): String
            +getRequestURL(): StringBuffer
            +getRequestedSessionId(): String
            +getScheme(): String
            +getServerName(): String
            +getServerPort(): int
            +getServletPath(): String
            +getSession(): HttpSession
            +getSession(boolean): HttpSession
            +getUserPrincipal(): Principal
            +isRequestedSessionIdFromCookie(): boolean
            +isRequestedSessionIdFromURL(): boolean
            +- -isRequestedSessionIdFromUrl- -(): boolean
            +isRequestedSessionIdValid(): boolean
            +isSecure(): boolean
            +isUserInRole(String): boolean
            +removeAttribute(String): void
            +setAttribute(String, Object): void
            +setCharacterEncoding(String): void
        }

        javax.servlet.http.HttpFilter <|- - FHIRRestServletFilter
        javax.servlet.http.HttpServletRequestWrapper <|- - FHIRHttpServletRequestWrapper
    }

    namespace javax.servlet.http {
        abstract class HttpFilter {
        }
        class HttpServletRequestWrapper
    }

    center footer UMLDoclet 2.0.7, PlantUML 1.2019.12
@enduml

PlantUML version 1.2019.12(Sun Nov 03 10:24:54 UTC 2019)
(APACHE source distribution)
Java Runtime: OpenJDK Runtime Environment
JVM: OpenJDK 64-Bit Server VM
Java Version: 11.0.10+9
Operating System: Linux
Default Encoding: UTF-8
Language: en
Country: null
--></g></svg>