<?xml version="1.0" encoding="UTF-8" standalone="no"?><svg xmlns="http://www.w3.org/2000/svg" xmlns:xlink="http://www.w3.org/1999/xlink" contentScriptType="application/ecmascript" contentStyleType="text/css" height="333px" preserveAspectRatio="none" style="width:456px;height:333px;" version="1.1" viewBox="0 0 456 333" width="456px" zoomAndPan="magnify"><defs><filter height="300%" id="fat4frb34zbea" width="300%" x="-1" y="-1"><feGaussianBlur result="blurOut" stdDeviation="2.0"/><feColorMatrix in="blurOut" result="blurOut2" type="matrix" values="0 0 0 0 0 0 0 0 0 0 0 0 0 0 0 0 0 0 .4 0"/><feOffset dx="4.0" dy="4.0" in="blurOut2" result="blurOut3"/><feBlend in="SourceGraphic" in2="blurOut3" mode="normal"/></filter></defs><g><!--MD5=[576a28caab40e37ffe9b88ce00509cf7]
class com.ibm.fhir.model.type.ElementDefinition.Base.Builder--><a href="ElementDefinition.Base.Builder.html" target="_top" title="ElementDefinition.Base.Builder.html" xlink:actuate="onRequest" xlink:href="ElementDefinition.Base.Builder.html" xlink:show="new" xlink:title="ElementDefinition.Base.Builder.html" xlink:type="simple"><rect fill="#FEFECE" filter="url(#fat4frb34zbea)" height="173.9844" id="com.ibm.fhir.model.type.ElementDefinition.Base.Builder" style="stroke: #A80036; stroke-width: 1.5;" width="312" x="73.5" y="127"/><ellipse cx="118.75" cy="145.9688" fill="#ADD1B2" rx="11" ry="11" style="stroke: #A80036; stroke-width: 1.0;"/><path d="M121.7188,151.6094 Q121.1406,151.9063 120.5,152.0469 Q119.8594,152.2031 119.1563,152.2031 Q116.6563,152.2031 115.3281,150.5625 Q114.0156,148.9063 114.0156,145.7813 Q114.0156,142.6563 115.3281,141 Q116.6563,139.3438 119.1563,139.3438 Q119.8594,139.3438 120.5,139.5 Q121.1563,139.6563 121.7188,139.9531 L121.7188,142.6719 Q121.0938,142.0938 120.5,141.8281 Q119.9063,141.5469 119.2813,141.5469 Q117.9375,141.5469 117.25,142.625 Q116.5625,143.6875 116.5625,145.7813 Q116.5625,147.875 117.25,148.9531 Q117.9375,150.0156 119.2813,150.0156 Q119.9063,150.0156 120.5,149.75 Q121.0938,149.4688 121.7188,148.8906 L121.7188,151.6094 Z "/><text fill="#000000" font-family="sans-serif" font-size="14" lengthAdjust="spacingAndGlyphs" textLength="213" x="139.25" y="144.9951">ElementDefinition.Base.Builder</text><text fill="#000000" font-family="sans-serif" font-size="10" lengthAdjust="spacingAndGlyphs" textLength="119" x="186.25" y="157.5791">com.ibm.fhir.model.type</text><line style="stroke: #A80036; stroke-width: 1.5;" x1="74.5" x2="384.5" y1="164.9375" y2="164.9375"/><ellipse cx="84.5" cy="175.9375" fill="#84BE84" rx="3" ry="3" style="stroke: #038048; stroke-width: 1.0;"/><text fill="#000000" font-family="sans-serif" font-size="11" lengthAdjust="spacingAndGlyphs" textLength="100" x="93.5" y="179.1479">id(String): Builder</text><ellipse cx="84.5" cy="188.7422" fill="#84BE84" rx="3" ry="3" style="stroke: #038048; stroke-width: 1.0;"/><text fill="#000000" font-family="sans-serif" font-size="11" lengthAdjust="spacingAndGlyphs" textLength="178" x="93.5" y="191.9526">extension(Extension...): Builder</text><ellipse cx="84.5" cy="201.5469" fill="#84BE84" rx="3" ry="3" style="stroke: #038048; stroke-width: 1.0;"/><text fill="#000000" font-family="sans-serif" font-size="11" lengthAdjust="spacingAndGlyphs" textLength="239" x="93.5" y="204.7573">extension(Collection&lt;Extension&gt;): Builder</text><ellipse cx="84.5" cy="214.3516" fill="#84BE84" rx="3" ry="3" style="stroke: #038048; stroke-width: 1.0;"/><text fill="#000000" font-family="sans-serif" font-size="11" lengthAdjust="spacingAndGlyphs" textLength="225" x="93.5" y="217.562">modifierExtension(Extension...): Builder</text><ellipse cx="84.5" cy="227.1563" fill="#84BE84" rx="3" ry="3" style="stroke: #038048; stroke-width: 1.0;"/><text fill="#000000" font-family="sans-serif" font-size="11" lengthAdjust="spacingAndGlyphs" textLength="286" x="93.5" y="230.3667">modifierExtension(Collection&lt;Extension&gt;): Builder</text><ellipse cx="84.5" cy="239.9609" fill="#84BE84" rx="3" ry="3" style="stroke: #038048; stroke-width: 1.0;"/><text fill="#000000" font-family="sans-serif" font-size="11" lengthAdjust="spacingAndGlyphs" textLength="115" x="93.5" y="243.1714">path(String): Builder</text><ellipse cx="84.5" cy="252.7656" fill="#84BE84" rx="3" ry="3" style="stroke: #038048; stroke-width: 1.0;"/><text fill="#000000" font-family="sans-serif" font-size="11" lengthAdjust="spacingAndGlyphs" textLength="144" x="93.5" y="255.9761">min(UnsignedInt): Builder</text><ellipse cx="84.5" cy="265.5703" fill="#84BE84" rx="3" ry="3" style="stroke: #038048; stroke-width: 1.0;"/><text fill="#000000" font-family="sans-serif" font-size="11" lengthAdjust="spacingAndGlyphs" textLength="114" x="93.5" y="268.7808">max(String): Builder</text><ellipse cx="84.5" cy="278.375" fill="#84BE84" rx="3" ry="3" style="stroke: #038048; stroke-width: 1.0;"/><text fill="#000000" font-family="sans-serif" font-size="11" lengthAdjust="spacingAndGlyphs" textLength="72" x="93.5" y="281.5854">build(): Base</text><polygon fill="#FFFF44" points="84.5,286.1797,88.5,290.1797,84.5,294.1797,80.5,290.1797" style="stroke: #B38D22; stroke-width: 1.0;"/><text fill="#000000" font-family="sans-serif" font-size="11" lengthAdjust="spacingAndGlyphs" textLength="112" x="93.5" y="294.3901">from(Base): Builder</text></a><!--MD5=[b7b0ea86c8a299e1957933e33e561193]
class com.ibm.fhir.model.type.BackboneElement.Builder--><a href="BackboneElement.Builder.html" target="_top" title="BackboneElement.Builder.html" xlink:actuate="onRequest" xlink:href="BackboneElement.Builder.html" xlink:show="new" xlink:title="BackboneElement.Builder.html" xlink:type="simple"><rect fill="#FEFECE" filter="url(#fat4frb34zbea)" height="58.7422" id="com.ibm.fhir.model.type.BackboneElement.Builder" style="stroke: #A80036; stroke-width: 1.5;" width="211" x="6" y="8"/><ellipse cx="21" cy="26.9688" fill="#A9DCDF" rx="11" ry="11" style="stroke: #A80036; stroke-width: 1.0;"/><path d="M21.1094,22.3125 L19.9531,27.3906 L22.2813,27.3906 L21.1094,22.3125 Z M19.625,20.0781 L22.6094,20.0781 L25.9688,32.4688 L23.5156,32.4688 L22.75,29.4063 L19.4688,29.4063 L18.7188,32.4688 L16.2813,32.4688 L19.625,20.0781 Z "/><text fill="#000000" font-family="sans-serif" font-size="14" font-style="italic" lengthAdjust="spacingAndGlyphs" textLength="179" x="35" y="25.9951">BackboneElement.Builder</text><text fill="#000000" font-family="sans-serif" font-size="10" font-style="italic" lengthAdjust="spacingAndGlyphs" textLength="119" x="65" y="38.5791">com.ibm.fhir.model.type</text><line style="stroke: #A80036; stroke-width: 1.5;" x1="7" x2="216" y1="45.9375" y2="45.9375"/><ellipse cx="17" cy="56.9375" fill="#84BE84" rx="3" ry="3" style="stroke: #038048; stroke-width: 1.0;"/><text fill="#000000" font-family="sans-serif" font-size="11" font-style="italic" lengthAdjust="spacingAndGlyphs" textLength="144" x="26" y="60.1479">build(): BackboneElement</text></a><!--MD5=[9b3dbf28208a7ab21b8233f49c4d30b3]
class com.ibm.fhir.model.type.ElementDefinition.Base--><a href="ElementDefinition.Base.html" target="_top" title="ElementDefinition.Base.html" xlink:actuate="onRequest" xlink:href="ElementDefinition.Base.html" xlink:show="new" xlink:title="ElementDefinition.Base.html" xlink:type="simple"><rect fill="#FEFECE" filter="url(#fat4frb34zbea)" height="37.9375" id="com.ibm.fhir.model.type.ElementDefinition.Base" style="stroke: #A80036; stroke-width: 1.5;" width="193" x="252" y="18.5"/><ellipse cx="267" cy="37.4688" fill="#ADD1B2" rx="11" ry="11" style="stroke: #A80036; stroke-width: 1.0;"/><path d="M269.9688,43.1094 Q269.3906,43.4063 268.75,43.5469 Q268.1094,43.7031 267.4063,43.7031 Q264.9063,43.7031 263.5781,42.0625 Q262.2656,40.4063 262.2656,37.2813 Q262.2656,34.1563 263.5781,32.5 Q264.9063,30.8438 267.4063,30.8438 Q268.1094,30.8438 268.75,31 Q269.4063,31.1563 269.9688,31.4531 L269.9688,34.1719 Q269.3438,33.5938 268.75,33.3281 Q268.1563,33.0469 267.5313,33.0469 Q266.1875,33.0469 265.5,34.125 Q264.8125,35.1875 264.8125,37.2813 Q264.8125,39.375 265.5,40.4531 Q266.1875,41.5156 267.5313,41.5156 Q268.1563,41.5156 268.75,41.25 Q269.3438,40.9688 269.9688,40.3906 L269.9688,43.1094 Z "/><text fill="#000000" font-family="sans-serif" font-size="14" lengthAdjust="spacingAndGlyphs" textLength="161" x="281" y="36.4951">ElementDefinition.Base</text><text fill="#000000" font-family="sans-serif" font-size="10" lengthAdjust="spacingAndGlyphs" textLength="119" x="302" y="49.0791">com.ibm.fhir.model.type</text></a><!--MD5=[9a5982eb42a66a4c717904ae45a619fb]
reverse link com.ibm.fhir.model.type.BackboneElement.Builder to com.ibm.fhir.model.type.ElementDefinition.Base.Builder--><path d="M142.532,83.9165 C151.3782,97.1483 161.3156,112.0124 171.2258,126.8357 " fill="none" id="com.ibm.fhir.model.type.BackboneElement.Builder&lt;-com.ibm.fhir.model.type.ElementDefinition.Base.Builder" style="stroke: #A80036; stroke-width: 1.0;"/><polygon fill="none" points="136.547,87.5592,131.2505,67.0421,148.1856,79.7781,136.547,87.5592" style="stroke: #A80036; stroke-width: 1.0;"/><!--MD5=[fb8c95cb8125d2d394c143043f322694]
reverse link com.ibm.fhir.model.type.ElementDefinition.Base to com.ibm.fhir.model.type.ElementDefinition.Base.Builder--><path d="M327.1189,69.2123 C316.1869,85.4265 302.2897,106.0388 288.4335,126.5903 " fill="none" id="com.ibm.fhir.model.type.ElementDefinition.Base&lt;-com.ibm.fhir.model.type.ElementDefinition.Base.Builder" style="stroke: #A80036; stroke-width: 1.0;"/><ellipse cx="331.0662" cy="63.3578" fill="#FFFFFF" rx="8" ry="8" style="stroke: #A80036; stroke-width: 1.0;"/><line style="stroke: #A80036; stroke-width: 1.0;" x1="326.5939" x2="335.5384" y1="69.9909" y2="56.7246"/><line style="stroke: #A80036; stroke-width: 1.0;" x1="324.433" x2="337.6993" y1="58.8855" y2="67.83"/><text fill="#888888" font-family="sans-serif" font-size="10" lengthAdjust="spacingAndGlyphs" textLength="186" x="138.5" y="320.2822">UMLDoclet 2.0.7, PlantUML 1.2019.12</text><!--MD5=[92cb1c7d5f13d6ac0da8d9261b71a1dd]
@startuml
    set namespaceSeparator none
    hide empty fields
    hide empty methods

    class "<size:14>ElementDefinition.Base.Builder\n<size:10>com.ibm.fhir.model.type" as com.ibm.fhir.model.type.ElementDefinition.Base.Builder [[ElementDefinition.Base.Builder.html]] {
        +id(String): Builder
        +extension(Extension...): Builder
        +extension(Collection<Extension>): Builder
        +modifierExtension(Extension...): Builder
        +modifierExtension(Collection<Extension>): Builder
        +path(String): Builder
        +min(UnsignedInt): Builder
        +max(String): Builder
        +build(): Base
        #from(Base): Builder
    }

    abstract class "<size:14>BackboneElement.Builder\n<size:10>com.ibm.fhir.model.type" as com.ibm.fhir.model.type.BackboneElement.Builder [[BackboneElement.Builder.html]] {
        {abstract} +build(): BackboneElement
    }
    class "<size:14>ElementDefinition.Base\n<size:10>com.ibm.fhir.model.type" as com.ibm.fhir.model.type.ElementDefinition.Base [[ElementDefinition.Base.html]]

    com.ibm.fhir.model.type.BackboneElement.Builder <|- - com.ibm.fhir.model.type.ElementDefinition.Base.Builder
    com.ibm.fhir.model.type.ElementDefinition.Base +- - com.ibm.fhir.model.type.ElementDefinition.Base.Builder

    center footer UMLDoclet 2.0.7, PlantUML 1.2019.12
@enduml

PlantUML version 1.2019.12(Sun Nov 03 10:24:54 UTC 2019)
(APACHE source distribution)
Java Runtime: OpenJDK Runtime Environment
JVM: OpenJDK 64-Bit Server VM
Java Version: 11.0.8+10
Operating System: Linux
Default Encoding: UTF-8
Language: en
Country: null
--></g></svg>