<?xml version="1.0" encoding="UTF-8" standalone="no"?><svg xmlns="http://www.w3.org/2000/svg" xmlns:xlink="http://www.w3.org/1999/xlink" contentScriptType="application/ecmascript" contentStyleType="text/css" height="248px" preserveAspectRatio="none" style="width:630px;height:248px;" version="1.1" viewBox="0 0 630 248" width="630px" zoomAndPan="magnify"><defs><filter height="300%" id="f8pfepcxmnjp7" width="300%" x="-1" y="-1"><feGaussianBlur result="blurOut" stdDeviation="2.0"/><feColorMatrix in="blurOut" result="blurOut2" type="matrix" values="0 0 0 0 0 0 0 0 0 0 0 0 0 0 0 0 0 0 .4 0"/><feOffset dx="4.0" dy="4.0" in="blurOut2" result="blurOut3"/><feBlend in="SourceGraphic" in2="blurOut3" mode="normal"/></filter></defs><g><!--MD5=[ee0692807ed4456c428f768d75ebc8c8]
class com.ibm.fhir.audit.cadf.model.CadfCredential--><a href="CadfCredential.html" target="_top" title="CadfCredential.html" xlink:actuate="onRequest" xlink:href="CadfCredential.html" xlink:show="new" xlink:title="CadfCredential.html" xlink:type="simple"><rect fill="#FEFECE" filter="url(#f8pfepcxmnjp7)" height="109.9609" id="com.ibm.fhir.audit.cadf.model.CadfCredential" style="stroke: #A80036; stroke-width: 1.5;" width="263" x="183" y="8"/><ellipse cx="237.75" cy="26.9688" fill="#ADD1B2" rx="11" ry="11" style="stroke: #A80036; stroke-width: 1.0;"/><path d="M240.7188,32.6094 Q240.1406,32.9063 239.5,33.0469 Q238.8594,33.2031 238.1563,33.2031 Q235.6563,33.2031 234.3281,31.5625 Q233.0156,29.9063 233.0156,26.7813 Q233.0156,23.6563 234.3281,22 Q235.6563,20.3438 238.1563,20.3438 Q238.8594,20.3438 239.5,20.5 Q240.1563,20.6563 240.7188,20.9531 L240.7188,23.6719 Q240.0938,23.0938 239.5,22.8281 Q238.9063,22.5469 238.2813,22.5469 Q236.9375,22.5469 236.25,23.625 Q235.5625,24.6875 235.5625,26.7813 Q235.5625,28.875 236.25,29.9531 Q236.9375,31.0156 238.2813,31.0156 Q238.9063,31.0156 239.5,30.75 Q240.0938,30.4688 240.7188,29.8906 L240.7188,32.6094 Z "/><text fill="#000000" font-family="sans-serif" font-size="14" lengthAdjust="spacingAndGlyphs" textLength="101" x="280.25" y="25.9951">CadfCredential</text><text fill="#000000" font-family="sans-serif" font-size="10" lengthAdjust="spacingAndGlyphs" textLength="145" x="258.25" y="38.5791">com.ibm.fhir.audit.cadf.model</text><line style="stroke: #A80036; stroke-width: 1.5;" x1="184" x2="445" y1="45.9375" y2="45.9375"/><ellipse cx="194" cy="56.9375" fill="#84BE84" rx="3" ry="3" style="stroke: #038048; stroke-width: 1.0;"/><text fill="#000000" font-family="sans-serif" font-size="11" lengthAdjust="spacingAndGlyphs" textLength="95" x="203" y="60.1479">getType(): String</text><ellipse cx="194" cy="69.7422" fill="#84BE84" rx="3" ry="3" style="stroke: #038048; stroke-width: 1.0;"/><text fill="#000000" font-family="sans-serif" font-size="11" lengthAdjust="spacingAndGlyphs" textLength="118" x="203" y="72.9526">getAuthority(): String</text><ellipse cx="194" cy="82.5469" fill="#84BE84" rx="3" ry="3" style="stroke: #038048; stroke-width: 1.0;"/><text fill="#000000" font-family="sans-serif" font-size="11" lengthAdjust="spacingAndGlyphs" textLength="237" x="203" y="85.7573">getAssertions(): ArrayList&lt;CadfMapItem&gt;</text><ellipse cx="194" cy="95.3516" fill="#84BE84" rx="3" ry="3" style="stroke: #038048; stroke-width: 1.0;"/><text fill="#000000" font-family="sans-serif" font-size="11" lengthAdjust="spacingAndGlyphs" textLength="102" x="203" y="98.562">getToken(): String</text><ellipse cx="194" cy="108.1563" fill="#84BE84" rx="3" ry="3" style="stroke: #038048; stroke-width: 1.0;"/><text fill="#000000" font-family="sans-serif" font-size="11" lengthAdjust="spacingAndGlyphs" text-decoration="underline" textLength="95" x="203" y="111.3667">builder(): Builder</text></a><!--MD5=[b1cd471ec9aad7955b7ea665a367bd86]
class com.ibm.fhir.audit.cadf.model.CadfCredential.Builder--><a href="CadfCredential.Builder.html" target="_top" title="CadfCredential.Builder.html" xlink:actuate="onRequest" xlink:href="CadfCredential.Builder.html" xlink:show="new" xlink:title="CadfCredential.Builder.html" xlink:type="simple"><rect fill="#FEFECE" filter="url(#f8pfepcxmnjp7)" height="37.9375" id="com.ibm.fhir.audit.cadf.model.CadfCredential.Builder" style="stroke: #A80036; stroke-width: 1.5;" width="185" x="6" y="178"/><ellipse cx="21" cy="196.9688" fill="#ADD1B2" rx="11" ry="11" style="stroke: #A80036; stroke-width: 1.0;"/><path d="M23.9688,202.6094 Q23.3906,202.9063 22.75,203.0469 Q22.1094,203.2031 21.4063,203.2031 Q18.9063,203.2031 17.5781,201.5625 Q16.2656,199.9063 16.2656,196.7813 Q16.2656,193.6563 17.5781,192 Q18.9063,190.3438 21.4063,190.3438 Q22.1094,190.3438 22.75,190.5 Q23.4063,190.6563 23.9688,190.9531 L23.9688,193.6719 Q23.3438,193.0938 22.75,192.8281 Q22.1563,192.5469 21.5313,192.5469 Q20.1875,192.5469 19.5,193.625 Q18.8125,194.6875 18.8125,196.7813 Q18.8125,198.875 19.5,199.9531 Q20.1875,201.0156 21.5313,201.0156 Q22.1563,201.0156 22.75,200.75 Q23.3438,200.4688 23.9688,199.8906 L23.9688,202.6094 Z "/><text fill="#000000" font-family="sans-serif" font-size="14" lengthAdjust="spacingAndGlyphs" textLength="153" x="35" y="195.9951">CadfCredential.Builder</text><text fill="#000000" font-family="sans-serif" font-size="10" lengthAdjust="spacingAndGlyphs" textLength="145" x="39" y="208.5791">com.ibm.fhir.audit.cadf.model</text></a><!--MD5=[209f1a04255f547ae453a22e1a7da088]
class com.ibm.fhir.audit.cadf.model.CadfCredential.Writer--><a href="CadfCredential.Writer.html" target="_top" title="CadfCredential.Writer.html" xlink:actuate="onRequest" xlink:href="CadfCredential.Writer.html" xlink:show="new" xlink:title="CadfCredential.Writer.html" xlink:type="simple"><rect fill="#FEFECE" filter="url(#f8pfepcxmnjp7)" height="37.9375" id="com.ibm.fhir.audit.cadf.model.CadfCredential.Writer" style="stroke: #A80036; stroke-width: 1.5;" width="177" x="226" y="178"/><ellipse cx="241" cy="196.9688" fill="#ADD1B2" rx="11" ry="11" style="stroke: #A80036; stroke-width: 1.0;"/><path d="M243.9688,202.6094 Q243.3906,202.9063 242.75,203.0469 Q242.1094,203.2031 241.4063,203.2031 Q238.9063,203.2031 237.5781,201.5625 Q236.2656,199.9063 236.2656,196.7813 Q236.2656,193.6563 237.5781,192 Q238.9063,190.3438 241.4063,190.3438 Q242.1094,190.3438 242.75,190.5 Q243.4063,190.6563 243.9688,190.9531 L243.9688,193.6719 Q243.3438,193.0938 242.75,192.8281 Q242.1563,192.5469 241.5313,192.5469 Q240.1875,192.5469 239.5,193.625 Q238.8125,194.6875 238.8125,196.7813 Q238.8125,198.875 239.5,199.9531 Q240.1875,201.0156 241.5313,201.0156 Q242.1563,201.0156 242.75,200.75 Q243.3438,200.4688 243.9688,199.8906 L243.9688,202.6094 Z "/><text fill="#000000" font-family="sans-serif" font-size="14" lengthAdjust="spacingAndGlyphs" textLength="145" x="255" y="195.9951">CadfCredential.Writer</text><text fill="#000000" font-family="sans-serif" font-size="10" lengthAdjust="spacingAndGlyphs" textLength="145" x="255" y="208.5791">com.ibm.fhir.audit.cadf.model</text></a><!--MD5=[926c033c9b797bfff8d6cf2420cd4b33]
class com.ibm.fhir.audit.cadf.model.CadfCredential.Parser--><a href="CadfCredential.Parser.html" target="_top" title="CadfCredential.Parser.html" xlink:actuate="onRequest" xlink:href="CadfCredential.Parser.html" xlink:show="new" xlink:title="CadfCredential.Parser.html" xlink:type="simple"><rect fill="#FEFECE" filter="url(#f8pfepcxmnjp7)" height="37.9375" id="com.ibm.fhir.audit.cadf.model.CadfCredential.Parser" style="stroke: #A80036; stroke-width: 1.5;" width="181" x="438" y="178"/><ellipse cx="453" cy="196.9688" fill="#ADD1B2" rx="11" ry="11" style="stroke: #A80036; stroke-width: 1.0;"/><path d="M455.9688,202.6094 Q455.3906,202.9063 454.75,203.0469 Q454.1094,203.2031 453.4063,203.2031 Q450.9063,203.2031 449.5781,201.5625 Q448.2656,199.9063 448.2656,196.7813 Q448.2656,193.6563 449.5781,192 Q450.9063,190.3438 453.4063,190.3438 Q454.1094,190.3438 454.75,190.5 Q455.4063,190.6563 455.9688,190.9531 L455.9688,193.6719 Q455.3438,193.0938 454.75,192.8281 Q454.1563,192.5469 453.5313,192.5469 Q452.1875,192.5469 451.5,193.625 Q450.8125,194.6875 450.8125,196.7813 Q450.8125,198.875 451.5,199.9531 Q452.1875,201.0156 453.5313,201.0156 Q454.1563,201.0156 454.75,200.75 Q455.3438,200.4688 455.9688,199.8906 L455.9688,202.6094 Z "/><text fill="#000000" font-family="sans-serif" font-size="14" lengthAdjust="spacingAndGlyphs" textLength="149" x="467" y="195.9951">CadfCredential.Parser</text><text fill="#000000" font-family="sans-serif" font-size="10" lengthAdjust="spacingAndGlyphs" textLength="145" x="469" y="208.5791">com.ibm.fhir.audit.cadf.model</text></a><!--MD5=[f80c1460608123f8699fabff9f45e6c5]
reverse link com.ibm.fhir.audit.cadf.model.CadfCredential to com.ibm.fhir.audit.cadf.model.CadfCredential.Builder--><path d="M212.7401,126.1288 C182.3178,145.0019 151.2329,164.2861 129.1846,177.9642 " fill="none" id="com.ibm.fhir.audit.cadf.model.CadfCredential&lt;-com.ibm.fhir.audit.cadf.model.CadfCredential.Builder" style="stroke: #A80036; stroke-width: 1.0;"/><ellipse cx="218.9114" cy="122.3004" fill="#FFFFFF" rx="8" ry="8" style="stroke: #A80036; stroke-width: 1.0;"/><line style="stroke: #A80036; stroke-width: 1.0;" x1="212.1133" x2="225.7095" y1="126.5177" y2="118.083"/><line style="stroke: #A80036; stroke-width: 1.0;" x1="214.6941" x2="223.1288" y1="115.5023" y2="129.0984"/><!--MD5=[5aec2520ef4b09f007afad9e8aa8090a]
reverse link com.ibm.fhir.audit.cadf.model.CadfCredential to com.ibm.fhir.audit.cadf.model.CadfCredential.Writer--><path d="M314.5,133.332 C314.5,149.7676 314.5,165.9352 314.5,177.8656 " fill="none" id="com.ibm.fhir.audit.cadf.model.CadfCredential&lt;-com.ibm.fhir.audit.cadf.model.CadfCredential.Writer" style="stroke: #A80036; stroke-width: 1.0;"/><ellipse cx="314.5001" cy="126.2766" fill="#FFFFFF" rx="8" ry="8" style="stroke: #A80036; stroke-width: 1.0;"/><line style="stroke: #A80036; stroke-width: 1.0;" x1="314.5002" x2="314.5" y1="134.2766" y2="118.2766"/><line style="stroke: #A80036; stroke-width: 1.0;" x1="306.5001" x2="322.5001" y1="126.2767" y2="126.2765"/><!--MD5=[c3be382eb865f91c083d54e26c80cdad]
reverse link com.ibm.fhir.audit.cadf.model.CadfCredential to com.ibm.fhir.audit.cadf.model.CadfCredential.Parser--><path d="M415.3176,126.1288 C445.4583,145.0019 476.2554,164.2861 498.0995,177.9642 " fill="none" id="com.ibm.fhir.audit.cadf.model.CadfCredential&lt;-com.ibm.fhir.audit.cadf.model.CadfCredential.Parser" style="stroke: #A80036; stroke-width: 1.0;"/><ellipse cx="409.2488" cy="122.3287" fill="#FFFFFF" rx="8" ry="8" style="stroke: #A80036; stroke-width: 1.0;"/><line style="stroke: #A80036; stroke-width: 1.0;" x1="416.0292" x2="402.4684" y1="126.5744" y2="118.083"/><line style="stroke: #A80036; stroke-width: 1.0;" x1="405.0031" x2="413.4945" y1="129.1091" y2="115.5483"/><text fill="#888888" font-family="sans-serif" font-size="10" lengthAdjust="spacingAndGlyphs" textLength="186" x="225.5" y="235.2822">UMLDoclet 2.0.7, PlantUML 1.2019.12</text><!--MD5=[394b8873f398c93dd51438a7411f58c9]
@startuml
    set namespaceSeparator none
    hide empty fields
    hide empty methods

    class "<size:14>CadfCredential\n<size:10>com.ibm.fhir.audit.cadf.model" as com.ibm.fhir.audit.cadf.model.CadfCredential [[CadfCredential.html]] {
        +getType(): String
        +getAuthority(): String
        +getAssertions(): ArrayList<CadfMapItem>
        +getToken(): String
        {static} +builder(): Builder
    }
    class "<size:14>CadfCredential.Builder\n<size:10>com.ibm.fhir.audit.cadf.model" as com.ibm.fhir.audit.cadf.model.CadfCredential.Builder [[CadfCredential.Builder.html]]
    class "<size:14>CadfCredential.Writer\n<size:10>com.ibm.fhir.audit.cadf.model" as com.ibm.fhir.audit.cadf.model.CadfCredential.Writer [[CadfCredential.Writer.html]]
    class "<size:14>CadfCredential.Parser\n<size:10>com.ibm.fhir.audit.cadf.model" as com.ibm.fhir.audit.cadf.model.CadfCredential.Parser [[CadfCredential.Parser.html]]

    com.ibm.fhir.audit.cadf.model.CadfCredential +- - com.ibm.fhir.audit.cadf.model.CadfCredential.Builder
    com.ibm.fhir.audit.cadf.model.CadfCredential +- - com.ibm.fhir.audit.cadf.model.CadfCredential.Writer
    com.ibm.fhir.audit.cadf.model.CadfCredential +- - com.ibm.fhir.audit.cadf.model.CadfCredential.Parser

    center footer UMLDoclet 2.0.7, PlantUML 1.2019.12
@enduml

PlantUML version 1.2019.12(Sun Nov 03 10:24:54 UTC 2019)
(APACHE source distribution)
Java Runtime: OpenJDK Runtime Environment
JVM: OpenJDK 64-Bit Server VM
Java Version: 11.0.6+10
Operating System: Linux
Default Encoding: UTF-8
Language: en
Country: null
--></g></svg>