<?xml version="1.0" encoding="UTF-8" standalone="no"?><svg xmlns="http://www.w3.org/2000/svg" xmlns:xlink="http://www.w3.org/1999/xlink" contentScriptType="application/ecmascript" contentStyleType="text/css" height="222px" preserveAspectRatio="none" style="width:205px;height:222px;" version="1.1" viewBox="0 0 205 222" width="205px" zoomAndPan="magnify"><defs><filter height="300%" id="fg68v1x9ctzkh" width="300%" x="-1" y="-1"><feGaussianBlur result="blurOut" stdDeviation="2.0"/><feColorMatrix in="blurOut" result="blurOut2" type="matrix" values="0 0 0 0 0 0 0 0 0 0 0 0 0 0 0 0 0 0 .4 0"/><feOffset dx="4.0" dy="4.0" in="blurOut2" result="blurOut3"/><feBlend in="SourceGraphic" in2="blurOut3" mode="normal"/></filter></defs><g><!--MD5=[e1ce901a5fdcd328b65a532759905164]
class com.ibm.fhir.audit.cadf.model.CadfMapItem.Builder--><a href="CadfMapItem.Builder.html" target="_top" title="CadfMapItem.Builder.html" xlink:actuate="onRequest" xlink:href="CadfMapItem.Builder.html" xlink:show="new" xlink:title="CadfMapItem.Builder.html" xlink:type="simple"><rect fill="#FEFECE" filter="url(#fg68v1x9ctzkh)" height="84.3516" id="com.ibm.fhir.audit.cadf.model.CadfMapItem.Builder" style="stroke: #A80036; stroke-width: 1.5;" width="177" x="6" y="106"/><ellipse cx="21" cy="124.9688" fill="#ADD1B2" rx="11" ry="11" style="stroke: #A80036; stroke-width: 1.0;"/><path d="M23.9688,130.6094 Q23.3906,130.9063 22.75,131.0469 Q22.1094,131.2031 21.4063,131.2031 Q18.9063,131.2031 17.5781,129.5625 Q16.2656,127.9063 16.2656,124.7813 Q16.2656,121.6563 17.5781,120 Q18.9063,118.3438 21.4063,118.3438 Q22.1094,118.3438 22.75,118.5 Q23.4063,118.6563 23.9688,118.9531 L23.9688,121.6719 Q23.3438,121.0938 22.75,120.8281 Q22.1563,120.5469 21.5313,120.5469 Q20.1875,120.5469 19.5,121.625 Q18.8125,122.6875 18.8125,124.7813 Q18.8125,126.875 19.5,127.9531 Q20.1875,129.0156 21.5313,129.0156 Q22.1563,129.0156 22.75,128.75 Q23.3438,128.4688 23.9688,127.8906 L23.9688,130.6094 Z "/><text fill="#000000" font-family="sans-serif" font-size="14" lengthAdjust="spacingAndGlyphs" textLength="142" x="36.5" y="123.9951">CadfMapItem.Builder</text><text fill="#000000" font-family="sans-serif" font-size="10" lengthAdjust="spacingAndGlyphs" textLength="145" x="35" y="136.5791">com.ibm.fhir.audit.cadf.model</text><line style="stroke: #A80036; stroke-width: 1.5;" x1="7" x2="182" y1="143.9375" y2="143.9375"/><ellipse cx="17" cy="154.9375" fill="#84BE84" rx="3" ry="3" style="stroke: #038048; stroke-width: 1.0;"/><text fill="#000000" font-family="sans-serif" font-size="11" lengthAdjust="spacingAndGlyphs" textLength="109" x="26" y="158.1479">key(String): Builder</text><ellipse cx="17" cy="167.7422" fill="#84BE84" rx="3" ry="3" style="stroke: #038048; stroke-width: 1.0;"/><text fill="#000000" font-family="sans-serif" font-size="11" lengthAdjust="spacingAndGlyphs" textLength="122" x="26" y="170.9526">value(Object): Builder</text><ellipse cx="17" cy="180.5469" fill="#84BE84" rx="3" ry="3" style="stroke: #038048; stroke-width: 1.0;"/><text fill="#000000" font-family="sans-serif" font-size="11" lengthAdjust="spacingAndGlyphs" textLength="117" x="26" y="183.7573">build(): CadfMapItem</text></a><!--MD5=[71026b59386c0c6dabc7d4126e965b40]
class com.ibm.fhir.audit.cadf.model.CadfMapItem--><a href="CadfMapItem.html" target="_top" title="CadfMapItem.html" xlink:actuate="onRequest" xlink:href="CadfMapItem.html" xlink:show="new" xlink:title="CadfMapItem.html" xlink:type="simple"><rect fill="#FEFECE" filter="url(#fg68v1x9ctzkh)" height="37.9375" id="com.ibm.fhir.audit.cadf.model.CadfMapItem" style="stroke: #A80036; stroke-width: 1.5;" width="177" x="6" y="8"/><ellipse cx="21" cy="26.9688" fill="#ADD1B2" rx="11" ry="11" style="stroke: #A80036; stroke-width: 1.0;"/><path d="M23.9688,32.6094 Q23.3906,32.9063 22.75,33.0469 Q22.1094,33.2031 21.4063,33.2031 Q18.9063,33.2031 17.5781,31.5625 Q16.2656,29.9063 16.2656,26.7813 Q16.2656,23.6563 17.5781,22 Q18.9063,20.3438 21.4063,20.3438 Q22.1094,20.3438 22.75,20.5 Q23.4063,20.6563 23.9688,20.9531 L23.9688,23.6719 Q23.3438,23.0938 22.75,22.8281 Q22.1563,22.5469 21.5313,22.5469 Q20.1875,22.5469 19.5,23.625 Q18.8125,24.6875 18.8125,26.7813 Q18.8125,28.875 19.5,29.9531 Q20.1875,31.0156 21.5313,31.0156 Q22.1563,31.0156 22.75,30.75 Q23.3438,30.4688 23.9688,29.8906 L23.9688,32.6094 Z "/><text fill="#000000" font-family="sans-serif" font-size="14" lengthAdjust="spacingAndGlyphs" textLength="90" x="62.5" y="25.9951">CadfMapItem</text><text fill="#000000" font-family="sans-serif" font-size="10" lengthAdjust="spacingAndGlyphs" textLength="145" x="35" y="38.5791">com.ibm.fhir.audit.cadf.model</text></a><!--MD5=[43a14281f91d6718faf125b6a654dd05]
reverse link com.ibm.fhir.audit.cadf.model.CadfMapItem to com.ibm.fhir.audit.cadf.model.CadfMapItem.Builder--><path d="M94.5,61.1864 C94.5,75.0722 94.5,91.2549 94.5,105.8605 " fill="none" id="com.ibm.fhir.audit.cadf.model.CadfMapItem&lt;-com.ibm.fhir.audit.cadf.model.CadfMapItem.Builder" style="stroke: #A80036; stroke-width: 1.0;"/><ellipse cx="94.5" cy="54.1728" fill="#FFFFFF" rx="8" ry="8" style="stroke: #A80036; stroke-width: 1.0;"/><line style="stroke: #A80036; stroke-width: 1.0;" x1="94.5" x2="94.5" y1="62.1728" y2="46.1728"/><line style="stroke: #A80036; stroke-width: 1.0;" x1="86.5" x2="102.5" y1="54.1728" y2="54.1728"/><text fill="#888888" font-family="sans-serif" font-size="10" lengthAdjust="spacingAndGlyphs" textLength="186" x="7.5" y="209.2822">UMLDoclet 2.0.7, PlantUML 1.2019.12</text><!--MD5=[dc58ec74ed803d90ae4d4bdccaea843a]
@startuml
    set namespaceSeparator none
    hide empty fields
    hide empty methods

    class "<size:14>CadfMapItem.Builder\n<size:10>com.ibm.fhir.audit.cadf.model" as com.ibm.fhir.audit.cadf.model.CadfMapItem.Builder [[CadfMapItem.Builder.html]] {
        +key(String): Builder
        +value(Object): Builder
        +build(): CadfMapItem
    }

    class "<size:14>CadfMapItem\n<size:10>com.ibm.fhir.audit.cadf.model" as com.ibm.fhir.audit.cadf.model.CadfMapItem [[CadfMapItem.html]]

    com.ibm.fhir.audit.cadf.model.CadfMapItem +- - com.ibm.fhir.audit.cadf.model.CadfMapItem.Builder

    center footer UMLDoclet 2.0.7, PlantUML 1.2019.12
@enduml

PlantUML version 1.2019.12(Sun Nov 03 10:24:54 UTC 2019)
(APACHE source distribution)
Java Runtime: OpenJDK Runtime Environment
JVM: OpenJDK 64-Bit Server VM
Java Version: 11.0.6+10
Operating System: Linux
Default Encoding: UTF-8
Language: en
Country: null
--></g></svg>