<?xml version="1.0" encoding="UTF-8" standalone="no"?><svg xmlns="http://www.w3.org/2000/svg" xmlns:xlink="http://www.w3.org/1999/xlink" contentScriptType="application/ecmascript" contentStyleType="text/css" height="300px" preserveAspectRatio="none" style="width:857px;height:300px;" version="1.1" viewBox="0 0 857 300" width="857px" zoomAndPan="magnify"><defs><filter height="300%" id="f2ww0ssi1kzyp" width="300%" x="-1" y="-1"><feGaussianBlur result="blurOut" stdDeviation="2.0"/><feColorMatrix in="blurOut" result="blurOut2" type="matrix" values="0 0 0 0 0 0 0 0 0 0 0 0 0 0 0 0 0 0 .4 0"/><feOffset dx="4.0" dy="4.0" in="blurOut2" result="blurOut3"/><feBlend in="SourceGraphic" in2="blurOut3" mode="normal"/></filter></defs><g><!--MD5=[e6ed67a1caa833ea5a7a41d84ae17e86]
cluster com.ibm.fhir.operation.exception--><polygon fill="#FFFFFF" filter="url(#f2ww0ssi1kzyp)" points="14,124,254,124,261,146.4883,835,146.4883,835,259,14,259,14,124" style="stroke: #000000; stroke-width: 1.5;"/><line style="stroke: #000000; stroke-width: 1.5;" x1="14" x2="261" y1="146.4883" y2="146.4883"/><text fill="#000000" font-family="sans-serif" font-size="14" font-weight="bold" lengthAdjust="spacingAndGlyphs" textLength="234" x="18" y="139.5352">com.ibm.fhir.operation.exception</text><!--MD5=[45a9bf29fc979cb07d88174345e9bd53]
cluster com.ibm.fhir.exception--><polygon fill="#FFFFFF" filter="url(#f2ww0ssi1kzyp)" points="336,16,504,16,511,38.4883,524,38.4883,524,99,336,99,336,16" style="stroke: #000000; stroke-width: 1.5;"/><line style="stroke: #000000; stroke-width: 1.5;" x1="336" x2="511" y1="38.4883" y2="38.4883"/><text fill="#000000" font-family="sans-serif" font-size="14" font-weight="bold" lengthAdjust="spacingAndGlyphs" textLength="162" x="340" y="31.5352">com.ibm.fhir.exception</text><!--MD5=[c71178a87d0e79d58ae32c080597142f]
class com.ibm.fhir.operation.exception.FHIROperationNotFoundException--><a href="FHIROperationNotFoundException.html" target="_top" title="FHIROperationNotFoundException.html" xlink:actuate="onRequest" xlink:href="FHIROperationNotFoundException.html" xlink:show="new" xlink:title="FHIROperationNotFoundException.html" xlink:type="simple"><rect fill="#FEFECE" filter="url(#f2ww0ssi1kzyp)" height="99.8203" id="com.ibm.fhir.operation.exception.FHIROperationNotFoundException" style="stroke: #A80036; stroke-width: 1.5;" width="374" x="453" y="151"/><ellipse cx="538.75" cy="167" fill="#ADD1B2" rx="11" ry="11" style="stroke: #A80036; stroke-width: 1.0;"/><path d="M541.2231,173.1431 Q540.6421,173.4419 540.0029,173.5913 Q539.3638,173.7407 538.6582,173.7407 Q536.1514,173.7407 534.8315,172.0889 Q533.5117,170.437 533.5117,167.3159 Q533.5117,164.1865 534.8315,162.5347 Q536.1514,160.8828 538.6582,160.8828 Q539.3638,160.8828 540.0112,161.0322 Q540.6587,161.1816 541.2231,161.4805 L541.2231,164.2031 Q540.5923,163.6221 539.9988,163.3523 Q539.4053,163.0825 538.7744,163.0825 Q537.4297,163.0825 536.7449,164.1492 Q536.0601,165.2158 536.0601,167.3159 Q536.0601,169.4077 536.7449,170.4744 Q537.4297,171.541 538.7744,171.541 Q539.4053,171.541 539.9988,171.2712 Q540.5923,171.0015 541.2231,170.4204 Z "/><text fill="#000000" font-family="sans-serif" font-size="12" lengthAdjust="spacingAndGlyphs" textLength="194" x="559.25" y="171.5352">FHIROperationNotFoundException</text><line style="stroke: #A80036; stroke-width: 1.5;" x1="454" x2="826" y1="183" y2="183"/><line style="stroke: #A80036; stroke-width: 1.5;" x1="454" x2="826" y1="191" y2="191"/><ellipse cx="464" cy="202" fill="#84BE84" rx="3" ry="3" style="stroke: #038048; stroke-width: 1.0;"/><text fill="#000000" font-family="sans-serif" font-size="11" lengthAdjust="spacingAndGlyphs" textLength="224" x="473" y="205.6348">FHIROperationNotFoundException(String)</text><ellipse cx="464" cy="214.9551" fill="#84BE84" rx="3" ry="3" style="stroke: #038048; stroke-width: 1.0;"/><text fill="#000000" font-family="sans-serif" font-size="11" lengthAdjust="spacingAndGlyphs" textLength="286" x="473" y="218.5898">FHIROperationNotFoundException(String, Throwable)</text><ellipse cx="464" cy="227.9102" fill="#84BE84" rx="3" ry="3" style="stroke: #038048; stroke-width: 1.0;"/><text fill="#000000" font-family="sans-serif" font-size="11" lengthAdjust="spacingAndGlyphs" textLength="285" x="473" y="231.5449">withIssue(Issue...): FHIROperationNotFoundException</text><ellipse cx="464" cy="240.8652" fill="#84BE84" rx="3" ry="3" style="stroke: #038048; stroke-width: 1.0;"/><text fill="#000000" font-family="sans-serif" font-size="11" lengthAdjust="spacingAndGlyphs" textLength="348" x="473" y="244.5">withIssue(Collection&lt;Issue&gt;): FHIROperationNotFoundException</text></a><!--MD5=[be0777e4aff44b1495a7e0cc4b2fe132]
class com.ibm.fhir.operation.exception.FHIROperationNotSupportedException--><a href="FHIROperationNotSupportedException.html" target="_top" title="FHIROperationNotSupportedException.html" xlink:actuate="onRequest" xlink:href="FHIROperationNotSupportedException.html" xlink:show="new" xlink:title="FHIROperationNotSupportedException.html" xlink:type="simple"><rect fill="#FEFECE" filter="url(#f2ww0ssi1kzyp)" height="99.8203" id="com.ibm.fhir.operation.exception.FHIROperationNotSupportedException" style="stroke: #A80036; stroke-width: 1.5;" width="396" x="22" y="151"/><ellipse cx="106.25" cy="167" fill="#ADD1B2" rx="11" ry="11" style="stroke: #A80036; stroke-width: 1.0;"/><path d="M108.7231,173.1431 Q108.1421,173.4419 107.5029,173.5913 Q106.8638,173.7407 106.1582,173.7407 Q103.6514,173.7407 102.3315,172.0889 Q101.0117,170.437 101.0117,167.3159 Q101.0117,164.1865 102.3315,162.5347 Q103.6514,160.8828 106.1582,160.8828 Q106.8638,160.8828 107.5112,161.0322 Q108.1587,161.1816 108.7231,161.4805 L108.7231,164.2031 Q108.0923,163.6221 107.4988,163.3523 Q106.9053,163.0825 106.2744,163.0825 Q104.9297,163.0825 104.2449,164.1492 Q103.5601,165.2158 103.5601,167.3159 Q103.5601,169.4077 104.2449,170.4744 Q104.9297,171.541 106.2744,171.541 Q106.9053,171.541 107.4988,171.2712 Q108.0923,171.0015 108.7231,170.4204 Z "/><text fill="#000000" font-family="sans-serif" font-size="12" lengthAdjust="spacingAndGlyphs" textLength="219" x="126.75" y="171.5352">FHIROperationNotSupportedException</text><line style="stroke: #A80036; stroke-width: 1.5;" x1="23" x2="417" y1="183" y2="183"/><line style="stroke: #A80036; stroke-width: 1.5;" x1="23" x2="417" y1="191" y2="191"/><ellipse cx="33" cy="202" fill="#84BE84" rx="3" ry="3" style="stroke: #038048; stroke-width: 1.0;"/><text fill="#000000" font-family="sans-serif" font-size="11" lengthAdjust="spacingAndGlyphs" textLength="246" x="42" y="205.6348">FHIROperationNotSupportedException(String)</text><ellipse cx="33" cy="214.9551" fill="#84BE84" rx="3" ry="3" style="stroke: #038048; stroke-width: 1.0;"/><text fill="#000000" font-family="sans-serif" font-size="11" lengthAdjust="spacingAndGlyphs" textLength="308" x="42" y="218.5898">FHIROperationNotSupportedException(String, Throwable)</text><ellipse cx="33" cy="227.9102" fill="#84BE84" rx="3" ry="3" style="stroke: #038048; stroke-width: 1.0;"/><text fill="#000000" font-family="sans-serif" font-size="11" lengthAdjust="spacingAndGlyphs" textLength="307" x="42" y="231.5449">withIssue(Issue...): FHIROperationNotSupportedException</text><ellipse cx="33" cy="240.8652" fill="#84BE84" rx="3" ry="3" style="stroke: #038048; stroke-width: 1.0;"/><text fill="#000000" font-family="sans-serif" font-size="11" lengthAdjust="spacingAndGlyphs" textLength="370" x="42" y="244.5">withIssue(Collection&lt;Issue&gt;): FHIROperationNotSupportedException</text></a><!--MD5=[6d6d6ca34c8852304ea27f67c6ddea01]
class com.ibm.fhir.exception.FHIROperationException--><a href="../../exception/FHIROperationException.html" target="_top" title="../../exception/FHIROperationException.html" xlink:actuate="onRequest" xlink:href="../../exception/FHIROperationException.html" xlink:show="new" xlink:title="../../exception/FHIROperationException.html" xlink:type="simple"><rect fill="#FEFECE" filter="url(#f2ww0ssi1kzyp)" height="48" id="com.ibm.fhir.exception.FHIROperationException" style="stroke: #A80036; stroke-width: 1.5;" width="171" x="344.5" y="43"/><ellipse cx="359.5" cy="59" fill="#ADD1B2" rx="11" ry="11" style="stroke: #A80036; stroke-width: 1.0;"/><path d="M361.9731,65.1431 Q361.3921,65.4419 360.7529,65.5913 Q360.1138,65.7407 359.4082,65.7407 Q356.9014,65.7407 355.5815,64.0889 Q354.2617,62.437 354.2617,59.3159 Q354.2617,56.1865 355.5815,54.5347 Q356.9014,52.8828 359.4082,52.8828 Q360.1138,52.8828 360.7612,53.0322 Q361.4087,53.1816 361.9731,53.4805 L361.9731,56.2031 Q361.3423,55.6221 360.7488,55.3523 Q360.1553,55.0825 359.5244,55.0825 Q358.1797,55.0825 357.4949,56.1492 Q356.8101,57.2158 356.8101,59.3159 Q356.8101,61.4077 357.4949,62.4744 Q358.1797,63.541 359.5244,63.541 Q360.1553,63.541 360.7488,63.2712 Q361.3423,63.0015 361.9731,62.4204 Z "/><text fill="#000000" font-family="sans-serif" font-size="12" lengthAdjust="spacingAndGlyphs" textLength="139" x="373.5" y="63.5352">FHIROperationException</text><line style="stroke: #A80036; stroke-width: 1.5;" x1="345.5" x2="514.5" y1="75" y2="75"/><line style="stroke: #A80036; stroke-width: 1.5;" x1="345.5" x2="514.5" y1="83" y2="83"/></a><!--MD5=[9e99ab065091e72dface588e0350d29e]
reverse link com.ibm.fhir.exception.FHIROperationException to com.ibm.fhir.operation.exception.FHIROperationNotFoundException--><path d="M484.9312,102.0513 C508.2734,116.9459 535.926,134.5909 561.3697,150.8264 " fill="none" id="com.ibm.fhir.exception.FHIROperationException&lt;-com.ibm.fhir.operation.exception.FHIROperationNotFoundException" style="stroke: #A80036; stroke-width: 1.0;"/><polygon fill="none" points="481.124,107.9257,468.0294,91.2664,488.6548,96.1237,481.124,107.9257" style="stroke: #A80036; stroke-width: 1.0;"/><!--MD5=[08e57ffdd2e8779e31a86c76965c276f]
reverse link com.ibm.fhir.exception.FHIROperationException to com.ibm.fhir.operation.exception.FHIROperationNotSupportedException--><path d="M375.0688,102.0513 C351.7266,116.9459 324.074,134.5909 298.6303,150.8264 " fill="none" id="com.ibm.fhir.exception.FHIROperationException&lt;-com.ibm.fhir.operation.exception.FHIROperationNotSupportedException" style="stroke: #A80036; stroke-width: 1.0;"/><polygon fill="none" points="371.3452,96.1237,391.9706,91.2664,378.876,107.9257,371.3452,96.1237" style="stroke: #A80036; stroke-width: 1.0;"/><text fill="#888888" font-family="sans-serif" font-size="10" lengthAdjust="spacingAndGlyphs" textLength="182" x="339.5" y="286.668">UMLDoclet 2.0.7, PlantUML 1.2019.12</text><!--MD5=[c38304b959691840682da24d1c32c268]
@startuml
    namespace com.ibm.fhir.operation.exception {

        class FHIROperationNotFoundException [[FHIROperationNotFoundException.html]] {
            +FHIROperationNotFoundException(String)
            +FHIROperationNotFoundException(String, Throwable)
            +withIssue(Issue...): FHIROperationNotFoundException
            +withIssue(Collection<Issue>): FHIROperationNotFoundException
        }

        class FHIROperationNotSupportedException [[FHIROperationNotSupportedException.html]] {
            +FHIROperationNotSupportedException(String)
            +FHIROperationNotSupportedException(String, Throwable)
            +withIssue(Issue...): FHIROperationNotSupportedException
            +withIssue(Collection<Issue>): FHIROperationNotSupportedException
        }

        com.ibm.fhir.exception.FHIROperationException <|- - FHIROperationNotFoundException
        com.ibm.fhir.exception.FHIROperationException <|- - FHIROperationNotSupportedException
    }

    namespace com.ibm.fhir.exception {
        class FHIROperationException [[../../exception/FHIROperationException.html]] {
        }
    }

    center footer UMLDoclet 2.0.7, PlantUML 1.2019.12
@enduml

PlantUML version 1.2019.12(Sun Nov 03 05:24:54 EST 2019)
(APACHE source distribution)
Java Runtime: OpenJDK Runtime Environment
JVM: OpenJDK 64-Bit Server VM
Java Version: 11.0.4+11
Operating System: Mac OS X
Default Encoding: UTF-8
Language: en
Country: US
--></g></svg>