<?xml version="1.0" encoding="UTF-8" standalone="no"?><svg xmlns="http://www.w3.org/2000/svg" xmlns:xlink="http://www.w3.org/1999/xlink" contentScriptType="application/ecmascript" contentStyleType="text/css" height="608px" preserveAspectRatio="none" style="width:898px;height:608px;" version="1.1" viewBox="0 0 898 608" width="898px" zoomAndPan="magnify"><defs><filter height="300%" id="f4fhs6cxiajuu" width="300%" x="-1" y="-1"><feGaussianBlur result="blurOut" stdDeviation="2.0"/><feColorMatrix in="blurOut" result="blurOut2" type="matrix" values="0 0 0 0 0 0 0 0 0 0 0 0 0 0 0 0 0 0 .4 0"/><feOffset dx="4.0" dy="4.0" in="blurOut2" result="blurOut3"/><feBlend in="SourceGraphic" in2="blurOut3" mode="normal"/></filter></defs><g><!--MD5=[9ff0a442b8149e145dc374e2d45ecc37]
cluster com.ibm.fhir.audit--><polygon fill="#FFFFFF" filter="url(#f4fhs6cxiajuu)" points="14,16,162,16,169,38.2969,876,38.2969,876,568,14,568,14,16" style="stroke: #000000; stroke-width: 1.5;"/><line style="stroke: #000000; stroke-width: 1.5;" x1="14" x2="169" y1="38.2969" y2="38.2969"/><text fill="#000000" font-family="sans-serif" font-size="14" font-weight="bold" lengthAdjust="spacingAndGlyphs" textLength="142" x="18" y="30.9951">com.ibm.fhir.audit</text><!--MD5=[ecff40606b1dd0c2c27a1872151db7e9]
class com.ibm.fhir.audit.AuditLogService--><a href="AuditLogService.html" target="_top" title="AuditLogService.html" xlink:actuate="onRequest" xlink:href="AuditLogService.html" xlink:show="new" xlink:title="AuditLogService.html" xlink:type="simple"><rect fill="#FEFECE" filter="url(#f4fhs6cxiajuu)" height="112.0234" id="com.ibm.fhir.audit.AuditLogService" style="stroke: #A80036; stroke-width: 1.5;" width="281" x="586.5" y="448"/><ellipse cx="672.75" cy="464" fill="#B4A7E5" rx="11" ry="11" style="stroke: #A80036; stroke-width: 1.0;"/><path d="M668.6719,459.7656 L668.6719,457.6094 L676.0625,457.6094 L676.0625,459.7656 L673.5938,459.7656 L673.5938,467.8438 L676.0625,467.8438 L676.0625,470 L668.6719,470 L668.6719,467.8438 L671.1406,467.8438 L671.1406,459.7656 L668.6719,459.7656 Z "/><text fill="#000000" font-family="sans-serif" font-size="12" font-style="italic" lengthAdjust="spacingAndGlyphs" textLength="100" x="693.25" y="468.1543">AuditLogService</text><line style="stroke: #A80036; stroke-width: 1.5;" x1="587.5" x2="866.5" y1="480" y2="480"/><line style="stroke: #A80036; stroke-width: 1.5;" x1="587.5" x2="866.5" y1="488" y2="488"/><ellipse cx="597.5" cy="499" fill="#84BE84" rx="3" ry="3" style="stroke: #038048; stroke-width: 1.0;"/><text fill="#000000" font-family="sans-serif" font-size="11" font-style="italic" lengthAdjust="spacingAndGlyphs" textLength="115" x="606.5" y="502.2104">isEnabled(): boolean</text><ellipse cx="597.5" cy="511.8047" fill="#84BE84" rx="3" ry="3" style="stroke: #038048; stroke-width: 1.0;"/><text fill="#000000" font-family="sans-serif" font-size="11" font-style="italic" lengthAdjust="spacingAndGlyphs" textLength="170" x="606.5" y="515.0151">initialize(PropertyGroup): void</text><ellipse cx="597.5" cy="524.6094" fill="#84BE84" rx="3" ry="3" style="stroke: #038048; stroke-width: 1.0;"/><text fill="#000000" font-family="sans-serif" font-size="11" font-style="italic" lengthAdjust="spacingAndGlyphs" textLength="148" x="606.5" y="527.8198">stop(PropertyGroup): void</text><ellipse cx="597.5" cy="537.4141" fill="#84BE84" rx="3" ry="3" style="stroke: #038048; stroke-width: 1.0;"/><text fill="#000000" font-family="sans-serif" font-size="11" font-style="italic" lengthAdjust="spacingAndGlyphs" textLength="166" x="606.5" y="540.6245">logEntry(AuditLogEntry): void</text><ellipse cx="597.5" cy="550.2188" fill="#84BE84" rx="3" ry="3" style="stroke: #038048; stroke-width: 1.0;"/><text fill="#000000" font-family="sans-serif" font-size="11" lengthAdjust="spacingAndGlyphs" textLength="255" x="606.5" y="553.4292">isLoggableOperation(AuditLogEntry): boolean</text></a><!--MD5=[128018c9159aaff5c14c83ca1ef1a872]
class com.ibm.fhir.audit.AuditLogServiceFactory--><a href="AuditLogServiceFactory.html" target="_top" title="AuditLogServiceFactory.html" xlink:actuate="onRequest" xlink:href="AuditLogServiceFactory.html" xlink:show="new" xlink:title="AuditLogServiceFactory.html" xlink:type="simple"><rect fill="#FEFECE" filter="url(#f4fhs6cxiajuu)" height="60.8047" id="com.ibm.fhir.audit.AuditLogServiceFactory" style="stroke: #A80036; stroke-width: 1.5;" width="204" x="664" y="145.5"/><ellipse cx="691.15" cy="161.5" fill="#ADD1B2" rx="11" ry="11" style="stroke: #A80036; stroke-width: 1.0;"/><path d="M694.1188,167.1406 Q693.5406,167.4375 692.9,167.5781 Q692.2594,167.7344 691.5563,167.7344 Q689.0563,167.7344 687.7281,166.0938 Q686.4156,164.4375 686.4156,161.3125 Q686.4156,158.1875 687.7281,156.5313 Q689.0563,154.875 691.5563,154.875 Q692.2594,154.875 692.9,155.0313 Q693.5563,155.1875 694.1188,155.4844 L694.1188,158.2031 Q693.4938,157.625 692.9,157.3594 Q692.3063,157.0781 691.6813,157.0781 Q690.3375,157.0781 689.65,158.1563 Q688.9625,159.2188 688.9625,161.3125 Q688.9625,163.4063 689.65,164.4844 Q690.3375,165.5469 691.6813,165.5469 Q692.3063,165.5469 692.9,165.2813 Q693.4938,165 694.1188,164.4219 L694.1188,167.1406 Z "/><text fill="#000000" font-family="sans-serif" font-size="12" lengthAdjust="spacingAndGlyphs" textLength="145" x="707.85" y="165.6543">AuditLogServiceFactory</text><line style="stroke: #A80036; stroke-width: 1.5;" x1="665" x2="867" y1="177.5" y2="177.5"/><line style="stroke: #A80036; stroke-width: 1.5;" x1="665" x2="867" y1="185.5" y2="185.5"/><ellipse cx="675" cy="196.5" fill="#84BE84" rx="3" ry="3" style="stroke: #038048; stroke-width: 1.0;"/><text fill="#000000" font-family="sans-serif" font-size="11" lengthAdjust="spacingAndGlyphs" text-decoration="underline" textLength="178" x="684" y="199.7104">resetService(): AuditLogService</text></a><!--MD5=[ba53fc87662df9dfdd414b8366d0fb7b]
class com.ibm.fhir.audit.AuditLogEventType--><a href="AuditLogEventType.html" target="_top" title="AuditLogEventType.html" xlink:actuate="onRequest" xlink:href="AuditLogEventType.html" xlink:show="new" xlink:title="AuditLogEventType.html" xlink:type="simple"><rect fill="#FEFECE" filter="url(#f4fhs6cxiajuu)" height="240.0703" id="com.ibm.fhir.audit.AuditLogEventType" style="stroke: #A80036; stroke-width: 1.5;" width="240" x="389" y="56"/><ellipse cx="445.75" cy="72" fill="#EB937F" rx="11" ry="11" style="stroke: #A80036; stroke-width: 1.0;"/><path d="M449.8594,78 L442.1406,78 L442.1406,65.6094 L449.8594,65.6094 L449.8594,67.7656 L444.5938,67.7656 L444.5938,70.4375 L449.3594,70.4375 L449.3594,72.5938 L444.5938,72.5938 L444.5938,75.8438 L449.8594,75.8438 L449.8594,78 Z "/><text fill="#000000" font-family="sans-serif" font-size="12" lengthAdjust="spacingAndGlyphs" textLength="118" x="466.25" y="76.1543">AuditLogEventType</text><line style="stroke: #A80036; stroke-width: 1.5;" x1="390" x2="628" y1="88" y2="88"/><ellipse cx="400" cy="99" fill="none" rx="3" ry="3" style="stroke: #038048; stroke-width: 1.0;"/><text fill="#000000" font-family="sans-serif" font-size="11" lengthAdjust="spacingAndGlyphs" text-decoration="underline" textLength="73" x="409" y="102.2104">FHIR_CREATE</text><ellipse cx="400" cy="111.8047" fill="none" rx="3" ry="3" style="stroke: #038048; stroke-width: 1.0;"/><text fill="#000000" font-family="sans-serif" font-size="11" lengthAdjust="spacingAndGlyphs" text-decoration="underline" textLength="74" x="409" y="115.0151">FHIR_UPDATE</text><ellipse cx="400" cy="124.6094" fill="none" rx="3" ry="3" style="stroke: #038048; stroke-width: 1.0;"/><text fill="#000000" font-family="sans-serif" font-size="11" lengthAdjust="spacingAndGlyphs" text-decoration="underline" textLength="67" x="409" y="127.8198">FHIR_PATCH</text><ellipse cx="400" cy="137.4141" fill="none" rx="3" ry="3" style="stroke: #038048; stroke-width: 1.0;"/><text fill="#000000" font-family="sans-serif" font-size="11" lengthAdjust="spacingAndGlyphs" text-decoration="underline" textLength="72" x="409" y="140.6245">FHIR_DELETE</text><ellipse cx="400" cy="150.2188" fill="none" rx="3" ry="3" style="stroke: #038048; stroke-width: 1.0;"/><text fill="#000000" font-family="sans-serif" font-size="11" lengthAdjust="spacingAndGlyphs" text-decoration="underline" textLength="59" x="409" y="153.4292">FHIR_READ</text><ellipse cx="400" cy="163.0234" fill="none" rx="3" ry="3" style="stroke: #038048; stroke-width: 1.0;"/><text fill="#000000" font-family="sans-serif" font-size="11" lengthAdjust="spacingAndGlyphs" text-decoration="underline" textLength="66" x="409" y="166.2339">FHIR_VREAD</text><ellipse cx="400" cy="175.8281" fill="none" rx="3" ry="3" style="stroke: #038048; stroke-width: 1.0;"/><text fill="#000000" font-family="sans-serif" font-size="11" lengthAdjust="spacingAndGlyphs" text-decoration="underline" textLength="79" x="409" y="179.0386">FHIR_HISTORY</text><ellipse cx="400" cy="188.6328" fill="none" rx="3" ry="3" style="stroke: #038048; stroke-width: 1.0;"/><text fill="#000000" font-family="sans-serif" font-size="11" lengthAdjust="spacingAndGlyphs" text-decoration="underline" textLength="75" x="409" y="191.8433">FHIR_SEARCH</text><ellipse cx="400" cy="201.4375" fill="none" rx="3" ry="3" style="stroke: #038048; stroke-width: 1.0;"/><text fill="#000000" font-family="sans-serif" font-size="11" lengthAdjust="spacingAndGlyphs" text-decoration="underline" textLength="75" x="409" y="204.6479">FHIR_BUNDLE</text><ellipse cx="400" cy="214.2422" fill="none" rx="3" ry="3" style="stroke: #038048; stroke-width: 1.0;"/><text fill="#000000" font-family="sans-serif" font-size="11" lengthAdjust="spacingAndGlyphs" text-decoration="underline" textLength="82" x="409" y="217.4526">FHIR_VALIDATE</text><ellipse cx="400" cy="227.0469" fill="none" rx="3" ry="3" style="stroke: #038048; stroke-width: 1.0;"/><text fill="#000000" font-family="sans-serif" font-size="11" lengthAdjust="spacingAndGlyphs" text-decoration="underline" textLength="89" x="409" y="230.2573">FHIR_METADATA</text><ellipse cx="400" cy="239.8516" fill="none" rx="3" ry="3" style="stroke: #038048; stroke-width: 1.0;"/><text fill="#000000" font-family="sans-serif" font-size="11" lengthAdjust="spacingAndGlyphs" text-decoration="underline" textLength="102" x="409" y="243.062">FHIR_CONFIGDATA</text><ellipse cx="400" cy="252.6563" fill="none" rx="3" ry="3" style="stroke: #038048; stroke-width: 1.0;"/><text fill="#000000" font-family="sans-serif" font-size="11" lengthAdjust="spacingAndGlyphs" text-decoration="underline" textLength="94" x="409" y="255.8667">FHIR_OPERATION</text><line style="stroke: #A80036; stroke-width: 1.5;" x1="390" x2="628" y1="262.4609" y2="262.4609"/><ellipse cx="400" cy="273.4609" fill="#84BE84" rx="3" ry="3" style="stroke: #038048; stroke-width: 1.0;"/><text fill="#000000" font-family="sans-serif" font-size="11" lengthAdjust="spacingAndGlyphs" textLength="80" x="409" y="276.6714">value(): String</text><ellipse cx="400" cy="286.2656" fill="#84BE84" rx="3" ry="3" style="stroke: #038048; stroke-width: 1.0;"/><text fill="#000000" font-family="sans-serif" font-size="11" lengthAdjust="spacingAndGlyphs" text-decoration="underline" textLength="214" x="409" y="289.4761">fromValue(String): AuditLogEventType</text></a><!--MD5=[aed10b88b689e56ef77612a96f60b1e0]
class com.ibm.fhir.audit.AuditLogServiceConstants--><a href="AuditLogServiceConstants.html" target="_top" title="AuditLogServiceConstants.html" xlink:actuate="onRequest" xlink:href="AuditLogServiceConstants.html" xlink:show="new" xlink:title="AuditLogServiceConstants.html" xlink:type="simple"><rect fill="#FEFECE" filter="url(#f4fhs6cxiajuu)" height="265.6797" id="com.ibm.fhir.audit.AuditLogServiceConstants" style="stroke: #A80036; stroke-width: 1.5;" width="331" x="22.5" y="43"/><ellipse cx="102.25" cy="59" fill="#ADD1B2" rx="11" ry="11" style="stroke: #A80036; stroke-width: 1.0;"/><path d="M105.2188,64.6406 Q104.6406,64.9375 104,65.0781 Q103.3594,65.2344 102.6563,65.2344 Q100.1563,65.2344 98.8281,63.5938 Q97.5156,61.9375 97.5156,58.8125 Q97.5156,55.6875 98.8281,54.0313 Q100.1563,52.375 102.6563,52.375 Q103.3594,52.375 104,52.5313 Q104.6563,52.6875 105.2188,52.9844 L105.2188,55.7031 Q104.5938,55.125 104,54.8594 Q103.4063,54.5781 102.7813,54.5781 Q101.4375,54.5781 100.75,55.6563 Q100.0625,56.7188 100.0625,58.8125 Q100.0625,60.9063 100.75,61.9844 Q101.4375,63.0469 102.7813,63.0469 Q103.4063,63.0469 104,62.7813 Q104.5938,62.5 105.2188,61.9219 L105.2188,64.6406 Z "/><text fill="#000000" font-family="sans-serif" font-size="12" lengthAdjust="spacingAndGlyphs" textLength="163" x="122.75" y="63.1543">AuditLogServiceConstants</text><line style="stroke: #A80036; stroke-width: 1.5;" x1="23.5" x2="352.5" y1="75" y2="75"/><ellipse cx="33.5" cy="86" fill="none" rx="3" ry="3" style="stroke: #038048; stroke-width: 1.0;"/><text fill="#000000" font-family="sans-serif" font-size="11" lengthAdjust="spacingAndGlyphs" text-decoration="underline" textLength="219" x="42.5" y="89.2104">PROPERTY_AUDIT_KAFKA_TOPIC: String</text><ellipse cx="33.5" cy="98.8047" fill="none" rx="3" ry="3" style="stroke: #038048; stroke-width: 1.0;"/><text fill="#000000" font-family="sans-serif" font-size="11" lengthAdjust="spacingAndGlyphs" text-decoration="underline" textLength="201" x="42.5" y="102.0151">PROPERTY_AUDIT_GEO_CITY: String</text><ellipse cx="33.5" cy="111.6094" fill="none" rx="3" ry="3" style="stroke: #038048; stroke-width: 1.0;"/><text fill="#000000" font-family="sans-serif" font-size="11" lengthAdjust="spacingAndGlyphs" text-decoration="underline" textLength="212" x="42.5" y="114.8198">PROPERTY_AUDIT_GEO_STATE: String</text><ellipse cx="33.5" cy="124.4141" fill="none" rx="3" ry="3" style="stroke: #038048; stroke-width: 1.0;"/><text fill="#000000" font-family="sans-serif" font-size="11" lengthAdjust="spacingAndGlyphs" text-decoration="underline" textLength="230" x="42.5" y="127.6245">PROPERTY_AUDIT_GEO_COUNTRY: String</text><ellipse cx="33.5" cy="137.2188" fill="none" rx="3" ry="3" style="stroke: #038048; stroke-width: 1.0;"/><text fill="#000000" font-family="sans-serif" font-size="11" lengthAdjust="spacingAndGlyphs" text-decoration="underline" textLength="305" x="42.5" y="140.4292">PROPERTY_AUDIT_KAFKA_BOOTSTRAPSERVERS: String</text><ellipse cx="33.5" cy="150.0234" fill="none" rx="3" ry="3" style="stroke: #038048; stroke-width: 1.0;"/><text fill="#000000" font-family="sans-serif" font-size="11" lengthAdjust="spacingAndGlyphs" text-decoration="underline" textLength="223" x="42.5" y="153.2339">PROPERTY_AUDIT_KAFKA_APIKEY: String</text><ellipse cx="33.5" cy="162.8281" fill="none" rx="3" ry="3" style="stroke: #038048; stroke-width: 1.0;"/><text fill="#000000" font-family="sans-serif" font-size="11" lengthAdjust="spacingAndGlyphs" text-decoration="underline" textLength="189" x="42.5" y="166.0386">PROPERTY_AUDIT_MAPPER: String</text><ellipse cx="33.5" cy="175.6328" fill="none" rx="3" ry="3" style="stroke: #038048; stroke-width: 1.0;"/><text fill="#000000" font-family="sans-serif" font-size="11" lengthAdjust="spacingAndGlyphs" text-decoration="underline" textLength="141" x="42.5" y="178.8433">DEFAULT_MAPPER: String</text><ellipse cx="33.5" cy="188.4375" fill="none" rx="3" ry="3" style="stroke: #038048; stroke-width: 1.0;"/><text fill="#000000" font-family="sans-serif" font-size="11" lengthAdjust="spacingAndGlyphs" text-decoration="underline" textLength="143" x="42.5" y="191.6479">KAFKA_USERNAME: String</text><ellipse cx="33.5" cy="201.2422" fill="none" rx="3" ry="3" style="stroke: #038048; stroke-width: 1.0;"/><text fill="#000000" font-family="sans-serif" font-size="11" lengthAdjust="spacingAndGlyphs" text-decoration="underline" textLength="210" x="42.5" y="204.4526">DEFAULT_AUDIT_KAFKA_TOPIC: String</text><ellipse cx="33.5" cy="214.0469" fill="none" rx="3" ry="3" style="stroke: #038048; stroke-width: 1.0;"/><text fill="#000000" font-family="sans-serif" font-size="11" lengthAdjust="spacingAndGlyphs" text-decoration="underline" textLength="192" x="42.5" y="217.2573">DEFAULT_AUDIT_GEO_CITY: String</text><ellipse cx="33.5" cy="226.8516" fill="none" rx="3" ry="3" style="stroke: #038048; stroke-width: 1.0;"/><text fill="#000000" font-family="sans-serif" font-size="11" lengthAdjust="spacingAndGlyphs" text-decoration="underline" textLength="203" x="42.5" y="230.062">DEFAULT_AUDIT_GEO_STATE: String</text><ellipse cx="33.5" cy="239.6563" fill="none" rx="3" ry="3" style="stroke: #038048; stroke-width: 1.0;"/><text fill="#000000" font-family="sans-serif" font-size="11" lengthAdjust="spacingAndGlyphs" text-decoration="underline" textLength="221" x="42.5" y="242.8667">DEFAULT_AUDIT_GEO_COUNTRY: String</text><ellipse cx="33.5" cy="252.4609" fill="none" rx="3" ry="3" style="stroke: #038048; stroke-width: 1.0;"/><text fill="#000000" font-family="sans-serif" font-size="11" lengthAdjust="spacingAndGlyphs" text-decoration="underline" textLength="108" x="42.5" y="255.6714">FIELD_LOAD: String</text><ellipse cx="33.5" cy="265.2656" fill="none" rx="3" ry="3" style="stroke: #038048; stroke-width: 1.0;"/><text fill="#000000" font-family="sans-serif" font-size="11" lengthAdjust="spacingAndGlyphs" text-decoration="underline" textLength="139" x="42.5" y="268.4761">HEALTHCHECKOP: String</text><ellipse cx="33.5" cy="278.0703" fill="none" rx="3" ry="3" style="stroke: #038048; stroke-width: 1.0;"/><text fill="#000000" font-family="sans-serif" font-size="11" lengthAdjust="spacingAndGlyphs" text-decoration="underline" textLength="245" x="42.5" y="281.2808">IGNORED_AUDIT_EVENT_TYPE: Set&lt;String&gt;</text><ellipse cx="33.5" cy="290.875" fill="none" rx="3" ry="3" style="stroke: #038048; stroke-width: 1.0;"/><text fill="#000000" font-family="sans-serif" font-size="11" lengthAdjust="spacingAndGlyphs" text-decoration="underline" textLength="208" x="42.5" y="294.0854">IGNORED_OPERATIONS: Set&lt;String&gt;</text><line style="stroke: #A80036; stroke-width: 1.5;" x1="23.5" x2="352.5" y1="300.6797" y2="300.6797"/></a><!--MD5=[60eacbc4669e26f7350cda7272a87b08]
link com.ibm.fhir.audit.AuditLogServiceFactory to com.ibm.fhir.audit.AuditLogService--><path d="M762.366,206.5629 C755.9766,260.2994 742.6177,372.651 734.271,442.8489 " fill="none" id="com.ibm.fhir.audit.AuditLogServiceFactory-&gt;com.ibm.fhir.audit.AuditLogService" style="stroke: #A80036; stroke-width: 1.0;"/><polygon fill="#A80036" points="733.6789,447.8289,738.7137,439.3642,734.2693,442.8639,730.7697,438.4195,733.6789,447.8289" style="stroke: #A80036; stroke-width: 1.0;"/><text fill="#000000" font-family="sans-serif" font-size="13" lengthAdjust="spacingAndGlyphs" textLength="45" x="743" y="383.0669">service</text><text fill="#888888" font-family="sans-serif" font-size="10" lengthAdjust="spacingAndGlyphs" textLength="186" x="358" y="595.2822">UMLDoclet 2.0.7, PlantUML 1.2019.12</text><!--MD5=[1d3742e2f6455b53c56001bb8d0597f2]
@startuml
    namespace com.ibm.fhir.audit {

        interface AuditLogService [[AuditLogService.html]] {
            {abstract} +isEnabled(): boolean
            {abstract} +initialize(PropertyGroup): void
            {abstract} +stop(PropertyGroup): void
            {abstract} +logEntry(AuditLogEntry): void
            +isLoggableOperation(AuditLogEntry): boolean
        }

        class AuditLogServiceFactory [[AuditLogServiceFactory.html]] {
            {static} +resetService(): AuditLogService
        }

        enum AuditLogEventType [[AuditLogEventType.html]] {
            {static} +FHIR_CREATE
            {static} +FHIR_UPDATE
            {static} +FHIR_PATCH
            {static} +FHIR_DELETE
            {static} +FHIR_READ
            {static} +FHIR_VREAD
            {static} +FHIR_HISTORY
            {static} +FHIR_SEARCH
            {static} +FHIR_BUNDLE
            {static} +FHIR_VALIDATE
            {static} +FHIR_METADATA
            {static} +FHIR_CONFIGDATA
            {static} +FHIR_OPERATION
            +value(): String
            {static} +fromValue(String): AuditLogEventType
        }

        class AuditLogServiceConstants [[AuditLogServiceConstants.html]] {
            {static} +PROPERTY_AUDIT_KAFKA_TOPIC: String
            {static} +PROPERTY_AUDIT_GEO_CITY: String
            {static} +PROPERTY_AUDIT_GEO_STATE: String
            {static} +PROPERTY_AUDIT_GEO_COUNTRY: String
            {static} +PROPERTY_AUDIT_KAFKA_BOOTSTRAPSERVERS: String
            {static} +PROPERTY_AUDIT_KAFKA_APIKEY: String
            {static} +PROPERTY_AUDIT_MAPPER: String
            {static} +DEFAULT_MAPPER: String
            {static} +KAFKA_USERNAME: String
            {static} +DEFAULT_AUDIT_KAFKA_TOPIC: String
            {static} +DEFAULT_AUDIT_GEO_CITY: String
            {static} +DEFAULT_AUDIT_GEO_STATE: String
            {static} +DEFAULT_AUDIT_GEO_COUNTRY: String
            {static} +FIELD_LOAD: String
            {static} +HEALTHCHECKOP: String
            {static} +IGNORED_AUDIT_EVENT_TYPE: Set<String>
            {static} +IGNORED_OPERATIONS: Set<String>
        }

        AuditLogServiceFactory - -> AuditLogService: service
    }

    center footer UMLDoclet 2.0.7, PlantUML 1.2019.12
@enduml

PlantUML version 1.2019.12(Sun Nov 03 10:24:54 UTC 2019)
(APACHE source distribution)
Java Runtime: OpenJDK Runtime Environment
JVM: OpenJDK 64-Bit Server VM
Java Version: 11.0.10+9
Operating System: Linux
Default Encoding: UTF-8
Language: en
Country: null
--></g></svg>