<?xml version="1.0" encoding="UTF-8" standalone="no"?><svg xmlns="http://www.w3.org/2000/svg" xmlns:xlink="http://www.w3.org/1999/xlink" contentScriptType="application/ecmascript" contentStyleType="text/css" height="210px" preserveAspectRatio="none" style="width:286px;height:210px;" version="1.1" viewBox="0 0 286 210" width="286px" zoomAndPan="magnify"><defs><filter height="300%" id="fub8opz014u5g" width="300%" x="-1" y="-1"><feGaussianBlur result="blurOut" stdDeviation="2.0"/><feColorMatrix in="blurOut" result="blurOut2" type="matrix" values="0 0 0 0 0 0 0 0 0 0 0 0 0 0 0 0 0 0 .4 0"/><feOffset dx="4.0" dy="4.0" in="blurOut2" result="blurOut3"/><feBlend in="SourceGraphic" in2="blurOut3" mode="normal"/></filter></defs><g><!--MD5=[c6a57487b5b162055bb8a7f5f823b91f]
class com.ibm.fhir.persistence.proxy.rm.RMXAConnectionResource.XidKey--><a href="RMXAConnectionResource.XidKey.html" target="_top" title="RMXAConnectionResource.XidKey.html" xlink:actuate="onRequest" xlink:href="RMXAConnectionResource.XidKey.html" xlink:show="new" xlink:title="RMXAConnectionResource.XidKey.html" xlink:type="simple"><rect fill="#FEFECE" filter="url(#fub8opz014u5g)" height="71.5469" id="com.ibm.fhir.persistence.proxy.rm.RMXAConnectionResource.XidKey" style="stroke: #A80036; stroke-width: 1.5;" width="269" x="6" y="106"/><ellipse cx="21" cy="124.9688" fill="#ADD1B2" rx="11" ry="11" style="stroke: #A80036; stroke-width: 1.0;"/><path d="M23.9688,130.6094 Q23.3906,130.9063 22.75,131.0469 Q22.1094,131.2031 21.4063,131.2031 Q18.9063,131.2031 17.5781,129.5625 Q16.2656,127.9063 16.2656,124.7813 Q16.2656,121.6563 17.5781,120 Q18.9063,118.3438 21.4063,118.3438 Q22.1094,118.3438 22.75,118.5 Q23.4063,118.6563 23.9688,118.9531 L23.9688,121.6719 Q23.3438,121.0938 22.75,120.8281 Q22.1563,120.5469 21.5313,120.5469 Q20.1875,120.5469 19.5,121.625 Q18.8125,122.6875 18.8125,124.7813 Q18.8125,126.875 19.5,127.9531 Q20.1875,129.0156 21.5313,129.0156 Q22.1563,129.0156 22.75,128.75 Q23.3438,128.4688 23.9688,127.8906 L23.9688,130.6094 Z "/><text fill="#000000" font-family="sans-serif" font-size="14" lengthAdjust="spacingAndGlyphs" textLength="237" x="35" y="123.9951">RMXAConnectionResource.XidKey</text><text fill="#000000" font-family="sans-serif" font-size="10" lengthAdjust="spacingAndGlyphs" textLength="167" x="70" y="136.5791">com.ibm.fhir.persistence.proxy.rm</text><line style="stroke: #A80036; stroke-width: 1.5;" x1="7" x2="274" y1="143.9375" y2="143.9375"/><ellipse cx="17" cy="154.9375" fill="#84BE84" rx="3" ry="3" style="stroke: #038048; stroke-width: 1.0;"/><text fill="#000000" font-family="sans-serif" font-size="11" lengthAdjust="spacingAndGlyphs" textLength="62" x="26" y="158.1479">XidKey(Xid)</text><ellipse cx="17" cy="167.7422" fill="#84BE84" rx="3" ry="3" style="stroke: #038048; stroke-width: 1.0;"/><text fill="#000000" font-family="sans-serif" font-size="11" lengthAdjust="spacingAndGlyphs" textLength="68" x="26" y="170.9526">getXid(): Xid</text></a><!--MD5=[eb40e15247c7c1f6561cb91338563ea8]
class com.ibm.fhir.persistence.proxy.rm.RMXAConnectionResource--><a href="RMXAConnectionResource.html" target="_top" title="RMXAConnectionResource.html" xlink:actuate="onRequest" xlink:href="RMXAConnectionResource.html" xlink:show="new" xlink:title="RMXAConnectionResource.html" xlink:type="simple"><rect fill="#FEFECE" filter="url(#fub8opz014u5g)" height="37.9375" id="com.ibm.fhir.persistence.proxy.rm.RMXAConnectionResource" style="stroke: #A80036; stroke-width: 1.5;" width="219" x="31" y="8"/><ellipse cx="46" cy="26.9688" fill="#ADD1B2" rx="11" ry="11" style="stroke: #A80036; stroke-width: 1.0;"/><path d="M48.9688,32.6094 Q48.3906,32.9063 47.75,33.0469 Q47.1094,33.2031 46.4063,33.2031 Q43.9063,33.2031 42.5781,31.5625 Q41.2656,29.9063 41.2656,26.7813 Q41.2656,23.6563 42.5781,22 Q43.9063,20.3438 46.4063,20.3438 Q47.1094,20.3438 47.75,20.5 Q48.4063,20.6563 48.9688,20.9531 L48.9688,23.6719 Q48.3438,23.0938 47.75,22.8281 Q47.1563,22.5469 46.5313,22.5469 Q45.1875,22.5469 44.5,23.625 Q43.8125,24.6875 43.8125,26.7813 Q43.8125,28.875 44.5,29.9531 Q45.1875,31.0156 46.5313,31.0156 Q47.1563,31.0156 47.75,30.75 Q48.3438,30.4688 48.9688,29.8906 L48.9688,32.6094 Z "/><text fill="#000000" font-family="sans-serif" font-size="14" lengthAdjust="spacingAndGlyphs" textLength="187" x="60" y="25.9951">RMXAConnectionResource</text><text fill="#000000" font-family="sans-serif" font-size="10" lengthAdjust="spacingAndGlyphs" textLength="167" x="70" y="38.5791">com.ibm.fhir.persistence.proxy.rm</text></a><!--MD5=[b80c74dfabbae7d0a5a71ddedf3ce9dd]
reverse link com.ibm.fhir.persistence.proxy.rm.RMXAConnectionResource to com.ibm.fhir.persistence.proxy.rm.RMXAConnectionResource.XidKey--><path d="M140.5,61.4665 C140.5,75.5047 140.5,91.7372 140.5,105.935 " fill="none" id="com.ibm.fhir.persistence.proxy.rm.RMXAConnectionResource&lt;-com.ibm.fhir.persistence.proxy.rm.RMXAConnectionResource.XidKey" style="stroke: #A80036; stroke-width: 1.0;"/><ellipse cx="140.5" cy="54.2484" fill="#FFFFFF" rx="8" ry="8" style="stroke: #A80036; stroke-width: 1.0;"/><line style="stroke: #A80036; stroke-width: 1.0;" x1="140.5" x2="140.5" y1="62.2484" y2="46.2484"/><line style="stroke: #A80036; stroke-width: 1.0;" x1="132.5" x2="148.5" y1="54.2484" y2="54.2484"/><text fill="#888888" font-family="sans-serif" font-size="10" lengthAdjust="spacingAndGlyphs" textLength="186" x="53.5" y="197.2822">UMLDoclet 2.0.7, PlantUML 1.2019.12</text><!--MD5=[aa7922baa522b6278bcf21e6337c4844]
@startuml
    set namespaceSeparator none
    hide empty fields
    hide empty methods

    class "<size:14>RMXAConnectionResource.XidKey\n<size:10>com.ibm.fhir.persistence.proxy.rm" as com.ibm.fhir.persistence.proxy.rm.RMXAConnectionResource.XidKey [[RMXAConnectionResource.XidKey.html]] {
        +XidKey(Xid)
        +getXid(): Xid
    }

    class "<size:14>RMXAConnectionResource\n<size:10>com.ibm.fhir.persistence.proxy.rm" as com.ibm.fhir.persistence.proxy.rm.RMXAConnectionResource [[RMXAConnectionResource.html]]

    com.ibm.fhir.persistence.proxy.rm.RMXAConnectionResource +- - com.ibm.fhir.persistence.proxy.rm.RMXAConnectionResource.XidKey

    center footer UMLDoclet 2.0.7, PlantUML 1.2019.12
@enduml

PlantUML version 1.2019.12(Sun Nov 03 10:24:54 UTC 2019)
(APACHE source distribution)
Java Runtime: OpenJDK Runtime Environment
JVM: OpenJDK 64-Bit Server VM
Java Version: 11.0.9+11
Operating System: Linux
Default Encoding: UTF-8
Language: en
Country: null
--></g></svg>