<?xml version="1.0" encoding="UTF-8" standalone="no"?><svg xmlns="http://www.w3.org/2000/svg" xmlns:xlink="http://www.w3.org/1999/xlink" contentScriptType="application/ecmascript" contentStyleType="text/css" height="447px" preserveAspectRatio="none" style="width:710px;height:447px;" version="1.1" viewBox="0 0 710 447" width="710px" zoomAndPan="magnify"><defs><filter height="300%" id="f1t6fzm9zg5ue5" width="300%" x="-1" y="-1"><feGaussianBlur result="blurOut" stdDeviation="2.0"/><feColorMatrix in="blurOut" result="blurOut2" type="matrix" values="0 0 0 0 0 0 0 0 0 0 0 0 0 0 0 0 0 0 .4 0"/><feOffset dx="4.0" dy="4.0" in="blurOut2" result="blurOut3"/><feBlend in="SourceGraphic" in2="blurOut3" mode="normal"/></filter></defs><g><!--cluster com.ibm.fhir.notifications.kafka.impl--><polygon fill="#FFFFFF" filter="url(#f1t6fzm9zg5ue5)" points="322,137,592,137,599,159.4883,688,159.4883,688,406,322,406,322,137" style="stroke: #000000; stroke-width: 1.5;"/><line style="stroke: #000000; stroke-width: 1.5;" x1="322" x2="599" y1="159.4883" y2="159.4883"/><text fill="#000000" font-family="sans-serif" font-size="14" font-weight="bold" lengthAdjust="spacingAndGlyphs" textLength="264" x="326" y="152.5352">com.ibm.fhir.notifications.kafka.impl</text><!--cluster com.ibm.fhir.notification--><polygon fill="#FFFFFF" filter="url(#f1t6fzm9zg5ue5)" points="392,16,575,16,582,38.4883,618,38.4883,618,112,392,112,392,16" style="stroke: #000000; stroke-width: 1.5;"/><line style="stroke: #000000; stroke-width: 1.5;" x1="392" x2="582" y1="38.4883" y2="38.4883"/><text fill="#000000" font-family="sans-serif" font-size="14" font-weight="bold" lengthAdjust="spacingAndGlyphs" textLength="177" x="396" y="31.5352">com.ibm.fhir.notification</text><!--cluster org.apache.kafka.clients.producer--><polygon fill="#FFFFFF" filter="url(#f1t6fzm9zg5ue5)" points="14,156.5,256,156.5,263,178.9883,314,178.9883,314,252.5,14,252.5,14,156.5" style="stroke: #000000; stroke-width: 1.5;"/><line style="stroke: #000000; stroke-width: 1.5;" x1="14" x2="263" y1="178.9883" y2="178.9883"/><text fill="#000000" font-family="sans-serif" font-size="14" font-weight="bold" lengthAdjust="spacingAndGlyphs" textLength="236" x="18" y="172.0352">org.apache.kafka.clients.producer</text><!--class com.ibm.fhir.notifications.kafka.impl.FHIRNotificationKafkaPublisher--><a href="FHIRNotificationKafkaPublisher.html" target="_top" xlink:actuate="onRequest" xlink:show="new" xlink:title="FHIRNotificationKafkaPublisher.html" xlink:type="simple"><rect fill="#FEFECE" filter="url(#f1t6fzm9zg5ue5)" height="99.8203" id="com.ibm.fhir.notifications.kafka.impl.FHIRNotificationKafkaPublisher" style="stroke: #A80036; stroke-width: 1.5;" width="292" x="359" y="164"/><ellipse cx="412.75" cy="180" fill="#ADD1B2" rx="11" ry="11" style="stroke: #A80036; stroke-width: 1.0;"/><path d="M415.2231,186.1431 Q414.6421,186.4419 414.0029,186.5913 Q413.3638,186.7407 412.6582,186.7407 Q410.1514,186.7407 408.8315,185.0889 Q407.5117,183.437 407.5117,180.3159 Q407.5117,177.1865 408.8315,175.5347 Q410.1514,173.8828 412.6582,173.8828 Q413.3638,173.8828 414.0112,174.0322 Q414.6587,174.1816 415.2231,174.4805 L415.2231,177.2031 Q414.5923,176.6221 413.9988,176.3523 Q413.4053,176.0825 412.7744,176.0825 Q411.4297,176.0825 410.7449,177.1492 Q410.0601,178.2158 410.0601,180.3159 Q410.0601,182.4077 410.7449,183.4744 Q411.4297,184.541 412.7744,184.541 Q413.4053,184.541 413.9988,184.2712 Q414.5923,184.0015 415.2231,183.4204 Z "/><text fill="#000000" font-family="sans-serif" font-size="12" lengthAdjust="spacingAndGlyphs" textLength="176" x="433.25" y="184.5352">FHIRNotificationKafkaPublisher</text><line style="stroke: #A80036; stroke-width: 1.5;" x1="360" x2="650" y1="196" y2="196"/><line style="stroke: #A80036; stroke-width: 1.5;" x1="360" x2="650" y1="204" y2="204"/><polygon fill="#FFFF44" points="370,210.9775,374,214.9775,370,218.9775,366,214.9775" style="stroke: #B38D22; stroke-width: 1.0;"/><text fill="#000000" font-family="sans-serif" font-size="11" lengthAdjust="spacingAndGlyphs" textLength="173" x="379" y="218.6348">FHIRNotificationKafkaPublisher()</text><ellipse cx="370" cy="228.9326" fill="#84BE84" rx="3" ry="3" style="stroke: #038048; stroke-width: 1.0;"/><text fill="#000000" font-family="sans-serif" font-size="11" lengthAdjust="spacingAndGlyphs" textLength="266" x="379" y="231.5898">FHIRNotificationKafkaPublisher(String, Properties)</text><ellipse cx="370" cy="241.8877" fill="#84BE84" rx="3" ry="3" style="stroke: #038048; stroke-width: 1.0;"/><text fill="#000000" font-family="sans-serif" font-size="11" lengthAdjust="spacingAndGlyphs" textLength="90" x="379" y="244.5449">shutdown(): void</text><ellipse cx="370" cy="254.8428" fill="#84BE84" rx="3" ry="3" style="stroke: #038048; stroke-width: 1.0;"/><text fill="#000000" font-family="sans-serif" font-size="11" lengthAdjust="spacingAndGlyphs" textLength="183" x="379" y="257.5">notify(FHIRNotificationEvent): void</text></a><!--class com.ibm.fhir.notifications.kafka.impl.FHIRNotificationKafkaPublisher.KafkaPublisherCallback--><a href="FHIRNotificationKafkaPublisher.KafkaPublisherCallback.html" target="_top" xlink:actuate="onRequest" xlink:show="new" xlink:title="FHIRNotificationKafkaPublisher.KafkaPublisherCallback.html" xlink:type="simple"><rect fill="#FEFECE" filter="url(#f1t6fzm9zg5ue5)" height="73.9102" id="com.ibm.fhir.notifications.kafka.impl.FHIRNotificationKafkaPublisher.KafkaPublisherCallback" style="stroke: #A80036; stroke-width: 1.5;" width="349" x="330.5" y="324"/><ellipse cx="346.4" cy="340" fill="#ADD1B2" rx="11" ry="11" style="stroke: #A80036; stroke-width: 1.0;"/><path d="M348.8731,346.1431 Q348.2921,346.4419 347.6529,346.5913 Q347.0138,346.7407 346.3082,346.7407 Q343.8014,346.7407 342.4815,345.0889 Q341.1617,343.437 341.1617,340.3159 Q341.1617,337.1865 342.4815,335.5347 Q343.8014,333.8828 346.3082,333.8828 Q347.0138,333.8828 347.6612,334.0322 Q348.3087,334.1816 348.8731,334.4805 L348.8731,337.2031 Q348.2423,336.6221 347.6488,336.3523 Q347.0553,336.0825 346.4244,336.0825 Q345.0797,336.0825 344.3949,337.1492 Q343.7101,338.2158 343.7101,340.3159 Q343.7101,342.4077 344.3949,343.4744 Q345.0797,344.541 346.4244,344.541 Q347.0553,344.541 347.6488,344.2712 Q348.2423,344.0015 348.8731,343.4204 Z "/><text fill="#000000" font-family="sans-serif" font-size="12" lengthAdjust="spacingAndGlyphs" textLength="315" x="360.6" y="344.5352">FHIRNotificationKafkaPublisher.KafkaPublisherCallback</text><line style="stroke: #A80036; stroke-width: 1.5;" x1="331.5" x2="678.5" y1="356" y2="356"/><line style="stroke: #A80036; stroke-width: 1.5;" x1="331.5" x2="678.5" y1="364" y2="364"/><ellipse cx="341.5" cy="375.9775" fill="#84BE84" rx="3" ry="3" style="stroke: #038048; stroke-width: 1.0;"/><text fill="#000000" font-family="sans-serif" font-size="11" lengthAdjust="spacingAndGlyphs" textLength="323" x="350.5" y="378.6348">KafkaPublisherCallback(FHIRNotificationEvent, String, String)</text><ellipse cx="341.5" cy="388.9326" fill="#84BE84" rx="3" ry="3" style="stroke: #038048; stroke-width: 1.0;"/><text fill="#000000" font-family="sans-serif" font-size="11" lengthAdjust="spacingAndGlyphs" textLength="258" x="350.5" y="391.5898">onCompletion(RecordMetadata, Exception): void</text></a><!--class com.ibm.fhir.notification.FHIRNotificationSubscriber--><a href="../../../notification/FHIRNotificationSubscriber.html" target="_top" xlink:actuate="onRequest" xlink:show="new" xlink:title="../../../notification/FHIRNotificationSubscriber.html" xlink:type="simple"><rect fill="#FEFECE" filter="url(#f1t6fzm9zg5ue5)" height="60.9551" id="com.ibm.fhir.notification.FHIRNotificationSubscriber" style="stroke: #A80036; stroke-width: 1.5;" width="209" x="400.5" y="43"/><ellipse cx="427.2" cy="59" fill="#B4A7E5" rx="11" ry="11" style="stroke: #A80036; stroke-width: 1.0;"/><path d="M423.6277,55.2651 L423.6277,53.1069 L431.0071,53.1069 L431.0071,55.2651 L428.5418,55.2651 L428.5418,63.3418 L431.0071,63.3418 L431.0071,65.5 L423.6277,65.5 L423.6277,63.3418 L426.0931,63.3418 L426.0931,55.2651 Z "/><text fill="#000000" font-family="sans-serif" font-size="12" font-style="italic" lengthAdjust="spacingAndGlyphs" textLength="151" x="443.8" y="63.5352">FHIRNotificationSubscriber</text><line style="stroke: #A80036; stroke-width: 1.5;" x1="401.5" x2="608.5" y1="75" y2="75"/><line style="stroke: #A80036; stroke-width: 1.5;" x1="401.5" x2="608.5" y1="83" y2="83"/><ellipse cx="411.5" cy="94.9775" fill="#84BE84" rx="3" ry="3" style="stroke: #038048; stroke-width: 1.0;"/><text fill="#000000" font-family="sans-serif" font-size="11" font-style="italic" lengthAdjust="spacingAndGlyphs" textLength="183" x="420.5" y="97.6348">notify(FHIRNotificationEvent): void</text></a><!--class org.apache.kafka.clients.producer.Callback--><rect fill="#FEFECE" filter="url(#f1t6fzm9zg5ue5)" height="60.9551" id="org.apache.kafka.clients.producer.Callback" style="stroke: #A80036; stroke-width: 1.5;" width="284" x="22" y="183.5"/><ellipse cx="135.25" cy="199.5" fill="#B4A7E5" rx="11" ry="11" style="stroke: #A80036; stroke-width: 1.0;"/><path d="M131.6777,195.7651 L131.6777,193.6069 L139.0571,193.6069 L139.0571,195.7651 L136.5918,195.7651 L136.5918,203.8418 L139.0571,203.8418 L139.0571,206 L131.6777,206 L131.6777,203.8418 L134.1431,203.8418 L134.1431,195.7651 Z "/><text fill="#000000" font-family="sans-serif" font-size="12" font-style="italic" lengthAdjust="spacingAndGlyphs" textLength="49" x="155.75" y="204.0352">Callback</text><line style="stroke: #A80036; stroke-width: 1.5;" x1="23" x2="305" y1="215.5" y2="215.5"/><line style="stroke: #A80036; stroke-width: 1.5;" x1="23" x2="305" y1="223.5" y2="223.5"/><ellipse cx="33" cy="235.4775" fill="#84BE84" rx="3" ry="3" style="stroke: #038048; stroke-width: 1.0;"/><text fill="#000000" font-family="sans-serif" font-size="11" font-style="italic" lengthAdjust="spacingAndGlyphs" textLength="258" x="42" y="238.1348">onCompletion(RecordMetadata, Exception): void</text><!--link com.ibm.fhir.notification.FHIRNotificationSubscriber to com.ibm.fhir.notifications.kafka.impl.FHIRNotificationKafkaPublisher--><path d="M505,124.671 C505,137.4655 505,151.1735 505,163.9146 " fill="none" id="com.ibm.fhir.notification.FHIRNotificationSubscriber-com.ibm.fhir.notifications.kafka.impl.FHIRNotificationKafkaPublisher" style="stroke: #A80036; stroke-width: 1.0; stroke-dasharray: 7.0,7.0;"/><polygon fill="none" points="498.0001,124.3334,505,104.3333,512.0001,124.3333,498.0001,124.3334" style="stroke: #A80036; stroke-width: 1.0;"/><!--link org.apache.kafka.clients.producer.Callback to com.ibm.fhir.notifications.kafka.impl.FHIRNotificationKafkaPublisher.KafkaPublisherCallback--><path d="M253.6271,252.6369 C304.7198,274.6622 368.4227,302.1236 418.9152,323.8901 " fill="none" id="org.apache.kafka.clients.producer.Callback-com.ibm.fhir.notifications.kafka.impl.FHIRNotificationKafkaPublisher.KafkaPublisherCallback" style="stroke: #A80036; stroke-width: 1.0; stroke-dasharray: 7.0,7.0;"/><polygon fill="none" points="250.6647,258.9827,235.0697,244.6371,256.2069,246.1264,250.6647,258.9827" style="stroke: #A80036; stroke-width: 1.0;"/><!--link com.ibm.fhir.notifications.kafka.impl.FHIRNotificationKafkaPublisher to com.ibm.fhir.notifications.kafka.impl.FHIRNotificationKafkaPublisher.KafkaPublisherCallback--><path d="M505,279.6085 C505,294.6746 505,310.1881 505,323.5774 " fill="none" id="com.ibm.fhir.notifications.kafka.impl.FHIRNotificationKafkaPublisher-com.ibm.fhir.notifications.kafka.impl.FHIRNotificationKafkaPublisher.KafkaPublisherCallback" style="stroke: #A80036; stroke-width: 1.0;"/><ellipse cx="505.0001" cy="272.1779" fill="#FFFFFF" rx="8" ry="8" style="stroke: #A80036; stroke-width: 1.0;"/><line style="stroke: #A80036; stroke-width: 1.0;" x1="505.0002" x2="505" y1="280.1779" y2="264.1779"/><line style="stroke: #A80036; stroke-width: 1.0;" x1="497.0001" x2="513.0001" y1="272.178" y2="272.1778"/><text fill="#888888" font-family="sans-serif" font-size="10" lengthAdjust="spacingAndGlyphs" textLength="182" x="266" y="433.668">UMLDoclet 2.0.5, PlantUML 1.2019.08</text><!--
@startuml
    namespace com.ibm.fhir.notifications.kafka.impl {

        class FHIRNotificationKafkaPublisher [[FHIRNotificationKafkaPublisher.html]] {
            #FHIRNotificationKafkaPublisher()
            +FHIRNotificationKafkaPublisher(String, Properties)
            +shutdown(): void
            +notify(FHIRNotificationEvent): void
        }

        class com.ibm.fhir.notifications.kafka.impl.FHIRNotificationKafkaPublisher.KafkaPublisherCallback [[FHIRNotificationKafkaPublisher.KafkaPublisherCallback.html]] {
            +KafkaPublisherCallback(FHIRNotificationEvent, String, String)
            +onCompletion(RecordMetadata, Exception): void
        }

        com.ibm.fhir.notification.FHIRNotificationSubscriber <|.. FHIRNotificationKafkaPublisher
        org.apache.kafka.clients.producer.Callback <|.. com.ibm.fhir.notifications.kafka.impl.FHIRNotificationKafkaPublisher.KafkaPublisherCallback
        FHIRNotificationKafkaPublisher +- - com.ibm.fhir.notifications.kafka.impl.FHIRNotificationKafkaPublisher.KafkaPublisherCallback
    }

    namespace com.ibm.fhir.notification {
        interface FHIRNotificationSubscriber [[../../../notification/FHIRNotificationSubscriber.html]] {
            {abstract} +notify(FHIRNotificationEvent): void
        }
    }

    namespace org.apache.kafka.clients.producer {
        interface Callback {
            {abstract} +onCompletion(RecordMetadata, Exception): void
        }
    }

    center footer UMLDoclet 2.0.5, PlantUML 1.2019.08
@enduml

PlantUML version 1.2019.08(Sat Jul 13 15:25:14 EDT 2019)
(APACHE source distribution)
Java Runtime: OpenJDK Runtime Environment
JVM: OpenJDK 64-Bit Server VM
Java Version: 11.0.4+11
Operating System: Mac OS X
OS Version: 10.14.6
Default Encoding: UTF-8
Language: en
Country: US
--></g></svg>