<?xml version="1.0" encoding="UTF-8" standalone="no"?><svg xmlns="http://www.w3.org/2000/svg" xmlns:xlink="http://www.w3.org/1999/xlink" contentScriptType="application/ecmascript" contentStyleType="text/css" height="235px" preserveAspectRatio="none" style="width:295px;height:235px;" version="1.1" viewBox="0 0 295 235" width="295px" zoomAndPan="magnify"><defs><filter height="300%" id="f84d1gsq1sa35" width="300%" x="-1" y="-1"><feGaussianBlur result="blurOut" stdDeviation="2.0"/><feColorMatrix in="blurOut" result="blurOut2" type="matrix" values="0 0 0 0 0 0 0 0 0 0 0 0 0 0 0 0 0 0 .4 0"/><feOffset dx="4.0" dy="4.0" in="blurOut2" result="blurOut3"/><feBlend in="SourceGraphic" in2="blurOut3" mode="normal"/></filter></defs><g><!--MD5=[1a051839a39e38579e1541d0d8620043]
class com.ibm.fhir.bulkdata.jbatch.export.fast.data.PartitionSummary--><a href="PartitionSummary.html" target="_top" title="PartitionSummary.html" xlink:actuate="onRequest" xlink:href="PartitionSummary.html" xlink:show="new" xlink:title="PartitionSummary.html" xlink:type="simple"><rect fill="#FEFECE" filter="url(#f84d1gsq1sa35)" height="97.1563" id="com.ibm.fhir.bulkdata.jbatch.export.fast.data.PartitionSummary" style="stroke: #A80036; stroke-width: 1.5;" width="278" x="6" y="106"/><ellipse cx="33.15" cy="124.9688" fill="#ADD1B2" rx="11" ry="11" style="stroke: #A80036; stroke-width: 1.0;"/><path d="M36.1188,130.6094 Q35.5406,130.9063 34.9,131.0469 Q34.2594,131.2031 33.5563,131.2031 Q31.0563,131.2031 29.7281,129.5625 Q28.4156,127.9063 28.4156,124.7813 Q28.4156,121.6563 29.7281,120 Q31.0563,118.3438 33.5563,118.3438 Q34.2594,118.3438 34.9,118.5 Q35.5563,118.6563 36.1188,118.9531 L36.1188,121.6719 Q35.4938,121.0938 34.9,120.8281 Q34.3063,120.5469 33.6813,120.5469 Q32.3375,120.5469 31.65,121.625 Q30.9625,122.6875 30.9625,124.7813 Q30.9625,126.875 31.65,127.9531 Q32.3375,129.0156 33.6813,129.0156 Q34.3063,129.0156 34.9,128.75 Q35.4938,128.4688 36.1188,127.8906 L36.1188,130.6094 Z "/><text fill="#000000" font-family="sans-serif" font-size="14" lengthAdjust="spacingAndGlyphs" textLength="120" x="99.35" y="123.9951">PartitionSummary</text><text fill="#000000" font-family="sans-serif" font-size="10" lengthAdjust="spacingAndGlyphs" textLength="219" x="49.85" y="136.5791">com.ibm.fhir.bulkdata.jbatch.export.fast.data</text><line style="stroke: #A80036; stroke-width: 1.5;" x1="7" x2="283" y1="143.9375" y2="143.9375"/><ellipse cx="17" cy="154.9375" fill="#84BE84" rx="3" ry="3" style="stroke: #038048; stroke-width: 1.0;"/><text fill="#000000" font-family="sans-serif" font-size="11" lengthAdjust="spacingAndGlyphs" text-decoration="underline" textLength="252" x="26" y="158.1479">from(TransientUserData): PartitionSummary</text><ellipse cx="17" cy="167.7422" fill="#84BE84" rx="3" ry="3" style="stroke: #038048; stroke-width: 1.0;"/><text fill="#000000" font-family="sans-serif" font-size="11" lengthAdjust="spacingAndGlyphs" textLength="148" x="26" y="170.9526">getResourceType(): String</text><ellipse cx="17" cy="180.5469" fill="#84BE84" rx="3" ry="3" style="stroke: #038048; stroke-width: 1.0;"/><text fill="#000000" font-family="sans-serif" font-size="11" lengthAdjust="spacingAndGlyphs" textLength="205" x="26" y="183.7573">getResourceCounts(): List&lt;Integer&gt;</text><ellipse cx="17" cy="193.3516" fill="#84BE84" rx="3" ry="3" style="stroke: #038048; stroke-width: 1.0;"/><text fill="#000000" font-family="sans-serif" font-size="11" lengthAdjust="spacingAndGlyphs" textLength="203" x="26" y="196.562">getResourceTypeSummary(): String</text></a><!--MD5=[5a5af9b0547913863cbe0ddf55a9ab5e]
class java.io.Serializable--><a href="https://docs.oracle.com/javase/8/docs/api/java/io/Serializable.html?is-external=true" target="_top" title="https://docs.oracle.com/javase/8/docs/api/java/io/Serializable.html?is-external=true" xlink:actuate="onRequest" xlink:href="https://docs.oracle.com/javase/8/docs/api/java/io/Serializable.html?is-external=true" xlink:show="new" xlink:title="https://docs.oracle.com/javase/8/docs/api/java/io/Serializable.html?is-external=true" xlink:type="simple"><rect fill="#FEFECE" filter="url(#f84d1gsq1sa35)" height="37.9375" id="java.io.Serializable" style="stroke: #A80036; stroke-width: 1.5;" width="108" x="91" y="8"/><ellipse cx="106" cy="26.9688" fill="#B4A7E5" rx="11" ry="11" style="stroke: #A80036; stroke-width: 1.0;"/><path d="M101.9219,22.7344 L101.9219,20.5781 L109.3125,20.5781 L109.3125,22.7344 L106.8438,22.7344 L106.8438,30.8125 L109.3125,30.8125 L109.3125,32.9688 L101.9219,32.9688 L101.9219,30.8125 L104.3906,30.8125 L104.3906,22.7344 L101.9219,22.7344 Z "/><text fill="#000000" font-family="sans-serif" font-size="14" font-style="italic" lengthAdjust="spacingAndGlyphs" textLength="76" x="120" y="25.9951">Serializable</text><text fill="#000000" font-family="sans-serif" font-size="10" font-style="italic" lengthAdjust="spacingAndGlyphs" textLength="33" x="141.5" y="38.5791">java.io</text></a><!--MD5=[7d940f4bacc09a946e88ce653609f653]
reverse link java.io.Serializable to com.ibm.fhir.bulkdata.jbatch.export.fast.data.PartitionSummary--><path d="M145,66.4138 C145,78.8609 145,92.7643 145,105.7811 " fill="none" id="java.io.Serializable&lt;-com.ibm.fhir.bulkdata.jbatch.export.fast.data.PartitionSummary" style="stroke: #A80036; stroke-width: 1.0; stroke-dasharray: 7.0,7.0;"/><polygon fill="none" points="138.0001,66.0881,145,46.088,152.0001,66.088,138.0001,66.0881" style="stroke: #A80036; stroke-width: 1.0;"/><text fill="#888888" font-family="sans-serif" font-size="10" lengthAdjust="spacingAndGlyphs" textLength="186" x="58" y="222.2822">UMLDoclet 2.0.7, PlantUML 1.2019.12</text><!--MD5=[adbaed15992011363e78979c7ce95b2e]
@startuml
    set namespaceSeparator none
    hide empty fields
    hide empty methods

    class "<size:14>PartitionSummary\n<size:10>com.ibm.fhir.bulkdata.jbatch.export.fast.data" as com.ibm.fhir.bulkdata.jbatch.export.fast.data.PartitionSummary [[PartitionSummary.html]] {
        {static} +from(TransientUserData): PartitionSummary
        +getResourceType(): String
        +getResourceCounts(): List<Integer>
        +getResourceTypeSummary(): String
    }

    interface "<size:14>Serializable\n<size:10>java.io" as java.io.Serializable [[https://docs.oracle.com/javase/8/docs/api/java/io/Serializable.html?is-external=true]]

    java.io.Serializable <|.. com.ibm.fhir.bulkdata.jbatch.export.fast.data.PartitionSummary

    center footer UMLDoclet 2.0.7, PlantUML 1.2019.12
@enduml

PlantUML version 1.2019.12(Sun Nov 03 10:24:54 UTC 2019)
(APACHE source distribution)
Java Runtime: OpenJDK Runtime Environment
JVM: OpenJDK 64-Bit Server VM
Java Version: 11.0.10+9
Operating System: Linux
Default Encoding: UTF-8
Language: en
Country: null
--></g></svg>