<?xml version="1.0" encoding="UTF-8" standalone="no"?><svg xmlns="http://www.w3.org/2000/svg" xmlns:xlink="http://www.w3.org/1999/xlink" contentScriptType="application/ecmascript" contentStyleType="text/css" height="770px" preserveAspectRatio="none" style="width:1106px;height:770px;" version="1.1" viewBox="0 0 1106 770" width="1106px" zoomAndPan="magnify"><defs><filter height="300%" id="f1j2y27tvmh3bv" width="300%" x="-1" y="-1"><feGaussianBlur result="blurOut" stdDeviation="2.0"/><feColorMatrix in="blurOut" result="blurOut2" type="matrix" values="0 0 0 0 0 0 0 0 0 0 0 0 0 0 0 0 0 0 .4 0"/><feOffset dx="4.0" dy="4.0" in="blurOut2" result="blurOut3"/><feBlend in="SourceGraphic" in2="blurOut3" mode="normal"/></filter></defs><g><!--MD5=[defe5092ea96a279d23a77228f0e0bcf]
cluster com.ibm.fhir.profile--><polygon fill="#FFFFFF" filter="url(#f1j2y27tvmh3bv)" points="14,16,161,16,168,38.4883,1084,38.4883,1084,729,14,729,14,16" style="stroke: #000000; stroke-width: 1.5;"/><line style="stroke: #000000; stroke-width: 1.5;" x1="14" x2="168" y1="38.4883" y2="38.4883"/><text fill="#000000" font-family="sans-serif" font-size="14" font-weight="bold" lengthAdjust="spacingAndGlyphs" textLength="141" x="18" y="31.5352">com.ibm.fhir.profile</text><!--MD5=[0ea865c5c4accd685b937ad58f764cdb]
class com.ibm.fhir.profile.ProfileSupport--><a href="ProfileSupport.html" target="_top" title="ProfileSupport.html" xlink:actuate="onRequest" xlink:href="ProfileSupport.html" xlink:show="new" xlink:title="ProfileSupport.html" xlink:type="simple"><rect fill="#FEFECE" filter="url(#f1j2y27tvmh3bv)" height="255.2813" id="com.ibm.fhir.profile.ProfileSupport" style="stroke: #A80036; stroke-width: 1.5;" width="420" x="305" y="43"/><ellipse cx="470.25" cy="59" fill="#ADD1B2" rx="11" ry="11" style="stroke: #A80036; stroke-width: 1.0;"/><path d="M472.7231,65.1431 Q472.1421,65.4419 471.5029,65.5913 Q470.8638,65.7407 470.1582,65.7407 Q467.6514,65.7407 466.3315,64.0889 Q465.0117,62.437 465.0117,59.3159 Q465.0117,56.1865 466.3315,54.5347 Q467.6514,52.8828 470.1582,52.8828 Q470.8638,52.8828 471.5112,53.0322 Q472.1587,53.1816 472.7231,53.4805 L472.7231,56.2031 Q472.0923,55.6221 471.4988,55.3523 Q470.9053,55.0825 470.2744,55.0825 Q468.9297,55.0825 468.2449,56.1492 Q467.5601,57.2158 467.5601,59.3159 Q467.5601,61.4077 468.2449,62.4744 Q468.9297,63.541 470.2744,63.541 Q470.9053,63.541 471.4988,63.2712 Q472.0923,63.0015 472.7231,62.4204 Z "/><text fill="#000000" font-family="sans-serif" font-size="12" lengthAdjust="spacingAndGlyphs" textLength="81" x="490.75" y="63.5352">ProfileSupport</text><line style="stroke: #A80036; stroke-width: 1.5;" x1="306" x2="724" y1="75" y2="75"/><ellipse cx="316" cy="86" fill="none" rx="3" ry="3" style="stroke: #038048; stroke-width: 1.0;"/><text fill="#000000" font-family="sans-serif" font-size="11" lengthAdjust="spacingAndGlyphs" text-decoration="underline" textLength="264" x="325" y="89.6348">HL7_STRUCTURE_DEFINITION_URL_PREFIX: String</text><ellipse cx="316" cy="98.9551" fill="none" rx="3" ry="3" style="stroke: #038048; stroke-width: 1.0;"/><text fill="#000000" font-family="sans-serif" font-size="11" lengthAdjust="spacingAndGlyphs" text-decoration="underline" textLength="193" x="325" y="102.5898">HL7_VALUE_SET_URL_PREFIX: String</text><line style="stroke: #A80036; stroke-width: 1.5;" x1="306" x2="724" y1="108.9102" y2="108.9102"/><ellipse cx="316" cy="119.9102" fill="#84BE84" rx="3" ry="3" style="stroke: #038048; stroke-width: 1.0;"/><text fill="#000000" font-family="sans-serif" font-size="11" lengthAdjust="spacingAndGlyphs" text-decoration="underline" textLength="394" x="325" y="123.5449">createConstraint(String, String, String, String, String, boolean): Constraint</text><ellipse cx="316" cy="132.8652" fill="#84BE84" rx="3" ry="3" style="stroke: #038048; stroke-width: 1.0;"/><text fill="#000000" font-family="sans-serif" font-size="11" lengthAdjust="spacingAndGlyphs" text-decoration="underline" textLength="143" x="325" y="136.5">getBinding(String): Binding</text><ellipse cx="316" cy="145.8203" fill="#84BE84" rx="3" ry="3" style="stroke: #038048; stroke-width: 1.0;"/><text fill="#000000" font-family="sans-serif" font-size="11" lengthAdjust="spacingAndGlyphs" text-decoration="underline" textLength="243" x="325" y="149.4551">getBindingMap(String): Map&lt;String, Binding&gt;</text><ellipse cx="316" cy="158.7754" fill="#84BE84" rx="3" ry="3" style="stroke: #038048; stroke-width: 1.0;"/><text fill="#000000" font-family="sans-serif" font-size="11" lengthAdjust="spacingAndGlyphs" text-decoration="underline" textLength="315" x="325" y="162.4102">getConstraints(List&lt;String&gt;, Class&lt;?&gt;): List&lt;Constraint&gt;</text><ellipse cx="316" cy="171.7305" fill="#84BE84" rx="3" ry="3" style="stroke: #038048; stroke-width: 1.0;"/><text fill="#000000" font-family="sans-serif" font-size="11" lengthAdjust="spacingAndGlyphs" text-decoration="underline" textLength="238" x="325" y="175.3652">getConstraints(Resource): List&lt;Constraint&gt;</text><ellipse cx="316" cy="184.6855" fill="#84BE84" rx="3" ry="3" style="stroke: #038048; stroke-width: 1.0;"/><text fill="#000000" font-family="sans-serif" font-size="11" lengthAdjust="spacingAndGlyphs" text-decoration="underline" textLength="278" x="325" y="188.3203">getConstraints(String, Class&lt;?&gt;): List&lt;Constraint&gt;</text><ellipse cx="316" cy="197.6406" fill="#84BE84" rx="3" ry="3" style="stroke: #038048; stroke-width: 1.0;"/><text fill="#000000" font-family="sans-serif" font-size="11" lengthAdjust="spacingAndGlyphs" text-decoration="underline" textLength="251" x="325" y="201.2754">getElementDefinition(String): ElementDefinition</text><ellipse cx="316" cy="210.5957" fill="#84BE84" rx="3" ry="3" style="stroke: #038048; stroke-width: 1.0;"/><text fill="#000000" font-family="sans-serif" font-size="11" lengthAdjust="spacingAndGlyphs" text-decoration="underline" textLength="371" x="325" y="214.2305">getElementDefinitionMap(Class&lt;?&gt;): Map&lt;String, ElementDefinition&gt;</text><ellipse cx="316" cy="223.5508" fill="#84BE84" rx="3" ry="3" style="stroke: #038048; stroke-width: 1.0;"/><text fill="#000000" font-family="sans-serif" font-size="11" lengthAdjust="spacingAndGlyphs" text-decoration="underline" textLength="351" x="325" y="227.1855">getElementDefinitionMap(String): Map&lt;String, ElementDefinition&gt;</text><ellipse cx="316" cy="236.5059" fill="#84BE84" rx="3" ry="3" style="stroke: #038048; stroke-width: 1.0;"/><text fill="#000000" font-family="sans-serif" font-size="11" lengthAdjust="spacingAndGlyphs" text-decoration="underline" textLength="199" x="325" y="240.1406">getProfile(String): StructureDefinition</text><ellipse cx="316" cy="249.4609" fill="#84BE84" rx="3" ry="3" style="stroke: #038048; stroke-width: 1.0;"/><text fill="#000000" font-family="sans-serif" font-size="11" lengthAdjust="spacingAndGlyphs" text-decoration="underline" textLength="257" x="325" y="253.0957">getProfile(String, Class&lt;?&gt;): StructureDefinition</text><ellipse cx="316" cy="262.416" fill="#84BE84" rx="3" ry="3" style="stroke: #038048; stroke-width: 1.0;"/><text fill="#000000" font-family="sans-serif" font-size="11" lengthAdjust="spacingAndGlyphs" text-decoration="underline" textLength="267" x="325" y="266.0508">getStructureDefinition(String): StructureDefinition</text><ellipse cx="316" cy="275.3711" fill="#84BE84" rx="3" ry="3" style="stroke: #038048; stroke-width: 1.0;"/><text fill="#000000" font-family="sans-serif" font-size="11" lengthAdjust="spacingAndGlyphs" text-decoration="underline" textLength="282" x="325" y="279.0059">isApplicable(StructureDefinition, Class&lt;?&gt;): boolean</text><ellipse cx="316" cy="288.3262" fill="#84BE84" rx="3" ry="3" style="stroke: #038048; stroke-width: 1.0;"/><text fill="#000000" font-family="sans-serif" font-size="11" lengthAdjust="spacingAndGlyphs" text-decoration="underline" textLength="202" x="325" y="291.9609">isProfile(StructureDefinition): boolean</text></a><!--MD5=[890130e5399c395814a90303860b7fb6]
class com.ibm.fhir.profile.CodeSystemSupport--><a href="CodeSystemSupport.html" target="_top" title="CodeSystemSupport.html" xlink:actuate="onRequest" xlink:href="CodeSystemSupport.html" xlink:show="new" xlink:title="CodeSystemSupport.html" xlink:type="simple"><rect fill="#FEFECE" filter="url(#f1j2y27tvmh3bv)" height="177.5508" id="com.ibm.fhir.profile.CodeSystemSupport" style="stroke: #A80036; stroke-width: 1.5;" width="315" x="760.5" y="81.5"/><ellipse cx="856.25" cy="97.5" fill="#ADD1B2" rx="11" ry="11" style="stroke: #A80036; stroke-width: 1.0;"/><path d="M858.7231,103.6431 Q858.1421,103.9419 857.5029,104.0913 Q856.8638,104.2407 856.1582,104.2407 Q853.6514,104.2407 852.3315,102.5889 Q851.0117,100.937 851.0117,97.8159 Q851.0117,94.6865 852.3315,93.0347 Q853.6514,91.3828 856.1582,91.3828 Q856.8638,91.3828 857.5112,91.5322 Q858.1587,91.6816 858.7231,91.9805 L858.7231,94.7031 Q858.0923,94.1221 857.4988,93.8523 Q856.9053,93.5825 856.2744,93.5825 Q854.9297,93.5825 854.2449,94.6492 Q853.5601,95.7158 853.5601,97.8159 Q853.5601,99.9077 854.2449,100.9744 Q854.9297,102.041 856.2744,102.041 Q856.9053,102.041 857.4988,101.7712 Q858.0923,101.5015 858.7231,100.9204 Z "/><text fill="#000000" font-family="sans-serif" font-size="12" lengthAdjust="spacingAndGlyphs" textLength="115" x="876.75" y="102.0352">CodeSystemSupport</text><line style="stroke: #A80036; stroke-width: 1.5;" x1="761.5" x2="1074.5" y1="113.5" y2="113.5"/><line style="stroke: #A80036; stroke-width: 1.5;" x1="761.5" x2="1074.5" y1="121.5" y2="121.5"/><ellipse cx="771.5" cy="132.5" fill="#84BE84" rx="3" ry="3" style="stroke: #038048; stroke-width: 1.0;"/><text fill="#000000" font-family="sans-serif" font-size="11" lengthAdjust="spacingAndGlyphs" text-decoration="underline" textLength="225" x="780.5" y="136.1348">findConcept(CodeSystem, Code): Concept</text><ellipse cx="771.5" cy="145.4551" fill="#84BE84" rx="3" ry="3" style="stroke: #038048; stroke-width: 1.0;"/><text fill="#000000" font-family="sans-serif" font-size="11" lengthAdjust="spacingAndGlyphs" text-decoration="underline" textLength="204" x="780.5" y="149.0898">findConcept(Concept, Code): Concept</text><ellipse cx="771.5" cy="158.4102" fill="#84BE84" rx="3" ry="3" style="stroke: #038048; stroke-width: 1.0;"/><text fill="#000000" font-family="sans-serif" font-size="11" lengthAdjust="spacingAndGlyphs" text-decoration="underline" textLength="195" x="780.5" y="162.0449">getCodeSystem(String): CodeSystem</text><ellipse cx="771.5" cy="171.3652" fill="#84BE84" rx="3" ry="3" style="stroke: #038048; stroke-width: 1.0;"/><text fill="#000000" font-family="sans-serif" font-size="11" lengthAdjust="spacingAndGlyphs" text-decoration="underline" textLength="289" x="780.5" y="175">getCodeSystemProperty(CodeSystem, Code): Property</text><ellipse cx="771.5" cy="184.3203" fill="#84BE84" rx="3" ry="3" style="stroke: #038048; stroke-width: 1.0;"/><text fill="#000000" font-family="sans-serif" font-size="11" lengthAdjust="spacingAndGlyphs" text-decoration="underline" textLength="247" x="780.5" y="187.9551">getConceptProperty(Concept, Code): Property</text><ellipse cx="771.5" cy="197.2754" fill="#84BE84" rx="3" ry="3" style="stroke: #038048; stroke-width: 1.0;"/><text fill="#000000" font-family="sans-serif" font-size="11" lengthAdjust="spacingAndGlyphs" text-decoration="underline" textLength="272" x="780.5" y="200.9102">getConceptPropertyValue(Concept, Code): Element</text><ellipse cx="771.5" cy="210.2305" fill="#84BE84" rx="3" ry="3" style="stroke: #038048; stroke-width: 1.0;"/><text fill="#000000" font-family="sans-serif" font-size="11" lengthAdjust="spacingAndGlyphs" text-decoration="underline" textLength="227" x="780.5" y="213.8652">getConcepts(CodeSystem): Set&lt;Concept&gt;</text><ellipse cx="771.5" cy="223.1855" fill="#84BE84" rx="3" ry="3" style="stroke: #038048; stroke-width: 1.0;"/><text fill="#000000" font-family="sans-serif" font-size="11" lengthAdjust="spacingAndGlyphs" text-decoration="underline" textLength="206" x="780.5" y="226.8203">getConcepts(Concept): Set&lt;Concept&gt;</text><ellipse cx="771.5" cy="236.1406" fill="#84BE84" rx="3" ry="3" style="stroke: #038048; stroke-width: 1.0;"/><text fill="#000000" font-family="sans-serif" font-size="11" lengthAdjust="spacingAndGlyphs" text-decoration="underline" textLength="288" x="780.5" y="239.7754">hasCodeSystemProperty(CodeSystem, Code): boolean</text><ellipse cx="771.5" cy="249.0957" fill="#84BE84" rx="3" ry="3" style="stroke: #038048; stroke-width: 1.0;"/><text fill="#000000" font-family="sans-serif" font-size="11" lengthAdjust="spacingAndGlyphs" text-decoration="underline" textLength="246" x="780.5" y="252.7305">hasConceptProperty(Concept, Code): boolean</text></a><!--MD5=[4b9b02f0d454b1a78bfa20f53d161db9]
class com.ibm.fhir.profile.ValueSetSupport--><a href="ValueSetSupport.html" target="_top" title="ValueSetSupport.html" xlink:actuate="onRequest" xlink:href="ValueSetSupport.html" xlink:show="new" xlink:title="ValueSetSupport.html" xlink:type="simple"><rect fill="#FEFECE" filter="url(#f1j2y27tvmh3bv)" height="86.8652" id="com.ibm.fhir.profile.ValueSetSupport" style="stroke: #A80036; stroke-width: 1.5;" width="243" x="396.5" y="421"/><ellipse cx="466.75" cy="437" fill="#ADD1B2" rx="11" ry="11" style="stroke: #A80036; stroke-width: 1.0;"/><path d="M469.2231,443.1431 Q468.6421,443.4419 468.0029,443.5913 Q467.3638,443.7407 466.6582,443.7407 Q464.1514,443.7407 462.8315,442.0889 Q461.5117,440.437 461.5117,437.3159 Q461.5117,434.1865 462.8315,432.5347 Q464.1514,430.8828 466.6582,430.8828 Q467.3638,430.8828 468.0112,431.0322 Q468.6587,431.1816 469.2231,431.4805 L469.2231,434.2031 Q468.5923,433.6221 467.9988,433.3523 Q467.4053,433.0825 466.7744,433.0825 Q465.4297,433.0825 464.7449,434.1492 Q464.0601,435.2158 464.0601,437.3159 Q464.0601,439.4077 464.7449,440.4744 Q465.4297,441.541 466.7744,441.541 Q467.4053,441.541 467.9988,441.2712 Q468.5923,441.0015 469.2231,440.4204 Z "/><text fill="#000000" font-family="sans-serif" font-size="12" lengthAdjust="spacingAndGlyphs" textLength="94" x="487.25" y="441.5352">ValueSetSupport</text><line style="stroke: #A80036; stroke-width: 1.5;" x1="397.5" x2="638.5" y1="453" y2="453"/><line style="stroke: #A80036; stroke-width: 1.5;" x1="397.5" x2="638.5" y1="461" y2="461"/><ellipse cx="407.5" cy="472" fill="#84BE84" rx="3" ry="3" style="stroke: #038048; stroke-width: 1.0;"/><text fill="#000000" font-family="sans-serif" font-size="11" lengthAdjust="spacingAndGlyphs" text-decoration="underline" textLength="144" x="416.5" y="475.6348">expand(ValueSet): ValueSet</text><ellipse cx="407.5" cy="484.9551" fill="#84BE84" rx="3" ry="3" style="stroke: #038048; stroke-width: 1.0;"/><text fill="#000000" font-family="sans-serif" font-size="11" lengthAdjust="spacingAndGlyphs" text-decoration="underline" textLength="217" x="416.5" y="488.5898">getContains(Expansion): Set&lt;Contains&gt;</text><ellipse cx="407.5" cy="497.9102" fill="#84BE84" rx="3" ry="3" style="stroke: #038048; stroke-width: 1.0;"/><text fill="#000000" font-family="sans-serif" font-size="11" lengthAdjust="spacingAndGlyphs" text-decoration="underline" textLength="153" x="416.5" y="501.5449">getValueSet(String): ValueSet</text></a><!--MD5=[92376d476eab3d6e068482c2c6223db4]
class com.ibm.fhir.profile.ConstraintGenerator--><a href="ConstraintGenerator.html" target="_top" title="ConstraintGenerator.html" xlink:actuate="onRequest" xlink:href="ConstraintGenerator.html" xlink:show="new" xlink:title="ConstraintGenerator.html" xlink:type="simple"><rect fill="#FEFECE" filter="url(#f1j2y27tvmh3bv)" height="86.8652" id="com.ibm.fhir.profile.ConstraintGenerator" style="stroke: #A80036; stroke-width: 1.5;" width="247" x="22.5" y="127"/><ellipse cx="83.75" cy="143" fill="#ADD1B2" rx="11" ry="11" style="stroke: #A80036; stroke-width: 1.0;"/><path d="M86.2231,149.1431 Q85.6421,149.4419 85.0029,149.5913 Q84.3638,149.7407 83.6582,149.7407 Q81.1514,149.7407 79.8315,148.0889 Q78.5117,146.437 78.5117,143.3159 Q78.5117,140.1865 79.8315,138.5347 Q81.1514,136.8828 83.6582,136.8828 Q84.3638,136.8828 85.0112,137.0322 Q85.6587,137.1816 86.2231,137.4805 L86.2231,140.2031 Q85.5923,139.6221 84.9988,139.3523 Q84.4053,139.0825 83.7744,139.0825 Q82.4297,139.0825 81.7449,140.1492 Q81.0601,141.2158 81.0601,143.3159 Q81.0601,145.4077 81.7449,146.4744 Q82.4297,147.541 83.7744,147.541 Q84.4053,147.541 84.9988,147.2712 Q85.5923,147.0015 86.2231,146.4204 Z "/><text fill="#000000" font-family="sans-serif" font-size="12" lengthAdjust="spacingAndGlyphs" textLength="116" x="104.25" y="147.5352">ConstraintGenerator</text><line style="stroke: #A80036; stroke-width: 1.5;" x1="23.5" x2="268.5" y1="159" y2="159"/><line style="stroke: #A80036; stroke-width: 1.5;" x1="23.5" x2="268.5" y1="167" y2="167"/><ellipse cx="33.5" cy="178" fill="#84BE84" rx="3" ry="3" style="stroke: #038048; stroke-width: 1.0;"/><text fill="#000000" font-family="sans-serif" font-size="11" lengthAdjust="spacingAndGlyphs" textLength="221" x="42.5" y="181.6348">ConstraintGenerator(StructureDefinition)</text><ellipse cx="33.5" cy="190.9551" fill="#84BE84" rx="3" ry="3" style="stroke: #038048; stroke-width: 1.0;"/><text fill="#000000" font-family="sans-serif" font-size="11" lengthAdjust="spacingAndGlyphs" textLength="155" x="42.5" y="194.5898">generate(): List&lt;Constraint&gt;</text><ellipse cx="33.5" cy="203.9102" fill="#84BE84" rx="3" ry="3" style="stroke: #038048; stroke-width: 1.0;"/><text fill="#000000" font-family="sans-serif" font-size="11" lengthAdjust="spacingAndGlyphs" text-decoration="underline" textLength="103" x="42.5" y="207.5449">main(String[]): void</text></a><!--MD5=[7708ed36621be471b622a92062e14195]
class com.ibm.fhir.profile.ConstraintGenerator.Node--><a href="ConstraintGenerator.Node.html" target="_top" title="ConstraintGenerator.Node.html" xlink:actuate="onRequest" xlink:href="ConstraintGenerator.Node.html" xlink:show="new" xlink:title="ConstraintGenerator.Node.html" xlink:type="simple"><rect fill="#FEFECE" filter="url(#f1j2y27tvmh3bv)" height="73.9102" id="com.ibm.fhir.profile.ConstraintGenerator.Node" style="stroke: #A80036; stroke-width: 1.5;" width="220" x="61" y="647"/><ellipse cx="92.65" cy="663" fill="#ADD1B2" rx="11" ry="11" style="stroke: #A80036; stroke-width: 1.0;"/><path d="M95.1231,669.1431 Q94.5421,669.4419 93.9029,669.5913 Q93.2638,669.7407 92.5582,669.7407 Q90.0514,669.7407 88.7315,668.0889 Q87.4117,666.437 87.4117,663.3159 Q87.4117,660.1865 88.7315,658.5347 Q90.0514,656.8828 92.5582,656.8828 Q93.2638,656.8828 93.9112,657.0322 Q94.5587,657.1816 95.1231,657.4805 L95.1231,660.2031 Q94.4923,659.6221 93.8988,659.3523 Q93.3053,659.0825 92.6744,659.0825 Q91.3297,659.0825 90.6449,660.1492 Q89.9601,661.2158 89.9601,663.3159 Q89.9601,665.4077 90.6449,666.4744 Q91.3297,667.541 92.6744,667.541 Q93.3053,667.541 93.8988,667.2712 Q94.4923,667.0015 95.1231,666.4204 Z "/><text fill="#000000" font-family="sans-serif" font-size="12" lengthAdjust="spacingAndGlyphs" textLength="151" x="110.35" y="667.5352">ConstraintGenerator.Node</text><line style="stroke: #A80036; stroke-width: 1.5;" x1="62" x2="280" y1="679" y2="679"/><polygon fill="none" points="72,686,68,692,76,692" style="stroke: #1963A0; stroke-width: 1.0;"/><text fill="#000000" font-family="sans-serif" font-size="11" lengthAdjust="spacingAndGlyphs" textLength="63" x="81" y="693.6348">label: String</text><polygon fill="none" points="72,698.9551,68,704.9551,76,704.9551" style="stroke: #1963A0; stroke-width: 1.0;"/><text fill="#000000" font-family="sans-serif" font-size="11" lengthAdjust="spacingAndGlyphs" textLength="194" x="81" y="706.5898">elementDefinition: ElementDefinition</text><line style="stroke: #A80036; stroke-width: 1.5;" x1="62" x2="280" y1="712.9102" y2="712.9102"/></a><!--MD5=[158382da52d64efafb3f700f5dac8e64]
class com.ibm.fhir.profile.ConstraintGenerator.Tree--><a href="ConstraintGenerator.Tree.html" target="_top" title="ConstraintGenerator.Tree.html" xlink:actuate="onRequest" xlink:href="ConstraintGenerator.Tree.html" xlink:show="new" xlink:title="ConstraintGenerator.Tree.html" xlink:type="simple"><rect fill="#FEFECE" filter="url(#f1j2y27tvmh3bv)" height="73.9102" id="com.ibm.fhir.profile.ConstraintGenerator.Tree" style="stroke: #A80036; stroke-width: 1.5;" width="302" x="59" y="427.5"/><ellipse cx="132.25" cy="443.5" fill="#ADD1B2" rx="11" ry="11" style="stroke: #A80036; stroke-width: 1.0;"/><path d="M134.7231,449.6431 Q134.1421,449.9419 133.5029,450.0913 Q132.8638,450.2407 132.1582,450.2407 Q129.6514,450.2407 128.3315,448.5889 Q127.0117,446.937 127.0117,443.8159 Q127.0117,440.6865 128.3315,439.0347 Q129.6514,437.3828 132.1582,437.3828 Q132.8638,437.3828 133.5112,437.5322 Q134.1587,437.6816 134.7231,437.9805 L134.7231,440.7031 Q134.0923,440.1221 133.4988,439.8523 Q132.9053,439.5825 132.2744,439.5825 Q130.9297,439.5825 130.2449,440.6492 Q129.5601,441.7158 129.5601,443.8159 Q129.5601,445.9077 130.2449,446.9744 Q130.9297,448.041 132.2744,448.041 Q132.9053,448.041 133.4988,447.7712 Q134.0923,447.5015 134.7231,446.9204 Z "/><text fill="#000000" font-family="sans-serif" font-size="12" lengthAdjust="spacingAndGlyphs" textLength="147" x="152.75" y="448.0352">ConstraintGenerator.Tree</text><line style="stroke: #A80036; stroke-width: 1.5;" x1="60" x2="360" y1="459.5" y2="459.5"/><polygon fill="none" points="70,466.5,66,472.5,74,472.5" style="stroke: #1963A0; stroke-width: 1.0;"/><text fill="#000000" font-family="sans-serif" font-size="11" lengthAdjust="spacingAndGlyphs" textLength="161" x="79" y="474.1348">nodeMap: Map&lt;String, Node&gt;</text><polygon fill="none" points="70,479.4551,66,485.4551,74,485.4551" style="stroke: #1963A0; stroke-width: 1.0;"/><text fill="#000000" font-family="sans-serif" font-size="11" lengthAdjust="spacingAndGlyphs" textLength="276" x="79" y="487.0898">sliceDefinitionMap: Map&lt;String, ElementDefinition&gt;</text><line style="stroke: #A80036; stroke-width: 1.5;" x1="60" x2="360" y1="493.4102" y2="493.4102"/></a><!--MD5=[4194688b9175d091dc8f87d917b1dff0]
reverse link com.ibm.fhir.profile.ConstraintGenerator to com.ibm.fhir.profile.ConstraintGenerator.Node--><path d="M86.1383,225.5785 C54.852,260.4615 23,308.499 23,359.5 C23,359.5 23,359.5 23,577.5 C23,607.8893 43.8125,630.4631 69.8281,646.8097 " fill="none" id="com.ibm.fhir.profile.ConstraintGenerator&lt;-com.ibm.fhir.profile.ConstraintGenerator.Node" style="stroke: #A80036; stroke-width: 1.0;"/><ellipse cx="91.2256" cy="220.1201" fill="#FFFFFF" rx="8" ry="8" style="stroke: #A80036; stroke-width: 1.0;"/><line style="stroke: #A80036; stroke-width: 1.0;" x1="85.7712" x2="96.6799" y1="225.9724" y2="214.2677"/><line style="stroke: #A80036; stroke-width: 1.0;" x1="85.3732" x2="97.0779" y1="214.6657" y2="225.5744"/><!--MD5=[f5313baba9227567d2ad47dc2386af4b]
link com.ibm.fhir.profile.ConstraintGenerator.Node to com.ibm.fhir.profile.ConstraintGenerator.Node--><path d="M281.0161,678.1301 C301.5434,678.8529 316,680.8096 316,684 C316,686.9163 303.9213,688.8017 286.1684,689.6562 " fill="none" id="com.ibm.fhir.profile.ConstraintGenerator.Node-&gt;com.ibm.fhir.profile.ConstraintGenerator.Node" style="stroke: #A80036; stroke-width: 1.0;"/><polygon fill="#A80036" points="281.0161,689.8699,290.1742,693.4933,286.0118,689.6626,289.8425,685.5002,281.0161,689.8699" style="stroke: #A80036; stroke-width: 1.0;"/><text fill="#000000" font-family="sans-serif" font-size="13" lengthAdjust="spacingAndGlyphs" textLength="40" x="322" y="689.0684">parent</text><!--MD5=[f5313baba9227567d2ad47dc2386af4b]
link com.ibm.fhir.profile.ConstraintGenerator.Node to com.ibm.fhir.profile.ConstraintGenerator.Node--><path d="M281.0871,671.7164 C327.6103,670.9465 368,675.041 368,684 C368,692.6265 330.5524,696.7429 286.2394,696.3492 " fill="none" id="com.ibm.fhir.profile.ConstraintGenerator.Node-&gt;com.ibm.fhir.profile.ConstraintGenerator.Node-1" style="stroke: #A80036; stroke-width: 1.0;"/><polygon fill="#A80036" points="281.0871,696.2836,290.0353,700.3982,286.0867,696.3475,290.1375,692.3989,281.0871,696.2836" style="stroke: #A80036; stroke-width: 1.0;"/><text fill="#000000" font-family="sans-serif" font-size="13" lengthAdjust="spacingAndGlyphs" textLength="51" x="374" y="689.0684">children</text><text fill="#000000" font-family="sans-serif" font-size="13" lengthAdjust="spacingAndGlyphs" textLength="6" x="289.0385" y="694.2024">*</text><!--MD5=[e8d4e06142970667eb00b2fff604e47c]
reverse link com.ibm.fhir.profile.ConstraintGenerator to com.ibm.fhir.profile.ConstraintGenerator.Tree--><path d="M158.7841,229.2269 C171.6131,288.1601 190.9862,377.1552 201.8577,427.0963 " fill="none" id="com.ibm.fhir.profile.ConstraintGenerator&lt;-com.ibm.fhir.profile.ConstraintGenerator.Tree" style="stroke: #A80036; stroke-width: 1.0;"/><ellipse cx="157.214" cy="222.0142" fill="#FFFFFF" rx="8" ry="8" style="stroke: #A80036; stroke-width: 1.0;"/><line style="stroke: #A80036; stroke-width: 1.0;" x1="158.9157" x2="155.5123" y1="229.8311" y2="214.1973"/><line style="stroke: #A80036; stroke-width: 1.0;" x1="149.3971" x2="165.0309" y1="223.7159" y2="220.3125"/><!--MD5=[7db6d423326b5146a77680902d662511]
link com.ibm.fhir.profile.ConstraintGenerator.Tree to com.ibm.fhir.profile.ConstraintGenerator.Node--><path d="M203.3842,501.7352 C196.4999,540.4812 185.7378,601.0528 178.5315,641.611 " fill="none" id="com.ibm.fhir.profile.ConstraintGenerator.Tree-&gt;com.ibm.fhir.profile.ConstraintGenerator.Node" style="stroke: #A80036; stroke-width: 1.0;"/><polygon fill="#A80036" points="177.5831,646.9491,183.0961,638.7878,178.4579,642.0262,175.2195,637.3881,177.5831,646.9491" style="stroke: #A80036; stroke-width: 1.0;"/><text fill="#000000" font-family="sans-serif" font-size="13" lengthAdjust="spacingAndGlyphs" textLength="26" x="192" y="582.5684">root</text><!--MD5=[0abc0bbbdc6501756d24d5cceaf1c168]
link com.ibm.fhir.profile.ProfileSupport to com.ibm.fhir.profile.CodeSystemSupport--><!--MD5=[bd761b0cee08d50294f9da4875d5aa5f]
link com.ibm.fhir.profile.ProfileSupport to com.ibm.fhir.profile.ValueSetSupport--><text fill="#888888" font-family="sans-serif" font-size="10" lengthAdjust="spacingAndGlyphs" textLength="182" x="464" y="756.668">UMLDoclet 2.0.7, PlantUML 1.2019.12</text><!--MD5=[e4cdae117ad83317eb22dd9b92b82021]
@startuml
    namespace com.ibm.fhir.profile {

        class ProfileSupport [[ProfileSupport.html]] {
            {static} +HL7_STRUCTURE_DEFINITION_URL_PREFIX: String
            {static} +HL7_VALUE_SET_URL_PREFIX: String
            {static} +createConstraint(String, String, String, String, String, boolean): Constraint
            {static} +getBinding(String): Binding
            {static} +getBindingMap(String): Map<String, Binding>
            {static} +getConstraints(List<String>, Class<?>): List<Constraint>
            {static} +getConstraints(Resource): List<Constraint>
            {static} +getConstraints(String, Class<?>): List<Constraint>
            {static} +getElementDefinition(String): ElementDefinition
            {static} +getElementDefinitionMap(Class<?>): Map<String, ElementDefinition>
            {static} +getElementDefinitionMap(String): Map<String, ElementDefinition>
            {static} +getProfile(String): StructureDefinition
            {static} +getProfile(String, Class<?>): StructureDefinition
            {static} +getStructureDefinition(String): StructureDefinition
            {static} +isApplicable(StructureDefinition, Class<?>): boolean
            {static} +isProfile(StructureDefinition): boolean
        }

        class CodeSystemSupport [[CodeSystemSupport.html]] {
            {static} +findConcept(CodeSystem, Code): Concept
            {static} +findConcept(Concept, Code): Concept
            {static} +getCodeSystem(String): CodeSystem
            {static} +getCodeSystemProperty(CodeSystem, Code): Property
            {static} +getConceptProperty(Concept, Code): Property
            {static} +getConceptPropertyValue(Concept, Code): Element
            {static} +getConcepts(CodeSystem): Set<Concept>
            {static} +getConcepts(Concept): Set<Concept>
            {static} +hasCodeSystemProperty(CodeSystem, Code): boolean
            {static} +hasConceptProperty(Concept, Code): boolean
        }

        class ValueSetSupport [[ValueSetSupport.html]] {
            {static} +expand(ValueSet): ValueSet
            {static} +getContains(Expansion): Set<Contains>
            {static} +getValueSet(String): ValueSet
        }

        class ConstraintGenerator [[ConstraintGenerator.html]] {
            +ConstraintGenerator(StructureDefinition)
            +generate(): List<Constraint>
            {static} +main(String[]): void
        }

        class com.ibm.fhir.profile.ConstraintGenerator.Node [[ConstraintGenerator.Node.html]] {
            ~label: String
            ~elementDefinition: ElementDefinition
        }

        class com.ibm.fhir.profile.ConstraintGenerator.Tree [[ConstraintGenerator.Tree.html]] {
            ~nodeMap: Map<String, Node>
            ~sliceDefinitionMap: Map<String, ElementDefinition>
        }

        ConstraintGenerator +- - com.ibm.fhir.profile.ConstraintGenerator.Node
        com.ibm.fhir.profile.ConstraintGenerator.Node - -> com.ibm.fhir.profile.ConstraintGenerator.Node: parent
        com.ibm.fhir.profile.ConstraintGenerator.Node - -> "*" com.ibm.fhir.profile.ConstraintGenerator.Node: children
        ConstraintGenerator +- - com.ibm.fhir.profile.ConstraintGenerator.Tree
        com.ibm.fhir.profile.ConstraintGenerator.Tree - -> com.ibm.fhir.profile.ConstraintGenerator.Node: root
    }

    center footer UMLDoclet 2.0.7, PlantUML 1.2019.12
@enduml

PlantUML version 1.2019.12(Sun Nov 03 05:24:54 EST 2019)
(APACHE source distribution)
Java Runtime: OpenJDK Runtime Environment
JVM: OpenJDK 64-Bit Server VM
Java Version: 11.0.4+11
Operating System: Mac OS X
Default Encoding: UTF-8
Language: en
Country: US
--></g></svg>