<?xml version="1.0" encoding="UTF-8" standalone="no"?><svg xmlns="http://www.w3.org/2000/svg" xmlns:xlink="http://www.w3.org/1999/xlink" contentScriptType="application/ecmascript" contentStyleType="text/css" height="542px" preserveAspectRatio="none" style="width:1995px;height:542px;" version="1.1" viewBox="0 0 1995 542" width="1995px" zoomAndPan="magnify"><defs><filter height="300%" id="f39i9ysmaoy17" width="300%" x="-1" y="-1"><feGaussianBlur result="blurOut" stdDeviation="2.0"/><feColorMatrix in="blurOut" result="blurOut2" type="matrix" values="0 0 0 0 0 0 0 0 0 0 0 0 0 0 0 0 0 0 .4 0"/><feOffset dx="4.0" dy="4.0" in="blurOut2" result="blurOut3"/><feBlend in="SourceGraphic" in2="blurOut3" mode="normal"/></filter></defs><g><!--MD5=[e80583ced3f251ea0ff6ce3adfd43c7f]
cluster com.ibm.fhir.jbatch.bulkdata.export.system--><polygon fill="#FFFFFF" filter="url(#f39i9ysmaoy17)" points="14,150,362,150,369,172.2969,1973,172.2969,1973,502,14,502,14,150" style="stroke: #000000; stroke-width: 1.5;"/><line style="stroke: #000000; stroke-width: 1.5;" x1="14" x2="369" y1="172.2969" y2="172.2969"/><text fill="#000000" font-family="sans-serif" font-size="14" font-weight="bold" lengthAdjust="spacingAndGlyphs" textLength="342" x="18" y="164.9951">com.ibm.fhir.jbatch.bulkdata.export.system</text><!--MD5=[dd702ba299ff838c61d7b9011e754e3e]
cluster javax.batch.api.partition--><polygon fill="#FFFFFF" filter="url(#f39i9ysmaoy17)" points="14,16,208,16,215,38.2969,764,38.2969,764,125,14,125,14,16" style="stroke: #000000; stroke-width: 1.5;"/><line style="stroke: #000000; stroke-width: 1.5;" x1="14" x2="215" y1="38.2969" y2="38.2969"/><text fill="#000000" font-family="sans-serif" font-size="14" font-weight="bold" lengthAdjust="spacingAndGlyphs" textLength="188" x="18" y="30.9951">javax.batch.api.partition</text><!--MD5=[341d2e2c601816b731e974ba8ab9a24f]
cluster javax.batch.api.listener--><polygon fill="#FFFFFF" filter="url(#f39i9ysmaoy17)" points="835,16,1023,16,1030,38.2969,1033,38.2969,1033,125,835,125,835,16" style="stroke: #000000; stroke-width: 1.5;"/><line style="stroke: #000000; stroke-width: 1.5;" x1="835" x2="1030" y1="38.2969" y2="38.2969"/><text fill="#000000" font-family="sans-serif" font-size="14" font-weight="bold" lengthAdjust="spacingAndGlyphs" textLength="182" x="839" y="30.9951">javax.batch.api.listener</text><!--MD5=[61fe05900995e506476dd9053fb879ec]
cluster javax.batch.api.chunk--><polygon fill="#FFFFFF" filter="url(#f39i9ysmaoy17)" points="1200,22.5,1376,22.5,1383,44.7969,1608,44.7969,1608,118.5,1200,118.5,1200,22.5" style="stroke: #000000; stroke-width: 1.5;"/><line style="stroke: #000000; stroke-width: 1.5;" x1="1200" x2="1383" y1="44.7969" y2="44.7969"/><text fill="#000000" font-family="sans-serif" font-size="14" font-weight="bold" lengthAdjust="spacingAndGlyphs" textLength="170" x="1204" y="37.4951">javax.batch.api.chunk</text><!--MD5=[a8b629700760d7220a4e55614b594b11]
class com.ibm.fhir.jbatch.bulkdata.export.system.SystemExportPartitionMapper--><a href="SystemExportPartitionMapper.html" target="_top" title="SystemExportPartitionMapper.html" xlink:actuate="onRequest" xlink:href="SystemExportPartitionMapper.html" xlink:show="new" xlink:title="SystemExportPartitionMapper.html" xlink:type="simple"><rect fill="#FEFECE" filter="url(#f39i9ysmaoy17)" height="73.6094" id="com.ibm.fhir.jbatch.bulkdata.export.system.SystemExportPartitionMapper" style="stroke: #A80036; stroke-width: 1.5;" width="217" x="563.5" y="298.5"/><ellipse cx="578.5" cy="314.5" fill="#ADD1B2" rx="11" ry="11" style="stroke: #A80036; stroke-width: 1.0;"/><path d="M581.4688,320.1406 Q580.8906,320.4375 580.25,320.5781 Q579.6094,320.7344 578.9063,320.7344 Q576.4063,320.7344 575.0781,319.0938 Q573.7656,317.4375 573.7656,314.3125 Q573.7656,311.1875 575.0781,309.5313 Q576.4063,307.875 578.9063,307.875 Q579.6094,307.875 580.25,308.0313 Q580.9063,308.1875 581.4688,308.4844 L581.4688,311.2031 Q580.8438,310.625 580.25,310.3594 Q579.6563,310.0781 579.0313,310.0781 Q577.6875,310.0781 577,311.1563 Q576.3125,312.2188 576.3125,314.3125 Q576.3125,316.4063 577,317.4844 Q577.6875,318.5469 579.0313,318.5469 Q579.6563,318.5469 580.25,318.2813 Q580.8438,318 581.4688,317.4219 L581.4688,320.1406 Z "/><text fill="#000000" font-family="sans-serif" font-size="12" lengthAdjust="spacingAndGlyphs" textLength="185" x="592.5" y="318.6543">SystemExportPartitionMapper</text><line style="stroke: #A80036; stroke-width: 1.5;" x1="564.5" x2="779.5" y1="330.5" y2="330.5"/><polygon fill="none" points="574.5,337.5,570.5,343.5,578.5,343.5" style="stroke: #1963A0; stroke-width: 1.0;"/><text fill="#000000" font-family="sans-serif" font-size="11" lengthAdjust="spacingAndGlyphs" textLength="141" x="583.5" y="344.7104">fhirResourceType: String</text><line style="stroke: #A80036; stroke-width: 1.5;" x1="564.5" x2="779.5" y1="351.3047" y2="351.3047"/><ellipse cx="574.5" cy="362.3047" fill="#84BE84" rx="3" ry="3" style="stroke: #038048; stroke-width: 1.0;"/><text fill="#000000" font-family="sans-serif" font-size="11" lengthAdjust="spacingAndGlyphs" textLength="166" x="583.5" y="365.5151">mapPartitions(): PartitionPlan</text></a><!--MD5=[5e9c722e1bb9814a6a5e5a39940a9890]
class com.ibm.fhir.jbatch.bulkdata.export.system.ExportPartitionAnalyzer--><a href="ExportPartitionAnalyzer.html" target="_top" title="ExportPartitionAnalyzer.html" xlink:actuate="onRequest" xlink:href="ExportPartitionAnalyzer.html" xlink:show="new" xlink:title="ExportPartitionAnalyzer.html" xlink:type="simple"><rect fill="#FEFECE" filter="url(#f39i9ysmaoy17)" height="86.4141" id="com.ibm.fhir.jbatch.bulkdata.export.system.ExportPartitionAnalyzer" style="stroke: #A80036; stroke-width: 1.5;" width="255" x="273.5" y="292.5"/><ellipse cx="324.75" cy="308.5" fill="#ADD1B2" rx="11" ry="11" style="stroke: #A80036; stroke-width: 1.0;"/><path d="M327.7188,314.1406 Q327.1406,314.4375 326.5,314.5781 Q325.8594,314.7344 325.1563,314.7344 Q322.6563,314.7344 321.3281,313.0938 Q320.0156,311.4375 320.0156,308.3125 Q320.0156,305.1875 321.3281,303.5313 Q322.6563,301.875 325.1563,301.875 Q325.8594,301.875 326.5,302.0313 Q327.1563,302.1875 327.7188,302.4844 L327.7188,305.2031 Q327.0938,304.625 326.5,304.3594 Q325.9063,304.0781 325.2813,304.0781 Q323.9375,304.0781 323.25,305.1563 Q322.5625,306.2188 322.5625,308.3125 Q322.5625,310.4063 323.25,311.4844 Q323.9375,312.5469 325.2813,312.5469 Q325.9063,312.5469 326.5,312.2813 Q327.0938,312 327.7188,311.4219 L327.7188,314.1406 Z "/><text fill="#000000" font-family="sans-serif" font-size="12" lengthAdjust="spacingAndGlyphs" textLength="144" x="345.25" y="312.6543">ExportPartitionAnalyzer</text><line style="stroke: #A80036; stroke-width: 1.5;" x1="274.5" x2="527.5" y1="324.5" y2="324.5"/><polygon fill="none" points="284.5,331.5,280.5,337.5,288.5,337.5" style="stroke: #1963A0; stroke-width: 1.0;"/><text fill="#000000" font-family="sans-serif" font-size="11" lengthAdjust="spacingAndGlyphs" textLength="128" x="293.5" y="338.7104">jobContext: JobContext</text><line style="stroke: #A80036; stroke-width: 1.5;" x1="274.5" x2="527.5" y1="345.3047" y2="345.3047"/><ellipse cx="284.5" cy="356.3047" fill="#84BE84" rx="3" ry="3" style="stroke: #038048; stroke-width: 1.0;"/><text fill="#000000" font-family="sans-serif" font-size="11" lengthAdjust="spacingAndGlyphs" textLength="229" x="293.5" y="359.5151">analyzeStatus(BatchStatus, String): void</text><ellipse cx="284.5" cy="369.1094" fill="#84BE84" rx="3" ry="3" style="stroke: #038048; stroke-width: 1.0;"/><text fill="#000000" font-family="sans-serif" font-size="11" lengthAdjust="spacingAndGlyphs" textLength="222" x="293.5" y="372.3198">analyzeCollectorData(Serializable): void</text></a><!--MD5=[af79ea0f02d9ca31e87c9b54a371aef6]
class com.ibm.fhir.jbatch.bulkdata.export.system.ExportJobListener--><a href="ExportJobListener.html" target="_top" title="ExportJobListener.html" xlink:actuate="onRequest" xlink:href="ExportJobListener.html" xlink:show="new" xlink:title="ExportJobListener.html" xlink:type="simple"><rect fill="#FEFECE" filter="url(#f39i9ysmaoy17)" height="112.0234" id="com.ibm.fhir.jbatch.bulkdata.export.system.ExportJobListener" style="stroke: #A80036; stroke-width: 1.5;" width="236" x="816" y="279.5"/><ellipse cx="875.25" cy="295.5" fill="#ADD1B2" rx="11" ry="11" style="stroke: #A80036; stroke-width: 1.0;"/><path d="M878.2188,301.1406 Q877.6406,301.4375 877,301.5781 Q876.3594,301.7344 875.6563,301.7344 Q873.1563,301.7344 871.8281,300.0938 Q870.5156,298.4375 870.5156,295.3125 Q870.5156,292.1875 871.8281,290.5313 Q873.1563,288.875 875.6563,288.875 Q876.3594,288.875 877,289.0313 Q877.6563,289.1875 878.2188,289.4844 L878.2188,292.2031 Q877.5938,291.625 877,291.3594 Q876.4063,291.0781 875.7813,291.0781 Q874.4375,291.0781 873.75,292.1563 Q873.0625,293.2188 873.0625,295.3125 Q873.0625,297.4063 873.75,298.4844 Q874.4375,299.5469 875.7813,299.5469 Q876.4063,299.5469 877,299.2813 Q877.5938,299 878.2188,298.4219 L878.2188,301.1406 Z "/><text fill="#000000" font-family="sans-serif" font-size="12" lengthAdjust="spacingAndGlyphs" textLength="109" x="895.75" y="299.6543">ExportJobListener</text><line style="stroke: #A80036; stroke-width: 1.5;" x1="817" x2="1051" y1="311.5" y2="311.5"/><polygon fill="none" points="827,318.5,823,324.5,831,324.5" style="stroke: #1963A0; stroke-width: 1.0;"/><text fill="#000000" font-family="sans-serif" font-size="11" lengthAdjust="spacingAndGlyphs" textLength="210" x="836" y="325.7104">currentExecutionStartTimeInMS: long</text><polygon fill="none" points="827,331.3047,823,337.3047,831,337.3047" style="stroke: #1963A0; stroke-width: 1.0;"/><text fill="#000000" font-family="sans-serif" font-size="11" lengthAdjust="spacingAndGlyphs" textLength="128" x="836" y="338.5151">jobContext: JobContext</text><polygon fill="none" points="827,344.1094,823,350.1094,831,350.1094" style="stroke: #1963A0; stroke-width: 1.0;"/><text fill="#000000" font-family="sans-serif" font-size="11" lengthAdjust="spacingAndGlyphs" textLength="135" x="836" y="351.3198">dataSourcesInfo: String</text><line style="stroke: #A80036; stroke-width: 1.5;" x1="817" x2="1051" y1="357.9141" y2="357.9141"/><ellipse cx="827" cy="368.9141" fill="#84BE84" rx="3" ry="3" style="stroke: #038048; stroke-width: 1.0;"/><text fill="#000000" font-family="sans-serif" font-size="11" lengthAdjust="spacingAndGlyphs" textLength="83" x="836" y="372.1245">afterJob(): void</text><ellipse cx="827" cy="381.7188" fill="#84BE84" rx="3" ry="3" style="stroke: #038048; stroke-width: 1.0;"/><text fill="#000000" font-family="sans-serif" font-size="11" lengthAdjust="spacingAndGlyphs" textLength="93" x="836" y="384.9292">beforeJob(): void</text></a><!--MD5=[f2820938bdc66d2fba69c218ac84d369]
class com.ibm.fhir.jbatch.bulkdata.export.system.ExportPartitionCollector--><a href="ExportPartitionCollector.html" target="_top" title="ExportPartitionCollector.html" xlink:actuate="onRequest" xlink:href="ExportPartitionCollector.html" xlink:show="new" xlink:title="ExportPartitionCollector.html" xlink:type="simple"><rect fill="#FEFECE" filter="url(#f39i9ysmaoy17)" height="73.6094" id="com.ibm.fhir.jbatch.bulkdata.export.system.ExportPartitionCollector" style="stroke: #A80036; stroke-width: 1.5;" width="216" x="22" y="298.5"/><ellipse cx="53.2" cy="314.5" fill="#ADD1B2" rx="11" ry="11" style="stroke: #A80036; stroke-width: 1.0;"/><path d="M56.1688,320.1406 Q55.5906,320.4375 54.95,320.5781 Q54.3094,320.7344 53.6063,320.7344 Q51.1063,320.7344 49.7781,319.0938 Q48.4656,317.4375 48.4656,314.3125 Q48.4656,311.1875 49.7781,309.5313 Q51.1063,307.875 53.6063,307.875 Q54.3094,307.875 54.95,308.0313 Q55.6063,308.1875 56.1688,308.4844 L56.1688,311.2031 Q55.5438,310.625 54.95,310.3594 Q54.3563,310.0781 53.7313,310.0781 Q52.3875,310.0781 51.7,311.1563 Q51.0125,312.2188 51.0125,314.3125 Q51.0125,316.4063 51.7,317.4844 Q52.3875,318.5469 53.7313,318.5469 Q54.3563,318.5469 54.95,318.2813 Q55.5438,318 56.1688,317.4219 L56.1688,320.1406 Z "/><text fill="#000000" font-family="sans-serif" font-size="12" lengthAdjust="spacingAndGlyphs" textLength="148" x="70.8" y="318.6543">ExportPartitionCollector</text><line style="stroke: #A80036; stroke-width: 1.5;" x1="23" x2="237" y1="330.5" y2="330.5"/><polygon fill="none" points="33,337.5,29,343.5,37,343.5" style="stroke: #1963A0; stroke-width: 1.0;"/><text fill="#000000" font-family="sans-serif" font-size="11" lengthAdjust="spacingAndGlyphs" textLength="120" x="42" y="344.7104">stepCtx: StepContext</text><line style="stroke: #A80036; stroke-width: 1.5;" x1="23" x2="237" y1="351.3047" y2="351.3047"/><ellipse cx="33" cy="362.3047" fill="#84BE84" rx="3" ry="3" style="stroke: #038048; stroke-width: 1.0;"/><text fill="#000000" font-family="sans-serif" font-size="11" lengthAdjust="spacingAndGlyphs" textLength="190" x="42" y="365.5151">collectPartitionData(): Serializable</text></a><!--MD5=[cb55e26b75ebdf42daa91f3ce7ca043c]
class com.ibm.fhir.jbatch.bulkdata.export.system.ChunkReader--><a href="ChunkReader.html" target="_top" title="ChunkReader.html" xlink:actuate="onRequest" xlink:href="ChunkReader.html" xlink:show="new" xlink:title="ChunkReader.html" xlink:type="simple"><rect fill="#FEFECE" filter="url(#f39i9ysmaoy17)" height="316.8984" id="com.ibm.fhir.jbatch.bulkdata.export.system.ChunkReader" style="stroke: #A80036; stroke-width: 1.5;" width="643" x="1321.5" y="177"/><ellipse cx="1596.75" cy="193" fill="#ADD1B2" rx="11" ry="11" style="stroke: #A80036; stroke-width: 1.0;"/><path d="M1599.7188,198.6406 Q1599.1406,198.9375 1598.5,199.0781 Q1597.8594,199.2344 1597.1563,199.2344 Q1594.6563,199.2344 1593.3281,197.5938 Q1592.0156,195.9375 1592.0156,192.8125 Q1592.0156,189.6875 1593.3281,188.0313 Q1594.6563,186.375 1597.1563,186.375 Q1597.8594,186.375 1598.5,186.5313 Q1599.1563,186.6875 1599.7188,186.9844 L1599.7188,189.7031 Q1599.0938,189.125 1598.5,188.8594 Q1597.9063,188.5781 1597.2813,188.5781 Q1595.9375,188.5781 1595.25,189.6563 Q1594.5625,190.7188 1594.5625,192.8125 Q1594.5625,194.9063 1595.25,195.9844 Q1595.9375,197.0469 1597.2813,197.0469 Q1597.9063,197.0469 1598.5,196.7813 Q1599.0938,196.5 1599.7188,195.9219 L1599.7188,198.6406 Z "/><text fill="#000000" font-family="sans-serif" font-size="12" lengthAdjust="spacingAndGlyphs" textLength="84" x="1617.25" y="197.1543">ChunkReader</text><line style="stroke: #A80036; stroke-width: 1.5;" x1="1322.5" x2="1963.5" y1="209" y2="209"/><polygon fill="none" points="1332.5,216,1328.5,222,1336.5,222" style="stroke: #1963A0; stroke-width: 1.0;"/><text fill="#000000" font-family="sans-serif" font-size="11" lengthAdjust="spacingAndGlyphs" textLength="156" x="1341.5" y="223.2104">isSingleCosObject: boolean</text><polygon fill="none" points="1332.5,228.8047,1328.5,234.8047,1336.5,234.8047" style="stroke: #1963A0; stroke-width: 1.0;"/><text fill="#000000" font-family="sans-serif" font-size="11" lengthAdjust="spacingAndGlyphs" textLength="76" x="1341.5" y="236.0151">pageNum: int</text><polygon fill="none" points="1332.5,241.6094,1328.5,247.6094,1336.5,247.6094" style="stroke: #1963A0; stroke-width: 1.0;"/><text fill="#000000" font-family="sans-serif" font-size="11" lengthAdjust="spacingAndGlyphs" textLength="73" x="1341.5" y="248.8198">pageSize: int</text><polygon fill="none" points="1332.5,254.4141,1328.5,260.4141,1336.5,260.4141" style="stroke: #1963A0; stroke-width: 1.0;"/><text fill="#000000" font-family="sans-serif" font-size="11" lengthAdjust="spacingAndGlyphs" textLength="617" x="1341.5" y="261.6245">searchParametersForResoureTypes: Map&lt;Class&lt;? extends Resource&gt;, List&lt;Map&lt;String, List&lt;String&gt;&gt;&gt;&gt;</text><polygon fill="none" points="1332.5,267.2188,1328.5,273.2188,1336.5,273.2188" style="stroke: #1963A0; stroke-width: 1.0;"/><text fill="#000000" font-family="sans-serif" font-size="11" lengthAdjust="spacingAndGlyphs" textLength="163" x="1341.5" y="274.4292">indexOfCurrentTypeFilter: int</text><polygon fill="none" points="1332.5,280.0234,1328.5,286.0234,1336.5,286.0234" style="stroke: #1963A0; stroke-width: 1.0;"/><text fill="#000000" font-family="sans-serif" font-size="11" lengthAdjust="spacingAndGlyphs" textLength="187" x="1341.5" y="287.2339">loadedResourceIds: Set&lt;String&gt;</text><polygon fill="none" points="1332.5,292.8281,1328.5,298.8281,1336.5,298.8281" style="stroke: #1963A0; stroke-width: 1.0;"/><text fill="#000000" font-family="sans-serif" font-size="11" lengthAdjust="spacingAndGlyphs" textLength="174" x="1341.5" y="300.0386">isDoDuplicationCheck: boolean</text><polygon fill="none" points="1332.5,305.6328,1328.5,311.6328,1336.5,311.6328" style="stroke: #1963A0; stroke-width: 1.0;"/><text fill="#000000" font-family="sans-serif" font-size="11" lengthAdjust="spacingAndGlyphs" textLength="185" x="1341.5" y="312.8433">fhirPersistence: FHIRPersistence</text><polygon fill="none" points="1332.5,318.4375,1328.5,324.4375,1336.5,324.4375" style="stroke: #1963A0; stroke-width: 1.0;"/><text fill="#000000" font-family="sans-serif" font-size="11" lengthAdjust="spacingAndGlyphs" textLength="248" x="1341.5" y="325.6479">resourceType: Class&lt;? extends Resource&gt;</text><polygon fill="none" points="1332.5,331.2422,1328.5,337.2422,1336.5,337.2422" style="stroke: #1963A0; stroke-width: 1.0;"/><text fill="#000000" font-family="sans-serif" font-size="11" lengthAdjust="spacingAndGlyphs" textLength="100" x="1341.5" y="338.4526">fhirTenant: String</text><polygon fill="none" points="1332.5,344.0469,1328.5,350.0469,1336.5,350.0469" style="stroke: #1963A0; stroke-width: 1.0;"/><text fill="#000000" font-family="sans-serif" font-size="11" lengthAdjust="spacingAndGlyphs" textLength="127" x="1341.5" y="351.2573">fhirDatastoreId: String</text><polygon fill="none" points="1332.5,356.8516,1328.5,362.8516,1336.5,362.8516" style="stroke: #1963A0; stroke-width: 1.0;"/><text fill="#000000" font-family="sans-serif" font-size="11" lengthAdjust="spacingAndGlyphs" textLength="141" x="1341.5" y="364.062">fhirResourceType: String</text><polygon fill="none" points="1332.5,369.6563,1328.5,375.6563,1336.5,375.6563" style="stroke: #1963A0; stroke-width: 1.0;"/><text fill="#000000" font-family="sans-serif" font-size="11" lengthAdjust="spacingAndGlyphs" textLength="156" x="1341.5" y="376.8667">fhirSearchFromDate: String</text><polygon fill="none" points="1332.5,382.4609,1328.5,388.4609,1336.5,388.4609" style="stroke: #1963A0; stroke-width: 1.0;"/><text fill="#000000" font-family="sans-serif" font-size="11" lengthAdjust="spacingAndGlyphs" textLength="141" x="1341.5" y="389.6714">fhirSearchToDate: String</text><polygon fill="none" points="1332.5,395.2656,1328.5,401.2656,1336.5,401.2656" style="stroke: #1963A0; stroke-width: 1.0;"/><text fill="#000000" font-family="sans-serif" font-size="11" lengthAdjust="spacingAndGlyphs" textLength="123" x="1341.5" y="402.4761">fhirTypeFilters: String</text><polygon fill="none" points="1332.5,408.0703,1328.5,414.0703,1336.5,414.0703" style="stroke: #1963A0; stroke-width: 1.0;"/><text fill="#000000" font-family="sans-serif" font-size="11" lengthAdjust="spacingAndGlyphs" textLength="152" x="1341.5" y="415.2808">fhirSearchPageSize: String</text><polygon fill="none" points="1332.5,420.875,1328.5,426.875,1336.5,426.875" style="stroke: #1963A0; stroke-width: 1.0;"/><text fill="#000000" font-family="sans-serif" font-size="11" lengthAdjust="spacingAndGlyphs" textLength="120" x="1341.5" y="428.0854">stepCtx: StepContext</text><line style="stroke: #A80036; stroke-width: 1.5;" x1="1322.5" x2="1963.5" y1="434.6797" y2="434.6797"/><ellipse cx="1332.5" cy="445.6797" fill="#84BE84" rx="3" ry="3" style="stroke: #038048; stroke-width: 1.0;"/><text fill="#000000" font-family="sans-serif" font-size="11" lengthAdjust="spacingAndGlyphs" textLength="103" x="1341.5" y="448.8901">readItem(): Object</text><ellipse cx="1332.5" cy="458.4844" fill="#84BE84" rx="3" ry="3" style="stroke: #038048; stroke-width: 1.0;"/><text fill="#000000" font-family="sans-serif" font-size="11" lengthAdjust="spacingAndGlyphs" textLength="132" x="1341.5" y="461.6948">open(Serializable): void</text><ellipse cx="1332.5" cy="471.2891" fill="#84BE84" rx="3" ry="3" style="stroke: #038048; stroke-width: 1.0;"/><text fill="#000000" font-family="sans-serif" font-size="11" lengthAdjust="spacingAndGlyphs" textLength="69" x="1341.5" y="474.4995">close(): void</text><ellipse cx="1332.5" cy="484.0938" fill="#84BE84" rx="3" ry="3" style="stroke: #038048; stroke-width: 1.0;"/><text fill="#000000" font-family="sans-serif" font-size="11" lengthAdjust="spacingAndGlyphs" textLength="162" x="1341.5" y="487.3042">checkpointInfo(): Serializable</text></a><!--MD5=[bb6bbdc930c996675e9cf6c01ad8872d]
class com.ibm.fhir.jbatch.bulkdata.export.system.ChunkWriter--><a href="ChunkWriter.html" target="_top" title="ChunkWriter.html" xlink:actuate="onRequest" xlink:href="ChunkWriter.html" xlink:show="new" xlink:title="ChunkWriter.html" xlink:type="simple"><rect fill="#FEFECE" filter="url(#f39i9ysmaoy17)" height="201.6563" id="com.ibm.fhir.jbatch.bulkdata.export.system.ChunkWriter" style="stroke: #A80036; stroke-width: 1.5;" width="199" x="1087.5" y="234.5"/><ellipse cx="1144.75" cy="250.5" fill="#ADD1B2" rx="11" ry="11" style="stroke: #A80036; stroke-width: 1.0;"/><path d="M1147.7188,256.1406 Q1147.1406,256.4375 1146.5,256.5781 Q1145.8594,256.7344 1145.1563,256.7344 Q1142.6563,256.7344 1141.3281,255.0938 Q1140.0156,253.4375 1140.0156,250.3125 Q1140.0156,247.1875 1141.3281,245.5313 Q1142.6563,243.875 1145.1563,243.875 Q1145.8594,243.875 1146.5,244.0313 Q1147.1563,244.1875 1147.7188,244.4844 L1147.7188,247.2031 Q1147.0938,246.625 1146.5,246.3594 Q1145.9063,246.0781 1145.2813,246.0781 Q1143.9375,246.0781 1143.25,247.1563 Q1142.5625,248.2188 1142.5625,250.3125 Q1142.5625,252.4063 1143.25,253.4844 Q1143.9375,254.5469 1145.2813,254.5469 Q1145.9063,254.5469 1146.5,254.2813 Q1147.0938,254 1147.7188,253.4219 L1147.7188,256.1406 Z "/><text fill="#000000" font-family="sans-serif" font-size="12" lengthAdjust="spacingAndGlyphs" textLength="76" x="1165.25" y="254.6543">ChunkWriter</text><line style="stroke: #A80036; stroke-width: 1.5;" x1="1088.5" x2="1285.5" y1="266.5" y2="266.5"/><polygon fill="none" points="1098.5,273.5,1094.5,279.5,1102.5,279.5" style="stroke: #1963A0; stroke-width: 1.0;"/><text fill="#000000" font-family="sans-serif" font-size="11" lengthAdjust="spacingAndGlyphs" textLength="147" x="1107.5" y="280.7104">cosApiKeyProperty: String</text><polygon fill="none" points="1098.5,286.3047,1094.5,292.3047,1102.5,292.3047" style="stroke: #1963A0; stroke-width: 1.0;"/><text fill="#000000" font-family="sans-serif" font-size="11" lengthAdjust="spacingAndGlyphs" textLength="112" x="1107.5" y="293.5151">cosSrvinstId: String</text><polygon fill="none" points="1098.5,299.1094,1094.5,305.1094,1102.5,305.1094" style="stroke: #1963A0; stroke-width: 1.0;"/><text fill="#000000" font-family="sans-serif" font-size="11" lengthAdjust="spacingAndGlyphs" textLength="127" x="1107.5" y="306.3198">cosEndpointUrl: String</text><polygon fill="none" points="1098.5,311.9141,1094.5,317.9141,1102.5,317.9141" style="stroke: #1963A0; stroke-width: 1.0;"/><text fill="#000000" font-family="sans-serif" font-size="11" lengthAdjust="spacingAndGlyphs" textLength="109" x="1107.5" y="319.1245">cosLocation: String</text><polygon fill="none" points="1098.5,324.7188,1094.5,330.7188,1102.5,330.7188" style="stroke: #1963A0; stroke-width: 1.0;"/><text fill="#000000" font-family="sans-serif" font-size="11" lengthAdjust="spacingAndGlyphs" textLength="133" x="1107.5" y="331.9292">cosBucketName: String</text><polygon fill="none" points="1098.5,337.5234,1094.5,343.5234,1102.5,343.5234" style="stroke: #1963A0; stroke-width: 1.0;"/><text fill="#000000" font-family="sans-serif" font-size="11" lengthAdjust="spacingAndGlyphs" textLength="157" x="1107.5" y="344.7339">cosBucketPathPrefix: String</text><polygon fill="none" points="1098.5,350.3281,1094.5,356.3281,1102.5,356.3281" style="stroke: #1963A0; stroke-width: 1.0;"/><text fill="#000000" font-family="sans-serif" font-size="11" lengthAdjust="spacingAndGlyphs" textLength="141" x="1107.5" y="357.5386">cosCredentialIbm: String</text><polygon fill="none" points="1098.5,363.1328,1094.5,369.1328,1102.5,369.1328" style="stroke: #1963A0; stroke-width: 1.0;"/><text fill="#000000" font-family="sans-serif" font-size="11" lengthAdjust="spacingAndGlyphs" textLength="141" x="1107.5" y="370.3433">fhirResourceType: String</text><polygon fill="none" points="1098.5,375.9375,1094.5,381.9375,1102.5,381.9375" style="stroke: #1963A0; stroke-width: 1.0;"/><text fill="#000000" font-family="sans-serif" font-size="11" lengthAdjust="spacingAndGlyphs" textLength="120" x="1107.5" y="383.1479">stepCtx: StepContext</text><polygon fill="none" points="1098.5,388.7422,1094.5,394.7422,1102.5,394.7422" style="stroke: #1963A0; stroke-width: 1.0;"/><text fill="#000000" font-family="sans-serif" font-size="11" lengthAdjust="spacingAndGlyphs" textLength="128" x="1107.5" y="395.9526">jobContext: JobContext</text><line style="stroke: #A80036; stroke-width: 1.5;" x1="1088.5" x2="1285.5" y1="402.5469" y2="402.5469"/><ellipse cx="1098.5" cy="413.5469" fill="#84BE84" rx="3" ry="3" style="stroke: #038048; stroke-width: 1.0;"/><text fill="#000000" font-family="sans-serif" font-size="11" lengthAdjust="spacingAndGlyphs" textLength="173" x="1107.5" y="416.7573">writeItems(List&lt;Object&gt;): void</text><ellipse cx="1098.5" cy="426.3516" fill="#84BE84" rx="3" ry="3" style="stroke: #038048; stroke-width: 1.0;"/><text fill="#000000" font-family="sans-serif" font-size="11" lengthAdjust="spacingAndGlyphs" textLength="132" x="1107.5" y="429.562">open(Serializable): void</text></a><!--MD5=[349d5de3748636f0f75f09a8b175f4bb]
class javax.batch.api.partition.PartitionMapper--><rect fill="#FEFECE" filter="url(#f39i9ysmaoy17)" height="60.8047" id="javax.batch.api.partition.PartitionMapper" style="stroke: #A80036; stroke-width: 1.5;" width="192" x="564" y="49.5"/><ellipse cx="606" cy="65.5" fill="#B4A7E5" rx="11" ry="11" style="stroke: #A80036; stroke-width: 1.0;"/><path d="M601.9219,61.2656 L601.9219,59.1094 L609.3125,59.1094 L609.3125,61.2656 L606.8438,61.2656 L606.8438,69.3438 L609.3125,69.3438 L609.3125,71.5 L601.9219,71.5 L601.9219,69.3438 L604.3906,69.3438 L604.3906,61.2656 L601.9219,61.2656 Z "/><text fill="#000000" font-family="sans-serif" font-size="12" font-style="italic" lengthAdjust="spacingAndGlyphs" textLength="100" x="626" y="69.6543">PartitionMapper</text><line style="stroke: #A80036; stroke-width: 1.5;" x1="565" x2="755" y1="81.5" y2="81.5"/><line style="stroke: #A80036; stroke-width: 1.5;" x1="565" x2="755" y1="89.5" y2="89.5"/><ellipse cx="575" cy="100.5" fill="#84BE84" rx="3" ry="3" style="stroke: #038048; stroke-width: 1.0;"/><text fill="#000000" font-family="sans-serif" font-size="11" font-style="italic" lengthAdjust="spacingAndGlyphs" textLength="166" x="584" y="103.7104">mapPartitions(): PartitionPlan</text><!--MD5=[fd79d334c205ad16ac123f08e5530250]
class javax.batch.api.partition.PartitionAnalyzer--><rect fill="#FEFECE" filter="url(#f39i9ysmaoy17)" height="73.6094" id="javax.batch.api.partition.PartitionAnalyzer" style="stroke: #A80036; stroke-width: 1.5;" width="255" x="273.5" y="43"/><ellipse cx="344.75" cy="59" fill="#B4A7E5" rx="11" ry="11" style="stroke: #A80036; stroke-width: 1.0;"/><path d="M340.6719,54.7656 L340.6719,52.6094 L348.0625,52.6094 L348.0625,54.7656 L345.5938,54.7656 L345.5938,62.8438 L348.0625,62.8438 L348.0625,65 L340.6719,65 L340.6719,62.8438 L343.1406,62.8438 L343.1406,54.7656 L340.6719,54.7656 Z "/><text fill="#000000" font-family="sans-serif" font-size="12" font-style="italic" lengthAdjust="spacingAndGlyphs" textLength="104" x="365.25" y="63.1543">PartitionAnalyzer</text><line style="stroke: #A80036; stroke-width: 1.5;" x1="274.5" x2="527.5" y1="75" y2="75"/><line style="stroke: #A80036; stroke-width: 1.5;" x1="274.5" x2="527.5" y1="83" y2="83"/><ellipse cx="284.5" cy="94" fill="#84BE84" rx="3" ry="3" style="stroke: #038048; stroke-width: 1.0;"/><text fill="#000000" font-family="sans-serif" font-size="11" font-style="italic" lengthAdjust="spacingAndGlyphs" textLength="222" x="293.5" y="97.2104">analyzeCollectorData(Serializable): void</text><ellipse cx="284.5" cy="106.8047" fill="#84BE84" rx="3" ry="3" style="stroke: #038048; stroke-width: 1.0;"/><text fill="#000000" font-family="sans-serif" font-size="11" font-style="italic" lengthAdjust="spacingAndGlyphs" textLength="229" x="293.5" y="110.0151">analyzeStatus(BatchStatus, String): void</text><!--MD5=[ec278b7c5a58ff604a92c6ce1079f2ad]
class javax.batch.api.partition.PartitionCollector--><rect fill="#FEFECE" filter="url(#f39i9ysmaoy17)" height="60.8047" id="javax.batch.api.partition.PartitionCollector" style="stroke: #A80036; stroke-width: 1.5;" width="216" x="22" y="49.5"/><ellipse cx="71.75" cy="65.5" fill="#B4A7E5" rx="11" ry="11" style="stroke: #A80036; stroke-width: 1.0;"/><path d="M67.6719,61.2656 L67.6719,59.1094 L75.0625,59.1094 L75.0625,61.2656 L72.5938,61.2656 L72.5938,69.3438 L75.0625,69.3438 L75.0625,71.5 L67.6719,71.5 L67.6719,69.3438 L70.1406,69.3438 L70.1406,61.2656 L67.6719,61.2656 Z "/><text fill="#000000" font-family="sans-serif" font-size="12" font-style="italic" lengthAdjust="spacingAndGlyphs" textLength="108" x="92.25" y="69.6543">PartitionCollector</text><line style="stroke: #A80036; stroke-width: 1.5;" x1="23" x2="237" y1="81.5" y2="81.5"/><line style="stroke: #A80036; stroke-width: 1.5;" x1="23" x2="237" y1="89.5" y2="89.5"/><ellipse cx="33" cy="100.5" fill="#84BE84" rx="3" ry="3" style="stroke: #038048; stroke-width: 1.0;"/><text fill="#000000" font-family="sans-serif" font-size="11" font-style="italic" lengthAdjust="spacingAndGlyphs" textLength="190" x="42" y="103.7104">collectPartitionData(): Serializable</text><!--MD5=[6989c0df3b46339ee373cba47512fa12]
class javax.batch.api.listener.JobListener--><rect fill="#FEFECE" filter="url(#f39i9ysmaoy17)" height="73.6094" id="javax.batch.api.listener.JobListener" style="stroke: #A80036; stroke-width: 1.5;" width="119" x="874.5" y="43"/><ellipse cx="897.6" cy="59" fill="#B4A7E5" rx="11" ry="11" style="stroke: #A80036; stroke-width: 1.0;"/><path d="M893.5219,54.7656 L893.5219,52.6094 L900.9125,52.6094 L900.9125,54.7656 L898.4438,54.7656 L898.4438,62.8438 L900.9125,62.8438 L900.9125,65 L893.5219,65 L893.5219,62.8438 L895.9906,62.8438 L895.9906,54.7656 L893.5219,54.7656 Z "/><text fill="#000000" font-family="sans-serif" font-size="12" font-style="italic" lengthAdjust="spacingAndGlyphs" textLength="69" x="913.4" y="63.1543">JobListener</text><line style="stroke: #A80036; stroke-width: 1.5;" x1="875.5" x2="992.5" y1="75" y2="75"/><line style="stroke: #A80036; stroke-width: 1.5;" x1="875.5" x2="992.5" y1="83" y2="83"/><ellipse cx="885.5" cy="94" fill="#84BE84" rx="3" ry="3" style="stroke: #038048; stroke-width: 1.0;"/><text fill="#000000" font-family="sans-serif" font-size="11" font-style="italic" lengthAdjust="spacingAndGlyphs" textLength="93" x="894.5" y="97.2104">beforeJob(): void</text><ellipse cx="885.5" cy="106.8047" fill="#84BE84" rx="3" ry="3" style="stroke: #038048; stroke-width: 1.0;"/><text fill="#000000" font-family="sans-serif" font-size="11" font-style="italic" lengthAdjust="spacingAndGlyphs" textLength="83" x="894.5" y="110.0151">afterJob(): void</text><!--MD5=[f5f528b51f1c46550a0d517e968fc43d]
class javax.batch.api.chunk.AbstractItemReader--><rect fill="#FEFECE" filter="url(#f39i9ysmaoy17)" height="60.8047" id="javax.batch.api.chunk.AbstractItemReader" style="stroke: #A80036; stroke-width: 1.5;" width="157" x="1442.5" y="49.5"/><ellipse cx="1457.5" cy="65.5" fill="#A9DCDF" rx="11" ry="11" style="stroke: #A80036; stroke-width: 1.0;"/><path d="M1457.6094,60.8438 L1456.4531,65.9219 L1458.7813,65.9219 L1457.6094,60.8438 Z M1456.125,58.6094 L1459.1094,58.6094 L1462.4688,71 L1460.0156,71 L1459.25,67.9375 L1455.9688,67.9375 L1455.2188,71 L1452.7813,71 L1456.125,58.6094 Z "/><text fill="#000000" font-family="sans-serif" font-size="12" font-style="italic" lengthAdjust="spacingAndGlyphs" textLength="125" x="1471.5" y="69.6543">AbstractItemReader</text><line style="stroke: #A80036; stroke-width: 1.5;" x1="1443.5" x2="1598.5" y1="81.5" y2="81.5"/><line style="stroke: #A80036; stroke-width: 1.5;" x1="1443.5" x2="1598.5" y1="89.5" y2="89.5"/><ellipse cx="1453.5" cy="100.5" fill="#84BE84" rx="3" ry="3" style="stroke: #038048; stroke-width: 1.0;"/><text fill="#000000" font-family="sans-serif" font-size="11" font-style="italic" lengthAdjust="spacingAndGlyphs" textLength="103" x="1462.5" y="103.7104">readItem(): Object</text><!--MD5=[facca438f42939cbf10d84b0b1038a9b]
class javax.batch.api.chunk.AbstractItemWriter--><rect fill="#FEFECE" filter="url(#f39i9ysmaoy17)" height="60.8047" id="javax.batch.api.chunk.AbstractItemWriter" style="stroke: #A80036; stroke-width: 1.5;" width="199" x="1208.5" y="49.5"/><ellipse cx="1246" cy="65.5" fill="#A9DCDF" rx="11" ry="11" style="stroke: #A80036; stroke-width: 1.0;"/><path d="M1246.1094,60.8438 L1244.9531,65.9219 L1247.2813,65.9219 L1246.1094,60.8438 Z M1244.625,58.6094 L1247.6094,58.6094 L1250.9688,71 L1248.5156,71 L1247.75,67.9375 L1244.4688,67.9375 L1243.7188,71 L1241.2813,71 L1244.625,58.6094 Z "/><text fill="#000000" font-family="sans-serif" font-size="12" font-style="italic" lengthAdjust="spacingAndGlyphs" textLength="117" x="1265" y="69.6543">AbstractItemWriter</text><line style="stroke: #A80036; stroke-width: 1.5;" x1="1209.5" x2="1406.5" y1="81.5" y2="81.5"/><line style="stroke: #A80036; stroke-width: 1.5;" x1="1209.5" x2="1406.5" y1="89.5" y2="89.5"/><ellipse cx="1219.5" cy="100.5" fill="#84BE84" rx="3" ry="3" style="stroke: #038048; stroke-width: 1.0;"/><text fill="#000000" font-family="sans-serif" font-size="11" font-style="italic" lengthAdjust="spacingAndGlyphs" textLength="173" x="1228.5" y="103.7104">writeItems(List&lt;Object&gt;): void</text><!--MD5=[bd02be26d316bc605e1aad7a32d58631]
reverse link javax.batch.api.partition.PartitionMapper to com.ibm.fhir.jbatch.bulkdata.export.system.SystemExportPartitionMapper--><path d="M662.3819,130.714 C664.7026,180.127 668.176,254.0813 670.2521,298.2846 " fill="none" id="javax.batch.api.partition.PartitionMapper&lt;-com.ibm.fhir.jbatch.bulkdata.export.system.SystemExportPartitionMapper" style="stroke: #A80036; stroke-width: 1.0; stroke-dasharray: 7.0,7.0;"/><polygon fill="none" points="655.3817,130.8719,661.4356,110.5655,669.3662,130.215,655.3817,130.8719" style="stroke: #A80036; stroke-width: 1.0;"/><!--MD5=[11728c6e381557db6ca717e7b0147e1b]
reverse link javax.batch.api.partition.PartitionAnalyzer to com.ibm.fhir.jbatch.bulkdata.export.system.ExportPartitionAnalyzer--><path d="M401,137.2784 C401,184.2379 401,249.6871 401,292.3205 " fill="none" id="javax.batch.api.partition.PartitionAnalyzer&lt;-com.ibm.fhir.jbatch.bulkdata.export.system.ExportPartitionAnalyzer" style="stroke: #A80036; stroke-width: 1.0; stroke-dasharray: 7.0,7.0;"/><polygon fill="none" points="394.0001,137.1519,401,117.1519,408.0001,137.1519,394.0001,137.1519" style="stroke: #A80036; stroke-width: 1.0;"/><!--MD5=[632251b799b846a504ee0951703244b6]
reverse link javax.batch.api.listener.JobListener to com.ibm.fhir.jbatch.bulkdata.export.system.ExportJobListener--><path d="M934,137.2256 C934,179.6775 934,237.2615 934,279.4344 " fill="none" id="javax.batch.api.listener.JobListener&lt;-com.ibm.fhir.jbatch.bulkdata.export.system.ExportJobListener" style="stroke: #A80036; stroke-width: 1.0; stroke-dasharray: 7.0,7.0;"/><polygon fill="none" points="927.0001,137.1519,934,117.1519,941.0001,137.1519,927.0001,137.1519" style="stroke: #A80036; stroke-width: 1.0;"/><!--MD5=[855e4824ca4910f6bd514021fe2175cc]
reverse link javax.batch.api.partition.PartitionCollector to com.ibm.fhir.jbatch.bulkdata.export.system.ExportPartitionCollector--><path d="M130,130.714 C130,180.127 130,254.0813 130,298.2846 " fill="none" id="javax.batch.api.partition.PartitionCollector&lt;-com.ibm.fhir.jbatch.bulkdata.export.system.ExportPartitionCollector" style="stroke: #A80036; stroke-width: 1.0; stroke-dasharray: 7.0,7.0;"/><polygon fill="none" points="123.0001,130.5655,130,110.5655,137.0001,130.5655,123.0001,130.5655" style="stroke: #A80036; stroke-width: 1.0;"/><!--MD5=[452b27d127bf10a4704db7daba30c9ad]
reverse link javax.batch.api.chunk.AbstractItemReader to com.ibm.fhir.jbatch.bulkdata.export.system.ChunkReader--><path d="M1544.2258,128.6409 C1551.0774,142.9899 1558.9775,159.5348 1567.2635,176.8878 " fill="none" id="javax.batch.api.chunk.AbstractItemReader&lt;-com.ibm.fhir.jbatch.bulkdata.export.system.ChunkReader" style="stroke: #A80036; stroke-width: 1.0;"/><polygon fill="none" points="1537.896,131.6298,1535.5949,110.5655,1550.5296,125.5973,1537.896,131.6298" style="stroke: #A80036; stroke-width: 1.0;"/><!--MD5=[0b7a5d0cc4c8a9b90ec03e2ebbe65386]
reverse link javax.batch.api.chunk.AbstractItemWriter to com.ibm.fhir.jbatch.bulkdata.export.system.ChunkWriter--><path d="M1284.9419,128.6889 C1270.8013,158.5477 1252.1639,197.9019 1234.9456,234.2595 " fill="none" id="javax.batch.api.chunk.AbstractItemWriter&lt;-com.ibm.fhir.jbatch.bulkdata.export.system.ChunkWriter" style="stroke: #A80036; stroke-width: 1.0;"/><polygon fill="none" points="1278.6381,125.6449,1293.5248,110.5655,1291.2909,131.6371,1278.6381,125.6449" style="stroke: #A80036; stroke-width: 1.0;"/><text fill="#888888" font-family="sans-serif" font-size="10" lengthAdjust="spacingAndGlyphs" textLength="186" x="906.5" y="529.2822">UMLDoclet 2.0.7, PlantUML 1.2019.12</text><!--MD5=[36923a7b29c287b3617a8ed6fcfdddcc]
@startuml
    namespace com.ibm.fhir.jbatch.bulkdata.export.system {

        class SystemExportPartitionMapper [[SystemExportPartitionMapper.html]] {
            ~fhirResourceType: String
            +mapPartitions(): PartitionPlan
        }

        class ExportPartitionAnalyzer [[ExportPartitionAnalyzer.html]] {
            ~jobContext: JobContext
            +analyzeStatus(BatchStatus, String): void
            +analyzeCollectorData(Serializable): void
        }

        class ExportJobListener [[ExportJobListener.html]] {
            ~currentExecutionStartTimeInMS: long
            ~jobContext: JobContext
            ~dataSourcesInfo: String
            +afterJob(): void
            +beforeJob(): void
        }

        class ExportPartitionCollector [[ExportPartitionCollector.html]] {
            ~stepCtx: StepContext
            +collectPartitionData(): Serializable
        }

        class ChunkReader [[ChunkReader.html]] {
            ~isSingleCosObject: boolean
            ~pageNum: int
            ~pageSize: int
            ~searchParametersForResoureTypes: Map<Class<? extends Resource>, List<Map<String, List<String>>>>
            ~indexOfCurrentTypeFilter: int
            ~loadedResourceIds: Set<String>
            ~isDoDuplicationCheck: boolean
            ~fhirPersistence: FHIRPersistence
            ~resourceType: Class<? extends Resource>
            ~fhirTenant: String
            ~fhirDatastoreId: String
            ~fhirResourceType: String
            ~fhirSearchFromDate: String
            ~fhirSearchToDate: String
            ~fhirTypeFilters: String
            ~fhirSearchPageSize: String
            ~stepCtx: StepContext
            +readItem(): Object
            +open(Serializable): void
            +close(): void
            +checkpointInfo(): Serializable
        }

        class ChunkWriter [[ChunkWriter.html]] {
            ~cosApiKeyProperty: String
            ~cosSrvinstId: String
            ~cosEndpointUrl: String
            ~cosLocation: String
            ~cosBucketName: String
            ~cosBucketPathPrefix: String
            ~cosCredentialIbm: String
            ~fhirResourceType: String
            ~stepCtx: StepContext
            ~jobContext: JobContext
            +writeItems(List<Object>): void
            +open(Serializable): void
        }

        javax.batch.api.partition.PartitionMapper <|.. SystemExportPartitionMapper
        javax.batch.api.partition.PartitionAnalyzer <|.. ExportPartitionAnalyzer
        javax.batch.api.listener.JobListener <|.. ExportJobListener
        javax.batch.api.partition.PartitionCollector <|.. ExportPartitionCollector
        javax.batch.api.chunk.AbstractItemReader <|- - ChunkReader
        javax.batch.api.chunk.AbstractItemWriter <|- - ChunkWriter
    }

    namespace javax.batch.api.partition {
        interface PartitionMapper {
            {abstract} +mapPartitions(): PartitionPlan
        }
        interface PartitionAnalyzer {
            {abstract} +analyzeCollectorData(Serializable): void
            {abstract} +analyzeStatus(BatchStatus, String): void
        }
        interface PartitionCollector {
            {abstract} +collectPartitionData(): Serializable
        }
    }

    namespace javax.batch.api.listener {
        interface JobListener {
            {abstract} +beforeJob(): void
            {abstract} +afterJob(): void
        }
    }

    namespace javax.batch.api.chunk {
        abstract class AbstractItemReader {
            {abstract} +readItem(): Object
        }
        abstract class AbstractItemWriter {
            {abstract} +writeItems(List<Object>): void
        }
    }

    center footer UMLDoclet 2.0.7, PlantUML 1.2019.12
@enduml

PlantUML version 1.2019.12(Sun Nov 03 10:24:54 UTC 2019)
(APACHE source distribution)
Java Runtime: OpenJDK Runtime Environment
JVM: OpenJDK 64-Bit Server VM
Java Version: 11.0.8+10
Operating System: Linux
Default Encoding: UTF-8
Language: en
Country: null
--></g></svg>