<?xml version="1.0" encoding="UTF-8" standalone="no"?><svg xmlns="http://www.w3.org/2000/svg" xmlns:xlink="http://www.w3.org/1999/xlink" contentScriptType="application/ecmascript" contentStyleType="text/css" height="469px" preserveAspectRatio="none" style="width:441px;height:469px;" version="1.1" viewBox="0 0 441 469" width="441px" zoomAndPan="magnify"><defs><filter height="300%" id="f1bjfprladn2ji" width="300%" x="-1" y="-1"><feGaussianBlur result="blurOut" stdDeviation="2.0"/><feColorMatrix in="blurOut" result="blurOut2" type="matrix" values="0 0 0 0 0 0 0 0 0 0 0 0 0 0 0 0 0 0 .4 0"/><feOffset dx="4.0" dy="4.0" in="blurOut2" result="blurOut3"/><feBlend in="SourceGraphic" in2="blurOut3" mode="normal"/></filter></defs><g><!--MD5=[9bd898e0db36877e11fa9a2ed9e60c3c]
class com.ibm.fhir.database.utils.version.VersionHistoryService--><a href="VersionHistoryService.html" target="_top" title="VersionHistoryService.html" xlink:actuate="onRequest" xlink:href="VersionHistoryService.html" xlink:show="new" xlink:title="VersionHistoryService.html" xlink:type="simple"><rect fill="#FEFECE" filter="url(#f1bjfprladn2ji)" height="186.7891" id="com.ibm.fhir.database.utils.version.VersionHistoryService" style="stroke: #A80036; stroke-width: 1.5;" width="424" x="6" y="152"/><ellipse cx="129.25" cy="170.9688" fill="#ADD1B2" rx="11" ry="11" style="stroke: #A80036; stroke-width: 1.0;"/><path d="M132.2188,176.6094 Q131.6406,176.9063 131,177.0469 Q130.3594,177.2031 129.6563,177.2031 Q127.1563,177.2031 125.8281,175.5625 Q124.5156,173.9063 124.5156,170.7813 Q124.5156,167.6563 125.8281,166 Q127.1563,164.3438 129.6563,164.3438 Q130.3594,164.3438 131,164.5 Q131.6563,164.6563 132.2188,164.9531 L132.2188,167.6719 Q131.5938,167.0938 131,166.8281 Q130.4063,166.5469 129.7813,166.5469 Q128.4375,166.5469 127.75,167.625 Q127.0625,168.6875 127.0625,170.7813 Q127.0625,172.875 127.75,173.9531 Q128.4375,175.0156 129.7813,175.0156 Q130.4063,175.0156 131,174.75 Q131.5938,174.4688 132.2188,173.8906 L132.2188,176.6094 Z "/><text fill="#000000" font-family="sans-serif" font-size="14" lengthAdjust="spacingAndGlyphs" textLength="149" x="159.75" y="169.9951">VersionHistoryService</text><text fill="#000000" font-family="sans-serif" font-size="10" lengthAdjust="spacingAndGlyphs" textLength="169" x="149.75" y="182.5791">com.ibm.fhir.database.utils.version</text><line style="stroke: #A80036; stroke-width: 1.5;" x1="7" x2="429" y1="189.9375" y2="189.9375"/><ellipse cx="17" cy="200.9375" fill="#84BE84" rx="3" ry="3" style="stroke: #038048; stroke-width: 1.0;"/><text fill="#000000" font-family="sans-serif" font-size="11" lengthAdjust="spacingAndGlyphs" textLength="221" x="26" y="204.1479">VersionHistoryService(String, String...)</text><ellipse cx="17" cy="213.7422" fill="#84BE84" rx="3" ry="3" style="stroke: #038048; stroke-width: 1.0;"/><text fill="#000000" font-family="sans-serif" font-size="11" lengthAdjust="spacingAndGlyphs" textLength="288" x="26" y="216.9526">setTransactionProvider(ITransactionProvider): void</text><ellipse cx="17" cy="226.5469" fill="#84BE84" rx="3" ry="3" style="stroke: #038048; stroke-width: 1.0;"/><text fill="#000000" font-family="sans-serif" font-size="11" lengthAdjust="spacingAndGlyphs" textLength="195" x="26" y="229.7573">setTarget(IDatabaseAdapter): void</text><ellipse cx="17" cy="239.3516" fill="#84BE84" rx="3" ry="3" style="stroke: #038048; stroke-width: 1.0;"/><text fill="#000000" font-family="sans-serif" font-size="11" lengthAdjust="spacingAndGlyphs" textLength="56" x="26" y="242.562">init(): void</text><ellipse cx="17" cy="252.1563" fill="#84BE84" rx="3" ry="3" style="stroke: #038048; stroke-width: 1.0;"/><text fill="#000000" font-family="sans-serif" font-size="11" lengthAdjust="spacingAndGlyphs" textLength="365" x="26" y="255.3667">insertVersionHistoriesInTx(Collection&lt;TypeNameVersion&gt;): void</text><ellipse cx="17" cy="264.9609" fill="#84BE84" rx="3" ry="3" style="stroke: #038048; stroke-width: 1.0;"/><text fill="#000000" font-family="sans-serif" font-size="11" lengthAdjust="spacingAndGlyphs" textLength="318" x="26" y="268.1714">insertVersionHistoryInTx(String, String, String, int): void</text><ellipse cx="17" cy="277.7656" fill="#84BE84" rx="3" ry="3" style="stroke: #038048; stroke-width: 1.0;"/><text fill="#000000" font-family="sans-serif" font-size="11" lengthAdjust="spacingAndGlyphs" textLength="331" x="26" y="280.9761">insertVersionHistory(Collection&lt;TypeNameVersion&gt;): void</text><ellipse cx="17" cy="290.5703" fill="#84BE84" rx="3" ry="3" style="stroke: #038048; stroke-width: 1.0;"/><text fill="#000000" font-family="sans-serif" font-size="11" lengthAdjust="spacingAndGlyphs" text-decoration="underline" textLength="398" x="26" y="293.7808">createTypeNameVersion(String, String, String, int): TypeNameVersion</text><ellipse cx="17" cy="303.375" fill="#84BE84" rx="3" ry="3" style="stroke: #038048; stroke-width: 1.0;"/><text fill="#000000" font-family="sans-serif" font-size="11" lengthAdjust="spacingAndGlyphs" textLength="235" x="26" y="306.5854">getVersion(String, String, String): Integer</text><ellipse cx="17" cy="316.1797" fill="#84BE84" rx="3" ry="3" style="stroke: #038048; stroke-width: 1.0;"/><text fill="#000000" font-family="sans-serif" font-size="11" lengthAdjust="spacingAndGlyphs" textLength="243" x="26" y="319.3901">addVersion(String, String, String, int): void</text><ellipse cx="17" cy="328.9844" fill="#84BE84" rx="3" ry="3" style="stroke: #038048; stroke-width: 1.0;"/><text fill="#000000" font-family="sans-serif" font-size="11" lengthAdjust="spacingAndGlyphs" textLength="242" x="26" y="332.1948">applies(String, String, String, int): boolean</text></a><!--MD5=[4216d4aef7ab0ea897aff55d4a85063c]
class com.ibm.fhir.database.utils.api.IVersionHistoryService--><a href="../api/IVersionHistoryService.html" target="_top" title="../api/IVersionHistoryService.html" xlink:actuate="onRequest" xlink:href="../api/IVersionHistoryService.html" xlink:show="new" xlink:title="../api/IVersionHistoryService.html" xlink:type="simple"><rect fill="#FEFECE" filter="url(#f1bjfprladn2ji)" height="84.3516" id="com.ibm.fhir.database.utils.api.IVersionHistoryService" style="stroke: #A80036; stroke-width: 1.5;" width="269" x="83.5" y="8"/><ellipse cx="137.75" cy="26.9688" fill="#B4A7E5" rx="11" ry="11" style="stroke: #A80036; stroke-width: 1.0;"/><path d="M133.6719,22.7344 L133.6719,20.5781 L141.0625,20.5781 L141.0625,22.7344 L138.5938,22.7344 L138.5938,30.8125 L141.0625,30.8125 L141.0625,32.9688 L133.6719,32.9688 L133.6719,30.8125 L136.1406,30.8125 L136.1406,22.7344 L133.6719,22.7344 Z "/><text fill="#000000" font-family="sans-serif" font-size="14" font-style="italic" lengthAdjust="spacingAndGlyphs" textLength="152" x="158.25" y="25.9951">IVersionHistoryService</text><text fill="#000000" font-family="sans-serif" font-size="10" font-style="italic" lengthAdjust="spacingAndGlyphs" textLength="148" x="160.25" y="38.5791">com.ibm.fhir.database.utils.api</text><line style="stroke: #A80036; stroke-width: 1.5;" x1="84.5" x2="351.5" y1="45.9375" y2="45.9375"/><ellipse cx="94.5" cy="56.9375" fill="#84BE84" rx="3" ry="3" style="stroke: #038048; stroke-width: 1.0;"/><text fill="#000000" font-family="sans-serif" font-size="11" font-style="italic" lengthAdjust="spacingAndGlyphs" textLength="243" x="103.5" y="60.1479">addVersion(String, String, String, int): void</text><ellipse cx="94.5" cy="69.7422" fill="#84BE84" rx="3" ry="3" style="stroke: #038048; stroke-width: 1.0;"/><text fill="#000000" font-family="sans-serif" font-size="11" font-style="italic" lengthAdjust="spacingAndGlyphs" textLength="242" x="103.5" y="72.9526">applies(String, String, String, int): boolean</text><ellipse cx="94.5" cy="82.5469" fill="#84BE84" rx="3" ry="3" style="stroke: #038048; stroke-width: 1.0;"/><text fill="#000000" font-family="sans-serif" font-size="11" font-style="italic" lengthAdjust="spacingAndGlyphs" textLength="235" x="103.5" y="85.7573">getVersion(String, String, String): Integer</text></a><!--MD5=[f17292e42b5029c838c0fb213b25d575]
class com.ibm.fhir.database.utils.version.VersionHistoryService.TypeNameVersion--><a href="VersionHistoryService.TypeNameVersion.html" target="_top" title="VersionHistoryService.TypeNameVersion.html" xlink:actuate="onRequest" xlink:href="VersionHistoryService.TypeNameVersion.html" xlink:show="new" xlink:title="VersionHistoryService.TypeNameVersion.html" xlink:type="simple"><rect fill="#FEFECE" filter="url(#f1bjfprladn2ji)" height="37.9375" id="com.ibm.fhir.database.utils.version.VersionHistoryService.TypeNameVersion" style="stroke: #A80036; stroke-width: 1.5;" width="311" x="62.5" y="399"/><ellipse cx="77.5" cy="417.9688" fill="#ADD1B2" rx="11" ry="11" style="stroke: #A80036; stroke-width: 1.0;"/><path d="M80.4688,423.6094 Q79.8906,423.9063 79.25,424.0469 Q78.6094,424.2031 77.9063,424.2031 Q75.4063,424.2031 74.0781,422.5625 Q72.7656,420.9063 72.7656,417.7813 Q72.7656,414.6563 74.0781,413 Q75.4063,411.3438 77.9063,411.3438 Q78.6094,411.3438 79.25,411.5 Q79.9063,411.6563 80.4688,411.9531 L80.4688,414.6719 Q79.8438,414.0938 79.25,413.8281 Q78.6563,413.5469 78.0313,413.5469 Q76.6875,413.5469 76,414.625 Q75.3125,415.6875 75.3125,417.7813 Q75.3125,419.875 76,420.9531 Q76.6875,422.0156 78.0313,422.0156 Q78.6563,422.0156 79.25,421.75 Q79.8438,421.4688 80.4688,420.8906 L80.4688,423.6094 Z "/><text fill="#000000" font-family="sans-serif" font-size="14" lengthAdjust="spacingAndGlyphs" textLength="279" x="91.5" y="416.9951">VersionHistoryService.TypeNameVersion</text><text fill="#000000" font-family="sans-serif" font-size="10" lengthAdjust="spacingAndGlyphs" textLength="169" x="146.5" y="429.5791">com.ibm.fhir.database.utils.version</text></a><!--MD5=[44fa4ba1b7a7cd0a5be7fe92c7dfc32a]
reverse link com.ibm.fhir.database.utils.api.IVersionHistoryService to com.ibm.fhir.database.utils.version.VersionHistoryService--><path d="M218,112.5025 C218,125.0407 218,138.4722 218,151.803 " fill="none" id="com.ibm.fhir.database.utils.api.IVersionHistoryService&lt;-com.ibm.fhir.database.utils.version.VersionHistoryService" style="stroke: #A80036; stroke-width: 1.0; stroke-dasharray: 7.0,7.0;"/><polygon fill="none" points="211.0001,112.4206,218,92.4206,225.0001,112.4206,211.0001,112.4206" style="stroke: #A80036; stroke-width: 1.0;"/><!--MD5=[5ce9799abee4c417e8aeb613f29b055c]
reverse link com.ibm.fhir.database.utils.version.VersionHistoryService to com.ibm.fhir.database.utils.version.VersionHistoryService.TypeNameVersion--><path d="M218,354.1333 C218,371.3784 218,387.341 218,398.9943 " fill="none" id="com.ibm.fhir.database.utils.version.VersionHistoryService&lt;-com.ibm.fhir.database.utils.version.VersionHistoryService.TypeNameVersion" style="stroke: #A80036; stroke-width: 1.0;"/><ellipse cx="218.0001" cy="347.07" fill="#FFFFFF" rx="8" ry="8" style="stroke: #A80036; stroke-width: 1.0;"/><line style="stroke: #A80036; stroke-width: 1.0;" x1="218.0002" x2="218" y1="355.07" y2="339.07"/><line style="stroke: #A80036; stroke-width: 1.0;" x1="210.0001" x2="226.0001" y1="347.0701" y2="347.0699"/><text fill="#888888" font-family="sans-serif" font-size="10" lengthAdjust="spacingAndGlyphs" textLength="186" x="131" y="456.2822">UMLDoclet 2.0.7, PlantUML 1.2019.12</text><!--MD5=[cad046b2b4b85a6ceefc847d4222d5e7]
@startuml
    set namespaceSeparator none
    hide empty fields
    hide empty methods

    class "<size:14>VersionHistoryService\n<size:10>com.ibm.fhir.database.utils.version" as com.ibm.fhir.database.utils.version.VersionHistoryService [[VersionHistoryService.html]] {
        +VersionHistoryService(String, String...)
        +setTransactionProvider(ITransactionProvider): void
        +setTarget(IDatabaseAdapter): void
        +init(): void
        +insertVersionHistoriesInTx(Collection<TypeNameVersion>): void
        +insertVersionHistoryInTx(String, String, String, int): void
        +insertVersionHistory(Collection<TypeNameVersion>): void
        {static} +createTypeNameVersion(String, String, String, int): TypeNameVersion
        +getVersion(String, String, String): Integer
        +addVersion(String, String, String, int): void
        +applies(String, String, String, int): boolean
    }

    interface "<size:14>IVersionHistoryService\n<size:10>com.ibm.fhir.database.utils.api" as com.ibm.fhir.database.utils.api.IVersionHistoryService [[../api/IVersionHistoryService.html]] {
        {abstract} +addVersion(String, String, String, int): void
        {abstract} +applies(String, String, String, int): boolean
        {abstract} +getVersion(String, String, String): Integer
    }
    class "<size:14>VersionHistoryService.TypeNameVersion\n<size:10>com.ibm.fhir.database.utils.version" as com.ibm.fhir.database.utils.version.VersionHistoryService.TypeNameVersion [[VersionHistoryService.TypeNameVersion.html]]

    com.ibm.fhir.database.utils.api.IVersionHistoryService <|.. com.ibm.fhir.database.utils.version.VersionHistoryService
    com.ibm.fhir.database.utils.version.VersionHistoryService +- - com.ibm.fhir.database.utils.version.VersionHistoryService.TypeNameVersion

    center footer UMLDoclet 2.0.7, PlantUML 1.2019.12
@enduml

PlantUML version 1.2019.12(Sun Nov 03 10:24:54 UTC 2019)
(APACHE source distribution)
Java Runtime: OpenJDK Runtime Environment
JVM: OpenJDK 64-Bit Server VM
Java Version: 11.0.9.1+1
Operating System: Linux
Default Encoding: UTF-8
Language: en
Country: null
--></g></svg>