<?xml version="1.0" encoding="UTF-8" standalone="no"?><svg xmlns="http://www.w3.org/2000/svg" xmlns:xlink="http://www.w3.org/1999/xlink" contentScriptType="application/ecmascript" contentStyleType="text/css" height="457px" preserveAspectRatio="none" style="width:369px;height:457px;" version="1.1" viewBox="0 0 369 457" width="369px" zoomAndPan="magnify"><defs><filter height="300%" id="fb56txxrrmvfd" width="300%" x="-1" y="-1"><feGaussianBlur result="blurOut" stdDeviation="2.0"/><feColorMatrix in="blurOut" result="blurOut2" type="matrix" values="0 0 0 0 0 0 0 0 0 0 0 0 0 0 0 0 0 0 .4 0"/><feOffset dx="4.0" dy="4.0" in="blurOut2" result="blurOut3"/><feBlend in="SourceGraphic" in2="blurOut3" mode="normal"/></filter></defs><g><!--class com.ibm.fhir.audit.cadf.model.CadfEvent.CadfEventBuilder--><a href="CadfEvent.CadfEventBuilder.html" target="_top" xlink:actuate="onRequest" xlink:show="new" xlink:title="CadfEvent.CadfEventBuilder.html" xlink:type="simple"><rect fill="#FEFECE" filter="url(#fb56txxrrmvfd)" height="318.3223" id="com.ibm.fhir.audit.cadf.model.CadfEvent.CadfEventBuilder" style="stroke: #A80036; stroke-width: 1.5;" width="352" x="6" y="106"/><ellipse cx="82.75" cy="125.1328" fill="#ADD1B2" rx="11" ry="11" style="stroke: #A80036; stroke-width: 1.0;"/><path d="M85.2231,131.2759 Q84.6421,131.5747 84.0029,131.7241 Q83.3638,131.8735 82.6582,131.8735 Q80.1514,131.8735 78.8315,130.2217 Q77.5117,128.5698 77.5117,125.4487 Q77.5117,122.3193 78.8315,120.6675 Q80.1514,119.0156 82.6582,119.0156 Q83.3638,119.0156 84.0112,119.165 Q84.6587,119.3145 85.2231,119.6133 L85.2231,122.3359 Q84.5923,121.7549 83.9988,121.4851 Q83.4053,121.2153 82.7744,121.2153 Q81.4297,121.2153 80.7449,122.282 Q80.0601,123.3486 80.0601,125.4487 Q80.0601,127.5405 80.7449,128.6072 Q81.4297,129.6738 82.7744,129.6738 Q83.4053,129.6738 83.9988,129.4041 Q84.5923,129.1343 85.2231,128.5532 Z "/><text fill="#000000" font-family="sans-serif" font-size="14" lengthAdjust="spacingAndGlyphs" textLength="190" x="103.25" y="124.5352">CadfEvent.CadfEventBuilder</text><text fill="#000000" font-family="sans-serif" font-size="10" lengthAdjust="spacingAndGlyphs" textLength="146" x="125.25" y="137.1563">com.ibm.fhir.audit.cadf.model</text><line style="stroke: #A80036; stroke-width: 1.5;" x1="7" x2="357" y1="144.2656" y2="144.2656"/><ellipse cx="17" cy="156.2432" fill="#84BE84" rx="3" ry="3" style="stroke: #038048; stroke-width: 1.0;"/><text fill="#000000" font-family="sans-serif" font-size="11" lengthAdjust="spacingAndGlyphs" textLength="326" x="26" y="158.9004">CadfEventBuilder(String, EventType, String, Action, Outcome)</text><ellipse cx="17" cy="169.1982" fill="#84BE84" rx="3" ry="3" style="stroke: #038048; stroke-width: 1.0;"/><text fill="#000000" font-family="sans-serif" font-size="11" lengthAdjust="spacingAndGlyphs" textLength="201" x="26" y="171.8555">withTypeUri(String): CadfEventBuilder</text><ellipse cx="17" cy="182.1533" fill="#84BE84" rx="3" ry="3" style="stroke: #038048; stroke-width: 1.0;"/><text fill="#000000" font-family="sans-serif" font-size="11" lengthAdjust="spacingAndGlyphs" textLength="312" x="26" y="184.8105">withReason(String, String, String, String): CadfEventBuilder</text><ellipse cx="17" cy="195.1084" fill="#84BE84" rx="3" ry="3" style="stroke: #038048; stroke-width: 1.0;"/><text fill="#000000" font-family="sans-serif" font-size="11" lengthAdjust="spacingAndGlyphs" textLength="230" x="26" y="197.7656">withReason(CadfReason): CadfEventBuilder</text><ellipse cx="17" cy="208.0635" fill="#84BE84" rx="3" ry="3" style="stroke: #038048; stroke-width: 1.0;"/><text fill="#000000" font-family="sans-serif" font-size="11" lengthAdjust="spacingAndGlyphs" textLength="189" x="26" y="210.7207">withName(String): CadfEventBuilder</text><ellipse cx="17" cy="221.0186" fill="#84BE84" rx="3" ry="3" style="stroke: #038048; stroke-width: 1.0;"/><text fill="#000000" font-family="sans-serif" font-size="11" lengthAdjust="spacingAndGlyphs" textLength="201" x="26" y="223.6758">withSeverity(String): CadfEventBuilder</text><ellipse cx="17" cy="233.9736" fill="#84BE84" rx="3" ry="3" style="stroke: #038048; stroke-width: 1.0;"/><text fill="#000000" font-family="sans-serif" font-size="11" lengthAdjust="spacingAndGlyphs" textLength="206" x="26" y="236.6309">withDuration(String): CadfEventBuilder</text><ellipse cx="17" cy="246.9287" fill="#84BE84" rx="3" ry="3" style="stroke: #038048; stroke-width: 1.0;"/><text fill="#000000" font-family="sans-serif" font-size="11" lengthAdjust="spacingAndGlyphs" textLength="193" x="26" y="249.5859">withTags(String[]): CadfEventBuilder</text><ellipse cx="17" cy="259.8838" fill="#84BE84" rx="3" ry="3" style="stroke: #038048; stroke-width: 1.0;"/><text fill="#000000" font-family="sans-serif" font-size="11" lengthAdjust="spacingAndGlyphs" textLength="179" x="26" y="262.541">withTag(String): CadfEventBuilder</text><ellipse cx="17" cy="272.8389" fill="#84BE84" rx="3" ry="3" style="stroke: #038048; stroke-width: 1.0;"/><text fill="#000000" font-family="sans-serif" font-size="11" lengthAdjust="spacingAndGlyphs" textLength="244" x="26" y="275.4961">withInitiator(CadfResource): CadfEventBuilder</text><ellipse cx="17" cy="285.7939" fill="#84BE84" rx="3" ry="3" style="stroke: #038048; stroke-width: 1.0;"/><text fill="#000000" font-family="sans-serif" font-size="11" lengthAdjust="spacingAndGlyphs" textLength="211" x="26" y="288.4512">withInitiatorId(String): CadfEventBuilder</text><ellipse cx="17" cy="298.749" fill="#84BE84" rx="3" ry="3" style="stroke: #038048; stroke-width: 1.0;"/><text fill="#000000" font-family="sans-serif" font-size="11" lengthAdjust="spacingAndGlyphs" textLength="237" x="26" y="301.4063">withTarget(CadfResource): CadfEventBuilder</text><ellipse cx="17" cy="311.7041" fill="#84BE84" rx="3" ry="3" style="stroke: #038048; stroke-width: 1.0;"/><text fill="#000000" font-family="sans-serif" font-size="11" lengthAdjust="spacingAndGlyphs" textLength="204" x="26" y="314.3613">withTargetId(String): CadfEventBuilder</text><ellipse cx="17" cy="324.6592" fill="#84BE84" rx="3" ry="3" style="stroke: #038048; stroke-width: 1.0;"/><text fill="#000000" font-family="sans-serif" font-size="11" lengthAdjust="spacingAndGlyphs" textLength="252" x="26" y="327.3164">withObserver(CadfResource): CadfEventBuilder</text><ellipse cx="17" cy="337.6143" fill="#84BE84" rx="3" ry="3" style="stroke: #038048; stroke-width: 1.0;"/><text fill="#000000" font-family="sans-serif" font-size="11" lengthAdjust="spacingAndGlyphs" textLength="219" x="26" y="340.2715">withObserverId(String): CadfEventBuilder</text><ellipse cx="17" cy="350.5693" fill="#84BE84" rx="3" ry="3" style="stroke: #038048; stroke-width: 1.0;"/><text fill="#000000" font-family="sans-serif" font-size="11" lengthAdjust="spacingAndGlyphs" textLength="285" x="26" y="353.2266">withMeasurements(Measurement[]): CadfEventBuilder</text><ellipse cx="17" cy="363.5244" fill="#84BE84" rx="3" ry="3" style="stroke: #038048; stroke-width: 1.0;"/><text fill="#000000" font-family="sans-serif" font-size="11" lengthAdjust="spacingAndGlyphs" textLength="271" x="26" y="366.1816">withMeasurement(Measurement): CadfEventBuilder</text><ellipse cx="17" cy="376.4795" fill="#84BE84" rx="3" ry="3" style="stroke: #038048; stroke-width: 1.0;"/><text fill="#000000" font-family="sans-serif" font-size="11" lengthAdjust="spacingAndGlyphs" textLength="290" x="26" y="379.1367">withAttachments(CadfAttachment[]): CadfEventBuilder</text><ellipse cx="17" cy="389.4346" fill="#84BE84" rx="3" ry="3" style="stroke: #038048; stroke-width: 1.0;"/><text fill="#000000" font-family="sans-serif" font-size="11" lengthAdjust="spacingAndGlyphs" textLength="276" x="26" y="392.0918">withAttachment(CadfAttachment): CadfEventBuilder</text><ellipse cx="17" cy="402.3896" fill="#84BE84" rx="3" ry="3" style="stroke: #038048; stroke-width: 1.0;"/><text fill="#000000" font-family="sans-serif" font-size="11" lengthAdjust="spacingAndGlyphs" textLength="308" x="26" y="405.0469">withReporterChain(CadfReporterStep[]): CadfEventBuilder</text><ellipse cx="17" cy="415.3447" fill="#84BE84" rx="3" ry="3" style="stroke: #038048; stroke-width: 1.0;"/><text fill="#000000" font-family="sans-serif" font-size="11" lengthAdjust="spacingAndGlyphs" textLength="95" x="26" y="418.002">build(): CadfEvent</text></a><!--class com.ibm.fhir.audit.cadf.model.CadfEvent--><a href="CadfEvent.html" target="_top" xlink:actuate="onRequest" xlink:show="new" xlink:title="CadfEvent.html" xlink:type="simple"><rect fill="#FEFECE" filter="url(#fb56txxrrmvfd)" height="38.2656" id="com.ibm.fhir.audit.cadf.model.CadfEvent" style="stroke: #A80036; stroke-width: 1.5;" width="178" x="93" y="8"/><ellipse cx="108" cy="27.1328" fill="#ADD1B2" rx="11" ry="11" style="stroke: #A80036; stroke-width: 1.0;"/><path d="M110.4731,33.2759 Q109.8921,33.5747 109.2529,33.7241 Q108.6138,33.8735 107.9082,33.8735 Q105.4014,33.8735 104.0815,32.2217 Q102.7617,30.5698 102.7617,27.4487 Q102.7617,24.3193 104.0815,22.6675 Q105.4014,21.0156 107.9082,21.0156 Q108.6138,21.0156 109.2612,21.165 Q109.9087,21.3145 110.4731,21.6133 L110.4731,24.3359 Q109.8423,23.7549 109.2488,23.4851 Q108.6553,23.2153 108.0244,23.2153 Q106.6797,23.2153 105.9949,24.282 Q105.3101,25.3486 105.3101,27.4487 Q105.3101,29.5405 105.9949,30.6072 Q106.6797,31.6738 108.0244,31.6738 Q108.6553,31.6738 109.2488,31.4041 Q109.8423,31.1343 110.4731,30.5532 Z "/><text fill="#000000" font-family="sans-serif" font-size="14" lengthAdjust="spacingAndGlyphs" textLength="69" x="160.5" y="26.5352">CadfEvent</text><text fill="#000000" font-family="sans-serif" font-size="10" lengthAdjust="spacingAndGlyphs" textLength="146" x="122" y="39.1563">com.ibm.fhir.audit.cadf.model</text></a><!--link com.ibm.fhir.audit.cadf.model.CadfEvent to com.ibm.fhir.audit.cadf.model.CadfEvent.CadfEventBuilder--><path d="M182,61.0874 C182,73.7839 182,89.1721 182,105.7406 " fill="none" id="com.ibm.fhir.audit.cadf.model.CadfEvent-com.ibm.fhir.audit.cadf.model.CadfEvent.CadfEventBuilder" style="stroke: #A80036; stroke-width: 1.0;"/><ellipse cx="182.0001" cy="54.0742" fill="#FFFFFF" rx="8" ry="8" style="stroke: #A80036; stroke-width: 1.0;"/><line style="stroke: #A80036; stroke-width: 1.0;" x1="182.0002" x2="182" y1="62.0742" y2="46.0742"/><line style="stroke: #A80036; stroke-width: 1.0;" x1="174.0001" x2="190.0001" y1="54.0743" y2="54.0741"/><text fill="#888888" font-family="sans-serif" font-size="10" lengthAdjust="spacingAndGlyphs" textLength="182" x="97" y="443.668">UMLDoclet 2.0.5, PlantUML 1.2019.08</text><!--
@startuml
    set namespaceSeparator none
    hide empty fields
    hide empty methods

    class "<size:14>CadfEvent.CadfEventBuilder\n<size:10>com.ibm.fhir.audit.cadf.model" as com.ibm.fhir.audit.cadf.model.CadfEvent.CadfEventBuilder [[CadfEvent.CadfEventBuilder.html]] {
        +CadfEventBuilder(String, EventType, String, Action, Outcome)
        +withTypeUri(String): CadfEventBuilder
        +withReason(String, String, String, String): CadfEventBuilder
        +withReason(CadfReason): CadfEventBuilder
        +withName(String): CadfEventBuilder
        +withSeverity(String): CadfEventBuilder
        +withDuration(String): CadfEventBuilder
        +withTags(String[]): CadfEventBuilder
        +withTag(String): CadfEventBuilder
        +withInitiator(CadfResource): CadfEventBuilder
        +withInitiatorId(String): CadfEventBuilder
        +withTarget(CadfResource): CadfEventBuilder
        +withTargetId(String): CadfEventBuilder
        +withObserver(CadfResource): CadfEventBuilder
        +withObserverId(String): CadfEventBuilder
        +withMeasurements(Measurement[]): CadfEventBuilder
        +withMeasurement(Measurement): CadfEventBuilder
        +withAttachments(CadfAttachment[]): CadfEventBuilder
        +withAttachment(CadfAttachment): CadfEventBuilder
        +withReporterChain(CadfReporterStep[]): CadfEventBuilder
        +build(): CadfEvent
    }

    class "<size:14>CadfEvent\n<size:10>com.ibm.fhir.audit.cadf.model" as com.ibm.fhir.audit.cadf.model.CadfEvent [[CadfEvent.html]]

    com.ibm.fhir.audit.cadf.model.CadfEvent +- - com.ibm.fhir.audit.cadf.model.CadfEvent.CadfEventBuilder

    center footer UMLDoclet 2.0.5, PlantUML 1.2019.08
@enduml

PlantUML version 1.2019.08(Sat Jul 13 15:25:14 EDT 2019)
(APACHE source distribution)
Java Runtime: OpenJDK Runtime Environment
JVM: OpenJDK 64-Bit Server VM
Java Version: 11.0.4+11
Operating System: Mac OS X
OS Version: 10.14.6
Default Encoding: UTF-8
Language: en
Country: US
--></g></svg>