<?xml version="1.0" encoding="UTF-8" standalone="no"?><svg xmlns="http://www.w3.org/2000/svg" xmlns:xlink="http://www.w3.org/1999/xlink" contentScriptType="application/ecmascript" contentStyleType="text/css" height="380px" preserveAspectRatio="none" style="width:362px;height:380px;" version="1.1" viewBox="0 0 362 380" width="362px" zoomAndPan="magnify"><defs><filter height="300%" id="f1uotbobd0oiq4" width="300%" x="-1" y="-1"><feGaussianBlur result="blurOut" stdDeviation="2.0"/><feColorMatrix in="blurOut" result="blurOut2" type="matrix" values="0 0 0 0 0 0 0 0 0 0 0 0 0 0 0 0 0 0 .4 0"/><feOffset dx="4.0" dy="4.0" in="blurOut2" result="blurOut3"/><feBlend in="SourceGraphic" in2="blurOut3" mode="normal"/></filter></defs><g><!--class com.ibm.fhir.model.visitor.CopyingVisitor--><a href="CopyingVisitor.html" target="_top" xlink:actuate="onRequest" xlink:show="new" xlink:title="CopyingVisitor.html" xlink:type="simple"><rect fill="#FEFECE" filter="url(#f1uotbobd0oiq4)" height="240.5918" id="com.ibm.fhir.model.visitor.CopyingVisitor" style="stroke: #A80036; stroke-width: 1.5;" width="342" x="6" y="106"/><ellipse cx="51.75" cy="125.1328" fill="#ADD1B2" rx="11" ry="11" style="stroke: #A80036; stroke-width: 1.0;"/><path d="M54.2231,131.2759 Q53.6421,131.5747 53.0029,131.7241 Q52.3638,131.8735 51.6582,131.8735 Q49.1514,131.8735 47.8315,130.2217 Q46.5117,128.5698 46.5117,125.4487 Q46.5117,122.3193 47.8315,120.6675 Q49.1514,119.0156 51.6582,119.0156 Q52.3638,119.0156 53.0112,119.165 Q53.6587,119.3145 54.2231,119.6133 L54.2231,122.3359 Q53.5923,121.7549 52.9988,121.4851 Q52.4053,121.2153 51.7744,121.2153 Q50.4297,121.2153 49.7449,122.282 Q49.0601,123.3486 49.0601,125.4487 Q49.0601,127.5405 49.7449,128.6072 Q50.4297,129.6738 51.7744,129.6738 Q52.4053,129.6738 52.9988,129.4041 Q53.5923,129.1343 54.2231,128.5532 Z "/><text fill="#000000" font-family="sans-serif" font-size="14" lengthAdjust="spacingAndGlyphs" textLength="101" x="85.25" y="124.5352">CopyingVisitor</text><text fill="#000000" font-family="sans-serif" font-size="10" lengthAdjust="spacingAndGlyphs" textLength="127" x="72.25" y="137.1563">com.ibm.fhir.model.visitor</text><rect fill="#FFFFFF" height="16.1328" style="stroke: #000000; stroke-width: 1.0; stroke-dasharray: 2.0,2.0;" width="113" x="238" y="103"/><text fill="#000000" font-family="sans-serif" font-size="12" font-style="italic" lengthAdjust="spacingAndGlyphs" textLength="111" x="239" y="115.6016">T extends Visitable</text><line style="stroke: #A80036; stroke-width: 1.5;" x1="7" x2="347" y1="144.2656" y2="144.2656"/><polygon fill="#FFFF44" points="17,151.2432,21,155.2432,17,159.2432,13,155.2432" style="stroke: #B38D22; stroke-width: 1.0;"/><text fill="#000000" font-family="sans-serif" font-size="11" lengthAdjust="spacingAndGlyphs" textLength="194" x="26" y="158.9004">doVisitEnd(String, int, Element): void</text><polygon fill="#FFFF44" points="17,164.1982,21,168.1982,17,172.1982,13,168.1982" style="stroke: #B38D22; stroke-width: 1.0;"/><text fill="#000000" font-family="sans-serif" font-size="11" lengthAdjust="spacingAndGlyphs" textLength="202" x="26" y="171.8555">doVisitEnd(String, int, Resource): void</text><polygon fill="#FFFF44" points="17,177.1533,21,181.1533,17,185.1533,13,181.1533" style="stroke: #B38D22; stroke-width: 1.0;"/><text fill="#000000" font-family="sans-serif" font-size="11" lengthAdjust="spacingAndGlyphs" textLength="199" x="26" y="184.8105">doVisitStart(String, int, Element): void</text><polygon fill="#FFFF44" points="17,190.1084,21,194.1084,17,198.1084,13,194.1084" style="stroke: #B38D22; stroke-width: 1.0;"/><text fill="#000000" font-family="sans-serif" font-size="11" lengthAdjust="spacingAndGlyphs" textLength="207" x="26" y="197.7656">doVisitStart(String, int, Resource): void</text><ellipse cx="17" cy="208.0635" fill="#84BE84" rx="3" ry="3" style="stroke: #038048; stroke-width: 1.0;"/><text fill="#000000" font-family="sans-serif" font-size="11" lengthAdjust="spacingAndGlyphs" textLength="165" x="26" y="210.7207">getResult(): T extends Visitable</text><ellipse cx="17" cy="221.0186" fill="#84BE84" rx="3" ry="3" style="stroke: #038048; stroke-width: 1.0;"/><text fill="#000000" font-family="sans-serif" font-size="11" lengthAdjust="spacingAndGlyphs" textLength="184" x="26" y="223.6758">visitStart(String, int, Element): void</text><ellipse cx="17" cy="233.9736" fill="#84BE84" rx="3" ry="3" style="stroke: #038048; stroke-width: 1.0;"/><text fill="#000000" font-family="sans-serif" font-size="11" lengthAdjust="spacingAndGlyphs" textLength="192" x="26" y="236.6309">visitStart(String, int, Resource): void</text><ellipse cx="17" cy="246.9287" fill="#84BE84" rx="3" ry="3" style="stroke: #038048; stroke-width: 1.0;"/><text fill="#000000" font-family="sans-serif" font-size="11" lengthAdjust="spacingAndGlyphs" textLength="179" x="26" y="249.5859">visitEnd(String, int, Element): void</text><ellipse cx="17" cy="259.8838" fill="#84BE84" rx="3" ry="3" style="stroke: #038048; stroke-width: 1.0;"/><text fill="#000000" font-family="sans-serif" font-size="11" lengthAdjust="spacingAndGlyphs" textLength="187" x="26" y="262.541">visitEnd(String, int, Resource): void</text><ellipse cx="17" cy="272.8389" fill="#84BE84" rx="3" ry="3" style="stroke: #038048; stroke-width: 1.0;"/><text fill="#000000" font-family="sans-serif" font-size="11" lengthAdjust="spacingAndGlyphs" textLength="316" x="26" y="275.4961">visitStart(String, List&lt;? extends Visitable&gt;, Class&lt;?&gt;): void</text><ellipse cx="17" cy="285.7939" fill="#84BE84" rx="3" ry="3" style="stroke: #038048; stroke-width: 1.0;"/><text fill="#000000" font-family="sans-serif" font-size="11" lengthAdjust="spacingAndGlyphs" textLength="311" x="26" y="288.4512">visitEnd(String, List&lt;? extends Visitable&gt;, Class&lt;?&gt;): void</text><ellipse cx="17" cy="298.749" fill="#84BE84" rx="3" ry="3" style="stroke: #038048; stroke-width: 1.0;"/><text fill="#000000" font-family="sans-serif" font-size="11" lengthAdjust="spacingAndGlyphs" textLength="126" x="26" y="301.4063">postVisit(Element): void</text><ellipse cx="17" cy="311.7041" fill="#84BE84" rx="3" ry="3" style="stroke: #038048; stroke-width: 1.0;"/><text fill="#000000" font-family="sans-serif" font-size="11" lengthAdjust="spacingAndGlyphs" textLength="134" x="26" y="314.3613">postVisit(Resource): void</text><polygon fill="#FFFF44" points="17,319.6592,21,323.6592,17,327.6592,13,323.6592" style="stroke: #B38D22; stroke-width: 1.0;"/><text fill="#000000" font-family="sans-serif" font-size="11" lengthAdjust="spacingAndGlyphs" textLength="128" x="26" y="327.3164">getBuilder(): Builder&lt;?&gt;</text><polygon fill="#FFFF44" points="17,332.6143,21,336.6143,17,340.6143,13,336.6143" style="stroke: #B38D22; stroke-width: 1.0;"/><text fill="#000000" font-family="sans-serif" font-size="11" lengthAdjust="spacingAndGlyphs" textLength="90" x="26" y="340.2715">markDirty(): void</text></a><!--class com.ibm.fhir.model.visitor.DefaultVisitor--><a href="DefaultVisitor.html" target="_top" xlink:actuate="onRequest" xlink:show="new" xlink:title="DefaultVisitor.html" xlink:type="simple"><rect fill="#FEFECE" filter="url(#f1uotbobd0oiq4)" height="38.2656" id="com.ibm.fhir.model.visitor.DefaultVisitor" style="stroke: #A80036; stroke-width: 1.5;" width="159" x="97.5" y="8"/><ellipse cx="112.5" cy="27.1328" fill="#ADD1B2" rx="11" ry="11" style="stroke: #A80036; stroke-width: 1.0;"/><path d="M114.9731,33.2759 Q114.3921,33.5747 113.7529,33.7241 Q113.1138,33.8735 112.4082,33.8735 Q109.9014,33.8735 108.5815,32.2217 Q107.2617,30.5698 107.2617,27.4487 Q107.2617,24.3193 108.5815,22.6675 Q109.9014,21.0156 112.4082,21.0156 Q113.1138,21.0156 113.7612,21.165 Q114.4087,21.3145 114.9731,21.6133 L114.9731,24.3359 Q114.3423,23.7549 113.7488,23.4851 Q113.1553,23.2153 112.5244,23.2153 Q111.1797,23.2153 110.4949,24.282 Q109.8101,25.3486 109.8101,27.4487 Q109.8101,29.5405 110.4949,30.6072 Q111.1797,31.6738 112.5244,31.6738 Q113.1553,31.6738 113.7488,31.4041 Q114.3423,31.1343 114.9731,30.5532 Z "/><text fill="#000000" font-family="sans-serif" font-size="14" lengthAdjust="spacingAndGlyphs" textLength="93" x="143.5" y="26.5352">DefaultVisitor</text><text fill="#000000" font-family="sans-serif" font-size="10" lengthAdjust="spacingAndGlyphs" textLength="127" x="126.5" y="39.1563">com.ibm.fhir.model.visitor</text></a><!--link com.ibm.fhir.model.visitor.DefaultVisitor to com.ibm.fhir.model.visitor.CopyingVisitor--><path d="M177,66.2692 C177,78.0736 177,91.6932 177,105.9036 " fill="none" id="com.ibm.fhir.model.visitor.DefaultVisitor-com.ibm.fhir.model.visitor.CopyingVisitor" style="stroke: #A80036; stroke-width: 1.0;"/><polygon fill="none" points="170.0001,66.1289,177,46.1289,184.0001,66.1289,170.0001,66.1289" style="stroke: #A80036; stroke-width: 1.0;"/><text fill="#888888" font-family="sans-serif" font-size="10" lengthAdjust="spacingAndGlyphs" textLength="182" x="92" y="366.668">UMLDoclet 2.0.5, PlantUML 1.2019.08</text><!--
@startuml
    set namespaceSeparator none
    hide empty fields
    hide empty methods

    class "<size:14>CopyingVisitor\n<size:10>com.ibm.fhir.model.visitor" as com.ibm.fhir.model.visitor.CopyingVisitor<T extends Visitable> [[CopyingVisitor.html]] {
        #doVisitEnd(String, int, Element): void
        #doVisitEnd(String, int, Resource): void
        #doVisitStart(String, int, Element): void
        #doVisitStart(String, int, Resource): void
        +getResult(): T extends Visitable
        +visitStart(String, int, Element): void
        +visitStart(String, int, Resource): void
        +visitEnd(String, int, Element): void
        +visitEnd(String, int, Resource): void
        +visitStart(String, List<? extends Visitable>, Class<?>): void
        +visitEnd(String, List<? extends Visitable>, Class<?>): void
        +postVisit(Element): void
        +postVisit(Resource): void
        #getBuilder(): Builder<?>
        #markDirty(): void
    }

    class "<size:14>DefaultVisitor\n<size:10>com.ibm.fhir.model.visitor" as com.ibm.fhir.model.visitor.DefaultVisitor [[DefaultVisitor.html]]

    com.ibm.fhir.model.visitor.DefaultVisitor <|- - com.ibm.fhir.model.visitor.CopyingVisitor

    center footer UMLDoclet 2.0.5, PlantUML 1.2019.08
@enduml

PlantUML version 1.2019.08(Sat Jul 13 15:25:14 EDT 2019)
(APACHE source distribution)
Java Runtime: OpenJDK Runtime Environment
JVM: OpenJDK 64-Bit Server VM
Java Version: 11.0.4+11
Operating System: Mac OS X
OS Version: 10.14.6
Default Encoding: UTF-8
Language: en
Country: US
--></g></svg>