<?xml version="1.0" encoding="UTF-8" standalone="no"?><svg xmlns="http://www.w3.org/2000/svg" xmlns:xlink="http://www.w3.org/1999/xlink" contentScriptType="application/ecmascript" contentStyleType="text/css" height="574px" preserveAspectRatio="none" style="width:283px;height:574px;" version="1.1" viewBox="0 0 283 574" width="283px" zoomAndPan="magnify"><defs><filter height="300%" id="f1f76pw7wnf67m" width="300%" x="-1" y="-1"><feGaussianBlur result="blurOut" stdDeviation="2.0"/><feColorMatrix in="blurOut" result="blurOut2" type="matrix" values="0 0 0 0 0 0 0 0 0 0 0 0 0 0 0 0 0 0 .4 0"/><feOffset dx="4.0" dy="4.0" in="blurOut2" result="blurOut3"/><feBlend in="SourceGraphic" in2="blurOut3" mode="normal"/></filter></defs><g><!--class com.ibm.fhir.cli.invoker.InvocationContext--><a href="InvocationContext.html" target="_top" xlink:actuate="onRequest" xlink:show="new" xlink:title="InvocationContext.html" xlink:type="simple"><rect fill="#FEFECE" filter="url(#f1f76pw7wnf67m)" height="434.918" id="com.ibm.fhir.cli.invoker.InvocationContext" style="stroke: #A80036; stroke-width: 1.5;" width="266" x="6" y="8"/><ellipse cx="71.75" cy="27.1328" fill="#ADD1B2" rx="11" ry="11" style="stroke: #A80036; stroke-width: 1.0;"/><path d="M74.2231,33.2759 Q73.6421,33.5747 73.0029,33.7241 Q72.3638,33.8735 71.6582,33.8735 Q69.1514,33.8735 67.8315,32.2217 Q66.5117,30.5698 66.5117,27.4487 Q66.5117,24.3193 67.8315,22.6675 Q69.1514,21.0156 71.6582,21.0156 Q72.3638,21.0156 73.0112,21.165 Q73.6587,21.3145 74.2231,21.6133 L74.2231,24.3359 Q73.5923,23.7549 72.9988,23.4851 Q72.4053,23.2153 71.7744,23.2153 Q70.4297,23.2153 69.7449,24.282 Q69.0601,25.3486 69.0601,27.4487 Q69.0601,29.5405 69.7449,30.6072 Q70.4297,31.6738 71.7744,31.6738 Q72.4053,31.6738 72.9988,31.4041 Q73.5923,31.1343 74.2231,30.5532 Z "/><text fill="#000000" font-family="sans-serif" font-size="14" lengthAdjust="spacingAndGlyphs" textLength="126" x="92.25" y="26.5352">InvocationContext</text><text fill="#000000" font-family="sans-serif" font-size="10" lengthAdjust="spacingAndGlyphs" textLength="114" x="98.25" y="39.1563">com.ibm.fhir.cli.invoker</text><line style="stroke: #A80036; stroke-width: 1.5;" x1="7" x2="271" y1="46.2656" y2="46.2656"/><ellipse cx="17" cy="58.2432" fill="#84BE84" rx="3" ry="3" style="stroke: #038048; stroke-width: 1.0;"/><text fill="#000000" font-family="sans-serif" font-size="11" lengthAdjust="spacingAndGlyphs" textLength="145" x="26" y="60.9004">getOperation(): Operations</text><ellipse cx="17" cy="71.1982" fill="#84BE84" rx="3" ry="3" style="stroke: #038048; stroke-width: 1.0;"/><text fill="#000000" font-family="sans-serif" font-size="11" lengthAdjust="spacingAndGlyphs" textLength="167" x="26" y="73.8555">setOperation(Operations): void</text><ellipse cx="17" cy="84.1533" fill="#84BE84" rx="3" ry="3" style="stroke: #038048; stroke-width: 1.0;"/><text fill="#000000" font-family="sans-serif" font-size="11" lengthAdjust="spacingAndGlyphs" textLength="117" x="26" y="86.8105">getMimeType(): String</text><ellipse cx="17" cy="97.1084" fill="#84BE84" rx="3" ry="3" style="stroke: #038048; stroke-width: 1.0;"/><text fill="#000000" font-family="sans-serif" font-size="11" lengthAdjust="spacingAndGlyphs" textLength="139" x="26" y="99.7656">setMimeType(String): void</text><ellipse cx="17" cy="110.0635" fill="#84BE84" rx="3" ry="3" style="stroke: #038048; stroke-width: 1.0;"/><text fill="#000000" font-family="sans-serif" font-size="11" lengthAdjust="spacingAndGlyphs" textLength="172" x="26" y="112.7207">getClientProperties(): Properties</text><ellipse cx="17" cy="123.0186" fill="#84BE84" rx="3" ry="3" style="stroke: #038048; stroke-width: 1.0;"/><text fill="#000000" font-family="sans-serif" font-size="11" lengthAdjust="spacingAndGlyphs" textLength="194" x="26" y="125.6758">setClientProperties(Properties): void</text><ellipse cx="17" cy="135.9736" fill="#84BE84" rx="3" ry="3" style="stroke: #038048; stroke-width: 1.0;"/><text fill="#000000" font-family="sans-serif" font-size="11" lengthAdjust="spacingAndGlyphs" textLength="139" x="26" y="138.6309">getResourceType(): String</text><ellipse cx="17" cy="148.9287" fill="#84BE84" rx="3" ry="3" style="stroke: #038048; stroke-width: 1.0;"/><text fill="#000000" font-family="sans-serif" font-size="11" lengthAdjust="spacingAndGlyphs" textLength="161" x="26" y="151.5859">setResourceType(String): void</text><ellipse cx="17" cy="161.8838" fill="#84BE84" rx="3" ry="3" style="stroke: #038048; stroke-width: 1.0;"/><text fill="#000000" font-family="sans-serif" font-size="11" lengthAdjust="spacingAndGlyphs" textLength="123" x="26" y="164.541">getResourceId(): String</text><ellipse cx="17" cy="174.8389" fill="#84BE84" rx="3" ry="3" style="stroke: #038048; stroke-width: 1.0;"/><text fill="#000000" font-family="sans-serif" font-size="11" lengthAdjust="spacingAndGlyphs" textLength="145" x="26" y="177.4961">setResourceId(String): void</text><ellipse cx="17" cy="187.7939" fill="#84BE84" rx="3" ry="3" style="stroke: #038048; stroke-width: 1.0;"/><text fill="#000000" font-family="sans-serif" font-size="11" lengthAdjust="spacingAndGlyphs" textLength="114" x="26" y="190.4512">getVersionId(): String</text><ellipse cx="17" cy="200.749" fill="#84BE84" rx="3" ry="3" style="stroke: #038048; stroke-width: 1.0;"/><text fill="#000000" font-family="sans-serif" font-size="11" lengthAdjust="spacingAndGlyphs" textLength="136" x="26" y="203.4063">setVersionId(String): void</text><ellipse cx="17" cy="213.7041" fill="#84BE84" rx="3" ry="3" style="stroke: #038048; stroke-width: 1.0;"/><text fill="#000000" font-family="sans-serif" font-size="11" lengthAdjust="spacingAndGlyphs" textLength="119" x="26" y="216.3613">getOutputFile(): String</text><ellipse cx="17" cy="226.6592" fill="#84BE84" rx="3" ry="3" style="stroke: #038048; stroke-width: 1.0;"/><text fill="#000000" font-family="sans-serif" font-size="11" lengthAdjust="spacingAndGlyphs" textLength="141" x="26" y="229.3164">setOutputFile(String): void</text><ellipse cx="17" cy="239.6143" fill="#84BE84" rx="3" ry="3" style="stroke: #038048; stroke-width: 1.0;"/><text fill="#000000" font-family="sans-serif" font-size="11" lengthAdjust="spacingAndGlyphs" textLength="136" x="26" y="242.2715">getPropertiesFile(): String</text><ellipse cx="17" cy="252.5693" fill="#84BE84" rx="3" ry="3" style="stroke: #038048; stroke-width: 1.0;"/><text fill="#000000" font-family="sans-serif" font-size="11" lengthAdjust="spacingAndGlyphs" textLength="158" x="26" y="255.2266">setPropertiesFile(String): void</text><ellipse cx="17" cy="265.5244" fill="#84BE84" rx="3" ry="3" style="stroke: #038048; stroke-width: 1.0;"/><text fill="#000000" font-family="sans-serif" font-size="11" lengthAdjust="spacingAndGlyphs" textLength="131" x="26" y="268.1816">getResourceFile(): String</text><ellipse cx="17" cy="278.4795" fill="#84BE84" rx="3" ry="3" style="stroke: #038048; stroke-width: 1.0;"/><text fill="#000000" font-family="sans-serif" font-size="11" lengthAdjust="spacingAndGlyphs" textLength="153" x="26" y="281.1367">setResourceFile(String): void</text><ellipse cx="17" cy="291.4346" fill="#84BE84" rx="3" ry="3" style="stroke: #038048; stroke-width: 1.0;"/><text fill="#000000" font-family="sans-serif" font-size="11" lengthAdjust="spacingAndGlyphs" textLength="110" x="26" y="294.0918">isVerbose(): boolean</text><ellipse cx="17" cy="304.3896" fill="#84BE84" rx="3" ry="3" style="stroke: #038048; stroke-width: 1.0;"/><text fill="#000000" font-family="sans-serif" font-size="11" lengthAdjust="spacingAndGlyphs" textLength="140" x="26" y="307.0469">setVerbose(boolean): void</text><ellipse cx="17" cy="317.3447" fill="#84BE84" rx="3" ry="3" style="stroke: #038048; stroke-width: 1.0;"/><text fill="#000000" font-family="sans-serif" font-size="11" lengthAdjust="spacingAndGlyphs" textLength="159" x="26" y="320.002">getResponse(): FHIRResponse</text><ellipse cx="17" cy="330.2998" fill="#84BE84" rx="3" ry="3" style="stroke: #038048; stroke-width: 1.0;"/><text fill="#000000" font-family="sans-serif" font-size="11" lengthAdjust="spacingAndGlyphs" textLength="181" x="26" y="332.957">setResponse(FHIRResponse): void</text><ellipse cx="17" cy="343.2549" fill="#84BE84" rx="3" ry="3" style="stroke: #038048; stroke-width: 1.0;"/><text fill="#000000" font-family="sans-serif" font-size="11" lengthAdjust="spacingAndGlyphs" textLength="240" x="26" y="345.9121">getQueryParameters(): List&lt;NameValuePair&gt;</text><ellipse cx="17" cy="356.21" fill="#84BE84" rx="3" ry="3" style="stroke: #038048; stroke-width: 1.0;"/><text fill="#000000" font-family="sans-serif" font-size="11" lengthAdjust="spacingAndGlyphs" textLength="191" x="26" y="358.8672">getHeaders(): List&lt;NameValuePair&gt;</text><ellipse cx="17" cy="369.165" fill="#84BE84" rx="3" ry="3" style="stroke: #038048; stroke-width: 1.0;"/><text fill="#000000" font-family="sans-serif" font-size="11" lengthAdjust="spacingAndGlyphs" textLength="214" x="26" y="371.8223">addQueryParameter(String, String): void</text><ellipse cx="17" cy="382.1201" fill="#84BE84" rx="3" ry="3" style="stroke: #038048; stroke-width: 1.0;"/><text fill="#000000" font-family="sans-serif" font-size="11" lengthAdjust="spacingAndGlyphs" textLength="165" x="26" y="384.7773">addHeader(String, String): void</text><ellipse cx="17" cy="395.0752" fill="#84BE84" rx="3" ry="3" style="stroke: #038048; stroke-width: 1.0;"/><text fill="#000000" font-family="sans-serif" font-size="11" lengthAdjust="spacingAndGlyphs" textLength="188" x="26" y="397.7324">getResourceTypeWithExcp(): String</text><ellipse cx="17" cy="408.0303" fill="#84BE84" rx="3" ry="3" style="stroke: #038048; stroke-width: 1.0;"/><text fill="#000000" font-family="sans-serif" font-size="11" lengthAdjust="spacingAndGlyphs" textLength="172" x="26" y="410.6875">getResourceIdWithExcp(): String</text><ellipse cx="17" cy="420.9854" fill="#84BE84" rx="3" ry="3" style="stroke: #038048; stroke-width: 1.0;"/><text fill="#000000" font-family="sans-serif" font-size="11" lengthAdjust="spacingAndGlyphs" textLength="163" x="26" y="423.6426">getVersionIdWithExcp(): String</text><ellipse cx="17" cy="433.9404" fill="#84BE84" rx="3" ry="3" style="stroke: #038048; stroke-width: 1.0;"/><text fill="#000000" font-family="sans-serif" font-size="11" lengthAdjust="spacingAndGlyphs" textLength="208" x="26" y="436.5977">getRequestResourceWithExcp(): Object</text></a><!--class com.ibm.fhir.cli.invoker.InvocationContext.NameValuePair--><a href="InvocationContext.NameValuePair.html" target="_top" xlink:actuate="onRequest" xlink:show="new" xlink:title="InvocationContext.NameValuePair.html" xlink:type="simple"><rect fill="#FEFECE" filter="url(#f1f76pw7wnf67m)" height="38.2656" id="com.ibm.fhir.cli.invoker.InvocationContext.NameValuePair" style="stroke: #A80036; stroke-width: 1.5;" width="265" x="6.5" y="503"/><ellipse cx="21.5" cy="522.1328" fill="#ADD1B2" rx="11" ry="11" style="stroke: #A80036; stroke-width: 1.0;"/><path d="M23.9731,528.2759 Q23.3921,528.5747 22.7529,528.7241 Q22.1138,528.8735 21.4082,528.8735 Q18.9014,528.8735 17.5815,527.2217 Q16.2617,525.5698 16.2617,522.4487 Q16.2617,519.3193 17.5815,517.6675 Q18.9014,516.0156 21.4082,516.0156 Q22.1138,516.0156 22.7612,516.165 Q23.4087,516.3145 23.9731,516.6133 L23.9731,519.3359 Q23.3423,518.7549 22.7488,518.4851 Q22.1553,518.2153 21.5244,518.2153 Q20.1797,518.2153 19.4949,519.282 Q18.8101,520.3486 18.8101,522.4487 Q18.8101,524.5405 19.4949,525.6072 Q20.1797,526.6738 21.5244,526.6738 Q22.1553,526.6738 22.7488,526.4041 Q23.3423,526.1343 23.9731,525.5532 Z "/><text fill="#000000" font-family="sans-serif" font-size="14" lengthAdjust="spacingAndGlyphs" textLength="233" x="35.5" y="521.5352">InvocationContext.NameValuePair</text><text fill="#000000" font-family="sans-serif" font-size="10" lengthAdjust="spacingAndGlyphs" textLength="114" x="95" y="534.1563">com.ibm.fhir.cli.invoker</text></a><!--link com.ibm.fhir.cli.invoker.InvocationContext to com.ibm.fhir.cli.invoker.InvocationContext.NameValuePair--><path d="M139,458.5251 C139,476.411 139,491.8173 139,502.9714 " fill="none" id="com.ibm.fhir.cli.invoker.InvocationContext-com.ibm.fhir.cli.invoker.InvocationContext.NameValuePair" style="stroke: #A80036; stroke-width: 1.0;"/><ellipse cx="139.0001" cy="451.3219" fill="#FFFFFF" rx="8" ry="8" style="stroke: #A80036; stroke-width: 1.0;"/><line style="stroke: #A80036; stroke-width: 1.0;" x1="139.0002" x2="139" y1="459.3219" y2="443.3219"/><line style="stroke: #A80036; stroke-width: 1.0;" x1="131.0001" x2="147.0001" y1="451.322" y2="451.3218"/><text fill="#888888" font-family="sans-serif" font-size="10" lengthAdjust="spacingAndGlyphs" textLength="182" x="54" y="560.668">UMLDoclet 2.0.5, PlantUML 1.2019.08</text><!--
@startuml
    set namespaceSeparator none
    hide empty fields
    hide empty methods

    class "<size:14>InvocationContext\n<size:10>com.ibm.fhir.cli.invoker" as com.ibm.fhir.cli.invoker.InvocationContext [[InvocationContext.html]] {
        +getOperation(): Operations
        +setOperation(Operations): void
        +getMimeType(): String
        +setMimeType(String): void
        +getClientProperties(): Properties
        +setClientProperties(Properties): void
        +getResourceType(): String
        +setResourceType(String): void
        +getResourceId(): String
        +setResourceId(String): void
        +getVersionId(): String
        +setVersionId(String): void
        +getOutputFile(): String
        +setOutputFile(String): void
        +getPropertiesFile(): String
        +setPropertiesFile(String): void
        +getResourceFile(): String
        +setResourceFile(String): void
        +isVerbose(): boolean
        +setVerbose(boolean): void
        +getResponse(): FHIRResponse
        +setResponse(FHIRResponse): void
        +getQueryParameters(): List<NameValuePair>
        +getHeaders(): List<NameValuePair>
        +addQueryParameter(String, String): void
        +addHeader(String, String): void
        +getResourceTypeWithExcp(): String
        +getResourceIdWithExcp(): String
        +getVersionIdWithExcp(): String
        +getRequestResourceWithExcp(): Object
    }
    class "<size:14>InvocationContext.NameValuePair\n<size:10>com.ibm.fhir.cli.invoker" as com.ibm.fhir.cli.invoker.InvocationContext.NameValuePair [[InvocationContext.NameValuePair.html]]

    com.ibm.fhir.cli.invoker.InvocationContext +- - com.ibm.fhir.cli.invoker.InvocationContext.NameValuePair

    center footer UMLDoclet 2.0.5, PlantUML 1.2019.08
@enduml

PlantUML version 1.2019.08(Sat Jul 13 15:25:14 EDT 2019)
(APACHE source distribution)
Java Runtime: OpenJDK Runtime Environment
JVM: OpenJDK 64-Bit Server VM
Java Version: 11.0.4+11
Operating System: Mac OS X
OS Version: 10.14.6
Default Encoding: UTF-8
Language: en
Country: US
--></g></svg>