<?xml version="1.0" encoding="UTF-8" standalone="no"?><svg xmlns="http://www.w3.org/2000/svg" xmlns:xlink="http://www.w3.org/1999/xlink" contentScriptType="application/ecmascript" contentStyleType="text/css" height="349px" preserveAspectRatio="none" style="width:919px;height:349px;" version="1.1" viewBox="0 0 919 349" width="919px" zoomAndPan="magnify"><defs><filter height="300%" id="f6ceo0ldglhz3" width="300%" x="-1" y="-1"><feGaussianBlur result="blurOut" stdDeviation="2.0"/><feColorMatrix in="blurOut" result="blurOut2" type="matrix" values="0 0 0 0 0 0 0 0 0 0 0 0 0 0 0 0 0 0 .4 0"/><feOffset dx="4.0" dy="4.0" in="blurOut2" result="blurOut3"/><feBlend in="SourceGraphic" in2="blurOut3" mode="normal"/></filter></defs><g><!--MD5=[14f74feb2d49b4578f4458e0bb8fb76c]
cluster com.ibm.fhir.search.exception--><polygon fill="#FFFFFF" filter="url(#f6ceo0ldglhz3)" points="14,124,260,124,267,146.2969,897,146.2969,897,309,14,309,14,124" style="stroke: #000000; stroke-width: 1.5;"/><line style="stroke: #000000; stroke-width: 1.5;" x1="14" x2="267" y1="146.2969" y2="146.2969"/><text fill="#000000" font-family="sans-serif" font-size="14" font-weight="bold" lengthAdjust="spacingAndGlyphs" textLength="240" x="18" y="138.9951">com.ibm.fhir.search.exception</text><!--MD5=[45a9bf29fc979cb07d88174345e9bd53]
cluster com.ibm.fhir.exception--><polygon fill="#FFFFFF" filter="url(#f6ceo0ldglhz3)" points="82,16,269,16,276,38.2969,280,38.2969,280,99,82,99,82,16" style="stroke: #000000; stroke-width: 1.5;"/><line style="stroke: #000000; stroke-width: 1.5;" x1="82" x2="276" y1="38.2969" y2="38.2969"/><text fill="#000000" font-family="sans-serif" font-size="14" font-weight="bold" lengthAdjust="spacingAndGlyphs" textLength="181" x="86" y="30.9951">com.ibm.fhir.exception</text><!--MD5=[bb9c919928aa853b023413c761199cd2]
class com.ibm.fhir.search.exception.SearchExceptionUtil--><a href="SearchExceptionUtil.html" target="_top" title="SearchExceptionUtil.html" xlink:actuate="onRequest" xlink:href="SearchExceptionUtil.html" xlink:show="new" xlink:title="SearchExceptionUtil.html" xlink:type="simple"><rect fill="#FEFECE" filter="url(#f6ceo0ldglhz3)" height="150.4375" id="com.ibm.fhir.search.exception.SearchExceptionUtil" style="stroke: #A80036; stroke-width: 1.5;" width="513" x="375.5" y="151"/><ellipse cx="565.25" cy="167" fill="#ADD1B2" rx="11" ry="11" style="stroke: #A80036; stroke-width: 1.0;"/><path d="M568.2188,172.6406 Q567.6406,172.9375 567,173.0781 Q566.3594,173.2344 565.6563,173.2344 Q563.1563,173.2344 561.8281,171.5938 Q560.5156,169.9375 560.5156,166.8125 Q560.5156,163.6875 561.8281,162.0313 Q563.1563,160.375 565.6563,160.375 Q566.3594,160.375 567,160.5313 Q567.6563,160.6875 568.2188,160.9844 L568.2188,163.7031 Q567.5938,163.125 567,162.8594 Q566.4063,162.5781 565.7813,162.5781 Q564.4375,162.5781 563.75,163.6563 Q563.0625,164.7188 563.0625,166.8125 Q563.0625,168.9063 563.75,169.9844 Q564.4375,171.0469 565.7813,171.0469 Q566.4063,171.0469 567,170.7813 Q567.5938,170.5 568.2188,169.9219 L568.2188,172.6406 Z "/><text fill="#000000" font-family="sans-serif" font-size="12" lengthAdjust="spacingAndGlyphs" textLength="125" x="585.75" y="171.1543">SearchExceptionUtil</text><line style="stroke: #A80036; stroke-width: 1.5;" x1="376.5" x2="887.5" y1="183" y2="183"/><line style="stroke: #A80036; stroke-width: 1.5;" x1="376.5" x2="887.5" y1="191" y2="191"/><ellipse cx="386.5" cy="202" fill="#84BE84" rx="3" ry="3" style="stroke: #038048; stroke-width: 1.0;"/><text fill="#000000" font-family="sans-serif" font-size="11" lengthAdjust="spacingAndGlyphs" text-decoration="underline" textLength="349" x="395.5" y="205.2104">buildNewInvalidSearchException(String): FHIRSearchException</text><ellipse cx="386.5" cy="214.8047" fill="#84BE84" rx="3" ry="3" style="stroke: #038048; stroke-width: 1.0;"/><text fill="#000000" font-family="sans-serif" font-size="11" lengthAdjust="spacingAndGlyphs" text-decoration="underline" textLength="428" x="395.5" y="218.0151">buildNewParseParameterException(String, Exception): FHIRSearchException</text><ellipse cx="386.5" cy="227.6094" fill="#84BE84" rx="3" ry="3" style="stroke: #038048; stroke-width: 1.0;"/><text fill="#000000" font-family="sans-serif" font-size="11" lengthAdjust="spacingAndGlyphs" text-decoration="underline" textLength="393" x="395.5" y="230.8198">buildNewParseParametersException(Exception): FHIRSearchException</text><ellipse cx="386.5" cy="240.4141" fill="#84BE84" rx="3" ry="3" style="stroke: #038048; stroke-width: 1.0;"/><text fill="#000000" font-family="sans-serif" font-size="11" lengthAdjust="spacingAndGlyphs" text-decoration="underline" textLength="441" x="395.5" y="243.6245">buildNewChainedParameterException(String, Exception): FHIRSearchException</text><ellipse cx="386.5" cy="253.2188" fill="#84BE84" rx="3" ry="3" style="stroke: #038048; stroke-width: 1.0;"/><text fill="#000000" font-family="sans-serif" font-size="11" lengthAdjust="spacingAndGlyphs" text-decoration="underline" textLength="487" x="395.5" y="256.4292">buildNewReverseChainedParameterException(String, Exception): FHIRSearchException</text><ellipse cx="386.5" cy="266.0234" fill="#84BE84" rx="3" ry="3" style="stroke: #038048; stroke-width: 1.0;"/><text fill="#000000" font-family="sans-serif" font-size="11" lengthAdjust="spacingAndGlyphs" text-decoration="underline" textLength="301" x="395.5" y="269.2339">buildNewIllegalStateException(): IllegalStateException</text><ellipse cx="386.5" cy="278.8281" fill="#84BE84" rx="3" ry="3" style="stroke: #038048; stroke-width: 1.0;"/><text fill="#000000" font-family="sans-serif" font-size="11" lengthAdjust="spacingAndGlyphs" text-decoration="underline" textLength="385" x="395.5" y="282.0386">buildNewIllegalArgumentException(String): IllegalArgumentException</text><ellipse cx="386.5" cy="291.6328" fill="#84BE84" rx="3" ry="3" style="stroke: #038048; stroke-width: 1.0;"/><text fill="#000000" font-family="sans-serif" font-size="11" lengthAdjust="spacingAndGlyphs" text-decoration="underline" textLength="387" x="395.5" y="294.8433">buildNewDateTimeFormatException(Exception): FHIRSearchException</text></a><!--MD5=[074c18ebad499bfe7255b3946f0bb5ba]
class com.ibm.fhir.search.exception.FHIRSearchException--><a href="FHIRSearchException.html" target="_top" title="FHIRSearchException.html" xlink:actuate="onRequest" xlink:href="FHIRSearchException.html" xlink:show="new" xlink:title="FHIRSearchException.html" xlink:type="simple"><rect fill="#FEFECE" filter="url(#f6ceo0ldglhz3)" height="99.2188" id="com.ibm.fhir.search.exception.FHIRSearchException" style="stroke: #A80036; stroke-width: 1.5;" width="318" x="22" y="176.5"/><ellipse cx="110.75" cy="192.5" fill="#ADD1B2" rx="11" ry="11" style="stroke: #A80036; stroke-width: 1.0;"/><path d="M113.7188,198.1406 Q113.1406,198.4375 112.5,198.5781 Q111.8594,198.7344 111.1563,198.7344 Q108.6563,198.7344 107.3281,197.0938 Q106.0156,195.4375 106.0156,192.3125 Q106.0156,189.1875 107.3281,187.5313 Q108.6563,185.875 111.1563,185.875 Q111.8594,185.875 112.5,186.0313 Q113.1563,186.1875 113.7188,186.4844 L113.7188,189.2031 Q113.0938,188.625 112.5,188.3594 Q111.9063,188.0781 111.2813,188.0781 Q109.9375,188.0781 109.25,189.1563 Q108.5625,190.2188 108.5625,192.3125 Q108.5625,194.4063 109.25,195.4844 Q109.9375,196.5469 111.2813,196.5469 Q111.9063,196.5469 112.5,196.2813 Q113.0938,196 113.7188,195.4219 L113.7188,198.1406 Z "/><text fill="#000000" font-family="sans-serif" font-size="12" lengthAdjust="spacingAndGlyphs" textLength="132" x="131.25" y="196.6543">FHIRSearchException</text><line style="stroke: #A80036; stroke-width: 1.5;" x1="23" x2="339" y1="208.5" y2="208.5"/><line style="stroke: #A80036; stroke-width: 1.5;" x1="23" x2="339" y1="216.5" y2="216.5"/><ellipse cx="33" cy="227.5" fill="#84BE84" rx="3" ry="3" style="stroke: #038048; stroke-width: 1.0;"/><text fill="#000000" font-family="sans-serif" font-size="11" lengthAdjust="spacingAndGlyphs" textLength="160" x="42" y="230.7104">FHIRSearchException(String)</text><ellipse cx="33" cy="240.3047" fill="#84BE84" rx="3" ry="3" style="stroke: #038048; stroke-width: 1.0;"/><text fill="#000000" font-family="sans-serif" font-size="11" lengthAdjust="spacingAndGlyphs" textLength="227" x="42" y="243.5151">FHIRSearchException(String, Throwable)</text><ellipse cx="33" cy="253.1094" fill="#84BE84" rx="3" ry="3" style="stroke: #038048; stroke-width: 1.0;"/><text fill="#000000" font-family="sans-serif" font-size="11" lengthAdjust="spacingAndGlyphs" textLength="231" x="42" y="256.3198">withIssue(Issue...): FHIRSearchException</text><ellipse cx="33" cy="265.9141" fill="#84BE84" rx="3" ry="3" style="stroke: #038048; stroke-width: 1.0;"/><text fill="#000000" font-family="sans-serif" font-size="11" lengthAdjust="spacingAndGlyphs" textLength="292" x="42" y="269.1245">withIssue(Collection&lt;Issue&gt;): FHIRSearchException</text></a><!--MD5=[6d6d6ca34c8852304ea27f67c6ddea01]
class com.ibm.fhir.exception.FHIROperationException--><a href="../../exception/FHIROperationException.html" target="_top" title="../../exception/FHIROperationException.html" xlink:actuate="onRequest" xlink:href="../../exception/FHIROperationException.html" xlink:show="new" xlink:title="../../exception/FHIROperationException.html" xlink:type="simple"><rect fill="#FEFECE" filter="url(#f6ceo0ldglhz3)" height="48" id="com.ibm.fhir.exception.FHIROperationException" style="stroke: #A80036; stroke-width: 1.5;" width="182" x="90" y="43"/><ellipse cx="105" cy="59" fill="#ADD1B2" rx="11" ry="11" style="stroke: #A80036; stroke-width: 1.0;"/><path d="M107.9688,64.6406 Q107.3906,64.9375 106.75,65.0781 Q106.1094,65.2344 105.4063,65.2344 Q102.9063,65.2344 101.5781,63.5938 Q100.2656,61.9375 100.2656,58.8125 Q100.2656,55.6875 101.5781,54.0313 Q102.9063,52.375 105.4063,52.375 Q106.1094,52.375 106.75,52.5313 Q107.4063,52.6875 107.9688,52.9844 L107.9688,55.7031 Q107.3438,55.125 106.75,54.8594 Q106.1563,54.5781 105.5313,54.5781 Q104.1875,54.5781 103.5,55.6563 Q102.8125,56.7188 102.8125,58.8125 Q102.8125,60.9063 103.5,61.9844 Q104.1875,63.0469 105.5313,63.0469 Q106.1563,63.0469 106.75,62.7813 Q107.3438,62.5 107.9688,61.9219 L107.9688,64.6406 Z "/><text fill="#000000" font-family="sans-serif" font-size="12" lengthAdjust="spacingAndGlyphs" textLength="150" x="119" y="63.1543">FHIROperationException</text><line style="stroke: #A80036; stroke-width: 1.5;" x1="91" x2="271" y1="75" y2="75"/><line style="stroke: #A80036; stroke-width: 1.5;" x1="91" x2="271" y1="83" y2="83"/></a><!--MD5=[ac4cffa4322bebc40b6d52aa8dcbf99e]
reverse link com.ibm.fhir.exception.FHIROperationException to com.ibm.fhir.search.exception.FHIRSearchException--><path d="M181,111.2339 C181,131.4253 181,155.4232 181,176.2417 " fill="none" id="com.ibm.fhir.exception.FHIROperationException&lt;-com.ibm.fhir.search.exception.FHIRSearchException" style="stroke: #A80036; stroke-width: 1.0;"/><polygon fill="none" points="174.0001,111.1487,181,91.1487,188.0001,111.1486,174.0001,111.1487" style="stroke: #A80036; stroke-width: 1.0;"/><text fill="#888888" font-family="sans-serif" font-size="10" lengthAdjust="spacingAndGlyphs" textLength="186" x="368.5" y="336.2822">UMLDoclet 2.0.7, PlantUML 1.2019.12</text><!--MD5=[be60d00243df3bbf4ee17e96097213ac]
@startuml
    namespace com.ibm.fhir.search.exception {

        class SearchExceptionUtil [[SearchExceptionUtil.html]] {
            {static} +buildNewInvalidSearchException(String): FHIRSearchException
            {static} +buildNewParseParameterException(String, Exception): FHIRSearchException
            {static} +buildNewParseParametersException(Exception): FHIRSearchException
            {static} +buildNewChainedParameterException(String, Exception): FHIRSearchException
            {static} +buildNewReverseChainedParameterException(String, Exception): FHIRSearchException
            {static} +buildNewIllegalStateException(): IllegalStateException
            {static} +buildNewIllegalArgumentException(String): IllegalArgumentException
            {static} +buildNewDateTimeFormatException(Exception): FHIRSearchException
        }

        class FHIRSearchException [[FHIRSearchException.html]] {
            +FHIRSearchException(String)
            +FHIRSearchException(String, Throwable)
            +withIssue(Issue...): FHIRSearchException
            +withIssue(Collection<Issue>): FHIRSearchException
        }

        com.ibm.fhir.exception.FHIROperationException <|- - FHIRSearchException
    }

    namespace com.ibm.fhir.exception {
        class FHIROperationException [[../../exception/FHIROperationException.html]] {
        }
    }

    center footer UMLDoclet 2.0.7, PlantUML 1.2019.12
@enduml

PlantUML version 1.2019.12(Sun Nov 03 10:24:54 UTC 2019)
(APACHE source distribution)
Java Runtime: OpenJDK Runtime Environment
JVM: OpenJDK 64-Bit Server VM
Java Version: 11.0.10+9
Operating System: Linux
Default Encoding: UTF-8
Language: en
Country: null
--></g></svg>