<?xml version="1.0" encoding="UTF-8" standalone="no"?><svg xmlns="http://www.w3.org/2000/svg" xmlns:xlink="http://www.w3.org/1999/xlink" contentScriptType="application/ecmascript" contentStyleType="text/css" height="282px" preserveAspectRatio="none" style="width:251px;height:282px;" version="1.1" viewBox="0 0 251 282" width="251px" zoomAndPan="magnify"><defs><filter height="300%" id="f19mi7z29ttl4a" width="300%" x="-1" y="-1"><feGaussianBlur result="blurOut" stdDeviation="2.0"/><feColorMatrix in="blurOut" result="blurOut2" type="matrix" values="0 0 0 0 0 0 0 0 0 0 0 0 0 0 0 0 0 0 .4 0"/><feOffset dx="4.0" dy="4.0" in="blurOut2" result="blurOut3"/><feBlend in="SourceGraphic" in2="blurOut3" mode="normal"/></filter></defs><g><!--MD5=[1121b6a1ef3d6d068d0812a2a17dab64]
class com.ibm.fhir.model.type.code.ImagingStudyStatus.ValueSet--><a href="ImagingStudyStatus.ValueSet.html" target="_top" title="ImagingStudyStatus.ValueSet.html" xlink:actuate="onRequest" xlink:href="ImagingStudyStatus.ValueSet.html" xlink:show="new" xlink:title="ImagingStudyStatus.ValueSet.html" xlink:type="simple"><rect fill="#FEFECE" filter="url(#f19mi7z29ttl4a)" height="143.5703" id="com.ibm.fhir.model.type.code.ImagingStudyStatus.ValueSet" style="stroke: #A80036; stroke-width: 1.5;" width="234" x="6" y="106"/><ellipse cx="21" cy="124.9688" fill="#EB937F" rx="11" ry="11" style="stroke: #A80036; stroke-width: 1.0;"/><path d="M25.1094,130.9688 L17.3906,130.9688 L17.3906,118.5781 L25.1094,118.5781 L25.1094,120.7344 L19.8438,120.7344 L19.8438,123.4063 L24.6094,123.4063 L24.6094,125.5625 L19.8438,125.5625 L19.8438,128.8125 L25.1094,128.8125 L25.1094,130.9688 Z "/><text fill="#000000" font-family="sans-serif" font-size="14" lengthAdjust="spacingAndGlyphs" textLength="202" x="35" y="123.9951">ImagingStudyStatus.ValueSet</text><text fill="#000000" font-family="sans-serif" font-size="10" lengthAdjust="spacingAndGlyphs" textLength="145" x="63.5" y="136.5791">com.ibm.fhir.model.type.code</text><line style="stroke: #A80036; stroke-width: 1.5;" x1="7" x2="239" y1="143.9375" y2="143.9375"/><ellipse cx="17" cy="154.9375" fill="none" rx="3" ry="3" style="stroke: #038048; stroke-width: 1.0;"/><text fill="#000000" font-family="sans-serif" font-size="11" lengthAdjust="spacingAndGlyphs" text-decoration="underline" textLength="70" x="26" y="158.1479">REGISTERED</text><ellipse cx="17" cy="167.7422" fill="none" rx="3" ry="3" style="stroke: #038048; stroke-width: 1.0;"/><text fill="#000000" font-family="sans-serif" font-size="11" lengthAdjust="spacingAndGlyphs" text-decoration="underline" textLength="58" x="26" y="170.9526">AVAILABLE</text><ellipse cx="17" cy="180.5469" fill="none" rx="3" ry="3" style="stroke: #038048; stroke-width: 1.0;"/><text fill="#000000" font-family="sans-serif" font-size="11" lengthAdjust="spacingAndGlyphs" text-decoration="underline" textLength="65" x="26" y="183.7573">CANCELLED</text><ellipse cx="17" cy="193.3516" fill="none" rx="3" ry="3" style="stroke: #038048; stroke-width: 1.0;"/><text fill="#000000" font-family="sans-serif" font-size="11" lengthAdjust="spacingAndGlyphs" text-decoration="underline" textLength="111" x="26" y="196.562">ENTERED_IN_ERROR</text><ellipse cx="17" cy="206.1563" fill="none" rx="3" ry="3" style="stroke: #038048; stroke-width: 1.0;"/><text fill="#000000" font-family="sans-serif" font-size="11" lengthAdjust="spacingAndGlyphs" text-decoration="underline" textLength="57" x="26" y="209.3667">UNKNOWN</text><line style="stroke: #A80036; stroke-width: 1.5;" x1="7" x2="239" y1="215.9609" y2="215.9609"/><ellipse cx="17" cy="226.9609" fill="#84BE84" rx="3" ry="3" style="stroke: #038048; stroke-width: 1.0;"/><text fill="#000000" font-family="sans-serif" font-size="11" lengthAdjust="spacingAndGlyphs" textLength="80" x="26" y="230.1714">value(): String</text><ellipse cx="17" cy="239.7656" fill="#84BE84" rx="3" ry="3" style="stroke: #038048; stroke-width: 1.0;"/><text fill="#000000" font-family="sans-serif" font-size="11" lengthAdjust="spacingAndGlyphs" text-decoration="underline" textLength="127" x="26" y="242.9761">from(String): ValueSet</text></a><!--MD5=[48e3999c07181127cbdbe1ad515d9cd2]
class com.ibm.fhir.model.type.code.ImagingStudyStatus--><a href="ImagingStudyStatus.html" target="_top" title="ImagingStudyStatus.html" xlink:actuate="onRequest" xlink:href="ImagingStudyStatus.html" xlink:show="new" xlink:title="ImagingStudyStatus.html" xlink:type="simple"><rect fill="#FEFECE" filter="url(#f19mi7z29ttl4a)" height="37.9375" id="com.ibm.fhir.model.type.code.ImagingStudyStatus" style="stroke: #A80036; stroke-width: 1.5;" width="177" x="34.5" y="8"/><ellipse cx="49.5" cy="26.9688" fill="#ADD1B2" rx="11" ry="11" style="stroke: #A80036; stroke-width: 1.0;"/><path d="M52.4688,32.6094 Q51.8906,32.9063 51.25,33.0469 Q50.6094,33.2031 49.9063,33.2031 Q47.4063,33.2031 46.0781,31.5625 Q44.7656,29.9063 44.7656,26.7813 Q44.7656,23.6563 46.0781,22 Q47.4063,20.3438 49.9063,20.3438 Q50.6094,20.3438 51.25,20.5 Q51.9063,20.6563 52.4688,20.9531 L52.4688,23.6719 Q51.8438,23.0938 51.25,22.8281 Q50.6563,22.5469 50.0313,22.5469 Q48.6875,22.5469 48,23.625 Q47.3125,24.6875 47.3125,26.7813 Q47.3125,28.875 48,29.9531 Q48.6875,31.0156 50.0313,31.0156 Q50.6563,31.0156 51.25,30.75 Q51.8438,30.4688 52.4688,29.8906 L52.4688,32.6094 Z "/><text fill="#000000" font-family="sans-serif" font-size="14" lengthAdjust="spacingAndGlyphs" textLength="137" x="67.5" y="25.9951">ImagingStudyStatus</text><text fill="#000000" font-family="sans-serif" font-size="10" lengthAdjust="spacingAndGlyphs" textLength="145" x="63.5" y="38.5791">com.ibm.fhir.model.type.code</text></a><!--MD5=[cecebbc00d945a4e7adb9b65c57d257a]
reverse link com.ibm.fhir.model.type.code.ImagingStudyStatus to com.ibm.fhir.model.type.code.ImagingStudyStatus.ValueSet--><path d="M123,61.3808 C123,74.6021 123,90.2441 123,105.7064 " fill="none" id="com.ibm.fhir.model.type.code.ImagingStudyStatus&lt;-com.ibm.fhir.model.type.code.ImagingStudyStatus.ValueSet" style="stroke: #A80036; stroke-width: 1.0;"/><ellipse cx="123.0001" cy="54.1243" fill="#FFFFFF" rx="8" ry="8" style="stroke: #A80036; stroke-width: 1.0;"/><line style="stroke: #A80036; stroke-width: 1.0;" x1="123.0002" x2="123" y1="62.1243" y2="46.1243"/><line style="stroke: #A80036; stroke-width: 1.0;" x1="115.0001" x2="131.0001" y1="54.1244" y2="54.1242"/><text fill="#888888" font-family="sans-serif" font-size="10" lengthAdjust="spacingAndGlyphs" textLength="186" x="36" y="269.2822">UMLDoclet 2.0.7, PlantUML 1.2019.12</text><!--MD5=[0d490bf01dbc77e0fd1d95e130cda67f]
@startuml
    set namespaceSeparator none
    hide empty fields
    hide empty methods

    enum "<size:14>ImagingStudyStatus.ValueSet\n<size:10>com.ibm.fhir.model.type.code" as com.ibm.fhir.model.type.code.ImagingStudyStatus.ValueSet [[ImagingStudyStatus.ValueSet.html]] {
        {static} +REGISTERED
        {static} +AVAILABLE
        {static} +CANCELLED
        {static} +ENTERED_IN_ERROR
        {static} +UNKNOWN
        +value(): String
        {static} +from(String): ValueSet
    }

    class "<size:14>ImagingStudyStatus\n<size:10>com.ibm.fhir.model.type.code" as com.ibm.fhir.model.type.code.ImagingStudyStatus [[ImagingStudyStatus.html]]

    com.ibm.fhir.model.type.code.ImagingStudyStatus +- - com.ibm.fhir.model.type.code.ImagingStudyStatus.ValueSet

    center footer UMLDoclet 2.0.7, PlantUML 1.2019.12
@enduml

PlantUML version 1.2019.12(Sun Nov 03 10:24:54 UTC 2019)
(APACHE source distribution)
Java Runtime: OpenJDK Runtime Environment
JVM: OpenJDK 64-Bit Server VM
Java Version: 11.0.7+10
Operating System: Linux
Default Encoding: UTF-8
Language: en
Country: null
--></g></svg>