<?xml version="1.0" encoding="UTF-8" standalone="no"?><svg xmlns="http://www.w3.org/2000/svg" xmlns:xlink="http://www.w3.org/1999/xlink" contentScriptType="application/ecmascript" contentStyleType="text/css" height="376px" preserveAspectRatio="none" style="width:305px;height:376px;" version="1.1" viewBox="0 0 305 376" width="305px" zoomAndPan="magnify"><defs><filter height="300%" id="flsf9f3e9t7a0" width="300%" x="-1" y="-1"><feGaussianBlur result="blurOut" stdDeviation="2.0"/><feColorMatrix in="blurOut" result="blurOut2" type="matrix" values="0 0 0 0 0 0 0 0 0 0 0 0 0 0 0 0 0 0 .4 0"/><feOffset dx="4.0" dy="4.0" in="blurOut2" result="blurOut3"/><feBlend in="SourceGraphic" in2="blurOut3" mode="normal"/></filter></defs><g><!--MD5=[fcddcf17afde28803dbbb948fff73b73]
class com.ibm.fhir.core.FHIRMediaType--><a href="FHIRMediaType.html" target="_top" title="FHIRMediaType.html" xlink:actuate="onRequest" xlink:href="FHIRMediaType.html" xlink:show="new" xlink:title="FHIRMediaType.html" xlink:type="simple"><rect fill="#FEFECE" filter="url(#flsf9f3e9t7a0)" height="238.0078" id="com.ibm.fhir.core.FHIRMediaType" style="stroke: #A80036; stroke-width: 1.5;" width="288" x="6" y="106"/><ellipse cx="92.75" cy="124.9688" fill="#ADD1B2" rx="11" ry="11" style="stroke: #A80036; stroke-width: 1.0;"/><path d="M95.7188,130.6094 Q95.1406,130.9063 94.5,131.0469 Q93.8594,131.2031 93.1563,131.2031 Q90.6563,131.2031 89.3281,129.5625 Q88.0156,127.9063 88.0156,124.7813 Q88.0156,121.6563 89.3281,120 Q90.6563,118.3438 93.1563,118.3438 Q93.8594,118.3438 94.5,118.5 Q95.1563,118.6563 95.7188,118.9531 L95.7188,121.6719 Q95.0938,121.0938 94.5,120.8281 Q93.9063,120.5469 93.2813,120.5469 Q91.9375,120.5469 91.25,121.625 Q90.5625,122.6875 90.5625,124.7813 Q90.5625,126.875 91.25,127.9531 Q91.9375,129.0156 93.2813,129.0156 Q93.9063,129.0156 94.5,128.75 Q95.0938,128.4688 95.7188,127.8906 L95.7188,130.6094 Z "/><text fill="#000000" font-family="sans-serif" font-size="14" lengthAdjust="spacingAndGlyphs" textLength="106" x="113.25" y="123.9951">FHIRMediaType</text><text fill="#000000" font-family="sans-serif" font-size="10" lengthAdjust="spacingAndGlyphs" textLength="85" x="123.75" y="136.5791">com.ibm.fhir.core</text><line style="stroke: #A80036; stroke-width: 1.5;" x1="7" x2="293" y1="143.9375" y2="143.9375"/><ellipse cx="17" cy="154.9375" fill="none" rx="3" ry="3" style="stroke: #038048; stroke-width: 1.0;"/><text fill="#000000" font-family="sans-serif" font-size="11" lengthAdjust="spacingAndGlyphs" text-decoration="underline" textLength="158" x="26" y="158.1479">SUBTYPE_FHIR_JSON: String</text><ellipse cx="17" cy="167.7422" fill="none" rx="3" ry="3" style="stroke: #038048; stroke-width: 1.0;"/><text fill="#000000" font-family="sans-serif" font-size="11" lengthAdjust="spacingAndGlyphs" text-decoration="underline" textLength="178" x="26" y="170.9526">APPLICATION_FHIR_JSON: String</text><ellipse cx="17" cy="180.5469" fill="none" rx="3" ry="3" style="stroke: #038048; stroke-width: 1.0;"/><text fill="#000000" font-family="sans-serif" font-size="11" lengthAdjust="spacingAndGlyphs" text-decoration="underline" textLength="238" x="26" y="183.7573">APPLICATION_FHIR_JSON_TYPE: MediaType</text><ellipse cx="17" cy="193.3516" fill="none" rx="3" ry="3" style="stroke: #038048; stroke-width: 1.0;"/><text fill="#000000" font-family="sans-serif" font-size="11" lengthAdjust="spacingAndGlyphs" text-decoration="underline" textLength="152" x="26" y="196.562">SUBTYPE_FHIR_XML: String</text><ellipse cx="17" cy="206.1563" fill="none" rx="3" ry="3" style="stroke: #038048; stroke-width: 1.0;"/><text fill="#000000" font-family="sans-serif" font-size="11" lengthAdjust="spacingAndGlyphs" text-decoration="underline" textLength="172" x="26" y="209.3667">APPLICATION_FHIR_XML: String</text><ellipse cx="17" cy="218.9609" fill="none" rx="3" ry="3" style="stroke: #038048; stroke-width: 1.0;"/><text fill="#000000" font-family="sans-serif" font-size="11" lengthAdjust="spacingAndGlyphs" text-decoration="underline" textLength="232" x="26" y="222.1714">APPLICATION_FHIR_XML_TYPE: MediaType</text><ellipse cx="17" cy="231.7656" fill="none" rx="3" ry="3" style="stroke: #038048; stroke-width: 1.0;"/><text fill="#000000" font-family="sans-serif" font-size="11" lengthAdjust="spacingAndGlyphs" text-decoration="underline" textLength="171" x="26" y="234.9761">SUBTYPE_JSON_PATCH: String</text><ellipse cx="17" cy="244.5703" fill="none" rx="3" ry="3" style="stroke: #038048; stroke-width: 1.0;"/><text fill="#000000" font-family="sans-serif" font-size="11" lengthAdjust="spacingAndGlyphs" text-decoration="underline" textLength="191" x="26" y="247.7808">APPLICATION_JSON_PATCH: String</text><ellipse cx="17" cy="257.375" fill="none" rx="3" ry="3" style="stroke: #038048; stroke-width: 1.0;"/><text fill="#000000" font-family="sans-serif" font-size="11" lengthAdjust="spacingAndGlyphs" text-decoration="underline" textLength="251" x="26" y="260.5854">APPLICATION_JSON_PATCH_TYPE: MediaType</text><ellipse cx="17" cy="270.1797" fill="none" rx="3" ry="3" style="stroke: #038048; stroke-width: 1.0;"/><text fill="#000000" font-family="sans-serif" font-size="11" lengthAdjust="spacingAndGlyphs" text-decoration="underline" textLength="174" x="26" y="273.3901">SUBTYPE_FHIR_NDJSON: String</text><ellipse cx="17" cy="282.9844" fill="none" rx="3" ry="3" style="stroke: #038048; stroke-width: 1.0;"/><text fill="#000000" font-family="sans-serif" font-size="11" lengthAdjust="spacingAndGlyphs" text-decoration="underline" textLength="164" x="26" y="286.1948">APPLICATION_NDJSON: String</text><ellipse cx="17" cy="295.7891" fill="none" rx="3" ry="3" style="stroke: #038048; stroke-width: 1.0;"/><text fill="#000000" font-family="sans-serif" font-size="11" lengthAdjust="spacingAndGlyphs" text-decoration="underline" textLength="254" x="26" y="298.9995">APPLICATION_FHIR_NDJSON_TYPE: MediaType</text><ellipse cx="17" cy="308.5938" fill="none" rx="3" ry="3" style="stroke: #038048; stroke-width: 1.0;"/><text fill="#000000" font-family="sans-serif" font-size="11" lengthAdjust="spacingAndGlyphs" text-decoration="underline" textLength="182" x="26" y="311.8042">SUBTYPE_FHIR_PARQUET: String</text><ellipse cx="17" cy="321.3984" fill="none" rx="3" ry="3" style="stroke: #038048; stroke-width: 1.0;"/><text fill="#000000" font-family="sans-serif" font-size="11" lengthAdjust="spacingAndGlyphs" text-decoration="underline" textLength="172" x="26" y="324.6089">APPLICATION_PARQUET: String</text><ellipse cx="17" cy="334.2031" fill="none" rx="3" ry="3" style="stroke: #038048; stroke-width: 1.0;"/><text fill="#000000" font-family="sans-serif" font-size="11" lengthAdjust="spacingAndGlyphs" text-decoration="underline" textLength="262" x="26" y="337.4136">APPLICATION_FHIR_PARQUET_TYPE: MediaType</text></a><!--MD5=[c8eb94259280794f7a153a7c91a86c28]
class javax.ws.rs.core.MediaType--><rect fill="#FEFECE" filter="url(#flsf9f3e9t7a0)" height="37.9375" id="javax.ws.rs.core.MediaType" style="stroke: #A80036; stroke-width: 1.5;" width="110" x="95" y="8"/><ellipse cx="110" cy="26.9688" fill="#ADD1B2" rx="11" ry="11" style="stroke: #A80036; stroke-width: 1.0;"/><path d="M112.9688,32.6094 Q112.3906,32.9063 111.75,33.0469 Q111.1094,33.2031 110.4063,33.2031 Q107.9063,33.2031 106.5781,31.5625 Q105.2656,29.9063 105.2656,26.7813 Q105.2656,23.6563 106.5781,22 Q107.9063,20.3438 110.4063,20.3438 Q111.1094,20.3438 111.75,20.5 Q112.4063,20.6563 112.9688,20.9531 L112.9688,23.6719 Q112.3438,23.0938 111.75,22.8281 Q111.1563,22.5469 110.5313,22.5469 Q109.1875,22.5469 108.5,23.625 Q107.8125,24.6875 107.8125,26.7813 Q107.8125,28.875 108.5,29.9531 Q109.1875,31.0156 110.5313,31.0156 Q111.1563,31.0156 111.75,30.75 Q112.3438,30.4688 112.9688,29.8906 L112.9688,32.6094 Z "/><text fill="#000000" font-family="sans-serif" font-size="14" lengthAdjust="spacingAndGlyphs" textLength="75" x="125.5" y="25.9951">MediaType</text><text fill="#000000" font-family="sans-serif" font-size="10" lengthAdjust="spacingAndGlyphs" textLength="78" x="124" y="38.5791">javax.ws.rs.core</text><!--MD5=[a68f56c1adf99213df245bc2a146958f]
reverse link javax.ws.rs.core.MediaType to com.ibm.fhir.core.FHIRMediaType--><path d="M150,66.3927 C150,78.1226 150,91.631 150,105.7115 " fill="none" id="javax.ws.rs.core.MediaType&lt;-com.ibm.fhir.core.FHIRMediaType" style="stroke: #A80036; stroke-width: 1.0;"/><polygon fill="none" points="143.0001,66.3456,150,46.3456,157.0001,66.3455,143.0001,66.3456" style="stroke: #A80036; stroke-width: 1.0;"/><text fill="#888888" font-family="sans-serif" font-size="10" lengthAdjust="spacingAndGlyphs" textLength="186" x="63" y="363.2822">UMLDoclet 2.0.7, PlantUML 1.2019.12</text><!--MD5=[0b1ced57203c5a6b4764226778f6d1b7]
@startuml
    set namespaceSeparator none
    hide empty fields
    hide empty methods

    class "<size:14>FHIRMediaType\n<size:10>com.ibm.fhir.core" as com.ibm.fhir.core.FHIRMediaType [[FHIRMediaType.html]] {
        {static} +SUBTYPE_FHIR_JSON: String
        {static} +APPLICATION_FHIR_JSON: String
        {static} +APPLICATION_FHIR_JSON_TYPE: MediaType
        {static} +SUBTYPE_FHIR_XML: String
        {static} +APPLICATION_FHIR_XML: String
        {static} +APPLICATION_FHIR_XML_TYPE: MediaType
        {static} +SUBTYPE_JSON_PATCH: String
        {static} +APPLICATION_JSON_PATCH: String
        {static} +APPLICATION_JSON_PATCH_TYPE: MediaType
        {static} +SUBTYPE_FHIR_NDJSON: String
        {static} +APPLICATION_NDJSON: String
        {static} +APPLICATION_FHIR_NDJSON_TYPE: MediaType
        {static} +SUBTYPE_FHIR_PARQUET: String
        {static} +APPLICATION_PARQUET: String
        {static} +APPLICATION_FHIR_PARQUET_TYPE: MediaType
    }

    class "<size:14>MediaType\n<size:10>javax.ws.rs.core" as javax.ws.rs.core.MediaType

    javax.ws.rs.core.MediaType <|- - com.ibm.fhir.core.FHIRMediaType

    center footer UMLDoclet 2.0.7, PlantUML 1.2019.12
@enduml

PlantUML version 1.2019.12(Sun Nov 03 10:24:54 UTC 2019)
(APACHE source distribution)
Java Runtime: OpenJDK Runtime Environment
JVM: OpenJDK 64-Bit Server VM
Java Version: 11.0.8+10
Operating System: Linux
Default Encoding: UTF-8
Language: en
Country: null
--></g></svg>