<?xml version="1.0" encoding="UTF-8" standalone="no"?><svg xmlns="http://www.w3.org/2000/svg" xmlns:xlink="http://www.w3.org/1999/xlink" contentScriptType="application/ecmascript" contentStyleType="text/css" height="495px" preserveAspectRatio="none" style="width:686px;height:495px;" version="1.1" viewBox="0 0 686 495" width="686px" zoomAndPan="magnify"><defs><filter height="300%" id="f6p62ewd4xwb0" width="300%" x="-1" y="-1"><feGaussianBlur result="blurOut" stdDeviation="2.0"/><feColorMatrix in="blurOut" result="blurOut2" type="matrix" values="0 0 0 0 0 0 0 0 0 0 0 0 0 0 0 0 0 0 .4 0"/><feOffset dx="4.0" dy="4.0" in="blurOut2" result="blurOut3"/><feBlend in="SourceGraphic" in2="blurOut3" mode="normal"/></filter></defs><g><!--MD5=[0373450c676f645e0ee6a20f5d77235d]
class com.ibm.fhir.model.resource.Consent.Provision--><a href="Consent.Provision.html" target="_top" title="Consent.Provision.html" xlink:actuate="onRequest" xlink:href="Consent.Provision.html" xlink:show="new" xlink:title="Consent.Provision.html" xlink:type="simple"><rect fill="#FEFECE" filter="url(#f6p62ewd4xwb0)" height="238.0078" id="com.ibm.fhir.model.resource.Consent.Provision" style="stroke: #A80036; stroke-width: 1.5;" width="231" x="233" y="127"/><ellipse cx="275" cy="145.9688" fill="#ADD1B2" rx="11" ry="11" style="stroke: #A80036; stroke-width: 1.0;"/><path d="M277.9688,151.6094 Q277.3906,151.9063 276.75,152.0469 Q276.1094,152.2031 275.4063,152.2031 Q272.9063,152.2031 271.5781,150.5625 Q270.2656,148.9063 270.2656,145.7813 Q270.2656,142.6563 271.5781,141 Q272.9063,139.3438 275.4063,139.3438 Q276.1094,139.3438 276.75,139.5 Q277.4063,139.6563 277.9688,139.9531 L277.9688,142.6719 Q277.3438,142.0938 276.75,141.8281 Q276.1563,141.5469 275.5313,141.5469 Q274.1875,141.5469 273.5,142.625 Q272.8125,143.6875 272.8125,145.7813 Q272.8125,147.875 273.5,148.9531 Q274.1875,150.0156 275.5313,150.0156 Q276.1563,150.0156 276.75,149.75 Q277.3438,149.4688 277.9688,148.8906 L277.9688,151.6094 Z "/><text fill="#000000" font-family="sans-serif" font-size="14" lengthAdjust="spacingAndGlyphs" textLength="125" x="302" y="144.9951">Consent.Provision</text><text fill="#000000" font-family="sans-serif" font-size="10" lengthAdjust="spacingAndGlyphs" textLength="139" x="295" y="157.5791">com.ibm.fhir.model.resource</text><line style="stroke: #A80036; stroke-width: 1.5;" x1="234" x2="463" y1="164.9375" y2="164.9375"/><ellipse cx="244" cy="175.9375" fill="#84BE84" rx="3" ry="3" style="stroke: #038048; stroke-width: 1.0;"/><text fill="#000000" font-family="sans-serif" font-size="11" lengthAdjust="spacingAndGlyphs" textLength="187" x="253" y="179.1479">getType(): ConsentProvisionType</text><ellipse cx="244" cy="188.7422" fill="#84BE84" rx="3" ry="3" style="stroke: #038048; stroke-width: 1.0;"/><text fill="#000000" font-family="sans-serif" font-size="11" lengthAdjust="spacingAndGlyphs" textLength="106" x="253" y="191.9526">getPeriod(): Period</text><ellipse cx="244" cy="201.5469" fill="#84BE84" rx="3" ry="3" style="stroke: #038048; stroke-width: 1.0;"/><text fill="#000000" font-family="sans-serif" font-size="11" lengthAdjust="spacingAndGlyphs" textLength="130" x="253" y="204.7573">getActor(): List&lt;Actor&gt;</text><ellipse cx="244" cy="214.3516" fill="#84BE84" rx="3" ry="3" style="stroke: #038048; stroke-width: 1.0;"/><text fill="#000000" font-family="sans-serif" font-size="11" lengthAdjust="spacingAndGlyphs" textLength="205" x="253" y="217.562">getAction(): List&lt;CodeableConcept&gt;</text><ellipse cx="244" cy="227.1563" fill="#84BE84" rx="3" ry="3" style="stroke: #038048; stroke-width: 1.0;"/><text fill="#000000" font-family="sans-serif" font-size="11" lengthAdjust="spacingAndGlyphs" textLength="187" x="253" y="230.3667">getSecurityLabel(): List&lt;Coding&gt;</text><ellipse cx="244" cy="239.9609" fill="#84BE84" rx="3" ry="3" style="stroke: #038048; stroke-width: 1.0;"/><text fill="#000000" font-family="sans-serif" font-size="11" lengthAdjust="spacingAndGlyphs" textLength="158" x="253" y="243.1714">getPurpose(): List&lt;Coding&gt;</text><ellipse cx="244" cy="252.7656" fill="#84BE84" rx="3" ry="3" style="stroke: #038048; stroke-width: 1.0;"/><text fill="#000000" font-family="sans-serif" font-size="11" lengthAdjust="spacingAndGlyphs" textLength="139" x="253" y="255.9761">getClazz(): List&lt;Coding&gt;</text><ellipse cx="244" cy="265.5703" fill="#84BE84" rx="3" ry="3" style="stroke: #038048; stroke-width: 1.0;"/><text fill="#000000" font-family="sans-serif" font-size="11" lengthAdjust="spacingAndGlyphs" textLength="200" x="253" y="268.7808">getCode(): List&lt;CodeableConcept&gt;</text><ellipse cx="244" cy="278.375" fill="#84BE84" rx="3" ry="3" style="stroke: #038048; stroke-width: 1.0;"/><text fill="#000000" font-family="sans-serif" font-size="11" lengthAdjust="spacingAndGlyphs" textLength="132" x="253" y="281.5854">getDataPeriod(): Period</text><ellipse cx="244" cy="291.1797" fill="#84BE84" rx="3" ry="3" style="stroke: #038048; stroke-width: 1.0;"/><text fill="#000000" font-family="sans-serif" font-size="11" lengthAdjust="spacingAndGlyphs" textLength="124" x="253" y="294.3901">getData(): List&lt;Data&gt;</text><ellipse cx="244" cy="303.9844" fill="#84BE84" rx="3" ry="3" style="stroke: #038048; stroke-width: 1.0;"/><text fill="#000000" font-family="sans-serif" font-size="11" lengthAdjust="spacingAndGlyphs" textLength="176" x="253" y="307.1948">getProvision(): List&lt;Provision&gt;</text><ellipse cx="244" cy="316.7891" fill="#84BE84" rx="3" ry="3" style="stroke: #038048; stroke-width: 1.0;"/><text fill="#000000" font-family="sans-serif" font-size="11" lengthAdjust="spacingAndGlyphs" textLength="129" x="253" y="319.9995">hasChildren(): boolean</text><ellipse cx="244" cy="329.5938" fill="#84BE84" rx="3" ry="3" style="stroke: #038048; stroke-width: 1.0;"/><text fill="#000000" font-family="sans-serif" font-size="11" lengthAdjust="spacingAndGlyphs" textLength="176" x="253" y="332.8042">accept(String, int, Visitor): void</text><ellipse cx="244" cy="342.3984" fill="#84BE84" rx="3" ry="3" style="stroke: #038048; stroke-width: 1.0;"/><text fill="#000000" font-family="sans-serif" font-size="11" lengthAdjust="spacingAndGlyphs" textLength="107" x="253" y="345.6089">toBuilder(): Builder</text><ellipse cx="244" cy="355.2031" fill="#84BE84" rx="3" ry="3" style="stroke: #038048; stroke-width: 1.0;"/><text fill="#000000" font-family="sans-serif" font-size="11" lengthAdjust="spacingAndGlyphs" text-decoration="underline" textLength="95" x="253" y="358.4136">builder(): Builder</text></a><!--MD5=[efbff6997283c56b83e991a8eeb6a60a]
class com.ibm.fhir.model.type.BackboneElement--><a href="../type/BackboneElement.html" target="_top" title="../type/BackboneElement.html" xlink:actuate="onRequest" xlink:href="../type/BackboneElement.html" xlink:show="new" xlink:title="../type/BackboneElement.html" xlink:type="simple"><rect fill="#FEFECE" filter="url(#f6p62ewd4xwb0)" height="58.7422" id="com.ibm.fhir.model.type.BackboneElement" style="stroke: #A80036; stroke-width: 1.5;" width="159" x="169" y="8"/><ellipse cx="184" cy="26.9688" fill="#A9DCDF" rx="11" ry="11" style="stroke: #A80036; stroke-width: 1.0;"/><path d="M184.1094,22.3125 L182.9531,27.3906 L185.2813,27.3906 L184.1094,22.3125 Z M182.625,20.0781 L185.6094,20.0781 L188.9688,32.4688 L186.5156,32.4688 L185.75,29.4063 L182.4688,29.4063 L181.7188,32.4688 L179.2813,32.4688 L182.625,20.0781 Z "/><text fill="#000000" font-family="sans-serif" font-size="14" font-style="italic" lengthAdjust="spacingAndGlyphs" textLength="127" x="198" y="25.9951">BackboneElement</text><text fill="#000000" font-family="sans-serif" font-size="10" font-style="italic" lengthAdjust="spacingAndGlyphs" textLength="119" x="202" y="38.5791">com.ibm.fhir.model.type</text><line style="stroke: #A80036; stroke-width: 1.5;" x1="170" x2="327" y1="45.9375" y2="45.9375"/><ellipse cx="180" cy="56.9375" fill="#84BE84" rx="3" ry="3" style="stroke: #038048; stroke-width: 1.0;"/><text fill="#000000" font-family="sans-serif" font-size="11" font-style="italic" lengthAdjust="spacingAndGlyphs" textLength="107" x="189" y="60.1479">toBuilder(): Builder</text></a><!--MD5=[77c80e91e9036a331a0863cbba2cd8f0]
class com.ibm.fhir.model.resource.Consent--><a href="Consent.html" target="_top" title="Consent.html" xlink:actuate="onRequest" xlink:href="Consent.html" xlink:show="new" xlink:title="Consent.html" xlink:type="simple"><rect fill="#FEFECE" filter="url(#f6p62ewd4xwb0)" height="37.9375" id="com.ibm.fhir.model.resource.Consent" style="stroke: #A80036; stroke-width: 1.5;" width="171" x="363" y="18.5"/><ellipse cx="378" cy="37.4688" fill="#ADD1B2" rx="11" ry="11" style="stroke: #A80036; stroke-width: 1.0;"/><path d="M380.9688,43.1094 Q380.3906,43.4063 379.75,43.5469 Q379.1094,43.7031 378.4063,43.7031 Q375.9063,43.7031 374.5781,42.0625 Q373.2656,40.4063 373.2656,37.2813 Q373.2656,34.1563 374.5781,32.5 Q375.9063,30.8438 378.4063,30.8438 Q379.1094,30.8438 379.75,31 Q380.4063,31.1563 380.9688,31.4531 L380.9688,34.1719 Q380.3438,33.5938 379.75,33.3281 Q379.1563,33.0469 378.5313,33.0469 Q377.1875,33.0469 376.5,34.125 Q375.8125,35.1875 375.8125,37.2813 Q375.8125,39.375 376.5,40.4531 Q377.1875,41.5156 378.5313,41.5156 Q379.1563,41.5156 379.75,41.25 Q380.3438,40.9688 380.9688,40.3906 L380.9688,43.1094 Z "/><text fill="#000000" font-family="sans-serif" font-size="14" lengthAdjust="spacingAndGlyphs" textLength="59" x="432" y="36.4951">Consent</text><text fill="#000000" font-family="sans-serif" font-size="10" lengthAdjust="spacingAndGlyphs" textLength="139" x="392" y="49.0791">com.ibm.fhir.model.resource</text></a><!--MD5=[d6397e153f1f0c8305c15cc5e0ababd6]
class com.ibm.fhir.model.resource.Consent.Provision.Builder--><a href="Consent.Provision.Builder.html" target="_top" title="Consent.Provision.Builder.html" xlink:actuate="onRequest" xlink:href="Consent.Provision.Builder.html" xlink:show="new" xlink:title="Consent.Provision.Builder.html" xlink:type="simple"><rect fill="#FEFECE" filter="url(#f6p62ewd4xwb0)" height="37.9375" id="com.ibm.fhir.model.resource.Consent.Provision.Builder" style="stroke: #A80036; stroke-width: 1.5;" width="209" x="6" y="425"/><ellipse cx="21" cy="443.9688" fill="#ADD1B2" rx="11" ry="11" style="stroke: #A80036; stroke-width: 1.0;"/><path d="M23.9688,449.6094 Q23.3906,449.9063 22.75,450.0469 Q22.1094,450.2031 21.4063,450.2031 Q18.9063,450.2031 17.5781,448.5625 Q16.2656,446.9063 16.2656,443.7813 Q16.2656,440.6563 17.5781,439 Q18.9063,437.3438 21.4063,437.3438 Q22.1094,437.3438 22.75,437.5 Q23.4063,437.6563 23.9688,437.9531 L23.9688,440.6719 Q23.3438,440.0938 22.75,439.8281 Q22.1563,439.5469 21.5313,439.5469 Q20.1875,439.5469 19.5,440.625 Q18.8125,441.6875 18.8125,443.7813 Q18.8125,445.875 19.5,446.9531 Q20.1875,448.0156 21.5313,448.0156 Q22.1563,448.0156 22.75,447.75 Q23.3438,447.4688 23.9688,446.8906 L23.9688,449.6094 Z "/><text fill="#000000" font-family="sans-serif" font-size="14" lengthAdjust="spacingAndGlyphs" textLength="177" x="35" y="442.9951">Consent.Provision.Builder</text><text fill="#000000" font-family="sans-serif" font-size="10" lengthAdjust="spacingAndGlyphs" textLength="139" x="54" y="455.5791">com.ibm.fhir.model.resource</text></a><!--MD5=[1ec7378b6873501728fec6a42fcb8dfc]
class com.ibm.fhir.model.resource.Consent.Provision.Actor--><a href="Consent.Provision.Actor.html" target="_top" title="Consent.Provision.Actor.html" xlink:actuate="onRequest" xlink:href="Consent.Provision.Actor.html" xlink:show="new" xlink:title="Consent.Provision.Actor.html" xlink:type="simple"><rect fill="#FEFECE" filter="url(#f6p62ewd4xwb0)" height="37.9375" id="com.ibm.fhir.model.resource.Consent.Provision.Actor" style="stroke: #A80036; stroke-width: 1.5;" width="197" x="250" y="425"/><ellipse cx="265" cy="443.9688" fill="#ADD1B2" rx="11" ry="11" style="stroke: #A80036; stroke-width: 1.0;"/><path d="M267.9688,449.6094 Q267.3906,449.9063 266.75,450.0469 Q266.1094,450.2031 265.4063,450.2031 Q262.9063,450.2031 261.5781,448.5625 Q260.2656,446.9063 260.2656,443.7813 Q260.2656,440.6563 261.5781,439 Q262.9063,437.3438 265.4063,437.3438 Q266.1094,437.3438 266.75,437.5 Q267.4063,437.6563 267.9688,437.9531 L267.9688,440.6719 Q267.3438,440.0938 266.75,439.8281 Q266.1563,439.5469 265.5313,439.5469 Q264.1875,439.5469 263.5,440.625 Q262.8125,441.6875 262.8125,443.7813 Q262.8125,445.875 263.5,446.9531 Q264.1875,448.0156 265.5313,448.0156 Q266.1563,448.0156 266.75,447.75 Q267.3438,447.4688 267.9688,446.8906 L267.9688,449.6094 Z "/><text fill="#000000" font-family="sans-serif" font-size="14" lengthAdjust="spacingAndGlyphs" textLength="165" x="279" y="442.9951">Consent.Provision.Actor</text><text fill="#000000" font-family="sans-serif" font-size="10" lengthAdjust="spacingAndGlyphs" textLength="139" x="292" y="455.5791">com.ibm.fhir.model.resource</text></a><!--MD5=[d92ffcff7302a85332dc708d1e163145]
class com.ibm.fhir.model.resource.Consent.Provision.Data--><a href="Consent.Provision.Data.html" target="_top" title="Consent.Provision.Data.html" xlink:actuate="onRequest" xlink:href="Consent.Provision.Data.html" xlink:show="new" xlink:title="Consent.Provision.Data.html" xlink:type="simple"><rect fill="#FEFECE" filter="url(#f6p62ewd4xwb0)" height="37.9375" id="com.ibm.fhir.model.resource.Consent.Provision.Data" style="stroke: #A80036; stroke-width: 1.5;" width="193" x="482" y="425"/><ellipse cx="497" cy="443.9688" fill="#ADD1B2" rx="11" ry="11" style="stroke: #A80036; stroke-width: 1.0;"/><path d="M499.9688,449.6094 Q499.3906,449.9063 498.75,450.0469 Q498.1094,450.2031 497.4063,450.2031 Q494.9063,450.2031 493.5781,448.5625 Q492.2656,446.9063 492.2656,443.7813 Q492.2656,440.6563 493.5781,439 Q494.9063,437.3438 497.4063,437.3438 Q498.1094,437.3438 498.75,437.5 Q499.4063,437.6563 499.9688,437.9531 L499.9688,440.6719 Q499.3438,440.0938 498.75,439.8281 Q498.1563,439.5469 497.5313,439.5469 Q496.1875,439.5469 495.5,440.625 Q494.8125,441.6875 494.8125,443.7813 Q494.8125,445.875 495.5,446.9531 Q496.1875,448.0156 497.5313,448.0156 Q498.1563,448.0156 498.75,447.75 Q499.3438,447.4688 499.9688,446.8906 L499.9688,449.6094 Z "/><text fill="#000000" font-family="sans-serif" font-size="14" lengthAdjust="spacingAndGlyphs" textLength="161" x="511" y="442.9951">Consent.Provision.Data</text><text fill="#000000" font-family="sans-serif" font-size="10" lengthAdjust="spacingAndGlyphs" textLength="139" x="522" y="455.5791">com.ibm.fhir.model.resource</text></a><!--MD5=[ad2784437d35b5262e121764efc3f77c]
reverse link com.ibm.fhir.model.type.BackboneElement to com.ibm.fhir.model.resource.Consent.Provision--><path d="M271.6191,85.7034 C277.6541,98.2862 284.4325,112.4192 291.3986,126.9436 " fill="none" id="com.ibm.fhir.model.type.BackboneElement&lt;-com.ibm.fhir.model.resource.Consent.Provision" style="stroke: #A80036; stroke-width: 1.0;"/><polygon fill="none" points="265.165,88.4333,262.8276,67.373,277.7882,82.379,265.165,88.4333" style="stroke: #A80036; stroke-width: 1.0;"/><!--MD5=[49d779d972595b11ad8a302486ec22f9]
reverse link com.ibm.fhir.model.resource.Consent to com.ibm.fhir.model.resource.Consent.Provision--><path d="M432.6852,70.4738 C425.1203,86.2466 415.5524,106.1958 405.6014,126.9436 " fill="none" id="com.ibm.fhir.model.resource.Consent&lt;-com.ibm.fhir.model.resource.Consent.Provision" style="stroke: #A80036; stroke-width: 1.0;"/><ellipse cx="435.8119" cy="63.9548" fill="#FFFFFF" rx="8" ry="8" style="stroke: #A80036; stroke-width: 1.0;"/><line style="stroke: #A80036; stroke-width: 1.0;" x1="432.3523" x2="439.2715" y1="71.168" y2="56.7415"/><line style="stroke: #A80036; stroke-width: 1.0;" x1="428.5986" x2="443.0252" y1="60.4952" y2="67.4144"/><!--MD5=[3184ba7064c05ce25c24eafa44ef2182]
reverse link com.ibm.fhir.model.resource.Consent.Provision to com.ibm.fhir.model.resource.Consent.Provision.Builder--><path d="M221.0714,352.012 C187.4435,379.9881 154.7178,407.2138 133.7079,424.6926 " fill="none" id="com.ibm.fhir.model.resource.Consent.Provision&lt;-com.ibm.fhir.model.resource.Consent.Provision.Builder" style="stroke: #A80036; stroke-width: 1.0;"/><ellipse cx="226.8359" cy="347.2164" fill="#FFFFFF" rx="8" ry="8" style="stroke: #A80036; stroke-width: 1.0;"/><line style="stroke: #A80036; stroke-width: 1.0;" x1="220.6858" x2="232.9859" y1="352.3327" y2="342.1"/><line style="stroke: #A80036; stroke-width: 1.0;" x1="221.7195" x2="231.9522" y1="341.0663" y2="353.3664"/><!--MD5=[409de971a11fce57e8229e48f4b0b2ce]
reverse link com.ibm.fhir.model.resource.Consent.Provision to com.ibm.fhir.model.resource.Consent.Provision.Actor--><path d="M348.5,380.4225 C348.5,397.7569 348.5,413.4224 348.5,424.866 " fill="none" id="com.ibm.fhir.model.resource.Consent.Provision&lt;-com.ibm.fhir.model.resource.Consent.Provision.Actor" style="stroke: #A80036; stroke-width: 1.0;"/><ellipse cx="348.5001" cy="373.1762" fill="#FFFFFF" rx="8" ry="8" style="stroke: #A80036; stroke-width: 1.0;"/><line style="stroke: #A80036; stroke-width: 1.0;" x1="348.5002" x2="348.5" y1="381.1762" y2="365.1762"/><line style="stroke: #A80036; stroke-width: 1.0;" x1="340.5001" x2="356.5001" y1="373.1763" y2="373.1761"/><!--MD5=[8c235bcd296f036d2c3ac6ebe845da9e]
reverse link com.ibm.fhir.model.resource.Consent.Provision to com.ibm.fhir.model.resource.Consent.Provision.Data--><path d="M475.6792,355.4847 C506.8067,382.2815 536.7306,408.042 556.1902,424.7942 " fill="none" id="com.ibm.fhir.model.resource.Consent.Provision&lt;-com.ibm.fhir.model.resource.Consent.Provision.Data" style="stroke: #A80036; stroke-width: 1.0;"/><ellipse cx="470.2367" cy="350.7995" fill="#FFFFFF" rx="8" ry="8" style="stroke: #A80036; stroke-width: 1.0;"/><line style="stroke: #A80036; stroke-width: 1.0;" x1="476.2995" x2="464.1738" y1="356.0188" y2="345.5801"/><line style="stroke: #A80036; stroke-width: 1.0;" x1="465.0173" x2="475.456" y1="356.8623" y2="344.7366"/><text fill="#888888" font-family="sans-serif" font-size="10" lengthAdjust="spacingAndGlyphs" textLength="186" x="253.5" y="482.2822">UMLDoclet 2.0.7, PlantUML 1.2019.12</text><!--MD5=[0c7fc9dd74202b1594cb383564159bd3]
@startuml
    set namespaceSeparator none
    hide empty fields
    hide empty methods

    class "<size:14>Consent.Provision\n<size:10>com.ibm.fhir.model.resource" as com.ibm.fhir.model.resource.Consent.Provision [[Consent.Provision.html]] {
        +getType(): ConsentProvisionType
        +getPeriod(): Period
        +getActor(): List<Actor>
        +getAction(): List<CodeableConcept>
        +getSecurityLabel(): List<Coding>
        +getPurpose(): List<Coding>
        +getClazz(): List<Coding>
        +getCode(): List<CodeableConcept>
        +getDataPeriod(): Period
        +getData(): List<Data>
        +getProvision(): List<Provision>
        +hasChildren(): boolean
        +accept(String, int, Visitor): void
        +toBuilder(): Builder
        {static} +builder(): Builder
    }

    abstract class "<size:14>BackboneElement\n<size:10>com.ibm.fhir.model.type" as com.ibm.fhir.model.type.BackboneElement [[../type/BackboneElement.html]] {
        {abstract} +toBuilder(): Builder
    }
    class "<size:14>Consent\n<size:10>com.ibm.fhir.model.resource" as com.ibm.fhir.model.resource.Consent [[Consent.html]]
    class "<size:14>Consent.Provision.Builder\n<size:10>com.ibm.fhir.model.resource" as com.ibm.fhir.model.resource.Consent.Provision.Builder [[Consent.Provision.Builder.html]]
    class "<size:14>Consent.Provision.Actor\n<size:10>com.ibm.fhir.model.resource" as com.ibm.fhir.model.resource.Consent.Provision.Actor [[Consent.Provision.Actor.html]]
    class "<size:14>Consent.Provision.Data\n<size:10>com.ibm.fhir.model.resource" as com.ibm.fhir.model.resource.Consent.Provision.Data [[Consent.Provision.Data.html]]

    com.ibm.fhir.model.type.BackboneElement <|- - com.ibm.fhir.model.resource.Consent.Provision
    com.ibm.fhir.model.resource.Consent +- - com.ibm.fhir.model.resource.Consent.Provision
    com.ibm.fhir.model.resource.Consent.Provision +- - com.ibm.fhir.model.resource.Consent.Provision.Builder
    com.ibm.fhir.model.resource.Consent.Provision +- - com.ibm.fhir.model.resource.Consent.Provision.Actor
    com.ibm.fhir.model.resource.Consent.Provision +- - com.ibm.fhir.model.resource.Consent.Provision.Data

    center footer UMLDoclet 2.0.7, PlantUML 1.2019.12
@enduml

PlantUML version 1.2019.12(Sun Nov 03 10:24:54 UTC 2019)
(APACHE source distribution)
Java Runtime: OpenJDK Runtime Environment
JVM: OpenJDK 64-Bit Server VM
Java Version: 11.0.8+10
Operating System: Linux
Default Encoding: UTF-8
Language: en
Country: null
--></g></svg>