<?xml version="1.0" encoding="UTF-8" standalone="no"?><svg xmlns="http://www.w3.org/2000/svg" xmlns:xlink="http://www.w3.org/1999/xlink" contentScriptType="application/ecmascript" contentStyleType="text/css" height="320px" preserveAspectRatio="none" style="width:584px;height:320px;" version="1.1" viewBox="0 0 584 320" width="584px" zoomAndPan="magnify"><defs><filter height="300%" id="f14xkrxm217mzw" width="300%" x="-1" y="-1"><feGaussianBlur result="blurOut" stdDeviation="2.0"/><feColorMatrix in="blurOut" result="blurOut2" type="matrix" values="0 0 0 0 0 0 0 0 0 0 0 0 0 0 0 0 0 0 .4 0"/><feOffset dx="4.0" dy="4.0" in="blurOut2" result="blurOut3"/><feBlend in="SourceGraphic" in2="blurOut3" mode="normal"/></filter></defs><g><!--MD5=[21e8a6098a275d5fa54657523d75281f]
class com.ibm.fhir.model.resource.VisionPrescription.LensSpecification.Prism.Builder--><a href="VisionPrescription.LensSpecification.Prism.Builder.html" target="_top" title="VisionPrescription.LensSpecification.Prism.Builder.html" xlink:actuate="onRequest" xlink:href="VisionPrescription.LensSpecification.Prism.Builder.html" xlink:show="new" xlink:title="VisionPrescription.LensSpecification.Prism.Builder.html" xlink:type="simple"><rect fill="#FEFECE" filter="url(#f14xkrxm217mzw)" height="161.1797" id="com.ibm.fhir.model.resource.VisionPrescription.LensSpecification.Prism.Builder" style="stroke: #A80036; stroke-width: 1.5;" width="373" x="75" y="127"/><ellipse cx="90" cy="145.9688" fill="#ADD1B2" rx="11" ry="11" style="stroke: #A80036; stroke-width: 1.0;"/><path d="M92.9688,151.6094 Q92.3906,151.9063 91.75,152.0469 Q91.1094,152.2031 90.4063,152.2031 Q87.9063,152.2031 86.5781,150.5625 Q85.2656,148.9063 85.2656,145.7813 Q85.2656,142.6563 86.5781,141 Q87.9063,139.3438 90.4063,139.3438 Q91.1094,139.3438 91.75,139.5 Q92.4063,139.6563 92.9688,139.9531 L92.9688,142.6719 Q92.3438,142.0938 91.75,141.8281 Q91.1563,141.5469 90.5313,141.5469 Q89.1875,141.5469 88.5,142.625 Q87.8125,143.6875 87.8125,145.7813 Q87.8125,147.875 88.5,148.9531 Q89.1875,150.0156 90.5313,150.0156 Q91.1563,150.0156 91.75,149.75 Q92.3438,149.4688 92.9688,148.8906 L92.9688,151.6094 Z "/><text fill="#000000" font-family="sans-serif" font-size="14" lengthAdjust="spacingAndGlyphs" textLength="341" x="104" y="144.9951">VisionPrescription.LensSpecification.Prism.Builder</text><text fill="#000000" font-family="sans-serif" font-size="10" lengthAdjust="spacingAndGlyphs" textLength="139" x="205" y="157.5791">com.ibm.fhir.model.resource</text><line style="stroke: #A80036; stroke-width: 1.5;" x1="76" x2="447" y1="164.9375" y2="164.9375"/><ellipse cx="86" cy="175.9375" fill="#84BE84" rx="3" ry="3" style="stroke: #038048; stroke-width: 1.0;"/><text fill="#000000" font-family="sans-serif" font-size="11" lengthAdjust="spacingAndGlyphs" textLength="100" x="95" y="179.1479">id(String): Builder</text><ellipse cx="86" cy="188.7422" fill="#84BE84" rx="3" ry="3" style="stroke: #038048; stroke-width: 1.0;"/><text fill="#000000" font-family="sans-serif" font-size="11" lengthAdjust="spacingAndGlyphs" textLength="178" x="95" y="191.9526">extension(Extension...): Builder</text><ellipse cx="86" cy="201.5469" fill="#84BE84" rx="3" ry="3" style="stroke: #038048; stroke-width: 1.0;"/><text fill="#000000" font-family="sans-serif" font-size="11" lengthAdjust="spacingAndGlyphs" textLength="239" x="95" y="204.7573">extension(Collection&lt;Extension&gt;): Builder</text><ellipse cx="86" cy="214.3516" fill="#84BE84" rx="3" ry="3" style="stroke: #038048; stroke-width: 1.0;"/><text fill="#000000" font-family="sans-serif" font-size="11" lengthAdjust="spacingAndGlyphs" textLength="225" x="95" y="217.562">modifierExtension(Extension...): Builder</text><ellipse cx="86" cy="227.1563" fill="#84BE84" rx="3" ry="3" style="stroke: #038048; stroke-width: 1.0;"/><text fill="#000000" font-family="sans-serif" font-size="11" lengthAdjust="spacingAndGlyphs" textLength="286" x="95" y="230.3667">modifierExtension(Collection&lt;Extension&gt;): Builder</text><ellipse cx="86" cy="239.9609" fill="#84BE84" rx="3" ry="3" style="stroke: #038048; stroke-width: 1.0;"/><text fill="#000000" font-family="sans-serif" font-size="11" lengthAdjust="spacingAndGlyphs" textLength="144" x="95" y="243.1714">amount(Decimal): Builder</text><ellipse cx="86" cy="252.7656" fill="#84BE84" rx="3" ry="3" style="stroke: #038048; stroke-width: 1.0;"/><text fill="#000000" font-family="sans-serif" font-size="11" lengthAdjust="spacingAndGlyphs" textLength="147" x="95" y="255.9761">base(VisionBase): Builder</text><ellipse cx="86" cy="265.5703" fill="#84BE84" rx="3" ry="3" style="stroke: #038048; stroke-width: 1.0;"/><text fill="#000000" font-family="sans-serif" font-size="11" lengthAdjust="spacingAndGlyphs" textLength="76" x="95" y="268.7808">build(): Prism</text><polygon fill="#FFFF44" points="86,273.375,90,277.375,86,281.375,82,277.375" style="stroke: #B38D22; stroke-width: 1.0;"/><text fill="#000000" font-family="sans-serif" font-size="11" lengthAdjust="spacingAndGlyphs" textLength="116" x="95" y="281.5854">from(Prism): Builder</text></a><!--MD5=[b7b0ea86c8a299e1957933e33e561193]
class com.ibm.fhir.model.type.BackboneElement.Builder--><a href="../type/BackboneElement.Builder.html" target="_top" title="../type/BackboneElement.Builder.html" xlink:actuate="onRequest" xlink:href="../type/BackboneElement.Builder.html" xlink:show="new" xlink:title="../type/BackboneElement.Builder.html" xlink:type="simple"><rect fill="#FEFECE" filter="url(#f14xkrxm217mzw)" height="58.7422" id="com.ibm.fhir.model.type.BackboneElement.Builder" style="stroke: #A80036; stroke-width: 1.5;" width="211" x="6" y="8"/><ellipse cx="21" cy="26.9688" fill="#A9DCDF" rx="11" ry="11" style="stroke: #A80036; stroke-width: 1.0;"/><path d="M21.1094,22.3125 L19.9531,27.3906 L22.2813,27.3906 L21.1094,22.3125 Z M19.625,20.0781 L22.6094,20.0781 L25.9688,32.4688 L23.5156,32.4688 L22.75,29.4063 L19.4688,29.4063 L18.7188,32.4688 L16.2813,32.4688 L19.625,20.0781 Z "/><text fill="#000000" font-family="sans-serif" font-size="14" font-style="italic" lengthAdjust="spacingAndGlyphs" textLength="179" x="35" y="25.9951">BackboneElement.Builder</text><text fill="#000000" font-family="sans-serif" font-size="10" font-style="italic" lengthAdjust="spacingAndGlyphs" textLength="119" x="65" y="38.5791">com.ibm.fhir.model.type</text><line style="stroke: #A80036; stroke-width: 1.5;" x1="7" x2="216" y1="45.9375" y2="45.9375"/><ellipse cx="17" cy="56.9375" fill="#84BE84" rx="3" ry="3" style="stroke: #038048; stroke-width: 1.0;"/><text fill="#000000" font-family="sans-serif" font-size="11" font-style="italic" lengthAdjust="spacingAndGlyphs" textLength="144" x="26" y="60.1479">build(): BackboneElement</text></a><!--MD5=[b2292133c02cd4310d808babc7535a7e]
class com.ibm.fhir.model.resource.VisionPrescription.LensSpecification.Prism--><a href="VisionPrescription.LensSpecification.Prism.html" target="_top" title="VisionPrescription.LensSpecification.Prism.html" xlink:actuate="onRequest" xlink:href="VisionPrescription.LensSpecification.Prism.html" xlink:show="new" xlink:title="VisionPrescription.LensSpecification.Prism.html" xlink:type="simple"><rect fill="#FEFECE" filter="url(#f14xkrxm217mzw)" height="37.9375" id="com.ibm.fhir.model.resource.VisionPrescription.LensSpecification.Prism" style="stroke: #A80036; stroke-width: 1.5;" width="321" x="252" y="18.5"/><ellipse cx="267" cy="37.4688" fill="#ADD1B2" rx="11" ry="11" style="stroke: #A80036; stroke-width: 1.0;"/><path d="M269.9688,43.1094 Q269.3906,43.4063 268.75,43.5469 Q268.1094,43.7031 267.4063,43.7031 Q264.9063,43.7031 263.5781,42.0625 Q262.2656,40.4063 262.2656,37.2813 Q262.2656,34.1563 263.5781,32.5 Q264.9063,30.8438 267.4063,30.8438 Q268.1094,30.8438 268.75,31 Q269.4063,31.1563 269.9688,31.4531 L269.9688,34.1719 Q269.3438,33.5938 268.75,33.3281 Q268.1563,33.0469 267.5313,33.0469 Q266.1875,33.0469 265.5,34.125 Q264.8125,35.1875 264.8125,37.2813 Q264.8125,39.375 265.5,40.4531 Q266.1875,41.5156 267.5313,41.5156 Q268.1563,41.5156 268.75,41.25 Q269.3438,40.9688 269.9688,40.3906 L269.9688,43.1094 Z "/><text fill="#000000" font-family="sans-serif" font-size="14" lengthAdjust="spacingAndGlyphs" textLength="289" x="281" y="36.4951">VisionPrescription.LensSpecification.Prism</text><text fill="#000000" font-family="sans-serif" font-size="10" lengthAdjust="spacingAndGlyphs" textLength="139" x="356" y="49.0791">com.ibm.fhir.model.resource</text></a><!--MD5=[2d07305a1fe6dba552dff2f898fe3e28]
reverse link com.ibm.fhir.model.type.BackboneElement.Builder to com.ibm.fhir.model.resource.VisionPrescription.LensSpecification.Prism.Builder--><path d="M150.9676,82.23 C163.0467,95.9196 176.725,111.4216 190.2408,126.7396 " fill="none" id="com.ibm.fhir.model.type.BackboneElement.Builder&lt;-com.ibm.fhir.model.resource.VisionPrescription.LensSpecification.Prism.Builder" style="stroke: #A80036; stroke-width: 1.0;"/><polygon fill="none" points="145.6116,86.7399,137.628,67.1117,156.1093,77.4772,145.6116,86.7399" style="stroke: #A80036; stroke-width: 1.0;"/><!--MD5=[26d4b9b3eea0e2576237f311e444647b]
reverse link com.ibm.fhir.model.resource.VisionPrescription.LensSpecification.Prism to com.ibm.fhir.model.resource.VisionPrescription.LensSpecification.Prism.Builder--><path d="M385.164,68.2756 C370.5322,84.7485 351.7572,105.886 333.28,126.6881 " fill="none" id="com.ibm.fhir.model.resource.VisionPrescription.LensSpecification.Prism&lt;-com.ibm.fhir.model.resource.VisionPrescription.LensSpecification.Prism.Builder" style="stroke: #A80036; stroke-width: 1.0;"/><ellipse cx="390.1592" cy="62.6519" fill="#FFFFFF" rx="8" ry="8" style="stroke: #A80036; stroke-width: 1.0;"/><line style="stroke: #A80036; stroke-width: 1.0;" x1="384.8464" x2="395.4719" y1="68.6331" y2="56.6707"/><line style="stroke: #A80036; stroke-width: 1.0;" x1="384.178" x2="396.1404" y1="57.3392" y2="67.9646"/><text fill="#888888" font-family="sans-serif" font-size="10" lengthAdjust="spacingAndGlyphs" textLength="186" x="202.5" y="307.2822">UMLDoclet 2.0.7, PlantUML 1.2019.12</text><!--MD5=[0fb76824a67c235ba36db75c1241cc7e]
@startuml
    set namespaceSeparator none
    hide empty fields
    hide empty methods

    class "<size:14>VisionPrescription.LensSpecification.Prism.Builder\n<size:10>com.ibm.fhir.model.resource" as com.ibm.fhir.model.resource.VisionPrescription.LensSpecification.Prism.Builder [[VisionPrescription.LensSpecification.Prism.Builder.html]] {
        +id(String): Builder
        +extension(Extension...): Builder
        +extension(Collection<Extension>): Builder
        +modifierExtension(Extension...): Builder
        +modifierExtension(Collection<Extension>): Builder
        +amount(Decimal): Builder
        +base(VisionBase): Builder
        +build(): Prism
        #from(Prism): Builder
    }

    abstract class "<size:14>BackboneElement.Builder\n<size:10>com.ibm.fhir.model.type" as com.ibm.fhir.model.type.BackboneElement.Builder [[../type/BackboneElement.Builder.html]] {
        {abstract} +build(): BackboneElement
    }
    class "<size:14>VisionPrescription.LensSpecification.Prism\n<size:10>com.ibm.fhir.model.resource" as com.ibm.fhir.model.resource.VisionPrescription.LensSpecification.Prism [[VisionPrescription.LensSpecification.Prism.html]]

    com.ibm.fhir.model.type.BackboneElement.Builder <|- - com.ibm.fhir.model.resource.VisionPrescription.LensSpecification.Prism.Builder
    com.ibm.fhir.model.resource.VisionPrescription.LensSpecification.Prism +- - com.ibm.fhir.model.resource.VisionPrescription.LensSpecification.Prism.Builder

    center footer UMLDoclet 2.0.7, PlantUML 1.2019.12
@enduml

PlantUML version 1.2019.12(Sun Nov 03 10:24:54 UTC 2019)
(APACHE source distribution)
Java Runtime: OpenJDK Runtime Environment
JVM: OpenJDK 64-Bit Server VM
Java Version: 11.0.8+10
Operating System: Linux
Default Encoding: UTF-8
Language: en
Country: null
--></g></svg>