<?xml version="1.0" encoding="UTF-8" standalone="no"?><svg xmlns="http://www.w3.org/2000/svg" xmlns:xlink="http://www.w3.org/1999/xlink" contentScriptType="application/ecmascript" contentStyleType="text/css" height="179px" preserveAspectRatio="none" style="width:344px;height:179px;" version="1.1" viewBox="0 0 344 179" width="344px" zoomAndPan="magnify"><defs><filter height="300%" id="f8hgbgl8jp3zt" width="300%" x="-1" y="-1"><feGaussianBlur result="blurOut" stdDeviation="2.0"/><feColorMatrix in="blurOut" result="blurOut2" type="matrix" values="0 0 0 0 0 0 0 0 0 0 0 0 0 0 0 0 0 0 .4 0"/><feOffset dx="4.0" dy="4.0" in="blurOut2" result="blurOut3"/><feBlend in="SourceGraphic" in2="blurOut3" mode="normal"/></filter></defs><g><!--MD5=[07c82e1bfc4e677bf7ef69d59a8e6012]
cluster com.ibm.fhir.search.location.uom--><polygon fill="#FFFFFF" filter="url(#f8hgbgl8jp3zt)" points="14,16,255,16,262,38.4883,322,38.4883,322,138,14,138,14,16" style="stroke: #000000; stroke-width: 1.5;"/><line style="stroke: #000000; stroke-width: 1.5;" x1="14" x2="262" y1="38.4883" y2="38.4883"/><text fill="#000000" font-family="sans-serif" font-size="14" font-weight="bold" lengthAdjust="spacingAndGlyphs" textLength="235" x="18" y="31.5352">com.ibm.fhir.search.location.uom</text><!--MD5=[69a811f2c59d54b5ae70e33394ebfcb8]
class com.ibm.fhir.search.location.uom.UOMManager--><a href="UOMManager.html" target="_top" title="UOMManager.html" xlink:actuate="onRequest" xlink:href="UOMManager.html" xlink:show="new" xlink:title="UOMManager.html" xlink:type="simple"><rect fill="#FEFECE" filter="url(#f8hgbgl8jp3zt)" height="86.8652" id="com.ibm.fhir.search.location.uom.UOMManager" style="stroke: #A80036; stroke-width: 1.5;" width="292" x="22" y="43"/><ellipse cx="125.25" cy="59" fill="#ADD1B2" rx="11" ry="11" style="stroke: #A80036; stroke-width: 1.0;"/><path d="M127.7231,65.1431 Q127.1421,65.4419 126.5029,65.5913 Q125.8638,65.7407 125.1582,65.7407 Q122.6514,65.7407 121.3315,64.0889 Q120.0117,62.437 120.0117,59.3159 Q120.0117,56.1865 121.3315,54.5347 Q122.6514,52.8828 125.1582,52.8828 Q125.8638,52.8828 126.5112,53.0322 Q127.1587,53.1816 127.7231,53.4805 L127.7231,56.2031 Q127.0923,55.6221 126.4988,55.3523 Q125.9053,55.0825 125.2744,55.0825 Q123.9297,55.0825 123.2449,56.1492 Q122.5601,57.2158 122.5601,59.3159 Q122.5601,61.4077 123.2449,62.4744 Q123.9297,63.541 125.2744,63.541 Q125.9053,63.541 126.4988,63.2712 Q127.0923,63.0015 127.7231,62.4204 Z "/><text fill="#000000" font-family="sans-serif" font-size="12" lengthAdjust="spacingAndGlyphs" textLength="77" x="145.75" y="63.5352">UOMManager</text><line style="stroke: #A80036; stroke-width: 1.5;" x1="23" x2="313" y1="75" y2="75"/><line style="stroke: #A80036; stroke-width: 1.5;" x1="23" x2="313" y1="83" y2="83"/><ellipse cx="33" cy="94" fill="#84BE84" rx="3" ry="3" style="stroke: #038048; stroke-width: 1.0;"/><text fill="#000000" font-family="sans-serif" font-size="11" lengthAdjust="spacingAndGlyphs" text-decoration="underline" textLength="207" x="42" y="97.6348">getUnitToMetersFactor(String): Double</text><ellipse cx="33" cy="106.9551" fill="#84BE84" rx="3" ry="3" style="stroke: #038048; stroke-width: 1.0;"/><text fill="#000000" font-family="sans-serif" font-size="11" lengthAdjust="spacingAndGlyphs" text-decoration="underline" textLength="246" x="42" y="110.5898">convertUnitsToMeters(String, double): Double</text><ellipse cx="33" cy="119.9102" fill="#84BE84" rx="3" ry="3" style="stroke: #038048; stroke-width: 1.0;"/><text fill="#000000" font-family="sans-serif" font-size="11" lengthAdjust="spacingAndGlyphs" text-decoration="underline" textLength="266" x="42" y="123.5449">convertUnitsToKiloMeters(String, double): Double</text></a><text fill="#888888" font-family="sans-serif" font-size="10" lengthAdjust="spacingAndGlyphs" textLength="182" x="83" y="165.668">UMLDoclet 2.0.7, PlantUML 1.2019.12</text><!--MD5=[e26c73d0240984bde16f95751ede7c98]
@startuml
    namespace com.ibm.fhir.search.location.uom {

        class UOMManager [[UOMManager.html]] {
            {static} +getUnitToMetersFactor(String): Double
            {static} +convertUnitsToMeters(String, double): Double
            {static} +convertUnitsToKiloMeters(String, double): Double
        }

    }

    center footer UMLDoclet 2.0.7, PlantUML 1.2019.12
@enduml

PlantUML version 1.2019.12(Sun Nov 03 05:24:54 EST 2019)
(APACHE source distribution)
Java Runtime: OpenJDK Runtime Environment
JVM: OpenJDK 64-Bit Server VM
Java Version: 11.0.4+11
Operating System: Mac OS X
Default Encoding: UTF-8
Language: en
Country: US
--></g></svg>