<?xml version="1.0" encoding="UTF-8" standalone="no"?><svg xmlns="http://www.w3.org/2000/svg" xmlns:xlink="http://www.w3.org/1999/xlink" contentScriptType="application/ecmascript" contentStyleType="text/css" height="122px" preserveAspectRatio="none" style="width:310px;height:122px;" version="1.1" viewBox="0 0 310 122" width="310px" zoomAndPan="magnify"><defs><filter height="300%" id="f17uolz8nm23lv" width="300%" x="-1" y="-1"><feGaussianBlur result="blurOut" stdDeviation="2.0"/><feColorMatrix in="blurOut" result="blurOut2" type="matrix" values="0 0 0 0 0 0 0 0 0 0 0 0 0 0 0 0 0 0 .4 0"/><feOffset dx="4.0" dy="4.0" in="blurOut2" result="blurOut3"/><feBlend in="SourceGraphic" in2="blurOut3" mode="normal"/></filter></defs><g><!--MD5=[69a811f2c59d54b5ae70e33394ebfcb8]
class com.ibm.fhir.search.location.uom.UOMManager--><a href="UOMManager.html" target="_top" title="UOMManager.html" xlink:actuate="onRequest" xlink:href="UOMManager.html" xlink:show="new" xlink:title="UOMManager.html" xlink:type="simple"><rect fill="#FEFECE" filter="url(#f17uolz8nm23lv)" height="85.1309" id="com.ibm.fhir.search.location.uom.UOMManager" style="stroke: #A80036; stroke-width: 1.5;" width="292" x="7" y="7"/><ellipse cx="67.75" cy="26.1328" fill="#ADD1B2" rx="11" ry="11" style="stroke: #A80036; stroke-width: 1.0;"/><path d="M70.2231,32.2759 Q69.6421,32.5747 69.0029,32.7241 Q68.3638,32.8735 67.6582,32.8735 Q65.1514,32.8735 63.8315,31.2217 Q62.5117,29.5698 62.5117,26.4487 Q62.5117,23.3193 63.8315,21.6675 Q65.1514,20.0156 67.6582,20.0156 Q68.3638,20.0156 69.0112,20.165 Q69.6587,20.3145 70.2231,20.6133 L70.2231,23.3359 Q69.5923,22.7549 68.9988,22.4851 Q68.4053,22.2153 67.7744,22.2153 Q66.4297,22.2153 65.7449,23.282 Q65.0601,24.3486 65.0601,26.4487 Q65.0601,28.5405 65.7449,29.6072 Q66.4297,30.6738 67.7744,30.6738 Q68.4053,30.6738 68.9988,30.4041 Q69.5923,30.1343 70.2231,29.5532 Z "/><text fill="#000000" font-family="sans-serif" font-size="14" lengthAdjust="spacingAndGlyphs" textLength="93" x="122.75" y="25.5352">UOMManager</text><text fill="#000000" font-family="sans-serif" font-size="10" lengthAdjust="spacingAndGlyphs" textLength="162" x="88.25" y="38.1563">com.ibm.fhir.search.location.uom</text><line style="stroke: #A80036; stroke-width: 1.5;" x1="8" x2="298" y1="45.2656" y2="45.2656"/><ellipse cx="18" cy="56.2656" fill="#84BE84" rx="3" ry="3" style="stroke: #038048; stroke-width: 1.0;"/><text fill="#000000" font-family="sans-serif" font-size="11" lengthAdjust="spacingAndGlyphs" text-decoration="underline" textLength="207" x="27" y="59.9004">getUnitToMetersFactor(String): Double</text><ellipse cx="18" cy="69.2207" fill="#84BE84" rx="3" ry="3" style="stroke: #038048; stroke-width: 1.0;"/><text fill="#000000" font-family="sans-serif" font-size="11" lengthAdjust="spacingAndGlyphs" text-decoration="underline" textLength="246" x="27" y="72.8555">convertUnitsToMeters(String, double): Double</text><ellipse cx="18" cy="82.1758" fill="#84BE84" rx="3" ry="3" style="stroke: #038048; stroke-width: 1.0;"/><text fill="#000000" font-family="sans-serif" font-size="11" lengthAdjust="spacingAndGlyphs" text-decoration="underline" textLength="266" x="27" y="85.8105">convertUnitsToKiloMeters(String, double): Double</text></a><text fill="#888888" font-family="sans-serif" font-size="10" lengthAdjust="spacingAndGlyphs" textLength="182" x="62" y="108.7988">UMLDoclet 2.0.7, PlantUML 1.2019.12</text><!--MD5=[1c15942d35b94f659dd3a4c841bc248e]
@startuml
    set namespaceSeparator none
    hide empty fields
    hide empty methods

    class "<size:14>UOMManager\n<size:10>com.ibm.fhir.search.location.uom" as com.ibm.fhir.search.location.uom.UOMManager [[UOMManager.html]] {
        {static} +getUnitToMetersFactor(String): Double
        {static} +convertUnitsToMeters(String, double): Double
        {static} +convertUnitsToKiloMeters(String, double): Double
    }

    center footer UMLDoclet 2.0.7, PlantUML 1.2019.12
@enduml

PlantUML version 1.2019.12(Sun Nov 03 05:24:54 EST 2019)
(APACHE source distribution)
Java Runtime: OpenJDK Runtime Environment
JVM: OpenJDK 64-Bit Server VM
Java Version: 11.0.4+11
Operating System: Mac OS X
Default Encoding: UTF-8
Language: en
Country: US
--></g></svg>