<?xml version="1.0" encoding="UTF-8" standalone="no"?><svg xmlns="http://www.w3.org/2000/svg" xmlns:xlink="http://www.w3.org/1999/xlink" contentScriptType="application/ecmascript" contentStyleType="text/css" height="248px" preserveAspectRatio="none" style="width:209px;height:248px;" version="1.1" viewBox="0 0 209 248" width="209px" zoomAndPan="magnify"><defs><filter height="300%" id="f16ab64zl7mdvm" width="300%" x="-1" y="-1"><feGaussianBlur result="blurOut" stdDeviation="2.0"/><feColorMatrix in="blurOut" result="blurOut2" type="matrix" values="0 0 0 0 0 0 0 0 0 0 0 0 0 0 0 0 0 0 .4 0"/><feOffset dx="4.0" dy="4.0" in="blurOut2" result="blurOut3"/><feBlend in="SourceGraphic" in2="blurOut3" mode="normal"/></filter></defs><g><!--MD5=[91b21303e4e51211add68971f42e593f]
class com.ibm.fhir.audit.cadf.CadfReason.Builder--><a href="CadfReason.Builder.html" target="_top" title="CadfReason.Builder.html" xlink:actuate="onRequest" xlink:href="CadfReason.Builder.html" xlink:show="new" xlink:title="CadfReason.Builder.html" xlink:type="simple"><rect fill="#FEFECE" filter="url(#f16ab64zl7mdvm)" height="109.9609" id="com.ibm.fhir.audit.cadf.CadfReason.Builder" style="stroke: #A80036; stroke-width: 1.5;" width="185" x="6" y="106"/><ellipse cx="28.65" cy="124.9688" fill="#ADD1B2" rx="11" ry="11" style="stroke: #A80036; stroke-width: 1.0;"/><path d="M31.6188,130.6094 Q31.0406,130.9063 30.4,131.0469 Q29.7594,131.2031 29.0563,131.2031 Q26.5563,131.2031 25.2281,129.5625 Q23.9156,127.9063 23.9156,124.7813 Q23.9156,121.6563 25.2281,120 Q26.5563,118.3438 29.0563,118.3438 Q29.7594,118.3438 30.4,118.5 Q31.0563,118.6563 31.6188,118.9531 L31.6188,121.6719 Q30.9938,121.0938 30.4,120.8281 Q29.8063,120.5469 29.1813,120.5469 Q27.8375,120.5469 27.15,121.625 Q26.4625,122.6875 26.4625,124.7813 Q26.4625,126.875 27.15,127.9531 Q27.8375,129.0156 29.1813,129.0156 Q29.8063,129.0156 30.4,128.75 Q30.9938,128.4688 31.6188,127.8906 L31.6188,130.6094 Z "/><text fill="#000000" font-family="sans-serif" font-size="14" lengthAdjust="spacingAndGlyphs" textLength="136" x="44.35" y="123.9951">CadfReason.Builder</text><text fill="#000000" font-family="sans-serif" font-size="10" lengthAdjust="spacingAndGlyphs" textLength="112" x="56.35" y="136.5791">com.ibm.fhir.audit.cadf</text><line style="stroke: #A80036; stroke-width: 1.5;" x1="7" x2="190" y1="143.9375" y2="143.9375"/><ellipse cx="17" cy="154.9375" fill="#84BE84" rx="3" ry="3" style="stroke: #038048; stroke-width: 1.0;"/><text fill="#000000" font-family="sans-serif" font-size="11" lengthAdjust="spacingAndGlyphs" textLength="132" x="26" y="158.1479">policyId(String): Builder</text><ellipse cx="17" cy="167.7422" fill="#84BE84" rx="3" ry="3" style="stroke: #038048; stroke-width: 1.0;"/><text fill="#000000" font-family="sans-serif" font-size="11" lengthAdjust="spacingAndGlyphs" textLength="149" x="26" y="170.9526">policyType(String): Builder</text><ellipse cx="17" cy="180.5469" fill="#84BE84" rx="3" ry="3" style="stroke: #038048; stroke-width: 1.0;"/><text fill="#000000" font-family="sans-serif" font-size="11" lengthAdjust="spacingAndGlyphs" textLength="159" x="26" y="183.7573">reasonCode(String): Builder</text><ellipse cx="17" cy="193.3516" fill="#84BE84" rx="3" ry="3" style="stroke: #038048; stroke-width: 1.0;"/><text fill="#000000" font-family="sans-serif" font-size="11" lengthAdjust="spacingAndGlyphs" textLength="157" x="26" y="196.562">reasonType(String): Builder</text><ellipse cx="17" cy="206.1563" fill="#84BE84" rx="3" ry="3" style="stroke: #038048; stroke-width: 1.0;"/><text fill="#000000" font-family="sans-serif" font-size="11" lengthAdjust="spacingAndGlyphs" textLength="111" x="26" y="209.3667">build(): CadfReason</text></a><!--MD5=[4b9360c27190f0a70d935c1c2a1c9884]
class com.ibm.fhir.audit.cadf.CadfReason--><a href="CadfReason.html" target="_top" title="CadfReason.html" xlink:actuate="onRequest" xlink:href="CadfReason.html" xlink:show="new" xlink:title="CadfReason.html" xlink:type="simple"><rect fill="#FEFECE" filter="url(#f16ab64zl7mdvm)" height="37.9375" id="com.ibm.fhir.audit.cadf.CadfReason" style="stroke: #A80036; stroke-width: 1.5;" width="144" x="26.5" y="8"/><ellipse cx="41.5" cy="26.9688" fill="#ADD1B2" rx="11" ry="11" style="stroke: #A80036; stroke-width: 1.0;"/><path d="M44.4688,32.6094 Q43.8906,32.9063 43.25,33.0469 Q42.6094,33.2031 41.9063,33.2031 Q39.4063,33.2031 38.0781,31.5625 Q36.7656,29.9063 36.7656,26.7813 Q36.7656,23.6563 38.0781,22 Q39.4063,20.3438 41.9063,20.3438 Q42.6094,20.3438 43.25,20.5 Q43.9063,20.6563 44.4688,20.9531 L44.4688,23.6719 Q43.8438,23.0938 43.25,22.8281 Q42.6563,22.5469 42.0313,22.5469 Q40.6875,22.5469 40,23.625 Q39.3125,24.6875 39.3125,26.7813 Q39.3125,28.875 40,29.9531 Q40.6875,31.0156 42.0313,31.0156 Q42.6563,31.0156 43.25,30.75 Q43.8438,30.4688 44.4688,29.8906 L44.4688,32.6094 Z "/><text fill="#000000" font-family="sans-serif" font-size="14" lengthAdjust="spacingAndGlyphs" textLength="84" x="69.5" y="25.9951">CadfReason</text><text fill="#000000" font-family="sans-serif" font-size="10" lengthAdjust="spacingAndGlyphs" textLength="112" x="55.5" y="38.5791">com.ibm.fhir.audit.cadf</text></a><!--MD5=[fcd2d4ec4830298db6889bb165d73a22]
reverse link com.ibm.fhir.audit.cadf.CadfReason to com.ibm.fhir.audit.cadf.CadfReason.Builder--><path d="M98.5,61.3551 C98.5,74.9168 98.5,90.84 98.5,105.9291 " fill="none" id="com.ibm.fhir.audit.cadf.CadfReason&lt;-com.ibm.fhir.audit.cadf.CadfReason.Builder" style="stroke: #A80036; stroke-width: 1.0;"/><ellipse cx="98.5001" cy="54.1989" fill="#FFFFFF" rx="8" ry="8" style="stroke: #A80036; stroke-width: 1.0;"/><line style="stroke: #A80036; stroke-width: 1.0;" x1="98.5002" x2="98.5" y1="62.1989" y2="46.1989"/><line style="stroke: #A80036; stroke-width: 1.0;" x1="90.5001" x2="106.5001" y1="54.199" y2="54.1988"/><text fill="#888888" font-family="sans-serif" font-size="10" lengthAdjust="spacingAndGlyphs" textLength="186" x="11.5" y="235.2822">UMLDoclet 2.0.7, PlantUML 1.2019.12</text><!--MD5=[47e0c99e7aea827ca8bd72d7cf0f552a]
@startuml
    set namespaceSeparator none
    hide empty fields
    hide empty methods

    class "<size:14>CadfReason.Builder\n<size:10>com.ibm.fhir.audit.cadf" as com.ibm.fhir.audit.cadf.CadfReason.Builder [[CadfReason.Builder.html]] {
        +policyId(String): Builder
        +policyType(String): Builder
        +reasonCode(String): Builder
        +reasonType(String): Builder
        +build(): CadfReason
    }

    class "<size:14>CadfReason\n<size:10>com.ibm.fhir.audit.cadf" as com.ibm.fhir.audit.cadf.CadfReason [[CadfReason.html]]

    com.ibm.fhir.audit.cadf.CadfReason +- - com.ibm.fhir.audit.cadf.CadfReason.Builder

    center footer UMLDoclet 2.0.7, PlantUML 1.2019.12
@enduml

PlantUML version 1.2019.12(Sun Nov 03 10:24:54 UTC 2019)
(APACHE source distribution)
Java Runtime: OpenJDK Runtime Environment
JVM: OpenJDK 64-Bit Server VM
Java Version: 11.0.10+9
Operating System: Linux
Default Encoding: UTF-8
Language: en
Country: null
--></g></svg>