<?xml version="1.0" encoding="UTF-8" standalone="no"?><svg xmlns="http://www.w3.org/2000/svg" xmlns:xlink="http://www.w3.org/1999/xlink" contentScriptType="application/ecmascript" contentStyleType="text/css" height="210px" preserveAspectRatio="none" style="width:280px;height:210px;" version="1.1" viewBox="0 0 280 210" width="280px" zoomAndPan="magnify"><defs><filter height="300%" id="f1gv7rdrjtite7" width="300%" x="-1" y="-1"><feGaussianBlur result="blurOut" stdDeviation="2.0"/><feColorMatrix in="blurOut" result="blurOut2" type="matrix" values="0 0 0 0 0 0 0 0 0 0 0 0 0 0 0 0 0 0 .4 0"/><feOffset dx="4.0" dy="4.0" in="blurOut2" result="blurOut3"/><feBlend in="SourceGraphic" in2="blurOut3" mode="normal"/></filter></defs><g><!--MD5=[00634d90555e56f3cc5bc45f1d768be4]
class com.ibm.fhir.audit.cadf.CadfEvent.Writer--><a href="CadfEvent.Writer.html" target="_top" title="CadfEvent.Writer.html" xlink:actuate="onRequest" xlink:href="CadfEvent.Writer.html" xlink:show="new" xlink:title="CadfEvent.Writer.html" xlink:type="simple"><rect fill="#FEFECE" filter="url(#f1gv7rdrjtite7)" height="71.5469" id="com.ibm.fhir.audit.cadf.CadfEvent.Writer" style="stroke: #A80036; stroke-width: 1.5;" width="263" x="6" y="106"/><ellipse cx="76.25" cy="124.9688" fill="#ADD1B2" rx="11" ry="11" style="stroke: #A80036; stroke-width: 1.0;"/><path d="M79.2188,130.6094 Q78.6406,130.9063 78,131.0469 Q77.3594,131.2031 76.6563,131.2031 Q74.1563,131.2031 72.8281,129.5625 Q71.5156,127.9063 71.5156,124.7813 Q71.5156,121.6563 72.8281,120 Q74.1563,118.3438 76.6563,118.3438 Q77.3594,118.3438 78,118.5 Q78.6563,118.6563 79.2188,118.9531 L79.2188,121.6719 Q78.5938,121.0938 78,120.8281 Q77.4063,120.5469 76.7813,120.5469 Q75.4375,120.5469 74.75,121.625 Q74.0625,122.6875 74.0625,124.7813 Q74.0625,126.875 74.75,127.9531 Q75.4375,129.0156 76.7813,129.0156 Q77.4063,129.0156 78,128.75 Q78.5938,128.4688 79.2188,127.8906 L79.2188,130.6094 Z "/><text fill="#000000" font-family="sans-serif" font-size="14" lengthAdjust="spacingAndGlyphs" textLength="114" x="96.75" y="123.9951">CadfEvent.Writer</text><text fill="#000000" font-family="sans-serif" font-size="10" lengthAdjust="spacingAndGlyphs" textLength="112" x="97.75" y="136.5791">com.ibm.fhir.audit.cadf</text><line style="stroke: #A80036; stroke-width: 1.5;" x1="7" x2="268" y1="143.9375" y2="143.9375"/><ellipse cx="17" cy="154.9375" fill="#84BE84" rx="3" ry="3" style="stroke: #038048; stroke-width: 1.0;"/><text fill="#000000" font-family="sans-serif" font-size="11" lengthAdjust="spacingAndGlyphs" text-decoration="underline" textLength="158" x="26" y="158.1479">generate(CadfEvent): String</text><ellipse cx="17" cy="167.7422" fill="#84BE84" rx="3" ry="3" style="stroke: #038048; stroke-width: 1.0;"/><text fill="#000000" font-family="sans-serif" font-size="11" lengthAdjust="spacingAndGlyphs" text-decoration="underline" textLength="237" x="26" y="170.9526">generate(CadfEvent, JsonGenerator): void</text></a><!--MD5=[33fa3a51273728ef797516a8f1d3e11a]
class com.ibm.fhir.audit.cadf.CadfEvent--><a href="CadfEvent.html" target="_top" title="CadfEvent.html" xlink:actuate="onRequest" xlink:href="CadfEvent.html" xlink:show="new" xlink:title="CadfEvent.html" xlink:type="simple"><rect fill="#FEFECE" filter="url(#f1gv7rdrjtite7)" height="37.9375" id="com.ibm.fhir.audit.cadf.CadfEvent" style="stroke: #A80036; stroke-width: 1.5;" width="144" x="65.5" y="8"/><ellipse cx="80.5" cy="26.9688" fill="#ADD1B2" rx="11" ry="11" style="stroke: #A80036; stroke-width: 1.0;"/><path d="M83.4688,32.6094 Q82.8906,32.9063 82.25,33.0469 Q81.6094,33.2031 80.9063,33.2031 Q78.4063,33.2031 77.0781,31.5625 Q75.7656,29.9063 75.7656,26.7813 Q75.7656,23.6563 77.0781,22 Q78.4063,20.3438 80.9063,20.3438 Q81.6094,20.3438 82.25,20.5 Q82.9063,20.6563 83.4688,20.9531 L83.4688,23.6719 Q82.8438,23.0938 82.25,22.8281 Q81.6563,22.5469 81.0313,22.5469 Q79.6875,22.5469 79,23.625 Q78.3125,24.6875 78.3125,26.7813 Q78.3125,28.875 79,29.9531 Q79.6875,31.0156 81.0313,31.0156 Q81.6563,31.0156 82.25,30.75 Q82.8438,30.4688 83.4688,29.8906 L83.4688,32.6094 Z "/><text fill="#000000" font-family="sans-serif" font-size="14" lengthAdjust="spacingAndGlyphs" textLength="70" x="115.5" y="25.9951">CadfEvent</text><text fill="#000000" font-family="sans-serif" font-size="10" lengthAdjust="spacingAndGlyphs" textLength="112" x="94.5" y="38.5791">com.ibm.fhir.audit.cadf</text></a><!--MD5=[5754967382a0b39c65f492d8535a7853]
reverse link com.ibm.fhir.audit.cadf.CadfEvent to com.ibm.fhir.audit.cadf.CadfEvent.Writer--><path d="M137.5,61.4665 C137.5,75.5047 137.5,91.7372 137.5,105.935 " fill="none" id="com.ibm.fhir.audit.cadf.CadfEvent&lt;-com.ibm.fhir.audit.cadf.CadfEvent.Writer" style="stroke: #A80036; stroke-width: 1.0;"/><ellipse cx="137.5" cy="54.2484" fill="#FFFFFF" rx="8" ry="8" style="stroke: #A80036; stroke-width: 1.0;"/><line style="stroke: #A80036; stroke-width: 1.0;" x1="137.5" x2="137.5" y1="62.2484" y2="46.2484"/><line style="stroke: #A80036; stroke-width: 1.0;" x1="129.5" x2="145.5" y1="54.2484" y2="54.2484"/><text fill="#888888" font-family="sans-serif" font-size="10" lengthAdjust="spacingAndGlyphs" textLength="186" x="50.5" y="197.2822">UMLDoclet 2.0.7, PlantUML 1.2019.12</text><!--MD5=[4c30930ee7390bc8d2dfb293666ea3ff]
@startuml
    set namespaceSeparator none
    hide empty fields
    hide empty methods

    class "<size:14>CadfEvent.Writer\n<size:10>com.ibm.fhir.audit.cadf" as com.ibm.fhir.audit.cadf.CadfEvent.Writer [[CadfEvent.Writer.html]] {
        {static} +generate(CadfEvent): String
        {static} +generate(CadfEvent, JsonGenerator): void
    }

    class "<size:14>CadfEvent\n<size:10>com.ibm.fhir.audit.cadf" as com.ibm.fhir.audit.cadf.CadfEvent [[CadfEvent.html]]

    com.ibm.fhir.audit.cadf.CadfEvent +- - com.ibm.fhir.audit.cadf.CadfEvent.Writer

    center footer UMLDoclet 2.0.7, PlantUML 1.2019.12
@enduml

PlantUML version 1.2019.12(Sun Nov 03 10:24:54 UTC 2019)
(APACHE source distribution)
Java Runtime: OpenJDK Runtime Environment
JVM: OpenJDK 64-Bit Server VM
Java Version: 11.0.10+9
Operating System: Linux
Default Encoding: UTF-8
Language: en
Country: null
--></g></svg>