<?xml version="1.0" encoding="UTF-8" standalone="no"?><svg xmlns="http://www.w3.org/2000/svg" xmlns:xlink="http://www.w3.org/1999/xlink" contentScriptType="application/ecmascript" contentStyleType="text/css" height="197px" preserveAspectRatio="none" style="width:269px;height:197px;" version="1.1" viewBox="0 0 269 197" width="269px" zoomAndPan="magnify"><defs><filter height="300%" id="f333mfsqpombp" width="300%" x="-1" y="-1"><feGaussianBlur result="blurOut" stdDeviation="2.0"/><feColorMatrix in="blurOut" result="blurOut2" type="matrix" values="0 0 0 0 0 0 0 0 0 0 0 0 0 0 0 0 0 0 .4 0"/><feOffset dx="4.0" dy="4.0" in="blurOut2" result="blurOut3"/><feBlend in="SourceGraphic" in2="blurOut3" mode="normal"/></filter></defs><g><!--MD5=[105fcac4b58fd88cc916e48a9e107b50]
class com.ibm.fhir.search.group.GroupSearchCompilerException--><a href="GroupSearchCompilerException.html" target="_top" title="GroupSearchCompilerException.html" xlink:actuate="onRequest" xlink:href="GroupSearchCompilerException.html" xlink:show="new" xlink:title="GroupSearchCompilerException.html" xlink:type="simple"><rect fill="#FEFECE" filter="url(#f333mfsqpombp)" height="58.7422" id="com.ibm.fhir.search.group.GroupSearchCompilerException" style="stroke: #A80036; stroke-width: 1.5;" width="252" x="6" y="106"/><ellipse cx="21" cy="124.9688" fill="#ADD1B2" rx="11" ry="11" style="stroke: #A80036; stroke-width: 1.0;"/><path d="M23.9688,130.6094 Q23.3906,130.9063 22.75,131.0469 Q22.1094,131.2031 21.4063,131.2031 Q18.9063,131.2031 17.5781,129.5625 Q16.2656,127.9063 16.2656,124.7813 Q16.2656,121.6563 17.5781,120 Q18.9063,118.3438 21.4063,118.3438 Q22.1094,118.3438 22.75,118.5 Q23.4063,118.6563 23.9688,118.9531 L23.9688,121.6719 Q23.3438,121.0938 22.75,120.8281 Q22.1563,120.5469 21.5313,120.5469 Q20.1875,120.5469 19.5,121.625 Q18.8125,122.6875 18.8125,124.7813 Q18.8125,126.875 19.5,127.9531 Q20.1875,129.0156 21.5313,129.0156 Q22.1563,129.0156 22.75,128.75 Q23.3438,128.4688 23.9688,127.8906 L23.9688,130.6094 Z "/><text fill="#000000" font-family="sans-serif" font-size="14" lengthAdjust="spacingAndGlyphs" textLength="220" x="35" y="123.9951">GroupSearchCompilerException</text><text fill="#000000" font-family="sans-serif" font-size="10" lengthAdjust="spacingAndGlyphs" textLength="127" x="81.5" y="136.5791">com.ibm.fhir.search.group</text><line style="stroke: #A80036; stroke-width: 1.5;" x1="7" x2="257" y1="143.9375" y2="143.9375"/><ellipse cx="17" cy="154.9375" fill="#84BE84" rx="3" ry="3" style="stroke: #038048; stroke-width: 1.0;"/><text fill="#000000" font-family="sans-serif" font-size="11" lengthAdjust="spacingAndGlyphs" textLength="222" x="26" y="158.1479">GroupSearchCompilerException(String)</text></a><!--MD5=[46c05dfe24a0851e179497c4631d3ff2]
class java.lang.Exception--><a href="https://docs.oracle.com/javase/8/docs/api/java/lang/Exception.html?is-external=true" target="_top" title="https://docs.oracle.com/javase/8/docs/api/java/lang/Exception.html?is-external=true" xlink:actuate="onRequest" xlink:href="https://docs.oracle.com/javase/8/docs/api/java/lang/Exception.html?is-external=true" xlink:show="new" xlink:title="https://docs.oracle.com/javase/8/docs/api/java/lang/Exception.html?is-external=true" xlink:type="simple"><rect fill="#FEFECE" filter="url(#f333mfsqpombp)" height="37.9375" id="java.lang.Exception" style="stroke: #A80036; stroke-width: 1.5;" width="100" x="82" y="8"/><ellipse cx="97" cy="26.9688" fill="#ADD1B2" rx="11" ry="11" style="stroke: #A80036; stroke-width: 1.0;"/><path d="M99.9688,32.6094 Q99.3906,32.9063 98.75,33.0469 Q98.1094,33.2031 97.4063,33.2031 Q94.9063,33.2031 93.5781,31.5625 Q92.2656,29.9063 92.2656,26.7813 Q92.2656,23.6563 93.5781,22 Q94.9063,20.3438 97.4063,20.3438 Q98.1094,20.3438 98.75,20.5 Q99.4063,20.6563 99.9688,20.9531 L99.9688,23.6719 Q99.3438,23.0938 98.75,22.8281 Q98.1563,22.5469 97.5313,22.5469 Q96.1875,22.5469 95.5,23.625 Q94.8125,24.6875 94.8125,26.7813 Q94.8125,28.875 95.5,29.9531 Q96.1875,31.0156 97.5313,31.0156 Q98.1563,31.0156 98.75,30.75 Q99.3438,30.4688 99.9688,29.8906 L99.9688,32.6094 Z "/><text fill="#000000" font-family="sans-serif" font-size="14" lengthAdjust="spacingAndGlyphs" textLength="68" x="111" y="25.9951">Exception</text><text fill="#000000" font-family="sans-serif" font-size="10" lengthAdjust="spacingAndGlyphs" textLength="43" x="123.5" y="38.5791">java.lang</text></a><!--MD5=[726b55abc229f718a4de3fa1f9a50fad]
reverse link java.lang.Exception to com.ibm.fhir.search.group.GroupSearchCompilerException--><path d="M132,66.3533 C132,79.4123 132,93.7197 132,105.9146 " fill="none" id="java.lang.Exception&lt;-com.ibm.fhir.search.group.GroupSearchCompilerException" style="stroke: #A80036; stroke-width: 1.0;"/><polygon fill="none" points="125.0001,66.1479,132,46.1479,139.0001,66.1478,125.0001,66.1479" style="stroke: #A80036; stroke-width: 1.0;"/><text fill="#888888" font-family="sans-serif" font-size="10" lengthAdjust="spacingAndGlyphs" textLength="186" x="45" y="184.2822">UMLDoclet 2.0.7, PlantUML 1.2019.12</text><!--MD5=[5212aa34819c6816f9e052a266e856a2]
@startuml
    set namespaceSeparator none
    hide empty fields
    hide empty methods

    class "<size:14>GroupSearchCompilerException\n<size:10>com.ibm.fhir.search.group" as com.ibm.fhir.search.group.GroupSearchCompilerException [[GroupSearchCompilerException.html]] {
        +GroupSearchCompilerException(String)
    }

    class "<size:14>Exception\n<size:10>java.lang" as java.lang.Exception [[https://docs.oracle.com/javase/8/docs/api/java/lang/Exception.html?is-external=true]]

    java.lang.Exception <|- - com.ibm.fhir.search.group.GroupSearchCompilerException

    center footer UMLDoclet 2.0.7, PlantUML 1.2019.12
@enduml

PlantUML version 1.2019.12(Sun Nov 03 10:24:54 UTC 2019)
(APACHE source distribution)
Java Runtime: OpenJDK Runtime Environment
JVM: OpenJDK 64-Bit Server VM
Java Version: 11.0.9+11
Operating System: Linux
Default Encoding: UTF-8
Language: en
Country: null
--></g></svg>