<?xml version="1.0" encoding="UTF-8" standalone="no"?><svg xmlns="http://www.w3.org/2000/svg" xmlns:xlink="http://www.w3.org/1999/xlink" contentScriptType="application/ecmascript" contentStyleType="text/css" height="261px" preserveAspectRatio="none" style="width:666px;height:261px;" version="1.1" viewBox="0 0 666 261" width="666px" zoomAndPan="magnify"><defs><filter height="300%" id="f1457ip6s1uiyd" width="300%" x="-1" y="-1"><feGaussianBlur result="blurOut" stdDeviation="2.0"/><feColorMatrix in="blurOut" result="blurOut2" type="matrix" values="0 0 0 0 0 0 0 0 0 0 0 0 0 0 0 0 0 0 .4 0"/><feOffset dx="4.0" dy="4.0" in="blurOut2" result="blurOut3"/><feBlend in="SourceGraphic" in2="blurOut3" mode="normal"/></filter></defs><g><!--MD5=[e709499b8bc8fdcb610f54b192220f5c]
cluster com.ibm.fhir.bulkdata.audit--><polygon fill="#FFFFFF" filter="url(#f1457ip6s1uiyd)" points="22,24,242,24,249,46.2969,644,46.2969,644,213,22,213,22,24" style="stroke: #000000; stroke-width: 1.5;"/><line style="stroke: #000000; stroke-width: 1.5;" x1="22" x2="249" y1="46.2969" y2="46.2969"/><text fill="#000000" font-family="sans-serif" font-size="14" font-weight="bold" lengthAdjust="spacingAndGlyphs" textLength="214" x="26" y="38.9951">com.ibm.fhir.bulkdata.audit</text><!--MD5=[2718a48167ff7179d7e8d03041facc7e]
class com.ibm.fhir.bulkdata.audit.BulkAuditLogger--><a href="BulkAuditLogger.html" target="_top" title="BulkAuditLogger.html" xlink:actuate="onRequest" xlink:href="BulkAuditLogger.html" xlink:show="new" xlink:title="BulkAuditLogger.html" xlink:type="simple"><rect fill="#FEFECE" filter="url(#f1457ip6s1uiyd)" height="137.6328" id="com.ibm.fhir.bulkdata.audit.BulkAuditLogger" style="stroke: #A80036; stroke-width: 1.5;" width="590" x="38" y="59"/><ellipse cx="278.25" cy="75" fill="#ADD1B2" rx="11" ry="11" style="stroke: #A80036; stroke-width: 1.0;"/><path d="M281.2188,80.6406 Q280.6406,80.9375 280,81.0781 Q279.3594,81.2344 278.6563,81.2344 Q276.1563,81.2344 274.8281,79.5938 Q273.5156,77.9375 273.5156,74.8125 Q273.5156,71.6875 274.8281,70.0313 Q276.1563,68.375 278.6563,68.375 Q279.3594,68.375 280,68.5313 Q280.6563,68.6875 281.2188,68.9844 L281.2188,71.7031 Q280.5938,71.125 280,70.8594 Q279.4063,70.5781 278.7813,70.5781 Q277.4375,70.5781 276.75,71.6563 Q276.0625,72.7188 276.0625,74.8125 Q276.0625,76.9063 276.75,77.9844 Q277.4375,79.0469 278.7813,79.0469 Q279.4063,79.0469 280,78.7813 Q280.5938,78.5 281.2188,77.9219 L281.2188,80.6406 Z "/><text fill="#000000" font-family="sans-serif" font-size="12" lengthAdjust="spacingAndGlyphs" textLength="101" x="298.75" y="79.1543">BulkAuditLogger</text><line style="stroke: #A80036; stroke-width: 1.5;" x1="39" x2="627" y1="91" y2="91"/><line style="stroke: #A80036; stroke-width: 1.5;" x1="39" x2="627" y1="99" y2="99"/><ellipse cx="49" cy="110" fill="#84BE84" rx="3" ry="3" style="stroke: #038048; stroke-width: 1.0;"/><text fill="#000000" font-family="sans-serif" font-size="11" lengthAdjust="spacingAndGlyphs" textLength="119" x="58" y="113.2104">shouldLog(): boolean</text><ellipse cx="49" cy="122.8047" fill="#84BE84" rx="3" ry="3" style="stroke: #038048; stroke-width: 1.0;"/><text fill="#000000" font-family="sans-serif" font-size="11" lengthAdjust="spacingAndGlyphs" textLength="397" x="58" y="126.0151">logCreateOnImport(Resource, Date, Date, Status, String, String): void</text><ellipse cx="49" cy="135.6094" fill="#84BE84" rx="3" ry="3" style="stroke: #038048; stroke-width: 1.0;"/><text fill="#000000" font-family="sans-serif" font-size="11" lengthAdjust="spacingAndGlyphs" textLength="404" x="58" y="138.8198">logValidateOnImport(Resource, Date, Date, Status, String, String): void</text><ellipse cx="49" cy="148.4141" fill="#84BE84" rx="3" ry="3" style="stroke: #038048; stroke-width: 1.0;"/><text fill="#000000" font-family="sans-serif" font-size="11" lengthAdjust="spacingAndGlyphs" textLength="460" x="58" y="151.6245">logUpdateOnImport(Resource, Resource, Date, Date, Status, String, String): void</text><ellipse cx="49" cy="161.2188" fill="#84BE84" rx="3" ry="3" style="stroke: #038048; stroke-width: 1.0;"/><text fill="#000000" font-family="sans-serif" font-size="11" lengthAdjust="spacingAndGlyphs" textLength="386" x="58" y="164.4292">logReadOnExport(Resource, Date, Date, Status, String, String): void</text><ellipse cx="49" cy="174.0234" fill="#84BE84" rx="3" ry="3" style="stroke: #038048; stroke-width: 1.0;"/><text fill="#000000" font-family="sans-serif" font-size="11" lengthAdjust="spacingAndGlyphs" textLength="564" x="58" y="177.2339">logSearchOnExport(String, Map&lt;String, List&lt;String&gt;&gt;, int, Date, Date, Status, String, String): void</text><ellipse cx="49" cy="186.8281" fill="#84BE84" rx="3" ry="3" style="stroke: #038048; stroke-width: 1.0;"/><text fill="#000000" font-family="sans-serif" font-size="11" lengthAdjust="spacingAndGlyphs" textLength="427" x="58" y="190.0386">logFastOnExport(String, String, int, Date, Date, Status, String, String): void</text></a><text fill="#888888" font-family="sans-serif" font-size="10" lengthAdjust="spacingAndGlyphs" textLength="186" x="246" y="248.2822">UMLDoclet 2.0.7, PlantUML 1.2019.12</text><!--MD5=[02f194e2e03a2d5c4da59144af12ef88]
@startuml
    namespace com.ibm.fhir.bulkdata.audit {

        class BulkAuditLogger [[BulkAuditLogger.html]] {
            +shouldLog(): boolean
            +logCreateOnImport(Resource, Date, Date, Status, String, String): void
            +logValidateOnImport(Resource, Date, Date, Status, String, String): void
            +logUpdateOnImport(Resource, Resource, Date, Date, Status, String, String): void
            +logReadOnExport(Resource, Date, Date, Status, String, String): void
            +logSearchOnExport(String, Map<String, List<String>>, int, Date, Date, Status, String, String): void
            +logFastOnExport(String, String, int, Date, Date, Status, String, String): void
        }

    }

    center footer UMLDoclet 2.0.7, PlantUML 1.2019.12
@enduml

PlantUML version 1.2019.12(Sun Nov 03 10:24:54 UTC 2019)
(APACHE source distribution)
Java Runtime: OpenJDK Runtime Environment
JVM: OpenJDK 64-Bit Server VM
Java Version: 11.0.10+9
Operating System: Linux
Default Encoding: UTF-8
Language: en
Country: null
--></g></svg>