<?xml version="1.0" encoding="UTF-8" standalone="no"?><svg xmlns="http://www.w3.org/2000/svg" xmlns:xlink="http://www.w3.org/1999/xlink" contentScriptType="application/ecmascript" contentStyleType="text/css" height="197px" preserveAspectRatio="none" style="width:353px;height:197px;" version="1.1" viewBox="0 0 353 197" width="353px" zoomAndPan="magnify"><defs><filter height="300%" id="fe7yzsrjtgdl8" width="300%" x="-1" y="-1"><feGaussianBlur result="blurOut" stdDeviation="2.0"/><feColorMatrix in="blurOut" result="blurOut2" type="matrix" values="0 0 0 0 0 0 0 0 0 0 0 0 0 0 0 0 0 0 .4 0"/><feOffset dx="4.0" dy="4.0" in="blurOut2" result="blurOut3"/><feBlend in="SourceGraphic" in2="blurOut3" mode="normal"/></filter></defs><g><!--MD5=[b6cd822a5c7e42fc55fa40ef74196b49]
class com.ibm.fhir.operation.bulkdata.model.JobParameter.Writer--><a href="JobParameter.Writer.html" target="_top" title="JobParameter.Writer.html" xlink:actuate="onRequest" xlink:href="JobParameter.Writer.html" xlink:show="new" xlink:title="JobParameter.Writer.html" xlink:type="simple"><rect fill="#FEFECE" filter="url(#fe7yzsrjtgdl8)" height="58.7422" id="com.ibm.fhir.operation.bulkdata.model.JobParameter.Writer" style="stroke: #A80036; stroke-width: 1.5;" width="336" x="6" y="106"/><ellipse cx="76.25" cy="124.9688" fill="#ADD1B2" rx="11" ry="11" style="stroke: #A80036; stroke-width: 1.0;"/><path d="M79.2188,130.6094 Q78.6406,130.9063 78,131.0469 Q77.3594,131.2031 76.6563,131.2031 Q74.1563,131.2031 72.8281,129.5625 Q71.5156,127.9063 71.5156,124.7813 Q71.5156,121.6563 72.8281,120 Q74.1563,118.3438 76.6563,118.3438 Q77.3594,118.3438 78,118.5 Q78.6563,118.6563 79.2188,118.9531 L79.2188,121.6719 Q78.5938,121.0938 78,120.8281 Q77.4063,120.5469 76.7813,120.5469 Q75.4375,120.5469 74.75,121.625 Q74.0625,122.6875 74.0625,124.7813 Q74.0625,126.875 74.75,127.9531 Q75.4375,129.0156 76.7813,129.0156 Q77.4063,129.0156 78,128.75 Q78.5938,128.4688 79.2188,127.8906 L79.2188,130.6094 Z "/><text fill="#000000" font-family="sans-serif" font-size="14" lengthAdjust="spacingAndGlyphs" textLength="136" x="122.25" y="123.9951">JobParameter.Writer</text><text fill="#000000" font-family="sans-serif" font-size="10" lengthAdjust="spacingAndGlyphs" textLength="187" x="96.75" y="136.5791">com.ibm.fhir.operation.bulkdata.model</text><line style="stroke: #A80036; stroke-width: 1.5;" x1="7" x2="341" y1="143.9375" y2="143.9375"/><ellipse cx="17" cy="154.9375" fill="#84BE84" rx="3" ry="3" style="stroke: #038048; stroke-width: 1.0;"/><text fill="#000000" font-family="sans-serif" font-size="11" lengthAdjust="spacingAndGlyphs" text-decoration="underline" textLength="310" x="26" y="158.1479">generate(JsonGenerator, JobParameter, boolean): void</text></a><!--MD5=[46d7d2e701c109783deccbcc133f1455]
class com.ibm.fhir.operation.bulkdata.model.JobParameter--><a href="JobParameter.html" target="_top" title="JobParameter.html" xlink:actuate="onRequest" xlink:href="JobParameter.html" xlink:show="new" xlink:title="JobParameter.html" xlink:type="simple"><rect fill="#FEFECE" filter="url(#fe7yzsrjtgdl8)" height="37.9375" id="com.ibm.fhir.operation.bulkdata.model.JobParameter" style="stroke: #A80036; stroke-width: 1.5;" width="219" x="64.5" y="8"/><ellipse cx="79.5" cy="26.9688" fill="#ADD1B2" rx="11" ry="11" style="stroke: #A80036; stroke-width: 1.0;"/><path d="M82.4688,32.6094 Q81.8906,32.9063 81.25,33.0469 Q80.6094,33.2031 79.9063,33.2031 Q77.4063,33.2031 76.0781,31.5625 Q74.7656,29.9063 74.7656,26.7813 Q74.7656,23.6563 76.0781,22 Q77.4063,20.3438 79.9063,20.3438 Q80.6094,20.3438 81.25,20.5 Q81.9063,20.6563 82.4688,20.9531 L82.4688,23.6719 Q81.8438,23.0938 81.25,22.8281 Q80.6563,22.5469 80.0313,22.5469 Q78.6875,22.5469 78,23.625 Q77.3125,24.6875 77.3125,26.7813 Q77.3125,28.875 78,29.9531 Q78.6875,31.0156 80.0313,31.0156 Q80.6563,31.0156 81.25,30.75 Q81.8438,30.4688 82.4688,29.8906 L82.4688,32.6094 Z "/><text fill="#000000" font-family="sans-serif" font-size="14" lengthAdjust="spacingAndGlyphs" textLength="92" x="141" y="25.9951">JobParameter</text><text fill="#000000" font-family="sans-serif" font-size="10" lengthAdjust="spacingAndGlyphs" textLength="187" x="93.5" y="38.5791">com.ibm.fhir.operation.bulkdata.model</text></a><!--MD5=[44eeec68cb869e6f706403c48c915bdf]
reverse link com.ibm.fhir.operation.bulkdata.model.JobParameter to com.ibm.fhir.operation.bulkdata.model.JobParameter.Writer--><path d="M174,61.1734 C174,75.5357 174,92.0838 174,105.9146 " fill="none" id="com.ibm.fhir.operation.bulkdata.model.JobParameter&lt;-com.ibm.fhir.operation.bulkdata.model.JobParameter.Writer" style="stroke: #A80036; stroke-width: 1.0;"/><ellipse cx="174.0001" cy="54.1479" fill="#FFFFFF" rx="8" ry="8" style="stroke: #A80036; stroke-width: 1.0;"/><line style="stroke: #A80036; stroke-width: 1.0;" x1="174.0002" x2="174" y1="62.1479" y2="46.1479"/><line style="stroke: #A80036; stroke-width: 1.0;" x1="166.0001" x2="182.0001" y1="54.148" y2="54.1478"/><text fill="#888888" font-family="sans-serif" font-size="10" lengthAdjust="spacingAndGlyphs" textLength="186" x="87" y="184.2822">UMLDoclet 2.0.7, PlantUML 1.2019.12</text><!--MD5=[92fe2766951570634c200c3bdec77168]
@startuml
    set namespaceSeparator none
    hide empty fields
    hide empty methods

    class "<size:14>JobParameter.Writer\n<size:10>com.ibm.fhir.operation.bulkdata.model" as com.ibm.fhir.operation.bulkdata.model.JobParameter.Writer [[JobParameter.Writer.html]] {
        {static} +generate(JsonGenerator, JobParameter, boolean): void
    }

    class "<size:14>JobParameter\n<size:10>com.ibm.fhir.operation.bulkdata.model" as com.ibm.fhir.operation.bulkdata.model.JobParameter [[JobParameter.html]]

    com.ibm.fhir.operation.bulkdata.model.JobParameter +- - com.ibm.fhir.operation.bulkdata.model.JobParameter.Writer

    center footer UMLDoclet 2.0.7, PlantUML 1.2019.12
@enduml

PlantUML version 1.2019.12(Sun Nov 03 10:24:54 UTC 2019)
(APACHE source distribution)
Java Runtime: OpenJDK Runtime Environment
JVM: OpenJDK 64-Bit Server VM
Java Version: 11.0.6+10
Operating System: Linux
Default Encoding: UTF-8
Language: en
Country: null
--></g></svg>