<?xml version="1.0" encoding="UTF-8" standalone="no"?><svg xmlns="http://www.w3.org/2000/svg" xmlns:xlink="http://www.w3.org/1999/xlink" contentScriptType="application/ecmascript" contentStyleType="text/css" height="616px" preserveAspectRatio="none" style="width:924px;height:616px;" version="1.1" viewBox="0 0 924 616" width="924px" zoomAndPan="magnify"><defs><filter height="300%" id="fgij3raycqia6" width="300%" x="-1" y="-1"><feGaussianBlur result="blurOut" stdDeviation="2.0"/><feColorMatrix in="blurOut" result="blurOut2" type="matrix" values="0 0 0 0 0 0 0 0 0 0 0 0 0 0 0 0 0 0 .4 0"/><feOffset dx="4.0" dy="4.0" in="blurOut2" result="blurOut3"/><feBlend in="SourceGraphic" in2="blurOut3" mode="normal"/></filter></defs><g><!--cluster com.ibm.fhir.notification--><polygon fill="#FFFFFF" filter="url(#fgij3raycqia6)" points="14,337,197,337,204,359.4883,902,359.4883,902,575,14,575,14,337" style="stroke: #000000; stroke-width: 1.5;"/><line style="stroke: #000000; stroke-width: 1.5;" x1="14" x2="204" y1="359.4883" y2="359.4883"/><text fill="#000000" font-family="sans-serif" font-size="14" font-weight="bold" lengthAdjust="spacingAndGlyphs" textLength="177" x="18" y="352.5352">com.ibm.fhir.notification</text><!--cluster com.ibm.fhir.persistence.interceptor--><polygon fill="#FFFFFF" filter="url(#fgij3raycqia6)" points="527,16,790,16,797,38.4883,800,38.4883,800,306,527,306,527,16" style="stroke: #000000; stroke-width: 1.5;"/><line style="stroke: #000000; stroke-width: 1.5;" x1="527" x2="797" y1="38.4883" y2="38.4883"/><text fill="#000000" font-family="sans-serif" font-size="14" font-weight="bold" lengthAdjust="spacingAndGlyphs" textLength="257" x="531" y="31.5352">com.ibm.fhir.persistence.interceptor</text><!--class com.ibm.fhir.notification.FHIRNotificationService--><a href="FHIRNotificationService.html" target="_top" xlink:actuate="onRequest" xlink:show="new" xlink:title="FHIRNotificationService.html" xlink:type="simple"><rect fill="#FEFECE" filter="url(#fgij3raycqia6)" height="151.6406" id="com.ibm.fhir.notification.FHIRNotificationService" style="stroke: #A80036; stroke-width: 1.5;" width="296" x="515" y="389.5"/><ellipse cx="593.75" cy="405.5" fill="#ADD1B2" rx="11" ry="11" style="stroke: #A80036; stroke-width: 1.0;"/><path d="M596.2231,411.6431 Q595.6421,411.9419 595.0029,412.0913 Q594.3638,412.2407 593.6582,412.2407 Q591.1514,412.2407 589.8315,410.5889 Q588.5117,408.937 588.5117,405.8159 Q588.5117,402.6865 589.8315,401.0347 Q591.1514,399.3828 593.6582,399.3828 Q594.3638,399.3828 595.0112,399.5322 Q595.6587,399.6816 596.2231,399.9805 L596.2231,402.7031 Q595.5923,402.1221 594.9988,401.8523 Q594.4053,401.5825 593.7744,401.5825 Q592.4297,401.5825 591.7449,402.6492 Q591.0601,403.7158 591.0601,405.8159 Q591.0601,407.9077 591.7449,408.9744 Q592.4297,410.041 593.7744,410.041 Q594.4053,410.041 594.9988,409.7712 Q595.5923,409.5015 596.2231,408.9204 Z "/><text fill="#000000" font-family="sans-serif" font-size="12" lengthAdjust="spacingAndGlyphs" textLength="130" x="614.25" y="410.0352">FHIRNotificationService</text><line style="stroke: #A80036; stroke-width: 1.5;" x1="516" x2="810" y1="421.5" y2="421.5"/><line style="stroke: #A80036; stroke-width: 1.5;" x1="516" x2="810" y1="429.5" y2="429.5"/><ellipse cx="526" cy="441.4775" fill="#84BE84" rx="3" ry="3" style="stroke: #038048; stroke-width: 1.0;"/><text fill="#000000" font-family="sans-serif" font-size="11" lengthAdjust="spacingAndGlyphs" textLength="192" x="535" y="444.1348">publish(FHIRNotificationEvent): void</text><ellipse cx="526" cy="454.4326" fill="#84BE84" rx="3" ry="3" style="stroke: #038048; stroke-width: 1.0;"/><text fill="#000000" font-family="sans-serif" font-size="11" lengthAdjust="spacingAndGlyphs" textLength="234" x="535" y="457.0898">subscribe(FHIRNotificationSubscriber): void</text><ellipse cx="526" cy="467.3877" fill="#84BE84" rx="3" ry="3" style="stroke: #038048; stroke-width: 1.0;"/><text fill="#000000" font-family="sans-serif" font-size="11" lengthAdjust="spacingAndGlyphs" textLength="248" x="535" y="470.0449">unsubscribe(FHIRNotificationSubscriber): void</text><ellipse cx="526" cy="480.3428" fill="#84BE84" rx="3" ry="3" style="stroke: #038048; stroke-width: 1.0;"/><text fill="#000000" font-family="sans-serif" font-size="11" lengthAdjust="spacingAndGlyphs" textLength="270" x="535" y="483">isSubscribed(FHIRNotificationSubscriber): boolean</text><ellipse cx="526" cy="493.2979" fill="#84BE84" rx="3" ry="3" style="stroke: #038048; stroke-width: 1.0;"/><text fill="#000000" font-family="sans-serif" font-size="11" lengthAdjust="spacingAndGlyphs" textLength="211" x="535" y="495.9551">afterCreate(FHIRPersistenceEvent): void</text><ellipse cx="526" cy="506.2529" fill="#84BE84" rx="3" ry="3" style="stroke: #038048; stroke-width: 1.0;"/><text fill="#000000" font-family="sans-serif" font-size="11" lengthAdjust="spacingAndGlyphs" textLength="214" x="535" y="508.9102">afterUpdate(FHIRPersistenceEvent): void</text><ellipse cx="526" cy="519.208" fill="#84BE84" rx="3" ry="3" style="stroke: #038048; stroke-width: 1.0;"/><text fill="#000000" font-family="sans-serif" font-size="11" lengthAdjust="spacingAndGlyphs" textLength="221" x="535" y="521.8652">beforeCreate(FHIRPersistenceEvent): void</text><ellipse cx="526" cy="532.1631" fill="#84BE84" rx="3" ry="3" style="stroke: #038048; stroke-width: 1.0;"/><text fill="#000000" font-family="sans-serif" font-size="11" lengthAdjust="spacingAndGlyphs" textLength="224" x="535" y="534.8203">beforeUpdate(FHIRPersistenceEvent): void</text></a><!--class com.ibm.fhir.notification.FHIRNotificationSubscriber--><a href="FHIRNotificationSubscriber.html" target="_top" xlink:actuate="onRequest" xlink:show="new" xlink:title="FHIRNotificationSubscriber.html" xlink:type="simple"><rect fill="#FEFECE" filter="url(#fgij3raycqia6)" height="60.9551" id="com.ibm.fhir.notification.FHIRNotificationSubscriber" style="stroke: #A80036; stroke-width: 1.5;" width="209" x="270.5" y="435"/><ellipse cx="297.2" cy="451" fill="#B4A7E5" rx="11" ry="11" style="stroke: #A80036; stroke-width: 1.0;"/><path d="M293.6277,447.2651 L293.6277,445.1069 L301.0071,445.1069 L301.0071,447.2651 L298.5418,447.2651 L298.5418,455.3418 L301.0071,455.3418 L301.0071,457.5 L293.6277,457.5 L293.6277,455.3418 L296.0931,455.3418 L296.0931,447.2651 Z "/><text fill="#000000" font-family="sans-serif" font-size="12" font-style="italic" lengthAdjust="spacingAndGlyphs" textLength="151" x="313.8" y="455.5352">FHIRNotificationSubscriber</text><line style="stroke: #A80036; stroke-width: 1.5;" x1="271.5" x2="478.5" y1="467" y2="467"/><line style="stroke: #A80036; stroke-width: 1.5;" x1="271.5" x2="478.5" y1="475" y2="475"/><ellipse cx="281.5" cy="486.9775" fill="#84BE84" rx="3" ry="3" style="stroke: #038048; stroke-width: 1.0;"/><text fill="#000000" font-family="sans-serif" font-size="11" font-style="italic" lengthAdjust="spacingAndGlyphs" textLength="183" x="290.5" y="489.6348">notify(FHIRNotificationEvent): void</text></a><!--class com.ibm.fhir.notification.FHIRNotificationEvent--><a href="FHIRNotificationEvent.html" target="_top" xlink:actuate="onRequest" xlink:show="new" xlink:title="FHIRNotificationEvent.html" xlink:type="simple"><rect fill="#FEFECE" filter="url(#fgij3raycqia6)" height="203.4609" id="com.ibm.fhir.notification.FHIRNotificationEvent" style="stroke: #A80036; stroke-width: 1.5;" width="213" x="22.5" y="364"/><ellipse cx="64.5" cy="380" fill="#ADD1B2" rx="11" ry="11" style="stroke: #A80036; stroke-width: 1.0;"/><path d="M66.9731,386.1431 Q66.3921,386.4419 65.7529,386.5913 Q65.1138,386.7407 64.4082,386.7407 Q61.9014,386.7407 60.5815,385.0889 Q59.2617,383.437 59.2617,380.3159 Q59.2617,377.1865 60.5815,375.5347 Q61.9014,373.8828 64.4082,373.8828 Q65.1138,373.8828 65.7612,374.0322 Q66.4087,374.1816 66.9731,374.4805 L66.9731,377.2031 Q66.3423,376.6221 65.7488,376.3523 Q65.1553,376.0825 64.5244,376.0825 Q63.1797,376.0825 62.4949,377.1492 Q61.8101,378.2158 61.8101,380.3159 Q61.8101,382.4077 62.4949,383.4744 Q63.1797,384.541 64.5244,384.541 Q65.1553,384.541 65.7488,384.2712 Q66.3423,384.0015 66.9731,383.4204 Z "/><text fill="#000000" font-family="sans-serif" font-size="12" lengthAdjust="spacingAndGlyphs" textLength="121" x="84.5" y="384.5352">FHIRNotificationEvent</text><line style="stroke: #A80036; stroke-width: 1.5;" x1="23.5" x2="234.5" y1="396" y2="396"/><line style="stroke: #A80036; stroke-width: 1.5;" x1="23.5" x2="234.5" y1="404" y2="404"/><ellipse cx="33.5" cy="415.9775" fill="#84BE84" rx="3" ry="3" style="stroke: #038048; stroke-width: 1.0;"/><text fill="#000000" font-family="sans-serif" font-size="11" lengthAdjust="spacingAndGlyphs" textLength="123" x="42.5" y="418.6348">getResourceId(): String</text><ellipse cx="33.5" cy="428.9326" fill="#84BE84" rx="3" ry="3" style="stroke: #038048; stroke-width: 1.0;"/><text fill="#000000" font-family="sans-serif" font-size="11" lengthAdjust="spacingAndGlyphs" textLength="145" x="42.5" y="431.5898">setResourceId(String): void</text><ellipse cx="33.5" cy="441.8877" fill="#84BE84" rx="3" ry="3" style="stroke: #038048; stroke-width: 1.0;"/><text fill="#000000" font-family="sans-serif" font-size="11" lengthAdjust="spacingAndGlyphs" textLength="130" x="42.5" y="444.5449">getLastUpdated(): String</text><ellipse cx="33.5" cy="454.8428" fill="#84BE84" rx="3" ry="3" style="stroke: #038048; stroke-width: 1.0;"/><text fill="#000000" font-family="sans-serif" font-size="11" lengthAdjust="spacingAndGlyphs" textLength="152" x="42.5" y="457.5">setLastUpdated(String): void</text><ellipse cx="33.5" cy="467.7979" fill="#84BE84" rx="3" ry="3" style="stroke: #038048; stroke-width: 1.0;"/><text fill="#000000" font-family="sans-serif" font-size="11" lengthAdjust="spacingAndGlyphs" textLength="109" x="42.5" y="470.4551">getLocation(): String</text><ellipse cx="33.5" cy="480.7529" fill="#84BE84" rx="3" ry="3" style="stroke: #038048; stroke-width: 1.0;"/><text fill="#000000" font-family="sans-serif" font-size="11" lengthAdjust="spacingAndGlyphs" textLength="131" x="42.5" y="483.4102">setLocation(String): void</text><ellipse cx="33.5" cy="493.708" fill="#84BE84" rx="3" ry="3" style="stroke: #038048; stroke-width: 1.0;"/><text fill="#000000" font-family="sans-serif" font-size="11" lengthAdjust="spacingAndGlyphs" textLength="143" x="42.5" y="496.3652">getOperationType(): String</text><ellipse cx="33.5" cy="506.6631" fill="#84BE84" rx="3" ry="3" style="stroke: #038048; stroke-width: 1.0;"/><text fill="#000000" font-family="sans-serif" font-size="11" lengthAdjust="spacingAndGlyphs" textLength="165" x="42.5" y="509.3203">setOperationType(String): void</text><ellipse cx="33.5" cy="519.6182" fill="#84BE84" rx="3" ry="3" style="stroke: #038048; stroke-width: 1.0;"/><text fill="#000000" font-family="sans-serif" font-size="11" lengthAdjust="spacingAndGlyphs" textLength="131" x="42.5" y="522.2754">getResource(): Resource</text><ellipse cx="33.5" cy="532.5732" fill="#84BE84" rx="3" ry="3" style="stroke: #038048; stroke-width: 1.0;"/><text fill="#000000" font-family="sans-serif" font-size="11" lengthAdjust="spacingAndGlyphs" textLength="153" x="42.5" y="535.2305">setResource(Resource): void</text><ellipse cx="33.5" cy="545.5283" fill="#84BE84" rx="3" ry="3" style="stroke: #038048; stroke-width: 1.0;"/><text fill="#000000" font-family="sans-serif" font-size="11" lengthAdjust="spacingAndGlyphs" textLength="165" x="42.5" y="548.1855">getHttpHeaders(): HttpHeaders</text><ellipse cx="33.5" cy="558.4834" fill="#84BE84" rx="3" ry="3" style="stroke: #038048; stroke-width: 1.0;"/><text fill="#000000" font-family="sans-serif" font-size="11" lengthAdjust="spacingAndGlyphs" textLength="187" x="42.5" y="561.1406">setHttpHeaders(HttpHeaders): void</text></a><!--class com.ibm.fhir.persistence.interceptor.FHIRPersistenceInterceptor--><a href="../persistence/interceptor/FHIRPersistenceInterceptor.html" target="_top" xlink:actuate="onRequest" xlink:show="new" xlink:title="../persistence/interceptor/FHIRPersistenceInterceptor.html" xlink:type="simple"><rect fill="#FEFECE" filter="url(#fgij3raycqia6)" height="255.2813" id="com.ibm.fhir.persistence.interceptor.FHIRPersistenceInterceptor" style="stroke: #A80036; stroke-width: 1.5;" width="251" x="537.5" y="43"/><ellipse cx="581.75" cy="59" fill="#B4A7E5" rx="11" ry="11" style="stroke: #A80036; stroke-width: 1.0;"/><path d="M578.1777,55.2651 L578.1777,53.1069 L585.5571,53.1069 L585.5571,55.2651 L583.0918,55.2651 L583.0918,63.3418 L585.5571,63.3418 L585.5571,65.5 L578.1777,65.5 L578.1777,63.3418 L580.6431,63.3418 L580.6431,55.2651 Z "/><text fill="#000000" font-family="sans-serif" font-size="12" font-style="italic" lengthAdjust="spacingAndGlyphs" textLength="154" x="602.25" y="63.5352">FHIRPersistenceInterceptor</text><line style="stroke: #A80036; stroke-width: 1.5;" x1="538.5" x2="787.5" y1="75" y2="75"/><line style="stroke: #A80036; stroke-width: 1.5;" x1="538.5" x2="787.5" y1="83" y2="83"/><ellipse cx="548.5" cy="94.9775" fill="#84BE84" rx="3" ry="3" style="stroke: #038048; stroke-width: 1.0;"/><text fill="#000000" font-family="sans-serif" font-size="11" lengthAdjust="spacingAndGlyphs" textLength="221" x="557.5" y="97.6348">beforeCreate(FHIRPersistenceEvent): void</text><ellipse cx="548.5" cy="107.9326" fill="#84BE84" rx="3" ry="3" style="stroke: #038048; stroke-width: 1.0;"/><text fill="#000000" font-family="sans-serif" font-size="11" lengthAdjust="spacingAndGlyphs" textLength="211" x="557.5" y="110.5898">afterCreate(FHIRPersistenceEvent): void</text><ellipse cx="548.5" cy="120.8877" fill="#84BE84" rx="3" ry="3" style="stroke: #038048; stroke-width: 1.0;"/><text fill="#000000" font-family="sans-serif" font-size="11" lengthAdjust="spacingAndGlyphs" textLength="224" x="557.5" y="123.5449">beforeUpdate(FHIRPersistenceEvent): void</text><ellipse cx="548.5" cy="133.8428" fill="#84BE84" rx="3" ry="3" style="stroke: #038048; stroke-width: 1.0;"/><text fill="#000000" font-family="sans-serif" font-size="11" lengthAdjust="spacingAndGlyphs" textLength="214" x="557.5" y="136.5">afterUpdate(FHIRPersistenceEvent): void</text><ellipse cx="548.5" cy="146.7979" fill="#84BE84" rx="3" ry="3" style="stroke: #038048; stroke-width: 1.0;"/><text fill="#000000" font-family="sans-serif" font-size="11" lengthAdjust="spacingAndGlyphs" textLength="215" x="557.5" y="149.4551">beforePatch(FHIRPersistenceEvent): void</text><ellipse cx="548.5" cy="159.7529" fill="#84BE84" rx="3" ry="3" style="stroke: #038048; stroke-width: 1.0;"/><text fill="#000000" font-family="sans-serif" font-size="11" lengthAdjust="spacingAndGlyphs" textLength="205" x="557.5" y="162.4102">afterPatch(FHIRPersistenceEvent): void</text><ellipse cx="548.5" cy="172.708" fill="#84BE84" rx="3" ry="3" style="stroke: #038048; stroke-width: 1.0;"/><text fill="#000000" font-family="sans-serif" font-size="11" lengthAdjust="spacingAndGlyphs" textLength="219" x="557.5" y="175.3652">beforeDelete(FHIRPersistenceEvent): void</text><ellipse cx="548.5" cy="185.6631" fill="#84BE84" rx="3" ry="3" style="stroke: #038048; stroke-width: 1.0;"/><text fill="#000000" font-family="sans-serif" font-size="11" lengthAdjust="spacingAndGlyphs" textLength="209" x="557.5" y="188.3203">afterDelete(FHIRPersistenceEvent): void</text><ellipse cx="548.5" cy="198.6182" fill="#84BE84" rx="3" ry="3" style="stroke: #038048; stroke-width: 1.0;"/><text fill="#000000" font-family="sans-serif" font-size="11" lengthAdjust="spacingAndGlyphs" textLength="212" x="557.5" y="201.2754">beforeRead(FHIRPersistenceEvent): void</text><ellipse cx="548.5" cy="211.5732" fill="#84BE84" rx="3" ry="3" style="stroke: #038048; stroke-width: 1.0;"/><text fill="#000000" font-family="sans-serif" font-size="11" lengthAdjust="spacingAndGlyphs" textLength="202" x="557.5" y="214.2305">afterRead(FHIRPersistenceEvent): void</text><ellipse cx="548.5" cy="224.5283" fill="#84BE84" rx="3" ry="3" style="stroke: #038048; stroke-width: 1.0;"/><text fill="#000000" font-family="sans-serif" font-size="11" lengthAdjust="spacingAndGlyphs" textLength="217" x="557.5" y="227.1855">beforeVread(FHIRPersistenceEvent): void</text><ellipse cx="548.5" cy="237.4834" fill="#84BE84" rx="3" ry="3" style="stroke: #038048; stroke-width: 1.0;"/><text fill="#000000" font-family="sans-serif" font-size="11" lengthAdjust="spacingAndGlyphs" textLength="207" x="557.5" y="240.1406">afterVread(FHIRPersistenceEvent): void</text><ellipse cx="548.5" cy="250.4385" fill="#84BE84" rx="3" ry="3" style="stroke: #038048; stroke-width: 1.0;"/><text fill="#000000" font-family="sans-serif" font-size="11" lengthAdjust="spacingAndGlyphs" textLength="225" x="557.5" y="253.0957">beforeHistory(FHIRPersistenceEvent): void</text><ellipse cx="548.5" cy="263.3936" fill="#84BE84" rx="3" ry="3" style="stroke: #038048; stroke-width: 1.0;"/><text fill="#000000" font-family="sans-serif" font-size="11" lengthAdjust="spacingAndGlyphs" textLength="215" x="557.5" y="266.0508">afterHistory(FHIRPersistenceEvent): void</text><ellipse cx="548.5" cy="276.3486" fill="#84BE84" rx="3" ry="3" style="stroke: #038048; stroke-width: 1.0;"/><text fill="#000000" font-family="sans-serif" font-size="11" lengthAdjust="spacingAndGlyphs" textLength="222" x="557.5" y="279.0059">beforeSearch(FHIRPersistenceEvent): void</text><ellipse cx="548.5" cy="289.3037" fill="#84BE84" rx="3" ry="3" style="stroke: #038048; stroke-width: 1.0;"/><text fill="#000000" font-family="sans-serif" font-size="11" lengthAdjust="spacingAndGlyphs" textLength="212" x="557.5" y="291.9609">afterSearch(FHIRPersistenceEvent): void</text></a><!--link com.ibm.fhir.persistence.interceptor.FHIRPersistenceInterceptor to com.ibm.fhir.notification.FHIRNotificationService--><path d="M663,318.2572 C663,342.7853 663,367.304 663,389.1 " fill="none" id="com.ibm.fhir.persistence.interceptor.FHIRPersistenceInterceptor-com.ibm.fhir.notification.FHIRNotificationService" style="stroke: #A80036; stroke-width: 1.0; stroke-dasharray: 7.0,7.0;"/><polygon fill="none" points="656.0001,318.1756,663,298.1756,670.0001,318.1755,656.0001,318.1756" style="stroke: #A80036; stroke-width: 1.0;"/><!--link com.ibm.fhir.notification.FHIRNotificationService to com.ibm.fhir.notification.FHIRNotificationService--><path d="M811.2733,442.6805 C832.0713,446.4052 846,454.0117 846,465.5 C846,476.001 834.3624,483.2587 816.4786,487.2732 " fill="none" id="com.ibm.fhir.notification.FHIRNotificationService-com.ibm.fhir.notification.FHIRNotificationService" style="stroke: #A80036; stroke-width: 1.0;"/><polygon fill="#A80036" points="811.2733,488.3195,820.8851,490.4673,816.1752,487.3341,819.3084,482.6242,811.2733,488.3195" style="stroke: #A80036; stroke-width: 1.0;"/><text fill="#000000" font-family="sans-serif" font-size="13" lengthAdjust="spacingAndGlyphs" textLength="53" x="852" y="470.5684">instance</text><text fill="#888888" font-family="sans-serif" font-size="10" lengthAdjust="spacingAndGlyphs" textLength="182" x="373.5" y="602.668">UMLDoclet 2.0.5, PlantUML 1.2019.08</text><!--
@startuml
    namespace com.ibm.fhir.notification {

        class FHIRNotificationService [[FHIRNotificationService.html]] {
            +publish(FHIRNotificationEvent): void
            +subscribe(FHIRNotificationSubscriber): void
            +unsubscribe(FHIRNotificationSubscriber): void
            +isSubscribed(FHIRNotificationSubscriber): boolean
            +afterCreate(FHIRPersistenceEvent): void
            +afterUpdate(FHIRPersistenceEvent): void
            +beforeCreate(FHIRPersistenceEvent): void
            +beforeUpdate(FHIRPersistenceEvent): void
        }

        interface FHIRNotificationSubscriber [[FHIRNotificationSubscriber.html]] {
            {abstract} +notify(FHIRNotificationEvent): void
        }

        class FHIRNotificationEvent [[FHIRNotificationEvent.html]] {
            +getResourceId(): String
            +setResourceId(String): void
            +getLastUpdated(): String
            +setLastUpdated(String): void
            +getLocation(): String
            +setLocation(String): void
            +getOperationType(): String
            +setOperationType(String): void
            +getResource(): Resource
            +setResource(Resource): void
            +getHttpHeaders(): HttpHeaders
            +setHttpHeaders(HttpHeaders): void
        }

        com.ibm.fhir.persistence.interceptor.FHIRPersistenceInterceptor <|.. FHIRNotificationService
        FHIRNotificationService - -> FHIRNotificationService: instance
    }

    namespace com.ibm.fhir.persistence.interceptor {
        interface FHIRPersistenceInterceptor [[../persistence/interceptor/FHIRPersistenceInterceptor.html]] {
            +beforeCreate(FHIRPersistenceEvent): void
            +afterCreate(FHIRPersistenceEvent): void
            +beforeUpdate(FHIRPersistenceEvent): void
            +afterUpdate(FHIRPersistenceEvent): void
            +beforePatch(FHIRPersistenceEvent): void
            +afterPatch(FHIRPersistenceEvent): void
            +beforeDelete(FHIRPersistenceEvent): void
            +afterDelete(FHIRPersistenceEvent): void
            +beforeRead(FHIRPersistenceEvent): void
            +afterRead(FHIRPersistenceEvent): void
            +beforeVread(FHIRPersistenceEvent): void
            +afterVread(FHIRPersistenceEvent): void
            +beforeHistory(FHIRPersistenceEvent): void
            +afterHistory(FHIRPersistenceEvent): void
            +beforeSearch(FHIRPersistenceEvent): void
            +afterSearch(FHIRPersistenceEvent): void
        }
    }

    center footer UMLDoclet 2.0.5, PlantUML 1.2019.08
@enduml

PlantUML version 1.2019.08(Sat Jul 13 15:25:14 EDT 2019)
(APACHE source distribution)
Java Runtime: OpenJDK Runtime Environment
JVM: OpenJDK 64-Bit Server VM
Java Version: 11.0.4+11
Operating System: Mac OS X
OS Version: 10.14.6
Default Encoding: UTF-8
Language: en
Country: US
--></g></svg>