<?xml version="1.0" encoding="UTF-8" standalone="no"?><svg xmlns="http://www.w3.org/2000/svg" xmlns:xlink="http://www.w3.org/1999/xlink" contentScriptType="application/ecmascript" contentStyleType="text/css" height="431px" preserveAspectRatio="none" style="width:441px;height:431px;" version="1.1" viewBox="0 0 441 431" width="441px" zoomAndPan="magnify"><defs><filter height="300%" id="f1ezdswmnx39zx" width="300%" x="-1" y="-1"><feGaussianBlur result="blurOut" stdDeviation="2.0"/><feColorMatrix in="blurOut" result="blurOut2" type="matrix" values="0 0 0 0 0 0 0 0 0 0 0 0 0 0 0 0 0 0 .4 0"/><feOffset dx="4.0" dy="4.0" in="blurOut2" result="blurOut3"/><feBlend in="SourceGraphic" in2="blurOut3" mode="normal"/></filter></defs><g><!--MD5=[99f631472d15b2ca6cd1013a1f749f23]
class com.ibm.fhir.model.type.code.NarrativeStatus--><a href="NarrativeStatus.html" target="_top" title="NarrativeStatus.html" xlink:actuate="onRequest" xlink:href="NarrativeStatus.html" xlink:show="new" xlink:title="NarrativeStatus.html" xlink:type="simple"><rect fill="#FEFECE" filter="url(#f1ezdswmnx39zx)" height="194.7891" id="com.ibm.fhir.model.type.code.NarrativeStatus" style="stroke: #A80036; stroke-width: 1.5;" width="238" x="96" y="106"/><ellipse cx="138.45" cy="124.9688" fill="#ADD1B2" rx="11" ry="11" style="stroke: #A80036; stroke-width: 1.0;"/><path d="M141.4188,130.6094 Q140.8406,130.9063 140.2,131.0469 Q139.5594,131.2031 138.8563,131.2031 Q136.3563,131.2031 135.0281,129.5625 Q133.7156,127.9063 133.7156,124.7813 Q133.7156,121.6563 135.0281,120 Q136.3563,118.3438 138.8563,118.3438 Q139.5594,118.3438 140.2,118.5 Q140.8563,118.6563 141.4188,118.9531 L141.4188,121.6719 Q140.7938,121.0938 140.2,120.8281 Q139.6063,120.5469 138.9813,120.5469 Q137.6375,120.5469 136.95,121.625 Q136.2625,122.6875 136.2625,124.7813 Q136.2625,126.875 136.95,127.9531 Q137.6375,129.0156 138.9813,129.0156 Q139.6063,129.0156 140.2,128.75 Q140.7938,128.4688 141.4188,127.8906 L141.4188,130.6094 Z "/><text fill="#000000" font-family="sans-serif" font-size="14" lengthAdjust="spacingAndGlyphs" textLength="104" x="179.05" y="123.9951">NarrativeStatus</text><text fill="#000000" font-family="sans-serif" font-size="10" lengthAdjust="spacingAndGlyphs" textLength="145" x="158.55" y="136.5791">com.ibm.fhir.model.type.code</text><line style="stroke: #A80036; stroke-width: 1.5;" x1="97" x2="333" y1="143.9375" y2="143.9375"/><ellipse cx="107" cy="154.9375" fill="none" rx="3" ry="3" style="stroke: #038048; stroke-width: 1.0;"/><text fill="#000000" font-family="sans-serif" font-size="11" lengthAdjust="spacingAndGlyphs" text-decoration="underline" textLength="164" x="116" y="158.1479">GENERATED: NarrativeStatus</text><ellipse cx="107" cy="167.7422" fill="none" rx="3" ry="3" style="stroke: #038048; stroke-width: 1.0;"/><text fill="#000000" font-family="sans-serif" font-size="11" lengthAdjust="spacingAndGlyphs" text-decoration="underline" textLength="169" x="116" y="170.9526">EXTENSIONS: NarrativeStatus</text><ellipse cx="107" cy="180.5469" fill="none" rx="3" ry="3" style="stroke: #038048; stroke-width: 1.0;"/><text fill="#000000" font-family="sans-serif" font-size="11" lengthAdjust="spacingAndGlyphs" text-decoration="underline" textLength="163" x="116" y="183.7573">ADDITIONAL: NarrativeStatus</text><ellipse cx="107" cy="193.3516" fill="none" rx="3" ry="3" style="stroke: #038048; stroke-width: 1.0;"/><text fill="#000000" font-family="sans-serif" font-size="11" lengthAdjust="spacingAndGlyphs" text-decoration="underline" textLength="134" x="116" y="196.562">EMPTY: NarrativeStatus</text><line style="stroke: #A80036; stroke-width: 1.5;" x1="97" x2="333" y1="203.1563" y2="203.1563"/><ellipse cx="107" cy="214.1563" fill="#84BE84" rx="3" ry="3" style="stroke: #038048; stroke-width: 1.0;"/><text fill="#000000" font-family="sans-serif" font-size="11" lengthAdjust="spacingAndGlyphs" textLength="212" x="116" y="217.3667">getValueAsEnumConstant(): ValueSet</text><ellipse cx="107" cy="226.9609" fill="#84BE84" rx="3" ry="3" style="stroke: #038048; stroke-width: 1.0;"/><text fill="#000000" font-family="sans-serif" font-size="11" lengthAdjust="spacingAndGlyphs" text-decoration="underline" textLength="166" x="116" y="230.1714">of(ValueSet): NarrativeStatus</text><ellipse cx="107" cy="239.7656" fill="#84BE84" rx="3" ry="3" style="stroke: #038048; stroke-width: 1.0;"/><text fill="#000000" font-family="sans-serif" font-size="11" lengthAdjust="spacingAndGlyphs" text-decoration="underline" textLength="150" x="116" y="242.9761">of(String): NarrativeStatus</text><ellipse cx="107" cy="252.5703" fill="#84BE84" rx="3" ry="3" style="stroke: #038048; stroke-width: 1.0;"/><text fill="#000000" font-family="sans-serif" font-size="11" lengthAdjust="spacingAndGlyphs" text-decoration="underline" textLength="117" x="116" y="255.7808">string(String): String</text><ellipse cx="107" cy="265.375" fill="#84BE84" rx="3" ry="3" style="stroke: #038048; stroke-width: 1.0;"/><text fill="#000000" font-family="sans-serif" font-size="11" lengthAdjust="spacingAndGlyphs" text-decoration="underline" textLength="106" x="116" y="268.5854">code(String): Code</text><ellipse cx="107" cy="278.1797" fill="#84BE84" rx="3" ry="3" style="stroke: #038048; stroke-width: 1.0;"/><text fill="#000000" font-family="sans-serif" font-size="11" lengthAdjust="spacingAndGlyphs" textLength="107" x="116" y="281.3901">toBuilder(): Builder</text><ellipse cx="107" cy="290.9844" fill="#84BE84" rx="3" ry="3" style="stroke: #038048; stroke-width: 1.0;"/><text fill="#000000" font-family="sans-serif" font-size="11" lengthAdjust="spacingAndGlyphs" text-decoration="underline" textLength="95" x="116" y="294.1948">builder(): Builder</text></a><!--MD5=[36277681a3d78580011ae89cb2088b30]
class com.ibm.fhir.model.type.Code--><a href="../Code.html" target="_top" title="../Code.html" xlink:actuate="onRequest" xlink:href="../Code.html" xlink:show="new" xlink:title="../Code.html" xlink:type="simple"><rect fill="#FEFECE" filter="url(#f1ezdswmnx39zx)" height="37.9375" id="com.ibm.fhir.model.type.Code" style="stroke: #A80036; stroke-width: 1.5;" width="151" x="139.5" y="8"/><ellipse cx="154.5" cy="26.9688" fill="#ADD1B2" rx="11" ry="11" style="stroke: #A80036; stroke-width: 1.0;"/><path d="M157.4688,32.6094 Q156.8906,32.9063 156.25,33.0469 Q155.6094,33.2031 154.9063,33.2031 Q152.4063,33.2031 151.0781,31.5625 Q149.7656,29.9063 149.7656,26.7813 Q149.7656,23.6563 151.0781,22 Q152.4063,20.3438 154.9063,20.3438 Q155.6094,20.3438 156.25,20.5 Q156.9063,20.6563 157.4688,20.9531 L157.4688,23.6719 Q156.8438,23.0938 156.25,22.8281 Q155.6563,22.5469 155.0313,22.5469 Q153.6875,22.5469 153,23.625 Q152.3125,24.6875 152.3125,26.7813 Q152.3125,28.875 153,29.9531 Q153.6875,31.0156 155.0313,31.0156 Q155.6563,31.0156 156.25,30.75 Q156.8438,30.4688 157.4688,29.8906 L157.4688,32.6094 Z "/><text fill="#000000" font-family="sans-serif" font-size="14" lengthAdjust="spacingAndGlyphs" textLength="37" x="209.5" y="25.9951">Code</text><text fill="#000000" font-family="sans-serif" font-size="10" lengthAdjust="spacingAndGlyphs" textLength="119" x="168.5" y="38.5791">com.ibm.fhir.model.type</text></a><!--MD5=[b1308903e0b211d0f5ea49257a428dc7]
class com.ibm.fhir.model.type.code.NarrativeStatus.Builder--><a href="NarrativeStatus.Builder.html" target="_top" title="NarrativeStatus.Builder.html" xlink:actuate="onRequest" xlink:href="NarrativeStatus.Builder.html" xlink:show="new" xlink:title="NarrativeStatus.Builder.html" xlink:type="simple"><rect fill="#FEFECE" filter="url(#f1ezdswmnx39zx)" height="37.9375" id="com.ibm.fhir.model.type.code.NarrativeStatus.Builder" style="stroke: #A80036; stroke-width: 1.5;" width="188" x="6" y="361"/><ellipse cx="21" cy="379.9688" fill="#ADD1B2" rx="11" ry="11" style="stroke: #A80036; stroke-width: 1.0;"/><path d="M23.9688,385.6094 Q23.3906,385.9063 22.75,386.0469 Q22.1094,386.2031 21.4063,386.2031 Q18.9063,386.2031 17.5781,384.5625 Q16.2656,382.9063 16.2656,379.7813 Q16.2656,376.6563 17.5781,375 Q18.9063,373.3438 21.4063,373.3438 Q22.1094,373.3438 22.75,373.5 Q23.4063,373.6563 23.9688,373.9531 L23.9688,376.6719 Q23.3438,376.0938 22.75,375.8281 Q22.1563,375.5469 21.5313,375.5469 Q20.1875,375.5469 19.5,376.625 Q18.8125,377.6875 18.8125,379.7813 Q18.8125,381.875 19.5,382.9531 Q20.1875,384.0156 21.5313,384.0156 Q22.1563,384.0156 22.75,383.75 Q23.3438,383.4688 23.9688,382.8906 L23.9688,385.6094 Z "/><text fill="#000000" font-family="sans-serif" font-size="14" lengthAdjust="spacingAndGlyphs" textLength="156" x="35" y="378.9951">NarrativeStatus.Builder</text><text fill="#000000" font-family="sans-serif" font-size="10" lengthAdjust="spacingAndGlyphs" textLength="145" x="40.5" y="391.5791">com.ibm.fhir.model.type.code</text></a><!--MD5=[3136a39462d9e7d1a262bba6cf8c0e2a]
class com.ibm.fhir.model.type.code.NarrativeStatus.ValueSet--><a href="NarrativeStatus.ValueSet.html" target="_top" title="NarrativeStatus.ValueSet.html" xlink:actuate="onRequest" xlink:href="NarrativeStatus.ValueSet.html" xlink:show="new" xlink:title="NarrativeStatus.ValueSet.html" xlink:type="simple"><rect fill="#FEFECE" filter="url(#f1ezdswmnx39zx)" height="37.9375" id="com.ibm.fhir.model.type.code.NarrativeStatus.ValueSet" style="stroke: #A80036; stroke-width: 1.5;" width="201" x="229.5" y="361"/><ellipse cx="244.5" cy="379.9688" fill="#EB937F" rx="11" ry="11" style="stroke: #A80036; stroke-width: 1.0;"/><path d="M248.6094,385.9688 L240.8906,385.9688 L240.8906,373.5781 L248.6094,373.5781 L248.6094,375.7344 L243.3438,375.7344 L243.3438,378.4063 L248.1094,378.4063 L248.1094,380.5625 L243.3438,380.5625 L243.3438,383.8125 L248.6094,383.8125 L248.6094,385.9688 Z "/><text fill="#000000" font-family="sans-serif" font-size="14" lengthAdjust="spacingAndGlyphs" textLength="169" x="258.5" y="378.9951">NarrativeStatus.ValueSet</text><text fill="#000000" font-family="sans-serif" font-size="10" lengthAdjust="spacingAndGlyphs" textLength="145" x="270.5" y="391.5791">com.ibm.fhir.model.type.code</text></a><!--MD5=[efbcd2151442ebefe3c8f80f83c7198c]
reverse link com.ibm.fhir.model.type.Code to com.ibm.fhir.model.type.code.NarrativeStatus--><path d="M215,66.5468 C215,78.399 215,91.9575 215,105.8301 " fill="none" id="com.ibm.fhir.model.type.Code&lt;-com.ibm.fhir.model.type.code.NarrativeStatus" style="stroke: #A80036; stroke-width: 1.0;"/><polygon fill="none" points="208.0001,66.2246,215,46.2246,222.0001,66.2245,208.0001,66.2246" style="stroke: #A80036; stroke-width: 1.0;"/><!--MD5=[b98effd014b61f22886357f088798c45]
reverse link com.ibm.fhir.model.type.code.NarrativeStatus to com.ibm.fhir.model.type.code.NarrativeStatus.Builder--><path d="M143.1728,313.7392 C131.3829,331.834 120.4514,348.6115 112.5379,360.757 " fill="none" id="com.ibm.fhir.model.type.code.NarrativeStatus&lt;-com.ibm.fhir.model.type.code.NarrativeStatus.Builder" style="stroke: #A80036; stroke-width: 1.0;"/><ellipse cx="147.0783" cy="307.7451" fill="#FFFFFF" rx="8" ry="8" style="stroke: #A80036; stroke-width: 1.0;"/><line style="stroke: #A80036; stroke-width: 1.0;" x1="142.711" x2="151.4455" y1="314.4479" y2="301.0423"/><line style="stroke: #A80036; stroke-width: 1.0;" x1="140.3755" x2="153.781" y1="303.3778" y2="312.1123"/><!--MD5=[9ae82a6a301e73f29b60c6d704501541]
reverse link com.ibm.fhir.model.type.code.NarrativeStatus to com.ibm.fhir.model.type.code.NarrativeStatus.ValueSet--><path d="M286.8272,313.7392 C298.6171,331.834 309.5486,348.6115 317.4621,360.757 " fill="none" id="com.ibm.fhir.model.type.code.NarrativeStatus&lt;-com.ibm.fhir.model.type.code.NarrativeStatus.ValueSet" style="stroke: #A80036; stroke-width: 1.0;"/><ellipse cx="282.9217" cy="307.7451" fill="#FFFFFF" rx="8" ry="8" style="stroke: #A80036; stroke-width: 1.0;"/><line style="stroke: #A80036; stroke-width: 1.0;" x1="287.289" x2="278.5545" y1="314.4479" y2="301.0423"/><line style="stroke: #A80036; stroke-width: 1.0;" x1="276.219" x2="289.6245" y1="312.1123" y2="303.3778"/><text fill="#888888" font-family="sans-serif" font-size="10" lengthAdjust="spacingAndGlyphs" textLength="186" x="131.5" y="418.2822">UMLDoclet 2.0.7, PlantUML 1.2019.12</text><!--MD5=[fcae53b6db3ab928aa0b80448b20f6a1]
@startuml
    set namespaceSeparator none
    hide empty fields
    hide empty methods

    class "<size:14>NarrativeStatus\n<size:10>com.ibm.fhir.model.type.code" as com.ibm.fhir.model.type.code.NarrativeStatus [[NarrativeStatus.html]] {
        {static} +GENERATED: NarrativeStatus
        {static} +EXTENSIONS: NarrativeStatus
        {static} +ADDITIONAL: NarrativeStatus
        {static} +EMPTY: NarrativeStatus
        +getValueAsEnumConstant(): ValueSet
        {static} +of(ValueSet): NarrativeStatus
        {static} +of(String): NarrativeStatus
        {static} +string(String): String
        {static} +code(String): Code
        +toBuilder(): Builder
        {static} +builder(): Builder
    }

    class "<size:14>Code\n<size:10>com.ibm.fhir.model.type" as com.ibm.fhir.model.type.Code [[../Code.html]]
    class "<size:14>NarrativeStatus.Builder\n<size:10>com.ibm.fhir.model.type.code" as com.ibm.fhir.model.type.code.NarrativeStatus.Builder [[NarrativeStatus.Builder.html]]
    enum "<size:14>NarrativeStatus.ValueSet\n<size:10>com.ibm.fhir.model.type.code" as com.ibm.fhir.model.type.code.NarrativeStatus.ValueSet [[NarrativeStatus.ValueSet.html]]

    com.ibm.fhir.model.type.Code <|- - com.ibm.fhir.model.type.code.NarrativeStatus
    com.ibm.fhir.model.type.code.NarrativeStatus +- - com.ibm.fhir.model.type.code.NarrativeStatus.Builder
    com.ibm.fhir.model.type.code.NarrativeStatus +- - com.ibm.fhir.model.type.code.NarrativeStatus.ValueSet

    center footer UMLDoclet 2.0.7, PlantUML 1.2019.12
@enduml

PlantUML version 1.2019.12(Sun Nov 03 10:24:54 UTC 2019)
(APACHE source distribution)
Java Runtime: OpenJDK Runtime Environment
JVM: OpenJDK 64-Bit Server VM
Java Version: 11.0.8+10
Operating System: Linux
Default Encoding: UTF-8
Language: en
Country: null
--></g></svg>