<?xml version="1.0" encoding="UTF-8" standalone="no"?><svg xmlns="http://www.w3.org/2000/svg" xmlns:xlink="http://www.w3.org/1999/xlink" contentScriptType="application/ecmascript" contentStyleType="text/css" height="121px" preserveAspectRatio="none" style="width:374px;height:121px;" version="1.1" viewBox="0 0 374 121" width="374px" zoomAndPan="magnify"><defs><filter height="300%" id="flbao9s4u51ni" width="300%" x="-1" y="-1"><feGaussianBlur result="blurOut" stdDeviation="2.0"/><feColorMatrix in="blurOut" result="blurOut2" type="matrix" values="0 0 0 0 0 0 0 0 0 0 0 0 0 0 0 0 0 0 .4 0"/><feOffset dx="4.0" dy="4.0" in="blurOut2" result="blurOut3"/><feBlend in="SourceGraphic" in2="blurOut3" mode="normal"/></filter></defs><g><!--MD5=[b9d098a1097b9d6ec2635a9754065739]
class com.ibm.fhir.provider.util.FHIRProviderUtil--><a href="FHIRProviderUtil.html" target="_top" title="FHIRProviderUtil.html" xlink:actuate="onRequest" xlink:href="FHIRProviderUtil.html" xlink:show="new" xlink:title="FHIRProviderUtil.html" xlink:type="simple"><rect fill="#FEFECE" filter="url(#flbao9s4u51ni)" height="84.3516" id="com.ibm.fhir.provider.util.FHIRProviderUtil" style="stroke: #A80036; stroke-width: 1.5;" width="356" x="7" y="7"/><ellipse cx="120.25" cy="25.9688" fill="#ADD1B2" rx="11" ry="11" style="stroke: #A80036; stroke-width: 1.0;"/><path d="M123.2188,31.6094 Q122.6406,31.9063 122,32.0469 Q121.3594,32.2031 120.6563,32.2031 Q118.1563,32.2031 116.8281,30.5625 Q115.5156,28.9063 115.5156,25.7813 Q115.5156,22.6563 116.8281,21 Q118.1563,19.3438 120.6563,19.3438 Q121.3594,19.3438 122,19.5 Q122.6563,19.6563 123.2188,19.9531 L123.2188,22.6719 Q122.5938,22.0938 122,21.8281 Q121.4063,21.5469 120.7813,21.5469 Q119.4375,21.5469 118.75,22.625 Q118.0625,23.6875 118.0625,25.7813 Q118.0625,27.875 118.75,28.9531 Q119.4375,30.0156 120.7813,30.0156 Q121.4063,30.0156 122,29.75 Q122.5938,29.4688 123.2188,28.8906 L123.2188,31.6094 Z "/><text fill="#000000" font-family="sans-serif" font-size="14" lengthAdjust="spacingAndGlyphs" textLength="108" x="147.25" y="24.9951">FHIRProviderUtil</text><text fill="#000000" font-family="sans-serif" font-size="10" lengthAdjust="spacingAndGlyphs" textLength="121" x="140.75" y="37.5791">com.ibm.fhir.provider.util</text><line style="stroke: #A80036; stroke-width: 1.5;" x1="8" x2="362" y1="44.9375" y2="44.9375"/><ellipse cx="18" cy="55.9375" fill="#84BE84" rx="3" ry="3" style="stroke: #038048; stroke-width: 1.0;"/><text fill="#000000" font-family="sans-serif" font-size="11" lengthAdjust="spacingAndGlyphs" text-decoration="underline" textLength="188" x="27" y="59.1479">getMediaType(String): MediaType</text><ellipse cx="18" cy="68.7422" fill="#84BE84" rx="3" ry="3" style="stroke: #038048; stroke-width: 1.0;"/><text fill="#000000" font-family="sans-serif" font-size="11" lengthAdjust="spacingAndGlyphs" text-decoration="underline" textLength="330" x="27" y="71.9526">buildResponse(OperationOutcome, MediaType): Response</text><ellipse cx="18" cy="81.5469" fill="#84BE84" rx="3" ry="3" style="stroke: #038048; stroke-width: 1.0;"/><text fill="#000000" font-family="sans-serif" font-size="11" lengthAdjust="spacingAndGlyphs" text-decoration="underline" textLength="271" x="27" y="84.7573">dumpHeaders(MultivaluedMap&lt;String, ?&gt;): void</text></a><text fill="#888888" font-family="sans-serif" font-size="10" lengthAdjust="spacingAndGlyphs" textLength="186" x="92" y="107.6338">UMLDoclet 2.0.7, PlantUML 1.2019.12</text><!--MD5=[6b120ebbe4abe5836770b4f6d3d746a6]
@startuml
    set namespaceSeparator none
    hide empty fields
    hide empty methods

    class "<size:14>FHIRProviderUtil\n<size:10>com.ibm.fhir.provider.util" as com.ibm.fhir.provider.util.FHIRProviderUtil [[FHIRProviderUtil.html]] {
        {static} +getMediaType(String): MediaType
        {static} +buildResponse(OperationOutcome, MediaType): Response
        {static} +dumpHeaders(MultivaluedMap<String, ?>): void
    }

    center footer UMLDoclet 2.0.7, PlantUML 1.2019.12
@enduml

PlantUML version 1.2019.12(Sun Nov 03 10:24:54 UTC 2019)
(APACHE source distribution)
Java Runtime: OpenJDK Runtime Environment
JVM: OpenJDK 64-Bit Server VM
Java Version: 11.0.8+10
Operating System: Linux
Default Encoding: UTF-8
Language: en
Country: null
--></g></svg>