<?xml version="1.0" encoding="UTF-8" standalone="no"?><svg xmlns="http://www.w3.org/2000/svg" xmlns:xlink="http://www.w3.org/1999/xlink" contentScriptType="application/ecmascript" contentStyleType="text/css" height="209px" preserveAspectRatio="none" style="width:500px;height:209px;" version="1.1" viewBox="0 0 500 209" width="500px" zoomAndPan="magnify"><defs><filter height="300%" id="f12gikz56fnu4j" width="300%" x="-1" y="-1"><feGaussianBlur result="blurOut" stdDeviation="2.0"/><feColorMatrix in="blurOut" result="blurOut2" type="matrix" values="0 0 0 0 0 0 0 0 0 0 0 0 0 0 0 0 0 0 .4 0"/><feOffset dx="4.0" dy="4.0" in="blurOut2" result="blurOut3"/><feBlend in="SourceGraphic" in2="blurOut3" mode="normal"/></filter></defs><g><!--MD5=[8906c0cc011645937a5313e151fd29be]
cluster com.ibm.fhir.bulkdata.export.system.resource--><polygon fill="#FFFFFF" filter="url(#f12gikz56fnu4j)" points="22,24,394,24,401,46.2969,478,46.2969,478,161,22,161,22,24" style="stroke: #000000; stroke-width: 1.5;"/><line style="stroke: #000000; stroke-width: 1.5;" x1="22" x2="401" y1="46.2969" y2="46.2969"/><text fill="#000000" font-family="sans-serif" font-size="14" font-weight="bold" lengthAdjust="spacingAndGlyphs" textLength="366" x="26" y="38.9951">com.ibm.fhir.bulkdata.export.system.resource</text><!--MD5=[e1be78100056ed837db9e2c4bdac096c]
class com.ibm.fhir.bulkdata.export.system.resource.SystemExportResourceHandler--><a href="SystemExportResourceHandler.html" target="_top" title="SystemExportResourceHandler.html" xlink:actuate="onRequest" xlink:href="SystemExportResourceHandler.html" xlink:show="new" xlink:title="SystemExportResourceHandler.html" xlink:type="simple"><rect fill="#FEFECE" filter="url(#f12gikz56fnu4j)" height="86.4141" id="com.ibm.fhir.bulkdata.export.system.resource.SystemExportResourceHandler" style="stroke: #A80036; stroke-width: 1.5;" width="423" x="38.5" y="59"/><ellipse cx="149.25" cy="75" fill="#ADD1B2" rx="11" ry="11" style="stroke: #A80036; stroke-width: 1.0;"/><path d="M152.2188,80.6406 Q151.6406,80.9375 151,81.0781 Q150.3594,81.2344 149.6563,81.2344 Q147.1563,81.2344 145.8281,79.5938 Q144.5156,77.9375 144.5156,74.8125 Q144.5156,71.6875 145.8281,70.0313 Q147.1563,68.375 149.6563,68.375 Q150.3594,68.375 151,68.5313 Q151.6563,68.6875 152.2188,68.9844 L152.2188,71.7031 Q151.5938,71.125 151,70.8594 Q150.4063,70.5781 149.7813,70.5781 Q148.4375,70.5781 147.75,71.6563 Q147.0625,72.7188 147.0625,74.8125 Q147.0625,76.9063 147.75,77.9844 Q148.4375,79.0469 149.7813,79.0469 Q150.4063,79.0469 151,78.7813 Q151.5938,78.5 152.2188,77.9219 L152.2188,80.6406 Z "/><text fill="#000000" font-family="sans-serif" font-size="12" lengthAdjust="spacingAndGlyphs" textLength="193" x="169.75" y="79.1543">SystemExportResourceHandler</text><line style="stroke: #A80036; stroke-width: 1.5;" x1="39.5" x2="460.5" y1="91" y2="91"/><polygon fill="none" points="49.5,97,53.5,101,49.5,105,45.5,101" style="stroke: #B38D22; stroke-width: 1.0;"/><text fill="#000000" font-family="sans-serif" font-size="11" lengthAdjust="spacingAndGlyphs" textLength="172" x="58.5" y="105.2104">adapter: ConfigurationAdapter</text><polygon fill="none" points="49.5,109.8047,53.5,113.8047,49.5,117.8047,45.5,113.8047" style="stroke: #B38D22; stroke-width: 1.0;"/><text fill="#000000" font-family="sans-serif" font-size="11" lengthAdjust="spacingAndGlyphs" textLength="248" x="58.5" y="118.0151">resourceType: Class&lt;? extends Resource&gt;</text><line style="stroke: #A80036; stroke-width: 1.5;" x1="39.5" x2="460.5" y1="124.6094" y2="124.6094"/><ellipse cx="49.5" cy="135.6094" fill="#84BE84" rx="3" ry="3" style="stroke: #038048; stroke-width: 1.0;"/><text fill="#000000" font-family="sans-serif" font-size="11" lengthAdjust="spacingAndGlyphs" textLength="397" x="58.5" y="138.8198">fillChunkData(String, ExportTransientUserData, List&lt;Resource&gt;): void</text></a><text fill="#888888" font-family="sans-serif" font-size="10" lengthAdjust="spacingAndGlyphs" textLength="186" x="163" y="196.2822">UMLDoclet 2.0.7, PlantUML 1.2019.12</text><!--MD5=[bed98074f68ed56f4d722801f1535718]
@startuml
    namespace com.ibm.fhir.bulkdata.export.system.resource {

        class SystemExportResourceHandler [[SystemExportResourceHandler.html]] {
            #adapter: ConfigurationAdapter
            #resourceType: Class<? extends Resource>
            +fillChunkData(String, ExportTransientUserData, List<Resource>): void
        }

    }

    center footer UMLDoclet 2.0.7, PlantUML 1.2019.12
@enduml

PlantUML version 1.2019.12(Sun Nov 03 10:24:54 UTC 2019)
(APACHE source distribution)
Java Runtime: OpenJDK Runtime Environment
JVM: OpenJDK 64-Bit Server VM
Java Version: 11.0.10+9
Operating System: Linux
Default Encoding: UTF-8
Language: en
Country: null
--></g></svg>