<?xml version="1.0" encoding="UTF-8" standalone="no"?><svg xmlns="http://www.w3.org/2000/svg" xmlns:xlink="http://www.w3.org/1999/xlink" contentScriptType="application/ecmascript" contentStyleType="text/css" height="237px" preserveAspectRatio="none" style="width:333px;height:237px;" version="1.1" viewBox="0 0 333 237" width="333px" zoomAndPan="magnify"><defs><filter height="300%" id="fr0ikw487vi7i" width="300%" x="-1" y="-1"><feGaussianBlur result="blurOut" stdDeviation="2.0"/><feColorMatrix in="blurOut" result="blurOut2" type="matrix" values="0 0 0 0 0 0 0 0 0 0 0 0 0 0 0 0 0 0 .4 0"/><feOffset dx="4.0" dy="4.0" in="blurOut2" result="blurOut3"/><feBlend in="SourceGraphic" in2="blurOut3" mode="normal"/></filter></defs><g><!--MD5=[deab88d8686c3b71e6b924a2a655b3b2]
class com.ibm.fhir.exception.FHIRInvalidResourceTypeException--><a href="FHIRInvalidResourceTypeException.html" target="_top" title="FHIRInvalidResourceTypeException.html" xlink:actuate="onRequest" xlink:href="FHIRInvalidResourceTypeException.html" xlink:show="new" xlink:title="FHIRInvalidResourceTypeException.html" xlink:type="simple"><rect fill="#FEFECE" filter="url(#fr0ikw487vi7i)" height="98.0859" id="com.ibm.fhir.exception.FHIRInvalidResourceTypeException" style="stroke: #A80036; stroke-width: 1.5;" width="316" x="6" y="106"/><ellipse cx="40.8" cy="125.1328" fill="#ADD1B2" rx="11" ry="11" style="stroke: #A80036; stroke-width: 1.0;"/><path d="M43.2731,131.2759 Q42.6921,131.5747 42.0529,131.7241 Q41.4138,131.8735 40.7082,131.8735 Q38.2014,131.8735 36.8815,130.2217 Q35.5617,128.5698 35.5617,125.4487 Q35.5617,122.3193 36.8815,120.6675 Q38.2014,119.0156 40.7082,119.0156 Q41.4138,119.0156 42.0612,119.165 Q42.7087,119.3145 43.2731,119.6133 L43.2731,122.3359 Q42.6423,121.7549 42.0488,121.4851 Q41.4553,121.2153 40.8244,121.2153 Q39.4797,121.2153 38.7949,122.282 Q38.1101,123.3486 38.1101,125.4487 Q38.1101,127.5405 38.7949,128.6072 Q39.4797,129.6738 40.8244,129.6738 Q41.4553,129.6738 42.0488,129.4041 Q42.6423,129.1343 43.2731,128.5532 Z "/><text fill="#000000" font-family="sans-serif" font-size="14" lengthAdjust="spacingAndGlyphs" textLength="240" x="59.2" y="124.5352">FHIRInvalidResourceTypeException</text><text fill="#000000" font-family="sans-serif" font-size="10" lengthAdjust="spacingAndGlyphs" textLength="112" x="123.2" y="137.1563">com.ibm.fhir.exception</text><line style="stroke: #A80036; stroke-width: 1.5;" x1="7" x2="321" y1="144.2656" y2="144.2656"/><ellipse cx="17" cy="155.2656" fill="#84BE84" rx="3" ry="3" style="stroke: #038048; stroke-width: 1.0;"/><text fill="#000000" font-family="sans-serif" font-size="11" lengthAdjust="spacingAndGlyphs" textLength="196" x="26" y="158.9004">FHIRInvalidResourceTypeException()</text><ellipse cx="17" cy="168.2207" fill="#84BE84" rx="3" ry="3" style="stroke: #038048; stroke-width: 1.0;"/><text fill="#000000" font-family="sans-serif" font-size="11" lengthAdjust="spacingAndGlyphs" textLength="228" x="26" y="171.8555">FHIRInvalidResourceTypeException(String)</text><ellipse cx="17" cy="181.1758" fill="#84BE84" rx="3" ry="3" style="stroke: #038048; stroke-width: 1.0;"/><text fill="#000000" font-family="sans-serif" font-size="11" lengthAdjust="spacingAndGlyphs" textLength="290" x="26" y="184.8105">FHIRInvalidResourceTypeException(String, Throwable)</text><ellipse cx="17" cy="194.1309" fill="#84BE84" rx="3" ry="3" style="stroke: #038048; stroke-width: 1.0;"/><text fill="#000000" font-family="sans-serif" font-size="11" lengthAdjust="spacingAndGlyphs" textLength="252" x="26" y="197.7656">FHIRInvalidResourceTypeException(Throwable)</text></a><!--MD5=[b5c89e21eabd4f477d1a02bde30ee3ff]
class com.ibm.fhir.exception.FHIRException--><a href="FHIRException.html" target="_top" title="FHIRException.html" xlink:actuate="onRequest" xlink:href="FHIRException.html" xlink:show="new" xlink:title="FHIRException.html" xlink:type="simple"><rect fill="#FEFECE" filter="url(#fr0ikw487vi7i)" height="38.2656" id="com.ibm.fhir.exception.FHIRException" style="stroke: #A80036; stroke-width: 1.5;" width="144" x="92" y="8"/><ellipse cx="107" cy="27.1328" fill="#ADD1B2" rx="11" ry="11" style="stroke: #A80036; stroke-width: 1.0;"/><path d="M109.4731,33.2759 Q108.8921,33.5747 108.2529,33.7241 Q107.6138,33.8735 106.9082,33.8735 Q104.4014,33.8735 103.0815,32.2217 Q101.7617,30.5698 101.7617,27.4487 Q101.7617,24.3193 103.0815,22.6675 Q104.4014,21.0156 106.9082,21.0156 Q107.6138,21.0156 108.2612,21.165 Q108.9087,21.3145 109.4731,21.6133 L109.4731,24.3359 Q108.8423,23.7549 108.2488,23.4851 Q107.6553,23.2153 107.0244,23.2153 Q105.6797,23.2153 104.9949,24.282 Q104.3101,25.3486 104.3101,27.4487 Q104.3101,29.5405 104.9949,30.6072 Q105.6797,31.6738 107.0244,31.6738 Q107.6553,31.6738 108.2488,31.4041 Q108.8423,31.1343 109.4731,30.5532 Z "/><text fill="#000000" font-family="sans-serif" font-size="14" lengthAdjust="spacingAndGlyphs" textLength="99" x="127.5" y="26.5352">FHIRException</text><text fill="#000000" font-family="sans-serif" font-size="10" lengthAdjust="spacingAndGlyphs" textLength="112" x="121" y="39.1563">com.ibm.fhir.exception</text></a><!--MD5=[783c813518a46d191b4abbd1780abc57]
reverse link com.ibm.fhir.exception.FHIRException to com.ibm.fhir.exception.FHIRInvalidResourceTypeException--><path d="M164,66.4693 C164,78.9024 164,92.7909 164,105.8136 " fill="none" id="com.ibm.fhir.exception.FHIRException&lt;-com.ibm.fhir.exception.FHIRInvalidResourceTypeException" style="stroke: #A80036; stroke-width: 1.0;"/><polygon fill="none" points="157.0001,66.1629,164,46.1629,171.0001,66.1629,157.0001,66.1629" style="stroke: #A80036; stroke-width: 1.0;"/><text fill="#888888" font-family="sans-serif" font-size="10" lengthAdjust="spacingAndGlyphs" textLength="182" x="79" y="223.668">UMLDoclet 2.0.7, PlantUML 1.2019.12</text><!--MD5=[a2a04145726f457832f5ff39baba481c]
@startuml
    set namespaceSeparator none
    hide empty fields
    hide empty methods

    class "<size:14>FHIRInvalidResourceTypeException\n<size:10>com.ibm.fhir.exception" as com.ibm.fhir.exception.FHIRInvalidResourceTypeException [[FHIRInvalidResourceTypeException.html]] {
        +FHIRInvalidResourceTypeException()
        +FHIRInvalidResourceTypeException(String)
        +FHIRInvalidResourceTypeException(String, Throwable)
        +FHIRInvalidResourceTypeException(Throwable)
    }

    class "<size:14>FHIRException\n<size:10>com.ibm.fhir.exception" as com.ibm.fhir.exception.FHIRException [[FHIRException.html]]

    com.ibm.fhir.exception.FHIRException <|- - com.ibm.fhir.exception.FHIRInvalidResourceTypeException

    center footer UMLDoclet 2.0.7, PlantUML 1.2019.12
@enduml

PlantUML version 1.2019.12(Sun Nov 03 05:24:54 EST 2019)
(APACHE source distribution)
Java Runtime: OpenJDK Runtime Environment
JVM: OpenJDK 64-Bit Server VM
Java Version: 11.0.4+11
Operating System: Mac OS X
Default Encoding: UTF-8
Language: en
Country: US
--></g></svg>