<?xml version="1.0" encoding="UTF-8" standalone="no"?><svg xmlns="http://www.w3.org/2000/svg" xmlns:xlink="http://www.w3.org/1999/xlink" contentScriptType="application/ecmascript" contentStyleType="text/css" height="405px" preserveAspectRatio="none" style="width:354px;height:405px;" version="1.1" viewBox="0 0 354 405" width="354px" zoomAndPan="magnify"><defs><filter height="300%" id="f1cug125elanir" width="300%" x="-1" y="-1"><feGaussianBlur result="blurOut" stdDeviation="2.0"/><feColorMatrix in="blurOut" result="blurOut2" type="matrix" values="0 0 0 0 0 0 0 0 0 0 0 0 0 0 0 0 0 0 .4 0"/><feOffset dx="4.0" dy="4.0" in="blurOut2" result="blurOut3"/><feBlend in="SourceGraphic" in2="blurOut3" mode="normal"/></filter></defs><g><!--MD5=[d4ca8cc1f8daf1b793c2cc8859f90c79]
class com.ibm.fhir.model.type.Quantity.Builder--><a href="Quantity.Builder.html" target="_top" title="Quantity.Builder.html" xlink:actuate="onRequest" xlink:href="Quantity.Builder.html" xlink:show="new" xlink:title="Quantity.Builder.html" xlink:type="simple"><rect fill="#FEFECE" filter="url(#f1cug125elanir)" height="246.0078" id="com.ibm.fhir.model.type.Quantity.Builder" style="stroke: #A80036; stroke-width: 1.5;" width="265" x="42" y="127"/><ellipse cx="110.75" cy="145.9688" fill="#ADD1B2" rx="11" ry="11" style="stroke: #A80036; stroke-width: 1.0;"/><path d="M113.7188,151.6094 Q113.1406,151.9063 112.5,152.0469 Q111.8594,152.2031 111.1563,152.2031 Q108.6563,152.2031 107.3281,150.5625 Q106.0156,148.9063 106.0156,145.7813 Q106.0156,142.6563 107.3281,141 Q108.6563,139.3438 111.1563,139.3438 Q111.8594,139.3438 112.5,139.5 Q113.1563,139.6563 113.7188,139.9531 L113.7188,142.6719 Q113.0938,142.0938 112.5,141.8281 Q111.9063,141.5469 111.2813,141.5469 Q109.9375,141.5469 109.25,142.625 Q108.5625,143.6875 108.5625,145.7813 Q108.5625,147.875 109.25,148.9531 Q109.9375,150.0156 111.2813,150.0156 Q111.9063,150.0156 112.5,149.75 Q113.0938,149.4688 113.7188,148.8906 L113.7188,151.6094 Z "/><text fill="#000000" font-family="sans-serif" font-size="14" lengthAdjust="spacingAndGlyphs" textLength="109" x="136.25" y="144.9951">Quantity.Builder</text><text fill="#000000" font-family="sans-serif" font-size="10" lengthAdjust="spacingAndGlyphs" textLength="119" x="131.25" y="157.5791">com.ibm.fhir.model.type</text><line style="stroke: #A80036; stroke-width: 1.5;" x1="43" x2="306" y1="164.9375" y2="164.9375"/><polygon fill="none" points="53,170.9375,57,174.9375,53,178.9375,49,174.9375" style="stroke: #B38D22; stroke-width: 1.0;"/><text fill="#000000" font-family="sans-serif" font-size="11" lengthAdjust="spacingAndGlyphs" textLength="83" x="62" y="179.1479">value: Decimal</text><polygon fill="none" points="53,183.7422,57,187.7422,53,191.7422,49,187.7422" style="stroke: #B38D22; stroke-width: 1.0;"/><text fill="#000000" font-family="sans-serif" font-size="11" lengthAdjust="spacingAndGlyphs" textLength="189" x="62" y="191.9526">comparator: QuantityComparator</text><polygon fill="none" points="53,196.5469,57,200.5469,53,204.5469,49,200.5469" style="stroke: #B38D22; stroke-width: 1.0;"/><text fill="#000000" font-family="sans-serif" font-size="11" lengthAdjust="spacingAndGlyphs" textLength="63" x="62" y="204.7573">unit: String</text><polygon fill="none" points="53,209.3516,57,213.3516,53,217.3516,49,213.3516" style="stroke: #B38D22; stroke-width: 1.0;"/><text fill="#000000" font-family="sans-serif" font-size="11" lengthAdjust="spacingAndGlyphs" textLength="66" x="62" y="217.562">system: Uri</text><polygon fill="none" points="53,222.1563,57,226.1563,53,230.1563,49,226.1563" style="stroke: #B38D22; stroke-width: 1.0;"/><text fill="#000000" font-family="sans-serif" font-size="11" lengthAdjust="spacingAndGlyphs" textLength="64" x="62" y="230.3667">code: Code</text><line style="stroke: #A80036; stroke-width: 1.5;" x1="43" x2="306" y1="236.9609" y2="236.9609"/><ellipse cx="53" cy="247.9609" fill="#84BE84" rx="3" ry="3" style="stroke: #038048; stroke-width: 1.0;"/><text fill="#000000" font-family="sans-serif" font-size="11" lengthAdjust="spacingAndGlyphs" textLength="100" x="62" y="251.1714">id(String): Builder</text><ellipse cx="53" cy="260.7656" fill="#84BE84" rx="3" ry="3" style="stroke: #038048; stroke-width: 1.0;"/><text fill="#000000" font-family="sans-serif" font-size="11" lengthAdjust="spacingAndGlyphs" textLength="178" x="62" y="263.9761">extension(Extension...): Builder</text><ellipse cx="53" cy="273.5703" fill="#84BE84" rx="3" ry="3" style="stroke: #038048; stroke-width: 1.0;"/><text fill="#000000" font-family="sans-serif" font-size="11" lengthAdjust="spacingAndGlyphs" textLength="239" x="62" y="276.7808">extension(Collection&lt;Extension&gt;): Builder</text><ellipse cx="53" cy="286.375" fill="#84BE84" rx="3" ry="3" style="stroke: #038048; stroke-width: 1.0;"/><text fill="#000000" font-family="sans-serif" font-size="11" lengthAdjust="spacingAndGlyphs" textLength="131" x="62" y="289.5854">value(Decimal): Builder</text><ellipse cx="53" cy="299.1797" fill="#84BE84" rx="3" ry="3" style="stroke: #038048; stroke-width: 1.0;"/><text fill="#000000" font-family="sans-serif" font-size="11" lengthAdjust="spacingAndGlyphs" textLength="237" x="62" y="302.3901">comparator(QuantityComparator): Builder</text><ellipse cx="53" cy="311.9844" fill="#84BE84" rx="3" ry="3" style="stroke: #038048; stroke-width: 1.0;"/><text fill="#000000" font-family="sans-serif" font-size="11" lengthAdjust="spacingAndGlyphs" textLength="111" x="62" y="315.1948">unit(String): Builder</text><ellipse cx="53" cy="324.7891" fill="#84BE84" rx="3" ry="3" style="stroke: #038048; stroke-width: 1.0;"/><text fill="#000000" font-family="sans-serif" font-size="11" lengthAdjust="spacingAndGlyphs" textLength="114" x="62" y="327.9995">system(Uri): Builder</text><ellipse cx="53" cy="337.5938" fill="#84BE84" rx="3" ry="3" style="stroke: #038048; stroke-width: 1.0;"/><text fill="#000000" font-family="sans-serif" font-size="11" lengthAdjust="spacingAndGlyphs" textLength="112" x="62" y="340.8042">code(Code): Builder</text><ellipse cx="53" cy="350.3984" fill="#84BE84" rx="3" ry="3" style="stroke: #038048; stroke-width: 1.0;"/><text fill="#000000" font-family="sans-serif" font-size="11" lengthAdjust="spacingAndGlyphs" textLength="90" x="62" y="353.6089">build(): Quantity</text><polygon fill="#FFFF44" points="53,358.2031,57,362.2031,53,366.2031,49,362.2031" style="stroke: #B38D22; stroke-width: 1.0;"/><text fill="#000000" font-family="sans-serif" font-size="11" lengthAdjust="spacingAndGlyphs" textLength="130" x="62" y="366.4136">from(Quantity): Builder</text></a><!--MD5=[6c9d770aceb90b1f2e4c908e25cc69b5]
class com.ibm.fhir.model.type.Element.Builder--><a href="Element.Builder.html" target="_top" title="Element.Builder.html" xlink:actuate="onRequest" xlink:href="Element.Builder.html" xlink:show="new" xlink:title="Element.Builder.html" xlink:type="simple"><rect fill="#FEFECE" filter="url(#f1cug125elanir)" height="58.7422" id="com.ibm.fhir.model.type.Element.Builder" style="stroke: #A80036; stroke-width: 1.5;" width="151" x="6" y="8"/><ellipse cx="21" cy="26.9688" fill="#A9DCDF" rx="11" ry="11" style="stroke: #A80036; stroke-width: 1.0;"/><path d="M21.1094,22.3125 L19.9531,27.3906 L22.2813,27.3906 L21.1094,22.3125 Z M19.625,20.0781 L22.6094,20.0781 L25.9688,32.4688 L23.5156,32.4688 L22.75,29.4063 L19.4688,29.4063 L18.7188,32.4688 L16.2813,32.4688 L19.625,20.0781 Z "/><text fill="#000000" font-family="sans-serif" font-size="14" font-style="italic" lengthAdjust="spacingAndGlyphs" textLength="109" x="40" y="25.9951">Element.Builder</text><text fill="#000000" font-family="sans-serif" font-size="10" font-style="italic" lengthAdjust="spacingAndGlyphs" textLength="119" x="35" y="38.5791">com.ibm.fhir.model.type</text><line style="stroke: #A80036; stroke-width: 1.5;" x1="7" x2="156" y1="45.9375" y2="45.9375"/><ellipse cx="17" cy="56.9375" fill="#84BE84" rx="3" ry="3" style="stroke: #038048; stroke-width: 1.0;"/><text fill="#000000" font-family="sans-serif" font-size="11" font-style="italic" lengthAdjust="spacingAndGlyphs" textLength="89" x="26" y="60.1479">build(): Element</text></a><!--MD5=[8241ba412bfd6a5824781020cf27ecc3]
class com.ibm.fhir.model.type.Quantity--><a href="Quantity.html" target="_top" title="Quantity.html" xlink:actuate="onRequest" xlink:href="Quantity.html" xlink:show="new" xlink:title="Quantity.html" xlink:type="simple"><rect fill="#FEFECE" filter="url(#f1cug125elanir)" height="37.9375" id="com.ibm.fhir.model.type.Quantity" style="stroke: #A80036; stroke-width: 1.5;" width="151" x="192" y="18.5"/><ellipse cx="207" cy="37.4688" fill="#ADD1B2" rx="11" ry="11" style="stroke: #A80036; stroke-width: 1.0;"/><path d="M209.9688,43.1094 Q209.3906,43.4063 208.75,43.5469 Q208.1094,43.7031 207.4063,43.7031 Q204.9063,43.7031 203.5781,42.0625 Q202.2656,40.4063 202.2656,37.2813 Q202.2656,34.1563 203.5781,32.5 Q204.9063,30.8438 207.4063,30.8438 Q208.1094,30.8438 208.75,31 Q209.4063,31.1563 209.9688,31.4531 L209.9688,34.1719 Q209.3438,33.5938 208.75,33.3281 Q208.1563,33.0469 207.5313,33.0469 Q206.1875,33.0469 205.5,34.125 Q204.8125,35.1875 204.8125,37.2813 Q204.8125,39.375 205.5,40.4531 Q206.1875,41.5156 207.5313,41.5156 Q208.1563,41.5156 208.75,41.25 Q209.3438,40.9688 209.9688,40.3906 L209.9688,43.1094 Z "/><text fill="#000000" font-family="sans-serif" font-size="14" lengthAdjust="spacingAndGlyphs" textLength="57" x="252" y="36.4951">Quantity</text><text fill="#000000" font-family="sans-serif" font-size="10" lengthAdjust="spacingAndGlyphs" textLength="119" x="221" y="49.0791">com.ibm.fhir.model.type</text></a><!--MD5=[6c5b5d6f645b3276f97937c99707edf7]
reverse link com.ibm.fhir.model.type.Element.Builder to com.ibm.fhir.model.type.Quantity.Builder--><path d="M102.4573,85.3863 C107.9752,97.9945 114.1889,112.1924 120.5951,126.8301 " fill="none" id="com.ibm.fhir.model.type.Element.Builder&lt;-com.ibm.fhir.model.type.Quantity.Builder" style="stroke: #A80036; stroke-width: 1.0;"/><polygon fill="none" points="96.0372,88.1759,94.4313,67.0472,108.8627,82.5628,96.0372,88.1759" style="stroke: #A80036; stroke-width: 1.0;"/><!--MD5=[9c3568aa3130b5afb8a5a0e62e88cee1]
reverse link com.ibm.fhir.model.type.Quantity to com.ibm.fhir.model.type.Quantity.Builder--><path d="M252.8676,70.9343 C246.0056,86.6136 237.3594,106.3695 228.3352,126.9894 " fill="none" id="com.ibm.fhir.model.type.Quantity&lt;-com.ibm.fhir.model.type.Quantity.Builder" style="stroke: #A80036; stroke-width: 1.0;"/><ellipse cx="255.8754" cy="64.0616" fill="#FFFFFF" rx="8" ry="8" style="stroke: #A80036; stroke-width: 1.0;"/><line style="stroke: #A80036; stroke-width: 1.0;" x1="252.6679" x2="259.0828" y1="71.3904" y2="56.7327"/><line style="stroke: #A80036; stroke-width: 1.0;" x1="248.5465" x2="263.2042" y1="60.8541" y2="67.269"/><text fill="#888888" font-family="sans-serif" font-size="10" lengthAdjust="spacingAndGlyphs" textLength="186" x="87.5" y="392.2822">UMLDoclet 2.0.7, PlantUML 1.2019.12</text><!--MD5=[ba94160271b3f5f4231ed16b71df0875]
@startuml
    set namespaceSeparator none
    hide empty fields
    hide empty methods

    class "<size:14>Quantity.Builder\n<size:10>com.ibm.fhir.model.type" as com.ibm.fhir.model.type.Quantity.Builder [[Quantity.Builder.html]] {
        #value: Decimal
        #comparator: QuantityComparator
        #unit: String
        #system: Uri
        #code: Code
        +id(String): Builder
        +extension(Extension...): Builder
        +extension(Collection<Extension>): Builder
        +value(Decimal): Builder
        +comparator(QuantityComparator): Builder
        +unit(String): Builder
        +system(Uri): Builder
        +code(Code): Builder
        +build(): Quantity
        #from(Quantity): Builder
    }

    abstract class "<size:14>Element.Builder\n<size:10>com.ibm.fhir.model.type" as com.ibm.fhir.model.type.Element.Builder [[Element.Builder.html]] {
        {abstract} +build(): Element
    }
    class "<size:14>Quantity\n<size:10>com.ibm.fhir.model.type" as com.ibm.fhir.model.type.Quantity [[Quantity.html]]

    com.ibm.fhir.model.type.Element.Builder <|- - com.ibm.fhir.model.type.Quantity.Builder
    com.ibm.fhir.model.type.Quantity +- - com.ibm.fhir.model.type.Quantity.Builder

    center footer UMLDoclet 2.0.7, PlantUML 1.2019.12
@enduml

PlantUML version 1.2019.12(Sun Nov 03 10:24:54 UTC 2019)
(APACHE source distribution)
Java Runtime: OpenJDK Runtime Environment
JVM: OpenJDK 64-Bit Server VM
Java Version: 11.0.9.1+1
Operating System: Linux
Default Encoding: UTF-8
Language: en
Country: null
--></g></svg>