<?xml version="1.0" encoding="UTF-8" standalone="no"?><svg xmlns="http://www.w3.org/2000/svg" xmlns:xlink="http://www.w3.org/1999/xlink" contentScriptType="application/ecmascript" contentStyleType="text/css" height="267px" preserveAspectRatio="none" style="width:984px;height:267px;" version="1.1" viewBox="0 0 984 267" width="984px" zoomAndPan="magnify"><defs><filter height="300%" id="fo253ly5k0dda" width="300%" x="-1" y="-1"><feGaussianBlur result="blurOut" stdDeviation="2.0"/><feColorMatrix in="blurOut" result="blurOut2" type="matrix" values="0 0 0 0 0 0 0 0 0 0 0 0 0 0 0 0 0 0 .4 0"/><feOffset dx="4.0" dy="4.0" in="blurOut2" result="blurOut3"/><feBlend in="SourceGraphic" in2="blurOut3" mode="normal"/></filter></defs><g><!--MD5=[0cbcdeb02668ff441b16841118bed80e]
cluster com.ibm.fhir.operation.bulkdata.util--><polygon fill="#FFFFFF" filter="url(#fo253ly5k0dda)" points="14,16,300,16,307,38.2969,962,38.2969,962,227,14,227,14,16" style="stroke: #000000; stroke-width: 1.5;"/><line style="stroke: #000000; stroke-width: 1.5;" x1="14" x2="307" y1="38.2969" y2="38.2969"/><text fill="#000000" font-family="sans-serif" font-size="14" font-weight="bold" lengthAdjust="spacingAndGlyphs" textLength="280" x="18" y="30.9951">com.ibm.fhir.operation.bulkdata.util</text><!--MD5=[c0a8838522452ba7e6ba0fc46998619d]
class com.ibm.fhir.operation.bulkdata.util.BulkDataExportUtil--><a href="BulkDataExportUtil.html" target="_top" title="BulkDataExportUtil.html" xlink:actuate="onRequest" xlink:href="BulkDataExportUtil.html" xlink:show="new" xlink:title="BulkDataExportUtil.html" xlink:type="simple"><rect fill="#FEFECE" filter="url(#fo253ly5k0dda)" height="176.0469" id="com.ibm.fhir.operation.bulkdata.util.BulkDataExportUtil" style="stroke: #A80036; stroke-width: 1.5;" width="419" x="535.5" y="43"/><ellipse cx="682.75" cy="59" fill="#ADD1B2" rx="11" ry="11" style="stroke: #A80036; stroke-width: 1.0;"/><path d="M685.7188,64.6406 Q685.1406,64.9375 684.5,65.0781 Q683.8594,65.2344 683.1563,65.2344 Q680.6563,65.2344 679.3281,63.5938 Q678.0156,61.9375 678.0156,58.8125 Q678.0156,55.6875 679.3281,54.0313 Q680.6563,52.375 683.1563,52.375 Q683.8594,52.375 684.5,52.5313 Q685.1563,52.6875 685.7188,52.9844 L685.7188,55.7031 Q685.0938,55.125 684.5,54.8594 Q683.9063,54.5781 683.2813,54.5781 Q681.9375,54.5781 681.25,55.6563 Q680.5625,56.7188 680.5625,58.8125 Q680.5625,60.9063 681.25,61.9844 Q681.9375,63.0469 683.2813,63.0469 Q683.9063,63.0469 684.5,62.7813 Q685.0938,62.5 685.7188,61.9219 L685.7188,64.6406 Z "/><text fill="#000000" font-family="sans-serif" font-size="12" lengthAdjust="spacingAndGlyphs" textLength="116" x="703.25" y="63.1543">BulkDataExportUtil</text><line style="stroke: #A80036; stroke-width: 1.5;" x1="536.5" x2="953.5" y1="75" y2="75"/><line style="stroke: #A80036; stroke-width: 1.5;" x1="536.5" x2="953.5" y1="83" y2="83"/><ellipse cx="546.5" cy="94" fill="#84BE84" rx="3" ry="3" style="stroke: #038048; stroke-width: 1.0;"/><text fill="#000000" font-family="sans-serif" font-size="11" lengthAdjust="spacingAndGlyphs" text-decoration="underline" textLength="371" x="555.5" y="97.2104">checkExportType(Type, Class&lt;? extends Resource&gt;): ExportType</text><ellipse cx="546.5" cy="106.8047" fill="#84BE84" rx="3" ry="3" style="stroke: #038048; stroke-width: 1.0;"/><text fill="#000000" font-family="sans-serif" font-size="11" lengthAdjust="spacingAndGlyphs" text-decoration="underline" textLength="370" x="555.5" y="110.0151">checkAndConvertToMediaType(FHIROperationContext): MediaType</text><ellipse cx="546.5" cy="119.6094" fill="#84BE84" rx="3" ry="3" style="stroke: #038048; stroke-width: 1.0;"/><text fill="#000000" font-family="sans-serif" font-size="11" lengthAdjust="spacingAndGlyphs" text-decoration="underline" textLength="387" x="555.5" y="122.8198">buildOperationException(String, IssueType): FHIROperationException</text><ellipse cx="546.5" cy="132.4141" fill="#84BE84" rx="3" ry="3" style="stroke: #038048; stroke-width: 1.0;"/><text fill="#000000" font-family="sans-serif" font-size="11" lengthAdjust="spacingAndGlyphs" text-decoration="underline" textLength="245" x="555.5" y="135.6245">checkAndExtractSince(Parameters): Instant</text><ellipse cx="546.5" cy="145.2188" fill="#84BE84" rx="3" ry="3" style="stroke: #038048; stroke-width: 1.0;"/><text fill="#000000" font-family="sans-serif" font-size="11" lengthAdjust="spacingAndGlyphs" text-decoration="underline" textLength="287" x="555.5" y="148.4292">checkAndValidateTypes(Parameters): List&lt;String&gt;</text><ellipse cx="546.5" cy="158.0234" fill="#84BE84" rx="3" ry="3" style="stroke: #038048; stroke-width: 1.0;"/><text fill="#000000" font-family="sans-serif" font-size="11" lengthAdjust="spacingAndGlyphs" text-decoration="underline" textLength="315" x="555.5" y="161.2339">checkAndValidateTypeFilters(Parameters): List&lt;String&gt;</text><ellipse cx="546.5" cy="170.8281" fill="#84BE84" rx="3" ry="3" style="stroke: #038048; stroke-width: 1.0;"/><text fill="#000000" font-family="sans-serif" font-size="11" lengthAdjust="spacingAndGlyphs" text-decoration="underline" textLength="393" x="555.5" y="174.0386">getOutputParametersWithJson(PollingLocationResponse): Parameters</text><ellipse cx="546.5" cy="183.6328" fill="#84BE84" rx="3" ry="3" style="stroke: #038048; stroke-width: 1.0;"/><text fill="#000000" font-family="sans-serif" font-size="11" lengthAdjust="spacingAndGlyphs" text-decoration="underline" textLength="232" x="555.5" y="186.8433">checkAndValidateJob(Parameters): String</text><ellipse cx="546.5" cy="196.4375" fill="#84BE84" rx="3" ry="3" style="stroke: #038048; stroke-width: 1.0;"/><text fill="#000000" font-family="sans-serif" font-size="11" lengthAdjust="spacingAndGlyphs" text-decoration="underline" textLength="278" x="555.5" y="199.6479">encryptBatchJobId(String, SecretKeySpec): String</text><ellipse cx="546.5" cy="209.2422" fill="#84BE84" rx="3" ry="3" style="stroke: #038048; stroke-width: 1.0;"/><text fill="#000000" font-family="sans-serif" font-size="11" lengthAdjust="spacingAndGlyphs" text-decoration="underline" textLength="278" x="555.5" y="212.4526">decryptBatchJobId(String, SecretKeySpec): String</text></a><!--MD5=[14aecb6dfd63130c8ceda393b1fb0014]
class com.ibm.fhir.operation.bulkdata.util.BulkDataImportUtil--><a href="BulkDataImportUtil.html" target="_top" title="BulkDataImportUtil.html" xlink:actuate="onRequest" xlink:href="BulkDataImportUtil.html" xlink:show="new" xlink:title="BulkDataImportUtil.html" xlink:type="simple"><rect fill="#FEFECE" filter="url(#fo253ly5k0dda)" height="150.4375" id="com.ibm.fhir.operation.bulkdata.util.BulkDataImportUtil" style="stroke: #A80036; stroke-width: 1.5;" width="478" x="22" y="56"/><ellipse cx="198.75" cy="72" fill="#ADD1B2" rx="11" ry="11" style="stroke: #A80036; stroke-width: 1.0;"/><path d="M201.7188,77.6406 Q201.1406,77.9375 200.5,78.0781 Q199.8594,78.2344 199.1563,78.2344 Q196.6563,78.2344 195.3281,76.5938 Q194.0156,74.9375 194.0156,71.8125 Q194.0156,68.6875 195.3281,67.0313 Q196.6563,65.375 199.1563,65.375 Q199.8594,65.375 200.5,65.5313 Q201.1563,65.6875 201.7188,65.9844 L201.7188,68.7031 Q201.0938,68.125 200.5,67.8594 Q199.9063,67.5781 199.2813,67.5781 Q197.9375,67.5781 197.25,68.6563 Q196.5625,69.7188 196.5625,71.8125 Q196.5625,73.9063 197.25,74.9844 Q197.9375,76.0469 199.2813,76.0469 Q199.9063,76.0469 200.5,75.7813 Q201.0938,75.5 201.7188,74.9219 L201.7188,77.6406 Z "/><text fill="#000000" font-family="sans-serif" font-size="12" lengthAdjust="spacingAndGlyphs" textLength="116" x="219.25" y="76.1543">BulkDataImportUtil</text><line style="stroke: #A80036; stroke-width: 1.5;" x1="23" x2="499" y1="88" y2="88"/><line style="stroke: #A80036; stroke-width: 1.5;" x1="23" x2="499" y1="96" y2="96"/><ellipse cx="33" cy="107" fill="#84BE84" rx="3" ry="3" style="stroke: #038048; stroke-width: 1.0;"/><text fill="#000000" font-family="sans-serif" font-size="11" lengthAdjust="spacingAndGlyphs" text-decoration="underline" textLength="385" x="42" y="110.2104">buildExceptionWithIssue(String, IssueType): FHIROperationException</text><ellipse cx="33" cy="119.8047" fill="#84BE84" rx="3" ry="3" style="stroke: #038048; stroke-width: 1.0;"/><text fill="#000000" font-family="sans-serif" font-size="11" lengthAdjust="spacingAndGlyphs" text-decoration="underline" textLength="452" x="42" y="123.0151">buildExceptionWithIssue(String, Throwable, IssueType): FHIROperationException</text><ellipse cx="33" cy="132.6094" fill="#84BE84" rx="3" ry="3" style="stroke: #038048; stroke-width: 1.0;"/><text fill="#000000" font-family="sans-serif" font-size="11" lengthAdjust="spacingAndGlyphs" text-decoration="underline" textLength="229" x="42" y="135.8198">retrieveInputFormat(Parameters): String</text><ellipse cx="33" cy="145.4141" fill="#84BE84" rx="3" ry="3" style="stroke: #038048; stroke-width: 1.0;"/><text fill="#000000" font-family="sans-serif" font-size="11" lengthAdjust="spacingAndGlyphs" text-decoration="underline" textLength="229" x="42" y="148.6245">retrieveInputSource(Parameters): String</text><ellipse cx="33" cy="158.2188" fill="#84BE84" rx="3" ry="3" style="stroke: #038048; stroke-width: 1.0;"/><text fill="#000000" font-family="sans-serif" font-size="11" lengthAdjust="spacingAndGlyphs" text-decoration="underline" textLength="228" x="42" y="161.4292">retrieveInputs(Parameters): List&lt;Input&gt;</text><ellipse cx="33" cy="171.0234" fill="#84BE84" rx="3" ry="3" style="stroke: #038048; stroke-width: 1.0;"/><text fill="#000000" font-family="sans-serif" font-size="11" lengthAdjust="spacingAndGlyphs" text-decoration="underline" textLength="319" x="42" y="174.2339">checkAllowedTotalSizeForTenantOrSystem(Integer): void</text><ellipse cx="33" cy="183.8281" fill="#84BE84" rx="3" ry="3" style="stroke: #038048; stroke-width: 1.0;"/><text fill="#000000" font-family="sans-serif" font-size="11" lengthAdjust="spacingAndGlyphs" text-decoration="underline" textLength="163" x="42" y="187.0386">verifyUrlAllowed(String): void</text><ellipse cx="33" cy="196.6328" fill="#84BE84" rx="3" ry="3" style="stroke: #038048; stroke-width: 1.0;"/><text fill="#000000" font-family="sans-serif" font-size="11" lengthAdjust="spacingAndGlyphs" text-decoration="underline" textLength="288" x="42" y="199.8433">retrieveStorageDetails(Parameters): StorageDetail</text></a><text fill="#888888" font-family="sans-serif" font-size="10" lengthAdjust="spacingAndGlyphs" textLength="186" x="401" y="254.2822">UMLDoclet 2.0.7, PlantUML 1.2019.12</text><!--MD5=[da83d62ea5ac17ff85643aaf7940d14d]
@startuml
    namespace com.ibm.fhir.operation.bulkdata.util {

        class BulkDataExportUtil [[BulkDataExportUtil.html]] {
            {static} +checkExportType(Type, Class<? extends Resource>): ExportType
            {static} +checkAndConvertToMediaType(FHIROperationContext): MediaType
            {static} +buildOperationException(String, IssueType): FHIROperationException
            {static} +checkAndExtractSince(Parameters): Instant
            {static} +checkAndValidateTypes(Parameters): List<String>
            {static} +checkAndValidateTypeFilters(Parameters): List<String>
            {static} +getOutputParametersWithJson(PollingLocationResponse): Parameters
            {static} +checkAndValidateJob(Parameters): String
            {static} +encryptBatchJobId(String, SecretKeySpec): String
            {static} +decryptBatchJobId(String, SecretKeySpec): String
        }

        class BulkDataImportUtil [[BulkDataImportUtil.html]] {
            {static} +buildExceptionWithIssue(String, IssueType): FHIROperationException
            {static} +buildExceptionWithIssue(String, Throwable, IssueType): FHIROperationException
            {static} +retrieveInputFormat(Parameters): String
            {static} +retrieveInputSource(Parameters): String
            {static} +retrieveInputs(Parameters): List<Input>
            {static} +checkAllowedTotalSizeForTenantOrSystem(Integer): void
            {static} +verifyUrlAllowed(String): void
            {static} +retrieveStorageDetails(Parameters): StorageDetail
        }

    }

    center footer UMLDoclet 2.0.7, PlantUML 1.2019.12
@enduml

PlantUML version 1.2019.12(Sun Nov 03 10:24:54 UTC 2019)
(APACHE source distribution)
Java Runtime: OpenJDK Runtime Environment
JVM: OpenJDK 64-Bit Server VM
Java Version: 11.0.8+10
Operating System: Linux
Default Encoding: UTF-8
Language: en
Country: null
--></g></svg>