<?xml version="1.0" encoding="UTF-8" standalone="no"?><svg xmlns="http://www.w3.org/2000/svg" xmlns:xlink="http://www.w3.org/1999/xlink" contentScriptType="application/ecmascript" contentStyleType="text/css" height="243px" preserveAspectRatio="none" style="width:327px;height:243px;" version="1.1" viewBox="0 0 327 243" width="327px" zoomAndPan="magnify"><defs><filter height="300%" id="fo5u2maz752ay" width="300%" x="-1" y="-1"><feGaussianBlur result="blurOut" stdDeviation="2.0"/><feColorMatrix in="blurOut" result="blurOut2" type="matrix" values="0 0 0 0 0 0 0 0 0 0 0 0 0 0 0 0 0 0 .4 0"/><feOffset dx="4.0" dy="4.0" in="blurOut2" result="blurOut3"/><feBlend in="SourceGraphic" in2="blurOut3" mode="normal"/></filter></defs><g><!--MD5=[5cfed86aa97bc933f43559179420e16e]
class com.ibm.fhir.persistence.jdbc.connection.SchemaNameFromProps--><a href="SchemaNameFromProps.html" target="_top" title="SchemaNameFromProps.html" xlink:actuate="onRequest" xlink:href="SchemaNameFromProps.html" xlink:show="new" xlink:title="SchemaNameFromProps.html" xlink:type="simple"><rect fill="#FEFECE" filter="url(#fo5u2maz752ay)" height="84.3516" id="com.ibm.fhir.persistence.jdbc.connection.SchemaNameFromProps" style="stroke: #A80036; stroke-width: 1.5;" width="310" x="6" y="127"/><ellipse cx="58.75" cy="145.9688" fill="#ADD1B2" rx="11" ry="11" style="stroke: #A80036; stroke-width: 1.0;"/><path d="M61.7188,151.6094 Q61.1406,151.9063 60.5,152.0469 Q59.8594,152.2031 59.1563,152.2031 Q56.6563,152.2031 55.3281,150.5625 Q54.0156,148.9063 54.0156,145.7813 Q54.0156,142.6563 55.3281,141 Q56.6563,139.3438 59.1563,139.3438 Q59.8594,139.3438 60.5,139.5 Q61.1563,139.6563 61.7188,139.9531 L61.7188,142.6719 Q61.0938,142.0938 60.5,141.8281 Q59.9063,141.5469 59.2813,141.5469 Q57.9375,141.5469 57.25,142.625 Q56.5625,143.6875 56.5625,145.7813 Q56.5625,147.875 57.25,148.9531 Q57.9375,150.0156 59.2813,150.0156 Q59.9063,150.0156 60.5,149.75 Q61.0938,149.4688 61.7188,148.8906 L61.7188,151.6094 Z "/><text fill="#000000" font-family="sans-serif" font-size="14" lengthAdjust="spacingAndGlyphs" textLength="171" x="91.75" y="144.9951">SchemaNameFromProps</text><text fill="#000000" font-family="sans-serif" font-size="10" lengthAdjust="spacingAndGlyphs" textLength="196" x="79.25" y="157.5791">com.ibm.fhir.persistence.jdbc.connection</text><line style="stroke: #A80036; stroke-width: 1.5;" x1="7" x2="315" y1="164.9375" y2="164.9375"/><ellipse cx="17" cy="175.9375" fill="#84BE84" rx="3" ry="3" style="stroke: #038048; stroke-width: 1.0;"/><text fill="#000000" font-family="sans-serif" font-size="11" lengthAdjust="spacingAndGlyphs" textLength="208" x="26" y="179.1479">SchemaNameFromProps(Properties)</text><ellipse cx="17" cy="188.7422" fill="#84BE84" rx="3" ry="3" style="stroke: #038048; stroke-width: 1.0;"/><text fill="#000000" font-family="sans-serif" font-size="11" lengthAdjust="spacingAndGlyphs" textLength="183" x="26" y="191.9526">SchemaNameFromProps(String)</text><ellipse cx="17" cy="201.5469" fill="#84BE84" rx="3" ry="3" style="stroke: #038048; stroke-width: 1.0;"/><text fill="#000000" font-family="sans-serif" font-size="11" lengthAdjust="spacingAndGlyphs" textLength="284" x="26" y="204.7573">getSchemaForRequestContext(Connection): String</text></a><!--MD5=[b1ee7ae18ad6383e26527cf470aab639]
class com.ibm.fhir.persistence.jdbc.connection.SchemaNameSupplier--><a href="SchemaNameSupplier.html" target="_top" title="SchemaNameSupplier.html" xlink:actuate="onRequest" xlink:href="SchemaNameSupplier.html" xlink:show="new" xlink:title="SchemaNameSupplier.html" xlink:type="simple"><rect fill="#FEFECE" filter="url(#fo5u2maz752ay)" height="58.7422" id="com.ibm.fhir.persistence.jdbc.connection.SchemaNameSupplier" style="stroke: #A80036; stroke-width: 1.5;" width="310" x="6" y="8"/><ellipse cx="58.75" cy="26.9688" fill="#B4A7E5" rx="11" ry="11" style="stroke: #A80036; stroke-width: 1.0;"/><path d="M54.6719,22.7344 L54.6719,20.5781 L62.0625,20.5781 L62.0625,22.7344 L59.5938,22.7344 L59.5938,30.8125 L62.0625,30.8125 L62.0625,32.9688 L54.6719,32.9688 L54.6719,30.8125 L57.1406,30.8125 L57.1406,22.7344 L54.6719,22.7344 Z "/><text fill="#000000" font-family="sans-serif" font-size="14" font-style="italic" lengthAdjust="spacingAndGlyphs" textLength="152" x="101.25" y="25.9951">SchemaNameSupplier</text><text fill="#000000" font-family="sans-serif" font-size="10" font-style="italic" lengthAdjust="spacingAndGlyphs" textLength="196" x="79.25" y="38.5791">com.ibm.fhir.persistence.jdbc.connection</text><line style="stroke: #A80036; stroke-width: 1.5;" x1="7" x2="315" y1="45.9375" y2="45.9375"/><ellipse cx="17" cy="56.9375" fill="#84BE84" rx="3" ry="3" style="stroke: #038048; stroke-width: 1.0;"/><text fill="#000000" font-family="sans-serif" font-size="11" font-style="italic" lengthAdjust="spacingAndGlyphs" textLength="284" x="26" y="60.1479">getSchemaForRequestContext(Connection): String</text></a><!--MD5=[e599c4dbd57cfcd1b01d468a77c17a27]
reverse link com.ibm.fhir.persistence.jdbc.connection.SchemaNameSupplier to com.ibm.fhir.persistence.jdbc.connection.SchemaNameFromProps--><path d="M161,87.138 C161,100.225 161,114.2196 161,126.8691 " fill="none" id="com.ibm.fhir.persistence.jdbc.connection.SchemaNameSupplier&lt;-com.ibm.fhir.persistence.jdbc.connection.SchemaNameFromProps" style="stroke: #A80036; stroke-width: 1.0; stroke-dasharray: 7.0,7.0;"/><polygon fill="none" points="154.0001,87.0112,161,67.0112,168.0001,87.0111,154.0001,87.0112" style="stroke: #A80036; stroke-width: 1.0;"/><text fill="#888888" font-family="sans-serif" font-size="10" lengthAdjust="spacingAndGlyphs" textLength="186" x="74" y="230.2822">UMLDoclet 2.0.7, PlantUML 1.2019.12</text><!--MD5=[1127ae94cae71e4703103d4e64e42371]
@startuml
    set namespaceSeparator none
    hide empty fields
    hide empty methods

    class "<size:14>SchemaNameFromProps\n<size:10>com.ibm.fhir.persistence.jdbc.connection" as com.ibm.fhir.persistence.jdbc.connection.SchemaNameFromProps [[SchemaNameFromProps.html]] {
        +SchemaNameFromProps(Properties)
        +SchemaNameFromProps(String)
        +getSchemaForRequestContext(Connection): String
    }

    interface "<size:14>SchemaNameSupplier\n<size:10>com.ibm.fhir.persistence.jdbc.connection" as com.ibm.fhir.persistence.jdbc.connection.SchemaNameSupplier [[SchemaNameSupplier.html]] {
        {abstract} +getSchemaForRequestContext(Connection): String
    }

    com.ibm.fhir.persistence.jdbc.connection.SchemaNameSupplier <|.. com.ibm.fhir.persistence.jdbc.connection.SchemaNameFromProps

    center footer UMLDoclet 2.0.7, PlantUML 1.2019.12
@enduml

PlantUML version 1.2019.12(Sun Nov 03 10:24:54 UTC 2019)
(APACHE source distribution)
Java Runtime: OpenJDK Runtime Environment
JVM: OpenJDK 64-Bit Server VM
Java Version: 11.0.9.1+1
Operating System: Linux
Default Encoding: UTF-8
Language: en
Country: null
--></g></svg>