<?xml version="1.0" encoding="UTF-8" standalone="no"?><svg xmlns="http://www.w3.org/2000/svg" xmlns:xlink="http://www.w3.org/1999/xlink" contentScriptType="application/ecmascript" contentStyleType="text/css" height="405px" preserveAspectRatio="none" style="width:382px;height:405px;" version="1.1" viewBox="0 0 382 405" width="382px" zoomAndPan="magnify"><defs><filter height="300%" id="f1sr9x61do79bw" width="300%" x="-1" y="-1"><feGaussianBlur result="blurOut" stdDeviation="2.0"/><feColorMatrix in="blurOut" result="blurOut2" type="matrix" values="0 0 0 0 0 0 0 0 0 0 0 0 0 0 0 0 0 0 .4 0"/><feOffset dx="4.0" dy="4.0" in="blurOut2" result="blurOut3"/><feBlend in="SourceGraphic" in2="blurOut3" mode="normal"/></filter></defs><g><!--MD5=[0585d9b5378ede6b7ca84fd78ffa4a91]
class com.ibm.fhir.model.resource.CodeSystem.Filter--><a href="CodeSystem.Filter.html" target="_top" title="CodeSystem.Filter.html" xlink:actuate="onRequest" xlink:href="CodeSystem.Filter.html" xlink:show="new" xlink:title="CodeSystem.Filter.html" xlink:type="simple"><rect fill="#FEFECE" filter="url(#f1sr9x61do79bw)" height="148.375" id="com.ibm.fhir.model.resource.CodeSystem.Filter" style="stroke: #A80036; stroke-width: 1.5;" width="228" x="71.5" y="127"/><ellipse cx="112.15" cy="145.9688" fill="#ADD1B2" rx="11" ry="11" style="stroke: #A80036; stroke-width: 1.0;"/><path d="M115.1188,151.6094 Q114.5406,151.9063 113.9,152.0469 Q113.2594,152.2031 112.5563,152.2031 Q110.0563,152.2031 108.7281,150.5625 Q107.4156,148.9063 107.4156,145.7813 Q107.4156,142.6563 108.7281,141 Q110.0563,139.3438 112.5563,139.3438 Q113.2594,139.3438 113.9,139.5 Q114.5563,139.6563 115.1188,139.9531 L115.1188,142.6719 Q114.4938,142.0938 113.9,141.8281 Q113.3063,141.5469 112.6813,141.5469 Q111.3375,141.5469 110.65,142.625 Q109.9625,143.6875 109.9625,145.7813 Q109.9625,147.875 110.65,148.9531 Q111.3375,150.0156 112.6813,150.0156 Q113.3063,150.0156 113.9,149.75 Q114.4938,149.4688 115.1188,148.8906 L115.1188,151.6094 Z "/><text fill="#000000" font-family="sans-serif" font-size="14" lengthAdjust="spacingAndGlyphs" textLength="125" x="138.85" y="144.9951">CodeSystem.Filter</text><text fill="#000000" font-family="sans-serif" font-size="10" lengthAdjust="spacingAndGlyphs" textLength="139" x="131.85" y="157.5791">com.ibm.fhir.model.resource</text><line style="stroke: #A80036; stroke-width: 1.5;" x1="72.5" x2="298.5" y1="164.9375" y2="164.9375"/><ellipse cx="82.5" cy="175.9375" fill="#84BE84" rx="3" ry="3" style="stroke: #038048; stroke-width: 1.0;"/><text fill="#000000" font-family="sans-serif" font-size="11" lengthAdjust="spacingAndGlyphs" textLength="92" x="91.5" y="179.1479">getCode(): Code</text><ellipse cx="82.5" cy="188.7422" fill="#84BE84" rx="3" ry="3" style="stroke: #038048; stroke-width: 1.0;"/><text fill="#000000" font-family="sans-serif" font-size="11" lengthAdjust="spacingAndGlyphs" textLength="132" x="91.5" y="191.9526">getDescription(): String</text><ellipse cx="82.5" cy="201.5469" fill="#84BE84" rx="3" ry="3" style="stroke: #038048; stroke-width: 1.0;"/><text fill="#000000" font-family="sans-serif" font-size="11" lengthAdjust="spacingAndGlyphs" textLength="202" x="91.5" y="204.7573">getOperator(): List&lt;FilterOperator&gt;</text><ellipse cx="82.5" cy="214.3516" fill="#84BE84" rx="3" ry="3" style="stroke: #038048; stroke-width: 1.0;"/><text fill="#000000" font-family="sans-serif" font-size="11" lengthAdjust="spacingAndGlyphs" textLength="99" x="91.5" y="217.562">getValue(): String</text><ellipse cx="82.5" cy="227.1563" fill="#84BE84" rx="3" ry="3" style="stroke: #038048; stroke-width: 1.0;"/><text fill="#000000" font-family="sans-serif" font-size="11" lengthAdjust="spacingAndGlyphs" textLength="129" x="91.5" y="230.3667">hasChildren(): boolean</text><ellipse cx="82.5" cy="239.9609" fill="#84BE84" rx="3" ry="3" style="stroke: #038048; stroke-width: 1.0;"/><text fill="#000000" font-family="sans-serif" font-size="11" lengthAdjust="spacingAndGlyphs" textLength="176" x="91.5" y="243.1714">accept(String, int, Visitor): void</text><ellipse cx="82.5" cy="252.7656" fill="#84BE84" rx="3" ry="3" style="stroke: #038048; stroke-width: 1.0;"/><text fill="#000000" font-family="sans-serif" font-size="11" lengthAdjust="spacingAndGlyphs" textLength="107" x="91.5" y="255.9761">toBuilder(): Builder</text><ellipse cx="82.5" cy="265.5703" fill="#84BE84" rx="3" ry="3" style="stroke: #038048; stroke-width: 1.0;"/><text fill="#000000" font-family="sans-serif" font-size="11" lengthAdjust="spacingAndGlyphs" text-decoration="underline" textLength="95" x="91.5" y="268.7808">builder(): Builder</text></a><!--MD5=[efbff6997283c56b83e991a8eeb6a60a]
class com.ibm.fhir.model.type.BackboneElement--><a href="../type/BackboneElement.html" target="_top" title="../type/BackboneElement.html" xlink:actuate="onRequest" xlink:href="../type/BackboneElement.html" xlink:show="new" xlink:title="../type/BackboneElement.html" xlink:type="simple"><rect fill="#FEFECE" filter="url(#f1sr9x61do79bw)" height="58.7422" id="com.ibm.fhir.model.type.BackboneElement" style="stroke: #A80036; stroke-width: 1.5;" width="159" x="6" y="8"/><ellipse cx="21" cy="26.9688" fill="#A9DCDF" rx="11" ry="11" style="stroke: #A80036; stroke-width: 1.0;"/><path d="M21.1094,22.3125 L19.9531,27.3906 L22.2813,27.3906 L21.1094,22.3125 Z M19.625,20.0781 L22.6094,20.0781 L25.9688,32.4688 L23.5156,32.4688 L22.75,29.4063 L19.4688,29.4063 L18.7188,32.4688 L16.2813,32.4688 L19.625,20.0781 Z "/><text fill="#000000" font-family="sans-serif" font-size="14" font-style="italic" lengthAdjust="spacingAndGlyphs" textLength="127" x="35" y="25.9951">BackboneElement</text><text fill="#000000" font-family="sans-serif" font-size="10" font-style="italic" lengthAdjust="spacingAndGlyphs" textLength="123" x="37" y="38.5791">com.ibm.fhir.model.type</text><line style="stroke: #A80036; stroke-width: 1.5;" x1="7" x2="164" y1="45.9375" y2="45.9375"/><ellipse cx="17" cy="56.9375" fill="#84BE84" rx="3" ry="3" style="stroke: #038048; stroke-width: 1.0;"/><text fill="#000000" font-family="sans-serif" font-size="11" font-style="italic" lengthAdjust="spacingAndGlyphs" textLength="107" x="26" y="60.1479">toBuilder(): Builder</text></a><!--MD5=[582416b67b6c087b72c70391d5a48b4b]
class com.ibm.fhir.model.resource.CodeSystem--><a href="CodeSystem.html" target="_top" title="CodeSystem.html" xlink:actuate="onRequest" xlink:href="CodeSystem.html" xlink:show="new" xlink:title="CodeSystem.html" xlink:type="simple"><rect fill="#FEFECE" filter="url(#f1sr9x61do79bw)" height="37.9375" id="com.ibm.fhir.model.resource.CodeSystem" style="stroke: #A80036; stroke-width: 1.5;" width="171" x="200" y="18.5"/><ellipse cx="215" cy="37.4688" fill="#ADD1B2" rx="11" ry="11" style="stroke: #A80036; stroke-width: 1.0;"/><path d="M217.9688,43.1094 Q217.3906,43.4063 216.75,43.5469 Q216.1094,43.7031 215.4063,43.7031 Q212.9063,43.7031 211.5781,42.0625 Q210.2656,40.4063 210.2656,37.2813 Q210.2656,34.1563 211.5781,32.5 Q212.9063,30.8438 215.4063,30.8438 Q216.1094,30.8438 216.75,31 Q217.4063,31.1563 217.9688,31.4531 L217.9688,34.1719 Q217.3438,33.5938 216.75,33.3281 Q216.1563,33.0469 215.5313,33.0469 Q214.1875,33.0469 213.5,34.125 Q212.8125,35.1875 212.8125,37.2813 Q212.8125,39.375 213.5,40.4531 Q214.1875,41.5156 215.5313,41.5156 Q216.1563,41.5156 216.75,41.25 Q217.3438,40.9688 217.9688,40.3906 L217.9688,43.1094 Z "/><text fill="#000000" font-family="sans-serif" font-size="14" lengthAdjust="spacingAndGlyphs" textLength="88" x="254.5" y="36.4951">CodeSystem</text><text fill="#000000" font-family="sans-serif" font-size="10" lengthAdjust="spacingAndGlyphs" textLength="139" x="229" y="49.0791">com.ibm.fhir.model.resource</text></a><!--MD5=[edc2a9aedd1a8ff2560ab24610160e8d]
class com.ibm.fhir.model.resource.CodeSystem.Filter.Builder--><a href="CodeSystem.Filter.Builder.html" target="_top" title="CodeSystem.Filter.Builder.html" xlink:actuate="onRequest" xlink:href="CodeSystem.Filter.Builder.html" xlink:show="new" xlink:title="CodeSystem.Filter.Builder.html" xlink:type="simple"><rect fill="#FEFECE" filter="url(#f1sr9x61do79bw)" height="37.9375" id="com.ibm.fhir.model.resource.CodeSystem.Filter.Builder" style="stroke: #A80036; stroke-width: 1.5;" width="209" x="81" y="335"/><ellipse cx="96" cy="353.9688" fill="#ADD1B2" rx="11" ry="11" style="stroke: #A80036; stroke-width: 1.0;"/><path d="M98.9688,359.6094 Q98.3906,359.9063 97.75,360.0469 Q97.1094,360.2031 96.4063,360.2031 Q93.9063,360.2031 92.5781,358.5625 Q91.2656,356.9063 91.2656,353.7813 Q91.2656,350.6563 92.5781,349 Q93.9063,347.3438 96.4063,347.3438 Q97.1094,347.3438 97.75,347.5 Q98.4063,347.6563 98.9688,347.9531 L98.9688,350.6719 Q98.3438,350.0938 97.75,349.8281 Q97.1563,349.5469 96.5313,349.5469 Q95.1875,349.5469 94.5,350.625 Q93.8125,351.6875 93.8125,353.7813 Q93.8125,355.875 94.5,356.9531 Q95.1875,358.0156 96.5313,358.0156 Q97.1563,358.0156 97.75,357.75 Q98.3438,357.4688 98.9688,356.8906 L98.9688,359.6094 Z "/><text fill="#000000" font-family="sans-serif" font-size="14" lengthAdjust="spacingAndGlyphs" textLength="177" x="110" y="352.9951">CodeSystem.Filter.Builder</text><text fill="#000000" font-family="sans-serif" font-size="10" lengthAdjust="spacingAndGlyphs" textLength="139" x="129" y="365.5791">com.ibm.fhir.model.resource</text></a><!--MD5=[9f954757076f6612bccb780e469a62af]
reverse link com.ibm.fhir.model.type.BackboneElement to com.ibm.fhir.model.resource.CodeSystem.Filter--><path d="M114.282,84.5585 C122.3368,97.7282 131.2936,112.3725 140.0617,126.7084 " fill="none" id="com.ibm.fhir.model.type.BackboneElement&lt;-com.ibm.fhir.model.resource.CodeSystem.Filter" style="stroke: #A80036; stroke-width: 1.0;"/><polygon fill="none" points="108.073,87.8228,103.6092,67.1086,120.0162,80.518,108.073,87.8228" style="stroke: #A80036; stroke-width: 1.0;"/><!--MD5=[1babaf3eafdf01b50327c79aadd7319c]
reverse link com.ibm.fhir.model.resource.CodeSystem to com.ibm.fhir.model.resource.CodeSystem.Filter--><path d="M265.7637,69.7688 C255.733,86.169 243.0973,106.8284 230.8386,126.8715 " fill="none" id="com.ibm.fhir.model.resource.CodeSystem&lt;-com.ibm.fhir.model.resource.CodeSystem.Filter" style="stroke: #A80036; stroke-width: 1.0;"/><ellipse cx="269.6589" cy="63.4002" fill="#FFFFFF" rx="8" ry="8" style="stroke: #A80036; stroke-width: 1.0;"/><line style="stroke: #A80036; stroke-width: 1.0;" x1="265.4848" x2="273.833" y1="70.2249" y2="56.5755"/><line style="stroke: #A80036; stroke-width: 1.0;" x1="262.8342" x2="276.4836" y1="59.2261" y2="67.5743"/><!--MD5=[344ab3609542055236254822f9b5f95d]
reverse link com.ibm.fhir.model.resource.CodeSystem.Filter to com.ibm.fhir.model.resource.CodeSystem.Filter.Builder--><path d="M185.5,290.4747 C185.5,307.253 185.5,323.1737 185.5,334.88 " fill="none" id="com.ibm.fhir.model.resource.CodeSystem.Filter&lt;-com.ibm.fhir.model.resource.CodeSystem.Filter.Builder" style="stroke: #A80036; stroke-width: 1.0;"/><ellipse cx="185.5001" cy="283.2591" fill="#FFFFFF" rx="8" ry="8" style="stroke: #A80036; stroke-width: 1.0;"/><line style="stroke: #A80036; stroke-width: 1.0;" x1="185.5002" x2="185.5" y1="291.2591" y2="275.2591"/><line style="stroke: #A80036; stroke-width: 1.0;" x1="177.5001" x2="193.5001" y1="283.2592" y2="283.259"/><text fill="#888888" font-family="sans-serif" font-size="10" lengthAdjust="spacingAndGlyphs" textLength="186" x="101.5" y="392.2822">UMLDoclet 2.0.7, PlantUML 1.2019.12</text><!--MD5=[93a10c546ed353f9b9713acbe31d8661]
@startuml
    set namespaceSeparator none
    hide empty fields
    hide empty methods

    class "<size:14>CodeSystem.Filter\n<size:10>com.ibm.fhir.model.resource" as com.ibm.fhir.model.resource.CodeSystem.Filter [[CodeSystem.Filter.html]] {
        +getCode(): Code
        +getDescription(): String
        +getOperator(): List<FilterOperator>
        +getValue(): String
        +hasChildren(): boolean
        +accept(String, int, Visitor): void
        +toBuilder(): Builder
        {static} +builder(): Builder
    }

    abstract class "<size:14>BackboneElement\n<size:10>com.ibm.fhir.model.type" as com.ibm.fhir.model.type.BackboneElement [[../type/BackboneElement.html]] {
        {abstract} +toBuilder(): Builder
    }
    class "<size:14>CodeSystem\n<size:10>com.ibm.fhir.model.resource" as com.ibm.fhir.model.resource.CodeSystem [[CodeSystem.html]]
    class "<size:14>CodeSystem.Filter.Builder\n<size:10>com.ibm.fhir.model.resource" as com.ibm.fhir.model.resource.CodeSystem.Filter.Builder [[CodeSystem.Filter.Builder.html]]

    com.ibm.fhir.model.type.BackboneElement <|- - com.ibm.fhir.model.resource.CodeSystem.Filter
    com.ibm.fhir.model.resource.CodeSystem +- - com.ibm.fhir.model.resource.CodeSystem.Filter
    com.ibm.fhir.model.resource.CodeSystem.Filter +- - com.ibm.fhir.model.resource.CodeSystem.Filter.Builder

    center footer UMLDoclet 2.0.7, PlantUML 1.2019.12
@enduml

PlantUML version 1.2019.12(Sun Nov 03 10:24:54 UTC 2019)
(APACHE source distribution)
Java Runtime: OpenJDK Runtime Environment
JVM: OpenJDK 64-Bit Server VM
Java Version: 11.0.10+9
Operating System: Linux
Default Encoding: UTF-8
Language: en
Country: null
--></g></svg>