<?xml version="1.0" encoding="UTF-8" standalone="no"?><svg xmlns="http://www.w3.org/2000/svg" xmlns:xlink="http://www.w3.org/1999/xlink" contentScriptType="application/ecmascript" contentStyleType="text/css" height="320px" preserveAspectRatio="none" style="width:506px;height:320px;" version="1.1" viewBox="0 0 506 320" width="506px" zoomAndPan="magnify"><defs><filter height="300%" id="fa6auu0cigp4k" width="300%" x="-1" y="-1"><feGaussianBlur result="blurOut" stdDeviation="2.0"/><feColorMatrix in="blurOut" result="blurOut2" type="matrix" values="0 0 0 0 0 0 0 0 0 0 0 0 0 0 0 0 0 0 .4 0"/><feOffset dx="4.0" dy="4.0" in="blurOut2" result="blurOut3"/><feBlend in="SourceGraphic" in2="blurOut3" mode="normal"/></filter></defs><g><!--MD5=[02e522bd1598cdbc9f0b67f8ca99ffae]
class com.ibm.fhir.model.resource.HealthcareService.NotAvailable.Builder--><a href="HealthcareService.NotAvailable.Builder.html" target="_top" title="HealthcareService.NotAvailable.Builder.html" xlink:actuate="onRequest" xlink:href="HealthcareService.NotAvailable.Builder.html" xlink:show="new" xlink:title="HealthcareService.NotAvailable.Builder.html" xlink:type="simple"><rect fill="#FEFECE" filter="url(#fa6auu0cigp4k)" height="161.1797" id="com.ibm.fhir.model.resource.HealthcareService.NotAvailable.Builder" style="stroke: #A80036; stroke-width: 1.5;" width="312" x="86.5" y="127"/><ellipse cx="109.15" cy="145.9688" fill="#ADD1B2" rx="11" ry="11" style="stroke: #A80036; stroke-width: 1.0;"/><path d="M112.1188,151.6094 Q111.5406,151.9063 110.9,152.0469 Q110.2594,152.2031 109.5563,152.2031 Q107.0563,152.2031 105.7281,150.5625 Q104.4156,148.9063 104.4156,145.7813 Q104.4156,142.6563 105.7281,141 Q107.0563,139.3438 109.5563,139.3438 Q110.2594,139.3438 110.9,139.5 Q111.5563,139.6563 112.1188,139.9531 L112.1188,142.6719 Q111.4938,142.0938 110.9,141.8281 Q110.3063,141.5469 109.6813,141.5469 Q108.3375,141.5469 107.65,142.625 Q106.9625,143.6875 106.9625,145.7813 Q106.9625,147.875 107.65,148.9531 Q108.3375,150.0156 109.6813,150.0156 Q110.3063,150.0156 110.9,149.75 Q111.4938,149.4688 112.1188,148.8906 L112.1188,151.6094 Z "/><text fill="#000000" font-family="sans-serif" font-size="14" lengthAdjust="spacingAndGlyphs" textLength="263" x="124.85" y="144.9951">HealthcareService.NotAvailable.Builder</text><text fill="#000000" font-family="sans-serif" font-size="10" lengthAdjust="spacingAndGlyphs" textLength="139" x="186.85" y="157.5791">com.ibm.fhir.model.resource</text><line style="stroke: #A80036; stroke-width: 1.5;" x1="87.5" x2="397.5" y1="164.9375" y2="164.9375"/><ellipse cx="97.5" cy="175.9375" fill="#84BE84" rx="3" ry="3" style="stroke: #038048; stroke-width: 1.0;"/><text fill="#000000" font-family="sans-serif" font-size="11" lengthAdjust="spacingAndGlyphs" textLength="100" x="106.5" y="179.1479">id(String): Builder</text><ellipse cx="97.5" cy="188.7422" fill="#84BE84" rx="3" ry="3" style="stroke: #038048; stroke-width: 1.0;"/><text fill="#000000" font-family="sans-serif" font-size="11" lengthAdjust="spacingAndGlyphs" textLength="178" x="106.5" y="191.9526">extension(Extension...): Builder</text><ellipse cx="97.5" cy="201.5469" fill="#84BE84" rx="3" ry="3" style="stroke: #038048; stroke-width: 1.0;"/><text fill="#000000" font-family="sans-serif" font-size="11" lengthAdjust="spacingAndGlyphs" textLength="239" x="106.5" y="204.7573">extension(Collection&lt;Extension&gt;): Builder</text><ellipse cx="97.5" cy="214.3516" fill="#84BE84" rx="3" ry="3" style="stroke: #038048; stroke-width: 1.0;"/><text fill="#000000" font-family="sans-serif" font-size="11" lengthAdjust="spacingAndGlyphs" textLength="225" x="106.5" y="217.562">modifierExtension(Extension...): Builder</text><ellipse cx="97.5" cy="227.1563" fill="#84BE84" rx="3" ry="3" style="stroke: #038048; stroke-width: 1.0;"/><text fill="#000000" font-family="sans-serif" font-size="11" lengthAdjust="spacingAndGlyphs" textLength="286" x="106.5" y="230.3667">modifierExtension(Collection&lt;Extension&gt;): Builder</text><ellipse cx="97.5" cy="239.9609" fill="#84BE84" rx="3" ry="3" style="stroke: #038048; stroke-width: 1.0;"/><text fill="#000000" font-family="sans-serif" font-size="11" lengthAdjust="spacingAndGlyphs" textLength="153" x="106.5" y="243.1714">description(String): Builder</text><ellipse cx="97.5" cy="252.7656" fill="#84BE84" rx="3" ry="3" style="stroke: #038048; stroke-width: 1.0;"/><text fill="#000000" font-family="sans-serif" font-size="11" lengthAdjust="spacingAndGlyphs" textLength="128" x="106.5" y="255.9761">during(Period): Builder</text><ellipse cx="97.5" cy="265.5703" fill="#84BE84" rx="3" ry="3" style="stroke: #038048; stroke-width: 1.0;"/><text fill="#000000" font-family="sans-serif" font-size="11" lengthAdjust="spacingAndGlyphs" textLength="112" x="106.5" y="268.7808">build(): NotAvailable</text><polygon fill="#FFFF44" points="97.5,273.375,101.5,277.375,97.5,281.375,93.5,277.375" style="stroke: #B38D22; stroke-width: 1.0;"/><text fill="#000000" font-family="sans-serif" font-size="11" lengthAdjust="spacingAndGlyphs" textLength="152" x="106.5" y="281.5854">from(NotAvailable): Builder</text></a><!--MD5=[b7b0ea86c8a299e1957933e33e561193]
class com.ibm.fhir.model.type.BackboneElement.Builder--><a href="../type/BackboneElement.Builder.html" target="_top" title="../type/BackboneElement.Builder.html" xlink:actuate="onRequest" xlink:href="../type/BackboneElement.Builder.html" xlink:show="new" xlink:title="../type/BackboneElement.Builder.html" xlink:type="simple"><rect fill="#FEFECE" filter="url(#fa6auu0cigp4k)" height="58.7422" id="com.ibm.fhir.model.type.BackboneElement.Builder" style="stroke: #A80036; stroke-width: 1.5;" width="211" x="6" y="8"/><ellipse cx="21" cy="26.9688" fill="#A9DCDF" rx="11" ry="11" style="stroke: #A80036; stroke-width: 1.0;"/><path d="M21.1094,22.3125 L19.9531,27.3906 L22.2813,27.3906 L21.1094,22.3125 Z M19.625,20.0781 L22.6094,20.0781 L25.9688,32.4688 L23.5156,32.4688 L22.75,29.4063 L19.4688,29.4063 L18.7188,32.4688 L16.2813,32.4688 L19.625,20.0781 Z "/><text fill="#000000" font-family="sans-serif" font-size="14" font-style="italic" lengthAdjust="spacingAndGlyphs" textLength="179" x="35" y="25.9951">BackboneElement.Builder</text><text fill="#000000" font-family="sans-serif" font-size="10" font-style="italic" lengthAdjust="spacingAndGlyphs" textLength="123" x="63" y="38.5791">com.ibm.fhir.model.type</text><line style="stroke: #A80036; stroke-width: 1.5;" x1="7" x2="216" y1="45.9375" y2="45.9375"/><ellipse cx="17" cy="56.9375" fill="#84BE84" rx="3" ry="3" style="stroke: #038048; stroke-width: 1.0;"/><text fill="#000000" font-family="sans-serif" font-size="11" font-style="italic" lengthAdjust="spacingAndGlyphs" textLength="144" x="26" y="60.1479">build(): BackboneElement</text></a><!--MD5=[ced12784fafb58a4fe91a3c2e806d3a5]
class com.ibm.fhir.model.resource.HealthcareService.NotAvailable--><a href="HealthcareService.NotAvailable.html" target="_top" title="HealthcareService.NotAvailable.html" xlink:actuate="onRequest" xlink:href="HealthcareService.NotAvailable.html" xlink:show="new" xlink:title="HealthcareService.NotAvailable.html" xlink:type="simple"><rect fill="#FEFECE" filter="url(#fa6auu0cigp4k)" height="37.9375" id="com.ibm.fhir.model.resource.HealthcareService.NotAvailable" style="stroke: #A80036; stroke-width: 1.5;" width="243" x="252" y="18.5"/><ellipse cx="267" cy="37.4688" fill="#ADD1B2" rx="11" ry="11" style="stroke: #A80036; stroke-width: 1.0;"/><path d="M269.9688,43.1094 Q269.3906,43.4063 268.75,43.5469 Q268.1094,43.7031 267.4063,43.7031 Q264.9063,43.7031 263.5781,42.0625 Q262.2656,40.4063 262.2656,37.2813 Q262.2656,34.1563 263.5781,32.5 Q264.9063,30.8438 267.4063,30.8438 Q268.1094,30.8438 268.75,31 Q269.4063,31.1563 269.9688,31.4531 L269.9688,34.1719 Q269.3438,33.5938 268.75,33.3281 Q268.1563,33.0469 267.5313,33.0469 Q266.1875,33.0469 265.5,34.125 Q264.8125,35.1875 264.8125,37.2813 Q264.8125,39.375 265.5,40.4531 Q266.1875,41.5156 267.5313,41.5156 Q268.1563,41.5156 268.75,41.25 Q269.3438,40.9688 269.9688,40.3906 L269.9688,43.1094 Z "/><text fill="#000000" font-family="sans-serif" font-size="14" lengthAdjust="spacingAndGlyphs" textLength="211" x="281" y="36.4951">HealthcareService.NotAvailable</text><text fill="#000000" font-family="sans-serif" font-size="10" lengthAdjust="spacingAndGlyphs" textLength="139" x="317" y="49.0791">com.ibm.fhir.model.resource</text></a><!--MD5=[685f5c13d2f8d4ea70246f54cf58102b]
reverse link com.ibm.fhir.model.type.BackboneElement.Builder to com.ibm.fhir.model.resource.HealthcareService.NotAvailable.Builder--><path d="M146.6583,83.1253 C157.0367,96.5935 168.7197,111.7546 180.267,126.7396 " fill="none" id="com.ibm.fhir.model.type.BackboneElement.Builder&lt;-com.ibm.fhir.model.resource.HealthcareService.NotAvailable.Builder" style="stroke: #A80036; stroke-width: 1.0;"/><polygon fill="none" points="140.9815,87.2266,134.3185,67.1117,152.071,78.6811,140.9815,87.2266" style="stroke: #A80036; stroke-width: 1.0;"/><!--MD5=[08ea2f85c7dedacb8af7f307c1297c80]
reverse link com.ibm.fhir.model.resource.HealthcareService.NotAvailable to com.ibm.fhir.model.resource.HealthcareService.NotAvailable.Builder--><path d="M349.4103,68.7614 C336.7715,85.163 320.6454,106.0899 304.7727,126.6881 " fill="none" id="com.ibm.fhir.model.resource.HealthcareService.NotAvailable&lt;-com.ibm.fhir.model.resource.HealthcareService.NotAvailable.Builder" style="stroke: #A80036; stroke-width: 1.0;"/><ellipse cx="353.8442" cy="63.0075" fill="#FFFFFF" rx="8" ry="8" style="stroke: #A80036; stroke-width: 1.0;"/><line style="stroke: #A80036; stroke-width: 1.0;" x1="348.9611" x2="358.7273" y1="69.3443" y2="56.6707"/><line style="stroke: #A80036; stroke-width: 1.0;" x1="347.5074" x2="360.181" y1="58.1244" y2="67.8906"/><text fill="#888888" font-family="sans-serif" font-size="10" lengthAdjust="spacingAndGlyphs" textLength="186" x="163.5" y="307.2822">UMLDoclet 2.0.7, PlantUML 1.2019.12</text><!--MD5=[5c85ef3708b9b82860a85de85f48033f]
@startuml
    set namespaceSeparator none
    hide empty fields
    hide empty methods

    class "<size:14>HealthcareService.NotAvailable.Builder\n<size:10>com.ibm.fhir.model.resource" as com.ibm.fhir.model.resource.HealthcareService.NotAvailable.Builder [[HealthcareService.NotAvailable.Builder.html]] {
        +id(String): Builder
        +extension(Extension...): Builder
        +extension(Collection<Extension>): Builder
        +modifierExtension(Extension...): Builder
        +modifierExtension(Collection<Extension>): Builder
        +description(String): Builder
        +during(Period): Builder
        +build(): NotAvailable
        #from(NotAvailable): Builder
    }

    abstract class "<size:14>BackboneElement.Builder\n<size:10>com.ibm.fhir.model.type" as com.ibm.fhir.model.type.BackboneElement.Builder [[../type/BackboneElement.Builder.html]] {
        {abstract} +build(): BackboneElement
    }
    class "<size:14>HealthcareService.NotAvailable\n<size:10>com.ibm.fhir.model.resource" as com.ibm.fhir.model.resource.HealthcareService.NotAvailable [[HealthcareService.NotAvailable.html]]

    com.ibm.fhir.model.type.BackboneElement.Builder <|- - com.ibm.fhir.model.resource.HealthcareService.NotAvailable.Builder
    com.ibm.fhir.model.resource.HealthcareService.NotAvailable +- - com.ibm.fhir.model.resource.HealthcareService.NotAvailable.Builder

    center footer UMLDoclet 2.0.7, PlantUML 1.2019.12
@enduml

PlantUML version 1.2019.12(Sun Nov 03 10:24:54 UTC 2019)
(APACHE source distribution)
Java Runtime: OpenJDK Runtime Environment
JVM: OpenJDK 64-Bit Server VM
Java Version: 11.0.10+9
Operating System: Linux
Default Encoding: UTF-8
Language: en
Country: null
--></g></svg>