<?xml version="1.0" encoding="UTF-8" standalone="no"?><svg xmlns="http://www.w3.org/2000/svg" xmlns:xlink="http://www.w3.org/1999/xlink" contentScriptType="application/ecmascript" contentStyleType="text/css" height="405px" preserveAspectRatio="none" style="width:382px;height:405px;" version="1.1" viewBox="0 0 382 405" width="382px" zoomAndPan="magnify"><defs><filter height="300%" id="foyinrkam52n" width="300%" x="-1" y="-1"><feGaussianBlur result="blurOut" stdDeviation="2.0"/><feColorMatrix in="blurOut" result="blurOut2" type="matrix" values="0 0 0 0 0 0 0 0 0 0 0 0 0 0 0 0 0 0 .4 0"/><feOffset dx="4.0" dy="4.0" in="blurOut2" result="blurOut3"/><feBlend in="SourceGraphic" in2="blurOut3" mode="normal"/></filter></defs><g><!--MD5=[1264f45db72605be6015d8f3dce0c7c7]
class com.ibm.fhir.model.resource.PractitionerRole.AvailableTime--><a href="PractitionerRole.AvailableTime.html" target="_top" title="PractitionerRole.AvailableTime.html" xlink:actuate="onRequest" xlink:href="PractitionerRole.AvailableTime.html" xlink:show="new" xlink:title="PractitionerRole.AvailableTime.html" xlink:type="simple"><rect fill="#FEFECE" filter="url(#foyinrkam52n)" height="148.375" id="com.ibm.fhir.model.resource.PractitionerRole.AvailableTime" style="stroke: #A80036; stroke-width: 1.5;" width="238" x="66.5" y="127"/><ellipse cx="81.5" cy="145.9688" fill="#ADD1B2" rx="11" ry="11" style="stroke: #A80036; stroke-width: 1.0;"/><path d="M84.4688,151.6094 Q83.8906,151.9063 83.25,152.0469 Q82.6094,152.2031 81.9063,152.2031 Q79.4063,152.2031 78.0781,150.5625 Q76.7656,148.9063 76.7656,145.7813 Q76.7656,142.6563 78.0781,141 Q79.4063,139.3438 81.9063,139.3438 Q82.6094,139.3438 83.25,139.5 Q83.9063,139.6563 84.4688,139.9531 L84.4688,142.6719 Q83.8438,142.0938 83.25,141.8281 Q82.6563,141.5469 82.0313,141.5469 Q80.6875,141.5469 80,142.625 Q79.3125,143.6875 79.3125,145.7813 Q79.3125,147.875 80,148.9531 Q80.6875,150.0156 82.0313,150.0156 Q82.6563,150.0156 83.25,149.75 Q83.8438,149.4688 84.4688,148.8906 L84.4688,151.6094 Z "/><text fill="#000000" font-family="sans-serif" font-size="14" lengthAdjust="spacingAndGlyphs" textLength="206" x="95.5" y="144.9951">PractitionerRole.AvailableTime</text><text fill="#000000" font-family="sans-serif" font-size="10" lengthAdjust="spacingAndGlyphs" textLength="139" x="129" y="157.5791">com.ibm.fhir.model.resource</text><line style="stroke: #A80036; stroke-width: 1.5;" x1="67.5" x2="303.5" y1="164.9375" y2="164.9375"/><ellipse cx="77.5" cy="175.9375" fill="#84BE84" rx="3" ry="3" style="stroke: #038048; stroke-width: 1.0;"/><text fill="#000000" font-family="sans-serif" font-size="11" lengthAdjust="spacingAndGlyphs" textLength="212" x="86.5" y="179.1479">getDaysOfWeek(): List&lt;DaysOfWeek&gt;</text><ellipse cx="77.5" cy="188.7422" fill="#84BE84" rx="3" ry="3" style="stroke: #038048; stroke-width: 1.0;"/><text fill="#000000" font-family="sans-serif" font-size="11" lengthAdjust="spacingAndGlyphs" textLength="114" x="86.5" y="191.9526">getAllDay(): Boolean</text><ellipse cx="77.5" cy="201.5469" fill="#84BE84" rx="3" ry="3" style="stroke: #038048; stroke-width: 1.0;"/><text fill="#000000" font-family="sans-serif" font-size="11" lengthAdjust="spacingAndGlyphs" textLength="168" x="86.5" y="204.7573">getAvailableStartTime(): Time</text><ellipse cx="77.5" cy="214.3516" fill="#84BE84" rx="3" ry="3" style="stroke: #038048; stroke-width: 1.0;"/><text fill="#000000" font-family="sans-serif" font-size="11" lengthAdjust="spacingAndGlyphs" textLength="161" x="86.5" y="217.562">getAvailableEndTime(): Time</text><ellipse cx="77.5" cy="227.1563" fill="#84BE84" rx="3" ry="3" style="stroke: #038048; stroke-width: 1.0;"/><text fill="#000000" font-family="sans-serif" font-size="11" lengthAdjust="spacingAndGlyphs" textLength="129" x="86.5" y="230.3667">hasChildren(): boolean</text><ellipse cx="77.5" cy="239.9609" fill="#84BE84" rx="3" ry="3" style="stroke: #038048; stroke-width: 1.0;"/><text fill="#000000" font-family="sans-serif" font-size="11" lengthAdjust="spacingAndGlyphs" textLength="176" x="86.5" y="243.1714">accept(String, int, Visitor): void</text><ellipse cx="77.5" cy="252.7656" fill="#84BE84" rx="3" ry="3" style="stroke: #038048; stroke-width: 1.0;"/><text fill="#000000" font-family="sans-serif" font-size="11" lengthAdjust="spacingAndGlyphs" textLength="107" x="86.5" y="255.9761">toBuilder(): Builder</text><ellipse cx="77.5" cy="265.5703" fill="#84BE84" rx="3" ry="3" style="stroke: #038048; stroke-width: 1.0;"/><text fill="#000000" font-family="sans-serif" font-size="11" lengthAdjust="spacingAndGlyphs" text-decoration="underline" textLength="95" x="86.5" y="268.7808">builder(): Builder</text></a><!--MD5=[efbff6997283c56b83e991a8eeb6a60a]
class com.ibm.fhir.model.type.BackboneElement--><a href="../type/BackboneElement.html" target="_top" title="../type/BackboneElement.html" xlink:actuate="onRequest" xlink:href="../type/BackboneElement.html" xlink:show="new" xlink:title="../type/BackboneElement.html" xlink:type="simple"><rect fill="#FEFECE" filter="url(#foyinrkam52n)" height="58.7422" id="com.ibm.fhir.model.type.BackboneElement" style="stroke: #A80036; stroke-width: 1.5;" width="159" x="6" y="8"/><ellipse cx="21" cy="26.9688" fill="#A9DCDF" rx="11" ry="11" style="stroke: #A80036; stroke-width: 1.0;"/><path d="M21.1094,22.3125 L19.9531,27.3906 L22.2813,27.3906 L21.1094,22.3125 Z M19.625,20.0781 L22.6094,20.0781 L25.9688,32.4688 L23.5156,32.4688 L22.75,29.4063 L19.4688,29.4063 L18.7188,32.4688 L16.2813,32.4688 L19.625,20.0781 Z "/><text fill="#000000" font-family="sans-serif" font-size="14" font-style="italic" lengthAdjust="spacingAndGlyphs" textLength="127" x="35" y="25.9951">BackboneElement</text><text fill="#000000" font-family="sans-serif" font-size="10" font-style="italic" lengthAdjust="spacingAndGlyphs" textLength="123" x="37" y="38.5791">com.ibm.fhir.model.type</text><line style="stroke: #A80036; stroke-width: 1.5;" x1="7" x2="164" y1="45.9375" y2="45.9375"/><ellipse cx="17" cy="56.9375" fill="#84BE84" rx="3" ry="3" style="stroke: #038048; stroke-width: 1.0;"/><text fill="#000000" font-family="sans-serif" font-size="11" font-style="italic" lengthAdjust="spacingAndGlyphs" textLength="107" x="26" y="60.1479">toBuilder(): Builder</text></a><!--MD5=[1425a612fa4e4b9d81352124e740c516]
class com.ibm.fhir.model.resource.PractitionerRole--><a href="PractitionerRole.html" target="_top" title="PractitionerRole.html" xlink:actuate="onRequest" xlink:href="PractitionerRole.html" xlink:show="new" xlink:title="PractitionerRole.html" xlink:type="simple"><rect fill="#FEFECE" filter="url(#foyinrkam52n)" height="37.9375" id="com.ibm.fhir.model.resource.PractitionerRole" style="stroke: #A80036; stroke-width: 1.5;" width="171" x="200" y="18.5"/><ellipse cx="215" cy="37.4688" fill="#ADD1B2" rx="11" ry="11" style="stroke: #A80036; stroke-width: 1.0;"/><path d="M217.9688,43.1094 Q217.3906,43.4063 216.75,43.5469 Q216.1094,43.7031 215.4063,43.7031 Q212.9063,43.7031 211.5781,42.0625 Q210.2656,40.4063 210.2656,37.2813 Q210.2656,34.1563 211.5781,32.5 Q212.9063,30.8438 215.4063,30.8438 Q216.1094,30.8438 216.75,31 Q217.4063,31.1563 217.9688,31.4531 L217.9688,34.1719 Q217.3438,33.5938 216.75,33.3281 Q216.1563,33.0469 215.5313,33.0469 Q214.1875,33.0469 213.5,34.125 Q212.8125,35.1875 212.8125,37.2813 Q212.8125,39.375 213.5,40.4531 Q214.1875,41.5156 215.5313,41.5156 Q216.1563,41.5156 216.75,41.25 Q217.3438,40.9688 217.9688,40.3906 L217.9688,43.1094 Z "/><text fill="#000000" font-family="sans-serif" font-size="14" lengthAdjust="spacingAndGlyphs" textLength="109" x="244" y="36.4951">PractitionerRole</text><text fill="#000000" font-family="sans-serif" font-size="10" lengthAdjust="spacingAndGlyphs" textLength="139" x="229" y="49.0791">com.ibm.fhir.model.resource</text></a><!--MD5=[d8b65a1a2ec0f70dc45d6ac9ba91f894]
class com.ibm.fhir.model.resource.PractitionerRole.AvailableTime.Builder--><a href="PractitionerRole.AvailableTime.Builder.html" target="_top" title="PractitionerRole.AvailableTime.Builder.html" xlink:actuate="onRequest" xlink:href="PractitionerRole.AvailableTime.Builder.html" xlink:show="new" xlink:title="PractitionerRole.AvailableTime.Builder.html" xlink:type="simple"><rect fill="#FEFECE" filter="url(#foyinrkam52n)" height="37.9375" id="com.ibm.fhir.model.resource.PractitionerRole.AvailableTime.Builder" style="stroke: #A80036; stroke-width: 1.5;" width="290" x="40.5" y="335"/><ellipse cx="55.5" cy="353.9688" fill="#ADD1B2" rx="11" ry="11" style="stroke: #A80036; stroke-width: 1.0;"/><path d="M58.4688,359.6094 Q57.8906,359.9063 57.25,360.0469 Q56.6094,360.2031 55.9063,360.2031 Q53.4063,360.2031 52.0781,358.5625 Q50.7656,356.9063 50.7656,353.7813 Q50.7656,350.6563 52.0781,349 Q53.4063,347.3438 55.9063,347.3438 Q56.6094,347.3438 57.25,347.5 Q57.9063,347.6563 58.4688,347.9531 L58.4688,350.6719 Q57.8438,350.0938 57.25,349.8281 Q56.6563,349.5469 56.0313,349.5469 Q54.6875,349.5469 54,350.625 Q53.3125,351.6875 53.3125,353.7813 Q53.3125,355.875 54,356.9531 Q54.6875,358.0156 56.0313,358.0156 Q56.6563,358.0156 57.25,357.75 Q57.8438,357.4688 58.4688,356.8906 L58.4688,359.6094 Z "/><text fill="#000000" font-family="sans-serif" font-size="14" lengthAdjust="spacingAndGlyphs" textLength="258" x="69.5" y="352.9951">PractitionerRole.AvailableTime.Builder</text><text fill="#000000" font-family="sans-serif" font-size="10" lengthAdjust="spacingAndGlyphs" textLength="139" x="129" y="365.5791">com.ibm.fhir.model.resource</text></a><!--MD5=[4262e82b3adbbbd578d291946c8f0db5]
reverse link com.ibm.fhir.model.type.BackboneElement to com.ibm.fhir.model.resource.PractitionerRole.AvailableTime--><path d="M114.282,84.5585 C122.3368,97.7282 131.2936,112.3725 140.0617,126.7084 " fill="none" id="com.ibm.fhir.model.type.BackboneElement&lt;-com.ibm.fhir.model.resource.PractitionerRole.AvailableTime" style="stroke: #A80036; stroke-width: 1.0;"/><polygon fill="none" points="108.073,87.8228,103.6092,67.1086,120.0162,80.518,108.073,87.8228" style="stroke: #A80036; stroke-width: 1.0;"/><!--MD5=[176110ad91850ef07fce9d09f15a1c7a]
reverse link com.ibm.fhir.model.resource.PractitionerRole to com.ibm.fhir.model.resource.PractitionerRole.AvailableTime--><path d="M265.7637,69.7688 C255.733,86.169 243.0973,106.8284 230.8386,126.8715 " fill="none" id="com.ibm.fhir.model.resource.PractitionerRole&lt;-com.ibm.fhir.model.resource.PractitionerRole.AvailableTime" style="stroke: #A80036; stroke-width: 1.0;"/><ellipse cx="269.6589" cy="63.4002" fill="#FFFFFF" rx="8" ry="8" style="stroke: #A80036; stroke-width: 1.0;"/><line style="stroke: #A80036; stroke-width: 1.0;" x1="265.4848" x2="273.833" y1="70.2249" y2="56.5755"/><line style="stroke: #A80036; stroke-width: 1.0;" x1="262.8342" x2="276.4836" y1="59.2261" y2="67.5743"/><!--MD5=[65b3b115619352495ce06a8e8c639252]
reverse link com.ibm.fhir.model.resource.PractitionerRole.AvailableTime to com.ibm.fhir.model.resource.PractitionerRole.AvailableTime.Builder--><path d="M185.5,290.4747 C185.5,307.253 185.5,323.1737 185.5,334.88 " fill="none" id="com.ibm.fhir.model.resource.PractitionerRole.AvailableTime&lt;-com.ibm.fhir.model.resource.PractitionerRole.AvailableTime.Builder" style="stroke: #A80036; stroke-width: 1.0;"/><ellipse cx="185.5001" cy="283.2591" fill="#FFFFFF" rx="8" ry="8" style="stroke: #A80036; stroke-width: 1.0;"/><line style="stroke: #A80036; stroke-width: 1.0;" x1="185.5002" x2="185.5" y1="291.2591" y2="275.2591"/><line style="stroke: #A80036; stroke-width: 1.0;" x1="177.5001" x2="193.5001" y1="283.2592" y2="283.259"/><text fill="#888888" font-family="sans-serif" font-size="10" lengthAdjust="spacingAndGlyphs" textLength="186" x="101.5" y="392.2822">UMLDoclet 2.0.7, PlantUML 1.2019.12</text><!--MD5=[e2f24e1017968847e8974af400d1afb3]
@startuml
    set namespaceSeparator none
    hide empty fields
    hide empty methods

    class "<size:14>PractitionerRole.AvailableTime\n<size:10>com.ibm.fhir.model.resource" as com.ibm.fhir.model.resource.PractitionerRole.AvailableTime [[PractitionerRole.AvailableTime.html]] {
        +getDaysOfWeek(): List<DaysOfWeek>
        +getAllDay(): Boolean
        +getAvailableStartTime(): Time
        +getAvailableEndTime(): Time
        +hasChildren(): boolean
        +accept(String, int, Visitor): void
        +toBuilder(): Builder
        {static} +builder(): Builder
    }

    abstract class "<size:14>BackboneElement\n<size:10>com.ibm.fhir.model.type" as com.ibm.fhir.model.type.BackboneElement [[../type/BackboneElement.html]] {
        {abstract} +toBuilder(): Builder
    }
    class "<size:14>PractitionerRole\n<size:10>com.ibm.fhir.model.resource" as com.ibm.fhir.model.resource.PractitionerRole [[PractitionerRole.html]]
    class "<size:14>PractitionerRole.AvailableTime.Builder\n<size:10>com.ibm.fhir.model.resource" as com.ibm.fhir.model.resource.PractitionerRole.AvailableTime.Builder [[PractitionerRole.AvailableTime.Builder.html]]

    com.ibm.fhir.model.type.BackboneElement <|- - com.ibm.fhir.model.resource.PractitionerRole.AvailableTime
    com.ibm.fhir.model.resource.PractitionerRole +- - com.ibm.fhir.model.resource.PractitionerRole.AvailableTime
    com.ibm.fhir.model.resource.PractitionerRole.AvailableTime +- - com.ibm.fhir.model.resource.PractitionerRole.AvailableTime.Builder

    center footer UMLDoclet 2.0.7, PlantUML 1.2019.12
@enduml

PlantUML version 1.2019.12(Sun Nov 03 10:24:54 UTC 2019)
(APACHE source distribution)
Java Runtime: OpenJDK Runtime Environment
JVM: OpenJDK 64-Bit Server VM
Java Version: 11.0.10+9
Operating System: Linux
Default Encoding: UTF-8
Language: en
Country: null
--></g></svg>