<?xml version="1.0" encoding="UTF-8" standalone="no"?><svg xmlns="http://www.w3.org/2000/svg" xmlns:xlink="http://www.w3.org/1999/xlink" contentScriptType="application/ecmascript" contentStyleType="text/css" height="218px" preserveAspectRatio="none" style="width:232px;height:218px;" version="1.1" viewBox="0 0 232 218" width="232px" zoomAndPan="magnify"><defs><filter height="300%" id="fyzwmxtwybo1r" width="300%" x="-1" y="-1"><feGaussianBlur result="blurOut" stdDeviation="2.0"/><feColorMatrix in="blurOut" result="blurOut2" type="matrix" values="0 0 0 0 0 0 0 0 0 0 0 0 0 0 0 0 0 0 .4 0"/><feOffset dx="4.0" dy="4.0" in="blurOut2" result="blurOut3"/><feBlend in="SourceGraphic" in2="blurOut3" mode="normal"/></filter></defs><g><!--MD5=[2d00d0cf488f3f6f78bd9b96edbfea87]
class com.ibm.fhir.cli.invoker.SearchPostInvoker--><a href="SearchPostInvoker.html" target="_top" title="SearchPostInvoker.html" xlink:actuate="onRequest" xlink:href="SearchPostInvoker.html" xlink:show="new" xlink:title="SearchPostInvoker.html" xlink:type="simple"><rect fill="#FEFECE" filter="url(#fyzwmxtwybo1r)" height="58.7422" id="com.ibm.fhir.cli.invoker.SearchPostInvoker" style="stroke: #A80036; stroke-width: 1.5;" width="215" x="6" y="127"/><ellipse cx="45.3" cy="145.9688" fill="#ADD1B2" rx="11" ry="11" style="stroke: #A80036; stroke-width: 1.0;"/><path d="M48.2688,151.6094 Q47.6906,151.9063 47.05,152.0469 Q46.4094,152.2031 45.7063,152.2031 Q43.2063,152.2031 41.8781,150.5625 Q40.5656,148.9063 40.5656,145.7813 Q40.5656,142.6563 41.8781,141 Q43.2063,139.3438 45.7063,139.3438 Q46.4094,139.3438 47.05,139.5 Q47.7063,139.6563 48.2688,139.9531 L48.2688,142.6719 Q47.6438,142.0938 47.05,141.8281 Q46.4563,141.5469 45.8313,141.5469 Q44.4875,141.5469 43.8,142.625 Q43.1125,143.6875 43.1125,145.7813 Q43.1125,147.875 43.8,148.9531 Q44.4875,150.0156 45.8313,150.0156 Q46.4563,150.0156 47.05,149.75 Q47.6438,149.4688 48.2688,148.8906 L48.2688,151.6094 Z "/><text fill="#000000" font-family="sans-serif" font-size="14" lengthAdjust="spacingAndGlyphs" textLength="129" x="64.7" y="144.9951">SearchPostInvoker</text><text fill="#000000" font-family="sans-serif" font-size="10" lengthAdjust="spacingAndGlyphs" textLength="111" x="73.7" y="157.5791">com.ibm.fhir.cli.invoker</text><line style="stroke: #A80036; stroke-width: 1.5;" x1="7" x2="220" y1="164.9375" y2="164.9375"/><ellipse cx="17" cy="175.9375" fill="#84BE84" rx="3" ry="3" style="stroke: #038048; stroke-width: 1.0;"/><text fill="#000000" font-family="sans-serif" font-size="11" lengthAdjust="spacingAndGlyphs" textLength="189" x="26" y="179.1479">doInvoke(InvocationContext): void</text></a><!--MD5=[bded8d18b0582ed3a4c4b2ddf7847440]
class com.ibm.fhir.cli.invoker.OperationInvoker--><a href="OperationInvoker.html" target="_top" title="OperationInvoker.html" xlink:actuate="onRequest" xlink:href="OperationInvoker.html" xlink:show="new" xlink:title="OperationInvoker.html" xlink:type="simple"><rect fill="#FEFECE" filter="url(#fyzwmxtwybo1r)" height="58.7422" id="com.ibm.fhir.cli.invoker.OperationInvoker" style="stroke: #A80036; stroke-width: 1.5;" width="215" x="6" y="8"/><ellipse cx="50.25" cy="26.9688" fill="#A9DCDF" rx="11" ry="11" style="stroke: #A80036; stroke-width: 1.0;"/><path d="M50.3594,22.3125 L49.2031,27.3906 L51.5313,27.3906 L50.3594,22.3125 Z M48.875,20.0781 L51.8594,20.0781 L55.2188,32.4688 L52.7656,32.4688 L52,29.4063 L48.7188,29.4063 L47.9688,32.4688 L45.5313,32.4688 L48.875,20.0781 Z "/><text fill="#000000" font-family="sans-serif" font-size="14" font-style="italic" lengthAdjust="spacingAndGlyphs" textLength="118" x="70.75" y="25.9951">OperationInvoker</text><text fill="#000000" font-family="sans-serif" font-size="10" font-style="italic" lengthAdjust="spacingAndGlyphs" textLength="111" x="74.25" y="38.5791">com.ibm.fhir.cli.invoker</text><line style="stroke: #A80036; stroke-width: 1.5;" x1="7" x2="220" y1="45.9375" y2="45.9375"/><ellipse cx="17" cy="56.9375" fill="#84BE84" rx="3" ry="3" style="stroke: #038048; stroke-width: 1.0;"/><text fill="#000000" font-family="sans-serif" font-size="11" font-style="italic" lengthAdjust="spacingAndGlyphs" textLength="189" x="26" y="60.1479">doInvoke(InvocationContext): void</text></a><!--MD5=[5dd020215f5199404fad8c09eebe63e3]
reverse link com.ibm.fhir.cli.invoker.OperationInvoker to com.ibm.fhir.cli.invoker.SearchPostInvoker--><path d="M113.5,87.3288 C113.5,100.7348 113.5,114.8139 113.5,126.7447 " fill="none" id="com.ibm.fhir.cli.invoker.OperationInvoker&lt;-com.ibm.fhir.cli.invoker.SearchPostInvoker" style="stroke: #A80036; stroke-width: 1.0;"/><polygon fill="none" points="106.5001,87.2218,113.5,67.2218,120.5001,87.2217,106.5001,87.2218" style="stroke: #A80036; stroke-width: 1.0;"/><text fill="#888888" font-family="sans-serif" font-size="10" lengthAdjust="spacingAndGlyphs" textLength="186" x="26.5" y="205.2822">UMLDoclet 2.0.7, PlantUML 1.2019.12</text><!--MD5=[756b10a2e78d7b4dab058b2cd52b1675]
@startuml
    set namespaceSeparator none
    hide empty fields
    hide empty methods

    class "<size:14>SearchPostInvoker\n<size:10>com.ibm.fhir.cli.invoker" as com.ibm.fhir.cli.invoker.SearchPostInvoker [[SearchPostInvoker.html]] {
        +doInvoke(InvocationContext): void
    }

    abstract class "<size:14>OperationInvoker\n<size:10>com.ibm.fhir.cli.invoker" as com.ibm.fhir.cli.invoker.OperationInvoker [[OperationInvoker.html]] {
        {abstract} +doInvoke(InvocationContext): void
    }

    com.ibm.fhir.cli.invoker.OperationInvoker <|- - com.ibm.fhir.cli.invoker.SearchPostInvoker

    center footer UMLDoclet 2.0.7, PlantUML 1.2019.12
@enduml

PlantUML version 1.2019.12(Sun Nov 03 10:24:54 UTC 2019)
(APACHE source distribution)
Java Runtime: OpenJDK Runtime Environment
JVM: OpenJDK 64-Bit Server VM
Java Version: 11.0.9+11
Operating System: Linux
Default Encoding: UTF-8
Language: en
Country: null
--></g></svg>