<?xml version="1.0" encoding="UTF-8" standalone="no"?><svg xmlns="http://www.w3.org/2000/svg" xmlns:xlink="http://www.w3.org/1999/xlink" contentScriptType="application/ecmascript" contentStyleType="text/css" height="230px" preserveAspectRatio="none" style="width:715px;height:230px;" version="1.1" viewBox="0 0 715 230" width="715px" zoomAndPan="magnify"><defs><filter height="300%" id="f4wvdb82khfxw" width="300%" x="-1" y="-1"><feGaussianBlur result="blurOut" stdDeviation="2.0"/><feColorMatrix in="blurOut" result="blurOut2" type="matrix" values="0 0 0 0 0 0 0 0 0 0 0 0 0 0 0 0 0 0 .4 0"/><feOffset dx="4.0" dy="4.0" in="blurOut2" result="blurOut3"/><feBlend in="SourceGraphic" in2="blurOut3" mode="normal"/></filter></defs><g><!--MD5=[a49473a7720992c72797181f112ffbc8]
class com.ibm.fhir.persistence.jdbc.util.SortedQuerySegmentAggregator--><a href="SortedQuerySegmentAggregator.html" target="_top" title="SortedQuerySegmentAggregator.html" xlink:actuate="onRequest" xlink:href="SortedQuerySegmentAggregator.html" xlink:show="new" xlink:title="SortedQuerySegmentAggregator.html" xlink:type="simple"><rect fill="#FEFECE" filter="url(#f4wvdb82khfxw)" height="92.3516" id="com.ibm.fhir.persistence.jdbc.util.SortedQuerySegmentAggregator" style="stroke: #A80036; stroke-width: 1.5;" width="698" x="6" y="106"/><ellipse cx="237.25" cy="124.9688" fill="#ADD1B2" rx="11" ry="11" style="stroke: #A80036; stroke-width: 1.0;"/><path d="M240.2188,130.6094 Q239.6406,130.9063 239,131.0469 Q238.3594,131.2031 237.6563,131.2031 Q235.1563,131.2031 233.8281,129.5625 Q232.5156,127.9063 232.5156,124.7813 Q232.5156,121.6563 233.8281,120 Q235.1563,118.3438 237.6563,118.3438 Q238.3594,118.3438 239,118.5 Q239.6563,118.6563 240.2188,118.9531 L240.2188,121.6719 Q239.5938,121.0938 239,120.8281 Q238.4063,120.5469 237.7813,120.5469 Q236.4375,120.5469 235.75,121.625 Q235.0625,122.6875 235.0625,124.7813 Q235.0625,126.875 235.75,127.9531 Q236.4375,129.0156 237.7813,129.0156 Q238.4063,129.0156 239,128.75 Q239.5938,128.4688 240.2188,127.8906 L240.2188,130.6094 Z "/><text fill="#000000" font-family="sans-serif" font-size="14" lengthAdjust="spacingAndGlyphs" textLength="227" x="257.75" y="123.9951">SortedQuerySegmentAggregator</text><text fill="#000000" font-family="sans-serif" font-size="10" lengthAdjust="spacingAndGlyphs" textLength="158" x="292.25" y="136.5791">com.ibm.fhir.persistence.jdbc.util</text><line style="stroke: #A80036; stroke-width: 1.5;" x1="7" x2="703" y1="143.9375" y2="143.9375"/><ellipse cx="17" cy="154.9375" fill="none" rx="3" ry="3" style="stroke: #038048; stroke-width: 1.0;"/><text fill="#000000" font-family="sans-serif" font-size="11" lengthAdjust="spacingAndGlyphs" text-decoration="underline" textLength="103" x="26" y="158.1479">GROUP_BY: String</text><line style="stroke: #A80036; stroke-width: 1.5;" x1="7" x2="703" y1="164.7422" y2="164.7422"/><polygon fill="#FFFF44" points="17,170.7422,21,174.7422,17,178.7422,13,174.7422" style="stroke: #B38D22; stroke-width: 1.0;"/><text fill="#000000" font-family="sans-serif" font-size="11" lengthAdjust="spacingAndGlyphs" textLength="672" x="26" y="178.9526">SortedQuerySegmentAggregator(Class&lt;?&gt;, int, int, ParameterDAO, ResourceDAO, List&lt;SortParameter&gt;, QueryHints)</text><ellipse cx="17" cy="188.5469" fill="#84BE84" rx="3" ry="3" style="stroke: #038048; stroke-width: 1.0;"/><text fill="#000000" font-family="sans-serif" font-size="11" lengthAdjust="spacingAndGlyphs" textLength="155" x="26" y="191.7573">buildQuery(): SqlQueryData</text></a><!--MD5=[d9a65b5574129e3e9c9a474a10e1f7c2]
class com.ibm.fhir.persistence.jdbc.util.QuerySegmentAggregator--><a href="QuerySegmentAggregator.html" target="_top" title="QuerySegmentAggregator.html" xlink:actuate="onRequest" xlink:href="QuerySegmentAggregator.html" xlink:show="new" xlink:title="QuerySegmentAggregator.html" xlink:type="simple"><rect fill="#FEFECE" filter="url(#f4wvdb82khfxw)" height="37.9375" id="com.ibm.fhir.persistence.jdbc.util.QuerySegmentAggregator" style="stroke: #A80036; stroke-width: 1.5;" width="213" x="248.5" y="8"/><ellipse cx="263.5" cy="26.9688" fill="#ADD1B2" rx="11" ry="11" style="stroke: #A80036; stroke-width: 1.0;"/><path d="M266.4688,32.6094 Q265.8906,32.9063 265.25,33.0469 Q264.6094,33.2031 263.9063,33.2031 Q261.4063,33.2031 260.0781,31.5625 Q258.7656,29.9063 258.7656,26.7813 Q258.7656,23.6563 260.0781,22 Q261.4063,20.3438 263.9063,20.3438 Q264.6094,20.3438 265.25,20.5 Q265.9063,20.6563 266.4688,20.9531 L266.4688,23.6719 Q265.8438,23.0938 265.25,22.8281 Q264.6563,22.5469 264.0313,22.5469 Q262.6875,22.5469 262,23.625 Q261.3125,24.6875 261.3125,26.7813 Q261.3125,28.875 262,29.9531 Q262.6875,31.0156 264.0313,31.0156 Q264.6563,31.0156 265.25,30.75 Q265.8438,30.4688 266.4688,29.8906 L266.4688,32.6094 Z "/><text fill="#000000" font-family="sans-serif" font-size="14" lengthAdjust="spacingAndGlyphs" textLength="181" x="277.5" y="25.9951">QuerySegmentAggregator</text><text fill="#000000" font-family="sans-serif" font-size="10" lengthAdjust="spacingAndGlyphs" textLength="158" x="289" y="38.5791">com.ibm.fhir.persistence.jdbc.util</text></a><!--MD5=[f2a3786e033a02e3d1c70c98fc7acfd8]
reverse link com.ibm.fhir.persistence.jdbc.util.QuerySegmentAggregator to com.ibm.fhir.persistence.jdbc.util.SortedQuerySegmentAggregator--><path d="M355,66.695 C355,79.1838 355,93.0804 355,105.9705 " fill="none" id="com.ibm.fhir.persistence.jdbc.util.QuerySegmentAggregator&lt;-com.ibm.fhir.persistence.jdbc.util.SortedQuerySegmentAggregator" style="stroke: #A80036; stroke-width: 1.0;"/><polygon fill="none" points="348.0001,66.2573,355,46.2573,362.0001,66.2573,348.0001,66.2573" style="stroke: #A80036; stroke-width: 1.0;"/><text fill="#888888" font-family="sans-serif" font-size="10" lengthAdjust="spacingAndGlyphs" textLength="186" x="268" y="217.2822">UMLDoclet 2.0.7, PlantUML 1.2019.12</text><!--MD5=[0656efdb1a7123eb61952f7d181433f8]
@startuml
    set namespaceSeparator none
    hide empty fields
    hide empty methods

    class "<size:14>SortedQuerySegmentAggregator\n<size:10>com.ibm.fhir.persistence.jdbc.util" as com.ibm.fhir.persistence.jdbc.util.SortedQuerySegmentAggregator [[SortedQuerySegmentAggregator.html]] {
        {static} +GROUP_BY: String
        #SortedQuerySegmentAggregator(Class<?>, int, int, ParameterDAO, ResourceDAO, List<SortParameter>, QueryHints)
        +buildQuery(): SqlQueryData
    }

    class "<size:14>QuerySegmentAggregator\n<size:10>com.ibm.fhir.persistence.jdbc.util" as com.ibm.fhir.persistence.jdbc.util.QuerySegmentAggregator [[QuerySegmentAggregator.html]]

    com.ibm.fhir.persistence.jdbc.util.QuerySegmentAggregator <|- - com.ibm.fhir.persistence.jdbc.util.SortedQuerySegmentAggregator

    center footer UMLDoclet 2.0.7, PlantUML 1.2019.12
@enduml

PlantUML version 1.2019.12(Sun Nov 03 10:24:54 UTC 2019)
(APACHE source distribution)
Java Runtime: OpenJDK Runtime Environment
JVM: OpenJDK 64-Bit Server VM
Java Version: 11.0.8+10
Operating System: Linux
Default Encoding: UTF-8
Language: en
Country: null
--></g></svg>