<?xml version="1.0" encoding="UTF-8" standalone="no"?><svg xmlns="http://www.w3.org/2000/svg" xmlns:xlink="http://www.w3.org/1999/xlink" contentScriptType="application/ecmascript" contentStyleType="text/css" height="324px" preserveAspectRatio="none" style="width:873px;height:324px;" version="1.1" viewBox="0 0 873 324" width="873px" zoomAndPan="magnify"><defs><filter height="300%" id="fkld8wgbk6510" width="300%" x="-1" y="-1"><feGaussianBlur result="blurOut" stdDeviation="2.0"/><feColorMatrix in="blurOut" result="blurOut2" type="matrix" values="0 0 0 0 0 0 0 0 0 0 0 0 0 0 0 0 0 0 .4 0"/><feOffset dx="4.0" dy="4.0" in="blurOut2" result="blurOut3"/><feBlend in="SourceGraphic" in2="blurOut3" mode="normal"/></filter></defs><g><!--MD5=[14f74feb2d49b4578f4458e0bb8fb76c]
cluster com.ibm.fhir.search.exception--><polygon fill="#FFFFFF" filter="url(#fkld8wgbk6510)" points="14,124,260,124,267,146.2969,851,146.2969,851,284,14,284,14,124" style="stroke: #000000; stroke-width: 1.5;"/><line style="stroke: #000000; stroke-width: 1.5;" x1="14" x2="267" y1="146.2969" y2="146.2969"/><text fill="#000000" font-family="sans-serif" font-size="14" font-weight="bold" lengthAdjust="spacingAndGlyphs" textLength="240" x="18" y="138.9951">com.ibm.fhir.search.exception</text><!--MD5=[45a9bf29fc979cb07d88174345e9bd53]
cluster com.ibm.fhir.exception--><polygon fill="#FFFFFF" filter="url(#fkld8wgbk6510)" points="82,16,269,16,276,38.2969,280,38.2969,280,99,82,99,82,16" style="stroke: #000000; stroke-width: 1.5;"/><line style="stroke: #000000; stroke-width: 1.5;" x1="82" x2="276" y1="38.2969" y2="38.2969"/><text fill="#000000" font-family="sans-serif" font-size="14" font-weight="bold" lengthAdjust="spacingAndGlyphs" textLength="181" x="86" y="30.9951">com.ibm.fhir.exception</text><!--MD5=[bb9c919928aa853b023413c761199cd2]
class com.ibm.fhir.search.exception.SearchExceptionUtil--><a href="SearchExceptionUtil.html" target="_top" title="SearchExceptionUtil.html" xlink:actuate="onRequest" xlink:href="SearchExceptionUtil.html" xlink:show="new" xlink:title="SearchExceptionUtil.html" xlink:type="simple"><rect fill="#FEFECE" filter="url(#fkld8wgbk6510)" height="124.8281" id="com.ibm.fhir.search.exception.SearchExceptionUtil" style="stroke: #A80036; stroke-width: 1.5;" width="467" x="375.5" y="151"/><ellipse cx="542.25" cy="167" fill="#ADD1B2" rx="11" ry="11" style="stroke: #A80036; stroke-width: 1.0;"/><path d="M545.2188,172.6406 Q544.6406,172.9375 544,173.0781 Q543.3594,173.2344 542.6563,173.2344 Q540.1563,173.2344 538.8281,171.5938 Q537.5156,169.9375 537.5156,166.8125 Q537.5156,163.6875 538.8281,162.0313 Q540.1563,160.375 542.6563,160.375 Q543.3594,160.375 544,160.5313 Q544.6563,160.6875 545.2188,160.9844 L545.2188,163.7031 Q544.5938,163.125 544,162.8594 Q543.4063,162.5781 542.7813,162.5781 Q541.4375,162.5781 540.75,163.6563 Q540.0625,164.7188 540.0625,166.8125 Q540.0625,168.9063 540.75,169.9844 Q541.4375,171.0469 542.7813,171.0469 Q543.4063,171.0469 544,170.7813 Q544.5938,170.5 545.2188,169.9219 L545.2188,172.6406 Z "/><text fill="#000000" font-family="sans-serif" font-size="12" lengthAdjust="spacingAndGlyphs" textLength="125" x="562.75" y="171.1543">SearchExceptionUtil</text><line style="stroke: #A80036; stroke-width: 1.5;" x1="376.5" x2="841.5" y1="183" y2="183"/><line style="stroke: #A80036; stroke-width: 1.5;" x1="376.5" x2="841.5" y1="191" y2="191"/><ellipse cx="386.5" cy="202" fill="#84BE84" rx="3" ry="3" style="stroke: #038048; stroke-width: 1.0;"/><text fill="#000000" font-family="sans-serif" font-size="11" lengthAdjust="spacingAndGlyphs" text-decoration="underline" textLength="349" x="395.5" y="205.2104">buildNewInvalidSearchException(String): FHIRSearchException</text><ellipse cx="386.5" cy="214.8047" fill="#84BE84" rx="3" ry="3" style="stroke: #038048; stroke-width: 1.0;"/><text fill="#000000" font-family="sans-serif" font-size="11" lengthAdjust="spacingAndGlyphs" text-decoration="underline" textLength="428" x="395.5" y="218.0151">buildNewParseParameterException(String, Exception): FHIRSearchException</text><ellipse cx="386.5" cy="227.6094" fill="#84BE84" rx="3" ry="3" style="stroke: #038048; stroke-width: 1.0;"/><text fill="#000000" font-family="sans-serif" font-size="11" lengthAdjust="spacingAndGlyphs" text-decoration="underline" textLength="441" x="395.5" y="230.8198">buildNewChainedParameterException(String, Exception): FHIRSearchException</text><ellipse cx="386.5" cy="240.4141" fill="#84BE84" rx="3" ry="3" style="stroke: #038048; stroke-width: 1.0;"/><text fill="#000000" font-family="sans-serif" font-size="11" lengthAdjust="spacingAndGlyphs" text-decoration="underline" textLength="301" x="395.5" y="243.6245">buildNewIllegalStateException(): IllegalStateException</text><ellipse cx="386.5" cy="253.2188" fill="#84BE84" rx="3" ry="3" style="stroke: #038048; stroke-width: 1.0;"/><text fill="#000000" font-family="sans-serif" font-size="11" lengthAdjust="spacingAndGlyphs" text-decoration="underline" textLength="385" x="395.5" y="256.4292">buildNewIllegalArgumentException(String): IllegalArgumentException</text><ellipse cx="386.5" cy="266.0234" fill="#84BE84" rx="3" ry="3" style="stroke: #038048; stroke-width: 1.0;"/><text fill="#000000" font-family="sans-serif" font-size="11" lengthAdjust="spacingAndGlyphs" text-decoration="underline" textLength="387" x="395.5" y="269.2339">buildNewDateTimeFormatException(Exception): FHIRSearchException</text></a><!--MD5=[074c18ebad499bfe7255b3946f0bb5ba]
class com.ibm.fhir.search.exception.FHIRSearchException--><a href="FHIRSearchException.html" target="_top" title="FHIRSearchException.html" xlink:actuate="onRequest" xlink:href="FHIRSearchException.html" xlink:show="new" xlink:title="FHIRSearchException.html" xlink:type="simple"><rect fill="#FEFECE" filter="url(#fkld8wgbk6510)" height="99.2188" id="com.ibm.fhir.search.exception.FHIRSearchException" style="stroke: #A80036; stroke-width: 1.5;" width="318" x="22" y="164"/><ellipse cx="110.75" cy="180" fill="#ADD1B2" rx="11" ry="11" style="stroke: #A80036; stroke-width: 1.0;"/><path d="M113.7188,185.6406 Q113.1406,185.9375 112.5,186.0781 Q111.8594,186.2344 111.1563,186.2344 Q108.6563,186.2344 107.3281,184.5938 Q106.0156,182.9375 106.0156,179.8125 Q106.0156,176.6875 107.3281,175.0313 Q108.6563,173.375 111.1563,173.375 Q111.8594,173.375 112.5,173.5313 Q113.1563,173.6875 113.7188,173.9844 L113.7188,176.7031 Q113.0938,176.125 112.5,175.8594 Q111.9063,175.5781 111.2813,175.5781 Q109.9375,175.5781 109.25,176.6563 Q108.5625,177.7188 108.5625,179.8125 Q108.5625,181.9063 109.25,182.9844 Q109.9375,184.0469 111.2813,184.0469 Q111.9063,184.0469 112.5,183.7813 Q113.0938,183.5 113.7188,182.9219 L113.7188,185.6406 Z "/><text fill="#000000" font-family="sans-serif" font-size="12" lengthAdjust="spacingAndGlyphs" textLength="132" x="131.25" y="184.1543">FHIRSearchException</text><line style="stroke: #A80036; stroke-width: 1.5;" x1="23" x2="339" y1="196" y2="196"/><line style="stroke: #A80036; stroke-width: 1.5;" x1="23" x2="339" y1="204" y2="204"/><ellipse cx="33" cy="215" fill="#84BE84" rx="3" ry="3" style="stroke: #038048; stroke-width: 1.0;"/><text fill="#000000" font-family="sans-serif" font-size="11" lengthAdjust="spacingAndGlyphs" textLength="160" x="42" y="218.2104">FHIRSearchException(String)</text><ellipse cx="33" cy="227.8047" fill="#84BE84" rx="3" ry="3" style="stroke: #038048; stroke-width: 1.0;"/><text fill="#000000" font-family="sans-serif" font-size="11" lengthAdjust="spacingAndGlyphs" textLength="227" x="42" y="231.0151">FHIRSearchException(String, Throwable)</text><ellipse cx="33" cy="240.6094" fill="#84BE84" rx="3" ry="3" style="stroke: #038048; stroke-width: 1.0;"/><text fill="#000000" font-family="sans-serif" font-size="11" lengthAdjust="spacingAndGlyphs" textLength="231" x="42" y="243.8198">withIssue(Issue...): FHIRSearchException</text><ellipse cx="33" cy="253.4141" fill="#84BE84" rx="3" ry="3" style="stroke: #038048; stroke-width: 1.0;"/><text fill="#000000" font-family="sans-serif" font-size="11" lengthAdjust="spacingAndGlyphs" textLength="292" x="42" y="256.6245">withIssue(Collection&lt;Issue&gt;): FHIRSearchException</text></a><!--MD5=[6d6d6ca34c8852304ea27f67c6ddea01]
class com.ibm.fhir.exception.FHIROperationException--><a href="../../exception/FHIROperationException.html" target="_top" title="../../exception/FHIROperationException.html" xlink:actuate="onRequest" xlink:href="../../exception/FHIROperationException.html" xlink:show="new" xlink:title="../../exception/FHIROperationException.html" xlink:type="simple"><rect fill="#FEFECE" filter="url(#fkld8wgbk6510)" height="48" id="com.ibm.fhir.exception.FHIROperationException" style="stroke: #A80036; stroke-width: 1.5;" width="182" x="90" y="43"/><ellipse cx="105" cy="59" fill="#ADD1B2" rx="11" ry="11" style="stroke: #A80036; stroke-width: 1.0;"/><path d="M107.9688,64.6406 Q107.3906,64.9375 106.75,65.0781 Q106.1094,65.2344 105.4063,65.2344 Q102.9063,65.2344 101.5781,63.5938 Q100.2656,61.9375 100.2656,58.8125 Q100.2656,55.6875 101.5781,54.0313 Q102.9063,52.375 105.4063,52.375 Q106.1094,52.375 106.75,52.5313 Q107.4063,52.6875 107.9688,52.9844 L107.9688,55.7031 Q107.3438,55.125 106.75,54.8594 Q106.1563,54.5781 105.5313,54.5781 Q104.1875,54.5781 103.5,55.6563 Q102.8125,56.7188 102.8125,58.8125 Q102.8125,60.9063 103.5,61.9844 Q104.1875,63.0469 105.5313,63.0469 Q106.1563,63.0469 106.75,62.7813 Q107.3438,62.5 107.9688,61.9219 L107.9688,64.6406 Z "/><text fill="#000000" font-family="sans-serif" font-size="12" lengthAdjust="spacingAndGlyphs" textLength="150" x="119" y="63.1543">FHIROperationException</text><line style="stroke: #A80036; stroke-width: 1.5;" x1="91" x2="271" y1="75" y2="75"/><line style="stroke: #A80036; stroke-width: 1.5;" x1="91" x2="271" y1="83" y2="83"/></a><!--MD5=[ac4cffa4322bebc40b6d52aa8dcbf99e]
reverse link com.ibm.fhir.exception.FHIROperationException to com.ibm.fhir.search.exception.FHIRSearchException--><path d="M181,111.2429 C181,127.8013 181,146.7184 181,163.7421 " fill="none" id="com.ibm.fhir.exception.FHIROperationException&lt;-com.ibm.fhir.search.exception.FHIRSearchException" style="stroke: #A80036; stroke-width: 1.0;"/><polygon fill="none" points="174.0001,111.1915,181,91.1915,188.0001,111.1915,174.0001,111.1915" style="stroke: #A80036; stroke-width: 1.0;"/><text fill="#888888" font-family="sans-serif" font-size="10" lengthAdjust="spacingAndGlyphs" textLength="186" x="345.5" y="311.2822">UMLDoclet 2.0.7, PlantUML 1.2019.12</text><!--MD5=[eb5c2a4487890da271286d5dec8671b7]
@startuml
    namespace com.ibm.fhir.search.exception {

        class SearchExceptionUtil [[SearchExceptionUtil.html]] {
            {static} +buildNewInvalidSearchException(String): FHIRSearchException
            {static} +buildNewParseParameterException(String, Exception): FHIRSearchException
            {static} +buildNewChainedParameterException(String, Exception): FHIRSearchException
            {static} +buildNewIllegalStateException(): IllegalStateException
            {static} +buildNewIllegalArgumentException(String): IllegalArgumentException
            {static} +buildNewDateTimeFormatException(Exception): FHIRSearchException
        }

        class FHIRSearchException [[FHIRSearchException.html]] {
            +FHIRSearchException(String)
            +FHIRSearchException(String, Throwable)
            +withIssue(Issue...): FHIRSearchException
            +withIssue(Collection<Issue>): FHIRSearchException
        }

        com.ibm.fhir.exception.FHIROperationException <|- - FHIRSearchException
    }

    namespace com.ibm.fhir.exception {
        class FHIROperationException [[../../exception/FHIROperationException.html]] {
        }
    }

    center footer UMLDoclet 2.0.7, PlantUML 1.2019.12
@enduml

PlantUML version 1.2019.12(Sun Nov 03 10:24:54 UTC 2019)
(APACHE source distribution)
Java Runtime: OpenJDK Runtime Environment
JVM: OpenJDK 64-Bit Server VM
Java Version: 11.0.7+10
Operating System: Linux
Default Encoding: UTF-8
Language: en
Country: null
--></g></svg>