<?xml version="1.0" encoding="UTF-8" standalone="no"?><svg xmlns="http://www.w3.org/2000/svg" xmlns:xlink="http://www.w3.org/1999/xlink" contentScriptType="application/ecmascript" contentStyleType="text/css" height="311px" preserveAspectRatio="none" style="width:484px;height:311px;" version="1.1" viewBox="0 0 484 311" width="484px" zoomAndPan="magnify"><defs><filter height="300%" id="f1uvb538r3cnb7" width="300%" x="-1" y="-1"><feGaussianBlur result="blurOut" stdDeviation="2.0"/><feColorMatrix in="blurOut" result="blurOut2" type="matrix" values="0 0 0 0 0 0 0 0 0 0 0 0 0 0 0 0 0 0 .4 0"/><feOffset dx="4.0" dy="4.0" in="blurOut2" result="blurOut3"/><feBlend in="SourceGraphic" in2="blurOut3" mode="normal"/></filter></defs><g><!--MD5=[c932b3018ee360c07c983e196bed8294]
cluster com.ibm.fhir.notifications.nats.impl--><polygon fill="#FFFFFF" filter="url(#f1uvb538r3cnb7)" points="14,137,296,137,303,159.2969,462,159.2969,462,271,14,271,14,137" style="stroke: #000000; stroke-width: 1.5;"/><line style="stroke: #000000; stroke-width: 1.5;" x1="14" x2="303" y1="159.2969" y2="159.2969"/><text fill="#000000" font-family="sans-serif" font-size="14" font-weight="bold" lengthAdjust="spacingAndGlyphs" textLength="276" x="18" y="151.9951">com.ibm.fhir.notifications.nats.impl</text><!--MD5=[b7517faf516e24fdea912af9533a9479]
cluster com.ibm.fhir.notification--><polygon fill="#FFFFFF" filter="url(#f1uvb538r3cnb7)" points="121,16,318,16,325,38.2969,355,38.2969,355,112,121,112,121,16" style="stroke: #000000; stroke-width: 1.5;"/><line style="stroke: #000000; stroke-width: 1.5;" x1="121" x2="325" y1="38.2969" y2="38.2969"/><text fill="#000000" font-family="sans-serif" font-size="14" font-weight="bold" lengthAdjust="spacingAndGlyphs" textLength="191" x="125" y="30.9951">com.ibm.fhir.notification</text><!--MD5=[98cf206b53fb01e5c3d021903e1c0ae7]
class com.ibm.fhir.notifications.nats.impl.FHIRNotificationNATSPublisher--><a href="FHIRNotificationNATSPublisher.html" target="_top" title="FHIRNotificationNATSPublisher.html" xlink:actuate="onRequest" xlink:href="FHIRNotificationNATSPublisher.html" xlink:show="new" xlink:title="FHIRNotificationNATSPublisher.html" xlink:type="simple"><rect fill="#FEFECE" filter="url(#f1uvb538r3cnb7)" height="99.2188" id="com.ibm.fhir.notifications.nats.impl.FHIRNotificationNATSPublisher" style="stroke: #A80036; stroke-width: 1.5;" width="431" x="22.5" y="164"/><ellipse cx="139.75" cy="180" fill="#ADD1B2" rx="11" ry="11" style="stroke: #A80036; stroke-width: 1.0;"/><path d="M142.7188,185.6406 Q142.1406,185.9375 141.5,186.0781 Q140.8594,186.2344 140.1563,186.2344 Q137.6563,186.2344 136.3281,184.5938 Q135.0156,182.9375 135.0156,179.8125 Q135.0156,176.6875 136.3281,175.0313 Q137.6563,173.375 140.1563,173.375 Q140.8594,173.375 141.5,173.5313 Q142.1563,173.6875 142.7188,173.9844 L142.7188,176.7031 Q142.0938,176.125 141.5,175.8594 Q140.9063,175.5781 140.2813,175.5781 Q138.9375,175.5781 138.25,176.6563 Q137.5625,177.7188 137.5625,179.8125 Q137.5625,181.9063 138.25,182.9844 Q138.9375,184.0469 140.2813,184.0469 Q140.9063,184.0469 141.5,183.7813 Q142.0938,183.5 142.7188,182.9219 L142.7188,185.6406 Z "/><text fill="#000000" font-family="sans-serif" font-size="12" lengthAdjust="spacingAndGlyphs" textLength="188" x="160.25" y="184.1543">FHIRNotificationNATSPublisher</text><line style="stroke: #A80036; stroke-width: 1.5;" x1="23.5" x2="452.5" y1="196" y2="196"/><line style="stroke: #A80036; stroke-width: 1.5;" x1="23.5" x2="452.5" y1="204" y2="204"/><polygon fill="#FFFF44" points="33.5,210,37.5,214,33.5,218,29.5,214" style="stroke: #B38D22; stroke-width: 1.0;"/><text fill="#000000" font-family="sans-serif" font-size="11" lengthAdjust="spacingAndGlyphs" textLength="178" x="42.5" y="218.2104">FHIRNotificationNATSPublisher()</text><ellipse cx="33.5" cy="227.8047" fill="#84BE84" rx="3" ry="3" style="stroke: #038048; stroke-width: 1.0;"/><text fill="#000000" font-family="sans-serif" font-size="11" lengthAdjust="spacingAndGlyphs" textLength="405" x="42.5" y="231.0151">FHIRNotificationNATSPublisher(String, String, String, String, Properties)</text><ellipse cx="33.5" cy="240.6094" fill="#84BE84" rx="3" ry="3" style="stroke: #038048; stroke-width: 1.0;"/><text fill="#000000" font-family="sans-serif" font-size="11" lengthAdjust="spacingAndGlyphs" textLength="94" x="42.5" y="243.8198">shutdown(): void</text><ellipse cx="33.5" cy="253.4141" fill="#84BE84" rx="3" ry="3" style="stroke: #038048; stroke-width: 1.0;"/><text fill="#000000" font-family="sans-serif" font-size="11" lengthAdjust="spacingAndGlyphs" textLength="188" x="42.5" y="256.6245">notify(FHIRNotificationEvent): void</text></a><!--MD5=[2e5ad173f9550cc0bb85af14670d51fa]
class com.ibm.fhir.notification.FHIRNotificationSubscriber--><a href="../../../notification/FHIRNotificationSubscriber.html" target="_top" title="../../../notification/FHIRNotificationSubscriber.html" xlink:actuate="onRequest" xlink:href="../../../notification/FHIRNotificationSubscriber.html" xlink:show="new" xlink:title="../../../notification/FHIRNotificationSubscriber.html" xlink:type="simple"><rect fill="#FEFECE" filter="url(#f1uvb538r3cnb7)" height="60.8047" id="com.ibm.fhir.notification.FHIRNotificationSubscriber" style="stroke: #A80036; stroke-width: 1.5;" width="218" x="129" y="43"/><ellipse cx="153.45" cy="59" fill="#B4A7E5" rx="11" ry="11" style="stroke: #A80036; stroke-width: 1.0;"/><path d="M149.3719,54.7656 L149.3719,52.6094 L156.7625,52.6094 L156.7625,54.7656 L154.2938,54.7656 L154.2938,62.8438 L156.7625,62.8438 L156.7625,65 L149.3719,65 L149.3719,62.8438 L151.8406,62.8438 L151.8406,54.7656 L149.3719,54.7656 Z "/><text fill="#000000" font-family="sans-serif" font-size="12" font-style="italic" lengthAdjust="spacingAndGlyphs" textLength="165" x="169.55" y="63.1543">FHIRNotificationSubscriber</text><line style="stroke: #A80036; stroke-width: 1.5;" x1="130" x2="346" y1="75" y2="75"/><line style="stroke: #A80036; stroke-width: 1.5;" x1="130" x2="346" y1="83" y2="83"/><ellipse cx="140" cy="94" fill="#84BE84" rx="3" ry="3" style="stroke: #038048; stroke-width: 1.0;"/><text fill="#000000" font-family="sans-serif" font-size="11" font-style="italic" lengthAdjust="spacingAndGlyphs" textLength="192" x="149" y="97.2104">notify(FHIRNotificationEvent): void</text></a><!--MD5=[c3dc3cdf5e730c6998526603ad9e9721]
reverse link com.ibm.fhir.notification.FHIRNotificationSubscriber to com.ibm.fhir.notifications.nats.impl.FHIRNotificationNATSPublisher--><path d="M238,124.5882 C238,137.4009 238,151.1275 238,163.868 " fill="none" id="com.ibm.fhir.notification.FHIRNotificationSubscriber&lt;-com.ibm.fhir.notifications.nats.impl.FHIRNotificationNATSPublisher" style="stroke: #A80036; stroke-width: 1.0; stroke-dasharray: 7.0,7.0;"/><polygon fill="none" points="231.0001,124.2236,238,104.2236,245.0001,124.2236,231.0001,124.2236" style="stroke: #A80036; stroke-width: 1.0;"/><text fill="#888888" font-family="sans-serif" font-size="10" lengthAdjust="spacingAndGlyphs" textLength="186" x="151" y="298.2822">UMLDoclet 2.0.7, PlantUML 1.2019.12</text><!--MD5=[a873a01a68bfb7844e5fe1a0bf261132]
@startuml
    namespace com.ibm.fhir.notifications.nats.impl {

        class FHIRNotificationNATSPublisher [[FHIRNotificationNATSPublisher.html]] {
            #FHIRNotificationNATSPublisher()
            +FHIRNotificationNATSPublisher(String, String, String, String, Properties)
            +shutdown(): void
            +notify(FHIRNotificationEvent): void
        }

        com.ibm.fhir.notification.FHIRNotificationSubscriber <|.. FHIRNotificationNATSPublisher
    }

    namespace com.ibm.fhir.notification {
        interface FHIRNotificationSubscriber [[../../../notification/FHIRNotificationSubscriber.html]] {
            {abstract} +notify(FHIRNotificationEvent): void
        }
    }

    center footer UMLDoclet 2.0.7, PlantUML 1.2019.12
@enduml

PlantUML version 1.2019.12(Sun Nov 03 10:24:54 UTC 2019)
(APACHE source distribution)
Java Runtime: OpenJDK Runtime Environment
JVM: OpenJDK 64-Bit Server VM
Java Version: 11.0.10+9
Operating System: Linux
Default Encoding: UTF-8
Language: en
Country: null
--></g></svg>