<?xml version="1.0" encoding="UTF-8" standalone="no"?><svg xmlns="http://www.w3.org/2000/svg" xmlns:xlink="http://www.w3.org/1999/xlink" contentScriptType="application/ecmascript" contentStyleType="text/css" height="248px" preserveAspectRatio="none" style="width:627px;height:248px;" version="1.1" viewBox="0 0 627 248" width="627px" zoomAndPan="magnify"><defs><filter height="300%" id="fnteiu6t5g476" width="300%" x="-1" y="-1"><feGaussianBlur result="blurOut" stdDeviation="2.0"/><feColorMatrix in="blurOut" result="blurOut2" type="matrix" values="0 0 0 0 0 0 0 0 0 0 0 0 0 0 0 0 0 0 .4 0"/><feOffset dx="4.0" dy="4.0" in="blurOut2" result="blurOut3"/><feBlend in="SourceGraphic" in2="blurOut3" mode="normal"/></filter></defs><g><!--MD5=[e96179bdd63dd95ef4d7fa0ace2980fe]
class com.ibm.fhir.audit.beans.ApiParameters--><a href="ApiParameters.html" target="_top" title="ApiParameters.html" xlink:actuate="onRequest" xlink:href="ApiParameters.html" xlink:show="new" xlink:title="ApiParameters.html" xlink:type="simple"><rect fill="#FEFECE" filter="url(#fnteiu6t5g476)" height="109.9609" id="com.ibm.fhir.audit.beans.ApiParameters" style="stroke: #A80036; stroke-width: 1.5;" width="163" x="225.5" y="8"/><ellipse cx="245.45" cy="26.9688" fill="#ADD1B2" rx="11" ry="11" style="stroke: #A80036; stroke-width: 1.0;"/><path d="M248.4188,32.6094 Q247.8406,32.9063 247.2,33.0469 Q246.5594,33.2031 245.8563,33.2031 Q243.3563,33.2031 242.0281,31.5625 Q240.7156,29.9063 240.7156,26.7813 Q240.7156,23.6563 242.0281,22 Q243.3563,20.3438 245.8563,20.3438 Q246.5594,20.3438 247.2,20.5 Q247.8563,20.6563 248.4188,20.9531 L248.4188,23.6719 Q247.7938,23.0938 247.2,22.8281 Q246.6063,22.5469 245.9813,22.5469 Q244.6375,22.5469 243.95,23.625 Q243.2625,24.6875 243.2625,26.7813 Q243.2625,28.875 243.95,29.9531 Q244.6375,31.0156 245.9813,31.0156 Q246.6063,31.0156 247.2,30.75 Q247.7938,30.4688 248.4188,29.8906 L248.4188,32.6094 Z "/><text fill="#000000" font-family="sans-serif" font-size="14" lengthAdjust="spacingAndGlyphs" textLength="100" x="270.55" y="25.9951">ApiParameters</text><text fill="#000000" font-family="sans-serif" font-size="10" lengthAdjust="spacingAndGlyphs" textLength="120" x="260.55" y="38.5791">com.ibm.fhir.audit.beans</text><line style="stroke: #A80036; stroke-width: 1.5;" x1="226.5" x2="387.5" y1="45.9375" y2="45.9375"/><ellipse cx="236.5" cy="56.9375" fill="#84BE84" rx="3" ry="3" style="stroke: #038048; stroke-width: 1.0;"/><text fill="#000000" font-family="sans-serif" font-size="11" lengthAdjust="spacingAndGlyphs" textLength="114" x="245.5" y="60.1479">getRequest(): String</text><ellipse cx="236.5" cy="69.7422" fill="#84BE84" rx="3" ry="3" style="stroke: #038048; stroke-width: 1.0;"/><text fill="#000000" font-family="sans-serif" font-size="11" lengthAdjust="spacingAndGlyphs" textLength="137" x="245.5" y="72.9526">setRequest(String): void</text><ellipse cx="236.5" cy="82.5469" fill="#84BE84" rx="3" ry="3" style="stroke: #038048; stroke-width: 1.0;"/><text fill="#000000" font-family="sans-serif" font-size="11" lengthAdjust="spacingAndGlyphs" textLength="111" x="245.5" y="85.7573">getStatus(): Integer</text><ellipse cx="236.5" cy="95.3516" fill="#84BE84" rx="3" ry="3" style="stroke: #038048; stroke-width: 1.0;"/><text fill="#000000" font-family="sans-serif" font-size="11" lengthAdjust="spacingAndGlyphs" textLength="108" x="245.5" y="98.562">setStatus(int): void</text><ellipse cx="236.5" cy="108.1563" fill="#84BE84" rx="3" ry="3" style="stroke: #038048; stroke-width: 1.0;"/><text fill="#000000" font-family="sans-serif" font-size="11" lengthAdjust="spacingAndGlyphs" text-decoration="underline" textLength="95" x="245.5" y="111.3667">builder(): Builder</text></a><!--MD5=[68dce0c1a8fef252484c63a837cd3e3d]
class com.ibm.fhir.audit.beans.ApiParameters.Writer--><a href="ApiParameters.Writer.html" target="_top" title="ApiParameters.Writer.html" xlink:actuate="onRequest" xlink:href="ApiParameters.Writer.html" xlink:show="new" xlink:title="ApiParameters.Writer.html" xlink:type="simple"><rect fill="#FEFECE" filter="url(#fnteiu6t5g476)" height="37.9375" id="com.ibm.fhir.audit.beans.ApiParameters.Writer" style="stroke: #A80036; stroke-width: 1.5;" width="176" x="6" y="178"/><ellipse cx="21" cy="196.9688" fill="#ADD1B2" rx="11" ry="11" style="stroke: #A80036; stroke-width: 1.0;"/><path d="M23.9688,202.6094 Q23.3906,202.9063 22.75,203.0469 Q22.1094,203.2031 21.4063,203.2031 Q18.9063,203.2031 17.5781,201.5625 Q16.2656,199.9063 16.2656,196.7813 Q16.2656,193.6563 17.5781,192 Q18.9063,190.3438 21.4063,190.3438 Q22.1094,190.3438 22.75,190.5 Q23.4063,190.6563 23.9688,190.9531 L23.9688,193.6719 Q23.3438,193.0938 22.75,192.8281 Q22.1563,192.5469 21.5313,192.5469 Q20.1875,192.5469 19.5,193.625 Q18.8125,194.6875 18.8125,196.7813 Q18.8125,198.875 19.5,199.9531 Q20.1875,201.0156 21.5313,201.0156 Q22.1563,201.0156 22.75,200.75 Q23.3438,200.4688 23.9688,199.8906 L23.9688,202.6094 Z "/><text fill="#000000" font-family="sans-serif" font-size="14" lengthAdjust="spacingAndGlyphs" textLength="144" x="35" y="195.9951">ApiParameters.Writer</text><text fill="#000000" font-family="sans-serif" font-size="10" lengthAdjust="spacingAndGlyphs" textLength="120" x="47" y="208.5791">com.ibm.fhir.audit.beans</text></a><!--MD5=[e946f4992734b6195328c32011874687]
class com.ibm.fhir.audit.beans.ApiParameters.Parser--><a href="ApiParameters.Parser.html" target="_top" title="ApiParameters.Parser.html" xlink:actuate="onRequest" xlink:href="ApiParameters.Parser.html" xlink:show="new" xlink:title="ApiParameters.Parser.html" xlink:type="simple"><rect fill="#FEFECE" filter="url(#fnteiu6t5g476)" height="37.9375" id="com.ibm.fhir.audit.beans.ApiParameters.Parser" style="stroke: #A80036; stroke-width: 1.5;" width="180" x="217" y="178"/><ellipse cx="232" cy="196.9688" fill="#ADD1B2" rx="11" ry="11" style="stroke: #A80036; stroke-width: 1.0;"/><path d="M234.9688,202.6094 Q234.3906,202.9063 233.75,203.0469 Q233.1094,203.2031 232.4063,203.2031 Q229.9063,203.2031 228.5781,201.5625 Q227.2656,199.9063 227.2656,196.7813 Q227.2656,193.6563 228.5781,192 Q229.9063,190.3438 232.4063,190.3438 Q233.1094,190.3438 233.75,190.5 Q234.4063,190.6563 234.9688,190.9531 L234.9688,193.6719 Q234.3438,193.0938 233.75,192.8281 Q233.1563,192.5469 232.5313,192.5469 Q231.1875,192.5469 230.5,193.625 Q229.8125,194.6875 229.8125,196.7813 Q229.8125,198.875 230.5,199.9531 Q231.1875,201.0156 232.5313,201.0156 Q233.1563,201.0156 233.75,200.75 Q234.3438,200.4688 234.9688,199.8906 L234.9688,202.6094 Z "/><text fill="#000000" font-family="sans-serif" font-size="14" lengthAdjust="spacingAndGlyphs" textLength="148" x="246" y="195.9951">ApiParameters.Parser</text><text fill="#000000" font-family="sans-serif" font-size="10" lengthAdjust="spacingAndGlyphs" textLength="120" x="260" y="208.5791">com.ibm.fhir.audit.beans</text></a><!--MD5=[4b31c6b2f0bbe2f574073bd41e6f5e37]
class com.ibm.fhir.audit.beans.ApiParameters.Builder--><a href="ApiParameters.Builder.html" target="_top" title="ApiParameters.Builder.html" xlink:actuate="onRequest" xlink:href="ApiParameters.Builder.html" xlink:show="new" xlink:title="ApiParameters.Builder.html" xlink:type="simple"><rect fill="#FEFECE" filter="url(#fnteiu6t5g476)" height="37.9375" id="com.ibm.fhir.audit.beans.ApiParameters.Builder" style="stroke: #A80036; stroke-width: 1.5;" width="184" x="432" y="178"/><ellipse cx="447" cy="196.9688" fill="#ADD1B2" rx="11" ry="11" style="stroke: #A80036; stroke-width: 1.0;"/><path d="M449.9688,202.6094 Q449.3906,202.9063 448.75,203.0469 Q448.1094,203.2031 447.4063,203.2031 Q444.9063,203.2031 443.5781,201.5625 Q442.2656,199.9063 442.2656,196.7813 Q442.2656,193.6563 443.5781,192 Q444.9063,190.3438 447.4063,190.3438 Q448.1094,190.3438 448.75,190.5 Q449.4063,190.6563 449.9688,190.9531 L449.9688,193.6719 Q449.3438,193.0938 448.75,192.8281 Q448.1563,192.5469 447.5313,192.5469 Q446.1875,192.5469 445.5,193.625 Q444.8125,194.6875 444.8125,196.7813 Q444.8125,198.875 445.5,199.9531 Q446.1875,201.0156 447.5313,201.0156 Q448.1563,201.0156 448.75,200.75 Q449.3438,200.4688 449.9688,199.8906 L449.9688,202.6094 Z "/><text fill="#000000" font-family="sans-serif" font-size="14" lengthAdjust="spacingAndGlyphs" textLength="152" x="461" y="195.9951">ApiParameters.Builder</text><text fill="#000000" font-family="sans-serif" font-size="10" lengthAdjust="spacingAndGlyphs" textLength="120" x="477" y="208.5791">com.ibm.fhir.audit.beans</text></a><!--MD5=[337244da789a4ab5436bb2907b41a7db]
reverse link com.ibm.fhir.audit.beans.ApiParameters to com.ibm.fhir.audit.beans.ApiParameters.Writer--><path d="M212.5,122.56 C180.2,142.58 146.41,163.52 123.21,177.9 " fill="none" id="com.ibm.fhir.audit.beans.ApiParameters&lt;-com.ibm.fhir.audit.beans.ApiParameters.Writer" style="stroke: #A80036; stroke-width: 1.0;"/><ellipse cx="218.4606" cy="118.8753" fill="#FFFFFF" rx="8" ry="8" style="stroke: #A80036; stroke-width: 1.0;"/><line style="stroke: #A80036; stroke-width: 1.0;" x1="211.6613" x2="225.26" y1="123.0906" y2="114.66"/><line style="stroke: #A80036; stroke-width: 1.0;" x1="214.2453" x2="222.6759" y1="112.0759" y2="125.6747"/><!--MD5=[e38c42b73acf282d70310b83b311c2e7]
reverse link com.ibm.fhir.audit.beans.ApiParameters to com.ibm.fhir.audit.beans.ApiParameters.Parser--><path d="M307,133.25 C307,149.83 307,166.14 307,177.97 " fill="none" id="com.ibm.fhir.audit.beans.ApiParameters&lt;-com.ibm.fhir.audit.beans.ApiParameters.Parser" style="stroke: #A80036; stroke-width: 1.0;"/><ellipse cx="307" cy="126.07" fill="#FFFFFF" rx="8" ry="8" style="stroke: #A80036; stroke-width: 1.0;"/><line style="stroke: #A80036; stroke-width: 1.0;" x1="307" x2="307" y1="134.07" y2="118.07"/><line style="stroke: #A80036; stroke-width: 1.0;" x1="299" x2="315" y1="126.07" y2="126.07"/><!--MD5=[080ab9909de481267e972409eded0a60]
reverse link com.ibm.fhir.audit.beans.ApiParameters to com.ibm.fhir.audit.beans.ApiParameters.Builder--><path d="M401.89,121.72 C435.25,142.01 470.35,163.36 494.31,177.94 " fill="none" id="com.ibm.fhir.audit.beans.ApiParameters&lt;-com.ibm.fhir.audit.beans.ApiParameters.Builder" style="stroke: #A80036; stroke-width: 1.0;"/><ellipse cx="395.567" cy="117.874" fill="#FFFFFF" rx="8" ry="8" style="stroke: #A80036; stroke-width: 1.0;"/><line style="stroke: #A80036; stroke-width: 1.0;" x1="402.4039" x2="388.73" y1="122.028" y2="113.72"/><line style="stroke: #A80036; stroke-width: 1.0;" x1="391.413" x2="399.721" y1="124.711" y2="111.037"/><text fill="#888888" font-family="sans-serif" font-size="10" lengthAdjust="spacingAndGlyphs" textLength="186" x="224" y="235.2822">UMLDoclet 2.0.7, PlantUML 1.2019.12</text><!--MD5=[8af878f978834403ce8c51b4250c99fd]
@startuml
    set namespaceSeparator none
    hide empty fields
    hide empty methods

    class "<size:14>ApiParameters\n<size:10>com.ibm.fhir.audit.beans" as com.ibm.fhir.audit.beans.ApiParameters [[ApiParameters.html]] {
        +getRequest(): String
        +setRequest(String): void
        +getStatus(): Integer
        +setStatus(int): void
        {static} +builder(): Builder
    }
    class "<size:14>ApiParameters.Writer\n<size:10>com.ibm.fhir.audit.beans" as com.ibm.fhir.audit.beans.ApiParameters.Writer [[ApiParameters.Writer.html]]
    class "<size:14>ApiParameters.Parser\n<size:10>com.ibm.fhir.audit.beans" as com.ibm.fhir.audit.beans.ApiParameters.Parser [[ApiParameters.Parser.html]]
    class "<size:14>ApiParameters.Builder\n<size:10>com.ibm.fhir.audit.beans" as com.ibm.fhir.audit.beans.ApiParameters.Builder [[ApiParameters.Builder.html]]

    com.ibm.fhir.audit.beans.ApiParameters +- - com.ibm.fhir.audit.beans.ApiParameters.Writer
    com.ibm.fhir.audit.beans.ApiParameters +- - com.ibm.fhir.audit.beans.ApiParameters.Parser
    com.ibm.fhir.audit.beans.ApiParameters +- - com.ibm.fhir.audit.beans.ApiParameters.Builder

    center footer UMLDoclet 2.0.7, PlantUML 1.2019.12
@enduml

PlantUML version 1.2019.12(Sun Nov 03 10:24:54 UTC 2019)
(APACHE source distribution)
Java Runtime: OpenJDK Runtime Environment
JVM: OpenJDK 64-Bit Server VM
Java Version: 11.0.10+9
Operating System: Linux
Default Encoding: UTF-8
Language: en
Country: null
--></g></svg>