<?xml version="1.0" encoding="UTF-8" standalone="no"?><svg xmlns="http://www.w3.org/2000/svg" xmlns:xlink="http://www.w3.org/1999/xlink" contentScriptType="application/ecmascript" contentStyleType="text/css" height="284px" preserveAspectRatio="none" style="width:482px;height:284px;" version="1.1" viewBox="0 0 482 284" width="482px" zoomAndPan="magnify"><defs><filter height="300%" id="fn7uxrfi25lpy" width="300%" x="-1" y="-1"><feGaussianBlur result="blurOut" stdDeviation="2.0"/><feColorMatrix in="blurOut" result="blurOut2" type="matrix" values="0 0 0 0 0 0 0 0 0 0 0 0 0 0 0 0 0 0 .4 0"/><feOffset dx="4.0" dy="4.0" in="blurOut2" result="blurOut3"/><feBlend in="SourceGraphic" in2="blurOut3" mode="normal"/></filter></defs><g><!--MD5=[f8c4f7bd2e6218aab2482fefc0d28c75]
class com.ibm.fhir.path.FHIRPathResourceNode.Builder--><a href="FHIRPathResourceNode.Builder.html" target="_top" title="FHIRPathResourceNode.Builder.html" xlink:actuate="onRequest" xlink:href="FHIRPathResourceNode.Builder.html" xlink:show="new" xlink:title="FHIRPathResourceNode.Builder.html" xlink:type="simple"><rect fill="#FEFECE" filter="url(#fn7uxrfi25lpy)" height="123.9961" id="com.ibm.fhir.path.FHIRPathResourceNode.Builder" style="stroke: #A80036; stroke-width: 1.5;" width="268" x="116" y="127"/><ellipse cx="141.8" cy="146.1328" fill="#ADD1B2" rx="11" ry="11" style="stroke: #A80036; stroke-width: 1.0;"/><path d="M144.2731,152.2759 Q143.6921,152.5747 143.0529,152.7241 Q142.4138,152.8735 141.7082,152.8735 Q139.2014,152.8735 137.8815,151.2217 Q136.5617,149.5698 136.5617,146.4487 Q136.5617,143.3193 137.8815,141.6675 Q139.2014,140.0156 141.7082,140.0156 Q142.4138,140.0156 143.0612,140.165 Q143.7087,140.3145 144.2731,140.6133 L144.2731,143.3359 Q143.6423,142.7549 143.0488,142.4851 Q142.4553,142.2153 141.8244,142.2153 Q140.4797,142.2153 139.7949,143.282 Q139.1101,144.3486 139.1101,146.4487 Q139.1101,148.5405 139.7949,149.6072 Q140.4797,150.6738 141.8244,150.6738 Q142.4553,150.6738 143.0488,150.4041 Q143.6423,150.1343 144.2731,149.5532 Z "/><text fill="#000000" font-family="sans-serif" font-size="14" lengthAdjust="spacingAndGlyphs" textLength="212" x="158.2" y="145.5352">FHIRPathResourceNode.Builder</text><text fill="#000000" font-family="sans-serif" font-size="10" lengthAdjust="spacingAndGlyphs" textLength="86" x="221.2" y="158.1563">com.ibm.fhir.path</text><line style="stroke: #A80036; stroke-width: 1.5;" x1="117" x2="383" y1="165.2656" y2="165.2656"/><polygon fill="#FFFF44" points="127,171.2656,131,175.2656,127,179.2656,123,175.2656" style="stroke: #B38D22; stroke-width: 1.0;"/><text fill="#000000" font-family="sans-serif" font-size="11" lengthAdjust="spacingAndGlyphs" textLength="174" x="136" y="179.9004">Builder(FHIRPathType, Resource)</text><ellipse cx="127" cy="189.2207" fill="#84BE84" rx="3" ry="3" style="stroke: #038048; stroke-width: 1.0;"/><text fill="#000000" font-family="sans-serif" font-size="11" lengthAdjust="spacingAndGlyphs" textLength="112" x="136" y="192.8555">name(String): Builder</text><ellipse cx="127" cy="202.1758" fill="#84BE84" rx="3" ry="3" style="stroke: #038048; stroke-width: 1.0;"/><text fill="#000000" font-family="sans-serif" font-size="11" lengthAdjust="spacingAndGlyphs" textLength="107" x="136" y="205.8105">path(String): Builder</text><ellipse cx="127" cy="215.1309" fill="#84BE84" rx="3" ry="3" style="stroke: #038048; stroke-width: 1.0;"/><text fill="#000000" font-family="sans-serif" font-size="11" lengthAdjust="spacingAndGlyphs" textLength="179" x="136" y="218.7656">children(FHIRPathNode...): Builder</text><ellipse cx="127" cy="228.0859" fill="#84BE84" rx="3" ry="3" style="stroke: #038048; stroke-width: 1.0;"/><text fill="#000000" font-family="sans-serif" font-size="11" lengthAdjust="spacingAndGlyphs" textLength="242" x="136" y="231.7207">children(Collection&lt;FHIRPathNode&gt;): Builder</text><ellipse cx="127" cy="241.041" fill="#84BE84" rx="3" ry="3" style="stroke: #038048; stroke-width: 1.0;"/><text fill="#000000" font-family="sans-serif" font-size="11" lengthAdjust="spacingAndGlyphs" textLength="166" x="136" y="244.6758">build(): FHIRPathResourceNode</text></a><!--MD5=[a99c0e076651efe5422f49111c1c111f]
class com.ibm.fhir.path.FHIRPathAbstractNode.Builder--><a href="FHIRPathAbstractNode.Builder.html" target="_top" title="FHIRPathAbstractNode.Builder.html" xlink:actuate="onRequest" xlink:href="FHIRPathAbstractNode.Builder.html" xlink:show="new" xlink:title="FHIRPathAbstractNode.Builder.html" xlink:type="simple"><rect fill="#FEFECE" filter="url(#fn7uxrfi25lpy)" height="59.2207" id="com.ibm.fhir.path.FHIRPathAbstractNode.Builder" style="stroke: #A80036; stroke-width: 1.5;" width="238" x="6" y="8"/><ellipse cx="21" cy="27.1328" fill="#A9DCDF" rx="11" ry="11" style="stroke: #A80036; stroke-width: 1.0;"/><path d="M21.1133,22.731 L19.9595,27.8027 L22.2754,27.8027 Z M19.6191,20.4897 L22.6157,20.4897 L25.9609,32.8828 L23.5122,32.8828 L22.7485,29.8198 L19.4697,29.8198 L18.7227,32.8828 L16.2739,32.8828 Z "/><text fill="#000000" font-family="sans-serif" font-size="14" font-style="italic" lengthAdjust="spacingAndGlyphs" textLength="206" x="35" y="26.5352">FHIRPathAbstractNode.Builder</text><text fill="#000000" font-family="sans-serif" font-size="10" font-style="italic" lengthAdjust="spacingAndGlyphs" textLength="86" x="95" y="39.1563">com.ibm.fhir.path</text><line style="stroke: #A80036; stroke-width: 1.5;" x1="7" x2="243" y1="46.2656" y2="46.2656"/><ellipse cx="17" cy="57.2656" fill="#84BE84" rx="3" ry="3" style="stroke: #038048; stroke-width: 1.0;"/><text fill="#000000" font-family="sans-serif" font-size="11" font-style="italic" lengthAdjust="spacingAndGlyphs" textLength="116" x="26" y="60.9004">build(): FHIRPathNode</text></a><!--MD5=[274617bdb388509d422eeb604e79435b]
class com.ibm.fhir.path.FHIRPathResourceNode--><a href="FHIRPathResourceNode.html" target="_top" title="FHIRPathResourceNode.html" xlink:actuate="onRequest" xlink:href="FHIRPathResourceNode.html" xlink:show="new" xlink:title="FHIRPathResourceNode.html" xlink:type="simple"><rect fill="#FEFECE" filter="url(#fn7uxrfi25lpy)" height="38.2656" id="com.ibm.fhir.path.FHIRPathResourceNode" style="stroke: #A80036; stroke-width: 1.5;" width="192" x="279" y="18.5"/><ellipse cx="294" cy="37.6328" fill="#ADD1B2" rx="11" ry="11" style="stroke: #A80036; stroke-width: 1.0;"/><path d="M296.4731,43.7759 Q295.8921,44.0747 295.2529,44.2241 Q294.6138,44.3735 293.9082,44.3735 Q291.4014,44.3735 290.0815,42.7217 Q288.7617,41.0698 288.7617,37.9487 Q288.7617,34.8193 290.0815,33.1675 Q291.4014,31.5156 293.9082,31.5156 Q294.6138,31.5156 295.2612,31.665 Q295.9087,31.8145 296.4731,32.1133 L296.4731,34.8359 Q295.8423,34.2549 295.2488,33.9851 Q294.6553,33.7153 294.0244,33.7153 Q292.6797,33.7153 291.9949,34.782 Q291.3101,35.8486 291.3101,37.9487 Q291.3101,40.0405 291.9949,41.1072 Q292.6797,42.1738 294.0244,42.1738 Q294.6553,42.1738 295.2488,41.9041 Q295.8423,41.6343 296.4731,41.0532 Z "/><text fill="#000000" font-family="sans-serif" font-size="14" lengthAdjust="spacingAndGlyphs" textLength="160" x="308" y="37.0352">FHIRPathResourceNode</text><text fill="#000000" font-family="sans-serif" font-size="10" lengthAdjust="spacingAndGlyphs" textLength="86" x="345" y="49.6563">com.ibm.fhir.path</text></a><!--MD5=[f8ef03b23b4a95e03ba26835e8df6137]
reverse link com.ibm.fhir.path.FHIRPathAbstractNode.Builder to com.ibm.fhir.path.FHIRPathResourceNode.Builder--><path d="M162.1375,82.5107 C173.6297,96.4392 186.4997,112.0376 198.7703,126.9096 " fill="none" id="com.ibm.fhir.path.FHIRPathAbstractNode.Builder&lt;-com.ibm.fhir.path.FHIRPathResourceNode.Builder" style="stroke: #A80036; stroke-width: 1.0;"/><polygon fill="none" points="156.727,86.9522,149.398,67.0704,167.5259,78.0423,156.727,86.9522" style="stroke: #A80036; stroke-width: 1.0;"/><!--MD5=[e052c2fc67cfaf6c97ce79a4b5c78aed]
reverse link com.ibm.fhir.path.FHIRPathResourceNode to com.ibm.fhir.path.FHIRPathResourceNode.Builder--><path d="M349.3866,68.5434 C335.5296,85.3382 317.9054,106.6987 301.358,126.7541 " fill="none" id="com.ibm.fhir.path.FHIRPathResourceNode&lt;-com.ibm.fhir.path.FHIRPathResourceNode.Builder" style="stroke: #A80036; stroke-width: 1.0;"/><ellipse cx="354.0773" cy="62.8583" fill="#FFFFFF" rx="8" ry="8" style="stroke: #A80036; stroke-width: 1.0;"/><line style="stroke: #A80036; stroke-width: 1.0;" x1="348.9859" x2="359.1687" y1="69.029" y2="56.6876"/><line style="stroke: #A80036; stroke-width: 1.0;" x1="347.9066" x2="360.248" y1="57.7669" y2="67.9497"/><text fill="#888888" font-family="sans-serif" font-size="10" lengthAdjust="spacingAndGlyphs" textLength="182" x="153.5" y="270.668">UMLDoclet 2.0.7, PlantUML 1.2019.12</text><!--MD5=[ecb792ca699fb6da680451becc2cdb45]
@startuml
    set namespaceSeparator none
    hide empty fields
    hide empty methods

    class "<size:14>FHIRPathResourceNode.Builder\n<size:10>com.ibm.fhir.path" as com.ibm.fhir.path.FHIRPathResourceNode.Builder [[FHIRPathResourceNode.Builder.html]] {
        #Builder(FHIRPathType, Resource)
        +name(String): Builder
        +path(String): Builder
        +children(FHIRPathNode...): Builder
        +children(Collection<FHIRPathNode>): Builder
        +build(): FHIRPathResourceNode
    }

    abstract class "<size:14>FHIRPathAbstractNode.Builder\n<size:10>com.ibm.fhir.path" as com.ibm.fhir.path.FHIRPathAbstractNode.Builder [[FHIRPathAbstractNode.Builder.html]] {
        {abstract} +build(): FHIRPathNode
    }
    class "<size:14>FHIRPathResourceNode\n<size:10>com.ibm.fhir.path" as com.ibm.fhir.path.FHIRPathResourceNode [[FHIRPathResourceNode.html]]

    com.ibm.fhir.path.FHIRPathAbstractNode.Builder <|- - com.ibm.fhir.path.FHIRPathResourceNode.Builder
    com.ibm.fhir.path.FHIRPathResourceNode +- - com.ibm.fhir.path.FHIRPathResourceNode.Builder

    center footer UMLDoclet 2.0.7, PlantUML 1.2019.12
@enduml

PlantUML version 1.2019.12(Sun Nov 03 05:24:54 EST 2019)
(APACHE source distribution)
Java Runtime: OpenJDK Runtime Environment
JVM: OpenJDK 64-Bit Server VM
Java Version: 11.0.4+11
Operating System: Mac OS X
Default Encoding: UTF-8
Language: en
Country: US
--></g></svg>