<?xml version="1.0" encoding="UTF-8" standalone="no"?><svg xmlns="http://www.w3.org/2000/svg" xmlns:xlink="http://www.w3.org/1999/xlink" contentScriptType="application/ecmascript" contentStyleType="text/css" height="224px" preserveAspectRatio="none" style="width:425px;height:224px;" version="1.1" viewBox="0 0 425 224" width="425px" zoomAndPan="magnify"><defs><filter height="300%" id="f9cyuefzcshww" width="300%" x="-1" y="-1"><feGaussianBlur result="blurOut" stdDeviation="2.0"/><feColorMatrix in="blurOut" result="blurOut2" type="matrix" values="0 0 0 0 0 0 0 0 0 0 0 0 0 0 0 0 0 0 .4 0"/><feOffset dx="4.0" dy="4.0" in="blurOut2" result="blurOut3"/><feBlend in="SourceGraphic" in2="blurOut3" mode="normal"/></filter></defs><g><!--MD5=[7b847baf3c4d7dd9e7d14027a3b84357]
class com.ibm.fhir.path.FHIRPathParser.QuantityLiteralContext--><a href="FHIRPathParser.QuantityLiteralContext.html" target="_top" title="FHIRPathParser.QuantityLiteralContext.html" xlink:actuate="onRequest" xlink:href="FHIRPathParser.QuantityLiteralContext.html" xlink:show="new" xlink:title="FHIRPathParser.QuantityLiteralContext.html" xlink:type="simple"><rect fill="#FEFECE" filter="url(#f9cyuefzcshww)" height="85.1309" id="com.ibm.fhir.path.FHIRPathParser.QuantityLiteralContext" style="stroke: #A80036; stroke-width: 1.5;" width="295" x="88" y="106"/><ellipse cx="103" cy="125.1328" fill="#ADD1B2" rx="11" ry="11" style="stroke: #A80036; stroke-width: 1.0;"/><path d="M105.4731,131.2759 Q104.8921,131.5747 104.2529,131.7241 Q103.6138,131.8735 102.9082,131.8735 Q100.4014,131.8735 99.0815,130.2217 Q97.7617,128.5698 97.7617,125.4487 Q97.7617,122.3193 99.0815,120.6675 Q100.4014,119.0156 102.9082,119.0156 Q103.6138,119.0156 104.2612,119.165 Q104.9087,119.3145 105.4731,119.6133 L105.4731,122.3359 Q104.8423,121.7549 104.2488,121.4851 Q103.6553,121.2153 103.0244,121.2153 Q101.6797,121.2153 100.9949,122.282 Q100.3101,123.3486 100.3101,125.4487 Q100.3101,127.5405 100.9949,128.6072 Q101.6797,129.6738 103.0244,129.6738 Q103.6553,129.6738 104.2488,129.4041 Q104.8423,129.1343 105.4731,128.5532 Z "/><text fill="#000000" font-family="sans-serif" font-size="14" lengthAdjust="spacingAndGlyphs" textLength="263" x="117" y="124.5352">FHIRPathParser.QuantityLiteralContext</text><text fill="#000000" font-family="sans-serif" font-size="10" lengthAdjust="spacingAndGlyphs" textLength="86" x="205.5" y="137.1563">com.ibm.fhir.path</text><line style="stroke: #A80036; stroke-width: 1.5;" x1="89" x2="382" y1="144.2656" y2="144.2656"/><ellipse cx="99" cy="155.2656" fill="#84BE84" rx="3" ry="3" style="stroke: #038048; stroke-width: 1.0;"/><text fill="#000000" font-family="sans-serif" font-size="11" lengthAdjust="spacingAndGlyphs" textLength="206" x="108" y="158.9004">QuantityLiteralContext(LiteralContext)</text><ellipse cx="99" cy="168.2207" fill="#84BE84" rx="3" ry="3" style="stroke: #038048; stroke-width: 1.0;"/><text fill="#000000" font-family="sans-serif" font-size="11" lengthAdjust="spacingAndGlyphs" textLength="147" x="108" y="171.8555">quantity(): QuantityContext</text><ellipse cx="99" cy="181.1758" fill="#84BE84" rx="3" ry="3" style="stroke: #038048; stroke-width: 1.0;"/><text fill="#000000" font-family="sans-serif" font-size="11" lengthAdjust="spacingAndGlyphs" textLength="223" x="108" y="184.8105">accept(ParseTreeVisitor&lt;? extends T&gt;): T</text></a><!--MD5=[4769eeaab0e7e84078a264ddd2ddd7eb]
class com.ibm.fhir.path.FHIRPathParser.LiteralContext--><a href="FHIRPathParser.LiteralContext.html" target="_top" title="FHIRPathParser.LiteralContext.html" xlink:actuate="onRequest" xlink:href="FHIRPathParser.LiteralContext.html" xlink:show="new" xlink:title="FHIRPathParser.LiteralContext.html" xlink:type="simple"><rect fill="#FEFECE" filter="url(#f9cyuefzcshww)" height="38.2656" id="com.ibm.fhir.path.FHIRPathParser.LiteralContext" style="stroke: #A80036; stroke-width: 1.5;" width="237" x="6" y="8"/><ellipse cx="21" cy="27.1328" fill="#ADD1B2" rx="11" ry="11" style="stroke: #A80036; stroke-width: 1.0;"/><path d="M23.4731,33.2759 Q22.8921,33.5747 22.2529,33.7241 Q21.6138,33.8735 20.9082,33.8735 Q18.4014,33.8735 17.0815,32.2217 Q15.7617,30.5698 15.7617,27.4487 Q15.7617,24.3193 17.0815,22.6675 Q18.4014,21.0156 20.9082,21.0156 Q21.6138,21.0156 22.2612,21.165 Q22.9087,21.3145 23.4731,21.6133 L23.4731,24.3359 Q22.8423,23.7549 22.2488,23.4851 Q21.6553,23.2153 21.0244,23.2153 Q19.6797,23.2153 18.9949,24.282 Q18.3101,25.3486 18.3101,27.4487 Q18.3101,29.5405 18.9949,30.6072 Q19.6797,31.6738 21.0244,31.6738 Q21.6553,31.6738 22.2488,31.4041 Q22.8423,31.1343 23.4731,30.5532 Z "/><text fill="#000000" font-family="sans-serif" font-size="14" lengthAdjust="spacingAndGlyphs" textLength="205" x="35" y="26.5352">FHIRPathParser.LiteralContext</text><text fill="#000000" font-family="sans-serif" font-size="10" lengthAdjust="spacingAndGlyphs" textLength="86" x="94.5" y="39.1563">com.ibm.fhir.path</text></a><!--MD5=[b9294f2936f728eaedac36f9380149a1]
class com.ibm.fhir.path.FHIRPathParser--><a href="FHIRPathParser.html" target="_top" title="FHIRPathParser.html" xlink:actuate="onRequest" xlink:href="FHIRPathParser.html" xlink:show="new" xlink:title="FHIRPathParser.html" xlink:type="simple"><rect fill="#FEFECE" filter="url(#f9cyuefzcshww)" height="38.2656" id="com.ibm.fhir.path.FHIRPathParser" style="stroke: #A80036; stroke-width: 1.5;" width="136" x="278.5" y="8"/><ellipse cx="293.5" cy="27.1328" fill="#ADD1B2" rx="11" ry="11" style="stroke: #A80036; stroke-width: 1.0;"/><path d="M295.9731,33.2759 Q295.3921,33.5747 294.7529,33.7241 Q294.1138,33.8735 293.4082,33.8735 Q290.9014,33.8735 289.5815,32.2217 Q288.2617,30.5698 288.2617,27.4487 Q288.2617,24.3193 289.5815,22.6675 Q290.9014,21.0156 293.4082,21.0156 Q294.1138,21.0156 294.7612,21.165 Q295.4087,21.3145 295.9731,21.6133 L295.9731,24.3359 Q295.3423,23.7549 294.7488,23.4851 Q294.1553,23.2153 293.5244,23.2153 Q292.1797,23.2153 291.4949,24.282 Q290.8101,25.3486 290.8101,27.4487 Q290.8101,29.5405 291.4949,30.6072 Q292.1797,31.6738 293.5244,31.6738 Q294.1553,31.6738 294.7488,31.4041 Q295.3423,31.1343 295.9731,30.5532 Z "/><text fill="#000000" font-family="sans-serif" font-size="14" lengthAdjust="spacingAndGlyphs" textLength="104" x="307.5" y="26.5352">FHIRPathParser</text><text fill="#000000" font-family="sans-serif" font-size="10" lengthAdjust="spacingAndGlyphs" textLength="86" x="316.5" y="39.1563">com.ibm.fhir.path</text></a><!--MD5=[3b7c5525489400e395f409ee50dfe964]
reverse link com.ibm.fhir.path.FHIRPathParser.LiteralContext to com.ibm.fhir.path.FHIRPathParser.QuantityLiteralContext--><path d="M155.7987,61.2594 C168.4771,75.1371 183.2507,91.3082 196.61,105.9312 " fill="none" id="com.ibm.fhir.path.FHIRPathParser.LiteralContext&lt;-com.ibm.fhir.path.FHIRPathParser.QuantityLiteralContext" style="stroke: #A80036; stroke-width: 1.0;"/><polygon fill="none" points="150.41,65.7392,142.0883,46.252,160.746,56.2964,150.41,65.7392" style="stroke: #A80036; stroke-width: 1.0;"/><!--MD5=[6c565be6fc6f65b91ed4f619099047b9]
reverse link com.ibm.fhir.path.FHIRPathParser to com.ibm.fhir.path.FHIRPathParser.QuantityLiteralContext--><path d="M318.4588,57.6937 C305.103,72.313 288.911,90.0366 274.39,105.9312 " fill="none" id="com.ibm.fhir.path.FHIRPathParser&lt;-com.ibm.fhir.path.FHIRPathParser.QuantityLiteralContext" style="stroke: #A80036; stroke-width: 1.0;"/><ellipse cx="323.5158" cy="52.1583" fill="#FFFFFF" rx="8" ry="8" style="stroke: #A80036; stroke-width: 1.0;"/><line style="stroke: #A80036; stroke-width: 1.0;" x1="318.1199" x2="328.9117" y1="58.0646" y2="46.252"/><line style="stroke: #A80036; stroke-width: 1.0;" x1="317.6095" x2="329.4221" y1="46.7624" y2="57.5542"/><text fill="#888888" font-family="sans-serif" font-size="10" lengthAdjust="spacingAndGlyphs" textLength="182" x="125.5" y="210.668">UMLDoclet 2.0.7, PlantUML 1.2019.12</text><!--MD5=[358ff1b1ccacb20a9ee55b23147e9590]
@startuml
    set namespaceSeparator none
    hide empty fields
    hide empty methods

    class "<size:14>FHIRPathParser.QuantityLiteralContext\n<size:10>com.ibm.fhir.path" as com.ibm.fhir.path.FHIRPathParser.QuantityLiteralContext [[FHIRPathParser.QuantityLiteralContext.html]] {
        +QuantityLiteralContext(LiteralContext)
        +quantity(): QuantityContext
        +accept(ParseTreeVisitor<? extends T>): T
    }

    class "<size:14>FHIRPathParser.LiteralContext\n<size:10>com.ibm.fhir.path" as com.ibm.fhir.path.FHIRPathParser.LiteralContext [[FHIRPathParser.LiteralContext.html]]
    class "<size:14>FHIRPathParser\n<size:10>com.ibm.fhir.path" as com.ibm.fhir.path.FHIRPathParser [[FHIRPathParser.html]]

    com.ibm.fhir.path.FHIRPathParser.LiteralContext <|- - com.ibm.fhir.path.FHIRPathParser.QuantityLiteralContext
    com.ibm.fhir.path.FHIRPathParser +- - com.ibm.fhir.path.FHIRPathParser.QuantityLiteralContext

    center footer UMLDoclet 2.0.7, PlantUML 1.2019.12
@enduml

PlantUML version 1.2019.12(Sun Nov 03 05:24:54 EST 2019)
(APACHE source distribution)
Java Runtime: OpenJDK Runtime Environment
JVM: OpenJDK 64-Bit Server VM
Java Version: 11.0.4+11
Operating System: Mac OS X
Default Encoding: UTF-8
Language: en
Country: US
--></g></svg>