<?xml version="1.0" encoding="UTF-8" standalone="no"?><svg xmlns="http://www.w3.org/2000/svg" xmlns:xlink="http://www.w3.org/1999/xlink" contentScriptType="application/ecmascript" contentStyleType="text/css" height="222px" preserveAspectRatio="none" style="width:240px;height:222px;" version="1.1" viewBox="0 0 240 222" width="240px" zoomAndPan="magnify"><defs><filter height="300%" id="f1jquv4xl2vzhl" width="300%" x="-1" y="-1"><feGaussianBlur result="blurOut" stdDeviation="2.0"/><feColorMatrix in="blurOut" result="blurOut2" type="matrix" values="0 0 0 0 0 0 0 0 0 0 0 0 0 0 0 0 0 0 .4 0"/><feOffset dx="4.0" dy="4.0" in="blurOut2" result="blurOut3"/><feBlend in="SourceGraphic" in2="blurOut3" mode="normal"/></filter></defs><g><!--MD5=[18c6120b2c59bbb6727d766eb4a54f03]
class com.ibm.fhir.operation.context.FHIROperationContext.Type--><a href="FHIROperationContext.Type.html" target="_top" title="FHIROperationContext.Type.html" xlink:actuate="onRequest" xlink:href="FHIROperationContext.Type.html" xlink:show="new" xlink:title="FHIROperationContext.Type.html" xlink:type="simple"><rect fill="#FEFECE" filter="url(#f1jquv4xl2vzhl)" height="84.3516" id="com.ibm.fhir.operation.context.FHIROperationContext.Type" style="stroke: #A80036; stroke-width: 1.5;" width="223" x="6" y="106"/><ellipse cx="21" cy="124.9688" fill="#EB937F" rx="11" ry="11" style="stroke: #A80036; stroke-width: 1.0;"/><path d="M25.1094,130.9688 L17.3906,130.9688 L17.3906,118.5781 L25.1094,118.5781 L25.1094,120.7344 L19.8438,120.7344 L19.8438,123.4063 L24.6094,123.4063 L24.6094,125.5625 L19.8438,125.5625 L19.8438,128.8125 L25.1094,128.8125 L25.1094,130.9688 Z "/><text fill="#000000" font-family="sans-serif" font-size="14" lengthAdjust="spacingAndGlyphs" textLength="191" x="35" y="123.9951">FHIROperationContext.Type</text><text fill="#000000" font-family="sans-serif" font-size="10" lengthAdjust="spacingAndGlyphs" textLength="150" x="55.5" y="136.5791">com.ibm.fhir.operation.context</text><line style="stroke: #A80036; stroke-width: 1.5;" x1="7" x2="228" y1="143.9375" y2="143.9375"/><ellipse cx="17" cy="154.9375" fill="none" rx="3" ry="3" style="stroke: #038048; stroke-width: 1.0;"/><text fill="#000000" font-family="sans-serif" font-size="11" lengthAdjust="spacingAndGlyphs" text-decoration="underline" textLength="46" x="26" y="158.1479">SYSTEM</text><ellipse cx="17" cy="167.7422" fill="none" rx="3" ry="3" style="stroke: #038048; stroke-width: 1.0;"/><text fill="#000000" font-family="sans-serif" font-size="11" lengthAdjust="spacingAndGlyphs" text-decoration="underline" textLength="95" x="26" y="170.9526">RESOURCE_TYPE</text><ellipse cx="17" cy="180.5469" fill="none" rx="3" ry="3" style="stroke: #038048; stroke-width: 1.0;"/><text fill="#000000" font-family="sans-serif" font-size="11" lengthAdjust="spacingAndGlyphs" text-decoration="underline" textLength="56" x="26" y="183.7573">INSTANCE</text></a><!--MD5=[425ac8197cbc46332925a89ce0eed3ac]
class com.ibm.fhir.operation.context.FHIROperationContext--><a href="FHIROperationContext.html" target="_top" title="FHIROperationContext.html" xlink:actuate="onRequest" xlink:href="FHIROperationContext.html" xlink:show="new" xlink:title="FHIROperationContext.html" xlink:type="simple"><rect fill="#FEFECE" filter="url(#f1jquv4xl2vzhl)" height="37.9375" id="com.ibm.fhir.operation.context.FHIROperationContext" style="stroke: #A80036; stroke-width: 1.5;" width="185" x="25" y="8"/><ellipse cx="40" cy="26.9688" fill="#ADD1B2" rx="11" ry="11" style="stroke: #A80036; stroke-width: 1.0;"/><path d="M42.9688,32.6094 Q42.3906,32.9063 41.75,33.0469 Q41.1094,33.2031 40.4063,33.2031 Q37.9063,33.2031 36.5781,31.5625 Q35.2656,29.9063 35.2656,26.7813 Q35.2656,23.6563 36.5781,22 Q37.9063,20.3438 40.4063,20.3438 Q41.1094,20.3438 41.75,20.5 Q42.4063,20.6563 42.9688,20.9531 L42.9688,23.6719 Q42.3438,23.0938 41.75,22.8281 Q41.1563,22.5469 40.5313,22.5469 Q39.1875,22.5469 38.5,23.625 Q37.8125,24.6875 37.8125,26.7813 Q37.8125,28.875 38.5,29.9531 Q39.1875,31.0156 40.5313,31.0156 Q41.1563,31.0156 41.75,30.75 Q42.3438,30.4688 42.9688,29.8906 L42.9688,32.6094 Z "/><text fill="#000000" font-family="sans-serif" font-size="14" lengthAdjust="spacingAndGlyphs" textLength="153" x="54" y="25.9951">FHIROperationContext</text><text fill="#000000" font-family="sans-serif" font-size="10" lengthAdjust="spacingAndGlyphs" textLength="150" x="55.5" y="38.5791">com.ibm.fhir.operation.context</text></a><!--MD5=[3ef0260adec373af3ecb6dbf4370db34]
reverse link com.ibm.fhir.operation.context.FHIROperationContext to com.ibm.fhir.operation.context.FHIROperationContext.Type--><path d="M117.5,61.1864 C117.5,75.0722 117.5,91.2549 117.5,105.8605 " fill="none" id="com.ibm.fhir.operation.context.FHIROperationContext&lt;-com.ibm.fhir.operation.context.FHIROperationContext.Type" style="stroke: #A80036; stroke-width: 1.0;"/><ellipse cx="117.5" cy="54.1728" fill="#FFFFFF" rx="8" ry="8" style="stroke: #A80036; stroke-width: 1.0;"/><line style="stroke: #A80036; stroke-width: 1.0;" x1="117.5" x2="117.5" y1="62.1728" y2="46.1728"/><line style="stroke: #A80036; stroke-width: 1.0;" x1="109.5" x2="125.5" y1="54.1728" y2="54.1728"/><text fill="#888888" font-family="sans-serif" font-size="10" lengthAdjust="spacingAndGlyphs" textLength="186" x="30.5" y="209.2822">UMLDoclet 2.0.7, PlantUML 1.2019.12</text><!--MD5=[c85ad9638b413efeae28c5dc45cef2f4]
@startuml
    set namespaceSeparator none
    hide empty fields
    hide empty methods

    enum "<size:14>FHIROperationContext.Type\n<size:10>com.ibm.fhir.operation.context" as com.ibm.fhir.operation.context.FHIROperationContext.Type [[FHIROperationContext.Type.html]] {
        {static} +SYSTEM
        {static} +RESOURCE_TYPE
        {static} +INSTANCE
    }

    class "<size:14>FHIROperationContext\n<size:10>com.ibm.fhir.operation.context" as com.ibm.fhir.operation.context.FHIROperationContext [[FHIROperationContext.html]]

    com.ibm.fhir.operation.context.FHIROperationContext +- - com.ibm.fhir.operation.context.FHIROperationContext.Type

    center footer UMLDoclet 2.0.7, PlantUML 1.2019.12
@enduml

PlantUML version 1.2019.12(Sun Nov 03 10:24:54 UTC 2019)
(APACHE source distribution)
Java Runtime: OpenJDK Runtime Environment
JVM: OpenJDK 64-Bit Server VM
Java Version: 11.0.7+10
Operating System: Linux
Default Encoding: UTF-8
Language: en
Country: null
--></g></svg>