<?xml version="1.0" encoding="UTF-8" standalone="no"?><svg xmlns="http://www.w3.org/2000/svg" xmlns:xlink="http://www.w3.org/1999/xlink" contentScriptType="application/ecmascript" contentStyleType="text/css" height="232px" preserveAspectRatio="none" style="width:293px;height:232px;" version="1.1" viewBox="0 0 293 232" width="293px" zoomAndPan="magnify"><defs><filter height="300%" id="fr7y4z363mipq" width="300%" x="-1" y="-1"><feGaussianBlur result="blurOut" stdDeviation="2.0"/><feColorMatrix in="blurOut" result="blurOut2" type="matrix" values="0 0 0 0 0 0 0 0 0 0 0 0 0 0 0 0 0 0 .4 0"/><feOffset dx="4.0" dy="4.0" in="blurOut2" result="blurOut3"/><feBlend in="SourceGraphic" in2="blurOut3" mode="normal"/></filter></defs><g><!--class com.ibm.fhir.database.utils.tenant.FindTenantIdDAO--><a href="FindTenantIdDAO.html" target="_top" xlink:actuate="onRequest" xlink:show="new" xlink:title="FindTenantIdDAO.html" xlink:type="simple"><rect fill="#FEFECE" filter="url(#fr7y4z363mipq)" height="72.1758" id="com.ibm.fhir.database.utils.tenant.FindTenantIdDAO" style="stroke: #A80036; stroke-width: 1.5;" width="273" x="6" y="127"/><ellipse cx="54.25" cy="146.1328" fill="#ADD1B2" rx="11" ry="11" style="stroke: #A80036; stroke-width: 1.0;"/><path d="M56.7231,152.2759 Q56.1421,152.5747 55.5029,152.7241 Q54.8638,152.8735 54.1582,152.8735 Q51.6514,152.8735 50.3315,151.2217 Q49.0117,149.5698 49.0117,146.4487 Q49.0117,143.3193 50.3315,141.6675 Q51.6514,140.0156 54.1582,140.0156 Q54.8638,140.0156 55.5112,140.165 Q56.1587,140.3145 56.7231,140.6133 L56.7231,143.3359 Q56.0923,142.7549 55.4988,142.4851 Q54.9053,142.2153 54.2744,142.2153 Q52.9297,142.2153 52.2449,143.282 Q51.5601,144.3486 51.5601,146.4487 Q51.5601,148.5405 52.2449,149.6072 Q52.9297,150.6738 54.2744,150.6738 Q54.9053,150.6738 55.4988,150.4041 Q56.0923,150.1343 56.7231,149.5532 Z "/><text fill="#000000" font-family="sans-serif" font-size="14" lengthAdjust="spacingAndGlyphs" textLength="122" x="97.75" y="145.5352">FindTenantIdDAO</text><text fill="#000000" font-family="sans-serif" font-size="10" lengthAdjust="spacingAndGlyphs" textLength="168" x="74.75" y="158.1563">com.ibm.fhir.database.utils.tenant</text><line style="stroke: #A80036; stroke-width: 1.5;" x1="7" x2="278" y1="165.2656" y2="165.2656"/><ellipse cx="17" cy="177.2432" fill="#84BE84" rx="3" ry="3" style="stroke: #038048; stroke-width: 1.0;"/><text fill="#000000" font-family="sans-serif" font-size="11" lengthAdjust="spacingAndGlyphs" textLength="173" x="26" y="179.9004">FindTenantIdDAO(String, String)</text><ellipse cx="17" cy="190.1982" fill="#84BE84" rx="3" ry="3" style="stroke: #038048; stroke-width: 1.0;"/><text fill="#000000" font-family="sans-serif" font-size="11" lengthAdjust="spacingAndGlyphs" textLength="247" x="26" y="192.8555">run(IDatabaseTranslator, Connection): Integer</text></a><!--class com.ibm.fhir.database.utils.api.IDatabaseSupplier--><a href="../api/IDatabaseSupplier.html" target="_top" xlink:actuate="onRequest" xlink:show="new" xlink:title="../api/IDatabaseSupplier.html" xlink:type="simple"><rect fill="#FEFECE" filter="url(#fr7y4z363mipq)" height="59.2207" id="com.ibm.fhir.database.utils.api.IDatabaseSupplier" style="stroke: #A80036; stroke-width: 1.5;" width="273" x="6" y="8"/><ellipse cx="41.7" cy="27.1328" fill="#B4A7E5" rx="11" ry="11" style="stroke: #A80036; stroke-width: 1.0;"/><path d="M38.1277,23.3979 L38.1277,21.2397 L45.5071,21.2397 L45.5071,23.3979 L43.0418,23.3979 L43.0418,31.4746 L45.5071,31.4746 L45.5071,33.6328 L38.1277,33.6328 L38.1277,31.4746 L40.5931,31.4746 L40.5931,23.3979 Z "/><text fill="#000000" font-family="sans-serif" font-size="14" font-style="italic" lengthAdjust="spacingAndGlyphs" textLength="124" x="73.8" y="26.5352">IDatabaseSupplier</text><text fill="#000000" font-family="sans-serif" font-size="10" font-style="italic" lengthAdjust="spacingAndGlyphs" textLength="151" x="60.3" y="39.1563">com.ibm.fhir.database.utils.api</text><rect fill="#FFFFFF" height="16.1328" style="stroke: #000000; stroke-width: 1.0; stroke-dasharray: 2.0,2.0;" width="42" x="240" y="5"/><text fill="#000000" font-family="sans-serif" font-size="12" font-style="italic" lengthAdjust="spacingAndGlyphs" textLength="40" x="241" y="17.6016">Integer</text><line style="stroke: #A80036; stroke-width: 1.5;" x1="7" x2="278" y1="46.2656" y2="46.2656"/><ellipse cx="17" cy="58.2432" fill="#84BE84" rx="3" ry="3" style="stroke: #038048; stroke-width: 1.0;"/><text fill="#000000" font-family="sans-serif" font-size="11" font-style="italic" lengthAdjust="spacingAndGlyphs" textLength="247" x="26" y="60.9004">run(IDatabaseTranslator, Connection): Integer</text></a><!--link com.ibm.fhir.database.utils.api.IDatabaseSupplier to com.ibm.fhir.database.utils.tenant.FindTenantIdDAO--><path d="M142.5,87.5049 C142.5,100.6211 142.5,114.5128 142.5,126.7555 " fill="none" id="com.ibm.fhir.database.utils.api.IDatabaseSupplier-com.ibm.fhir.database.utils.tenant.FindTenantIdDAO" style="stroke: #A80036; stroke-width: 1.0; stroke-dasharray: 7.0,7.0;"/><polygon fill="none" points="135.5001,87.2418,142.5,67.2417,149.5001,87.2417,135.5001,87.2418" style="stroke: #A80036; stroke-width: 1.0;"/><text fill="#888888" font-family="sans-serif" font-size="10" lengthAdjust="spacingAndGlyphs" textLength="182" x="57.5" y="218.668">UMLDoclet 2.0.5, PlantUML 1.2019.08</text><!--
@startuml
    set namespaceSeparator none
    hide empty fields
    hide empty methods

    class "<size:14>FindTenantIdDAO\n<size:10>com.ibm.fhir.database.utils.tenant" as com.ibm.fhir.database.utils.tenant.FindTenantIdDAO [[FindTenantIdDAO.html]] {
        +FindTenantIdDAO(String, String)
        +run(IDatabaseTranslator, Connection): Integer
    }

    interface "<size:14>IDatabaseSupplier\n<size:10>com.ibm.fhir.database.utils.api" as com.ibm.fhir.database.utils.api.IDatabaseSupplier<Integer> [[../api/IDatabaseSupplier.html]] {
        {abstract} +run(IDatabaseTranslator, Connection): Integer
    }

    com.ibm.fhir.database.utils.api.IDatabaseSupplier <|.. com.ibm.fhir.database.utils.tenant.FindTenantIdDAO

    center footer UMLDoclet 2.0.5, PlantUML 1.2019.08
@enduml

PlantUML version 1.2019.08(Sat Jul 13 15:25:14 EDT 2019)
(APACHE source distribution)
Java Runtime: OpenJDK Runtime Environment
JVM: OpenJDK 64-Bit Server VM
Java Version: 11.0.4+11
Operating System: Mac OS X
OS Version: 10.14.6
Default Encoding: UTF-8
Language: en
Country: US
--></g></svg>