<?xml version="1.0" encoding="UTF-8" standalone="no"?><svg xmlns="http://www.w3.org/2000/svg" xmlns:xlink="http://www.w3.org/1999/xlink" contentScriptType="application/ecmascript" contentStyleType="text/css" height="287px" preserveAspectRatio="none" style="width:1902px;height:287px;" version="1.1" viewBox="0 0 1902 287" width="1902px" zoomAndPan="magnify"><defs><filter height="300%" id="f1jl2mt0lo0ass" width="300%" x="-1" y="-1"><feGaussianBlur result="blurOut" stdDeviation="2.0"/><feColorMatrix in="blurOut" result="blurOut2" type="matrix" values="0 0 0 0 0 0 0 0 0 0 0 0 0 0 0 0 0 0 .4 0"/><feOffset dx="4.0" dy="4.0" in="blurOut2" result="blurOut3"/><feBlend in="SourceGraphic" in2="blurOut3" mode="normal"/></filter></defs><g><!--cluster com.ibm.fhir.database.utils.tenant--><polygon fill="#FFFFFF" filter="url(#f1jl2mt0lo0ass)" points="14,137,262,137,269,159.4883,1880,159.4883,1880,246,14,246,14,137" style="stroke: #000000; stroke-width: 1.5;"/><line style="stroke: #000000; stroke-width: 1.5;" x1="14" x2="269" y1="159.4883" y2="159.4883"/><text fill="#000000" font-family="sans-serif" font-size="14" font-weight="bold" lengthAdjust="spacingAndGlyphs" textLength="242" x="18" y="152.5352">com.ibm.fhir.database.utils.tenant</text><!--cluster com.ibm.fhir.database.utils.api--><polygon fill="#FFFFFF" filter="url(#f1jl2mt0lo0ass)" points="679,16,903,16,910,38.4883,1230,38.4883,1230,112,679,112,679,16" style="stroke: #000000; stroke-width: 1.5;"/><line style="stroke: #000000; stroke-width: 1.5;" x1="679" x2="910" y1="38.4883" y2="38.4883"/><text fill="#000000" font-family="sans-serif" font-size="14" font-weight="bold" lengthAdjust="spacingAndGlyphs" textLength="218" x="683" y="31.5352">com.ibm.fhir.database.utils.api</text><!--class com.ibm.fhir.database.utils.tenant.GetTenantDAO--><a href="GetTenantDAO.html" target="_top" xlink:actuate="onRequest" xlink:show="new" xlink:title="GetTenantDAO.html" xlink:type="simple"><rect fill="#FEFECE" filter="url(#f1jl2mt0lo0ass)" height="73.9102" id="com.ibm.fhir.database.utils.tenant.GetTenantDAO" style="stroke: #A80036; stroke-width: 1.5;" width="272" x="1600" y="164"/><ellipse cx="1688.75" cy="180" fill="#ADD1B2" rx="11" ry="11" style="stroke: #A80036; stroke-width: 1.0;"/><path d="M1691.2231,186.1431 Q1690.6421,186.4419 1690.0029,186.5913 Q1689.3638,186.7407 1688.6582,186.7407 Q1686.1514,186.7407 1684.8315,185.0889 Q1683.5117,183.437 1683.5117,180.3159 Q1683.5117,177.1865 1684.8315,175.5347 Q1686.1514,173.8828 1688.6582,173.8828 Q1689.3638,173.8828 1690.0112,174.0322 Q1690.6587,174.1816 1691.2231,174.4805 L1691.2231,177.2031 Q1690.5923,176.6221 1689.9988,176.3523 Q1689.4053,176.0825 1688.7744,176.0825 Q1687.4297,176.0825 1686.7449,177.1492 Q1686.0601,178.2158 1686.0601,180.3159 Q1686.0601,182.4077 1686.7449,183.4744 Q1687.4297,184.541 1688.7744,184.541 Q1689.4053,184.541 1689.9988,184.2712 Q1690.5923,184.0015 1691.2231,183.4204 Z "/><text fill="#000000" font-family="sans-serif" font-size="12" lengthAdjust="spacingAndGlyphs" textLength="86" x="1709.25" y="184.5352">GetTenantDAO</text><line style="stroke: #A80036; stroke-width: 1.5;" x1="1601" x2="1871" y1="196" y2="196"/><line style="stroke: #A80036; stroke-width: 1.5;" x1="1601" x2="1871" y1="204" y2="204"/><ellipse cx="1611" cy="215.9775" fill="#84BE84" rx="3" ry="3" style="stroke: #038048; stroke-width: 1.0;"/><text fill="#000000" font-family="sans-serif" font-size="11" lengthAdjust="spacingAndGlyphs" textLength="158" x="1620" y="218.6348">GetTenantDAO(String, String)</text><ellipse cx="1611" cy="228.9326" fill="#84BE84" rx="3" ry="3" style="stroke: #038048; stroke-width: 1.0;"/><text fill="#000000" font-family="sans-serif" font-size="11" lengthAdjust="spacingAndGlyphs" textLength="246" x="1620" y="231.5898">run(IDatabaseTranslator, Connection): Tenant</text></a><!--class com.ibm.fhir.database.utils.tenant.MaxTenantIdDAO--><a href="MaxTenantIdDAO.html" target="_top" xlink:actuate="onRequest" xlink:show="new" xlink:title="MaxTenantIdDAO.html" xlink:type="simple"><rect fill="#FEFECE" filter="url(#f1jl2mt0lo0ass)" height="73.9102" id="com.ibm.fhir.database.utils.tenant.MaxTenantIdDAO" style="stroke: #A80036; stroke-width: 1.5;" width="273" x="1291.5" y="164"/><ellipse cx="1373.25" cy="180" fill="#ADD1B2" rx="11" ry="11" style="stroke: #A80036; stroke-width: 1.0;"/><path d="M1375.7231,186.1431 Q1375.1421,186.4419 1374.5029,186.5913 Q1373.8638,186.7407 1373.1582,186.7407 Q1370.6514,186.7407 1369.3315,185.0889 Q1368.0117,183.437 1368.0117,180.3159 Q1368.0117,177.1865 1369.3315,175.5347 Q1370.6514,173.8828 1373.1582,173.8828 Q1373.8638,173.8828 1374.5112,174.0322 Q1375.1587,174.1816 1375.7231,174.4805 L1375.7231,177.2031 Q1375.0923,176.6221 1374.4988,176.3523 Q1373.9053,176.0825 1373.2744,176.0825 Q1371.9297,176.0825 1371.2449,177.1492 Q1370.5601,178.2158 1370.5601,180.3159 Q1370.5601,182.4077 1371.2449,183.4744 Q1371.9297,184.541 1373.2744,184.541 Q1373.9053,184.541 1374.4988,184.2712 Q1375.0923,184.0015 1375.7231,183.4204 Z "/><text fill="#000000" font-family="sans-serif" font-size="12" lengthAdjust="spacingAndGlyphs" textLength="101" x="1393.75" y="184.5352">MaxTenantIdDAO</text><line style="stroke: #A80036; stroke-width: 1.5;" x1="1292.5" x2="1563.5" y1="196" y2="196"/><line style="stroke: #A80036; stroke-width: 1.5;" x1="1292.5" x2="1563.5" y1="204" y2="204"/><ellipse cx="1302.5" cy="215.9775" fill="#84BE84" rx="3" ry="3" style="stroke: #038048; stroke-width: 1.0;"/><text fill="#000000" font-family="sans-serif" font-size="11" lengthAdjust="spacingAndGlyphs" textLength="134" x="1311.5" y="218.6348">MaxTenantIdDAO(String)</text><ellipse cx="1302.5" cy="228.9326" fill="#84BE84" rx="3" ry="3" style="stroke: #038048; stroke-width: 1.0;"/><text fill="#000000" font-family="sans-serif" font-size="11" lengthAdjust="spacingAndGlyphs" textLength="247" x="1311.5" y="231.5898">run(IDatabaseTranslator, Connection): Integer</text></a><!--class com.ibm.fhir.database.utils.tenant.AddTenantDAO--><a href="AddTenantDAO.html" target="_top" xlink:actuate="onRequest" xlink:show="new" xlink:title="AddTenantDAO.html" xlink:type="simple"><rect fill="#FEFECE" filter="url(#f1jl2mt0lo0ass)" height="73.9102" id="com.ibm.fhir.database.utils.tenant.AddTenantDAO" style="stroke: #A80036; stroke-width: 1.5;" width="258" x="22" y="164"/><ellipse cx="101.75" cy="180" fill="#ADD1B2" rx="11" ry="11" style="stroke: #A80036; stroke-width: 1.0;"/><path d="M104.2231,186.1431 Q103.6421,186.4419 103.0029,186.5913 Q102.3638,186.7407 101.6582,186.7407 Q99.1514,186.7407 97.8315,185.0889 Q96.5117,183.437 96.5117,180.3159 Q96.5117,177.1865 97.8315,175.5347 Q99.1514,173.8828 101.6582,173.8828 Q102.3638,173.8828 103.0112,174.0322 Q103.6587,174.1816 104.2231,174.4805 L104.2231,177.2031 Q103.5923,176.6221 102.9988,176.3523 Q102.4053,176.0825 101.7744,176.0825 Q100.4297,176.0825 99.7449,177.1492 Q99.0601,178.2158 99.0601,180.3159 Q99.0601,182.4077 99.7449,183.4744 Q100.4297,184.541 101.7744,184.541 Q102.4053,184.541 102.9988,184.2712 Q103.5923,184.0015 104.2231,183.4204 Z "/><text fill="#000000" font-family="sans-serif" font-size="12" lengthAdjust="spacingAndGlyphs" textLength="90" x="122.25" y="184.5352">AddTenantDAO</text><line style="stroke: #A80036; stroke-width: 1.5;" x1="23" x2="279" y1="196" y2="196"/><line style="stroke: #A80036; stroke-width: 1.5;" x1="23" x2="279" y1="204" y2="204"/><ellipse cx="33" cy="215.9775" fill="#84BE84" rx="3" ry="3" style="stroke: #038048; stroke-width: 1.0;"/><text fill="#000000" font-family="sans-serif" font-size="11" lengthAdjust="spacingAndGlyphs" textLength="182" x="42" y="218.6348">AddTenantDAO(String, int, String)</text><ellipse cx="33" cy="228.9326" fill="#84BE84" rx="3" ry="3" style="stroke: #038048; stroke-width: 1.0;"/><text fill="#000000" font-family="sans-serif" font-size="11" lengthAdjust="spacingAndGlyphs" textLength="232" x="42" y="231.5898">run(IDatabaseTranslator, Connection): void</text></a><!--class com.ibm.fhir.database.utils.tenant.AddTenantKeyDAO--><a href="AddTenantKeyDAO.html" target="_top" xlink:actuate="onRequest" xlink:show="new" xlink:title="AddTenantKeyDAO.html" xlink:type="simple"><rect fill="#FEFECE" filter="url(#f1jl2mt0lo0ass)" height="73.9102" id="com.ibm.fhir.database.utils.tenant.AddTenantKeyDAO" style="stroke: #A80036; stroke-width: 1.5;" width="303" x="645.5" y="164"/><ellipse cx="737.25" cy="180" fill="#ADD1B2" rx="11" ry="11" style="stroke: #A80036; stroke-width: 1.0;"/><path d="M739.7231,186.1431 Q739.1421,186.4419 738.5029,186.5913 Q737.8638,186.7407 737.1582,186.7407 Q734.6514,186.7407 733.3315,185.0889 Q732.0117,183.437 732.0117,180.3159 Q732.0117,177.1865 733.3315,175.5347 Q734.6514,173.8828 737.1582,173.8828 Q737.8638,173.8828 738.5112,174.0322 Q739.1587,174.1816 739.7231,174.4805 L739.7231,177.2031 Q739.0923,176.6221 738.4988,176.3523 Q737.9053,176.0825 737.2744,176.0825 Q735.9297,176.0825 735.2449,177.1492 Q734.5601,178.2158 734.5601,180.3159 Q734.5601,182.4077 735.2449,183.4744 Q735.9297,184.541 737.2744,184.541 Q737.9053,184.541 738.4988,184.2712 Q739.0923,184.0015 739.7231,183.4204 Z "/><text fill="#000000" font-family="sans-serif" font-size="12" lengthAdjust="spacingAndGlyphs" textLength="111" x="757.75" y="184.5352">AddTenantKeyDAO</text><line style="stroke: #A80036; stroke-width: 1.5;" x1="646.5" x2="947.5" y1="196" y2="196"/><line style="stroke: #A80036; stroke-width: 1.5;" x1="646.5" x2="947.5" y1="204" y2="204"/><ellipse cx="656.5" cy="215.9775" fill="#84BE84" rx="3" ry="3" style="stroke: #038048; stroke-width: 1.0;"/><text fill="#000000" font-family="sans-serif" font-size="11" lengthAdjust="spacingAndGlyphs" textLength="277" x="665.5" y="218.6348">AddTenantKeyDAO(String, int, String, String, String)</text><ellipse cx="656.5" cy="228.9326" fill="#84BE84" rx="3" ry="3" style="stroke: #038048; stroke-width: 1.0;"/><text fill="#000000" font-family="sans-serif" font-size="11" lengthAdjust="spacingAndGlyphs" textLength="232" x="665.5" y="231.5898">run(IDatabaseTranslator, Connection): void</text></a><!--class com.ibm.fhir.database.utils.tenant.FindTenantIdDAO--><a href="FindTenantIdDAO.html" target="_top" xlink:actuate="onRequest" xlink:show="new" xlink:title="FindTenantIdDAO.html" xlink:type="simple"><rect fill="#FEFECE" filter="url(#f1jl2mt0lo0ass)" height="73.9102" id="com.ibm.fhir.database.utils.tenant.FindTenantIdDAO" style="stroke: #A80036; stroke-width: 1.5;" width="273" x="983.5" y="164"/><ellipse cx="1065.25" cy="180" fill="#ADD1B2" rx="11" ry="11" style="stroke: #A80036; stroke-width: 1.0;"/><path d="M1067.7231,186.1431 Q1067.1421,186.4419 1066.5029,186.5913 Q1065.8638,186.7407 1065.1582,186.7407 Q1062.6514,186.7407 1061.3315,185.0889 Q1060.0117,183.437 1060.0117,180.3159 Q1060.0117,177.1865 1061.3315,175.5347 Q1062.6514,173.8828 1065.1582,173.8828 Q1065.8638,173.8828 1066.5112,174.0322 Q1067.1587,174.1816 1067.7231,174.4805 L1067.7231,177.2031 Q1067.0923,176.6221 1066.4988,176.3523 Q1065.9053,176.0825 1065.2744,176.0825 Q1063.9297,176.0825 1063.2449,177.1492 Q1062.5601,178.2158 1062.5601,180.3159 Q1062.5601,182.4077 1063.2449,183.4744 Q1063.9297,184.541 1065.2744,184.541 Q1065.9053,184.541 1066.4988,184.2712 Q1067.0923,184.0015 1067.7231,183.4204 Z "/><text fill="#000000" font-family="sans-serif" font-size="12" lengthAdjust="spacingAndGlyphs" textLength="101" x="1085.75" y="184.5352">FindTenantIdDAO</text><line style="stroke: #A80036; stroke-width: 1.5;" x1="984.5" x2="1255.5" y1="196" y2="196"/><line style="stroke: #A80036; stroke-width: 1.5;" x1="984.5" x2="1255.5" y1="204" y2="204"/><ellipse cx="994.5" cy="215.9775" fill="#84BE84" rx="3" ry="3" style="stroke: #038048; stroke-width: 1.0;"/><text fill="#000000" font-family="sans-serif" font-size="11" lengthAdjust="spacingAndGlyphs" textLength="173" x="1003.5" y="218.6348">FindTenantIdDAO(String, String)</text><ellipse cx="994.5" cy="228.9326" fill="#84BE84" rx="3" ry="3" style="stroke: #038048; stroke-width: 1.0;"/><text fill="#000000" font-family="sans-serif" font-size="11" lengthAdjust="spacingAndGlyphs" textLength="247" x="1003.5" y="231.5898">run(IDatabaseTranslator, Connection): Integer</text></a><!--class com.ibm.fhir.database.utils.tenant.UpdateTenantStatusDAO--><a href="UpdateTenantStatusDAO.html" target="_top" xlink:actuate="onRequest" xlink:show="new" xlink:title="UpdateTenantStatusDAO.html" xlink:type="simple"><rect fill="#FEFECE" filter="url(#f1jl2mt0lo0ass)" height="73.9102" id="com.ibm.fhir.database.utils.tenant.UpdateTenantStatusDAO" style="stroke: #A80036; stroke-width: 1.5;" width="295" x="315.5" y="164"/><ellipse cx="387.75" cy="180" fill="#ADD1B2" rx="11" ry="11" style="stroke: #A80036; stroke-width: 1.0;"/><path d="M390.2231,186.1431 Q389.6421,186.4419 389.0029,186.5913 Q388.3638,186.7407 387.6582,186.7407 Q385.1514,186.7407 383.8315,185.0889 Q382.5117,183.437 382.5117,180.3159 Q382.5117,177.1865 383.8315,175.5347 Q385.1514,173.8828 387.6582,173.8828 Q388.3638,173.8828 389.0112,174.0322 Q389.6587,174.1816 390.2231,174.4805 L390.2231,177.2031 Q389.5923,176.6221 388.9988,176.3523 Q388.4053,176.0825 387.7744,176.0825 Q386.4297,176.0825 385.7449,177.1492 Q385.0601,178.2158 385.0601,180.3159 Q385.0601,182.4077 385.7449,183.4744 Q386.4297,184.541 387.7744,184.541 Q388.4053,184.541 388.9988,184.2712 Q389.5923,184.0015 390.2231,183.4204 Z "/><text fill="#000000" font-family="sans-serif" font-size="12" lengthAdjust="spacingAndGlyphs" textLength="142" x="408.25" y="184.5352">UpdateTenantStatusDAO</text><line style="stroke: #A80036; stroke-width: 1.5;" x1="316.5" x2="609.5" y1="196" y2="196"/><line style="stroke: #A80036; stroke-width: 1.5;" x1="316.5" x2="609.5" y1="204" y2="204"/><ellipse cx="326.5" cy="215.9775" fill="#84BE84" rx="3" ry="3" style="stroke: #038048; stroke-width: 1.0;"/><text fill="#000000" font-family="sans-serif" font-size="11" lengthAdjust="spacingAndGlyphs" textLength="269" x="335.5" y="218.6348">UpdateTenantStatusDAO(String, int, TenantStatus)</text><ellipse cx="326.5" cy="228.9326" fill="#84BE84" rx="3" ry="3" style="stroke: #038048; stroke-width: 1.0;"/><text fill="#000000" font-family="sans-serif" font-size="11" lengthAdjust="spacingAndGlyphs" textLength="232" x="335.5" y="231.5898">run(IDatabaseTranslator, Connection): void</text></a><!--class com.ibm.fhir.database.utils.api.IDatabaseSupplier--><a href="../api/IDatabaseSupplier.html" target="_top" xlink:actuate="onRequest" xlink:show="new" xlink:title="../api/IDatabaseSupplier.html" xlink:type="simple"><rect fill="#FEFECE" filter="url(#f1jl2mt0lo0ass)" height="60.9551" id="com.ibm.fhir.database.utils.api.IDatabaseSupplier" style="stroke: #A80036; stroke-width: 1.5;" width="242" x="980" y="43"/><ellipse cx="1038.25" cy="59" fill="#B4A7E5" rx="11" ry="11" style="stroke: #A80036; stroke-width: 1.0;"/><path d="M1034.6777,55.2651 L1034.6777,53.1069 L1042.0571,53.1069 L1042.0571,55.2651 L1039.5918,55.2651 L1039.5918,63.3418 L1042.0571,63.3418 L1042.0571,65.5 L1034.6777,65.5 L1034.6777,63.3418 L1037.1431,63.3418 L1037.1431,55.2651 Z "/><text fill="#000000" font-family="sans-serif" font-size="12" font-style="italic" lengthAdjust="spacingAndGlyphs" textLength="105" x="1058.75" y="63.5352">IDatabaseSupplier</text><rect fill="#FFFFFF" height="16.1328" style="stroke: #000000; stroke-width: 1.0; stroke-dasharray: 2.0,2.0;" width="10" x="1215" y="40"/><text fill="#000000" font-family="sans-serif" font-size="12" font-style="italic" lengthAdjust="spacingAndGlyphs" textLength="8" x="1216" y="52.6016">T</text><line style="stroke: #A80036; stroke-width: 1.5;" x1="981" x2="1221" y1="75" y2="75"/><line style="stroke: #A80036; stroke-width: 1.5;" x1="981" x2="1221" y1="83" y2="83"/><ellipse cx="991" cy="94.9775" fill="#84BE84" rx="3" ry="3" style="stroke: #038048; stroke-width: 1.0;"/><text fill="#000000" font-family="sans-serif" font-size="11" font-style="italic" lengthAdjust="spacingAndGlyphs" textLength="216" x="1000" y="97.6348">run(IDatabaseTranslator, Connection): T</text></a><!--class com.ibm.fhir.database.utils.api.IDatabaseStatement--><a href="../api/IDatabaseStatement.html" target="_top" xlink:actuate="onRequest" xlink:show="new" xlink:title="../api/IDatabaseStatement.html" xlink:type="simple"><rect fill="#FEFECE" filter="url(#f1jl2mt0lo0ass)" height="60.9551" id="com.ibm.fhir.database.utils.api.IDatabaseStatement" style="stroke: #A80036; stroke-width: 1.5;" width="258" x="687" y="43"/><ellipse cx="754.25" cy="59" fill="#B4A7E5" rx="11" ry="11" style="stroke: #A80036; stroke-width: 1.0;"/><path d="M750.6777,55.2651 L750.6777,53.1069 L758.0571,53.1069 L758.0571,55.2651 L755.5918,55.2651 L755.5918,63.3418 L758.0571,63.3418 L758.0571,65.5 L750.6777,65.5 L750.6777,63.3418 L753.1431,63.3418 L753.1431,55.2651 Z "/><text fill="#000000" font-family="sans-serif" font-size="12" font-style="italic" lengthAdjust="spacingAndGlyphs" textLength="115" x="774.75" y="63.5352">IDatabaseStatement</text><line style="stroke: #A80036; stroke-width: 1.5;" x1="688" x2="944" y1="75" y2="75"/><line style="stroke: #A80036; stroke-width: 1.5;" x1="688" x2="944" y1="83" y2="83"/><ellipse cx="698" cy="94.9775" fill="#84BE84" rx="3" ry="3" style="stroke: #038048; stroke-width: 1.0;"/><text fill="#000000" font-family="sans-serif" font-size="11" font-style="italic" lengthAdjust="spacingAndGlyphs" textLength="232" x="707" y="97.6348">run(IDatabaseTranslator, Connection): void</text></a><!--link com.ibm.fhir.database.utils.api.IDatabaseSupplier to com.ibm.fhir.database.utils.tenant.GetTenantDAO--><path d="M1242.4449,82.3605 C1339.3011,90.8029 1469.9842,106.8937 1582,137 C1607.3045,143.801 1633.9638,153.7918 1657.8576,163.8671 " fill="none" id="com.ibm.fhir.database.utils.api.IDatabaseSupplier-com.ibm.fhir.database.utils.tenant.GetTenantDAO" style="stroke: #A80036; stroke-width: 1.0; stroke-dasharray: 7.0,7.0;"/><polygon fill="none" points="1241.6546,89.3189,1222.3092,80.6728,1242.824,75.3678,1241.6546,89.3189" style="stroke: #A80036; stroke-width: 1.0;"/><!--link com.ibm.fhir.database.utils.api.IDatabaseSupplier to com.ibm.fhir.database.utils.tenant.MaxTenantIdDAO--><path d="M1205.6977,111.1252 C1228.2913,119.469 1251.9963,128.3939 1274,137 C1295.706,145.4896 1318.9886,154.9684 1340.71,163.9749 " fill="none" id="com.ibm.fhir.database.utils.api.IDatabaseSupplier-com.ibm.fhir.database.utils.tenant.MaxTenantIdDAO" style="stroke: #A80036; stroke-width: 1.0; stroke-dasharray: 7.0,7.0;"/><polygon fill="none" points="1202.9833,117.5855,1186.6226,104.1196,1207.8098,104.4438,1202.9833,117.5855" style="stroke: #A80036; stroke-width: 1.0;"/><!--link com.ibm.fhir.database.utils.api.IDatabaseStatement to com.ibm.fhir.database.utils.tenant.AddTenantDAO--><path d="M666.732,80.3778 C562.0372,87.9552 419.6129,103.8264 298,137 C273.429,143.7025 247.6431,153.7898 224.6498,163.986 " fill="none" id="com.ibm.fhir.database.utils.api.IDatabaseStatement-com.ibm.fhir.database.utils.tenant.AddTenantDAO" style="stroke: #A80036; stroke-width: 1.0; stroke-dasharray: 7.0,7.0;"/><polygon fill="none" points="666.3851,73.3852,686.8194,78.992,667.3487,87.352,666.3851,73.3852" style="stroke: #A80036; stroke-width: 1.0;"/><!--link com.ibm.fhir.database.utils.api.IDatabaseStatement to com.ibm.fhir.database.utils.tenant.AddTenantKeyDAO--><path d="M808.4813,123.9546 C806.4957,137.2786 804.3894,151.4135 802.5303,163.8888 " fill="none" id="com.ibm.fhir.database.utils.api.IDatabaseStatement-com.ibm.fhir.database.utils.tenant.AddTenantKeyDAO" style="stroke: #A80036; stroke-width: 1.0; stroke-dasharray: 7.0,7.0;"/><polygon fill="none" points="801.5776,122.7892,811.449,104.0394,815.4246,124.8528,801.5776,122.7892" style="stroke: #A80036; stroke-width: 1.0;"/><!--link com.ibm.fhir.database.utils.api.IDatabaseSupplier to com.ibm.fhir.database.utils.tenant.FindTenantIdDAO--><path d="M1108.5187,123.9546 C1110.5043,137.2786 1112.6106,151.4135 1114.4697,163.8888 " fill="none" id="com.ibm.fhir.database.utils.api.IDatabaseSupplier-com.ibm.fhir.database.utils.tenant.FindTenantIdDAO" style="stroke: #A80036; stroke-width: 1.0; stroke-dasharray: 7.0,7.0;"/><polygon fill="none" points="1101.5754,124.8528,1105.551,104.0394,1115.4224,122.7892,1101.5754,124.8528" style="stroke: #A80036; stroke-width: 1.0;"/><!--link com.ibm.fhir.database.utils.api.IDatabaseStatement to com.ibm.fhir.database.utils.tenant.UpdateTenantStatusDAO--><path d="M703.7117,110.5211 C678.7159,119.014 652.3977,128.1529 628,137 C604.7477,145.4318 579.8037,154.8891 556.5309,163.8933 " fill="none" id="com.ibm.fhir.database.utils.api.IDatabaseStatement-com.ibm.fhir.database.utils.tenant.UpdateTenantStatusDAO" style="stroke: #A80036; stroke-width: 1.0; stroke-dasharray: 7.0,7.0;"/><polygon fill="none" points="701.7732,103.7874,722.9616,104.0178,706.2541,117.0509,701.7732,103.7874" style="stroke: #A80036; stroke-width: 1.0;"/><text fill="#888888" font-family="sans-serif" font-size="10" lengthAdjust="spacingAndGlyphs" textLength="182" x="862" y="273.668">UMLDoclet 2.0.5, PlantUML 1.2019.08</text><!--
@startuml
    namespace com.ibm.fhir.database.utils.tenant {

        class GetTenantDAO [[GetTenantDAO.html]] {
            +GetTenantDAO(String, String)
            +run(IDatabaseTranslator, Connection): Tenant
        }

        class MaxTenantIdDAO [[MaxTenantIdDAO.html]] {
            +MaxTenantIdDAO(String)
            +run(IDatabaseTranslator, Connection): Integer
        }

        class AddTenantDAO [[AddTenantDAO.html]] {
            +AddTenantDAO(String, int, String)
            +run(IDatabaseTranslator, Connection): void
        }

        class AddTenantKeyDAO [[AddTenantKeyDAO.html]] {
            +AddTenantKeyDAO(String, int, String, String, String)
            +run(IDatabaseTranslator, Connection): void
        }

        class FindTenantIdDAO [[FindTenantIdDAO.html]] {
            +FindTenantIdDAO(String, String)
            +run(IDatabaseTranslator, Connection): Integer
        }

        class UpdateTenantStatusDAO [[UpdateTenantStatusDAO.html]] {
            +UpdateTenantStatusDAO(String, int, TenantStatus)
            +run(IDatabaseTranslator, Connection): void
        }

        com.ibm.fhir.database.utils.api.IDatabaseSupplier <|.. GetTenantDAO
        com.ibm.fhir.database.utils.api.IDatabaseSupplier <|.. MaxTenantIdDAO
        com.ibm.fhir.database.utils.api.IDatabaseStatement <|.. AddTenantDAO
        com.ibm.fhir.database.utils.api.IDatabaseStatement <|.. AddTenantKeyDAO
        com.ibm.fhir.database.utils.api.IDatabaseSupplier <|.. FindTenantIdDAO
        com.ibm.fhir.database.utils.api.IDatabaseStatement <|.. UpdateTenantStatusDAO
    }

    namespace com.ibm.fhir.database.utils.api {
        interface IDatabaseSupplier<T> [[../api/IDatabaseSupplier.html]] {
            {abstract} +run(IDatabaseTranslator, Connection): T
        }
        interface IDatabaseStatement [[../api/IDatabaseStatement.html]] {
            {abstract} +run(IDatabaseTranslator, Connection): void
        }
    }

    center footer UMLDoclet 2.0.5, PlantUML 1.2019.08
@enduml

PlantUML version 1.2019.08(Sat Jul 13 15:25:14 EDT 2019)
(APACHE source distribution)
Java Runtime: OpenJDK Runtime Environment
JVM: OpenJDK 64-Bit Server VM
Java Version: 11.0.4+11
Operating System: Mac OS X
OS Version: 10.14.6
Default Encoding: UTF-8
Language: en
Country: US
--></g></svg>