<?xml version="1.0" encoding="UTF-8" standalone="no"?><svg xmlns="http://www.w3.org/2000/svg" xmlns:xlink="http://www.w3.org/1999/xlink" contentScriptType="application/ecmascript" contentStyleType="text/css" height="297px" preserveAspectRatio="none" style="width:246px;height:297px;" version="1.1" viewBox="0 0 246 297" width="246px" zoomAndPan="magnify"><defs><filter height="300%" id="fl0j780lqe5u3" width="300%" x="-1" y="-1"><feGaussianBlur result="blurOut" stdDeviation="2.0"/><feColorMatrix in="blurOut" result="blurOut2" type="matrix" values="0 0 0 0 0 0 0 0 0 0 0 0 0 0 0 0 0 0 .4 0"/><feOffset dx="4.0" dy="4.0" in="blurOut2" result="blurOut3"/><feBlend in="SourceGraphic" in2="blurOut3" mode="normal"/></filter></defs><g><!--class com.ibm.fhir.client.impl.FHIRBasicAuthenticator--><a href="FHIRBasicAuthenticator.html" target="_top" xlink:actuate="onRequest" xlink:show="new" xlink:title="FHIRBasicAuthenticator.html" xlink:type="simple"><rect fill="#FEFECE" filter="url(#fl0j780lqe5u3)" height="136.9512" id="com.ibm.fhir.client.impl.FHIRBasicAuthenticator" style="stroke: #A80036; stroke-width: 1.5;" width="229" x="6" y="127"/><ellipse cx="38.1" cy="146.1328" fill="#ADD1B2" rx="11" ry="11" style="stroke: #A80036; stroke-width: 1.0;"/><path d="M40.5731,152.2759 Q39.9921,152.5747 39.3529,152.7241 Q38.7138,152.8735 38.0082,152.8735 Q35.5014,152.8735 34.1815,151.2217 Q32.8617,149.5698 32.8617,146.4487 Q32.8617,143.3193 34.1815,141.6675 Q35.5014,140.0156 38.0082,140.0156 Q38.7138,140.0156 39.3612,140.165 Q40.0087,140.3145 40.5731,140.6133 L40.5731,143.3359 Q39.9423,142.7549 39.3488,142.4851 Q38.7553,142.2153 38.1244,142.2153 Q36.7797,142.2153 36.0949,143.282 Q35.4101,144.3486 35.4101,146.4487 Q35.4101,148.5405 36.0949,149.6072 Q36.7797,150.6738 38.1244,150.6738 Q38.7553,150.6738 39.3488,150.4041 Q39.9423,150.1343 40.5731,149.5532 Z "/><text fill="#000000" font-family="sans-serif" font-size="14" lengthAdjust="spacingAndGlyphs" textLength="159" x="55.9" y="145.5352">FHIRBasicAuthenticator</text><text fill="#000000" font-family="sans-serif" font-size="10" lengthAdjust="spacingAndGlyphs" textLength="115" x="77.9" y="158.1563">com.ibm.fhir.client.impl</text><line style="stroke: #A80036; stroke-width: 1.5;" x1="7" x2="234" y1="165.2656" y2="165.2656"/><polygon fill="#FFFF44" points="17,172.2432,21,176.2432,17,180.2432,13,176.2432" style="stroke: #B38D22; stroke-width: 1.0;"/><text fill="#000000" font-family="sans-serif" font-size="11" lengthAdjust="spacingAndGlyphs" textLength="133" x="26" y="179.9004">FHIRBasicAuthenticator()</text><ellipse cx="17" cy="190.1982" fill="#84BE84" rx="3" ry="3" style="stroke: #038048; stroke-width: 1.0;"/><text fill="#000000" font-family="sans-serif" font-size="11" lengthAdjust="spacingAndGlyphs" textLength="203" x="26" y="192.8555">FHIRBasicAuthenticator(String, String)</text><ellipse cx="17" cy="203.1533" fill="#84BE84" rx="3" ry="3" style="stroke: #038048; stroke-width: 1.0;"/><text fill="#000000" font-family="sans-serif" font-size="11" lengthAdjust="spacingAndGlyphs" textLength="117" x="26" y="205.8105">getUsername(): String</text><ellipse cx="17" cy="216.1084" fill="#84BE84" rx="3" ry="3" style="stroke: #038048; stroke-width: 1.0;"/><text fill="#000000" font-family="sans-serif" font-size="11" lengthAdjust="spacingAndGlyphs" textLength="139" x="26" y="218.7656">setUsername(String): void</text><ellipse cx="17" cy="229.0635" fill="#84BE84" rx="3" ry="3" style="stroke: #038048; stroke-width: 1.0;"/><text fill="#000000" font-family="sans-serif" font-size="11" lengthAdjust="spacingAndGlyphs" textLength="114" x="26" y="231.7207">getPassword(): String</text><ellipse cx="17" cy="242.0186" fill="#84BE84" rx="3" ry="3" style="stroke: #038048; stroke-width: 1.0;"/><text fill="#000000" font-family="sans-serif" font-size="11" lengthAdjust="spacingAndGlyphs" textLength="136" x="26" y="244.6758">setPassword(String): void</text><ellipse cx="17" cy="254.9736" fill="#84BE84" rx="3" ry="3" style="stroke: #038048; stroke-width: 1.0;"/><text fill="#000000" font-family="sans-serif" font-size="11" lengthAdjust="spacingAndGlyphs" textLength="179" x="26" y="257.6309">filter(ClientRequestContext): void</text></a><!--class javax.ws.rs.client.ClientRequestFilter--><rect fill="#FEFECE" filter="url(#fl0j780lqe5u3)" height="59.2207" id="javax.ws.rs.client.ClientRequestFilter" style="stroke: #A80036; stroke-width: 1.5;" width="205" x="18" y="8"/><ellipse cx="52.35" cy="27.1328" fill="#B4A7E5" rx="11" ry="11" style="stroke: #A80036; stroke-width: 1.0;"/><path d="M48.7777,23.3979 L48.7777,21.2397 L56.1571,21.2397 L56.1571,23.3979 L53.6918,23.3979 L53.6918,31.4746 L56.1571,31.4746 L56.1571,33.6328 L48.7777,33.6328 L48.7777,31.4746 L51.2431,31.4746 L51.2431,23.3979 Z "/><text fill="#000000" font-family="sans-serif" font-size="14" font-style="italic" lengthAdjust="spacingAndGlyphs" textLength="130" x="70.65" y="26.5352">ClientRequestFilter</text><text fill="#000000" font-family="sans-serif" font-size="10" font-style="italic" lengthAdjust="spacingAndGlyphs" textLength="84" x="93.65" y="39.1563">javax.ws.rs.client</text><line style="stroke: #A80036; stroke-width: 1.5;" x1="19" x2="222" y1="46.2656" y2="46.2656"/><ellipse cx="29" cy="58.2432" fill="#84BE84" rx="3" ry="3" style="stroke: #038048; stroke-width: 1.0;"/><text fill="#000000" font-family="sans-serif" font-size="11" font-style="italic" lengthAdjust="spacingAndGlyphs" textLength="179" x="38" y="60.9004">filter(ClientRequestContext): void</text><!--link javax.ws.rs.client.ClientRequestFilter to com.ibm.fhir.client.impl.FHIRBasicAuthenticator--><path d="M120.5,87.5578 C120.5,100.0643 120.5,113.6937 120.5,126.9259 " fill="none" id="javax.ws.rs.client.ClientRequestFilter-com.ibm.fhir.client.impl.FHIRBasicAuthenticator" style="stroke: #A80036; stroke-width: 1.0; stroke-dasharray: 7.0,7.0;"/><polygon fill="none" points="113.5001,87.2186,120.5,67.2186,127.5001,87.2186,113.5001,87.2186" style="stroke: #A80036; stroke-width: 1.0;"/><text fill="#888888" font-family="sans-serif" font-size="10" lengthAdjust="spacingAndGlyphs" textLength="182" x="35.5" y="283.668">UMLDoclet 2.0.5, PlantUML 1.2019.08</text><!--
@startuml
    set namespaceSeparator none
    hide empty fields
    hide empty methods

    class "<size:14>FHIRBasicAuthenticator\n<size:10>com.ibm.fhir.client.impl" as com.ibm.fhir.client.impl.FHIRBasicAuthenticator [[FHIRBasicAuthenticator.html]] {
        #FHIRBasicAuthenticator()
        +FHIRBasicAuthenticator(String, String)
        +getUsername(): String
        +setUsername(String): void
        +getPassword(): String
        +setPassword(String): void
        +filter(ClientRequestContext): void
    }

    interface "<size:14>ClientRequestFilter\n<size:10>javax.ws.rs.client" as javax.ws.rs.client.ClientRequestFilter {
        {abstract} +filter(ClientRequestContext): void
    }

    javax.ws.rs.client.ClientRequestFilter <|.. com.ibm.fhir.client.impl.FHIRBasicAuthenticator

    center footer UMLDoclet 2.0.5, PlantUML 1.2019.08
@enduml

PlantUML version 1.2019.08(Sat Jul 13 15:25:14 EDT 2019)
(APACHE source distribution)
Java Runtime: OpenJDK Runtime Environment
JVM: OpenJDK 64-Bit Server VM
Java Version: 11.0.4+11
Operating System: Mac OS X
OS Version: 10.14.6
Default Encoding: UTF-8
Language: en
Country: US
--></g></svg>