<?xml version="1.0" encoding="UTF-8" standalone="no"?><svg xmlns="http://www.w3.org/2000/svg" xmlns:xlink="http://www.w3.org/1999/xlink" contentScriptType="application/ecmascript" contentStyleType="text/css" height="602px" preserveAspectRatio="none" style="width:826px;height:602px;" version="1.1" viewBox="0 0 826 602" width="826px" zoomAndPan="magnify"><defs><filter height="300%" id="fklhldpaeh18e" width="300%" x="-1" y="-1"><feGaussianBlur result="blurOut" stdDeviation="2.0"/><feColorMatrix in="blurOut" result="blurOut2" type="matrix" values="0 0 0 0 0 0 0 0 0 0 0 0 0 0 0 0 0 0 .4 0"/><feOffset dx="4.0" dy="4.0" in="blurOut2" result="blurOut3"/><feBlend in="SourceGraphic" in2="blurOut3" mode="normal"/></filter></defs><g><!--MD5=[8714603573f061a94ffc7a921a3578df]
cluster com.ibm.fhir.server.util--><polygon fill="#FFFFFF" filter="url(#fklhldpaeh18e)" points="14,124,185,124,192,146.4883,804,146.4883,804,561,14,561,14,124" style="stroke: #000000; stroke-width: 1.5;"/><line style="stroke: #000000; stroke-width: 1.5;" x1="14" x2="192" y1="146.4883" y2="146.4883"/><text fill="#000000" font-family="sans-serif" font-size="14" font-weight="bold" lengthAdjust="spacingAndGlyphs" textLength="165" x="18" y="139.5352">com.ibm.fhir.server.util</text><!--MD5=[ec4c2b08c054da7285606927df061a05]
cluster com.ibm.fhir.model.visitor--><polygon fill="#FFFFFF" filter="url(#fklhldpaeh18e)" points="45,16,239,16,246,38.4883,291,38.4883,291,99,45,99,45,16" style="stroke: #000000; stroke-width: 1.5;"/><line style="stroke: #000000; stroke-width: 1.5;" x1="45" x2="246" y1="38.4883" y2="38.4883"/><text fill="#000000" font-family="sans-serif" font-size="14" font-weight="bold" lengthAdjust="spacingAndGlyphs" textLength="188" x="49" y="31.5352">com.ibm.fhir.model.visitor</text><!--MD5=[4909e030ecb9787c72754db5192b93ba]
class com.ibm.fhir.server.util.ReferenceMappingVisitor--><a href="ReferenceMappingVisitor.html" target="_top" title="ReferenceMappingVisitor.html" xlink:actuate="onRequest" xlink:href="ReferenceMappingVisitor.html" xlink:show="new" xlink:title="ReferenceMappingVisitor.html" xlink:type="simple"><rect fill="#FEFECE" filter="url(#fklhldpaeh18e)" height="99.8203" id="com.ibm.fhir.server.util.ReferenceMappingVisitor" style="stroke: #A80036; stroke-width: 1.5;" width="291" x="22.5" y="164"/><ellipse cx="37.5" cy="180" fill="#ADD1B2" rx="11" ry="11" style="stroke: #A80036; stroke-width: 1.0;"/><path d="M39.9731,186.1431 Q39.3921,186.4419 38.7529,186.5913 Q38.1138,186.7407 37.4082,186.7407 Q34.9014,186.7407 33.5815,185.0889 Q32.2617,183.437 32.2617,180.3159 Q32.2617,177.1865 33.5815,175.5347 Q34.9014,173.8828 37.4082,173.8828 Q38.1138,173.8828 38.7612,174.0322 Q39.4087,174.1816 39.9731,174.4805 L39.9731,177.2031 Q39.3423,176.6221 38.7488,176.3523 Q38.1553,176.0825 37.5244,176.0825 Q36.1797,176.0825 35.4949,177.1492 Q34.8101,178.2158 34.8101,180.3159 Q34.8101,182.4077 35.4949,183.4744 Q36.1797,184.541 37.5244,184.541 Q38.1553,184.541 38.7488,184.2712 Q39.3423,184.0015 39.9731,183.4204 Z "/><text fill="#000000" font-family="sans-serif" font-size="12" lengthAdjust="spacingAndGlyphs" textLength="144" x="51.5" y="184.5352">ReferenceMappingVisitor</text><rect fill="#FFFFFF" height="16.1328" style="stroke: #000000; stroke-width: 1.0; stroke-dasharray: 2.0,2.0;" width="113" x="203.5" y="161"/><text fill="#000000" font-family="sans-serif" font-size="12" font-style="italic" lengthAdjust="spacingAndGlyphs" textLength="111" x="204.5" y="173.6016">T extends Visitable</text><line style="stroke: #A80036; stroke-width: 1.5;" x1="23.5" x2="312.5" y1="196" y2="196"/><polygon fill="none" points="33.5,203,29.5,209,37.5,209" style="stroke: #1963A0; stroke-width: 1.0;"/><text fill="#000000" font-family="sans-serif" font-size="11" lengthAdjust="spacingAndGlyphs" textLength="88" x="42.5" y="210.6348">errorMsg: String</text><line style="stroke: #A80036; stroke-width: 1.5;" x1="23.5" x2="312.5" y1="216.9551" y2="216.9551"/><ellipse cx="33.5" cy="227.9551" fill="#84BE84" rx="3" ry="3" style="stroke: #038048; stroke-width: 1.0;"/><text fill="#000000" font-family="sans-serif" font-size="11" lengthAdjust="spacingAndGlyphs" textLength="252" x="42.5" y="231.5898">ReferenceMappingVisitor(Map&lt;String, String&gt;)</text><ellipse cx="33.5" cy="240.9102" fill="#84BE84" rx="3" ry="3" style="stroke: #038048; stroke-width: 1.0;"/><text fill="#000000" font-family="sans-serif" font-size="11" lengthAdjust="spacingAndGlyphs" textLength="190" x="42.5" y="244.5449">visit(String, int, Reference): boolean</text><ellipse cx="33.5" cy="253.8652" fill="#84BE84" rx="3" ry="3" style="stroke: #038048; stroke-width: 1.0;"/><text fill="#000000" font-family="sans-serif" font-size="11" lengthAdjust="spacingAndGlyphs" textLength="113" x="42.5" y="257.5">getErrorMsg(): String</text></a><!--MD5=[05f1046187558fbdd235f117a5c245c0]
class com.ibm.fhir.server.util.IssueTypeToHttpStatusMapper--><a href="IssueTypeToHttpStatusMapper.html" target="_top" title="IssueTypeToHttpStatusMapper.html" xlink:actuate="onRequest" xlink:href="IssueTypeToHttpStatusMapper.html" xlink:show="new" xlink:title="IssueTypeToHttpStatusMapper.html" xlink:type="simple"><rect fill="#FEFECE" filter="url(#fklhldpaeh18e)" height="86.8652" id="com.ibm.fhir.server.util.IssueTypeToHttpStatusMapper" style="stroke: #A80036; stroke-width: 1.5;" width="266" x="349" y="170.5"/><ellipse cx="389.65" cy="186.5" fill="#ADD1B2" rx="11" ry="11" style="stroke: #A80036; stroke-width: 1.0;"/><path d="M392.1231,192.6431 Q391.5421,192.9419 390.9029,193.0913 Q390.2638,193.2407 389.5582,193.2407 Q387.0514,193.2407 385.7315,191.5889 Q384.4117,189.937 384.4117,186.8159 Q384.4117,183.6865 385.7315,182.0347 Q387.0514,180.3828 389.5582,180.3828 Q390.2638,180.3828 390.9112,180.5322 Q391.5587,180.6816 392.1231,180.9805 L392.1231,183.7031 Q391.4923,183.1221 390.8988,182.8523 Q390.3053,182.5825 389.6744,182.5825 Q388.3297,182.5825 387.6449,183.6492 Q386.9601,184.7158 386.9601,186.8159 Q386.9601,188.9077 387.6449,189.9744 Q388.3297,191.041 389.6744,191.041 Q390.3053,191.041 390.8988,190.7712 Q391.4923,190.5015 392.1231,189.9204 Z "/><text fill="#000000" font-family="sans-serif" font-size="12" lengthAdjust="spacingAndGlyphs" textLength="177" x="409.35" y="191.0352">IssueTypeToHttpStatusMapper</text><line style="stroke: #A80036; stroke-width: 1.5;" x1="350" x2="614" y1="202.5" y2="202.5"/><line style="stroke: #A80036; stroke-width: 1.5;" x1="350" x2="614" y1="210.5" y2="210.5"/><ellipse cx="360" cy="221.5" fill="#84BE84" rx="3" ry="3" style="stroke: #038048; stroke-width: 1.0;"/><text fill="#000000" font-family="sans-serif" font-size="11" lengthAdjust="spacingAndGlyphs" text-decoration="underline" textLength="211" x="369" y="225.1348">ooToStatus(OperationOutcome): Status</text><ellipse cx="360" cy="234.4551" fill="#84BE84" rx="3" ry="3" style="stroke: #038048; stroke-width: 1.0;"/><text fill="#000000" font-family="sans-serif" font-size="11" lengthAdjust="spacingAndGlyphs" text-decoration="underline" textLength="206" x="369" y="238.0898">issueListToStatus(List&lt;Issue&gt;): Status</text><ellipse cx="360" cy="247.4102" fill="#84BE84" rx="3" ry="3" style="stroke: #038048; stroke-width: 1.0;"/><text fill="#000000" font-family="sans-serif" font-size="11" lengthAdjust="spacingAndGlyphs" text-decoration="underline" textLength="240" x="369" y="251.0449">issueTypeToResponseCode(ValueSet): Status</text></a><!--MD5=[39e824ea6519e5b4ae75d3e63646fcdd]
class com.ibm.fhir.server.util.Handling--><a href="Handling.html" target="_top" title="Handling.html" xlink:actuate="onRequest" xlink:href="Handling.html" xlink:show="new" xlink:title="Handling.html" xlink:type="simple"><rect fill="#FEFECE" filter="url(#fklhldpaeh18e)" height="125.7305" id="com.ibm.fhir.server.util.Handling" style="stroke: #A80036; stroke-width: 1.5;" width="146" x="650" y="151"/><ellipse cx="693.35" cy="167" fill="#EB937F" rx="11" ry="11" style="stroke: #A80036; stroke-width: 1.0;"/><path d="M696.9643,173.5 L689.2445,173.5 L689.2445,161.1069 L696.9643,161.1069 L696.9643,163.2651 L691.6933,163.2651 L691.6933,165.938 L696.4662,165.938 L696.4662,168.0962 L691.6933,168.0962 L691.6933,171.3418 L696.9643,171.3418 Z "/><text fill="#000000" font-family="sans-serif" font-size="12" lengthAdjust="spacingAndGlyphs" textLength="51" x="713.65" y="171.5352">Handling</text><line style="stroke: #A80036; stroke-width: 1.5;" x1="651" x2="795" y1="183" y2="183"/><ellipse cx="661" cy="194" fill="none" rx="3" ry="3" style="stroke: #038048; stroke-width: 1.0;"/><text fill="#000000" font-family="sans-serif" font-size="11" lengthAdjust="spacingAndGlyphs" text-decoration="underline" textLength="44" x="670" y="197.6348">LENIENT</text><ellipse cx="661" cy="206.9551" fill="none" rx="3" ry="3" style="stroke: #038048; stroke-width: 1.0;"/><text fill="#000000" font-family="sans-serif" font-size="11" lengthAdjust="spacingAndGlyphs" text-decoration="underline" textLength="80" x="670" y="210.5898">LENIENT_ONLY</text><ellipse cx="661" cy="219.9102" fill="none" rx="3" ry="3" style="stroke: #038048; stroke-width: 1.0;"/><text fill="#000000" font-family="sans-serif" font-size="11" lengthAdjust="spacingAndGlyphs" text-decoration="underline" textLength="38" x="670" y="223.5449">STRICT</text><ellipse cx="661" cy="232.8652" fill="none" rx="3" ry="3" style="stroke: #038048; stroke-width: 1.0;"/><text fill="#000000" font-family="sans-serif" font-size="11" lengthAdjust="spacingAndGlyphs" text-decoration="underline" textLength="74" x="670" y="236.5">STRICT_ONLY</text><line style="stroke: #A80036; stroke-width: 1.5;" x1="651" x2="795" y1="242.8203" y2="242.8203"/><ellipse cx="661" cy="253.8203" fill="#84BE84" rx="3" ry="3" style="stroke: #038048; stroke-width: 1.0;"/><text fill="#000000" font-family="sans-serif" font-size="11" lengthAdjust="spacingAndGlyphs" text-decoration="underline" textLength="120" x="670" y="257.4551">from(String): Handling</text><ellipse cx="661" cy="266.7754" fill="#84BE84" rx="3" ry="3" style="stroke: #038048; stroke-width: 1.0;"/><text fill="#000000" font-family="sans-serif" font-size="11" lengthAdjust="spacingAndGlyphs" textLength="74" x="670" y="270.4102">value(): String</text></a><!--MD5=[6db06e694c540a1f298634d0762b43d7]
class com.ibm.fhir.server.util.RestAuditLogger--><a href="RestAuditLogger.html" target="_top" title="RestAuditLogger.html" xlink:actuate="onRequest" xlink:href="RestAuditLogger.html" xlink:show="new" xlink:title="RestAuditLogger.html" xlink:type="simple"><rect fill="#FEFECE" filter="url(#fklhldpaeh18e)" height="216.416" id="com.ibm.fhir.server.util.RestAuditLogger" style="stroke: #A80036; stroke-width: 1.5;" width="536" x="214" y="337"/><ellipse cx="430.75" cy="353" fill="#ADD1B2" rx="11" ry="11" style="stroke: #A80036; stroke-width: 1.0;"/><path d="M433.2231,359.1431 Q432.6421,359.4419 432.0029,359.5913 Q431.3638,359.7407 430.6582,359.7407 Q428.1514,359.7407 426.8315,358.0889 Q425.5117,356.437 425.5117,353.3159 Q425.5117,350.1865 426.8315,348.5347 Q428.1514,346.8828 430.6582,346.8828 Q431.3638,346.8828 432.0112,347.0322 Q432.6587,347.1816 433.2231,347.4805 L433.2231,350.2031 Q432.5923,349.6221 431.9988,349.3523 Q431.4053,349.0825 430.7744,349.0825 Q429.4297,349.0825 428.7449,350.1492 Q428.0601,351.2158 428.0601,353.3159 Q428.0601,355.4077 428.7449,356.4744 Q429.4297,357.541 430.7744,357.541 Q431.4053,357.541 431.9988,357.2712 Q432.5923,357.0015 433.2231,356.4204 Z "/><text fill="#000000" font-family="sans-serif" font-size="12" lengthAdjust="spacingAndGlyphs" textLength="94" x="451.25" y="357.5352">RestAuditLogger</text><line style="stroke: #A80036; stroke-width: 1.5;" x1="215" x2="749" y1="369" y2="369"/><line style="stroke: #A80036; stroke-width: 1.5;" x1="215" x2="749" y1="377" y2="377"/><ellipse cx="225" cy="388" fill="#84BE84" rx="3" ry="3" style="stroke: #038048; stroke-width: 1.0;"/><text fill="#000000" font-family="sans-serif" font-size="11" lengthAdjust="spacingAndGlyphs" text-decoration="underline" textLength="346" x="234" y="391.6348">logCreate(HttpServletRequest, Resource, Date, Date, Status): void</text><ellipse cx="225" cy="400.9551" fill="#84BE84" rx="3" ry="3" style="stroke: #038048; stroke-width: 1.0;"/><text fill="#000000" font-family="sans-serif" font-size="11" lengthAdjust="spacingAndGlyphs" text-decoration="underline" textLength="405" x="234" y="404.5898">logUpdate(HttpServletRequest, Resource, Resource, Date, Date, Status): void</text><ellipse cx="225" cy="413.9102" fill="#84BE84" rx="3" ry="3" style="stroke: #038048; stroke-width: 1.0;"/><text fill="#000000" font-family="sans-serif" font-size="11" lengthAdjust="spacingAndGlyphs" text-decoration="underline" textLength="396" x="234" y="417.5449">logPatch(HttpServletRequest, Resource, Resource, Date, Date, Status): void</text><ellipse cx="225" cy="426.8652" fill="#84BE84" rx="3" ry="3" style="stroke: #038048; stroke-width: 1.0;"/><text fill="#000000" font-family="sans-serif" font-size="11" lengthAdjust="spacingAndGlyphs" text-decoration="underline" textLength="337" x="234" y="430.5">logRead(HttpServletRequest, Resource, Date, Date, Status): void</text><ellipse cx="225" cy="439.8203" fill="#84BE84" rx="3" ry="3" style="stroke: #038048; stroke-width: 1.0;"/><text fill="#000000" font-family="sans-serif" font-size="11" lengthAdjust="spacingAndGlyphs" text-decoration="underline" textLength="344" x="234" y="443.4551">logDelete(HttpServletRequest, Resource, Date, Date, Status): void</text><ellipse cx="225" cy="452.7754" fill="#84BE84" rx="3" ry="3" style="stroke: #038048; stroke-width: 1.0;"/><text fill="#000000" font-family="sans-serif" font-size="11" lengthAdjust="spacingAndGlyphs" text-decoration="underline" textLength="378" x="234" y="456.4102">logVersionRead(HttpServletRequest, Resource, Date, Date, Status): void</text><ellipse cx="225" cy="465.7305" fill="#84BE84" rx="3" ry="3" style="stroke: #038048; stroke-width: 1.0;"/><text fill="#000000" font-family="sans-serif" font-size="11" lengthAdjust="spacingAndGlyphs" text-decoration="underline" textLength="336" x="234" y="469.3652">logHistory(HttpServletRequest, Bundle, Date, Date, Status): void</text><ellipse cx="225" cy="478.6855" fill="#84BE84" rx="3" ry="3" style="stroke: #038048; stroke-width: 1.0;"/><text fill="#000000" font-family="sans-serif" font-size="11" lengthAdjust="spacingAndGlyphs" text-decoration="underline" textLength="353" x="234" y="482.3203">logValidate(HttpServletRequest, Resource, Date, Date, Status): void</text><ellipse cx="225" cy="491.6406" fill="#84BE84" rx="3" ry="3" style="stroke: #038048; stroke-width: 1.0;"/><text fill="#000000" font-family="sans-serif" font-size="11" lengthAdjust="spacingAndGlyphs" text-decoration="underline" textLength="333" x="234" y="495.2754">logBundle(HttpServletRequest, Bundle, Date, Date, Status): void</text><ellipse cx="225" cy="504.5957" fill="#84BE84" rx="3" ry="3" style="stroke: #038048; stroke-width: 1.0;"/><text fill="#000000" font-family="sans-serif" font-size="11" lengthAdjust="spacingAndGlyphs" text-decoration="underline" textLength="510" x="234" y="508.2305">logSearch(HttpServletRequest, MultivaluedMap&lt;String, String&gt;, Bundle, Date, Date, Status): void</text><ellipse cx="225" cy="517.5508" fill="#84BE84" rx="3" ry="3" style="stroke: #038048; stroke-width: 1.0;"/><text fill="#000000" font-family="sans-serif" font-size="11" lengthAdjust="spacingAndGlyphs" text-decoration="underline" textLength="303" x="234" y="521.1855">logMetadata(HttpServletRequest, Date, Date, Status): void</text><ellipse cx="225" cy="530.5059" fill="#84BE84" rx="3" ry="3" style="stroke: #038048; stroke-width: 1.0;"/><text fill="#000000" font-family="sans-serif" font-size="11" lengthAdjust="spacingAndGlyphs" text-decoration="underline" textLength="122" x="234" y="534.1406">logConfig(String): void</text><ellipse cx="225" cy="543.4609" fill="#84BE84" rx="3" ry="3" style="stroke: #038048; stroke-width: 1.0;"/><text fill="#000000" font-family="sans-serif" font-size="11" lengthAdjust="spacingAndGlyphs" text-decoration="underline" textLength="461" x="234" y="547.0957">logOperation(HttpServletRequest, String, String, String, String, Date, Date, Status): void</text></a><!--MD5=[342fe47dd8a3b1e08e1623a2d2189c3d]
class com.ibm.fhir.model.visitor.CopyingVisitor--><a href="../../model/visitor/CopyingVisitor.html" target="_top" title="../../model/visitor/CopyingVisitor.html" xlink:actuate="onRequest" xlink:href="../../model/visitor/CopyingVisitor.html" xlink:show="new" xlink:title="../../model/visitor/CopyingVisitor.html" xlink:type="simple"><rect fill="#FEFECE" filter="url(#fklhldpaeh18e)" height="48" id="com.ibm.fhir.model.visitor.CopyingVisitor" style="stroke: #A80036; stroke-width: 1.5;" width="229" x="53.5" y="43"/><ellipse cx="68.5" cy="59" fill="#ADD1B2" rx="11" ry="11" style="stroke: #A80036; stroke-width: 1.0;"/><path d="M70.9731,65.1431 Q70.3921,65.4419 69.7529,65.5913 Q69.1138,65.7407 68.4082,65.7407 Q65.9014,65.7407 64.5815,64.0889 Q63.2617,62.437 63.2617,59.3159 Q63.2617,56.1865 64.5815,54.5347 Q65.9014,52.8828 68.4082,52.8828 Q69.1138,52.8828 69.7612,53.0322 Q70.4087,53.1816 70.9731,53.4805 L70.9731,56.2031 Q70.3423,55.6221 69.7488,55.3523 Q69.1553,55.0825 68.5244,55.0825 Q67.1797,55.0825 66.4949,56.1492 Q65.8101,57.2158 65.8101,59.3159 Q65.8101,61.4077 66.4949,62.4744 Q67.1797,63.541 68.5244,63.541 Q69.1553,63.541 69.7488,63.2712 Q70.3423,63.0015 70.9731,62.4204 Z "/><text fill="#000000" font-family="sans-serif" font-size="12" lengthAdjust="spacingAndGlyphs" textLength="82" x="82.5" y="63.5352">CopyingVisitor</text><rect fill="#FFFFFF" height="16.1328" style="stroke: #000000; stroke-width: 1.0; stroke-dasharray: 2.0,2.0;" width="113" x="172.5" y="40"/><text fill="#000000" font-family="sans-serif" font-size="12" font-style="italic" lengthAdjust="spacingAndGlyphs" textLength="111" x="173.5" y="52.6016">T extends Visitable</text><line style="stroke: #A80036; stroke-width: 1.5;" x1="54.5" x2="281.5" y1="75" y2="75"/><line style="stroke: #A80036; stroke-width: 1.5;" x1="54.5" x2="281.5" y1="83" y2="83"/></a><!--MD5=[c123e39aa2f745d13cbc9c930c11dd7c]
reverse link com.ibm.fhir.model.visitor.CopyingVisitor to com.ibm.fhir.server.util.ReferenceMappingVisitor--><path d="M168,111.3036 C168,127.8414 168,146.7339 168,163.7675 " fill="none" id="com.ibm.fhir.model.visitor.CopyingVisitor&lt;-com.ibm.fhir.server.util.ReferenceMappingVisitor" style="stroke: #A80036; stroke-width: 1.0;"/><polygon fill="none" points="161.0001,111.2741,168,91.2741,175.0001,111.274,161.0001,111.2741" style="stroke: #A80036; stroke-width: 1.0;"/><!--MD5=[3879ffe6deb5ad7c8352064973ab077c]
link com.ibm.fhir.server.util.IssueTypeToHttpStatusMapper to com.ibm.fhir.server.util.Handling--><!--MD5=[0c989ee99135e985a987ad13f99c1aea]
link com.ibm.fhir.server.util.IssueTypeToHttpStatusMapper to com.ibm.fhir.server.util.RestAuditLogger--><text fill="#888888" font-family="sans-serif" font-size="10" lengthAdjust="spacingAndGlyphs" textLength="182" x="324" y="588.668">UMLDoclet 2.0.7, PlantUML 1.2019.12</text><!--MD5=[6987201f266843355c4e6f069f6d60a3]
@startuml
    namespace com.ibm.fhir.server.util {

        class ReferenceMappingVisitor<T extends Visitable> [[ReferenceMappingVisitor.html]] {
            ~errorMsg: String
            +ReferenceMappingVisitor(Map<String, String>)
            +visit(String, int, Reference): boolean
            +getErrorMsg(): String
        }

        class IssueTypeToHttpStatusMapper [[IssueTypeToHttpStatusMapper.html]] {
            {static} +ooToStatus(OperationOutcome): Status
            {static} +issueListToStatus(List<Issue>): Status
            {static} +issueTypeToResponseCode(ValueSet): Status
        }

        enum Handling [[Handling.html]] {
            {static} +LENIENT
            {static} +LENIENT_ONLY
            {static} +STRICT
            {static} +STRICT_ONLY
            {static} +from(String): Handling
            +value(): String
        }

        class RestAuditLogger [[RestAuditLogger.html]] {
            {static} +logCreate(HttpServletRequest, Resource, Date, Date, Status): void
            {static} +logUpdate(HttpServletRequest, Resource, Resource, Date, Date, Status): void
            {static} +logPatch(HttpServletRequest, Resource, Resource, Date, Date, Status): void
            {static} +logRead(HttpServletRequest, Resource, Date, Date, Status): void
            {static} +logDelete(HttpServletRequest, Resource, Date, Date, Status): void
            {static} +logVersionRead(HttpServletRequest, Resource, Date, Date, Status): void
            {static} +logHistory(HttpServletRequest, Bundle, Date, Date, Status): void
            {static} +logValidate(HttpServletRequest, Resource, Date, Date, Status): void
            {static} +logBundle(HttpServletRequest, Bundle, Date, Date, Status): void
            {static} +logSearch(HttpServletRequest, MultivaluedMap<String, String>, Bundle, Date, Date, Status): void
            {static} +logMetadata(HttpServletRequest, Date, Date, Status): void
            {static} +logConfig(String): void
            {static} +logOperation(HttpServletRequest, String, String, String, String, Date, Date, Status): void
        }

        com.ibm.fhir.model.visitor.CopyingVisitor <|- - ReferenceMappingVisitor
    }

    namespace com.ibm.fhir.model.visitor {
        class CopyingVisitor<T extends Visitable> [[../../model/visitor/CopyingVisitor.html]] {
        }
    }

    center footer UMLDoclet 2.0.7, PlantUML 1.2019.12
@enduml

PlantUML version 1.2019.12(Sun Nov 03 05:24:54 EST 2019)
(APACHE source distribution)
Java Runtime: OpenJDK Runtime Environment
JVM: OpenJDK 64-Bit Server VM
Java Version: 11.0.4+11
Operating System: Mac OS X
Default Encoding: UTF-8
Language: en
Country: US
--></g></svg>