<?xml version="1.0" encoding="UTF-8" standalone="no"?><svg xmlns="http://www.w3.org/2000/svg" xmlns:xlink="http://www.w3.org/1999/xlink" contentScriptType="application/ecmascript" contentStyleType="text/css" height="346px" preserveAspectRatio="none" style="width:610px;height:346px;" version="1.1" viewBox="0 0 610 346" width="610px" zoomAndPan="magnify"><defs><filter height="300%" id="fx9p4puxi8xn8" width="300%" x="-1" y="-1"><feGaussianBlur result="blurOut" stdDeviation="2.0"/><feColorMatrix in="blurOut" result="blurOut2" type="matrix" values="0 0 0 0 0 0 0 0 0 0 0 0 0 0 0 0 0 0 .4 0"/><feOffset dx="4.0" dy="4.0" in="blurOut2" result="blurOut3"/><feBlend in="SourceGraphic" in2="blurOut3" mode="normal"/></filter></defs><g><!--MD5=[8666092cbc3cfe7f5d7322fd8d4f5f8e]
class com.ibm.fhir.path.evaluator.FHIRPathEvaluator--><a href="FHIRPathEvaluator.html" target="_top" title="FHIRPathEvaluator.html" xlink:actuate="onRequest" xlink:href="FHIRPathEvaluator.html" xlink:show="new" xlink:title="FHIRPathEvaluator.html" xlink:type="simple"><rect fill="#FEFECE" filter="url(#fx9p4puxi8xn8)" height="207.5938" id="com.ibm.fhir.path.evaluator.FHIRPathEvaluator" style="stroke: #A80036; stroke-width: 1.5;" width="543" x="28" y="8"/><ellipse cx="227.75" cy="26.9688" fill="#ADD1B2" rx="11" ry="11" style="stroke: #A80036; stroke-width: 1.0;"/><path d="M230.7188,32.6094 Q230.1406,32.9063 229.5,33.0469 Q228.8594,33.2031 228.1563,33.2031 Q225.6563,33.2031 224.3281,31.5625 Q223.0156,29.9063 223.0156,26.7813 Q223.0156,23.6563 224.3281,22 Q225.6563,20.3438 228.1563,20.3438 Q228.8594,20.3438 229.5,20.5 Q230.1563,20.6563 230.7188,20.9531 L230.7188,23.6719 Q230.0938,23.0938 229.5,22.8281 Q228.9063,22.5469 228.2813,22.5469 Q226.9375,22.5469 226.25,23.625 Q225.5625,24.6875 225.5625,26.7813 Q225.5625,28.875 226.25,29.9531 Q226.9375,31.0156 228.2813,31.0156 Q228.9063,31.0156 229.5,30.75 Q230.0938,30.4688 230.7188,29.8906 L230.7188,32.6094 Z "/><text fill="#000000" font-family="sans-serif" font-size="14" lengthAdjust="spacingAndGlyphs" textLength="125" x="253.25" y="25.9951">FHIRPathEvaluator</text><text fill="#000000" font-family="sans-serif" font-size="10" lengthAdjust="spacingAndGlyphs" textLength="135" x="248.25" y="38.5791">com.ibm.fhir.path.evaluator</text><line style="stroke: #A80036; stroke-width: 1.5;" x1="29" x2="570" y1="45.9375" y2="45.9375"/><ellipse cx="39" cy="56.9375" fill="none" rx="3" ry="3" style="stroke: #038048; stroke-width: 1.0;"/><text fill="#000000" font-family="sans-serif" font-size="11" lengthAdjust="spacingAndGlyphs" text-decoration="underline" textLength="93" x="48" y="60.1479">DEBUG: boolean</text><ellipse cx="39" cy="69.7422" fill="none" rx="3" ry="3" style="stroke: #038048; stroke-width: 1.0;"/><text fill="#000000" font-family="sans-serif" font-size="11" lengthAdjust="spacingAndGlyphs" text-decoration="underline" textLength="259" x="48" y="72.9526">SINGLETON_TRUE: Collection&lt;FHIRPathNode&gt;</text><ellipse cx="39" cy="82.5469" fill="none" rx="3" ry="3" style="stroke: #038048; stroke-width: 1.0;"/><text fill="#000000" font-family="sans-serif" font-size="11" lengthAdjust="spacingAndGlyphs" text-decoration="underline" textLength="264" x="48" y="85.7573">SINGLETON_FALSE: Collection&lt;FHIRPathNode&gt;</text><line style="stroke: #A80036; stroke-width: 1.5;" x1="29" x2="570" y1="92.3516" y2="92.3516"/><ellipse cx="39" cy="103.3516" fill="#84BE84" rx="3" ry="3" style="stroke: #038048; stroke-width: 1.0;"/><text fill="#000000" font-family="sans-serif" font-size="11" lengthAdjust="spacingAndGlyphs" textLength="236" x="48" y="106.562">getEvaluationContext(): EvaluationContext</text><ellipse cx="39" cy="116.1563" fill="#84BE84" rx="3" ry="3" style="stroke: #038048; stroke-width: 1.0;"/><text fill="#000000" font-family="sans-serif" font-size="11" lengthAdjust="spacingAndGlyphs" textLength="249" x="48" y="119.3667">evaluate(String): Collection&lt;FHIRPathNode&gt;</text><ellipse cx="39" cy="128.9609" fill="#84BE84" rx="3" ry="3" style="stroke: #038048; stroke-width: 1.0;"/><text fill="#000000" font-family="sans-serif" font-size="11" lengthAdjust="spacingAndGlyphs" textLength="305" x="48" y="132.1714">evaluate(Visitable, String): Collection&lt;FHIRPathNode&gt;</text><ellipse cx="39" cy="141.7656" fill="#84BE84" rx="3" ry="3" style="stroke: #038048; stroke-width: 1.0;"/><text fill="#000000" font-family="sans-serif" font-size="11" lengthAdjust="spacingAndGlyphs" textLength="310" x="48" y="144.9761">evaluate(Resource, String): Collection&lt;FHIRPathNode&gt;</text><ellipse cx="39" cy="154.5703" fill="#84BE84" rx="3" ry="3" style="stroke: #038048; stroke-width: 1.0;"/><text fill="#000000" font-family="sans-serif" font-size="11" lengthAdjust="spacingAndGlyphs" textLength="303" x="48" y="157.7808">evaluate(Element, String): Collection&lt;FHIRPathNode&gt;</text><ellipse cx="39" cy="167.375" fill="#84BE84" rx="3" ry="3" style="stroke: #038048; stroke-width: 1.0;"/><text fill="#000000" font-family="sans-serif" font-size="11" lengthAdjust="spacingAndGlyphs" textLength="358" x="48" y="170.5854">evaluate(EvaluationContext, String): Collection&lt;FHIRPathNode&gt;</text><ellipse cx="39" cy="180.1797" fill="#84BE84" rx="3" ry="3" style="stroke: #038048; stroke-width: 1.0;"/><text fill="#000000" font-family="sans-serif" font-size="11" lengthAdjust="spacingAndGlyphs" textLength="444" x="48" y="183.3901">evaluate(EvaluationContext, String, FHIRPathNode): Collection&lt;FHIRPathNode&gt;</text><ellipse cx="39" cy="192.9844" fill="#84BE84" rx="3" ry="3" style="stroke: #038048; stroke-width: 1.0;"/><text fill="#000000" font-family="sans-serif" font-size="11" lengthAdjust="spacingAndGlyphs" textLength="517" x="48" y="196.1948">evaluate(EvaluationContext, String, Collection&lt;FHIRPathNode&gt;): Collection&lt;FHIRPathNode&gt;</text><ellipse cx="39" cy="205.7891" fill="#84BE84" rx="3" ry="3" style="stroke: #038048; stroke-width: 1.0;"/><text fill="#000000" font-family="sans-serif" font-size="11" lengthAdjust="spacingAndGlyphs" text-decoration="underline" textLength="171" x="48" y="208.9995">evaluator(): FHIRPathEvaluator</text></a><!--MD5=[9e2365b8a5aa761184214984801ea2b5]
class com.ibm.fhir.path.evaluator.FHIRPathEvaluator.EvaluatingVisitor--><a href="FHIRPathEvaluator.EvaluatingVisitor.html" target="_top" title="FHIRPathEvaluator.EvaluatingVisitor.html" xlink:actuate="onRequest" xlink:href="FHIRPathEvaluator.EvaluatingVisitor.html" xlink:show="new" xlink:title="FHIRPathEvaluator.EvaluatingVisitor.html" xlink:type="simple"><rect fill="#FEFECE" filter="url(#fx9p4puxi8xn8)" height="37.9375" id="com.ibm.fhir.path.evaluator.FHIRPathEvaluator.EvaluatingVisitor" style="stroke: #A80036; stroke-width: 1.5;" width="273" x="6" y="276"/><ellipse cx="21" cy="294.9688" fill="#ADD1B2" rx="11" ry="11" style="stroke: #A80036; stroke-width: 1.0;"/><path d="M23.9688,300.6094 Q23.3906,300.9063 22.75,301.0469 Q22.1094,301.2031 21.4063,301.2031 Q18.9063,301.2031 17.5781,299.5625 Q16.2656,297.9063 16.2656,294.7813 Q16.2656,291.6563 17.5781,290 Q18.9063,288.3438 21.4063,288.3438 Q22.1094,288.3438 22.75,288.5 Q23.4063,288.6563 23.9688,288.9531 L23.9688,291.6719 Q23.3438,291.0938 22.75,290.8281 Q22.1563,290.5469 21.5313,290.5469 Q20.1875,290.5469 19.5,291.625 Q18.8125,292.6875 18.8125,294.7813 Q18.8125,296.875 19.5,297.9531 Q20.1875,299.0156 21.5313,299.0156 Q22.1563,299.0156 22.75,298.75 Q23.3438,298.4688 23.9688,297.8906 L23.9688,300.6094 Z "/><text fill="#000000" font-family="sans-serif" font-size="14" lengthAdjust="spacingAndGlyphs" textLength="241" x="35" y="293.9951">FHIRPathEvaluator.EvaluatingVisitor</text><text fill="#000000" font-family="sans-serif" font-size="10" lengthAdjust="spacingAndGlyphs" textLength="135" x="88" y="306.5791">com.ibm.fhir.path.evaluator</text></a><!--MD5=[b0f33801e6b8b67af6b975477cceb64a]
class com.ibm.fhir.path.evaluator.FHIRPathEvaluator.EvaluationContext--><a href="FHIRPathEvaluator.EvaluationContext.html" target="_top" title="FHIRPathEvaluator.EvaluationContext.html" xlink:actuate="onRequest" xlink:href="FHIRPathEvaluator.EvaluationContext.html" xlink:show="new" xlink:title="FHIRPathEvaluator.EvaluationContext.html" xlink:type="simple"><rect fill="#FEFECE" filter="url(#fx9p4puxi8xn8)" height="37.9375" id="com.ibm.fhir.path.evaluator.FHIRPathEvaluator.EvaluationContext" style="stroke: #A80036; stroke-width: 1.5;" width="285" x="314" y="276"/><ellipse cx="329" cy="294.9688" fill="#ADD1B2" rx="11" ry="11" style="stroke: #A80036; stroke-width: 1.0;"/><path d="M331.9688,300.6094 Q331.3906,300.9063 330.75,301.0469 Q330.1094,301.2031 329.4063,301.2031 Q326.9063,301.2031 325.5781,299.5625 Q324.2656,297.9063 324.2656,294.7813 Q324.2656,291.6563 325.5781,290 Q326.9063,288.3438 329.4063,288.3438 Q330.1094,288.3438 330.75,288.5 Q331.4063,288.6563 331.9688,288.9531 L331.9688,291.6719 Q331.3438,291.0938 330.75,290.8281 Q330.1563,290.5469 329.5313,290.5469 Q328.1875,290.5469 327.5,291.625 Q326.8125,292.6875 326.8125,294.7813 Q326.8125,296.875 327.5,297.9531 Q328.1875,299.0156 329.5313,299.0156 Q330.1563,299.0156 330.75,298.75 Q331.3438,298.4688 331.9688,297.8906 L331.9688,300.6094 Z "/><text fill="#000000" font-family="sans-serif" font-size="14" lengthAdjust="spacingAndGlyphs" textLength="253" x="343" y="293.9951">FHIRPathEvaluator.EvaluationContext</text><text fill="#000000" font-family="sans-serif" font-size="10" lengthAdjust="spacingAndGlyphs" textLength="135" x="402" y="306.5791">com.ibm.fhir.path.evaluator</text></a><!--MD5=[00c6ea902c0a4ced271b50774fb69d39]
reverse link com.ibm.fhir.path.evaluator.FHIRPathEvaluator to com.ibm.fhir.path.evaluator.FHIRPathEvaluator.EvaluatingVisitor--><path d="M200.3747,227.5409 C184.3263,246.2471 169.5157,263.5103 158.8949,275.8901 " fill="none" id="com.ibm.fhir.path.evaluator.FHIRPathEvaluator&lt;-com.ibm.fhir.path.evaluator.FHIRPathEvaluator.EvaluatingVisitor" style="stroke: #A80036; stroke-width: 1.0;"/><ellipse cx="205.0122" cy="222.1354" fill="#FFFFFF" rx="8" ry="8" style="stroke: #A80036; stroke-width: 1.0;"/><line style="stroke: #A80036; stroke-width: 1.0;" x1="199.8032" x2="210.2213" y1="228.2071" y2="216.0637"/><line style="stroke: #A80036; stroke-width: 1.0;" x1="198.9405" x2="211.0839" y1="216.9263" y2="227.3445"/><!--MD5=[33bbcef5cef2bd5bbf0ba1dfdf514156]
reverse link com.ibm.fhir.path.evaluator.FHIRPathEvaluator to com.ibm.fhir.path.evaluator.FHIRPathEvaluator.EvaluationContext--><path d="M398.6253,227.5409 C414.6737,246.2471 429.4843,263.5103 440.1051,275.8901 " fill="none" id="com.ibm.fhir.path.evaluator.FHIRPathEvaluator&lt;-com.ibm.fhir.path.evaluator.FHIRPathEvaluator.EvaluationContext" style="stroke: #A80036; stroke-width: 1.0;"/><ellipse cx="393.9878" cy="222.1354" fill="#FFFFFF" rx="8" ry="8" style="stroke: #A80036; stroke-width: 1.0;"/><line style="stroke: #A80036; stroke-width: 1.0;" x1="399.1968" x2="388.7787" y1="228.2071" y2="216.0637"/><line style="stroke: #A80036; stroke-width: 1.0;" x1="387.9161" x2="400.0595" y1="227.3445" y2="216.9263"/><text fill="#888888" font-family="sans-serif" font-size="10" lengthAdjust="spacingAndGlyphs" textLength="186" x="215.5" y="333.2822">UMLDoclet 2.0.7, PlantUML 1.2019.12</text><!--MD5=[635b2be826dc8e9a6bdb3995fb55612f]
@startuml
    set namespaceSeparator none
    hide empty fields
    hide empty methods

    class "<size:14>FHIRPathEvaluator\n<size:10>com.ibm.fhir.path.evaluator" as com.ibm.fhir.path.evaluator.FHIRPathEvaluator [[FHIRPathEvaluator.html]] {
        {static} +DEBUG: boolean
        {static} +SINGLETON_TRUE: Collection<FHIRPathNode>
        {static} +SINGLETON_FALSE: Collection<FHIRPathNode>
        +getEvaluationContext(): EvaluationContext
        +evaluate(String): Collection<FHIRPathNode>
        +evaluate(Visitable, String): Collection<FHIRPathNode>
        +evaluate(Resource, String): Collection<FHIRPathNode>
        +evaluate(Element, String): Collection<FHIRPathNode>
        +evaluate(EvaluationContext, String): Collection<FHIRPathNode>
        +evaluate(EvaluationContext, String, FHIRPathNode): Collection<FHIRPathNode>
        +evaluate(EvaluationContext, String, Collection<FHIRPathNode>): Collection<FHIRPathNode>
        {static} +evaluator(): FHIRPathEvaluator
    }
    class "<size:14>FHIRPathEvaluator.EvaluatingVisitor\n<size:10>com.ibm.fhir.path.evaluator" as com.ibm.fhir.path.evaluator.FHIRPathEvaluator.EvaluatingVisitor [[FHIRPathEvaluator.EvaluatingVisitor.html]]
    class "<size:14>FHIRPathEvaluator.EvaluationContext\n<size:10>com.ibm.fhir.path.evaluator" as com.ibm.fhir.path.evaluator.FHIRPathEvaluator.EvaluationContext [[FHIRPathEvaluator.EvaluationContext.html]]

    com.ibm.fhir.path.evaluator.FHIRPathEvaluator +- - com.ibm.fhir.path.evaluator.FHIRPathEvaluator.EvaluatingVisitor
    com.ibm.fhir.path.evaluator.FHIRPathEvaluator +- - com.ibm.fhir.path.evaluator.FHIRPathEvaluator.EvaluationContext

    center footer UMLDoclet 2.0.7, PlantUML 1.2019.12
@enduml

PlantUML version 1.2019.12(Sun Nov 03 10:24:54 UTC 2019)
(APACHE source distribution)
Java Runtime: OpenJDK Runtime Environment
JVM: OpenJDK 64-Bit Server VM
Java Version: 11.0.6+10
Operating System: Linux
Default Encoding: UTF-8
Language: en
Country: null
--></g></svg>