<?xml version="1.0" encoding="UTF-8" standalone="no"?><svg xmlns="http://www.w3.org/2000/svg" xmlns:xlink="http://www.w3.org/1999/xlink" contentScriptType="application/ecmascript" contentStyleType="text/css" height="392px" preserveAspectRatio="none" style="width:660px;height:392px;" version="1.1" viewBox="0 0 660 392" width="660px" zoomAndPan="magnify"><defs><filter height="300%" id="f1m45uurhj98p5" width="300%" x="-1" y="-1"><feGaussianBlur result="blurOut" stdDeviation="2.0"/><feColorMatrix in="blurOut" result="blurOut2" type="matrix" values="0 0 0 0 0 0 0 0 0 0 0 0 0 0 0 0 0 0 .4 0"/><feOffset dx="4.0" dy="4.0" in="blurOut2" result="blurOut3"/><feBlend in="SourceGraphic" in2="blurOut3" mode="normal"/></filter></defs><g><!--MD5=[45c5cb684ca3237c7c87c31be20bdac7]
class com.ibm.fhir.bulkdata.jbatch.export.patient.ChunkReader--><a href="ChunkReader.html" target="_top" title="ChunkReader.html" xlink:actuate="onRequest" xlink:href="ChunkReader.html" xlink:show="new" xlink:title="ChunkReader.html" xlink:type="simple"><rect fill="#FEFECE" filter="url(#f1m45uurhj98p5)" height="233.2031" id="com.ibm.fhir.bulkdata.jbatch.export.patient.ChunkReader" style="stroke: #A80036; stroke-width: 1.5;" width="643" x="6" y="127"/><ellipse cx="218.75" cy="145.9688" fill="#ADD1B2" rx="11" ry="11" style="stroke: #A80036; stroke-width: 1.0;"/><path d="M221.7188,151.6094 Q221.1406,151.9063 220.5,152.0469 Q219.8594,152.2031 219.1563,152.2031 Q216.6563,152.2031 215.3281,150.5625 Q214.0156,148.9063 214.0156,145.7813 Q214.0156,142.6563 215.3281,141 Q216.6563,139.3438 219.1563,139.3438 Q219.8594,139.3438 220.5,139.5 Q221.1563,139.6563 221.7188,139.9531 L221.7188,142.6719 Q221.0938,142.0938 220.5,141.8281 Q219.9063,141.5469 219.2813,141.5469 Q217.9375,141.5469 217.25,142.625 Q216.5625,143.6875 216.5625,145.7813 Q216.5625,147.875 217.25,148.9531 Q217.9375,150.0156 219.2813,150.0156 Q219.9063,150.0156 220.5,149.75 Q221.0938,149.4688 221.7188,148.8906 L221.7188,151.6094 Z "/><text fill="#000000" font-family="sans-serif" font-size="14" lengthAdjust="spacingAndGlyphs" textLength="95" x="296.25" y="144.9951">ChunkReader</text><text fill="#000000" font-family="sans-serif" font-size="10" lengthAdjust="spacingAndGlyphs" textLength="209" x="239.25" y="157.5791">com.ibm.fhir.bulkdata.jbatch.export.patient</text><line style="stroke: #A80036; stroke-width: 1.5;" x1="7" x2="648" y1="164.9375" y2="164.9375"/><polygon fill="none" points="17,170.9375,21,174.9375,17,178.9375,13,174.9375" style="stroke: #B38D22; stroke-width: 1.0;"/><text fill="#000000" font-family="sans-serif" font-size="11" lengthAdjust="spacingAndGlyphs" textLength="76" x="26" y="179.1479">pageNum: int</text><polygon fill="none" points="17,183.7422,21,187.7422,17,191.7422,13,187.7422" style="stroke: #B38D22; stroke-width: 1.0;"/><text fill="#000000" font-family="sans-serif" font-size="11" lengthAdjust="spacingAndGlyphs" textLength="73" x="26" y="191.9526">pageSize: int</text><polygon fill="none" points="17,196.5469,21,200.5469,17,204.5469,13,200.5469" style="stroke: #B38D22; stroke-width: 1.0;"/><text fill="#000000" font-family="sans-serif" font-size="11" lengthAdjust="spacingAndGlyphs" textLength="248" x="26" y="204.7573">resourceType: Class&lt;? extends Resource&gt;</text><polygon fill="none" points="17,209.3516,21,213.3516,17,217.3516,13,213.3516" style="stroke: #B38D22; stroke-width: 1.0;"/><text fill="#000000" font-family="sans-serif" font-size="11" lengthAdjust="spacingAndGlyphs" textLength="617" x="26" y="217.562">searchParametersForResoureTypes: Map&lt;Class&lt;? extends Resource&gt;, List&lt;Map&lt;String, List&lt;String&gt;&gt;&gt;&gt;</text><polygon fill="none" points="17,222.1563,21,226.1563,17,230.1563,13,226.1563" style="stroke: #B38D22; stroke-width: 1.0;"/><text fill="#000000" font-family="sans-serif" font-size="11" lengthAdjust="spacingAndGlyphs" textLength="117" x="26" y="230.3667">ctx: BulkDataContext</text><polygon fill="none" points="17,235.9609,13,241.9609,21,241.9609" style="stroke: #1963A0; stroke-width: 1.0;"/><text fill="#000000" font-family="sans-serif" font-size="11" lengthAdjust="spacingAndGlyphs" textLength="174" x="26" y="243.1714">isDoDuplicationCheck: boolean</text><polygon fill="none" points="17,248.7656,13,254.7656,21,254.7656" style="stroke: #1963A0; stroke-width: 1.0;"/><text fill="#000000" font-family="sans-serif" font-size="11" lengthAdjust="spacingAndGlyphs" textLength="173" x="26" y="255.9761">loadedPatientIds: Set&lt;String&gt;</text><polygon fill="none" points="17,261.5703,13,267.5703,21,267.5703" style="stroke: #1963A0; stroke-width: 1.0;"/><text fill="#000000" font-family="sans-serif" font-size="11" lengthAdjust="spacingAndGlyphs" textLength="120" x="26" y="268.7808">stepCtx: StepContext</text><polygon fill="none" points="17,274.375,13,280.375,21,280.375" style="stroke: #1963A0; stroke-width: 1.0;"/><text fill="#000000" font-family="sans-serif" font-size="11" lengthAdjust="spacingAndGlyphs" textLength="103" x="26" y="281.5854">jobCtx: JobContext</text><line style="stroke: #A80036; stroke-width: 1.5;" x1="7" x2="648" y1="288.1797" y2="288.1797"/><ellipse cx="17" cy="299.1797" fill="#84BE84" rx="3" ry="3" style="stroke: #038048; stroke-width: 1.0;"/><text fill="#000000" font-family="sans-serif" font-size="11" lengthAdjust="spacingAndGlyphs" textLength="132" x="26" y="302.3901">open(Serializable): void</text><ellipse cx="17" cy="311.9844" fill="#84BE84" rx="3" ry="3" style="stroke: #038048; stroke-width: 1.0;"/><text fill="#000000" font-family="sans-serif" font-size="11" lengthAdjust="spacingAndGlyphs" textLength="69" x="26" y="315.1948">close(): void</text><ellipse cx="17" cy="324.7891" fill="#84BE84" rx="3" ry="3" style="stroke: #038048; stroke-width: 1.0;"/><text fill="#000000" font-family="sans-serif" font-size="11" lengthAdjust="spacingAndGlyphs" textLength="162" x="26" y="327.9995">checkpointInfo(): Serializable</text><ellipse cx="17" cy="337.5938" fill="#84BE84" rx="3" ry="3" style="stroke: #038048; stroke-width: 1.0;"/><text fill="#000000" font-family="sans-serif" font-size="11" lengthAdjust="spacingAndGlyphs" textLength="103" x="26" y="340.8042">readItem(): Object</text><polygon fill="#FFFF44" points="17,345.3984,21,349.3984,17,353.3984,13,349.3984" style="stroke: #B38D22; stroke-width: 1.0;"/><text fill="#000000" font-family="sans-serif" font-size="11" lengthAdjust="spacingAndGlyphs" textLength="192" x="26" y="353.6089">getPersistence(): FHIRPersistence</text></a><!--MD5=[f5f528b51f1c46550a0d517e968fc43d]
class javax.batch.api.chunk.AbstractItemReader--><rect fill="#FEFECE" filter="url(#f1m45uurhj98p5)" height="58.7422" id="javax.batch.api.chunk.AbstractItemReader" style="stroke: #A80036; stroke-width: 1.5;" width="170" x="242.5" y="8"/><ellipse cx="257.5" cy="26.9688" fill="#A9DCDF" rx="11" ry="11" style="stroke: #A80036; stroke-width: 1.0;"/><path d="M257.6094,22.3125 L256.4531,27.3906 L258.7813,27.3906 L257.6094,22.3125 Z M256.125,20.0781 L259.1094,20.0781 L262.4688,32.4688 L260.0156,32.4688 L259.25,29.4063 L255.9688,29.4063 L255.2188,32.4688 L252.7813,32.4688 L256.125,20.0781 Z "/><text fill="#000000" font-family="sans-serif" font-size="14" font-style="italic" lengthAdjust="spacingAndGlyphs" textLength="138" x="271.5" y="25.9951">AbstractItemReader</text><text fill="#000000" font-family="sans-serif" font-size="10" font-style="italic" lengthAdjust="spacingAndGlyphs" textLength="109" x="286" y="38.5791">javax.batch.api.chunk</text><line style="stroke: #A80036; stroke-width: 1.5;" x1="243.5" x2="411.5" y1="45.9375" y2="45.9375"/><ellipse cx="253.5" cy="56.9375" fill="#84BE84" rx="3" ry="3" style="stroke: #038048; stroke-width: 1.0;"/><text fill="#000000" font-family="sans-serif" font-size="11" font-style="italic" lengthAdjust="spacingAndGlyphs" textLength="103" x="262.5" y="60.1479">readItem(): Object</text><!--MD5=[421d99a01494185a45b68920335cf726]
reverse link javax.batch.api.chunk.AbstractItemReader to com.ibm.fhir.bulkdata.jbatch.export.patient.ChunkReader--><path d="M327.5,87.41 C327.5,99.55 327.5,113.08 327.5,126.94 " fill="none" id="javax.batch.api.chunk.AbstractItemReader&lt;-com.ibm.fhir.bulkdata.jbatch.export.patient.ChunkReader" style="stroke: #A80036; stroke-width: 1.0;"/><polygon fill="none" points="320.5,87.3,327.5,67.3,334.5,87.3,320.5,87.3" style="stroke: #A80036; stroke-width: 1.0;"/><text fill="#888888" font-family="sans-serif" font-size="10" lengthAdjust="spacingAndGlyphs" textLength="186" x="240.5" y="379.2822">UMLDoclet 2.0.7, PlantUML 1.2019.12</text><!--MD5=[bbc467115ac3dc10c6c38f303619fa46]
@startuml
    set namespaceSeparator none
    hide empty fields
    hide empty methods

    class "<size:14>ChunkReader\n<size:10>com.ibm.fhir.bulkdata.jbatch.export.patient" as com.ibm.fhir.bulkdata.jbatch.export.patient.ChunkReader [[ChunkReader.html]] {
        #pageNum: int
        #pageSize: int
        #resourceType: Class<? extends Resource>
        #searchParametersForResoureTypes: Map<Class<? extends Resource>, List<Map<String, List<String>>>>
        #ctx: BulkDataContext
        ~isDoDuplicationCheck: boolean
        ~loadedPatientIds: Set<String>
        ~stepCtx: StepContext
        ~jobCtx: JobContext
        +open(Serializable): void
        +close(): void
        +checkpointInfo(): Serializable
        +readItem(): Object
        #getPersistence(): FHIRPersistence
    }

    abstract class "<size:14>AbstractItemReader\n<size:10>javax.batch.api.chunk" as javax.batch.api.chunk.AbstractItemReader {
        {abstract} +readItem(): Object
    }

    javax.batch.api.chunk.AbstractItemReader <|- - com.ibm.fhir.bulkdata.jbatch.export.patient.ChunkReader

    center footer UMLDoclet 2.0.7, PlantUML 1.2019.12
@enduml

PlantUML version 1.2019.12(Sun Nov 03 10:24:54 UTC 2019)
(APACHE source distribution)
Java Runtime: OpenJDK Runtime Environment
JVM: OpenJDK 64-Bit Server VM
Java Version: 11.0.10+9
Operating System: Linux
Default Encoding: UTF-8
Language: en
Country: null
--></g></svg>