<?xml version="1.0" encoding="UTF-8" standalone="no"?><svg xmlns="http://www.w3.org/2000/svg" xmlns:xlink="http://www.w3.org/1999/xlink" contentScriptType="application/ecmascript" contentStyleType="text/css" height="261px" preserveAspectRatio="none" style="width:494px;height:261px;" version="1.1" viewBox="0 0 494 261" width="494px" zoomAndPan="magnify"><defs><filter height="300%" id="fgwq9sw968g3q" width="300%" x="-1" y="-1"><feGaussianBlur result="blurOut" stdDeviation="2.0"/><feColorMatrix in="blurOut" result="blurOut2" type="matrix" values="0 0 0 0 0 0 0 0 0 0 0 0 0 0 0 0 0 0 .4 0"/><feOffset dx="4.0" dy="4.0" in="blurOut2" result="blurOut3"/><feBlend in="SourceGraphic" in2="blurOut3" mode="normal"/></filter></defs><g><!--MD5=[533b84095ac8b11c1ad9f779b8071dfb]
class com.ibm.fhir.term.spi.TranslationOutcome--><a href="TranslationOutcome.html" target="_top" title="TranslationOutcome.html" xlink:actuate="onRequest" xlink:href="TranslationOutcome.html" xlink:show="new" xlink:title="TranslationOutcome.html" xlink:type="simple"><rect fill="#FEFECE" filter="url(#fgwq9sw968g3q)" height="122.7656" id="com.ibm.fhir.term.spi.TranslationOutcome" style="stroke: #A80036; stroke-width: 1.5;" width="187" x="152.5" y="8"/><ellipse cx="174.25" cy="26.9688" fill="#ADD1B2" rx="11" ry="11" style="stroke: #A80036; stroke-width: 1.0;"/><path d="M177.2188,32.6094 Q176.6406,32.9063 176,33.0469 Q175.3594,33.2031 174.6563,33.2031 Q172.1563,33.2031 170.8281,31.5625 Q169.5156,29.9063 169.5156,26.7813 Q169.5156,23.6563 170.8281,22 Q172.1563,20.3438 174.6563,20.3438 Q175.3594,20.3438 176,20.5 Q176.6563,20.6563 177.2188,20.9531 L177.2188,23.6719 Q176.5938,23.0938 176,22.8281 Q175.4063,22.5469 174.7813,22.5469 Q173.4375,22.5469 172.75,23.625 Q172.0625,24.6875 172.0625,26.7813 Q172.0625,28.875 172.75,29.9531 Q173.4375,31.0156 174.7813,31.0156 Q175.4063,31.0156 176,30.75 Q176.5938,30.4688 177.2188,29.8906 L177.2188,32.6094 Z "/><text fill="#000000" font-family="sans-serif" font-size="14" lengthAdjust="spacingAndGlyphs" textLength="140" x="189.75" y="25.9951">TranslationOutcome</text><text fill="#000000" font-family="sans-serif" font-size="10" lengthAdjust="spacingAndGlyphs" textLength="104" x="207.75" y="38.5791">com.ibm.fhir.term.spi</text><line style="stroke: #A80036; stroke-width: 1.5;" x1="153.5" x2="338.5" y1="45.9375" y2="45.9375"/><ellipse cx="163.5" cy="56.9375" fill="#84BE84" rx="3" ry="3" style="stroke: #038048; stroke-width: 1.0;"/><text fill="#000000" font-family="sans-serif" font-size="11" lengthAdjust="spacingAndGlyphs" textLength="115" x="172.5" y="60.1479">getResult(): Boolean</text><ellipse cx="163.5" cy="69.7422" fill="#84BE84" rx="3" ry="3" style="stroke: #038048; stroke-width: 1.0;"/><text fill="#000000" font-family="sans-serif" font-size="11" lengthAdjust="spacingAndGlyphs" textLength="119" x="172.5" y="72.9526">getMessage(): String</text><ellipse cx="163.5" cy="82.5469" fill="#84BE84" rx="3" ry="3" style="stroke: #038048; stroke-width: 1.0;"/><text fill="#000000" font-family="sans-serif" font-size="11" lengthAdjust="spacingAndGlyphs" textLength="138" x="172.5" y="85.7573">getMatch(): List&lt;Match&gt;</text><ellipse cx="163.5" cy="95.3516" fill="#84BE84" rx="3" ry="3" style="stroke: #038048; stroke-width: 1.0;"/><text fill="#000000" font-family="sans-serif" font-size="11" lengthAdjust="spacingAndGlyphs" textLength="161" x="172.5" y="98.562">toParameters(): Parameters</text><ellipse cx="163.5" cy="108.1563" fill="#84BE84" rx="3" ry="3" style="stroke: #038048; stroke-width: 1.0;"/><text fill="#000000" font-family="sans-serif" font-size="11" lengthAdjust="spacingAndGlyphs" textLength="107" x="172.5" y="111.3667">toBuilder(): Builder</text><ellipse cx="163.5" cy="120.9609" fill="#84BE84" rx="3" ry="3" style="stroke: #038048; stroke-width: 1.0;"/><text fill="#000000" font-family="sans-serif" font-size="11" lengthAdjust="spacingAndGlyphs" text-decoration="underline" textLength="95" x="172.5" y="124.1714">builder(): Builder</text></a><!--MD5=[004f6f2ebe5a2dbc635be964fa90bf46]
class com.ibm.fhir.term.spi.TranslationOutcome.Builder--><a href="TranslationOutcome.Builder.html" target="_top" title="TranslationOutcome.Builder.html" xlink:actuate="onRequest" xlink:href="TranslationOutcome.Builder.html" xlink:show="new" xlink:title="TranslationOutcome.Builder.html" xlink:type="simple"><rect fill="#FEFECE" filter="url(#fgwq9sw968g3q)" height="37.9375" id="com.ibm.fhir.term.spi.TranslationOutcome.Builder" style="stroke: #A80036; stroke-width: 1.5;" width="224" x="6" y="191"/><ellipse cx="21" cy="209.9688" fill="#ADD1B2" rx="11" ry="11" style="stroke: #A80036; stroke-width: 1.0;"/><path d="M23.9688,215.6094 Q23.3906,215.9063 22.75,216.0469 Q22.1094,216.2031 21.4063,216.2031 Q18.9063,216.2031 17.5781,214.5625 Q16.2656,212.9063 16.2656,209.7813 Q16.2656,206.6563 17.5781,205 Q18.9063,203.3438 21.4063,203.3438 Q22.1094,203.3438 22.75,203.5 Q23.4063,203.6563 23.9688,203.9531 L23.9688,206.6719 Q23.3438,206.0938 22.75,205.8281 Q22.1563,205.5469 21.5313,205.5469 Q20.1875,205.5469 19.5,206.625 Q18.8125,207.6875 18.8125,209.7813 Q18.8125,211.875 19.5,212.9531 Q20.1875,214.0156 21.5313,214.0156 Q22.1563,214.0156 22.75,213.75 Q23.3438,213.4688 23.9688,212.8906 L23.9688,215.6094 Z "/><text fill="#000000" font-family="sans-serif" font-size="14" lengthAdjust="spacingAndGlyphs" textLength="192" x="35" y="208.9951">TranslationOutcome.Builder</text><text fill="#000000" font-family="sans-serif" font-size="10" lengthAdjust="spacingAndGlyphs" textLength="104" x="79" y="221.5791">com.ibm.fhir.term.spi</text></a><!--MD5=[509d125ef83077d3b8379bd17e3ba85f]
class com.ibm.fhir.term.spi.TranslationOutcome.Match--><a href="TranslationOutcome.Match.html" target="_top" title="TranslationOutcome.Match.html" xlink:actuate="onRequest" xlink:href="TranslationOutcome.Match.html" xlink:show="new" xlink:title="TranslationOutcome.Match.html" xlink:type="simple"><rect fill="#FEFECE" filter="url(#fgwq9sw968g3q)" height="37.9375" id="com.ibm.fhir.term.spi.TranslationOutcome.Match" style="stroke: #A80036; stroke-width: 1.5;" width="218" x="265" y="191"/><ellipse cx="280" cy="209.9688" fill="#ADD1B2" rx="11" ry="11" style="stroke: #A80036; stroke-width: 1.0;"/><path d="M282.9688,215.6094 Q282.3906,215.9063 281.75,216.0469 Q281.1094,216.2031 280.4063,216.2031 Q277.9063,216.2031 276.5781,214.5625 Q275.2656,212.9063 275.2656,209.7813 Q275.2656,206.6563 276.5781,205 Q277.9063,203.3438 280.4063,203.3438 Q281.1094,203.3438 281.75,203.5 Q282.4063,203.6563 282.9688,203.9531 L282.9688,206.6719 Q282.3438,206.0938 281.75,205.8281 Q281.1563,205.5469 280.5313,205.5469 Q279.1875,205.5469 278.5,206.625 Q277.8125,207.6875 277.8125,209.7813 Q277.8125,211.875 278.5,212.9531 Q279.1875,214.0156 280.5313,214.0156 Q281.1563,214.0156 281.75,213.75 Q282.3438,213.4688 282.9688,212.8906 L282.9688,215.6094 Z "/><text fill="#000000" font-family="sans-serif" font-size="14" lengthAdjust="spacingAndGlyphs" textLength="186" x="294" y="208.9951">TranslationOutcome.Match</text><text fill="#000000" font-family="sans-serif" font-size="10" lengthAdjust="spacingAndGlyphs" textLength="104" x="335" y="221.5791">com.ibm.fhir.term.spi</text></a><!--MD5=[3e5c7514988d66ec9302d9763a2448fa]
reverse link com.ibm.fhir.term.spi.TranslationOutcome to com.ibm.fhir.term.spi.TranslationOutcome.Builder--><path d="M179.48,142.47 C162.81,160.52 146.36,178.32 134.68,190.96 " fill="none" id="com.ibm.fhir.term.spi.TranslationOutcome&lt;-com.ibm.fhir.term.spi.TranslationOutcome.Builder" style="stroke: #A80036; stroke-width: 1.0;"/><ellipse cx="184.4284" cy="137.1235" fill="#FFFFFF" rx="8" ry="8" style="stroke: #A80036; stroke-width: 1.0;"/><line style="stroke: #A80036; stroke-width: 1.0;" x1="178.9968" x2="189.86" y1="142.9969" y2="131.25"/><line style="stroke: #A80036; stroke-width: 1.0;" x1="178.5549" x2="190.3018" y1="131.6918" y2="142.5551"/><!--MD5=[5d23f65e0c1aad7d87024ec2d225ea77]
reverse link com.ibm.fhir.term.spi.TranslationOutcome to com.ibm.fhir.term.spi.TranslationOutcome.Match--><path d="M312.52,142.47 C329.19,160.52 345.64,178.32 357.32,190.96 " fill="none" id="com.ibm.fhir.term.spi.TranslationOutcome&lt;-com.ibm.fhir.term.spi.TranslationOutcome.Match" style="stroke: #A80036; stroke-width: 1.0;"/><ellipse cx="307.5716" cy="137.1235" fill="#FFFFFF" rx="8" ry="8" style="stroke: #A80036; stroke-width: 1.0;"/><line style="stroke: #A80036; stroke-width: 1.0;" x1="313.0032" x2="302.14" y1="142.9969" y2="131.25"/><line style="stroke: #A80036; stroke-width: 1.0;" x1="301.6982" x2="313.4451" y1="142.5551" y2="131.6918"/><text fill="#888888" font-family="sans-serif" font-size="10" lengthAdjust="spacingAndGlyphs" textLength="186" x="157.5" y="248.2822">UMLDoclet 2.0.7, PlantUML 1.2019.12</text><!--MD5=[fde4fc209462f2e145f083589cb35e1d]
@startuml
    set namespaceSeparator none
    hide empty fields
    hide empty methods

    class "<size:14>TranslationOutcome\n<size:10>com.ibm.fhir.term.spi" as com.ibm.fhir.term.spi.TranslationOutcome [[TranslationOutcome.html]] {
        +getResult(): Boolean
        +getMessage(): String
        +getMatch(): List<Match>
        +toParameters(): Parameters
        +toBuilder(): Builder
        {static} +builder(): Builder
    }
    class "<size:14>TranslationOutcome.Builder\n<size:10>com.ibm.fhir.term.spi" as com.ibm.fhir.term.spi.TranslationOutcome.Builder [[TranslationOutcome.Builder.html]]
    class "<size:14>TranslationOutcome.Match\n<size:10>com.ibm.fhir.term.spi" as com.ibm.fhir.term.spi.TranslationOutcome.Match [[TranslationOutcome.Match.html]]

    com.ibm.fhir.term.spi.TranslationOutcome +- - com.ibm.fhir.term.spi.TranslationOutcome.Builder
    com.ibm.fhir.term.spi.TranslationOutcome +- - com.ibm.fhir.term.spi.TranslationOutcome.Match

    center footer UMLDoclet 2.0.7, PlantUML 1.2019.12
@enduml

PlantUML version 1.2019.12(Sun Nov 03 10:24:54 UTC 2019)
(APACHE source distribution)
Java Runtime: OpenJDK Runtime Environment
JVM: OpenJDK 64-Bit Server VM
Java Version: 11.0.10+9
Operating System: Linux
Default Encoding: UTF-8
Language: en
Country: null
--></g></svg>