<?xml version="1.0" encoding="UTF-8" standalone="no"?><svg xmlns="http://www.w3.org/2000/svg" xmlns:xlink="http://www.w3.org/1999/xlink" contentScriptType="application/ecmascript" contentStyleType="text/css" height="323px" preserveAspectRatio="none" style="width:792px;height:323px;" version="1.1" viewBox="0 0 792 323" width="792px" zoomAndPan="magnify"><defs><filter height="300%" id="f1ryasr9keqc44" width="300%" x="-1" y="-1"><feGaussianBlur result="blurOut" stdDeviation="2.0"/><feColorMatrix in="blurOut" result="blurOut2" type="matrix" values="0 0 0 0 0 0 0 0 0 0 0 0 0 0 0 0 0 0 .4 0"/><feOffset dx="4.0" dy="4.0" in="blurOut2" result="blurOut3"/><feBlend in="SourceGraphic" in2="blurOut3" mode="normal"/></filter></defs><g><!--MD5=[ba5a36fae945db1ba801b5be19d45f7c]
cluster com.ibm.fhir.operation.reindex--><polygon fill="#FFFFFF" filter="url(#f1ryasr9keqc44)" points="14,162,264,162,271,184.2969,770,184.2969,770,283,14,283,14,162" style="stroke: #000000; stroke-width: 1.5;"/><line style="stroke: #000000; stroke-width: 1.5;" x1="14" x2="271" y1="184.2969" y2="184.2969"/><text fill="#000000" font-family="sans-serif" font-size="14" font-weight="bold" lengthAdjust="spacingAndGlyphs" textLength="244" x="18" y="176.9951">com.ibm.fhir.operation.reindex</text><!--MD5=[5c87acdb41b397a941b5e83f788ab09f]
cluster com.ibm.fhir.server.operation.spi--><polygon fill="#FFFFFF" filter="url(#f1ryasr9keqc44)" points="14,16,284,16,291,38.2969,770,38.2969,770,137,14,137,14,16" style="stroke: #000000; stroke-width: 1.5;"/><line style="stroke: #000000; stroke-width: 1.5;" x1="14" x2="291" y1="38.2969" y2="38.2969"/><text fill="#000000" font-family="sans-serif" font-size="14" font-weight="bold" lengthAdjust="spacingAndGlyphs" textLength="264" x="18" y="30.9951">com.ibm.fhir.server.operation.spi</text><!--MD5=[200c2eb36caa2ed0ae202542fd48a9b1]
class com.ibm.fhir.operation.reindex.ReindexOperation--><a href="ReindexOperation.html" target="_top" title="ReindexOperation.html" xlink:actuate="onRequest" xlink:href="ReindexOperation.html" xlink:show="new" xlink:title="ReindexOperation.html" xlink:type="simple"><rect fill="#FEFECE" filter="url(#f1ryasr9keqc44)" height="86.4141" id="com.ibm.fhir.operation.reindex.ReindexOperation" style="stroke: #A80036; stroke-width: 1.5;" width="740" x="22" y="189"/><ellipse cx="332.25" cy="205" fill="#ADD1B2" rx="11" ry="11" style="stroke: #A80036; stroke-width: 1.0;"/><path d="M335.2188,210.6406 Q334.6406,210.9375 334,211.0781 Q333.3594,211.2344 332.6563,211.2344 Q330.1563,211.2344 328.8281,209.5938 Q327.5156,207.9375 327.5156,204.8125 Q327.5156,201.6875 328.8281,200.0313 Q330.1563,198.375 332.6563,198.375 Q333.3594,198.375 334,198.5313 Q334.6563,198.6875 335.2188,198.9844 L335.2188,201.7031 Q334.5938,201.125 334,200.8594 Q333.4063,200.5781 332.7813,200.5781 Q331.4375,200.5781 330.75,201.6563 Q330.0625,202.7188 330.0625,204.8125 Q330.0625,206.9063 330.75,207.9844 Q331.4375,209.0469 332.7813,209.0469 Q333.4063,209.0469 334,208.7813 Q334.5938,208.5 335.2188,207.9219 L335.2188,210.6406 Z "/><text fill="#000000" font-family="sans-serif" font-size="12" lengthAdjust="spacingAndGlyphs" textLength="111" x="352.75" y="209.1543">ReindexOperation</text><line style="stroke: #A80036; stroke-width: 1.5;" x1="23" x2="761" y1="221" y2="221"/><polygon fill="none" points="33,228,29,234,37,234" style="stroke: #1963A0; stroke-width: 1.0;"/><text fill="#000000" font-family="sans-serif" font-size="11" lengthAdjust="spacingAndGlyphs" text-decoration="underline" textLength="191" x="42" y="235.2104">DAY_FORMAT: DateTimeFormatter</text><line style="stroke: #A80036; stroke-width: 1.5;" x1="23" x2="761" y1="241.8047" y2="241.8047"/><polygon fill="#FFFF44" points="33,247.8047,37,251.8047,33,255.8047,29,251.8047" style="stroke: #B38D22; stroke-width: 1.0;"/><text fill="#000000" font-family="sans-serif" font-size="11" lengthAdjust="spacingAndGlyphs" textLength="261" x="42" y="256.0151">buildOperationDefinition(): OperationDefinition</text><polygon fill="#FFFF44" points="33,260.6094,37,264.6094,33,268.6094,29,264.6094" style="stroke: #B38D22; stroke-width: 1.0;"/><text fill="#000000" font-family="sans-serif" font-size="11" lengthAdjust="spacingAndGlyphs" textLength="714" x="42" y="268.8198">doInvoke(FHIROperationContext, Class&lt;? extends Resource&gt;, String, String, Parameters, FHIRResourceHelpers): Parameters</text></a><!--MD5=[0ba1f7d6b3969472b3fe632fea4579eb]
class com.ibm.fhir.server.operation.spi.AbstractOperation--><a href="../../server/operation/spi/AbstractOperation.html" target="_top" title="../../server/operation/spi/AbstractOperation.html" xlink:actuate="onRequest" xlink:href="../../server/operation/spi/AbstractOperation.html" xlink:show="new" xlink:title="../../server/operation/spi/AbstractOperation.html" xlink:type="simple"><rect fill="#FEFECE" filter="url(#f1ryasr9keqc44)" height="86.4141" id="com.ibm.fhir.server.operation.spi.AbstractOperation" style="stroke: #A80036; stroke-width: 1.5;" width="740" x="22" y="43"/><ellipse cx="330.25" cy="59" fill="#A9DCDF" rx="11" ry="11" style="stroke: #A80036; stroke-width: 1.0;"/><path d="M330.3594,54.3438 L329.2031,59.4219 L331.5313,59.4219 L330.3594,54.3438 Z M328.875,52.1094 L331.8594,52.1094 L335.2188,64.5 L332.7656,64.5 L332,61.4375 L328.7188,61.4375 L327.9688,64.5 L325.5313,64.5 L328.875,52.1094 Z "/><text fill="#000000" font-family="sans-serif" font-size="12" font-style="italic" lengthAdjust="spacingAndGlyphs" textLength="115" x="350.75" y="63.1543">AbstractOperation</text><line style="stroke: #A80036; stroke-width: 1.5;" x1="23" x2="761" y1="75" y2="75"/><polygon fill="none" points="33,81,37,85,33,89,29,85" style="stroke: #B38D22; stroke-width: 1.0;"/><text fill="#000000" font-family="sans-serif" font-size="11" lengthAdjust="spacingAndGlyphs" textLength="169" x="42" y="89.2104">definition: OperationDefinition</text><line style="stroke: #A80036; stroke-width: 1.5;" x1="23" x2="761" y1="95.8047" y2="95.8047"/><polygon fill="#FFFF44" points="33,101.8047,37,105.8047,33,109.8047,29,105.8047" style="stroke: #B38D22; stroke-width: 1.0;"/><text fill="#000000" font-family="sans-serif" font-size="11" font-style="italic" lengthAdjust="spacingAndGlyphs" textLength="261" x="42" y="110.0151">buildOperationDefinition(): OperationDefinition</text><polygon fill="#FFFF44" points="33,114.6094,37,118.6094,33,122.6094,29,118.6094" style="stroke: #B38D22; stroke-width: 1.0;"/><text fill="#000000" font-family="sans-serif" font-size="11" font-style="italic" lengthAdjust="spacingAndGlyphs" textLength="714" x="42" y="122.8198">doInvoke(FHIROperationContext, Class&lt;? extends Resource&gt;, String, String, Parameters, FHIRResourceHelpers): Parameters</text></a><!--MD5=[34ea52d8448231f58e3866419fdf0eb3]
reverse link com.ibm.fhir.server.operation.spi.AbstractOperation to com.ibm.fhir.operation.reindex.ReindexOperation--><path d="M392,149.3278 C392,162.6494 392,176.4083 392,188.7878 " fill="none" id="com.ibm.fhir.server.operation.spi.AbstractOperation&lt;-com.ibm.fhir.operation.reindex.ReindexOperation" style="stroke: #A80036; stroke-width: 1.0;"/><polygon fill="none" points="385.0001,149.0152,392,129.0152,399.0001,149.0151,385.0001,149.0152" style="stroke: #A80036; stroke-width: 1.0;"/><text fill="#888888" font-family="sans-serif" font-size="10" lengthAdjust="spacingAndGlyphs" textLength="186" x="305" y="310.2822">UMLDoclet 2.0.7, PlantUML 1.2019.12</text><!--MD5=[2843ff32562e4cef7ff81c48653f8d7f]
@startuml
    namespace com.ibm.fhir.operation.reindex {

        class ReindexOperation [[ReindexOperation.html]] {
            {static} ~DAY_FORMAT: DateTimeFormatter
            #buildOperationDefinition(): OperationDefinition
            #doInvoke(FHIROperationContext, Class<? extends Resource>, String, String, Parameters, FHIRResourceHelpers): Parameters
        }

        com.ibm.fhir.server.operation.spi.AbstractOperation <|- - ReindexOperation
    }

    namespace com.ibm.fhir.server.operation.spi {
        abstract class AbstractOperation [[../../server/operation/spi/AbstractOperation.html]] {
            #definition: OperationDefinition
            {abstract} #buildOperationDefinition(): OperationDefinition
            {abstract} #doInvoke(FHIROperationContext, Class<? extends Resource>, String, String, Parameters, FHIRResourceHelpers): Parameters
        }
    }

    center footer UMLDoclet 2.0.7, PlantUML 1.2019.12
@enduml

PlantUML version 1.2019.12(Sun Nov 03 10:24:54 UTC 2019)
(APACHE source distribution)
Java Runtime: OpenJDK Runtime Environment
JVM: OpenJDK 64-Bit Server VM
Java Version: 11.0.9+11
Operating System: Linux
Default Encoding: UTF-8
Language: en
Country: null
--></g></svg>