<?xml version="1.0" encoding="UTF-8" standalone="no"?><svg xmlns="http://www.w3.org/2000/svg" xmlns:xlink="http://www.w3.org/1999/xlink" contentScriptType="application/ecmascript" contentStyleType="text/css" height="821px" preserveAspectRatio="none" style="width:1666px;height:821px;" version="1.1" viewBox="0 0 1666 821" width="1666px" zoomAndPan="magnify"><defs><filter height="300%" id="ft8mclrili9" width="300%" x="-1" y="-1"><feGaussianBlur result="blurOut" stdDeviation="2.0"/><feColorMatrix in="blurOut" result="blurOut2" type="matrix" values="0 0 0 0 0 0 0 0 0 0 0 0 0 0 0 0 0 0 .4 0"/><feOffset dx="4.0" dy="4.0" in="blurOut2" result="blurOut3"/><feBlend in="SourceGraphic" in2="blurOut3" mode="normal"/></filter></defs><g><!--MD5=[9e3d4feafcd79803ad2b84f4e6a2f74f]
cluster com.ibm.fhir.persistence--><polygon fill="#FFFFFF" filter="url(#ft8mclrili9)" points="14,16,217,16,224,38.2969,1644,38.2969,1644,781,14,781,14,16" style="stroke: #000000; stroke-width: 1.5;"/><line style="stroke: #000000; stroke-width: 1.5;" x1="14" x2="224" y1="38.2969" y2="38.2969"/><text fill="#000000" font-family="sans-serif" font-size="14" font-weight="bold" lengthAdjust="spacingAndGlyphs" textLength="197" x="18" y="30.9951">com.ibm.fhir.persistence</text><!--MD5=[c16e3eacc4865f28e70d852aa770bee0]
class com.ibm.fhir.persistence.PropertyBasedFHIRPersistenceFactory--><a href="PropertyBasedFHIRPersistenceFactory.html" target="_top" title="PropertyBasedFHIRPersistenceFactory.html" xlink:actuate="onRequest" xlink:href="PropertyBasedFHIRPersistenceFactory.html" xlink:show="new" xlink:title="PropertyBasedFHIRPersistenceFactory.html" xlink:type="simple"><rect fill="#FEFECE" filter="url(#ft8mclrili9)" height="60.8047" id="com.ibm.fhir.persistence.PropertyBasedFHIRPersistenceFactory" style="stroke: #A80036; stroke-width: 1.5;" width="271" x="1364.5" y="81.5"/><ellipse cx="1379.5" cy="97.5" fill="#B4A7E5" rx="11" ry="11" style="stroke: #A80036; stroke-width: 1.0;"/><path d="M1375.4219,93.2656 L1375.4219,91.1094 L1382.8125,91.1094 L1382.8125,93.2656 L1380.3438,93.2656 L1380.3438,101.3438 L1382.8125,101.3438 L1382.8125,103.5 L1375.4219,103.5 L1375.4219,101.3438 L1377.8906,101.3438 L1377.8906,93.2656 L1375.4219,93.2656 Z "/><text fill="#000000" font-family="sans-serif" font-size="12" font-style="italic" lengthAdjust="spacingAndGlyphs" textLength="239" x="1393.5" y="101.6543">PropertyBasedFHIRPersistenceFactory</text><line style="stroke: #A80036; stroke-width: 1.5;" x1="1365.5" x2="1634.5" y1="113.5" y2="113.5"/><line style="stroke: #A80036; stroke-width: 1.5;" x1="1365.5" x2="1634.5" y1="121.5" y2="121.5"/><ellipse cx="1375.5" cy="132.5" fill="#84BE84" rx="3" ry="3" style="stroke: #038048; stroke-width: 1.0;"/><text fill="#000000" font-family="sans-serif" font-size="11" font-style="italic" lengthAdjust="spacingAndGlyphs" textLength="232" x="1384.5" y="135.7104">getInstance(Properties): FHIRPersistence</text></a><!--MD5=[83be7f25e479c99eaeb0532c5b7b2cf7]
class com.ibm.fhir.persistence.FHIRPersistence--><a href="FHIRPersistence.html" target="_top" title="FHIRPersistence.html" xlink:actuate="onRequest" xlink:href="FHIRPersistence.html" xlink:show="new" xlink:title="FHIRPersistence.html" xlink:type="simple"><rect fill="#FEFECE" filter="url(#ft8mclrili9)" height="176.0469" id="com.ibm.fhir.persistence.FHIRPersistence" style="stroke: #A80036; stroke-width: 1.5;" width="717" x="919.5" y="320"/><ellipse cx="1223.25" cy="336" fill="#B4A7E5" rx="11" ry="11" style="stroke: #A80036; stroke-width: 1.0;"/><path d="M1219.1719,331.7656 L1219.1719,329.6094 L1226.5625,329.6094 L1226.5625,331.7656 L1224.0938,331.7656 L1224.0938,339.8438 L1226.5625,339.8438 L1226.5625,342 L1219.1719,342 L1219.1719,339.8438 L1221.6406,339.8438 L1221.6406,331.7656 L1219.1719,331.7656 Z "/><text fill="#000000" font-family="sans-serif" font-size="12" font-style="italic" lengthAdjust="spacingAndGlyphs" textLength="101" x="1243.75" y="340.1543">FHIRPersistence</text><line style="stroke: #A80036; stroke-width: 1.5;" x1="920.5" x2="1635.5" y1="352" y2="352"/><line style="stroke: #A80036; stroke-width: 1.5;" x1="920.5" x2="1635.5" y1="360" y2="360"/><ellipse cx="930.5" cy="371" fill="#84BE84" rx="3" ry="3" style="stroke: #038048; stroke-width: 1.0;"/><text fill="#000000" font-family="sans-serif" font-size="11" font-style="italic" lengthAdjust="spacingAndGlyphs" textLength="561" x="939.5" y="374.2104">create(FHIRPersistenceContext, T extends Resource): SingleResourceResult&lt;T extends Resource&gt;</text><ellipse cx="930.5" cy="383.8047" fill="#84BE84" rx="3" ry="3" style="stroke: #038048; stroke-width: 1.0;"/><text fill="#000000" font-family="sans-serif" font-size="11" font-style="italic" lengthAdjust="spacingAndGlyphs" textLength="643" x="939.5" y="387.0151">read(FHIRPersistenceContext, Class&lt;T extends Resource&gt;, String): SingleResourceResult&lt;T extends Resource&gt;</text><ellipse cx="930.5" cy="396.6094" fill="#84BE84" rx="3" ry="3" style="stroke: #038048; stroke-width: 1.0;"/><text fill="#000000" font-family="sans-serif" font-size="11" font-style="italic" lengthAdjust="spacingAndGlyphs" textLength="691" x="939.5" y="399.8198">vread(FHIRPersistenceContext, Class&lt;T extends Resource&gt;, String, String): SingleResourceResult&lt;T extends Resource&gt;</text><ellipse cx="930.5" cy="409.4141" fill="#84BE84" rx="3" ry="3" style="stroke: #038048; stroke-width: 1.0;"/><text fill="#000000" font-family="sans-serif" font-size="11" font-style="italic" lengthAdjust="spacingAndGlyphs" textLength="606" x="939.5" y="412.6245">update(FHIRPersistenceContext, String, T extends Resource): SingleResourceResult&lt;T extends Resource&gt;</text><ellipse cx="930.5" cy="422.2188" fill="#84BE84" rx="3" ry="3" style="stroke: #038048; stroke-width: 1.0;"/><text fill="#000000" font-family="sans-serif" font-size="11" lengthAdjust="spacingAndGlyphs" textLength="652" x="939.5" y="425.4292">delete(FHIRPersistenceContext, Class&lt;T extends Resource&gt;, String): SingleResourceResult&lt;T extends Resource&gt;</text><ellipse cx="930.5" cy="435.0234" fill="#84BE84" rx="3" ry="3" style="stroke: #038048; stroke-width: 1.0;"/><text fill="#000000" font-family="sans-serif" font-size="11" font-style="italic" lengthAdjust="spacingAndGlyphs" textLength="647" x="939.5" y="438.2339">history(FHIRPersistenceContext, Class&lt;T extends Resource&gt;, String): MultiResourceResult&lt;T extends Resource&gt;</text><ellipse cx="930.5" cy="447.8281" fill="#84BE84" rx="3" ry="3" style="stroke: #038048; stroke-width: 1.0;"/><text fill="#000000" font-family="sans-serif" font-size="11" font-style="italic" lengthAdjust="spacingAndGlyphs" textLength="544" x="939.5" y="451.0386">search(FHIRPersistenceContext, Class&lt;? extends Resource&gt;): MultiResourceResult&lt;Resource&gt;</text><ellipse cx="930.5" cy="460.6328" fill="#84BE84" rx="3" ry="3" style="stroke: #038048; stroke-width: 1.0;"/><text fill="#000000" font-family="sans-serif" font-size="11" font-style="italic" lengthAdjust="spacingAndGlyphs" textLength="148" x="939.5" y="463.8433">isTransactional(): boolean</text><ellipse cx="930.5" cy="473.4375" fill="#84BE84" rx="3" ry="3" style="stroke: #038048; stroke-width: 1.0;"/><text fill="#000000" font-family="sans-serif" font-size="11" font-style="italic" lengthAdjust="spacingAndGlyphs" textLength="177" x="939.5" y="476.6479">getHealth(): OperationOutcome</text><ellipse cx="930.5" cy="486.2422" fill="#84BE84" rx="3" ry="3" style="stroke: #038048; stroke-width: 1.0;"/><text fill="#000000" font-family="sans-serif" font-size="11" lengthAdjust="spacingAndGlyphs" textLength="166" x="939.5" y="489.4526">isDeleteSupported(): boolean</text></a><!--MD5=[89c7bb65275b90bbd248887624379f17]
class com.ibm.fhir.persistence.FHIRPersistenceFactory--><a href="FHIRPersistenceFactory.html" target="_top" title="FHIRPersistenceFactory.html" xlink:actuate="onRequest" xlink:href="FHIRPersistenceFactory.html" xlink:show="new" xlink:title="FHIRPersistenceFactory.html" xlink:type="simple"><rect fill="#FEFECE" filter="url(#ft8mclrili9)" height="48" id="com.ibm.fhir.persistence.FHIRPersistenceFactory" style="stroke: #A80036; stroke-width: 1.5;" width="179" x="1150.5" y="88"/><ellipse cx="1165.5" cy="104" fill="#B4A7E5" rx="11" ry="11" style="stroke: #A80036; stroke-width: 1.0;"/><path d="M1161.4219,99.7656 L1161.4219,97.6094 L1168.8125,97.6094 L1168.8125,99.7656 L1166.3438,99.7656 L1166.3438,107.8438 L1168.8125,107.8438 L1168.8125,110 L1161.4219,110 L1161.4219,107.8438 L1163.8906,107.8438 L1163.8906,99.7656 L1161.4219,99.7656 Z "/><text fill="#000000" font-family="sans-serif" font-size="12" font-style="italic" lengthAdjust="spacingAndGlyphs" textLength="147" x="1179.5" y="108.1543">FHIRPersistenceFactory</text><line style="stroke: #A80036; stroke-width: 1.5;" x1="1151.5" x2="1328.5" y1="120" y2="120"/><line style="stroke: #A80036; stroke-width: 1.5;" x1="1151.5" x2="1328.5" y1="128" y2="128"/></a><!--MD5=[e712aa6259e731a395e5ed08618800a6]
class com.ibm.fhir.persistence.FHIRPersistenceTransaction--><a href="FHIRPersistenceTransaction.html" target="_top" title="FHIRPersistenceTransaction.html" xlink:actuate="onRequest" xlink:href="FHIRPersistenceTransaction.html" xlink:show="new" xlink:title="FHIRPersistenceTransaction.html" xlink:type="simple"><rect fill="#FEFECE" filter="url(#ft8mclrili9)" height="137.6328" id="com.ibm.fhir.persistence.FHIRPersistenceTransaction" style="stroke: #A80036; stroke-width: 1.5;" width="207" x="1174.5" y="635"/><ellipse cx="1189.5" cy="651" fill="#B4A7E5" rx="11" ry="11" style="stroke: #A80036; stroke-width: 1.0;"/><path d="M1185.4219,646.7656 L1185.4219,644.6094 L1192.8125,644.6094 L1192.8125,646.7656 L1190.3438,646.7656 L1190.3438,654.8438 L1192.8125,654.8438 L1192.8125,657 L1185.4219,657 L1185.4219,654.8438 L1187.8906,654.8438 L1187.8906,646.7656 L1185.4219,646.7656 Z "/><text fill="#000000" font-family="sans-serif" font-size="12" font-style="italic" lengthAdjust="spacingAndGlyphs" textLength="175" x="1203.5" y="655.1543">FHIRPersistenceTransaction</text><line style="stroke: #A80036; stroke-width: 1.5;" x1="1175.5" x2="1380.5" y1="667" y2="667"/><line style="stroke: #A80036; stroke-width: 1.5;" x1="1175.5" x2="1380.5" y1="675" y2="675"/><ellipse cx="1185.5" cy="686" fill="#84BE84" rx="3" ry="3" style="stroke: #038048; stroke-width: 1.0;"/><text fill="#000000" font-family="sans-serif" font-size="11" font-style="italic" lengthAdjust="spacingAndGlyphs" textLength="104" x="1194.5" y="689.2104">isActive(): boolean</text><ellipse cx="1185.5" cy="698.8047" fill="#84BE84" rx="3" ry="3" style="stroke: #038048; stroke-width: 1.0;"/><text fill="#000000" font-family="sans-serif" font-size="11" font-style="italic" lengthAdjust="spacingAndGlyphs" textLength="70" x="1194.5" y="702.0151">begin(): void</text><ellipse cx="1185.5" cy="711.6094" fill="#84BE84" rx="3" ry="3" style="stroke: #038048; stroke-width: 1.0;"/><text fill="#000000" font-family="sans-serif" font-size="11" font-style="italic" lengthAdjust="spacingAndGlyphs" textLength="81" x="1194.5" y="714.8198">commit(): void</text><ellipse cx="1185.5" cy="724.4141" fill="#84BE84" rx="3" ry="3" style="stroke: #038048; stroke-width: 1.0;"/><text fill="#000000" font-family="sans-serif" font-size="11" font-style="italic" lengthAdjust="spacingAndGlyphs" textLength="83" x="1194.5" y="727.6245">rollback(): void</text><ellipse cx="1185.5" cy="737.2188" fill="#84BE84" rx="3" ry="3" style="stroke: #038048; stroke-width: 1.0;"/><text fill="#000000" font-family="sans-serif" font-size="11" font-style="italic" lengthAdjust="spacingAndGlyphs" textLength="128" x="1194.5" y="740.4292">setRollbackOnly(): void</text><ellipse cx="1185.5" cy="750.0234" fill="#84BE84" rx="3" ry="3" style="stroke: #038048; stroke-width: 1.0;"/><text fill="#000000" font-family="sans-serif" font-size="11" font-style="italic" lengthAdjust="spacingAndGlyphs" textLength="71" x="1194.5" y="753.2339">enroll(): void</text><ellipse cx="1185.5" cy="762.8281" fill="#84BE84" rx="3" ry="3" style="stroke: #038048; stroke-width: 1.0;"/><text fill="#000000" font-family="sans-serif" font-size="11" font-style="italic" lengthAdjust="spacingAndGlyphs" textLength="85" x="1194.5" y="766.0386">unenroll(): void</text></a><!--MD5=[dcd26abe6ccf9848c7ccc2dec345c243]
class com.ibm.fhir.persistence.SingleResourceResult--><a href="SingleResourceResult.html" target="_top" title="SingleResourceResult.html" xlink:actuate="onRequest" xlink:href="SingleResourceResult.html" xlink:show="new" xlink:title="SingleResourceResult.html" xlink:type="simple"><rect fill="#FEFECE" filter="url(#ft8mclrili9)" height="124.8281" id="com.ibm.fhir.persistence.SingleResourceResult" style="stroke: #A80036; stroke-width: 1.5;" width="296" x="548" y="49.5"/><ellipse cx="563" cy="65.5" fill="#ADD1B2" rx="11" ry="11" style="stroke: #A80036; stroke-width: 1.0;"/><path d="M565.9688,71.1406 Q565.3906,71.4375 564.75,71.5781 Q564.1094,71.7344 563.4063,71.7344 Q560.9063,71.7344 559.5781,70.0938 Q558.2656,68.4375 558.2656,65.3125 Q558.2656,62.1875 559.5781,60.5313 Q560.9063,58.875 563.4063,58.875 Q564.1094,58.875 564.75,59.0313 Q565.4063,59.1875 565.9688,59.4844 L565.9688,62.2031 Q565.3438,61.625 564.75,61.3594 Q564.1563,61.0781 563.5313,61.0781 Q562.1875,61.0781 561.5,62.1563 Q560.8125,63.2188 560.8125,65.3125 Q560.8125,67.4063 561.5,68.4844 Q562.1875,69.5469 563.5313,69.5469 Q564.1563,69.5469 564.75,69.2813 Q565.3438,69 565.9688,68.4219 L565.9688,71.1406 Z "/><text fill="#000000" font-family="sans-serif" font-size="12" lengthAdjust="spacingAndGlyphs" textLength="136" x="577" y="69.6543">SingleResourceResult</text><rect fill="#FFFFFF" height="15.9688" style="stroke: #000000; stroke-width: 1.0; stroke-dasharray: 2.0,2.0;" width="126" x="721" y="46.5"/><text fill="#000000" font-family="sans-serif" font-size="12" font-style="italic" lengthAdjust="spacingAndGlyphs" textLength="124" x="722" y="58.6387">T extends Resource</text><line style="stroke: #A80036; stroke-width: 1.5;" x1="549" x2="843" y1="81.5" y2="81.5"/><polygon fill="none" points="559,88.5,555,94.5,563,94.5" style="stroke: #1963A0; stroke-width: 1.0;"/><text fill="#000000" font-family="sans-serif" font-size="11" lengthAdjust="spacingAndGlyphs" textLength="100" x="568" y="95.7104">success: boolean</text><polygon fill="none" points="559,101.3047,555,107.3047,563,107.3047" style="stroke: #1963A0; stroke-width: 1.0;"/><text fill="#000000" font-family="sans-serif" font-size="11" lengthAdjust="spacingAndGlyphs" textLength="172" x="568" y="108.5151">resource: T extends Resource</text><polygon fill="none" points="559,114.1094,555,120.1094,563,120.1094" style="stroke: #1963A0; stroke-width: 1.0;"/><text fill="#000000" font-family="sans-serif" font-size="11" lengthAdjust="spacingAndGlyphs" textLength="164" x="568" y="121.3198">outcome: OperationOutcome</text><line style="stroke: #A80036; stroke-width: 1.5;" x1="549" x2="843" y1="127.9141" y2="127.9141"/><ellipse cx="559" cy="138.9141" fill="#84BE84" rx="3" ry="3" style="stroke: #038048; stroke-width: 1.0;"/><text fill="#000000" font-family="sans-serif" font-size="11" lengthAdjust="spacingAndGlyphs" textLength="119" x="568" y="142.1245">isSuccess(): boolean</text><ellipse cx="559" cy="151.7188" fill="#84BE84" rx="3" ry="3" style="stroke: #038048; stroke-width: 1.0;"/><text fill="#000000" font-family="sans-serif" font-size="11" lengthAdjust="spacingAndGlyphs" textLength="200" x="568" y="154.9292">getResource(): T extends Resource</text><ellipse cx="559" cy="164.5234" fill="#84BE84" rx="3" ry="3" style="stroke: #038048; stroke-width: 1.0;"/><text fill="#000000" font-family="sans-serif" font-size="11" lengthAdjust="spacingAndGlyphs" textLength="192" x="568" y="167.7339">getOutcome(): OperationOutcome</text></a><!--MD5=[05c02bbfc89154ec2cae632aad4da250]
class com.ibm.fhir.persistence.SingleResourceResult.Builder--><a href="SingleResourceResult.Builder.html" target="_top" title="SingleResourceResult.Builder.html" xlink:actuate="onRequest" xlink:href="SingleResourceResult.Builder.html" xlink:show="new" xlink:title="SingleResourceResult.Builder.html" xlink:type="simple"><rect fill="#FEFECE" filter="url(#ft8mclrili9)" height="137.6328" id="com.ibm.fhir.persistence.SingleResourceResult.Builder" style="stroke: #A80036; stroke-width: 1.5;" width="377" x="507.5" y="339"/><ellipse cx="537.8" cy="355" fill="#ADD1B2" rx="11" ry="11" style="stroke: #A80036; stroke-width: 1.0;"/><path d="M540.7688,360.6406 Q540.1906,360.9375 539.55,361.0781 Q538.9094,361.2344 538.2063,361.2344 Q535.7063,361.2344 534.3781,359.5938 Q533.0656,357.9375 533.0656,354.8125 Q533.0656,351.6875 534.3781,350.0313 Q535.7063,348.375 538.2063,348.375 Q538.9094,348.375 539.55,348.5313 Q540.2063,348.6875 540.7688,348.9844 L540.7688,351.7031 Q540.1438,351.125 539.55,350.8594 Q538.9563,350.5781 538.3313,350.5781 Q536.9875,350.5781 536.3,351.6563 Q535.6125,352.7188 535.6125,354.8125 Q535.6125,356.9063 536.3,357.9844 Q536.9875,359.0469 538.3313,359.0469 Q538.9563,359.0469 539.55,358.7813 Q540.1438,358.5 540.7688,357.9219 L540.7688,360.6406 Z "/><text fill="#000000" font-family="sans-serif" font-size="12" lengthAdjust="spacingAndGlyphs" textLength="183" x="555.2" y="359.1543">SingleResourceResult.Builder</text><rect fill="#FFFFFF" height="15.9688" style="stroke: #000000; stroke-width: 1.0; stroke-dasharray: 2.0,2.0;" width="126" x="761.5" y="336"/><text fill="#000000" font-family="sans-serif" font-size="12" font-style="italic" lengthAdjust="spacingAndGlyphs" textLength="124" x="762.5" y="348.1387">T extends Resource</text><line style="stroke: #A80036; stroke-width: 1.5;" x1="508.5" x2="883.5" y1="371" y2="371"/><polygon fill="none" points="518.5,378,514.5,384,522.5,384" style="stroke: #1963A0; stroke-width: 1.0;"/><text fill="#000000" font-family="sans-serif" font-size="11" lengthAdjust="spacingAndGlyphs" textLength="100" x="527.5" y="385.2104">success: boolean</text><polygon fill="none" points="518.5,390.8047,514.5,396.8047,522.5,396.8047" style="stroke: #1963A0; stroke-width: 1.0;"/><text fill="#000000" font-family="sans-serif" font-size="11" lengthAdjust="spacingAndGlyphs" textLength="172" x="527.5" y="398.0151">resource: T extends Resource</text><polygon fill="none" points="518.5,403.6094,514.5,409.6094,522.5,409.6094" style="stroke: #1963A0; stroke-width: 1.0;"/><text fill="#000000" font-family="sans-serif" font-size="11" lengthAdjust="spacingAndGlyphs" textLength="164" x="527.5" y="410.8198">outcome: OperationOutcome</text><line style="stroke: #A80036; stroke-width: 1.5;" x1="508.5" x2="883.5" y1="417.4141" y2="417.4141"/><ellipse cx="518.5" cy="428.4141" fill="#84BE84" rx="3" ry="3" style="stroke: #038048; stroke-width: 1.0;"/><text fill="#000000" font-family="sans-serif" font-size="11" lengthAdjust="spacingAndGlyphs" textLength="279" x="527.5" y="431.6245">success(boolean): Builder&lt;T extends Resource&gt;</text><ellipse cx="518.5" cy="441.2188" fill="#84BE84" rx="3" ry="3" style="stroke: #038048; stroke-width: 1.0;"/><text fill="#000000" font-family="sans-serif" font-size="11" lengthAdjust="spacingAndGlyphs" textLength="351" x="527.5" y="444.4292">resource(T extends Resource): Builder&lt;T extends Resource&gt;</text><ellipse cx="518.5" cy="454.0234" fill="#84BE84" rx="3" ry="3" style="stroke: #038048; stroke-width: 1.0;"/><text fill="#000000" font-family="sans-serif" font-size="11" lengthAdjust="spacingAndGlyphs" textLength="343" x="527.5" y="457.2339">outcome(OperationOutcome): Builder&lt;T extends Resource&gt;</text><ellipse cx="518.5" cy="466.8281" fill="#84BE84" rx="3" ry="3" style="stroke: #038048; stroke-width: 1.0;"/><text fill="#000000" font-family="sans-serif" font-size="11" lengthAdjust="spacingAndGlyphs" textLength="297" x="527.5" y="470.0386">build(): SingleResourceResult&lt;T extends Resource&gt;</text></a><!--MD5=[ea4a718b69588de71353de9163e7ce13]
class com.ibm.fhir.persistence.MultiResourceResult--><a href="MultiResourceResult.html" target="_top" title="MultiResourceResult.html" xlink:actuate="onRequest" xlink:href="MultiResourceResult.html" xlink:show="new" xlink:title="MultiResourceResult.html" xlink:type="simple"><rect fill="#FEFECE" filter="url(#ft8mclrili9)" height="137.6328" id="com.ibm.fhir.persistence.MultiResourceResult" style="stroke: #A80036; stroke-width: 1.5;" width="415" x="39.5" y="43"/><ellipse cx="115.25" cy="59" fill="#ADD1B2" rx="11" ry="11" style="stroke: #A80036; stroke-width: 1.0;"/><path d="M118.2188,64.6406 Q117.6406,64.9375 117,65.0781 Q116.3594,65.2344 115.6563,65.2344 Q113.1563,65.2344 111.8281,63.5938 Q110.5156,61.9375 110.5156,58.8125 Q110.5156,55.6875 111.8281,54.0313 Q113.1563,52.375 115.6563,52.375 Q116.3594,52.375 117,52.5313 Q117.6563,52.6875 118.2188,52.9844 L118.2188,55.7031 Q117.5938,55.125 117,54.8594 Q116.4063,54.5781 115.7813,54.5781 Q114.4375,54.5781 113.75,55.6563 Q113.0625,56.7188 113.0625,58.8125 Q113.0625,60.9063 113.75,61.9844 Q114.4375,63.0469 115.7813,63.0469 Q116.4063,63.0469 117,62.7813 Q117.5938,62.5 118.2188,61.9219 L118.2188,64.6406 Z "/><text fill="#000000" font-family="sans-serif" font-size="12" lengthAdjust="spacingAndGlyphs" textLength="127" x="135.75" y="63.1543">MultiResourceResult</text><rect fill="#FFFFFF" height="15.9688" style="stroke: #000000; stroke-width: 1.0; stroke-dasharray: 2.0,2.0;" width="126" x="331.5" y="40"/><text fill="#000000" font-family="sans-serif" font-size="12" font-style="italic" lengthAdjust="spacingAndGlyphs" textLength="124" x="332.5" y="52.1387">T extends Resource</text><line style="stroke: #A80036; stroke-width: 1.5;" x1="40.5" x2="453.5" y1="75" y2="75"/><polygon fill="none" points="50.5,82,46.5,88,54.5,88" style="stroke: #1963A0; stroke-width: 1.0;"/><text fill="#000000" font-family="sans-serif" font-size="11" lengthAdjust="spacingAndGlyphs" textLength="100" x="59.5" y="89.2104">success: boolean</text><polygon fill="none" points="50.5,94.8047,46.5,100.8047,54.5,100.8047" style="stroke: #1963A0; stroke-width: 1.0;"/><text fill="#000000" font-family="sans-serif" font-size="11" lengthAdjust="spacingAndGlyphs" textLength="210" x="59.5" y="102.0151">resource: List&lt;T extends Resource&gt;</text><polygon fill="none" points="50.5,107.6094,46.5,113.6094,54.5,113.6094" style="stroke: #1963A0; stroke-width: 1.0;"/><text fill="#000000" font-family="sans-serif" font-size="11" lengthAdjust="spacingAndGlyphs" textLength="164" x="59.5" y="114.8198">outcome: OperationOutcome</text><line style="stroke: #A80036; stroke-width: 1.5;" x1="40.5" x2="453.5" y1="121.4141" y2="121.4141"/><ellipse cx="50.5" cy="132.4141" fill="#84BE84" rx="3" ry="3" style="stroke: #038048; stroke-width: 1.0;"/><text fill="#000000" font-family="sans-serif" font-size="11" lengthAdjust="spacingAndGlyphs" textLength="119" x="59.5" y="135.6245">isSuccess(): boolean</text><ellipse cx="50.5" cy="145.2188" fill="#84BE84" rx="3" ry="3" style="stroke: #038048; stroke-width: 1.0;"/><text fill="#000000" font-family="sans-serif" font-size="11" lengthAdjust="spacingAndGlyphs" textLength="238" x="59.5" y="148.4292">getResource(): List&lt;T extends Resource&gt;</text><ellipse cx="50.5" cy="158.0234" fill="#84BE84" rx="3" ry="3" style="stroke: #038048; stroke-width: 1.0;"/><text fill="#000000" font-family="sans-serif" font-size="11" lengthAdjust="spacingAndGlyphs" textLength="192" x="59.5" y="161.2339">getOutcome(): OperationOutcome</text><ellipse cx="50.5" cy="170.8281" fill="#84BE84" rx="3" ry="3" style="stroke: #038048; stroke-width: 1.0;"/><text fill="#000000" font-family="sans-serif" font-size="11" lengthAdjust="spacingAndGlyphs" text-decoration="underline" textLength="389" x="59.5" y="174.0386">builder(Class&lt;T extends Resource&gt;): Builder&lt;T extends Resource&gt;</text></a><!--MD5=[575abc8018477526b7ee4ae0ea96f4f3]
class com.ibm.fhir.persistence.MultiResourceResult.Builder--><a href="MultiResourceResult.Builder.html" target="_top" title="MultiResourceResult.Builder.html" xlink:actuate="onRequest" xlink:href="MultiResourceResult.Builder.html" xlink:show="new" xlink:title="MultiResourceResult.Builder.html" xlink:type="simple"><rect fill="#FEFECE" filter="url(#ft8mclrili9)" height="150.4375" id="com.ibm.fhir.persistence.MultiResourceResult.Builder" style="stroke: #A80036; stroke-width: 1.5;" width="450" x="22" y="333"/><ellipse cx="91.75" cy="349" fill="#ADD1B2" rx="11" ry="11" style="stroke: #A80036; stroke-width: 1.0;"/><path d="M94.7188,354.6406 Q94.1406,354.9375 93.5,355.0781 Q92.8594,355.2344 92.1563,355.2344 Q89.6563,355.2344 88.3281,353.5938 Q87.0156,351.9375 87.0156,348.8125 Q87.0156,345.6875 88.3281,344.0313 Q89.6563,342.375 92.1563,342.375 Q92.8594,342.375 93.5,342.5313 Q94.1563,342.6875 94.7188,342.9844 L94.7188,345.7031 Q94.0938,345.125 93.5,344.8594 Q92.9063,344.5781 92.2813,344.5781 Q90.9375,344.5781 90.25,345.6563 Q89.5625,346.7188 89.5625,348.8125 Q89.5625,350.9063 90.25,351.9844 Q90.9375,353.0469 92.2813,353.0469 Q92.9063,353.0469 93.5,352.7813 Q94.0938,352.5 94.7188,351.9219 L94.7188,354.6406 Z "/><text fill="#000000" font-family="sans-serif" font-size="12" lengthAdjust="spacingAndGlyphs" textLength="174" x="112.25" y="353.1543">MultiResourceResult.Builder</text><rect fill="#FFFFFF" height="15.9688" style="stroke: #000000; stroke-width: 1.0; stroke-dasharray: 2.0,2.0;" width="126" x="349" y="330"/><text fill="#000000" font-family="sans-serif" font-size="12" font-style="italic" lengthAdjust="spacingAndGlyphs" textLength="124" x="350" y="342.1387">T extends Resource</text><line style="stroke: #A80036; stroke-width: 1.5;" x1="23" x2="471" y1="365" y2="365"/><polygon fill="none" points="33,372,29,378,37,378" style="stroke: #1963A0; stroke-width: 1.0;"/><text fill="#000000" font-family="sans-serif" font-size="11" lengthAdjust="spacingAndGlyphs" textLength="100" x="42" y="379.2104">success: boolean</text><polygon fill="none" points="33,384.8047,29,390.8047,37,390.8047" style="stroke: #1963A0; stroke-width: 1.0;"/><text fill="#000000" font-family="sans-serif" font-size="11" lengthAdjust="spacingAndGlyphs" textLength="210" x="42" y="392.0151">resource: List&lt;T extends Resource&gt;</text><polygon fill="none" points="33,397.6094,29,403.6094,37,403.6094" style="stroke: #1963A0; stroke-width: 1.0;"/><text fill="#000000" font-family="sans-serif" font-size="11" lengthAdjust="spacingAndGlyphs" textLength="164" x="42" y="404.8198">outcome: OperationOutcome</text><line style="stroke: #A80036; stroke-width: 1.5;" x1="23" x2="471" y1="411.4141" y2="411.4141"/><ellipse cx="33" cy="422.4141" fill="#84BE84" rx="3" ry="3" style="stroke: #038048; stroke-width: 1.0;"/><text fill="#000000" font-family="sans-serif" font-size="11" lengthAdjust="spacingAndGlyphs" textLength="279" x="42" y="425.6245">success(boolean): Builder&lt;T extends Resource&gt;</text><ellipse cx="33" cy="435.2188" fill="#84BE84" rx="3" ry="3" style="stroke: #038048; stroke-width: 1.0;"/><text fill="#000000" font-family="sans-serif" font-size="11" lengthAdjust="spacingAndGlyphs" textLength="303" x="42" y="438.4292">resource(Resource...): Builder&lt;T extends Resource&gt;</text><ellipse cx="33" cy="448.0234" fill="#84BE84" rx="3" ry="3" style="stroke: #038048; stroke-width: 1.0;"/><text fill="#000000" font-family="sans-serif" font-size="11" lengthAdjust="spacingAndGlyphs" textLength="424" x="42" y="451.2339">resource(Collection&lt;T extends Resource&gt;): Builder&lt;T extends Resource&gt;</text><ellipse cx="33" cy="460.8281" fill="#84BE84" rx="3" ry="3" style="stroke: #038048; stroke-width: 1.0;"/><text fill="#000000" font-family="sans-serif" font-size="11" lengthAdjust="spacingAndGlyphs" textLength="343" x="42" y="464.0386">outcome(OperationOutcome): Builder&lt;T extends Resource&gt;</text><ellipse cx="33" cy="473.6328" fill="#84BE84" rx="3" ry="3" style="stroke: #038048; stroke-width: 1.0;"/><text fill="#000000" font-family="sans-serif" font-size="11" lengthAdjust="spacingAndGlyphs" textLength="288" x="42" y="476.8433">build(): MultiResourceResult&lt;T extends Resource&gt;</text></a><!--MD5=[07f7d35864eb8a2ac02a80524394f986]
link com.ibm.fhir.persistence.FHIRPersistence to com.ibm.fhir.persistence.FHIRPersistenceTransaction--><path d="M1278,496.0083 C1278,538.4125 1278,588.7257 1278,629.2452 " fill="none" id="com.ibm.fhir.persistence.FHIRPersistence-&gt;com.ibm.fhir.persistence.FHIRPersistenceTransaction" style="stroke: #A80036; stroke-width: 1.0;"/><polygon fill="#A80036" points="1278,634.642,1282,625.642,1278,629.642,1274,625.642,1278,634.642" style="stroke: #A80036; stroke-width: 1.0;"/><text fill="#000000" font-family="sans-serif" font-size="13" lengthAdjust="spacingAndGlyphs" textLength="72" x="1279" y="570.0669">transaction</text><!--MD5=[3cf371e24cecdbf9014fbfc975355c0d]
link com.ibm.fhir.persistence.FHIRPersistenceFactory to com.ibm.fhir.persistence.FHIRPersistence--><path d="M1243.1097,136.2229 C1248.0665,174.8335 1258.0166,252.3396 1266.027,314.7366 " fill="none" id="com.ibm.fhir.persistence.FHIRPersistenceFactory-&gt;com.ibm.fhir.persistence.FHIRPersistence" style="stroke: #A80036; stroke-width: 1.0;"/><polygon fill="#A80036" points="1266.6978,319.962,1269.5191,310.5259,1266.0611,315.0027,1261.5843,311.5446,1266.6978,319.962" style="stroke: #A80036; stroke-width: 1.0;"/><text fill="#000000" font-family="sans-serif" font-size="13" lengthAdjust="spacingAndGlyphs" textLength="54" x="1259" y="255.0669">instance</text><!--MD5=[a34574a90000818912be60a4bafd620c]
reverse link com.ibm.fhir.persistence.SingleResourceResult to com.ibm.fhir.persistence.SingleResourceResult.Builder--><path d="M696,189.9602 C696,236.1874 696,294.2633 696,338.8522 " fill="none" id="com.ibm.fhir.persistence.SingleResourceResult&lt;-com.ibm.fhir.persistence.SingleResourceResult.Builder" style="stroke: #A80036; stroke-width: 1.0;"/><ellipse cx="696" cy="182.774" fill="#FFFFFF" rx="8" ry="8" style="stroke: #A80036; stroke-width: 1.0;"/><line style="stroke: #A80036; stroke-width: 1.0;" x1="696" x2="696" y1="190.774" y2="174.774"/><line style="stroke: #A80036; stroke-width: 1.0;" x1="688" x2="704" y1="182.774" y2="182.774"/><!--MD5=[3b22ee84091a1999665df99c006ed12a]
reverse link com.ibm.fhir.persistence.MultiResourceResult to com.ibm.fhir.persistence.MultiResourceResult.Builder--><path d="M247,196.1516 C247,239.2132 247,291.1965 247,332.8923 " fill="none" id="com.ibm.fhir.persistence.MultiResourceResult&lt;-com.ibm.fhir.persistence.MultiResourceResult.Builder" style="stroke: #A80036; stroke-width: 1.0;"/><ellipse cx="247.0001" cy="189.0253" fill="#FFFFFF" rx="8" ry="8" style="stroke: #A80036; stroke-width: 1.0;"/><line style="stroke: #A80036; stroke-width: 1.0;" x1="247.0002" x2="247" y1="197.0253" y2="181.0253"/><line style="stroke: #A80036; stroke-width: 1.0;" x1="239.0001" x2="255.0001" y1="189.0254" y2="189.0252"/><text fill="#888888" font-family="sans-serif" font-size="10" lengthAdjust="spacingAndGlyphs" textLength="186" x="742" y="808.2822">UMLDoclet 2.0.7, PlantUML 1.2019.12</text><!--MD5=[e6417facbe6153d1b3e7e6675d7470bf]
@startuml
    namespace com.ibm.fhir.persistence {

        interface PropertyBasedFHIRPersistenceFactory [[PropertyBasedFHIRPersistenceFactory.html]] {
            {abstract} +getInstance(Properties): FHIRPersistence
        }

        interface FHIRPersistence [[FHIRPersistence.html]] {
            {abstract} +create(FHIRPersistenceContext, T extends Resource): SingleResourceResult<T extends Resource>
            {abstract} +read(FHIRPersistenceContext, Class<T extends Resource>, String): SingleResourceResult<T extends Resource>
            {abstract} +vread(FHIRPersistenceContext, Class<T extends Resource>, String, String): SingleResourceResult<T extends Resource>
            {abstract} +update(FHIRPersistenceContext, String, T extends Resource): SingleResourceResult<T extends Resource>
            +delete(FHIRPersistenceContext, Class<T extends Resource>, String): SingleResourceResult<T extends Resource>
            {abstract} +history(FHIRPersistenceContext, Class<T extends Resource>, String): MultiResourceResult<T extends Resource>
            {abstract} +search(FHIRPersistenceContext, Class<? extends Resource>): MultiResourceResult<Resource>
            {abstract} +isTransactional(): boolean
            {abstract} +getHealth(): OperationOutcome
            +isDeleteSupported(): boolean
        }

        interface FHIRPersistenceFactory [[FHIRPersistenceFactory.html]]

        interface FHIRPersistenceTransaction [[FHIRPersistenceTransaction.html]] {
            {abstract} +isActive(): boolean
            {abstract} +begin(): void
            {abstract} +commit(): void
            {abstract} +rollback(): void
            {abstract} +setRollbackOnly(): void
            {abstract} +enroll(): void
            {abstract} +unenroll(): void
        }

        class SingleResourceResult<T extends Resource> [[SingleResourceResult.html]] {
            ~success: boolean
            ~resource: T extends Resource
            ~outcome: OperationOutcome
            +isSuccess(): boolean
            +getResource(): T extends Resource
            +getOutcome(): OperationOutcome
        }

        class com.ibm.fhir.persistence.SingleResourceResult.Builder<T extends Resource> [[SingleResourceResult.Builder.html]] {
            ~success: boolean
            ~resource: T extends Resource
            ~outcome: OperationOutcome
            +success(boolean): Builder<T extends Resource>
            +resource(T extends Resource): Builder<T extends Resource>
            +outcome(OperationOutcome): Builder<T extends Resource>
            +build(): SingleResourceResult<T extends Resource>
        }

        class MultiResourceResult<T extends Resource> [[MultiResourceResult.html]] {
            ~success: boolean
            ~resource: List<T extends Resource>
            ~outcome: OperationOutcome
            +isSuccess(): boolean
            +getResource(): List<T extends Resource>
            +getOutcome(): OperationOutcome
            {static} +builder(Class<T extends Resource>): Builder<T extends Resource>
        }

        class com.ibm.fhir.persistence.MultiResourceResult.Builder<T extends Resource> [[MultiResourceResult.Builder.html]] {
            ~success: boolean
            ~resource: List<T extends Resource>
            ~outcome: OperationOutcome
            +success(boolean): Builder<T extends Resource>
            +resource(Resource...): Builder<T extends Resource>
            +resource(Collection<T extends Resource>): Builder<T extends Resource>
            +outcome(OperationOutcome): Builder<T extends Resource>
            +build(): MultiResourceResult<T extends Resource>
        }

        FHIRPersistence - -> FHIRPersistenceTransaction: transaction
        FHIRPersistenceFactory - -> FHIRPersistence: instance
        SingleResourceResult +- - com.ibm.fhir.persistence.SingleResourceResult.Builder
        MultiResourceResult +- - com.ibm.fhir.persistence.MultiResourceResult.Builder
    }

    center footer UMLDoclet 2.0.7, PlantUML 1.2019.12
@enduml

PlantUML version 1.2019.12(Sun Nov 03 10:24:54 UTC 2019)
(APACHE source distribution)
Java Runtime: OpenJDK Runtime Environment
JVM: OpenJDK 64-Bit Server VM
Java Version: 11.0.7+10
Operating System: Linux
Default Encoding: UTF-8
Language: en
Country: null
--></g></svg>