<?xml version="1.0" encoding="UTF-8" standalone="no"?><svg xmlns="http://www.w3.org/2000/svg" xmlns:xlink="http://www.w3.org/1999/xlink" contentScriptType="application/ecmascript" contentStyleType="text/css" height="405px" preserveAspectRatio="none" style="width:537px;height:405px;" version="1.1" viewBox="0 0 537 405" width="537px" zoomAndPan="magnify"><defs><filter height="300%" id="fkfxr55tix1ga" width="300%" x="-1" y="-1"><feGaussianBlur result="blurOut" stdDeviation="2.0"/><feColorMatrix in="blurOut" result="blurOut2" type="matrix" values="0 0 0 0 0 0 0 0 0 0 0 0 0 0 0 0 0 0 .4 0"/><feOffset dx="4.0" dy="4.0" in="blurOut2" result="blurOut3"/><feBlend in="SourceGraphic" in2="blurOut3" mode="normal"/></filter></defs><g><!--MD5=[85dba3d2ba6d2ba771caf130da542071]
class com.ibm.fhir.model.type.code.RestfulCapabilityMode--><a href="RestfulCapabilityMode.html" target="_top" title="RestfulCapabilityMode.html" xlink:actuate="onRequest" xlink:href="RestfulCapabilityMode.html" xlink:show="new" xlink:title="RestfulCapabilityMode.html" xlink:type="simple"><rect fill="#FEFECE" filter="url(#fkfxr55tix1ga)" height="169.1797" id="com.ibm.fhir.model.type.code.RestfulCapabilityMode" style="stroke: #A80036; stroke-width: 1.5;" width="238" x="144" y="106"/><ellipse cx="183.3" cy="124.9688" fill="#ADD1B2" rx="11" ry="11" style="stroke: #A80036; stroke-width: 1.0;"/><path d="M186.2688,130.6094 Q185.6906,130.9063 185.05,131.0469 Q184.4094,131.2031 183.7063,131.2031 Q181.2063,131.2031 179.8781,129.5625 Q178.5656,127.9063 178.5656,124.7813 Q178.5656,121.6563 179.8781,120 Q181.2063,118.3438 183.7063,118.3438 Q184.4094,118.3438 185.05,118.5 Q185.7063,118.6563 186.2688,118.9531 L186.2688,121.6719 Q185.6438,121.0938 185.05,120.8281 Q184.4563,120.5469 183.8313,120.5469 Q182.4875,120.5469 181.8,121.625 Q181.1125,122.6875 181.1125,124.7813 Q181.1125,126.875 181.8,127.9531 Q182.4875,129.0156 183.8313,129.0156 Q184.4563,129.0156 185.05,128.75 Q185.6438,128.4688 186.2688,127.8906 L186.2688,130.6094 Z "/><text fill="#000000" font-family="sans-serif" font-size="14" lengthAdjust="spacingAndGlyphs" textLength="152" x="202.7" y="123.9951">RestfulCapabilityMode</text><text fill="#000000" font-family="sans-serif" font-size="10" lengthAdjust="spacingAndGlyphs" textLength="145" x="206.2" y="136.5791">com.ibm.fhir.model.type.code</text><line style="stroke: #A80036; stroke-width: 1.5;" x1="145" x2="381" y1="143.9375" y2="143.9375"/><ellipse cx="155" cy="154.9375" fill="none" rx="3" ry="3" style="stroke: #038048; stroke-width: 1.0;"/><text fill="#000000" font-family="sans-serif" font-size="11" lengthAdjust="spacingAndGlyphs" text-decoration="underline" textLength="171" x="164" y="158.1479">CLIENT: RestfulCapabilityMode</text><ellipse cx="155" cy="167.7422" fill="none" rx="3" ry="3" style="stroke: #038048; stroke-width: 1.0;"/><text fill="#000000" font-family="sans-serif" font-size="11" lengthAdjust="spacingAndGlyphs" text-decoration="underline" textLength="175" x="164" y="170.9526">SERVER: RestfulCapabilityMode</text><line style="stroke: #A80036; stroke-width: 1.5;" x1="145" x2="381" y1="177.5469" y2="177.5469"/><ellipse cx="155" cy="188.5469" fill="#84BE84" rx="3" ry="3" style="stroke: #038048; stroke-width: 1.0;"/><text fill="#000000" font-family="sans-serif" font-size="11" lengthAdjust="spacingAndGlyphs" textLength="212" x="164" y="191.7573">getValueAsEnumConstant(): ValueSet</text><ellipse cx="155" cy="201.3516" fill="#84BE84" rx="3" ry="3" style="stroke: #038048; stroke-width: 1.0;"/><text fill="#000000" font-family="sans-serif" font-size="11" lengthAdjust="spacingAndGlyphs" text-decoration="underline" textLength="201" x="164" y="204.562">of(ValueSet): RestfulCapabilityMode</text><ellipse cx="155" cy="214.1563" fill="#84BE84" rx="3" ry="3" style="stroke: #038048; stroke-width: 1.0;"/><text fill="#000000" font-family="sans-serif" font-size="11" lengthAdjust="spacingAndGlyphs" text-decoration="underline" textLength="185" x="164" y="217.3667">of(String): RestfulCapabilityMode</text><ellipse cx="155" cy="226.9609" fill="#84BE84" rx="3" ry="3" style="stroke: #038048; stroke-width: 1.0;"/><text fill="#000000" font-family="sans-serif" font-size="11" lengthAdjust="spacingAndGlyphs" text-decoration="underline" textLength="117" x="164" y="230.1714">string(String): String</text><ellipse cx="155" cy="239.7656" fill="#84BE84" rx="3" ry="3" style="stroke: #038048; stroke-width: 1.0;"/><text fill="#000000" font-family="sans-serif" font-size="11" lengthAdjust="spacingAndGlyphs" text-decoration="underline" textLength="106" x="164" y="242.9761">code(String): Code</text><ellipse cx="155" cy="252.5703" fill="#84BE84" rx="3" ry="3" style="stroke: #038048; stroke-width: 1.0;"/><text fill="#000000" font-family="sans-serif" font-size="11" lengthAdjust="spacingAndGlyphs" textLength="107" x="164" y="255.7808">toBuilder(): Builder</text><ellipse cx="155" cy="265.375" fill="#84BE84" rx="3" ry="3" style="stroke: #038048; stroke-width: 1.0;"/><text fill="#000000" font-family="sans-serif" font-size="11" lengthAdjust="spacingAndGlyphs" text-decoration="underline" textLength="95" x="164" y="268.5854">builder(): Builder</text></a><!--MD5=[36277681a3d78580011ae89cb2088b30]
class com.ibm.fhir.model.type.Code--><a href="../Code.html" target="_top" title="../Code.html" xlink:actuate="onRequest" xlink:href="../Code.html" xlink:show="new" xlink:title="../Code.html" xlink:type="simple"><rect fill="#FEFECE" filter="url(#fkfxr55tix1ga)" height="37.9375" id="com.ibm.fhir.model.type.Code" style="stroke: #A80036; stroke-width: 1.5;" width="151" x="187.5" y="8"/><ellipse cx="202.5" cy="26.9688" fill="#ADD1B2" rx="11" ry="11" style="stroke: #A80036; stroke-width: 1.0;"/><path d="M205.4688,32.6094 Q204.8906,32.9063 204.25,33.0469 Q203.6094,33.2031 202.9063,33.2031 Q200.4063,33.2031 199.0781,31.5625 Q197.7656,29.9063 197.7656,26.7813 Q197.7656,23.6563 199.0781,22 Q200.4063,20.3438 202.9063,20.3438 Q203.6094,20.3438 204.25,20.5 Q204.9063,20.6563 205.4688,20.9531 L205.4688,23.6719 Q204.8438,23.0938 204.25,22.8281 Q203.6563,22.5469 203.0313,22.5469 Q201.6875,22.5469 201,23.625 Q200.3125,24.6875 200.3125,26.7813 Q200.3125,28.875 201,29.9531 Q201.6875,31.0156 203.0313,31.0156 Q203.6563,31.0156 204.25,30.75 Q204.8438,30.4688 205.4688,29.8906 L205.4688,32.6094 Z "/><text fill="#000000" font-family="sans-serif" font-size="14" lengthAdjust="spacingAndGlyphs" textLength="37" x="257.5" y="25.9951">Code</text><text fill="#000000" font-family="sans-serif" font-size="10" lengthAdjust="spacingAndGlyphs" textLength="119" x="216.5" y="38.5791">com.ibm.fhir.model.type</text></a><!--MD5=[e14d8973ef3059df34f2046ebe8d7563]
class com.ibm.fhir.model.type.code.RestfulCapabilityMode.Builder--><a href="RestfulCapabilityMode.Builder.html" target="_top" title="RestfulCapabilityMode.Builder.html" xlink:actuate="onRequest" xlink:href="RestfulCapabilityMode.Builder.html" xlink:show="new" xlink:title="RestfulCapabilityMode.Builder.html" xlink:type="simple"><rect fill="#FEFECE" filter="url(#fkfxr55tix1ga)" height="37.9375" id="com.ibm.fhir.model.type.code.RestfulCapabilityMode.Builder" style="stroke: #A80036; stroke-width: 1.5;" width="236" x="6" y="335"/><ellipse cx="21" cy="353.9688" fill="#ADD1B2" rx="11" ry="11" style="stroke: #A80036; stroke-width: 1.0;"/><path d="M23.9688,359.6094 Q23.3906,359.9063 22.75,360.0469 Q22.1094,360.2031 21.4063,360.2031 Q18.9063,360.2031 17.5781,358.5625 Q16.2656,356.9063 16.2656,353.7813 Q16.2656,350.6563 17.5781,349 Q18.9063,347.3438 21.4063,347.3438 Q22.1094,347.3438 22.75,347.5 Q23.4063,347.6563 23.9688,347.9531 L23.9688,350.6719 Q23.3438,350.0938 22.75,349.8281 Q22.1563,349.5469 21.5313,349.5469 Q20.1875,349.5469 19.5,350.625 Q18.8125,351.6875 18.8125,353.7813 Q18.8125,355.875 19.5,356.9531 Q20.1875,358.0156 21.5313,358.0156 Q22.1563,358.0156 22.75,357.75 Q23.3438,357.4688 23.9688,356.8906 L23.9688,359.6094 Z "/><text fill="#000000" font-family="sans-serif" font-size="14" lengthAdjust="spacingAndGlyphs" textLength="204" x="35" y="352.9951">RestfulCapabilityMode.Builder</text><text fill="#000000" font-family="sans-serif" font-size="10" lengthAdjust="spacingAndGlyphs" textLength="145" x="64.5" y="365.5791">com.ibm.fhir.model.type.code</text></a><!--MD5=[cbddcbbcd72bb050e7e9f9e2b837d204]
class com.ibm.fhir.model.type.code.RestfulCapabilityMode.ValueSet--><a href="RestfulCapabilityMode.ValueSet.html" target="_top" title="RestfulCapabilityMode.ValueSet.html" xlink:actuate="onRequest" xlink:href="RestfulCapabilityMode.ValueSet.html" xlink:show="new" xlink:title="RestfulCapabilityMode.ValueSet.html" xlink:type="simple"><rect fill="#FEFECE" filter="url(#fkfxr55tix1ga)" height="37.9375" id="com.ibm.fhir.model.type.code.RestfulCapabilityMode.ValueSet" style="stroke: #A80036; stroke-width: 1.5;" width="249" x="277.5" y="335"/><ellipse cx="292.5" cy="353.9688" fill="#EB937F" rx="11" ry="11" style="stroke: #A80036; stroke-width: 1.0;"/><path d="M296.6094,359.9688 L288.8906,359.9688 L288.8906,347.5781 L296.6094,347.5781 L296.6094,349.7344 L291.3438,349.7344 L291.3438,352.4063 L296.1094,352.4063 L296.1094,354.5625 L291.3438,354.5625 L291.3438,357.8125 L296.6094,357.8125 L296.6094,359.9688 Z "/><text fill="#000000" font-family="sans-serif" font-size="14" lengthAdjust="spacingAndGlyphs" textLength="217" x="306.5" y="352.9951">RestfulCapabilityMode.ValueSet</text><text fill="#000000" font-family="sans-serif" font-size="10" lengthAdjust="spacingAndGlyphs" textLength="145" x="342.5" y="365.5791">com.ibm.fhir.model.type.code</text></a><!--MD5=[4569f57272cd0d409f164c95288e949f]
reverse link com.ibm.fhir.model.type.Code to com.ibm.fhir.model.type.code.RestfulCapabilityMode--><path d="M263,66.1355 C263,78.1849 263,91.9487 263,105.8251 " fill="none" id="com.ibm.fhir.model.type.Code&lt;-com.ibm.fhir.model.type.code.RestfulCapabilityMode" style="stroke: #A80036; stroke-width: 1.0;"/><polygon fill="none" points="256.0001,66.0756,263,46.0755,270.0001,66.0755,256.0001,66.0756" style="stroke: #A80036; stroke-width: 1.0;"/><!--MD5=[d056ac862973268b333cdbbf3462a36c]
reverse link com.ibm.fhir.model.type.code.RestfulCapabilityMode to com.ibm.fhir.model.type.code.RestfulCapabilityMode.Builder--><path d="M181.2709,286.6346 C165.6826,304.9705 150.9417,322.3095 140.3196,334.8039 " fill="none" id="com.ibm.fhir.model.type.code.RestfulCapabilityMode&lt;-com.ibm.fhir.model.type.code.RestfulCapabilityMode.Builder" style="stroke: #A80036; stroke-width: 1.0;"/><ellipse cx="185.8754" cy="281.2185" fill="#FFFFFF" rx="8" ry="8" style="stroke: #A80036; stroke-width: 1.0;"/><line style="stroke: #A80036; stroke-width: 1.0;" x1="180.6936" x2="191.0571" y1="287.3136" y2="275.1235"/><line style="stroke: #A80036; stroke-width: 1.0;" x1="179.7803" x2="191.9704" y1="276.0368" y2="286.4003"/><!--MD5=[5c659d13f74443d25a7a8dfb8e914272]
reverse link com.ibm.fhir.model.type.code.RestfulCapabilityMode to com.ibm.fhir.model.type.code.RestfulCapabilityMode.ValueSet--><path d="M344.7291,286.6346 C360.3174,304.9705 375.0583,322.3095 385.6804,334.8039 " fill="none" id="com.ibm.fhir.model.type.code.RestfulCapabilityMode&lt;-com.ibm.fhir.model.type.code.RestfulCapabilityMode.ValueSet" style="stroke: #A80036; stroke-width: 1.0;"/><ellipse cx="340.1246" cy="281.2185" fill="#FFFFFF" rx="8" ry="8" style="stroke: #A80036; stroke-width: 1.0;"/><line style="stroke: #A80036; stroke-width: 1.0;" x1="345.3064" x2="334.9429" y1="287.3136" y2="275.1235"/><line style="stroke: #A80036; stroke-width: 1.0;" x1="334.0296" x2="346.2197" y1="286.4003" y2="276.0368"/><text fill="#888888" font-family="sans-serif" font-size="10" lengthAdjust="spacingAndGlyphs" textLength="186" x="179.5" y="392.2822">UMLDoclet 2.0.7, PlantUML 1.2019.12</text><!--MD5=[1913b18e6c5208fdbe332057b85bbe58]
@startuml
    set namespaceSeparator none
    hide empty fields
    hide empty methods

    class "<size:14>RestfulCapabilityMode\n<size:10>com.ibm.fhir.model.type.code" as com.ibm.fhir.model.type.code.RestfulCapabilityMode [[RestfulCapabilityMode.html]] {
        {static} +CLIENT: RestfulCapabilityMode
        {static} +SERVER: RestfulCapabilityMode
        +getValueAsEnumConstant(): ValueSet
        {static} +of(ValueSet): RestfulCapabilityMode
        {static} +of(String): RestfulCapabilityMode
        {static} +string(String): String
        {static} +code(String): Code
        +toBuilder(): Builder
        {static} +builder(): Builder
    }

    class "<size:14>Code\n<size:10>com.ibm.fhir.model.type" as com.ibm.fhir.model.type.Code [[../Code.html]]
    class "<size:14>RestfulCapabilityMode.Builder\n<size:10>com.ibm.fhir.model.type.code" as com.ibm.fhir.model.type.code.RestfulCapabilityMode.Builder [[RestfulCapabilityMode.Builder.html]]
    enum "<size:14>RestfulCapabilityMode.ValueSet\n<size:10>com.ibm.fhir.model.type.code" as com.ibm.fhir.model.type.code.RestfulCapabilityMode.ValueSet [[RestfulCapabilityMode.ValueSet.html]]

    com.ibm.fhir.model.type.Code <|- - com.ibm.fhir.model.type.code.RestfulCapabilityMode
    com.ibm.fhir.model.type.code.RestfulCapabilityMode +- - com.ibm.fhir.model.type.code.RestfulCapabilityMode.Builder
    com.ibm.fhir.model.type.code.RestfulCapabilityMode +- - com.ibm.fhir.model.type.code.RestfulCapabilityMode.ValueSet

    center footer UMLDoclet 2.0.7, PlantUML 1.2019.12
@enduml

PlantUML version 1.2019.12(Sun Nov 03 10:24:54 UTC 2019)
(APACHE source distribution)
Java Runtime: OpenJDK Runtime Environment
JVM: OpenJDK 64-Bit Server VM
Java Version: 11.0.7+10
Operating System: Linux
Default Encoding: UTF-8
Language: en
Country: null
--></g></svg>