<?xml version="1.0" encoding="UTF-8" standalone="no"?><svg xmlns="http://www.w3.org/2000/svg" xmlns:xlink="http://www.w3.org/1999/xlink" contentScriptType="application/ecmascript" contentStyleType="text/css" height="305px" preserveAspectRatio="none" style="width:1861px;height:305px;" version="1.1" viewBox="0 0 1861 305" width="1861px" zoomAndPan="magnify"><defs><filter height="300%" id="f13cnkfjou9pws" width="300%" x="-1" y="-1"><feGaussianBlur result="blurOut" stdDeviation="2.0"/><feColorMatrix in="blurOut" result="blurOut2" type="matrix" values="0 0 0 0 0 0 0 0 0 0 0 0 0 0 0 0 0 0 .4 0"/><feOffset dx="4.0" dy="4.0" in="blurOut2" result="blurOut3"/><feBlend in="SourceGraphic" in2="blurOut3" mode="normal"/></filter></defs><g><!--MD5=[3da7587d87633970ec25ae3c2965f2c5]
cluster com.ibm.fhir.search.group.characteristic--><polygon fill="#FFFFFF" filter="url(#f13cnkfjou9pws)" points="22,24,350,24,357,46.2969,1839,46.2969,1839,257,22,257,22,24" style="stroke: #000000; stroke-width: 1.5;"/><line style="stroke: #000000; stroke-width: 1.5;" x1="22" x2="357" y1="46.2969" y2="46.2969"/><text fill="#000000" font-family="sans-serif" font-size="14" font-weight="bold" lengthAdjust="spacingAndGlyphs" textLength="322" x="26" y="38.9951">com.ibm.fhir.search.group.characteristic</text><!--MD5=[9ba4cc0f2f2bb47e279275ea92d65578]
class com.ibm.fhir.search.group.characteristic.CharacteristicProcessor--><a href="CharacteristicProcessor.html" target="_top" title="CharacteristicProcessor.html" xlink:actuate="onRequest" xlink:href="CharacteristicProcessor.html" xlink:show="new" xlink:title="CharacteristicProcessor.html" xlink:type="simple"><rect fill="#FEFECE" filter="url(#f13cnkfjou9pws)" height="60.8047" id="com.ibm.fhir.search.group.characteristic.CharacteristicProcessor" style="stroke: #A80036; stroke-width: 1.5;" width="416" x="722" y="59"/><ellipse cx="852.75" cy="75" fill="#B4A7E5" rx="11" ry="11" style="stroke: #A80036; stroke-width: 1.0;"/><path d="M848.6719,70.7656 L848.6719,68.6094 L856.0625,68.6094 L856.0625,70.7656 L853.5938,70.7656 L853.5938,78.8438 L856.0625,78.8438 L856.0625,81 L848.6719,81 L848.6719,78.8438 L851.1406,78.8438 L851.1406,70.7656 L848.6719,70.7656 Z "/><text fill="#000000" font-family="sans-serif" font-size="12" font-style="italic" lengthAdjust="spacingAndGlyphs" textLength="146" x="873.25" y="79.1543">CharacteristicProcessor</text><line style="stroke: #A80036; stroke-width: 1.5;" x1="723" x2="1137" y1="91" y2="91"/><line style="stroke: #A80036; stroke-width: 1.5;" x1="723" x2="1137" y1="99" y2="99"/><ellipse cx="733" cy="110" fill="#84BE84" rx="3" ry="3" style="stroke: #038048; stroke-width: 1.0;"/><text fill="#000000" font-family="sans-serif" font-size="11" font-style="italic" lengthAdjust="spacingAndGlyphs" textLength="390" x="742" y="113.2104">process(Characteristic, String, MultivaluedMap&lt;String, String&gt;): void</text></a><!--MD5=[cf2c644fa0f94b894cc1b8fbdc9f7927]
class com.ibm.fhir.search.group.characteristic.NoOpCharacteristicProcessor--><a href="NoOpCharacteristicProcessor.html" target="_top" title="NoOpCharacteristicProcessor.html" xlink:actuate="onRequest" xlink:href="NoOpCharacteristicProcessor.html" xlink:show="new" xlink:title="NoOpCharacteristicProcessor.html" xlink:type="simple"><rect fill="#FEFECE" filter="url(#f13cnkfjou9pws)" height="60.8047" id="com.ibm.fhir.search.group.characteristic.NoOpCharacteristicProcessor" style="stroke: #A80036; stroke-width: 1.5;" width="420" x="38" y="180"/><ellipse cx="151.75" cy="196" fill="#ADD1B2" rx="11" ry="11" style="stroke: #A80036; stroke-width: 1.0;"/><path d="M154.7188,201.6406 Q154.1406,201.9375 153.5,202.0781 Q152.8594,202.2344 152.1563,202.2344 Q149.6563,202.2344 148.3281,200.5938 Q147.0156,198.9375 147.0156,195.8125 Q147.0156,192.6875 148.3281,191.0313 Q149.6563,189.375 152.1563,189.375 Q152.8594,189.375 153.5,189.5313 Q154.1563,189.6875 154.7188,189.9844 L154.7188,192.7031 Q154.0938,192.125 153.5,191.8594 Q152.9063,191.5781 152.2813,191.5781 Q150.9375,191.5781 150.25,192.6563 Q149.5625,193.7188 149.5625,195.8125 Q149.5625,197.9063 150.25,198.9844 Q150.9375,200.0469 152.2813,200.0469 Q152.9063,200.0469 153.5,199.7813 Q154.0938,199.5 154.7188,198.9219 L154.7188,201.6406 Z "/><text fill="#000000" font-family="sans-serif" font-size="12" lengthAdjust="spacingAndGlyphs" textLength="184" x="172.25" y="200.1543">NoOpCharacteristicProcessor</text><line style="stroke: #A80036; stroke-width: 1.5;" x1="39" x2="457" y1="212" y2="212"/><line style="stroke: #A80036; stroke-width: 1.5;" x1="39" x2="457" y1="220" y2="220"/><ellipse cx="49" cy="231" fill="#84BE84" rx="3" ry="3" style="stroke: #038048; stroke-width: 1.0;"/><text fill="#000000" font-family="sans-serif" font-size="11" lengthAdjust="spacingAndGlyphs" textLength="394" x="58" y="234.2104">process(Characteristic, String, MultivaluedMap&lt;String, String&gt;): void</text></a><!--MD5=[118f378862caf0b6c3555be337b8060e]
class com.ibm.fhir.search.group.characteristic.AdministrativeGenderCharacteristicProcessor--><a href="AdministrativeGenderCharacteristicProcessor.html" target="_top" title="AdministrativeGenderCharacteristicProcessor.html" xlink:actuate="onRequest" xlink:href="AdministrativeGenderCharacteristicProcessor.html" xlink:show="new" xlink:title="AdministrativeGenderCharacteristicProcessor.html" xlink:type="simple"><rect fill="#FEFECE" filter="url(#f13cnkfjou9pws)" height="60.8047" id="com.ibm.fhir.search.group.characteristic.AdministrativeGenderCharacteristicProcessor" style="stroke: #A80036; stroke-width: 1.5;" width="420" x="493" y="180"/><ellipse cx="556.75" cy="196" fill="#ADD1B2" rx="11" ry="11" style="stroke: #A80036; stroke-width: 1.0;"/><path d="M559.7188,201.6406 Q559.1406,201.9375 558.5,202.0781 Q557.8594,202.2344 557.1563,202.2344 Q554.6563,202.2344 553.3281,200.5938 Q552.0156,198.9375 552.0156,195.8125 Q552.0156,192.6875 553.3281,191.0313 Q554.6563,189.375 557.1563,189.375 Q557.8594,189.375 558.5,189.5313 Q559.1563,189.6875 559.7188,189.9844 L559.7188,192.7031 Q559.0938,192.125 558.5,191.8594 Q557.9063,191.5781 557.2813,191.5781 Q555.9375,191.5781 555.25,192.6563 Q554.5625,193.7188 554.5625,195.8125 Q554.5625,197.9063 555.25,198.9844 Q555.9375,200.0469 557.2813,200.0469 Q557.9063,200.0469 558.5,199.7813 Q559.0938,199.5 559.7188,198.9219 L559.7188,201.6406 Z "/><text fill="#000000" font-family="sans-serif" font-size="12" lengthAdjust="spacingAndGlyphs" textLength="284" x="577.25" y="200.1543">AdministrativeGenderCharacteristicProcessor</text><line style="stroke: #A80036; stroke-width: 1.5;" x1="494" x2="912" y1="212" y2="212"/><line style="stroke: #A80036; stroke-width: 1.5;" x1="494" x2="912" y1="220" y2="220"/><ellipse cx="504" cy="231" fill="#84BE84" rx="3" ry="3" style="stroke: #038048; stroke-width: 1.0;"/><text fill="#000000" font-family="sans-serif" font-size="11" lengthAdjust="spacingAndGlyphs" textLength="394" x="513" y="234.2104">process(Characteristic, String, MultivaluedMap&lt;String, String&gt;): void</text></a><!--MD5=[2e6c190cc6de263b5119cff5014f2591]
class com.ibm.fhir.search.group.characteristic.PregnancyStatusCharacteristicProcessor--><a href="PregnancyStatusCharacteristicProcessor.html" target="_top" title="PregnancyStatusCharacteristicProcessor.html" xlink:actuate="onRequest" xlink:href="PregnancyStatusCharacteristicProcessor.html" xlink:show="new" xlink:title="PregnancyStatusCharacteristicProcessor.html" xlink:type="simple"><rect fill="#FEFECE" filter="url(#f13cnkfjou9pws)" height="60.8047" id="com.ibm.fhir.search.group.characteristic.PregnancyStatusCharacteristicProcessor" style="stroke: #A80036; stroke-width: 1.5;" width="420" x="948" y="180"/><ellipse cx="1025.25" cy="196" fill="#ADD1B2" rx="11" ry="11" style="stroke: #A80036; stroke-width: 1.0;"/><path d="M1028.2188,201.6406 Q1027.6406,201.9375 1027,202.0781 Q1026.3594,202.2344 1025.6563,202.2344 Q1023.1563,202.2344 1021.8281,200.5938 Q1020.5156,198.9375 1020.5156,195.8125 Q1020.5156,192.6875 1021.8281,191.0313 Q1023.1563,189.375 1025.6563,189.375 Q1026.3594,189.375 1027,189.5313 Q1027.6563,189.6875 1028.2188,189.9844 L1028.2188,192.7031 Q1027.5938,192.125 1027,191.8594 Q1026.4063,191.5781 1025.7813,191.5781 Q1024.4375,191.5781 1023.75,192.6563 Q1023.0625,193.7188 1023.0625,195.8125 Q1023.0625,197.9063 1023.75,198.9844 Q1024.4375,200.0469 1025.7813,200.0469 Q1026.4063,200.0469 1027,199.7813 Q1027.5938,199.5 1028.2188,198.9219 L1028.2188,201.6406 Z "/><text fill="#000000" font-family="sans-serif" font-size="12" lengthAdjust="spacingAndGlyphs" textLength="257" x="1045.75" y="200.1543">PregnancyStatusCharacteristicProcessor</text><line style="stroke: #A80036; stroke-width: 1.5;" x1="949" x2="1367" y1="212" y2="212"/><line style="stroke: #A80036; stroke-width: 1.5;" x1="949" x2="1367" y1="220" y2="220"/><ellipse cx="959" cy="231" fill="#84BE84" rx="3" ry="3" style="stroke: #038048; stroke-width: 1.0;"/><text fill="#000000" font-family="sans-serif" font-size="11" lengthAdjust="spacingAndGlyphs" textLength="394" x="968" y="234.2104">process(Characteristic, String, MultivaluedMap&lt;String, String&gt;): void</text></a><!--MD5=[6097faa3c94df113b384d1074946cc8d]
class com.ibm.fhir.search.group.characteristic.PatientAgeCharacteristicProcessor--><a href="PatientAgeCharacteristicProcessor.html" target="_top" title="PatientAgeCharacteristicProcessor.html" xlink:actuate="onRequest" xlink:href="PatientAgeCharacteristicProcessor.html" xlink:show="new" xlink:title="PatientAgeCharacteristicProcessor.html" xlink:type="simple"><rect fill="#FEFECE" filter="url(#f13cnkfjou9pws)" height="60.8047" id="com.ibm.fhir.search.group.characteristic.PatientAgeCharacteristicProcessor" style="stroke: #A80036; stroke-width: 1.5;" width="420" x="1403" y="180"/><ellipse cx="1499.25" cy="196" fill="#ADD1B2" rx="11" ry="11" style="stroke: #A80036; stroke-width: 1.0;"/><path d="M1502.2188,201.6406 Q1501.6406,201.9375 1501,202.0781 Q1500.3594,202.2344 1499.6563,202.2344 Q1497.1563,202.2344 1495.8281,200.5938 Q1494.5156,198.9375 1494.5156,195.8125 Q1494.5156,192.6875 1495.8281,191.0313 Q1497.1563,189.375 1499.6563,189.375 Q1500.3594,189.375 1501,189.5313 Q1501.6563,189.6875 1502.2188,189.9844 L1502.2188,192.7031 Q1501.5938,192.125 1501,191.8594 Q1500.4063,191.5781 1499.7813,191.5781 Q1498.4375,191.5781 1497.75,192.6563 Q1497.0625,193.7188 1497.0625,195.8125 Q1497.0625,197.9063 1497.75,198.9844 Q1498.4375,200.0469 1499.7813,200.0469 Q1500.4063,200.0469 1501,199.7813 Q1501.5938,199.5 1502.2188,198.9219 L1502.2188,201.6406 Z "/><text fill="#000000" font-family="sans-serif" font-size="12" lengthAdjust="spacingAndGlyphs" textLength="219" x="1519.75" y="200.1543">PatientAgeCharacteristicProcessor</text><line style="stroke: #A80036; stroke-width: 1.5;" x1="1404" x2="1822" y1="212" y2="212"/><line style="stroke: #A80036; stroke-width: 1.5;" x1="1404" x2="1822" y1="220" y2="220"/><ellipse cx="1414" cy="231" fill="#84BE84" rx="3" ry="3" style="stroke: #038048; stroke-width: 1.0;"/><text fill="#000000" font-family="sans-serif" font-size="11" lengthAdjust="spacingAndGlyphs" textLength="394" x="1423" y="234.2104">process(Characteristic, String, MultivaluedMap&lt;String, String&gt;): void</text></a><!--MD5=[57bbdd0bf6ab83d29821227c3ebaa5cb]
reverse link com.ibm.fhir.search.group.characteristic.CharacteristicProcessor to com.ibm.fhir.search.group.characteristic.NoOpCharacteristicProcessor--><path d="M740.57,123.55 C639.17,141.25 515.32,162.86 417.18,179.98 " fill="none" id="com.ibm.fhir.search.group.characteristic.CharacteristicProcessor&lt;-com.ibm.fhir.search.group.characteristic.NoOpCharacteristicProcessor" style="stroke: #A80036; stroke-width: 1.0; stroke-dasharray: 7.0,7.0;"/><polygon fill="none" points="739.63,116.61,760.54,120.07,742.04,130.4,739.63,116.61" style="stroke: #A80036; stroke-width: 1.0;"/><!--MD5=[3bdb135fa1a3c51ce8e7d3d9ab6c89ed]
reverse link com.ibm.fhir.search.group.characteristic.CharacteristicProcessor to com.ibm.fhir.search.group.characteristic.AdministrativeGenderCharacteristicProcessor--><path d="M855.77,129.41 C824.47,145.82 788.61,164.62 759.51,179.88 " fill="none" id="com.ibm.fhir.search.group.characteristic.CharacteristicProcessor&lt;-com.ibm.fhir.search.group.characteristic.AdministrativeGenderCharacteristicProcessor" style="stroke: #A80036; stroke-width: 1.0; stroke-dasharray: 7.0,7.0;"/><polygon fill="none" points="852.63,123.15,873.6,120.07,859.13,135.55,852.63,123.15" style="stroke: #A80036; stroke-width: 1.0;"/><!--MD5=[84183774b61039a6a88cae6269e93d6c]
reverse link com.ibm.fhir.search.group.characteristic.CharacteristicProcessor to com.ibm.fhir.search.group.characteristic.PregnancyStatusCharacteristicProcessor--><path d="M1004.55,129.41 C1036,145.82 1072.01,164.62 1101.24,179.88 " fill="none" id="com.ibm.fhir.search.group.characteristic.CharacteristicProcessor&lt;-com.ibm.fhir.search.group.characteristic.PregnancyStatusCharacteristicProcessor" style="stroke: #A80036; stroke-width: 1.0; stroke-dasharray: 7.0,7.0;"/><polygon fill="none" points="1001.14,135.53,986.65,120.07,1007.62,123.12,1001.14,135.53" style="stroke: #A80036; stroke-width: 1.0;"/><!--MD5=[ce4a6b83340aac92a8049170d9b8f7a9]
reverse link com.ibm.fhir.search.group.characteristic.CharacteristicProcessor to com.ibm.fhir.search.group.characteristic.PatientAgeCharacteristicProcessor--><path d="M1119.7,123.55 C1221.25,141.25 1345.29,162.86 1443.57,179.98 " fill="none" id="com.ibm.fhir.search.group.characteristic.CharacteristicProcessor&lt;-com.ibm.fhir.search.group.characteristic.PatientAgeCharacteristicProcessor" style="stroke: #A80036; stroke-width: 1.0; stroke-dasharray: 7.0,7.0;"/><polygon fill="none" points="1118.21,130.4,1099.71,120.07,1120.61,116.61,1118.21,130.4" style="stroke: #A80036; stroke-width: 1.0;"/><text fill="#888888" font-family="sans-serif" font-size="10" lengthAdjust="spacingAndGlyphs" textLength="186" x="843.5" y="292.2822">UMLDoclet 2.0.7, PlantUML 1.2019.12</text><!--MD5=[aa68f4e67c54200441f538615d295b55]
@startuml
    namespace com.ibm.fhir.search.group.characteristic {

        interface CharacteristicProcessor [[CharacteristicProcessor.html]] {
            {abstract} +process(Characteristic, String, MultivaluedMap<String, String>): void
        }

        class NoOpCharacteristicProcessor [[NoOpCharacteristicProcessor.html]] {
            +process(Characteristic, String, MultivaluedMap<String, String>): void
        }

        class AdministrativeGenderCharacteristicProcessor [[AdministrativeGenderCharacteristicProcessor.html]] {
            +process(Characteristic, String, MultivaluedMap<String, String>): void
        }

        class PregnancyStatusCharacteristicProcessor [[PregnancyStatusCharacteristicProcessor.html]] {
            +process(Characteristic, String, MultivaluedMap<String, String>): void
        }

        class PatientAgeCharacteristicProcessor [[PatientAgeCharacteristicProcessor.html]] {
            +process(Characteristic, String, MultivaluedMap<String, String>): void
        }

        CharacteristicProcessor <|.. NoOpCharacteristicProcessor
        CharacteristicProcessor <|.. AdministrativeGenderCharacteristicProcessor
        CharacteristicProcessor <|.. PregnancyStatusCharacteristicProcessor
        CharacteristicProcessor <|.. PatientAgeCharacteristicProcessor
    }

    center footer UMLDoclet 2.0.7, PlantUML 1.2019.12
@enduml

PlantUML version 1.2019.12(Sun Nov 03 10:24:54 UTC 2019)
(APACHE source distribution)
Java Runtime: OpenJDK Runtime Environment
JVM: OpenJDK 64-Bit Server VM
Java Version: 11.0.10+9
Operating System: Linux
Default Encoding: UTF-8
Language: en
Country: null
--></g></svg>