<?xml version="1.0" encoding="UTF-8" standalone="no"?><svg xmlns="http://www.w3.org/2000/svg" xmlns:xlink="http://www.w3.org/1999/xlink" contentScriptType="application/ecmascript" contentStyleType="text/css" height="940px" preserveAspectRatio="none" style="width:1386px;height:940px;" version="1.1" viewBox="0 0 1386 940" width="1386px" zoomAndPan="magnify"><defs><filter height="300%" id="fksqkuxrb43jd" width="300%" x="-1" y="-1"><feGaussianBlur result="blurOut" stdDeviation="2.0"/><feColorMatrix in="blurOut" result="blurOut2" type="matrix" values="0 0 0 0 0 0 0 0 0 0 0 0 0 0 0 0 0 0 .4 0"/><feOffset dx="4.0" dy="4.0" in="blurOut2" result="blurOut3"/><feBlend in="SourceGraphic" in2="blurOut3" mode="normal"/></filter></defs><g><!--cluster com.ibm.fhir.core--><polygon fill="#FFFFFF" filter="url(#fksqkuxrb43jd)" points="35,461,164,461,171,483.4883,1364,483.4883,1364,899,35,899,35,461" style="stroke: #000000; stroke-width: 1.5;"/><line style="stroke: #000000; stroke-width: 1.5;" x1="35" x2="171" y1="483.4883" y2="483.4883"/><text fill="#000000" font-family="sans-serif" font-size="14" font-weight="bold" lengthAdjust="spacingAndGlyphs" textLength="123" x="39" y="476.5352">com.ibm.fhir.core</text><!--cluster javax.ws.rs.core--><polygon fill="#FFFFFF" filter="url(#fksqkuxrb43jd)" points="14,16,130,16,137,38.4883,340,38.4883,340,436,14,436,14,16" style="stroke: #000000; stroke-width: 1.5;"/><line style="stroke: #000000; stroke-width: 1.5;" x1="14" x2="137" y1="38.4883" y2="38.4883"/><text fill="#000000" font-family="sans-serif" font-size="14" font-weight="bold" lengthAdjust="spacingAndGlyphs" textLength="110" x="18" y="31.5352">javax.ws.rs.core</text><!--class com.ibm.fhir.core.FHIRConstants--><a href="FHIRConstants.html" target="_top" xlink:actuate="onRequest" xlink:show="new" xlink:title="FHIRConstants.html" xlink:type="simple"><rect fill="#FEFECE" filter="url(#fksqkuxrb43jd)" height="60.9551" id="com.ibm.fhir.core.FHIRConstants" style="stroke: #A80036; stroke-width: 1.5;" width="188" x="346" y="546.5"/><ellipse cx="394.75" cy="562.5" fill="#ADD1B2" rx="11" ry="11" style="stroke: #A80036; stroke-width: 1.0;"/><path d="M397.2231,568.6431 Q396.6421,568.9419 396.0029,569.0913 Q395.3638,569.2407 394.6582,569.2407 Q392.1514,569.2407 390.8315,567.5889 Q389.5117,565.937 389.5117,562.8159 Q389.5117,559.6865 390.8315,558.0347 Q392.1514,556.3828 394.6582,556.3828 Q395.3638,556.3828 396.0112,556.5322 Q396.6587,556.6816 397.2231,556.9805 L397.2231,559.7031 Q396.5923,559.1221 395.9988,558.8523 Q395.4053,558.5825 394.7744,558.5825 Q393.4297,558.5825 392.7449,559.6492 Q392.0601,560.7158 392.0601,562.8159 Q392.0601,564.9077 392.7449,565.9744 Q393.4297,567.041 394.7744,567.041 Q395.4053,567.041 395.9988,566.7712 Q396.5923,566.5015 397.2231,565.9204 Z "/><text fill="#000000" font-family="sans-serif" font-size="12" lengthAdjust="spacingAndGlyphs" textLength="82" x="415.25" y="567.0352">FHIRConstants</text><line style="stroke: #A80036; stroke-width: 1.5;" x1="347" x2="533" y1="578.5" y2="578.5"/><ellipse cx="357" cy="590.4775" fill="none" rx="3" ry="3" style="stroke: #038048; stroke-width: 1.0;"/><text fill="#000000" font-family="sans-serif" font-size="11" lengthAdjust="spacingAndGlyphs" text-decoration="underline" textLength="162" x="366" y="593.1348">FHIR_LOGGING_GROUP: String</text><line style="stroke: #A80036; stroke-width: 1.5;" x1="347" x2="533" y1="599.4551" y2="599.4551"/></a><!--class com.ibm.fhir.core.FHIRUtilities--><a href="FHIRUtilities.html" target="_top" xlink:actuate="onRequest" xlink:show="new" xlink:title="FHIRUtilities.html" xlink:type="simple"><rect fill="#FEFECE" filter="url(#fksqkuxrb43jd)" height="177.5508" id="com.ibm.fhir.core.FHIRUtilities" style="stroke: #A80036; stroke-width: 1.5;" width="532" x="569" y="488"/><ellipse cx="797.25" cy="504" fill="#ADD1B2" rx="11" ry="11" style="stroke: #A80036; stroke-width: 1.0;"/><path d="M799.7231,510.1431 Q799.1421,510.4419 798.5029,510.5913 Q797.8638,510.7407 797.1582,510.7407 Q794.6514,510.7407 793.3315,509.0889 Q792.0117,507.437 792.0117,504.3159 Q792.0117,501.1865 793.3315,499.5347 Q794.6514,497.8828 797.1582,497.8828 Q797.8638,497.8828 798.5112,498.0322 Q799.1587,498.1816 799.7231,498.4805 L799.7231,501.2031 Q799.0923,500.6221 798.4988,500.3523 Q797.9053,500.0825 797.2744,500.0825 Q795.9297,500.0825 795.2449,501.1492 Q794.5601,502.2158 794.5601,504.3159 Q794.5601,506.4077 795.2449,507.4744 Q795.9297,508.541 797.2744,508.541 Q797.9053,508.541 798.4988,508.2712 Q799.0923,508.0015 799.7231,507.4204 Z "/><text fill="#000000" font-family="sans-serif" font-size="12" lengthAdjust="spacingAndGlyphs" textLength="67" x="817.75" y="508.5352">FHIRUtilities</text><line style="stroke: #A80036; stroke-width: 1.5;" x1="570" x2="1100" y1="520" y2="520"/><line style="stroke: #A80036; stroke-width: 1.5;" x1="570" x2="1100" y1="528" y2="528"/><ellipse cx="580" cy="539.9775" fill="#84BE84" rx="3" ry="3" style="stroke: #038048; stroke-width: 1.0;"/><text fill="#000000" font-family="sans-serif" font-size="11" lengthAdjust="spacingAndGlyphs" text-decoration="underline" textLength="170" x="589" y="542.6348">getObjectHandle(Object): String</text><ellipse cx="580" cy="552.9326" fill="#84BE84" rx="3" ry="3" style="stroke: #038048; stroke-width: 1.0;"/><text fill="#000000" font-family="sans-serif" font-size="11" lengthAdjust="spacingAndGlyphs" text-decoration="underline" textLength="160" x="589" y="555.5898">getCurrentStacktrace(): String</text><ellipse cx="580" cy="565.8877" fill="#84BE84" rx="3" ry="3" style="stroke: #038048; stroke-width: 1.0;"/><text fill="#000000" font-family="sans-serif" font-size="11" lengthAdjust="spacingAndGlyphs" text-decoration="underline" textLength="238" x="589" y="568.5449">stripNamespaceIfPresentInDiv(String): String</text><ellipse cx="580" cy="578.8428" fill="#84BE84" rx="3" ry="3" style="stroke: #038048; stroke-width: 1.0;"/><text fill="#000000" font-family="sans-serif" font-size="11" lengthAdjust="spacingAndGlyphs" text-decoration="underline" textLength="281" x="589" y="581.5">stripNewLineWhitespaceIfPresentInDiv(String): String</text><ellipse cx="580" cy="591.7979" fill="#84BE84" rx="3" ry="3" style="stroke: #038048; stroke-width: 1.0;"/><text fill="#000000" font-family="sans-serif" font-size="11" lengthAdjust="spacingAndGlyphs" text-decoration="underline" textLength="117" x="589" y="594.4551">decode(String): String</text><ellipse cx="580" cy="604.7529" fill="#84BE84" rx="3" ry="3" style="stroke: #038048; stroke-width: 1.0;"/><text fill="#000000" font-family="sans-serif" font-size="11" lengthAdjust="spacingAndGlyphs" text-decoration="underline" textLength="144" x="589" y="607.4102">isEncoded(String): boolean</text><ellipse cx="580" cy="617.708" fill="#84BE84" rx="3" ry="3" style="stroke: #038048; stroke-width: 1.0;"/><text fill="#000000" font-family="sans-serif" font-size="11" lengthAdjust="spacingAndGlyphs" text-decoration="underline" textLength="271" x="589" y="620.3652">convertToTimestamp(ZonedDateTime): Timestamp</text><ellipse cx="580" cy="630.6631" fill="#84BE84" rx="3" ry="3" style="stroke: #038048; stroke-width: 1.0;"/><text fill="#000000" font-family="sans-serif" font-size="11" lengthAdjust="spacingAndGlyphs" text-decoration="underline" textLength="175" x="589" y="633.3203">convertToInstant(String): Instant</text><ellipse cx="580" cy="643.6182" fill="#84BE84" rx="3" ry="3" style="stroke: #038048; stroke-width: 1.0;"/><text fill="#000000" font-family="sans-serif" font-size="11" lengthAdjust="spacingAndGlyphs" text-decoration="underline" textLength="165" x="589" y="646.2754">formatTimestamp(Date): String</text><ellipse cx="580" cy="656.5732" fill="#84BE84" rx="3" ry="3" style="stroke: #038048; stroke-width: 1.0;"/><text fill="#000000" font-family="sans-serif" font-size="11" lengthAdjust="spacingAndGlyphs" text-decoration="underline" textLength="506" x="589" y="659.2305">retrieveEncryptionKeyFromKeystore(String, String, String, String, String, String): SecretKeySpec</text></a><!--class com.ibm.fhir.core.FHIRMediaType--><a href="FHIRMediaType.html" target="_top" xlink:actuate="onRequest" xlink:show="new" xlink:title="FHIRMediaType.html" xlink:type="simple"><rect fill="#FEFECE" filter="url(#fksqkuxrb43jd)" height="164.5957" id="com.ibm.fhir.core.FHIRMediaType" style="stroke: #A80036; stroke-width: 1.5;" width="268" x="43" y="494.5"/><ellipse cx="127.75" cy="510.5" fill="#ADD1B2" rx="11" ry="11" style="stroke: #A80036; stroke-width: 1.0;"/><path d="M130.2231,516.6431 Q129.6421,516.9419 129.0029,517.0913 Q128.3638,517.2407 127.6582,517.2407 Q125.1514,517.2407 123.8315,515.5889 Q122.5117,513.937 122.5117,510.8159 Q122.5117,507.6865 123.8315,506.0347 Q125.1514,504.3828 127.6582,504.3828 Q128.3638,504.3828 129.0112,504.5322 Q129.6587,504.6816 130.2231,504.9805 L130.2231,507.7031 Q129.5923,507.1221 128.9988,506.8523 Q128.4053,506.5825 127.7744,506.5825 Q126.4297,506.5825 125.7449,507.6492 Q125.0601,508.7158 125.0601,510.8159 Q125.0601,512.9077 125.7449,513.9744 Q126.4297,515.041 127.7744,515.041 Q128.4053,515.041 128.9988,514.7712 Q129.5923,514.5015 130.2231,513.9204 Z "/><text fill="#000000" font-family="sans-serif" font-size="12" lengthAdjust="spacingAndGlyphs" textLength="90" x="148.25" y="515.0352">FHIRMediaType</text><line style="stroke: #A80036; stroke-width: 1.5;" x1="44" x2="310" y1="526.5" y2="526.5"/><ellipse cx="54" cy="538.4775" fill="none" rx="3" ry="3" style="stroke: #038048; stroke-width: 1.0;"/><text fill="#000000" font-family="sans-serif" font-size="11" lengthAdjust="spacingAndGlyphs" text-decoration="underline" textLength="146" x="63" y="541.1348">SUBTYPE_FHIR_JSON: String</text><ellipse cx="54" cy="551.4326" fill="none" rx="3" ry="3" style="stroke: #038048; stroke-width: 1.0;"/><text fill="#000000" font-family="sans-serif" font-size="11" lengthAdjust="spacingAndGlyphs" text-decoration="underline" textLength="172" x="63" y="554.0898">APPLICATION_FHIR_JSON: String</text><ellipse cx="54" cy="564.3877" fill="none" rx="3" ry="3" style="stroke: #038048; stroke-width: 1.0;"/><text fill="#000000" font-family="sans-serif" font-size="11" lengthAdjust="spacingAndGlyphs" text-decoration="underline" textLength="229" x="63" y="567.0449">APPLICATION_FHIR_JSON_TYPE: MediaType</text><ellipse cx="54" cy="577.3428" fill="none" rx="3" ry="3" style="stroke: #038048; stroke-width: 1.0;"/><text fill="#000000" font-family="sans-serif" font-size="11" lengthAdjust="spacingAndGlyphs" text-decoration="underline" textLength="142" x="63" y="580">SUBTYPE_FHIR_XML: String</text><ellipse cx="54" cy="590.2979" fill="none" rx="3" ry="3" style="stroke: #038048; stroke-width: 1.0;"/><text fill="#000000" font-family="sans-serif" font-size="11" lengthAdjust="spacingAndGlyphs" text-decoration="underline" textLength="168" x="63" y="592.9551">APPLICATION_FHIR_XML: String</text><ellipse cx="54" cy="603.2529" fill="none" rx="3" ry="3" style="stroke: #038048; stroke-width: 1.0;"/><text fill="#000000" font-family="sans-serif" font-size="11" lengthAdjust="spacingAndGlyphs" text-decoration="underline" textLength="225" x="63" y="605.9102">APPLICATION_FHIR_XML_TYPE: MediaType</text><ellipse cx="54" cy="616.208" fill="none" rx="3" ry="3" style="stroke: #038048; stroke-width: 1.0;"/><text fill="#000000" font-family="sans-serif" font-size="11" lengthAdjust="spacingAndGlyphs" text-decoration="underline" textLength="159" x="63" y="618.8652">SUBTYPE_JSON_PATCH: String</text><ellipse cx="54" cy="629.1631" fill="none" rx="3" ry="3" style="stroke: #038048; stroke-width: 1.0;"/><text fill="#000000" font-family="sans-serif" font-size="11" lengthAdjust="spacingAndGlyphs" text-decoration="underline" textLength="185" x="63" y="631.8203">APPLICATION_JSON_PATCH: String</text><ellipse cx="54" cy="642.1182" fill="none" rx="3" ry="3" style="stroke: #038048; stroke-width: 1.0;"/><text fill="#000000" font-family="sans-serif" font-size="11" lengthAdjust="spacingAndGlyphs" text-decoration="underline" textLength="242" x="63" y="644.7754">APPLICATION_JSON_PATCH_TYPE: MediaType</text><line style="stroke: #A80036; stroke-width: 1.5;" x1="44" x2="310" y1="651.0957" y2="651.0957"/></a><!--class com.ibm.fhir.core.HTTPReturnPreference--><a href="HTTPReturnPreference.html" target="_top" xlink:actuate="onRequest" xlink:show="new" xlink:title="HTTPReturnPreference.html" xlink:type="simple"><rect fill="#FEFECE" filter="url(#fksqkuxrb43jd)" height="112.7754" id="com.ibm.fhir.core.HTTPReturnPreference" style="stroke: #A80036; stroke-width: 1.5;" width="219" x="1136.5" y="520.5"/><ellipse cx="1176.25" cy="536.5" fill="#EB937F" rx="11" ry="11" style="stroke: #A80036; stroke-width: 1.0;"/><path d="M1179.8643,543 L1172.1445,543 L1172.1445,530.6069 L1179.8643,530.6069 L1179.8643,532.7651 L1174.5933,532.7651 L1174.5933,535.438 L1179.3662,535.438 L1179.3662,537.5962 L1174.5933,537.5962 L1174.5933,540.8418 L1179.8643,540.8418 Z "/><text fill="#000000" font-family="sans-serif" font-size="12" lengthAdjust="spacingAndGlyphs" textLength="132" x="1195.75" y="541.0352">HTTPReturnPreference</text><line style="stroke: #A80036; stroke-width: 1.5;" x1="1137.5" x2="1354.5" y1="552.5" y2="552.5"/><ellipse cx="1147.5" cy="564.4775" fill="none" rx="3" ry="3" style="stroke: #038048; stroke-width: 1.0;"/><text fill="#000000" font-family="sans-serif" font-size="11" lengthAdjust="spacingAndGlyphs" text-decoration="underline" textLength="46" x="1156.5" y="567.1348">MINIMAL</text><ellipse cx="1147.5" cy="577.4326" fill="none" rx="3" ry="3" style="stroke: #038048; stroke-width: 1.0;"/><text fill="#000000" font-family="sans-serif" font-size="11" lengthAdjust="spacingAndGlyphs" text-decoration="underline" textLength="94" x="1156.5" y="580.0898">REPRESENTATION</text><ellipse cx="1147.5" cy="590.3877" fill="none" rx="3" ry="3" style="stroke: #038048; stroke-width: 1.0;"/><text fill="#000000" font-family="sans-serif" font-size="11" lengthAdjust="spacingAndGlyphs" text-decoration="underline" textLength="125" x="1156.5" y="593.0449">OPERATION_OUTCOME</text><line style="stroke: #A80036; stroke-width: 1.5;" x1="1137.5" x2="1354.5" y1="599.3652" y2="599.3652"/><ellipse cx="1147.5" cy="611.3428" fill="#84BE84" rx="3" ry="3" style="stroke: #038048; stroke-width: 1.0;"/><text fill="#000000" font-family="sans-serif" font-size="11" lengthAdjust="spacingAndGlyphs" textLength="74" x="1156.5" y="614">value(): String</text><ellipse cx="1147.5" cy="624.2979" fill="#84BE84" rx="3" ry="3" style="stroke: #038048; stroke-width: 1.0;"/><text fill="#000000" font-family="sans-serif" font-size="11" lengthAdjust="spacingAndGlyphs" text-decoration="underline" textLength="193" x="1156.5" y="626.9551">from(String): HTTPReturnPreference</text></a><!--class com.ibm.fhir.core.TenantSpecificFileBasedCache--><a href="TenantSpecificFileBasedCache.html" target="_top" xlink:actuate="onRequest" xlink:show="new" xlink:title="TenantSpecificFileBasedCache.html" xlink:type="simple"><rect fill="#FEFECE" filter="url(#fksqkuxrb43jd)" height="125.7305" id="com.ibm.fhir.core.TenantSpecificFileBasedCache" style="stroke: #A80036; stroke-width: 1.5;" width="229" x="325.5" y="745.5"/><ellipse cx="346.35" cy="761.5" fill="#A9DCDF" rx="11" ry="11" style="stroke: #A80036; stroke-width: 1.0;"/><path d="M346.4633,757.0981 L345.3095,762.1699 L347.6254,762.1699 Z M344.9691,754.8569 L347.9657,754.8569 L351.3109,767.25 L348.8622,767.25 L348.0985,764.187 L344.8197,764.187 L344.0727,767.25 L341.6239,767.25 Z "/><text fill="#000000" font-family="sans-serif" font-size="12" font-style="italic" lengthAdjust="spacingAndGlyphs" textLength="172" x="361.65" y="766.0352">TenantSpecificFileBasedCache</text><rect fill="#FFFFFF" height="16.1328" style="stroke: #000000; stroke-width: 1.0; stroke-dasharray: 2.0,2.0;" width="10" x="547.5" y="742.5"/><text fill="#000000" font-family="sans-serif" font-size="12" font-style="italic" lengthAdjust="spacingAndGlyphs" textLength="8" x="548.5" y="755.1016">T</text><line style="stroke: #A80036; stroke-width: 1.5;" x1="326.5" x2="553.5" y1="777.5" y2="777.5"/><line style="stroke: #A80036; stroke-width: 1.5;" x1="326.5" x2="553.5" y1="785.5" y2="785.5"/><ellipse cx="336.5" cy="797.4775" fill="#84BE84" rx="3" ry="3" style="stroke: #038048; stroke-width: 1.0;"/><text fill="#000000" font-family="sans-serif" font-size="11" lengthAdjust="spacingAndGlyphs" textLength="168" x="345.5" y="800.1348">TenantSpecificFileBasedCache()</text><ellipse cx="336.5" cy="810.4326" fill="#84BE84" rx="3" ry="3" style="stroke: #038048; stroke-width: 1.0;"/><text fill="#000000" font-family="sans-serif" font-size="11" lengthAdjust="spacingAndGlyphs" textLength="200" x="345.5" y="813.0898">TenantSpecificFileBasedCache(String)</text><ellipse cx="336.5" cy="823.3877" fill="#84BE84" rx="3" ry="3" style="stroke: #038048; stroke-width: 1.0;"/><text fill="#000000" font-family="sans-serif" font-size="11" lengthAdjust="spacingAndGlyphs" textLength="96" x="345.5" y="826.0449">clearCache(): void</text><ellipse cx="336.5" cy="836.3428" fill="#84BE84" rx="3" ry="3" style="stroke: #038048; stroke-width: 1.0;"/><text fill="#000000" font-family="sans-serif" font-size="11" font-style="italic" lengthAdjust="spacingAndGlyphs" textLength="203" x="345.5" y="839">getCacheEntryFilename(String): String</text><ellipse cx="336.5" cy="849.2979" fill="#84BE84" rx="3" ry="3" style="stroke: #038048; stroke-width: 1.0;"/><text fill="#000000" font-family="sans-serif" font-size="11" font-style="italic" lengthAdjust="spacingAndGlyphs" textLength="147" x="345.5" y="851.9551">createCachedObject(File): T</text><ellipse cx="336.5" cy="862.2529" fill="#84BE84" rx="3" ry="3" style="stroke: #038048; stroke-width: 1.0;"/><text fill="#000000" font-family="sans-serif" font-size="11" lengthAdjust="spacingAndGlyphs" textLength="200" x="345.5" y="864.9102">getCachedObjectForTenant(String): T</text></a><!--class com.ibm.fhir.core.CachedObjectHolder--><a href="CachedObjectHolder.html" target="_top" xlink:actuate="onRequest" xlink:show="new" xlink:title="CachedObjectHolder.html" xlink:type="simple"><rect fill="#FEFECE" filter="url(#fksqkuxrb43jd)" height="164.5957" id="com.ibm.fhir.core.CachedObjectHolder" style="stroke: #A80036; stroke-width: 1.5;" width="190" x="590" y="726"/><ellipse cx="616.7" cy="742" fill="#ADD1B2" rx="11" ry="11" style="stroke: #A80036; stroke-width: 1.0;"/><path d="M619.1731,748.1431 Q618.5921,748.4419 617.9529,748.5913 Q617.3138,748.7407 616.6082,748.7407 Q614.1014,748.7407 612.7815,747.0889 Q611.4617,745.437 611.4617,742.3159 Q611.4617,739.1865 612.7815,737.5347 Q614.1014,735.8828 616.6082,735.8828 Q617.3138,735.8828 617.9612,736.0322 Q618.6087,736.1816 619.1731,736.4805 L619.1731,739.2031 Q618.5423,738.6221 617.9488,738.3523 Q617.3553,738.0825 616.7244,738.0825 Q615.3797,738.0825 614.6949,739.1492 Q614.0101,740.2158 614.0101,742.3159 Q614.0101,744.4077 614.6949,745.4744 Q615.3797,746.541 616.7244,746.541 Q617.3553,746.541 617.9488,746.2712 Q618.5423,746.0015 619.1731,745.4204 Z "/><text fill="#000000" font-family="sans-serif" font-size="12" lengthAdjust="spacingAndGlyphs" textLength="120" x="633.3" y="746.5352">CachedObjectHolder</text><rect fill="#FFFFFF" height="16.1328" style="stroke: #000000; stroke-width: 1.0; stroke-dasharray: 2.0,2.0;" width="10" x="773" y="723"/><text fill="#000000" font-family="sans-serif" font-size="12" font-style="italic" lengthAdjust="spacingAndGlyphs" textLength="8" x="774" y="735.6016">T</text><line style="stroke: #A80036; stroke-width: 1.5;" x1="591" x2="779" y1="758" y2="758"/><line style="stroke: #A80036; stroke-width: 1.5;" x1="591" x2="779" y1="766" y2="766"/><ellipse cx="601" cy="777.9775" fill="#84BE84" rx="3" ry="3" style="stroke: #038048; stroke-width: 1.0;"/><text fill="#000000" font-family="sans-serif" font-size="11" lengthAdjust="spacingAndGlyphs" textLength="164" x="610" y="780.6348">CachedObjectHolder(String, T)</text><ellipse cx="601" cy="790.9326" fill="#84BE84" rx="3" ry="3" style="stroke: #038048; stroke-width: 1.0;"/><text fill="#000000" font-family="sans-serif" font-size="11" lengthAdjust="spacingAndGlyphs" textLength="126" x="610" y="793.5898">CachedObjectHolder(T)</text><ellipse cx="601" cy="803.8877" fill="#84BE84" rx="3" ry="3" style="stroke: #038048; stroke-width: 1.0;"/><text fill="#000000" font-family="sans-serif" font-size="11" lengthAdjust="spacingAndGlyphs" textLength="111" x="610" y="806.5449">getFileName(): String</text><ellipse cx="601" cy="816.8428" fill="#84BE84" rx="3" ry="3" style="stroke: #038048; stroke-width: 1.0;"/><text fill="#000000" font-family="sans-serif" font-size="11" lengthAdjust="spacingAndGlyphs" textLength="133" x="610" y="819.5">setFileName(String): void</text><ellipse cx="601" cy="829.7979" fill="#84BE84" rx="3" ry="3" style="stroke: #038048; stroke-width: 1.0;"/><text fill="#000000" font-family="sans-serif" font-size="11" lengthAdjust="spacingAndGlyphs" textLength="123" x="610" y="832.4551">getLastModified(): long</text><ellipse cx="601" cy="842.7529" fill="#84BE84" rx="3" ry="3" style="stroke: #038048; stroke-width: 1.0;"/><text fill="#000000" font-family="sans-serif" font-size="11" lengthAdjust="spacingAndGlyphs" textLength="145" x="610" y="845.4102">setLastModified(long): void</text><ellipse cx="601" cy="855.708" fill="#84BE84" rx="3" ry="3" style="stroke: #038048; stroke-width: 1.0;"/><text fill="#000000" font-family="sans-serif" font-size="11" lengthAdjust="spacingAndGlyphs" textLength="113" x="610" y="858.3652">getCachedObject(): T</text><ellipse cx="601" cy="868.6631" fill="#84BE84" rx="3" ry="3" style="stroke: #038048; stroke-width: 1.0;"/><text fill="#000000" font-family="sans-serif" font-size="11" lengthAdjust="spacingAndGlyphs" textLength="135" x="610" y="871.3203">setCachedObject(T): void</text><ellipse cx="601" cy="881.6182" fill="#84BE84" rx="3" ry="3" style="stroke: #038048; stroke-width: 1.0;"/><text fill="#000000" font-family="sans-serif" font-size="11" lengthAdjust="spacingAndGlyphs" textLength="91" x="610" y="884.2754">isStale(): boolean</text></a><!--class javax.ws.rs.core.MediaType--><rect fill="#FEFECE" filter="url(#fksqkuxrb43jd)" height="384.832" id="javax.ws.rs.core.MediaType" style="stroke: #A80036; stroke-width: 1.5;" width="310" x="22" y="43"/><ellipse cx="140.75" cy="59" fill="#ADD1B2" rx="11" ry="11" style="stroke: #A80036; stroke-width: 1.0;"/><path d="M143.2231,65.1431 Q142.6421,65.4419 142.0029,65.5913 Q141.3638,65.7407 140.6582,65.7407 Q138.1514,65.7407 136.8315,64.0889 Q135.5117,62.437 135.5117,59.3159 Q135.5117,56.1865 136.8315,54.5347 Q138.1514,52.8828 140.6582,52.8828 Q141.3638,52.8828 142.0112,53.0322 Q142.6587,53.1816 143.2231,53.4805 L143.2231,56.2031 Q142.5923,55.6221 141.9988,55.3523 Q141.4053,55.0825 140.7744,55.0825 Q139.4297,55.0825 138.7449,56.1492 Q138.0601,57.2158 138.0601,59.3159 Q138.0601,61.4077 138.7449,62.4744 Q139.4297,63.541 140.7744,63.541 Q141.4053,63.541 141.9988,63.2712 Q142.5923,63.0015 143.2231,62.4204 Z "/><text fill="#000000" font-family="sans-serif" font-size="12" lengthAdjust="spacingAndGlyphs" textLength="64" x="161.25" y="63.5352">MediaType</text><line style="stroke: #A80036; stroke-width: 1.5;" x1="23" x2="331" y1="75" y2="75"/><ellipse cx="33" cy="86.9775" fill="none" rx="3" ry="3" style="stroke: #038048; stroke-width: 1.0;"/><text fill="#000000" font-family="sans-serif" font-size="11" lengthAdjust="spacingAndGlyphs" text-decoration="underline" textLength="158" x="42" y="89.6348">CHARSET_PARAMETER: String</text><ellipse cx="33" cy="99.9326" fill="none" rx="3" ry="3" style="stroke: #038048; stroke-width: 1.0;"/><text fill="#000000" font-family="sans-serif" font-size="11" lengthAdjust="spacingAndGlyphs" text-decoration="underline" textLength="167" x="42" y="102.5898">MEDIA_TYPE_WILDCARD: String</text><ellipse cx="33" cy="112.8877" fill="none" rx="3" ry="3" style="stroke: #038048; stroke-width: 1.0;"/><text fill="#000000" font-family="sans-serif" font-size="11" lengthAdjust="spacingAndGlyphs" text-decoration="underline" textLength="95" x="42" y="115.5449">WILDCARD: String</text><ellipse cx="33" cy="125.8428" fill="none" rx="3" ry="3" style="stroke: #038048; stroke-width: 1.0;"/><text fill="#000000" font-family="sans-serif" font-size="11" lengthAdjust="spacingAndGlyphs" text-decoration="underline" textLength="152" x="42" y="128.5">WILDCARD_TYPE: MediaType</text><ellipse cx="33" cy="138.7979" fill="none" rx="3" ry="3" style="stroke: #038048; stroke-width: 1.0;"/><text fill="#000000" font-family="sans-serif" font-size="11" lengthAdjust="spacingAndGlyphs" text-decoration="underline" textLength="138" x="42" y="141.4551">APPLICATION_XML: String</text><ellipse cx="33" cy="151.7529" fill="none" rx="3" ry="3" style="stroke: #038048; stroke-width: 1.0;"/><text fill="#000000" font-family="sans-serif" font-size="11" lengthAdjust="spacingAndGlyphs" text-decoration="underline" textLength="195" x="42" y="154.4102">APPLICATION_XML_TYPE: MediaType</text><ellipse cx="33" cy="164.708" fill="none" rx="3" ry="3" style="stroke: #038048; stroke-width: 1.0;"/><text fill="#000000" font-family="sans-serif" font-size="11" lengthAdjust="spacingAndGlyphs" text-decoration="underline" textLength="177" x="42" y="167.3652">APPLICATION_ATOM_XML: String</text><ellipse cx="33" cy="177.6631" fill="none" rx="3" ry="3" style="stroke: #038048; stroke-width: 1.0;"/><text fill="#000000" font-family="sans-serif" font-size="11" lengthAdjust="spacingAndGlyphs" text-decoration="underline" textLength="234" x="42" y="180.3203">APPLICATION_ATOM_XML_TYPE: MediaType</text><ellipse cx="33" cy="190.6182" fill="none" rx="3" ry="3" style="stroke: #038048; stroke-width: 1.0;"/><text fill="#000000" font-family="sans-serif" font-size="11" lengthAdjust="spacingAndGlyphs" text-decoration="underline" textLength="181" x="42" y="193.2754">APPLICATION_XHTML_XML: String</text><ellipse cx="33" cy="203.5732" fill="none" rx="3" ry="3" style="stroke: #038048; stroke-width: 1.0;"/><text fill="#000000" font-family="sans-serif" font-size="11" lengthAdjust="spacingAndGlyphs" text-decoration="underline" textLength="238" x="42" y="206.2305">APPLICATION_XHTML_XML_TYPE: MediaType</text><ellipse cx="33" cy="216.5283" fill="none" rx="3" ry="3" style="stroke: #038048; stroke-width: 1.0;"/><text fill="#000000" font-family="sans-serif" font-size="11" lengthAdjust="spacingAndGlyphs" text-decoration="underline" textLength="165" x="42" y="219.1855">APPLICATION_SVG_XML: String</text><ellipse cx="33" cy="229.4834" fill="none" rx="3" ry="3" style="stroke: #038048; stroke-width: 1.0;"/><text fill="#000000" font-family="sans-serif" font-size="11" lengthAdjust="spacingAndGlyphs" text-decoration="underline" textLength="222" x="42" y="232.1406">APPLICATION_SVG_XML_TYPE: MediaType</text><ellipse cx="33" cy="242.4385" fill="none" rx="3" ry="3" style="stroke: #038048; stroke-width: 1.0;"/><text fill="#000000" font-family="sans-serif" font-size="11" lengthAdjust="spacingAndGlyphs" text-decoration="underline" textLength="142" x="42" y="245.0957">APPLICATION_JSON: String</text><ellipse cx="33" cy="255.3936" fill="none" rx="3" ry="3" style="stroke: #038048; stroke-width: 1.0;"/><text fill="#000000" font-family="sans-serif" font-size="11" lengthAdjust="spacingAndGlyphs" text-decoration="underline" textLength="199" x="42" y="258.0508">APPLICATION_JSON_TYPE: MediaType</text><ellipse cx="33" cy="268.3486" fill="none" rx="3" ry="3" style="stroke: #038048; stroke-width: 1.0;"/><text fill="#000000" font-family="sans-serif" font-size="11" lengthAdjust="spacingAndGlyphs" text-decoration="underline" textLength="227" x="42" y="271.0059">APPLICATION_FORM_URLENCODED: String</text><ellipse cx="33" cy="281.3037" fill="none" rx="3" ry="3" style="stroke: #038048; stroke-width: 1.0;"/><text fill="#000000" font-family="sans-serif" font-size="11" lengthAdjust="spacingAndGlyphs" text-decoration="underline" textLength="284" x="42" y="283.9609">APPLICATION_FORM_URLENCODED_TYPE: MediaType</text><ellipse cx="33" cy="294.2588" fill="none" rx="3" ry="3" style="stroke: #038048; stroke-width: 1.0;"/><text fill="#000000" font-family="sans-serif" font-size="11" lengthAdjust="spacingAndGlyphs" text-decoration="underline" textLength="173" x="42" y="296.916">MULTIPART_FORM_DATA: String</text><ellipse cx="33" cy="307.2139" fill="none" rx="3" ry="3" style="stroke: #038048; stroke-width: 1.0;"/><text fill="#000000" font-family="sans-serif" font-size="11" lengthAdjust="spacingAndGlyphs" text-decoration="underline" textLength="230" x="42" y="309.8711">MULTIPART_FORM_DATA_TYPE: MediaType</text><ellipse cx="33" cy="320.1689" fill="none" rx="3" ry="3" style="stroke: #038048; stroke-width: 1.0;"/><text fill="#000000" font-family="sans-serif" font-size="11" lengthAdjust="spacingAndGlyphs" text-decoration="underline" textLength="202" x="42" y="322.8262">APPLICATION_OCTET_STREAM: String</text><ellipse cx="33" cy="333.124" fill="none" rx="3" ry="3" style="stroke: #038048; stroke-width: 1.0;"/><text fill="#000000" font-family="sans-serif" font-size="11" lengthAdjust="spacingAndGlyphs" text-decoration="underline" textLength="259" x="42" y="335.7813">APPLICATION_OCTET_STREAM_TYPE: MediaType</text><ellipse cx="33" cy="346.0791" fill="none" rx="3" ry="3" style="stroke: #038048; stroke-width: 1.0;"/><text fill="#000000" font-family="sans-serif" font-size="11" lengthAdjust="spacingAndGlyphs" text-decoration="underline" textLength="102" x="42" y="348.7363">TEXT_PLAIN: String</text><ellipse cx="33" cy="359.0342" fill="none" rx="3" ry="3" style="stroke: #038048; stroke-width: 1.0;"/><text fill="#000000" font-family="sans-serif" font-size="11" lengthAdjust="spacingAndGlyphs" text-decoration="underline" textLength="159" x="42" y="361.6914">TEXT_PLAIN_TYPE: MediaType</text><ellipse cx="33" cy="371.9893" fill="none" rx="3" ry="3" style="stroke: #038048; stroke-width: 1.0;"/><text fill="#000000" font-family="sans-serif" font-size="11" lengthAdjust="spacingAndGlyphs" text-decoration="underline" textLength="93" x="42" y="374.6465">TEXT_XML: String</text><ellipse cx="33" cy="384.9443" fill="none" rx="3" ry="3" style="stroke: #038048; stroke-width: 1.0;"/><text fill="#000000" font-family="sans-serif" font-size="11" lengthAdjust="spacingAndGlyphs" text-decoration="underline" textLength="150" x="42" y="387.6016">TEXT_XML_TYPE: MediaType</text><ellipse cx="33" cy="397.8994" fill="none" rx="3" ry="3" style="stroke: #038048; stroke-width: 1.0;"/><text fill="#000000" font-family="sans-serif" font-size="11" lengthAdjust="spacingAndGlyphs" text-decoration="underline" textLength="101" x="42" y="400.5566">TEXT_HTML: String</text><ellipse cx="33" cy="410.8545" fill="none" rx="3" ry="3" style="stroke: #038048; stroke-width: 1.0;"/><text fill="#000000" font-family="sans-serif" font-size="11" lengthAdjust="spacingAndGlyphs" text-decoration="underline" textLength="158" x="42" y="413.5117">TEXT_HTML_TYPE: MediaType</text><line style="stroke: #A80036; stroke-width: 1.5;" x1="23" x2="331" y1="419.832" y2="419.832"/><!--link javax.ws.rs.core.MediaType to com.ibm.fhir.core.FHIRMediaType--><path d="M177,448.3666 C177,464.4004 177,479.9057 177,494.2677 " fill="none" id="javax.ws.rs.core.MediaType-com.ibm.fhir.core.FHIRMediaType" style="stroke: #A80036; stroke-width: 1.0;"/><polygon fill="none" points="170.0001,448.2066,177,428.2066,184.0001,448.2065,170.0001,448.2066" style="stroke: #A80036; stroke-width: 1.0;"/><!--link com.ibm.fhir.core.FHIRConstants to com.ibm.fhir.core.FHIRUtilities--><!--link com.ibm.fhir.core.FHIRUtilities to com.ibm.fhir.core.HTTPReturnPreference--><!--link com.ibm.fhir.core.FHIRConstants to com.ibm.fhir.core.TenantSpecificFileBasedCache--><!--link com.ibm.fhir.core.TenantSpecificFileBasedCache to com.ibm.fhir.core.CachedObjectHolder--><text fill="#888888" font-family="sans-serif" font-size="10" lengthAdjust="spacingAndGlyphs" textLength="182" x="604" y="926.668">UMLDoclet 2.0.5, PlantUML 1.2019.08</text><!--
@startuml
    namespace com.ibm.fhir.core {

        class FHIRConstants [[FHIRConstants.html]] {
            {static} +FHIR_LOGGING_GROUP: String
        }

        class FHIRUtilities [[FHIRUtilities.html]] {
            {static} +getObjectHandle(Object): String
            {static} +getCurrentStacktrace(): String
            {static} +stripNamespaceIfPresentInDiv(String): String
            {static} +stripNewLineWhitespaceIfPresentInDiv(String): String
            {static} +decode(String): String
            {static} +isEncoded(String): boolean
            {static} +convertToTimestamp(ZonedDateTime): Timestamp
            {static} +convertToInstant(String): Instant
            {static} +formatTimestamp(Date): String
            {static} +retrieveEncryptionKeyFromKeystore(String, String, String, String, String, String): SecretKeySpec
        }

        class FHIRMediaType [[FHIRMediaType.html]] {
            {static} +SUBTYPE_FHIR_JSON: String
            {static} +APPLICATION_FHIR_JSON: String
            {static} +APPLICATION_FHIR_JSON_TYPE: MediaType
            {static} +SUBTYPE_FHIR_XML: String
            {static} +APPLICATION_FHIR_XML: String
            {static} +APPLICATION_FHIR_XML_TYPE: MediaType
            {static} +SUBTYPE_JSON_PATCH: String
            {static} +APPLICATION_JSON_PATCH: String
            {static} +APPLICATION_JSON_PATCH_TYPE: MediaType
        }

        enum HTTPReturnPreference [[HTTPReturnPreference.html]] {
            {static} +MINIMAL
            {static} +REPRESENTATION
            {static} +OPERATION_OUTCOME
            +value(): String
            {static} +from(String): HTTPReturnPreference
        }

        abstract class TenantSpecificFileBasedCache<T> [[TenantSpecificFileBasedCache.html]] {
            +TenantSpecificFileBasedCache()
            +TenantSpecificFileBasedCache(String)
            +clearCache(): void
            {abstract} +getCacheEntryFilename(String): String
            {abstract} +createCachedObject(File): T
            +getCachedObjectForTenant(String): T
        }

        class CachedObjectHolder<T> [[CachedObjectHolder.html]] {
            +CachedObjectHolder(String, T)
            +CachedObjectHolder(T)
            +getFileName(): String
            +setFileName(String): void
            +getLastModified(): long
            +setLastModified(long): void
            +getCachedObject(): T
            +setCachedObject(T): void
            +isStale(): boolean
        }

        javax.ws.rs.core.MediaType <|- - FHIRMediaType
    }

    namespace javax.ws.rs.core {
        class MediaType {
            {static} +CHARSET_PARAMETER: String
            {static} +MEDIA_TYPE_WILDCARD: String
            {static} +WILDCARD: String
            {static} +WILDCARD_TYPE: MediaType
            {static} +APPLICATION_XML: String
            {static} +APPLICATION_XML_TYPE: MediaType
            {static} +APPLICATION_ATOM_XML: String
            {static} +APPLICATION_ATOM_XML_TYPE: MediaType
            {static} +APPLICATION_XHTML_XML: String
            {static} +APPLICATION_XHTML_XML_TYPE: MediaType
            {static} +APPLICATION_SVG_XML: String
            {static} +APPLICATION_SVG_XML_TYPE: MediaType
            {static} +APPLICATION_JSON: String
            {static} +APPLICATION_JSON_TYPE: MediaType
            {static} +APPLICATION_FORM_URLENCODED: String
            {static} +APPLICATION_FORM_URLENCODED_TYPE: MediaType
            {static} +MULTIPART_FORM_DATA: String
            {static} +MULTIPART_FORM_DATA_TYPE: MediaType
            {static} +APPLICATION_OCTET_STREAM: String
            {static} +APPLICATION_OCTET_STREAM_TYPE: MediaType
            {static} +TEXT_PLAIN: String
            {static} +TEXT_PLAIN_TYPE: MediaType
            {static} +TEXT_XML: String
            {static} +TEXT_XML_TYPE: MediaType
            {static} +TEXT_HTML: String
            {static} +TEXT_HTML_TYPE: MediaType
        }
    }

    center footer UMLDoclet 2.0.5, PlantUML 1.2019.08
@enduml

PlantUML version 1.2019.08(Sat Jul 13 15:25:14 EDT 2019)
(APACHE source distribution)
Java Runtime: OpenJDK Runtime Environment
JVM: OpenJDK 64-Bit Server VM
Java Version: 11.0.4+11
Operating System: Mac OS X
OS Version: 10.14.6
Default Encoding: UTF-8
Language: en
Country: US
--></g></svg>