<?xml version="1.0" encoding="UTF-8" standalone="no"?><svg xmlns="http://www.w3.org/2000/svg" xmlns:xlink="http://www.w3.org/1999/xlink" contentScriptType="application/ecmascript" contentStyleType="text/css" height="418px" preserveAspectRatio="none" style="width:505px;height:418px;" version="1.1" viewBox="0 0 505 418" width="505px" zoomAndPan="magnify"><defs><filter height="300%" id="fvf6yoigwokkj" width="300%" x="-1" y="-1"><feGaussianBlur result="blurOut" stdDeviation="2.0"/><feColorMatrix in="blurOut" result="blurOut2" type="matrix" values="0 0 0 0 0 0 0 0 0 0 0 0 0 0 0 0 0 0 .4 0"/><feOffset dx="4.0" dy="4.0" in="blurOut2" result="blurOut3"/><feBlend in="SourceGraphic" in2="blurOut3" mode="normal"/></filter></defs><g><!--MD5=[4f79ed75051b1ee3319c1da852ac8f40]
class com.ibm.fhir.model.type.code.ImmunizationStatus--><a href="ImmunizationStatus.html" target="_top" title="ImmunizationStatus.html" xlink:actuate="onRequest" xlink:href="ImmunizationStatus.html" xlink:show="new" xlink:title="ImmunizationStatus.html" xlink:type="simple"><rect fill="#FEFECE" filter="url(#fvf6yoigwokkj)" height="181.9844" id="com.ibm.fhir.model.type.code.ImmunizationStatus" style="stroke: #A80036; stroke-width: 1.5;" width="257" x="118.5" y="106"/><ellipse cx="170.25" cy="124.9688" fill="#ADD1B2" rx="11" ry="11" style="stroke: #A80036; stroke-width: 1.0;"/><path d="M173.2188,130.6094 Q172.6406,130.9063 172,131.0469 Q171.3594,131.2031 170.6563,131.2031 Q168.1563,131.2031 166.8281,129.5625 Q165.5156,127.9063 165.5156,124.7813 Q165.5156,121.6563 166.8281,120 Q168.1563,118.3438 170.6563,118.3438 Q171.3594,118.3438 172,118.5 Q172.6563,118.6563 173.2188,118.9531 L173.2188,121.6719 Q172.5938,121.0938 172,120.8281 Q171.4063,120.5469 170.7813,120.5469 Q169.4375,120.5469 168.75,121.625 Q168.0625,122.6875 168.0625,124.7813 Q168.0625,126.875 168.75,127.9531 Q169.4375,129.0156 170.7813,129.0156 Q171.4063,129.0156 172,128.75 Q172.5938,128.4688 173.2188,127.8906 L173.2188,130.6094 Z "/><text fill="#000000" font-family="sans-serif" font-size="14" lengthAdjust="spacingAndGlyphs" textLength="136" x="195.25" y="123.9951">ImmunizationStatus</text><text fill="#000000" font-family="sans-serif" font-size="10" lengthAdjust="spacingAndGlyphs" textLength="145" x="190.75" y="136.5791">com.ibm.fhir.model.type.code</text><line style="stroke: #A80036; stroke-width: 1.5;" x1="119.5" x2="374.5" y1="143.9375" y2="143.9375"/><ellipse cx="129.5" cy="154.9375" fill="none" rx="3" ry="3" style="stroke: #038048; stroke-width: 1.0;"/><text fill="#000000" font-family="sans-serif" font-size="11" lengthAdjust="spacingAndGlyphs" text-decoration="underline" textLength="188" x="138.5" y="158.1479">COMPLETED: ImmunizationStatus</text><ellipse cx="129.5" cy="167.7422" fill="none" rx="3" ry="3" style="stroke: #038048; stroke-width: 1.0;"/><text fill="#000000" font-family="sans-serif" font-size="11" lengthAdjust="spacingAndGlyphs" text-decoration="underline" textLength="231" x="138.5" y="170.9526">ENTERED_IN_ERROR: ImmunizationStatus</text><ellipse cx="129.5" cy="180.5469" fill="none" rx="3" ry="3" style="stroke: #038048; stroke-width: 1.0;"/><text fill="#000000" font-family="sans-serif" font-size="11" lengthAdjust="spacingAndGlyphs" text-decoration="underline" textLength="182" x="138.5" y="183.7573">NOT_DONE: ImmunizationStatus</text><line style="stroke: #A80036; stroke-width: 1.5;" x1="119.5" x2="374.5" y1="190.3516" y2="190.3516"/><ellipse cx="129.5" cy="201.3516" fill="#84BE84" rx="3" ry="3" style="stroke: #038048; stroke-width: 1.0;"/><text fill="#000000" font-family="sans-serif" font-size="11" lengthAdjust="spacingAndGlyphs" textLength="212" x="138.5" y="204.562">getValueAsEnumConstant(): ValueSet</text><ellipse cx="129.5" cy="214.1563" fill="#84BE84" rx="3" ry="3" style="stroke: #038048; stroke-width: 1.0;"/><text fill="#000000" font-family="sans-serif" font-size="11" lengthAdjust="spacingAndGlyphs" text-decoration="underline" textLength="189" x="138.5" y="217.3667">of(ValueSet): ImmunizationStatus</text><ellipse cx="129.5" cy="226.9609" fill="#84BE84" rx="3" ry="3" style="stroke: #038048; stroke-width: 1.0;"/><text fill="#000000" font-family="sans-serif" font-size="11" lengthAdjust="spacingAndGlyphs" text-decoration="underline" textLength="173" x="138.5" y="230.1714">of(String): ImmunizationStatus</text><ellipse cx="129.5" cy="239.7656" fill="#84BE84" rx="3" ry="3" style="stroke: #038048; stroke-width: 1.0;"/><text fill="#000000" font-family="sans-serif" font-size="11" lengthAdjust="spacingAndGlyphs" text-decoration="underline" textLength="117" x="138.5" y="242.9761">string(String): String</text><ellipse cx="129.5" cy="252.5703" fill="#84BE84" rx="3" ry="3" style="stroke: #038048; stroke-width: 1.0;"/><text fill="#000000" font-family="sans-serif" font-size="11" lengthAdjust="spacingAndGlyphs" text-decoration="underline" textLength="106" x="138.5" y="255.7808">code(String): Code</text><ellipse cx="129.5" cy="265.375" fill="#84BE84" rx="3" ry="3" style="stroke: #038048; stroke-width: 1.0;"/><text fill="#000000" font-family="sans-serif" font-size="11" lengthAdjust="spacingAndGlyphs" textLength="107" x="138.5" y="268.5854">toBuilder(): Builder</text><ellipse cx="129.5" cy="278.1797" fill="#84BE84" rx="3" ry="3" style="stroke: #038048; stroke-width: 1.0;"/><text fill="#000000" font-family="sans-serif" font-size="11" lengthAdjust="spacingAndGlyphs" text-decoration="underline" textLength="95" x="138.5" y="281.3901">builder(): Builder</text></a><!--MD5=[36277681a3d78580011ae89cb2088b30]
class com.ibm.fhir.model.type.Code--><a href="../Code.html" target="_top" title="../Code.html" xlink:actuate="onRequest" xlink:href="../Code.html" xlink:show="new" xlink:title="../Code.html" xlink:type="simple"><rect fill="#FEFECE" filter="url(#fvf6yoigwokkj)" height="37.9375" id="com.ibm.fhir.model.type.Code" style="stroke: #A80036; stroke-width: 1.5;" width="151" x="171.5" y="8"/><ellipse cx="186.5" cy="26.9688" fill="#ADD1B2" rx="11" ry="11" style="stroke: #A80036; stroke-width: 1.0;"/><path d="M189.4688,32.6094 Q188.8906,32.9063 188.25,33.0469 Q187.6094,33.2031 186.9063,33.2031 Q184.4063,33.2031 183.0781,31.5625 Q181.7656,29.9063 181.7656,26.7813 Q181.7656,23.6563 183.0781,22 Q184.4063,20.3438 186.9063,20.3438 Q187.6094,20.3438 188.25,20.5 Q188.9063,20.6563 189.4688,20.9531 L189.4688,23.6719 Q188.8438,23.0938 188.25,22.8281 Q187.6563,22.5469 187.0313,22.5469 Q185.6875,22.5469 185,23.625 Q184.3125,24.6875 184.3125,26.7813 Q184.3125,28.875 185,29.9531 Q185.6875,31.0156 187.0313,31.0156 Q187.6563,31.0156 188.25,30.75 Q188.8438,30.4688 189.4688,29.8906 L189.4688,32.6094 Z "/><text fill="#000000" font-family="sans-serif" font-size="14" lengthAdjust="spacingAndGlyphs" textLength="37" x="241.5" y="25.9951">Code</text><text fill="#000000" font-family="sans-serif" font-size="10" lengthAdjust="spacingAndGlyphs" textLength="119" x="200.5" y="38.5791">com.ibm.fhir.model.type</text></a><!--MD5=[85c66e5f286ae91ca5aee205e20d9811]
class com.ibm.fhir.model.type.code.ImmunizationStatus.Builder--><a href="ImmunizationStatus.Builder.html" target="_top" title="ImmunizationStatus.Builder.html" xlink:actuate="onRequest" xlink:href="ImmunizationStatus.Builder.html" xlink:show="new" xlink:title="ImmunizationStatus.Builder.html" xlink:type="simple"><rect fill="#FEFECE" filter="url(#fvf6yoigwokkj)" height="37.9375" id="com.ibm.fhir.model.type.code.ImmunizationStatus.Builder" style="stroke: #A80036; stroke-width: 1.5;" width="220" x="6" y="348"/><ellipse cx="21" cy="366.9688" fill="#ADD1B2" rx="11" ry="11" style="stroke: #A80036; stroke-width: 1.0;"/><path d="M23.9688,372.6094 Q23.3906,372.9063 22.75,373.0469 Q22.1094,373.2031 21.4063,373.2031 Q18.9063,373.2031 17.5781,371.5625 Q16.2656,369.9063 16.2656,366.7813 Q16.2656,363.6563 17.5781,362 Q18.9063,360.3438 21.4063,360.3438 Q22.1094,360.3438 22.75,360.5 Q23.4063,360.6563 23.9688,360.9531 L23.9688,363.6719 Q23.3438,363.0938 22.75,362.8281 Q22.1563,362.5469 21.5313,362.5469 Q20.1875,362.5469 19.5,363.625 Q18.8125,364.6875 18.8125,366.7813 Q18.8125,368.875 19.5,369.9531 Q20.1875,371.0156 21.5313,371.0156 Q22.1563,371.0156 22.75,370.75 Q23.3438,370.4688 23.9688,369.8906 L23.9688,372.6094 Z "/><text fill="#000000" font-family="sans-serif" font-size="14" lengthAdjust="spacingAndGlyphs" textLength="188" x="35" y="365.9951">ImmunizationStatus.Builder</text><text fill="#000000" font-family="sans-serif" font-size="10" lengthAdjust="spacingAndGlyphs" textLength="145" x="56.5" y="378.5791">com.ibm.fhir.model.type.code</text></a><!--MD5=[68664236ebea6d5e31e45d7b6ab1dc78]
class com.ibm.fhir.model.type.code.ImmunizationStatus.ValueSet--><a href="ImmunizationStatus.ValueSet.html" target="_top" title="ImmunizationStatus.ValueSet.html" xlink:actuate="onRequest" xlink:href="ImmunizationStatus.ValueSet.html" xlink:show="new" xlink:title="ImmunizationStatus.ValueSet.html" xlink:type="simple"><rect fill="#FEFECE" filter="url(#fvf6yoigwokkj)" height="37.9375" id="com.ibm.fhir.model.type.code.ImmunizationStatus.ValueSet" style="stroke: #A80036; stroke-width: 1.5;" width="233" x="261.5" y="348"/><ellipse cx="276.5" cy="366.9688" fill="#EB937F" rx="11" ry="11" style="stroke: #A80036; stroke-width: 1.0;"/><path d="M280.6094,372.9688 L272.8906,372.9688 L272.8906,360.5781 L280.6094,360.5781 L280.6094,362.7344 L275.3438,362.7344 L275.3438,365.4063 L280.1094,365.4063 L280.1094,367.5625 L275.3438,367.5625 L275.3438,370.8125 L280.6094,370.8125 L280.6094,372.9688 Z "/><text fill="#000000" font-family="sans-serif" font-size="14" lengthAdjust="spacingAndGlyphs" textLength="201" x="290.5" y="365.9951">ImmunizationStatus.ValueSet</text><text fill="#000000" font-family="sans-serif" font-size="10" lengthAdjust="spacingAndGlyphs" textLength="145" x="318.5" y="378.5791">com.ibm.fhir.model.type.code</text></a><!--MD5=[dfe0f53f87829e01d43847b1300b5f0e]
reverse link com.ibm.fhir.model.type.Code to com.ibm.fhir.model.type.code.ImmunizationStatus--><path d="M247,66.56 C247,78.4 247,91.97 247,105.76 " fill="none" id="com.ibm.fhir.model.type.Code&lt;-com.ibm.fhir.model.type.code.ImmunizationStatus" style="stroke: #A80036; stroke-width: 1.0;"/><polygon fill="none" points="240,66.3,247,46.3,254,66.3,240,66.3" style="stroke: #A80036; stroke-width: 1.0;"/><!--MD5=[428b2d8174ff287d352b66d53a95e688]
reverse link com.ibm.fhir.model.type.code.ImmunizationStatus to com.ibm.fhir.model.type.code.ImmunizationStatus.Builder--><path d="M167.26,300.26 C152.96,318.6 139.61,335.72 130.12,347.89 " fill="none" id="com.ibm.fhir.model.type.code.ImmunizationStatus&lt;-com.ibm.fhir.model.type.code.ImmunizationStatus.Builder" style="stroke: #A80036; stroke-width: 1.0;"/><ellipse cx="171.599" cy="294.6974" fill="#FFFFFF" rx="8" ry="8" style="stroke: #A80036; stroke-width: 1.0;"/><line style="stroke: #A80036; stroke-width: 1.0;" x1="166.678" x2="176.52" y1="301.0049" y2="288.39"/><line style="stroke: #A80036; stroke-width: 1.0;" x1="165.2916" x2="177.9064" y1="289.7764" y2="299.6184"/><!--MD5=[23628e71d7aa7b4d22c2c829b1c93857]
reverse link com.ibm.fhir.model.type.code.ImmunizationStatus to com.ibm.fhir.model.type.code.ImmunizationStatus.ValueSet--><path d="M326.74,300.26 C341.04,318.6 354.39,335.72 363.88,347.89 " fill="none" id="com.ibm.fhir.model.type.code.ImmunizationStatus&lt;-com.ibm.fhir.model.type.code.ImmunizationStatus.ValueSet" style="stroke: #A80036; stroke-width: 1.0;"/><ellipse cx="322.401" cy="294.6974" fill="#FFFFFF" rx="8" ry="8" style="stroke: #A80036; stroke-width: 1.0;"/><line style="stroke: #A80036; stroke-width: 1.0;" x1="327.322" x2="317.48" y1="301.0049" y2="288.39"/><line style="stroke: #A80036; stroke-width: 1.0;" x1="316.0936" x2="328.7084" y1="299.6184" y2="289.7764"/><text fill="#888888" font-family="sans-serif" font-size="10" lengthAdjust="spacingAndGlyphs" textLength="186" x="163.5" y="405.2822">UMLDoclet 2.0.7, PlantUML 1.2019.12</text><!--MD5=[7a00b7dc061e0a857da1335f5ccbe54b]
@startuml
    set namespaceSeparator none
    hide empty fields
    hide empty methods

    class "<size:14>ImmunizationStatus\n<size:10>com.ibm.fhir.model.type.code" as com.ibm.fhir.model.type.code.ImmunizationStatus [[ImmunizationStatus.html]] {
        {static} +COMPLETED: ImmunizationStatus
        {static} +ENTERED_IN_ERROR: ImmunizationStatus
        {static} +NOT_DONE: ImmunizationStatus
        +getValueAsEnumConstant(): ValueSet
        {static} +of(ValueSet): ImmunizationStatus
        {static} +of(String): ImmunizationStatus
        {static} +string(String): String
        {static} +code(String): Code
        +toBuilder(): Builder
        {static} +builder(): Builder
    }

    class "<size:14>Code\n<size:10>com.ibm.fhir.model.type" as com.ibm.fhir.model.type.Code [[../Code.html]]
    class "<size:14>ImmunizationStatus.Builder\n<size:10>com.ibm.fhir.model.type.code" as com.ibm.fhir.model.type.code.ImmunizationStatus.Builder [[ImmunizationStatus.Builder.html]]
    enum "<size:14>ImmunizationStatus.ValueSet\n<size:10>com.ibm.fhir.model.type.code" as com.ibm.fhir.model.type.code.ImmunizationStatus.ValueSet [[ImmunizationStatus.ValueSet.html]]

    com.ibm.fhir.model.type.Code <|- - com.ibm.fhir.model.type.code.ImmunizationStatus
    com.ibm.fhir.model.type.code.ImmunizationStatus +- - com.ibm.fhir.model.type.code.ImmunizationStatus.Builder
    com.ibm.fhir.model.type.code.ImmunizationStatus +- - com.ibm.fhir.model.type.code.ImmunizationStatus.ValueSet

    center footer UMLDoclet 2.0.7, PlantUML 1.2019.12
@enduml

PlantUML version 1.2019.12(Sun Nov 03 10:24:54 UTC 2019)
(APACHE source distribution)
Java Runtime: OpenJDK Runtime Environment
JVM: OpenJDK 64-Bit Server VM
Java Version: 11.0.10+9
Operating System: Linux
Default Encoding: UTF-8
Language: en
Country: null
--></g></svg>