<?xml version="1.0" encoding="UTF-8" standalone="no"?><svg xmlns="http://www.w3.org/2000/svg" xmlns:xlink="http://www.w3.org/1999/xlink" contentScriptType="application/ecmascript" contentStyleType="text/css" height="469px" preserveAspectRatio="none" style="width:418px;height:469px;" version="1.1" viewBox="0 0 418 469" width="418px" zoomAndPan="magnify"><defs><filter height="300%" id="f1jq00voan22fk" width="300%" x="-1" y="-1"><feGaussianBlur result="blurOut" stdDeviation="2.0"/><feColorMatrix in="blurOut" result="blurOut2" type="matrix" values="0 0 0 0 0 0 0 0 0 0 0 0 0 0 0 0 0 0 .4 0"/><feOffset dx="4.0" dy="4.0" in="blurOut2" result="blurOut3"/><feBlend in="SourceGraphic" in2="blurOut3" mode="normal"/></filter></defs><g><!--MD5=[d5e2568d189c2463591dc2e6e72c9d2a]
class com.ibm.fhir.model.type.code.PropertyType--><a href="PropertyType.html" target="_top" title="PropertyType.html" xlink:actuate="onRequest" xlink:href="PropertyType.html" xlink:show="new" xlink:title="PropertyType.html" xlink:type="simple"><rect fill="#FEFECE" filter="url(#f1jq00voan22fk)" height="233.2031" id="com.ibm.fhir.model.type.code.PropertyType" style="stroke: #A80036; stroke-width: 1.5;" width="238" x="84.5" y="106"/><ellipse cx="126.95" cy="124.9688" fill="#ADD1B2" rx="11" ry="11" style="stroke: #A80036; stroke-width: 1.0;"/><path d="M129.9188,130.6094 Q129.3406,130.9063 128.7,131.0469 Q128.0594,131.2031 127.3563,131.2031 Q124.8563,131.2031 123.5281,129.5625 Q122.2156,127.9063 122.2156,124.7813 Q122.2156,121.6563 123.5281,120 Q124.8563,118.3438 127.3563,118.3438 Q128.0594,118.3438 128.7,118.5 Q129.3563,118.6563 129.9188,118.9531 L129.9188,121.6719 Q129.2938,121.0938 128.7,120.8281 Q128.1063,120.5469 127.4813,120.5469 Q126.1375,120.5469 125.45,121.625 Q124.7625,122.6875 124.7625,124.7813 Q124.7625,126.875 125.45,127.9531 Q126.1375,129.0156 127.4813,129.0156 Q128.1063,129.0156 128.7,128.75 Q129.2938,128.4688 129.9188,127.8906 L129.9188,130.6094 Z "/><text fill="#000000" font-family="sans-serif" font-size="14" lengthAdjust="spacingAndGlyphs" textLength="92" x="173.55" y="123.9951">PropertyType</text><text fill="#000000" font-family="sans-serif" font-size="10" lengthAdjust="spacingAndGlyphs" textLength="145" x="147.05" y="136.5791">com.ibm.fhir.model.type.code</text><line style="stroke: #A80036; stroke-width: 1.5;" x1="85.5" x2="321.5" y1="143.9375" y2="143.9375"/><ellipse cx="95.5" cy="154.9375" fill="none" rx="3" ry="3" style="stroke: #038048; stroke-width: 1.0;"/><text fill="#000000" font-family="sans-serif" font-size="11" lengthAdjust="spacingAndGlyphs" text-decoration="underline" textLength="115" x="104.5" y="158.1479">CODE: PropertyType</text><ellipse cx="95.5" cy="167.7422" fill="none" rx="3" ry="3" style="stroke: #038048; stroke-width: 1.0;"/><text fill="#000000" font-family="sans-serif" font-size="11" lengthAdjust="spacingAndGlyphs" text-decoration="underline" textLength="128" x="104.5" y="170.9526">CODING: PropertyType</text><ellipse cx="95.5" cy="180.5469" fill="none" rx="3" ry="3" style="stroke: #038048; stroke-width: 1.0;"/><text fill="#000000" font-family="sans-serif" font-size="11" lengthAdjust="spacingAndGlyphs" text-decoration="underline" textLength="125" x="104.5" y="183.7573">STRING: PropertyType</text><ellipse cx="95.5" cy="193.3516" fill="none" rx="3" ry="3" style="stroke: #038048; stroke-width: 1.0;"/><text fill="#000000" font-family="sans-serif" font-size="11" lengthAdjust="spacingAndGlyphs" text-decoration="underline" textLength="131" x="104.5" y="196.562">INTEGER: PropertyType</text><ellipse cx="95.5" cy="206.1563" fill="none" rx="3" ry="3" style="stroke: #038048; stroke-width: 1.0;"/><text fill="#000000" font-family="sans-serif" font-size="11" lengthAdjust="spacingAndGlyphs" text-decoration="underline" textLength="137" x="104.5" y="209.3667">BOOLEAN: PropertyType</text><ellipse cx="95.5" cy="218.9609" fill="none" rx="3" ry="3" style="stroke: #038048; stroke-width: 1.0;"/><text fill="#000000" font-family="sans-serif" font-size="11" lengthAdjust="spacingAndGlyphs" text-decoration="underline" textLength="144" x="104.5" y="222.1714">DATE_TIME: PropertyType</text><ellipse cx="95.5" cy="231.7656" fill="none" rx="3" ry="3" style="stroke: #038048; stroke-width: 1.0;"/><text fill="#000000" font-family="sans-serif" font-size="11" lengthAdjust="spacingAndGlyphs" text-decoration="underline" textLength="131" x="104.5" y="234.9761">DECIMAL: PropertyType</text><line style="stroke: #A80036; stroke-width: 1.5;" x1="85.5" x2="321.5" y1="241.5703" y2="241.5703"/><ellipse cx="95.5" cy="252.5703" fill="#84BE84" rx="3" ry="3" style="stroke: #038048; stroke-width: 1.0;"/><text fill="#000000" font-family="sans-serif" font-size="11" lengthAdjust="spacingAndGlyphs" textLength="212" x="104.5" y="255.7808">getValueAsEnumConstant(): ValueSet</text><ellipse cx="95.5" cy="265.375" fill="#84BE84" rx="3" ry="3" style="stroke: #038048; stroke-width: 1.0;"/><text fill="#000000" font-family="sans-serif" font-size="11" lengthAdjust="spacingAndGlyphs" text-decoration="underline" textLength="152" x="104.5" y="268.5854">of(ValueSet): PropertyType</text><ellipse cx="95.5" cy="278.1797" fill="#84BE84" rx="3" ry="3" style="stroke: #038048; stroke-width: 1.0;"/><text fill="#000000" font-family="sans-serif" font-size="11" lengthAdjust="spacingAndGlyphs" text-decoration="underline" textLength="136" x="104.5" y="281.3901">of(String): PropertyType</text><ellipse cx="95.5" cy="290.9844" fill="#84BE84" rx="3" ry="3" style="stroke: #038048; stroke-width: 1.0;"/><text fill="#000000" font-family="sans-serif" font-size="11" lengthAdjust="spacingAndGlyphs" text-decoration="underline" textLength="117" x="104.5" y="294.1948">string(String): String</text><ellipse cx="95.5" cy="303.7891" fill="#84BE84" rx="3" ry="3" style="stroke: #038048; stroke-width: 1.0;"/><text fill="#000000" font-family="sans-serif" font-size="11" lengthAdjust="spacingAndGlyphs" text-decoration="underline" textLength="106" x="104.5" y="306.9995">code(String): Code</text><ellipse cx="95.5" cy="316.5938" fill="#84BE84" rx="3" ry="3" style="stroke: #038048; stroke-width: 1.0;"/><text fill="#000000" font-family="sans-serif" font-size="11" lengthAdjust="spacingAndGlyphs" textLength="107" x="104.5" y="319.8042">toBuilder(): Builder</text><ellipse cx="95.5" cy="329.3984" fill="#84BE84" rx="3" ry="3" style="stroke: #038048; stroke-width: 1.0;"/><text fill="#000000" font-family="sans-serif" font-size="11" lengthAdjust="spacingAndGlyphs" text-decoration="underline" textLength="95" x="104.5" y="332.6089">builder(): Builder</text></a><!--MD5=[36277681a3d78580011ae89cb2088b30]
class com.ibm.fhir.model.type.Code--><a href="../Code.html" target="_top" title="../Code.html" xlink:actuate="onRequest" xlink:href="../Code.html" xlink:show="new" xlink:title="../Code.html" xlink:type="simple"><rect fill="#FEFECE" filter="url(#f1jq00voan22fk)" height="37.9375" id="com.ibm.fhir.model.type.Code" style="stroke: #A80036; stroke-width: 1.5;" width="151" x="128" y="8"/><ellipse cx="143" cy="26.9688" fill="#ADD1B2" rx="11" ry="11" style="stroke: #A80036; stroke-width: 1.0;"/><path d="M145.9688,32.6094 Q145.3906,32.9063 144.75,33.0469 Q144.1094,33.2031 143.4063,33.2031 Q140.9063,33.2031 139.5781,31.5625 Q138.2656,29.9063 138.2656,26.7813 Q138.2656,23.6563 139.5781,22 Q140.9063,20.3438 143.4063,20.3438 Q144.1094,20.3438 144.75,20.5 Q145.4063,20.6563 145.9688,20.9531 L145.9688,23.6719 Q145.3438,23.0938 144.75,22.8281 Q144.1563,22.5469 143.5313,22.5469 Q142.1875,22.5469 141.5,23.625 Q140.8125,24.6875 140.8125,26.7813 Q140.8125,28.875 141.5,29.9531 Q142.1875,31.0156 143.5313,31.0156 Q144.1563,31.0156 144.75,30.75 Q145.3438,30.4688 145.9688,29.8906 L145.9688,32.6094 Z "/><text fill="#000000" font-family="sans-serif" font-size="14" lengthAdjust="spacingAndGlyphs" textLength="37" x="198" y="25.9951">Code</text><text fill="#000000" font-family="sans-serif" font-size="10" lengthAdjust="spacingAndGlyphs" textLength="119" x="157" y="38.5791">com.ibm.fhir.model.type</text></a><!--MD5=[8ab2d8a9ae91e94f850ac1c8d5ea1af6]
class com.ibm.fhir.model.type.code.PropertyType.Builder--><a href="PropertyType.Builder.html" target="_top" title="PropertyType.Builder.html" xlink:actuate="onRequest" xlink:href="PropertyType.Builder.html" xlink:show="new" xlink:title="PropertyType.Builder.html" xlink:type="simple"><rect fill="#FEFECE" filter="url(#f1jq00voan22fk)" height="37.9375" id="com.ibm.fhir.model.type.code.PropertyType.Builder" style="stroke: #A80036; stroke-width: 1.5;" width="177" x="6" y="399"/><ellipse cx="21" cy="417.9688" fill="#ADD1B2" rx="11" ry="11" style="stroke: #A80036; stroke-width: 1.0;"/><path d="M23.9688,423.6094 Q23.3906,423.9063 22.75,424.0469 Q22.1094,424.2031 21.4063,424.2031 Q18.9063,424.2031 17.5781,422.5625 Q16.2656,420.9063 16.2656,417.7813 Q16.2656,414.6563 17.5781,413 Q18.9063,411.3438 21.4063,411.3438 Q22.1094,411.3438 22.75,411.5 Q23.4063,411.6563 23.9688,411.9531 L23.9688,414.6719 Q23.3438,414.0938 22.75,413.8281 Q22.1563,413.5469 21.5313,413.5469 Q20.1875,413.5469 19.5,414.625 Q18.8125,415.6875 18.8125,417.7813 Q18.8125,419.875 19.5,420.9531 Q20.1875,422.0156 21.5313,422.0156 Q22.1563,422.0156 22.75,421.75 Q23.3438,421.4688 23.9688,420.8906 L23.9688,423.6094 Z "/><text fill="#000000" font-family="sans-serif" font-size="14" lengthAdjust="spacingAndGlyphs" textLength="144" x="35.5" y="416.9951">PropertyType.Builder</text><text fill="#000000" font-family="sans-serif" font-size="10" lengthAdjust="spacingAndGlyphs" textLength="145" x="35" y="429.5791">com.ibm.fhir.model.type.code</text></a><!--MD5=[8a551ffd2373fc1ae2c39a5fd044396e]
class com.ibm.fhir.model.type.code.PropertyType.ValueSet--><a href="PropertyType.ValueSet.html" target="_top" title="PropertyType.ValueSet.html" xlink:actuate="onRequest" xlink:href="PropertyType.ValueSet.html" xlink:show="new" xlink:title="PropertyType.ValueSet.html" xlink:type="simple"><rect fill="#FEFECE" filter="url(#f1jq00voan22fk)" height="37.9375" id="com.ibm.fhir.model.type.code.PropertyType.ValueSet" style="stroke: #A80036; stroke-width: 1.5;" width="189" x="218" y="399"/><ellipse cx="233" cy="417.9688" fill="#EB937F" rx="11" ry="11" style="stroke: #A80036; stroke-width: 1.0;"/><path d="M237.1094,423.9688 L229.3906,423.9688 L229.3906,411.5781 L237.1094,411.5781 L237.1094,413.7344 L231.8438,413.7344 L231.8438,416.4063 L236.6094,416.4063 L236.6094,418.5625 L231.8438,418.5625 L231.8438,421.8125 L237.1094,421.8125 L237.1094,423.9688 Z "/><text fill="#000000" font-family="sans-serif" font-size="14" lengthAdjust="spacingAndGlyphs" textLength="157" x="247" y="416.9951">PropertyType.ValueSet</text><text fill="#000000" font-family="sans-serif" font-size="10" lengthAdjust="spacingAndGlyphs" textLength="145" x="253" y="429.5791">com.ibm.fhir.model.type.code</text></a><!--MD5=[b7a58d3517fb512d93df087685d1c9de]
reverse link com.ibm.fhir.model.type.Code to com.ibm.fhir.model.type.code.PropertyType--><path d="M203.5,66.26 C203.5,78.06 203.5,91.72 203.5,105.94 " fill="none" id="com.ibm.fhir.model.type.Code&lt;-com.ibm.fhir.model.type.code.PropertyType" style="stroke: #A80036; stroke-width: 1.0;"/><polygon fill="none" points="196.5,66.2,203.5,46.2,210.5,66.2,196.5,66.2" style="stroke: #A80036; stroke-width: 1.0;"/><!--MD5=[00fc3354b96991ebf41a6c09139b4694]
reverse link com.ibm.fhir.model.type.code.PropertyType to com.ibm.fhir.model.type.code.PropertyType.Builder--><path d="M130.91,352.36 C120.61,370.64 111.29,387.2 104.65,398.98 " fill="none" id="com.ibm.fhir.model.type.code.PropertyType&lt;-com.ibm.fhir.model.type.code.PropertyType.Builder" style="stroke: #A80036; stroke-width: 1.0;"/><ellipse cx="134.4361" cy="346.1016" fill="#FFFFFF" rx="8" ry="8" style="stroke: #A80036; stroke-width: 1.0;"/><line style="stroke: #A80036; stroke-width: 1.0;" x1="130.5122" x2="138.36" y1="353.0732" y2="339.13"/><line style="stroke: #A80036; stroke-width: 1.0;" x1="127.4645" x2="141.4077" y1="342.1777" y2="350.0255"/><!--MD5=[2c6f736d77cf2d0563e3f1cb761c45af]
reverse link com.ibm.fhir.model.type.code.PropertyType to com.ibm.fhir.model.type.code.PropertyType.ValueSet--><path d="M276.09,352.36 C286.39,370.64 295.71,387.2 302.35,398.98 " fill="none" id="com.ibm.fhir.model.type.code.PropertyType&lt;-com.ibm.fhir.model.type.code.PropertyType.ValueSet" style="stroke: #A80036; stroke-width: 1.0;"/><ellipse cx="272.5639" cy="346.1016" fill="#FFFFFF" rx="8" ry="8" style="stroke: #A80036; stroke-width: 1.0;"/><line style="stroke: #A80036; stroke-width: 1.0;" x1="276.4878" x2="268.64" y1="353.0732" y2="339.13"/><line style="stroke: #A80036; stroke-width: 1.0;" x1="265.5923" x2="279.5355" y1="350.0255" y2="342.1777"/><text fill="#888888" font-family="sans-serif" font-size="10" lengthAdjust="spacingAndGlyphs" textLength="186" x="119.5" y="456.2822">UMLDoclet 2.0.7, PlantUML 1.2019.12</text><!--MD5=[8f988558d77dbdcf825d4cf3fd0e68d7]
@startuml
    set namespaceSeparator none
    hide empty fields
    hide empty methods

    class "<size:14>PropertyType\n<size:10>com.ibm.fhir.model.type.code" as com.ibm.fhir.model.type.code.PropertyType [[PropertyType.html]] {
        {static} +CODE: PropertyType
        {static} +CODING: PropertyType
        {static} +STRING: PropertyType
        {static} +INTEGER: PropertyType
        {static} +BOOLEAN: PropertyType
        {static} +DATE_TIME: PropertyType
        {static} +DECIMAL: PropertyType
        +getValueAsEnumConstant(): ValueSet
        {static} +of(ValueSet): PropertyType
        {static} +of(String): PropertyType
        {static} +string(String): String
        {static} +code(String): Code
        +toBuilder(): Builder
        {static} +builder(): Builder
    }

    class "<size:14>Code\n<size:10>com.ibm.fhir.model.type" as com.ibm.fhir.model.type.Code [[../Code.html]]
    class "<size:14>PropertyType.Builder\n<size:10>com.ibm.fhir.model.type.code" as com.ibm.fhir.model.type.code.PropertyType.Builder [[PropertyType.Builder.html]]
    enum "<size:14>PropertyType.ValueSet\n<size:10>com.ibm.fhir.model.type.code" as com.ibm.fhir.model.type.code.PropertyType.ValueSet [[PropertyType.ValueSet.html]]

    com.ibm.fhir.model.type.Code <|- - com.ibm.fhir.model.type.code.PropertyType
    com.ibm.fhir.model.type.code.PropertyType +- - com.ibm.fhir.model.type.code.PropertyType.Builder
    com.ibm.fhir.model.type.code.PropertyType +- - com.ibm.fhir.model.type.code.PropertyType.ValueSet

    center footer UMLDoclet 2.0.7, PlantUML 1.2019.12
@enduml

PlantUML version 1.2019.12(Sun Nov 03 10:24:54 UTC 2019)
(APACHE source distribution)
Java Runtime: OpenJDK Runtime Environment
JVM: OpenJDK 64-Bit Server VM
Java Version: 11.0.10+9
Operating System: Linux
Default Encoding: UTF-8
Language: en
Country: null
--></g></svg>