<?xml version="1.0" encoding="UTF-8" standalone="no"?><svg xmlns="http://www.w3.org/2000/svg" xmlns:xlink="http://www.w3.org/1999/xlink" contentScriptType="application/ecmascript" contentStyleType="text/css" height="482px" preserveAspectRatio="none" style="width:551px;height:482px;" version="1.1" viewBox="0 0 551 482" width="551px" zoomAndPan="magnify"><defs><filter height="300%" id="f1e7l6y68dwu2o" width="300%" x="-1" y="-1"><feGaussianBlur result="blurOut" stdDeviation="2.0"/><feColorMatrix in="blurOut" result="blurOut2" type="matrix" values="0 0 0 0 0 0 0 0 0 0 0 0 0 0 0 0 0 0 .4 0"/><feOffset dx="4.0" dy="4.0" in="blurOut2" result="blurOut3"/><feBlend in="SourceGraphic" in2="blurOut3" mode="normal"/></filter></defs><g><!--MD5=[86edc41b1e07679eb0db7214eaf41085]
class com.ibm.fhir.model.type.code.RiskAssessmentStatus--><a href="RiskAssessmentStatus.html" target="_top" title="RiskAssessmentStatus.html" xlink:actuate="onRequest" xlink:href="RiskAssessmentStatus.html" xlink:show="new" xlink:title="RiskAssessmentStatus.html" xlink:type="simple"><rect fill="#FEFECE" filter="url(#f1e7l6y68dwu2o)" height="246.0078" id="com.ibm.fhir.model.type.code.RiskAssessmentStatus" style="stroke: #A80036; stroke-width: 1.5;" width="276" x="131.5" y="106"/><ellipse cx="185.75" cy="124.9688" fill="#ADD1B2" rx="11" ry="11" style="stroke: #A80036; stroke-width: 1.0;"/><path d="M188.7188,130.6094 Q188.1406,130.9063 187.5,131.0469 Q186.8594,131.2031 186.1563,131.2031 Q183.6563,131.2031 182.3281,129.5625 Q181.0156,127.9063 181.0156,124.7813 Q181.0156,121.6563 182.3281,120 Q183.6563,118.3438 186.1563,118.3438 Q186.8594,118.3438 187.5,118.5 Q188.1563,118.6563 188.7188,118.9531 L188.7188,121.6719 Q188.0938,121.0938 187.5,120.8281 Q186.9063,120.5469 186.2813,120.5469 Q184.9375,120.5469 184.25,121.625 Q183.5625,122.6875 183.5625,124.7813 Q183.5625,126.875 184.25,127.9531 Q184.9375,129.0156 186.2813,129.0156 Q186.9063,129.0156 187.5,128.75 Q188.0938,128.4688 188.7188,127.8906 L188.7188,130.6094 Z "/><text fill="#000000" font-family="sans-serif" font-size="14" lengthAdjust="spacingAndGlyphs" textLength="159" x="206.25" y="123.9951">RiskAssessmentStatus</text><text fill="#000000" font-family="sans-serif" font-size="10" lengthAdjust="spacingAndGlyphs" textLength="145" x="213.25" y="136.5791">com.ibm.fhir.model.type.code</text><line style="stroke: #A80036; stroke-width: 1.5;" x1="132.5" x2="406.5" y1="143.9375" y2="143.9375"/><ellipse cx="142.5" cy="154.9375" fill="none" rx="3" ry="3" style="stroke: #038048; stroke-width: 1.0;"/><text fill="#000000" font-family="sans-serif" font-size="11" lengthAdjust="spacingAndGlyphs" text-decoration="underline" textLength="209" x="151.5" y="158.1479">REGISTERED: RiskAssessmentStatus</text><ellipse cx="142.5" cy="167.7422" fill="none" rx="3" ry="3" style="stroke: #038048; stroke-width: 1.0;"/><text fill="#000000" font-family="sans-serif" font-size="11" lengthAdjust="spacingAndGlyphs" text-decoration="underline" textLength="210" x="151.5" y="170.9526">PRELIMINARY: RiskAssessmentStatus</text><ellipse cx="142.5" cy="180.5469" fill="none" rx="3" ry="3" style="stroke: #038048; stroke-width: 1.0;"/><text fill="#000000" font-family="sans-serif" font-size="11" lengthAdjust="spacingAndGlyphs" text-decoration="underline" textLength="169" x="151.5" y="183.7573">FINAL: RiskAssessmentStatus</text><ellipse cx="142.5" cy="193.3516" fill="none" rx="3" ry="3" style="stroke: #038048; stroke-width: 1.0;"/><text fill="#000000" font-family="sans-serif" font-size="11" lengthAdjust="spacingAndGlyphs" text-decoration="underline" textLength="193" x="151.5" y="196.562">AMENDED: RiskAssessmentStatus</text><ellipse cx="142.5" cy="206.1563" fill="none" rx="3" ry="3" style="stroke: #038048; stroke-width: 1.0;"/><text fill="#000000" font-family="sans-serif" font-size="11" lengthAdjust="spacingAndGlyphs" text-decoration="underline" textLength="207" x="151.5" y="209.3667">CORRECTED: RiskAssessmentStatus</text><ellipse cx="142.5" cy="218.9609" fill="none" rx="3" ry="3" style="stroke: #038048; stroke-width: 1.0;"/><text fill="#000000" font-family="sans-serif" font-size="11" lengthAdjust="spacingAndGlyphs" text-decoration="underline" textLength="204" x="151.5" y="222.1714">CANCELLED: RiskAssessmentStatus</text><ellipse cx="142.5" cy="231.7656" fill="none" rx="3" ry="3" style="stroke: #038048; stroke-width: 1.0;"/><text fill="#000000" font-family="sans-serif" font-size="11" lengthAdjust="spacingAndGlyphs" text-decoration="underline" textLength="250" x="151.5" y="234.9761">ENTERED_IN_ERROR: RiskAssessmentStatus</text><ellipse cx="142.5" cy="244.5703" fill="none" rx="3" ry="3" style="stroke: #038048; stroke-width: 1.0;"/><text fill="#000000" font-family="sans-serif" font-size="11" lengthAdjust="spacingAndGlyphs" text-decoration="underline" textLength="196" x="151.5" y="247.7808">UNKNOWN: RiskAssessmentStatus</text><line style="stroke: #A80036; stroke-width: 1.5;" x1="132.5" x2="406.5" y1="254.375" y2="254.375"/><ellipse cx="142.5" cy="265.375" fill="#84BE84" rx="3" ry="3" style="stroke: #038048; stroke-width: 1.0;"/><text fill="#000000" font-family="sans-serif" font-size="11" lengthAdjust="spacingAndGlyphs" textLength="212" x="151.5" y="268.5854">getValueAsEnumConstant(): ValueSet</text><ellipse cx="142.5" cy="278.1797" fill="#84BE84" rx="3" ry="3" style="stroke: #038048; stroke-width: 1.0;"/><text fill="#000000" font-family="sans-serif" font-size="11" lengthAdjust="spacingAndGlyphs" text-decoration="underline" textLength="208" x="151.5" y="281.3901">of(ValueSet): RiskAssessmentStatus</text><ellipse cx="142.5" cy="290.9844" fill="#84BE84" rx="3" ry="3" style="stroke: #038048; stroke-width: 1.0;"/><text fill="#000000" font-family="sans-serif" font-size="11" lengthAdjust="spacingAndGlyphs" text-decoration="underline" textLength="192" x="151.5" y="294.1948">of(String): RiskAssessmentStatus</text><ellipse cx="142.5" cy="303.7891" fill="#84BE84" rx="3" ry="3" style="stroke: #038048; stroke-width: 1.0;"/><text fill="#000000" font-family="sans-serif" font-size="11" lengthAdjust="spacingAndGlyphs" text-decoration="underline" textLength="117" x="151.5" y="306.9995">string(String): String</text><ellipse cx="142.5" cy="316.5938" fill="#84BE84" rx="3" ry="3" style="stroke: #038048; stroke-width: 1.0;"/><text fill="#000000" font-family="sans-serif" font-size="11" lengthAdjust="spacingAndGlyphs" text-decoration="underline" textLength="106" x="151.5" y="319.8042">code(String): Code</text><ellipse cx="142.5" cy="329.3984" fill="#84BE84" rx="3" ry="3" style="stroke: #038048; stroke-width: 1.0;"/><text fill="#000000" font-family="sans-serif" font-size="11" lengthAdjust="spacingAndGlyphs" textLength="107" x="151.5" y="332.6089">toBuilder(): Builder</text><ellipse cx="142.5" cy="342.2031" fill="#84BE84" rx="3" ry="3" style="stroke: #038048; stroke-width: 1.0;"/><text fill="#000000" font-family="sans-serif" font-size="11" lengthAdjust="spacingAndGlyphs" text-decoration="underline" textLength="95" x="151.5" y="345.4136">builder(): Builder</text></a><!--MD5=[36277681a3d78580011ae89cb2088b30]
class com.ibm.fhir.model.type.Code--><a href="../Code.html" target="_top" title="../Code.html" xlink:actuate="onRequest" xlink:href="../Code.html" xlink:show="new" xlink:title="../Code.html" xlink:type="simple"><rect fill="#FEFECE" filter="url(#f1e7l6y68dwu2o)" height="37.9375" id="com.ibm.fhir.model.type.Code" style="stroke: #A80036; stroke-width: 1.5;" width="151" x="194" y="8"/><ellipse cx="209" cy="26.9688" fill="#ADD1B2" rx="11" ry="11" style="stroke: #A80036; stroke-width: 1.0;"/><path d="M211.9688,32.6094 Q211.3906,32.9063 210.75,33.0469 Q210.1094,33.2031 209.4063,33.2031 Q206.9063,33.2031 205.5781,31.5625 Q204.2656,29.9063 204.2656,26.7813 Q204.2656,23.6563 205.5781,22 Q206.9063,20.3438 209.4063,20.3438 Q210.1094,20.3438 210.75,20.5 Q211.4063,20.6563 211.9688,20.9531 L211.9688,23.6719 Q211.3438,23.0938 210.75,22.8281 Q210.1563,22.5469 209.5313,22.5469 Q208.1875,22.5469 207.5,23.625 Q206.8125,24.6875 206.8125,26.7813 Q206.8125,28.875 207.5,29.9531 Q208.1875,31.0156 209.5313,31.0156 Q210.1563,31.0156 210.75,30.75 Q211.3438,30.4688 211.9688,29.8906 L211.9688,32.6094 Z "/><text fill="#000000" font-family="sans-serif" font-size="14" lengthAdjust="spacingAndGlyphs" textLength="37" x="264" y="25.9951">Code</text><text fill="#000000" font-family="sans-serif" font-size="10" lengthAdjust="spacingAndGlyphs" textLength="119" x="223" y="38.5791">com.ibm.fhir.model.type</text></a><!--MD5=[993e946879db6d4accf664b108a165f8]
class com.ibm.fhir.model.type.code.RiskAssessmentStatus.Builder--><a href="RiskAssessmentStatus.Builder.html" target="_top" title="RiskAssessmentStatus.Builder.html" xlink:actuate="onRequest" xlink:href="RiskAssessmentStatus.Builder.html" xlink:show="new" xlink:title="RiskAssessmentStatus.Builder.html" xlink:type="simple"><rect fill="#FEFECE" filter="url(#f1e7l6y68dwu2o)" height="37.9375" id="com.ibm.fhir.model.type.code.RiskAssessmentStatus.Builder" style="stroke: #A80036; stroke-width: 1.5;" width="243" x="6" y="412"/><ellipse cx="21" cy="430.9688" fill="#ADD1B2" rx="11" ry="11" style="stroke: #A80036; stroke-width: 1.0;"/><path d="M23.9688,436.6094 Q23.3906,436.9063 22.75,437.0469 Q22.1094,437.2031 21.4063,437.2031 Q18.9063,437.2031 17.5781,435.5625 Q16.2656,433.9063 16.2656,430.7813 Q16.2656,427.6563 17.5781,426 Q18.9063,424.3438 21.4063,424.3438 Q22.1094,424.3438 22.75,424.5 Q23.4063,424.6563 23.9688,424.9531 L23.9688,427.6719 Q23.3438,427.0938 22.75,426.8281 Q22.1563,426.5469 21.5313,426.5469 Q20.1875,426.5469 19.5,427.625 Q18.8125,428.6875 18.8125,430.7813 Q18.8125,432.875 19.5,433.9531 Q20.1875,435.0156 21.5313,435.0156 Q22.1563,435.0156 22.75,434.75 Q23.3438,434.4688 23.9688,433.8906 L23.9688,436.6094 Z "/><text fill="#000000" font-family="sans-serif" font-size="14" lengthAdjust="spacingAndGlyphs" textLength="211" x="35" y="429.9951">RiskAssessmentStatus.Builder</text><text fill="#000000" font-family="sans-serif" font-size="10" lengthAdjust="spacingAndGlyphs" textLength="145" x="68" y="442.5791">com.ibm.fhir.model.type.code</text></a><!--MD5=[983afbb654f08b0aa9061cdee674e346]
class com.ibm.fhir.model.type.code.RiskAssessmentStatus.ValueSet--><a href="RiskAssessmentStatus.ValueSet.html" target="_top" title="RiskAssessmentStatus.ValueSet.html" xlink:actuate="onRequest" xlink:href="RiskAssessmentStatus.ValueSet.html" xlink:show="new" xlink:title="RiskAssessmentStatus.ValueSet.html" xlink:type="simple"><rect fill="#FEFECE" filter="url(#f1e7l6y68dwu2o)" height="37.9375" id="com.ibm.fhir.model.type.code.RiskAssessmentStatus.ValueSet" style="stroke: #A80036; stroke-width: 1.5;" width="256" x="284.5" y="412"/><ellipse cx="299.5" cy="430.9688" fill="#EB937F" rx="11" ry="11" style="stroke: #A80036; stroke-width: 1.0;"/><path d="M303.6094,436.9688 L295.8906,436.9688 L295.8906,424.5781 L303.6094,424.5781 L303.6094,426.7344 L298.3438,426.7344 L298.3438,429.4063 L303.1094,429.4063 L303.1094,431.5625 L298.3438,431.5625 L298.3438,434.8125 L303.6094,434.8125 L303.6094,436.9688 Z "/><text fill="#000000" font-family="sans-serif" font-size="14" lengthAdjust="spacingAndGlyphs" textLength="224" x="313.5" y="429.9951">RiskAssessmentStatus.ValueSet</text><text fill="#000000" font-family="sans-serif" font-size="10" lengthAdjust="spacingAndGlyphs" textLength="145" x="353" y="442.5791">com.ibm.fhir.model.type.code</text></a><!--MD5=[e9d368abf1b3416438975afe1e002f2d]
reverse link com.ibm.fhir.model.type.Code to com.ibm.fhir.model.type.code.RiskAssessmentStatus--><path d="M269.5,66.11 C269.5,77.9 269.5,91.57 269.5,105.89 " fill="none" id="com.ibm.fhir.model.type.Code&lt;-com.ibm.fhir.model.type.code.RiskAssessmentStatus" style="stroke: #A80036; stroke-width: 1.0;"/><polygon fill="none" points="262.5,66.1,269.5,46.1,276.5,66.1,262.5,66.1" style="stroke: #A80036; stroke-width: 1.0;"/><!--MD5=[932216652fe71a7ec3f327857ce4a954]
reverse link com.ibm.fhir.model.type.code.RiskAssessmentStatus to com.ibm.fhir.model.type.code.RiskAssessmentStatus.Builder--><path d="M173.98,364.53 C160.8,383.1 148.9,399.85 140.45,411.77 " fill="none" id="com.ibm.fhir.model.type.code.RiskAssessmentStatus&lt;-com.ibm.fhir.model.type.code.RiskAssessmentStatus.Builder" style="stroke: #A80036; stroke-width: 1.0;"/><ellipse cx="178.1774" cy="358.6222" fill="#FFFFFF" rx="8" ry="8" style="stroke: #A80036; stroke-width: 1.0;"/><line style="stroke: #A80036; stroke-width: 1.0;" x1="173.5448" x2="182.81" y1="365.1444" y2="352.1"/><line style="stroke: #A80036; stroke-width: 1.0;" x1="171.6552" x2="184.6996" y1="353.9896" y2="363.2548"/><!--MD5=[3bc798a84c8a0c2cffb3dcabba05092f]
reverse link com.ibm.fhir.model.type.code.RiskAssessmentStatus to com.ibm.fhir.model.type.code.RiskAssessmentStatus.ValueSet--><path d="M365.69,364.53 C378.96,383.1 390.95,399.85 399.46,411.77 " fill="none" id="com.ibm.fhir.model.type.code.RiskAssessmentStatus&lt;-com.ibm.fhir.model.type.code.RiskAssessmentStatus.ValueSet" style="stroke: #A80036; stroke-width: 1.0;"/><ellipse cx="361.4549" cy="358.6063" fill="#FFFFFF" rx="8" ry="8" style="stroke: #A80036; stroke-width: 1.0;"/><line style="stroke: #A80036; stroke-width: 1.0;" x1="366.1099" x2="356.8" y1="365.1125" y2="352.1"/><line style="stroke: #A80036; stroke-width: 1.0;" x1="354.9487" x2="367.9612" y1="363.2612" y2="353.9513"/><text fill="#888888" font-family="sans-serif" font-size="10" lengthAdjust="spacingAndGlyphs" textLength="186" x="186.5" y="469.2822">UMLDoclet 2.0.7, PlantUML 1.2019.12</text><!--MD5=[9bc44f9cab067b1e2a3a1d76b2667761]
@startuml
    set namespaceSeparator none
    hide empty fields
    hide empty methods

    class "<size:14>RiskAssessmentStatus\n<size:10>com.ibm.fhir.model.type.code" as com.ibm.fhir.model.type.code.RiskAssessmentStatus [[RiskAssessmentStatus.html]] {
        {static} +REGISTERED: RiskAssessmentStatus
        {static} +PRELIMINARY: RiskAssessmentStatus
        {static} +FINAL: RiskAssessmentStatus
        {static} +AMENDED: RiskAssessmentStatus
        {static} +CORRECTED: RiskAssessmentStatus
        {static} +CANCELLED: RiskAssessmentStatus
        {static} +ENTERED_IN_ERROR: RiskAssessmentStatus
        {static} +UNKNOWN: RiskAssessmentStatus
        +getValueAsEnumConstant(): ValueSet
        {static} +of(ValueSet): RiskAssessmentStatus
        {static} +of(String): RiskAssessmentStatus
        {static} +string(String): String
        {static} +code(String): Code
        +toBuilder(): Builder
        {static} +builder(): Builder
    }

    class "<size:14>Code\n<size:10>com.ibm.fhir.model.type" as com.ibm.fhir.model.type.Code [[../Code.html]]
    class "<size:14>RiskAssessmentStatus.Builder\n<size:10>com.ibm.fhir.model.type.code" as com.ibm.fhir.model.type.code.RiskAssessmentStatus.Builder [[RiskAssessmentStatus.Builder.html]]
    enum "<size:14>RiskAssessmentStatus.ValueSet\n<size:10>com.ibm.fhir.model.type.code" as com.ibm.fhir.model.type.code.RiskAssessmentStatus.ValueSet [[RiskAssessmentStatus.ValueSet.html]]

    com.ibm.fhir.model.type.Code <|- - com.ibm.fhir.model.type.code.RiskAssessmentStatus
    com.ibm.fhir.model.type.code.RiskAssessmentStatus +- - com.ibm.fhir.model.type.code.RiskAssessmentStatus.Builder
    com.ibm.fhir.model.type.code.RiskAssessmentStatus +- - com.ibm.fhir.model.type.code.RiskAssessmentStatus.ValueSet

    center footer UMLDoclet 2.0.7, PlantUML 1.2019.12
@enduml

PlantUML version 1.2019.12(Sun Nov 03 10:24:54 UTC 2019)
(APACHE source distribution)
Java Runtime: OpenJDK Runtime Environment
JVM: OpenJDK 64-Bit Server VM
Java Version: 11.0.10+9
Operating System: Linux
Default Encoding: UTF-8
Language: en
Country: null
--></g></svg>