<?xml version="1.0" encoding="UTF-8" standalone="no"?><svg xmlns="http://www.w3.org/2000/svg" xmlns:xlink="http://www.w3.org/1999/xlink" contentScriptType="application/ecmascript" contentStyleType="text/css" height="256px" preserveAspectRatio="none" style="width:316px;height:256px;" version="1.1" viewBox="0 0 316 256" width="316px" zoomAndPan="magnify"><defs><filter height="300%" id="f3bijx6d5e562" width="300%" x="-1" y="-1"><feGaussianBlur result="blurOut" stdDeviation="2.0"/><feColorMatrix in="blurOut" result="blurOut2" type="matrix" values="0 0 0 0 0 0 0 0 0 0 0 0 0 0 0 0 0 0 .4 0"/><feOffset dx="4.0" dy="4.0" in="blurOut2" result="blurOut3"/><feBlend in="SourceGraphic" in2="blurOut3" mode="normal"/></filter></defs><g><!--MD5=[74a761b66b2c0d97740c8914477d3708]
class com.ibm.fhir.model.patch.FHIRJsonPatch--><a href="FHIRJsonPatch.html" target="_top" title="FHIRJsonPatch.html" xlink:actuate="onRequest" xlink:href="FHIRJsonPatch.html" xlink:show="new" xlink:title="FHIRJsonPatch.html" xlink:type="simple"><rect fill="#FEFECE" filter="url(#f3bijx6d5e562)" height="97.1563" id="com.ibm.fhir.model.patch.FHIRJsonPatch" style="stroke: #A80036; stroke-width: 1.5;" width="298" x="6.5" y="127"/><ellipse cx="89.25" cy="145.9688" fill="#ADD1B2" rx="11" ry="11" style="stroke: #A80036; stroke-width: 1.0;"/><path d="M92.2188,151.6094 Q91.6406,151.9063 91,152.0469 Q90.3594,152.2031 89.6563,152.2031 Q87.1563,152.2031 85.8281,150.5625 Q84.5156,148.9063 84.5156,145.7813 Q84.5156,142.6563 85.8281,141 Q87.1563,139.3438 89.6563,139.3438 Q90.3594,139.3438 91,139.5 Q91.6563,139.6563 92.2188,139.9531 L92.2188,142.6719 Q91.5938,142.0938 91,141.8281 Q90.4063,141.5469 89.7813,141.5469 Q88.4375,141.5469 87.75,142.625 Q87.0625,143.6875 87.0625,145.7813 Q87.0625,147.875 87.75,148.9531 Q88.4375,150.0156 89.7813,150.0156 Q90.4063,150.0156 91,149.75 Q91.5938,149.4688 92.2188,148.8906 L92.2188,151.6094 Z "/><text fill="#000000" font-family="sans-serif" font-size="14" lengthAdjust="spacingAndGlyphs" textLength="99" x="122.25" y="144.9951">FHIRJsonPatch</text><text fill="#000000" font-family="sans-serif" font-size="10" lengthAdjust="spacingAndGlyphs" textLength="124" x="109.75" y="157.5791">com.ibm.fhir.model.patch</text><line style="stroke: #A80036; stroke-width: 1.5;" x1="7.5" x2="303.5" y1="164.9375" y2="164.9375"/><polygon fill="#4177AF" points="17.5,171.9375,13.5,177.9375,21.5,177.9375" style="stroke: #1963A0; stroke-width: 1.0;"/><text fill="#000000" font-family="sans-serif" font-size="11" lengthAdjust="spacingAndGlyphs" textLength="141" x="26.5" y="179.1479">FHIRJsonPatch(JsonArray)</text><polygon fill="#4177AF" points="17.5,184.7422,13.5,190.7422,21.5,190.7422" style="stroke: #1963A0; stroke-width: 1.0;"/><text fill="#000000" font-family="sans-serif" font-size="11" lengthAdjust="spacingAndGlyphs" textLength="142" x="26.5" y="191.9526">FHIRJsonPatch(JsonPatch)</text><ellipse cx="17.5" cy="201.5469" fill="#84BE84" rx="3" ry="3" style="stroke: #038048; stroke-width: 1.0;"/><text fill="#000000" font-family="sans-serif" font-size="11" lengthAdjust="spacingAndGlyphs" textLength="144" x="26.5" y="204.7573">getJsonPatch(): JsonPatch</text><ellipse cx="17.5" cy="214.3516" fill="#84BE84" rx="3" ry="3" style="stroke: #038048; stroke-width: 1.0;"/><text fill="#000000" font-family="sans-serif" font-size="11" lengthAdjust="spacingAndGlyphs" textLength="272" x="26.5" y="217.562">apply(T extends Resource): T extends Resource</text></a><!--MD5=[b0edf7662125b3fc9af236bbb2cb1dd8]
class com.ibm.fhir.model.patch.FHIRPatch--><a href="FHIRPatch.html" target="_top" title="FHIRPatch.html" xlink:actuate="onRequest" xlink:href="FHIRPatch.html" xlink:show="new" xlink:title="FHIRPatch.html" xlink:type="simple"><rect fill="#FEFECE" filter="url(#f3bijx6d5e562)" height="58.7422" id="com.ibm.fhir.model.patch.FHIRPatch" style="stroke: #A80036; stroke-width: 1.5;" width="299" x="6" y="8"/><ellipse cx="86.75" cy="26.9688" fill="#B4A7E5" rx="11" ry="11" style="stroke: #A80036; stroke-width: 1.0;"/><path d="M82.6719,22.7344 L82.6719,20.5781 L90.0625,20.5781 L90.0625,22.7344 L87.5938,22.7344 L87.5938,30.8125 L90.0625,30.8125 L90.0625,32.9688 L82.6719,32.9688 L82.6719,30.8125 L85.1406,30.8125 L85.1406,22.7344 L82.6719,22.7344 Z "/><text fill="#000000" font-family="sans-serif" font-size="14" font-style="italic" lengthAdjust="spacingAndGlyphs" textLength="71" x="136.25" y="25.9951">FHIRPatch</text><text fill="#000000" font-family="sans-serif" font-size="10" font-style="italic" lengthAdjust="spacingAndGlyphs" textLength="129" x="107.25" y="38.5791">com.ibm.fhir.model.patch</text><line style="stroke: #A80036; stroke-width: 1.5;" x1="7" x2="304" y1="45.9375" y2="45.9375"/><ellipse cx="17" cy="56.9375" fill="#84BE84" rx="3" ry="3" style="stroke: #038048; stroke-width: 1.0;"/><text fill="#000000" font-family="sans-serif" font-size="11" font-style="italic" lengthAdjust="spacingAndGlyphs" textLength="273" x="26" y="60.1479">apply(T extends Resource): T extends Resource</text></a><!--MD5=[a577f7fbe10a05a671aed00f527e1f72]
reverse link com.ibm.fhir.model.patch.FHIRPatch to com.ibm.fhir.model.patch.FHIRJsonPatch--><path d="M155.5,87.31 C155.5,100.15 155.5,113.97 155.5,126.75 " fill="none" id="com.ibm.fhir.model.patch.FHIRPatch&lt;-com.ibm.fhir.model.patch.FHIRJsonPatch" style="stroke: #A80036; stroke-width: 1.0; stroke-dasharray: 7.0,7.0;"/><polygon fill="none" points="148.5,87.01,155.5,67.01,162.5,87.01,148.5,87.01" style="stroke: #A80036; stroke-width: 1.0;"/><text fill="#888888" font-family="sans-serif" font-size="10" lengthAdjust="spacingAndGlyphs" textLength="186" x="68.5" y="243.2822">UMLDoclet 2.0.7, PlantUML 1.2019.12</text><!--MD5=[86c7cdf8395a07e96dc89afde875c8c0]
@startuml
    set namespaceSeparator none
    hide empty fields
    hide empty methods

    class "<size:14>FHIRJsonPatch\n<size:10>com.ibm.fhir.model.patch" as com.ibm.fhir.model.patch.FHIRJsonPatch [[FHIRJsonPatch.html]] {
        ~FHIRJsonPatch(JsonArray)
        ~FHIRJsonPatch(JsonPatch)
        +getJsonPatch(): JsonPatch
        +apply(T extends Resource): T extends Resource
    }

    interface "<size:14>FHIRPatch\n<size:10>com.ibm.fhir.model.patch" as com.ibm.fhir.model.patch.FHIRPatch [[FHIRPatch.html]] {
        {abstract} +apply(T extends Resource): T extends Resource
    }

    com.ibm.fhir.model.patch.FHIRPatch <|.. com.ibm.fhir.model.patch.FHIRJsonPatch

    center footer UMLDoclet 2.0.7, PlantUML 1.2019.12
@enduml

PlantUML version 1.2019.12(Sun Nov 03 10:24:54 UTC 2019)
(APACHE source distribution)
Java Runtime: OpenJDK Runtime Environment
JVM: OpenJDK 64-Bit Server VM
Java Version: 11.0.10+9
Operating System: Linux
Default Encoding: UTF-8
Language: en
Country: null
--></g></svg>