<?xml version="1.0" encoding="UTF-8" standalone="no"?><svg xmlns="http://www.w3.org/2000/svg" xmlns:xlink="http://www.w3.org/1999/xlink" contentScriptType="application/ecmascript" contentStyleType="text/css" height="393px" preserveAspectRatio="none" style="width:543px;height:393px;" version="1.1" viewBox="0 0 543 393" width="543px" zoomAndPan="magnify"><defs><filter height="300%" id="f12pgmh0iwrit4" width="300%" x="-1" y="-1"><feGaussianBlur result="blurOut" stdDeviation="2.0"/><feColorMatrix in="blurOut" result="blurOut2" type="matrix" values="0 0 0 0 0 0 0 0 0 0 0 0 0 0 0 0 0 0 .4 0"/><feOffset dx="4.0" dy="4.0" in="blurOut2" result="blurOut3"/><feBlend in="SourceGraphic" in2="blurOut3" mode="normal"/></filter></defs><g><!--MD5=[0b362fea9741f71306c027c6e0d4046e]
class com.ibm.fhir.model.resource.CoverageEligibilityResponse.Insurance.Item.Benefit--><a href="CoverageEligibilityResponse.Insurance.Item.Benefit.html" target="_top" title="CoverageEligibilityResponse.Insurance.Item.Benefit.html" xlink:actuate="onRequest" xlink:href="CoverageEligibilityResponse.Insurance.Item.Benefit.html" xlink:show="new" xlink:title="CoverageEligibilityResponse.Insurance.Item.Benefit.html" xlink:type="simple"><rect fill="#FEFECE" filter="url(#f12pgmh0iwrit4)" height="135.5703" id="com.ibm.fhir.model.resource.CoverageEligibilityResponse.Insurance.Item.Benefit" style="stroke: #A80036; stroke-width: 1.5;" width="385" x="33" y="127"/><ellipse cx="48" cy="145.9688" fill="#ADD1B2" rx="11" ry="11" style="stroke: #A80036; stroke-width: 1.0;"/><path d="M50.9688,151.6094 Q50.3906,151.9063 49.75,152.0469 Q49.1094,152.2031 48.4063,152.2031 Q45.9063,152.2031 44.5781,150.5625 Q43.2656,148.9063 43.2656,145.7813 Q43.2656,142.6563 44.5781,141 Q45.9063,139.3438 48.4063,139.3438 Q49.1094,139.3438 49.75,139.5 Q50.4063,139.6563 50.9688,139.9531 L50.9688,142.6719 Q50.3438,142.0938 49.75,141.8281 Q49.1563,141.5469 48.5313,141.5469 Q47.1875,141.5469 46.5,142.625 Q45.8125,143.6875 45.8125,145.7813 Q45.8125,147.875 46.5,148.9531 Q47.1875,150.0156 48.5313,150.0156 Q49.1563,150.0156 49.75,149.75 Q50.3438,149.4688 50.9688,148.8906 L50.9688,151.6094 Z "/><text fill="#000000" font-family="sans-serif" font-size="14" lengthAdjust="spacingAndGlyphs" textLength="353" x="62" y="144.9951">CoverageEligibilityResponse.Insurance.Item.Benefit</text><text fill="#000000" font-family="sans-serif" font-size="10" lengthAdjust="spacingAndGlyphs" textLength="139" x="169" y="157.5791">com.ibm.fhir.model.resource</text><line style="stroke: #A80036; stroke-width: 1.5;" x1="34" x2="417" y1="164.9375" y2="164.9375"/><ellipse cx="44" cy="175.9375" fill="#84BE84" rx="3" ry="3" style="stroke: #038048; stroke-width: 1.0;"/><text fill="#000000" font-family="sans-serif" font-size="11" lengthAdjust="spacingAndGlyphs" textLength="160" x="53" y="179.1479">getType(): CodeableConcept</text><ellipse cx="44" cy="188.7422" fill="#84BE84" rx="3" ry="3" style="stroke: #038048; stroke-width: 1.0;"/><text fill="#000000" font-family="sans-serif" font-size="11" lengthAdjust="spacingAndGlyphs" textLength="123" x="53" y="191.9526">getAllowed(): Element</text><ellipse cx="44" cy="201.5469" fill="#84BE84" rx="3" ry="3" style="stroke: #038048; stroke-width: 1.0;"/><text fill="#000000" font-family="sans-serif" font-size="11" lengthAdjust="spacingAndGlyphs" textLength="109" x="53" y="204.7573">getUsed(): Element</text><ellipse cx="44" cy="214.3516" fill="#84BE84" rx="3" ry="3" style="stroke: #038048; stroke-width: 1.0;"/><text fill="#000000" font-family="sans-serif" font-size="11" lengthAdjust="spacingAndGlyphs" textLength="129" x="53" y="217.562">hasChildren(): boolean</text><ellipse cx="44" cy="227.1563" fill="#84BE84" rx="3" ry="3" style="stroke: #038048; stroke-width: 1.0;"/><text fill="#000000" font-family="sans-serif" font-size="11" lengthAdjust="spacingAndGlyphs" textLength="176" x="53" y="230.3667">accept(String, int, Visitor): void</text><ellipse cx="44" cy="239.9609" fill="#84BE84" rx="3" ry="3" style="stroke: #038048; stroke-width: 1.0;"/><text fill="#000000" font-family="sans-serif" font-size="11" lengthAdjust="spacingAndGlyphs" textLength="107" x="53" y="243.1714">toBuilder(): Builder</text><ellipse cx="44" cy="252.7656" fill="#84BE84" rx="3" ry="3" style="stroke: #038048; stroke-width: 1.0;"/><text fill="#000000" font-family="sans-serif" font-size="11" lengthAdjust="spacingAndGlyphs" text-decoration="underline" textLength="95" x="53" y="255.9761">builder(): Builder</text></a><!--MD5=[efbff6997283c56b83e991a8eeb6a60a]
class com.ibm.fhir.model.type.BackboneElement--><a href="../type/BackboneElement.html" target="_top" title="../type/BackboneElement.html" xlink:actuate="onRequest" xlink:href="../type/BackboneElement.html" xlink:show="new" xlink:title="../type/BackboneElement.html" xlink:type="simple"><rect fill="#FEFECE" filter="url(#f12pgmh0iwrit4)" height="58.7422" id="com.ibm.fhir.model.type.BackboneElement" style="stroke: #A80036; stroke-width: 1.5;" width="159" x="6" y="8"/><ellipse cx="21" cy="26.9688" fill="#A9DCDF" rx="11" ry="11" style="stroke: #A80036; stroke-width: 1.0;"/><path d="M21.1094,22.3125 L19.9531,27.3906 L22.2813,27.3906 L21.1094,22.3125 Z M19.625,20.0781 L22.6094,20.0781 L25.9688,32.4688 L23.5156,32.4688 L22.75,29.4063 L19.4688,29.4063 L18.7188,32.4688 L16.2813,32.4688 L19.625,20.0781 Z "/><text fill="#000000" font-family="sans-serif" font-size="14" font-style="italic" lengthAdjust="spacingAndGlyphs" textLength="127" x="35" y="25.9951">BackboneElement</text><text fill="#000000" font-family="sans-serif" font-size="10" font-style="italic" lengthAdjust="spacingAndGlyphs" textLength="119" x="39" y="38.5791">com.ibm.fhir.model.type</text><line style="stroke: #A80036; stroke-width: 1.5;" x1="7" x2="164" y1="45.9375" y2="45.9375"/><ellipse cx="17" cy="56.9375" fill="#84BE84" rx="3" ry="3" style="stroke: #038048; stroke-width: 1.0;"/><text fill="#000000" font-family="sans-serif" font-size="11" font-style="italic" lengthAdjust="spacingAndGlyphs" textLength="107" x="26" y="60.1479">toBuilder(): Builder</text></a><!--MD5=[729297d8e1aa587b81adf26bfa4f5217]
class com.ibm.fhir.model.resource.CoverageEligibilityResponse.Insurance.Item--><a href="CoverageEligibilityResponse.Insurance.Item.html" target="_top" title="CoverageEligibilityResponse.Insurance.Item.html" xlink:actuate="onRequest" xlink:href="CoverageEligibilityResponse.Insurance.Item.html" xlink:show="new" xlink:title="CoverageEligibilityResponse.Insurance.Item.html" xlink:type="simple"><rect fill="#FEFECE" filter="url(#f12pgmh0iwrit4)" height="37.9375" id="com.ibm.fhir.model.resource.CoverageEligibilityResponse.Insurance.Item" style="stroke: #A80036; stroke-width: 1.5;" width="332" x="200.5" y="18.5"/><ellipse cx="215.5" cy="37.4688" fill="#ADD1B2" rx="11" ry="11" style="stroke: #A80036; stroke-width: 1.0;"/><path d="M218.4688,43.1094 Q217.8906,43.4063 217.25,43.5469 Q216.6094,43.7031 215.9063,43.7031 Q213.4063,43.7031 212.0781,42.0625 Q210.7656,40.4063 210.7656,37.2813 Q210.7656,34.1563 212.0781,32.5 Q213.4063,30.8438 215.9063,30.8438 Q216.6094,30.8438 217.25,31 Q217.9063,31.1563 218.4688,31.4531 L218.4688,34.1719 Q217.8438,33.5938 217.25,33.3281 Q216.6563,33.0469 216.0313,33.0469 Q214.6875,33.0469 214,34.125 Q213.3125,35.1875 213.3125,37.2813 Q213.3125,39.375 214,40.4531 Q214.6875,41.5156 216.0313,41.5156 Q216.6563,41.5156 217.25,41.25 Q217.8438,40.9688 218.4688,40.3906 L218.4688,43.1094 Z "/><text fill="#000000" font-family="sans-serif" font-size="14" lengthAdjust="spacingAndGlyphs" textLength="300" x="229.5" y="36.4951">CoverageEligibilityResponse.Insurance.Item</text><text fill="#000000" font-family="sans-serif" font-size="10" lengthAdjust="spacingAndGlyphs" textLength="139" x="310" y="49.0791">com.ibm.fhir.model.resource</text></a><!--MD5=[25d79750dff4168269bc124e04a373ab]
class com.ibm.fhir.model.resource.CoverageEligibilityResponse.Insurance.Item.Benefit.Builder--><a href="CoverageEligibilityResponse.Insurance.Item.Benefit.Builder.html" target="_top" title="CoverageEligibilityResponse.Insurance.Item.Benefit.Builder.html" xlink:actuate="onRequest" xlink:href="CoverageEligibilityResponse.Insurance.Item.Benefit.Builder.html" xlink:show="new" xlink:title="CoverageEligibilityResponse.Insurance.Item.Benefit.Builder.html" xlink:type="simple"><rect fill="#FEFECE" filter="url(#f12pgmh0iwrit4)" height="37.9375" id="com.ibm.fhir.model.resource.CoverageEligibilityResponse.Insurance.Item.Benefit.Builder" style="stroke: #A80036; stroke-width: 1.5;" width="437" x="7" y="323"/><ellipse cx="22" cy="341.9688" fill="#ADD1B2" rx="11" ry="11" style="stroke: #A80036; stroke-width: 1.0;"/><path d="M24.9688,347.6094 Q24.3906,347.9063 23.75,348.0469 Q23.1094,348.2031 22.4063,348.2031 Q19.9063,348.2031 18.5781,346.5625 Q17.2656,344.9063 17.2656,341.7813 Q17.2656,338.6563 18.5781,337 Q19.9063,335.3438 22.4063,335.3438 Q23.1094,335.3438 23.75,335.5 Q24.4063,335.6563 24.9688,335.9531 L24.9688,338.6719 Q24.3438,338.0938 23.75,337.8281 Q23.1563,337.5469 22.5313,337.5469 Q21.1875,337.5469 20.5,338.625 Q19.8125,339.6875 19.8125,341.7813 Q19.8125,343.875 20.5,344.9531 Q21.1875,346.0156 22.5313,346.0156 Q23.1563,346.0156 23.75,345.75 Q24.3438,345.4688 24.9688,344.8906 L24.9688,347.6094 Z "/><text fill="#000000" font-family="sans-serif" font-size="14" lengthAdjust="spacingAndGlyphs" textLength="405" x="36" y="340.9951">CoverageEligibilityResponse.Insurance.Item.Benefit.Builder</text><text fill="#000000" font-family="sans-serif" font-size="10" lengthAdjust="spacingAndGlyphs" textLength="139" x="169" y="353.5791">com.ibm.fhir.model.resource</text></a><!--MD5=[421b494775c865bf69746d6de0ec38f5]
reverse link com.ibm.fhir.model.type.BackboneElement to com.ibm.fhir.model.resource.CoverageEligibilityResponse.Insurance.Item.Benefit--><path d="M125.4748,82.4717 C137.7974,96.3345 151.6515,111.9204 165.0322,126.9737 " fill="none" id="com.ibm.fhir.model.type.BackboneElement&lt;-com.ibm.fhir.model.resource.CoverageEligibilityResponse.Insurance.Item.Benefit" style="stroke: #A80036; stroke-width: 1.0;"/><polygon fill="none" points="119.8884,86.7233,111.8329,67.1245,130.3521,77.4222,119.8884,86.7233" style="stroke: #A80036; stroke-width: 1.0;"/><!--MD5=[25698015c78caf6ef5a67467ade04234]
reverse link com.ibm.fhir.model.resource.CoverageEligibilityResponse.Insurance.Item to com.ibm.fhir.model.resource.CoverageEligibilityResponse.Insurance.Item.Benefit--><path d="M339.0951,68.1119 C324.0749,84.8897 304.8204,106.3974 286.4478,126.9201 " fill="none" id="com.ibm.fhir.model.resource.CoverageEligibilityResponse.Insurance.Item&lt;-com.ibm.fhir.model.resource.CoverageEligibilityResponse.Insurance.Item.Benefit" style="stroke: #A80036; stroke-width: 1.0;"/><ellipse cx="343.8746" cy="62.7731" fill="#FFFFFF" rx="8" ry="8" style="stroke: #A80036; stroke-width: 1.0;"/><line style="stroke: #A80036; stroke-width: 1.0;" x1="338.5386" x2="349.2106" y1="68.7335" y2="56.8126"/><line style="stroke: #A80036; stroke-width: 1.0;" x1="337.9141" x2="349.8351" y1="57.4371" y2="68.1091"/><!--MD5=[f42a65d37fb291af6f40b80198f07392]
reverse link com.ibm.fhir.model.resource.CoverageEligibilityResponse.Insurance.Item.Benefit to com.ibm.fhir.model.resource.CoverageEligibilityResponse.Insurance.Item.Benefit.Builder--><path d="M225.5,278.372 C225.5,295.0058 225.5,310.9526 225.5,322.721 " fill="none" id="com.ibm.fhir.model.resource.CoverageEligibilityResponse.Insurance.Item.Benefit&lt;-com.ibm.fhir.model.resource.CoverageEligibilityResponse.Insurance.Item.Benefit.Builder" style="stroke: #A80036; stroke-width: 1.0;"/><ellipse cx="225.5001" cy="271.3358" fill="#FFFFFF" rx="8" ry="8" style="stroke: #A80036; stroke-width: 1.0;"/><line style="stroke: #A80036; stroke-width: 1.0;" x1="225.5002" x2="225.5" y1="279.3358" y2="263.3358"/><line style="stroke: #A80036; stroke-width: 1.0;" x1="217.5001" x2="233.5001" y1="271.3359" y2="271.3357"/><text fill="#888888" font-family="sans-serif" font-size="10" lengthAdjust="spacingAndGlyphs" textLength="186" x="182.5" y="380.2822">UMLDoclet 2.0.7, PlantUML 1.2019.12</text><!--MD5=[65442308d4546b1bd4a5af60821602e3]
@startuml
    set namespaceSeparator none
    hide empty fields
    hide empty methods

    class "<size:14>CoverageEligibilityResponse.Insurance.Item.Benefit\n<size:10>com.ibm.fhir.model.resource" as com.ibm.fhir.model.resource.CoverageEligibilityResponse.Insurance.Item.Benefit [[CoverageEligibilityResponse.Insurance.Item.Benefit.html]] {
        +getType(): CodeableConcept
        +getAllowed(): Element
        +getUsed(): Element
        +hasChildren(): boolean
        +accept(String, int, Visitor): void
        +toBuilder(): Builder
        {static} +builder(): Builder
    }

    abstract class "<size:14>BackboneElement\n<size:10>com.ibm.fhir.model.type" as com.ibm.fhir.model.type.BackboneElement [[../type/BackboneElement.html]] {
        {abstract} +toBuilder(): Builder
    }
    class "<size:14>CoverageEligibilityResponse.Insurance.Item\n<size:10>com.ibm.fhir.model.resource" as com.ibm.fhir.model.resource.CoverageEligibilityResponse.Insurance.Item [[CoverageEligibilityResponse.Insurance.Item.html]]
    class "<size:14>CoverageEligibilityResponse.Insurance.Item.Benefit.Builder\n<size:10>com.ibm.fhir.model.resource" as com.ibm.fhir.model.resource.CoverageEligibilityResponse.Insurance.Item.Benefit.Builder [[CoverageEligibilityResponse.Insurance.Item.Benefit.Builder.html]]

    com.ibm.fhir.model.type.BackboneElement <|- - com.ibm.fhir.model.resource.CoverageEligibilityResponse.Insurance.Item.Benefit
    com.ibm.fhir.model.resource.CoverageEligibilityResponse.Insurance.Item +- - com.ibm.fhir.model.resource.CoverageEligibilityResponse.Insurance.Item.Benefit
    com.ibm.fhir.model.resource.CoverageEligibilityResponse.Insurance.Item.Benefit +- - com.ibm.fhir.model.resource.CoverageEligibilityResponse.Insurance.Item.Benefit.Builder

    center footer UMLDoclet 2.0.7, PlantUML 1.2019.12
@enduml

PlantUML version 1.2019.12(Sun Nov 03 10:24:54 UTC 2019)
(APACHE source distribution)
Java Runtime: OpenJDK Runtime Environment
JVM: OpenJDK 64-Bit Server VM
Java Version: 11.0.9+11
Operating System: Linux
Default Encoding: UTF-8
Language: en
Country: null
--></g></svg>