<?xml version="1.0" encoding="UTF-8" standalone="no"?><svg xmlns="http://www.w3.org/2000/svg" xmlns:xlink="http://www.w3.org/1999/xlink" contentScriptType="application/ecmascript" contentStyleType="text/css" height="508px" preserveAspectRatio="none" style="width:679px;height:508px;" version="1.1" viewBox="0 0 679 508" width="679px" zoomAndPan="magnify"><defs><filter height="300%" id="f1svs1zpl64lnd" width="300%" x="-1" y="-1"><feGaussianBlur result="blurOut" stdDeviation="2.0"/><feColorMatrix in="blurOut" result="blurOut2" type="matrix" values="0 0 0 0 0 0 0 0 0 0 0 0 0 0 0 0 0 0 .4 0"/><feOffset dx="4.0" dy="4.0" in="blurOut2" result="blurOut3"/><feBlend in="SourceGraphic" in2="blurOut3" mode="normal"/></filter></defs><g><!--MD5=[24102165e01a361e97ee97bc93867c6a]
class com.ibm.fhir.model.resource.DetectedIssue--><a href="DetectedIssue.html" target="_top" title="DetectedIssue.html" xlink:actuate="onRequest" xlink:href="DetectedIssue.html" xlink:show="new" xlink:title="DetectedIssue.html" xlink:type="simple"><rect fill="#FEFECE" filter="url(#f1svs1zpl64lnd)" height="250.8125" id="com.ibm.fhir.model.resource.DetectedIssue" style="stroke: #A80036; stroke-width: 1.5;" width="233" x="211.5" y="127"/><ellipse cx="254.4" cy="145.9688" fill="#ADD1B2" rx="11" ry="11" style="stroke: #A80036; stroke-width: 1.0;"/><path d="M257.3688,151.6094 Q256.7906,151.9063 256.15,152.0469 Q255.5094,152.2031 254.8063,152.2031 Q252.3063,152.2031 250.9781,150.5625 Q249.6656,148.9063 249.6656,145.7813 Q249.6656,142.6563 250.9781,141 Q252.3063,139.3438 254.8063,139.3438 Q255.5094,139.3438 256.15,139.5 Q256.8063,139.6563 257.3688,139.9531 L257.3688,142.6719 Q256.7438,142.0938 256.15,141.8281 Q255.5563,141.5469 254.9313,141.5469 Q253.5875,141.5469 252.9,142.625 Q252.2125,143.6875 252.2125,145.7813 Q252.2125,147.875 252.9,148.9531 Q253.5875,150.0156 254.9313,150.0156 Q255.5563,150.0156 256.15,149.75 Q256.7438,149.4688 257.3688,148.8906 L257.3688,151.6094 Z "/><text fill="#000000" font-family="sans-serif" font-size="14" lengthAdjust="spacingAndGlyphs" textLength="102" x="293.1" y="144.9951">DetectedIssue</text><text fill="#000000" font-family="sans-serif" font-size="10" lengthAdjust="spacingAndGlyphs" textLength="139" x="274.6" y="157.5791">com.ibm.fhir.model.resource</text><line style="stroke: #A80036; stroke-width: 1.5;" x1="212.5" x2="443.5" y1="164.9375" y2="164.9375"/><ellipse cx="222.5" cy="175.9375" fill="#84BE84" rx="3" ry="3" style="stroke: #038048; stroke-width: 1.0;"/><text fill="#000000" font-family="sans-serif" font-size="11" lengthAdjust="spacingAndGlyphs" textLength="172" x="231.5" y="179.1479">getIdentifier(): List&lt;Identifier&gt;</text><ellipse cx="222.5" cy="188.7422" fill="#84BE84" rx="3" ry="3" style="stroke: #038048; stroke-width: 1.0;"/><text fill="#000000" font-family="sans-serif" font-size="11" lengthAdjust="spacingAndGlyphs" textLength="189" x="231.5" y="191.9526">getStatus(): DetectedIssueStatus</text><ellipse cx="222.5" cy="201.5469" fill="#84BE84" rx="3" ry="3" style="stroke: #038048; stroke-width: 1.0;"/><text fill="#000000" font-family="sans-serif" font-size="11" lengthAdjust="spacingAndGlyphs" textLength="162" x="231.5" y="204.7573">getCode(): CodeableConcept</text><ellipse cx="222.5" cy="214.3516" fill="#84BE84" rx="3" ry="3" style="stroke: #038048; stroke-width: 1.0;"/><text fill="#000000" font-family="sans-serif" font-size="11" lengthAdjust="spacingAndGlyphs" textLength="207" x="231.5" y="217.562">getSeverity(): DetectedIssueSeverity</text><ellipse cx="222.5" cy="227.1563" fill="#84BE84" rx="3" ry="3" style="stroke: #038048; stroke-width: 1.0;"/><text fill="#000000" font-family="sans-serif" font-size="11" lengthAdjust="spacingAndGlyphs" textLength="130" x="231.5" y="230.3667">getPatient(): Reference</text><ellipse cx="222.5" cy="239.9609" fill="#84BE84" rx="3" ry="3" style="stroke: #038048; stroke-width: 1.0;"/><text fill="#000000" font-family="sans-serif" font-size="11" lengthAdjust="spacingAndGlyphs" textLength="132" x="231.5" y="243.1714">getIdentified(): Element</text><ellipse cx="222.5" cy="252.7656" fill="#84BE84" rx="3" ry="3" style="stroke: #038048; stroke-width: 1.0;"/><text fill="#000000" font-family="sans-serif" font-size="11" lengthAdjust="spacingAndGlyphs" textLength="128" x="231.5" y="255.9761">getAuthor(): Reference</text><ellipse cx="222.5" cy="265.5703" fill="#84BE84" rx="3" ry="3" style="stroke: #038048; stroke-width: 1.0;"/><text fill="#000000" font-family="sans-serif" font-size="11" lengthAdjust="spacingAndGlyphs" textLength="187" x="231.5" y="268.7808">getImplicated(): List&lt;Reference&gt;</text><ellipse cx="222.5" cy="278.375" fill="#84BE84" rx="3" ry="3" style="stroke: #038048; stroke-width: 1.0;"/><text fill="#000000" font-family="sans-serif" font-size="11" lengthAdjust="spacingAndGlyphs" textLength="172" x="231.5" y="281.5854">getEvidence(): List&lt;Evidence&gt;</text><ellipse cx="222.5" cy="291.1797" fill="#84BE84" rx="3" ry="3" style="stroke: #038048; stroke-width: 1.0;"/><text fill="#000000" font-family="sans-serif" font-size="11" lengthAdjust="spacingAndGlyphs" textLength="100" x="231.5" y="294.3901">getDetail(): String</text><ellipse cx="222.5" cy="303.9844" fill="#84BE84" rx="3" ry="3" style="stroke: #038048; stroke-width: 1.0;"/><text fill="#000000" font-family="sans-serif" font-size="11" lengthAdjust="spacingAndGlyphs" textLength="107" x="231.5" y="307.1948">getReference(): Uri</text><ellipse cx="222.5" cy="316.7891" fill="#84BE84" rx="3" ry="3" style="stroke: #038048; stroke-width: 1.0;"/><text fill="#000000" font-family="sans-serif" font-size="11" lengthAdjust="spacingAndGlyphs" textLength="180" x="231.5" y="319.9995">getMitigation(): List&lt;Mitigation&gt;</text><ellipse cx="222.5" cy="329.5938" fill="#84BE84" rx="3" ry="3" style="stroke: #038048; stroke-width: 1.0;"/><text fill="#000000" font-family="sans-serif" font-size="11" lengthAdjust="spacingAndGlyphs" textLength="129" x="231.5" y="332.8042">hasChildren(): boolean</text><ellipse cx="222.5" cy="342.3984" fill="#84BE84" rx="3" ry="3" style="stroke: #038048; stroke-width: 1.0;"/><text fill="#000000" font-family="sans-serif" font-size="11" lengthAdjust="spacingAndGlyphs" textLength="176" x="231.5" y="345.6089">accept(String, int, Visitor): void</text><ellipse cx="222.5" cy="355.2031" fill="#84BE84" rx="3" ry="3" style="stroke: #038048; stroke-width: 1.0;"/><text fill="#000000" font-family="sans-serif" font-size="11" lengthAdjust="spacingAndGlyphs" textLength="107" x="231.5" y="358.4136">toBuilder(): Builder</text><ellipse cx="222.5" cy="368.0078" fill="#84BE84" rx="3" ry="3" style="stroke: #038048; stroke-width: 1.0;"/><text fill="#000000" font-family="sans-serif" font-size="11" lengthAdjust="spacingAndGlyphs" text-decoration="underline" textLength="95" x="231.5" y="371.2183">builder(): Builder</text></a><!--MD5=[5a92b081cf79a7020013158c64ef85a4]
class com.ibm.fhir.model.resource.DomainResource--><a href="DomainResource.html" target="_top" title="DomainResource.html" xlink:actuate="onRequest" xlink:href="DomainResource.html" xlink:show="new" xlink:title="DomainResource.html" xlink:type="simple"><rect fill="#FEFECE" filter="url(#f1svs1zpl64lnd)" height="58.7422" id="com.ibm.fhir.model.resource.DomainResource" style="stroke: #A80036; stroke-width: 1.5;" width="171" x="242.5" y="8"/><ellipse cx="257.5" cy="26.9688" fill="#A9DCDF" rx="11" ry="11" style="stroke: #A80036; stroke-width: 1.0;"/><path d="M257.6094,22.3125 L256.4531,27.3906 L258.7813,27.3906 L257.6094,22.3125 Z M256.125,20.0781 L259.1094,20.0781 L262.4688,32.4688 L260.0156,32.4688 L259.25,29.4063 L255.9688,29.4063 L255.2188,32.4688 L252.7813,32.4688 L256.125,20.0781 Z "/><text fill="#000000" font-family="sans-serif" font-size="14" font-style="italic" lengthAdjust="spacingAndGlyphs" textLength="120" x="281" y="25.9951">DomainResource</text><text fill="#000000" font-family="sans-serif" font-size="10" font-style="italic" lengthAdjust="spacingAndGlyphs" textLength="139" x="271.5" y="38.5791">com.ibm.fhir.model.resource</text><line style="stroke: #A80036; stroke-width: 1.5;" x1="243.5" x2="412.5" y1="45.9375" y2="45.9375"/><ellipse cx="253.5" cy="56.9375" fill="#84BE84" rx="3" ry="3" style="stroke: #038048; stroke-width: 1.0;"/><text fill="#000000" font-family="sans-serif" font-size="11" font-style="italic" lengthAdjust="spacingAndGlyphs" textLength="107" x="262.5" y="60.1479">toBuilder(): Builder</text></a><!--MD5=[511194b7a68b748abdb9f293e5bc4ace]
class com.ibm.fhir.model.resource.DetectedIssue.Builder--><a href="DetectedIssue.Builder.html" target="_top" title="DetectedIssue.Builder.html" xlink:actuate="onRequest" xlink:href="DetectedIssue.Builder.html" xlink:show="new" xlink:title="DetectedIssue.Builder.html" xlink:type="simple"><rect fill="#FEFECE" filter="url(#f1svs1zpl64lnd)" height="37.9375" id="com.ibm.fhir.model.resource.DetectedIssue.Builder" style="stroke: #A80036; stroke-width: 1.5;" width="186" x="6" y="438"/><ellipse cx="21" cy="456.9688" fill="#ADD1B2" rx="11" ry="11" style="stroke: #A80036; stroke-width: 1.0;"/><path d="M23.9688,462.6094 Q23.3906,462.9063 22.75,463.0469 Q22.1094,463.2031 21.4063,463.2031 Q18.9063,463.2031 17.5781,461.5625 Q16.2656,459.9063 16.2656,456.7813 Q16.2656,453.6563 17.5781,452 Q18.9063,450.3438 21.4063,450.3438 Q22.1094,450.3438 22.75,450.5 Q23.4063,450.6563 23.9688,450.9531 L23.9688,453.6719 Q23.3438,453.0938 22.75,452.8281 Q22.1563,452.5469 21.5313,452.5469 Q20.1875,452.5469 19.5,453.625 Q18.8125,454.6875 18.8125,456.7813 Q18.8125,458.875 19.5,459.9531 Q20.1875,461.0156 21.5313,461.0156 Q22.1563,461.0156 22.75,460.75 Q23.3438,460.4688 23.9688,459.8906 L23.9688,462.6094 Z "/><text fill="#000000" font-family="sans-serif" font-size="14" lengthAdjust="spacingAndGlyphs" textLength="154" x="35" y="455.9951">DetectedIssue.Builder</text><text fill="#000000" font-family="sans-serif" font-size="10" lengthAdjust="spacingAndGlyphs" textLength="139" x="42.5" y="468.5791">com.ibm.fhir.model.resource</text></a><!--MD5=[3f0a36b2929d35fe20ce55bf2ee575e1]
class com.ibm.fhir.model.resource.DetectedIssue.Evidence--><a href="DetectedIssue.Evidence.html" target="_top" title="DetectedIssue.Evidence.html" xlink:actuate="onRequest" xlink:href="DetectedIssue.Evidence.html" xlink:show="new" xlink:title="DetectedIssue.Evidence.html" xlink:type="simple"><rect fill="#FEFECE" filter="url(#f1svs1zpl64lnd)" height="37.9375" id="com.ibm.fhir.model.resource.DetectedIssue.Evidence" style="stroke: #A80036; stroke-width: 1.5;" width="201" x="227.5" y="438"/><ellipse cx="242.5" cy="456.9688" fill="#ADD1B2" rx="11" ry="11" style="stroke: #A80036; stroke-width: 1.0;"/><path d="M245.4688,462.6094 Q244.8906,462.9063 244.25,463.0469 Q243.6094,463.2031 242.9063,463.2031 Q240.4063,463.2031 239.0781,461.5625 Q237.7656,459.9063 237.7656,456.7813 Q237.7656,453.6563 239.0781,452 Q240.4063,450.3438 242.9063,450.3438 Q243.6094,450.3438 244.25,450.5 Q244.9063,450.6563 245.4688,450.9531 L245.4688,453.6719 Q244.8438,453.0938 244.25,452.8281 Q243.6563,452.5469 243.0313,452.5469 Q241.6875,452.5469 241,453.625 Q240.3125,454.6875 240.3125,456.7813 Q240.3125,458.875 241,459.9531 Q241.6875,461.0156 243.0313,461.0156 Q243.6563,461.0156 244.25,460.75 Q244.8438,460.4688 245.4688,459.8906 L245.4688,462.6094 Z "/><text fill="#000000" font-family="sans-serif" font-size="14" lengthAdjust="spacingAndGlyphs" textLength="169" x="256.5" y="455.9951">DetectedIssue.Evidence</text><text fill="#000000" font-family="sans-serif" font-size="10" lengthAdjust="spacingAndGlyphs" textLength="139" x="271.5" y="468.5791">com.ibm.fhir.model.resource</text></a><!--MD5=[7854d88d5c0730005a27d9b228723229]
class com.ibm.fhir.model.resource.DetectedIssue.Mitigation--><a href="DetectedIssue.Mitigation.html" target="_top" title="DetectedIssue.Mitigation.html" xlink:actuate="onRequest" xlink:href="DetectedIssue.Mitigation.html" xlink:show="new" xlink:title="DetectedIssue.Mitigation.html" xlink:type="simple"><rect fill="#FEFECE" filter="url(#f1svs1zpl64lnd)" height="37.9375" id="com.ibm.fhir.model.resource.DetectedIssue.Mitigation" style="stroke: #A80036; stroke-width: 1.5;" width="204" x="464" y="438"/><ellipse cx="479" cy="456.9688" fill="#ADD1B2" rx="11" ry="11" style="stroke: #A80036; stroke-width: 1.0;"/><path d="M481.9688,462.6094 Q481.3906,462.9063 480.75,463.0469 Q480.1094,463.2031 479.4063,463.2031 Q476.9063,463.2031 475.5781,461.5625 Q474.2656,459.9063 474.2656,456.7813 Q474.2656,453.6563 475.5781,452 Q476.9063,450.3438 479.4063,450.3438 Q480.1094,450.3438 480.75,450.5 Q481.4063,450.6563 481.9688,450.9531 L481.9688,453.6719 Q481.3438,453.0938 480.75,452.8281 Q480.1563,452.5469 479.5313,452.5469 Q478.1875,452.5469 477.5,453.625 Q476.8125,454.6875 476.8125,456.7813 Q476.8125,458.875 477.5,459.9531 Q478.1875,461.0156 479.5313,461.0156 Q480.1563,461.0156 480.75,460.75 Q481.3438,460.4688 481.9688,459.8906 L481.9688,462.6094 Z "/><text fill="#000000" font-family="sans-serif" font-size="14" lengthAdjust="spacingAndGlyphs" textLength="172" x="493" y="455.9951">DetectedIssue.Mitigation</text><text fill="#000000" font-family="sans-serif" font-size="10" lengthAdjust="spacingAndGlyphs" textLength="139" x="509.5" y="468.5791">com.ibm.fhir.model.resource</text></a><!--MD5=[915e2310c0ac1d6fa0222a5b8464e6f9]
reverse link com.ibm.fhir.model.resource.DomainResource to com.ibm.fhir.model.resource.DetectedIssue--><path d="M328,87.4715 C328,99.5673 328,113.0406 328,126.9281 " fill="none" id="com.ibm.fhir.model.resource.DomainResource&lt;-com.ibm.fhir.model.resource.DetectedIssue" style="stroke: #A80036; stroke-width: 1.0;"/><polygon fill="none" points="321.0001,87.3949,328,67.3948,335.0001,87.3948,321.0001,87.3949" style="stroke: #A80036; stroke-width: 1.0;"/><!--MD5=[1364818fbaa66107fa5f6eec2243d974]
reverse link com.ibm.fhir.model.resource.DetectedIssue to com.ibm.fhir.model.resource.DetectedIssue.Builder--><path d="M200.0568,366.7549 C169.1476,394.3573 139.5635,420.7763 120.4826,437.8157 " fill="none" id="com.ibm.fhir.model.resource.DetectedIssue&lt;-com.ibm.fhir.model.resource.DetectedIssue.Builder" style="stroke: #A80036; stroke-width: 1.0;"/><ellipse cx="205.5204" cy="361.8759" fill="#FFFFFF" rx="8" ry="8" style="stroke: #A80036; stroke-width: 1.0;"/><line style="stroke: #A80036; stroke-width: 1.0;" x1="199.5533" x2="211.4874" y1="367.2046" y2="356.5473"/><line style="stroke: #A80036; stroke-width: 1.0;" x1="200.1917" x2="210.849" y1="355.9089" y2="367.843"/><!--MD5=[06e405f554703380f8b81cd1937db229]
reverse link com.ibm.fhir.model.resource.DetectedIssue to com.ibm.fhir.model.resource.DetectedIssue.Evidence--><path d="M328,393.287 C328,410.7869 328,426.5226 328,437.9777 " fill="none" id="com.ibm.fhir.model.resource.DetectedIssue&lt;-com.ibm.fhir.model.resource.DetectedIssue.Evidence" style="stroke: #A80036; stroke-width: 1.0;"/><ellipse cx="328.0001" cy="386.2275" fill="#FFFFFF" rx="8" ry="8" style="stroke: #A80036; stroke-width: 1.0;"/><line style="stroke: #A80036; stroke-width: 1.0;" x1="328.0002" x2="328" y1="394.2275" y2="378.2275"/><line style="stroke: #A80036; stroke-width: 1.0;" x1="320.0001" x2="336.0001" y1="386.2276" y2="386.2274"/><!--MD5=[a994887a35b70645850f25f24f0fafe1]
reverse link com.ibm.fhir.model.resource.DetectedIssue to com.ibm.fhir.model.resource.DetectedIssue.Mitigation--><path d="M456.0373,362.5152 C489.8178,391.5409 522.6214,419.7272 543.4755,437.646 " fill="none" id="com.ibm.fhir.model.resource.DetectedIssue&lt;-com.ibm.fhir.model.resource.DetectedIssue.Mitigation" style="stroke: #A80036; stroke-width: 1.0;"/><ellipse cx="450.6275" cy="357.8669" fill="#FFFFFF" rx="8" ry="8" style="stroke: #A80036; stroke-width: 1.0;"/><line style="stroke: #A80036; stroke-width: 1.0;" x1="456.6952" x2="444.5597" y1="363.0805" y2="352.6532"/><line style="stroke: #A80036; stroke-width: 1.0;" x1="445.4138" x2="455.8411" y1="363.9346" y2="351.7991"/><text fill="#888888" font-family="sans-serif" font-size="10" lengthAdjust="spacingAndGlyphs" textLength="186" x="250" y="495.2822">UMLDoclet 2.0.7, PlantUML 1.2019.12</text><!--MD5=[c1191990edf939b38af7dbdc88adb1a8]
@startuml
    set namespaceSeparator none
    hide empty fields
    hide empty methods

    class "<size:14>DetectedIssue\n<size:10>com.ibm.fhir.model.resource" as com.ibm.fhir.model.resource.DetectedIssue [[DetectedIssue.html]] {
        +getIdentifier(): List<Identifier>
        +getStatus(): DetectedIssueStatus
        +getCode(): CodeableConcept
        +getSeverity(): DetectedIssueSeverity
        +getPatient(): Reference
        +getIdentified(): Element
        +getAuthor(): Reference
        +getImplicated(): List<Reference>
        +getEvidence(): List<Evidence>
        +getDetail(): String
        +getReference(): Uri
        +getMitigation(): List<Mitigation>
        +hasChildren(): boolean
        +accept(String, int, Visitor): void
        +toBuilder(): Builder
        {static} +builder(): Builder
    }

    abstract class "<size:14>DomainResource\n<size:10>com.ibm.fhir.model.resource" as com.ibm.fhir.model.resource.DomainResource [[DomainResource.html]] {
        {abstract} +toBuilder(): Builder
    }
    class "<size:14>DetectedIssue.Builder\n<size:10>com.ibm.fhir.model.resource" as com.ibm.fhir.model.resource.DetectedIssue.Builder [[DetectedIssue.Builder.html]]
    class "<size:14>DetectedIssue.Evidence\n<size:10>com.ibm.fhir.model.resource" as com.ibm.fhir.model.resource.DetectedIssue.Evidence [[DetectedIssue.Evidence.html]]
    class "<size:14>DetectedIssue.Mitigation\n<size:10>com.ibm.fhir.model.resource" as com.ibm.fhir.model.resource.DetectedIssue.Mitigation [[DetectedIssue.Mitigation.html]]

    com.ibm.fhir.model.resource.DomainResource <|- - com.ibm.fhir.model.resource.DetectedIssue
    com.ibm.fhir.model.resource.DetectedIssue +- - com.ibm.fhir.model.resource.DetectedIssue.Builder
    com.ibm.fhir.model.resource.DetectedIssue +- - com.ibm.fhir.model.resource.DetectedIssue.Evidence
    com.ibm.fhir.model.resource.DetectedIssue +- - com.ibm.fhir.model.resource.DetectedIssue.Mitigation

    center footer UMLDoclet 2.0.7, PlantUML 1.2019.12
@enduml

PlantUML version 1.2019.12(Sun Nov 03 10:24:54 UTC 2019)
(APACHE source distribution)
Java Runtime: OpenJDK Runtime Environment
JVM: OpenJDK 64-Bit Server VM
Java Version: 11.0.9+11
Operating System: Linux
Default Encoding: UTF-8
Language: en
Country: null
--></g></svg>