<?xml version="1.0" encoding="UTF-8" standalone="no"?><svg xmlns="http://www.w3.org/2000/svg" xmlns:xlink="http://www.w3.org/1999/xlink" contentScriptType="application/ecmascript" contentStyleType="text/css" height="380px" preserveAspectRatio="none" style="width:382px;height:380px;" version="1.1" viewBox="0 0 382 380" width="382px" zoomAndPan="magnify"><defs><filter height="300%" id="f1vvy99atyzlfc" width="300%" x="-1" y="-1"><feGaussianBlur result="blurOut" stdDeviation="2.0"/><feColorMatrix in="blurOut" result="blurOut2" type="matrix" values="0 0 0 0 0 0 0 0 0 0 0 0 0 0 0 0 0 0 .4 0"/><feOffset dx="4.0" dy="4.0" in="blurOut2" result="blurOut3"/><feBlend in="SourceGraphic" in2="blurOut3" mode="normal"/></filter></defs><g><!--MD5=[a7ed43d2ce5adb9cd072febc5a68a4ea]
class com.ibm.fhir.model.resource.EpisodeOfCare.StatusHistory--><a href="EpisodeOfCare.StatusHistory.html" target="_top" title="EpisodeOfCare.StatusHistory.html" xlink:actuate="onRequest" xlink:href="EpisodeOfCare.StatusHistory.html" xlink:show="new" xlink:title="EpisodeOfCare.StatusHistory.html" xlink:type="simple"><rect fill="#FEFECE" filter="url(#f1vvy99atyzlfc)" height="122.7656" id="com.ibm.fhir.model.resource.EpisodeOfCare.StatusHistory" style="stroke: #A80036; stroke-width: 1.5;" width="230" x="70.5" y="127"/><ellipse cx="85.5" cy="145.9688" fill="#ADD1B2" rx="11" ry="11" style="stroke: #A80036; stroke-width: 1.0;"/><path d="M88.4688,151.6094 Q87.8906,151.9063 87.25,152.0469 Q86.6094,152.2031 85.9063,152.2031 Q83.4063,152.2031 82.0781,150.5625 Q80.7656,148.9063 80.7656,145.7813 Q80.7656,142.6563 82.0781,141 Q83.4063,139.3438 85.9063,139.3438 Q86.6094,139.3438 87.25,139.5 Q87.9063,139.6563 88.4688,139.9531 L88.4688,142.6719 Q87.8438,142.0938 87.25,141.8281 Q86.6563,141.5469 86.0313,141.5469 Q84.6875,141.5469 84,142.625 Q83.3125,143.6875 83.3125,145.7813 Q83.3125,147.875 84,148.9531 Q84.6875,150.0156 86.0313,150.0156 Q86.6563,150.0156 87.25,149.75 Q87.8438,149.4688 88.4688,148.8906 L88.4688,151.6094 Z "/><text fill="#000000" font-family="sans-serif" font-size="14" lengthAdjust="spacingAndGlyphs" textLength="198" x="99.5" y="144.9951">EpisodeOfCare.StatusHistory</text><text fill="#000000" font-family="sans-serif" font-size="10" lengthAdjust="spacingAndGlyphs" textLength="139" x="129" y="157.5791">com.ibm.fhir.model.resource</text><line style="stroke: #A80036; stroke-width: 1.5;" x1="71.5" x2="299.5" y1="164.9375" y2="164.9375"/><ellipse cx="81.5" cy="175.9375" fill="#84BE84" rx="3" ry="3" style="stroke: #038048; stroke-width: 1.0;"/><text fill="#000000" font-family="sans-serif" font-size="11" lengthAdjust="spacingAndGlyphs" textLength="193" x="90.5" y="179.1479">getStatus(): EpisodeOfCareStatus</text><ellipse cx="81.5" cy="188.7422" fill="#84BE84" rx="3" ry="3" style="stroke: #038048; stroke-width: 1.0;"/><text fill="#000000" font-family="sans-serif" font-size="11" lengthAdjust="spacingAndGlyphs" textLength="106" x="90.5" y="191.9526">getPeriod(): Period</text><ellipse cx="81.5" cy="201.5469" fill="#84BE84" rx="3" ry="3" style="stroke: #038048; stroke-width: 1.0;"/><text fill="#000000" font-family="sans-serif" font-size="11" lengthAdjust="spacingAndGlyphs" textLength="129" x="90.5" y="204.7573">hasChildren(): boolean</text><ellipse cx="81.5" cy="214.3516" fill="#84BE84" rx="3" ry="3" style="stroke: #038048; stroke-width: 1.0;"/><text fill="#000000" font-family="sans-serif" font-size="11" lengthAdjust="spacingAndGlyphs" textLength="176" x="90.5" y="217.562">accept(String, int, Visitor): void</text><ellipse cx="81.5" cy="227.1563" fill="#84BE84" rx="3" ry="3" style="stroke: #038048; stroke-width: 1.0;"/><text fill="#000000" font-family="sans-serif" font-size="11" lengthAdjust="spacingAndGlyphs" textLength="107" x="90.5" y="230.3667">toBuilder(): Builder</text><ellipse cx="81.5" cy="239.9609" fill="#84BE84" rx="3" ry="3" style="stroke: #038048; stroke-width: 1.0;"/><text fill="#000000" font-family="sans-serif" font-size="11" lengthAdjust="spacingAndGlyphs" text-decoration="underline" textLength="95" x="90.5" y="243.1714">builder(): Builder</text></a><!--MD5=[efbff6997283c56b83e991a8eeb6a60a]
class com.ibm.fhir.model.type.BackboneElement--><a href="../type/BackboneElement.html" target="_top" title="../type/BackboneElement.html" xlink:actuate="onRequest" xlink:href="../type/BackboneElement.html" xlink:show="new" xlink:title="../type/BackboneElement.html" xlink:type="simple"><rect fill="#FEFECE" filter="url(#f1vvy99atyzlfc)" height="58.7422" id="com.ibm.fhir.model.type.BackboneElement" style="stroke: #A80036; stroke-width: 1.5;" width="159" x="6" y="8"/><ellipse cx="21" cy="26.9688" fill="#A9DCDF" rx="11" ry="11" style="stroke: #A80036; stroke-width: 1.0;"/><path d="M21.1094,22.3125 L19.9531,27.3906 L22.2813,27.3906 L21.1094,22.3125 Z M19.625,20.0781 L22.6094,20.0781 L25.9688,32.4688 L23.5156,32.4688 L22.75,29.4063 L19.4688,29.4063 L18.7188,32.4688 L16.2813,32.4688 L19.625,20.0781 Z "/><text fill="#000000" font-family="sans-serif" font-size="14" font-style="italic" lengthAdjust="spacingAndGlyphs" textLength="127" x="35" y="25.9951">BackboneElement</text><text fill="#000000" font-family="sans-serif" font-size="10" font-style="italic" lengthAdjust="spacingAndGlyphs" textLength="119" x="39" y="38.5791">com.ibm.fhir.model.type</text><line style="stroke: #A80036; stroke-width: 1.5;" x1="7" x2="164" y1="45.9375" y2="45.9375"/><ellipse cx="17" cy="56.9375" fill="#84BE84" rx="3" ry="3" style="stroke: #038048; stroke-width: 1.0;"/><text fill="#000000" font-family="sans-serif" font-size="11" font-style="italic" lengthAdjust="spacingAndGlyphs" textLength="107" x="26" y="60.1479">toBuilder(): Builder</text></a><!--MD5=[dbecf98489c9c244782878a883820d9e]
class com.ibm.fhir.model.resource.EpisodeOfCare--><a href="EpisodeOfCare.html" target="_top" title="EpisodeOfCare.html" xlink:actuate="onRequest" xlink:href="EpisodeOfCare.html" xlink:show="new" xlink:title="EpisodeOfCare.html" xlink:type="simple"><rect fill="#FEFECE" filter="url(#f1vvy99atyzlfc)" height="37.9375" id="com.ibm.fhir.model.resource.EpisodeOfCare" style="stroke: #A80036; stroke-width: 1.5;" width="171" x="200" y="18.5"/><ellipse cx="215" cy="37.4688" fill="#ADD1B2" rx="11" ry="11" style="stroke: #A80036; stroke-width: 1.0;"/><path d="M217.9688,43.1094 Q217.3906,43.4063 216.75,43.5469 Q216.1094,43.7031 215.4063,43.7031 Q212.9063,43.7031 211.5781,42.0625 Q210.2656,40.4063 210.2656,37.2813 Q210.2656,34.1563 211.5781,32.5 Q212.9063,30.8438 215.4063,30.8438 Q216.1094,30.8438 216.75,31 Q217.4063,31.1563 217.9688,31.4531 L217.9688,34.1719 Q217.3438,33.5938 216.75,33.3281 Q216.1563,33.0469 215.5313,33.0469 Q214.1875,33.0469 213.5,34.125 Q212.8125,35.1875 212.8125,37.2813 Q212.8125,39.375 213.5,40.4531 Q214.1875,41.5156 215.5313,41.5156 Q216.1563,41.5156 216.75,41.25 Q217.3438,40.9688 217.9688,40.3906 L217.9688,43.1094 Z "/><text fill="#000000" font-family="sans-serif" font-size="14" lengthAdjust="spacingAndGlyphs" textLength="103" x="247" y="36.4951">EpisodeOfCare</text><text fill="#000000" font-family="sans-serif" font-size="10" lengthAdjust="spacingAndGlyphs" textLength="139" x="229" y="49.0791">com.ibm.fhir.model.resource</text></a><!--MD5=[718290a6540bb42211582610d14a9c9b]
class com.ibm.fhir.model.resource.EpisodeOfCare.StatusHistory.Builder--><a href="EpisodeOfCare.StatusHistory.Builder.html" target="_top" title="EpisodeOfCare.StatusHistory.Builder.html" xlink:actuate="onRequest" xlink:href="EpisodeOfCare.StatusHistory.Builder.html" xlink:show="new" xlink:title="EpisodeOfCare.StatusHistory.Builder.html" xlink:type="simple"><rect fill="#FEFECE" filter="url(#f1vvy99atyzlfc)" height="37.9375" id="com.ibm.fhir.model.resource.EpisodeOfCare.StatusHistory.Builder" style="stroke: #A80036; stroke-width: 1.5;" width="282" x="44.5" y="310"/><ellipse cx="59.5" cy="328.9688" fill="#ADD1B2" rx="11" ry="11" style="stroke: #A80036; stroke-width: 1.0;"/><path d="M62.4688,334.6094 Q61.8906,334.9063 61.25,335.0469 Q60.6094,335.2031 59.9063,335.2031 Q57.4063,335.2031 56.0781,333.5625 Q54.7656,331.9063 54.7656,328.7813 Q54.7656,325.6563 56.0781,324 Q57.4063,322.3438 59.9063,322.3438 Q60.6094,322.3438 61.25,322.5 Q61.9063,322.6563 62.4688,322.9531 L62.4688,325.6719 Q61.8438,325.0938 61.25,324.8281 Q60.6563,324.5469 60.0313,324.5469 Q58.6875,324.5469 58,325.625 Q57.3125,326.6875 57.3125,328.7813 Q57.3125,330.875 58,331.9531 Q58.6875,333.0156 60.0313,333.0156 Q60.6563,333.0156 61.25,332.75 Q61.8438,332.4688 62.4688,331.8906 L62.4688,334.6094 Z "/><text fill="#000000" font-family="sans-serif" font-size="14" lengthAdjust="spacingAndGlyphs" textLength="250" x="73.5" y="327.9951">EpisodeOfCare.StatusHistory.Builder</text><text fill="#000000" font-family="sans-serif" font-size="10" lengthAdjust="spacingAndGlyphs" textLength="139" x="129" y="340.5791">com.ibm.fhir.model.resource</text></a><!--MD5=[08ed03947e41c9161b4d68b3c663e8df]
reverse link com.ibm.fhir.model.type.BackboneElement to com.ibm.fhir.model.resource.EpisodeOfCare.StatusHistory--><path d="M116.3534,84.0887 C125.3083,97.6106 135.2284,112.5898 144.6932,126.8817 " fill="none" id="com.ibm.fhir.model.type.BackboneElement&lt;-com.ibm.fhir.model.resource.EpisodeOfCare.StatusHistory" style="stroke: #A80036; stroke-width: 1.0;"/><polygon fill="none" points="110.4636,87.8727,105.2568,67.3327,122.136,80.1426,110.4636,87.8727" style="stroke: #A80036; stroke-width: 1.0;"/><!--MD5=[9cd8055951e320ee27a34870ab4ebbce]
reverse link com.ibm.fhir.model.resource.EpisodeOfCare to com.ibm.fhir.model.resource.EpisodeOfCare.StatusHistory--><path d="M264.3122,69.4936 C253.2729,86.1629 239.3891,107.1275 226.362,126.7984 " fill="none" id="com.ibm.fhir.model.resource.EpisodeOfCare&lt;-com.ibm.fhir.model.resource.EpisodeOfCare.StatusHistory" style="stroke: #A80036; stroke-width: 1.0;"/><ellipse cx="268.4177" cy="63.2943" fill="#FFFFFF" rx="8" ry="8" style="stroke: #A80036; stroke-width: 1.0;"/><line style="stroke: #A80036; stroke-width: 1.0;" x1="264.0006" x2="272.8349" y1="69.9643" y2="56.6243"/><line style="stroke: #A80036; stroke-width: 1.0;" x1="261.7478" x2="275.0877" y1="58.8771" y2="67.7114"/><!--MD5=[84c3f9f11f36200041d1020726e71a9b]
reverse link com.ibm.fhir.model.resource.EpisodeOfCare.StatusHistory to com.ibm.fhir.model.resource.EpisodeOfCare.StatusHistory.Builder--><path d="M185.5,265.3379 C185.5,281.8682 185.5,297.9076 185.5,309.7518 " fill="none" id="com.ibm.fhir.model.resource.EpisodeOfCare.StatusHistory&lt;-com.ibm.fhir.model.resource.EpisodeOfCare.StatusHistory.Builder" style="stroke: #A80036; stroke-width: 1.0;"/><ellipse cx="185.5001" cy="258.1253" fill="#FFFFFF" rx="8" ry="8" style="stroke: #A80036; stroke-width: 1.0;"/><line style="stroke: #A80036; stroke-width: 1.0;" x1="185.5002" x2="185.5" y1="266.1253" y2="250.1253"/><line style="stroke: #A80036; stroke-width: 1.0;" x1="177.5001" x2="193.5001" y1="258.1254" y2="258.1252"/><text fill="#888888" font-family="sans-serif" font-size="10" lengthAdjust="spacingAndGlyphs" textLength="186" x="101.5" y="367.2822">UMLDoclet 2.0.7, PlantUML 1.2019.12</text><!--MD5=[0107b1bfe262ab7466dcc36800949e3f]
@startuml
    set namespaceSeparator none
    hide empty fields
    hide empty methods

    class "<size:14>EpisodeOfCare.StatusHistory\n<size:10>com.ibm.fhir.model.resource" as com.ibm.fhir.model.resource.EpisodeOfCare.StatusHistory [[EpisodeOfCare.StatusHistory.html]] {
        +getStatus(): EpisodeOfCareStatus
        +getPeriod(): Period
        +hasChildren(): boolean
        +accept(String, int, Visitor): void
        +toBuilder(): Builder
        {static} +builder(): Builder
    }

    abstract class "<size:14>BackboneElement\n<size:10>com.ibm.fhir.model.type" as com.ibm.fhir.model.type.BackboneElement [[../type/BackboneElement.html]] {
        {abstract} +toBuilder(): Builder
    }
    class "<size:14>EpisodeOfCare\n<size:10>com.ibm.fhir.model.resource" as com.ibm.fhir.model.resource.EpisodeOfCare [[EpisodeOfCare.html]]
    class "<size:14>EpisodeOfCare.StatusHistory.Builder\n<size:10>com.ibm.fhir.model.resource" as com.ibm.fhir.model.resource.EpisodeOfCare.StatusHistory.Builder [[EpisodeOfCare.StatusHistory.Builder.html]]

    com.ibm.fhir.model.type.BackboneElement <|- - com.ibm.fhir.model.resource.EpisodeOfCare.StatusHistory
    com.ibm.fhir.model.resource.EpisodeOfCare +- - com.ibm.fhir.model.resource.EpisodeOfCare.StatusHistory
    com.ibm.fhir.model.resource.EpisodeOfCare.StatusHistory +- - com.ibm.fhir.model.resource.EpisodeOfCare.StatusHistory.Builder

    center footer UMLDoclet 2.0.7, PlantUML 1.2019.12
@enduml

PlantUML version 1.2019.12(Sun Nov 03 10:24:54 UTC 2019)
(APACHE source distribution)
Java Runtime: OpenJDK Runtime Environment
JVM: OpenJDK 64-Bit Server VM
Java Version: 11.0.9+11
Operating System: Linux
Default Encoding: UTF-8
Language: en
Country: null
--></g></svg>