<?xml version="1.0" encoding="UTF-8" standalone="no"?><svg xmlns="http://www.w3.org/2000/svg" xmlns:xlink="http://www.w3.org/1999/xlink" contentScriptType="application/ecmascript" contentStyleType="text/css" height="393px" preserveAspectRatio="none" style="width:406px;height:393px;" version="1.1" viewBox="0 0 406 393" width="406px" zoomAndPan="magnify"><defs><filter height="300%" id="fo02qakf91e18" width="300%" x="-1" y="-1"><feGaussianBlur result="blurOut" stdDeviation="2.0"/><feColorMatrix in="blurOut" result="blurOut2" type="matrix" values="0 0 0 0 0 0 0 0 0 0 0 0 0 0 0 0 0 0 .4 0"/><feOffset dx="4.0" dy="4.0" in="blurOut2" result="blurOut3"/><feBlend in="SourceGraphic" in2="blurOut3" mode="normal"/></filter></defs><g><!--MD5=[556ec292193f7b294853c11bda19ce96]
class com.ibm.fhir.model.resource.MedicinalProduct.Name.CountryLanguage--><a href="MedicinalProduct.Name.CountryLanguage.html" target="_top" title="MedicinalProduct.Name.CountryLanguage.html" xlink:actuate="onRequest" xlink:href="MedicinalProduct.Name.CountryLanguage.html" xlink:show="new" xlink:title="MedicinalProduct.Name.CountryLanguage.html" xlink:type="simple"><rect fill="#FEFECE" filter="url(#fo02qakf91e18)" height="135.5703" id="com.ibm.fhir.model.resource.MedicinalProduct.Name.CountryLanguage" style="stroke: #A80036; stroke-width: 1.5;" width="320" x="32" y="127"/><ellipse cx="47" cy="145.9688" fill="#ADD1B2" rx="11" ry="11" style="stroke: #A80036; stroke-width: 1.0;"/><path d="M49.9688,151.6094 Q49.3906,151.9063 48.75,152.0469 Q48.1094,152.2031 47.4063,152.2031 Q44.9063,152.2031 43.5781,150.5625 Q42.2656,148.9063 42.2656,145.7813 Q42.2656,142.6563 43.5781,141 Q44.9063,139.3438 47.4063,139.3438 Q48.1094,139.3438 48.75,139.5 Q49.4063,139.6563 49.9688,139.9531 L49.9688,142.6719 Q49.3438,142.0938 48.75,141.8281 Q48.1563,141.5469 47.5313,141.5469 Q46.1875,141.5469 45.5,142.625 Q44.8125,143.6875 44.8125,145.7813 Q44.8125,147.875 45.5,148.9531 Q46.1875,150.0156 47.5313,150.0156 Q48.1563,150.0156 48.75,149.75 Q49.3438,149.4688 49.9688,148.8906 L49.9688,151.6094 Z "/><text fill="#000000" font-family="sans-serif" font-size="14" lengthAdjust="spacingAndGlyphs" textLength="288" x="61" y="144.9951">MedicinalProduct.Name.CountryLanguage</text><text fill="#000000" font-family="sans-serif" font-size="10" lengthAdjust="spacingAndGlyphs" textLength="139" x="135.5" y="157.5791">com.ibm.fhir.model.resource</text><line style="stroke: #A80036; stroke-width: 1.5;" x1="33" x2="351" y1="164.9375" y2="164.9375"/><ellipse cx="43" cy="175.9375" fill="#84BE84" rx="3" ry="3" style="stroke: #038048; stroke-width: 1.0;"/><text fill="#000000" font-family="sans-serif" font-size="11" lengthAdjust="spacingAndGlyphs" textLength="177" x="52" y="179.1479">getCountry(): CodeableConcept</text><ellipse cx="43" cy="188.7422" fill="#84BE84" rx="3" ry="3" style="stroke: #038048; stroke-width: 1.0;"/><text fill="#000000" font-family="sans-serif" font-size="11" lengthAdjust="spacingAndGlyphs" textLength="195" x="52" y="191.9526">getJurisdiction(): CodeableConcept</text><ellipse cx="43" cy="201.5469" fill="#84BE84" rx="3" ry="3" style="stroke: #038048; stroke-width: 1.0;"/><text fill="#000000" font-family="sans-serif" font-size="11" lengthAdjust="spacingAndGlyphs" textLength="188" x="52" y="204.7573">getLanguage(): CodeableConcept</text><ellipse cx="43" cy="214.3516" fill="#84BE84" rx="3" ry="3" style="stroke: #038048; stroke-width: 1.0;"/><text fill="#000000" font-family="sans-serif" font-size="11" lengthAdjust="spacingAndGlyphs" textLength="129" x="52" y="217.562">hasChildren(): boolean</text><ellipse cx="43" cy="227.1563" fill="#84BE84" rx="3" ry="3" style="stroke: #038048; stroke-width: 1.0;"/><text fill="#000000" font-family="sans-serif" font-size="11" lengthAdjust="spacingAndGlyphs" textLength="176" x="52" y="230.3667">accept(String, int, Visitor): void</text><ellipse cx="43" cy="239.9609" fill="#84BE84" rx="3" ry="3" style="stroke: #038048; stroke-width: 1.0;"/><text fill="#000000" font-family="sans-serif" font-size="11" lengthAdjust="spacingAndGlyphs" textLength="107" x="52" y="243.1714">toBuilder(): Builder</text><ellipse cx="43" cy="252.7656" fill="#84BE84" rx="3" ry="3" style="stroke: #038048; stroke-width: 1.0;"/><text fill="#000000" font-family="sans-serif" font-size="11" lengthAdjust="spacingAndGlyphs" text-decoration="underline" textLength="95" x="52" y="255.9761">builder(): Builder</text></a><!--MD5=[efbff6997283c56b83e991a8eeb6a60a]
class com.ibm.fhir.model.type.BackboneElement--><a href="../type/BackboneElement.html" target="_top" title="../type/BackboneElement.html" xlink:actuate="onRequest" xlink:href="../type/BackboneElement.html" xlink:show="new" xlink:title="../type/BackboneElement.html" xlink:type="simple"><rect fill="#FEFECE" filter="url(#fo02qakf91e18)" height="58.7422" id="com.ibm.fhir.model.type.BackboneElement" style="stroke: #A80036; stroke-width: 1.5;" width="159" x="7.5" y="8"/><ellipse cx="22.5" cy="26.9688" fill="#A9DCDF" rx="11" ry="11" style="stroke: #A80036; stroke-width: 1.0;"/><path d="M22.6094,22.3125 L21.4531,27.3906 L23.7813,27.3906 L22.6094,22.3125 Z M21.125,20.0781 L24.1094,20.0781 L27.4688,32.4688 L25.0156,32.4688 L24.25,29.4063 L20.9688,29.4063 L20.2188,32.4688 L17.7813,32.4688 L21.125,20.0781 Z "/><text fill="#000000" font-family="sans-serif" font-size="14" font-style="italic" lengthAdjust="spacingAndGlyphs" textLength="127" x="36.5" y="25.9951">BackboneElement</text><text fill="#000000" font-family="sans-serif" font-size="10" font-style="italic" lengthAdjust="spacingAndGlyphs" textLength="119" x="40.5" y="38.5791">com.ibm.fhir.model.type</text><line style="stroke: #A80036; stroke-width: 1.5;" x1="8.5" x2="165.5" y1="45.9375" y2="45.9375"/><ellipse cx="18.5" cy="56.9375" fill="#84BE84" rx="3" ry="3" style="stroke: #038048; stroke-width: 1.0;"/><text fill="#000000" font-family="sans-serif" font-size="11" font-style="italic" lengthAdjust="spacingAndGlyphs" textLength="107" x="27.5" y="60.1479">toBuilder(): Builder</text></a><!--MD5=[a3cf672a165b46547942da79e9377716]
class com.ibm.fhir.model.resource.MedicinalProduct.Name--><a href="MedicinalProduct.Name.html" target="_top" title="MedicinalProduct.Name.html" xlink:actuate="onRequest" xlink:href="MedicinalProduct.Name.html" xlink:show="new" xlink:title="MedicinalProduct.Name.html" xlink:type="simple"><rect fill="#FEFECE" filter="url(#fo02qakf91e18)" height="37.9375" id="com.ibm.fhir.model.resource.MedicinalProduct.Name" style="stroke: #A80036; stroke-width: 1.5;" width="194" x="201" y="18.5"/><ellipse cx="216" cy="37.4688" fill="#ADD1B2" rx="11" ry="11" style="stroke: #A80036; stroke-width: 1.0;"/><path d="M218.9688,43.1094 Q218.3906,43.4063 217.75,43.5469 Q217.1094,43.7031 216.4063,43.7031 Q213.9063,43.7031 212.5781,42.0625 Q211.2656,40.4063 211.2656,37.2813 Q211.2656,34.1563 212.5781,32.5 Q213.9063,30.8438 216.4063,30.8438 Q217.1094,30.8438 217.75,31 Q218.4063,31.1563 218.9688,31.4531 L218.9688,34.1719 Q218.3438,33.5938 217.75,33.3281 Q217.1563,33.0469 216.5313,33.0469 Q215.1875,33.0469 214.5,34.125 Q213.8125,35.1875 213.8125,37.2813 Q213.8125,39.375 214.5,40.4531 Q215.1875,41.5156 216.5313,41.5156 Q217.1563,41.5156 217.75,41.25 Q218.3438,40.9688 218.9688,40.3906 L218.9688,43.1094 Z "/><text fill="#000000" font-family="sans-serif" font-size="14" lengthAdjust="spacingAndGlyphs" textLength="162" x="230" y="36.4951">MedicinalProduct.Name</text><text fill="#000000" font-family="sans-serif" font-size="10" lengthAdjust="spacingAndGlyphs" textLength="139" x="241.5" y="49.0791">com.ibm.fhir.model.resource</text></a><!--MD5=[3c5a9312bfd9a8a6b2aa99e2144a8e3b]
class com.ibm.fhir.model.resource.MedicinalProduct.Name.CountryLanguage.Builder--><a href="MedicinalProduct.Name.CountryLanguage.Builder.html" target="_top" title="MedicinalProduct.Name.CountryLanguage.Builder.html" xlink:actuate="onRequest" xlink:href="MedicinalProduct.Name.CountryLanguage.Builder.html" xlink:show="new" xlink:title="MedicinalProduct.Name.CountryLanguage.Builder.html" xlink:type="simple"><rect fill="#FEFECE" filter="url(#fo02qakf91e18)" height="37.9375" id="com.ibm.fhir.model.resource.MedicinalProduct.Name.CountryLanguage.Builder" style="stroke: #A80036; stroke-width: 1.5;" width="372" x="6" y="323"/><ellipse cx="21" cy="341.9688" fill="#ADD1B2" rx="11" ry="11" style="stroke: #A80036; stroke-width: 1.0;"/><path d="M23.9688,347.6094 Q23.3906,347.9063 22.75,348.0469 Q22.1094,348.2031 21.4063,348.2031 Q18.9063,348.2031 17.5781,346.5625 Q16.2656,344.9063 16.2656,341.7813 Q16.2656,338.6563 17.5781,337 Q18.9063,335.3438 21.4063,335.3438 Q22.1094,335.3438 22.75,335.5 Q23.4063,335.6563 23.9688,335.9531 L23.9688,338.6719 Q23.3438,338.0938 22.75,337.8281 Q22.1563,337.5469 21.5313,337.5469 Q20.1875,337.5469 19.5,338.625 Q18.8125,339.6875 18.8125,341.7813 Q18.8125,343.875 19.5,344.9531 Q20.1875,346.0156 21.5313,346.0156 Q22.1563,346.0156 22.75,345.75 Q23.3438,345.4688 23.9688,344.8906 L23.9688,347.6094 Z "/><text fill="#000000" font-family="sans-serif" font-size="14" lengthAdjust="spacingAndGlyphs" textLength="340" x="35" y="340.9951">MedicinalProduct.Name.CountryLanguage.Builder</text><text fill="#000000" font-family="sans-serif" font-size="10" lengthAdjust="spacingAndGlyphs" textLength="139" x="135.5" y="353.5791">com.ibm.fhir.model.resource</text></a><!--MD5=[495af90f3f6c4748738b1f358866e374]
reverse link com.ibm.fhir.model.type.BackboneElement to com.ibm.fhir.model.resource.MedicinalProduct.Name.CountryLanguage--><path d="M117.8888,83.8332 C126.9003,97.3504 136.9409,112.4113 146.6491,126.9737 " fill="none" id="com.ibm.fhir.model.type.BackboneElement&lt;-com.ibm.fhir.model.resource.MedicinalProduct.Name.CountryLanguage" style="stroke: #A80036; stroke-width: 1.0;"/><polygon fill="none" points="112.0194,87.6485,106.7497,67.1245,123.6681,79.8827,112.0194,87.6485" style="stroke: #A80036; stroke-width: 1.0;"/><!--MD5=[ac2700ddfc10ddbdfb5e30eabac1fc58]
reverse link com.ibm.fhir.model.resource.MedicinalProduct.Name to com.ibm.fhir.model.resource.MedicinalProduct.Name.CountryLanguage--><path d="M276.4031,69.5898 C265.2633,86.1418 251.2287,106.9951 237.8189,126.9201 " fill="none" id="com.ibm.fhir.model.resource.MedicinalProduct.Name&lt;-com.ibm.fhir.model.resource.MedicinalProduct.Name.CountryLanguage" style="stroke: #A80036; stroke-width: 1.0;"/><ellipse cx="280.5356" cy="63.4495" fill="#FFFFFF" rx="8" ry="8" style="stroke: #A80036; stroke-width: 1.0;"/><line style="stroke: #A80036; stroke-width: 1.0;" x1="276.0688" x2="285.0023" y1="70.0864" y2="56.8126"/><line style="stroke: #A80036; stroke-width: 1.0;" x1="273.8987" x2="287.1724" y1="58.9827" y2="67.9162"/><!--MD5=[e0e2237b8421fe3f38bec14ac1bd1598]
reverse link com.ibm.fhir.model.resource.MedicinalProduct.Name.CountryLanguage to com.ibm.fhir.model.resource.MedicinalProduct.Name.CountryLanguage.Builder--><path d="M192,278.372 C192,295.0058 192,310.9526 192,322.721 " fill="none" id="com.ibm.fhir.model.resource.MedicinalProduct.Name.CountryLanguage&lt;-com.ibm.fhir.model.resource.MedicinalProduct.Name.CountryLanguage.Builder" style="stroke: #A80036; stroke-width: 1.0;"/><ellipse cx="192.0001" cy="271.3358" fill="#FFFFFF" rx="8" ry="8" style="stroke: #A80036; stroke-width: 1.0;"/><line style="stroke: #A80036; stroke-width: 1.0;" x1="192.0002" x2="192" y1="279.3358" y2="263.3358"/><line style="stroke: #A80036; stroke-width: 1.0;" x1="184.0001" x2="200.0001" y1="271.3359" y2="271.3357"/><text fill="#888888" font-family="sans-serif" font-size="10" lengthAdjust="spacingAndGlyphs" textLength="186" x="113.5" y="380.2822">UMLDoclet 2.0.7, PlantUML 1.2019.12</text><!--MD5=[4f28c61a238484ff1cf46aa2a0df944b]
@startuml
    set namespaceSeparator none
    hide empty fields
    hide empty methods

    class "<size:14>MedicinalProduct.Name.CountryLanguage\n<size:10>com.ibm.fhir.model.resource" as com.ibm.fhir.model.resource.MedicinalProduct.Name.CountryLanguage [[MedicinalProduct.Name.CountryLanguage.html]] {
        +getCountry(): CodeableConcept
        +getJurisdiction(): CodeableConcept
        +getLanguage(): CodeableConcept
        +hasChildren(): boolean
        +accept(String, int, Visitor): void
        +toBuilder(): Builder
        {static} +builder(): Builder
    }

    abstract class "<size:14>BackboneElement\n<size:10>com.ibm.fhir.model.type" as com.ibm.fhir.model.type.BackboneElement [[../type/BackboneElement.html]] {
        {abstract} +toBuilder(): Builder
    }
    class "<size:14>MedicinalProduct.Name\n<size:10>com.ibm.fhir.model.resource" as com.ibm.fhir.model.resource.MedicinalProduct.Name [[MedicinalProduct.Name.html]]
    class "<size:14>MedicinalProduct.Name.CountryLanguage.Builder\n<size:10>com.ibm.fhir.model.resource" as com.ibm.fhir.model.resource.MedicinalProduct.Name.CountryLanguage.Builder [[MedicinalProduct.Name.CountryLanguage.Builder.html]]

    com.ibm.fhir.model.type.BackboneElement <|- - com.ibm.fhir.model.resource.MedicinalProduct.Name.CountryLanguage
    com.ibm.fhir.model.resource.MedicinalProduct.Name +- - com.ibm.fhir.model.resource.MedicinalProduct.Name.CountryLanguage
    com.ibm.fhir.model.resource.MedicinalProduct.Name.CountryLanguage +- - com.ibm.fhir.model.resource.MedicinalProduct.Name.CountryLanguage.Builder

    center footer UMLDoclet 2.0.7, PlantUML 1.2019.12
@enduml

PlantUML version 1.2019.12(Sun Nov 03 10:24:54 UTC 2019)
(APACHE source distribution)
Java Runtime: OpenJDK Runtime Environment
JVM: OpenJDK 64-Bit Server VM
Java Version: 11.0.9+11
Operating System: Linux
Default Encoding: UTF-8
Language: en
Country: null
--></g></svg>