<?xml version="1.0" encoding="UTF-8" standalone="no"?><svg xmlns="http://www.w3.org/2000/svg" xmlns:xlink="http://www.w3.org/1999/xlink" contentScriptType="application/ecmascript" contentStyleType="text/css" height="380px" preserveAspectRatio="none" style="width:392px;height:380px;" version="1.1" viewBox="0 0 392 380" width="392px" zoomAndPan="magnify"><defs><filter height="300%" id="f1j7135xe2r0a0" width="300%" x="-1" y="-1"><feGaussianBlur result="blurOut" stdDeviation="2.0"/><feColorMatrix in="blurOut" result="blurOut2" type="matrix" values="0 0 0 0 0 0 0 0 0 0 0 0 0 0 0 0 0 0 .4 0"/><feOffset dx="4.0" dy="4.0" in="blurOut2" result="blurOut3"/><feBlend in="SourceGraphic" in2="blurOut3" mode="normal"/></filter></defs><g><!--MD5=[b8b91701df8c36ff5a33cfa61c5b8bf7]
class com.ibm.fhir.model.resource.RequestGroup.Action.Condition--><a href="RequestGroup.Action.Condition.html" target="_top" title="RequestGroup.Action.Condition.html" xlink:actuate="onRequest" xlink:href="RequestGroup.Action.Condition.html" xlink:show="new" xlink:title="RequestGroup.Action.Condition.html" xlink:type="simple"><rect fill="#FEFECE" filter="url(#f1j7135xe2r0a0)" height="122.7656" id="com.ibm.fhir.model.resource.RequestGroup.Action.Condition" style="stroke: #A80036; stroke-width: 1.5;" width="251" x="62" y="127"/><ellipse cx="77" cy="145.9688" fill="#ADD1B2" rx="11" ry="11" style="stroke: #A80036; stroke-width: 1.0;"/><path d="M79.9688,151.6094 Q79.3906,151.9063 78.75,152.0469 Q78.1094,152.2031 77.4063,152.2031 Q74.9063,152.2031 73.5781,150.5625 Q72.2656,148.9063 72.2656,145.7813 Q72.2656,142.6563 73.5781,141 Q74.9063,139.3438 77.4063,139.3438 Q78.1094,139.3438 78.75,139.5 Q79.4063,139.6563 79.9688,139.9531 L79.9688,142.6719 Q79.3438,142.0938 78.75,141.8281 Q78.1563,141.5469 77.5313,141.5469 Q76.1875,141.5469 75.5,142.625 Q74.8125,143.6875 74.8125,145.7813 Q74.8125,147.875 75.5,148.9531 Q76.1875,150.0156 77.5313,150.0156 Q78.1563,150.0156 78.75,149.75 Q79.3438,149.4688 79.9688,148.8906 L79.9688,151.6094 Z "/><text fill="#000000" font-family="sans-serif" font-size="14" lengthAdjust="spacingAndGlyphs" textLength="219" x="91" y="144.9951">RequestGroup.Action.Condition</text><text fill="#000000" font-family="sans-serif" font-size="10" lengthAdjust="spacingAndGlyphs" textLength="139" x="131" y="157.5791">com.ibm.fhir.model.resource</text><line style="stroke: #A80036; stroke-width: 1.5;" x1="63" x2="312" y1="164.9375" y2="164.9375"/><ellipse cx="73" cy="175.9375" fill="#84BE84" rx="3" ry="3" style="stroke: #038048; stroke-width: 1.0;"/><text fill="#000000" font-family="sans-serif" font-size="11" lengthAdjust="spacingAndGlyphs" textLength="169" x="82" y="179.1479">getKind(): ActionConditionKind</text><ellipse cx="73" cy="188.7422" fill="#84BE84" rx="3" ry="3" style="stroke: #038048; stroke-width: 1.0;"/><text fill="#000000" font-family="sans-serif" font-size="11" lengthAdjust="spacingAndGlyphs" textLength="160" x="82" y="191.9526">getExpression(): Expression</text><ellipse cx="73" cy="201.5469" fill="#84BE84" rx="3" ry="3" style="stroke: #038048; stroke-width: 1.0;"/><text fill="#000000" font-family="sans-serif" font-size="11" lengthAdjust="spacingAndGlyphs" textLength="129" x="82" y="204.7573">hasChildren(): boolean</text><ellipse cx="73" cy="214.3516" fill="#84BE84" rx="3" ry="3" style="stroke: #038048; stroke-width: 1.0;"/><text fill="#000000" font-family="sans-serif" font-size="11" lengthAdjust="spacingAndGlyphs" textLength="176" x="82" y="217.562">accept(String, int, Visitor): void</text><ellipse cx="73" cy="227.1563" fill="#84BE84" rx="3" ry="3" style="stroke: #038048; stroke-width: 1.0;"/><text fill="#000000" font-family="sans-serif" font-size="11" lengthAdjust="spacingAndGlyphs" textLength="107" x="82" y="230.3667">toBuilder(): Builder</text><ellipse cx="73" cy="239.9609" fill="#84BE84" rx="3" ry="3" style="stroke: #038048; stroke-width: 1.0;"/><text fill="#000000" font-family="sans-serif" font-size="11" lengthAdjust="spacingAndGlyphs" text-decoration="underline" textLength="95" x="82" y="243.1714">builder(): Builder</text></a><!--MD5=[efbff6997283c56b83e991a8eeb6a60a]
class com.ibm.fhir.model.type.BackboneElement--><a href="../type/BackboneElement.html" target="_top" title="../type/BackboneElement.html" xlink:actuate="onRequest" xlink:href="../type/BackboneElement.html" xlink:show="new" xlink:title="../type/BackboneElement.html" xlink:type="simple"><rect fill="#FEFECE" filter="url(#f1j7135xe2r0a0)" height="58.7422" id="com.ibm.fhir.model.type.BackboneElement" style="stroke: #A80036; stroke-width: 1.5;" width="159" x="6" y="8"/><ellipse cx="21" cy="26.9688" fill="#A9DCDF" rx="11" ry="11" style="stroke: #A80036; stroke-width: 1.0;"/><path d="M21.1094,22.3125 L19.9531,27.3906 L22.2813,27.3906 L21.1094,22.3125 Z M19.625,20.0781 L22.6094,20.0781 L25.9688,32.4688 L23.5156,32.4688 L22.75,29.4063 L19.4688,29.4063 L18.7188,32.4688 L16.2813,32.4688 L19.625,20.0781 Z "/><text fill="#000000" font-family="sans-serif" font-size="14" font-style="italic" lengthAdjust="spacingAndGlyphs" textLength="127" x="35" y="25.9951">BackboneElement</text><text fill="#000000" font-family="sans-serif" font-size="10" font-style="italic" lengthAdjust="spacingAndGlyphs" textLength="119" x="39" y="38.5791">com.ibm.fhir.model.type</text><line style="stroke: #A80036; stroke-width: 1.5;" x1="7" x2="164" y1="45.9375" y2="45.9375"/><ellipse cx="17" cy="56.9375" fill="#84BE84" rx="3" ry="3" style="stroke: #038048; stroke-width: 1.0;"/><text fill="#000000" font-family="sans-serif" font-size="11" font-style="italic" lengthAdjust="spacingAndGlyphs" textLength="107" x="26" y="60.1479">toBuilder(): Builder</text></a><!--MD5=[a24e631a9d3db618c0fdc171a889a8ce]
class com.ibm.fhir.model.resource.RequestGroup.Action--><a href="RequestGroup.Action.html" target="_top" title="RequestGroup.Action.html" xlink:actuate="onRequest" xlink:href="RequestGroup.Action.html" xlink:show="new" xlink:title="RequestGroup.Action.html" xlink:type="simple"><rect fill="#FEFECE" filter="url(#f1j7135xe2r0a0)" height="37.9375" id="com.ibm.fhir.model.resource.RequestGroup.Action" style="stroke: #A80036; stroke-width: 1.5;" width="181" x="200" y="18.5"/><ellipse cx="215" cy="37.4688" fill="#ADD1B2" rx="11" ry="11" style="stroke: #A80036; stroke-width: 1.0;"/><path d="M217.9688,43.1094 Q217.3906,43.4063 216.75,43.5469 Q216.1094,43.7031 215.4063,43.7031 Q212.9063,43.7031 211.5781,42.0625 Q210.2656,40.4063 210.2656,37.2813 Q210.2656,34.1563 211.5781,32.5 Q212.9063,30.8438 215.4063,30.8438 Q216.1094,30.8438 216.75,31 Q217.4063,31.1563 217.9688,31.4531 L217.9688,34.1719 Q217.3438,33.5938 216.75,33.3281 Q216.1563,33.0469 215.5313,33.0469 Q214.1875,33.0469 213.5,34.125 Q212.8125,35.1875 212.8125,37.2813 Q212.8125,39.375 213.5,40.4531 Q214.1875,41.5156 215.5313,41.5156 Q216.1563,41.5156 216.75,41.25 Q217.3438,40.9688 217.9688,40.3906 L217.9688,43.1094 Z "/><text fill="#000000" font-family="sans-serif" font-size="14" lengthAdjust="spacingAndGlyphs" textLength="149" x="229" y="36.4951">RequestGroup.Action</text><text fill="#000000" font-family="sans-serif" font-size="10" lengthAdjust="spacingAndGlyphs" textLength="139" x="234" y="49.0791">com.ibm.fhir.model.resource</text></a><!--MD5=[1d690fb6367ee7938ea25e0cc9e0ff03]
class com.ibm.fhir.model.resource.RequestGroup.Action.Condition.Builder--><a href="RequestGroup.Action.Condition.Builder.html" target="_top" title="RequestGroup.Action.Condition.Builder.html" xlink:actuate="onRequest" xlink:href="RequestGroup.Action.Condition.Builder.html" xlink:show="new" xlink:title="RequestGroup.Action.Condition.Builder.html" xlink:type="simple"><rect fill="#FEFECE" filter="url(#f1j7135xe2r0a0)" height="37.9375" id="com.ibm.fhir.model.resource.RequestGroup.Action.Condition.Builder" style="stroke: #A80036; stroke-width: 1.5;" width="303" x="36" y="310"/><ellipse cx="51" cy="328.9688" fill="#ADD1B2" rx="11" ry="11" style="stroke: #A80036; stroke-width: 1.0;"/><path d="M53.9688,334.6094 Q53.3906,334.9063 52.75,335.0469 Q52.1094,335.2031 51.4063,335.2031 Q48.9063,335.2031 47.5781,333.5625 Q46.2656,331.9063 46.2656,328.7813 Q46.2656,325.6563 47.5781,324 Q48.9063,322.3438 51.4063,322.3438 Q52.1094,322.3438 52.75,322.5 Q53.4063,322.6563 53.9688,322.9531 L53.9688,325.6719 Q53.3438,325.0938 52.75,324.8281 Q52.1563,324.5469 51.5313,324.5469 Q50.1875,324.5469 49.5,325.625 Q48.8125,326.6875 48.8125,328.7813 Q48.8125,330.875 49.5,331.9531 Q50.1875,333.0156 51.5313,333.0156 Q52.1563,333.0156 52.75,332.75 Q53.3438,332.4688 53.9688,331.8906 L53.9688,334.6094 Z "/><text fill="#000000" font-family="sans-serif" font-size="14" lengthAdjust="spacingAndGlyphs" textLength="271" x="65" y="327.9951">RequestGroup.Action.Condition.Builder</text><text fill="#000000" font-family="sans-serif" font-size="10" lengthAdjust="spacingAndGlyphs" textLength="139" x="131" y="340.5791">com.ibm.fhir.model.resource</text></a><!--MD5=[a888a7068f1463256fbf4d8001ad92ef]
reverse link com.ibm.fhir.model.type.BackboneElement to com.ibm.fhir.model.resource.RequestGroup.Action.Condition--><path d="M116.9705,84.0887 C126.1045,97.6106 136.2229,112.5898 145.8771,126.8817 " fill="none" id="com.ibm.fhir.model.type.BackboneElement&lt;-com.ibm.fhir.model.resource.RequestGroup.Action.Condition" style="stroke: #A80036; stroke-width: 1.0;"/><polygon fill="none" points="111.0465,87.8242,105.6519,67.3327,122.6477,79.9876,111.0465,87.8242" style="stroke: #A80036; stroke-width: 1.0;"/><!--MD5=[5ab0ec50b960232a322c6a0d9d2cfe78]
reverse link com.ibm.fhir.model.resource.RequestGroup.Action to com.ibm.fhir.model.resource.RequestGroup.Action.Condition--><path d="M268.6766,69.4936 C257.3061,86.1629 243.0058,107.1275 229.5879,126.7984 " fill="none" id="com.ibm.fhir.model.resource.RequestGroup.Action&lt;-com.ibm.fhir.model.resource.RequestGroup.Action.Condition" style="stroke: #A80036; stroke-width: 1.0;"/><ellipse cx="272.9469" cy="63.2332" fill="#FFFFFF" rx="8" ry="8" style="stroke: #A80036; stroke-width: 1.0;"/><line style="stroke: #A80036; stroke-width: 1.0;" x1="268.4388" x2="277.455" y1="69.842" y2="56.6243"/><line style="stroke: #A80036; stroke-width: 1.0;" x1="266.338" x2="279.5558" y1="58.7251" y2="67.7413"/><!--MD5=[4cdfab8e041fe1fc206e9334fb292b34]
reverse link com.ibm.fhir.model.resource.RequestGroup.Action.Condition to com.ibm.fhir.model.resource.RequestGroup.Action.Condition.Builder--><path d="M187.5,265.3379 C187.5,281.8682 187.5,297.9076 187.5,309.7518 " fill="none" id="com.ibm.fhir.model.resource.RequestGroup.Action.Condition&lt;-com.ibm.fhir.model.resource.RequestGroup.Action.Condition.Builder" style="stroke: #A80036; stroke-width: 1.0;"/><ellipse cx="187.5001" cy="258.1253" fill="#FFFFFF" rx="8" ry="8" style="stroke: #A80036; stroke-width: 1.0;"/><line style="stroke: #A80036; stroke-width: 1.0;" x1="187.5002" x2="187.5" y1="266.1253" y2="250.1253"/><line style="stroke: #A80036; stroke-width: 1.0;" x1="179.5001" x2="195.5001" y1="258.1254" y2="258.1252"/><text fill="#888888" font-family="sans-serif" font-size="10" lengthAdjust="spacingAndGlyphs" textLength="186" x="106.5" y="367.2822">UMLDoclet 2.0.7, PlantUML 1.2019.12</text><!--MD5=[c2198d2401bc4091f12aa1767b5a8ddf]
@startuml
    set namespaceSeparator none
    hide empty fields
    hide empty methods

    class "<size:14>RequestGroup.Action.Condition\n<size:10>com.ibm.fhir.model.resource" as com.ibm.fhir.model.resource.RequestGroup.Action.Condition [[RequestGroup.Action.Condition.html]] {
        +getKind(): ActionConditionKind
        +getExpression(): Expression
        +hasChildren(): boolean
        +accept(String, int, Visitor): void
        +toBuilder(): Builder
        {static} +builder(): Builder
    }

    abstract class "<size:14>BackboneElement\n<size:10>com.ibm.fhir.model.type" as com.ibm.fhir.model.type.BackboneElement [[../type/BackboneElement.html]] {
        {abstract} +toBuilder(): Builder
    }
    class "<size:14>RequestGroup.Action\n<size:10>com.ibm.fhir.model.resource" as com.ibm.fhir.model.resource.RequestGroup.Action [[RequestGroup.Action.html]]
    class "<size:14>RequestGroup.Action.Condition.Builder\n<size:10>com.ibm.fhir.model.resource" as com.ibm.fhir.model.resource.RequestGroup.Action.Condition.Builder [[RequestGroup.Action.Condition.Builder.html]]

    com.ibm.fhir.model.type.BackboneElement <|- - com.ibm.fhir.model.resource.RequestGroup.Action.Condition
    com.ibm.fhir.model.resource.RequestGroup.Action +- - com.ibm.fhir.model.resource.RequestGroup.Action.Condition
    com.ibm.fhir.model.resource.RequestGroup.Action.Condition +- - com.ibm.fhir.model.resource.RequestGroup.Action.Condition.Builder

    center footer UMLDoclet 2.0.7, PlantUML 1.2019.12
@enduml

PlantUML version 1.2019.12(Sun Nov 03 10:24:54 UTC 2019)
(APACHE source distribution)
Java Runtime: OpenJDK Runtime Environment
JVM: OpenJDK 64-Bit Server VM
Java Version: 11.0.9+11
Operating System: Linux
Default Encoding: UTF-8
Language: en
Country: null
--></g></svg>