<?xml version="1.0" encoding="UTF-8" standalone="no"?><svg xmlns="http://www.w3.org/2000/svg" xmlns:xlink="http://www.w3.org/1999/xlink" contentScriptType="application/ecmascript" contentStyleType="text/css" height="350px" preserveAspectRatio="none" style="width:2863px;height:350px;" version="1.1" viewBox="0 0 2863 350" width="2863px" zoomAndPan="magnify"><defs><filter height="300%" id="f1gebuwrlvnx0f" width="300%" x="-1" y="-1"><feGaussianBlur result="blurOut" stdDeviation="2.0"/><feColorMatrix in="blurOut" result="blurOut2" type="matrix" values="0 0 0 0 0 0 0 0 0 0 0 0 0 0 0 0 0 0 .4 0"/><feOffset dx="4.0" dy="4.0" in="blurOut2" result="blurOut3"/><feBlend in="SourceGraphic" in2="blurOut3" mode="normal"/></filter></defs><g><!--MD5=[b0efbf797a85440c4885c0e1eff4733d]
cluster com.ibm.fhir.persistence.jdbc.postgresql--><polygon fill="#FFFFFF" filter="url(#f1gebuwrlvnx0f)" points="14,137,345,137,352,159.2969,2841,159.2969,2841,310,14,310,14,137" style="stroke: #000000; stroke-width: 1.5;"/><line style="stroke: #000000; stroke-width: 1.5;" x1="14" x2="352" y1="159.2969" y2="159.2969"/><text fill="#000000" font-family="sans-serif" font-size="14" font-weight="bold" lengthAdjust="spacingAndGlyphs" textLength="325" x="18" y="151.9951">com.ibm.fhir.persistence.jdbc.postgresql</text><!--MD5=[f05908a168f402cc442a4fe79fd7a149]
cluster com.ibm.fhir.persistence.jdbc.dao.api--><polygon fill="#FFFFFF" filter="url(#f1gebuwrlvnx0f)" points="163,16,466,16,473,38.2969,1070,38.2969,1070,112,163,112,163,16" style="stroke: #000000; stroke-width: 1.5;"/><line style="stroke: #000000; stroke-width: 1.5;" x1="163" x2="473" y1="38.2969" y2="38.2969"/><text fill="#000000" font-family="sans-serif" font-size="14" font-weight="bold" lengthAdjust="spacingAndGlyphs" textLength="297" x="167" y="30.9951">com.ibm.fhir.persistence.jdbc.dao.api</text><!--MD5=[64d04c887f1544293b7d573d644dad8e]
cluster com.ibm.fhir.persistence.jdbc.dao.impl--><polygon fill="#FFFFFF" filter="url(#f1gebuwrlvnx0f)" points="1503,16,1815,16,1822,38.2969,2157,38.2969,2157,112,1503,112,1503,16" style="stroke: #000000; stroke-width: 1.5;"/><line style="stroke: #000000; stroke-width: 1.5;" x1="1503" x2="1822" y1="38.2969" y2="38.2969"/><text fill="#000000" font-family="sans-serif" font-size="14" font-weight="bold" lengthAdjust="spacingAndGlyphs" textLength="306" x="1507" y="30.9951">com.ibm.fhir.persistence.jdbc.dao.impl</text><!--MD5=[f3d73aaf0b93cfa2643837e465fd977a]
class com.ibm.fhir.persistence.jdbc.postgresql.ParameterNameCacheAdapter--><a href="ParameterNameCacheAdapter.html" target="_top" title="ParameterNameCacheAdapter.html" xlink:actuate="onRequest" xlink:href="ParameterNameCacheAdapter.html" xlink:show="new" xlink:title="ParameterNameCacheAdapter.html" xlink:type="simple"><rect fill="#FEFECE" filter="url(#f1gebuwrlvnx0f)" height="73.6094" id="com.ibm.fhir.persistence.jdbc.postgresql.ParameterNameCacheAdapter" style="stroke: #A80036; stroke-width: 1.5;" width="323" x="870.5" y="196"/><ellipse cx="932.25" cy="212" fill="#ADD1B2" rx="11" ry="11" style="stroke: #A80036; stroke-width: 1.0;"/><path d="M935.2188,217.6406 Q934.6406,217.9375 934,218.0781 Q933.3594,218.2344 932.6563,218.2344 Q930.1563,218.2344 928.8281,216.5938 Q927.5156,214.9375 927.5156,211.8125 Q927.5156,208.6875 928.8281,207.0313 Q930.1563,205.375 932.6563,205.375 Q933.3594,205.375 934,205.5313 Q934.6563,205.6875 935.2188,205.9844 L935.2188,208.7031 Q934.5938,208.125 934,207.8594 Q933.4063,207.5781 932.7813,207.5781 Q931.4375,207.5781 930.75,208.6563 Q930.0625,209.7188 930.0625,211.8125 Q930.0625,213.9063 930.75,214.9844 Q931.4375,216.0469 932.7813,216.0469 Q933.4063,216.0469 934,215.7813 Q934.5938,215.5 935.2188,214.9219 L935.2188,217.6406 Z "/><text fill="#000000" font-family="sans-serif" font-size="12" lengthAdjust="spacingAndGlyphs" textLength="191" x="952.75" y="216.1543">ParameterNameCacheAdapter</text><line style="stroke: #A80036; stroke-width: 1.5;" x1="871.5" x2="1192.5" y1="228" y2="228"/><line style="stroke: #A80036; stroke-width: 1.5;" x1="871.5" x2="1192.5" y1="236" y2="236"/><ellipse cx="881.5" cy="247" fill="#84BE84" rx="3" ry="3" style="stroke: #038048; stroke-width: 1.0;"/><text fill="#000000" font-family="sans-serif" font-size="11" lengthAdjust="spacingAndGlyphs" textLength="297" x="890.5" y="250.2104">ParameterNameCacheAdapter(ParameterNameDAO)</text><ellipse cx="881.5" cy="259.8047" fill="#84BE84" rx="3" ry="3" style="stroke: #038048; stroke-width: 1.0;"/><text fill="#000000" font-family="sans-serif" font-size="11" lengthAdjust="spacingAndGlyphs" textLength="228" x="890.5" y="263.0151">readOrAddParameterNameId(String): int</text></a><!--MD5=[d8678c287efeba77ba4d0abbd90525eb]
class com.ibm.fhir.persistence.jdbc.postgresql.PostgreSqlCodeSystemDAO--><a href="PostgreSqlCodeSystemDAO.html" target="_top" title="PostgreSqlCodeSystemDAO.html" xlink:actuate="onRequest" xlink:href="PostgreSqlCodeSystemDAO.html" xlink:show="new" xlink:title="PostgreSqlCodeSystemDAO.html" xlink:type="simple"><rect fill="#FEFECE" filter="url(#f1gebuwrlvnx0f)" height="86.4141" id="com.ibm.fhir.persistence.jdbc.postgresql.PostgreSqlCodeSystemDAO" style="stroke: #A80036; stroke-width: 1.5;" width="382" x="1674" y="190"/><ellipse cx="1775.25" cy="206" fill="#ADD1B2" rx="11" ry="11" style="stroke: #A80036; stroke-width: 1.0;"/><path d="M1778.2188,211.6406 Q1777.6406,211.9375 1777,212.0781 Q1776.3594,212.2344 1775.6563,212.2344 Q1773.1563,212.2344 1771.8281,210.5938 Q1770.5156,208.9375 1770.5156,205.8125 Q1770.5156,202.6875 1771.8281,201.0313 Q1773.1563,199.375 1775.6563,199.375 Q1776.3594,199.375 1777,199.5313 Q1777.6563,199.6875 1778.2188,199.9844 L1778.2188,202.7031 Q1777.5938,202.125 1777,201.8594 Q1776.4063,201.5781 1775.7813,201.5781 Q1774.4375,201.5781 1773.75,202.6563 Q1773.0625,203.7188 1773.0625,205.8125 Q1773.0625,207.9063 1773.75,208.9844 Q1774.4375,210.0469 1775.7813,210.0469 Q1776.4063,210.0469 1777,209.7813 Q1777.5938,209.5 1778.2188,208.9219 L1778.2188,211.6406 Z "/><text fill="#000000" font-family="sans-serif" font-size="12" lengthAdjust="spacingAndGlyphs" textLength="171" x="1795.75" y="210.1543">PostgreSqlCodeSystemDAO</text><line style="stroke: #A80036; stroke-width: 1.5;" x1="1675" x2="2055" y1="222" y2="222"/><line style="stroke: #A80036; stroke-width: 1.5;" x1="1675" x2="2055" y1="230" y2="230"/><ellipse cx="1685" cy="241" fill="#84BE84" rx="3" ry="3" style="stroke: #038048; stroke-width: 1.0;"/><text fill="#000000" font-family="sans-serif" font-size="11" lengthAdjust="spacingAndGlyphs" textLength="356" x="1694" y="244.2104">PostgreSqlCodeSystemDAO(Connection, FhirRefSequenceDAO)</text><ellipse cx="1685" cy="253.8047" fill="#84BE84" rx="3" ry="3" style="stroke: #038048; stroke-width: 1.0;"/><text fill="#000000" font-family="sans-serif" font-size="11" lengthAdjust="spacingAndGlyphs" textLength="197" x="1694" y="257.0151">readOrAddCodeSystem(String): int</text><polygon fill="#FFFF44" points="1685,261.6094,1689,265.6094,1685,269.6094,1681,265.6094" style="stroke: #B38D22; stroke-width: 1.0;"/><text fill="#000000" font-family="sans-serif" font-size="11" lengthAdjust="spacingAndGlyphs" textLength="190" x="1694" y="269.8198">getCodeSystemId(String): Integer</text></a><!--MD5=[1a8ff436be73cb797082349b6101838b]
class com.ibm.fhir.persistence.jdbc.postgresql.FhirRefSequenceDAOImpl--><a href="FhirRefSequenceDAOImpl.html" target="_top" title="FhirRefSequenceDAOImpl.html" xlink:actuate="onRequest" xlink:href="FhirRefSequenceDAOImpl.html" xlink:show="new" xlink:title="FhirRefSequenceDAOImpl.html" xlink:type="simple"><rect fill="#FEFECE" filter="url(#f1gebuwrlvnx0f)" height="73.6094" id="com.ibm.fhir.persistence.jdbc.postgresql.FhirRefSequenceDAOImpl" style="stroke: #A80036; stroke-width: 1.5;" width="240" x="279" y="196"/><ellipse cx="316.95" cy="212" fill="#ADD1B2" rx="11" ry="11" style="stroke: #A80036; stroke-width: 1.0;"/><path d="M319.9188,217.6406 Q319.3406,217.9375 318.7,218.0781 Q318.0594,218.2344 317.3563,218.2344 Q314.8563,218.2344 313.5281,216.5938 Q312.2156,214.9375 312.2156,211.8125 Q312.2156,208.6875 313.5281,207.0313 Q314.8563,205.375 317.3563,205.375 Q318.0594,205.375 318.7,205.5313 Q319.3563,205.6875 319.9188,205.9844 L319.9188,208.7031 Q319.2938,208.125 318.7,207.8594 Q318.1063,207.5781 317.4813,207.5781 Q316.1375,207.5781 315.45,208.6563 Q314.7625,209.7188 314.7625,211.8125 Q314.7625,213.9063 315.45,214.9844 Q316.1375,216.0469 317.4813,216.0469 Q318.1063,216.0469 318.7,215.7813 Q319.2938,215.5 319.9188,214.9219 L319.9188,217.6406 Z "/><text fill="#000000" font-family="sans-serif" font-size="12" lengthAdjust="spacingAndGlyphs" textLength="157" x="336.05" y="216.1543">FhirRefSequenceDAOImpl</text><line style="stroke: #A80036; stroke-width: 1.5;" x1="280" x2="518" y1="228" y2="228"/><line style="stroke: #A80036; stroke-width: 1.5;" x1="280" x2="518" y1="236" y2="236"/><ellipse cx="290" cy="247" fill="#84BE84" rx="3" ry="3" style="stroke: #038048; stroke-width: 1.0;"/><text fill="#000000" font-family="sans-serif" font-size="11" lengthAdjust="spacingAndGlyphs" textLength="214" x="299" y="250.2104">FhirRefSequenceDAOImpl(Connection)</text><ellipse cx="290" cy="259.8047" fill="#84BE84" rx="3" ry="3" style="stroke: #038048; stroke-width: 1.0;"/><text fill="#000000" font-family="sans-serif" font-size="11" lengthAdjust="spacingAndGlyphs" textLength="85" x="299" y="263.0151">nextValue(): int</text></a><!--MD5=[7f47c6fc2cb32b9011ba2dfab1671d32]
class com.ibm.fhir.persistence.jdbc.postgresql.FhirSequenceDAOImpl--><a href="FhirSequenceDAOImpl.html" target="_top" title="FhirSequenceDAOImpl.html" xlink:actuate="onRequest" xlink:href="FhirSequenceDAOImpl.html" xlink:show="new" xlink:title="FhirSequenceDAOImpl.html" xlink:type="simple"><rect fill="#FEFECE" filter="url(#f1gebuwrlvnx0f)" height="73.6094" id="com.ibm.fhir.persistence.jdbc.postgresql.FhirSequenceDAOImpl" style="stroke: #A80036; stroke-width: 1.5;" width="222" x="22" y="196"/><ellipse cx="60.85" cy="212" fill="#ADD1B2" rx="11" ry="11" style="stroke: #A80036; stroke-width: 1.0;"/><path d="M63.8188,217.6406 Q63.2406,217.9375 62.6,218.0781 Q61.9594,218.2344 61.2563,218.2344 Q58.7563,218.2344 57.4281,216.5938 Q56.1156,214.9375 56.1156,211.8125 Q56.1156,208.6875 57.4281,207.0313 Q58.7563,205.375 61.2563,205.375 Q61.9594,205.375 62.6,205.5313 Q63.2563,205.6875 63.8188,205.9844 L63.8188,208.7031 Q63.1938,208.125 62.6,207.8594 Q62.0063,207.5781 61.3813,207.5781 Q60.0375,207.5781 59.35,208.6563 Q58.6625,209.7188 58.6625,211.8125 Q58.6625,213.9063 59.35,214.9844 Q60.0375,216.0469 61.3813,216.0469 Q62.0063,216.0469 62.6,215.7813 Q63.1938,215.5 63.8188,214.9219 L63.8188,217.6406 Z "/><text fill="#000000" font-family="sans-serif" font-size="12" lengthAdjust="spacingAndGlyphs" textLength="137" x="80.15" y="216.1543">FhirSequenceDAOImpl</text><line style="stroke: #A80036; stroke-width: 1.5;" x1="23" x2="243" y1="228" y2="228"/><line style="stroke: #A80036; stroke-width: 1.5;" x1="23" x2="243" y1="236" y2="236"/><ellipse cx="33" cy="247" fill="#84BE84" rx="3" ry="3" style="stroke: #038048; stroke-width: 1.0;"/><text fill="#000000" font-family="sans-serif" font-size="11" lengthAdjust="spacingAndGlyphs" textLength="196" x="42" y="250.2104">FhirSequenceDAOImpl(Connection)</text><ellipse cx="33" cy="259.8047" fill="#84BE84" rx="3" ry="3" style="stroke: #038048; stroke-width: 1.0;"/><text fill="#000000" font-family="sans-serif" font-size="11" lengthAdjust="spacingAndGlyphs" textLength="95" x="42" y="263.0151">nextValue(): long</text></a><!--MD5=[03eb7fd000b8828c758c0c7774add8f8]
class com.ibm.fhir.persistence.jdbc.postgresql.PostgreSqlParameterNamesDAO--><a href="PostgreSqlParameterNamesDAO.html" target="_top" title="PostgreSqlParameterNamesDAO.html" xlink:actuate="onRequest" xlink:href="PostgreSqlParameterNamesDAO.html" xlink:show="new" xlink:title="PostgreSqlParameterNamesDAO.html" xlink:type="simple"><rect fill="#FEFECE" filter="url(#f1gebuwrlvnx0f)" height="86.4141" id="com.ibm.fhir.persistence.jdbc.postgresql.PostgreSqlParameterNamesDAO" style="stroke: #A80036; stroke-width: 1.5;" width="410" x="1229" y="190"/><ellipse cx="1328.25" cy="206" fill="#ADD1B2" rx="11" ry="11" style="stroke: #A80036; stroke-width: 1.0;"/><path d="M1331.2188,211.6406 Q1330.6406,211.9375 1330,212.0781 Q1329.3594,212.2344 1328.6563,212.2344 Q1326.1563,212.2344 1324.8281,210.5938 Q1323.5156,208.9375 1323.5156,205.8125 Q1323.5156,202.6875 1324.8281,201.0313 Q1326.1563,199.375 1328.6563,199.375 Q1329.3594,199.375 1330,199.5313 Q1330.6563,199.6875 1331.2188,199.9844 L1331.2188,202.7031 Q1330.5938,202.125 1330,201.8594 Q1329.4063,201.5781 1328.7813,201.5781 Q1327.4375,201.5781 1326.75,202.6563 Q1326.0625,203.7188 1326.0625,205.8125 Q1326.0625,207.9063 1326.75,208.9844 Q1327.4375,210.0469 1328.7813,210.0469 Q1329.4063,210.0469 1330,209.7813 Q1330.5938,209.5 1331.2188,208.9219 L1331.2188,211.6406 Z "/><text fill="#000000" font-family="sans-serif" font-size="12" lengthAdjust="spacingAndGlyphs" textLength="203" x="1348.75" y="210.1543">PostgreSqlParameterNamesDAO</text><line style="stroke: #A80036; stroke-width: 1.5;" x1="1230" x2="1638" y1="222" y2="222"/><line style="stroke: #A80036; stroke-width: 1.5;" x1="1230" x2="1638" y1="230" y2="230"/><ellipse cx="1240" cy="241" fill="#84BE84" rx="3" ry="3" style="stroke: #038048; stroke-width: 1.0;"/><text fill="#000000" font-family="sans-serif" font-size="11" lengthAdjust="spacingAndGlyphs" textLength="384" x="1249" y="244.2104">PostgreSqlParameterNamesDAO(Connection, FhirRefSequenceDAO)</text><ellipse cx="1240" cy="253.8047" fill="#84BE84" rx="3" ry="3" style="stroke: #038048; stroke-width: 1.0;"/><text fill="#000000" font-family="sans-serif" font-size="11" lengthAdjust="spacingAndGlyphs" textLength="228" x="1249" y="257.0151">readOrAddParameterNameId(String): int</text><polygon fill="#FFFF44" points="1240,261.6094,1244,265.6094,1240,269.6094,1236,265.6094" style="stroke: #B38D22; stroke-width: 1.0;"/><text fill="#000000" font-family="sans-serif" font-size="11" lengthAdjust="spacingAndGlyphs" textLength="178" x="1249" y="269.8198">getParameterId(String): Integer</text></a><!--MD5=[1e8e2ef3256299307004b98e715d3ec1]
class com.ibm.fhir.persistence.jdbc.postgresql.CodeSystemCacheAdapter--><a href="CodeSystemCacheAdapter.html" target="_top" title="CodeSystemCacheAdapter.html" xlink:actuate="onRequest" xlink:href="CodeSystemCacheAdapter.html" xlink:show="new" xlink:title="CodeSystemCacheAdapter.html" xlink:type="simple"><rect fill="#FEFECE" filter="url(#f1gebuwrlvnx0f)" height="73.6094" id="com.ibm.fhir.persistence.jdbc.postgresql.CodeSystemCacheAdapter" style="stroke: #A80036; stroke-width: 1.5;" width="281" x="554.5" y="196"/><ellipse cx="607.75" cy="212" fill="#ADD1B2" rx="11" ry="11" style="stroke: #A80036; stroke-width: 1.0;"/><path d="M610.7188,217.6406 Q610.1406,217.9375 609.5,218.0781 Q608.8594,218.2344 608.1563,218.2344 Q605.6563,218.2344 604.3281,216.5938 Q603.0156,214.9375 603.0156,211.8125 Q603.0156,208.6875 604.3281,207.0313 Q605.6563,205.375 608.1563,205.375 Q608.8594,205.375 609.5,205.5313 Q610.1563,205.6875 610.7188,205.9844 L610.7188,208.7031 Q610.0938,208.125 609.5,207.8594 Q608.9063,207.5781 608.2813,207.5781 Q606.9375,207.5781 606.25,208.6563 Q605.5625,209.7188 605.5625,211.8125 Q605.5625,213.9063 606.25,214.9844 Q606.9375,216.0469 608.2813,216.0469 Q608.9063,216.0469 609.5,215.7813 Q610.0938,215.5 610.7188,214.9219 L610.7188,217.6406 Z "/><text fill="#000000" font-family="sans-serif" font-size="12" lengthAdjust="spacingAndGlyphs" textLength="166" x="628.25" y="216.1543">CodeSystemCacheAdapter</text><line style="stroke: #A80036; stroke-width: 1.5;" x1="555.5" x2="834.5" y1="228" y2="228"/><line style="stroke: #A80036; stroke-width: 1.5;" x1="555.5" x2="834.5" y1="236" y2="236"/><ellipse cx="565.5" cy="247" fill="#84BE84" rx="3" ry="3" style="stroke: #038048; stroke-width: 1.0;"/><text fill="#000000" font-family="sans-serif" font-size="11" lengthAdjust="spacingAndGlyphs" textLength="255" x="574.5" y="250.2104">CodeSystemCacheAdapter(CodeSystemDAO)</text><ellipse cx="565.5" cy="259.8047" fill="#84BE84" rx="3" ry="3" style="stroke: #038048; stroke-width: 1.0;"/><text fill="#000000" font-family="sans-serif" font-size="11" lengthAdjust="spacingAndGlyphs" textLength="197" x="574.5" y="263.0151">readOrAddCodeSystem(String): int</text></a><!--MD5=[0874e8a57981bb9e0323969c6f93ce49]
class com.ibm.fhir.persistence.jdbc.postgresql.PostgreSqlResourceDAO--><a href="PostgreSqlResourceDAO.html" target="_top" title="PostgreSqlResourceDAO.html" xlink:actuate="onRequest" xlink:href="PostgreSqlResourceDAO.html" xlink:show="new" xlink:title="PostgreSqlResourceDAO.html" xlink:type="simple"><rect fill="#FEFECE" filter="url(#f1gebuwrlvnx0f)" height="137.6328" id="com.ibm.fhir.persistence.jdbc.postgresql.PostgreSqlResourceDAO" style="stroke: #A80036; stroke-width: 1.5;" width="741" x="2091.5" y="164"/><ellipse cx="2381.25" cy="180" fill="#ADD1B2" rx="11" ry="11" style="stroke: #A80036; stroke-width: 1.0;"/><path d="M2384.2188,185.6406 Q2383.6406,185.9375 2383,186.0781 Q2382.3594,186.2344 2381.6563,186.2344 Q2379.1563,186.2344 2377.8281,184.5938 Q2376.5156,182.9375 2376.5156,179.8125 Q2376.5156,176.6875 2377.8281,175.0313 Q2379.1563,173.375 2381.6563,173.375 Q2382.3594,173.375 2383,173.5313 Q2383.6563,173.6875 2384.2188,173.9844 L2384.2188,176.7031 Q2383.5938,176.125 2383,175.8594 Q2382.4063,175.5781 2381.7813,175.5781 Q2380.4375,175.5781 2379.75,176.6563 Q2379.0625,177.7188 2379.0625,179.8125 Q2379.0625,181.9063 2379.75,182.9844 Q2380.4375,184.0469 2381.7813,184.0469 Q2382.4063,184.0469 2383,183.7813 Q2383.5938,183.5 2384.2188,182.9219 L2384.2188,185.6406 Z "/><text fill="#000000" font-family="sans-serif" font-size="12" lengthAdjust="spacingAndGlyphs" textLength="153" x="2401.75" y="184.1543">PostgreSqlResourceDAO</text><line style="stroke: #A80036; stroke-width: 1.5;" x1="2092.5" x2="2831.5" y1="196" y2="196"/><line style="stroke: #A80036; stroke-width: 1.5;" x1="2092.5" x2="2831.5" y1="204" y2="204"/><ellipse cx="2102.5" cy="215" fill="#84BE84" rx="3" ry="3" style="stroke: #038048; stroke-width: 1.0;"/><text fill="#000000" font-family="sans-serif" font-size="11" lengthAdjust="spacingAndGlyphs" textLength="210" x="2111.5" y="218.2104">PostgreSqlResourceDAO(Connection)</text><ellipse cx="2102.5" cy="227.8047" fill="#84BE84" rx="3" ry="3" style="stroke: #038048; stroke-width: 1.0;"/><text fill="#000000" font-family="sans-serif" font-size="11" lengthAdjust="spacingAndGlyphs" textLength="349" x="2111.5" y="231.0151">PostgreSqlResourceDAO(TransactionSynchronizationRegistry)</text><ellipse cx="2102.5" cy="240.6094" fill="#84BE84" rx="3" ry="3" style="stroke: #038048; stroke-width: 1.0;"/><text fill="#000000" font-family="sans-serif" font-size="11" lengthAdjust="spacingAndGlyphs" textLength="437" x="2111.5" y="243.8198">insert(Resource, List&lt;ExtractedParameterValue&gt;, ParameterDAO): Resource</text><ellipse cx="2102.5" cy="253.4141" fill="#84BE84" rx="3" ry="3" style="stroke: #038048; stroke-width: 1.0;"/><text fill="#000000" font-family="sans-serif" font-size="11" lengthAdjust="spacingAndGlyphs" textLength="715" x="2111.5" y="256.6245">storeResource(String, List&lt;ExtractedParameterValue&gt;, String, byte[], Timestamp, boolean, String, Integer, Connection): long</text><polygon fill="#FFFF44" points="2102.5,261.2188,2106.5,265.2188,2102.5,269.2188,2098.5,265.2188" style="stroke: #B38D22; stroke-width: 1.0;"/><text fill="#000000" font-family="sans-serif" font-size="11" lengthAdjust="spacingAndGlyphs" textLength="331" x="2111.5" y="269.4292">deleteFromParameterTable(Connection, String, long): void</text><polygon fill="#FFFF44" points="2102.5,274.0234,2106.5,278.0234,2102.5,282.0234,2098.5,278.0234" style="stroke: #B38D22; stroke-width: 1.0;"/><text fill="#000000" font-family="sans-serif" font-size="11" lengthAdjust="spacingAndGlyphs" textLength="269" x="2111.5" y="282.2339">getResourceTypeId(String, Connection): Integer</text><ellipse cx="2102.5" cy="291.8281" fill="#84BE84" rx="3" ry="3" style="stroke: #038048; stroke-width: 1.0;"/><text fill="#000000" font-family="sans-serif" font-size="11" lengthAdjust="spacingAndGlyphs" textLength="285" x="2111.5" y="295.0386">getOrCreateResourceType(String, Connection): int</text></a><!--MD5=[a4cd8e8115026ed872dbfe3e3a826c35]
class com.ibm.fhir.persistence.jdbc.dao.api.IParameterNameCache--><a href="../dao/api/IParameterNameCache.html" target="_top" title="../dao/api/IParameterNameCache.html" xlink:actuate="onRequest" xlink:href="../dao/api/IParameterNameCache.html" xlink:show="new" xlink:title="../dao/api/IParameterNameCache.html" xlink:type="simple"><rect fill="#FEFECE" filter="url(#f1gebuwrlvnx0f)" height="60.8047" id="com.ibm.fhir.persistence.jdbc.dao.api.IParameterNameCache" style="stroke: #A80036; stroke-width: 1.5;" width="254" x="808" y="43"/><ellipse cx="858.75" cy="59" fill="#B4A7E5" rx="11" ry="11" style="stroke: #A80036; stroke-width: 1.0;"/><path d="M854.6719,54.7656 L854.6719,52.6094 L862.0625,52.6094 L862.0625,54.7656 L859.5938,54.7656 L859.5938,62.8438 L862.0625,62.8438 L862.0625,65 L854.6719,65 L854.6719,62.8438 L857.1406,62.8438 L857.1406,54.7656 L854.6719,54.7656 Z "/><text fill="#000000" font-family="sans-serif" font-size="12" font-style="italic" lengthAdjust="spacingAndGlyphs" textLength="144" x="879.25" y="63.1543">IParameterNameCache</text><line style="stroke: #A80036; stroke-width: 1.5;" x1="809" x2="1061" y1="75" y2="75"/><line style="stroke: #A80036; stroke-width: 1.5;" x1="809" x2="1061" y1="83" y2="83"/><ellipse cx="819" cy="94" fill="#84BE84" rx="3" ry="3" style="stroke: #038048; stroke-width: 1.0;"/><text fill="#000000" font-family="sans-serif" font-size="11" font-style="italic" lengthAdjust="spacingAndGlyphs" textLength="228" x="828" y="97.2104">readOrAddParameterNameId(String): int</text></a><!--MD5=[a45d6dd7ca8f71fa3f8af82af0b8a9eb]
class com.ibm.fhir.persistence.jdbc.dao.api.FhirRefSequenceDAO--><a href="../dao/api/FhirRefSequenceDAO.html" target="_top" title="../dao/api/FhirRefSequenceDAO.html" xlink:actuate="onRequest" xlink:href="../dao/api/FhirRefSequenceDAO.html" xlink:show="new" xlink:title="../dao/api/FhirRefSequenceDAO.html" xlink:type="simple"><rect fill="#FEFECE" filter="url(#f1gebuwrlvnx0f)" height="60.8047" id="com.ibm.fhir.persistence.jdbc.dao.api.FhirRefSequenceDAO" style="stroke: #A80036; stroke-width: 1.5;" width="164" x="350" y="43"/><ellipse cx="365" cy="59" fill="#B4A7E5" rx="11" ry="11" style="stroke: #A80036; stroke-width: 1.0;"/><path d="M360.9219,54.7656 L360.9219,52.6094 L368.3125,52.6094 L368.3125,54.7656 L365.8438,54.7656 L365.8438,62.8438 L368.3125,62.8438 L368.3125,65 L360.9219,65 L360.9219,62.8438 L363.3906,62.8438 L363.3906,54.7656 L360.9219,54.7656 Z "/><text fill="#000000" font-family="sans-serif" font-size="12" font-style="italic" lengthAdjust="spacingAndGlyphs" textLength="132" x="379" y="63.1543">FhirRefSequenceDAO</text><line style="stroke: #A80036; stroke-width: 1.5;" x1="351" x2="513" y1="75" y2="75"/><line style="stroke: #A80036; stroke-width: 1.5;" x1="351" x2="513" y1="83" y2="83"/><ellipse cx="361" cy="94" fill="#84BE84" rx="3" ry="3" style="stroke: #038048; stroke-width: 1.0;"/><text fill="#000000" font-family="sans-serif" font-size="11" font-style="italic" lengthAdjust="spacingAndGlyphs" textLength="85" x="370" y="97.2104">nextValue(): int</text></a><!--MD5=[4fcc3b415d6b1a0a6bf1e5b57fac3dd4]
class com.ibm.fhir.persistence.jdbc.dao.api.FhirSequenceDAO--><a href="../dao/api/FhirSequenceDAO.html" target="_top" title="../dao/api/FhirSequenceDAO.html" xlink:actuate="onRequest" xlink:href="../dao/api/FhirSequenceDAO.html" xlink:show="new" xlink:title="../dao/api/FhirSequenceDAO.html" xlink:type="simple"><rect fill="#FEFECE" filter="url(#f1gebuwrlvnx0f)" height="60.8047" id="com.ibm.fhir.persistence.jdbc.dao.api.FhirSequenceDAO" style="stroke: #A80036; stroke-width: 1.5;" width="144" x="171" y="43"/><ellipse cx="186" cy="59" fill="#B4A7E5" rx="11" ry="11" style="stroke: #A80036; stroke-width: 1.0;"/><path d="M181.9219,54.7656 L181.9219,52.6094 L189.3125,52.6094 L189.3125,54.7656 L186.8438,54.7656 L186.8438,62.8438 L189.3125,62.8438 L189.3125,65 L181.9219,65 L181.9219,62.8438 L184.3906,62.8438 L184.3906,54.7656 L181.9219,54.7656 Z "/><text fill="#000000" font-family="sans-serif" font-size="12" font-style="italic" lengthAdjust="spacingAndGlyphs" textLength="112" x="200" y="63.1543">FhirSequenceDAO</text><line style="stroke: #A80036; stroke-width: 1.5;" x1="172" x2="314" y1="75" y2="75"/><line style="stroke: #A80036; stroke-width: 1.5;" x1="172" x2="314" y1="83" y2="83"/><ellipse cx="182" cy="94" fill="#84BE84" rx="3" ry="3" style="stroke: #038048; stroke-width: 1.0;"/><text fill="#000000" font-family="sans-serif" font-size="11" font-style="italic" lengthAdjust="spacingAndGlyphs" textLength="95" x="191" y="97.2104">nextValue(): long</text></a><!--MD5=[479d7b23661febea33c9236f81a94364]
class com.ibm.fhir.persistence.jdbc.dao.api.ICodeSystemCache--><a href="../dao/api/ICodeSystemCache.html" target="_top" title="../dao/api/ICodeSystemCache.html" xlink:actuate="onRequest" xlink:href="../dao/api/ICodeSystemCache.html" xlink:show="new" xlink:title="../dao/api/ICodeSystemCache.html" xlink:type="simple"><rect fill="#FEFECE" filter="url(#f1gebuwrlvnx0f)" height="60.8047" id="com.ibm.fhir.persistence.jdbc.dao.api.ICodeSystemCache" style="stroke: #A80036; stroke-width: 1.5;" width="223" x="549.5" y="43"/><ellipse cx="597.25" cy="59" fill="#B4A7E5" rx="11" ry="11" style="stroke: #A80036; stroke-width: 1.0;"/><path d="M593.1719,54.7656 L593.1719,52.6094 L600.5625,52.6094 L600.5625,54.7656 L598.0938,54.7656 L598.0938,62.8438 L600.5625,62.8438 L600.5625,65 L593.1719,65 L593.1719,62.8438 L595.6406,62.8438 L595.6406,54.7656 L593.1719,54.7656 Z "/><text fill="#000000" font-family="sans-serif" font-size="12" font-style="italic" lengthAdjust="spacingAndGlyphs" textLength="119" x="617.75" y="63.1543">ICodeSystemCache</text><line style="stroke: #A80036; stroke-width: 1.5;" x1="550.5" x2="771.5" y1="75" y2="75"/><line style="stroke: #A80036; stroke-width: 1.5;" x1="550.5" x2="771.5" y1="83" y2="83"/><ellipse cx="560.5" cy="94" fill="#84BE84" rx="3" ry="3" style="stroke: #038048; stroke-width: 1.0;"/><text fill="#000000" font-family="sans-serif" font-size="11" font-style="italic" lengthAdjust="spacingAndGlyphs" textLength="197" x="569.5" y="97.2104">readOrAddCodeSystem(String): int</text></a><!--MD5=[d49904bee0f26fc0350b5f6160c4b425]
class com.ibm.fhir.persistence.jdbc.dao.impl.CodeSystemDAOImpl--><a href="../dao/impl/CodeSystemDAOImpl.html" target="_top" title="../dao/impl/CodeSystemDAOImpl.html" xlink:actuate="onRequest" xlink:href="../dao/impl/CodeSystemDAOImpl.html" xlink:show="new" xlink:title="../dao/impl/CodeSystemDAOImpl.html" xlink:type="simple"><rect fill="#FEFECE" filter="url(#f1gebuwrlvnx0f)" height="60.8047" id="com.ibm.fhir.persistence.jdbc.dao.impl.CodeSystemDAOImpl" style="stroke: #A80036; stroke-width: 1.5;" width="213" x="1758.5" y="43"/><ellipse cx="1797.35" cy="59" fill="#ADD1B2" rx="11" ry="11" style="stroke: #A80036; stroke-width: 1.0;"/><path d="M1800.3188,64.6406 Q1799.7406,64.9375 1799.1,65.0781 Q1798.4594,65.2344 1797.7563,65.2344 Q1795.2563,65.2344 1793.9281,63.5938 Q1792.6156,61.9375 1792.6156,58.8125 Q1792.6156,55.6875 1793.9281,54.0313 Q1795.2563,52.375 1797.7563,52.375 Q1798.4594,52.375 1799.1,52.5313 Q1799.7563,52.6875 1800.3188,52.9844 L1800.3188,55.7031 Q1799.6938,55.125 1799.1,54.8594 Q1798.5063,54.5781 1797.8813,54.5781 Q1796.5375,54.5781 1795.85,55.6563 Q1795.1625,56.7188 1795.1625,58.8125 Q1795.1625,60.9063 1795.85,61.9844 Q1796.5375,63.0469 1797.8813,63.0469 Q1798.5063,63.0469 1799.1,62.7813 Q1799.6938,62.5 1800.3188,61.9219 L1800.3188,64.6406 Z "/><text fill="#000000" font-family="sans-serif" font-size="12" lengthAdjust="spacingAndGlyphs" textLength="128" x="1816.65" y="63.1543">CodeSystemDAOImpl</text><line style="stroke: #A80036; stroke-width: 1.5;" x1="1759.5" x2="1970.5" y1="75" y2="75"/><ellipse cx="1769.5" cy="86" fill="none" rx="3" ry="3" style="stroke: #038048; stroke-width: 1.0;"/><text fill="#000000" font-family="sans-serif" font-size="11" lengthAdjust="spacingAndGlyphs" text-decoration="underline" textLength="187" x="1778.5" y="89.2104">DEFAULT_TOKEN_SYSTEM: String</text><line style="stroke: #A80036; stroke-width: 1.5;" x1="1759.5" x2="1970.5" y1="95.8047" y2="95.8047"/></a><!--MD5=[4cef3b5382a2ac8a90877a4c98179e8f]
class com.ibm.fhir.persistence.jdbc.dao.impl.ParameterNameDAOImpl--><a href="../dao/impl/ParameterNameDAOImpl.html" target="_top" title="../dao/impl/ParameterNameDAOImpl.html" xlink:actuate="onRequest" xlink:href="../dao/impl/ParameterNameDAOImpl.html" xlink:show="new" xlink:title="../dao/impl/ParameterNameDAOImpl.html" xlink:type="simple"><rect fill="#FEFECE" filter="url(#f1gebuwrlvnx0f)" height="60.8047" id="com.ibm.fhir.persistence.jdbc.dao.impl.ParameterNameDAOImpl" style="stroke: #A80036; stroke-width: 1.5;" width="213" x="1510.5" y="43"/><ellipse cx="1538.1" cy="59" fill="#ADD1B2" rx="11" ry="11" style="stroke: #A80036; stroke-width: 1.0;"/><path d="M1541.0688,64.6406 Q1540.4906,64.9375 1539.85,65.0781 Q1539.2094,65.2344 1538.5063,65.2344 Q1536.0063,65.2344 1534.6781,63.5938 Q1533.3656,61.9375 1533.3656,58.8125 Q1533.3656,55.6875 1534.6781,54.0313 Q1536.0063,52.375 1538.5063,52.375 Q1539.2094,52.375 1539.85,52.5313 Q1540.5063,52.6875 1541.0688,52.9844 L1541.0688,55.7031 Q1540.4438,55.125 1539.85,54.8594 Q1539.2563,54.5781 1538.6313,54.5781 Q1537.2875,54.5781 1536.6,55.6563 Q1535.9125,56.7188 1535.9125,58.8125 Q1535.9125,60.9063 1536.6,61.9844 Q1537.2875,63.0469 1538.6313,63.0469 Q1539.2563,63.0469 1539.85,62.7813 Q1540.4438,62.5 1541.0688,61.9219 L1541.0688,64.6406 Z "/><text fill="#000000" font-family="sans-serif" font-size="12" lengthAdjust="spacingAndGlyphs" textLength="153" x="1554.9" y="63.1543">ParameterNameDAOImpl</text><line style="stroke: #A80036; stroke-width: 1.5;" x1="1511.5" x2="1722.5" y1="75" y2="75"/><ellipse cx="1521.5" cy="86" fill="none" rx="3" ry="3" style="stroke: #038048; stroke-width: 1.0;"/><text fill="#000000" font-family="sans-serif" font-size="11" lengthAdjust="spacingAndGlyphs" text-decoration="underline" textLength="187" x="1530.5" y="89.2104">DEFAULT_TOKEN_SYSTEM: String</text><line style="stroke: #A80036; stroke-width: 1.5;" x1="1511.5" x2="1722.5" y1="95.8047" y2="95.8047"/></a><!--MD5=[e91a7ae6814eada2839158a0cb0dee3b]
class com.ibm.fhir.persistence.jdbc.dao.impl.ResourceDAOImpl--><a href="../dao/impl/ResourceDAOImpl.html" target="_top" title="../dao/impl/ResourceDAOImpl.html" xlink:actuate="onRequest" xlink:href="../dao/impl/ResourceDAOImpl.html" xlink:show="new" xlink:title="../dao/impl/ResourceDAOImpl.html" xlink:type="simple"><rect fill="#FEFECE" filter="url(#f1gebuwrlvnx0f)" height="48" id="com.ibm.fhir.persistence.jdbc.dao.impl.ResourceDAOImpl" style="stroke: #A80036; stroke-width: 1.5;" width="142" x="2007" y="49.5"/><ellipse cx="2022" cy="65.5" fill="#ADD1B2" rx="11" ry="11" style="stroke: #A80036; stroke-width: 1.0;"/><path d="M2024.9688,71.1406 Q2024.3906,71.4375 2023.75,71.5781 Q2023.1094,71.7344 2022.4063,71.7344 Q2019.9063,71.7344 2018.5781,70.0938 Q2017.2656,68.4375 2017.2656,65.3125 Q2017.2656,62.1875 2018.5781,60.5313 Q2019.9063,58.875 2022.4063,58.875 Q2023.1094,58.875 2023.75,59.0313 Q2024.4063,59.1875 2024.9688,59.4844 L2024.9688,62.2031 Q2024.3438,61.625 2023.75,61.3594 Q2023.1563,61.0781 2022.5313,61.0781 Q2021.1875,61.0781 2020.5,62.1563 Q2019.8125,63.2188 2019.8125,65.3125 Q2019.8125,67.4063 2020.5,68.4844 Q2021.1875,69.5469 2022.5313,69.5469 Q2023.1563,69.5469 2023.75,69.2813 Q2024.3438,69 2024.9688,68.4219 L2024.9688,71.1406 Z "/><text fill="#000000" font-family="sans-serif" font-size="12" lengthAdjust="spacingAndGlyphs" textLength="110" x="2036" y="69.6543">ResourceDAOImpl</text><line style="stroke: #A80036; stroke-width: 1.5;" x1="2008" x2="2148" y1="81.5" y2="81.5"/><line style="stroke: #A80036; stroke-width: 1.5;" x1="2008" x2="2148" y1="89.5" y2="89.5"/></a><!--MD5=[441bbe1acbb3df7acd8bb21db117a6cf]
reverse link com.ibm.fhir.persistence.jdbc.dao.api.IParameterNameCache to com.ibm.fhir.persistence.jdbc.postgresql.ParameterNameCacheAdapter--><path d="M964.1539,121.4387 C978.6677,145.3042 995.9461,173.7155 1009.4337,195.8936 " fill="none" id="com.ibm.fhir.persistence.jdbc.dao.api.IParameterNameCache&lt;-com.ibm.fhir.persistence.jdbc.postgresql.ParameterNameCacheAdapter" style="stroke: #A80036; stroke-width: 1.0; stroke-dasharray: 7.0,7.0;"/><polygon fill="none" points="958.1139,124.9786,953.7026,104.2532,970.0756,117.7041,958.1139,124.9786" style="stroke: #A80036; stroke-width: 1.0;"/><!--MD5=[40146ae22adb04c8c2934e9f29e3aea1]
reverse link com.ibm.fhir.persistence.jdbc.dao.impl.CodeSystemDAOImpl to com.ibm.fhir.persistence.jdbc.postgresql.PostgreSqlCodeSystemDAO--><path d="M1865,124.4454 C1865,145.5576 1865,169.781 1865,189.9815 " fill="none" id="com.ibm.fhir.persistence.jdbc.dao.impl.CodeSystemDAOImpl&lt;-com.ibm.fhir.persistence.jdbc.postgresql.PostgreSqlCodeSystemDAO" style="stroke: #A80036; stroke-width: 1.0;"/><polygon fill="none" points="1858.0001,124.2532,1865,104.2532,1872.0001,124.2532,1858.0001,124.2532" style="stroke: #A80036; stroke-width: 1.0;"/><!--MD5=[5b40e4da0387ec3eaf77232358683abc]
reverse link com.ibm.fhir.persistence.jdbc.dao.api.FhirRefSequenceDAO to com.ibm.fhir.persistence.jdbc.postgresql.FhirRefSequenceDAOImpl--><path d="M421.5701,123.911 C416.7421,147.2466 411.1083,174.4765 406.6772,195.8936 " fill="none" id="com.ibm.fhir.persistence.jdbc.dao.api.FhirRefSequenceDAO&lt;-com.ibm.fhir.persistence.jdbc.postgresql.FhirRefSequenceDAOImpl" style="stroke: #A80036; stroke-width: 1.0; stroke-dasharray: 7.0,7.0;"/><polygon fill="none" points="414.7303,122.4201,425.6373,104.2532,428.4399,125.2567,414.7303,122.4201" style="stroke: #A80036; stroke-width: 1.0;"/><!--MD5=[0722ce9049ab5175aed03f92b1b774c7]
reverse link com.ibm.fhir.persistence.jdbc.dao.api.FhirSequenceDAO to com.ibm.fhir.persistence.jdbc.postgresql.FhirSequenceDAOImpl--><path d="M210.422,120.7381 C193.8645,144.7465 174.0358,173.498 158.5906,195.8936 " fill="none" id="com.ibm.fhir.persistence.jdbc.dao.api.FhirSequenceDAO&lt;-com.ibm.fhir.persistence.jdbc.postgresql.FhirSequenceDAOImpl" style="stroke: #A80036; stroke-width: 1.0; stroke-dasharray: 7.0,7.0;"/><polygon fill="none" points="204.6737,116.7433,221.7909,104.2532,216.1987,124.6916,204.6737,116.7433" style="stroke: #A80036; stroke-width: 1.0;"/><!--MD5=[2b1d70724e9a69911fb217ea03faf111]
reverse link com.ibm.fhir.persistence.jdbc.dao.impl.ParameterNameDAOImpl to com.ibm.fhir.persistence.jdbc.postgresql.PostgreSqlParameterNamesDAO--><path d="M1566.398,117.604 C1540.493,140.1823 1509.0816,167.56 1483.3567,189.9815 " fill="none" id="com.ibm.fhir.persistence.jdbc.dao.impl.ParameterNameDAOImpl&lt;-com.ibm.fhir.persistence.jdbc.postgresql.PostgreSqlParameterNamesDAO" style="stroke: #A80036; stroke-width: 1.0;"/><polygon fill="none" points="1562.0394,112.1172,1581.7158,104.2532,1571.238,122.6711,1562.0394,112.1172" style="stroke: #A80036; stroke-width: 1.0;"/><!--MD5=[2771dbc20716b18a64552dbaa03fb854]
reverse link com.ibm.fhir.persistence.jdbc.dao.api.ICodeSystemCache to com.ibm.fhir.persistence.jdbc.postgresql.CodeSystemCacheAdapter--><path d="M671.7459,123.911 C676.7203,147.2466 682.5248,174.4765 687.0902,195.8936 " fill="none" id="com.ibm.fhir.persistence.jdbc.dao.api.ICodeSystemCache&lt;-com.ibm.fhir.persistence.jdbc.postgresql.CodeSystemCacheAdapter" style="stroke: #A80036; stroke-width: 1.0; stroke-dasharray: 7.0,7.0;"/><polygon fill="none" points="664.8791,125.2731,667.5555,104.2532,678.5714,122.3543,664.8791,125.2731" style="stroke: #A80036; stroke-width: 1.0;"/><!--MD5=[fde415509f832b10175d974c67749b02]
reverse link com.ibm.fhir.persistence.jdbc.dao.impl.ResourceDAOImpl to com.ibm.fhir.persistence.jdbc.postgresql.PostgreSqlResourceDAO--><path d="M2154.5553,105.2984 C2195.0375,122.1132 2246.4105,143.4518 2295.5166,163.8487 " fill="none" id="com.ibm.fhir.persistence.jdbc.dao.impl.ResourceDAOImpl&lt;-com.ibm.fhir.persistence.jdbc.postgresql.PostgreSqlResourceDAO" style="stroke: #A80036; stroke-width: 1.0;"/><polygon fill="none" points="2151.6894,111.6879,2135.9044,97.5515,2157.0597,98.7588,2151.6894,111.6879" style="stroke: #A80036; stroke-width: 1.0;"/><text fill="#888888" font-family="sans-serif" font-size="10" lengthAdjust="spacingAndGlyphs" textLength="186" x="1340.5" y="337.2822">UMLDoclet 2.0.7, PlantUML 1.2019.12</text><!--MD5=[3a2de61e716e087d3ec768fcbd336ec5]
@startuml
    namespace com.ibm.fhir.persistence.jdbc.postgresql {

        class ParameterNameCacheAdapter [[ParameterNameCacheAdapter.html]] {
            +ParameterNameCacheAdapter(ParameterNameDAO)
            +readOrAddParameterNameId(String): int
        }

        class PostgreSqlCodeSystemDAO [[PostgreSqlCodeSystemDAO.html]] {
            +PostgreSqlCodeSystemDAO(Connection, FhirRefSequenceDAO)
            +readOrAddCodeSystem(String): int
            #getCodeSystemId(String): Integer
        }

        class FhirRefSequenceDAOImpl [[FhirRefSequenceDAOImpl.html]] {
            +FhirRefSequenceDAOImpl(Connection)
            +nextValue(): int
        }

        class FhirSequenceDAOImpl [[FhirSequenceDAOImpl.html]] {
            +FhirSequenceDAOImpl(Connection)
            +nextValue(): long
        }

        class PostgreSqlParameterNamesDAO [[PostgreSqlParameterNamesDAO.html]] {
            +PostgreSqlParameterNamesDAO(Connection, FhirRefSequenceDAO)
            +readOrAddParameterNameId(String): int
            #getParameterId(String): Integer
        }

        class CodeSystemCacheAdapter [[CodeSystemCacheAdapter.html]] {
            +CodeSystemCacheAdapter(CodeSystemDAO)
            +readOrAddCodeSystem(String): int
        }

        class PostgreSqlResourceDAO [[PostgreSqlResourceDAO.html]] {
            +PostgreSqlResourceDAO(Connection)
            +PostgreSqlResourceDAO(TransactionSynchronizationRegistry)
            +insert(Resource, List<ExtractedParameterValue>, ParameterDAO): Resource
            +storeResource(String, List<ExtractedParameterValue>, String, byte[], Timestamp, boolean, String, Integer, Connection): long
            #deleteFromParameterTable(Connection, String, long): void
            #getResourceTypeId(String, Connection): Integer
            +getOrCreateResourceType(String, Connection): int
        }

        com.ibm.fhir.persistence.jdbc.dao.api.IParameterNameCache <|.. ParameterNameCacheAdapter
        com.ibm.fhir.persistence.jdbc.dao.impl.CodeSystemDAOImpl <|- - PostgreSqlCodeSystemDAO
        com.ibm.fhir.persistence.jdbc.dao.api.FhirRefSequenceDAO <|.. FhirRefSequenceDAOImpl
        com.ibm.fhir.persistence.jdbc.dao.api.FhirSequenceDAO <|.. FhirSequenceDAOImpl
        com.ibm.fhir.persistence.jdbc.dao.impl.ParameterNameDAOImpl <|- - PostgreSqlParameterNamesDAO
        com.ibm.fhir.persistence.jdbc.dao.api.ICodeSystemCache <|.. CodeSystemCacheAdapter
        com.ibm.fhir.persistence.jdbc.dao.impl.ResourceDAOImpl <|- - PostgreSqlResourceDAO
    }

    namespace com.ibm.fhir.persistence.jdbc.dao.api {
        interface IParameterNameCache [[../dao/api/IParameterNameCache.html]] {
            {abstract} +readOrAddParameterNameId(String): int
        }
        interface FhirRefSequenceDAO [[../dao/api/FhirRefSequenceDAO.html]] {
            {abstract} +nextValue(): int
        }
        interface FhirSequenceDAO [[../dao/api/FhirSequenceDAO.html]] {
            {abstract} +nextValue(): long
        }
        interface ICodeSystemCache [[../dao/api/ICodeSystemCache.html]] {
            {abstract} +readOrAddCodeSystem(String): int
        }
    }

    namespace com.ibm.fhir.persistence.jdbc.dao.impl {
        class CodeSystemDAOImpl [[../dao/impl/CodeSystemDAOImpl.html]] {
            {static} +DEFAULT_TOKEN_SYSTEM: String
        }
        class ParameterNameDAOImpl [[../dao/impl/ParameterNameDAOImpl.html]] {
            {static} +DEFAULT_TOKEN_SYSTEM: String
        }
        class ResourceDAOImpl [[../dao/impl/ResourceDAOImpl.html]] {
        }
    }

    center footer UMLDoclet 2.0.7, PlantUML 1.2019.12
@enduml

PlantUML version 1.2019.12(Sun Nov 03 10:24:54 UTC 2019)
(APACHE source distribution)
Java Runtime: OpenJDK Runtime Environment
JVM: OpenJDK 64-Bit Server VM
Java Version: 11.0.7+10
Operating System: Linux
Default Encoding: UTF-8
Language: en
Country: null
--></g></svg>