<?xml version="1.0" encoding="UTF-8" standalone="no"?><svg xmlns="http://www.w3.org/2000/svg" xmlns:xlink="http://www.w3.org/1999/xlink" contentScriptType="application/ecmascript" contentStyleType="text/css" height="393px" preserveAspectRatio="none" style="width:388px;height:393px;" version="1.1" viewBox="0 0 388 393" width="388px" zoomAndPan="magnify"><defs><filter height="300%" id="f1dbe7rmbabyjl" width="300%" x="-1" y="-1"><feGaussianBlur result="blurOut" stdDeviation="2.0"/><feColorMatrix in="blurOut" result="blurOut2" type="matrix" values="0 0 0 0 0 0 0 0 0 0 0 0 0 0 0 0 0 0 .4 0"/><feOffset dx="4.0" dy="4.0" in="blurOut2" result="blurOut3"/><feBlend in="SourceGraphic" in2="blurOut3" mode="normal"/></filter></defs><g><!--MD5=[ab5023dc7ec4d0bbbe0333f6b00471cc]
class com.ibm.fhir.model.resource.ChargeItemDefinition.Applicability--><a href="ChargeItemDefinition.Applicability.html" target="_top" title="ChargeItemDefinition.Applicability.html" xlink:actuate="onRequest" xlink:href="ChargeItemDefinition.Applicability.html" xlink:show="new" xlink:title="ChargeItemDefinition.Applicability.html" xlink:type="simple"><rect fill="#FEFECE" filter="url(#f1dbe7rmbabyjl)" height="135.5703" id="com.ibm.fhir.model.resource.ChargeItemDefinition.Applicability" style="stroke: #A80036; stroke-width: 1.5;" width="260" x="56.5" y="127"/><ellipse cx="71.5" cy="145.9688" fill="#ADD1B2" rx="11" ry="11" style="stroke: #A80036; stroke-width: 1.0;"/><path d="M74.4688,151.6094 Q73.8906,151.9063 73.25,152.0469 Q72.6094,152.2031 71.9063,152.2031 Q69.4063,152.2031 68.0781,150.5625 Q66.7656,148.9063 66.7656,145.7813 Q66.7656,142.6563 68.0781,141 Q69.4063,139.3438 71.9063,139.3438 Q72.6094,139.3438 73.25,139.5 Q73.9063,139.6563 74.4688,139.9531 L74.4688,142.6719 Q73.8438,142.0938 73.25,141.8281 Q72.6563,141.5469 72.0313,141.5469 Q70.6875,141.5469 70,142.625 Q69.3125,143.6875 69.3125,145.7813 Q69.3125,147.875 70,148.9531 Q70.6875,150.0156 72.0313,150.0156 Q72.6563,150.0156 73.25,149.75 Q73.8438,149.4688 74.4688,148.8906 L74.4688,151.6094 Z "/><text fill="#000000" font-family="sans-serif" font-size="14" lengthAdjust="spacingAndGlyphs" textLength="228" x="85.5" y="144.9951">ChargeItemDefinition.Applicability</text><text fill="#000000" font-family="sans-serif" font-size="10" lengthAdjust="spacingAndGlyphs" textLength="139" x="130" y="157.5791">com.ibm.fhir.model.resource</text><line style="stroke: #A80036; stroke-width: 1.5;" x1="57.5" x2="315.5" y1="164.9375" y2="164.9375"/><ellipse cx="67.5" cy="175.9375" fill="#84BE84" rx="3" ry="3" style="stroke: #038048; stroke-width: 1.0;"/><text fill="#000000" font-family="sans-serif" font-size="11" lengthAdjust="spacingAndGlyphs" textLength="132" x="76.5" y="179.1479">getDescription(): String</text><ellipse cx="67.5" cy="188.7422" fill="#84BE84" rx="3" ry="3" style="stroke: #038048; stroke-width: 1.0;"/><text fill="#000000" font-family="sans-serif" font-size="11" lengthAdjust="spacingAndGlyphs" textLength="123" x="76.5" y="191.9526">getLanguage(): String</text><ellipse cx="67.5" cy="201.5469" fill="#84BE84" rx="3" ry="3" style="stroke: #038048; stroke-width: 1.0;"/><text fill="#000000" font-family="sans-serif" font-size="11" lengthAdjust="spacingAndGlyphs" textLength="131" x="76.5" y="204.7573">getExpression(): String</text><ellipse cx="67.5" cy="214.3516" fill="#84BE84" rx="3" ry="3" style="stroke: #038048; stroke-width: 1.0;"/><text fill="#000000" font-family="sans-serif" font-size="11" lengthAdjust="spacingAndGlyphs" textLength="129" x="76.5" y="217.562">hasChildren(): boolean</text><ellipse cx="67.5" cy="227.1563" fill="#84BE84" rx="3" ry="3" style="stroke: #038048; stroke-width: 1.0;"/><text fill="#000000" font-family="sans-serif" font-size="11" lengthAdjust="spacingAndGlyphs" textLength="176" x="76.5" y="230.3667">accept(String, int, Visitor): void</text><ellipse cx="67.5" cy="239.9609" fill="#84BE84" rx="3" ry="3" style="stroke: #038048; stroke-width: 1.0;"/><text fill="#000000" font-family="sans-serif" font-size="11" lengthAdjust="spacingAndGlyphs" textLength="107" x="76.5" y="243.1714">toBuilder(): Builder</text><ellipse cx="67.5" cy="252.7656" fill="#84BE84" rx="3" ry="3" style="stroke: #038048; stroke-width: 1.0;"/><text fill="#000000" font-family="sans-serif" font-size="11" lengthAdjust="spacingAndGlyphs" text-decoration="underline" textLength="95" x="76.5" y="255.9761">builder(): Builder</text></a><!--MD5=[efbff6997283c56b83e991a8eeb6a60a]
class com.ibm.fhir.model.type.BackboneElement--><a href="../type/BackboneElement.html" target="_top" title="../type/BackboneElement.html" xlink:actuate="onRequest" xlink:href="../type/BackboneElement.html" xlink:show="new" xlink:title="../type/BackboneElement.html" xlink:type="simple"><rect fill="#FEFECE" filter="url(#f1dbe7rmbabyjl)" height="58.7422" id="com.ibm.fhir.model.type.BackboneElement" style="stroke: #A80036; stroke-width: 1.5;" width="159" x="6" y="8"/><ellipse cx="21" cy="26.9688" fill="#A9DCDF" rx="11" ry="11" style="stroke: #A80036; stroke-width: 1.0;"/><path d="M21.1094,22.3125 L19.9531,27.3906 L22.2813,27.3906 L21.1094,22.3125 Z M19.625,20.0781 L22.6094,20.0781 L25.9688,32.4688 L23.5156,32.4688 L22.75,29.4063 L19.4688,29.4063 L18.7188,32.4688 L16.2813,32.4688 L19.625,20.0781 Z "/><text fill="#000000" font-family="sans-serif" font-size="14" font-style="italic" lengthAdjust="spacingAndGlyphs" textLength="127" x="35" y="25.9951">BackboneElement</text><text fill="#000000" font-family="sans-serif" font-size="10" font-style="italic" lengthAdjust="spacingAndGlyphs" textLength="123" x="37" y="38.5791">com.ibm.fhir.model.type</text><line style="stroke: #A80036; stroke-width: 1.5;" x1="7" x2="164" y1="45.9375" y2="45.9375"/><ellipse cx="17" cy="56.9375" fill="#84BE84" rx="3" ry="3" style="stroke: #038048; stroke-width: 1.0;"/><text fill="#000000" font-family="sans-serif" font-size="11" font-style="italic" lengthAdjust="spacingAndGlyphs" textLength="107" x="26" y="60.1479">toBuilder(): Builder</text></a><!--MD5=[39104df65a3e50f6bce8604d4dcdb155]
class com.ibm.fhir.model.resource.ChargeItemDefinition--><a href="ChargeItemDefinition.html" target="_top" title="ChargeItemDefinition.html" xlink:actuate="onRequest" xlink:href="ChargeItemDefinition.html" xlink:show="new" xlink:title="ChargeItemDefinition.html" xlink:type="simple"><rect fill="#FEFECE" filter="url(#f1dbe7rmbabyjl)" height="37.9375" id="com.ibm.fhir.model.resource.ChargeItemDefinition" style="stroke: #A80036; stroke-width: 1.5;" width="177" x="200" y="18.5"/><ellipse cx="215" cy="37.4688" fill="#ADD1B2" rx="11" ry="11" style="stroke: #A80036; stroke-width: 1.0;"/><path d="M217.9688,43.1094 Q217.3906,43.4063 216.75,43.5469 Q216.1094,43.7031 215.4063,43.7031 Q212.9063,43.7031 211.5781,42.0625 Q210.2656,40.4063 210.2656,37.2813 Q210.2656,34.1563 211.5781,32.5 Q212.9063,30.8438 215.4063,30.8438 Q216.1094,30.8438 216.75,31 Q217.4063,31.1563 217.9688,31.4531 L217.9688,34.1719 Q217.3438,33.5938 216.75,33.3281 Q216.1563,33.0469 215.5313,33.0469 Q214.1875,33.0469 213.5,34.125 Q212.8125,35.1875 212.8125,37.2813 Q212.8125,39.375 213.5,40.4531 Q214.1875,41.5156 215.5313,41.5156 Q216.1563,41.5156 216.75,41.25 Q217.3438,40.9688 217.9688,40.3906 L217.9688,43.1094 Z "/><text fill="#000000" font-family="sans-serif" font-size="14" lengthAdjust="spacingAndGlyphs" textLength="145" x="229" y="36.4951">ChargeItemDefinition</text><text fill="#000000" font-family="sans-serif" font-size="10" lengthAdjust="spacingAndGlyphs" textLength="139" x="232" y="49.0791">com.ibm.fhir.model.resource</text></a><!--MD5=[b736711d83a0cfb88610862fc92d664d]
class com.ibm.fhir.model.resource.ChargeItemDefinition.Applicability.Builder--><a href="ChargeItemDefinition.Applicability.Builder.html" target="_top" title="ChargeItemDefinition.Applicability.Builder.html" xlink:actuate="onRequest" xlink:href="ChargeItemDefinition.Applicability.Builder.html" xlink:show="new" xlink:title="ChargeItemDefinition.Applicability.Builder.html" xlink:type="simple"><rect fill="#FEFECE" filter="url(#f1dbe7rmbabyjl)" height="37.9375" id="com.ibm.fhir.model.resource.ChargeItemDefinition.Applicability.Builder" style="stroke: #A80036; stroke-width: 1.5;" width="312" x="30.5" y="323"/><ellipse cx="45.5" cy="341.9688" fill="#ADD1B2" rx="11" ry="11" style="stroke: #A80036; stroke-width: 1.0;"/><path d="M48.4688,347.6094 Q47.8906,347.9063 47.25,348.0469 Q46.6094,348.2031 45.9063,348.2031 Q43.4063,348.2031 42.0781,346.5625 Q40.7656,344.9063 40.7656,341.7813 Q40.7656,338.6563 42.0781,337 Q43.4063,335.3438 45.9063,335.3438 Q46.6094,335.3438 47.25,335.5 Q47.9063,335.6563 48.4688,335.9531 L48.4688,338.6719 Q47.8438,338.0938 47.25,337.8281 Q46.6563,337.5469 46.0313,337.5469 Q44.6875,337.5469 44,338.625 Q43.3125,339.6875 43.3125,341.7813 Q43.3125,343.875 44,344.9531 Q44.6875,346.0156 46.0313,346.0156 Q46.6563,346.0156 47.25,345.75 Q47.8438,345.4688 48.4688,344.8906 L48.4688,347.6094 Z "/><text fill="#000000" font-family="sans-serif" font-size="14" lengthAdjust="spacingAndGlyphs" textLength="280" x="59.5" y="340.9951">ChargeItemDefinition.Applicability.Builder</text><text fill="#000000" font-family="sans-serif" font-size="10" lengthAdjust="spacingAndGlyphs" textLength="139" x="130" y="353.5791">com.ibm.fhir.model.resource</text></a><!--MD5=[a83811171cf2f5411d8719a1f1efa60e]
reverse link com.ibm.fhir.model.type.BackboneElement to com.ibm.fhir.model.resource.ChargeItemDefinition.Applicability--><path d="M115.5047,84.2895 C124.0973,97.6888 133.6433,112.5749 142.8768,126.9737 " fill="none" id="com.ibm.fhir.model.type.BackboneElement&lt;-com.ibm.fhir.model.resource.ChargeItemDefinition.Applicability" style="stroke: #A80036; stroke-width: 1.0;"/><polygon fill="none" points="109.4011,87.739,104.4973,67.1245,121.1861,80.1816,109.4011,87.739" style="stroke: #A80036; stroke-width: 1.0;"/><!--MD5=[8e1f7ca3f8c9cdfe1dc8f18b7211d77e]
reverse link com.ibm.fhir.model.resource.ChargeItemDefinition to com.ibm.fhir.model.resource.ChargeItemDefinition.Applicability--><path d="M267.718,69.5898 C256.9987,86.1418 243.4936,106.9951 230.5899,126.9201 " fill="none" id="com.ibm.fhir.model.resource.ChargeItemDefinition&lt;-com.ibm.fhir.model.resource.ChargeItemDefinition.Applicability" style="stroke: #A80036; stroke-width: 1.0;"/><ellipse cx="271.6441" cy="63.5274" fill="#FFFFFF" rx="8" ry="8" style="stroke: #A80036; stroke-width: 1.0;"/><line style="stroke: #A80036; stroke-width: 1.0;" x1="267.2954" x2="275.9928" y1="70.2422" y2="56.8126"/><line style="stroke: #A80036; stroke-width: 1.0;" x1="264.9293" x2="278.3589" y1="59.1787" y2="67.8761"/><!--MD5=[ff8eba4cd00f79c889768df626d5b26a]
reverse link com.ibm.fhir.model.resource.ChargeItemDefinition.Applicability to com.ibm.fhir.model.resource.ChargeItemDefinition.Applicability.Builder--><path d="M186.5,278.372 C186.5,295.0058 186.5,310.9526 186.5,322.721 " fill="none" id="com.ibm.fhir.model.resource.ChargeItemDefinition.Applicability&lt;-com.ibm.fhir.model.resource.ChargeItemDefinition.Applicability.Builder" style="stroke: #A80036; stroke-width: 1.0;"/><ellipse cx="186.5001" cy="271.3358" fill="#FFFFFF" rx="8" ry="8" style="stroke: #A80036; stroke-width: 1.0;"/><line style="stroke: #A80036; stroke-width: 1.0;" x1="186.5002" x2="186.5" y1="279.3358" y2="263.3358"/><line style="stroke: #A80036; stroke-width: 1.0;" x1="178.5001" x2="194.5001" y1="271.3359" y2="271.3357"/><text fill="#888888" font-family="sans-serif" font-size="10" lengthAdjust="spacingAndGlyphs" textLength="186" x="104.5" y="380.2822">UMLDoclet 2.0.7, PlantUML 1.2019.12</text><!--MD5=[d0bba1f54c1678f1064cea58816ae51d]
@startuml
    set namespaceSeparator none
    hide empty fields
    hide empty methods

    class "<size:14>ChargeItemDefinition.Applicability\n<size:10>com.ibm.fhir.model.resource" as com.ibm.fhir.model.resource.ChargeItemDefinition.Applicability [[ChargeItemDefinition.Applicability.html]] {
        +getDescription(): String
        +getLanguage(): String
        +getExpression(): String
        +hasChildren(): boolean
        +accept(String, int, Visitor): void
        +toBuilder(): Builder
        {static} +builder(): Builder
    }

    abstract class "<size:14>BackboneElement\n<size:10>com.ibm.fhir.model.type" as com.ibm.fhir.model.type.BackboneElement [[../type/BackboneElement.html]] {
        {abstract} +toBuilder(): Builder
    }
    class "<size:14>ChargeItemDefinition\n<size:10>com.ibm.fhir.model.resource" as com.ibm.fhir.model.resource.ChargeItemDefinition [[ChargeItemDefinition.html]]
    class "<size:14>ChargeItemDefinition.Applicability.Builder\n<size:10>com.ibm.fhir.model.resource" as com.ibm.fhir.model.resource.ChargeItemDefinition.Applicability.Builder [[ChargeItemDefinition.Applicability.Builder.html]]

    com.ibm.fhir.model.type.BackboneElement <|- - com.ibm.fhir.model.resource.ChargeItemDefinition.Applicability
    com.ibm.fhir.model.resource.ChargeItemDefinition +- - com.ibm.fhir.model.resource.ChargeItemDefinition.Applicability
    com.ibm.fhir.model.resource.ChargeItemDefinition.Applicability +- - com.ibm.fhir.model.resource.ChargeItemDefinition.Applicability.Builder

    center footer UMLDoclet 2.0.7, PlantUML 1.2019.12
@enduml

PlantUML version 1.2019.12(Sun Nov 03 10:24:54 UTC 2019)
(APACHE source distribution)
Java Runtime: OpenJDK Runtime Environment
JVM: OpenJDK 64-Bit Server VM
Java Version: 11.0.10+9
Operating System: Linux
Default Encoding: UTF-8
Language: en
Country: null
--></g></svg>