<?xml version="1.0" encoding="UTF-8" standalone="no"?><svg xmlns="http://www.w3.org/2000/svg" xmlns:xlink="http://www.w3.org/1999/xlink" contentScriptType="application/ecmascript" contentStyleType="text/css" height="393px" preserveAspectRatio="none" style="width:519px;height:393px;" version="1.1" viewBox="0 0 519 393" width="519px" zoomAndPan="magnify"><defs><filter height="300%" id="f1camf3jzd2i88" width="300%" x="-1" y="-1"><feGaussianBlur result="blurOut" stdDeviation="2.0"/><feColorMatrix in="blurOut" result="blurOut2" type="matrix" values="0 0 0 0 0 0 0 0 0 0 0 0 0 0 0 0 0 0 .4 0"/><feOffset dx="4.0" dy="4.0" in="blurOut2" result="blurOut3"/><feBlend in="SourceGraphic" in2="blurOut3" mode="normal"/></filter></defs><g><!--MD5=[76ecd0c7c52cbafddbc59a819f393007]
class com.ibm.fhir.model.resource.EffectEvidenceSynthesis.Certainty.CertaintySubcomponent--><a href="EffectEvidenceSynthesis.Certainty.CertaintySubcomponent.html" target="_top" title="EffectEvidenceSynthesis.Certainty.CertaintySubcomponent.html" xlink:actuate="onRequest" xlink:href="EffectEvidenceSynthesis.Certainty.CertaintySubcomponent.html" xlink:show="new" xlink:title="EffectEvidenceSynthesis.Certainty.CertaintySubcomponent.html" xlink:type="simple"><rect fill="#FEFECE" filter="url(#f1camf3jzd2i88)" height="135.5703" id="com.ibm.fhir.model.resource.EffectEvidenceSynthesis.Certainty.CertaintySubcomponent" style="stroke: #A80036; stroke-width: 1.5;" width="438" x="32" y="127"/><ellipse cx="47" cy="145.9688" fill="#ADD1B2" rx="11" ry="11" style="stroke: #A80036; stroke-width: 1.0;"/><path d="M49.9688,151.6094 Q49.3906,151.9063 48.75,152.0469 Q48.1094,152.2031 47.4063,152.2031 Q44.9063,152.2031 43.5781,150.5625 Q42.2656,148.9063 42.2656,145.7813 Q42.2656,142.6563 43.5781,141 Q44.9063,139.3438 47.4063,139.3438 Q48.1094,139.3438 48.75,139.5 Q49.4063,139.6563 49.9688,139.9531 L49.9688,142.6719 Q49.3438,142.0938 48.75,141.8281 Q48.1563,141.5469 47.5313,141.5469 Q46.1875,141.5469 45.5,142.625 Q44.8125,143.6875 44.8125,145.7813 Q44.8125,147.875 45.5,148.9531 Q46.1875,150.0156 47.5313,150.0156 Q48.1563,150.0156 48.75,149.75 Q49.3438,149.4688 49.9688,148.8906 L49.9688,151.6094 Z "/><text fill="#000000" font-family="sans-serif" font-size="14" lengthAdjust="spacingAndGlyphs" textLength="406" x="61" y="144.9951">EffectEvidenceSynthesis.Certainty.CertaintySubcomponent</text><text fill="#000000" font-family="sans-serif" font-size="10" lengthAdjust="spacingAndGlyphs" textLength="139" x="194.5" y="157.5791">com.ibm.fhir.model.resource</text><line style="stroke: #A80036; stroke-width: 1.5;" x1="33" x2="469" y1="164.9375" y2="164.9375"/><ellipse cx="43" cy="175.9375" fill="#84BE84" rx="3" ry="3" style="stroke: #038048; stroke-width: 1.0;"/><text fill="#000000" font-family="sans-serif" font-size="11" lengthAdjust="spacingAndGlyphs" textLength="160" x="52" y="179.1479">getType(): CodeableConcept</text><ellipse cx="43" cy="188.7422" fill="#84BE84" rx="3" ry="3" style="stroke: #038048; stroke-width: 1.0;"/><text fill="#000000" font-family="sans-serif" font-size="11" lengthAdjust="spacingAndGlyphs" textLength="206" x="52" y="191.9526">getRating(): List&lt;CodeableConcept&gt;</text><ellipse cx="43" cy="201.5469" fill="#84BE84" rx="3" ry="3" style="stroke: #038048; stroke-width: 1.0;"/><text fill="#000000" font-family="sans-serif" font-size="11" lengthAdjust="spacingAndGlyphs" textLength="158" x="52" y="204.7573">getNote(): List&lt;Annotation&gt;</text><ellipse cx="43" cy="214.3516" fill="#84BE84" rx="3" ry="3" style="stroke: #038048; stroke-width: 1.0;"/><text fill="#000000" font-family="sans-serif" font-size="11" lengthAdjust="spacingAndGlyphs" textLength="129" x="52" y="217.562">hasChildren(): boolean</text><ellipse cx="43" cy="227.1563" fill="#84BE84" rx="3" ry="3" style="stroke: #038048; stroke-width: 1.0;"/><text fill="#000000" font-family="sans-serif" font-size="11" lengthAdjust="spacingAndGlyphs" textLength="176" x="52" y="230.3667">accept(String, int, Visitor): void</text><ellipse cx="43" cy="239.9609" fill="#84BE84" rx="3" ry="3" style="stroke: #038048; stroke-width: 1.0;"/><text fill="#000000" font-family="sans-serif" font-size="11" lengthAdjust="spacingAndGlyphs" textLength="107" x="52" y="243.1714">toBuilder(): Builder</text><ellipse cx="43" cy="252.7656" fill="#84BE84" rx="3" ry="3" style="stroke: #038048; stroke-width: 1.0;"/><text fill="#000000" font-family="sans-serif" font-size="11" lengthAdjust="spacingAndGlyphs" text-decoration="underline" textLength="95" x="52" y="255.9761">builder(): Builder</text></a><!--MD5=[efbff6997283c56b83e991a8eeb6a60a]
class com.ibm.fhir.model.type.BackboneElement--><a href="../type/BackboneElement.html" target="_top" title="../type/BackboneElement.html" xlink:actuate="onRequest" xlink:href="../type/BackboneElement.html" xlink:show="new" xlink:title="../type/BackboneElement.html" xlink:type="simple"><rect fill="#FEFECE" filter="url(#f1camf3jzd2i88)" height="58.7422" id="com.ibm.fhir.model.type.BackboneElement" style="stroke: #A80036; stroke-width: 1.5;" width="159" x="47.5" y="8"/><ellipse cx="62.5" cy="26.9688" fill="#A9DCDF" rx="11" ry="11" style="stroke: #A80036; stroke-width: 1.0;"/><path d="M62.6094,22.3125 L61.4531,27.3906 L63.7813,27.3906 L62.6094,22.3125 Z M61.125,20.0781 L64.1094,20.0781 L67.4688,32.4688 L65.0156,32.4688 L64.25,29.4063 L60.9688,29.4063 L60.2188,32.4688 L57.7813,32.4688 L61.125,20.0781 Z "/><text fill="#000000" font-family="sans-serif" font-size="14" font-style="italic" lengthAdjust="spacingAndGlyphs" textLength="127" x="76.5" y="25.9951">BackboneElement</text><text fill="#000000" font-family="sans-serif" font-size="10" font-style="italic" lengthAdjust="spacingAndGlyphs" textLength="123" x="78.5" y="38.5791">com.ibm.fhir.model.type</text><line style="stroke: #A80036; stroke-width: 1.5;" x1="48.5" x2="205.5" y1="45.9375" y2="45.9375"/><ellipse cx="58.5" cy="56.9375" fill="#84BE84" rx="3" ry="3" style="stroke: #038048; stroke-width: 1.0;"/><text fill="#000000" font-family="sans-serif" font-size="11" font-style="italic" lengthAdjust="spacingAndGlyphs" textLength="107" x="67.5" y="60.1479">toBuilder(): Builder</text></a><!--MD5=[ef9184d589ca31d98867a4c09d9a7245]
class com.ibm.fhir.model.resource.EffectEvidenceSynthesis.Certainty--><a href="EffectEvidenceSynthesis.Certainty.html" target="_top" title="EffectEvidenceSynthesis.Certainty.html" xlink:actuate="onRequest" xlink:href="EffectEvidenceSynthesis.Certainty.html" xlink:show="new" xlink:title="EffectEvidenceSynthesis.Certainty.html" xlink:type="simple"><rect fill="#FEFECE" filter="url(#f1camf3jzd2i88)" height="37.9375" id="com.ibm.fhir.model.resource.EffectEvidenceSynthesis.Certainty" style="stroke: #A80036; stroke-width: 1.5;" width="266" x="242" y="18.5"/><ellipse cx="257" cy="37.4688" fill="#ADD1B2" rx="11" ry="11" style="stroke: #A80036; stroke-width: 1.0;"/><path d="M259.9688,43.1094 Q259.3906,43.4063 258.75,43.5469 Q258.1094,43.7031 257.4063,43.7031 Q254.9063,43.7031 253.5781,42.0625 Q252.2656,40.4063 252.2656,37.2813 Q252.2656,34.1563 253.5781,32.5 Q254.9063,30.8438 257.4063,30.8438 Q258.1094,30.8438 258.75,31 Q259.4063,31.1563 259.9688,31.4531 L259.9688,34.1719 Q259.3438,33.5938 258.75,33.3281 Q258.1563,33.0469 257.5313,33.0469 Q256.1875,33.0469 255.5,34.125 Q254.8125,35.1875 254.8125,37.2813 Q254.8125,39.375 255.5,40.4531 Q256.1875,41.5156 257.5313,41.5156 Q258.1563,41.5156 258.75,41.25 Q259.3438,40.9688 259.9688,40.3906 L259.9688,43.1094 Z "/><text fill="#000000" font-family="sans-serif" font-size="14" lengthAdjust="spacingAndGlyphs" textLength="234" x="271" y="36.4951">EffectEvidenceSynthesis.Certainty</text><text fill="#000000" font-family="sans-serif" font-size="10" lengthAdjust="spacingAndGlyphs" textLength="139" x="318.5" y="49.0791">com.ibm.fhir.model.resource</text></a><!--MD5=[29fe744913f268605361f03b53513f2f]
class com.ibm.fhir.model.resource.EffectEvidenceSynthesis.Certainty.CertaintySubcomponent.Builder--><a href="EffectEvidenceSynthesis.Certainty.CertaintySubcomponent.Builder.html" target="_top" title="EffectEvidenceSynthesis.Certainty.CertaintySubcomponent.Builder.html" xlink:actuate="onRequest" xlink:href="EffectEvidenceSynthesis.Certainty.CertaintySubcomponent.Builder.html" xlink:show="new" xlink:title="EffectEvidenceSynthesis.Certainty.CertaintySubcomponent.Builder.html" xlink:type="simple"><rect fill="#FEFECE" filter="url(#f1camf3jzd2i88)" height="37.9375" id="com.ibm.fhir.model.resource.EffectEvidenceSynthesis.Certainty.CertaintySubcomponent.Builder" style="stroke: #A80036; stroke-width: 1.5;" width="490" x="6" y="323"/><ellipse cx="21" cy="341.9688" fill="#ADD1B2" rx="11" ry="11" style="stroke: #A80036; stroke-width: 1.0;"/><path d="M23.9688,347.6094 Q23.3906,347.9063 22.75,348.0469 Q22.1094,348.2031 21.4063,348.2031 Q18.9063,348.2031 17.5781,346.5625 Q16.2656,344.9063 16.2656,341.7813 Q16.2656,338.6563 17.5781,337 Q18.9063,335.3438 21.4063,335.3438 Q22.1094,335.3438 22.75,335.5 Q23.4063,335.6563 23.9688,335.9531 L23.9688,338.6719 Q23.3438,338.0938 22.75,337.8281 Q22.1563,337.5469 21.5313,337.5469 Q20.1875,337.5469 19.5,338.625 Q18.8125,339.6875 18.8125,341.7813 Q18.8125,343.875 19.5,344.9531 Q20.1875,346.0156 21.5313,346.0156 Q22.1563,346.0156 22.75,345.75 Q23.3438,345.4688 23.9688,344.8906 L23.9688,347.6094 Z "/><text fill="#000000" font-family="sans-serif" font-size="14" lengthAdjust="spacingAndGlyphs" textLength="458" x="35" y="340.9951">EffectEvidenceSynthesis.Certainty.CertaintySubcomponent.Builder</text><text fill="#000000" font-family="sans-serif" font-size="10" lengthAdjust="spacingAndGlyphs" textLength="139" x="194.5" y="353.5791">com.ibm.fhir.model.resource</text></a><!--MD5=[c9000c11a4e8c11ab6b75e84da7f316f]
reverse link com.ibm.fhir.model.type.BackboneElement to com.ibm.fhir.model.resource.EffectEvidenceSynthesis.Certainty.CertaintySubcomponent--><path d="M162.7626,82.9243 C173.5872,96.6733 185.7202,112.0841 197.4428,126.9737 " fill="none" id="com.ibm.fhir.model.type.BackboneElement&lt;-com.ibm.fhir.model.resource.EffectEvidenceSynthesis.Certainty.CertaintySubcomponent" style="stroke: #A80036; stroke-width: 1.0;"/><polygon fill="none" points="157.1953,87.169,150.3235,67.1245,168.1953,78.5086,157.1953,87.169" style="stroke: #A80036; stroke-width: 1.0;"/><!--MD5=[23c9471b357ceb01182765d690c48da7]
reverse link com.ibm.fhir.model.resource.EffectEvidenceSynthesis.Certainty to com.ibm.fhir.model.resource.EffectEvidenceSynthesis.Certainty.CertaintySubcomponent--><path d="M350.5134,68.6019 C337.3613,85.3073 320.6001,106.5966 304.5995,126.9201 " fill="none" id="com.ibm.fhir.model.resource.EffectEvidenceSynthesis.Certainty&lt;-com.ibm.fhir.model.resource.EffectEvidenceSynthesis.Certainty.CertaintySubcomponent" style="stroke: #A80036; stroke-width: 1.0;"/><ellipse cx="354.8465" cy="63.0983" fill="#FFFFFF" rx="8" ry="8" style="stroke: #A80036; stroke-width: 1.0;"/><line style="stroke: #A80036; stroke-width: 1.0;" x1="349.8978" x2="359.7952" y1="69.384" y2="56.8126"/><line style="stroke: #A80036; stroke-width: 1.0;" x1="348.5608" x2="361.1322" y1="58.1496" y2="68.047"/><!--MD5=[33d146625e240134136405da6fe09a62]
reverse link com.ibm.fhir.model.resource.EffectEvidenceSynthesis.Certainty.CertaintySubcomponent to com.ibm.fhir.model.resource.EffectEvidenceSynthesis.Certainty.CertaintySubcomponent.Builder--><path d="M251,278.372 C251,295.0058 251,310.9526 251,322.721 " fill="none" id="com.ibm.fhir.model.resource.EffectEvidenceSynthesis.Certainty.CertaintySubcomponent&lt;-com.ibm.fhir.model.resource.EffectEvidenceSynthesis.Certainty.CertaintySubcomponent.Builder" style="stroke: #A80036; stroke-width: 1.0;"/><ellipse cx="251.0001" cy="271.3358" fill="#FFFFFF" rx="8" ry="8" style="stroke: #A80036; stroke-width: 1.0;"/><line style="stroke: #A80036; stroke-width: 1.0;" x1="251.0002" x2="251" y1="279.3358" y2="263.3358"/><line style="stroke: #A80036; stroke-width: 1.0;" x1="243.0001" x2="259.0001" y1="271.3359" y2="271.3357"/><text fill="#888888" font-family="sans-serif" font-size="10" lengthAdjust="spacingAndGlyphs" textLength="186" x="170" y="380.2822">UMLDoclet 2.0.7, PlantUML 1.2019.12</text><!--MD5=[2c22600ce3ebbc34e8846f7ed9a1aee8]
@startuml
    set namespaceSeparator none
    hide empty fields
    hide empty methods

    class "<size:14>EffectEvidenceSynthesis.Certainty.CertaintySubcomponent\n<size:10>com.ibm.fhir.model.resource" as com.ibm.fhir.model.resource.EffectEvidenceSynthesis.Certainty.CertaintySubcomponent [[EffectEvidenceSynthesis.Certainty.CertaintySubcomponent.html]] {
        +getType(): CodeableConcept
        +getRating(): List<CodeableConcept>
        +getNote(): List<Annotation>
        +hasChildren(): boolean
        +accept(String, int, Visitor): void
        +toBuilder(): Builder
        {static} +builder(): Builder
    }

    abstract class "<size:14>BackboneElement\n<size:10>com.ibm.fhir.model.type" as com.ibm.fhir.model.type.BackboneElement [[../type/BackboneElement.html]] {
        {abstract} +toBuilder(): Builder
    }
    class "<size:14>EffectEvidenceSynthesis.Certainty\n<size:10>com.ibm.fhir.model.resource" as com.ibm.fhir.model.resource.EffectEvidenceSynthesis.Certainty [[EffectEvidenceSynthesis.Certainty.html]]
    class "<size:14>EffectEvidenceSynthesis.Certainty.CertaintySubcomponent.Builder\n<size:10>com.ibm.fhir.model.resource" as com.ibm.fhir.model.resource.EffectEvidenceSynthesis.Certainty.CertaintySubcomponent.Builder [[EffectEvidenceSynthesis.Certainty.CertaintySubcomponent.Builder.html]]

    com.ibm.fhir.model.type.BackboneElement <|- - com.ibm.fhir.model.resource.EffectEvidenceSynthesis.Certainty.CertaintySubcomponent
    com.ibm.fhir.model.resource.EffectEvidenceSynthesis.Certainty +- - com.ibm.fhir.model.resource.EffectEvidenceSynthesis.Certainty.CertaintySubcomponent
    com.ibm.fhir.model.resource.EffectEvidenceSynthesis.Certainty.CertaintySubcomponent +- - com.ibm.fhir.model.resource.EffectEvidenceSynthesis.Certainty.CertaintySubcomponent.Builder

    center footer UMLDoclet 2.0.7, PlantUML 1.2019.12
@enduml

PlantUML version 1.2019.12(Sun Nov 03 10:24:54 UTC 2019)
(APACHE source distribution)
Java Runtime: OpenJDK Runtime Environment
JVM: OpenJDK 64-Bit Server VM
Java Version: 11.0.10+9
Operating System: Linux
Default Encoding: UTF-8
Language: en
Country: null
--></g></svg>