<?xml version="1.0" encoding="UTF-8" standalone="no"?><svg xmlns="http://www.w3.org/2000/svg" xmlns:xlink="http://www.w3.org/1999/xlink" contentScriptType="application/ecmascript" contentStyleType="text/css" height="457px" preserveAspectRatio="none" style="width:490px;height:457px;" version="1.1" viewBox="0 0 490 457" width="490px" zoomAndPan="magnify"><defs><filter height="300%" id="fz0jzbxmjhro0" width="300%" x="-1" y="-1"><feGaussianBlur result="blurOut" stdDeviation="2.0"/><feColorMatrix in="blurOut" result="blurOut2" type="matrix" values="0 0 0 0 0 0 0 0 0 0 0 0 0 0 0 0 0 0 .4 0"/><feOffset dx="4.0" dy="4.0" in="blurOut2" result="blurOut3"/><feBlend in="SourceGraphic" in2="blurOut3" mode="normal"/></filter></defs><g><!--MD5=[b74a2cbecee8f968d66c7998aeb7d309]
class com.ibm.fhir.model.resource.ExplanationOfBenefit.AddItem.Detail.SubDetail--><a href="ExplanationOfBenefit.AddItem.Detail.SubDetail.html" target="_top" title="ExplanationOfBenefit.AddItem.Detail.SubDetail.html" xlink:actuate="onRequest" xlink:href="ExplanationOfBenefit.AddItem.Detail.SubDetail.html" xlink:show="new" xlink:title="ExplanationOfBenefit.AddItem.Detail.SubDetail.html" xlink:type="simple"><rect fill="#FEFECE" filter="url(#fz0jzbxmjhro0)" height="199.5938" id="com.ibm.fhir.model.resource.ExplanationOfBenefit.AddItem.Detail.SubDetail" style="stroke: #A80036; stroke-width: 1.5;" width="349" x="38" y="127"/><ellipse cx="53" cy="145.9688" fill="#ADD1B2" rx="11" ry="11" style="stroke: #A80036; stroke-width: 1.0;"/><path d="M55.9688,151.6094 Q55.3906,151.9063 54.75,152.0469 Q54.1094,152.2031 53.4063,152.2031 Q50.9063,152.2031 49.5781,150.5625 Q48.2656,148.9063 48.2656,145.7813 Q48.2656,142.6563 49.5781,141 Q50.9063,139.3438 53.4063,139.3438 Q54.1094,139.3438 54.75,139.5 Q55.4063,139.6563 55.9688,139.9531 L55.9688,142.6719 Q55.3438,142.0938 54.75,141.8281 Q54.1563,141.5469 53.5313,141.5469 Q52.1875,141.5469 51.5,142.625 Q50.8125,143.6875 50.8125,145.7813 Q50.8125,147.875 51.5,148.9531 Q52.1875,150.0156 53.5313,150.0156 Q54.1563,150.0156 54.75,149.75 Q55.3438,149.4688 55.9688,148.8906 L55.9688,151.6094 Z "/><text fill="#000000" font-family="sans-serif" font-size="14" lengthAdjust="spacingAndGlyphs" textLength="317" x="67" y="144.9951">ExplanationOfBenefit.AddItem.Detail.SubDetail</text><text fill="#000000" font-family="sans-serif" font-size="10" lengthAdjust="spacingAndGlyphs" textLength="139" x="156" y="157.5791">com.ibm.fhir.model.resource</text><line style="stroke: #A80036; stroke-width: 1.5;" x1="39" x2="386" y1="164.9375" y2="164.9375"/><ellipse cx="49" cy="175.9375" fill="#84BE84" rx="3" ry="3" style="stroke: #038048; stroke-width: 1.0;"/><text fill="#000000" font-family="sans-serif" font-size="11" lengthAdjust="spacingAndGlyphs" textLength="232" x="58" y="179.1479">getProductOrService(): CodeableConcept</text><ellipse cx="49" cy="188.7422" fill="#84BE84" rx="3" ry="3" style="stroke: #038048; stroke-width: 1.0;"/><text fill="#000000" font-family="sans-serif" font-size="11" lengthAdjust="spacingAndGlyphs" textLength="216" x="58" y="191.9526">getModifier(): List&lt;CodeableConcept&gt;</text><ellipse cx="49" cy="201.5469" fill="#84BE84" rx="3" ry="3" style="stroke: #038048; stroke-width: 1.0;"/><text fill="#000000" font-family="sans-serif" font-size="11" lengthAdjust="spacingAndGlyphs" textLength="167" x="58" y="204.7573">getQuantity(): SimpleQuantity</text><ellipse cx="49" cy="214.3516" fill="#84BE84" rx="3" ry="3" style="stroke: #038048; stroke-width: 1.0;"/><text fill="#000000" font-family="sans-serif" font-size="11" lengthAdjust="spacingAndGlyphs" textLength="120" x="58" y="217.562">getUnitPrice(): Money</text><ellipse cx="49" cy="227.1563" fill="#84BE84" rx="3" ry="3" style="stroke: #038048; stroke-width: 1.0;"/><text fill="#000000" font-family="sans-serif" font-size="11" lengthAdjust="spacingAndGlyphs" textLength="114" x="58" y="230.3667">getFactor(): Decimal</text><ellipse cx="49" cy="239.9609" fill="#84BE84" rx="3" ry="3" style="stroke: #038048; stroke-width: 1.0;"/><text fill="#000000" font-family="sans-serif" font-size="11" lengthAdjust="spacingAndGlyphs" textLength="89" x="58" y="243.1714">getNet(): Money</text><ellipse cx="49" cy="252.7656" fill="#84BE84" rx="3" ry="3" style="stroke: #038048; stroke-width: 1.0;"/><text fill="#000000" font-family="sans-serif" font-size="11" lengthAdjust="spacingAndGlyphs" textLength="201" x="58" y="255.9761">getNoteNumber(): List&lt;PositiveInt&gt;</text><ellipse cx="49" cy="265.5703" fill="#84BE84" rx="3" ry="3" style="stroke: #038048; stroke-width: 1.0;"/><text fill="#000000" font-family="sans-serif" font-size="11" lengthAdjust="spacingAndGlyphs" textLength="208" x="58" y="268.7808">getAdjudication(): List&lt;Adjudication&gt;</text><ellipse cx="49" cy="278.375" fill="#84BE84" rx="3" ry="3" style="stroke: #038048; stroke-width: 1.0;"/><text fill="#000000" font-family="sans-serif" font-size="11" lengthAdjust="spacingAndGlyphs" textLength="129" x="58" y="281.5854">hasChildren(): boolean</text><ellipse cx="49" cy="291.1797" fill="#84BE84" rx="3" ry="3" style="stroke: #038048; stroke-width: 1.0;"/><text fill="#000000" font-family="sans-serif" font-size="11" lengthAdjust="spacingAndGlyphs" textLength="176" x="58" y="294.3901">accept(String, int, Visitor): void</text><ellipse cx="49" cy="303.9844" fill="#84BE84" rx="3" ry="3" style="stroke: #038048; stroke-width: 1.0;"/><text fill="#000000" font-family="sans-serif" font-size="11" lengthAdjust="spacingAndGlyphs" textLength="107" x="58" y="307.1948">toBuilder(): Builder</text><ellipse cx="49" cy="316.7891" fill="#84BE84" rx="3" ry="3" style="stroke: #038048; stroke-width: 1.0;"/><text fill="#000000" font-family="sans-serif" font-size="11" lengthAdjust="spacingAndGlyphs" text-decoration="underline" textLength="95" x="58" y="319.9995">builder(): Builder</text></a><!--MD5=[efbff6997283c56b83e991a8eeb6a60a]
class com.ibm.fhir.model.type.BackboneElement--><a href="../type/BackboneElement.html" target="_top" title="../type/BackboneElement.html" xlink:actuate="onRequest" xlink:href="../type/BackboneElement.html" xlink:show="new" xlink:title="../type/BackboneElement.html" xlink:type="simple"><rect fill="#FEFECE" filter="url(#fz0jzbxmjhro0)" height="58.7422" id="com.ibm.fhir.model.type.BackboneElement" style="stroke: #A80036; stroke-width: 1.5;" width="159" x="6" y="8"/><ellipse cx="21" cy="26.9688" fill="#A9DCDF" rx="11" ry="11" style="stroke: #A80036; stroke-width: 1.0;"/><path d="M21.1094,22.3125 L19.9531,27.3906 L22.2813,27.3906 L21.1094,22.3125 Z M19.625,20.0781 L22.6094,20.0781 L25.9688,32.4688 L23.5156,32.4688 L22.75,29.4063 L19.4688,29.4063 L18.7188,32.4688 L16.2813,32.4688 L19.625,20.0781 Z "/><text fill="#000000" font-family="sans-serif" font-size="14" font-style="italic" lengthAdjust="spacingAndGlyphs" textLength="127" x="35" y="25.9951">BackboneElement</text><text fill="#000000" font-family="sans-serif" font-size="10" font-style="italic" lengthAdjust="spacingAndGlyphs" textLength="123" x="37" y="38.5791">com.ibm.fhir.model.type</text><line style="stroke: #A80036; stroke-width: 1.5;" x1="7" x2="164" y1="45.9375" y2="45.9375"/><ellipse cx="17" cy="56.9375" fill="#84BE84" rx="3" ry="3" style="stroke: #038048; stroke-width: 1.0;"/><text fill="#000000" font-family="sans-serif" font-size="11" font-style="italic" lengthAdjust="spacingAndGlyphs" textLength="107" x="26" y="60.1479">toBuilder(): Builder</text></a><!--MD5=[226cdc71ba9e9521393b406805901fd3]
class com.ibm.fhir.model.resource.ExplanationOfBenefit.AddItem.Detail--><a href="ExplanationOfBenefit.AddItem.Detail.html" target="_top" title="ExplanationOfBenefit.AddItem.Detail.html" xlink:actuate="onRequest" xlink:href="ExplanationOfBenefit.AddItem.Detail.html" xlink:show="new" xlink:title="ExplanationOfBenefit.AddItem.Detail.html" xlink:type="simple"><rect fill="#FEFECE" filter="url(#fz0jzbxmjhro0)" height="37.9375" id="com.ibm.fhir.model.resource.ExplanationOfBenefit.AddItem.Detail" style="stroke: #A80036; stroke-width: 1.5;" width="279" x="200" y="18.5"/><ellipse cx="215" cy="37.4688" fill="#ADD1B2" rx="11" ry="11" style="stroke: #A80036; stroke-width: 1.0;"/><path d="M217.9688,43.1094 Q217.3906,43.4063 216.75,43.5469 Q216.1094,43.7031 215.4063,43.7031 Q212.9063,43.7031 211.5781,42.0625 Q210.2656,40.4063 210.2656,37.2813 Q210.2656,34.1563 211.5781,32.5 Q212.9063,30.8438 215.4063,30.8438 Q216.1094,30.8438 216.75,31 Q217.4063,31.1563 217.9688,31.4531 L217.9688,34.1719 Q217.3438,33.5938 216.75,33.3281 Q216.1563,33.0469 215.5313,33.0469 Q214.1875,33.0469 213.5,34.125 Q212.8125,35.1875 212.8125,37.2813 Q212.8125,39.375 213.5,40.4531 Q214.1875,41.5156 215.5313,41.5156 Q216.1563,41.5156 216.75,41.25 Q217.3438,40.9688 217.9688,40.3906 L217.9688,43.1094 Z "/><text fill="#000000" font-family="sans-serif" font-size="14" lengthAdjust="spacingAndGlyphs" textLength="247" x="229" y="36.4951">ExplanationOfBenefit.AddItem.Detail</text><text fill="#000000" font-family="sans-serif" font-size="10" lengthAdjust="spacingAndGlyphs" textLength="139" x="283" y="49.0791">com.ibm.fhir.model.resource</text></a><!--MD5=[0648f6d7dab8880e0ffb9e5a437ec40c]
class com.ibm.fhir.model.resource.ExplanationOfBenefit.AddItem.Detail.SubDetail.Builder--><a href="ExplanationOfBenefit.AddItem.Detail.SubDetail.Builder.html" target="_top" title="ExplanationOfBenefit.AddItem.Detail.SubDetail.Builder.html" xlink:actuate="onRequest" xlink:href="ExplanationOfBenefit.AddItem.Detail.SubDetail.Builder.html" xlink:show="new" xlink:title="ExplanationOfBenefit.AddItem.Detail.SubDetail.Builder.html" xlink:type="simple"><rect fill="#FEFECE" filter="url(#fz0jzbxmjhro0)" height="37.9375" id="com.ibm.fhir.model.resource.ExplanationOfBenefit.AddItem.Detail.SubDetail.Builder" style="stroke: #A80036; stroke-width: 1.5;" width="401" x="12" y="387"/><ellipse cx="27" cy="405.9688" fill="#ADD1B2" rx="11" ry="11" style="stroke: #A80036; stroke-width: 1.0;"/><path d="M29.9688,411.6094 Q29.3906,411.9063 28.75,412.0469 Q28.1094,412.2031 27.4063,412.2031 Q24.9063,412.2031 23.5781,410.5625 Q22.2656,408.9063 22.2656,405.7813 Q22.2656,402.6563 23.5781,401 Q24.9063,399.3438 27.4063,399.3438 Q28.1094,399.3438 28.75,399.5 Q29.4063,399.6563 29.9688,399.9531 L29.9688,402.6719 Q29.3438,402.0938 28.75,401.8281 Q28.1563,401.5469 27.5313,401.5469 Q26.1875,401.5469 25.5,402.625 Q24.8125,403.6875 24.8125,405.7813 Q24.8125,407.875 25.5,408.9531 Q26.1875,410.0156 27.5313,410.0156 Q28.1563,410.0156 28.75,409.75 Q29.3438,409.4688 29.9688,408.8906 L29.9688,411.6094 Z "/><text fill="#000000" font-family="sans-serif" font-size="14" lengthAdjust="spacingAndGlyphs" textLength="369" x="41" y="404.9951">ExplanationOfBenefit.AddItem.Detail.SubDetail.Builder</text><text fill="#000000" font-family="sans-serif" font-size="10" lengthAdjust="spacingAndGlyphs" textLength="139" x="156" y="417.5791">com.ibm.fhir.model.resource</text></a><!--MD5=[413d0d83e3fcab3d4d2435ed8fe9c269]
reverse link com.ibm.fhir.model.type.BackboneElement to com.ibm.fhir.model.resource.ExplanationOfBenefit.AddItem.Detail.SubDetail--><path d="M116.5779,83.8721 C125.406,97.0448 135.3768,111.9225 145.467,126.9783 " fill="none" id="com.ibm.fhir.model.type.BackboneElement&lt;-com.ibm.fhir.model.resource.ExplanationOfBenefit.AddItem.Detail.SubDetail" style="stroke: #A80036; stroke-width: 1.0;"/><polygon fill="none" points="110.6633,87.6204,105.3438,67.1094,122.2931,79.8263,110.6633,87.6204" style="stroke: #A80036; stroke-width: 1.0;"/><!--MD5=[fb0d91b7ede9f89355e6add9ba06a707]
reverse link com.ibm.fhir.model.resource.ExplanationOfBenefit.AddItem.Detail to com.ibm.fhir.model.resource.ExplanationOfBenefit.AddItem.Detail.SubDetail--><path d="M317.9796,69.6111 C307.2119,85.6779 293.5265,106.0982 279.6092,126.8646 " fill="none" id="com.ibm.fhir.model.resource.ExplanationOfBenefit.AddItem.Detail&lt;-com.ibm.fhir.model.resource.ExplanationOfBenefit.AddItem.Detail.SubDetail" style="stroke: #A80036; stroke-width: 1.0;"/><ellipse cx="322.1699" cy="63.3587" fill="#FFFFFF" rx="8" ry="8" style="stroke: #A80036; stroke-width: 1.0;"/><line style="stroke: #A80036; stroke-width: 1.0;" x1="317.7162" x2="326.6237" y1="70.0043" y2="56.7131"/><line style="stroke: #A80036; stroke-width: 1.0;" x1="315.5243" x2="328.8155" y1="58.9049" y2="67.8125"/><!--MD5=[f3e21546aa65d37e3561790498621f25]
reverse link com.ibm.fhir.model.resource.ExplanationOfBenefit.AddItem.Detail.SubDetail to com.ibm.fhir.model.resource.ExplanationOfBenefit.AddItem.Detail.SubDetail.Builder--><path d="M212.5,342.2814 C212.5,359.4805 212.5,375.2909 212.5,386.8604 " fill="none" id="com.ibm.fhir.model.resource.ExplanationOfBenefit.AddItem.Detail.SubDetail&lt;-com.ibm.fhir.model.resource.ExplanationOfBenefit.AddItem.Detail.SubDetail.Builder" style="stroke: #A80036; stroke-width: 1.0;"/><ellipse cx="212.5" cy="335.2275" fill="#FFFFFF" rx="8" ry="8" style="stroke: #A80036; stroke-width: 1.0;"/><line style="stroke: #A80036; stroke-width: 1.0;" x1="212.5" x2="212.5" y1="343.2275" y2="327.2275"/><line style="stroke: #A80036; stroke-width: 1.0;" x1="204.5" x2="220.5" y1="335.2275" y2="335.2275"/><text fill="#888888" font-family="sans-serif" font-size="10" lengthAdjust="spacingAndGlyphs" textLength="186" x="155.5" y="444.2822">UMLDoclet 2.0.7, PlantUML 1.2019.12</text><!--MD5=[ce4b730717d1eab9f8918bfff4ba057b]
@startuml
    set namespaceSeparator none
    hide empty fields
    hide empty methods

    class "<size:14>ExplanationOfBenefit.AddItem.Detail.SubDetail\n<size:10>com.ibm.fhir.model.resource" as com.ibm.fhir.model.resource.ExplanationOfBenefit.AddItem.Detail.SubDetail [[ExplanationOfBenefit.AddItem.Detail.SubDetail.html]] {
        +getProductOrService(): CodeableConcept
        +getModifier(): List<CodeableConcept>
        +getQuantity(): SimpleQuantity
        +getUnitPrice(): Money
        +getFactor(): Decimal
        +getNet(): Money
        +getNoteNumber(): List<PositiveInt>
        +getAdjudication(): List<Adjudication>
        +hasChildren(): boolean
        +accept(String, int, Visitor): void
        +toBuilder(): Builder
        {static} +builder(): Builder
    }

    abstract class "<size:14>BackboneElement\n<size:10>com.ibm.fhir.model.type" as com.ibm.fhir.model.type.BackboneElement [[../type/BackboneElement.html]] {
        {abstract} +toBuilder(): Builder
    }
    class "<size:14>ExplanationOfBenefit.AddItem.Detail\n<size:10>com.ibm.fhir.model.resource" as com.ibm.fhir.model.resource.ExplanationOfBenefit.AddItem.Detail [[ExplanationOfBenefit.AddItem.Detail.html]]
    class "<size:14>ExplanationOfBenefit.AddItem.Detail.SubDetail.Builder\n<size:10>com.ibm.fhir.model.resource" as com.ibm.fhir.model.resource.ExplanationOfBenefit.AddItem.Detail.SubDetail.Builder [[ExplanationOfBenefit.AddItem.Detail.SubDetail.Builder.html]]

    com.ibm.fhir.model.type.BackboneElement <|- - com.ibm.fhir.model.resource.ExplanationOfBenefit.AddItem.Detail.SubDetail
    com.ibm.fhir.model.resource.ExplanationOfBenefit.AddItem.Detail +- - com.ibm.fhir.model.resource.ExplanationOfBenefit.AddItem.Detail.SubDetail
    com.ibm.fhir.model.resource.ExplanationOfBenefit.AddItem.Detail.SubDetail +- - com.ibm.fhir.model.resource.ExplanationOfBenefit.AddItem.Detail.SubDetail.Builder

    center footer UMLDoclet 2.0.7, PlantUML 1.2019.12
@enduml

PlantUML version 1.2019.12(Sun Nov 03 10:24:54 UTC 2019)
(APACHE source distribution)
Java Runtime: OpenJDK Runtime Environment
JVM: OpenJDK 64-Bit Server VM
Java Version: 11.0.10+9
Operating System: Linux
Default Encoding: UTF-8
Language: en
Country: null
--></g></svg>