<?xml version="1.0" encoding="UTF-8" standalone="no"?><svg xmlns="http://www.w3.org/2000/svg" xmlns:xlink="http://www.w3.org/1999/xlink" contentScriptType="application/ecmascript" contentStyleType="text/css" height="533px" preserveAspectRatio="none" style="width:678px;height:533px;" version="1.1" viewBox="0 0 678 533" width="678px" zoomAndPan="magnify"><defs><filter height="300%" id="f191hqdpzs9y5v" width="300%" x="-1" y="-1"><feGaussianBlur result="blurOut" stdDeviation="2.0"/><feColorMatrix in="blurOut" result="blurOut2" type="matrix" values="0 0 0 0 0 0 0 0 0 0 0 0 0 0 0 0 0 0 .4 0"/><feOffset dx="4.0" dy="4.0" in="blurOut2" result="blurOut3"/><feBlend in="SourceGraphic" in2="blurOut3" mode="normal"/></filter></defs><g><!--MD5=[4c1f69d730b529d25d515098f7ece90e]
class com.ibm.fhir.model.resource.ExplanationOfBenefit.Item.Detail--><a href="ExplanationOfBenefit.Item.Detail.html" target="_top" title="ExplanationOfBenefit.Item.Detail.html" xlink:actuate="onRequest" xlink:href="ExplanationOfBenefit.Item.Detail.html" xlink:show="new" xlink:title="ExplanationOfBenefit.Item.Detail.html" xlink:type="simple"><rect fill="#FEFECE" filter="url(#f191hqdpzs9y5v)" height="276.4219" id="com.ibm.fhir.model.resource.ExplanationOfBenefit.Item.Detail" style="stroke: #A80036; stroke-width: 1.5;" width="275" x="194.5" y="127"/><ellipse cx="219.85" cy="145.9688" fill="#ADD1B2" rx="11" ry="11" style="stroke: #A80036; stroke-width: 1.0;"/><path d="M222.8188,151.6094 Q222.2406,151.9063 221.6,152.0469 Q220.9594,152.2031 220.2563,152.2031 Q217.7563,152.2031 216.4281,150.5625 Q215.1156,148.9063 215.1156,145.7813 Q215.1156,142.6563 216.4281,141 Q217.7563,139.3438 220.2563,139.3438 Q220.9594,139.3438 221.6,139.5 Q222.2563,139.6563 222.8188,139.9531 L222.8188,142.6719 Q222.1938,142.0938 221.6,141.8281 Q221.0063,141.5469 220.3813,141.5469 Q219.0375,141.5469 218.35,142.625 Q217.6625,143.6875 217.6625,145.7813 Q217.6625,147.875 218.35,148.9531 Q219.0375,150.0156 220.3813,150.0156 Q221.0063,150.0156 221.6,149.75 Q222.1938,149.4688 222.8188,148.8906 L222.8188,151.6094 Z "/><text fill="#000000" font-family="sans-serif" font-size="14" lengthAdjust="spacingAndGlyphs" textLength="220" x="236.15" y="144.9951">ExplanationOfBenefit.Item.Detail</text><text fill="#000000" font-family="sans-serif" font-size="10" lengthAdjust="spacingAndGlyphs" textLength="139" x="276.65" y="157.5791">com.ibm.fhir.model.resource</text><line style="stroke: #A80036; stroke-width: 1.5;" x1="195.5" x2="468.5" y1="164.9375" y2="164.9375"/><ellipse cx="205.5" cy="175.9375" fill="#84BE84" rx="3" ry="3" style="stroke: #038048; stroke-width: 1.0;"/><text fill="#000000" font-family="sans-serif" font-size="11" lengthAdjust="spacingAndGlyphs" textLength="148" x="214.5" y="179.1479">getSequence(): PositiveInt</text><ellipse cx="205.5" cy="188.7422" fill="#84BE84" rx="3" ry="3" style="stroke: #038048; stroke-width: 1.0;"/><text fill="#000000" font-family="sans-serif" font-size="11" lengthAdjust="spacingAndGlyphs" textLength="181" x="214.5" y="191.9526">getRevenue(): CodeableConcept</text><ellipse cx="205.5" cy="201.5469" fill="#84BE84" rx="3" ry="3" style="stroke: #038048; stroke-width: 1.0;"/><text fill="#000000" font-family="sans-serif" font-size="11" lengthAdjust="spacingAndGlyphs" textLength="184" x="214.5" y="204.7573">getCategory(): CodeableConcept</text><ellipse cx="205.5" cy="214.3516" fill="#84BE84" rx="3" ry="3" style="stroke: #038048; stroke-width: 1.0;"/><text fill="#000000" font-family="sans-serif" font-size="11" lengthAdjust="spacingAndGlyphs" textLength="232" x="214.5" y="217.562">getProductOrService(): CodeableConcept</text><ellipse cx="205.5" cy="227.1563" fill="#84BE84" rx="3" ry="3" style="stroke: #038048; stroke-width: 1.0;"/><text fill="#000000" font-family="sans-serif" font-size="11" lengthAdjust="spacingAndGlyphs" textLength="216" x="214.5" y="230.3667">getModifier(): List&lt;CodeableConcept&gt;</text><ellipse cx="205.5" cy="239.9609" fill="#84BE84" rx="3" ry="3" style="stroke: #038048; stroke-width: 1.0;"/><text fill="#000000" font-family="sans-serif" font-size="11" lengthAdjust="spacingAndGlyphs" textLength="249" x="214.5" y="243.1714">getProgramCode(): List&lt;CodeableConcept&gt;</text><ellipse cx="205.5" cy="252.7656" fill="#84BE84" rx="3" ry="3" style="stroke: #038048; stroke-width: 1.0;"/><text fill="#000000" font-family="sans-serif" font-size="11" lengthAdjust="spacingAndGlyphs" textLength="167" x="214.5" y="255.9761">getQuantity(): SimpleQuantity</text><ellipse cx="205.5" cy="265.5703" fill="#84BE84" rx="3" ry="3" style="stroke: #038048; stroke-width: 1.0;"/><text fill="#000000" font-family="sans-serif" font-size="11" lengthAdjust="spacingAndGlyphs" textLength="120" x="214.5" y="268.7808">getUnitPrice(): Money</text><ellipse cx="205.5" cy="278.375" fill="#84BE84" rx="3" ry="3" style="stroke: #038048; stroke-width: 1.0;"/><text fill="#000000" font-family="sans-serif" font-size="11" lengthAdjust="spacingAndGlyphs" textLength="114" x="214.5" y="281.5854">getFactor(): Decimal</text><ellipse cx="205.5" cy="291.1797" fill="#84BE84" rx="3" ry="3" style="stroke: #038048; stroke-width: 1.0;"/><text fill="#000000" font-family="sans-serif" font-size="11" lengthAdjust="spacingAndGlyphs" textLength="89" x="214.5" y="294.3901">getNet(): Money</text><ellipse cx="205.5" cy="303.9844" fill="#84BE84" rx="3" ry="3" style="stroke: #038048; stroke-width: 1.0;"/><text fill="#000000" font-family="sans-serif" font-size="11" lengthAdjust="spacingAndGlyphs" textLength="147" x="214.5" y="307.1948">getUdi(): List&lt;Reference&gt;</text><ellipse cx="205.5" cy="316.7891" fill="#84BE84" rx="3" ry="3" style="stroke: #038048; stroke-width: 1.0;"/><text fill="#000000" font-family="sans-serif" font-size="11" lengthAdjust="spacingAndGlyphs" textLength="201" x="214.5" y="319.9995">getNoteNumber(): List&lt;PositiveInt&gt;</text><ellipse cx="205.5" cy="329.5938" fill="#84BE84" rx="3" ry="3" style="stroke: #038048; stroke-width: 1.0;"/><text fill="#000000" font-family="sans-serif" font-size="11" lengthAdjust="spacingAndGlyphs" textLength="208" x="214.5" y="332.8042">getAdjudication(): List&lt;Adjudication&gt;</text><ellipse cx="205.5" cy="342.3984" fill="#84BE84" rx="3" ry="3" style="stroke: #038048; stroke-width: 1.0;"/><text fill="#000000" font-family="sans-serif" font-size="11" lengthAdjust="spacingAndGlyphs" textLength="180" x="214.5" y="345.6089">getSubDetail(): List&lt;SubDetail&gt;</text><ellipse cx="205.5" cy="355.2031" fill="#84BE84" rx="3" ry="3" style="stroke: #038048; stroke-width: 1.0;"/><text fill="#000000" font-family="sans-serif" font-size="11" lengthAdjust="spacingAndGlyphs" textLength="129" x="214.5" y="358.4136">hasChildren(): boolean</text><ellipse cx="205.5" cy="368.0078" fill="#84BE84" rx="3" ry="3" style="stroke: #038048; stroke-width: 1.0;"/><text fill="#000000" font-family="sans-serif" font-size="11" lengthAdjust="spacingAndGlyphs" textLength="176" x="214.5" y="371.2183">accept(String, int, Visitor): void</text><ellipse cx="205.5" cy="380.8125" fill="#84BE84" rx="3" ry="3" style="stroke: #038048; stroke-width: 1.0;"/><text fill="#000000" font-family="sans-serif" font-size="11" lengthAdjust="spacingAndGlyphs" textLength="107" x="214.5" y="384.0229">toBuilder(): Builder</text><ellipse cx="205.5" cy="393.6172" fill="#84BE84" rx="3" ry="3" style="stroke: #038048; stroke-width: 1.0;"/><text fill="#000000" font-family="sans-serif" font-size="11" lengthAdjust="spacingAndGlyphs" text-decoration="underline" textLength="95" x="214.5" y="396.8276">builder(): Builder</text></a><!--MD5=[efbff6997283c56b83e991a8eeb6a60a]
class com.ibm.fhir.model.type.BackboneElement--><a href="../type/BackboneElement.html" target="_top" title="../type/BackboneElement.html" xlink:actuate="onRequest" xlink:href="../type/BackboneElement.html" xlink:show="new" xlink:title="../type/BackboneElement.html" xlink:type="simple"><rect fill="#FEFECE" filter="url(#f191hqdpzs9y5v)" height="58.7422" id="com.ibm.fhir.model.type.BackboneElement" style="stroke: #A80036; stroke-width: 1.5;" width="159" x="143.5" y="8"/><ellipse cx="158.5" cy="26.9688" fill="#A9DCDF" rx="11" ry="11" style="stroke: #A80036; stroke-width: 1.0;"/><path d="M158.6094,22.3125 L157.4531,27.3906 L159.7813,27.3906 L158.6094,22.3125 Z M157.125,20.0781 L160.1094,20.0781 L163.4688,32.4688 L161.0156,32.4688 L160.25,29.4063 L156.9688,29.4063 L156.2188,32.4688 L153.7813,32.4688 L157.125,20.0781 Z "/><text fill="#000000" font-family="sans-serif" font-size="14" font-style="italic" lengthAdjust="spacingAndGlyphs" textLength="127" x="172.5" y="25.9951">BackboneElement</text><text fill="#000000" font-family="sans-serif" font-size="10" font-style="italic" lengthAdjust="spacingAndGlyphs" textLength="123" x="174.5" y="38.5791">com.ibm.fhir.model.type</text><line style="stroke: #A80036; stroke-width: 1.5;" x1="144.5" x2="301.5" y1="45.9375" y2="45.9375"/><ellipse cx="154.5" cy="56.9375" fill="#84BE84" rx="3" ry="3" style="stroke: #038048; stroke-width: 1.0;"/><text fill="#000000" font-family="sans-serif" font-size="11" font-style="italic" lengthAdjust="spacingAndGlyphs" textLength="107" x="163.5" y="60.1479">toBuilder(): Builder</text></a><!--MD5=[8ebc30c55fa11ea18942ef67d359198f]
class com.ibm.fhir.model.resource.ExplanationOfBenefit.Item--><a href="ExplanationOfBenefit.Item.html" target="_top" title="ExplanationOfBenefit.Item.html" xlink:actuate="onRequest" xlink:href="ExplanationOfBenefit.Item.html" xlink:show="new" xlink:title="ExplanationOfBenefit.Item.html" xlink:type="simple"><rect fill="#FEFECE" filter="url(#f191hqdpzs9y5v)" height="37.9375" id="com.ibm.fhir.model.resource.ExplanationOfBenefit.Item" style="stroke: #A80036; stroke-width: 1.5;" width="209" x="337.5" y="18.5"/><ellipse cx="352.5" cy="37.4688" fill="#ADD1B2" rx="11" ry="11" style="stroke: #A80036; stroke-width: 1.0;"/><path d="M355.4688,43.1094 Q354.8906,43.4063 354.25,43.5469 Q353.6094,43.7031 352.9063,43.7031 Q350.4063,43.7031 349.0781,42.0625 Q347.7656,40.4063 347.7656,37.2813 Q347.7656,34.1563 349.0781,32.5 Q350.4063,30.8438 352.9063,30.8438 Q353.6094,30.8438 354.25,31 Q354.9063,31.1563 355.4688,31.4531 L355.4688,34.1719 Q354.8438,33.5938 354.25,33.3281 Q353.6563,33.0469 353.0313,33.0469 Q351.6875,33.0469 351,34.125 Q350.3125,35.1875 350.3125,37.2813 Q350.3125,39.375 351,40.4531 Q351.6875,41.5156 353.0313,41.5156 Q353.6563,41.5156 354.25,41.25 Q354.8438,40.9688 355.4688,40.3906 L355.4688,43.1094 Z "/><text fill="#000000" font-family="sans-serif" font-size="14" lengthAdjust="spacingAndGlyphs" textLength="177" x="366.5" y="36.4951">ExplanationOfBenefit.Item</text><text fill="#000000" font-family="sans-serif" font-size="10" lengthAdjust="spacingAndGlyphs" textLength="139" x="385.5" y="49.0791">com.ibm.fhir.model.resource</text></a><!--MD5=[5f3edace45fe5f40b54f246a3f410aa1]
class com.ibm.fhir.model.resource.ExplanationOfBenefit.Item.Detail.Builder--><a href="ExplanationOfBenefit.Item.Detail.Builder.html" target="_top" title="ExplanationOfBenefit.Item.Detail.Builder.html" xlink:actuate="onRequest" xlink:href="ExplanationOfBenefit.Item.Detail.Builder.html" xlink:show="new" xlink:title="ExplanationOfBenefit.Item.Detail.Builder.html" xlink:type="simple"><rect fill="#FEFECE" filter="url(#f191hqdpzs9y5v)" height="37.9375" id="com.ibm.fhir.model.resource.ExplanationOfBenefit.Item.Detail.Builder" style="stroke: #A80036; stroke-width: 1.5;" width="304" x="6" y="463"/><ellipse cx="21" cy="481.9688" fill="#ADD1B2" rx="11" ry="11" style="stroke: #A80036; stroke-width: 1.0;"/><path d="M23.9688,487.6094 Q23.3906,487.9063 22.75,488.0469 Q22.1094,488.2031 21.4063,488.2031 Q18.9063,488.2031 17.5781,486.5625 Q16.2656,484.9063 16.2656,481.7813 Q16.2656,478.6563 17.5781,477 Q18.9063,475.3438 21.4063,475.3438 Q22.1094,475.3438 22.75,475.5 Q23.4063,475.6563 23.9688,475.9531 L23.9688,478.6719 Q23.3438,478.0938 22.75,477.8281 Q22.1563,477.5469 21.5313,477.5469 Q20.1875,477.5469 19.5,478.625 Q18.8125,479.6875 18.8125,481.7813 Q18.8125,483.875 19.5,484.9531 Q20.1875,486.0156 21.5313,486.0156 Q22.1563,486.0156 22.75,485.75 Q23.3438,485.4688 23.9688,484.8906 L23.9688,487.6094 Z "/><text fill="#000000" font-family="sans-serif" font-size="14" lengthAdjust="spacingAndGlyphs" textLength="272" x="35" y="480.9951">ExplanationOfBenefit.Item.Detail.Builder</text><text fill="#000000" font-family="sans-serif" font-size="10" lengthAdjust="spacingAndGlyphs" textLength="139" x="101.5" y="493.5791">com.ibm.fhir.model.resource</text></a><!--MD5=[7c9f9b5053371557616e57aa12fbef13]
class com.ibm.fhir.model.resource.ExplanationOfBenefit.Item.Detail.SubDetail--><a href="ExplanationOfBenefit.Item.Detail.SubDetail.html" target="_top" title="ExplanationOfBenefit.Item.Detail.SubDetail.html" xlink:actuate="onRequest" xlink:href="ExplanationOfBenefit.Item.Detail.SubDetail.html" xlink:show="new" xlink:title="ExplanationOfBenefit.Item.Detail.SubDetail.html" xlink:type="simple"><rect fill="#FEFECE" filter="url(#f191hqdpzs9y5v)" height="37.9375" id="com.ibm.fhir.model.resource.ExplanationOfBenefit.Item.Detail.SubDetail" style="stroke: #A80036; stroke-width: 1.5;" width="322" x="345" y="463"/><ellipse cx="360" cy="481.9688" fill="#ADD1B2" rx="11" ry="11" style="stroke: #A80036; stroke-width: 1.0;"/><path d="M362.9688,487.6094 Q362.3906,487.9063 361.75,488.0469 Q361.1094,488.2031 360.4063,488.2031 Q357.9063,488.2031 356.5781,486.5625 Q355.2656,484.9063 355.2656,481.7813 Q355.2656,478.6563 356.5781,477 Q357.9063,475.3438 360.4063,475.3438 Q361.1094,475.3438 361.75,475.5 Q362.4063,475.6563 362.9688,475.9531 L362.9688,478.6719 Q362.3438,478.0938 361.75,477.8281 Q361.1563,477.5469 360.5313,477.5469 Q359.1875,477.5469 358.5,478.625 Q357.8125,479.6875 357.8125,481.7813 Q357.8125,483.875 358.5,484.9531 Q359.1875,486.0156 360.5313,486.0156 Q361.1563,486.0156 361.75,485.75 Q362.3438,485.4688 362.9688,484.8906 L362.9688,487.6094 Z "/><text fill="#000000" font-family="sans-serif" font-size="14" lengthAdjust="spacingAndGlyphs" textLength="290" x="374" y="480.9951">ExplanationOfBenefit.Item.Detail.SubDetail</text><text fill="#000000" font-family="sans-serif" font-size="10" lengthAdjust="spacingAndGlyphs" textLength="139" x="449.5" y="493.5791">com.ibm.fhir.model.resource</text></a><!--MD5=[081afd431fea2dde6fcc6f6e79b0f1bc]
reverse link com.ibm.fhir.model.type.BackboneElement to com.ibm.fhir.model.resource.ExplanationOfBenefit.Item.Detail--><path d="M245.9812,85.4653 C251.9919,98.0107 258.7821,112.1828 265.8462,126.9268 " fill="none" id="com.ibm.fhir.model.type.BackboneElement&lt;-com.ibm.fhir.model.resource.ExplanationOfBenefit.Item.Detail" style="stroke: #A80036; stroke-width: 1.0;"/><polygon fill="none" points="239.5788,88.3029,237.2498,67.2417,252.2045,82.2537,239.5788,88.3029" style="stroke: #A80036; stroke-width: 1.0;"/><!--MD5=[df0a789ac88d52f69606ca3e5f9c2d16]
reverse link com.ibm.fhir.model.resource.ExplanationOfBenefit.Item to com.ibm.fhir.model.resource.ExplanationOfBenefit.Item.Detail--><path d="M426.2242,70.1273 C418.6402,85.8123 408.9818,105.7877 398.7545,126.9395 " fill="none" id="com.ibm.fhir.model.resource.ExplanationOfBenefit.Item&lt;-com.ibm.fhir.model.resource.ExplanationOfBenefit.Item.Detail" style="stroke: #A80036; stroke-width: 1.0;"/><ellipse cx="429.3282" cy="63.7074" fill="#FFFFFF" rx="8" ry="8" style="stroke: #A80036; stroke-width: 1.0;"/><line style="stroke: #A80036; stroke-width: 1.0;" x1="425.8457" x2="432.8107" y1="70.9097" y2="56.5052"/><line style="stroke: #A80036; stroke-width: 1.0;" x1="422.126" x2="436.5304" y1="60.2249" y2="67.1899"/><!--MD5=[defeaee3980062a02374540334808eb7]
reverse link com.ibm.fhir.model.resource.ExplanationOfBenefit.Item.Detail to com.ibm.fhir.model.resource.ExplanationOfBenefit.Item.Detail.Builder--><path d="M211.7276,414.9949 C196.6317,433.8214 183.1093,450.6855 173.4067,462.7859 " fill="none" id="com.ibm.fhir.model.resource.ExplanationOfBenefit.Item.Detail&lt;-com.ibm.fhir.model.resource.ExplanationOfBenefit.Item.Detail.Builder" style="stroke: #A80036; stroke-width: 1.0;"/><ellipse cx="216.3056" cy="409.2855" fill="#FFFFFF" rx="8" ry="8" style="stroke: #A80036; stroke-width: 1.0;"/><line style="stroke: #A80036; stroke-width: 1.0;" x1="211.301" x2="221.3102" y1="415.5268" y2="403.0442"/><line style="stroke: #A80036; stroke-width: 1.0;" x1="210.0643" x2="222.5469" y1="404.2809" y2="414.2901"/><!--MD5=[ac232dd97950f154f7bcc7f840d12e42]
reverse link com.ibm.fhir.model.resource.ExplanationOfBenefit.Item.Detail to com.ibm.fhir.model.resource.ExplanationOfBenefit.Item.Detail.SubDetail--><path d="M452.2724,414.9949 C467.3683,433.8214 480.8907,450.6855 490.5933,462.7859 " fill="none" id="com.ibm.fhir.model.resource.ExplanationOfBenefit.Item.Detail&lt;-com.ibm.fhir.model.resource.ExplanationOfBenefit.Item.Detail.SubDetail" style="stroke: #A80036; stroke-width: 1.0;"/><ellipse cx="447.6944" cy="409.2855" fill="#FFFFFF" rx="8" ry="8" style="stroke: #A80036; stroke-width: 1.0;"/><line style="stroke: #A80036; stroke-width: 1.0;" x1="452.699" x2="442.6898" y1="415.5268" y2="403.0442"/><line style="stroke: #A80036; stroke-width: 1.0;" x1="441.4531" x2="453.9357" y1="414.2901" y2="404.2809"/><text fill="#888888" font-family="sans-serif" font-size="10" lengthAdjust="spacingAndGlyphs" textLength="186" x="249.5" y="520.2822">UMLDoclet 2.0.7, PlantUML 1.2019.12</text><!--MD5=[a1467dd59e6e1eb538fe2e25400e429e]
@startuml
    set namespaceSeparator none
    hide empty fields
    hide empty methods

    class "<size:14>ExplanationOfBenefit.Item.Detail\n<size:10>com.ibm.fhir.model.resource" as com.ibm.fhir.model.resource.ExplanationOfBenefit.Item.Detail [[ExplanationOfBenefit.Item.Detail.html]] {
        +getSequence(): PositiveInt
        +getRevenue(): CodeableConcept
        +getCategory(): CodeableConcept
        +getProductOrService(): CodeableConcept
        +getModifier(): List<CodeableConcept>
        +getProgramCode(): List<CodeableConcept>
        +getQuantity(): SimpleQuantity
        +getUnitPrice(): Money
        +getFactor(): Decimal
        +getNet(): Money
        +getUdi(): List<Reference>
        +getNoteNumber(): List<PositiveInt>
        +getAdjudication(): List<Adjudication>
        +getSubDetail(): List<SubDetail>
        +hasChildren(): boolean
        +accept(String, int, Visitor): void
        +toBuilder(): Builder
        {static} +builder(): Builder
    }

    abstract class "<size:14>BackboneElement\n<size:10>com.ibm.fhir.model.type" as com.ibm.fhir.model.type.BackboneElement [[../type/BackboneElement.html]] {
        {abstract} +toBuilder(): Builder
    }
    class "<size:14>ExplanationOfBenefit.Item\n<size:10>com.ibm.fhir.model.resource" as com.ibm.fhir.model.resource.ExplanationOfBenefit.Item [[ExplanationOfBenefit.Item.html]]
    class "<size:14>ExplanationOfBenefit.Item.Detail.Builder\n<size:10>com.ibm.fhir.model.resource" as com.ibm.fhir.model.resource.ExplanationOfBenefit.Item.Detail.Builder [[ExplanationOfBenefit.Item.Detail.Builder.html]]
    class "<size:14>ExplanationOfBenefit.Item.Detail.SubDetail\n<size:10>com.ibm.fhir.model.resource" as com.ibm.fhir.model.resource.ExplanationOfBenefit.Item.Detail.SubDetail [[ExplanationOfBenefit.Item.Detail.SubDetail.html]]

    com.ibm.fhir.model.type.BackboneElement <|- - com.ibm.fhir.model.resource.ExplanationOfBenefit.Item.Detail
    com.ibm.fhir.model.resource.ExplanationOfBenefit.Item +- - com.ibm.fhir.model.resource.ExplanationOfBenefit.Item.Detail
    com.ibm.fhir.model.resource.ExplanationOfBenefit.Item.Detail +- - com.ibm.fhir.model.resource.ExplanationOfBenefit.Item.Detail.Builder
    com.ibm.fhir.model.resource.ExplanationOfBenefit.Item.Detail +- - com.ibm.fhir.model.resource.ExplanationOfBenefit.Item.Detail.SubDetail

    center footer UMLDoclet 2.0.7, PlantUML 1.2019.12
@enduml

PlantUML version 1.2019.12(Sun Nov 03 10:24:54 UTC 2019)
(APACHE source distribution)
Java Runtime: OpenJDK Runtime Environment
JVM: OpenJDK 64-Bit Server VM
Java Version: 11.0.10+9
Operating System: Linux
Default Encoding: UTF-8
Language: en
Country: null
--></g></svg>