<?xml version="1.0" encoding="UTF-8" standalone="no"?><svg xmlns="http://www.w3.org/2000/svg" xmlns:xlink="http://www.w3.org/1999/xlink" contentScriptType="application/ecmascript" contentStyleType="text/css" height="559px" preserveAspectRatio="none" style="width:600px;height:559px;" version="1.1" viewBox="0 0 600 559" width="600px" zoomAndPan="magnify"><defs><filter height="300%" id="f1lkk8wj3uv7lg" width="300%" x="-1" y="-1"><feGaussianBlur result="blurOut" stdDeviation="2.0"/><feColorMatrix in="blurOut" result="blurOut2" type="matrix" values="0 0 0 0 0 0 0 0 0 0 0 0 0 0 0 0 0 0 .4 0"/><feOffset dx="4.0" dy="4.0" in="blurOut2" result="blurOut3"/><feBlend in="SourceGraphic" in2="blurOut3" mode="normal"/></filter></defs><g><!--MD5=[d29518afa586cc2fbe08450eb4109abb]
class com.ibm.fhir.model.resource.Invoice--><a href="Invoice.html" target="_top" title="Invoice.html" xlink:actuate="onRequest" xlink:href="Invoice.html" xlink:show="new" xlink:title="Invoice.html" xlink:type="simple"><rect fill="#FEFECE" filter="url(#f1lkk8wj3uv7lg)" height="302.0313" id="com.ibm.fhir.model.resource.Invoice" style="stroke: #A80036; stroke-width: 1.5;" width="312" x="141.5" y="127"/><ellipse cx="223.75" cy="145.9688" fill="#ADD1B2" rx="11" ry="11" style="stroke: #A80036; stroke-width: 1.0;"/><path d="M226.7188,151.6094 Q226.1406,151.9063 225.5,152.0469 Q224.8594,152.2031 224.1563,152.2031 Q221.6563,152.2031 220.3281,150.5625 Q219.0156,148.9063 219.0156,145.7813 Q219.0156,142.6563 220.3281,141 Q221.6563,139.3438 224.1563,139.3438 Q224.8594,139.3438 225.5,139.5 Q226.1563,139.6563 226.7188,139.9531 L226.7188,142.6719 Q226.0938,142.0938 225.5,141.8281 Q224.9063,141.5469 224.2813,141.5469 Q222.9375,141.5469 222.25,142.625 Q221.5625,143.6875 221.5625,145.7813 Q221.5625,147.875 222.25,148.9531 Q222.9375,150.0156 224.2813,150.0156 Q224.9063,150.0156 225.5,149.75 Q226.0938,149.4688 226.7188,148.8906 L226.7188,151.6094 Z "/><text fill="#000000" font-family="sans-serif" font-size="14" lengthAdjust="spacingAndGlyphs" textLength="48" x="289.75" y="144.9951">Invoice</text><text fill="#000000" font-family="sans-serif" font-size="10" lengthAdjust="spacingAndGlyphs" textLength="139" x="244.25" y="157.5791">com.ibm.fhir.model.resource</text><line style="stroke: #A80036; stroke-width: 1.5;" x1="142.5" x2="452.5" y1="164.9375" y2="164.9375"/><ellipse cx="152.5" cy="175.9375" fill="#84BE84" rx="3" ry="3" style="stroke: #038048; stroke-width: 1.0;"/><text fill="#000000" font-family="sans-serif" font-size="11" lengthAdjust="spacingAndGlyphs" textLength="172" x="161.5" y="179.1479">getIdentifier(): List&lt;Identifier&gt;</text><ellipse cx="152.5" cy="188.7422" fill="#84BE84" rx="3" ry="3" style="stroke: #038048; stroke-width: 1.0;"/><text fill="#000000" font-family="sans-serif" font-size="11" lengthAdjust="spacingAndGlyphs" textLength="147" x="161.5" y="191.9526">getStatus(): InvoiceStatus</text><ellipse cx="152.5" cy="201.5469" fill="#84BE84" rx="3" ry="3" style="stroke: #038048; stroke-width: 1.0;"/><text fill="#000000" font-family="sans-serif" font-size="11" lengthAdjust="spacingAndGlyphs" textLength="165" x="161.5" y="204.7573">getCancelledReason(): String</text><ellipse cx="152.5" cy="214.3516" fill="#84BE84" rx="3" ry="3" style="stroke: #038048; stroke-width: 1.0;"/><text fill="#000000" font-family="sans-serif" font-size="11" lengthAdjust="spacingAndGlyphs" textLength="160" x="161.5" y="217.562">getType(): CodeableConcept</text><ellipse cx="152.5" cy="227.1563" fill="#84BE84" rx="3" ry="3" style="stroke: #038048; stroke-width: 1.0;"/><text fill="#000000" font-family="sans-serif" font-size="11" lengthAdjust="spacingAndGlyphs" textLength="133" x="161.5" y="230.3667">getSubject(): Reference</text><ellipse cx="152.5" cy="239.9609" fill="#84BE84" rx="3" ry="3" style="stroke: #038048; stroke-width: 1.0;"/><text fill="#000000" font-family="sans-serif" font-size="11" lengthAdjust="spacingAndGlyphs" textLength="142" x="161.5" y="243.1714">getRecipient(): Reference</text><ellipse cx="152.5" cy="252.7656" fill="#84BE84" rx="3" ry="3" style="stroke: #038048; stroke-width: 1.0;"/><text fill="#000000" font-family="sans-serif" font-size="11" lengthAdjust="spacingAndGlyphs" textLength="114" x="161.5" y="255.9761">getDate(): DateTime</text><ellipse cx="152.5" cy="265.5703" fill="#84BE84" rx="3" ry="3" style="stroke: #038048; stroke-width: 1.0;"/><text fill="#000000" font-family="sans-serif" font-size="11" lengthAdjust="spacingAndGlyphs" textLength="192" x="161.5" y="268.7808">getParticipant(): List&lt;Participant&gt;</text><ellipse cx="152.5" cy="278.375" fill="#84BE84" rx="3" ry="3" style="stroke: #038048; stroke-width: 1.0;"/><text fill="#000000" font-family="sans-serif" font-size="11" lengthAdjust="spacingAndGlyphs" textLength="127" x="161.5" y="281.5854">getIssuer(): Reference</text><ellipse cx="152.5" cy="291.1797" fill="#84BE84" rx="3" ry="3" style="stroke: #038048; stroke-width: 1.0;"/><text fill="#000000" font-family="sans-serif" font-size="11" lengthAdjust="spacingAndGlyphs" textLength="135" x="161.5" y="294.3901">getAccount(): Reference</text><ellipse cx="152.5" cy="303.9844" fill="#84BE84" rx="3" ry="3" style="stroke: #038048; stroke-width: 1.0;"/><text fill="#000000" font-family="sans-serif" font-size="11" lengthAdjust="spacingAndGlyphs" textLength="168" x="161.5" y="307.1948">getLineItem(): List&lt;LineItem&gt;</text><ellipse cx="152.5" cy="316.7891" fill="#84BE84" rx="3" ry="3" style="stroke: #038048; stroke-width: 1.0;"/><text fill="#000000" font-family="sans-serif" font-size="11" lengthAdjust="spacingAndGlyphs" textLength="286" x="161.5" y="319.9995">getTotalPriceComponent(): List&lt;PriceComponent&gt;</text><ellipse cx="152.5" cy="329.5938" fill="#84BE84" rx="3" ry="3" style="stroke: #038048; stroke-width: 1.0;"/><text fill="#000000" font-family="sans-serif" font-size="11" lengthAdjust="spacingAndGlyphs" textLength="117" x="161.5" y="332.8042">getTotalNet(): Money</text><ellipse cx="152.5" cy="342.3984" fill="#84BE84" rx="3" ry="3" style="stroke: #038048; stroke-width: 1.0;"/><text fill="#000000" font-family="sans-serif" font-size="11" lengthAdjust="spacingAndGlyphs" textLength="133" x="161.5" y="345.6089">getTotalGross(): Money</text><ellipse cx="152.5" cy="355.2031" fill="#84BE84" rx="3" ry="3" style="stroke: #038048; stroke-width: 1.0;"/><text fill="#000000" font-family="sans-serif" font-size="11" lengthAdjust="spacingAndGlyphs" textLength="177" x="161.5" y="358.4136">getPaymentTerms(): Markdown</text><ellipse cx="152.5" cy="368.0078" fill="#84BE84" rx="3" ry="3" style="stroke: #038048; stroke-width: 1.0;"/><text fill="#000000" font-family="sans-serif" font-size="11" lengthAdjust="spacingAndGlyphs" textLength="158" x="161.5" y="371.2183">getNote(): List&lt;Annotation&gt;</text><ellipse cx="152.5" cy="380.8125" fill="#84BE84" rx="3" ry="3" style="stroke: #038048; stroke-width: 1.0;"/><text fill="#000000" font-family="sans-serif" font-size="11" lengthAdjust="spacingAndGlyphs" textLength="129" x="161.5" y="384.0229">hasChildren(): boolean</text><ellipse cx="152.5" cy="393.6172" fill="#84BE84" rx="3" ry="3" style="stroke: #038048; stroke-width: 1.0;"/><text fill="#000000" font-family="sans-serif" font-size="11" lengthAdjust="spacingAndGlyphs" textLength="176" x="161.5" y="396.8276">accept(String, int, Visitor): void</text><ellipse cx="152.5" cy="406.4219" fill="#84BE84" rx="3" ry="3" style="stroke: #038048; stroke-width: 1.0;"/><text fill="#000000" font-family="sans-serif" font-size="11" lengthAdjust="spacingAndGlyphs" textLength="107" x="161.5" y="409.6323">toBuilder(): Builder</text><ellipse cx="152.5" cy="419.2266" fill="#84BE84" rx="3" ry="3" style="stroke: #038048; stroke-width: 1.0;"/><text fill="#000000" font-family="sans-serif" font-size="11" lengthAdjust="spacingAndGlyphs" text-decoration="underline" textLength="95" x="161.5" y="422.437">builder(): Builder</text></a><!--MD5=[5a92b081cf79a7020013158c64ef85a4]
class com.ibm.fhir.model.resource.DomainResource--><a href="DomainResource.html" target="_top" title="DomainResource.html" xlink:actuate="onRequest" xlink:href="DomainResource.html" xlink:show="new" xlink:title="DomainResource.html" xlink:type="simple"><rect fill="#FEFECE" filter="url(#f1lkk8wj3uv7lg)" height="58.7422" id="com.ibm.fhir.model.resource.DomainResource" style="stroke: #A80036; stroke-width: 1.5;" width="176" x="209.5" y="8"/><ellipse cx="224.5" cy="26.9688" fill="#A9DCDF" rx="11" ry="11" style="stroke: #A80036; stroke-width: 1.0;"/><path d="M224.6094,22.3125 L223.4531,27.3906 L225.7813,27.3906 L224.6094,22.3125 Z M223.125,20.0781 L226.1094,20.0781 L229.4688,32.4688 L227.0156,32.4688 L226.25,29.4063 L222.9688,29.4063 L222.2188,32.4688 L219.7813,32.4688 L223.125,20.0781 Z "/><text fill="#000000" font-family="sans-serif" font-size="14" font-style="italic" lengthAdjust="spacingAndGlyphs" textLength="119" x="251" y="25.9951">DomainResource</text><text fill="#000000" font-family="sans-serif" font-size="10" font-style="italic" lengthAdjust="spacingAndGlyphs" textLength="144" x="238.5" y="38.5791">com.ibm.fhir.model.resource</text><line style="stroke: #A80036; stroke-width: 1.5;" x1="210.5" x2="384.5" y1="45.9375" y2="45.9375"/><ellipse cx="220.5" cy="56.9375" fill="#84BE84" rx="3" ry="3" style="stroke: #038048; stroke-width: 1.0;"/><text fill="#000000" font-family="sans-serif" font-size="11" font-style="italic" lengthAdjust="spacingAndGlyphs" textLength="107" x="229.5" y="60.1479">toBuilder(): Builder</text></a><!--MD5=[285eed59b2e93297799d49623e21f993]
class com.ibm.fhir.model.resource.Invoice.Builder--><a href="Invoice.Builder.html" target="_top" title="Invoice.Builder.html" xlink:actuate="onRequest" xlink:href="Invoice.Builder.html" xlink:show="new" xlink:title="Invoice.Builder.html" xlink:type="simple"><rect fill="#FEFECE" filter="url(#f1lkk8wj3uv7lg)" height="37.9375" id="com.ibm.fhir.model.resource.Invoice.Builder" style="stroke: #A80036; stroke-width: 1.5;" width="171" x="6" y="489"/><ellipse cx="21" cy="507.9688" fill="#ADD1B2" rx="11" ry="11" style="stroke: #A80036; stroke-width: 1.0;"/><path d="M23.9688,513.6094 Q23.3906,513.9063 22.75,514.0469 Q22.1094,514.2031 21.4063,514.2031 Q18.9063,514.2031 17.5781,512.5625 Q16.2656,510.9063 16.2656,507.7813 Q16.2656,504.6563 17.5781,503 Q18.9063,501.3438 21.4063,501.3438 Q22.1094,501.3438 22.75,501.5 Q23.4063,501.6563 23.9688,501.9531 L23.9688,504.6719 Q23.3438,504.0938 22.75,503.8281 Q22.1563,503.5469 21.5313,503.5469 Q20.1875,503.5469 19.5,504.625 Q18.8125,505.6875 18.8125,507.7813 Q18.8125,509.875 19.5,510.9531 Q20.1875,512.0156 21.5313,512.0156 Q22.1563,512.0156 22.75,511.75 Q23.3438,511.4688 23.9688,510.8906 L23.9688,513.6094 Z "/><text fill="#000000" font-family="sans-serif" font-size="14" lengthAdjust="spacingAndGlyphs" textLength="100" x="54.5" y="506.9951">Invoice.Builder</text><text fill="#000000" font-family="sans-serif" font-size="10" lengthAdjust="spacingAndGlyphs" textLength="139" x="35" y="519.5791">com.ibm.fhir.model.resource</text></a><!--MD5=[125680135201d8a524c5d46f731b86ac]
class com.ibm.fhir.model.resource.Invoice.Participant--><a href="Invoice.Participant.html" target="_top" title="Invoice.Participant.html" xlink:actuate="onRequest" xlink:href="Invoice.Participant.html" xlink:show="new" xlink:title="Invoice.Participant.html" xlink:type="simple"><rect fill="#FEFECE" filter="url(#f1lkk8wj3uv7lg)" height="37.9375" id="com.ibm.fhir.model.resource.Invoice.Participant" style="stroke: #A80036; stroke-width: 1.5;" width="171" x="212" y="489"/><ellipse cx="227" cy="507.9688" fill="#ADD1B2" rx="11" ry="11" style="stroke: #A80036; stroke-width: 1.0;"/><path d="M229.9688,513.6094 Q229.3906,513.9063 228.75,514.0469 Q228.1094,514.2031 227.4063,514.2031 Q224.9063,514.2031 223.5781,512.5625 Q222.2656,510.9063 222.2656,507.7813 Q222.2656,504.6563 223.5781,503 Q224.9063,501.3438 227.4063,501.3438 Q228.1094,501.3438 228.75,501.5 Q229.4063,501.6563 229.9688,501.9531 L229.9688,504.6719 Q229.3438,504.0938 228.75,503.8281 Q228.1563,503.5469 227.5313,503.5469 Q226.1875,503.5469 225.5,504.625 Q224.8125,505.6875 224.8125,507.7813 Q224.8125,509.875 225.5,510.9531 Q226.1875,512.0156 227.5313,512.0156 Q228.1563,512.0156 228.75,511.75 Q229.3438,511.4688 229.9688,510.8906 L229.9688,513.6094 Z "/><text fill="#000000" font-family="sans-serif" font-size="14" lengthAdjust="spacingAndGlyphs" textLength="124" x="248.5" y="506.9951">Invoice.Participant</text><text fill="#000000" font-family="sans-serif" font-size="10" lengthAdjust="spacingAndGlyphs" textLength="139" x="241" y="519.5791">com.ibm.fhir.model.resource</text></a><!--MD5=[1207ff2b8ea407fd889da3d5eb3720ad]
class com.ibm.fhir.model.resource.Invoice.LineItem--><a href="Invoice.LineItem.html" target="_top" title="Invoice.LineItem.html" xlink:actuate="onRequest" xlink:href="Invoice.LineItem.html" xlink:show="new" xlink:title="Invoice.LineItem.html" xlink:type="simple"><rect fill="#FEFECE" filter="url(#f1lkk8wj3uv7lg)" height="37.9375" id="com.ibm.fhir.model.resource.Invoice.LineItem" style="stroke: #A80036; stroke-width: 1.5;" width="171" x="418" y="489"/><ellipse cx="433" cy="507.9688" fill="#ADD1B2" rx="11" ry="11" style="stroke: #A80036; stroke-width: 1.0;"/><path d="M435.9688,513.6094 Q435.3906,513.9063 434.75,514.0469 Q434.1094,514.2031 433.4063,514.2031 Q430.9063,514.2031 429.5781,512.5625 Q428.2656,510.9063 428.2656,507.7813 Q428.2656,504.6563 429.5781,503 Q430.9063,501.3438 433.4063,501.3438 Q434.1094,501.3438 434.75,501.5 Q435.4063,501.6563 435.9688,501.9531 L435.9688,504.6719 Q435.3438,504.0938 434.75,503.8281 Q434.1563,503.5469 433.5313,503.5469 Q432.1875,503.5469 431.5,504.625 Q430.8125,505.6875 430.8125,507.7813 Q430.8125,509.875 431.5,510.9531 Q432.1875,512.0156 433.5313,512.0156 Q434.1563,512.0156 434.75,511.75 Q435.3438,511.4688 435.9688,510.8906 L435.9688,513.6094 Z "/><text fill="#000000" font-family="sans-serif" font-size="14" lengthAdjust="spacingAndGlyphs" textLength="110" x="461.5" y="506.9951">Invoice.LineItem</text><text fill="#000000" font-family="sans-serif" font-size="10" lengthAdjust="spacingAndGlyphs" textLength="139" x="447" y="519.5791">com.ibm.fhir.model.resource</text></a><!--MD5=[60f915ad54fbe312b689969ec5f29e2c]
reverse link com.ibm.fhir.model.resource.DomainResource to com.ibm.fhir.model.resource.Invoice--><path d="M297.5,87.7632 C297.5,99.6371 297.5,112.9074 297.5,126.7669 " fill="none" id="com.ibm.fhir.model.resource.DomainResource&lt;-com.ibm.fhir.model.resource.Invoice" style="stroke: #A80036; stroke-width: 1.0;"/><polygon fill="none" points="290.5001,87.4733,297.5,67.4732,304.5001,87.4732,290.5001,87.4733" style="stroke: #A80036; stroke-width: 1.0;"/><!--MD5=[2ea403f332177d483159b2014070ae34]
reverse link com.ibm.fhir.model.resource.Invoice to com.ibm.fhir.model.resource.Invoice.Builder--><path d="M152.0401,440.4067 C134.7838,459.6734 119.455,476.7881 108.5393,488.9756 " fill="none" id="com.ibm.fhir.model.resource.Invoice&lt;-com.ibm.fhir.model.resource.Invoice.Builder" style="stroke: #A80036; stroke-width: 1.0;"/><ellipse cx="156.7679" cy="435.128" fill="#FFFFFF" rx="8" ry="8" style="stroke: #A80036; stroke-width: 1.0;"/><line style="stroke: #A80036; stroke-width: 1.0;" x1="151.4305" x2="162.1053" y1="441.0872" y2="429.1688"/><line style="stroke: #A80036; stroke-width: 1.0;" x1="150.8087" x2="162.7271" y1="429.7906" y2="440.4654"/><!--MD5=[7d77bfd70188630ad8387cfef1ee1f78]
reverse link com.ibm.fhir.model.resource.Invoice to com.ibm.fhir.model.resource.Invoice.Participant--><path d="M297.5,444.4069 C297.5,462.0375 297.5,477.6384 297.5,488.9756 " fill="none" id="com.ibm.fhir.model.resource.Invoice&lt;-com.ibm.fhir.model.resource.Invoice.Participant" style="stroke: #A80036; stroke-width: 1.0;"/><ellipse cx="297.5001" cy="437.1688" fill="#FFFFFF" rx="8" ry="8" style="stroke: #A80036; stroke-width: 1.0;"/><line style="stroke: #A80036; stroke-width: 1.0;" x1="297.5002" x2="297.5" y1="445.1688" y2="429.1688"/><line style="stroke: #A80036; stroke-width: 1.0;" x1="289.5001" x2="305.5001" y1="437.1689" y2="437.1687"/><!--MD5=[2b2e5c64fc369124f48eaa6a2569483a]
reverse link com.ibm.fhir.model.resource.Invoice to com.ibm.fhir.model.resource.Invoice.LineItem--><path d="M442.9599,440.4067 C460.2162,459.6734 475.545,476.7881 486.4607,488.9756 " fill="none" id="com.ibm.fhir.model.resource.Invoice&lt;-com.ibm.fhir.model.resource.Invoice.LineItem" style="stroke: #A80036; stroke-width: 1.0;"/><ellipse cx="438.2321" cy="435.128" fill="#FFFFFF" rx="8" ry="8" style="stroke: #A80036; stroke-width: 1.0;"/><line style="stroke: #A80036; stroke-width: 1.0;" x1="443.5695" x2="432.8947" y1="441.0872" y2="429.1688"/><line style="stroke: #A80036; stroke-width: 1.0;" x1="432.2729" x2="444.1913" y1="440.4654" y2="429.7906"/><text fill="#888888" font-family="sans-serif" font-size="10" lengthAdjust="spacingAndGlyphs" textLength="186" x="210.5" y="546.2822">UMLDoclet 2.0.7, PlantUML 1.2019.12</text><!--MD5=[5d7a9121630316bfe87f5c86890d36bf]
@startuml
    set namespaceSeparator none
    hide empty fields
    hide empty methods

    class "<size:14>Invoice\n<size:10>com.ibm.fhir.model.resource" as com.ibm.fhir.model.resource.Invoice [[Invoice.html]] {
        +getIdentifier(): List<Identifier>
        +getStatus(): InvoiceStatus
        +getCancelledReason(): String
        +getType(): CodeableConcept
        +getSubject(): Reference
        +getRecipient(): Reference
        +getDate(): DateTime
        +getParticipant(): List<Participant>
        +getIssuer(): Reference
        +getAccount(): Reference
        +getLineItem(): List<LineItem>
        +getTotalPriceComponent(): List<PriceComponent>
        +getTotalNet(): Money
        +getTotalGross(): Money
        +getPaymentTerms(): Markdown
        +getNote(): List<Annotation>
        +hasChildren(): boolean
        +accept(String, int, Visitor): void
        +toBuilder(): Builder
        {static} +builder(): Builder
    }

    abstract class "<size:14>DomainResource\n<size:10>com.ibm.fhir.model.resource" as com.ibm.fhir.model.resource.DomainResource [[DomainResource.html]] {
        {abstract} +toBuilder(): Builder
    }
    class "<size:14>Invoice.Builder\n<size:10>com.ibm.fhir.model.resource" as com.ibm.fhir.model.resource.Invoice.Builder [[Invoice.Builder.html]]
    class "<size:14>Invoice.Participant\n<size:10>com.ibm.fhir.model.resource" as com.ibm.fhir.model.resource.Invoice.Participant [[Invoice.Participant.html]]
    class "<size:14>Invoice.LineItem\n<size:10>com.ibm.fhir.model.resource" as com.ibm.fhir.model.resource.Invoice.LineItem [[Invoice.LineItem.html]]

    com.ibm.fhir.model.resource.DomainResource <|- - com.ibm.fhir.model.resource.Invoice
    com.ibm.fhir.model.resource.Invoice +- - com.ibm.fhir.model.resource.Invoice.Builder
    com.ibm.fhir.model.resource.Invoice +- - com.ibm.fhir.model.resource.Invoice.Participant
    com.ibm.fhir.model.resource.Invoice +- - com.ibm.fhir.model.resource.Invoice.LineItem

    center footer UMLDoclet 2.0.7, PlantUML 1.2019.12
@enduml

PlantUML version 1.2019.12(Sun Nov 03 10:24:54 UTC 2019)
(APACHE source distribution)
Java Runtime: OpenJDK Runtime Environment
JVM: OpenJDK 64-Bit Server VM
Java Version: 11.0.10+9
Operating System: Linux
Default Encoding: UTF-8
Language: en
Country: null
--></g></svg>