<?xml version="1.0" encoding="UTF-8" standalone="no"?><svg xmlns="http://www.w3.org/2000/svg" xmlns:xlink="http://www.w3.org/1999/xlink" contentScriptType="application/ecmascript" contentStyleType="text/css" height="359px" preserveAspectRatio="none" style="width:463px;height:359px;" version="1.1" viewBox="0 0 463 359" width="463px" zoomAndPan="magnify"><defs><filter height="300%" id="f1i3hevz1yt9pn" width="300%" x="-1" y="-1"><feGaussianBlur result="blurOut" stdDeviation="2.0"/><feColorMatrix in="blurOut" result="blurOut2" type="matrix" values="0 0 0 0 0 0 0 0 0 0 0 0 0 0 0 0 0 0 .4 0"/><feOffset dx="4.0" dy="4.0" in="blurOut2" result="blurOut3"/><feBlend in="SourceGraphic" in2="blurOut3" mode="normal"/></filter></defs><g><!--MD5=[cbb57ab06a3df1ee1866dcae7eeca964]
class com.ibm.fhir.model.resource.NamingSystem.UniqueId.Builder--><a href="NamingSystem.UniqueId.Builder.html" target="_top" title="NamingSystem.UniqueId.Builder.html" xlink:actuate="onRequest" xlink:href="NamingSystem.UniqueId.Builder.html" xlink:show="new" xlink:title="NamingSystem.UniqueId.Builder.html" xlink:type="simple"><rect fill="#FEFECE" filter="url(#f1i3hevz1yt9pn)" height="199.5938" id="com.ibm.fhir.model.resource.NamingSystem.UniqueId.Builder" style="stroke: #A80036; stroke-width: 1.5;" width="312" x="75.5" y="127"/><ellipse cx="117.5" cy="145.9688" fill="#ADD1B2" rx="11" ry="11" style="stroke: #A80036; stroke-width: 1.0;"/><path d="M120.4688,151.6094 Q119.8906,151.9063 119.25,152.0469 Q118.6094,152.2031 117.9063,152.2031 Q115.4063,152.2031 114.0781,150.5625 Q112.7656,148.9063 112.7656,145.7813 Q112.7656,142.6563 114.0781,141 Q115.4063,139.3438 117.9063,139.3438 Q118.6094,139.3438 119.25,139.5 Q119.9063,139.6563 120.4688,139.9531 L120.4688,142.6719 Q119.8438,142.0938 119.25,141.8281 Q118.6563,141.5469 118.0313,141.5469 Q116.6875,141.5469 116,142.625 Q115.3125,143.6875 115.3125,145.7813 Q115.3125,147.875 116,148.9531 Q116.6875,150.0156 118.0313,150.0156 Q118.6563,150.0156 119.25,149.75 Q119.8438,149.4688 120.4688,148.8906 L120.4688,151.6094 Z "/><text fill="#000000" font-family="sans-serif" font-size="14" lengthAdjust="spacingAndGlyphs" textLength="220" x="137.5" y="144.9951">NamingSystem.UniqueId.Builder</text><text fill="#000000" font-family="sans-serif" font-size="10" lengthAdjust="spacingAndGlyphs" textLength="139" x="178" y="157.5791">com.ibm.fhir.model.resource</text><line style="stroke: #A80036; stroke-width: 1.5;" x1="76.5" x2="386.5" y1="164.9375" y2="164.9375"/><ellipse cx="86.5" cy="175.9375" fill="#84BE84" rx="3" ry="3" style="stroke: #038048; stroke-width: 1.0;"/><text fill="#000000" font-family="sans-serif" font-size="11" lengthAdjust="spacingAndGlyphs" textLength="100" x="95.5" y="179.1479">id(String): Builder</text><ellipse cx="86.5" cy="188.7422" fill="#84BE84" rx="3" ry="3" style="stroke: #038048; stroke-width: 1.0;"/><text fill="#000000" font-family="sans-serif" font-size="11" lengthAdjust="spacingAndGlyphs" textLength="178" x="95.5" y="191.9526">extension(Extension...): Builder</text><ellipse cx="86.5" cy="201.5469" fill="#84BE84" rx="3" ry="3" style="stroke: #038048; stroke-width: 1.0;"/><text fill="#000000" font-family="sans-serif" font-size="11" lengthAdjust="spacingAndGlyphs" textLength="239" x="95.5" y="204.7573">extension(Collection&lt;Extension&gt;): Builder</text><ellipse cx="86.5" cy="214.3516" fill="#84BE84" rx="3" ry="3" style="stroke: #038048; stroke-width: 1.0;"/><text fill="#000000" font-family="sans-serif" font-size="11" lengthAdjust="spacingAndGlyphs" textLength="225" x="95.5" y="217.562">modifierExtension(Extension...): Builder</text><ellipse cx="86.5" cy="227.1563" fill="#84BE84" rx="3" ry="3" style="stroke: #038048; stroke-width: 1.0;"/><text fill="#000000" font-family="sans-serif" font-size="11" lengthAdjust="spacingAndGlyphs" textLength="286" x="95.5" y="230.3667">modifierExtension(Collection&lt;Extension&gt;): Builder</text><ellipse cx="86.5" cy="239.9609" fill="#84BE84" rx="3" ry="3" style="stroke: #038048; stroke-width: 1.0;"/><text fill="#000000" font-family="sans-serif" font-size="11" lengthAdjust="spacingAndGlyphs" textLength="243" x="95.5" y="243.1714">type(NamingSystemIdentifierType): Builder</text><ellipse cx="86.5" cy="252.7656" fill="#84BE84" rx="3" ry="3" style="stroke: #038048; stroke-width: 1.0;"/><text fill="#000000" font-family="sans-serif" font-size="11" lengthAdjust="spacingAndGlyphs" textLength="120" x="95.5" y="255.9761">value(String): Builder</text><ellipse cx="86.5" cy="265.5703" fill="#84BE84" rx="3" ry="3" style="stroke: #038048; stroke-width: 1.0;"/><text fill="#000000" font-family="sans-serif" font-size="11" lengthAdjust="spacingAndGlyphs" textLength="156" x="95.5" y="268.7808">preferred(Boolean): Builder</text><ellipse cx="86.5" cy="278.375" fill="#84BE84" rx="3" ry="3" style="stroke: #038048; stroke-width: 1.0;"/><text fill="#000000" font-family="sans-serif" font-size="11" lengthAdjust="spacingAndGlyphs" textLength="143" x="95.5" y="281.5854">comment(String): Builder</text><ellipse cx="86.5" cy="291.1797" fill="#84BE84" rx="3" ry="3" style="stroke: #038048; stroke-width: 1.0;"/><text fill="#000000" font-family="sans-serif" font-size="11" lengthAdjust="spacingAndGlyphs" textLength="128" x="95.5" y="294.3901">period(Period): Builder</text><ellipse cx="86.5" cy="303.9844" fill="#84BE84" rx="3" ry="3" style="stroke: #038048; stroke-width: 1.0;"/><text fill="#000000" font-family="sans-serif" font-size="11" lengthAdjust="spacingAndGlyphs" textLength="92" x="95.5" y="307.1948">build(): UniqueId</text><polygon fill="#FFFF44" points="86.5,311.7891,90.5,315.7891,86.5,319.7891,82.5,315.7891" style="stroke: #B38D22; stroke-width: 1.0;"/><text fill="#000000" font-family="sans-serif" font-size="11" lengthAdjust="spacingAndGlyphs" textLength="132" x="95.5" y="319.9995">from(UniqueId): Builder</text></a><!--MD5=[b7b0ea86c8a299e1957933e33e561193]
class com.ibm.fhir.model.type.BackboneElement.Builder--><a href="../type/BackboneElement.Builder.html" target="_top" title="../type/BackboneElement.Builder.html" xlink:actuate="onRequest" xlink:href="../type/BackboneElement.Builder.html" xlink:show="new" xlink:title="../type/BackboneElement.Builder.html" xlink:type="simple"><rect fill="#FEFECE" filter="url(#f1i3hevz1yt9pn)" height="58.7422" id="com.ibm.fhir.model.type.BackboneElement.Builder" style="stroke: #A80036; stroke-width: 1.5;" width="211" x="6" y="8"/><ellipse cx="21" cy="26.9688" fill="#A9DCDF" rx="11" ry="11" style="stroke: #A80036; stroke-width: 1.0;"/><path d="M21.1094,22.3125 L19.9531,27.3906 L22.2813,27.3906 L21.1094,22.3125 Z M19.625,20.0781 L22.6094,20.0781 L25.9688,32.4688 L23.5156,32.4688 L22.75,29.4063 L19.4688,29.4063 L18.7188,32.4688 L16.2813,32.4688 L19.625,20.0781 Z "/><text fill="#000000" font-family="sans-serif" font-size="14" font-style="italic" lengthAdjust="spacingAndGlyphs" textLength="179" x="35" y="25.9951">BackboneElement.Builder</text><text fill="#000000" font-family="sans-serif" font-size="10" font-style="italic" lengthAdjust="spacingAndGlyphs" textLength="123" x="63" y="38.5791">com.ibm.fhir.model.type</text><line style="stroke: #A80036; stroke-width: 1.5;" x1="7" x2="216" y1="45.9375" y2="45.9375"/><ellipse cx="17" cy="56.9375" fill="#84BE84" rx="3" ry="3" style="stroke: #038048; stroke-width: 1.0;"/><text fill="#000000" font-family="sans-serif" font-size="11" font-style="italic" lengthAdjust="spacingAndGlyphs" textLength="144" x="26" y="60.1479">build(): BackboneElement</text></a><!--MD5=[80b6966e59e57b9c36d12c398b80674b]
class com.ibm.fhir.model.resource.NamingSystem.UniqueId--><a href="NamingSystem.UniqueId.html" target="_top" title="NamingSystem.UniqueId.html" xlink:actuate="onRequest" xlink:href="NamingSystem.UniqueId.html" xlink:show="new" xlink:title="NamingSystem.UniqueId.html" xlink:type="simple"><rect fill="#FEFECE" filter="url(#f1i3hevz1yt9pn)" height="37.9375" id="com.ibm.fhir.model.resource.NamingSystem.UniqueId" style="stroke: #A80036; stroke-width: 1.5;" width="200" x="252.5" y="18.5"/><ellipse cx="267.5" cy="37.4688" fill="#ADD1B2" rx="11" ry="11" style="stroke: #A80036; stroke-width: 1.0;"/><path d="M270.4688,43.1094 Q269.8906,43.4063 269.25,43.5469 Q268.6094,43.7031 267.9063,43.7031 Q265.4063,43.7031 264.0781,42.0625 Q262.7656,40.4063 262.7656,37.2813 Q262.7656,34.1563 264.0781,32.5 Q265.4063,30.8438 267.9063,30.8438 Q268.6094,30.8438 269.25,31 Q269.9063,31.1563 270.4688,31.4531 L270.4688,34.1719 Q269.8438,33.5938 269.25,33.3281 Q268.6563,33.0469 268.0313,33.0469 Q266.6875,33.0469 266,34.125 Q265.3125,35.1875 265.3125,37.2813 Q265.3125,39.375 266,40.4531 Q266.6875,41.5156 268.0313,41.5156 Q268.6563,41.5156 269.25,41.25 Q269.8438,40.9688 270.4688,40.3906 L270.4688,43.1094 Z "/><text fill="#000000" font-family="sans-serif" font-size="14" lengthAdjust="spacingAndGlyphs" textLength="168" x="281.5" y="36.4951">NamingSystem.UniqueId</text><text fill="#000000" font-family="sans-serif" font-size="10" lengthAdjust="spacingAndGlyphs" textLength="139" x="296" y="49.0791">com.ibm.fhir.model.resource</text></a><!--MD5=[62504d564801b2d34bd4fb13d4a1ec67]
reverse link com.ibm.fhir.model.type.BackboneElement.Builder to com.ibm.fhir.model.resource.NamingSystem.UniqueId.Builder--><path d="M141.1497,84.3218 C149.4206,97.383 158.7361,112.0936 168.1617,126.9783 " fill="none" id="com.ibm.fhir.model.type.BackboneElement.Builder&lt;-com.ibm.fhir.model.resource.NamingSystem.UniqueId.Builder" style="stroke: #A80036; stroke-width: 1.0;"/><polygon fill="none" points="135.0361,87.7515,130.25,67.1094,146.864,80.2614,135.0361,87.7515" style="stroke: #A80036; stroke-width: 1.0;"/><!--MD5=[99bc87b570db8a7af5922dc3754a7cfc]
reverse link com.ibm.fhir.model.resource.NamingSystem.UniqueId to com.ibm.fhir.model.resource.NamingSystem.UniqueId.Builder--><path d="M331.9964,69.6111 C321.7373,85.6779 308.6985,106.0982 295.4387,126.8646 " fill="none" id="com.ibm.fhir.model.resource.NamingSystem.UniqueId&lt;-com.ibm.fhir.model.resource.NamingSystem.UniqueId.Builder" style="stroke: #A80036; stroke-width: 1.0;"/><ellipse cx="335.9266" cy="63.4558" fill="#FFFFFF" rx="8" ry="8" style="stroke: #A80036; stroke-width: 1.0;"/><line style="stroke: #A80036; stroke-width: 1.0;" x1="331.6213" x2="340.232" y1="70.1985" y2="56.7131"/><line style="stroke: #A80036; stroke-width: 1.0;" x1="329.1839" x2="342.6693" y1="59.1504" y2="67.7612"/><text fill="#888888" font-family="sans-serif" font-size="10" lengthAdjust="spacingAndGlyphs" textLength="186" x="142.5" y="346.2822">UMLDoclet 2.0.7, PlantUML 1.2019.12</text><!--MD5=[8826f3189da7243b60dd6141227293f5]
@startuml
    set namespaceSeparator none
    hide empty fields
    hide empty methods

    class "<size:14>NamingSystem.UniqueId.Builder\n<size:10>com.ibm.fhir.model.resource" as com.ibm.fhir.model.resource.NamingSystem.UniqueId.Builder [[NamingSystem.UniqueId.Builder.html]] {
        +id(String): Builder
        +extension(Extension...): Builder
        +extension(Collection<Extension>): Builder
        +modifierExtension(Extension...): Builder
        +modifierExtension(Collection<Extension>): Builder
        +type(NamingSystemIdentifierType): Builder
        +value(String): Builder
        +preferred(Boolean): Builder
        +comment(String): Builder
        +period(Period): Builder
        +build(): UniqueId
        #from(UniqueId): Builder
    }

    abstract class "<size:14>BackboneElement.Builder\n<size:10>com.ibm.fhir.model.type" as com.ibm.fhir.model.type.BackboneElement.Builder [[../type/BackboneElement.Builder.html]] {
        {abstract} +build(): BackboneElement
    }
    class "<size:14>NamingSystem.UniqueId\n<size:10>com.ibm.fhir.model.resource" as com.ibm.fhir.model.resource.NamingSystem.UniqueId [[NamingSystem.UniqueId.html]]

    com.ibm.fhir.model.type.BackboneElement.Builder <|- - com.ibm.fhir.model.resource.NamingSystem.UniqueId.Builder
    com.ibm.fhir.model.resource.NamingSystem.UniqueId +- - com.ibm.fhir.model.resource.NamingSystem.UniqueId.Builder

    center footer UMLDoclet 2.0.7, PlantUML 1.2019.12
@enduml

PlantUML version 1.2019.12(Sun Nov 03 10:24:54 UTC 2019)
(APACHE source distribution)
Java Runtime: OpenJDK Runtime Environment
JVM: OpenJDK 64-Bit Server VM
Java Version: 11.0.10+9
Operating System: Linux
Default Encoding: UTF-8
Language: en
Country: null
--></g></svg>