<?xml version="1.0" encoding="UTF-8" standalone="no"?><svg xmlns="http://www.w3.org/2000/svg" xmlns:xlink="http://www.w3.org/1999/xlink" contentScriptType="application/ecmascript" contentStyleType="text/css" height="418px" preserveAspectRatio="none" style="width:382px;height:418px;" version="1.1" viewBox="0 0 382 418" width="382px" zoomAndPan="magnify"><defs><filter height="300%" id="f7gua0kdy3jzi" width="300%" x="-1" y="-1"><feGaussianBlur result="blurOut" stdDeviation="2.0"/><feColorMatrix in="blurOut" result="blurOut2" type="matrix" values="0 0 0 0 0 0 0 0 0 0 0 0 0 0 0 0 0 0 .4 0"/><feOffset dx="4.0" dy="4.0" in="blurOut2" result="blurOut3"/><feBlend in="SourceGraphic" in2="blurOut3" mode="normal"/></filter></defs><g><!--MD5=[7de1d35f447746afa7b269febcea7e16]
class com.ibm.fhir.model.resource.ClaimResponse.Insurance--><a href="ClaimResponse.Insurance.html" target="_top" title="ClaimResponse.Insurance.html" xlink:actuate="onRequest" xlink:href="ClaimResponse.Insurance.html" xlink:show="new" xlink:title="ClaimResponse.Insurance.html" xlink:type="simple"><rect fill="#FEFECE" filter="url(#f7gua0kdy3jzi)" height="161.1797" id="com.ibm.fhir.model.resource.ClaimResponse.Insurance" style="stroke: #A80036; stroke-width: 1.5;" width="221" x="75" y="127"/><ellipse cx="94.05" cy="145.9688" fill="#ADD1B2" rx="11" ry="11" style="stroke: #A80036; stroke-width: 1.0;"/><path d="M97.0188,151.6094 Q96.4406,151.9063 95.8,152.0469 Q95.1594,152.2031 94.4563,152.2031 Q91.9563,152.2031 90.6281,150.5625 Q89.3156,148.9063 89.3156,145.7813 Q89.3156,142.6563 90.6281,141 Q91.9563,139.3438 94.4563,139.3438 Q95.1594,139.3438 95.8,139.5 Q96.4563,139.6563 97.0188,139.9531 L97.0188,142.6719 Q96.3938,142.0938 95.8,141.8281 Q95.2063,141.5469 94.5813,141.5469 Q93.2375,141.5469 92.55,142.625 Q91.8625,143.6875 91.8625,145.7813 Q91.8625,147.875 92.55,148.9531 Q93.2375,150.0156 94.5813,150.0156 Q95.2063,150.0156 95.8,149.75 Q96.3938,149.4688 97.0188,148.8906 L97.0188,151.6094 Z "/><text fill="#000000" font-family="sans-serif" font-size="14" lengthAdjust="spacingAndGlyphs" textLength="180" x="108.95" y="144.9951">ClaimResponse.Insurance</text><text fill="#000000" font-family="sans-serif" font-size="10" lengthAdjust="spacingAndGlyphs" textLength="139" x="129.45" y="157.5791">com.ibm.fhir.model.resource</text><line style="stroke: #A80036; stroke-width: 1.5;" x1="76" x2="295" y1="164.9375" y2="164.9375"/><ellipse cx="86" cy="175.9375" fill="#84BE84" rx="3" ry="3" style="stroke: #038048; stroke-width: 1.0;"/><text fill="#000000" font-family="sans-serif" font-size="11" lengthAdjust="spacingAndGlyphs" textLength="148" x="95" y="179.1479">getSequence(): PositiveInt</text><ellipse cx="86" cy="188.7422" fill="#84BE84" rx="3" ry="3" style="stroke: #038048; stroke-width: 1.0;"/><text fill="#000000" font-family="sans-serif" font-size="11" lengthAdjust="spacingAndGlyphs" textLength="109" x="95" y="191.9526">getFocal(): Boolean</text><ellipse cx="86" cy="201.5469" fill="#84BE84" rx="3" ry="3" style="stroke: #038048; stroke-width: 1.0;"/><text fill="#000000" font-family="sans-serif" font-size="11" lengthAdjust="spacingAndGlyphs" textLength="145" x="95" y="204.7573">getCoverage(): Reference</text><ellipse cx="86" cy="214.3516" fill="#84BE84" rx="3" ry="3" style="stroke: #038048; stroke-width: 1.0;"/><text fill="#000000" font-family="sans-serif" font-size="11" lengthAdjust="spacingAndGlyphs" textLength="195" x="95" y="217.562">getBusinessArrangement(): String</text><ellipse cx="86" cy="227.1563" fill="#84BE84" rx="3" ry="3" style="stroke: #038048; stroke-width: 1.0;"/><text fill="#000000" font-family="sans-serif" font-size="11" lengthAdjust="spacingAndGlyphs" textLength="179" x="95" y="230.3667">getClaimResponse(): Reference</text><ellipse cx="86" cy="239.9609" fill="#84BE84" rx="3" ry="3" style="stroke: #038048; stroke-width: 1.0;"/><text fill="#000000" font-family="sans-serif" font-size="11" lengthAdjust="spacingAndGlyphs" textLength="129" x="95" y="243.1714">hasChildren(): boolean</text><ellipse cx="86" cy="252.7656" fill="#84BE84" rx="3" ry="3" style="stroke: #038048; stroke-width: 1.0;"/><text fill="#000000" font-family="sans-serif" font-size="11" lengthAdjust="spacingAndGlyphs" textLength="176" x="95" y="255.9761">accept(String, int, Visitor): void</text><ellipse cx="86" cy="265.5703" fill="#84BE84" rx="3" ry="3" style="stroke: #038048; stroke-width: 1.0;"/><text fill="#000000" font-family="sans-serif" font-size="11" lengthAdjust="spacingAndGlyphs" textLength="107" x="95" y="268.7808">toBuilder(): Builder</text><ellipse cx="86" cy="278.375" fill="#84BE84" rx="3" ry="3" style="stroke: #038048; stroke-width: 1.0;"/><text fill="#000000" font-family="sans-serif" font-size="11" lengthAdjust="spacingAndGlyphs" text-decoration="underline" textLength="95" x="95" y="281.5854">builder(): Builder</text></a><!--MD5=[efbff6997283c56b83e991a8eeb6a60a]
class com.ibm.fhir.model.type.BackboneElement--><a href="../type/BackboneElement.html" target="_top" title="../type/BackboneElement.html" xlink:actuate="onRequest" xlink:href="../type/BackboneElement.html" xlink:show="new" xlink:title="../type/BackboneElement.html" xlink:type="simple"><rect fill="#FEFECE" filter="url(#f7gua0kdy3jzi)" height="58.7422" id="com.ibm.fhir.model.type.BackboneElement" style="stroke: #A80036; stroke-width: 1.5;" width="159" x="6" y="8"/><ellipse cx="21" cy="26.9688" fill="#A9DCDF" rx="11" ry="11" style="stroke: #A80036; stroke-width: 1.0;"/><path d="M21.1094,22.3125 L19.9531,27.3906 L22.2813,27.3906 L21.1094,22.3125 Z M19.625,20.0781 L22.6094,20.0781 L25.9688,32.4688 L23.5156,32.4688 L22.75,29.4063 L19.4688,29.4063 L18.7188,32.4688 L16.2813,32.4688 L19.625,20.0781 Z "/><text fill="#000000" font-family="sans-serif" font-size="14" font-style="italic" lengthAdjust="spacingAndGlyphs" textLength="127" x="35" y="25.9951">BackboneElement</text><text fill="#000000" font-family="sans-serif" font-size="10" font-style="italic" lengthAdjust="spacingAndGlyphs" textLength="119" x="39" y="38.5791">com.ibm.fhir.model.type</text><line style="stroke: #A80036; stroke-width: 1.5;" x1="7" x2="164" y1="45.9375" y2="45.9375"/><ellipse cx="17" cy="56.9375" fill="#84BE84" rx="3" ry="3" style="stroke: #038048; stroke-width: 1.0;"/><text fill="#000000" font-family="sans-serif" font-size="11" font-style="italic" lengthAdjust="spacingAndGlyphs" textLength="107" x="26" y="60.1479">toBuilder(): Builder</text></a><!--MD5=[2f1d7930c7dfa67487af0f4f2e584759]
class com.ibm.fhir.model.resource.ClaimResponse--><a href="ClaimResponse.html" target="_top" title="ClaimResponse.html" xlink:actuate="onRequest" xlink:href="ClaimResponse.html" xlink:show="new" xlink:title="ClaimResponse.html" xlink:type="simple"><rect fill="#FEFECE" filter="url(#f7gua0kdy3jzi)" height="37.9375" id="com.ibm.fhir.model.resource.ClaimResponse" style="stroke: #A80036; stroke-width: 1.5;" width="171" x="200" y="18.5"/><ellipse cx="215" cy="37.4688" fill="#ADD1B2" rx="11" ry="11" style="stroke: #A80036; stroke-width: 1.0;"/><path d="M217.9688,43.1094 Q217.3906,43.4063 216.75,43.5469 Q216.1094,43.7031 215.4063,43.7031 Q212.9063,43.7031 211.5781,42.0625 Q210.2656,40.4063 210.2656,37.2813 Q210.2656,34.1563 211.5781,32.5 Q212.9063,30.8438 215.4063,30.8438 Q216.1094,30.8438 216.75,31 Q217.4063,31.1563 217.9688,31.4531 L217.9688,34.1719 Q217.3438,33.5938 216.75,33.3281 Q216.1563,33.0469 215.5313,33.0469 Q214.1875,33.0469 213.5,34.125 Q212.8125,35.1875 212.8125,37.2813 Q212.8125,39.375 213.5,40.4531 Q214.1875,41.5156 215.5313,41.5156 Q216.1563,41.5156 216.75,41.25 Q217.3438,40.9688 217.9688,40.3906 L217.9688,43.1094 Z "/><text fill="#000000" font-family="sans-serif" font-size="14" lengthAdjust="spacingAndGlyphs" textLength="108" x="244.5" y="36.4951">ClaimResponse</text><text fill="#000000" font-family="sans-serif" font-size="10" lengthAdjust="spacingAndGlyphs" textLength="139" x="229" y="49.0791">com.ibm.fhir.model.resource</text></a><!--MD5=[b32ed04df1beaa0b33f89f7fd44bf764]
class com.ibm.fhir.model.resource.ClaimResponse.Insurance.Builder--><a href="ClaimResponse.Insurance.Builder.html" target="_top" title="ClaimResponse.Insurance.Builder.html" xlink:actuate="onRequest" xlink:href="ClaimResponse.Insurance.Builder.html" xlink:show="new" xlink:title="ClaimResponse.Insurance.Builder.html" xlink:type="simple"><rect fill="#FEFECE" filter="url(#f7gua0kdy3jzi)" height="37.9375" id="com.ibm.fhir.model.resource.ClaimResponse.Insurance.Builder" style="stroke: #A80036; stroke-width: 1.5;" width="264" x="53.5" y="348"/><ellipse cx="68.5" cy="366.9688" fill="#ADD1B2" rx="11" ry="11" style="stroke: #A80036; stroke-width: 1.0;"/><path d="M71.4688,372.6094 Q70.8906,372.9063 70.25,373.0469 Q69.6094,373.2031 68.9063,373.2031 Q66.4063,373.2031 65.0781,371.5625 Q63.7656,369.9063 63.7656,366.7813 Q63.7656,363.6563 65.0781,362 Q66.4063,360.3438 68.9063,360.3438 Q69.6094,360.3438 70.25,360.5 Q70.9063,360.6563 71.4688,360.9531 L71.4688,363.6719 Q70.8438,363.0938 70.25,362.8281 Q69.6563,362.5469 69.0313,362.5469 Q67.6875,362.5469 67,363.625 Q66.3125,364.6875 66.3125,366.7813 Q66.3125,368.875 67,369.9531 Q67.6875,371.0156 69.0313,371.0156 Q69.6563,371.0156 70.25,370.75 Q70.8438,370.4688 71.4688,369.8906 L71.4688,372.6094 Z "/><text fill="#000000" font-family="sans-serif" font-size="14" lengthAdjust="spacingAndGlyphs" textLength="232" x="82.5" y="365.9951">ClaimResponse.Insurance.Builder</text><text fill="#000000" font-family="sans-serif" font-size="10" lengthAdjust="spacingAndGlyphs" textLength="139" x="129" y="378.5791">com.ibm.fhir.model.resource</text></a><!--MD5=[b642a4409e9bf8b354b922f6bc85de18]
reverse link com.ibm.fhir.model.type.BackboneElement to com.ibm.fhir.model.resource.ClaimResponse.Insurance--><path d="M113.1339,84.4777 C120.8553,97.604 129.473,112.2541 137.9939,126.7396 " fill="none" id="com.ibm.fhir.model.type.BackboneElement&lt;-com.ibm.fhir.model.resource.ClaimResponse.Insurance" style="stroke: #A80036; stroke-width: 1.0;"/><polygon fill="none" points="107.0256,87.8996,102.9187,67.1117,119.0927,80.8013,107.0256,87.8996" style="stroke: #A80036; stroke-width: 1.0;"/><!--MD5=[b4365b5815e3f00254ac4f2c1970e74c]
reverse link com.ibm.fhir.model.resource.ClaimResponse to com.ibm.fhir.model.resource.ClaimResponse.Insurance--><path d="M266.5347,69.7411 C256.9755,85.9916 244.9131,106.4978 233.0364,126.6881 " fill="none" id="com.ibm.fhir.model.resource.ClaimResponse&lt;-com.ibm.fhir.model.resource.ClaimResponse.Insurance" style="stroke: #A80036; stroke-width: 1.0;"/><ellipse cx="270.1669" cy="63.5662" fill="#FFFFFF" rx="8" ry="8" style="stroke: #A80036; stroke-width: 1.0;"/><line style="stroke: #A80036; stroke-width: 1.0;" x1="266.1108" x2="274.2231" y1="70.4617" y2="56.6707"/><line style="stroke: #A80036; stroke-width: 1.0;" x1="263.2715" x2="277.0624" y1="59.51" y2="67.6223"/><!--MD5=[36cac68abefe2770f0b2c0ceaf75f4d7]
reverse link com.ibm.fhir.model.resource.ClaimResponse.Insurance to com.ibm.fhir.model.resource.ClaimResponse.Insurance.Builder--><path d="M185.5,303.2141 C185.5,320.1163 185.5,336.021 185.5,347.7209 " fill="none" id="com.ibm.fhir.model.resource.ClaimResponse.Insurance&lt;-com.ibm.fhir.model.resource.ClaimResponse.Insurance.Builder" style="stroke: #A80036; stroke-width: 1.0;"/><ellipse cx="185.5001" cy="296.1846" fill="#FFFFFF" rx="8" ry="8" style="stroke: #A80036; stroke-width: 1.0;"/><line style="stroke: #A80036; stroke-width: 1.0;" x1="185.5002" x2="185.5" y1="304.1846" y2="288.1846"/><line style="stroke: #A80036; stroke-width: 1.0;" x1="177.5001" x2="193.5001" y1="296.1847" y2="296.1845"/><text fill="#888888" font-family="sans-serif" font-size="10" lengthAdjust="spacingAndGlyphs" textLength="186" x="101.5" y="405.2822">UMLDoclet 2.0.7, PlantUML 1.2019.12</text><!--MD5=[d7f3b7bee05b2504f1681a4e429e8185]
@startuml
    set namespaceSeparator none
    hide empty fields
    hide empty methods

    class "<size:14>ClaimResponse.Insurance\n<size:10>com.ibm.fhir.model.resource" as com.ibm.fhir.model.resource.ClaimResponse.Insurance [[ClaimResponse.Insurance.html]] {
        +getSequence(): PositiveInt
        +getFocal(): Boolean
        +getCoverage(): Reference
        +getBusinessArrangement(): String
        +getClaimResponse(): Reference
        +hasChildren(): boolean
        +accept(String, int, Visitor): void
        +toBuilder(): Builder
        {static} +builder(): Builder
    }

    abstract class "<size:14>BackboneElement\n<size:10>com.ibm.fhir.model.type" as com.ibm.fhir.model.type.BackboneElement [[../type/BackboneElement.html]] {
        {abstract} +toBuilder(): Builder
    }
    class "<size:14>ClaimResponse\n<size:10>com.ibm.fhir.model.resource" as com.ibm.fhir.model.resource.ClaimResponse [[ClaimResponse.html]]
    class "<size:14>ClaimResponse.Insurance.Builder\n<size:10>com.ibm.fhir.model.resource" as com.ibm.fhir.model.resource.ClaimResponse.Insurance.Builder [[ClaimResponse.Insurance.Builder.html]]

    com.ibm.fhir.model.type.BackboneElement <|- - com.ibm.fhir.model.resource.ClaimResponse.Insurance
    com.ibm.fhir.model.resource.ClaimResponse +- - com.ibm.fhir.model.resource.ClaimResponse.Insurance
    com.ibm.fhir.model.resource.ClaimResponse.Insurance +- - com.ibm.fhir.model.resource.ClaimResponse.Insurance.Builder

    center footer UMLDoclet 2.0.7, PlantUML 1.2019.12
@enduml

PlantUML version 1.2019.12(Sun Nov 03 10:24:54 UTC 2019)
(APACHE source distribution)
Java Runtime: OpenJDK Runtime Environment
JVM: OpenJDK 64-Bit Server VM
Java Version: 11.0.7+10
Operating System: Linux
Default Encoding: UTF-8
Language: en
Country: null
--></g></svg>