<?xml version="1.0" encoding="UTF-8" standalone="no"?><svg xmlns="http://www.w3.org/2000/svg" xmlns:xlink="http://www.w3.org/1999/xlink" contentScriptType="application/ecmascript" contentStyleType="text/css" height="231px" preserveAspectRatio="none" style="width:391px;height:231px;" version="1.1" viewBox="0 0 391 231" width="391px" zoomAndPan="magnify"><defs><filter height="300%" id="f36ko8ik0o5nh" width="300%" x="-1" y="-1"><feGaussianBlur result="blurOut" stdDeviation="2.0"/><feColorMatrix in="blurOut" result="blurOut2" type="matrix" values="0 0 0 0 0 0 0 0 0 0 0 0 0 0 0 0 0 0 .4 0"/><feOffset dx="4.0" dy="4.0" in="blurOut2" result="blurOut3"/><feBlend in="SourceGraphic" in2="blurOut3" mode="normal"/></filter></defs><g><!--MD5=[cd297bdeb017d2c91ea626f9b101db5b]
class com.ibm.fhir.database.utils.version.GetLatestVersionDAO--><a href="GetLatestVersionDAO.html" target="_top" title="GetLatestVersionDAO.html" xlink:actuate="onRequest" xlink:href="GetLatestVersionDAO.html" xlink:show="new" xlink:title="GetLatestVersionDAO.html" xlink:type="simple"><rect fill="#FEFECE" filter="url(#f36ko8ik0o5nh)" height="71.5469" id="com.ibm.fhir.database.utils.version.GetLatestVersionDAO" style="stroke: #A80036; stroke-width: 1.5;" width="371" x="6" y="127"/><ellipse cx="102.75" cy="145.9688" fill="#ADD1B2" rx="11" ry="11" style="stroke: #A80036; stroke-width: 1.0;"/><path d="M105.7188,151.6094 Q105.1406,151.9063 104.5,152.0469 Q103.8594,152.2031 103.1563,152.2031 Q100.6563,152.2031 99.3281,150.5625 Q98.0156,148.9063 98.0156,145.7813 Q98.0156,142.6563 99.3281,141 Q100.6563,139.3438 103.1563,139.3438 Q103.8594,139.3438 104.5,139.5 Q105.1563,139.6563 105.7188,139.9531 L105.7188,142.6719 Q105.0938,142.0938 104.5,141.8281 Q103.9063,141.5469 103.2813,141.5469 Q101.9375,141.5469 101.25,142.625 Q100.5625,143.6875 100.5625,145.7813 Q100.5625,147.875 101.25,148.9531 Q101.9375,150.0156 103.2813,150.0156 Q103.9063,150.0156 104.5,149.75 Q105.0938,149.4688 105.7188,148.8906 L105.7188,151.6094 Z "/><text fill="#000000" font-family="sans-serif" font-size="14" lengthAdjust="spacingAndGlyphs" textLength="150" x="132.75" y="144.9951">GetLatestVersionDAO</text><text fill="#000000" font-family="sans-serif" font-size="10" lengthAdjust="spacingAndGlyphs" textLength="169" x="123.25" y="157.5791">com.ibm.fhir.database.utils.version</text><line style="stroke: #A80036; stroke-width: 1.5;" x1="7" x2="376" y1="164.9375" y2="164.9375"/><ellipse cx="17" cy="175.9375" fill="#84BE84" rx="3" ry="3" style="stroke: #038048; stroke-width: 1.0;"/><text fill="#000000" font-family="sans-serif" font-size="11" lengthAdjust="spacingAndGlyphs" textLength="206" x="26" y="179.1479">GetLatestVersionDAO(String, String)</text><ellipse cx="17" cy="188.7422" fill="#84BE84" rx="3" ry="3" style="stroke: #038048; stroke-width: 1.0;"/><text fill="#000000" font-family="sans-serif" font-size="11" lengthAdjust="spacingAndGlyphs" textLength="345" x="26" y="191.9526">run(IDatabaseTranslator, Connection): Map&lt;String, Integer&gt;</text></a><!--MD5=[93ea417c481fd981345e931714a643b2]
class com.ibm.fhir.database.utils.api.IDatabaseSupplier--><a href="../api/IDatabaseSupplier.html" target="_top" title="../api/IDatabaseSupplier.html" xlink:actuate="onRequest" xlink:href="../api/IDatabaseSupplier.html" xlink:show="new" xlink:title="../api/IDatabaseSupplier.html" xlink:type="simple"><rect fill="#FEFECE" filter="url(#f36ko8ik0o5nh)" height="58.7422" id="com.ibm.fhir.database.utils.api.IDatabaseSupplier" style="stroke: #A80036; stroke-width: 1.5;" width="371" x="6" y="8"/><ellipse cx="43.95" cy="26.9688" fill="#B4A7E5" rx="11" ry="11" style="stroke: #A80036; stroke-width: 1.0;"/><path d="M39.8719,22.7344 L39.8719,20.5781 L47.2625,20.5781 L47.2625,22.7344 L44.7938,22.7344 L44.7938,30.8125 L47.2625,30.8125 L47.2625,32.9688 L39.8719,32.9688 L39.8719,30.8125 L42.3406,30.8125 L42.3406,22.7344 L39.8719,22.7344 Z "/><text fill="#000000" font-family="sans-serif" font-size="14" font-style="italic" lengthAdjust="spacingAndGlyphs" textLength="125" x="74.55" y="25.9951">IDatabaseSupplier</text><text fill="#000000" font-family="sans-serif" font-size="10" font-style="italic" lengthAdjust="spacingAndGlyphs" textLength="148" x="63.05" y="38.5791">com.ibm.fhir.database.utils.api</text><rect fill="#FFFFFF" height="15.9688" style="stroke: #000000; stroke-width: 1.0; stroke-dasharray: 2.0,2.0;" width="138" x="242" y="5"/><text fill="#000000" font-family="sans-serif" font-size="12" font-style="italic" lengthAdjust="spacingAndGlyphs" textLength="136" x="243" y="17.1387">Map&lt;String, Integer&gt;</text><line style="stroke: #A80036; stroke-width: 1.5;" x1="7" x2="376" y1="45.9375" y2="45.9375"/><ellipse cx="17" cy="56.9375" fill="#84BE84" rx="3" ry="3" style="stroke: #038048; stroke-width: 1.0;"/><text fill="#000000" font-family="sans-serif" font-size="11" font-style="italic" lengthAdjust="spacingAndGlyphs" textLength="345" x="26" y="60.1479">run(IDatabaseTranslator, Connection): Map&lt;String, Integer&gt;</text></a><!--MD5=[01b57e3dbdf09fb668b2f6d9f28af8fc]
reverse link com.ibm.fhir.database.utils.api.IDatabaseSupplier to com.ibm.fhir.database.utils.version.GetLatestVersionDAO--><path d="M191.5,87.5049 C191.5,100.6211 191.5,114.5128 191.5,126.7555 " fill="none" id="com.ibm.fhir.database.utils.api.IDatabaseSupplier&lt;-com.ibm.fhir.database.utils.version.GetLatestVersionDAO" style="stroke: #A80036; stroke-width: 1.0; stroke-dasharray: 7.0,7.0;"/><polygon fill="none" points="184.5001,87.2418,191.5,67.2417,198.5001,87.2417,184.5001,87.2418" style="stroke: #A80036; stroke-width: 1.0;"/><text fill="#888888" font-family="sans-serif" font-size="10" lengthAdjust="spacingAndGlyphs" textLength="186" x="104.5" y="218.2822">UMLDoclet 2.0.7, PlantUML 1.2019.12</text><!--MD5=[862b9eef3f35a99af7554e4b21a7e24c]
@startuml
    set namespaceSeparator none
    hide empty fields
    hide empty methods

    class "<size:14>GetLatestVersionDAO\n<size:10>com.ibm.fhir.database.utils.version" as com.ibm.fhir.database.utils.version.GetLatestVersionDAO [[GetLatestVersionDAO.html]] {
        +GetLatestVersionDAO(String, String)
        +run(IDatabaseTranslator, Connection): Map<String, Integer>
    }

    interface "<size:14>IDatabaseSupplier\n<size:10>com.ibm.fhir.database.utils.api" as com.ibm.fhir.database.utils.api.IDatabaseSupplier<Map<String, Integer>> [[../api/IDatabaseSupplier.html]] {
        {abstract} +run(IDatabaseTranslator, Connection): Map<String, Integer>
    }

    com.ibm.fhir.database.utils.api.IDatabaseSupplier <|.. com.ibm.fhir.database.utils.version.GetLatestVersionDAO

    center footer UMLDoclet 2.0.7, PlantUML 1.2019.12
@enduml

PlantUML version 1.2019.12(Sun Nov 03 10:24:54 UTC 2019)
(APACHE source distribution)
Java Runtime: OpenJDK Runtime Environment
JVM: OpenJDK 64-Bit Server VM
Java Version: 11.0.7+10
Operating System: Linux
Default Encoding: UTF-8
Language: en
Country: null
--></g></svg>