<?xml version="1.0" encoding="UTF-8" standalone="no"?><svg xmlns="http://www.w3.org/2000/svg" xmlns:xlink="http://www.w3.org/1999/xlink" contentScriptType="application/ecmascript" contentStyleType="text/css" height="219px" preserveAspectRatio="none" style="width:225px;height:219px;" version="1.1" viewBox="0 0 225 219" width="225px" zoomAndPan="magnify"><defs><filter height="300%" id="f15vgj051ik48n" width="300%" x="-1" y="-1"><feGaussianBlur result="blurOut" stdDeviation="2.0"/><feColorMatrix in="blurOut" result="blurOut2" type="matrix" values="0 0 0 0 0 0 0 0 0 0 0 0 0 0 0 0 0 0 .4 0"/><feOffset dx="4.0" dy="4.0" in="blurOut2" result="blurOut3"/><feBlend in="SourceGraphic" in2="blurOut3" mode="normal"/></filter></defs><g><!--MD5=[6578613475e6196b29841b065652968e]
class com.ibm.fhir.bulkexport.patient.ChunkWriter--><a href="ChunkWriter.html" target="_top" title="ChunkWriter.html" xlink:actuate="onRequest" xlink:href="ChunkWriter.html" xlink:show="new" xlink:title="ChunkWriter.html" xlink:type="simple"><rect fill="#FEFECE" filter="url(#f15vgj051ik48n)" height="80.1758" id="com.ibm.fhir.bulkexport.patient.ChunkWriter" style="stroke: #A80036; stroke-width: 1.5;" width="208" x="6" y="106"/><ellipse cx="30.45" cy="125.1328" fill="#ADD1B2" rx="11" ry="11" style="stroke: #A80036; stroke-width: 1.0;"/><path d="M32.9231,131.2759 Q32.3421,131.5747 31.7029,131.7241 Q31.0638,131.8735 30.3582,131.8735 Q27.8514,131.8735 26.5315,130.2217 Q25.2117,128.5698 25.2117,125.4487 Q25.2117,122.3193 26.5315,120.6675 Q27.8514,119.0156 30.3582,119.0156 Q31.0638,119.0156 31.7112,119.165 Q32.3587,119.3145 32.9231,119.6133 L32.9231,122.3359 Q32.2923,121.7549 31.6988,121.4851 Q31.1053,121.2153 30.4744,121.2153 Q29.1297,121.2153 28.4449,122.282 Q27.7601,123.3486 27.7601,125.4487 Q27.7601,127.5405 28.4449,128.6072 Q29.1297,129.6738 30.4744,129.6738 Q31.1053,129.6738 31.6988,129.4041 Q32.2923,129.1343 32.9231,128.5532 Z "/><text fill="#000000" font-family="sans-serif" font-size="14" lengthAdjust="spacingAndGlyphs" textLength="86" x="81.05" y="124.5352">ChunkWriter</text><text fill="#000000" font-family="sans-serif" font-size="10" lengthAdjust="spacingAndGlyphs" textLength="155" x="46.55" y="137.1563">com.ibm.fhir.bulkexport.patient</text><line style="stroke: #A80036; stroke-width: 1.5;" x1="7" x2="213" y1="144.2656" y2="144.2656"/><polygon fill="none" points="17,151.2656,13,157.2656,21,157.2656" style="stroke: #1963A0; stroke-width: 1.0;"/><text fill="#000000" font-family="sans-serif" font-size="11" lengthAdjust="spacingAndGlyphs" textLength="133" x="26" y="158.9004">fhirResourceType: String</text><line style="stroke: #A80036; stroke-width: 1.5;" x1="7" x2="213" y1="165.2207" y2="165.2207"/><polygon fill="#FFFF44" points="17,171.2207,21,175.2207,17,179.2207,13,175.2207" style="stroke: #B38D22; stroke-width: 1.0;"/><text fill="#000000" font-family="sans-serif" font-size="11" lengthAdjust="spacingAndGlyphs" textLength="182" x="26" y="179.8555">getResourceTypes(): List&lt;String&gt;</text></a><!--MD5=[52bda635d782548b232887814308d647]
class com.ibm.fhir.bulkexport.system.ChunkWriter--><a href="../system/ChunkWriter.html" target="_top" title="../system/ChunkWriter.html" xlink:actuate="onRequest" xlink:href="../system/ChunkWriter.html" xlink:show="new" xlink:title="../system/ChunkWriter.html" xlink:type="simple"><rect fill="#FEFECE" filter="url(#f15vgj051ik48n)" height="38.2656" id="com.ibm.fhir.bulkexport.system.ChunkWriter" style="stroke: #A80036; stroke-width: 1.5;" width="186" x="17" y="8"/><ellipse cx="32" cy="27.1328" fill="#ADD1B2" rx="11" ry="11" style="stroke: #A80036; stroke-width: 1.0;"/><path d="M34.4731,33.2759 Q33.8921,33.5747 33.2529,33.7241 Q32.6138,33.8735 31.9082,33.8735 Q29.4014,33.8735 28.0815,32.2217 Q26.7617,30.5698 26.7617,27.4487 Q26.7617,24.3193 28.0815,22.6675 Q29.4014,21.0156 31.9082,21.0156 Q32.6138,21.0156 33.2612,21.165 Q33.9087,21.3145 34.4731,21.6133 L34.4731,24.3359 Q33.8423,23.7549 33.2488,23.4851 Q32.6553,23.2153 32.0244,23.2153 Q30.6797,23.2153 29.9949,24.282 Q29.3101,25.3486 29.3101,27.4487 Q29.3101,29.5405 29.9949,30.6072 Q30.6797,31.6738 32.0244,31.6738 Q32.6553,31.6738 33.2488,31.4041 Q33.8423,31.1343 34.4731,30.5532 Z "/><text fill="#000000" font-family="sans-serif" font-size="14" lengthAdjust="spacingAndGlyphs" textLength="86" x="80" y="26.5352">ChunkWriter</text><text fill="#000000" font-family="sans-serif" font-size="10" lengthAdjust="spacingAndGlyphs" textLength="154" x="46" y="39.1563">com.ibm.fhir.bulkexport.system</text></a><!--MD5=[ef481a6e7456030e5aff758aaf812961]
reverse link com.ibm.fhir.bulkexport.system.ChunkWriter to com.ibm.fhir.bulkexport.patient.ChunkWriter--><path d="M110,66.2438 C110,78.9166 110,92.9816 110,105.7276 " fill="none" id="com.ibm.fhir.bulkexport.system.ChunkWriter&lt;-com.ibm.fhir.bulkexport.patient.ChunkWriter" style="stroke: #A80036; stroke-width: 1.0;"/><polygon fill="none" points="103.0001,66.1194,110,46.1194,117.0001,66.1194,103.0001,66.1194" style="stroke: #A80036; stroke-width: 1.0;"/><text fill="#888888" font-family="sans-serif" font-size="10" lengthAdjust="spacingAndGlyphs" textLength="182" x="25" y="205.668">UMLDoclet 2.0.7, PlantUML 1.2019.12</text><!--MD5=[2621067d996acd6a9bf1db7d22604b75]
@startuml
    set namespaceSeparator none
    hide empty fields
    hide empty methods

    class "<size:14>ChunkWriter\n<size:10>com.ibm.fhir.bulkexport.patient" as com.ibm.fhir.bulkexport.patient.ChunkWriter [[ChunkWriter.html]] {
        ~fhirResourceType: String
        #getResourceTypes(): List<String>
    }

    class "<size:14>ChunkWriter\n<size:10>com.ibm.fhir.bulkexport.system" as com.ibm.fhir.bulkexport.system.ChunkWriter [[../system/ChunkWriter.html]]

    com.ibm.fhir.bulkexport.system.ChunkWriter <|- - com.ibm.fhir.bulkexport.patient.ChunkWriter

    center footer UMLDoclet 2.0.7, PlantUML 1.2019.12
@enduml

PlantUML version 1.2019.12(Sun Nov 03 05:24:54 EST 2019)
(APACHE source distribution)
Java Runtime: OpenJDK Runtime Environment
JVM: OpenJDK 64-Bit Server VM
Java Version: 11.0.4+11
Operating System: Mac OS X
Default Encoding: UTF-8
Language: en
Country: US
--></g></svg>