<?xml version="1.0" encoding="UTF-8" standalone="no"?><svg xmlns="http://www.w3.org/2000/svg" xmlns:xlink="http://www.w3.org/1999/xlink" contentScriptType="application/ecmascript" contentStyleType="text/css" height="469px" preserveAspectRatio="none" style="width:382px;height:469px;" version="1.1" viewBox="0 0 382 469" width="382px" zoomAndPan="magnify"><defs><filter height="300%" id="fvca6cu1dydgu" width="300%" x="-1" y="-1"><feGaussianBlur result="blurOut" stdDeviation="2.0"/><feColorMatrix in="blurOut" result="blurOut2" type="matrix" values="0 0 0 0 0 0 0 0 0 0 0 0 0 0 0 0 0 0 .4 0"/><feOffset dx="4.0" dy="4.0" in="blurOut2" result="blurOut3"/><feBlend in="SourceGraphic" in2="blurOut3" mode="normal"/></filter></defs><g><!--MD5=[9a068e1fd473d70974d007e7db99c40a]
class com.ibm.fhir.model.resource.Encounter.Hospitalization--><a href="Encounter.Hospitalization.html" target="_top" title="Encounter.Hospitalization.html" xlink:actuate="onRequest" xlink:href="Encounter.Hospitalization.html" xlink:show="new" xlink:title="Encounter.Hospitalization.html" xlink:type="simple"><rect fill="#FEFECE" filter="url(#fvca6cu1dydgu)" height="212.3984" id="com.ibm.fhir.model.resource.Encounter.Hospitalization" style="stroke: #A80036; stroke-width: 1.5;" width="312" x="29.5" y="127"/><ellipse cx="93.25" cy="145.9688" fill="#ADD1B2" rx="11" ry="11" style="stroke: #A80036; stroke-width: 1.0;"/><path d="M96.2188,151.6094 Q95.6406,151.9063 95,152.0469 Q94.3594,152.2031 93.6563,152.2031 Q91.1563,152.2031 89.8281,150.5625 Q88.5156,148.9063 88.5156,145.7813 Q88.5156,142.6563 89.8281,141 Q91.1563,139.3438 93.6563,139.3438 Q94.3594,139.3438 95,139.5 Q95.6563,139.6563 96.2188,139.9531 L96.2188,142.6719 Q95.5938,142.0938 95,141.8281 Q94.4063,141.5469 93.7813,141.5469 Q92.4375,141.5469 91.75,142.625 Q91.0625,143.6875 91.0625,145.7813 Q91.0625,147.875 91.75,148.9531 Q92.4375,150.0156 93.7813,150.0156 Q94.4063,150.0156 95,149.75 Q95.5938,149.4688 96.2188,148.8906 L96.2188,151.6094 Z "/><text fill="#000000" font-family="sans-serif" font-size="14" lengthAdjust="spacingAndGlyphs" textLength="176" x="113.75" y="144.9951">Encounter.Hospitalization</text><text fill="#000000" font-family="sans-serif" font-size="10" lengthAdjust="spacingAndGlyphs" textLength="139" x="132.25" y="157.5791">com.ibm.fhir.model.resource</text><line style="stroke: #A80036; stroke-width: 1.5;" x1="30.5" x2="340.5" y1="164.9375" y2="164.9375"/><ellipse cx="40.5" cy="175.9375" fill="#84BE84" rx="3" ry="3" style="stroke: #038048; stroke-width: 1.0;"/><text fill="#000000" font-family="sans-serif" font-size="11" lengthAdjust="spacingAndGlyphs" textLength="212" x="49.5" y="179.1479">getPreAdmissionIdentifier(): Identifier</text><ellipse cx="40.5" cy="188.7422" fill="#84BE84" rx="3" ry="3" style="stroke: #038048; stroke-width: 1.0;"/><text fill="#000000" font-family="sans-serif" font-size="11" lengthAdjust="spacingAndGlyphs" textLength="125" x="49.5" y="191.9526">getOrigin(): Reference</text><ellipse cx="40.5" cy="201.5469" fill="#84BE84" rx="3" ry="3" style="stroke: #038048; stroke-width: 1.0;"/><text fill="#000000" font-family="sans-serif" font-size="11" lengthAdjust="spacingAndGlyphs" textLength="205" x="49.5" y="204.7573">getAdmitSource(): CodeableConcept</text><ellipse cx="40.5" cy="214.3516" fill="#84BE84" rx="3" ry="3" style="stroke: #038048; stroke-width: 1.0;"/><text fill="#000000" font-family="sans-serif" font-size="11" lengthAdjust="spacingAndGlyphs" textLength="206" x="49.5" y="217.562">getReAdmission(): CodeableConcept</text><ellipse cx="40.5" cy="227.1563" fill="#84BE84" rx="3" ry="3" style="stroke: #038048; stroke-width: 1.0;"/><text fill="#000000" font-family="sans-serif" font-size="11" lengthAdjust="spacingAndGlyphs" textLength="255" x="49.5" y="230.3667">getDietPreference(): List&lt;CodeableConcept&gt;</text><ellipse cx="40.5" cy="239.9609" fill="#84BE84" rx="3" ry="3" style="stroke: #038048; stroke-width: 1.0;"/><text fill="#000000" font-family="sans-serif" font-size="11" lengthAdjust="spacingAndGlyphs" textLength="263" x="49.5" y="243.1714">getSpecialCourtesy(): List&lt;CodeableConcept&gt;</text><ellipse cx="40.5" cy="252.7656" fill="#84BE84" rx="3" ry="3" style="stroke: #038048; stroke-width: 1.0;"/><text fill="#000000" font-family="sans-serif" font-size="11" lengthAdjust="spacingAndGlyphs" textLength="286" x="49.5" y="255.9761">getSpecialArrangement(): List&lt;CodeableConcept&gt;</text><ellipse cx="40.5" cy="265.5703" fill="#84BE84" rx="3" ry="3" style="stroke: #038048; stroke-width: 1.0;"/><text fill="#000000" font-family="sans-serif" font-size="11" lengthAdjust="spacingAndGlyphs" textLength="155" x="49.5" y="268.7808">getDestination(): Reference</text><ellipse cx="40.5" cy="278.375" fill="#84BE84" rx="3" ry="3" style="stroke: #038048; stroke-width: 1.0;"/><text fill="#000000" font-family="sans-serif" font-size="11" lengthAdjust="spacingAndGlyphs" textLength="253" x="49.5" y="281.5854">getDischargeDisposition(): CodeableConcept</text><ellipse cx="40.5" cy="291.1797" fill="#84BE84" rx="3" ry="3" style="stroke: #038048; stroke-width: 1.0;"/><text fill="#000000" font-family="sans-serif" font-size="11" lengthAdjust="spacingAndGlyphs" textLength="129" x="49.5" y="294.3901">hasChildren(): boolean</text><ellipse cx="40.5" cy="303.9844" fill="#84BE84" rx="3" ry="3" style="stroke: #038048; stroke-width: 1.0;"/><text fill="#000000" font-family="sans-serif" font-size="11" lengthAdjust="spacingAndGlyphs" textLength="176" x="49.5" y="307.1948">accept(String, int, Visitor): void</text><ellipse cx="40.5" cy="316.7891" fill="#84BE84" rx="3" ry="3" style="stroke: #038048; stroke-width: 1.0;"/><text fill="#000000" font-family="sans-serif" font-size="11" lengthAdjust="spacingAndGlyphs" textLength="107" x="49.5" y="319.9995">toBuilder(): Builder</text><ellipse cx="40.5" cy="329.5938" fill="#84BE84" rx="3" ry="3" style="stroke: #038048; stroke-width: 1.0;"/><text fill="#000000" font-family="sans-serif" font-size="11" lengthAdjust="spacingAndGlyphs" text-decoration="underline" textLength="95" x="49.5" y="332.8042">builder(): Builder</text></a><!--MD5=[efbff6997283c56b83e991a8eeb6a60a]
class com.ibm.fhir.model.type.BackboneElement--><a href="../type/BackboneElement.html" target="_top" title="../type/BackboneElement.html" xlink:actuate="onRequest" xlink:href="../type/BackboneElement.html" xlink:show="new" xlink:title="../type/BackboneElement.html" xlink:type="simple"><rect fill="#FEFECE" filter="url(#fvca6cu1dydgu)" height="58.7422" id="com.ibm.fhir.model.type.BackboneElement" style="stroke: #A80036; stroke-width: 1.5;" width="159" x="6" y="8"/><ellipse cx="21" cy="26.9688" fill="#A9DCDF" rx="11" ry="11" style="stroke: #A80036; stroke-width: 1.0;"/><path d="M21.1094,22.3125 L19.9531,27.3906 L22.2813,27.3906 L21.1094,22.3125 Z M19.625,20.0781 L22.6094,20.0781 L25.9688,32.4688 L23.5156,32.4688 L22.75,29.4063 L19.4688,29.4063 L18.7188,32.4688 L16.2813,32.4688 L19.625,20.0781 Z "/><text fill="#000000" font-family="sans-serif" font-size="14" font-style="italic" lengthAdjust="spacingAndGlyphs" textLength="127" x="35" y="25.9951">BackboneElement</text><text fill="#000000" font-family="sans-serif" font-size="10" font-style="italic" lengthAdjust="spacingAndGlyphs" textLength="119" x="39" y="38.5791">com.ibm.fhir.model.type</text><line style="stroke: #A80036; stroke-width: 1.5;" x1="7" x2="164" y1="45.9375" y2="45.9375"/><ellipse cx="17" cy="56.9375" fill="#84BE84" rx="3" ry="3" style="stroke: #038048; stroke-width: 1.0;"/><text fill="#000000" font-family="sans-serif" font-size="11" font-style="italic" lengthAdjust="spacingAndGlyphs" textLength="107" x="26" y="60.1479">toBuilder(): Builder</text></a><!--MD5=[ac28c8b30b10e4ede99589877ec0e313]
class com.ibm.fhir.model.resource.Encounter--><a href="Encounter.html" target="_top" title="Encounter.html" xlink:actuate="onRequest" xlink:href="Encounter.html" xlink:show="new" xlink:title="Encounter.html" xlink:type="simple"><rect fill="#FEFECE" filter="url(#fvca6cu1dydgu)" height="37.9375" id="com.ibm.fhir.model.resource.Encounter" style="stroke: #A80036; stroke-width: 1.5;" width="171" x="200" y="18.5"/><ellipse cx="215" cy="37.4688" fill="#ADD1B2" rx="11" ry="11" style="stroke: #A80036; stroke-width: 1.0;"/><path d="M217.9688,43.1094 Q217.3906,43.4063 216.75,43.5469 Q216.1094,43.7031 215.4063,43.7031 Q212.9063,43.7031 211.5781,42.0625 Q210.2656,40.4063 210.2656,37.2813 Q210.2656,34.1563 211.5781,32.5 Q212.9063,30.8438 215.4063,30.8438 Q216.1094,30.8438 216.75,31 Q217.4063,31.1563 217.9688,31.4531 L217.9688,34.1719 Q217.3438,33.5938 216.75,33.3281 Q216.1563,33.0469 215.5313,33.0469 Q214.1875,33.0469 213.5,34.125 Q212.8125,35.1875 212.8125,37.2813 Q212.8125,39.375 213.5,40.4531 Q214.1875,41.5156 215.5313,41.5156 Q216.1563,41.5156 216.75,41.25 Q217.3438,40.9688 217.9688,40.3906 L217.9688,43.1094 Z "/><text fill="#000000" font-family="sans-serif" font-size="14" lengthAdjust="spacingAndGlyphs" textLength="72" x="262.5" y="36.4951">Encounter</text><text fill="#000000" font-family="sans-serif" font-size="10" lengthAdjust="spacingAndGlyphs" textLength="139" x="229" y="49.0791">com.ibm.fhir.model.resource</text></a><!--MD5=[c4daf102fe346ff21f37c3a13af8773d]
class com.ibm.fhir.model.resource.Encounter.Hospitalization.Builder--><a href="Encounter.Hospitalization.Builder.html" target="_top" title="Encounter.Hospitalization.Builder.html" xlink:actuate="onRequest" xlink:href="Encounter.Hospitalization.Builder.html" xlink:show="new" xlink:title="Encounter.Hospitalization.Builder.html" xlink:type="simple"><rect fill="#FEFECE" filter="url(#fvca6cu1dydgu)" height="37.9375" id="com.ibm.fhir.model.resource.Encounter.Hospitalization.Builder" style="stroke: #A80036; stroke-width: 1.5;" width="260" x="55.5" y="399"/><ellipse cx="70.5" cy="417.9688" fill="#ADD1B2" rx="11" ry="11" style="stroke: #A80036; stroke-width: 1.0;"/><path d="M73.4688,423.6094 Q72.8906,423.9063 72.25,424.0469 Q71.6094,424.2031 70.9063,424.2031 Q68.4063,424.2031 67.0781,422.5625 Q65.7656,420.9063 65.7656,417.7813 Q65.7656,414.6563 67.0781,413 Q68.4063,411.3438 70.9063,411.3438 Q71.6094,411.3438 72.25,411.5 Q72.9063,411.6563 73.4688,411.9531 L73.4688,414.6719 Q72.8438,414.0938 72.25,413.8281 Q71.6563,413.5469 71.0313,413.5469 Q69.6875,413.5469 69,414.625 Q68.3125,415.6875 68.3125,417.7813 Q68.3125,419.875 69,420.9531 Q69.6875,422.0156 71.0313,422.0156 Q71.6563,422.0156 72.25,421.75 Q72.8438,421.4688 73.4688,420.8906 L73.4688,423.6094 Z "/><text fill="#000000" font-family="sans-serif" font-size="14" lengthAdjust="spacingAndGlyphs" textLength="228" x="84.5" y="416.9951">Encounter.Hospitalization.Builder</text><text fill="#000000" font-family="sans-serif" font-size="10" lengthAdjust="spacingAndGlyphs" textLength="139" x="129" y="429.5791">com.ibm.fhir.model.resource</text></a><!--MD5=[31146268c4d9938306763c082c9f8761]
reverse link com.ibm.fhir.model.type.BackboneElement to com.ibm.fhir.model.resource.Encounter.Hospitalization--><path d="M109.8987,85.1994 C116.4286,97.9653 123.7562,112.2909 131.212,126.867 " fill="none" id="com.ibm.fhir.model.type.BackboneElement&lt;-com.ibm.fhir.model.resource.Encounter.Hospitalization" style="stroke: #A80036; stroke-width: 1.0;"/><polygon fill="none" points="103.5637,88.1858,100.6878,67.1922,116.0278,81.8103,103.5637,88.1858" style="stroke: #A80036; stroke-width: 1.0;"/><!--MD5=[176f7f482bc60de551a217823b8965e5]
reverse link com.ibm.fhir.model.resource.Encounter to com.ibm.fhir.model.resource.Encounter.Hospitalization--><path d="M268.6759,70.3912 C260.5798,86.2191 250.3688,106.1815 239.8986,126.6507 " fill="none" id="com.ibm.fhir.model.resource.Encounter&lt;-com.ibm.fhir.model.resource.Encounter.Hospitalization" style="stroke: #A80036; stroke-width: 1.0;"/><ellipse cx="272.0864" cy="63.7236" fill="#FFFFFF" rx="8" ry="8" style="stroke: #A80036; stroke-width: 1.0;"/><line style="stroke: #A80036; stroke-width: 1.0;" x1="268.4433" x2="275.7295" y1="70.846" y2="56.6013"/><line style="stroke: #A80036; stroke-width: 1.0;" x1="264.964" x2="279.2087" y1="60.0805" y2="67.3668"/><!--MD5=[4eefa7bbda00d95fab86ec2f0f179442]
reverse link com.ibm.fhir.model.resource.Encounter.Hospitalization to com.ibm.fhir.model.resource.Encounter.Hospitalization.Builder--><path d="M185.5,354.1939 C185.5,371.5171 185.5,387.35 185.5,398.9107 " fill="none" id="com.ibm.fhir.model.resource.Encounter.Hospitalization&lt;-com.ibm.fhir.model.resource.Encounter.Hospitalization.Builder" style="stroke: #A80036; stroke-width: 1.0;"/><ellipse cx="185.5001" cy="347.0067" fill="#FFFFFF" rx="8" ry="8" style="stroke: #A80036; stroke-width: 1.0;"/><line style="stroke: #A80036; stroke-width: 1.0;" x1="185.5002" x2="185.5" y1="355.0067" y2="339.0067"/><line style="stroke: #A80036; stroke-width: 1.0;" x1="177.5001" x2="193.5001" y1="347.0068" y2="347.0066"/><text fill="#888888" font-family="sans-serif" font-size="10" lengthAdjust="spacingAndGlyphs" textLength="186" x="101.5" y="456.2822">UMLDoclet 2.0.7, PlantUML 1.2019.12</text><!--MD5=[dd80f4649b20679e7b3d120942191aba]
@startuml
    set namespaceSeparator none
    hide empty fields
    hide empty methods

    class "<size:14>Encounter.Hospitalization\n<size:10>com.ibm.fhir.model.resource" as com.ibm.fhir.model.resource.Encounter.Hospitalization [[Encounter.Hospitalization.html]] {
        +getPreAdmissionIdentifier(): Identifier
        +getOrigin(): Reference
        +getAdmitSource(): CodeableConcept
        +getReAdmission(): CodeableConcept
        +getDietPreference(): List<CodeableConcept>
        +getSpecialCourtesy(): List<CodeableConcept>
        +getSpecialArrangement(): List<CodeableConcept>
        +getDestination(): Reference
        +getDischargeDisposition(): CodeableConcept
        +hasChildren(): boolean
        +accept(String, int, Visitor): void
        +toBuilder(): Builder
        {static} +builder(): Builder
    }

    abstract class "<size:14>BackboneElement\n<size:10>com.ibm.fhir.model.type" as com.ibm.fhir.model.type.BackboneElement [[../type/BackboneElement.html]] {
        {abstract} +toBuilder(): Builder
    }
    class "<size:14>Encounter\n<size:10>com.ibm.fhir.model.resource" as com.ibm.fhir.model.resource.Encounter [[Encounter.html]]
    class "<size:14>Encounter.Hospitalization.Builder\n<size:10>com.ibm.fhir.model.resource" as com.ibm.fhir.model.resource.Encounter.Hospitalization.Builder [[Encounter.Hospitalization.Builder.html]]

    com.ibm.fhir.model.type.BackboneElement <|- - com.ibm.fhir.model.resource.Encounter.Hospitalization
    com.ibm.fhir.model.resource.Encounter +- - com.ibm.fhir.model.resource.Encounter.Hospitalization
    com.ibm.fhir.model.resource.Encounter.Hospitalization +- - com.ibm.fhir.model.resource.Encounter.Hospitalization.Builder

    center footer UMLDoclet 2.0.7, PlantUML 1.2019.12
@enduml

PlantUML version 1.2019.12(Sun Nov 03 10:24:54 UTC 2019)
(APACHE source distribution)
Java Runtime: OpenJDK Runtime Environment
JVM: OpenJDK 64-Bit Server VM
Java Version: 11.0.8+10
Operating System: Linux
Default Encoding: UTF-8
Language: en
Country: null
--></g></svg>