<?xml version="1.0" encoding="UTF-8" standalone="no"?><svg xmlns="http://www.w3.org/2000/svg" xmlns:xlink="http://www.w3.org/1999/xlink" contentScriptType="application/ecmascript" contentStyleType="text/css" height="484px" preserveAspectRatio="none" style="width:1848px;height:484px;" version="1.1" viewBox="0 0 1848 484" width="1848px" zoomAndPan="magnify"><defs><filter height="300%" id="fxk75dr9okln2" width="300%" x="-1" y="-1"><feGaussianBlur result="blurOut" stdDeviation="2.0"/><feColorMatrix in="blurOut" result="blurOut2" type="matrix" values="0 0 0 0 0 0 0 0 0 0 0 0 0 0 0 0 0 0 .4 0"/><feOffset dx="4.0" dy="4.0" in="blurOut2" result="blurOut3"/><feBlend in="SourceGraphic" in2="blurOut3" mode="normal"/></filter></defs><g><!--MD5=[6545c481db8071501b36a74cce94af0a]
cluster com.ibm.fhir.persistence.jdbc.util.type--><polygon fill="#FFFFFF" filter="url(#fxk75dr9okln2)" points="22,24,332,24,339,46.2969,1826,46.2969,1826,436,22,436,22,24" style="stroke: #000000; stroke-width: 1.5;"/><line style="stroke: #000000; stroke-width: 1.5;" x1="22" x2="339" y1="46.2969" y2="46.2969"/><text fill="#000000" font-family="sans-serif" font-size="14" font-weight="bold" lengthAdjust="spacingAndGlyphs" textLength="304" x="26" y="38.9951">com.ibm.fhir.persistence.jdbc.util.type</text><!--MD5=[19a15e8341d5dd5c44cc15eff514b401]
class com.ibm.fhir.persistence.jdbc.util.type.LastUpdatedParmBehaviorUtil--><a href="LastUpdatedParmBehaviorUtil.html" target="_top" title="LastUpdatedParmBehaviorUtil.html" xlink:actuate="onRequest" xlink:href="LastUpdatedParmBehaviorUtil.html" xlink:show="new" xlink:title="LastUpdatedParmBehaviorUtil.html" xlink:type="simple"><rect fill="#FEFECE" filter="url(#fxk75dr9okln2)" height="176.0469" id="com.ibm.fhir.persistence.jdbc.util.type.LastUpdatedParmBehaviorUtil" style="stroke: #A80036; stroke-width: 1.5;" width="493" x="37.5" y="59"/><ellipse cx="186.75" cy="75" fill="#ADD1B2" rx="11" ry="11" style="stroke: #A80036; stroke-width: 1.0;"/><path d="M189.7188,80.6406 Q189.1406,80.9375 188.5,81.0781 Q187.8594,81.2344 187.1563,81.2344 Q184.6563,81.2344 183.3281,79.5938 Q182.0156,77.9375 182.0156,74.8125 Q182.0156,71.6875 183.3281,70.0313 Q184.6563,68.375 187.1563,68.375 Q187.8594,68.375 188.5,68.5313 Q189.1563,68.6875 189.7188,68.9844 L189.7188,71.7031 Q189.0938,71.125 188.5,70.8594 Q187.9063,70.5781 187.2813,70.5781 Q185.9375,70.5781 185.25,71.6563 Q184.5625,72.7188 184.5625,74.8125 Q184.5625,76.9063 185.25,77.9844 Q185.9375,79.0469 187.2813,79.0469 Q187.9063,79.0469 188.5,78.7813 Q189.0938,78.5 189.7188,77.9219 L189.7188,80.6406 Z "/><text fill="#000000" font-family="sans-serif" font-size="12" lengthAdjust="spacingAndGlyphs" textLength="186" x="207.25" y="79.1543">LastUpdatedParmBehaviorUtil</text><line style="stroke: #A80036; stroke-width: 1.5;" x1="38.5" x2="529.5" y1="91" y2="91"/><ellipse cx="48.5" cy="102" fill="none" rx="3" ry="3" style="stroke: #038048; stroke-width: 1.0;"/><text fill="#000000" font-family="sans-serif" font-size="11" lengthAdjust="spacingAndGlyphs" text-decoration="underline" textLength="128" x="57.5" y="105.2104">LAST_UPDATED: String</text><ellipse cx="48.5" cy="114.8047" fill="none" rx="3" ry="3" style="stroke: #038048; stroke-width: 1.0;"/><text fill="#000000" font-family="sans-serif" font-size="11" lengthAdjust="spacingAndGlyphs" text-decoration="underline" textLength="219" x="57.5" y="118.0151">LAST_UPDATED_COLUMN_NAME: String</text><line style="stroke: #A80036; stroke-width: 1.5;" x1="38.5" x2="529.5" y1="124.6094" y2="124.6094"/><ellipse cx="48.5" cy="135.6094" fill="#84BE84" rx="3" ry="3" style="stroke: #038048; stroke-width: 1.0;"/><text fill="#000000" font-family="sans-serif" font-size="11" lengthAdjust="spacingAndGlyphs" textLength="467" x="57.5" y="138.8198">buildLastUpdatedDerivedTable(StringBuilder, String, List&lt;QueryParameter&gt;): void</text><ellipse cx="48.5" cy="148.4141" fill="#84BE84" rx="3" ry="3" style="stroke: #038048; stroke-width: 1.0;"/><text fill="#000000" font-family="sans-serif" font-size="11" lengthAdjust="spacingAndGlyphs" textLength="309" x="57.5" y="151.6245">executeBehavior(StringBuilder, QueryParameter): void</text><ellipse cx="48.5" cy="161.2188" fill="#84BE84" rx="3" ry="3" style="stroke: #038048; stroke-width: 1.0;"/><text fill="#000000" font-family="sans-serif" font-size="11" lengthAdjust="spacingAndGlyphs" textLength="334" x="57.5" y="164.4292">buildPredicates(StringBuilder, Prefix, Instant, Instant): void</text><ellipse cx="48.5" cy="174.0234" fill="#84BE84" rx="3" ry="3" style="stroke: #038048; stroke-width: 1.0;"/><text fill="#000000" font-family="sans-serif" font-size="11" lengthAdjust="spacingAndGlyphs" textLength="319" x="57.5" y="177.2339">buildCommonClause(StringBuilder, String, Instant): void</text><ellipse cx="48.5" cy="186.8281" fill="#84BE84" rx="3" ry="3" style="stroke: #038048; stroke-width: 1.0;"/><text fill="#000000" font-family="sans-serif" font-size="11" lengthAdjust="spacingAndGlyphs" textLength="346" x="57.5" y="190.0386">buildEqualsRangeClause(StringBuilder, Instant, Instant): void</text><ellipse cx="48.5" cy="199.6328" fill="#84BE84" rx="3" ry="3" style="stroke: #038048; stroke-width: 1.0;"/><text fill="#000000" font-family="sans-serif" font-size="11" lengthAdjust="spacingAndGlyphs" textLength="365" x="57.5" y="202.8433">buildNotEqualsRangeClause(StringBuilder, Instant, Instant): void</text><ellipse cx="48.5" cy="212.4375" fill="#84BE84" rx="3" ry="3" style="stroke: #038048; stroke-width: 1.0;"/><text fill="#000000" font-family="sans-serif" font-size="11" lengthAdjust="spacingAndGlyphs" textLength="214" x="57.5" y="215.6479">getBindVariables(): List&lt;Timestamp&gt;</text><ellipse cx="48.5" cy="225.2422" fill="#84BE84" rx="3" ry="3" style="stroke: #038048; stroke-width: 1.0;"/><text fill="#000000" font-family="sans-serif" font-size="11" lengthAdjust="spacingAndGlyphs" textLength="145" x="57.5" y="228.4526">clearBindVariables(): void</text></a><!--MD5=[27c28845fe48e7488f30b7818c16e9f0]
class com.ibm.fhir.persistence.jdbc.util.type.QuantityParmBehaviorUtil--><a href="QuantityParmBehaviorUtil.html" target="_top" title="QuantityParmBehaviorUtil.html" xlink:actuate="onRequest" xlink:href="QuantityParmBehaviorUtil.html" xlink:show="new" xlink:title="QuantityParmBehaviorUtil.html" xlink:type="simple"><rect fill="#FEFECE" filter="url(#fxk75dr9okln2)" height="99.2188" id="com.ibm.fhir.persistence.jdbc.util.type.QuantityParmBehaviorUtil" style="stroke: #A80036; stroke-width: 1.5;" width="551" x="565.5" y="97.5"/><ellipse cx="757.75" cy="113.5" fill="#ADD1B2" rx="11" ry="11" style="stroke: #A80036; stroke-width: 1.0;"/><path d="M760.7188,119.1406 Q760.1406,119.4375 759.5,119.5781 Q758.8594,119.7344 758.1563,119.7344 Q755.6563,119.7344 754.3281,118.0938 Q753.0156,116.4375 753.0156,113.3125 Q753.0156,110.1875 754.3281,108.5313 Q755.6563,106.875 758.1563,106.875 Q758.8594,106.875 759.5,107.0313 Q760.1563,107.1875 760.7188,107.4844 L760.7188,110.2031 Q760.0938,109.625 759.5,109.3594 Q758.9063,109.0781 758.2813,109.0781 Q756.9375,109.0781 756.25,110.1563 Q755.5625,111.2188 755.5625,113.3125 Q755.5625,115.4063 756.25,116.4844 Q756.9375,117.5469 758.2813,117.5469 Q758.9063,117.5469 759.5,117.2813 Q760.0938,117 760.7188,116.4219 L760.7188,119.1406 Z "/><text fill="#000000" font-family="sans-serif" font-size="12" lengthAdjust="spacingAndGlyphs" textLength="158" x="778.25" y="117.6543">QuantityParmBehaviorUtil</text><line style="stroke: #A80036; stroke-width: 1.5;" x1="566.5" x2="1115.5" y1="129.5" y2="129.5"/><line style="stroke: #A80036; stroke-width: 1.5;" x1="566.5" x2="1115.5" y1="137.5" y2="137.5"/><ellipse cx="576.5" cy="148.5" fill="#84BE84" rx="3" ry="3" style="stroke: #038048; stroke-width: 1.0;"/><text fill="#000000" font-family="sans-serif" font-size="11" lengthAdjust="spacingAndGlyphs" textLength="525" x="585.5" y="151.7104">executeBehavior(StringBuilder, QueryParameter, List&lt;Object&gt;, String, ParameterDAO): void</text><ellipse cx="576.5" cy="161.3047" fill="#84BE84" rx="3" ry="3" style="stroke: #038048; stroke-width: 1.0;"/><text fill="#000000" font-family="sans-serif" font-size="11" lengthAdjust="spacingAndGlyphs" textLength="486" x="585.5" y="164.5151">addSystemIfPresent(ParameterDAO, StringBuilder, String, List&lt;Object&gt;, String): void</text><ellipse cx="576.5" cy="174.1094" fill="#84BE84" rx="3" ry="3" style="stroke: #038048; stroke-width: 1.0;"/><text fill="#000000" font-family="sans-serif" font-size="11" lengthAdjust="spacingAndGlyphs" textLength="380" x="585.5" y="177.3198">addCodeIfPresent(StringBuilder, String, List&lt;Object&gt;, String): void</text><ellipse cx="576.5" cy="186.9141" fill="#84BE84" rx="3" ry="3" style="stroke: #038048; stroke-width: 1.0;"/><text fill="#000000" font-family="sans-serif" font-size="11" lengthAdjust="spacingAndGlyphs" textLength="149" x="585.5" y="190.1245">isPresent(String): boolean</text></a><!--MD5=[3a1489d27117eaf7e7806bf3f30fc285]
class com.ibm.fhir.persistence.jdbc.util.type.NumberParmBehaviorUtil--><a href="NumberParmBehaviorUtil.html" target="_top" title="NumberParmBehaviorUtil.html" xlink:actuate="onRequest" xlink:href="NumberParmBehaviorUtil.html" xlink:show="new" xlink:title="NumberParmBehaviorUtil.html" xlink:type="simple"><rect fill="#FEFECE" filter="url(#fxk75dr9okln2)" height="176.0469" id="com.ibm.fhir.persistence.jdbc.util.type.NumberParmBehaviorUtil" style="stroke: #A80036; stroke-width: 1.5;" width="658" x="1152" y="59"/><ellipse cx="1399.25" cy="75" fill="#ADD1B2" rx="11" ry="11" style="stroke: #A80036; stroke-width: 1.0;"/><path d="M1402.2188,80.6406 Q1401.6406,80.9375 1401,81.0781 Q1400.3594,81.2344 1399.6563,81.2344 Q1397.1563,81.2344 1395.8281,79.5938 Q1394.5156,77.9375 1394.5156,74.8125 Q1394.5156,71.6875 1395.8281,70.0313 Q1397.1563,68.375 1399.6563,68.375 Q1400.3594,68.375 1401,68.5313 Q1401.6563,68.6875 1402.2188,68.9844 L1402.2188,71.7031 Q1401.5938,71.125 1401,70.8594 Q1400.4063,70.5781 1399.7813,70.5781 Q1398.4375,70.5781 1397.75,71.6563 Q1397.0625,72.7188 1397.0625,74.8125 Q1397.0625,76.9063 1397.75,77.9844 Q1398.4375,79.0469 1399.7813,79.0469 Q1400.4063,79.0469 1401,78.7813 Q1401.5938,78.5 1402.2188,77.9219 L1402.2188,80.6406 Z "/><text fill="#000000" font-family="sans-serif" font-size="12" lengthAdjust="spacingAndGlyphs" textLength="155" x="1419.75" y="79.1543">NumberParmBehaviorUtil</text><line style="stroke: #A80036; stroke-width: 1.5;" x1="1153" x2="1809" y1="91" y2="91"/><polygon fill="none" points="1163,97,1167,101,1163,105,1159,101" style="stroke: #B38D22; stroke-width: 1.0;"/><text fill="#000000" font-family="sans-serif" font-size="11" lengthAdjust="spacingAndGlyphs" text-decoration="underline" textLength="115" x="1172" y="105.2104">FACTOR: BigDecimal</text><line style="stroke: #A80036; stroke-width: 1.5;" x1="1153" x2="1809" y1="111.8047" y2="111.8047"/><ellipse cx="1163" cy="122.8047" fill="#84BE84" rx="3" ry="3" style="stroke: #038048; stroke-width: 1.0;"/><text fill="#000000" font-family="sans-serif" font-size="11" lengthAdjust="spacingAndGlyphs" text-decoration="underline" textLength="606" x="1172" y="126.0151">executeBehavior(StringBuilder, QueryParameter, List&lt;Object&gt;, Class&lt;?&gt;, String, JDBCQueryBuilder): void</text><ellipse cx="1163" cy="135.6094" fill="#84BE84" rx="3" ry="3" style="stroke: #038048; stroke-width: 1.0;"/><text fill="#000000" font-family="sans-serif" font-size="11" lengthAdjust="spacingAndGlyphs" text-decoration="underline" textLength="442" x="1172" y="138.8198">addValue(StringBuilder, List&lt;Object&gt;, String, String, Prefix, BigDecimal): void</text><ellipse cx="1163" cy="148.4141" fill="#84BE84" rx="3" ry="3" style="stroke: #038048; stroke-width: 1.0;"/><text fill="#000000" font-family="sans-serif" font-size="11" lengthAdjust="spacingAndGlyphs" text-decoration="underline" textLength="622" x="1172" y="151.6245">buildCommonClause(StringBuilder, List&lt;Object&gt;, String, String, String, String, BigDecimal, BigDecimal): void</text><ellipse cx="1163" cy="161.2188" fill="#84BE84" rx="3" ry="3" style="stroke: #038048; stroke-width: 1.0;"/><text fill="#000000" font-family="sans-serif" font-size="11" lengthAdjust="spacingAndGlyphs" text-decoration="underline" textLength="614" x="1172" y="164.4292">buildEbOrSaClause(StringBuilder, List&lt;Object&gt;, String, String, String, String, BigDecimal, BigDecimal): void</text><ellipse cx="1163" cy="174.0234" fill="#84BE84" rx="3" ry="3" style="stroke: #038048; stroke-width: 1.0;"/><text fill="#000000" font-family="sans-serif" font-size="11" lengthAdjust="spacingAndGlyphs" text-decoration="underline" textLength="560" x="1172" y="177.2339">buildEqualsRangeClause(StringBuilder, List&lt;Object&gt;, String, String, BigDecimal, BigDecimal): void</text><ellipse cx="1163" cy="186.8281" fill="#84BE84" rx="3" ry="3" style="stroke: #038048; stroke-width: 1.0;"/><text fill="#000000" font-family="sans-serif" font-size="11" lengthAdjust="spacingAndGlyphs" text-decoration="underline" textLength="632" x="1172" y="190.0386">buildApproxRangeClause(StringBuilder, List&lt;Object&gt;, String, String, BigDecimal, BigDecimal, BigDecimal): void</text><ellipse cx="1163" cy="199.6328" fill="#84BE84" rx="3" ry="3" style="stroke: #038048; stroke-width: 1.0;"/><text fill="#000000" font-family="sans-serif" font-size="11" lengthAdjust="spacingAndGlyphs" text-decoration="underline" textLength="579" x="1172" y="202.8433">buildNotEqualsRangeClause(StringBuilder, List&lt;Object&gt;, String, String, BigDecimal, BigDecimal): void</text><ellipse cx="1163" cy="212.4375" fill="#84BE84" rx="3" ry="3" style="stroke: #038048; stroke-width: 1.0;"/><text fill="#000000" font-family="sans-serif" font-size="11" lengthAdjust="spacingAndGlyphs" text-decoration="underline" textLength="263" x="1172" y="215.6479">generateLowerBound(BigDecimal): BigDecimal</text><ellipse cx="1163" cy="225.2422" fill="#84BE84" rx="3" ry="3" style="stroke: #038048; stroke-width: 1.0;"/><text fill="#000000" font-family="sans-serif" font-size="11" lengthAdjust="spacingAndGlyphs" text-decoration="underline" textLength="263" x="1172" y="228.4526">generateUpperBound(BigDecimal): BigDecimal</text></a><!--MD5=[4a28d8e5b00b64578f1b8c90125dbc92]
class com.ibm.fhir.persistence.jdbc.util.type.LocationParmBehaviorUtil--><a href="LocationParmBehaviorUtil.html" target="_top" title="LocationParmBehaviorUtil.html" xlink:actuate="onRequest" xlink:href="LocationParmBehaviorUtil.html" xlink:show="new" xlink:title="LocationParmBehaviorUtil.html" xlink:type="simple"><rect fill="#FEFECE" filter="url(#fxk75dr9okln2)" height="99.2188" id="com.ibm.fhir.persistence.jdbc.util.type.LocationParmBehaviorUtil" style="stroke: #A80036; stroke-width: 1.5;" width="552" x="38" y="308"/><ellipse cx="230.25" cy="324" fill="#ADD1B2" rx="11" ry="11" style="stroke: #A80036; stroke-width: 1.0;"/><path d="M233.2188,329.6406 Q232.6406,329.9375 232,330.0781 Q231.3594,330.2344 230.6563,330.2344 Q228.1563,330.2344 226.8281,328.5938 Q225.5156,326.9375 225.5156,323.8125 Q225.5156,320.6875 226.8281,319.0313 Q228.1563,317.375 230.6563,317.375 Q231.3594,317.375 232,317.5313 Q232.6563,317.6875 233.2188,317.9844 L233.2188,320.7031 Q232.5938,320.125 232,319.8594 Q231.4063,319.5781 230.7813,319.5781 Q229.4375,319.5781 228.75,320.6563 Q228.0625,321.7188 228.0625,323.8125 Q228.0625,325.9063 228.75,326.9844 Q229.4375,328.0469 230.7813,328.0469 Q231.4063,328.0469 232,327.7813 Q232.5938,327.5 233.2188,326.9219 L233.2188,329.6406 Z "/><text fill="#000000" font-family="sans-serif" font-size="12" lengthAdjust="spacingAndGlyphs" textLength="159" x="250.75" y="328.1543">LocationParmBehaviorUtil</text><line style="stroke: #A80036; stroke-width: 1.5;" x1="39" x2="589" y1="340" y2="340"/><line style="stroke: #A80036; stroke-width: 1.5;" x1="39" x2="589" y1="348" y2="348"/><ellipse cx="49" cy="359" fill="#84BE84" rx="3" ry="3" style="stroke: #038048; stroke-width: 1.0;"/><text fill="#000000" font-family="sans-serif" font-size="11" lengthAdjust="spacingAndGlyphs" textLength="526" x="58" y="362.2104">buildLocationSearchQuery(String, StringBuilder, List&lt;Object&gt;, List&lt;Bounding&gt;, String): void</text><ellipse cx="49" cy="371.8047" fill="#84BE84" rx="3" ry="3" style="stroke: #038048; stroke-width: 1.0;"/><text fill="#000000" font-family="sans-serif" font-size="11" lengthAdjust="spacingAndGlyphs" textLength="434" x="58" y="375.0151">buildQueryForBoundingMissing(String, StringBuilder, BoundingMissing): void</text><ellipse cx="49" cy="384.6094" fill="#84BE84" rx="3" ry="3" style="stroke: #038048; stroke-width: 1.0;"/><text fill="#000000" font-family="sans-serif" font-size="11" lengthAdjust="spacingAndGlyphs" textLength="472" x="58" y="387.8198">buildQueryForBoundingBox(StringBuilder, List&lt;Object&gt;, BoundingBox, String): void</text><ellipse cx="49" cy="397.4141" fill="#84BE84" rx="3" ry="3" style="stroke: #038048; stroke-width: 1.0;"/><text fill="#000000" font-family="sans-serif" font-size="11" lengthAdjust="spacingAndGlyphs" textLength="464" x="58" y="400.6245">buildQueryForBoundingRadius(StringBuilder, List&lt;Object&gt;, BoundingRadius): void</text></a><!--MD5=[ec965423835ad0a687c982050e67d345]
class com.ibm.fhir.persistence.jdbc.util.type.DateParmBehaviorUtil--><a href="DateParmBehaviorUtil.html" target="_top" title="DateParmBehaviorUtil.html" xlink:actuate="onRequest" xlink:href="DateParmBehaviorUtil.html" xlink:show="new" xlink:title="DateParmBehaviorUtil.html" xlink:type="simple"><rect fill="#FEFECE" filter="url(#fxk75dr9okln2)" height="124.8281" id="com.ibm.fhir.persistence.jdbc.util.type.DateParmBehaviorUtil" style="stroke: #A80036; stroke-width: 1.5;" width="543" x="625.5" y="295"/><ellipse cx="824.75" cy="311" fill="#ADD1B2" rx="11" ry="11" style="stroke: #A80036; stroke-width: 1.0;"/><path d="M827.7188,316.6406 Q827.1406,316.9375 826.5,317.0781 Q825.8594,317.2344 825.1563,317.2344 Q822.6563,317.2344 821.3281,315.5938 Q820.0156,313.9375 820.0156,310.8125 Q820.0156,307.6875 821.3281,306.0313 Q822.6563,304.375 825.1563,304.375 Q825.8594,304.375 826.5,304.5313 Q827.1563,304.6875 827.7188,304.9844 L827.7188,307.7031 Q827.0938,307.125 826.5,306.8594 Q825.9063,306.5781 825.2813,306.5781 Q823.9375,306.5781 823.25,307.6563 Q822.5625,308.7188 822.5625,310.8125 Q822.5625,312.9063 823.25,313.9844 Q823.9375,315.0469 825.2813,315.0469 Q825.9063,315.0469 826.5,314.7813 Q827.0938,314.5 827.7188,313.9219 L827.7188,316.6406 Z "/><text fill="#000000" font-family="sans-serif" font-size="12" lengthAdjust="spacingAndGlyphs" textLength="136" x="845.25" y="315.1543">DateParmBehaviorUtil</text><line style="stroke: #A80036; stroke-width: 1.5;" x1="626.5" x2="1167.5" y1="327" y2="327"/><line style="stroke: #A80036; stroke-width: 1.5;" x1="626.5" x2="1167.5" y1="335" y2="335"/><ellipse cx="636.5" cy="346" fill="#84BE84" rx="3" ry="3" style="stroke: #038048; stroke-width: 1.0;"/><text fill="#000000" font-family="sans-serif" font-size="11" lengthAdjust="spacingAndGlyphs" textLength="461" x="645.5" y="349.2104">executeBehavior(StringBuilder, QueryParameter, List&lt;Timestamp&gt;, String): void</text><ellipse cx="636.5" cy="358.8047" fill="#84BE84" rx="3" ry="3" style="stroke: #038048; stroke-width: 1.0;"/><text fill="#000000" font-family="sans-serif" font-size="11" lengthAdjust="spacingAndGlyphs" textLength="486" x="645.5" y="362.0151">buildPredicates(StringBuilder, List&lt;Timestamp&gt;, String, Prefix, Instant, Instant): void</text><ellipse cx="636.5" cy="371.6094" fill="#84BE84" rx="3" ry="3" style="stroke: #038048; stroke-width: 1.0;"/><text fill="#000000" font-family="sans-serif" font-size="11" lengthAdjust="spacingAndGlyphs" textLength="513" x="645.5" y="374.8198">buildCommonClause(StringBuilder, List&lt;Timestamp&gt;, String, String, String, Instant): void</text><ellipse cx="636.5" cy="384.4141" fill="#84BE84" rx="3" ry="3" style="stroke: #038048; stroke-width: 1.0;"/><text fill="#000000" font-family="sans-serif" font-size="11" lengthAdjust="spacingAndGlyphs" textLength="498" x="645.5" y="387.6245">buildEqualsRangeClause(StringBuilder, List&lt;Timestamp&gt;, String, Instant, Instant): void</text><ellipse cx="636.5" cy="397.2188" fill="#84BE84" rx="3" ry="3" style="stroke: #038048; stroke-width: 1.0;"/><text fill="#000000" font-family="sans-serif" font-size="11" lengthAdjust="spacingAndGlyphs" textLength="499" x="645.5" y="400.4292">buildApproxRangeClause(StringBuilder, List&lt;Timestamp&gt;, String, Instant, Instant): void</text><ellipse cx="636.5" cy="410.0234" fill="#84BE84" rx="3" ry="3" style="stroke: #038048; stroke-width: 1.0;"/><text fill="#000000" font-family="sans-serif" font-size="11" lengthAdjust="spacingAndGlyphs" textLength="517" x="645.5" y="413.2339">buildNotEqualsRangeClause(StringBuilder, List&lt;Timestamp&gt;, String, Instant, Instant): void</text></a><!--MD5=[0e3f3f8fb82700d5105c44c7f50cba86]
link com.ibm.fhir.persistence.jdbc.util.type.LastUpdatedParmBehaviorUtil to com.ibm.fhir.persistence.jdbc.util.type.QuantityParmBehaviorUtil--><!--MD5=[4e5a3e54fcbe0d59ea5a6a9c46f6860e]
link com.ibm.fhir.persistence.jdbc.util.type.QuantityParmBehaviorUtil to com.ibm.fhir.persistence.jdbc.util.type.NumberParmBehaviorUtil--><!--MD5=[86de2d694404425d819c7eb8e951f3b4]
link com.ibm.fhir.persistence.jdbc.util.type.LastUpdatedParmBehaviorUtil to com.ibm.fhir.persistence.jdbc.util.type.LocationParmBehaviorUtil--><!--MD5=[e824b6b22d70e639528f425aa60e78f6]
link com.ibm.fhir.persistence.jdbc.util.type.LocationParmBehaviorUtil to com.ibm.fhir.persistence.jdbc.util.type.DateParmBehaviorUtil--><text fill="#888888" font-family="sans-serif" font-size="10" lengthAdjust="spacingAndGlyphs" textLength="186" x="837" y="471.2822">UMLDoclet 2.0.7, PlantUML 1.2019.12</text><!--MD5=[6d62a27315bc39f020702bdaee9b1ac2]
@startuml
    namespace com.ibm.fhir.persistence.jdbc.util.type {

        class LastUpdatedParmBehaviorUtil [[LastUpdatedParmBehaviorUtil.html]] {
            {static} +LAST_UPDATED: String
            {static} +LAST_UPDATED_COLUMN_NAME: String
            +buildLastUpdatedDerivedTable(StringBuilder, String, List<QueryParameter>): void
            +executeBehavior(StringBuilder, QueryParameter): void
            +buildPredicates(StringBuilder, Prefix, Instant, Instant): void
            +buildCommonClause(StringBuilder, String, Instant): void
            +buildEqualsRangeClause(StringBuilder, Instant, Instant): void
            +buildNotEqualsRangeClause(StringBuilder, Instant, Instant): void
            +getBindVariables(): List<Timestamp>
            +clearBindVariables(): void
        }

        class QuantityParmBehaviorUtil [[QuantityParmBehaviorUtil.html]] {
            +executeBehavior(StringBuilder, QueryParameter, List<Object>, String, ParameterDAO): void
            +addSystemIfPresent(ParameterDAO, StringBuilder, String, List<Object>, String): void
            +addCodeIfPresent(StringBuilder, String, List<Object>, String): void
            +isPresent(String): boolean
        }

        class NumberParmBehaviorUtil [[NumberParmBehaviorUtil.html]] {
            {static} #FACTOR: BigDecimal
            {static} +executeBehavior(StringBuilder, QueryParameter, List<Object>, Class<?>, String, JDBCQueryBuilder): void
            {static} +addValue(StringBuilder, List<Object>, String, String, Prefix, BigDecimal): void
            {static} +buildCommonClause(StringBuilder, List<Object>, String, String, String, String, BigDecimal, BigDecimal): void
            {static} +buildEbOrSaClause(StringBuilder, List<Object>, String, String, String, String, BigDecimal, BigDecimal): void
            {static} +buildEqualsRangeClause(StringBuilder, List<Object>, String, String, BigDecimal, BigDecimal): void
            {static} +buildApproxRangeClause(StringBuilder, List<Object>, String, String, BigDecimal, BigDecimal, BigDecimal): void
            {static} +buildNotEqualsRangeClause(StringBuilder, List<Object>, String, String, BigDecimal, BigDecimal): void
            {static} +generateLowerBound(BigDecimal): BigDecimal
            {static} +generateUpperBound(BigDecimal): BigDecimal
        }

        class LocationParmBehaviorUtil [[LocationParmBehaviorUtil.html]] {
            +buildLocationSearchQuery(String, StringBuilder, List<Object>, List<Bounding>, String): void
            +buildQueryForBoundingMissing(String, StringBuilder, BoundingMissing): void
            +buildQueryForBoundingBox(StringBuilder, List<Object>, BoundingBox, String): void
            +buildQueryForBoundingRadius(StringBuilder, List<Object>, BoundingRadius): void
        }

        class DateParmBehaviorUtil [[DateParmBehaviorUtil.html]] {
            +executeBehavior(StringBuilder, QueryParameter, List<Timestamp>, String): void
            +buildPredicates(StringBuilder, List<Timestamp>, String, Prefix, Instant, Instant): void
            +buildCommonClause(StringBuilder, List<Timestamp>, String, String, String, Instant): void
            +buildEqualsRangeClause(StringBuilder, List<Timestamp>, String, Instant, Instant): void
            +buildApproxRangeClause(StringBuilder, List<Timestamp>, String, Instant, Instant): void
            +buildNotEqualsRangeClause(StringBuilder, List<Timestamp>, String, Instant, Instant): void
        }

    }

    center footer UMLDoclet 2.0.7, PlantUML 1.2019.12
@enduml

PlantUML version 1.2019.12(Sun Nov 03 10:24:54 UTC 2019)
(APACHE source distribution)
Java Runtime: OpenJDK Runtime Environment
JVM: OpenJDK 64-Bit Server VM
Java Version: 11.0.10+9
Operating System: Linux
Default Encoding: UTF-8
Language: en
Country: null
--></g></svg>