<?xml version="1.0" encoding="UTF-8" standalone="no"?><svg xmlns="http://www.w3.org/2000/svg" xmlns:xlink="http://www.w3.org/1999/xlink" contentScriptType="application/ecmascript" contentStyleType="text/css" height="269px" preserveAspectRatio="none" style="width:384px;height:269px;" version="1.1" viewBox="0 0 384 269" width="384px" zoomAndPan="magnify"><defs><filter height="300%" id="f1ffyua6mdymoa" width="300%" x="-1" y="-1"><feGaussianBlur result="blurOut" stdDeviation="2.0"/><feColorMatrix in="blurOut" result="blurOut2" type="matrix" values="0 0 0 0 0 0 0 0 0 0 0 0 0 0 0 0 0 0 .4 0"/><feOffset dx="4.0" dy="4.0" in="blurOut2" result="blurOut3"/><feBlend in="SourceGraphic" in2="blurOut3" mode="normal"/></filter></defs><g><!--MD5=[dcd26abe6ccf9848c7ccc2dec345c243]
class com.ibm.fhir.persistence.SingleResourceResult--><a href="SingleResourceResult.html" target="_top" title="SingleResourceResult.html" xlink:actuate="onRequest" xlink:href="SingleResourceResult.html" xlink:show="new" xlink:title="SingleResourceResult.html" xlink:type="simple"><rect fill="#FEFECE" filter="url(#f1ffyua6mdymoa)" height="130.7656" id="com.ibm.fhir.persistence.SingleResourceResult" style="stroke: #A80036; stroke-width: 1.5;" width="312" x="32" y="8"/><ellipse cx="47" cy="26.9688" fill="#ADD1B2" rx="11" ry="11" style="stroke: #A80036; stroke-width: 1.0;"/><path d="M49.9688,32.6094 Q49.3906,32.9063 48.75,33.0469 Q48.1094,33.2031 47.4063,33.2031 Q44.9063,33.2031 43.5781,31.5625 Q42.2656,29.9063 42.2656,26.7813 Q42.2656,23.6563 43.5781,22 Q44.9063,20.3438 47.4063,20.3438 Q48.1094,20.3438 48.75,20.5 Q49.4063,20.6563 49.9688,20.9531 L49.9688,23.6719 Q49.3438,23.0938 48.75,22.8281 Q48.1563,22.5469 47.5313,22.5469 Q46.1875,22.5469 45.5,23.625 Q44.8125,24.6875 44.8125,26.7813 Q44.8125,28.875 45.5,29.9531 Q46.1875,31.0156 47.5313,31.0156 Q48.1563,31.0156 48.75,30.75 Q49.3438,30.4688 49.9688,29.8906 L49.9688,32.6094 Z "/><text fill="#000000" font-family="sans-serif" font-size="14" lengthAdjust="spacingAndGlyphs" textLength="153" x="61" y="25.9951">SingleResourceResult</text><text fill="#000000" font-family="sans-serif" font-size="10" lengthAdjust="spacingAndGlyphs" textLength="119" x="78" y="38.5791">com.ibm.fhir.persistence</text><rect fill="#FFFFFF" height="15.9688" style="stroke: #000000; stroke-width: 1.0; stroke-dasharray: 2.0,2.0;" width="125" x="222" y="5"/><text fill="#000000" font-family="sans-serif" font-size="12" font-style="italic" lengthAdjust="spacingAndGlyphs" textLength="123" x="223" y="17.1387">T extends Resource</text><line style="stroke: #A80036; stroke-width: 1.5;" x1="33" x2="343" y1="45.9375" y2="45.9375"/><polygon fill="none" points="43,52.9375,39,58.9375,47,58.9375" style="stroke: #1963A0; stroke-width: 1.0;"/><text fill="#000000" font-family="sans-serif" font-size="11" lengthAdjust="spacingAndGlyphs" textLength="100" x="52" y="60.1479">success: boolean</text><polygon fill="none" points="43,65.7422,39,71.7422,47,71.7422" style="stroke: #1963A0; stroke-width: 1.0;"/><text fill="#000000" font-family="sans-serif" font-size="11" lengthAdjust="spacingAndGlyphs" textLength="172" x="52" y="72.9526">resource: T extends Resource</text><polygon fill="none" points="43,78.5469,39,84.5469,47,84.5469" style="stroke: #1963A0; stroke-width: 1.0;"/><text fill="#000000" font-family="sans-serif" font-size="11" lengthAdjust="spacingAndGlyphs" textLength="164" x="52" y="85.7573">outcome: OperationOutcome</text><line style="stroke: #A80036; stroke-width: 1.5;" x1="33" x2="343" y1="92.3516" y2="92.3516"/><ellipse cx="43" cy="103.3516" fill="#84BE84" rx="3" ry="3" style="stroke: #038048; stroke-width: 1.0;"/><text fill="#000000" font-family="sans-serif" font-size="11" lengthAdjust="spacingAndGlyphs" textLength="119" x="52" y="106.562">isSuccess(): boolean</text><ellipse cx="43" cy="116.1563" fill="#84BE84" rx="3" ry="3" style="stroke: #038048; stroke-width: 1.0;"/><text fill="#000000" font-family="sans-serif" font-size="11" lengthAdjust="spacingAndGlyphs" textLength="200" x="52" y="119.3667">getResource(): T extends Resource</text><ellipse cx="43" cy="128.9609" fill="#84BE84" rx="3" ry="3" style="stroke: #038048; stroke-width: 1.0;"/><text fill="#000000" font-family="sans-serif" font-size="11" lengthAdjust="spacingAndGlyphs" textLength="192" x="52" y="132.1714">getOutcome(): OperationOutcome</text></a><!--MD5=[05c02bbfc89154ec2cae632aad4da250]
class com.ibm.fhir.persistence.SingleResourceResult.Builder--><a href="SingleResourceResult.Builder.html" target="_top" title="SingleResourceResult.Builder.html" xlink:actuate="onRequest" xlink:href="SingleResourceResult.Builder.html" xlink:show="new" xlink:title="SingleResourceResult.Builder.html" xlink:type="simple"><rect fill="#FEFECE" filter="url(#f1ffyua6mdymoa)" height="37.9375" id="com.ibm.fhir.persistence.SingleResourceResult.Builder" style="stroke: #A80036; stroke-width: 1.5;" width="364" x="6" y="199"/><ellipse cx="21" cy="217.9688" fill="#ADD1B2" rx="11" ry="11" style="stroke: #A80036; stroke-width: 1.0;"/><path d="M23.9688,223.6094 Q23.3906,223.9063 22.75,224.0469 Q22.1094,224.2031 21.4063,224.2031 Q18.9063,224.2031 17.5781,222.5625 Q16.2656,220.9063 16.2656,217.7813 Q16.2656,214.6563 17.5781,213 Q18.9063,211.3438 21.4063,211.3438 Q22.1094,211.3438 22.75,211.5 Q23.4063,211.6563 23.9688,211.9531 L23.9688,214.6719 Q23.3438,214.0938 22.75,213.8281 Q22.1563,213.5469 21.5313,213.5469 Q20.1875,213.5469 19.5,214.625 Q18.8125,215.6875 18.8125,217.7813 Q18.8125,219.875 19.5,220.9531 Q20.1875,222.0156 21.5313,222.0156 Q22.1563,222.0156 22.75,221.75 Q23.3438,221.4688 23.9688,220.8906 L23.9688,223.6094 Z "/><text fill="#000000" font-family="sans-serif" font-size="14" lengthAdjust="spacingAndGlyphs" textLength="205" x="35" y="216.9951">SingleResourceResult.Builder</text><text fill="#000000" font-family="sans-serif" font-size="10" lengthAdjust="spacingAndGlyphs" textLength="119" x="78" y="229.5791">com.ibm.fhir.persistence</text><rect fill="#FFFFFF" height="15.9688" style="stroke: #000000; stroke-width: 1.0; stroke-dasharray: 2.0,2.0;" width="125" x="248" y="196"/><text fill="#000000" font-family="sans-serif" font-size="12" font-style="italic" lengthAdjust="spacingAndGlyphs" textLength="123" x="249" y="208.1387">T extends Resource</text></a><!--MD5=[a34574a90000818912be60a4bafd620c]
reverse link com.ibm.fhir.persistence.SingleResourceResult to com.ibm.fhir.persistence.SingleResourceResult.Builder--><path d="M188,154.18 C188,170.92 188,187.02 188,198.73 " fill="none" id="com.ibm.fhir.persistence.SingleResourceResult&lt;-com.ibm.fhir.persistence.SingleResourceResult.Builder" style="stroke: #A80036; stroke-width: 1.0;"/><ellipse cx="188" cy="147.08" fill="#FFFFFF" rx="8" ry="8" style="stroke: #A80036; stroke-width: 1.0;"/><line style="stroke: #A80036; stroke-width: 1.0;" x1="188" x2="188" y1="155.08" y2="139.08"/><line style="stroke: #A80036; stroke-width: 1.0;" x1="180" x2="196" y1="147.08" y2="147.08"/><text fill="#888888" font-family="sans-serif" font-size="10" lengthAdjust="spacingAndGlyphs" textLength="186" x="101" y="256.2822">UMLDoclet 2.0.7, PlantUML 1.2019.12</text><!--MD5=[34f25de466cec2644c46bea46f667d5e]
@startuml
    set namespaceSeparator none
    hide empty fields
    hide empty methods

    class "<size:14>SingleResourceResult\n<size:10>com.ibm.fhir.persistence" as com.ibm.fhir.persistence.SingleResourceResult<T extends Resource> [[SingleResourceResult.html]] {
        ~success: boolean
        ~resource: T extends Resource
        ~outcome: OperationOutcome
        +isSuccess(): boolean
        +getResource(): T extends Resource
        +getOutcome(): OperationOutcome
    }
    class "<size:14>SingleResourceResult.Builder\n<size:10>com.ibm.fhir.persistence" as com.ibm.fhir.persistence.SingleResourceResult.Builder<T extends Resource> [[SingleResourceResult.Builder.html]]

    com.ibm.fhir.persistence.SingleResourceResult +- - com.ibm.fhir.persistence.SingleResourceResult.Builder

    center footer UMLDoclet 2.0.7, PlantUML 1.2019.12
@enduml

PlantUML version 1.2019.12(Sun Nov 03 10:24:54 UTC 2019)
(APACHE source distribution)
Java Runtime: OpenJDK Runtime Environment
JVM: OpenJDK 64-Bit Server VM
Java Version: 11.0.10+9
Operating System: Linux
Default Encoding: UTF-8
Language: en
Country: null
--></g></svg>