<?xml version="1.0" encoding="UTF-8" standalone="no"?><svg xmlns="http://www.w3.org/2000/svg" xmlns:xlink="http://www.w3.org/1999/xlink" contentScriptType="application/ecmascript" contentStyleType="text/css" height="890px" preserveAspectRatio="none" style="width:1494px;height:890px;" version="1.1" viewBox="0 0 1494 890" width="1494px" zoomAndPan="magnify"><defs><filter height="300%" id="f80iysiszw19i" width="300%" x="-1" y="-1"><feGaussianBlur result="blurOut" stdDeviation="2.0"/><feColorMatrix in="blurOut" result="blurOut2" type="matrix" values="0 0 0 0 0 0 0 0 0 0 0 0 0 0 0 0 0 0 .4 0"/><feOffset dx="4.0" dy="4.0" in="blurOut2" result="blurOut3"/><feBlend in="SourceGraphic" in2="blurOut3" mode="normal"/></filter></defs><g><!--MD5=[9004d641a1d337a4d5f397eda89a4487]
cluster com.ibm.fhir.operation.bulkdata.model.type--><polygon fill="#FFFFFF" filter="url(#f80iysiszw19i)" points="14,16,364,16,371,38.2969,1472,38.2969,1472,850,14,850,14,16" style="stroke: #000000; stroke-width: 1.5;"/><line style="stroke: #000000; stroke-width: 1.5;" x1="14" x2="371" y1="38.2969" y2="38.2969"/><text fill="#000000" font-family="sans-serif" font-size="14" font-weight="bold" lengthAdjust="spacingAndGlyphs" textLength="344" x="18" y="30.9951">com.ibm.fhir.operation.bulkdata.model.type</text><!--MD5=[3f9e6640328c8f627e829e162442f0d2]
class com.ibm.fhir.operation.bulkdata.model.type.StorageDetail--><a href="StorageDetail.html" target="_top" title="StorageDetail.html" xlink:actuate="onRequest" xlink:href="StorageDetail.html" xlink:show="new" xlink:title="StorageDetail.html" xlink:type="simple"><rect fill="#FEFECE" filter="url(#f80iysiszw19i)" height="124.8281" id="com.ibm.fhir.operation.bulkdata.model.type.StorageDetail" style="stroke: #A80036; stroke-width: 1.5;" width="234" x="22" y="653"/><ellipse cx="91.75" cy="669" fill="#ADD1B2" rx="11" ry="11" style="stroke: #A80036; stroke-width: 1.0;"/><path d="M94.7188,674.6406 Q94.1406,674.9375 93.5,675.0781 Q92.8594,675.2344 92.1563,675.2344 Q89.6563,675.2344 88.3281,673.5938 Q87.0156,671.9375 87.0156,668.8125 Q87.0156,665.6875 88.3281,664.0313 Q89.6563,662.375 92.1563,662.375 Q92.8594,662.375 93.5,662.5313 Q94.1563,662.6875 94.7188,662.9844 L94.7188,665.7031 Q94.0938,665.125 93.5,664.8594 Q92.9063,664.5781 92.2813,664.5781 Q90.9375,664.5781 90.25,665.6563 Q89.5625,666.7188 89.5625,668.8125 Q89.5625,670.9063 90.25,671.9844 Q90.9375,673.0469 92.2813,673.0469 Q92.9063,673.0469 93.5,672.7813 Q94.0938,672.5 94.7188,671.9219 L94.7188,674.6406 Z "/><text fill="#000000" font-family="sans-serif" font-size="12" lengthAdjust="spacingAndGlyphs" textLength="86" x="112.25" y="673.1543">StorageDetail</text><line style="stroke: #A80036; stroke-width: 1.5;" x1="23" x2="255" y1="685" y2="685"/><line style="stroke: #A80036; stroke-width: 1.5;" x1="23" x2="255" y1="693" y2="693"/><ellipse cx="33" cy="704" fill="#84BE84" rx="3" ry="3" style="stroke: #038048; stroke-width: 1.0;"/><text fill="#000000" font-family="sans-serif" font-size="11" lengthAdjust="spacingAndGlyphs" textLength="173" x="42" y="707.2104">StorageDetail(String, String...)</text><ellipse cx="33" cy="716.8047" fill="#84BE84" rx="3" ry="3" style="stroke: #038048; stroke-width: 1.0;"/><text fill="#000000" font-family="sans-serif" font-size="11" lengthAdjust="spacingAndGlyphs" textLength="199" x="42" y="720.0151">StorageDetail(String, List&lt;String&gt;)</text><ellipse cx="33" cy="729.6094" fill="#84BE84" rx="3" ry="3" style="stroke: #038048; stroke-width: 1.0;"/><text fill="#000000" font-family="sans-serif" font-size="11" lengthAdjust="spacingAndGlyphs" textLength="95" x="42" y="732.8198">getType(): String</text><ellipse cx="33" cy="742.4141" fill="#84BE84" rx="3" ry="3" style="stroke: #038048; stroke-width: 1.0;"/><text fill="#000000" font-family="sans-serif" font-size="11" lengthAdjust="spacingAndGlyphs" textLength="118" x="42" y="745.6245">setType(String): void</text><ellipse cx="33" cy="755.2188" fill="#84BE84" rx="3" ry="3" style="stroke: #038048; stroke-width: 1.0;"/><text fill="#000000" font-family="sans-serif" font-size="11" lengthAdjust="spacingAndGlyphs" textLength="208" x="42" y="758.4292">getContentEncodings(): List&lt;String&gt;</text><ellipse cx="33" cy="768.0234" fill="#84BE84" rx="3" ry="3" style="stroke: #038048; stroke-width: 1.0;"/><text fill="#000000" font-family="sans-serif" font-size="11" lengthAdjust="spacingAndGlyphs" textLength="196" x="42" y="771.2339">addContentEncodings(String): void</text></a><!--MD5=[abc0aaf637c963733596f6731bd358cd]
class com.ibm.fhir.operation.bulkdata.model.type.Input--><a href="Input.html" target="_top" title="Input.html" xlink:actuate="onRequest" xlink:href="Input.html" xlink:show="new" xlink:title="Input.html" xlink:type="simple"><rect fill="#FEFECE" filter="url(#f80iysiszw19i)" height="112.0234" id="com.ibm.fhir.operation.bulkdata.model.type.Input" style="stroke: #A80036; stroke-width: 1.5;" width="144" x="291" y="659.5"/><ellipse cx="342.75" cy="675.5" fill="#ADD1B2" rx="11" ry="11" style="stroke: #A80036; stroke-width: 1.0;"/><path d="M345.7188,681.1406 Q345.1406,681.4375 344.5,681.5781 Q343.8594,681.7344 343.1563,681.7344 Q340.6563,681.7344 339.3281,680.0938 Q338.0156,678.4375 338.0156,675.3125 Q338.0156,672.1875 339.3281,670.5313 Q340.6563,668.875 343.1563,668.875 Q343.8594,668.875 344.5,669.0313 Q345.1563,669.1875 345.7188,669.4844 L345.7188,672.2031 Q345.0938,671.625 344.5,671.3594 Q343.9063,671.0781 343.2813,671.0781 Q341.9375,671.0781 341.25,672.1563 Q340.5625,673.2188 340.5625,675.3125 Q340.5625,677.4063 341.25,678.4844 Q341.9375,679.5469 343.2813,679.5469 Q343.9063,679.5469 344.5,679.2813 Q345.0938,679 345.7188,678.4219 L345.7188,681.1406 Z "/><text fill="#000000" font-family="sans-serif" font-size="12" lengthAdjust="spacingAndGlyphs" textLength="32" x="363.25" y="679.6543">Input</text><line style="stroke: #A80036; stroke-width: 1.5;" x1="292" x2="434" y1="691.5" y2="691.5"/><line style="stroke: #A80036; stroke-width: 1.5;" x1="292" x2="434" y1="699.5" y2="699.5"/><ellipse cx="302" cy="710.5" fill="#84BE84" rx="3" ry="3" style="stroke: #038048; stroke-width: 1.0;"/><text fill="#000000" font-family="sans-serif" font-size="11" lengthAdjust="spacingAndGlyphs" textLength="112" x="311" y="713.7104">Input(String, String)</text><ellipse cx="302" cy="723.3047" fill="#84BE84" rx="3" ry="3" style="stroke: #038048; stroke-width: 1.0;"/><text fill="#000000" font-family="sans-serif" font-size="11" lengthAdjust="spacingAndGlyphs" textLength="95" x="311" y="726.5151">getType(): String</text><ellipse cx="302" cy="736.1094" fill="#84BE84" rx="3" ry="3" style="stroke: #038048; stroke-width: 1.0;"/><text fill="#000000" font-family="sans-serif" font-size="11" lengthAdjust="spacingAndGlyphs" textLength="118" x="311" y="739.3198">setType(String): void</text><ellipse cx="302" cy="748.9141" fill="#84BE84" rx="3" ry="3" style="stroke: #038048; stroke-width: 1.0;"/><text fill="#000000" font-family="sans-serif" font-size="11" lengthAdjust="spacingAndGlyphs" textLength="84" x="311" y="752.1245">getUrl(): String</text><ellipse cx="302" cy="761.7188" fill="#84BE84" rx="3" ry="3" style="stroke: #038048; stroke-width: 1.0;"/><text fill="#000000" font-family="sans-serif" font-size="11" lengthAdjust="spacingAndGlyphs" textLength="107" x="311" y="764.9292">setUrl(String): void</text></a><!--MD5=[003b40b85598c06d2f8a515af03fa3ac]
class com.ibm.fhir.operation.bulkdata.model.type.JobParameter--><a href="JobParameter.html" target="_top" title="JobParameter.html" xlink:actuate="onRequest" xlink:href="JobParameter.html" xlink:show="new" xlink:title="JobParameter.html" xlink:type="simple"><rect fill="#FEFECE" filter="url(#f80iysiszw19i)" height="406.5313" id="com.ibm.fhir.operation.bulkdata.model.type.JobParameter" style="stroke: #A80036; stroke-width: 1.5;" width="282" x="497" y="43"/><ellipse cx="591.25" cy="59" fill="#ADD1B2" rx="11" ry="11" style="stroke: #A80036; stroke-width: 1.0;"/><path d="M594.2188,64.6406 Q593.6406,64.9375 593,65.0781 Q592.3594,65.2344 591.6563,65.2344 Q589.1563,65.2344 587.8281,63.5938 Q586.5156,61.9375 586.5156,58.8125 Q586.5156,55.6875 587.8281,54.0313 Q589.1563,52.375 591.6563,52.375 Q592.3594,52.375 593,52.5313 Q593.6563,52.6875 594.2188,52.9844 L594.2188,55.7031 Q593.5938,55.125 593,54.8594 Q592.4063,54.5781 591.7813,54.5781 Q590.4375,54.5781 589.75,55.6563 Q589.0625,56.7188 589.0625,58.8125 Q589.0625,60.9063 589.75,61.9844 Q590.4375,63.0469 591.7813,63.0469 Q592.4063,63.0469 593,62.7813 Q593.5938,62.5 594.2188,61.9219 L594.2188,64.6406 Z "/><text fill="#000000" font-family="sans-serif" font-size="12" lengthAdjust="spacingAndGlyphs" textLength="85" x="611.75" y="63.1543">JobParameter</text><line style="stroke: #A80036; stroke-width: 1.5;" x1="498" x2="778" y1="75" y2="75"/><line style="stroke: #A80036; stroke-width: 1.5;" x1="498" x2="778" y1="83" y2="83"/><ellipse cx="508" cy="94" fill="#84BE84" rx="3" ry="3" style="stroke: #038048; stroke-width: 1.0;"/><text fill="#000000" font-family="sans-serif" font-size="11" lengthAdjust="spacingAndGlyphs" textLength="233" x="517" y="97.2104">getCosOperationBucketNameOo(): String</text><ellipse cx="508" cy="106.8047" fill="#84BE84" rx="3" ry="3" style="stroke: #038048; stroke-width: 1.0;"/><text fill="#000000" font-family="sans-serif" font-size="11" lengthAdjust="spacingAndGlyphs" textLength="256" x="517" y="110.0151">setCosOperationBucketNameOo(String): void</text><ellipse cx="508" cy="119.6094" fill="#84BE84" rx="3" ry="3" style="stroke: #038048; stroke-width: 1.0;"/><text fill="#000000" font-family="sans-serif" font-size="11" lengthAdjust="spacingAndGlyphs" textLength="173" x="517" y="122.8198">getFhirPatientGroupId(): String</text><ellipse cx="508" cy="132.4141" fill="#84BE84" rx="3" ry="3" style="stroke: #038048; stroke-width: 1.0;"/><text fill="#000000" font-family="sans-serif" font-size="11" lengthAdjust="spacingAndGlyphs" textLength="196" x="517" y="135.6245">setFhirPatientGroupId(String): void</text><ellipse cx="508" cy="145.2188" fill="#84BE84" rx="3" ry="3" style="stroke: #038048; stroke-width: 1.0;"/><text fill="#000000" font-family="sans-serif" font-size="11" lengthAdjust="spacingAndGlyphs" textLength="185" x="517" y="148.4292">getCosBucketPathPrefix(): String</text><ellipse cx="508" cy="158.0234" fill="#84BE84" rx="3" ry="3" style="stroke: #038048; stroke-width: 1.0;"/><text fill="#000000" font-family="sans-serif" font-size="11" lengthAdjust="spacingAndGlyphs" textLength="208" x="517" y="161.2339">setCosBucketPathPrefix(String): void</text><ellipse cx="508" cy="170.8281" fill="#84BE84" rx="3" ry="3" style="stroke: #038048; stroke-width: 1.0;"/><text fill="#000000" font-family="sans-serif" font-size="11" lengthAdjust="spacingAndGlyphs" textLength="169" x="517" y="174.0386">getFhirResourceType(): String</text><ellipse cx="508" cy="183.6328" fill="#84BE84" rx="3" ry="3" style="stroke: #038048; stroke-width: 1.0;"/><text fill="#000000" font-family="sans-serif" font-size="11" lengthAdjust="spacingAndGlyphs" textLength="192" x="517" y="186.8433">setFhirResourceType(String): void</text><ellipse cx="508" cy="196.4375" fill="#84BE84" rx="3" ry="3" style="stroke: #038048; stroke-width: 1.0;"/><text fill="#000000" font-family="sans-serif" font-size="11" lengthAdjust="spacingAndGlyphs" textLength="184" x="517" y="199.6479">getFhirSearchFromDate(): String</text><ellipse cx="508" cy="209.2422" fill="#84BE84" rx="3" ry="3" style="stroke: #038048; stroke-width: 1.0;"/><text fill="#000000" font-family="sans-serif" font-size="11" lengthAdjust="spacingAndGlyphs" textLength="207" x="517" y="212.4526">setFhirSearchFromDate(String): void</text><ellipse cx="508" cy="222.0469" fill="#84BE84" rx="3" ry="3" style="stroke: #038048; stroke-width: 1.0;"/><text fill="#000000" font-family="sans-serif" font-size="11" lengthAdjust="spacingAndGlyphs" textLength="161" x="517" y="225.2573">getCosBucketName(): String</text><ellipse cx="508" cy="234.8516" fill="#84BE84" rx="3" ry="3" style="stroke: #038048; stroke-width: 1.0;"/><text fill="#000000" font-family="sans-serif" font-size="11" lengthAdjust="spacingAndGlyphs" textLength="184" x="517" y="238.062">setCosBucketName(String): void</text><ellipse cx="508" cy="247.6563" fill="#84BE84" rx="3" ry="3" style="stroke: #038048; stroke-width: 1.0;"/><text fill="#000000" font-family="sans-serif" font-size="11" lengthAdjust="spacingAndGlyphs" textLength="137" x="517" y="250.8667">getCosLocation(): String</text><ellipse cx="508" cy="260.4609" fill="#84BE84" rx="3" ry="3" style="stroke: #038048; stroke-width: 1.0;"/><text fill="#000000" font-family="sans-serif" font-size="11" lengthAdjust="spacingAndGlyphs" textLength="160" x="517" y="263.6714">setCosLocation(String): void</text><ellipse cx="508" cy="273.2656" fill="#84BE84" rx="3" ry="3" style="stroke: #038048; stroke-width: 1.0;"/><text fill="#000000" font-family="sans-serif" font-size="11" lengthAdjust="spacingAndGlyphs" textLength="155" x="517" y="276.4761">getCosEndpointUrl(): String</text><ellipse cx="508" cy="286.0703" fill="#84BE84" rx="3" ry="3" style="stroke: #038048; stroke-width: 1.0;"/><text fill="#000000" font-family="sans-serif" font-size="11" lengthAdjust="spacingAndGlyphs" textLength="178" x="517" y="289.2808">setCosEndpointUrl(String): void</text><ellipse cx="508" cy="298.875" fill="#84BE84" rx="3" ry="3" style="stroke: #038048; stroke-width: 1.0;"/><text fill="#000000" font-family="sans-serif" font-size="11" lengthAdjust="spacingAndGlyphs" textLength="169" x="517" y="302.0854">getCosCredentialIbm(): String</text><ellipse cx="508" cy="311.6797" fill="#84BE84" rx="3" ry="3" style="stroke: #038048; stroke-width: 1.0;"/><text fill="#000000" font-family="sans-serif" font-size="11" lengthAdjust="spacingAndGlyphs" textLength="192" x="517" y="314.8901">setCosCredentialIbm(String): void</text><ellipse cx="508" cy="324.4844" fill="#84BE84" rx="3" ry="3" style="stroke: #038048; stroke-width: 1.0;"/><text fill="#000000" font-family="sans-serif" font-size="11" lengthAdjust="spacingAndGlyphs" textLength="127" x="517" y="327.6948">getCosApiKey(): String</text><ellipse cx="508" cy="337.2891" fill="#84BE84" rx="3" ry="3" style="stroke: #038048; stroke-width: 1.0;"/><text fill="#000000" font-family="sans-serif" font-size="11" lengthAdjust="spacingAndGlyphs" textLength="150" x="517" y="340.4995">setCosApiKey(String): void</text><ellipse cx="508" cy="350.0938" fill="#84BE84" rx="3" ry="3" style="stroke: #038048; stroke-width: 1.0;"/><text fill="#000000" font-family="sans-serif" font-size="11" lengthAdjust="spacingAndGlyphs" textLength="140" x="517" y="353.3042">getCosSrvInstId(): String</text><ellipse cx="508" cy="362.8984" fill="#84BE84" rx="3" ry="3" style="stroke: #038048; stroke-width: 1.0;"/><text fill="#000000" font-family="sans-serif" font-size="11" lengthAdjust="spacingAndGlyphs" textLength="163" x="517" y="366.1089">setCosSrvInstId(String): void</text><ellipse cx="508" cy="375.7031" fill="#84BE84" rx="3" ry="3" style="stroke: #038048; stroke-width: 1.0;"/><text fill="#000000" font-family="sans-serif" font-size="11" lengthAdjust="spacingAndGlyphs" textLength="128" x="517" y="378.9136">getFhirTenant(): String</text><ellipse cx="508" cy="388.5078" fill="#84BE84" rx="3" ry="3" style="stroke: #038048; stroke-width: 1.0;"/><text fill="#000000" font-family="sans-serif" font-size="11" lengthAdjust="spacingAndGlyphs" textLength="151" x="517" y="391.7183">setFhirTenant(String): void</text><ellipse cx="508" cy="401.3125" fill="#84BE84" rx="3" ry="3" style="stroke: #038048; stroke-width: 1.0;"/><text fill="#000000" font-family="sans-serif" font-size="11" lengthAdjust="spacingAndGlyphs" textLength="156" x="517" y="404.5229">getFhirDataStoreId(): String</text><ellipse cx="508" cy="414.1172" fill="#84BE84" rx="3" ry="3" style="stroke: #038048; stroke-width: 1.0;"/><text fill="#000000" font-family="sans-serif" font-size="11" lengthAdjust="spacingAndGlyphs" textLength="179" x="517" y="417.3276">setFhirDataStoreId(String): void</text><ellipse cx="508" cy="426.9219" fill="#84BE84" rx="3" ry="3" style="stroke: #038048; stroke-width: 1.0;"/><text fill="#000000" font-family="sans-serif" font-size="11" lengthAdjust="spacingAndGlyphs" textLength="151" x="517" y="430.1323">getFhirTypeFilters(): String</text><ellipse cx="508" cy="439.7266" fill="#84BE84" rx="3" ry="3" style="stroke: #038048; stroke-width: 1.0;"/><text fill="#000000" font-family="sans-serif" font-size="11" lengthAdjust="spacingAndGlyphs" textLength="174" x="517" y="442.937">setFhirTypeFilters(String): void</text></a><!--MD5=[d996180d9468d198235db638215b4cd2]
class com.ibm.fhir.operation.bulkdata.model.type.JobParameter.Writer--><a href="JobParameter.Writer.html" target="_top" title="JobParameter.Writer.html" xlink:actuate="onRequest" xlink:href="JobParameter.Writer.html" xlink:show="new" xlink:title="JobParameter.Writer.html" xlink:type="simple"><rect fill="#FEFECE" filter="url(#f80iysiszw19i)" height="73.6094" id="com.ibm.fhir.operation.bulkdata.model.type.JobParameter.Writer" style="stroke: #A80036; stroke-width: 1.5;" width="336" x="470" y="678.5"/><ellipse cx="570.75" cy="694.5" fill="#ADD1B2" rx="11" ry="11" style="stroke: #A80036; stroke-width: 1.0;"/><path d="M573.7188,700.1406 Q573.1406,700.4375 572.5,700.5781 Q571.8594,700.7344 571.1563,700.7344 Q568.6563,700.7344 567.3281,699.0938 Q566.0156,697.4375 566.0156,694.3125 Q566.0156,691.1875 567.3281,689.5313 Q568.6563,687.875 571.1563,687.875 Q571.8594,687.875 572.5,688.0313 Q573.1563,688.1875 573.7188,688.4844 L573.7188,691.2031 Q573.0938,690.625 572.5,690.3594 Q571.9063,690.0781 571.2813,690.0781 Q569.9375,690.0781 569.25,691.1563 Q568.5625,692.2188 568.5625,694.3125 Q568.5625,696.4063 569.25,697.4844 Q569.9375,698.5469 571.2813,698.5469 Q571.9063,698.5469 572.5,698.2813 Q573.0938,698 573.7188,697.4219 L573.7188,700.1406 Z "/><text fill="#000000" font-family="sans-serif" font-size="12" lengthAdjust="spacingAndGlyphs" textLength="126" x="591.25" y="698.6543">JobParameter.Writer</text><line style="stroke: #A80036; stroke-width: 1.5;" x1="471" x2="805" y1="710.5" y2="710.5"/><line style="stroke: #A80036; stroke-width: 1.5;" x1="471" x2="805" y1="718.5" y2="718.5"/><ellipse cx="481" cy="729.5" fill="#84BE84" rx="3" ry="3" style="stroke: #038048; stroke-width: 1.0;"/><text fill="#000000" font-family="sans-serif" font-size="11" lengthAdjust="spacingAndGlyphs" text-decoration="underline" textLength="310" x="490" y="732.7104">generate(JsonGenerator, JobParameter, boolean): void</text><ellipse cx="481" cy="742.3047" fill="#84BE84" rx="3" ry="3" style="stroke: #038048; stroke-width: 1.0;"/><text fill="#000000" font-family="sans-serif" font-size="11" lengthAdjust="spacingAndGlyphs" text-decoration="underline" textLength="201" x="490" y="745.5151">writeToBase64(List&lt;Input&gt;): String</text></a><!--MD5=[b27080e908222d35e5e28e498be82624]
class com.ibm.fhir.operation.bulkdata.model.type.JobParameter.Builder--><a href="JobParameter.Builder.html" target="_top" title="JobParameter.Builder.html" xlink:actuate="onRequest" xlink:href="JobParameter.Builder.html" xlink:show="new" xlink:title="JobParameter.Builder.html" xlink:type="simple"><rect fill="#FEFECE" filter="url(#f80iysiszw19i)" height="252.875" id="com.ibm.fhir.operation.bulkdata.model.type.JobParameter.Builder" style="stroke: #A80036; stroke-width: 1.5;" width="314" x="841" y="589"/><ellipse cx="927.75" cy="605" fill="#B4A7E5" rx="11" ry="11" style="stroke: #A80036; stroke-width: 1.0;"/><path d="M923.6719,600.7656 L923.6719,598.6094 L931.0625,598.6094 L931.0625,600.7656 L928.5938,600.7656 L928.5938,608.8438 L931.0625,608.8438 L931.0625,611 L923.6719,611 L923.6719,608.8438 L926.1406,608.8438 L926.1406,600.7656 L923.6719,600.7656 Z "/><text fill="#000000" font-family="sans-serif" font-size="12" font-style="italic" lengthAdjust="spacingAndGlyphs" textLength="132" x="948.25" y="609.1543">JobParameter.Builder</text><line style="stroke: #A80036; stroke-width: 1.5;" x1="842" x2="1154" y1="621" y2="621"/><line style="stroke: #A80036; stroke-width: 1.5;" x1="842" x2="1154" y1="629" y2="629"/><ellipse cx="852" cy="640" fill="#84BE84" rx="3" ry="3" style="stroke: #038048; stroke-width: 1.0;"/><text fill="#000000" font-family="sans-serif" font-size="11" font-style="italic" lengthAdjust="spacingAndGlyphs" textLength="189" x="861" y="643.2104">fhirResourceType(String): Builder</text><ellipse cx="852" cy="652.8047" fill="#84BE84" rx="3" ry="3" style="stroke: #038048; stroke-width: 1.0;"/><text fill="#000000" font-family="sans-serif" font-size="11" font-style="italic" lengthAdjust="spacingAndGlyphs" textLength="204" x="861" y="656.0151">fhirSearchFromDate(String): Builder</text><ellipse cx="852" cy="665.6094" fill="#84BE84" rx="3" ry="3" style="stroke: #038048; stroke-width: 1.0;"/><text fill="#000000" font-family="sans-serif" font-size="11" font-style="italic" lengthAdjust="spacingAndGlyphs" textLength="181" x="861" y="668.8198">cosBucketName(String): Builder</text><ellipse cx="852" cy="678.4141" fill="#84BE84" rx="3" ry="3" style="stroke: #038048; stroke-width: 1.0;"/><text fill="#000000" font-family="sans-serif" font-size="11" font-style="italic" lengthAdjust="spacingAndGlyphs" textLength="288" x="861" y="681.6245">cosBucketNameOperationOutcome(String): Builder</text><ellipse cx="852" cy="691.2188" fill="#84BE84" rx="3" ry="3" style="stroke: #038048; stroke-width: 1.0;"/><text fill="#000000" font-family="sans-serif" font-size="11" font-style="italic" lengthAdjust="spacingAndGlyphs" textLength="157" x="861" y="694.4292">cosLocation(String): Builder</text><ellipse cx="852" cy="704.0234" fill="#84BE84" rx="3" ry="3" style="stroke: #038048; stroke-width: 1.0;"/><text fill="#000000" font-family="sans-serif" font-size="11" font-style="italic" lengthAdjust="spacingAndGlyphs" textLength="175" x="861" y="707.2339">cosEndpointUrl(String): Builder</text><ellipse cx="852" cy="716.8281" fill="#84BE84" rx="3" ry="3" style="stroke: #038048; stroke-width: 1.0;"/><text fill="#000000" font-family="sans-serif" font-size="11" font-style="italic" lengthAdjust="spacingAndGlyphs" textLength="189" x="861" y="720.0386">cosCredentialIbm(String): Builder</text><ellipse cx="852" cy="729.6328" fill="#84BE84" rx="3" ry="3" style="stroke: #038048; stroke-width: 1.0;"/><text fill="#000000" font-family="sans-serif" font-size="11" font-style="italic" lengthAdjust="spacingAndGlyphs" textLength="147" x="861" y="732.8433">cosApiKey(String): Builder</text><ellipse cx="852" cy="742.4375" fill="#84BE84" rx="3" ry="3" style="stroke: #038048; stroke-width: 1.0;"/><text fill="#000000" font-family="sans-serif" font-size="11" font-style="italic" lengthAdjust="spacingAndGlyphs" textLength="160" x="861" y="745.6479">cosSrvInstId(String): Builder</text><ellipse cx="852" cy="755.2422" fill="#84BE84" rx="3" ry="3" style="stroke: #038048; stroke-width: 1.0;"/><text fill="#000000" font-family="sans-serif" font-size="11" font-style="italic" lengthAdjust="spacingAndGlyphs" textLength="148" x="861" y="758.4526">fhirTenant(String): Builder</text><ellipse cx="852" cy="768.0469" fill="#84BE84" rx="3" ry="3" style="stroke: #038048; stroke-width: 1.0;"/><text fill="#000000" font-family="sans-serif" font-size="11" font-style="italic" lengthAdjust="spacingAndGlyphs" textLength="176" x="861" y="771.2573">fhirDataStoreId(String): Builder</text><ellipse cx="852" cy="780.8516" fill="#84BE84" rx="3" ry="3" style="stroke: #038048; stroke-width: 1.0;"/><text fill="#000000" font-family="sans-serif" font-size="11" font-style="italic" lengthAdjust="spacingAndGlyphs" textLength="193" x="861" y="784.062">fhirPatientGroupId(String): Builder</text><ellipse cx="852" cy="793.6563" fill="#84BE84" rx="3" ry="3" style="stroke: #038048; stroke-width: 1.0;"/><text fill="#000000" font-family="sans-serif" font-size="11" font-style="italic" lengthAdjust="spacingAndGlyphs" textLength="205" x="861" y="796.8667">cosBucketPathPrefix(String): Builder</text><ellipse cx="852" cy="806.4609" fill="#84BE84" rx="3" ry="3" style="stroke: #038048; stroke-width: 1.0;"/><text fill="#000000" font-family="sans-serif" font-size="11" font-style="italic" lengthAdjust="spacingAndGlyphs" textLength="171" x="861" y="809.6714">fhirTypeFilters(String): Builder</text><ellipse cx="852" cy="819.2656" fill="#84BE84" rx="3" ry="3" style="stroke: #038048; stroke-width: 1.0;"/><text fill="#000000" font-family="sans-serif" font-size="11" font-style="italic" lengthAdjust="spacingAndGlyphs" textLength="235" x="861" y="822.4761">fhirDataSourcesInfo(List&lt;Input&gt;): Builder</text><ellipse cx="852" cy="832.0703" fill="#84BE84" rx="3" ry="3" style="stroke: #038048; stroke-width: 1.0;"/><text fill="#000000" font-family="sans-serif" font-size="11" font-style="italic" lengthAdjust="spacingAndGlyphs" textLength="224" x="861" y="835.2808">fhirStorageType(StorageDetail): Builder</text></a><!--MD5=[12541690b33b13cecf54f1e32d037673]
class com.ibm.fhir.operation.bulkdata.model.type.JobParameter.Parser--><a href="JobParameter.Parser.html" target="_top" title="JobParameter.Parser.html" xlink:actuate="onRequest" xlink:href="JobParameter.Parser.html" xlink:show="new" xlink:title="JobParameter.Parser.html" xlink:type="simple"><rect fill="#FEFECE" filter="url(#f80iysiszw19i)" height="73.6094" id="com.ibm.fhir.operation.bulkdata.model.type.JobParameter.Parser" style="stroke: #A80036; stroke-width: 1.5;" width="273" x="1190.5" y="678.5"/><ellipse cx="1257.75" cy="694.5" fill="#ADD1B2" rx="11" ry="11" style="stroke: #A80036; stroke-width: 1.0;"/><path d="M1260.7188,700.1406 Q1260.1406,700.4375 1259.5,700.5781 Q1258.8594,700.7344 1258.1563,700.7344 Q1255.6563,700.7344 1254.3281,699.0938 Q1253.0156,697.4375 1253.0156,694.3125 Q1253.0156,691.1875 1254.3281,689.5313 Q1255.6563,687.875 1258.1563,687.875 Q1258.8594,687.875 1259.5,688.0313 Q1260.1563,688.1875 1260.7188,688.4844 L1260.7188,691.2031 Q1260.0938,690.625 1259.5,690.3594 Q1258.9063,690.0781 1258.2813,690.0781 Q1256.9375,690.0781 1256.25,691.1563 Q1255.5625,692.2188 1255.5625,694.3125 Q1255.5625,696.4063 1256.25,697.4844 Q1256.9375,698.5469 1258.2813,698.5469 Q1258.9063,698.5469 1259.5,698.2813 Q1260.0938,698 1260.7188,697.4219 L1260.7188,700.1406 Z "/><text fill="#000000" font-family="sans-serif" font-size="12" lengthAdjust="spacingAndGlyphs" textLength="130" x="1278.25" y="698.6543">JobParameter.Parser</text><line style="stroke: #A80036; stroke-width: 1.5;" x1="1191.5" x2="1462.5" y1="710.5" y2="710.5"/><line style="stroke: #A80036; stroke-width: 1.5;" x1="1191.5" x2="1462.5" y1="718.5" y2="718.5"/><ellipse cx="1201.5" cy="729.5" fill="#84BE84" rx="3" ry="3" style="stroke: #038048; stroke-width: 1.0;"/><text fill="#000000" font-family="sans-serif" font-size="11" lengthAdjust="spacingAndGlyphs" text-decoration="underline" textLength="180" x="1210.5" y="732.7104">parse(Builder, JsonObject): void</text><ellipse cx="1201.5" cy="742.3047" fill="#84BE84" rx="3" ry="3" style="stroke: #038048; stroke-width: 1.0;"/><text fill="#000000" font-family="sans-serif" font-size="11" lengthAdjust="spacingAndGlyphs" text-decoration="underline" textLength="247" x="1210.5" y="745.5151">parseInputsFromString(String): List&lt;Input&gt;</text></a><!--MD5=[eda9688d4022ec5917ad63f5857b5da0]
link com.ibm.fhir.operation.bulkdata.model.type.JobParameter to com.ibm.fhir.operation.bulkdata.model.type.Input--><path d="M518.5808,450.1641 C475.0157,524.4623 428.9865,602.9631 398.3979,655.1305 " fill="none" id="com.ibm.fhir.operation.bulkdata.model.type.JobParameter-&gt;com.ibm.fhir.operation.bulkdata.model.type.Input" style="stroke: #A80036; stroke-width: 1.0;"/><polygon fill="#A80036" points="395.8551,659.467,403.858,653.7265,398.3842,655.1538,396.9569,649.68,395.8551,659.467" style="stroke: #A80036; stroke-width: 1.0;"/><text fill="#000000" font-family="sans-serif" font-size="13" lengthAdjust="spacingAndGlyphs" textLength="39" x="483" y="524.0669">inputs</text><text fill="#000000" font-family="sans-serif" font-size="13" lengthAdjust="spacingAndGlyphs" textLength="7" x="392.6162" y="648.4007">*</text><!--MD5=[85653e942053cbdf7110e1a7b2bb8744]
link com.ibm.fhir.operation.bulkdata.model.type.JobParameter to com.ibm.fhir.operation.bulkdata.model.type.StorageDetail--><path d="M496.6745,379.3289 C402.9668,467.403 284.0124,579.2058 209.6804,649.0689 " fill="none" id="com.ibm.fhir.operation.bulkdata.model.type.JobParameter-&gt;com.ibm.fhir.operation.bulkdata.model.type.StorageDetail" style="stroke: #A80036; stroke-width: 1.0;"/><polygon fill="#A80036" points="205.7336,652.7784,215.0311,649.5293,209.3769,649.3541,209.5521,643.6999,205.7336,652.7784" style="stroke: #A80036; stroke-width: 1.0;"/><text fill="#000000" font-family="sans-serif" font-size="13" lengthAdjust="spacingAndGlyphs" textLength="93" x="357" y="524.0669">storageDetails</text><!--MD5=[1c345bdd61490fe4364a8defc6874b88]
reverse link com.ibm.fhir.operation.bulkdata.model.type.JobParameter to com.ibm.fhir.operation.bulkdata.model.type.JobParameter.Writer--><path d="M638,465.3784 C638,547.069 638,631.2989 638,678.1781 " fill="none" id="com.ibm.fhir.operation.bulkdata.model.type.JobParameter&lt;-com.ibm.fhir.operation.bulkdata.model.type.JobParameter.Writer" style="stroke: #A80036; stroke-width: 1.0;"/><ellipse cx="638.0001" cy="458.1641" fill="#FFFFFF" rx="8" ry="8" style="stroke: #A80036; stroke-width: 1.0;"/><line style="stroke: #A80036; stroke-width: 1.0;" x1="638.0002" x2="638" y1="466.1641" y2="450.1641"/><line style="stroke: #A80036; stroke-width: 1.0;" x1="630.0001" x2="646.0001" y1="458.1642" y2="458.164"/><!--MD5=[5135548e8d6be85e1eb9524cc94010df]
reverse link com.ibm.fhir.operation.bulkdata.model.type.JobParameter to com.ibm.fhir.operation.bulkdata.model.type.JobParameter.Builder--><path d="M788.588,442.6827 C826.5095,492.086 866.2211,543.8213 900.7428,588.7955 " fill="none" id="com.ibm.fhir.operation.bulkdata.model.type.JobParameter&lt;-com.ibm.fhir.operation.bulkdata.model.type.JobParameter.Builder" style="stroke: #A80036; stroke-width: 1.0;"/><ellipse cx="784.1194" cy="436.8611" fill="#FFFFFF" rx="8" ry="8" style="stroke: #A80036; stroke-width: 1.0;"/><line style="stroke: #A80036; stroke-width: 1.0;" x1="788.9906" x2="779.2483" y1="443.2071" y2="430.5151"/><line style="stroke: #A80036; stroke-width: 1.0;" x1="777.7734" x2="790.4655" y1="441.7323" y2="431.99"/><!--MD5=[a753b8de09d191f964d3820f3e61610b]
reverse link com.ibm.fhir.operation.bulkdata.model.type.JobParameter to com.ibm.fhir.operation.bulkdata.model.type.JobParameter.Parser--><path d="M792.054,338.4235 C900.7129,404.864 1048.4886,498.4915 1173,589 C1212.0417,617.3798 1254.2628,652.3929 1284.6052,678.383 " fill="none" id="com.ibm.fhir.operation.bulkdata.model.type.JobParameter&lt;-com.ibm.fhir.operation.bulkdata.model.type.JobParameter.Parser" style="stroke: #A80036; stroke-width: 1.0;"/><ellipse cx="785.8298" cy="334.6252" fill="#FFFFFF" rx="8" ry="8" style="stroke: #A80036; stroke-width: 1.0;"/><line style="stroke: #A80036; stroke-width: 1.0;" x1="792.6587" x2="779.001" y1="338.7925" y2="330.4578"/><line style="stroke: #A80036; stroke-width: 1.0;" x1="781.6625" x2="789.9972" y1="341.454" y2="327.7963"/><text fill="#888888" font-family="sans-serif" font-size="10" lengthAdjust="spacingAndGlyphs" textLength="186" x="656" y="877.2822">UMLDoclet 2.0.7, PlantUML 1.2019.12</text><!--MD5=[fadb384079fc48688bbcebf2f68beeee]
@startuml
    namespace com.ibm.fhir.operation.bulkdata.model.type {

        class StorageDetail [[StorageDetail.html]] {
            +StorageDetail(String, String...)
            +StorageDetail(String, List<String>)
            +getType(): String
            +setType(String): void
            +getContentEncodings(): List<String>
            +addContentEncodings(String): void
        }

        class Input [[Input.html]] {
            +Input(String, String)
            +getType(): String
            +setType(String): void
            +getUrl(): String
            +setUrl(String): void
        }

        class JobParameter [[JobParameter.html]] {
            +getCosOperationBucketNameOo(): String
            +setCosOperationBucketNameOo(String): void
            +getFhirPatientGroupId(): String
            +setFhirPatientGroupId(String): void
            +getCosBucketPathPrefix(): String
            +setCosBucketPathPrefix(String): void
            +getFhirResourceType(): String
            +setFhirResourceType(String): void
            +getFhirSearchFromDate(): String
            +setFhirSearchFromDate(String): void
            +getCosBucketName(): String
            +setCosBucketName(String): void
            +getCosLocation(): String
            +setCosLocation(String): void
            +getCosEndpointUrl(): String
            +setCosEndpointUrl(String): void
            +getCosCredentialIbm(): String
            +setCosCredentialIbm(String): void
            +getCosApiKey(): String
            +setCosApiKey(String): void
            +getCosSrvInstId(): String
            +setCosSrvInstId(String): void
            +getFhirTenant(): String
            +setFhirTenant(String): void
            +getFhirDataStoreId(): String
            +setFhirDataStoreId(String): void
            +getFhirTypeFilters(): String
            +setFhirTypeFilters(String): void
        }

        class com.ibm.fhir.operation.bulkdata.model.type.JobParameter.Writer [[JobParameter.Writer.html]] {
            {static} +generate(JsonGenerator, JobParameter, boolean): void
            {static} +writeToBase64(List<Input>): String
        }

        interface com.ibm.fhir.operation.bulkdata.model.type.JobParameter.Builder [[JobParameter.Builder.html]] {
            {abstract} +fhirResourceType(String): Builder
            {abstract} +fhirSearchFromDate(String): Builder
            {abstract} +cosBucketName(String): Builder
            {abstract} +cosBucketNameOperationOutcome(String): Builder
            {abstract} +cosLocation(String): Builder
            {abstract} +cosEndpointUrl(String): Builder
            {abstract} +cosCredentialIbm(String): Builder
            {abstract} +cosApiKey(String): Builder
            {abstract} +cosSrvInstId(String): Builder
            {abstract} +fhirTenant(String): Builder
            {abstract} +fhirDataStoreId(String): Builder
            {abstract} +fhirPatientGroupId(String): Builder
            {abstract} +cosBucketPathPrefix(String): Builder
            {abstract} +fhirTypeFilters(String): Builder
            {abstract} +fhirDataSourcesInfo(List<Input>): Builder
            {abstract} +fhirStorageType(StorageDetail): Builder
        }

        class com.ibm.fhir.operation.bulkdata.model.type.JobParameter.Parser [[JobParameter.Parser.html]] {
            {static} +parse(Builder, JsonObject): void
            {static} +parseInputsFromString(String): List<Input>
        }

        JobParameter - -> "*" Input: inputs
        JobParameter - -> StorageDetail: storageDetails
        JobParameter +- - com.ibm.fhir.operation.bulkdata.model.type.JobParameter.Writer
        JobParameter +- - com.ibm.fhir.operation.bulkdata.model.type.JobParameter.Builder
        JobParameter +- - com.ibm.fhir.operation.bulkdata.model.type.JobParameter.Parser
    }

    center footer UMLDoclet 2.0.7, PlantUML 1.2019.12
@enduml

PlantUML version 1.2019.12(Sun Nov 03 10:24:54 UTC 2019)
(APACHE source distribution)
Java Runtime: OpenJDK Runtime Environment
JVM: OpenJDK 64-Bit Server VM
Java Version: 11.0.7+10
Operating System: Linux
Default Encoding: UTF-8
Language: en
Country: null
--></g></svg>