<?xml version="1.0" encoding="UTF-8" standalone="no"?><svg xmlns="http://www.w3.org/2000/svg" xmlns:xlink="http://www.w3.org/1999/xlink" contentScriptType="application/ecmascript" contentStyleType="text/css" height="211px" preserveAspectRatio="none" style="width:225px;height:211px;" version="1.1" viewBox="0 0 225 211" width="225px" zoomAndPan="magnify"><defs><filter height="300%" id="fqcgcqw93xybq" width="300%" x="-1" y="-1"><feGaussianBlur result="blurOut" stdDeviation="2.0"/><feColorMatrix in="blurOut" result="blurOut2" type="matrix" values="0 0 0 0 0 0 0 0 0 0 0 0 0 0 0 0 0 0 .4 0"/><feOffset dx="4.0" dy="4.0" in="blurOut2" result="blurOut3"/><feBlend in="SourceGraphic" in2="blurOut3" mode="normal"/></filter></defs><g><!--MD5=[1c7470e938537dc5fd697660ad85881b]
class com.ibm.fhir.audit.cadf.model.CadfEndpoint.Parser--><a href="CadfEndpoint.Parser.html" target="_top" title="CadfEndpoint.Parser.html" xlink:actuate="onRequest" xlink:href="CadfEndpoint.Parser.html" xlink:show="new" xlink:title="CadfEndpoint.Parser.html" xlink:type="simple"><rect fill="#FEFECE" filter="url(#fqcgcqw93xybq)" height="72.1758" id="com.ibm.fhir.audit.cadf.model.CadfEndpoint.Parser" style="stroke: #A80036; stroke-width: 1.5;" width="208" x="6" y="106"/><ellipse cx="34.5" cy="125.1328" fill="#ADD1B2" rx="11" ry="11" style="stroke: #A80036; stroke-width: 1.0;"/><path d="M36.9731,131.2759 Q36.3921,131.5747 35.7529,131.7241 Q35.1138,131.8735 34.4082,131.8735 Q31.9014,131.8735 30.5815,130.2217 Q29.2617,128.5698 29.2617,125.4487 Q29.2617,122.3193 30.5815,120.6675 Q31.9014,119.0156 34.4082,119.0156 Q35.1138,119.0156 35.7612,119.165 Q36.4087,119.3145 36.9731,119.6133 L36.9731,122.3359 Q36.3423,121.7549 35.7488,121.4851 Q35.1553,121.2153 34.5244,121.2153 Q33.1797,121.2153 32.4949,122.282 Q31.8101,123.3486 31.8101,125.4487 Q31.8101,127.5405 32.4949,128.6072 Q33.1797,129.6738 34.5244,129.6738 Q35.1553,129.6738 35.7488,129.4041 Q36.3423,129.1343 36.9731,128.5532 Z "/><text fill="#000000" font-family="sans-serif" font-size="14" lengthAdjust="spacingAndGlyphs" textLength="141" x="54" y="124.5352">CadfEndpoint.Parser</text><text fill="#000000" font-family="sans-serif" font-size="10" lengthAdjust="spacingAndGlyphs" textLength="146" x="51.5" y="137.1563">com.ibm.fhir.audit.cadf.model</text><line style="stroke: #A80036; stroke-width: 1.5;" x1="7" x2="213" y1="144.2656" y2="144.2656"/><ellipse cx="17" cy="155.2656" fill="#84BE84" rx="3" ry="3" style="stroke: #038048; stroke-width: 1.0;"/><text fill="#000000" font-family="sans-serif" font-size="11" lengthAdjust="spacingAndGlyphs" text-decoration="underline" textLength="182" x="26" y="158.9004">parse(InputStream): CadfEndpoint</text><ellipse cx="17" cy="168.2207" fill="#84BE84" rx="3" ry="3" style="stroke: #038048; stroke-width: 1.0;"/><text fill="#000000" font-family="sans-serif" font-size="11" lengthAdjust="spacingAndGlyphs" text-decoration="underline" textLength="175" x="26" y="171.8555">parse(JsonObject): CadfEndpoint</text></a><!--MD5=[df4ca0ec51c55f3df9b14beb91f5d469]
class com.ibm.fhir.audit.cadf.model.CadfEndpoint--><a href="CadfEndpoint.html" target="_top" title="CadfEndpoint.html" xlink:actuate="onRequest" xlink:href="CadfEndpoint.html" xlink:show="new" xlink:title="CadfEndpoint.html" xlink:type="simple"><rect fill="#FEFECE" filter="url(#fqcgcqw93xybq)" height="38.2656" id="com.ibm.fhir.audit.cadf.model.CadfEndpoint" style="stroke: #A80036; stroke-width: 1.5;" width="178" x="21" y="8"/><ellipse cx="36" cy="27.1328" fill="#ADD1B2" rx="11" ry="11" style="stroke: #A80036; stroke-width: 1.0;"/><path d="M38.4731,33.2759 Q37.8921,33.5747 37.2529,33.7241 Q36.6138,33.8735 35.9082,33.8735 Q33.4014,33.8735 32.0815,32.2217 Q30.7617,30.5698 30.7617,27.4487 Q30.7617,24.3193 32.0815,22.6675 Q33.4014,21.0156 35.9082,21.0156 Q36.6138,21.0156 37.2612,21.165 Q37.9087,21.3145 38.4731,21.6133 L38.4731,24.3359 Q37.8423,23.7549 37.2488,23.4851 Q36.6553,23.2153 36.0244,23.2153 Q34.6797,23.2153 33.9949,24.282 Q33.3101,25.3486 33.3101,27.4487 Q33.3101,29.5405 33.9949,30.6072 Q34.6797,31.6738 36.0244,31.6738 Q36.6553,31.6738 37.2488,31.4041 Q37.8423,31.1343 38.4731,30.5532 Z "/><text fill="#000000" font-family="sans-serif" font-size="14" lengthAdjust="spacingAndGlyphs" textLength="94" x="76" y="26.5352">CadfEndpoint</text><text fill="#000000" font-family="sans-serif" font-size="10" lengthAdjust="spacingAndGlyphs" textLength="146" x="50" y="39.1563">com.ibm.fhir.audit.cadf.model</text></a><!--MD5=[ecb9286318d08d36b68804cce309f614]
reverse link com.ibm.fhir.audit.cadf.model.CadfEndpoint to com.ibm.fhir.audit.cadf.model.CadfEndpoint.Parser--><path d="M110,61.4665 C110,75.5047 110,91.7372 110,105.935 " fill="none" id="com.ibm.fhir.audit.cadf.model.CadfEndpoint&lt;-com.ibm.fhir.audit.cadf.model.CadfEndpoint.Parser" style="stroke: #A80036; stroke-width: 1.0;"/><ellipse cx="110" cy="54.2484" fill="#FFFFFF" rx="8" ry="8" style="stroke: #A80036; stroke-width: 1.0;"/><line style="stroke: #A80036; stroke-width: 1.0;" x1="110" x2="110" y1="62.2484" y2="46.2484"/><line style="stroke: #A80036; stroke-width: 1.0;" x1="102" x2="118" y1="54.2484" y2="54.2484"/><text fill="#888888" font-family="sans-serif" font-size="10" lengthAdjust="spacingAndGlyphs" textLength="182" x="25" y="197.668">UMLDoclet 2.0.7, PlantUML 1.2019.12</text><!--MD5=[e1311c42fb676a762e13bb45c9d237ba]
@startuml
    set namespaceSeparator none
    hide empty fields
    hide empty methods

    class "<size:14>CadfEndpoint.Parser\n<size:10>com.ibm.fhir.audit.cadf.model" as com.ibm.fhir.audit.cadf.model.CadfEndpoint.Parser [[CadfEndpoint.Parser.html]] {
        {static} +parse(InputStream): CadfEndpoint
        {static} +parse(JsonObject): CadfEndpoint
    }

    class "<size:14>CadfEndpoint\n<size:10>com.ibm.fhir.audit.cadf.model" as com.ibm.fhir.audit.cadf.model.CadfEndpoint [[CadfEndpoint.html]]

    com.ibm.fhir.audit.cadf.model.CadfEndpoint +- - com.ibm.fhir.audit.cadf.model.CadfEndpoint.Parser

    center footer UMLDoclet 2.0.7, PlantUML 1.2019.12
@enduml

PlantUML version 1.2019.12(Sun Nov 03 05:24:54 EST 2019)
(APACHE source distribution)
Java Runtime: OpenJDK Runtime Environment
JVM: OpenJDK 64-Bit Server VM
Java Version: 11.0.4+11
Operating System: Mac OS X
Default Encoding: UTF-8
Language: en
Country: US
--></g></svg>