<?xml version="1.0" encoding="UTF-8" standalone="no"?><svg xmlns="http://www.w3.org/2000/svg" xmlns:xlink="http://www.w3.org/1999/xlink" contentScriptType="application/ecmascript" contentStyleType="text/css" height="426px" preserveAspectRatio="none" style="width:1816px;height:426px;" version="1.1" viewBox="0 0 1816 426" width="1816px" zoomAndPan="magnify"><defs><filter height="300%" id="ffr7jnctqdlg8" width="300%" x="-1" y="-1"><feGaussianBlur result="blurOut" stdDeviation="2.0"/><feColorMatrix in="blurOut" result="blurOut2" type="matrix" values="0 0 0 0 0 0 0 0 0 0 0 0 0 0 0 0 0 0 .4 0"/><feOffset dx="4.0" dy="4.0" in="blurOut2" result="blurOut3"/><feBlend in="SourceGraphic" in2="blurOut3" mode="normal"/></filter></defs><g><!--MD5=[6545c481db8071501b36a74cce94af0a]
cluster com.ibm.fhir.persistence.jdbc.util.type--><polygon fill="#FFFFFF" filter="url(#ffr7jnctqdlg8)" points="14,16,324,16,331,38.2969,1794,38.2969,1794,386,14,386,14,16" style="stroke: #000000; stroke-width: 1.5;"/><line style="stroke: #000000; stroke-width: 1.5;" x1="14" x2="331" y1="38.2969" y2="38.2969"/><text fill="#000000" font-family="sans-serif" font-size="14" font-weight="bold" lengthAdjust="spacingAndGlyphs" textLength="304" x="18" y="30.9951">com.ibm.fhir.persistence.jdbc.util.type</text><!--MD5=[19a15e8341d5dd5c44cc15eff514b401]
class com.ibm.fhir.persistence.jdbc.util.type.LastUpdatedParmBehaviorUtil--><a href="LastUpdatedParmBehaviorUtil.html" target="_top" title="LastUpdatedParmBehaviorUtil.html" xlink:actuate="onRequest" xlink:href="LastUpdatedParmBehaviorUtil.html" xlink:show="new" xlink:title="LastUpdatedParmBehaviorUtil.html" xlink:type="simple"><rect fill="#FEFECE" filter="url(#ffr7jnctqdlg8)" height="176.0469" id="com.ibm.fhir.persistence.jdbc.util.type.LastUpdatedParmBehaviorUtil" style="stroke: #A80036; stroke-width: 1.5;" width="493" x="21.5" y="43"/><ellipse cx="170.75" cy="59" fill="#ADD1B2" rx="11" ry="11" style="stroke: #A80036; stroke-width: 1.0;"/><path d="M173.7188,64.6406 Q173.1406,64.9375 172.5,65.0781 Q171.8594,65.2344 171.1563,65.2344 Q168.6563,65.2344 167.3281,63.5938 Q166.0156,61.9375 166.0156,58.8125 Q166.0156,55.6875 167.3281,54.0313 Q168.6563,52.375 171.1563,52.375 Q171.8594,52.375 172.5,52.5313 Q173.1563,52.6875 173.7188,52.9844 L173.7188,55.7031 Q173.0938,55.125 172.5,54.8594 Q171.9063,54.5781 171.2813,54.5781 Q169.9375,54.5781 169.25,55.6563 Q168.5625,56.7188 168.5625,58.8125 Q168.5625,60.9063 169.25,61.9844 Q169.9375,63.0469 171.2813,63.0469 Q171.9063,63.0469 172.5,62.7813 Q173.0938,62.5 173.7188,61.9219 L173.7188,64.6406 Z "/><text fill="#000000" font-family="sans-serif" font-size="12" lengthAdjust="spacingAndGlyphs" textLength="186" x="191.25" y="63.1543">LastUpdatedParmBehaviorUtil</text><line style="stroke: #A80036; stroke-width: 1.5;" x1="22.5" x2="513.5" y1="75" y2="75"/><ellipse cx="32.5" cy="86" fill="none" rx="3" ry="3" style="stroke: #038048; stroke-width: 1.0;"/><text fill="#000000" font-family="sans-serif" font-size="11" lengthAdjust="spacingAndGlyphs" text-decoration="underline" textLength="128" x="41.5" y="89.2104">LAST_UPDATED: String</text><ellipse cx="32.5" cy="98.8047" fill="none" rx="3" ry="3" style="stroke: #038048; stroke-width: 1.0;"/><text fill="#000000" font-family="sans-serif" font-size="11" lengthAdjust="spacingAndGlyphs" text-decoration="underline" textLength="219" x="41.5" y="102.0151">LAST_UPDATED_COLUMN_NAME: String</text><line style="stroke: #A80036; stroke-width: 1.5;" x1="22.5" x2="513.5" y1="108.6094" y2="108.6094"/><ellipse cx="32.5" cy="119.6094" fill="#84BE84" rx="3" ry="3" style="stroke: #038048; stroke-width: 1.0;"/><text fill="#000000" font-family="sans-serif" font-size="11" lengthAdjust="spacingAndGlyphs" textLength="467" x="41.5" y="122.8198">buildLastUpdatedDerivedTable(StringBuilder, String, List&lt;QueryParameter&gt;): void</text><ellipse cx="32.5" cy="132.4141" fill="#84BE84" rx="3" ry="3" style="stroke: #038048; stroke-width: 1.0;"/><text fill="#000000" font-family="sans-serif" font-size="11" lengthAdjust="spacingAndGlyphs" textLength="309" x="41.5" y="135.6245">executeBehavior(StringBuilder, QueryParameter): void</text><ellipse cx="32.5" cy="145.2188" fill="#84BE84" rx="3" ry="3" style="stroke: #038048; stroke-width: 1.0;"/><text fill="#000000" font-family="sans-serif" font-size="11" lengthAdjust="spacingAndGlyphs" textLength="334" x="41.5" y="148.4292">buildPredicates(StringBuilder, Prefix, Instant, Instant): void</text><ellipse cx="32.5" cy="158.0234" fill="#84BE84" rx="3" ry="3" style="stroke: #038048; stroke-width: 1.0;"/><text fill="#000000" font-family="sans-serif" font-size="11" lengthAdjust="spacingAndGlyphs" textLength="319" x="41.5" y="161.2339">buildCommonClause(StringBuilder, String, Instant): void</text><ellipse cx="32.5" cy="170.8281" fill="#84BE84" rx="3" ry="3" style="stroke: #038048; stroke-width: 1.0;"/><text fill="#000000" font-family="sans-serif" font-size="11" lengthAdjust="spacingAndGlyphs" textLength="346" x="41.5" y="174.0386">buildEqualsRangeClause(StringBuilder, Instant, Instant): void</text><ellipse cx="32.5" cy="183.6328" fill="#84BE84" rx="3" ry="3" style="stroke: #038048; stroke-width: 1.0;"/><text fill="#000000" font-family="sans-serif" font-size="11" lengthAdjust="spacingAndGlyphs" textLength="365" x="41.5" y="186.8433">buildNotEqualsRangeClause(StringBuilder, Instant, Instant): void</text><ellipse cx="32.5" cy="196.4375" fill="#84BE84" rx="3" ry="3" style="stroke: #038048; stroke-width: 1.0;"/><text fill="#000000" font-family="sans-serif" font-size="11" lengthAdjust="spacingAndGlyphs" textLength="214" x="41.5" y="199.6479">getBindVariables(): List&lt;Timestamp&gt;</text><ellipse cx="32.5" cy="209.2422" fill="#84BE84" rx="3" ry="3" style="stroke: #038048; stroke-width: 1.0;"/><text fill="#000000" font-family="sans-serif" font-size="11" lengthAdjust="spacingAndGlyphs" textLength="145" x="41.5" y="212.4526">clearBindVariables(): void</text></a><!--MD5=[ec965423835ad0a687c982050e67d345]
class com.ibm.fhir.persistence.jdbc.util.type.DateParmBehaviorUtil--><a href="DateParmBehaviorUtil.html" target="_top" title="DateParmBehaviorUtil.html" xlink:actuate="onRequest" xlink:href="DateParmBehaviorUtil.html" xlink:show="new" xlink:title="DateParmBehaviorUtil.html" xlink:type="simple"><rect fill="#FEFECE" filter="url(#ffr7jnctqdlg8)" height="124.8281" id="com.ibm.fhir.persistence.jdbc.util.type.DateParmBehaviorUtil" style="stroke: #A80036; stroke-width: 1.5;" width="543" x="549.5" y="68.5"/><ellipse cx="748.75" cy="84.5" fill="#ADD1B2" rx="11" ry="11" style="stroke: #A80036; stroke-width: 1.0;"/><path d="M751.7188,90.1406 Q751.1406,90.4375 750.5,90.5781 Q749.8594,90.7344 749.1563,90.7344 Q746.6563,90.7344 745.3281,89.0938 Q744.0156,87.4375 744.0156,84.3125 Q744.0156,81.1875 745.3281,79.5313 Q746.6563,77.875 749.1563,77.875 Q749.8594,77.875 750.5,78.0313 Q751.1563,78.1875 751.7188,78.4844 L751.7188,81.2031 Q751.0938,80.625 750.5,80.3594 Q749.9063,80.0781 749.2813,80.0781 Q747.9375,80.0781 747.25,81.1563 Q746.5625,82.2188 746.5625,84.3125 Q746.5625,86.4063 747.25,87.4844 Q747.9375,88.5469 749.2813,88.5469 Q749.9063,88.5469 750.5,88.2813 Q751.0938,88 751.7188,87.4219 L751.7188,90.1406 Z "/><text fill="#000000" font-family="sans-serif" font-size="12" lengthAdjust="spacingAndGlyphs" textLength="136" x="769.25" y="88.6543">DateParmBehaviorUtil</text><line style="stroke: #A80036; stroke-width: 1.5;" x1="550.5" x2="1091.5" y1="100.5" y2="100.5"/><line style="stroke: #A80036; stroke-width: 1.5;" x1="550.5" x2="1091.5" y1="108.5" y2="108.5"/><ellipse cx="560.5" cy="119.5" fill="#84BE84" rx="3" ry="3" style="stroke: #038048; stroke-width: 1.0;"/><text fill="#000000" font-family="sans-serif" font-size="11" lengthAdjust="spacingAndGlyphs" textLength="461" x="569.5" y="122.7104">executeBehavior(StringBuilder, QueryParameter, List&lt;Timestamp&gt;, String): void</text><ellipse cx="560.5" cy="132.3047" fill="#84BE84" rx="3" ry="3" style="stroke: #038048; stroke-width: 1.0;"/><text fill="#000000" font-family="sans-serif" font-size="11" lengthAdjust="spacingAndGlyphs" textLength="486" x="569.5" y="135.5151">buildPredicates(StringBuilder, List&lt;Timestamp&gt;, String, Prefix, Instant, Instant): void</text><ellipse cx="560.5" cy="145.1094" fill="#84BE84" rx="3" ry="3" style="stroke: #038048; stroke-width: 1.0;"/><text fill="#000000" font-family="sans-serif" font-size="11" lengthAdjust="spacingAndGlyphs" textLength="513" x="569.5" y="148.3198">buildCommonClause(StringBuilder, List&lt;Timestamp&gt;, String, String, String, Instant): void</text><ellipse cx="560.5" cy="157.9141" fill="#84BE84" rx="3" ry="3" style="stroke: #038048; stroke-width: 1.0;"/><text fill="#000000" font-family="sans-serif" font-size="11" lengthAdjust="spacingAndGlyphs" textLength="498" x="569.5" y="161.1245">buildEqualsRangeClause(StringBuilder, List&lt;Timestamp&gt;, String, Instant, Instant): void</text><ellipse cx="560.5" cy="170.7188" fill="#84BE84" rx="3" ry="3" style="stroke: #038048; stroke-width: 1.0;"/><text fill="#000000" font-family="sans-serif" font-size="11" lengthAdjust="spacingAndGlyphs" textLength="499" x="569.5" y="173.9292">buildApproxRangeClause(StringBuilder, List&lt;Timestamp&gt;, String, Instant, Instant): void</text><ellipse cx="560.5" cy="183.5234" fill="#84BE84" rx="3" ry="3" style="stroke: #038048; stroke-width: 1.0;"/><text fill="#000000" font-family="sans-serif" font-size="11" lengthAdjust="spacingAndGlyphs" textLength="517" x="569.5" y="186.7339">buildNotEqualsRangeClause(StringBuilder, List&lt;Timestamp&gt;, String, Instant, Instant): void</text></a><!--MD5=[3a1489d27117eaf7e7806bf3f30fc285]
class com.ibm.fhir.persistence.jdbc.util.type.NumberParmBehaviorUtil--><a href="NumberParmBehaviorUtil.html" target="_top" title="NumberParmBehaviorUtil.html" xlink:actuate="onRequest" xlink:href="NumberParmBehaviorUtil.html" xlink:show="new" xlink:title="NumberParmBehaviorUtil.html" xlink:type="simple"><rect fill="#FEFECE" filter="url(#ffr7jnctqdlg8)" height="176.0469" id="com.ibm.fhir.persistence.jdbc.util.type.NumberParmBehaviorUtil" style="stroke: #A80036; stroke-width: 1.5;" width="658" x="1128" y="43"/><ellipse cx="1375.25" cy="59" fill="#ADD1B2" rx="11" ry="11" style="stroke: #A80036; stroke-width: 1.0;"/><path d="M1378.2188,64.6406 Q1377.6406,64.9375 1377,65.0781 Q1376.3594,65.2344 1375.6563,65.2344 Q1373.1563,65.2344 1371.8281,63.5938 Q1370.5156,61.9375 1370.5156,58.8125 Q1370.5156,55.6875 1371.8281,54.0313 Q1373.1563,52.375 1375.6563,52.375 Q1376.3594,52.375 1377,52.5313 Q1377.6563,52.6875 1378.2188,52.9844 L1378.2188,55.7031 Q1377.5938,55.125 1377,54.8594 Q1376.4063,54.5781 1375.7813,54.5781 Q1374.4375,54.5781 1373.75,55.6563 Q1373.0625,56.7188 1373.0625,58.8125 Q1373.0625,60.9063 1373.75,61.9844 Q1374.4375,63.0469 1375.7813,63.0469 Q1376.4063,63.0469 1377,62.7813 Q1377.5938,62.5 1378.2188,61.9219 L1378.2188,64.6406 Z "/><text fill="#000000" font-family="sans-serif" font-size="12" lengthAdjust="spacingAndGlyphs" textLength="155" x="1395.75" y="63.1543">NumberParmBehaviorUtil</text><line style="stroke: #A80036; stroke-width: 1.5;" x1="1129" x2="1785" y1="75" y2="75"/><polygon fill="none" points="1139,81,1143,85,1139,89,1135,85" style="stroke: #B38D22; stroke-width: 1.0;"/><text fill="#000000" font-family="sans-serif" font-size="11" lengthAdjust="spacingAndGlyphs" text-decoration="underline" textLength="115" x="1148" y="89.2104">FACTOR: BigDecimal</text><line style="stroke: #A80036; stroke-width: 1.5;" x1="1129" x2="1785" y1="95.8047" y2="95.8047"/><ellipse cx="1139" cy="106.8047" fill="#84BE84" rx="3" ry="3" style="stroke: #038048; stroke-width: 1.0;"/><text fill="#000000" font-family="sans-serif" font-size="11" lengthAdjust="spacingAndGlyphs" text-decoration="underline" textLength="606" x="1148" y="110.0151">executeBehavior(StringBuilder, QueryParameter, List&lt;Object&gt;, Class&lt;?&gt;, String, JDBCQueryBuilder): void</text><ellipse cx="1139" cy="119.6094" fill="#84BE84" rx="3" ry="3" style="stroke: #038048; stroke-width: 1.0;"/><text fill="#000000" font-family="sans-serif" font-size="11" lengthAdjust="spacingAndGlyphs" text-decoration="underline" textLength="442" x="1148" y="122.8198">addValue(StringBuilder, List&lt;Object&gt;, String, String, Prefix, BigDecimal): void</text><ellipse cx="1139" cy="132.4141" fill="#84BE84" rx="3" ry="3" style="stroke: #038048; stroke-width: 1.0;"/><text fill="#000000" font-family="sans-serif" font-size="11" lengthAdjust="spacingAndGlyphs" text-decoration="underline" textLength="622" x="1148" y="135.6245">buildCommonClause(StringBuilder, List&lt;Object&gt;, String, String, String, String, BigDecimal, BigDecimal): void</text><ellipse cx="1139" cy="145.2188" fill="#84BE84" rx="3" ry="3" style="stroke: #038048; stroke-width: 1.0;"/><text fill="#000000" font-family="sans-serif" font-size="11" lengthAdjust="spacingAndGlyphs" text-decoration="underline" textLength="614" x="1148" y="148.4292">buildEbOrSaClause(StringBuilder, List&lt;Object&gt;, String, String, String, String, BigDecimal, BigDecimal): void</text><ellipse cx="1139" cy="158.0234" fill="#84BE84" rx="3" ry="3" style="stroke: #038048; stroke-width: 1.0;"/><text fill="#000000" font-family="sans-serif" font-size="11" lengthAdjust="spacingAndGlyphs" text-decoration="underline" textLength="560" x="1148" y="161.2339">buildEqualsRangeClause(StringBuilder, List&lt;Object&gt;, String, String, BigDecimal, BigDecimal): void</text><ellipse cx="1139" cy="170.8281" fill="#84BE84" rx="3" ry="3" style="stroke: #038048; stroke-width: 1.0;"/><text fill="#000000" font-family="sans-serif" font-size="11" lengthAdjust="spacingAndGlyphs" text-decoration="underline" textLength="632" x="1148" y="174.0386">buildApproxRangeClause(StringBuilder, List&lt;Object&gt;, String, String, BigDecimal, BigDecimal, BigDecimal): void</text><ellipse cx="1139" cy="183.6328" fill="#84BE84" rx="3" ry="3" style="stroke: #038048; stroke-width: 1.0;"/><text fill="#000000" font-family="sans-serif" font-size="11" lengthAdjust="spacingAndGlyphs" text-decoration="underline" textLength="579" x="1148" y="186.8433">buildNotEqualsRangeClause(StringBuilder, List&lt;Object&gt;, String, String, BigDecimal, BigDecimal): void</text><ellipse cx="1139" cy="196.4375" fill="#84BE84" rx="3" ry="3" style="stroke: #038048; stroke-width: 1.0;"/><text fill="#000000" font-family="sans-serif" font-size="11" lengthAdjust="spacingAndGlyphs" text-decoration="underline" textLength="263" x="1148" y="199.6479">generateLowerBound(BigDecimal): BigDecimal</text><ellipse cx="1139" cy="209.2422" fill="#84BE84" rx="3" ry="3" style="stroke: #038048; stroke-width: 1.0;"/><text fill="#000000" font-family="sans-serif" font-size="11" lengthAdjust="spacingAndGlyphs" text-decoration="underline" textLength="263" x="1148" y="212.4526">generateUpperBound(BigDecimal): BigDecimal</text></a><!--MD5=[27c28845fe48e7488f30b7818c16e9f0]
class com.ibm.fhir.persistence.jdbc.util.type.QuantityParmBehaviorUtil--><a href="QuantityParmBehaviorUtil.html" target="_top" title="QuantityParmBehaviorUtil.html" xlink:actuate="onRequest" xlink:href="QuantityParmBehaviorUtil.html" xlink:show="new" xlink:title="QuantityParmBehaviorUtil.html" xlink:type="simple"><rect fill="#FEFECE" filter="url(#ffr7jnctqdlg8)" height="99.2188" id="com.ibm.fhir.persistence.jdbc.util.type.QuantityParmBehaviorUtil" style="stroke: #A80036; stroke-width: 1.5;" width="551" x="22.5" y="279"/><ellipse cx="214.75" cy="295" fill="#ADD1B2" rx="11" ry="11" style="stroke: #A80036; stroke-width: 1.0;"/><path d="M217.7188,300.6406 Q217.1406,300.9375 216.5,301.0781 Q215.8594,301.2344 215.1563,301.2344 Q212.6563,301.2344 211.3281,299.5938 Q210.0156,297.9375 210.0156,294.8125 Q210.0156,291.6875 211.3281,290.0313 Q212.6563,288.375 215.1563,288.375 Q215.8594,288.375 216.5,288.5313 Q217.1563,288.6875 217.7188,288.9844 L217.7188,291.7031 Q217.0938,291.125 216.5,290.8594 Q215.9063,290.5781 215.2813,290.5781 Q213.9375,290.5781 213.25,291.6563 Q212.5625,292.7188 212.5625,294.8125 Q212.5625,296.9063 213.25,297.9844 Q213.9375,299.0469 215.2813,299.0469 Q215.9063,299.0469 216.5,298.7813 Q217.0938,298.5 217.7188,297.9219 L217.7188,300.6406 Z "/><text fill="#000000" font-family="sans-serif" font-size="12" lengthAdjust="spacingAndGlyphs" textLength="158" x="235.25" y="299.1543">QuantityParmBehaviorUtil</text><line style="stroke: #A80036; stroke-width: 1.5;" x1="23.5" x2="572.5" y1="311" y2="311"/><line style="stroke: #A80036; stroke-width: 1.5;" x1="23.5" x2="572.5" y1="319" y2="319"/><ellipse cx="33.5" cy="330" fill="#84BE84" rx="3" ry="3" style="stroke: #038048; stroke-width: 1.0;"/><text fill="#000000" font-family="sans-serif" font-size="11" lengthAdjust="spacingAndGlyphs" textLength="525" x="42.5" y="333.2104">executeBehavior(StringBuilder, QueryParameter, List&lt;Object&gt;, String, ParameterDAO): void</text><ellipse cx="33.5" cy="342.8047" fill="#84BE84" rx="3" ry="3" style="stroke: #038048; stroke-width: 1.0;"/><text fill="#000000" font-family="sans-serif" font-size="11" lengthAdjust="spacingAndGlyphs" textLength="486" x="42.5" y="346.0151">addSystemIfPresent(ParameterDAO, StringBuilder, String, List&lt;Object&gt;, String): void</text><ellipse cx="33.5" cy="355.6094" fill="#84BE84" rx="3" ry="3" style="stroke: #038048; stroke-width: 1.0;"/><text fill="#000000" font-family="sans-serif" font-size="11" lengthAdjust="spacingAndGlyphs" textLength="380" x="42.5" y="358.8198">addCodeIfPresent(StringBuilder, String, List&lt;Object&gt;, String): void</text><ellipse cx="33.5" cy="368.4141" fill="#84BE84" rx="3" ry="3" style="stroke: #038048; stroke-width: 1.0;"/><text fill="#000000" font-family="sans-serif" font-size="11" lengthAdjust="spacingAndGlyphs" textLength="149" x="42.5" y="371.6245">isPresent(String): boolean</text></a><!--MD5=[4a28d8e5b00b64578f1b8c90125dbc92]
class com.ibm.fhir.persistence.jdbc.util.type.LocationParmBehaviorUtil--><a href="LocationParmBehaviorUtil.html" target="_top" title="LocationParmBehaviorUtil.html" xlink:actuate="onRequest" xlink:href="LocationParmBehaviorUtil.html" xlink:show="new" xlink:title="LocationParmBehaviorUtil.html" xlink:type="simple"><rect fill="#FEFECE" filter="url(#ffr7jnctqdlg8)" height="99.2188" id="com.ibm.fhir.persistence.jdbc.util.type.LocationParmBehaviorUtil" style="stroke: #A80036; stroke-width: 1.5;" width="552" x="609" y="279"/><ellipse cx="801.25" cy="295" fill="#ADD1B2" rx="11" ry="11" style="stroke: #A80036; stroke-width: 1.0;"/><path d="M804.2188,300.6406 Q803.6406,300.9375 803,301.0781 Q802.3594,301.2344 801.6563,301.2344 Q799.1563,301.2344 797.8281,299.5938 Q796.5156,297.9375 796.5156,294.8125 Q796.5156,291.6875 797.8281,290.0313 Q799.1563,288.375 801.6563,288.375 Q802.3594,288.375 803,288.5313 Q803.6563,288.6875 804.2188,288.9844 L804.2188,291.7031 Q803.5938,291.125 803,290.8594 Q802.4063,290.5781 801.7813,290.5781 Q800.4375,290.5781 799.75,291.6563 Q799.0625,292.7188 799.0625,294.8125 Q799.0625,296.9063 799.75,297.9844 Q800.4375,299.0469 801.7813,299.0469 Q802.4063,299.0469 803,298.7813 Q803.5938,298.5 804.2188,297.9219 L804.2188,300.6406 Z "/><text fill="#000000" font-family="sans-serif" font-size="12" lengthAdjust="spacingAndGlyphs" textLength="159" x="821.75" y="299.1543">LocationParmBehaviorUtil</text><line style="stroke: #A80036; stroke-width: 1.5;" x1="610" x2="1160" y1="311" y2="311"/><line style="stroke: #A80036; stroke-width: 1.5;" x1="610" x2="1160" y1="319" y2="319"/><ellipse cx="620" cy="330" fill="#84BE84" rx="3" ry="3" style="stroke: #038048; stroke-width: 1.0;"/><text fill="#000000" font-family="sans-serif" font-size="11" lengthAdjust="spacingAndGlyphs" textLength="526" x="629" y="333.2104">buildLocationSearchQuery(String, StringBuilder, List&lt;Object&gt;, List&lt;Bounding&gt;, String): void</text><ellipse cx="620" cy="342.8047" fill="#84BE84" rx="3" ry="3" style="stroke: #038048; stroke-width: 1.0;"/><text fill="#000000" font-family="sans-serif" font-size="11" lengthAdjust="spacingAndGlyphs" textLength="434" x="629" y="346.0151">buildQueryForBoundingMissing(String, StringBuilder, BoundingMissing): void</text><ellipse cx="620" cy="355.6094" fill="#84BE84" rx="3" ry="3" style="stroke: #038048; stroke-width: 1.0;"/><text fill="#000000" font-family="sans-serif" font-size="11" lengthAdjust="spacingAndGlyphs" textLength="472" x="629" y="358.8198">buildQueryForBoundingBox(StringBuilder, List&lt;Object&gt;, BoundingBox, String): void</text><ellipse cx="620" cy="368.4141" fill="#84BE84" rx="3" ry="3" style="stroke: #038048; stroke-width: 1.0;"/><text fill="#000000" font-family="sans-serif" font-size="11" lengthAdjust="spacingAndGlyphs" textLength="464" x="629" y="371.6245">buildQueryForBoundingRadius(StringBuilder, List&lt;Object&gt;, BoundingRadius): void</text></a><!--MD5=[a8598bb989eeddbca88df74f8d96d126]
link com.ibm.fhir.persistence.jdbc.util.type.LastUpdatedParmBehaviorUtil to com.ibm.fhir.persistence.jdbc.util.type.DateParmBehaviorUtil--><!--MD5=[5e7e18e7fb953515cbd29823412110c7]
link com.ibm.fhir.persistence.jdbc.util.type.DateParmBehaviorUtil to com.ibm.fhir.persistence.jdbc.util.type.NumberParmBehaviorUtil--><!--MD5=[0e3f3f8fb82700d5105c44c7f50cba86]
link com.ibm.fhir.persistence.jdbc.util.type.LastUpdatedParmBehaviorUtil to com.ibm.fhir.persistence.jdbc.util.type.QuantityParmBehaviorUtil--><!--MD5=[eb5a38a353f6101ee23f1d65225a1c6b]
link com.ibm.fhir.persistence.jdbc.util.type.QuantityParmBehaviorUtil to com.ibm.fhir.persistence.jdbc.util.type.LocationParmBehaviorUtil--><text fill="#888888" font-family="sans-serif" font-size="10" lengthAdjust="spacingAndGlyphs" textLength="186" x="817" y="413.2822">UMLDoclet 2.0.7, PlantUML 1.2019.12</text><!--MD5=[810f0f050c1f6ebdc709a99bb6d1c7cc]
@startuml
    namespace com.ibm.fhir.persistence.jdbc.util.type {

        class LastUpdatedParmBehaviorUtil [[LastUpdatedParmBehaviorUtil.html]] {
            {static} +LAST_UPDATED: String
            {static} +LAST_UPDATED_COLUMN_NAME: String
            +buildLastUpdatedDerivedTable(StringBuilder, String, List<QueryParameter>): void
            +executeBehavior(StringBuilder, QueryParameter): void
            +buildPredicates(StringBuilder, Prefix, Instant, Instant): void
            +buildCommonClause(StringBuilder, String, Instant): void
            +buildEqualsRangeClause(StringBuilder, Instant, Instant): void
            +buildNotEqualsRangeClause(StringBuilder, Instant, Instant): void
            +getBindVariables(): List<Timestamp>
            +clearBindVariables(): void
        }

        class DateParmBehaviorUtil [[DateParmBehaviorUtil.html]] {
            +executeBehavior(StringBuilder, QueryParameter, List<Timestamp>, String): void
            +buildPredicates(StringBuilder, List<Timestamp>, String, Prefix, Instant, Instant): void
            +buildCommonClause(StringBuilder, List<Timestamp>, String, String, String, Instant): void
            +buildEqualsRangeClause(StringBuilder, List<Timestamp>, String, Instant, Instant): void
            +buildApproxRangeClause(StringBuilder, List<Timestamp>, String, Instant, Instant): void
            +buildNotEqualsRangeClause(StringBuilder, List<Timestamp>, String, Instant, Instant): void
        }

        class NumberParmBehaviorUtil [[NumberParmBehaviorUtil.html]] {
            {static} #FACTOR: BigDecimal
            {static} +executeBehavior(StringBuilder, QueryParameter, List<Object>, Class<?>, String, JDBCQueryBuilder): void
            {static} +addValue(StringBuilder, List<Object>, String, String, Prefix, BigDecimal): void
            {static} +buildCommonClause(StringBuilder, List<Object>, String, String, String, String, BigDecimal, BigDecimal): void
            {static} +buildEbOrSaClause(StringBuilder, List<Object>, String, String, String, String, BigDecimal, BigDecimal): void
            {static} +buildEqualsRangeClause(StringBuilder, List<Object>, String, String, BigDecimal, BigDecimal): void
            {static} +buildApproxRangeClause(StringBuilder, List<Object>, String, String, BigDecimal, BigDecimal, BigDecimal): void
            {static} +buildNotEqualsRangeClause(StringBuilder, List<Object>, String, String, BigDecimal, BigDecimal): void
            {static} +generateLowerBound(BigDecimal): BigDecimal
            {static} +generateUpperBound(BigDecimal): BigDecimal
        }

        class QuantityParmBehaviorUtil [[QuantityParmBehaviorUtil.html]] {
            +executeBehavior(StringBuilder, QueryParameter, List<Object>, String, ParameterDAO): void
            +addSystemIfPresent(ParameterDAO, StringBuilder, String, List<Object>, String): void
            +addCodeIfPresent(StringBuilder, String, List<Object>, String): void
            +isPresent(String): boolean
        }

        class LocationParmBehaviorUtil [[LocationParmBehaviorUtil.html]] {
            +buildLocationSearchQuery(String, StringBuilder, List<Object>, List<Bounding>, String): void
            +buildQueryForBoundingMissing(String, StringBuilder, BoundingMissing): void
            +buildQueryForBoundingBox(StringBuilder, List<Object>, BoundingBox, String): void
            +buildQueryForBoundingRadius(StringBuilder, List<Object>, BoundingRadius): void
        }

    }

    center footer UMLDoclet 2.0.7, PlantUML 1.2019.12
@enduml

PlantUML version 1.2019.12(Sun Nov 03 10:24:54 UTC 2019)
(APACHE source distribution)
Java Runtime: OpenJDK Runtime Environment
JVM: OpenJDK 64-Bit Server VM
Java Version: 11.0.9.1+1
Operating System: Linux
Default Encoding: UTF-8
Language: en
Country: null
--></g></svg>