<?xml version="1.0" encoding="UTF-8" standalone="no"?><svg xmlns="http://www.w3.org/2000/svg" xmlns:xlink="http://www.w3.org/1999/xlink" contentScriptType="application/ecmascript" contentStyleType="text/css" height="410px" preserveAspectRatio="none" style="width:567px;height:410px;" version="1.1" viewBox="0 0 567 410" width="567px" zoomAndPan="magnify"><defs><filter height="300%" id="f1ntbickpsnnjq" width="300%" x="-1" y="-1"><feGaussianBlur result="blurOut" stdDeviation="2.0"/><feColorMatrix in="blurOut" result="blurOut2" type="matrix" values="0 0 0 0 0 0 0 0 0 0 0 0 0 0 0 0 0 0 .4 0"/><feOffset dx="4.0" dy="4.0" in="blurOut2" result="blurOut3"/><feBlend in="SourceGraphic" in2="blurOut3" mode="normal"/></filter></defs><g><!--MD5=[62d039551f11653245b50a3051eb8280]
class com.ibm.fhir.model.resource.SubstanceReferenceInformation.Target.Builder--><a href="SubstanceReferenceInformation.Target.Builder.html" target="_top" title="SubstanceReferenceInformation.Target.Builder.html" xlink:actuate="onRequest" xlink:href="SubstanceReferenceInformation.Target.Builder.html" xlink:show="new" xlink:title="SubstanceReferenceInformation.Target.Builder.html" xlink:type="simple"><rect fill="#FEFECE" filter="url(#f1ntbickpsnnjq)" height="250.8125" id="com.ibm.fhir.model.resource.SubstanceReferenceInformation.Target.Builder" style="stroke: #A80036; stroke-width: 1.5;" width="356" x="79.5" y="127"/><ellipse cx="94.5" cy="145.9688" fill="#ADD1B2" rx="11" ry="11" style="stroke: #A80036; stroke-width: 1.0;"/><path d="M97.4688,151.6094 Q96.8906,151.9063 96.25,152.0469 Q95.6094,152.2031 94.9063,152.2031 Q92.4063,152.2031 91.0781,150.5625 Q89.7656,148.9063 89.7656,145.7813 Q89.7656,142.6563 91.0781,141 Q92.4063,139.3438 94.9063,139.3438 Q95.6094,139.3438 96.25,139.5 Q96.9063,139.6563 97.4688,139.9531 L97.4688,142.6719 Q96.8438,142.0938 96.25,141.8281 Q95.6563,141.5469 95.0313,141.5469 Q93.6875,141.5469 93,142.625 Q92.3125,143.6875 92.3125,145.7813 Q92.3125,147.875 93,148.9531 Q93.6875,150.0156 95.0313,150.0156 Q95.6563,150.0156 96.25,149.75 Q96.8438,149.4688 97.4688,148.8906 L97.4688,151.6094 Z "/><text fill="#000000" font-family="sans-serif" font-size="14" lengthAdjust="spacingAndGlyphs" textLength="324" x="108.5" y="144.9951">SubstanceReferenceInformation.Target.Builder</text><text fill="#000000" font-family="sans-serif" font-size="10" lengthAdjust="spacingAndGlyphs" textLength="139" x="201" y="157.5791">com.ibm.fhir.model.resource</text><line style="stroke: #A80036; stroke-width: 1.5;" x1="80.5" x2="434.5" y1="164.9375" y2="164.9375"/><ellipse cx="90.5" cy="175.9375" fill="#84BE84" rx="3" ry="3" style="stroke: #038048; stroke-width: 1.0;"/><text fill="#000000" font-family="sans-serif" font-size="11" lengthAdjust="spacingAndGlyphs" textLength="100" x="99.5" y="179.1479">id(String): Builder</text><ellipse cx="90.5" cy="188.7422" fill="#84BE84" rx="3" ry="3" style="stroke: #038048; stroke-width: 1.0;"/><text fill="#000000" font-family="sans-serif" font-size="11" lengthAdjust="spacingAndGlyphs" textLength="178" x="99.5" y="191.9526">extension(Extension...): Builder</text><ellipse cx="90.5" cy="201.5469" fill="#84BE84" rx="3" ry="3" style="stroke: #038048; stroke-width: 1.0;"/><text fill="#000000" font-family="sans-serif" font-size="11" lengthAdjust="spacingAndGlyphs" textLength="239" x="99.5" y="204.7573">extension(Collection&lt;Extension&gt;): Builder</text><ellipse cx="90.5" cy="214.3516" fill="#84BE84" rx="3" ry="3" style="stroke: #038048; stroke-width: 1.0;"/><text fill="#000000" font-family="sans-serif" font-size="11" lengthAdjust="spacingAndGlyphs" textLength="225" x="99.5" y="217.562">modifierExtension(Extension...): Builder</text><ellipse cx="90.5" cy="227.1563" fill="#84BE84" rx="3" ry="3" style="stroke: #038048; stroke-width: 1.0;"/><text fill="#000000" font-family="sans-serif" font-size="11" lengthAdjust="spacingAndGlyphs" textLength="286" x="99.5" y="230.3667">modifierExtension(Collection&lt;Extension&gt;): Builder</text><ellipse cx="90.5" cy="239.9609" fill="#84BE84" rx="3" ry="3" style="stroke: #038048; stroke-width: 1.0;"/><text fill="#000000" font-family="sans-serif" font-size="11" lengthAdjust="spacingAndGlyphs" textLength="140" x="99.5" y="243.1714">target(Identifier): Builder</text><ellipse cx="90.5" cy="252.7656" fill="#84BE84" rx="3" ry="3" style="stroke: #038048; stroke-width: 1.0;"/><text fill="#000000" font-family="sans-serif" font-size="11" lengthAdjust="spacingAndGlyphs" textLength="179" x="99.5" y="255.9761">type(CodeableConcept): Builder</text><ellipse cx="90.5" cy="265.5703" fill="#84BE84" rx="3" ry="3" style="stroke: #038048; stroke-width: 1.0;"/><text fill="#000000" font-family="sans-serif" font-size="11" lengthAdjust="spacingAndGlyphs" textLength="215" x="99.5" y="268.7808">interaction(CodeableConcept): Builder</text><ellipse cx="90.5" cy="278.375" fill="#84BE84" rx="3" ry="3" style="stroke: #038048; stroke-width: 1.0;"/><text fill="#000000" font-family="sans-serif" font-size="11" lengthAdjust="spacingAndGlyphs" textLength="209" x="99.5" y="281.5854">organism(CodeableConcept): Builder</text><ellipse cx="90.5" cy="291.1797" fill="#84BE84" rx="3" ry="3" style="stroke: #038048; stroke-width: 1.0;"/><text fill="#000000" font-family="sans-serif" font-size="11" lengthAdjust="spacingAndGlyphs" textLength="236" x="99.5" y="294.3901">organismType(CodeableConcept): Builder</text><ellipse cx="90.5" cy="303.9844" fill="#84BE84" rx="3" ry="3" style="stroke: #038048; stroke-width: 1.0;"/><text fill="#000000" font-family="sans-serif" font-size="11" lengthAdjust="spacingAndGlyphs" textLength="145" x="99.5" y="307.1948">amount(Element): Builder</text><ellipse cx="90.5" cy="316.7891" fill="#84BE84" rx="3" ry="3" style="stroke: #038048; stroke-width: 1.0;"/><text fill="#000000" font-family="sans-serif" font-size="11" lengthAdjust="spacingAndGlyphs" textLength="225" x="99.5" y="319.9995">amountType(CodeableConcept): Builder</text><ellipse cx="90.5" cy="329.5938" fill="#84BE84" rx="3" ry="3" style="stroke: #038048; stroke-width: 1.0;"/><text fill="#000000" font-family="sans-serif" font-size="11" lengthAdjust="spacingAndGlyphs" textLength="164" x="99.5" y="332.8042">source(Reference...): Builder</text><ellipse cx="90.5" cy="342.3984" fill="#84BE84" rx="3" ry="3" style="stroke: #038048; stroke-width: 1.0;"/><text fill="#000000" font-family="sans-serif" font-size="11" lengthAdjust="spacingAndGlyphs" textLength="225" x="99.5" y="345.6089">source(Collection&lt;Reference&gt;): Builder</text><ellipse cx="90.5" cy="355.2031" fill="#84BE84" rx="3" ry="3" style="stroke: #038048; stroke-width: 1.0;"/><text fill="#000000" font-family="sans-serif" font-size="11" lengthAdjust="spacingAndGlyphs" textLength="80" x="99.5" y="358.4136">build(): Target</text><polygon fill="#FFFF44" points="90.5,363.0078,94.5,367.0078,90.5,371.0078,86.5,367.0078" style="stroke: #B38D22; stroke-width: 1.0;"/><text fill="#000000" font-family="sans-serif" font-size="11" lengthAdjust="spacingAndGlyphs" textLength="120" x="99.5" y="371.2183">from(Target): Builder</text></a><!--MD5=[b7b0ea86c8a299e1957933e33e561193]
class com.ibm.fhir.model.type.BackboneElement.Builder--><a href="../type/BackboneElement.Builder.html" target="_top" title="../type/BackboneElement.Builder.html" xlink:actuate="onRequest" xlink:href="../type/BackboneElement.Builder.html" xlink:show="new" xlink:title="../type/BackboneElement.Builder.html" xlink:type="simple"><rect fill="#FEFECE" filter="url(#f1ntbickpsnnjq)" height="58.7422" id="com.ibm.fhir.model.type.BackboneElement.Builder" style="stroke: #A80036; stroke-width: 1.5;" width="211" x="6" y="8"/><ellipse cx="21" cy="26.9688" fill="#A9DCDF" rx="11" ry="11" style="stroke: #A80036; stroke-width: 1.0;"/><path d="M21.1094,22.3125 L19.9531,27.3906 L22.2813,27.3906 L21.1094,22.3125 Z M19.625,20.0781 L22.6094,20.0781 L25.9688,32.4688 L23.5156,32.4688 L22.75,29.4063 L19.4688,29.4063 L18.7188,32.4688 L16.2813,32.4688 L19.625,20.0781 Z "/><text fill="#000000" font-family="sans-serif" font-size="14" font-style="italic" lengthAdjust="spacingAndGlyphs" textLength="179" x="35" y="25.9951">BackboneElement.Builder</text><text fill="#000000" font-family="sans-serif" font-size="10" font-style="italic" lengthAdjust="spacingAndGlyphs" textLength="119" x="65" y="38.5791">com.ibm.fhir.model.type</text><line style="stroke: #A80036; stroke-width: 1.5;" x1="7" x2="216" y1="45.9375" y2="45.9375"/><ellipse cx="17" cy="56.9375" fill="#84BE84" rx="3" ry="3" style="stroke: #038048; stroke-width: 1.0;"/><text fill="#000000" font-family="sans-serif" font-size="11" font-style="italic" lengthAdjust="spacingAndGlyphs" textLength="144" x="26" y="60.1479">build(): BackboneElement</text></a><!--MD5=[603f1679fbba15b91da2d36be7f52d1c]
class com.ibm.fhir.model.resource.SubstanceReferenceInformation.Target--><a href="SubstanceReferenceInformation.Target.html" target="_top" title="SubstanceReferenceInformation.Target.html" xlink:actuate="onRequest" xlink:href="SubstanceReferenceInformation.Target.html" xlink:show="new" xlink:title="SubstanceReferenceInformation.Target.html" xlink:type="simple"><rect fill="#FEFECE" filter="url(#f1ntbickpsnnjq)" height="37.9375" id="com.ibm.fhir.model.resource.SubstanceReferenceInformation.Target" style="stroke: #A80036; stroke-width: 1.5;" width="304" x="252.5" y="18.5"/><ellipse cx="267.5" cy="37.4688" fill="#ADD1B2" rx="11" ry="11" style="stroke: #A80036; stroke-width: 1.0;"/><path d="M270.4688,43.1094 Q269.8906,43.4063 269.25,43.5469 Q268.6094,43.7031 267.9063,43.7031 Q265.4063,43.7031 264.0781,42.0625 Q262.7656,40.4063 262.7656,37.2813 Q262.7656,34.1563 264.0781,32.5 Q265.4063,30.8438 267.9063,30.8438 Q268.6094,30.8438 269.25,31 Q269.9063,31.1563 270.4688,31.4531 L270.4688,34.1719 Q269.8438,33.5938 269.25,33.3281 Q268.6563,33.0469 268.0313,33.0469 Q266.6875,33.0469 266,34.125 Q265.3125,35.1875 265.3125,37.2813 Q265.3125,39.375 266,40.4531 Q266.6875,41.5156 268.0313,41.5156 Q268.6563,41.5156 269.25,41.25 Q269.8438,40.9688 270.4688,40.3906 L270.4688,43.1094 Z "/><text fill="#000000" font-family="sans-serif" font-size="14" lengthAdjust="spacingAndGlyphs" textLength="272" x="281.5" y="36.4951">SubstanceReferenceInformation.Target</text><text fill="#000000" font-family="sans-serif" font-size="10" lengthAdjust="spacingAndGlyphs" textLength="139" x="348" y="49.0791">com.ibm.fhir.model.resource</text></a><!--MD5=[87f803ec54797a2432eeee98c1548693]
reverse link com.ibm.fhir.model.type.BackboneElement.Builder to com.ibm.fhir.model.resource.SubstanceReferenceInformation.Target.Builder--><path d="M143.2999,84.3286 C152.049,97.2126 161.9721,111.8254 172.2279,126.9281 " fill="none" id="com.ibm.fhir.model.type.BackboneElement.Builder&lt;-com.ibm.fhir.model.resource.SubstanceReferenceInformation.Target.Builder" style="stroke: #A80036; stroke-width: 1.0;"/><polygon fill="none" points="137.2454,87.873,131.8007,67.3948,148.8274,80.008,137.2454,87.873" style="stroke: #A80036; stroke-width: 1.0;"/><!--MD5=[adbae2ae5bd6dcf4465f236fd00c0b42]
reverse link com.ibm.fhir.model.resource.SubstanceReferenceInformation.Target to com.ibm.fhir.model.resource.SubstanceReferenceInformation.Target.Builder--><path d="M382.7623,69.2932 C371.9064,85.1709 357.991,105.5234 343.4043,126.8577 " fill="none" id="com.ibm.fhir.model.resource.SubstanceReferenceInformation.Target&lt;-com.ibm.fhir.model.resource.SubstanceReferenceInformation.Target.Builder" style="stroke: #A80036; stroke-width: 1.0;"/><ellipse cx="386.9394" cy="63.1838" fill="#FFFFFF" rx="8" ry="8" style="stroke: #A80036; stroke-width: 1.0;"/><line style="stroke: #A80036; stroke-width: 1.0;" x1="382.4241" x2="391.4547" y1="69.7877" y2="56.5798"/><line style="stroke: #A80036; stroke-width: 1.0;" x1="380.3355" x2="393.5434" y1="58.6685" y2="67.699"/><text fill="#888888" font-family="sans-serif" font-size="10" lengthAdjust="spacingAndGlyphs" textLength="186" x="194.5" y="397.2822">UMLDoclet 2.0.7, PlantUML 1.2019.12</text><!--MD5=[639ddf69d3109279a4d4d8ae12be6afb]
@startuml
    set namespaceSeparator none
    hide empty fields
    hide empty methods

    class "<size:14>SubstanceReferenceInformation.Target.Builder\n<size:10>com.ibm.fhir.model.resource" as com.ibm.fhir.model.resource.SubstanceReferenceInformation.Target.Builder [[SubstanceReferenceInformation.Target.Builder.html]] {
        +id(String): Builder
        +extension(Extension...): Builder
        +extension(Collection<Extension>): Builder
        +modifierExtension(Extension...): Builder
        +modifierExtension(Collection<Extension>): Builder
        +target(Identifier): Builder
        +type(CodeableConcept): Builder
        +interaction(CodeableConcept): Builder
        +organism(CodeableConcept): Builder
        +organismType(CodeableConcept): Builder
        +amount(Element): Builder
        +amountType(CodeableConcept): Builder
        +source(Reference...): Builder
        +source(Collection<Reference>): Builder
        +build(): Target
        #from(Target): Builder
    }

    abstract class "<size:14>BackboneElement.Builder\n<size:10>com.ibm.fhir.model.type" as com.ibm.fhir.model.type.BackboneElement.Builder [[../type/BackboneElement.Builder.html]] {
        {abstract} +build(): BackboneElement
    }
    class "<size:14>SubstanceReferenceInformation.Target\n<size:10>com.ibm.fhir.model.resource" as com.ibm.fhir.model.resource.SubstanceReferenceInformation.Target [[SubstanceReferenceInformation.Target.html]]

    com.ibm.fhir.model.type.BackboneElement.Builder <|- - com.ibm.fhir.model.resource.SubstanceReferenceInformation.Target.Builder
    com.ibm.fhir.model.resource.SubstanceReferenceInformation.Target +- - com.ibm.fhir.model.resource.SubstanceReferenceInformation.Target.Builder

    center footer UMLDoclet 2.0.7, PlantUML 1.2019.12
@enduml

PlantUML version 1.2019.12(Sun Nov 03 10:24:54 UTC 2019)
(APACHE source distribution)
Java Runtime: OpenJDK Runtime Environment
JVM: OpenJDK 64-Bit Server VM
Java Version: 11.0.7+10
Operating System: Linux
Default Encoding: UTF-8
Language: en
Country: null
--></g></svg>