<?xml version="1.0" encoding="UTF-8" standalone="no"?><svg xmlns="http://www.w3.org/2000/svg" xmlns:xlink="http://www.w3.org/1999/xlink" contentScriptType="application/ecmascript" contentStyleType="text/css" height="563px" preserveAspectRatio="none" style="width:435px;height:563px;" version="1.1" viewBox="0 0 435 563" width="435px" zoomAndPan="magnify"><defs><filter height="300%" id="fhw5ockzdogeb" width="300%" x="-1" y="-1"><feGaussianBlur result="blurOut" stdDeviation="2.0"/><feColorMatrix in="blurOut" result="blurOut2" type="matrix" values="0 0 0 0 0 0 0 0 0 0 0 0 0 0 0 0 0 0 .4 0"/><feOffset dx="4.0" dy="4.0" in="blurOut2" result="blurOut3"/><feBlend in="SourceGraphic" in2="blurOut3" mode="normal"/></filter></defs><g><!--MD5=[73e8f980b8a7e1741f6765d700400a6f]
class com.ibm.fhir.persistence.jdbc.util.JDBCQueryBuilder--><a href="JDBCQueryBuilder.html" target="_top" title="JDBCQueryBuilder.html" xlink:actuate="onRequest" xlink:href="JDBCQueryBuilder.html" xlink:show="new" xlink:title="JDBCQueryBuilder.html" xlink:type="simple"><rect fill="#FEFECE" filter="url(#fhw5ockzdogeb)" height="276.4219" id="com.ibm.fhir.persistence.jdbc.util.JDBCQueryBuilder" style="stroke: #A80036; stroke-width: 1.5;" width="415" x="6" y="255"/><ellipse cx="130.25" cy="273.9688" fill="#ADD1B2" rx="11" ry="11" style="stroke: #A80036; stroke-width: 1.0;"/><path d="M133.2188,279.6094 Q132.6406,279.9063 132,280.0469 Q131.3594,280.2031 130.6563,280.2031 Q128.1563,280.2031 126.8281,278.5625 Q125.5156,276.9063 125.5156,273.7813 Q125.5156,270.6563 126.8281,269 Q128.1563,267.3438 130.6563,267.3438 Q131.3594,267.3438 132,267.5 Q132.6563,267.6563 133.2188,267.9531 L133.2188,270.6719 Q132.5938,270.0938 132,269.8281 Q131.4063,269.5469 130.7813,269.5469 Q129.4375,269.5469 128.75,270.625 Q128.0625,271.6875 128.0625,273.7813 Q128.0625,275.875 128.75,276.9531 Q129.4375,278.0156 130.7813,278.0156 Q131.4063,278.0156 132,277.75 Q132.5938,277.4688 133.2188,276.8906 L133.2188,279.6094 Z "/><text fill="#000000" font-family="sans-serif" font-size="14" lengthAdjust="spacingAndGlyphs" textLength="123" x="168.25" y="272.9951">JDBCQueryBuilder</text><text fill="#000000" font-family="sans-serif" font-size="10" lengthAdjust="spacingAndGlyphs" textLength="158" x="150.75" y="285.5791">com.ibm.fhir.persistence.jdbc.util</text><line style="stroke: #A80036; stroke-width: 1.5;" x1="7" x2="420" y1="292.9375" y2="292.9375"/><ellipse cx="17" cy="303.9375" fill="#84BE84" rx="3" ry="3" style="stroke: #038048; stroke-width: 1.0;"/><text fill="#000000" font-family="sans-serif" font-size="11" lengthAdjust="spacingAndGlyphs" textLength="278" x="26" y="307.1479">JDBCQueryBuilder(ParameterDAO, ResourceDAO)</text><ellipse cx="17" cy="316.7422" fill="#84BE84" rx="3" ry="3" style="stroke: #038048; stroke-width: 1.0;"/><text fill="#000000" font-family="sans-serif" font-size="11" lengthAdjust="spacingAndGlyphs" textLength="359" x="26" y="319.9526">buildCountQuery(Class&lt;?&gt;, FHIRSearchContext): SqlQueryData</text><ellipse cx="17" cy="329.5469" fill="#84BE84" rx="3" ry="3" style="stroke: #038048; stroke-width: 1.0;"/><text fill="#000000" font-family="sans-serif" font-size="11" lengthAdjust="spacingAndGlyphs" textLength="326" x="26" y="332.7573">buildQuery(Class&lt;?&gt;, FHIRSearchContext): SqlQueryData</text><polygon fill="#FFFF44" points="17,337.3516,21,341.3516,17,345.3516,13,341.3516" style="stroke: #B38D22; stroke-width: 1.0;"/><text fill="#000000" font-family="sans-serif" font-size="11" lengthAdjust="spacingAndGlyphs" textLength="213" x="26" y="345.562">getOperator(QueryParameter): String</text><polygon fill="#FFFF44" points="17,350.1563,21,354.1563,17,358.1563,13,354.1563" style="stroke: #B38D22; stroke-width: 1.0;"/><text fill="#000000" font-family="sans-serif" font-size="11" lengthAdjust="spacingAndGlyphs" textLength="255" x="26" y="358.3667">getOperator(QueryParameter, String): String</text><polygon fill="#FFFF44" points="17,362.9609,21,366.9609,17,370.9609,13,366.9609" style="stroke: #B38D22; stroke-width: 1.0;"/><text fill="#000000" font-family="sans-serif" font-size="11" lengthAdjust="spacingAndGlyphs" textLength="385" x="26" y="371.1714">buildQueryParm(Class&lt;?&gt;, QueryParameter, String): SqlQueryData</text><polygon fill="#FFFF44" points="17,375.7656,21,379.7656,17,383.7656,13,379.7656" style="stroke: #B38D22; stroke-width: 1.0;"/><text fill="#000000" font-family="sans-serif" font-size="11" lengthAdjust="spacingAndGlyphs" textLength="298" x="26" y="383.9761">processStringParm(QueryParameter): SqlQueryData</text><polygon fill="#FFFF44" points="17,388.5703,21,392.5703,17,396.5703,13,392.5703" style="stroke: #B38D22; stroke-width: 1.0;"/><text fill="#000000" font-family="sans-serif" font-size="11" lengthAdjust="spacingAndGlyphs" textLength="385" x="26" y="396.7808">processReferenceParm(Class&lt;?&gt;, QueryParameter): SqlQueryData</text><polygon fill="#FFFF44" points="17,401.375,21,405.375,17,409.375,13,405.375" style="stroke: #B38D22; stroke-width: 1.0;"/><text fill="#000000" font-family="sans-serif" font-size="11" lengthAdjust="spacingAndGlyphs" textLength="367" x="26" y="409.5854">processChainedReferenceParm(QueryParameter): SqlQueryData</text><polygon fill="#FFFF44" points="17,414.1797,21,418.1797,17,422.1797,13,418.1797" style="stroke: #B38D22; stroke-width: 1.0;"/><text fill="#000000" font-family="sans-serif" font-size="11" lengthAdjust="spacingAndGlyphs" textLength="326" x="26" y="422.3901">processInclusionCriteria(QueryParameter): SqlQueryData</text><polygon fill="#FFFF44" points="17,426.9844,21,430.9844,17,434.9844,13,430.9844" style="stroke: #B38D22; stroke-width: 1.0;"/><text fill="#000000" font-family="sans-serif" font-size="11" lengthAdjust="spacingAndGlyphs" textLength="354" x="26" y="435.1948">processDateParm(Class&lt;?&gt;, QueryParameter): SqlQueryData</text><polygon fill="#FFFF44" points="17,439.7891,21,443.7891,17,447.7891,13,443.7891" style="stroke: #B38D22; stroke-width: 1.0;"/><text fill="#000000" font-family="sans-serif" font-size="11" lengthAdjust="spacingAndGlyphs" textLength="298" x="26" y="447.9995">processTokenParm(QueryParameter): SqlQueryData</text><polygon fill="#FFFF44" points="17,452.5938,21,456.5938,17,460.5938,13,456.5938" style="stroke: #B38D22; stroke-width: 1.0;"/><text fill="#000000" font-family="sans-serif" font-size="11" lengthAdjust="spacingAndGlyphs" textLength="373" x="26" y="460.8042">processNumberParm(Class&lt;?&gt;, QueryParameter): SqlQueryData</text><polygon fill="#FFFF44" points="17,465.3984,21,469.3984,17,473.3984,13,469.3984" style="stroke: #B38D22; stroke-width: 1.0;"/><text fill="#000000" font-family="sans-serif" font-size="11" lengthAdjust="spacingAndGlyphs" textLength="375" x="26" y="473.6089">processQuantityParm(Class&lt;?&gt;, QueryParameter): SqlQueryData</text><polygon fill="#FFFF44" points="17,478.2031,21,482.2031,17,486.2031,13,482.2031" style="stroke: #B38D22; stroke-width: 1.0;"/><text fill="#000000" font-family="sans-serif" font-size="11" lengthAdjust="spacingAndGlyphs" textLength="280" x="26" y="486.4136">processUriParm(QueryParameter): SqlQueryData</text><polygon fill="#FFFF44" points="17,491.0078,21,495.0078,17,499.0078,13,495.0078" style="stroke: #B38D22; stroke-width: 1.0;"/><text fill="#000000" font-family="sans-serif" font-size="11" lengthAdjust="spacingAndGlyphs" textLength="322" x="26" y="499.2183">processUriParm(QueryParameter, String): SqlQueryData</text><polygon fill="#FFFF44" points="17,503.8125,21,507.8125,17,511.8125,13,507.8125" style="stroke: #B38D22; stroke-width: 1.0;"/><text fill="#000000" font-family="sans-serif" font-size="11" lengthAdjust="spacingAndGlyphs" textLength="389" x="26" y="512.0229">processCompositeParm(Class&lt;?&gt;, QueryParameter): SqlQueryData</text><polygon fill="#FFFF44" points="17,516.6172,21,520.6172,17,524.6172,13,520.6172" style="stroke: #B38D22; stroke-width: 1.0;"/><text fill="#000000" font-family="sans-serif" font-size="11" lengthAdjust="spacingAndGlyphs" textLength="386" x="26" y="524.8276">buildLocationQuerySegment(String, List&lt;Bounding&gt;): SqlQueryData</text></a><!--MD5=[16aa526101903a77d165c49712772471]
class com.ibm.fhir.persistence.util.AbstractQueryBuilder--><a href="../../util/AbstractQueryBuilder.html" target="_top" title="../../util/AbstractQueryBuilder.html" xlink:actuate="onRequest" xlink:href="../../util/AbstractQueryBuilder.html" xlink:show="new" xlink:title="../../util/AbstractQueryBuilder.html" xlink:type="simple"><rect fill="#FEFECE" filter="url(#fhw5ockzdogeb)" height="186.7891" id="com.ibm.fhir.persistence.util.AbstractQueryBuilder" style="stroke: #A80036; stroke-width: 1.5;" width="415" x="6" y="8"/><ellipse cx="91.75" cy="26.9688" fill="#A9DCDF" rx="11" ry="11" style="stroke: #A80036; stroke-width: 1.0;"/><path d="M91.8594,22.3125 L90.7031,27.3906 L93.0313,27.3906 L91.8594,22.3125 Z M90.375,20.0781 L93.3594,20.0781 L96.7188,32.4688 L94.2656,32.4688 L93.5,29.4063 L90.2188,29.4063 L89.4688,32.4688 L87.0313,32.4688 L90.375,20.0781 Z "/><text fill="#000000" font-family="sans-serif" font-size="14" font-style="italic" lengthAdjust="spacingAndGlyphs" textLength="146" x="112.25" y="25.9951">AbstractQueryBuilder</text><text fill="#000000" font-family="sans-serif" font-size="10" font-style="italic" lengthAdjust="spacingAndGlyphs" textLength="136" x="117.25" y="38.5791">com.ibm.fhir.persistence.util</text><rect fill="#FFFFFF" height="15.9688" style="stroke: #000000; stroke-width: 1.0; stroke-dasharray: 2.0,2.0;" width="87" x="337" y="5"/><text fill="#000000" font-family="sans-serif" font-size="12" font-style="italic" lengthAdjust="spacingAndGlyphs" textLength="85" x="338" y="17.1387">SqlQueryData</text><line style="stroke: #A80036; stroke-width: 1.5;" x1="7" x2="420" y1="45.9375" y2="45.9375"/><polygon fill="#FFFF44" points="17,51.9375,21,55.9375,17,59.9375,13,55.9375" style="stroke: #B38D22; stroke-width: 1.0;"/><text fill="#000000" font-family="sans-serif" font-size="11" font-style="italic" lengthAdjust="spacingAndGlyphs" textLength="298" x="26" y="60.1479">processStringParm(QueryParameter): SqlQueryData</text><polygon fill="#FFFF44" points="17,64.7422,21,68.7422,17,72.7422,13,68.7422" style="stroke: #B38D22; stroke-width: 1.0;"/><text fill="#000000" font-family="sans-serif" font-size="11" font-style="italic" lengthAdjust="spacingAndGlyphs" textLength="385" x="26" y="72.9526">processReferenceParm(Class&lt;?&gt;, QueryParameter): SqlQueryData</text><polygon fill="#FFFF44" points="17,77.5469,21,81.5469,17,85.5469,13,81.5469" style="stroke: #B38D22; stroke-width: 1.0;"/><text fill="#000000" font-family="sans-serif" font-size="11" font-style="italic" lengthAdjust="spacingAndGlyphs" textLength="367" x="26" y="85.7573">processChainedReferenceParm(QueryParameter): SqlQueryData</text><polygon fill="#FFFF44" points="17,90.3516,21,94.3516,17,98.3516,13,94.3516" style="stroke: #B38D22; stroke-width: 1.0;"/><text fill="#000000" font-family="sans-serif" font-size="11" font-style="italic" lengthAdjust="spacingAndGlyphs" textLength="326" x="26" y="98.562">processInclusionCriteria(QueryParameter): SqlQueryData</text><polygon fill="#FFFF44" points="17,103.1563,21,107.1563,17,111.1563,13,107.1563" style="stroke: #B38D22; stroke-width: 1.0;"/><text fill="#000000" font-family="sans-serif" font-size="11" font-style="italic" lengthAdjust="spacingAndGlyphs" textLength="354" x="26" y="111.3667">processDateParm(Class&lt;?&gt;, QueryParameter): SqlQueryData</text><polygon fill="#FFFF44" points="17,115.9609,21,119.9609,17,123.9609,13,119.9609" style="stroke: #B38D22; stroke-width: 1.0;"/><text fill="#000000" font-family="sans-serif" font-size="11" font-style="italic" lengthAdjust="spacingAndGlyphs" textLength="298" x="26" y="124.1714">processTokenParm(QueryParameter): SqlQueryData</text><polygon fill="#FFFF44" points="17,128.7656,21,132.7656,17,136.7656,13,132.7656" style="stroke: #B38D22; stroke-width: 1.0;"/><text fill="#000000" font-family="sans-serif" font-size="11" font-style="italic" lengthAdjust="spacingAndGlyphs" textLength="373" x="26" y="136.9761">processNumberParm(Class&lt;?&gt;, QueryParameter): SqlQueryData</text><polygon fill="#FFFF44" points="17,141.5703,21,145.5703,17,149.5703,13,145.5703" style="stroke: #B38D22; stroke-width: 1.0;"/><text fill="#000000" font-family="sans-serif" font-size="11" font-style="italic" lengthAdjust="spacingAndGlyphs" textLength="375" x="26" y="149.7808">processQuantityParm(Class&lt;?&gt;, QueryParameter): SqlQueryData</text><polygon fill="#FFFF44" points="17,154.375,21,158.375,17,162.375,13,158.375" style="stroke: #B38D22; stroke-width: 1.0;"/><text fill="#000000" font-family="sans-serif" font-size="11" font-style="italic" lengthAdjust="spacingAndGlyphs" textLength="280" x="26" y="162.5854">processUriParm(QueryParameter): SqlQueryData</text><polygon fill="#FFFF44" points="17,167.1797,21,171.1797,17,175.1797,13,171.1797" style="stroke: #B38D22; stroke-width: 1.0;"/><text fill="#000000" font-family="sans-serif" font-size="11" font-style="italic" lengthAdjust="spacingAndGlyphs" textLength="389" x="26" y="175.3901">processCompositeParm(Class&lt;?&gt;, QueryParameter): SqlQueryData</text><polygon fill="#FFFF44" points="17,179.9844,21,183.9844,17,187.9844,13,183.9844" style="stroke: #B38D22; stroke-width: 1.0;"/><text fill="#000000" font-family="sans-serif" font-size="11" font-style="italic" lengthAdjust="spacingAndGlyphs" textLength="386" x="26" y="188.1948">buildLocationQuerySegment(String, List&lt;Bounding&gt;): SqlQueryData</text></a><!--MD5=[4ea0da56f4a50fdc7e13b15c6656cfe6]
reverse link com.ibm.fhir.persistence.util.AbstractQueryBuilder to com.ibm.fhir.persistence.jdbc.util.JDBCQueryBuilder--><path d="M213.5,215.7818 C213.5,228.577 213.5,241.7119 213.5,254.7663 " fill="none" id="com.ibm.fhir.persistence.util.AbstractQueryBuilder&lt;-com.ibm.fhir.persistence.jdbc.util.JDBCQueryBuilder" style="stroke: #A80036; stroke-width: 1.0;"/><polygon fill="none" points="206.5001,215.337,213.5,195.337,220.5001,215.3369,206.5001,215.337" style="stroke: #A80036; stroke-width: 1.0;"/><text fill="#888888" font-family="sans-serif" font-size="10" lengthAdjust="spacingAndGlyphs" textLength="186" x="126.5" y="550.2822">UMLDoclet 2.0.7, PlantUML 1.2019.12</text><!--MD5=[1ba64ee57579f35b6fad18c0235a1609]
@startuml
    set namespaceSeparator none
    hide empty fields
    hide empty methods

    class "<size:14>JDBCQueryBuilder\n<size:10>com.ibm.fhir.persistence.jdbc.util" as com.ibm.fhir.persistence.jdbc.util.JDBCQueryBuilder [[JDBCQueryBuilder.html]] {
        +JDBCQueryBuilder(ParameterDAO, ResourceDAO)
        +buildCountQuery(Class<?>, FHIRSearchContext): SqlQueryData
        +buildQuery(Class<?>, FHIRSearchContext): SqlQueryData
        #getOperator(QueryParameter): String
        #getOperator(QueryParameter, String): String
        #buildQueryParm(Class<?>, QueryParameter, String): SqlQueryData
        #processStringParm(QueryParameter): SqlQueryData
        #processReferenceParm(Class<?>, QueryParameter): SqlQueryData
        #processChainedReferenceParm(QueryParameter): SqlQueryData
        #processInclusionCriteria(QueryParameter): SqlQueryData
        #processDateParm(Class<?>, QueryParameter): SqlQueryData
        #processTokenParm(QueryParameter): SqlQueryData
        #processNumberParm(Class<?>, QueryParameter): SqlQueryData
        #processQuantityParm(Class<?>, QueryParameter): SqlQueryData
        #processUriParm(QueryParameter): SqlQueryData
        #processUriParm(QueryParameter, String): SqlQueryData
        #processCompositeParm(Class<?>, QueryParameter): SqlQueryData
        #buildLocationQuerySegment(String, List<Bounding>): SqlQueryData
    }

    abstract class "<size:14>AbstractQueryBuilder\n<size:10>com.ibm.fhir.persistence.util" as com.ibm.fhir.persistence.util.AbstractQueryBuilder<SqlQueryData> [[../../util/AbstractQueryBuilder.html]] {
        {abstract} #processStringParm(QueryParameter): SqlQueryData
        {abstract} #processReferenceParm(Class<?>, QueryParameter): SqlQueryData
        {abstract} #processChainedReferenceParm(QueryParameter): SqlQueryData
        {abstract} #processInclusionCriteria(QueryParameter): SqlQueryData
        {abstract} #processDateParm(Class<?>, QueryParameter): SqlQueryData
        {abstract} #processTokenParm(QueryParameter): SqlQueryData
        {abstract} #processNumberParm(Class<?>, QueryParameter): SqlQueryData
        {abstract} #processQuantityParm(Class<?>, QueryParameter): SqlQueryData
        {abstract} #processUriParm(QueryParameter): SqlQueryData
        {abstract} #processCompositeParm(Class<?>, QueryParameter): SqlQueryData
        {abstract} #buildLocationQuerySegment(String, List<Bounding>): SqlQueryData
    }

    com.ibm.fhir.persistence.util.AbstractQueryBuilder <|- - com.ibm.fhir.persistence.jdbc.util.JDBCQueryBuilder

    center footer UMLDoclet 2.0.7, PlantUML 1.2019.12
@enduml

PlantUML version 1.2019.12(Sun Nov 03 10:24:54 UTC 2019)
(APACHE source distribution)
Java Runtime: OpenJDK Runtime Environment
JVM: OpenJDK 64-Bit Server VM
Java Version: 11.0.6+10
Operating System: Linux
Default Encoding: UTF-8
Language: en
Country: null
--></g></svg>