<?xml version="1.0" encoding="UTF-8" standalone="no"?><svg xmlns="http://www.w3.org/2000/svg" xmlns:xlink="http://www.w3.org/1999/xlink" contentScriptType="application/ecmascript" contentStyleType="text/css" height="421px" preserveAspectRatio="none" style="width:541px;height:421px;" version="1.1" viewBox="0 0 541 421" width="541px" zoomAndPan="magnify"><defs><filter height="300%" id="f1x1kgdp2w9ey1" width="300%" x="-1" y="-1"><feGaussianBlur result="blurOut" stdDeviation="2.0"/><feColorMatrix in="blurOut" result="blurOut2" type="matrix" values="0 0 0 0 0 0 0 0 0 0 0 0 0 0 0 0 0 0 .4 0"/><feOffset dx="4.0" dy="4.0" in="blurOut2" result="blurOut3"/><feBlend in="SourceGraphic" in2="blurOut3" mode="normal"/></filter></defs><g><!--class com.ibm.fhir.model.type.code.ActivityParticipantType--><a href="ActivityParticipantType.html" target="_top" xlink:actuate="onRequest" xlink:show="new" xlink:title="ActivityParticipantType.html" xlink:type="simple"><rect fill="#FEFECE" filter="url(#f1x1kgdp2w9ey1)" height="183.8164" id="com.ibm.fhir.model.type.code.ActivityParticipantType" style="stroke: #A80036; stroke-width: 1.5;" width="251" x="140" y="106"/><ellipse cx="183.8" cy="125.1328" fill="#ADD1B2" rx="11" ry="11" style="stroke: #A80036; stroke-width: 1.0;"/><path d="M186.2731,131.2759 Q185.6921,131.5747 185.0529,131.7241 Q184.4138,131.8735 183.7082,131.8735 Q181.2014,131.8735 179.8815,130.2217 Q178.5617,128.5698 178.5617,125.4487 Q178.5617,122.3193 179.8815,120.6675 Q181.2014,119.0156 183.7082,119.0156 Q184.4138,119.0156 185.0612,119.165 Q185.7087,119.3145 186.2731,119.6133 L186.2731,122.3359 Q185.6423,121.7549 185.0488,121.4851 Q184.4553,121.2153 183.8244,121.2153 Q182.4797,121.2153 181.7949,122.282 Q181.1101,123.3486 181.1101,125.4487 Q181.1101,127.5405 181.7949,128.6072 Q182.4797,129.6738 183.8244,129.6738 Q184.4553,129.6738 185.0488,129.4041 Q185.6423,129.1343 186.2731,128.5532 Z "/><text fill="#000000" font-family="sans-serif" font-size="14" lengthAdjust="spacingAndGlyphs" textLength="155" x="204.2" y="124.5352">ActivityParticipantType</text><text fill="#000000" font-family="sans-serif" font-size="10" lengthAdjust="spacingAndGlyphs" textLength="144" x="209.7" y="137.1563">com.ibm.fhir.model.type.code</text><line style="stroke: #A80036; stroke-width: 1.5;" x1="141" x2="390" y1="144.2656" y2="144.2656"/><ellipse cx="151" cy="156.2432" fill="none" rx="3" ry="3" style="stroke: #038048; stroke-width: 1.0;"/><text fill="#000000" font-family="sans-serif" font-size="11" lengthAdjust="spacingAndGlyphs" text-decoration="underline" textLength="174" x="160" y="158.9004">PATIENT: ActivityParticipantType</text><ellipse cx="151" cy="169.1982" fill="none" rx="3" ry="3" style="stroke: #038048; stroke-width: 1.0;"/><text fill="#000000" font-family="sans-serif" font-size="11" lengthAdjust="spacingAndGlyphs" text-decoration="underline" textLength="208" x="160" y="171.8555">PRACTITIONER: ActivityParticipantType</text><ellipse cx="151" cy="182.1533" fill="none" rx="3" ry="3" style="stroke: #038048; stroke-width: 1.0;"/><text fill="#000000" font-family="sans-serif" font-size="11" lengthAdjust="spacingAndGlyphs" text-decoration="underline" textLength="225" x="160" y="184.8105">RELATED_PERSON: ActivityParticipantType</text><ellipse cx="151" cy="195.1084" fill="none" rx="3" ry="3" style="stroke: #038048; stroke-width: 1.0;"/><text fill="#000000" font-family="sans-serif" font-size="11" lengthAdjust="spacingAndGlyphs" text-decoration="underline" textLength="167" x="160" y="197.7656">DEVICE: ActivityParticipantType</text><line style="stroke: #A80036; stroke-width: 1.5;" x1="141" x2="390" y1="204.0859" y2="204.0859"/><ellipse cx="151" cy="216.0635" fill="#84BE84" rx="3" ry="3" style="stroke: #038048; stroke-width: 1.0;"/><text fill="#000000" font-family="sans-serif" font-size="11" lengthAdjust="spacingAndGlyphs" text-decoration="underline" textLength="180" x="160" y="218.7207">of(String): ActivityParticipantType</text><ellipse cx="151" cy="229.0186" fill="#84BE84" rx="3" ry="3" style="stroke: #038048; stroke-width: 1.0;"/><text fill="#000000" font-family="sans-serif" font-size="11" lengthAdjust="spacingAndGlyphs" text-decoration="underline" textLength="193" x="160" y="231.6758">of(ValueSet): ActivityParticipantType</text><ellipse cx="151" cy="241.9736" fill="#84BE84" rx="3" ry="3" style="stroke: #038048; stroke-width: 1.0;"/><text fill="#000000" font-family="sans-serif" font-size="11" lengthAdjust="spacingAndGlyphs" text-decoration="underline" textLength="110" x="160" y="244.6309">string(String): String</text><ellipse cx="151" cy="254.9287" fill="#84BE84" rx="3" ry="3" style="stroke: #038048; stroke-width: 1.0;"/><text fill="#000000" font-family="sans-serif" font-size="11" lengthAdjust="spacingAndGlyphs" text-decoration="underline" textLength="100" x="160" y="257.5859">code(String): Code</text><ellipse cx="151" cy="267.8838" fill="#84BE84" rx="3" ry="3" style="stroke: #038048; stroke-width: 1.0;"/><text fill="#000000" font-family="sans-serif" font-size="11" lengthAdjust="spacingAndGlyphs" textLength="99" x="160" y="270.541">toBuilder(): Builder</text><ellipse cx="151" cy="280.8389" fill="#84BE84" rx="3" ry="3" style="stroke: #038048; stroke-width: 1.0;"/><text fill="#000000" font-family="sans-serif" font-size="11" lengthAdjust="spacingAndGlyphs" text-decoration="underline" textLength="89" x="160" y="283.4961">builder(): Builder</text></a><!--class com.ibm.fhir.model.type.Code--><a href="../Code.html" target="_top" xlink:actuate="onRequest" xlink:show="new" xlink:title="../Code.html" xlink:type="simple"><rect fill="#FEFECE" filter="url(#f1x1kgdp2w9ey1)" height="38.2656" id="com.ibm.fhir.model.type.Code" style="stroke: #A80036; stroke-width: 1.5;" width="150" x="190.5" y="8"/><ellipse cx="205.5" cy="27.1328" fill="#ADD1B2" rx="11" ry="11" style="stroke: #A80036; stroke-width: 1.0;"/><path d="M207.9731,33.2759 Q207.3921,33.5747 206.7529,33.7241 Q206.1138,33.8735 205.4082,33.8735 Q202.9014,33.8735 201.5815,32.2217 Q200.2617,30.5698 200.2617,27.4487 Q200.2617,24.3193 201.5815,22.6675 Q202.9014,21.0156 205.4082,21.0156 Q206.1138,21.0156 206.7612,21.165 Q207.4087,21.3145 207.9731,21.6133 L207.9731,24.3359 Q207.3423,23.7549 206.7488,23.4851 Q206.1553,23.2153 205.5244,23.2153 Q204.1797,23.2153 203.4949,24.282 Q202.8101,25.3486 202.8101,27.4487 Q202.8101,29.5405 203.4949,30.6072 Q204.1797,31.6738 205.5244,31.6738 Q206.1553,31.6738 206.7488,31.4041 Q207.3423,31.1343 207.9731,30.5532 Z "/><text fill="#000000" font-family="sans-serif" font-size="14" lengthAdjust="spacingAndGlyphs" textLength="36" x="260.5" y="26.5352">Code</text><text fill="#000000" font-family="sans-serif" font-size="10" lengthAdjust="spacingAndGlyphs" textLength="118" x="219.5" y="39.1563">com.ibm.fhir.model.type</text></a><!--class com.ibm.fhir.model.type.code.ActivityParticipantType.Builder--><a href="ActivityParticipantType.Builder.html" target="_top" xlink:actuate="onRequest" xlink:show="new" xlink:title="ActivityParticipantType.Builder.html" xlink:type="simple"><rect fill="#FEFECE" filter="url(#f1x1kgdp2w9ey1)" height="38.2656" id="com.ibm.fhir.model.type.code.ActivityParticipantType.Builder" style="stroke: #A80036; stroke-width: 1.5;" width="239" x="6" y="350"/><ellipse cx="21" cy="369.1328" fill="#ADD1B2" rx="11" ry="11" style="stroke: #A80036; stroke-width: 1.0;"/><path d="M23.4731,375.2759 Q22.8921,375.5747 22.2529,375.7241 Q21.6138,375.8735 20.9082,375.8735 Q18.4014,375.8735 17.0815,374.2217 Q15.7617,372.5698 15.7617,369.4487 Q15.7617,366.3193 17.0815,364.6675 Q18.4014,363.0156 20.9082,363.0156 Q21.6138,363.0156 22.2612,363.165 Q22.9087,363.3145 23.4731,363.6133 L23.4731,366.3359 Q22.8423,365.7549 22.2488,365.4851 Q21.6553,365.2153 21.0244,365.2153 Q19.6797,365.2153 18.9949,366.282 Q18.3101,367.3486 18.3101,369.4487 Q18.3101,371.5405 18.9949,372.6072 Q19.6797,373.6738 21.0244,373.6738 Q21.6553,373.6738 22.2488,373.4041 Q22.8423,373.1343 23.4731,372.5532 Z "/><text fill="#000000" font-family="sans-serif" font-size="14" lengthAdjust="spacingAndGlyphs" textLength="207" x="35" y="368.5352">ActivityParticipantType.Builder</text><text fill="#000000" font-family="sans-serif" font-size="10" lengthAdjust="spacingAndGlyphs" textLength="144" x="66.5" y="381.1563">com.ibm.fhir.model.type.code</text></a><!--class com.ibm.fhir.model.type.code.ActivityParticipantType.ValueSet--><a href="ActivityParticipantType.ValueSet.html" target="_top" xlink:actuate="onRequest" xlink:show="new" xlink:title="ActivityParticipantType.ValueSet.html" xlink:type="simple"><rect fill="#FEFECE" filter="url(#f1x1kgdp2w9ey1)" height="38.2656" id="com.ibm.fhir.model.type.code.ActivityParticipantType.ValueSet" style="stroke: #A80036; stroke-width: 1.5;" width="250" x="280.5" y="350"/><ellipse cx="295.5" cy="369.1328" fill="#EB937F" rx="11" ry="11" style="stroke: #A80036; stroke-width: 1.0;"/><path d="M299.1143,375.6328 L291.3945,375.6328 L291.3945,363.2397 L299.1143,363.2397 L299.1143,365.3979 L293.8433,365.3979 L293.8433,368.0708 L298.6162,368.0708 L298.6162,370.229 L293.8433,370.229 L293.8433,373.4746 L299.1143,373.4746 Z "/><text fill="#000000" font-family="sans-serif" font-size="14" lengthAdjust="spacingAndGlyphs" textLength="218" x="309.5" y="368.5352">ActivityParticipantType.ValueSet</text><text fill="#000000" font-family="sans-serif" font-size="10" lengthAdjust="spacingAndGlyphs" textLength="144" x="346.5" y="381.1563">com.ibm.fhir.model.type.code</text></a><!--link com.ibm.fhir.model.type.Code to com.ibm.fhir.model.type.code.ActivityParticipantType--><path d="M265.5,66.5906 C265.5,78.413 265.5,91.9001 265.5,105.625 " fill="none" id="com.ibm.fhir.model.type.Code-com.ibm.fhir.model.type.code.ActivityParticipantType" style="stroke: #A80036; stroke-width: 1.0;"/><polygon fill="none" points="258.5001,66.2835,265.5,46.2835,272.5001,66.2834,258.5001,66.2835" style="stroke: #A80036; stroke-width: 1.0;"/><!--link com.ibm.fhir.model.type.code.ActivityParticipantType to com.ibm.fhir.model.type.code.ActivityParticipantType.Builder--><path d="M180.6335,301.6584 C165.4722,320.1768 151.2863,337.5038 141.1016,349.9437 " fill="none" id="com.ibm.fhir.model.type.code.ActivityParticipantType-com.ibm.fhir.model.type.code.ActivityParticipantType.Builder" style="stroke: #A80036; stroke-width: 1.0;"/><ellipse cx="185.1047" cy="296.1971" fill="#FFFFFF" rx="8" ry="8" style="stroke: #A80036; stroke-width: 1.0;"/><line style="stroke: #A80036; stroke-width: 1.0;" x1="180.0368" x2="190.1726" y1="302.3871" y2="290.0071"/><line style="stroke: #A80036; stroke-width: 1.0;" x1="178.9147" x2="191.2947" y1="291.1292" y2="301.265"/><!--link com.ibm.fhir.model.type.code.ActivityParticipantType to com.ibm.fhir.model.type.code.ActivityParticipantType.ValueSet--><path d="M350.3665,301.6584 C365.5278,320.1768 379.7137,337.5038 389.8984,349.9437 " fill="none" id="com.ibm.fhir.model.type.code.ActivityParticipantType-com.ibm.fhir.model.type.code.ActivityParticipantType.ValueSet" style="stroke: #A80036; stroke-width: 1.0;"/><ellipse cx="345.8953" cy="296.1971" fill="#FFFFFF" rx="8" ry="8" style="stroke: #A80036; stroke-width: 1.0;"/><line style="stroke: #A80036; stroke-width: 1.0;" x1="350.9632" x2="340.8274" y1="302.3871" y2="290.0071"/><line style="stroke: #A80036; stroke-width: 1.0;" x1="339.7053" x2="352.0853" y1="301.265" y2="291.1292"/><text fill="#888888" font-family="sans-serif" font-size="10" lengthAdjust="spacingAndGlyphs" textLength="182" x="183.5" y="407.668">UMLDoclet 2.0.5, PlantUML 1.2019.08</text><!--
@startuml
    set namespaceSeparator none
    hide empty fields
    hide empty methods

    class "<size:14>ActivityParticipantType\n<size:10>com.ibm.fhir.model.type.code" as com.ibm.fhir.model.type.code.ActivityParticipantType [[ActivityParticipantType.html]] {
        {static} +PATIENT: ActivityParticipantType
        {static} +PRACTITIONER: ActivityParticipantType
        {static} +RELATED_PERSON: ActivityParticipantType
        {static} +DEVICE: ActivityParticipantType
        {static} +of(String): ActivityParticipantType
        {static} +of(ValueSet): ActivityParticipantType
        {static} +string(String): String
        {static} +code(String): Code
        +toBuilder(): Builder
        {static} +builder(): Builder
    }

    class "<size:14>Code\n<size:10>com.ibm.fhir.model.type" as com.ibm.fhir.model.type.Code [[../Code.html]]
    class "<size:14>ActivityParticipantType.Builder\n<size:10>com.ibm.fhir.model.type.code" as com.ibm.fhir.model.type.code.ActivityParticipantType.Builder [[ActivityParticipantType.Builder.html]]
    enum "<size:14>ActivityParticipantType.ValueSet\n<size:10>com.ibm.fhir.model.type.code" as com.ibm.fhir.model.type.code.ActivityParticipantType.ValueSet [[ActivityParticipantType.ValueSet.html]]

    com.ibm.fhir.model.type.Code <|- - com.ibm.fhir.model.type.code.ActivityParticipantType
    com.ibm.fhir.model.type.code.ActivityParticipantType +- - com.ibm.fhir.model.type.code.ActivityParticipantType.Builder
    com.ibm.fhir.model.type.code.ActivityParticipantType +- - com.ibm.fhir.model.type.code.ActivityParticipantType.ValueSet

    center footer UMLDoclet 2.0.5, PlantUML 1.2019.08
@enduml

PlantUML version 1.2019.08(Sat Jul 13 15:25:14 EDT 2019)
(APACHE source distribution)
Java Runtime: OpenJDK Runtime Environment
JVM: OpenJDK 64-Bit Server VM
Java Version: 11.0.4+11
Operating System: Mac OS X
OS Version: 10.14.6
Default Encoding: UTF-8
Language: en
Country: US
--></g></svg>