<?xml version="1.0" encoding="UTF-8" standalone="no"?><svg xmlns="http://www.w3.org/2000/svg" xmlns:xlink="http://www.w3.org/1999/xlink" contentScriptType="application/ecmascript" contentStyleType="text/css" height="395px" preserveAspectRatio="none" style="width:551px;height:395px;" version="1.1" viewBox="0 0 551 395" width="551px" zoomAndPan="magnify"><defs><filter height="300%" id="f1845lkbuhz52p" width="300%" x="-1" y="-1"><feGaussianBlur result="blurOut" stdDeviation="2.0"/><feColorMatrix in="blurOut" result="blurOut2" type="matrix" values="0 0 0 0 0 0 0 0 0 0 0 0 0 0 0 0 0 0 .4 0"/><feOffset dx="4.0" dy="4.0" in="blurOut2" result="blurOut3"/><feBlend in="SourceGraphic" in2="blurOut3" mode="normal"/></filter></defs><g><!--class com.ibm.fhir.model.type.code.AssertionDirectionType--><a href="AssertionDirectionType.html" target="_top" xlink:actuate="onRequest" xlink:show="new" xlink:title="AssertionDirectionType.html" xlink:type="simple"><rect fill="#FEFECE" filter="url(#f1845lkbuhz52p)" height="157.9063" id="com.ibm.fhir.model.type.code.AssertionDirectionType" style="stroke: #A80036; stroke-width: 1.5;" width="223" x="158.5" y="106"/><ellipse cx="187.45" cy="125.1328" fill="#ADD1B2" rx="11" ry="11" style="stroke: #A80036; stroke-width: 1.0;"/><path d="M189.9231,131.2759 Q189.3421,131.5747 188.7029,131.7241 Q188.0638,131.8735 187.3582,131.8735 Q184.8514,131.8735 183.5315,130.2217 Q182.2117,128.5698 182.2117,125.4487 Q182.2117,122.3193 183.5315,120.6675 Q184.8514,119.0156 187.3582,119.0156 Q188.0638,119.0156 188.7112,119.165 Q189.3587,119.3145 189.9231,119.6133 L189.9231,122.3359 Q189.2923,121.7549 188.6988,121.4851 Q188.1053,121.2153 187.4744,121.2153 Q186.1297,121.2153 185.4449,122.282 Q184.7601,123.3486 184.7601,125.4487 Q184.7601,127.5405 185.4449,128.6072 Q186.1297,129.6738 187.4744,129.6738 Q188.1053,129.6738 188.6988,129.4041 Q189.2923,129.1343 189.9231,128.5532 Z "/><text fill="#000000" font-family="sans-serif" font-size="14" lengthAdjust="spacingAndGlyphs" textLength="160" x="204.55" y="124.5352">AssertionDirectionType</text><text fill="#000000" font-family="sans-serif" font-size="10" lengthAdjust="spacingAndGlyphs" textLength="144" x="212.55" y="137.1563">com.ibm.fhir.model.type.code</text><line style="stroke: #A80036; stroke-width: 1.5;" x1="159.5" x2="380.5" y1="144.2656" y2="144.2656"/><ellipse cx="169.5" cy="156.2432" fill="none" rx="3" ry="3" style="stroke: #038048; stroke-width: 1.0;"/><text fill="#000000" font-family="sans-serif" font-size="11" lengthAdjust="spacingAndGlyphs" text-decoration="underline" textLength="187" x="178.5" y="158.9004">RESPONSE: AssertionDirectionType</text><ellipse cx="169.5" cy="169.1982" fill="none" rx="3" ry="3" style="stroke: #038048; stroke-width: 1.0;"/><text fill="#000000" font-family="sans-serif" font-size="11" lengthAdjust="spacingAndGlyphs" text-decoration="underline" textLength="182" x="178.5" y="171.8555">REQUEST: AssertionDirectionType</text><line style="stroke: #A80036; stroke-width: 1.5;" x1="159.5" x2="380.5" y1="178.1758" y2="178.1758"/><ellipse cx="169.5" cy="190.1533" fill="#84BE84" rx="3" ry="3" style="stroke: #038048; stroke-width: 1.0;"/><text fill="#000000" font-family="sans-serif" font-size="11" lengthAdjust="spacingAndGlyphs" text-decoration="underline" textLength="184" x="178.5" y="192.8105">of(String): AssertionDirectionType</text><ellipse cx="169.5" cy="203.1084" fill="#84BE84" rx="3" ry="3" style="stroke: #038048; stroke-width: 1.0;"/><text fill="#000000" font-family="sans-serif" font-size="11" lengthAdjust="spacingAndGlyphs" text-decoration="underline" textLength="197" x="178.5" y="205.7656">of(ValueSet): AssertionDirectionType</text><ellipse cx="169.5" cy="216.0635" fill="#84BE84" rx="3" ry="3" style="stroke: #038048; stroke-width: 1.0;"/><text fill="#000000" font-family="sans-serif" font-size="11" lengthAdjust="spacingAndGlyphs" text-decoration="underline" textLength="110" x="178.5" y="218.7207">string(String): String</text><ellipse cx="169.5" cy="229.0186" fill="#84BE84" rx="3" ry="3" style="stroke: #038048; stroke-width: 1.0;"/><text fill="#000000" font-family="sans-serif" font-size="11" lengthAdjust="spacingAndGlyphs" text-decoration="underline" textLength="100" x="178.5" y="231.6758">code(String): Code</text><ellipse cx="169.5" cy="241.9736" fill="#84BE84" rx="3" ry="3" style="stroke: #038048; stroke-width: 1.0;"/><text fill="#000000" font-family="sans-serif" font-size="11" lengthAdjust="spacingAndGlyphs" textLength="99" x="178.5" y="244.6309">toBuilder(): Builder</text><ellipse cx="169.5" cy="254.9287" fill="#84BE84" rx="3" ry="3" style="stroke: #038048; stroke-width: 1.0;"/><text fill="#000000" font-family="sans-serif" font-size="11" lengthAdjust="spacingAndGlyphs" text-decoration="underline" textLength="89" x="178.5" y="257.5859">builder(): Builder</text></a><!--class com.ibm.fhir.model.type.Code--><a href="../Code.html" target="_top" xlink:actuate="onRequest" xlink:show="new" xlink:title="../Code.html" xlink:type="simple"><rect fill="#FEFECE" filter="url(#f1845lkbuhz52p)" height="38.2656" id="com.ibm.fhir.model.type.Code" style="stroke: #A80036; stroke-width: 1.5;" width="150" x="195" y="8"/><ellipse cx="210" cy="27.1328" fill="#ADD1B2" rx="11" ry="11" style="stroke: #A80036; stroke-width: 1.0;"/><path d="M212.4731,33.2759 Q211.8921,33.5747 211.2529,33.7241 Q210.6138,33.8735 209.9082,33.8735 Q207.4014,33.8735 206.0815,32.2217 Q204.7617,30.5698 204.7617,27.4487 Q204.7617,24.3193 206.0815,22.6675 Q207.4014,21.0156 209.9082,21.0156 Q210.6138,21.0156 211.2612,21.165 Q211.9087,21.3145 212.4731,21.6133 L212.4731,24.3359 Q211.8423,23.7549 211.2488,23.4851 Q210.6553,23.2153 210.0244,23.2153 Q208.6797,23.2153 207.9949,24.282 Q207.3101,25.3486 207.3101,27.4487 Q207.3101,29.5405 207.9949,30.6072 Q208.6797,31.6738 210.0244,31.6738 Q210.6553,31.6738 211.2488,31.4041 Q211.8423,31.1343 212.4731,30.5532 Z "/><text fill="#000000" font-family="sans-serif" font-size="14" lengthAdjust="spacingAndGlyphs" textLength="36" x="265" y="26.5352">Code</text><text fill="#000000" font-family="sans-serif" font-size="10" lengthAdjust="spacingAndGlyphs" textLength="118" x="224" y="39.1563">com.ibm.fhir.model.type</text></a><!--class com.ibm.fhir.model.type.code.AssertionDirectionType.Builder--><a href="AssertionDirectionType.Builder.html" target="_top" xlink:actuate="onRequest" xlink:show="new" xlink:title="AssertionDirectionType.Builder.html" xlink:type="simple"><rect fill="#FEFECE" filter="url(#f1845lkbuhz52p)" height="38.2656" id="com.ibm.fhir.model.type.code.AssertionDirectionType.Builder" style="stroke: #A80036; stroke-width: 1.5;" width="244" x="6" y="324"/><ellipse cx="21" cy="343.1328" fill="#ADD1B2" rx="11" ry="11" style="stroke: #A80036; stroke-width: 1.0;"/><path d="M23.4731,349.2759 Q22.8921,349.5747 22.2529,349.7241 Q21.6138,349.8735 20.9082,349.8735 Q18.4014,349.8735 17.0815,348.2217 Q15.7617,346.5698 15.7617,343.4487 Q15.7617,340.3193 17.0815,338.6675 Q18.4014,337.0156 20.9082,337.0156 Q21.6138,337.0156 22.2612,337.165 Q22.9087,337.3145 23.4731,337.6133 L23.4731,340.3359 Q22.8423,339.7549 22.2488,339.4851 Q21.6553,339.2153 21.0244,339.2153 Q19.6797,339.2153 18.9949,340.282 Q18.3101,341.3486 18.3101,343.4487 Q18.3101,345.5405 18.9949,346.6072 Q19.6797,347.6738 21.0244,347.6738 Q21.6553,347.6738 22.2488,347.4041 Q22.8423,347.1343 23.4731,346.5532 Z "/><text fill="#000000" font-family="sans-serif" font-size="14" lengthAdjust="spacingAndGlyphs" textLength="212" x="35" y="342.5352">AssertionDirectionType.Builder</text><text fill="#000000" font-family="sans-serif" font-size="10" lengthAdjust="spacingAndGlyphs" textLength="144" x="69" y="355.1563">com.ibm.fhir.model.type.code</text></a><!--class com.ibm.fhir.model.type.code.AssertionDirectionType.ValueSet--><a href="AssertionDirectionType.ValueSet.html" target="_top" xlink:actuate="onRequest" xlink:show="new" xlink:title="AssertionDirectionType.ValueSet.html" xlink:type="simple"><rect fill="#FEFECE" filter="url(#f1845lkbuhz52p)" height="38.2656" id="com.ibm.fhir.model.type.code.AssertionDirectionType.ValueSet" style="stroke: #A80036; stroke-width: 1.5;" width="255" x="285.5" y="324"/><ellipse cx="300.5" cy="343.1328" fill="#EB937F" rx="11" ry="11" style="stroke: #A80036; stroke-width: 1.0;"/><path d="M304.1143,349.6328 L296.3945,349.6328 L296.3945,337.2397 L304.1143,337.2397 L304.1143,339.3979 L298.8433,339.3979 L298.8433,342.0708 L303.6162,342.0708 L303.6162,344.229 L298.8433,344.229 L298.8433,347.4746 L304.1143,347.4746 Z "/><text fill="#000000" font-family="sans-serif" font-size="14" lengthAdjust="spacingAndGlyphs" textLength="223" x="314.5" y="342.5352">AssertionDirectionType.ValueSet</text><text fill="#000000" font-family="sans-serif" font-size="10" lengthAdjust="spacingAndGlyphs" textLength="144" x="354" y="355.1563">com.ibm.fhir.model.type.code</text></a><!--link com.ibm.fhir.model.type.Code to com.ibm.fhir.model.type.code.AssertionDirectionType--><path d="M270,66.2457 C270,78.356 270,92.1521 270,105.9503 " fill="none" id="com.ibm.fhir.model.type.Code-com.ibm.fhir.model.type.code.AssertionDirectionType" style="stroke: #A80036; stroke-width: 1.0;"/><polygon fill="none" points="263.0001,66.0585,270,46.0585,277.0001,66.0585,263.0001,66.0585" style="stroke: #A80036; stroke-width: 1.0;"/><!--link com.ibm.fhir.model.type.code.AssertionDirectionType to com.ibm.fhir.model.type.code.AssertionDirectionType.Builder--><path d="M188.3635,275.8349 C172.0569,293.9789 156.5162,311.2707 145.2877,323.7643 " fill="none" id="com.ibm.fhir.model.type.code.AssertionDirectionType-com.ibm.fhir.model.type.code.AssertionDirectionType.Builder" style="stroke: #A80036; stroke-width: 1.0;"/><ellipse cx="193.2364" cy="270.413" fill="#FFFFFF" rx="8" ry="8" style="stroke: #A80036; stroke-width: 1.0;"/><line style="stroke: #A80036; stroke-width: 1.0;" x1="187.8889" x2="198.584" y1="276.3631" y2="264.4629"/><line style="stroke: #A80036; stroke-width: 1.0;" x1="187.2863" x2="199.1865" y1="265.0654" y2="275.7606"/><!--link com.ibm.fhir.model.type.code.AssertionDirectionType to com.ibm.fhir.model.type.code.AssertionDirectionType.ValueSet--><path d="M352.2114,275.8349 C368.6328,293.9789 384.283,311.2707 395.5905,323.7643 " fill="none" id="com.ibm.fhir.model.type.code.AssertionDirectionType-com.ibm.fhir.model.type.code.AssertionDirectionType.ValueSet" style="stroke: #A80036; stroke-width: 1.0;"/><ellipse cx="347.2872" cy="270.3943" fill="#FFFFFF" rx="8" ry="8" style="stroke: #A80036; stroke-width: 1.0;"/><line style="stroke: #A80036; stroke-width: 1.0;" x1="352.6555" x2="341.9189" y1="276.3257" y2="264.4629"/><line style="stroke: #A80036; stroke-width: 1.0;" x1="341.3558" x2="353.2186" y1="275.7626" y2="265.026"/><text fill="#888888" font-family="sans-serif" font-size="10" lengthAdjust="spacingAndGlyphs" textLength="182" x="188.5" y="381.668">UMLDoclet 2.0.5, PlantUML 1.2019.08</text><!--
@startuml
    set namespaceSeparator none
    hide empty fields
    hide empty methods

    class "<size:14>AssertionDirectionType\n<size:10>com.ibm.fhir.model.type.code" as com.ibm.fhir.model.type.code.AssertionDirectionType [[AssertionDirectionType.html]] {
        {static} +RESPONSE: AssertionDirectionType
        {static} +REQUEST: AssertionDirectionType
        {static} +of(String): AssertionDirectionType
        {static} +of(ValueSet): AssertionDirectionType
        {static} +string(String): String
        {static} +code(String): Code
        +toBuilder(): Builder
        {static} +builder(): Builder
    }

    class "<size:14>Code\n<size:10>com.ibm.fhir.model.type" as com.ibm.fhir.model.type.Code [[../Code.html]]
    class "<size:14>AssertionDirectionType.Builder\n<size:10>com.ibm.fhir.model.type.code" as com.ibm.fhir.model.type.code.AssertionDirectionType.Builder [[AssertionDirectionType.Builder.html]]
    enum "<size:14>AssertionDirectionType.ValueSet\n<size:10>com.ibm.fhir.model.type.code" as com.ibm.fhir.model.type.code.AssertionDirectionType.ValueSet [[AssertionDirectionType.ValueSet.html]]

    com.ibm.fhir.model.type.Code <|- - com.ibm.fhir.model.type.code.AssertionDirectionType
    com.ibm.fhir.model.type.code.AssertionDirectionType +- - com.ibm.fhir.model.type.code.AssertionDirectionType.Builder
    com.ibm.fhir.model.type.code.AssertionDirectionType +- - com.ibm.fhir.model.type.code.AssertionDirectionType.ValueSet

    center footer UMLDoclet 2.0.5, PlantUML 1.2019.08
@enduml

PlantUML version 1.2019.08(Sat Jul 13 15:25:14 EDT 2019)
(APACHE source distribution)
Java Runtime: OpenJDK Runtime Environment
JVM: OpenJDK 64-Bit Server VM
Java Version: 11.0.4+11
Operating System: Mac OS X
OS Version: 10.14.6
Default Encoding: UTF-8
Language: en
Country: US
--></g></svg>