<?xml version="1.0" encoding="UTF-8" standalone="no"?><svg xmlns="http://www.w3.org/2000/svg" xmlns:xlink="http://www.w3.org/1999/xlink" contentScriptType="application/ecmascript" contentStyleType="text/css" height="434px" preserveAspectRatio="none" style="width:467px;height:434px;" version="1.1" viewBox="0 0 467 434" width="467px" zoomAndPan="magnify"><defs><filter height="300%" id="f1q1wh49pnkiyz" width="300%" x="-1" y="-1"><feGaussianBlur result="blurOut" stdDeviation="2.0"/><feColorMatrix in="blurOut" result="blurOut2" type="matrix" values="0 0 0 0 0 0 0 0 0 0 0 0 0 0 0 0 0 0 .4 0"/><feOffset dx="4.0" dy="4.0" in="blurOut2" result="blurOut3"/><feBlend in="SourceGraphic" in2="blurOut3" mode="normal"/></filter></defs><g><!--class com.ibm.fhir.model.type.code.AuditEventAction--><a href="AuditEventAction.html" target="_top" xlink:actuate="onRequest" xlink:show="new" xlink:title="AuditEventAction.html" xlink:type="simple"><rect fill="#FEFECE" filter="url(#f1q1wh49pnkiyz)" height="196.7715" id="com.ibm.fhir.model.type.code.AuditEventAction" style="stroke: #A80036; stroke-width: 1.5;" width="189" x="133.5" y="106"/><ellipse cx="154.35" cy="125.1328" fill="#ADD1B2" rx="11" ry="11" style="stroke: #A80036; stroke-width: 1.0;"/><path d="M156.8231,131.2759 Q156.2421,131.5747 155.6029,131.7241 Q154.9638,131.8735 154.2582,131.8735 Q151.7514,131.8735 150.4315,130.2217 Q149.1117,128.5698 149.1117,125.4487 Q149.1117,122.3193 150.4315,120.6675 Q151.7514,119.0156 154.2582,119.0156 Q154.9638,119.0156 155.6112,119.165 Q156.2587,119.3145 156.8231,119.6133 L156.8231,122.3359 Q156.1923,121.7549 155.5988,121.4851 Q155.0053,121.2153 154.3744,121.2153 Q153.0297,121.2153 152.3449,122.282 Q151.6601,123.3486 151.6601,125.4487 Q151.6601,127.5405 152.3449,128.6072 Q153.0297,129.6738 154.3744,129.6738 Q155.0053,129.6738 155.5988,129.4041 Q156.1923,129.1343 156.8231,128.5532 Z "/><text fill="#000000" font-family="sans-serif" font-size="14" lengthAdjust="spacingAndGlyphs" textLength="118" x="182.65" y="124.5352">AuditEventAction</text><text fill="#000000" font-family="sans-serif" font-size="10" lengthAdjust="spacingAndGlyphs" textLength="144" x="169.65" y="137.1563">com.ibm.fhir.model.type.code</text><line style="stroke: #A80036; stroke-width: 1.5;" x1="134.5" x2="321.5" y1="144.2656" y2="144.2656"/><ellipse cx="144.5" cy="156.2432" fill="none" rx="3" ry="3" style="stroke: #038048; stroke-width: 1.0;"/><text fill="#000000" font-family="sans-serif" font-size="11" lengthAdjust="spacingAndGlyphs" text-decoration="underline" textLength="107" x="153.5" y="158.9004">C: AuditEventAction</text><ellipse cx="144.5" cy="169.1982" fill="none" rx="3" ry="3" style="stroke: #038048; stroke-width: 1.0;"/><text fill="#000000" font-family="sans-serif" font-size="11" lengthAdjust="spacingAndGlyphs" text-decoration="underline" textLength="106" x="153.5" y="171.8555">R: AuditEventAction</text><ellipse cx="144.5" cy="182.1533" fill="none" rx="3" ry="3" style="stroke: #038048; stroke-width: 1.0;"/><text fill="#000000" font-family="sans-serif" font-size="11" lengthAdjust="spacingAndGlyphs" text-decoration="underline" textLength="107" x="153.5" y="184.8105">U: AuditEventAction</text><ellipse cx="144.5" cy="195.1084" fill="none" rx="3" ry="3" style="stroke: #038048; stroke-width: 1.0;"/><text fill="#000000" font-family="sans-serif" font-size="11" lengthAdjust="spacingAndGlyphs" text-decoration="underline" textLength="107" x="153.5" y="197.7656">D: AuditEventAction</text><ellipse cx="144.5" cy="208.0635" fill="none" rx="3" ry="3" style="stroke: #038048; stroke-width: 1.0;"/><text fill="#000000" font-family="sans-serif" font-size="11" lengthAdjust="spacingAndGlyphs" text-decoration="underline" textLength="105" x="153.5" y="210.7207">E: AuditEventAction</text><line style="stroke: #A80036; stroke-width: 1.5;" x1="134.5" x2="321.5" y1="217.041" y2="217.041"/><ellipse cx="144.5" cy="229.0186" fill="#84BE84" rx="3" ry="3" style="stroke: #038048; stroke-width: 1.0;"/><text fill="#000000" font-family="sans-serif" font-size="11" lengthAdjust="spacingAndGlyphs" text-decoration="underline" textLength="150" x="153.5" y="231.6758">of(String): AuditEventAction</text><ellipse cx="144.5" cy="241.9736" fill="#84BE84" rx="3" ry="3" style="stroke: #038048; stroke-width: 1.0;"/><text fill="#000000" font-family="sans-serif" font-size="11" lengthAdjust="spacingAndGlyphs" text-decoration="underline" textLength="163" x="153.5" y="244.6309">of(ValueSet): AuditEventAction</text><ellipse cx="144.5" cy="254.9287" fill="#84BE84" rx="3" ry="3" style="stroke: #038048; stroke-width: 1.0;"/><text fill="#000000" font-family="sans-serif" font-size="11" lengthAdjust="spacingAndGlyphs" text-decoration="underline" textLength="110" x="153.5" y="257.5859">string(String): String</text><ellipse cx="144.5" cy="267.8838" fill="#84BE84" rx="3" ry="3" style="stroke: #038048; stroke-width: 1.0;"/><text fill="#000000" font-family="sans-serif" font-size="11" lengthAdjust="spacingAndGlyphs" text-decoration="underline" textLength="100" x="153.5" y="270.541">code(String): Code</text><ellipse cx="144.5" cy="280.8389" fill="#84BE84" rx="3" ry="3" style="stroke: #038048; stroke-width: 1.0;"/><text fill="#000000" font-family="sans-serif" font-size="11" lengthAdjust="spacingAndGlyphs" textLength="99" x="153.5" y="283.4961">toBuilder(): Builder</text><ellipse cx="144.5" cy="293.7939" fill="#84BE84" rx="3" ry="3" style="stroke: #038048; stroke-width: 1.0;"/><text fill="#000000" font-family="sans-serif" font-size="11" lengthAdjust="spacingAndGlyphs" text-decoration="underline" textLength="89" x="153.5" y="296.4512">builder(): Builder</text></a><!--class com.ibm.fhir.model.type.Code--><a href="../Code.html" target="_top" xlink:actuate="onRequest" xlink:show="new" xlink:title="../Code.html" xlink:type="simple"><rect fill="#FEFECE" filter="url(#f1q1wh49pnkiyz)" height="38.2656" id="com.ibm.fhir.model.type.Code" style="stroke: #A80036; stroke-width: 1.5;" width="150" x="153" y="8"/><ellipse cx="168" cy="27.1328" fill="#ADD1B2" rx="11" ry="11" style="stroke: #A80036; stroke-width: 1.0;"/><path d="M170.4731,33.2759 Q169.8921,33.5747 169.2529,33.7241 Q168.6138,33.8735 167.9082,33.8735 Q165.4014,33.8735 164.0815,32.2217 Q162.7617,30.5698 162.7617,27.4487 Q162.7617,24.3193 164.0815,22.6675 Q165.4014,21.0156 167.9082,21.0156 Q168.6138,21.0156 169.2612,21.165 Q169.9087,21.3145 170.4731,21.6133 L170.4731,24.3359 Q169.8423,23.7549 169.2488,23.4851 Q168.6553,23.2153 168.0244,23.2153 Q166.6797,23.2153 165.9949,24.282 Q165.3101,25.3486 165.3101,27.4487 Q165.3101,29.5405 165.9949,30.6072 Q166.6797,31.6738 168.0244,31.6738 Q168.6553,31.6738 169.2488,31.4041 Q169.8423,31.1343 170.4731,30.5532 Z "/><text fill="#000000" font-family="sans-serif" font-size="14" lengthAdjust="spacingAndGlyphs" textLength="36" x="223" y="26.5352">Code</text><text fill="#000000" font-family="sans-serif" font-size="10" lengthAdjust="spacingAndGlyphs" textLength="118" x="182" y="39.1563">com.ibm.fhir.model.type</text></a><!--class com.ibm.fhir.model.type.code.AuditEventAction.Builder--><a href="AuditEventAction.Builder.html" target="_top" xlink:actuate="onRequest" xlink:show="new" xlink:title="AuditEventAction.Builder.html" xlink:type="simple"><rect fill="#FEFECE" filter="url(#f1q1wh49pnkiyz)" height="38.2656" id="com.ibm.fhir.model.type.code.AuditEventAction.Builder" style="stroke: #A80036; stroke-width: 1.5;" width="202" x="6" y="363"/><ellipse cx="21" cy="382.1328" fill="#ADD1B2" rx="11" ry="11" style="stroke: #A80036; stroke-width: 1.0;"/><path d="M23.4731,388.2759 Q22.8921,388.5747 22.2529,388.7241 Q21.6138,388.8735 20.9082,388.8735 Q18.4014,388.8735 17.0815,387.2217 Q15.7617,385.5698 15.7617,382.4487 Q15.7617,379.3193 17.0815,377.6675 Q18.4014,376.0156 20.9082,376.0156 Q21.6138,376.0156 22.2612,376.165 Q22.9087,376.3145 23.4731,376.6133 L23.4731,379.3359 Q22.8423,378.7549 22.2488,378.4851 Q21.6553,378.2153 21.0244,378.2153 Q19.6797,378.2153 18.9949,379.282 Q18.3101,380.3486 18.3101,382.4487 Q18.3101,384.5405 18.9949,385.6072 Q19.6797,386.6738 21.0244,386.6738 Q21.6553,386.6738 22.2488,386.4041 Q22.8423,386.1343 23.4731,385.5532 Z "/><text fill="#000000" font-family="sans-serif" font-size="14" lengthAdjust="spacingAndGlyphs" textLength="170" x="35" y="381.5352">AuditEventAction.Builder</text><text fill="#000000" font-family="sans-serif" font-size="10" lengthAdjust="spacingAndGlyphs" textLength="144" x="48" y="394.1563">com.ibm.fhir.model.type.code</text></a><!--class com.ibm.fhir.model.type.code.AuditEventAction.ValueSet--><a href="AuditEventAction.ValueSet.html" target="_top" xlink:actuate="onRequest" xlink:show="new" xlink:title="AuditEventAction.ValueSet.html" xlink:type="simple"><rect fill="#FEFECE" filter="url(#f1q1wh49pnkiyz)" height="38.2656" id="com.ibm.fhir.model.type.code.AuditEventAction.ValueSet" style="stroke: #A80036; stroke-width: 1.5;" width="213" x="243.5" y="363"/><ellipse cx="258.5" cy="382.1328" fill="#EB937F" rx="11" ry="11" style="stroke: #A80036; stroke-width: 1.0;"/><path d="M262.1143,388.6328 L254.3945,388.6328 L254.3945,376.2397 L262.1143,376.2397 L262.1143,378.3979 L256.8433,378.3979 L256.8433,381.0708 L261.6162,381.0708 L261.6162,383.229 L256.8433,383.229 L256.8433,386.4746 L262.1143,386.4746 Z "/><text fill="#000000" font-family="sans-serif" font-size="14" lengthAdjust="spacingAndGlyphs" textLength="181" x="272.5" y="381.5352">AuditEventAction.ValueSet</text><text fill="#000000" font-family="sans-serif" font-size="10" lengthAdjust="spacingAndGlyphs" textLength="144" x="291" y="394.1563">com.ibm.fhir.model.type.code</text></a><!--link com.ibm.fhir.model.type.Code to com.ibm.fhir.model.type.code.AuditEventAction--><path d="M228,66.6337 C228,78.4685 228,92.0042 228,105.8655 " fill="none" id="com.ibm.fhir.model.type.Code-com.ibm.fhir.model.type.code.AuditEventAction" style="stroke: #A80036; stroke-width: 1.0;"/><polygon fill="none" points="221.0001,66.3335,228,46.3335,235.0001,66.3335,221.0001,66.3335" style="stroke: #A80036; stroke-width: 1.0;"/><!--link com.ibm.fhir.model.type.code.AuditEventAction to com.ibm.fhir.model.type.code.AuditEventAction.Builder--><path d="M152.295,315.5548 C139.8891,333.7535 128.3954,350.6142 120.0902,362.7975 " fill="none" id="com.ibm.fhir.model.type.code.AuditEventAction-com.ibm.fhir.model.type.code.AuditEventAction.Builder" style="stroke: #A80036; stroke-width: 1.0;"/><ellipse cx="156.2709" cy="309.7224" fill="#FFFFFF" rx="8" ry="8" style="stroke: #A80036; stroke-width: 1.0;"/><line style="stroke: #A80036; stroke-width: 1.0;" x1="151.7648" x2="160.777" y1="316.3327" y2="303.1122"/><line style="stroke: #A80036; stroke-width: 1.0;" x1="149.6607" x2="162.8811" y1="305.2163" y2="314.2285"/><!--link com.ibm.fhir.model.type.code.AuditEventAction to com.ibm.fhir.model.type.code.AuditEventAction.ValueSet--><path d="M304.3306,315.5548 C316.839,333.7535 328.4278,350.6142 336.8016,362.7975 " fill="none" id="com.ibm.fhir.model.type.code.AuditEventAction-com.ibm.fhir.model.type.code.AuditEventAction.ValueSet" style="stroke: #A80036; stroke-width: 1.0;"/><ellipse cx="300.31" cy="309.705" fill="#FFFFFF" rx="8" ry="8" style="stroke: #A80036; stroke-width: 1.0;"/><line style="stroke: #A80036; stroke-width: 1.0;" x1="304.8415" x2="295.7785" y1="316.2979" y2="303.1122"/><line style="stroke: #A80036; stroke-width: 1.0;" x1="293.7172" x2="306.9028" y1="314.2365" y2="305.1735"/><text fill="#888888" font-family="sans-serif" font-size="10" lengthAdjust="spacingAndGlyphs" textLength="182" x="146.5" y="420.668">UMLDoclet 2.0.5, PlantUML 1.2019.08</text><!--
@startuml
    set namespaceSeparator none
    hide empty fields
    hide empty methods

    class "<size:14>AuditEventAction\n<size:10>com.ibm.fhir.model.type.code" as com.ibm.fhir.model.type.code.AuditEventAction [[AuditEventAction.html]] {
        {static} +C: AuditEventAction
        {static} +R: AuditEventAction
        {static} +U: AuditEventAction
        {static} +D: AuditEventAction
        {static} +E: AuditEventAction
        {static} +of(String): AuditEventAction
        {static} +of(ValueSet): AuditEventAction
        {static} +string(String): String
        {static} +code(String): Code
        +toBuilder(): Builder
        {static} +builder(): Builder
    }

    class "<size:14>Code\n<size:10>com.ibm.fhir.model.type" as com.ibm.fhir.model.type.Code [[../Code.html]]
    class "<size:14>AuditEventAction.Builder\n<size:10>com.ibm.fhir.model.type.code" as com.ibm.fhir.model.type.code.AuditEventAction.Builder [[AuditEventAction.Builder.html]]
    enum "<size:14>AuditEventAction.ValueSet\n<size:10>com.ibm.fhir.model.type.code" as com.ibm.fhir.model.type.code.AuditEventAction.ValueSet [[AuditEventAction.ValueSet.html]]

    com.ibm.fhir.model.type.Code <|- - com.ibm.fhir.model.type.code.AuditEventAction
    com.ibm.fhir.model.type.code.AuditEventAction +- - com.ibm.fhir.model.type.code.AuditEventAction.Builder
    com.ibm.fhir.model.type.code.AuditEventAction +- - com.ibm.fhir.model.type.code.AuditEventAction.ValueSet

    center footer UMLDoclet 2.0.5, PlantUML 1.2019.08
@enduml

PlantUML version 1.2019.08(Sat Jul 13 15:25:14 EDT 2019)
(APACHE source distribution)
Java Runtime: OpenJDK Runtime Environment
JVM: OpenJDK 64-Bit Server VM
Java Version: 11.0.4+11
Operating System: Mac OS X
OS Version: 10.14.6
Default Encoding: UTF-8
Language: en
Country: US
--></g></svg>