<?xml version="1.0" encoding="UTF-8" standalone="no"?><svg xmlns="http://www.w3.org/2000/svg" xmlns:xlink="http://www.w3.org/1999/xlink" contentScriptType="application/ecmascript" contentStyleType="text/css" height="460px" preserveAspectRatio="none" style="width:643px;height:460px;" version="1.1" viewBox="0 0 643 460" width="643px" zoomAndPan="magnify"><defs><filter height="300%" id="f1kpcm7eiw8vfb" width="300%" x="-1" y="-1"><feGaussianBlur result="blurOut" stdDeviation="2.0"/><feColorMatrix in="blurOut" result="blurOut2" type="matrix" values="0 0 0 0 0 0 0 0 0 0 0 0 0 0 0 0 0 0 .4 0"/><feOffset dx="4.0" dy="4.0" in="blurOut2" result="blurOut3"/><feBlend in="SourceGraphic" in2="blurOut3" mode="normal"/></filter></defs><g><!--class com.ibm.fhir.model.type.code.CommunicationRequestStatus--><a href="CommunicationRequestStatus.html" target="_top" xlink:actuate="onRequest" xlink:show="new" xlink:title="CommunicationRequestStatus.html" xlink:type="simple"><rect fill="#FEFECE" filter="url(#f1kpcm7eiw8vfb)" height="222.6816" id="com.ibm.fhir.model.type.code.CommunicationRequestStatus" style="stroke: #A80036; stroke-width: 1.5;" width="300" x="166" y="106"/><ellipse cx="208.9" cy="125.1328" fill="#ADD1B2" rx="11" ry="11" style="stroke: #A80036; stroke-width: 1.0;"/><path d="M211.3731,131.2759 Q210.7921,131.5747 210.1529,131.7241 Q209.5138,131.8735 208.8082,131.8735 Q206.3014,131.8735 204.9815,130.2217 Q203.6617,128.5698 203.6617,125.4487 Q203.6617,122.3193 204.9815,120.6675 Q206.3014,119.0156 208.8082,119.0156 Q209.5138,119.0156 210.1612,119.165 Q210.8087,119.3145 211.3731,119.6133 L211.3731,122.3359 Q210.7423,121.7549 210.1488,121.4851 Q209.5553,121.2153 208.9244,121.2153 Q207.5797,121.2153 206.8949,122.282 Q206.2101,123.3486 206.2101,125.4487 Q206.2101,127.5405 206.8949,128.6072 Q207.5797,129.6738 208.9244,129.6738 Q209.5553,129.6738 210.1488,129.4041 Q210.7423,129.1343 211.3731,128.5532 Z "/><text fill="#000000" font-family="sans-serif" font-size="14" lengthAdjust="spacingAndGlyphs" textLength="206" x="229.1" y="124.5352">CommunicationRequestStatus</text><text fill="#000000" font-family="sans-serif" font-size="10" lengthAdjust="spacingAndGlyphs" textLength="144" x="260.1" y="137.1563">com.ibm.fhir.model.type.code</text><line style="stroke: #A80036; stroke-width: 1.5;" x1="167" x2="465" y1="144.2656" y2="144.2656"/><ellipse cx="177" cy="156.2432" fill="none" rx="3" ry="3" style="stroke: #038048; stroke-width: 1.0;"/><text fill="#000000" font-family="sans-serif" font-size="11" lengthAdjust="spacingAndGlyphs" text-decoration="underline" textLength="203" x="186" y="158.9004">DRAFT: CommunicationRequestStatus</text><ellipse cx="177" cy="169.1982" fill="none" rx="3" ry="3" style="stroke: #038048; stroke-width: 1.0;"/><text fill="#000000" font-family="sans-serif" font-size="11" lengthAdjust="spacingAndGlyphs" text-decoration="underline" textLength="206" x="186" y="171.8555">ACTIVE: CommunicationRequestStatus</text><ellipse cx="177" cy="182.1533" fill="none" rx="3" ry="3" style="stroke: #038048; stroke-width: 1.0;"/><text fill="#000000" font-family="sans-serif" font-size="11" lengthAdjust="spacingAndGlyphs" text-decoration="underline" textLength="221" x="186" y="184.8105">ON_HOLD: CommunicationRequestStatus</text><ellipse cx="177" cy="195.1084" fill="none" rx="3" ry="3" style="stroke: #038048; stroke-width: 1.0;"/><text fill="#000000" font-family="sans-serif" font-size="11" lengthAdjust="spacingAndGlyphs" text-decoration="underline" textLength="217" x="186" y="197.7656">REVOKED: CommunicationRequestStatus</text><ellipse cx="177" cy="208.0635" fill="none" rx="3" ry="3" style="stroke: #038048; stroke-width: 1.0;"/><text fill="#000000" font-family="sans-serif" font-size="11" lengthAdjust="spacingAndGlyphs" text-decoration="underline" textLength="232" x="186" y="210.7207">COMPLETED: CommunicationRequestStatus</text><ellipse cx="177" cy="221.0186" fill="none" rx="3" ry="3" style="stroke: #038048; stroke-width: 1.0;"/><text fill="#000000" font-family="sans-serif" font-size="11" lengthAdjust="spacingAndGlyphs" text-decoration="underline" textLength="274" x="186" y="223.6758">ENTERED_IN_ERROR: CommunicationRequestStatus</text><ellipse cx="177" cy="233.9736" fill="none" rx="3" ry="3" style="stroke: #038048; stroke-width: 1.0;"/><text fill="#000000" font-family="sans-serif" font-size="11" lengthAdjust="spacingAndGlyphs" text-decoration="underline" textLength="224" x="186" y="236.6309">UNKNOWN: CommunicationRequestStatus</text><line style="stroke: #A80036; stroke-width: 1.5;" x1="167" x2="465" y1="242.9512" y2="242.9512"/><ellipse cx="177" cy="254.9287" fill="#84BE84" rx="3" ry="3" style="stroke: #038048; stroke-width: 1.0;"/><text fill="#000000" font-family="sans-serif" font-size="11" lengthAdjust="spacingAndGlyphs" text-decoration="underline" textLength="218" x="186" y="257.5859">of(String): CommunicationRequestStatus</text><ellipse cx="177" cy="267.8838" fill="#84BE84" rx="3" ry="3" style="stroke: #038048; stroke-width: 1.0;"/><text fill="#000000" font-family="sans-serif" font-size="11" lengthAdjust="spacingAndGlyphs" text-decoration="underline" textLength="231" x="186" y="270.541">of(ValueSet): CommunicationRequestStatus</text><ellipse cx="177" cy="280.8389" fill="#84BE84" rx="3" ry="3" style="stroke: #038048; stroke-width: 1.0;"/><text fill="#000000" font-family="sans-serif" font-size="11" lengthAdjust="spacingAndGlyphs" text-decoration="underline" textLength="110" x="186" y="283.4961">string(String): String</text><ellipse cx="177" cy="293.7939" fill="#84BE84" rx="3" ry="3" style="stroke: #038048; stroke-width: 1.0;"/><text fill="#000000" font-family="sans-serif" font-size="11" lengthAdjust="spacingAndGlyphs" text-decoration="underline" textLength="100" x="186" y="296.4512">code(String): Code</text><ellipse cx="177" cy="306.749" fill="#84BE84" rx="3" ry="3" style="stroke: #038048; stroke-width: 1.0;"/><text fill="#000000" font-family="sans-serif" font-size="11" lengthAdjust="spacingAndGlyphs" textLength="99" x="186" y="309.4063">toBuilder(): Builder</text><ellipse cx="177" cy="319.7041" fill="#84BE84" rx="3" ry="3" style="stroke: #038048; stroke-width: 1.0;"/><text fill="#000000" font-family="sans-serif" font-size="11" lengthAdjust="spacingAndGlyphs" text-decoration="underline" textLength="89" x="186" y="322.3613">builder(): Builder</text></a><!--class com.ibm.fhir.model.type.Code--><a href="../Code.html" target="_top" xlink:actuate="onRequest" xlink:show="new" xlink:title="../Code.html" xlink:type="simple"><rect fill="#FEFECE" filter="url(#f1kpcm7eiw8vfb)" height="38.2656" id="com.ibm.fhir.model.type.Code" style="stroke: #A80036; stroke-width: 1.5;" width="150" x="241" y="8"/><ellipse cx="256" cy="27.1328" fill="#ADD1B2" rx="11" ry="11" style="stroke: #A80036; stroke-width: 1.0;"/><path d="M258.4731,33.2759 Q257.8921,33.5747 257.2529,33.7241 Q256.6138,33.8735 255.9082,33.8735 Q253.4014,33.8735 252.0815,32.2217 Q250.7617,30.5698 250.7617,27.4487 Q250.7617,24.3193 252.0815,22.6675 Q253.4014,21.0156 255.9082,21.0156 Q256.6138,21.0156 257.2612,21.165 Q257.9087,21.3145 258.4731,21.6133 L258.4731,24.3359 Q257.8423,23.7549 257.2488,23.4851 Q256.6553,23.2153 256.0244,23.2153 Q254.6797,23.2153 253.9949,24.282 Q253.3101,25.3486 253.3101,27.4487 Q253.3101,29.5405 253.9949,30.6072 Q254.6797,31.6738 256.0244,31.6738 Q256.6553,31.6738 257.2488,31.4041 Q257.8423,31.1343 258.4731,30.5532 Z "/><text fill="#000000" font-family="sans-serif" font-size="14" lengthAdjust="spacingAndGlyphs" textLength="36" x="311" y="26.5352">Code</text><text fill="#000000" font-family="sans-serif" font-size="10" lengthAdjust="spacingAndGlyphs" textLength="118" x="270" y="39.1563">com.ibm.fhir.model.type</text></a><!--class com.ibm.fhir.model.type.code.CommunicationRequestStatus.Builder--><a href="CommunicationRequestStatus.Builder.html" target="_top" xlink:actuate="onRequest" xlink:show="new" xlink:title="CommunicationRequestStatus.Builder.html" xlink:type="simple"><rect fill="#FEFECE" filter="url(#f1kpcm7eiw8vfb)" height="38.2656" id="com.ibm.fhir.model.type.code.CommunicationRequestStatus.Builder" style="stroke: #A80036; stroke-width: 1.5;" width="290" x="6" y="389"/><ellipse cx="21" cy="408.1328" fill="#ADD1B2" rx="11" ry="11" style="stroke: #A80036; stroke-width: 1.0;"/><path d="M23.4731,414.2759 Q22.8921,414.5747 22.2529,414.7241 Q21.6138,414.8735 20.9082,414.8735 Q18.4014,414.8735 17.0815,413.2217 Q15.7617,411.5698 15.7617,408.4487 Q15.7617,405.3193 17.0815,403.6675 Q18.4014,402.0156 20.9082,402.0156 Q21.6138,402.0156 22.2612,402.165 Q22.9087,402.3145 23.4731,402.6133 L23.4731,405.3359 Q22.8423,404.7549 22.2488,404.4851 Q21.6553,404.2153 21.0244,404.2153 Q19.6797,404.2153 18.9949,405.282 Q18.3101,406.3486 18.3101,408.4487 Q18.3101,410.5405 18.9949,411.6072 Q19.6797,412.6738 21.0244,412.6738 Q21.6553,412.6738 22.2488,412.4041 Q22.8423,412.1343 23.4731,411.5532 Z "/><text fill="#000000" font-family="sans-serif" font-size="14" lengthAdjust="spacingAndGlyphs" textLength="258" x="35" y="407.5352">CommunicationRequestStatus.Builder</text><text fill="#000000" font-family="sans-serif" font-size="10" lengthAdjust="spacingAndGlyphs" textLength="144" x="92" y="420.1563">com.ibm.fhir.model.type.code</text></a><!--class com.ibm.fhir.model.type.code.CommunicationRequestStatus.ValueSet--><a href="CommunicationRequestStatus.ValueSet.html" target="_top" xlink:actuate="onRequest" xlink:show="new" xlink:title="CommunicationRequestStatus.ValueSet.html" xlink:type="simple"><rect fill="#FEFECE" filter="url(#f1kpcm7eiw8vfb)" height="38.2656" id="com.ibm.fhir.model.type.code.CommunicationRequestStatus.ValueSet" style="stroke: #A80036; stroke-width: 1.5;" width="301" x="331.5" y="389"/><ellipse cx="346.5" cy="408.1328" fill="#EB937F" rx="11" ry="11" style="stroke: #A80036; stroke-width: 1.0;"/><path d="M350.1143,414.6328 L342.3945,414.6328 L342.3945,402.2397 L350.1143,402.2397 L350.1143,404.3979 L344.8433,404.3979 L344.8433,407.0708 L349.6162,407.0708 L349.6162,409.229 L344.8433,409.229 L344.8433,412.4746 L350.1143,412.4746 Z "/><text fill="#000000" font-family="sans-serif" font-size="14" lengthAdjust="spacingAndGlyphs" textLength="269" x="360.5" y="407.5352">CommunicationRequestStatus.ValueSet</text><text fill="#000000" font-family="sans-serif" font-size="10" lengthAdjust="spacingAndGlyphs" textLength="144" x="423" y="420.1563">com.ibm.fhir.model.type.code</text></a><!--link com.ibm.fhir.model.type.Code to com.ibm.fhir.model.type.code.CommunicationRequestStatus--><path d="M316,66.4332 C316,78.1917 316,91.7039 316,105.7082 " fill="none" id="com.ibm.fhir.model.type.Code-com.ibm.fhir.model.type.code.CommunicationRequestStatus" style="stroke: #A80036; stroke-width: 1.0;"/><polygon fill="none" points="309.0001,66.3145,316,46.3145,323.0001,66.3145,309.0001,66.3145" style="stroke: #A80036; stroke-width: 1.0;"/><!--link com.ibm.fhir.model.type.code.CommunicationRequestStatus to com.ibm.fhir.model.type.code.CommunicationRequestStatus.Builder--><path d="M209.3572,340.624 C193.1715,359.3111 178.3454,376.4285 167.6873,388.7338 " fill="none" id="com.ibm.fhir.model.type.code.CommunicationRequestStatus-com.ibm.fhir.model.type.code.CommunicationRequestStatus.Builder" style="stroke: #A80036; stroke-width: 1.0;"/><ellipse cx="214.0653" cy="335.1883" fill="#FFFFFF" rx="8" ry="8" style="stroke: #A80036; stroke-width: 1.0;"/><line style="stroke: #A80036; stroke-width: 1.0;" x1="208.8276" x2="219.3029" y1="341.2354" y2="329.1412"/><line style="stroke: #A80036; stroke-width: 1.0;" x1="208.0182" x2="220.1123" y1="329.9506" y2="340.4259"/><!--link com.ibm.fhir.model.type.code.CommunicationRequestStatus to com.ibm.fhir.model.type.code.CommunicationRequestStatus.ValueSet--><path d="M423.2892,340.624 C439.5729,359.3111 454.4889,376.4285 465.2116,388.7338 " fill="none" id="com.ibm.fhir.model.type.code.CommunicationRequestStatus-com.ibm.fhir.model.type.code.CommunicationRequestStatus.ValueSet" style="stroke: #A80036; stroke-width: 1.0;"/><ellipse cx="418.5389" cy="335.1726" fill="#FFFFFF" rx="8" ry="8" style="stroke: #A80036; stroke-width: 1.0;"/><line style="stroke: #A80036; stroke-width: 1.0;" x1="423.7946" x2="413.2832" y1="341.204" y2="329.1412"/><line style="stroke: #A80036; stroke-width: 1.0;" x1="412.5075" x2="424.5703" y1="340.4283" y2="329.9169"/><text fill="#888888" font-family="sans-serif" font-size="10" lengthAdjust="spacingAndGlyphs" textLength="182" x="234.5" y="446.668">UMLDoclet 2.0.5, PlantUML 1.2019.08</text><!--
@startuml
    set namespaceSeparator none
    hide empty fields
    hide empty methods

    class "<size:14>CommunicationRequestStatus\n<size:10>com.ibm.fhir.model.type.code" as com.ibm.fhir.model.type.code.CommunicationRequestStatus [[CommunicationRequestStatus.html]] {
        {static} +DRAFT: CommunicationRequestStatus
        {static} +ACTIVE: CommunicationRequestStatus
        {static} +ON_HOLD: CommunicationRequestStatus
        {static} +REVOKED: CommunicationRequestStatus
        {static} +COMPLETED: CommunicationRequestStatus
        {static} +ENTERED_IN_ERROR: CommunicationRequestStatus
        {static} +UNKNOWN: CommunicationRequestStatus
        {static} +of(String): CommunicationRequestStatus
        {static} +of(ValueSet): CommunicationRequestStatus
        {static} +string(String): String
        {static} +code(String): Code
        +toBuilder(): Builder
        {static} +builder(): Builder
    }

    class "<size:14>Code\n<size:10>com.ibm.fhir.model.type" as com.ibm.fhir.model.type.Code [[../Code.html]]
    class "<size:14>CommunicationRequestStatus.Builder\n<size:10>com.ibm.fhir.model.type.code" as com.ibm.fhir.model.type.code.CommunicationRequestStatus.Builder [[CommunicationRequestStatus.Builder.html]]
    enum "<size:14>CommunicationRequestStatus.ValueSet\n<size:10>com.ibm.fhir.model.type.code" as com.ibm.fhir.model.type.code.CommunicationRequestStatus.ValueSet [[CommunicationRequestStatus.ValueSet.html]]

    com.ibm.fhir.model.type.Code <|- - com.ibm.fhir.model.type.code.CommunicationRequestStatus
    com.ibm.fhir.model.type.code.CommunicationRequestStatus +- - com.ibm.fhir.model.type.code.CommunicationRequestStatus.Builder
    com.ibm.fhir.model.type.code.CommunicationRequestStatus +- - com.ibm.fhir.model.type.code.CommunicationRequestStatus.ValueSet

    center footer UMLDoclet 2.0.5, PlantUML 1.2019.08
@enduml

PlantUML version 1.2019.08(Sat Jul 13 15:25:14 EDT 2019)
(APACHE source distribution)
Java Runtime: OpenJDK Runtime Environment
JVM: OpenJDK 64-Bit Server VM
Java Version: 11.0.4+11
Operating System: Mac OS X
OS Version: 10.14.6
Default Encoding: UTF-8
Language: en
Country: US
--></g></svg>