<?xml version="1.0" encoding="UTF-8" standalone="no"?><svg xmlns="http://www.w3.org/2000/svg" xmlns:xlink="http://www.w3.org/1999/xlink" contentScriptType="application/ecmascript" contentStyleType="text/css" height="447px" preserveAspectRatio="none" style="width:591px;height:447px;" version="1.1" viewBox="0 0 591 447" width="591px" zoomAndPan="magnify"><defs><filter height="300%" id="f3dme7vtouf91" width="300%" x="-1" y="-1"><feGaussianBlur result="blurOut" stdDeviation="2.0"/><feColorMatrix in="blurOut" result="blurOut2" type="matrix" values="0 0 0 0 0 0 0 0 0 0 0 0 0 0 0 0 0 0 .4 0"/><feOffset dx="4.0" dy="4.0" in="blurOut2" result="blurOut3"/><feBlend in="SourceGraphic" in2="blurOut3" mode="normal"/></filter></defs><g><!--class com.ibm.fhir.model.type.code.DeviceUseStatementStatus--><a href="DeviceUseStatementStatus.html" target="_top" xlink:actuate="onRequest" xlink:show="new" xlink:title="DeviceUseStatementStatus.html" xlink:type="simple"><rect fill="#FEFECE" filter="url(#f3dme7vtouf91)" height="209.7266" id="com.ibm.fhir.model.type.code.DeviceUseStatementStatus" style="stroke: #A80036; stroke-width: 1.5;" width="280" x="150" y="106"/><ellipse cx="195.75" cy="125.1328" fill="#ADD1B2" rx="11" ry="11" style="stroke: #A80036; stroke-width: 1.0;"/><path d="M198.2231,131.2759 Q197.6421,131.5747 197.0029,131.7241 Q196.3638,131.8735 195.6582,131.8735 Q193.1514,131.8735 191.8315,130.2217 Q190.5117,128.5698 190.5117,125.4487 Q190.5117,122.3193 191.8315,120.6675 Q193.1514,119.0156 195.6582,119.0156 Q196.3638,119.0156 197.0112,119.165 Q197.6587,119.3145 198.2231,119.6133 L198.2231,122.3359 Q197.5923,121.7549 196.9988,121.4851 Q196.4053,121.2153 195.7744,121.2153 Q194.4297,121.2153 193.7449,122.282 Q193.0601,123.3486 193.0601,125.4487 Q193.0601,127.5405 193.7449,128.6072 Q194.4297,129.6738 195.7744,129.6738 Q196.4053,129.6738 196.9988,129.4041 Q197.5923,129.1343 198.2231,128.5532 Z "/><text fill="#000000" font-family="sans-serif" font-size="14" lengthAdjust="spacingAndGlyphs" textLength="180" x="216.25" y="124.5352">DeviceUseStatementStatus</text><text fill="#000000" font-family="sans-serif" font-size="10" lengthAdjust="spacingAndGlyphs" textLength="144" x="234.25" y="137.1563">com.ibm.fhir.model.type.code</text><line style="stroke: #A80036; stroke-width: 1.5;" x1="151" x2="429" y1="144.2656" y2="144.2656"/><ellipse cx="161" cy="156.2432" fill="none" rx="3" ry="3" style="stroke: #038048; stroke-width: 1.0;"/><text fill="#000000" font-family="sans-serif" font-size="11" lengthAdjust="spacingAndGlyphs" text-decoration="underline" textLength="186" x="170" y="158.9004">ACTIVE: DeviceUseStatementStatus</text><ellipse cx="161" cy="169.1982" fill="none" rx="3" ry="3" style="stroke: #038048; stroke-width: 1.0;"/><text fill="#000000" font-family="sans-serif" font-size="11" lengthAdjust="spacingAndGlyphs" text-decoration="underline" textLength="212" x="170" y="171.8555">COMPLETED: DeviceUseStatementStatus</text><ellipse cx="161" cy="182.1533" fill="none" rx="3" ry="3" style="stroke: #038048; stroke-width: 1.0;"/><text fill="#000000" font-family="sans-serif" font-size="11" lengthAdjust="spacingAndGlyphs" text-decoration="underline" textLength="254" x="170" y="184.8105">ENTERED_IN_ERROR: DeviceUseStatementStatus</text><ellipse cx="161" cy="195.1084" fill="none" rx="3" ry="3" style="stroke: #038048; stroke-width: 1.0;"/><text fill="#000000" font-family="sans-serif" font-size="11" lengthAdjust="spacingAndGlyphs" text-decoration="underline" textLength="201" x="170" y="197.7656">INTENDED: DeviceUseStatementStatus</text><ellipse cx="161" cy="208.0635" fill="none" rx="3" ry="3" style="stroke: #038048; stroke-width: 1.0;"/><text fill="#000000" font-family="sans-serif" font-size="11" lengthAdjust="spacingAndGlyphs" text-decoration="underline" textLength="195" x="170" y="210.7207">STOPPED: DeviceUseStatementStatus</text><ellipse cx="161" cy="221.0186" fill="none" rx="3" ry="3" style="stroke: #038048; stroke-width: 1.0;"/><text fill="#000000" font-family="sans-serif" font-size="11" lengthAdjust="spacingAndGlyphs" text-decoration="underline" textLength="201" x="170" y="223.6758">ON_HOLD: DeviceUseStatementStatus</text><line style="stroke: #A80036; stroke-width: 1.5;" x1="151" x2="429" y1="229.9961" y2="229.9961"/><ellipse cx="161" cy="241.9736" fill="#84BE84" rx="3" ry="3" style="stroke: #038048; stroke-width: 1.0;"/><text fill="#000000" font-family="sans-serif" font-size="11" lengthAdjust="spacingAndGlyphs" text-decoration="underline" textLength="198" x="170" y="244.6309">of(String): DeviceUseStatementStatus</text><ellipse cx="161" cy="254.9287" fill="#84BE84" rx="3" ry="3" style="stroke: #038048; stroke-width: 1.0;"/><text fill="#000000" font-family="sans-serif" font-size="11" lengthAdjust="spacingAndGlyphs" text-decoration="underline" textLength="211" x="170" y="257.5859">of(ValueSet): DeviceUseStatementStatus</text><ellipse cx="161" cy="267.8838" fill="#84BE84" rx="3" ry="3" style="stroke: #038048; stroke-width: 1.0;"/><text fill="#000000" font-family="sans-serif" font-size="11" lengthAdjust="spacingAndGlyphs" text-decoration="underline" textLength="110" x="170" y="270.541">string(String): String</text><ellipse cx="161" cy="280.8389" fill="#84BE84" rx="3" ry="3" style="stroke: #038048; stroke-width: 1.0;"/><text fill="#000000" font-family="sans-serif" font-size="11" lengthAdjust="spacingAndGlyphs" text-decoration="underline" textLength="100" x="170" y="283.4961">code(String): Code</text><ellipse cx="161" cy="293.7939" fill="#84BE84" rx="3" ry="3" style="stroke: #038048; stroke-width: 1.0;"/><text fill="#000000" font-family="sans-serif" font-size="11" lengthAdjust="spacingAndGlyphs" textLength="99" x="170" y="296.4512">toBuilder(): Builder</text><ellipse cx="161" cy="306.749" fill="#84BE84" rx="3" ry="3" style="stroke: #038048; stroke-width: 1.0;"/><text fill="#000000" font-family="sans-serif" font-size="11" lengthAdjust="spacingAndGlyphs" text-decoration="underline" textLength="89" x="170" y="309.4063">builder(): Builder</text></a><!--class com.ibm.fhir.model.type.Code--><a href="../Code.html" target="_top" xlink:actuate="onRequest" xlink:show="new" xlink:title="../Code.html" xlink:type="simple"><rect fill="#FEFECE" filter="url(#f3dme7vtouf91)" height="38.2656" id="com.ibm.fhir.model.type.Code" style="stroke: #A80036; stroke-width: 1.5;" width="150" x="215" y="8"/><ellipse cx="230" cy="27.1328" fill="#ADD1B2" rx="11" ry="11" style="stroke: #A80036; stroke-width: 1.0;"/><path d="M232.4731,33.2759 Q231.8921,33.5747 231.2529,33.7241 Q230.6138,33.8735 229.9082,33.8735 Q227.4014,33.8735 226.0815,32.2217 Q224.7617,30.5698 224.7617,27.4487 Q224.7617,24.3193 226.0815,22.6675 Q227.4014,21.0156 229.9082,21.0156 Q230.6138,21.0156 231.2612,21.165 Q231.9087,21.3145 232.4731,21.6133 L232.4731,24.3359 Q231.8423,23.7549 231.2488,23.4851 Q230.6553,23.2153 230.0244,23.2153 Q228.6797,23.2153 227.9949,24.282 Q227.3101,25.3486 227.3101,27.4487 Q227.3101,29.5405 227.9949,30.6072 Q228.6797,31.6738 230.0244,31.6738 Q230.6553,31.6738 231.2488,31.4041 Q231.8423,31.1343 232.4731,30.5532 Z "/><text fill="#000000" font-family="sans-serif" font-size="14" lengthAdjust="spacingAndGlyphs" textLength="36" x="285" y="26.5352">Code</text><text fill="#000000" font-family="sans-serif" font-size="10" lengthAdjust="spacingAndGlyphs" textLength="118" x="244" y="39.1563">com.ibm.fhir.model.type</text></a><!--class com.ibm.fhir.model.type.code.DeviceUseStatementStatus.Builder--><a href="DeviceUseStatementStatus.Builder.html" target="_top" xlink:actuate="onRequest" xlink:show="new" xlink:title="DeviceUseStatementStatus.Builder.html" xlink:type="simple"><rect fill="#FEFECE" filter="url(#f3dme7vtouf91)" height="38.2656" id="com.ibm.fhir.model.type.code.DeviceUseStatementStatus.Builder" style="stroke: #A80036; stroke-width: 1.5;" width="264" x="6" y="376"/><ellipse cx="21" cy="395.1328" fill="#ADD1B2" rx="11" ry="11" style="stroke: #A80036; stroke-width: 1.0;"/><path d="M23.4731,401.2759 Q22.8921,401.5747 22.2529,401.7241 Q21.6138,401.8735 20.9082,401.8735 Q18.4014,401.8735 17.0815,400.2217 Q15.7617,398.5698 15.7617,395.4487 Q15.7617,392.3193 17.0815,390.6675 Q18.4014,389.0156 20.9082,389.0156 Q21.6138,389.0156 22.2612,389.165 Q22.9087,389.3145 23.4731,389.6133 L23.4731,392.3359 Q22.8423,391.7549 22.2488,391.4851 Q21.6553,391.2153 21.0244,391.2153 Q19.6797,391.2153 18.9949,392.282 Q18.3101,393.3486 18.3101,395.4487 Q18.3101,397.5405 18.9949,398.6072 Q19.6797,399.6738 21.0244,399.6738 Q21.6553,399.6738 22.2488,399.4041 Q22.8423,399.1343 23.4731,398.5532 Z "/><text fill="#000000" font-family="sans-serif" font-size="14" lengthAdjust="spacingAndGlyphs" textLength="232" x="35" y="394.5352">DeviceUseStatementStatus.Builder</text><text fill="#000000" font-family="sans-serif" font-size="10" lengthAdjust="spacingAndGlyphs" textLength="144" x="79" y="407.1563">com.ibm.fhir.model.type.code</text></a><!--class com.ibm.fhir.model.type.code.DeviceUseStatementStatus.ValueSet--><a href="DeviceUseStatementStatus.ValueSet.html" target="_top" xlink:actuate="onRequest" xlink:show="new" xlink:title="DeviceUseStatementStatus.ValueSet.html" xlink:type="simple"><rect fill="#FEFECE" filter="url(#f3dme7vtouf91)" height="38.2656" id="com.ibm.fhir.model.type.code.DeviceUseStatementStatus.ValueSet" style="stroke: #A80036; stroke-width: 1.5;" width="275" x="305.5" y="376"/><ellipse cx="320.5" cy="395.1328" fill="#EB937F" rx="11" ry="11" style="stroke: #A80036; stroke-width: 1.0;"/><path d="M324.1143,401.6328 L316.3945,401.6328 L316.3945,389.2397 L324.1143,389.2397 L324.1143,391.3979 L318.8433,391.3979 L318.8433,394.0708 L323.6162,394.0708 L323.6162,396.229 L318.8433,396.229 L318.8433,399.4746 L324.1143,399.4746 Z "/><text fill="#000000" font-family="sans-serif" font-size="14" lengthAdjust="spacingAndGlyphs" textLength="243" x="334.5" y="394.5352">DeviceUseStatementStatus.ValueSet</text><text fill="#000000" font-family="sans-serif" font-size="10" lengthAdjust="spacingAndGlyphs" textLength="144" x="384" y="407.1563">com.ibm.fhir.model.type.code</text></a><!--link com.ibm.fhir.model.type.Code to com.ibm.fhir.model.type.code.DeviceUseStatementStatus--><path d="M290,66.5806 C290,78.394 290,91.938 290,105.8928 " fill="none" id="com.ibm.fhir.model.type.Code-com.ibm.fhir.model.type.code.DeviceUseStatementStatus" style="stroke: #A80036; stroke-width: 1.0;"/><polygon fill="none" points="283.0001,66.3435,290,46.3435,297.0001,66.3434,283.0001,66.3435" style="stroke: #A80036; stroke-width: 1.0;"/><!--link com.ibm.fhir.model.type.code.DeviceUseStatementStatus to com.ibm.fhir.model.type.code.DeviceUseStatementStatus.Builder--><path d="M193.4234,327.9085 C178.057,346.5099 163.9043,363.6421 153.7469,375.9379 " fill="none" id="com.ibm.fhir.model.type.code.DeviceUseStatementStatus-com.ibm.fhir.model.type.code.DeviceUseStatementStatus.Builder" style="stroke: #A80036; stroke-width: 1.0;"/><ellipse cx="198.0282" cy="322.3344" fill="#FFFFFF" rx="8" ry="8" style="stroke: #A80036; stroke-width: 1.0;"/><line style="stroke: #A80036; stroke-width: 1.0;" x1="192.9331" x2="203.1232" y1="328.5021" y2="316.1667"/><line style="stroke: #A80036; stroke-width: 1.0;" x1="191.8605" x2="204.1959" y1="317.2394" y2="327.4294"/><!--link com.ibm.fhir.model.type.code.DeviceUseStatementStatus to com.ibm.fhir.model.type.code.DeviceUseStatementStatus.ValueSet--><path d="M387.2119,327.9085 C402.6794,346.5099 416.9252,363.6421 427.1495,375.9379 " fill="none" id="com.ibm.fhir.model.type.code.DeviceUseStatementStatus-com.ibm.fhir.model.type.code.DeviceUseStatementStatus.ValueSet" style="stroke: #A80036; stroke-width: 1.0;"/><ellipse cx="382.5633" cy="322.3179" fill="#FFFFFF" rx="8" ry="8" style="stroke: #A80036; stroke-width: 1.0;"/><line style="stroke: #A80036; stroke-width: 1.0;" x1="387.6782" x2="377.4484" y1="328.4692" y2="316.1667"/><line style="stroke: #A80036; stroke-width: 1.0;" x1="376.4121" x2="388.7145" y1="327.4328" y2="317.203"/><text fill="#888888" font-family="sans-serif" font-size="10" lengthAdjust="spacingAndGlyphs" textLength="182" x="208.5" y="433.668">UMLDoclet 2.0.5, PlantUML 1.2019.08</text><!--
@startuml
    set namespaceSeparator none
    hide empty fields
    hide empty methods

    class "<size:14>DeviceUseStatementStatus\n<size:10>com.ibm.fhir.model.type.code" as com.ibm.fhir.model.type.code.DeviceUseStatementStatus [[DeviceUseStatementStatus.html]] {
        {static} +ACTIVE: DeviceUseStatementStatus
        {static} +COMPLETED: DeviceUseStatementStatus
        {static} +ENTERED_IN_ERROR: DeviceUseStatementStatus
        {static} +INTENDED: DeviceUseStatementStatus
        {static} +STOPPED: DeviceUseStatementStatus
        {static} +ON_HOLD: DeviceUseStatementStatus
        {static} +of(String): DeviceUseStatementStatus
        {static} +of(ValueSet): DeviceUseStatementStatus
        {static} +string(String): String
        {static} +code(String): Code
        +toBuilder(): Builder
        {static} +builder(): Builder
    }

    class "<size:14>Code\n<size:10>com.ibm.fhir.model.type" as com.ibm.fhir.model.type.Code [[../Code.html]]
    class "<size:14>DeviceUseStatementStatus.Builder\n<size:10>com.ibm.fhir.model.type.code" as com.ibm.fhir.model.type.code.DeviceUseStatementStatus.Builder [[DeviceUseStatementStatus.Builder.html]]
    enum "<size:14>DeviceUseStatementStatus.ValueSet\n<size:10>com.ibm.fhir.model.type.code" as com.ibm.fhir.model.type.code.DeviceUseStatementStatus.ValueSet [[DeviceUseStatementStatus.ValueSet.html]]

    com.ibm.fhir.model.type.Code <|- - com.ibm.fhir.model.type.code.DeviceUseStatementStatus
    com.ibm.fhir.model.type.code.DeviceUseStatementStatus +- - com.ibm.fhir.model.type.code.DeviceUseStatementStatus.Builder
    com.ibm.fhir.model.type.code.DeviceUseStatementStatus +- - com.ibm.fhir.model.type.code.DeviceUseStatementStatus.ValueSet

    center footer UMLDoclet 2.0.5, PlantUML 1.2019.08
@enduml

PlantUML version 1.2019.08(Sat Jul 13 15:25:14 EDT 2019)
(APACHE source distribution)
Java Runtime: OpenJDK Runtime Environment
JVM: OpenJDK 64-Bit Server VM
Java Version: 11.0.4+11
Operating System: Mac OS X
OS Version: 10.14.6
Default Encoding: UTF-8
Language: en
Country: US
--></g></svg>