<?xml version="1.0" encoding="UTF-8" standalone="no"?><svg xmlns="http://www.w3.org/2000/svg" xmlns:xlink="http://www.w3.org/1999/xlink" contentScriptType="application/ecmascript" contentStyleType="text/css" height="486px" preserveAspectRatio="none" style="width:455px;height:486px;" version="1.1" viewBox="0 0 455 486" width="455px" zoomAndPan="magnify"><defs><filter height="300%" id="f1ktm4vk84sy7b" width="300%" x="-1" y="-1"><feGaussianBlur result="blurOut" stdDeviation="2.0"/><feColorMatrix in="blurOut" result="blurOut2" type="matrix" values="0 0 0 0 0 0 0 0 0 0 0 0 0 0 0 0 0 0 .4 0"/><feOffset dx="4.0" dy="4.0" in="blurOut2" result="blurOut3"/><feBlend in="SourceGraphic" in2="blurOut3" mode="normal"/></filter></defs><g><!--class com.ibm.fhir.model.type.code.EncounterStatus--><a href="EncounterStatus.html" target="_top" xlink:actuate="onRequest" xlink:show="new" xlink:title="EncounterStatus.html" xlink:type="simple"><rect fill="#FEFECE" filter="url(#f1ktm4vk84sy7b)" height="248.5918" id="com.ibm.fhir.model.type.code.EncounterStatus" style="stroke: #A80036; stroke-width: 1.5;" width="227" x="108.5" y="106"/><ellipse cx="146.45" cy="125.1328" fill="#ADD1B2" rx="11" ry="11" style="stroke: #A80036; stroke-width: 1.0;"/><path d="M148.9231,131.2759 Q148.3421,131.5747 147.7029,131.7241 Q147.0638,131.8735 146.3582,131.8735 Q143.8514,131.8735 142.5315,130.2217 Q141.2117,128.5698 141.2117,125.4487 Q141.2117,122.3193 142.5315,120.6675 Q143.8514,119.0156 146.3582,119.0156 Q147.0638,119.0156 147.7112,119.165 Q148.3587,119.3145 148.9231,119.6133 L148.9231,122.3359 Q148.2923,121.7549 147.6988,121.4851 Q147.1053,121.2153 146.4744,121.2153 Q145.1297,121.2153 144.4449,122.282 Q143.7601,123.3486 143.7601,125.4487 Q143.7601,127.5405 144.4449,128.6072 Q145.1297,129.6738 146.4744,129.6738 Q147.1053,129.6738 147.6988,129.4041 Q148.2923,129.1343 148.9231,128.5532 Z "/><text fill="#000000" font-family="sans-serif" font-size="14" lengthAdjust="spacingAndGlyphs" textLength="112" x="181.55" y="124.5352">EncounterStatus</text><text fill="#000000" font-family="sans-serif" font-size="10" lengthAdjust="spacingAndGlyphs" textLength="144" x="165.55" y="137.1563">com.ibm.fhir.model.type.code</text><line style="stroke: #A80036; stroke-width: 1.5;" x1="109.5" x2="334.5" y1="144.2656" y2="144.2656"/><ellipse cx="119.5" cy="156.2432" fill="none" rx="3" ry="3" style="stroke: #038048; stroke-width: 1.0;"/><text fill="#000000" font-family="sans-serif" font-size="11" lengthAdjust="spacingAndGlyphs" text-decoration="underline" textLength="144" x="128.5" y="158.9004">PLANNED: EncounterStatus</text><ellipse cx="119.5" cy="169.1982" fill="none" rx="3" ry="3" style="stroke: #038048; stroke-width: 1.0;"/><text fill="#000000" font-family="sans-serif" font-size="11" lengthAdjust="spacingAndGlyphs" text-decoration="underline" textLength="140" x="128.5" y="171.8555">ARRIVED: EncounterStatus</text><ellipse cx="119.5" cy="182.1533" fill="none" rx="3" ry="3" style="stroke: #038048; stroke-width: 1.0;"/><text fill="#000000" font-family="sans-serif" font-size="11" lengthAdjust="spacingAndGlyphs" text-decoration="underline" textLength="141" x="128.5" y="184.8105">TRIAGED: EncounterStatus</text><ellipse cx="119.5" cy="195.1084" fill="none" rx="3" ry="3" style="stroke: #038048; stroke-width: 1.0;"/><text fill="#000000" font-family="sans-serif" font-size="11" lengthAdjust="spacingAndGlyphs" text-decoration="underline" textLength="166" x="128.5" y="197.7656">IN_PROGRESS: EncounterStatus</text><ellipse cx="119.5" cy="208.0635" fill="none" rx="3" ry="3" style="stroke: #038048; stroke-width: 1.0;"/><text fill="#000000" font-family="sans-serif" font-size="11" lengthAdjust="spacingAndGlyphs" text-decoration="underline" textLength="144" x="128.5" y="210.7207">ONLEAVE: EncounterStatus</text><ellipse cx="119.5" cy="221.0186" fill="none" rx="3" ry="3" style="stroke: #038048; stroke-width: 1.0;"/><text fill="#000000" font-family="sans-serif" font-size="11" lengthAdjust="spacingAndGlyphs" text-decoration="underline" textLength="142" x="128.5" y="223.6758">FINISHED: EncounterStatus</text><ellipse cx="119.5" cy="233.9736" fill="none" rx="3" ry="3" style="stroke: #038048; stroke-width: 1.0;"/><text fill="#000000" font-family="sans-serif" font-size="11" lengthAdjust="spacingAndGlyphs" text-decoration="underline" textLength="158" x="128.5" y="236.6309">CANCELLED: EncounterStatus</text><ellipse cx="119.5" cy="246.9287" fill="none" rx="3" ry="3" style="stroke: #038048; stroke-width: 1.0;"/><text fill="#000000" font-family="sans-serif" font-size="11" lengthAdjust="spacingAndGlyphs" text-decoration="underline" textLength="201" x="128.5" y="249.5859">ENTERED_IN_ERROR: EncounterStatus</text><ellipse cx="119.5" cy="259.8838" fill="none" rx="3" ry="3" style="stroke: #038048; stroke-width: 1.0;"/><text fill="#000000" font-family="sans-serif" font-size="11" lengthAdjust="spacingAndGlyphs" text-decoration="underline" textLength="151" x="128.5" y="262.541">UNKNOWN: EncounterStatus</text><line style="stroke: #A80036; stroke-width: 1.5;" x1="109.5" x2="334.5" y1="268.8613" y2="268.8613"/><ellipse cx="119.5" cy="280.8389" fill="#84BE84" rx="3" ry="3" style="stroke: #038048; stroke-width: 1.0;"/><text fill="#000000" font-family="sans-serif" font-size="11" lengthAdjust="spacingAndGlyphs" text-decoration="underline" textLength="145" x="128.5" y="283.4961">of(String): EncounterStatus</text><ellipse cx="119.5" cy="293.7939" fill="#84BE84" rx="3" ry="3" style="stroke: #038048; stroke-width: 1.0;"/><text fill="#000000" font-family="sans-serif" font-size="11" lengthAdjust="spacingAndGlyphs" text-decoration="underline" textLength="158" x="128.5" y="296.4512">of(ValueSet): EncounterStatus</text><ellipse cx="119.5" cy="306.749" fill="#84BE84" rx="3" ry="3" style="stroke: #038048; stroke-width: 1.0;"/><text fill="#000000" font-family="sans-serif" font-size="11" lengthAdjust="spacingAndGlyphs" text-decoration="underline" textLength="110" x="128.5" y="309.4063">string(String): String</text><ellipse cx="119.5" cy="319.7041" fill="#84BE84" rx="3" ry="3" style="stroke: #038048; stroke-width: 1.0;"/><text fill="#000000" font-family="sans-serif" font-size="11" lengthAdjust="spacingAndGlyphs" text-decoration="underline" textLength="100" x="128.5" y="322.3613">code(String): Code</text><ellipse cx="119.5" cy="332.6592" fill="#84BE84" rx="3" ry="3" style="stroke: #038048; stroke-width: 1.0;"/><text fill="#000000" font-family="sans-serif" font-size="11" lengthAdjust="spacingAndGlyphs" textLength="99" x="128.5" y="335.3164">toBuilder(): Builder</text><ellipse cx="119.5" cy="345.6143" fill="#84BE84" rx="3" ry="3" style="stroke: #038048; stroke-width: 1.0;"/><text fill="#000000" font-family="sans-serif" font-size="11" lengthAdjust="spacingAndGlyphs" text-decoration="underline" textLength="89" x="128.5" y="348.2715">builder(): Builder</text></a><!--class com.ibm.fhir.model.type.Code--><a href="../Code.html" target="_top" xlink:actuate="onRequest" xlink:show="new" xlink:title="../Code.html" xlink:type="simple"><rect fill="#FEFECE" filter="url(#f1ktm4vk84sy7b)" height="38.2656" id="com.ibm.fhir.model.type.Code" style="stroke: #A80036; stroke-width: 1.5;" width="150" x="147" y="8"/><ellipse cx="162" cy="27.1328" fill="#ADD1B2" rx="11" ry="11" style="stroke: #A80036; stroke-width: 1.0;"/><path d="M164.4731,33.2759 Q163.8921,33.5747 163.2529,33.7241 Q162.6138,33.8735 161.9082,33.8735 Q159.4014,33.8735 158.0815,32.2217 Q156.7617,30.5698 156.7617,27.4487 Q156.7617,24.3193 158.0815,22.6675 Q159.4014,21.0156 161.9082,21.0156 Q162.6138,21.0156 163.2612,21.165 Q163.9087,21.3145 164.4731,21.6133 L164.4731,24.3359 Q163.8423,23.7549 163.2488,23.4851 Q162.6553,23.2153 162.0244,23.2153 Q160.6797,23.2153 159.9949,24.282 Q159.3101,25.3486 159.3101,27.4487 Q159.3101,29.5405 159.9949,30.6072 Q160.6797,31.6738 162.0244,31.6738 Q162.6553,31.6738 163.2488,31.4041 Q163.8423,31.1343 164.4731,30.5532 Z "/><text fill="#000000" font-family="sans-serif" font-size="14" lengthAdjust="spacingAndGlyphs" textLength="36" x="217" y="26.5352">Code</text><text fill="#000000" font-family="sans-serif" font-size="10" lengthAdjust="spacingAndGlyphs" textLength="118" x="176" y="39.1563">com.ibm.fhir.model.type</text></a><!--class com.ibm.fhir.model.type.code.EncounterStatus.Builder--><a href="EncounterStatus.Builder.html" target="_top" xlink:actuate="onRequest" xlink:show="new" xlink:title="EncounterStatus.Builder.html" xlink:type="simple"><rect fill="#FEFECE" filter="url(#f1ktm4vk84sy7b)" height="38.2656" id="com.ibm.fhir.model.type.code.EncounterStatus.Builder" style="stroke: #A80036; stroke-width: 1.5;" width="196" x="6" y="415"/><ellipse cx="21" cy="434.1328" fill="#ADD1B2" rx="11" ry="11" style="stroke: #A80036; stroke-width: 1.0;"/><path d="M23.4731,440.2759 Q22.8921,440.5747 22.2529,440.7241 Q21.6138,440.8735 20.9082,440.8735 Q18.4014,440.8735 17.0815,439.2217 Q15.7617,437.5698 15.7617,434.4487 Q15.7617,431.3193 17.0815,429.6675 Q18.4014,428.0156 20.9082,428.0156 Q21.6138,428.0156 22.2612,428.165 Q22.9087,428.3145 23.4731,428.6133 L23.4731,431.3359 Q22.8423,430.7549 22.2488,430.4851 Q21.6553,430.2153 21.0244,430.2153 Q19.6797,430.2153 18.9949,431.282 Q18.3101,432.3486 18.3101,434.4487 Q18.3101,436.5405 18.9949,437.6072 Q19.6797,438.6738 21.0244,438.6738 Q21.6553,438.6738 22.2488,438.4041 Q22.8423,438.1343 23.4731,437.5532 Z "/><text fill="#000000" font-family="sans-serif" font-size="14" lengthAdjust="spacingAndGlyphs" textLength="164" x="35" y="433.5352">EncounterStatus.Builder</text><text fill="#000000" font-family="sans-serif" font-size="10" lengthAdjust="spacingAndGlyphs" textLength="144" x="45" y="446.1563">com.ibm.fhir.model.type.code</text></a><!--class com.ibm.fhir.model.type.code.EncounterStatus.ValueSet--><a href="EncounterStatus.ValueSet.html" target="_top" xlink:actuate="onRequest" xlink:show="new" xlink:title="EncounterStatus.ValueSet.html" xlink:type="simple"><rect fill="#FEFECE" filter="url(#f1ktm4vk84sy7b)" height="38.2656" id="com.ibm.fhir.model.type.code.EncounterStatus.ValueSet" style="stroke: #A80036; stroke-width: 1.5;" width="207" x="237.5" y="415"/><ellipse cx="252.5" cy="434.1328" fill="#EB937F" rx="11" ry="11" style="stroke: #A80036; stroke-width: 1.0;"/><path d="M256.1143,440.6328 L248.3945,440.6328 L248.3945,428.2397 L256.1143,428.2397 L256.1143,430.3979 L250.8433,430.3979 L250.8433,433.0708 L255.6162,433.0708 L255.6162,435.229 L250.8433,435.229 L250.8433,438.4746 L256.1143,438.4746 Z "/><text fill="#000000" font-family="sans-serif" font-size="14" lengthAdjust="spacingAndGlyphs" textLength="175" x="266.5" y="433.5352">EncounterStatus.ValueSet</text><text fill="#000000" font-family="sans-serif" font-size="10" lengthAdjust="spacingAndGlyphs" textLength="144" x="282" y="446.1563">com.ibm.fhir.model.type.code</text></a><!--link com.ibm.fhir.model.type.Code to com.ibm.fhir.model.type.code.EncounterStatus--><path d="M222,66.1693 C222,77.9091 222,91.4661 222,105.6557 " fill="none" id="com.ibm.fhir.model.type.Code-com.ibm.fhir.model.type.code.EncounterStatus" style="stroke: #A80036; stroke-width: 1.0;"/><polygon fill="none" points="215.0001,66.1448,222,46.1448,229.0001,66.1448,215.0001,66.1448" style="stroke: #A80036; stroke-width: 1.0;"/><!--link com.ibm.fhir.model.type.code.EncounterStatus to com.ibm.fhir.model.type.code.EncounterStatus.Builder--><path d="M142.1183,368.2622 C131.5276,386.5266 121.9675,403.0136 115.0705,414.9081 " fill="none" id="com.ibm.fhir.model.type.code.EncounterStatus-com.ibm.fhir.model.type.code.EncounterStatus.Builder" style="stroke: #A80036; stroke-width: 1.0;"/><ellipse cx="145.7778" cy="361.951" fill="#FFFFFF" rx="8" ry="8" style="stroke: #A80036; stroke-width: 1.0;"/><line style="stroke: #A80036; stroke-width: 1.0;" x1="141.7648" x2="149.7908" y1="368.8716" y2="355.0303"/><line style="stroke: #A80036; stroke-width: 1.0;" x1="138.8571" x2="152.6985" y1="357.938" y2="365.964"/><!--link com.ibm.fhir.model.type.code.EncounterStatus to com.ibm.fhir.model.type.code.EncounterStatus.ValueSet--><path d="M302.4038,367.9973 C313.1459,386.3672 322.8466,402.9562 329.8357,414.9081 " fill="none" id="com.ibm.fhir.model.type.code.EncounterStatus-com.ibm.fhir.model.type.code.EncounterStatus.ValueSet" style="stroke: #A80036; stroke-width: 1.0;"/><ellipse cx="298.8596" cy="361.9362" fill="#FFFFFF" rx="8" ry="8" style="stroke: #A80036; stroke-width: 1.0;"/><line style="stroke: #A80036; stroke-width: 1.0;" x1="302.898" x2="294.8212" y1="368.8421" y2="355.0303"/><line style="stroke: #A80036; stroke-width: 1.0;" x1="291.9537" x2="305.7655" y1="365.9746" y2="357.8978"/><text fill="#888888" font-family="sans-serif" font-size="10" lengthAdjust="spacingAndGlyphs" textLength="182" x="140.5" y="472.668">UMLDoclet 2.0.5, PlantUML 1.2019.08</text><!--
@startuml
    set namespaceSeparator none
    hide empty fields
    hide empty methods

    class "<size:14>EncounterStatus\n<size:10>com.ibm.fhir.model.type.code" as com.ibm.fhir.model.type.code.EncounterStatus [[EncounterStatus.html]] {
        {static} +PLANNED: EncounterStatus
        {static} +ARRIVED: EncounterStatus
        {static} +TRIAGED: EncounterStatus
        {static} +IN_PROGRESS: EncounterStatus
        {static} +ONLEAVE: EncounterStatus
        {static} +FINISHED: EncounterStatus
        {static} +CANCELLED: EncounterStatus
        {static} +ENTERED_IN_ERROR: EncounterStatus
        {static} +UNKNOWN: EncounterStatus
        {static} +of(String): EncounterStatus
        {static} +of(ValueSet): EncounterStatus
        {static} +string(String): String
        {static} +code(String): Code
        +toBuilder(): Builder
        {static} +builder(): Builder
    }

    class "<size:14>Code\n<size:10>com.ibm.fhir.model.type" as com.ibm.fhir.model.type.Code [[../Code.html]]
    class "<size:14>EncounterStatus.Builder\n<size:10>com.ibm.fhir.model.type.code" as com.ibm.fhir.model.type.code.EncounterStatus.Builder [[EncounterStatus.Builder.html]]
    enum "<size:14>EncounterStatus.ValueSet\n<size:10>com.ibm.fhir.model.type.code" as com.ibm.fhir.model.type.code.EncounterStatus.ValueSet [[EncounterStatus.ValueSet.html]]

    com.ibm.fhir.model.type.Code <|- - com.ibm.fhir.model.type.code.EncounterStatus
    com.ibm.fhir.model.type.code.EncounterStatus +- - com.ibm.fhir.model.type.code.EncounterStatus.Builder
    com.ibm.fhir.model.type.code.EncounterStatus +- - com.ibm.fhir.model.type.code.EncounterStatus.ValueSet

    center footer UMLDoclet 2.0.5, PlantUML 1.2019.08
@enduml

PlantUML version 1.2019.08(Sat Jul 13 15:25:14 EDT 2019)
(APACHE source distribution)
Java Runtime: OpenJDK Runtime Environment
JVM: OpenJDK 64-Bit Server VM
Java Version: 11.0.4+11
Operating System: Mac OS X
OS Version: 10.14.6
Default Encoding: UTF-8
Language: en
Country: US
--></g></svg>