<?xml version="1.0" encoding="UTF-8" standalone="no"?><svg xmlns="http://www.w3.org/2000/svg" xmlns:xlink="http://www.w3.org/1999/xlink" contentScriptType="application/ecmascript" contentStyleType="text/css" height="421px" preserveAspectRatio="none" style="width:605px;height:421px;" version="1.1" viewBox="0 0 605 421" width="605px" zoomAndPan="magnify"><defs><filter height="300%" id="f6nba6nt6ubdh" width="300%" x="-1" y="-1"><feGaussianBlur result="blurOut" stdDeviation="2.0"/><feColorMatrix in="blurOut" result="blurOut2" type="matrix" values="0 0 0 0 0 0 0 0 0 0 0 0 0 0 0 0 0 0 .4 0"/><feOffset dx="4.0" dy="4.0" in="blurOut2" result="blurOut3"/><feBlend in="SourceGraphic" in2="blurOut3" mode="normal"/></filter></defs><g><!--class com.ibm.fhir.model.type.code.ExplanationOfBenefitStatus--><a href="ExplanationOfBenefitStatus.html" target="_top" xlink:actuate="onRequest" xlink:show="new" xlink:title="ExplanationOfBenefitStatus.html" xlink:type="simple"><rect fill="#FEFECE" filter="url(#f6nba6nt6ubdh)" height="183.8164" id="com.ibm.fhir.model.type.code.ExplanationOfBenefitStatus" style="stroke: #A80036; stroke-width: 1.5;" width="284" x="155.5" y="106"/><ellipse cx="199.75" cy="125.1328" fill="#ADD1B2" rx="11" ry="11" style="stroke: #A80036; stroke-width: 1.0;"/><path d="M202.2231,131.2759 Q201.6421,131.5747 201.0029,131.7241 Q200.3638,131.8735 199.6582,131.8735 Q197.1514,131.8735 195.8315,130.2217 Q194.5117,128.5698 194.5117,125.4487 Q194.5117,122.3193 195.8315,120.6675 Q197.1514,119.0156 199.6582,119.0156 Q200.3638,119.0156 201.0112,119.165 Q201.6587,119.3145 202.2231,119.6133 L202.2231,122.3359 Q201.5923,121.7549 200.9988,121.4851 Q200.4053,121.2153 199.7744,121.2153 Q198.4297,121.2153 197.7449,122.282 Q197.0601,123.3486 197.0601,125.4487 Q197.0601,127.5405 197.7449,128.6072 Q198.4297,129.6738 199.7744,129.6738 Q200.4053,129.6738 200.9988,129.4041 Q201.5923,129.1343 202.2231,128.5532 Z "/><text fill="#000000" font-family="sans-serif" font-size="14" lengthAdjust="spacingAndGlyphs" textLength="187" x="220.25" y="124.5352">ExplanationOfBenefitStatus</text><text fill="#000000" font-family="sans-serif" font-size="10" lengthAdjust="spacingAndGlyphs" textLength="144" x="241.75" y="137.1563">com.ibm.fhir.model.type.code</text><line style="stroke: #A80036; stroke-width: 1.5;" x1="156.5" x2="438.5" y1="144.2656" y2="144.2656"/><ellipse cx="166.5" cy="156.2432" fill="none" rx="3" ry="3" style="stroke: #038048; stroke-width: 1.0;"/><text fill="#000000" font-family="sans-serif" font-size="11" lengthAdjust="spacingAndGlyphs" text-decoration="underline" textLength="190" x="175.5" y="158.9004">ACTIVE: ExplanationOfBenefitStatus</text><ellipse cx="166.5" cy="169.1982" fill="none" rx="3" ry="3" style="stroke: #038048; stroke-width: 1.0;"/><text fill="#000000" font-family="sans-serif" font-size="11" lengthAdjust="spacingAndGlyphs" text-decoration="underline" textLength="215" x="175.5" y="171.8555">CANCELLED: ExplanationOfBenefitStatus</text><ellipse cx="166.5" cy="182.1533" fill="none" rx="3" ry="3" style="stroke: #038048; stroke-width: 1.0;"/><text fill="#000000" font-family="sans-serif" font-size="11" lengthAdjust="spacingAndGlyphs" text-decoration="underline" textLength="187" x="175.5" y="184.8105">DRAFT: ExplanationOfBenefitStatus</text><ellipse cx="166.5" cy="195.1084" fill="none" rx="3" ry="3" style="stroke: #038048; stroke-width: 1.0;"/><text fill="#000000" font-family="sans-serif" font-size="11" lengthAdjust="spacingAndGlyphs" text-decoration="underline" textLength="258" x="175.5" y="197.7656">ENTERED_IN_ERROR: ExplanationOfBenefitStatus</text><line style="stroke: #A80036; stroke-width: 1.5;" x1="156.5" x2="438.5" y1="204.0859" y2="204.0859"/><ellipse cx="166.5" cy="216.0635" fill="#84BE84" rx="3" ry="3" style="stroke: #038048; stroke-width: 1.0;"/><text fill="#000000" font-family="sans-serif" font-size="11" lengthAdjust="spacingAndGlyphs" text-decoration="underline" textLength="202" x="175.5" y="218.7207">of(String): ExplanationOfBenefitStatus</text><ellipse cx="166.5" cy="229.0186" fill="#84BE84" rx="3" ry="3" style="stroke: #038048; stroke-width: 1.0;"/><text fill="#000000" font-family="sans-serif" font-size="11" lengthAdjust="spacingAndGlyphs" text-decoration="underline" textLength="215" x="175.5" y="231.6758">of(ValueSet): ExplanationOfBenefitStatus</text><ellipse cx="166.5" cy="241.9736" fill="#84BE84" rx="3" ry="3" style="stroke: #038048; stroke-width: 1.0;"/><text fill="#000000" font-family="sans-serif" font-size="11" lengthAdjust="spacingAndGlyphs" text-decoration="underline" textLength="110" x="175.5" y="244.6309">string(String): String</text><ellipse cx="166.5" cy="254.9287" fill="#84BE84" rx="3" ry="3" style="stroke: #038048; stroke-width: 1.0;"/><text fill="#000000" font-family="sans-serif" font-size="11" lengthAdjust="spacingAndGlyphs" text-decoration="underline" textLength="100" x="175.5" y="257.5859">code(String): Code</text><ellipse cx="166.5" cy="267.8838" fill="#84BE84" rx="3" ry="3" style="stroke: #038048; stroke-width: 1.0;"/><text fill="#000000" font-family="sans-serif" font-size="11" lengthAdjust="spacingAndGlyphs" textLength="99" x="175.5" y="270.541">toBuilder(): Builder</text><ellipse cx="166.5" cy="280.8389" fill="#84BE84" rx="3" ry="3" style="stroke: #038048; stroke-width: 1.0;"/><text fill="#000000" font-family="sans-serif" font-size="11" lengthAdjust="spacingAndGlyphs" text-decoration="underline" textLength="89" x="175.5" y="283.4961">builder(): Builder</text></a><!--class com.ibm.fhir.model.type.Code--><a href="../Code.html" target="_top" xlink:actuate="onRequest" xlink:show="new" xlink:title="../Code.html" xlink:type="simple"><rect fill="#FEFECE" filter="url(#f6nba6nt6ubdh)" height="38.2656" id="com.ibm.fhir.model.type.Code" style="stroke: #A80036; stroke-width: 1.5;" width="150" x="222.5" y="8"/><ellipse cx="237.5" cy="27.1328" fill="#ADD1B2" rx="11" ry="11" style="stroke: #A80036; stroke-width: 1.0;"/><path d="M239.9731,33.2759 Q239.3921,33.5747 238.7529,33.7241 Q238.1138,33.8735 237.4082,33.8735 Q234.9014,33.8735 233.5815,32.2217 Q232.2617,30.5698 232.2617,27.4487 Q232.2617,24.3193 233.5815,22.6675 Q234.9014,21.0156 237.4082,21.0156 Q238.1138,21.0156 238.7612,21.165 Q239.4087,21.3145 239.9731,21.6133 L239.9731,24.3359 Q239.3423,23.7549 238.7488,23.4851 Q238.1553,23.2153 237.5244,23.2153 Q236.1797,23.2153 235.4949,24.282 Q234.8101,25.3486 234.8101,27.4487 Q234.8101,29.5405 235.4949,30.6072 Q236.1797,31.6738 237.5244,31.6738 Q238.1553,31.6738 238.7488,31.4041 Q239.3423,31.1343 239.9731,30.5532 Z "/><text fill="#000000" font-family="sans-serif" font-size="14" lengthAdjust="spacingAndGlyphs" textLength="36" x="292.5" y="26.5352">Code</text><text fill="#000000" font-family="sans-serif" font-size="10" lengthAdjust="spacingAndGlyphs" textLength="118" x="251.5" y="39.1563">com.ibm.fhir.model.type</text></a><!--class com.ibm.fhir.model.type.code.ExplanationOfBenefitStatus.Builder--><a href="ExplanationOfBenefitStatus.Builder.html" target="_top" xlink:actuate="onRequest" xlink:show="new" xlink:title="ExplanationOfBenefitStatus.Builder.html" xlink:type="simple"><rect fill="#FEFECE" filter="url(#f6nba6nt6ubdh)" height="38.2656" id="com.ibm.fhir.model.type.code.ExplanationOfBenefitStatus.Builder" style="stroke: #A80036; stroke-width: 1.5;" width="271" x="6" y="350"/><ellipse cx="21" cy="369.1328" fill="#ADD1B2" rx="11" ry="11" style="stroke: #A80036; stroke-width: 1.0;"/><path d="M23.4731,375.2759 Q22.8921,375.5747 22.2529,375.7241 Q21.6138,375.8735 20.9082,375.8735 Q18.4014,375.8735 17.0815,374.2217 Q15.7617,372.5698 15.7617,369.4487 Q15.7617,366.3193 17.0815,364.6675 Q18.4014,363.0156 20.9082,363.0156 Q21.6138,363.0156 22.2612,363.165 Q22.9087,363.3145 23.4731,363.6133 L23.4731,366.3359 Q22.8423,365.7549 22.2488,365.4851 Q21.6553,365.2153 21.0244,365.2153 Q19.6797,365.2153 18.9949,366.282 Q18.3101,367.3486 18.3101,369.4487 Q18.3101,371.5405 18.9949,372.6072 Q19.6797,373.6738 21.0244,373.6738 Q21.6553,373.6738 22.2488,373.4041 Q22.8423,373.1343 23.4731,372.5532 Z "/><text fill="#000000" font-family="sans-serif" font-size="14" lengthAdjust="spacingAndGlyphs" textLength="239" x="35" y="368.5352">ExplanationOfBenefitStatus.Builder</text><text fill="#000000" font-family="sans-serif" font-size="10" lengthAdjust="spacingAndGlyphs" textLength="144" x="82.5" y="381.1563">com.ibm.fhir.model.type.code</text></a><!--class com.ibm.fhir.model.type.code.ExplanationOfBenefitStatus.ValueSet--><a href="ExplanationOfBenefitStatus.ValueSet.html" target="_top" xlink:actuate="onRequest" xlink:show="new" xlink:title="ExplanationOfBenefitStatus.ValueSet.html" xlink:type="simple"><rect fill="#FEFECE" filter="url(#f6nba6nt6ubdh)" height="38.2656" id="com.ibm.fhir.model.type.code.ExplanationOfBenefitStatus.ValueSet" style="stroke: #A80036; stroke-width: 1.5;" width="282" x="312.5" y="350"/><ellipse cx="327.5" cy="369.1328" fill="#EB937F" rx="11" ry="11" style="stroke: #A80036; stroke-width: 1.0;"/><path d="M331.1143,375.6328 L323.3945,375.6328 L323.3945,363.2397 L331.1143,363.2397 L331.1143,365.3979 L325.8433,365.3979 L325.8433,368.0708 L330.6162,368.0708 L330.6162,370.229 L325.8433,370.229 L325.8433,373.4746 L331.1143,373.4746 Z "/><text fill="#000000" font-family="sans-serif" font-size="14" lengthAdjust="spacingAndGlyphs" textLength="250" x="341.5" y="368.5352">ExplanationOfBenefitStatus.ValueSet</text><text fill="#000000" font-family="sans-serif" font-size="10" lengthAdjust="spacingAndGlyphs" textLength="144" x="394.5" y="381.1563">com.ibm.fhir.model.type.code</text></a><!--link com.ibm.fhir.model.type.Code to com.ibm.fhir.model.type.code.ExplanationOfBenefitStatus--><path d="M297.5,66.5906 C297.5,78.413 297.5,91.9001 297.5,105.625 " fill="none" id="com.ibm.fhir.model.type.Code-com.ibm.fhir.model.type.code.ExplanationOfBenefitStatus" style="stroke: #A80036; stroke-width: 1.0;"/><polygon fill="none" points="290.5001,66.2835,297.5,46.2835,304.5001,66.2834,290.5001,66.2835" style="stroke: #A80036; stroke-width: 1.0;"/><!--link com.ibm.fhir.model.type.code.ExplanationOfBenefitStatus to com.ibm.fhir.model.type.code.ExplanationOfBenefitStatus.Builder--><path d="M203.4129,301.134 C186.3391,319.8495 170.3404,337.3865 158.8847,349.9437 " fill="none" id="com.ibm.fhir.model.type.code.ExplanationOfBenefitStatus-com.ibm.fhir.model.type.code.ExplanationOfBenefitStatus.Builder" style="stroke: #A80036; stroke-width: 1.0;"/><ellipse cx="208.172" cy="295.9172" fill="#FFFFFF" rx="8" ry="8" style="stroke: #A80036; stroke-width: 1.0;"/><line style="stroke: #A80036; stroke-width: 1.0;" x1="202.7804" x2="213.5637" y1="301.8274" y2="290.0071"/><line style="stroke: #A80036; stroke-width: 1.0;" x1="202.2619" x2="214.0822" y1="290.5256" y2="301.3089"/><!--link com.ibm.fhir.model.type.code.ExplanationOfBenefitStatus to com.ibm.fhir.model.type.code.ExplanationOfBenefitStatus.ValueSet--><path d="M391.5871,301.134 C408.6609,319.8495 424.6596,337.3865 436.1153,349.9437 " fill="none" id="com.ibm.fhir.model.type.code.ExplanationOfBenefitStatus-com.ibm.fhir.model.type.code.ExplanationOfBenefitStatus.ValueSet" style="stroke: #A80036; stroke-width: 1.0;"/><ellipse cx="386.828" cy="295.9172" fill="#FFFFFF" rx="8" ry="8" style="stroke: #A80036; stroke-width: 1.0;"/><line style="stroke: #A80036; stroke-width: 1.0;" x1="392.2196" x2="381.4363" y1="301.8274" y2="290.0071"/><line style="stroke: #A80036; stroke-width: 1.0;" x1="380.9178" x2="392.7381" y1="301.3089" y2="290.5256"/><text fill="#888888" font-family="sans-serif" font-size="10" lengthAdjust="spacingAndGlyphs" textLength="182" x="215.5" y="407.668">UMLDoclet 2.0.5, PlantUML 1.2019.08</text><!--
@startuml
    set namespaceSeparator none
    hide empty fields
    hide empty methods

    class "<size:14>ExplanationOfBenefitStatus\n<size:10>com.ibm.fhir.model.type.code" as com.ibm.fhir.model.type.code.ExplanationOfBenefitStatus [[ExplanationOfBenefitStatus.html]] {
        {static} +ACTIVE: ExplanationOfBenefitStatus
        {static} +CANCELLED: ExplanationOfBenefitStatus
        {static} +DRAFT: ExplanationOfBenefitStatus
        {static} +ENTERED_IN_ERROR: ExplanationOfBenefitStatus
        {static} +of(String): ExplanationOfBenefitStatus
        {static} +of(ValueSet): ExplanationOfBenefitStatus
        {static} +string(String): String
        {static} +code(String): Code
        +toBuilder(): Builder
        {static} +builder(): Builder
    }

    class "<size:14>Code\n<size:10>com.ibm.fhir.model.type" as com.ibm.fhir.model.type.Code [[../Code.html]]
    class "<size:14>ExplanationOfBenefitStatus.Builder\n<size:10>com.ibm.fhir.model.type.code" as com.ibm.fhir.model.type.code.ExplanationOfBenefitStatus.Builder [[ExplanationOfBenefitStatus.Builder.html]]
    enum "<size:14>ExplanationOfBenefitStatus.ValueSet\n<size:10>com.ibm.fhir.model.type.code" as com.ibm.fhir.model.type.code.ExplanationOfBenefitStatus.ValueSet [[ExplanationOfBenefitStatus.ValueSet.html]]

    com.ibm.fhir.model.type.Code <|- - com.ibm.fhir.model.type.code.ExplanationOfBenefitStatus
    com.ibm.fhir.model.type.code.ExplanationOfBenefitStatus +- - com.ibm.fhir.model.type.code.ExplanationOfBenefitStatus.Builder
    com.ibm.fhir.model.type.code.ExplanationOfBenefitStatus +- - com.ibm.fhir.model.type.code.ExplanationOfBenefitStatus.ValueSet

    center footer UMLDoclet 2.0.5, PlantUML 1.2019.08
@enduml

PlantUML version 1.2019.08(Sat Jul 13 15:25:14 EDT 2019)
(APACHE source distribution)
Java Runtime: OpenJDK Runtime Environment
JVM: OpenJDK 64-Bit Server VM
Java Version: 11.0.4+11
Operating System: Mac OS X
OS Version: 10.14.6
Default Encoding: UTF-8
Language: en
Country: US
--></g></svg>