<?xml version="1.0" encoding="UTF-8" standalone="no"?><svg xmlns="http://www.w3.org/2000/svg" xmlns:xlink="http://www.w3.org/1999/xlink" contentScriptType="application/ecmascript" contentStyleType="text/css" height="263px" preserveAspectRatio="none" style="width:423px;height:263px;" version="1.1" viewBox="0 0 423 263" width="423px" zoomAndPan="magnify"><defs><filter height="300%" id="f1079v8sc3uk6d" width="300%" x="-1" y="-1"><feGaussianBlur result="blurOut" stdDeviation="2.0"/><feColorMatrix in="blurOut" result="blurOut2" type="matrix" values="0 0 0 0 0 0 0 0 0 0 0 0 0 0 0 0 0 0 .4 0"/><feOffset dx="4.0" dy="4.0" in="blurOut2" result="blurOut3"/><feBlend in="SourceGraphic" in2="blurOut3" mode="normal"/></filter></defs><g><!--class com.ibm.fhir.model.type.code.QuestionnaireItemOperator.Builder--><a href="QuestionnaireItemOperator.Builder.html" target="_top" xlink:actuate="onRequest" xlink:show="new" xlink:title="QuestionnaireItemOperator.Builder.html" xlink:type="simple"><rect fill="#FEFECE" filter="url(#f1079v8sc3uk6d)" height="123.9961" id="com.ibm.fhir.model.type.code.QuestionnaireItemOperator.Builder" style="stroke: #A80036; stroke-width: 1.5;" width="273" x="54.5" y="106"/><ellipse cx="69.5" cy="125.1328" fill="#ADD1B2" rx="11" ry="11" style="stroke: #A80036; stroke-width: 1.0;"/><path d="M71.9731,131.2759 Q71.3921,131.5747 70.7529,131.7241 Q70.1138,131.8735 69.4082,131.8735 Q66.9014,131.8735 65.5815,130.2217 Q64.2617,128.5698 64.2617,125.4487 Q64.2617,122.3193 65.5815,120.6675 Q66.9014,119.0156 69.4082,119.0156 Q70.1138,119.0156 70.7612,119.165 Q71.4087,119.3145 71.9731,119.6133 L71.9731,122.3359 Q71.3423,121.7549 70.7488,121.4851 Q70.1553,121.2153 69.5244,121.2153 Q68.1797,121.2153 67.4949,122.282 Q66.8101,123.3486 66.8101,125.4487 Q66.8101,127.5405 67.4949,128.6072 Q68.1797,129.6738 69.5244,129.6738 Q70.1553,129.6738 70.7488,129.4041 Q71.3423,129.1343 71.9731,128.5532 Z "/><text fill="#000000" font-family="sans-serif" font-size="14" lengthAdjust="spacingAndGlyphs" textLength="241" x="83.5" y="124.5352">QuestionnaireItemOperator.Builder</text><text fill="#000000" font-family="sans-serif" font-size="10" lengthAdjust="spacingAndGlyphs" textLength="144" x="132" y="137.1563">com.ibm.fhir.model.type.code</text><line style="stroke: #A80036; stroke-width: 1.5;" x1="55.5" x2="326.5" y1="144.2656" y2="144.2656"/><ellipse cx="65.5" cy="156.2432" fill="#84BE84" rx="3" ry="3" style="stroke: #038048; stroke-width: 1.0;"/><text fill="#000000" font-family="sans-serif" font-size="11" lengthAdjust="spacingAndGlyphs" textLength="93" x="74.5" y="158.9004">id(String): Builder</text><ellipse cx="65.5" cy="169.1982" fill="#84BE84" rx="3" ry="3" style="stroke: #038048; stroke-width: 1.0;"/><text fill="#000000" font-family="sans-serif" font-size="11" lengthAdjust="spacingAndGlyphs" textLength="166" x="74.5" y="171.8555">extension(Extension...): Builder</text><ellipse cx="65.5" cy="182.1533" fill="#84BE84" rx="3" ry="3" style="stroke: #038048; stroke-width: 1.0;"/><text fill="#000000" font-family="sans-serif" font-size="11" lengthAdjust="spacingAndGlyphs" textLength="229" x="74.5" y="184.8105">extension(Collection&lt;Extension&gt;): Builder</text><ellipse cx="65.5" cy="195.1084" fill="#84BE84" rx="3" ry="3" style="stroke: #038048; stroke-width: 1.0;"/><text fill="#000000" font-family="sans-serif" font-size="11" lengthAdjust="spacingAndGlyphs" textLength="111" x="74.5" y="197.7656">value(String): Builder</text><ellipse cx="65.5" cy="208.0635" fill="#84BE84" rx="3" ry="3" style="stroke: #038048; stroke-width: 1.0;"/><text fill="#000000" font-family="sans-serif" font-size="11" lengthAdjust="spacingAndGlyphs" textLength="124" x="74.5" y="210.7207">value(ValueSet): Builder</text><ellipse cx="65.5" cy="221.0186" fill="#84BE84" rx="3" ry="3" style="stroke: #038048; stroke-width: 1.0;"/><text fill="#000000" font-family="sans-serif" font-size="11" lengthAdjust="spacingAndGlyphs" textLength="189" x="74.5" y="223.6758">build(): QuestionnaireItemOperator</text></a><!--class com.ibm.fhir.model.type.Code.Builder--><a href="../Code.Builder.html" target="_top" xlink:actuate="onRequest" xlink:show="new" xlink:title="../Code.Builder.html" xlink:type="simple"><rect fill="#FEFECE" filter="url(#f1079v8sc3uk6d)" height="38.2656" id="com.ibm.fhir.model.type.Code.Builder" style="stroke: #A80036; stroke-width: 1.5;" width="150" x="6" y="8"/><ellipse cx="21" cy="27.1328" fill="#ADD1B2" rx="11" ry="11" style="stroke: #A80036; stroke-width: 1.0;"/><path d="M23.4731,33.2759 Q22.8921,33.5747 22.2529,33.7241 Q21.6138,33.8735 20.9082,33.8735 Q18.4014,33.8735 17.0815,32.2217 Q15.7617,30.5698 15.7617,27.4487 Q15.7617,24.3193 17.0815,22.6675 Q18.4014,21.0156 20.9082,21.0156 Q21.6138,21.0156 22.2612,21.165 Q22.9087,21.3145 23.4731,21.6133 L23.4731,24.3359 Q22.8423,23.7549 22.2488,23.4851 Q21.6553,23.2153 21.0244,23.2153 Q19.6797,23.2153 18.9949,24.282 Q18.3101,25.3486 18.3101,27.4487 Q18.3101,29.5405 18.9949,30.6072 Q19.6797,31.6738 21.0244,31.6738 Q21.6553,31.6738 22.2488,31.4041 Q22.8423,31.1343 23.4731,30.5532 Z "/><text fill="#000000" font-family="sans-serif" font-size="14" lengthAdjust="spacingAndGlyphs" textLength="88" x="50" y="26.5352">Code.Builder</text><text fill="#000000" font-family="sans-serif" font-size="10" lengthAdjust="spacingAndGlyphs" textLength="118" x="35" y="39.1563">com.ibm.fhir.model.type</text></a><!--class com.ibm.fhir.model.type.code.QuestionnaireItemOperator--><a href="QuestionnaireItemOperator.html" target="_top" xlink:actuate="onRequest" xlink:show="new" xlink:title="QuestionnaireItemOperator.html" xlink:type="simple"><rect fill="#FEFECE" filter="url(#f1079v8sc3uk6d)" height="38.2656" id="com.ibm.fhir.model.type.code.QuestionnaireItemOperator" style="stroke: #A80036; stroke-width: 1.5;" width="221" x="191.5" y="8"/><ellipse cx="206.5" cy="27.1328" fill="#ADD1B2" rx="11" ry="11" style="stroke: #A80036; stroke-width: 1.0;"/><path d="M208.9731,33.2759 Q208.3921,33.5747 207.7529,33.7241 Q207.1138,33.8735 206.4082,33.8735 Q203.9014,33.8735 202.5815,32.2217 Q201.2617,30.5698 201.2617,27.4487 Q201.2617,24.3193 202.5815,22.6675 Q203.9014,21.0156 206.4082,21.0156 Q207.1138,21.0156 207.7612,21.165 Q208.4087,21.3145 208.9731,21.6133 L208.9731,24.3359 Q208.3423,23.7549 207.7488,23.4851 Q207.1553,23.2153 206.5244,23.2153 Q205.1797,23.2153 204.4949,24.282 Q203.8101,25.3486 203.8101,27.4487 Q203.8101,29.5405 204.4949,30.6072 Q205.1797,31.6738 206.5244,31.6738 Q207.1553,31.6738 207.7488,31.4041 Q208.3423,31.1343 208.9731,30.5532 Z "/><text fill="#000000" font-family="sans-serif" font-size="14" lengthAdjust="spacingAndGlyphs" textLength="189" x="220.5" y="26.5352">QuestionnaireItemOperator</text><text fill="#000000" font-family="sans-serif" font-size="10" lengthAdjust="spacingAndGlyphs" textLength="144" x="243" y="39.1563">com.ibm.fhir.model.type.code</text></a><!--link com.ibm.fhir.model.type.Code.Builder to com.ibm.fhir.model.type.code.QuestionnaireItemOperator.Builder--><path d="M108.2758,61.9626 C118.6625,75.2765 130.8355,90.8801 142.5998,105.9598 " fill="none" id="com.ibm.fhir.model.type.Code.Builder-com.ibm.fhir.model.type.code.QuestionnaireItemOperator.Builder" style="stroke: #A80036; stroke-width: 1.0;"/><polygon fill="none" points="102.618,66.0906,95.8351,46.0159,113.6563,57.4791,102.618,66.0906" style="stroke: #A80036; stroke-width: 1.0;"/><!--link com.ibm.fhir.model.type.code.QuestionnaireItemOperator to com.ibm.fhir.model.type.code.QuestionnaireItemOperator.Builder--><path d="M277.5983,57.9968 C266.4836,72.1154 252.9119,89.3552 239.8402,105.9598 " fill="none" id="com.ibm.fhir.model.type.code.QuestionnaireItemOperator-com.ibm.fhir.model.type.code.QuestionnaireItemOperator.Builder" style="stroke: #A80036; stroke-width: 1.0;"/><ellipse cx="282.0815" cy="52.3018" fill="#FFFFFF" rx="8" ry="8" style="stroke: #A80036; stroke-width: 1.0;"/><line style="stroke: #A80036; stroke-width: 1.0;" x1="277.133" x2="287.03" y1="58.5877" y2="46.0159"/><line style="stroke: #A80036; stroke-width: 1.0;" x1="275.7956" x2="288.3674" y1="47.3533" y2="57.2503"/><text fill="#888888" font-family="sans-serif" font-size="10" lengthAdjust="spacingAndGlyphs" textLength="182" x="124.5" y="249.668">UMLDoclet 2.0.5, PlantUML 1.2019.08</text><!--
@startuml
    set namespaceSeparator none
    hide empty fields
    hide empty methods

    class "<size:14>QuestionnaireItemOperator.Builder\n<size:10>com.ibm.fhir.model.type.code" as com.ibm.fhir.model.type.code.QuestionnaireItemOperator.Builder [[QuestionnaireItemOperator.Builder.html]] {
        +id(String): Builder
        +extension(Extension...): Builder
        +extension(Collection<Extension>): Builder
        +value(String): Builder
        +value(ValueSet): Builder
        +build(): QuestionnaireItemOperator
    }

    class "<size:14>Code.Builder\n<size:10>com.ibm.fhir.model.type" as com.ibm.fhir.model.type.Code.Builder [[../Code.Builder.html]]
    class "<size:14>QuestionnaireItemOperator\n<size:10>com.ibm.fhir.model.type.code" as com.ibm.fhir.model.type.code.QuestionnaireItemOperator [[QuestionnaireItemOperator.html]]

    com.ibm.fhir.model.type.Code.Builder <|- - com.ibm.fhir.model.type.code.QuestionnaireItemOperator.Builder
    com.ibm.fhir.model.type.code.QuestionnaireItemOperator +- - com.ibm.fhir.model.type.code.QuestionnaireItemOperator.Builder

    center footer UMLDoclet 2.0.5, PlantUML 1.2019.08
@enduml

PlantUML version 1.2019.08(Sat Jul 13 15:25:14 EDT 2019)
(APACHE source distribution)
Java Runtime: OpenJDK Runtime Environment
JVM: OpenJDK 64-Bit Server VM
Java Version: 11.0.4+11
Operating System: Mac OS X
OS Version: 10.14.6
Default Encoding: UTF-8
Language: en
Country: US
--></g></svg>