<?xml version="1.0" encoding="UTF-8" standalone="no"?><svg xmlns="http://www.w3.org/2000/svg" xmlns:xlink="http://www.w3.org/1999/xlink" contentScriptType="application/ecmascript" contentStyleType="text/css" height="486px" preserveAspectRatio="none" style="width:475px;height:486px;" version="1.1" viewBox="0 0 475 486" width="475px" zoomAndPan="magnify"><defs><filter height="300%" id="f1v4fsrwdylvxj" width="300%" x="-1" y="-1"><feGaussianBlur result="blurOut" stdDeviation="2.0"/><feColorMatrix in="blurOut" result="blurOut2" type="matrix" values="0 0 0 0 0 0 0 0 0 0 0 0 0 0 0 0 0 0 .4 0"/><feOffset dx="4.0" dy="4.0" in="blurOut2" result="blurOut3"/><feBlend in="SourceGraphic" in2="blurOut3" mode="normal"/></filter></defs><g><!--class com.ibm.fhir.model.type.code.SearchParamType--><a href="SearchParamType.html" target="_top" xlink:actuate="onRequest" xlink:show="new" xlink:title="SearchParamType.html" xlink:type="simple"><rect fill="#FEFECE" filter="url(#f1v4fsrwdylvxj)" height="248.5918" id="com.ibm.fhir.model.type.code.SearchParamType" style="stroke: #A80036; stroke-width: 1.5;" width="191" x="136.5" y="106"/><ellipse cx="158.25" cy="125.1328" fill="#ADD1B2" rx="11" ry="11" style="stroke: #A80036; stroke-width: 1.0;"/><path d="M160.7231,131.2759 Q160.1421,131.5747 159.5029,131.7241 Q158.8638,131.8735 158.1582,131.8735 Q155.6514,131.8735 154.3315,130.2217 Q153.0117,128.5698 153.0117,125.4487 Q153.0117,122.3193 154.3315,120.6675 Q155.6514,119.0156 158.1582,119.0156 Q158.8638,119.0156 159.5112,119.165 Q160.1587,119.3145 160.7231,119.6133 L160.7231,122.3359 Q160.0923,121.7549 159.4988,121.4851 Q158.9053,121.2153 158.2744,121.2153 Q156.9297,121.2153 156.2449,122.282 Q155.5601,123.3486 155.5601,125.4487 Q155.5601,127.5405 156.2449,128.6072 Q156.9297,129.6738 158.2744,129.6738 Q158.9053,129.6738 159.4988,129.4041 Q160.0923,129.1343 160.7231,128.5532 Z "/><text fill="#000000" font-family="sans-serif" font-size="14" lengthAdjust="spacingAndGlyphs" textLength="122" x="184.75" y="124.5352">SearchParamType</text><text fill="#000000" font-family="sans-serif" font-size="10" lengthAdjust="spacingAndGlyphs" textLength="144" x="173.75" y="137.1563">com.ibm.fhir.model.type.code</text><line style="stroke: #A80036; stroke-width: 1.5;" x1="137.5" x2="326.5" y1="144.2656" y2="144.2656"/><ellipse cx="147.5" cy="156.2432" fill="none" rx="3" ry="3" style="stroke: #038048; stroke-width: 1.0;"/><text fill="#000000" font-family="sans-serif" font-size="11" lengthAdjust="spacingAndGlyphs" text-decoration="underline" textLength="145" x="156.5" y="158.9004">NUMBER: SearchParamType</text><ellipse cx="147.5" cy="169.1982" fill="none" rx="3" ry="3" style="stroke: #038048; stroke-width: 1.0;"/><text fill="#000000" font-family="sans-serif" font-size="11" lengthAdjust="spacingAndGlyphs" text-decoration="underline" textLength="130" x="156.5" y="171.8555">DATE: SearchParamType</text><ellipse cx="147.5" cy="182.1533" fill="none" rx="3" ry="3" style="stroke: #038048; stroke-width: 1.0;"/><text fill="#000000" font-family="sans-serif" font-size="11" lengthAdjust="spacingAndGlyphs" text-decoration="underline" textLength="140" x="156.5" y="184.8105">STRING: SearchParamType</text><ellipse cx="147.5" cy="195.1084" fill="none" rx="3" ry="3" style="stroke: #038048; stroke-width: 1.0;"/><text fill="#000000" font-family="sans-serif" font-size="11" lengthAdjust="spacingAndGlyphs" text-decoration="underline" textLength="138" x="156.5" y="197.7656">TOKEN: SearchParamType</text><ellipse cx="147.5" cy="208.0635" fill="none" rx="3" ry="3" style="stroke: #038048; stroke-width: 1.0;"/><text fill="#000000" font-family="sans-serif" font-size="11" lengthAdjust="spacingAndGlyphs" text-decoration="underline" textLength="161" x="156.5" y="210.7207">REFERENCE: SearchParamType</text><ellipse cx="147.5" cy="221.0186" fill="none" rx="3" ry="3" style="stroke: #038048; stroke-width: 1.0;"/><text fill="#000000" font-family="sans-serif" font-size="11" lengthAdjust="spacingAndGlyphs" text-decoration="underline" textLength="164" x="156.5" y="223.6758">COMPOSITE: SearchParamType</text><ellipse cx="147.5" cy="233.9736" fill="none" rx="3" ry="3" style="stroke: #038048; stroke-width: 1.0;"/><text fill="#000000" font-family="sans-serif" font-size="11" lengthAdjust="spacingAndGlyphs" text-decoration="underline" textLength="158" x="156.5" y="236.6309">QUANTITY: SearchParamType</text><ellipse cx="147.5" cy="246.9287" fill="none" rx="3" ry="3" style="stroke: #038048; stroke-width: 1.0;"/><text fill="#000000" font-family="sans-serif" font-size="11" lengthAdjust="spacingAndGlyphs" text-decoration="underline" textLength="119" x="156.5" y="249.5859">URI: SearchParamType</text><ellipse cx="147.5" cy="259.8838" fill="none" rx="3" ry="3" style="stroke: #038048; stroke-width: 1.0;"/><text fill="#000000" font-family="sans-serif" font-size="11" lengthAdjust="spacingAndGlyphs" text-decoration="underline" textLength="144" x="156.5" y="262.541">SPECIAL: SearchParamType</text><line style="stroke: #A80036; stroke-width: 1.5;" x1="137.5" x2="326.5" y1="268.8613" y2="268.8613"/><ellipse cx="147.5" cy="280.8389" fill="#84BE84" rx="3" ry="3" style="stroke: #038048; stroke-width: 1.0;"/><text fill="#000000" font-family="sans-serif" font-size="11" lengthAdjust="spacingAndGlyphs" text-decoration="underline" textLength="152" x="156.5" y="283.4961">of(String): SearchParamType</text><ellipse cx="147.5" cy="293.7939" fill="#84BE84" rx="3" ry="3" style="stroke: #038048; stroke-width: 1.0;"/><text fill="#000000" font-family="sans-serif" font-size="11" lengthAdjust="spacingAndGlyphs" text-decoration="underline" textLength="165" x="156.5" y="296.4512">of(ValueSet): SearchParamType</text><ellipse cx="147.5" cy="306.749" fill="#84BE84" rx="3" ry="3" style="stroke: #038048; stroke-width: 1.0;"/><text fill="#000000" font-family="sans-serif" font-size="11" lengthAdjust="spacingAndGlyphs" text-decoration="underline" textLength="110" x="156.5" y="309.4063">string(String): String</text><ellipse cx="147.5" cy="319.7041" fill="#84BE84" rx="3" ry="3" style="stroke: #038048; stroke-width: 1.0;"/><text fill="#000000" font-family="sans-serif" font-size="11" lengthAdjust="spacingAndGlyphs" text-decoration="underline" textLength="100" x="156.5" y="322.3613">code(String): Code</text><ellipse cx="147.5" cy="332.6592" fill="#84BE84" rx="3" ry="3" style="stroke: #038048; stroke-width: 1.0;"/><text fill="#000000" font-family="sans-serif" font-size="11" lengthAdjust="spacingAndGlyphs" textLength="99" x="156.5" y="335.3164">toBuilder(): Builder</text><ellipse cx="147.5" cy="345.6143" fill="#84BE84" rx="3" ry="3" style="stroke: #038048; stroke-width: 1.0;"/><text fill="#000000" font-family="sans-serif" font-size="11" lengthAdjust="spacingAndGlyphs" text-decoration="underline" textLength="89" x="156.5" y="348.2715">builder(): Builder</text></a><!--class com.ibm.fhir.model.type.Code--><a href="../Code.html" target="_top" xlink:actuate="onRequest" xlink:show="new" xlink:title="../Code.html" xlink:type="simple"><rect fill="#FEFECE" filter="url(#f1v4fsrwdylvxj)" height="38.2656" id="com.ibm.fhir.model.type.Code" style="stroke: #A80036; stroke-width: 1.5;" width="150" x="157" y="8"/><ellipse cx="172" cy="27.1328" fill="#ADD1B2" rx="11" ry="11" style="stroke: #A80036; stroke-width: 1.0;"/><path d="M174.4731,33.2759 Q173.8921,33.5747 173.2529,33.7241 Q172.6138,33.8735 171.9082,33.8735 Q169.4014,33.8735 168.0815,32.2217 Q166.7617,30.5698 166.7617,27.4487 Q166.7617,24.3193 168.0815,22.6675 Q169.4014,21.0156 171.9082,21.0156 Q172.6138,21.0156 173.2612,21.165 Q173.9087,21.3145 174.4731,21.6133 L174.4731,24.3359 Q173.8423,23.7549 173.2488,23.4851 Q172.6553,23.2153 172.0244,23.2153 Q170.6797,23.2153 169.9949,24.282 Q169.3101,25.3486 169.3101,27.4487 Q169.3101,29.5405 169.9949,30.6072 Q170.6797,31.6738 172.0244,31.6738 Q172.6553,31.6738 173.2488,31.4041 Q173.8423,31.1343 174.4731,30.5532 Z "/><text fill="#000000" font-family="sans-serif" font-size="14" lengthAdjust="spacingAndGlyphs" textLength="36" x="227" y="26.5352">Code</text><text fill="#000000" font-family="sans-serif" font-size="10" lengthAdjust="spacingAndGlyphs" textLength="118" x="186" y="39.1563">com.ibm.fhir.model.type</text></a><!--class com.ibm.fhir.model.type.code.SearchParamType.Builder--><a href="SearchParamType.Builder.html" target="_top" xlink:actuate="onRequest" xlink:show="new" xlink:title="SearchParamType.Builder.html" xlink:type="simple"><rect fill="#FEFECE" filter="url(#f1v4fsrwdylvxj)" height="38.2656" id="com.ibm.fhir.model.type.code.SearchParamType.Builder" style="stroke: #A80036; stroke-width: 1.5;" width="206" x="6" y="415"/><ellipse cx="21" cy="434.1328" fill="#ADD1B2" rx="11" ry="11" style="stroke: #A80036; stroke-width: 1.0;"/><path d="M23.4731,440.2759 Q22.8921,440.5747 22.2529,440.7241 Q21.6138,440.8735 20.9082,440.8735 Q18.4014,440.8735 17.0815,439.2217 Q15.7617,437.5698 15.7617,434.4487 Q15.7617,431.3193 17.0815,429.6675 Q18.4014,428.0156 20.9082,428.0156 Q21.6138,428.0156 22.2612,428.165 Q22.9087,428.3145 23.4731,428.6133 L23.4731,431.3359 Q22.8423,430.7549 22.2488,430.4851 Q21.6553,430.2153 21.0244,430.2153 Q19.6797,430.2153 18.9949,431.282 Q18.3101,432.3486 18.3101,434.4487 Q18.3101,436.5405 18.9949,437.6072 Q19.6797,438.6738 21.0244,438.6738 Q21.6553,438.6738 22.2488,438.4041 Q22.8423,438.1343 23.4731,437.5532 Z "/><text fill="#000000" font-family="sans-serif" font-size="14" lengthAdjust="spacingAndGlyphs" textLength="174" x="35" y="433.5352">SearchParamType.Builder</text><text fill="#000000" font-family="sans-serif" font-size="10" lengthAdjust="spacingAndGlyphs" textLength="144" x="50" y="446.1563">com.ibm.fhir.model.type.code</text></a><!--class com.ibm.fhir.model.type.code.SearchParamType.ValueSet--><a href="SearchParamType.ValueSet.html" target="_top" xlink:actuate="onRequest" xlink:show="new" xlink:title="SearchParamType.ValueSet.html" xlink:type="simple"><rect fill="#FEFECE" filter="url(#f1v4fsrwdylvxj)" height="38.2656" id="com.ibm.fhir.model.type.code.SearchParamType.ValueSet" style="stroke: #A80036; stroke-width: 1.5;" width="217" x="247.5" y="415"/><ellipse cx="262.5" cy="434.1328" fill="#EB937F" rx="11" ry="11" style="stroke: #A80036; stroke-width: 1.0;"/><path d="M266.1143,440.6328 L258.3945,440.6328 L258.3945,428.2397 L266.1143,428.2397 L266.1143,430.3979 L260.8433,430.3979 L260.8433,433.0708 L265.6162,433.0708 L265.6162,435.229 L260.8433,435.229 L260.8433,438.4746 L266.1143,438.4746 Z "/><text fill="#000000" font-family="sans-serif" font-size="14" lengthAdjust="spacingAndGlyphs" textLength="185" x="276.5" y="433.5352">SearchParamType.ValueSet</text><text fill="#000000" font-family="sans-serif" font-size="10" lengthAdjust="spacingAndGlyphs" textLength="144" x="297" y="446.1563">com.ibm.fhir.model.type.code</text></a><!--link com.ibm.fhir.model.type.Code to com.ibm.fhir.model.type.code.SearchParamType--><path d="M232,66.1693 C232,77.9091 232,91.4661 232,105.6557 " fill="none" id="com.ibm.fhir.model.type.Code-com.ibm.fhir.model.type.code.SearchParamType" style="stroke: #A80036; stroke-width: 1.0;"/><polygon fill="none" points="225.0001,66.1448,232,46.1448,239.0001,66.1448,225.0001,66.1448" style="stroke: #A80036; stroke-width: 1.0;"/><!--link com.ibm.fhir.model.type.code.SearchParamType to com.ibm.fhir.model.type.code.SearchParamType.Builder--><path d="M148.8935,367.9973 C137.7903,386.3672 127.7636,402.9562 120.5396,414.9081 " fill="none" id="com.ibm.fhir.model.type.code.SearchParamType-com.ibm.fhir.model.type.code.SearchParamType.Builder" style="stroke: #A80036; stroke-width: 1.0;"/><ellipse cx="152.5929" cy="361.8768" fill="#FFFFFF" rx="8" ry="8" style="stroke: #A80036; stroke-width: 1.0;"/><line style="stroke: #A80036; stroke-width: 1.0;" x1="148.4547" x2="156.7311" y1="368.7234" y2="355.0303"/><line style="stroke: #A80036; stroke-width: 1.0;" x1="145.7463" x2="159.4394" y1="357.7386" y2="366.0151"/><!--link com.ibm.fhir.model.type.code.SearchParamType to com.ibm.fhir.model.type.code.SearchParamType.ValueSet--><path d="M315.7822,367.9973 C326.9756,386.3672 337.0838,402.9562 344.3666,414.9081 " fill="none" id="com.ibm.fhir.model.type.code.SearchParamType-com.ibm.fhir.model.type.code.SearchParamType.ValueSet" style="stroke: #A80036; stroke-width: 1.0;"/><ellipse cx="312.0437" cy="361.8619" fill="#FFFFFF" rx="8" ry="8" style="stroke: #A80036; stroke-width: 1.0;"/><line style="stroke: #A80036; stroke-width: 1.0;" x1="316.2065" x2="307.8809" y1="368.6935" y2="355.0303"/><line style="stroke: #A80036; stroke-width: 1.0;" x1="305.2121" x2="318.8753" y1="366.0247" y2="357.6991"/><text fill="#888888" font-family="sans-serif" font-size="10" lengthAdjust="spacingAndGlyphs" textLength="182" x="150.5" y="472.668">UMLDoclet 2.0.5, PlantUML 1.2019.08</text><!--
@startuml
    set namespaceSeparator none
    hide empty fields
    hide empty methods

    class "<size:14>SearchParamType\n<size:10>com.ibm.fhir.model.type.code" as com.ibm.fhir.model.type.code.SearchParamType [[SearchParamType.html]] {
        {static} +NUMBER: SearchParamType
        {static} +DATE: SearchParamType
        {static} +STRING: SearchParamType
        {static} +TOKEN: SearchParamType
        {static} +REFERENCE: SearchParamType
        {static} +COMPOSITE: SearchParamType
        {static} +QUANTITY: SearchParamType
        {static} +URI: SearchParamType
        {static} +SPECIAL: SearchParamType
        {static} +of(String): SearchParamType
        {static} +of(ValueSet): SearchParamType
        {static} +string(String): String
        {static} +code(String): Code
        +toBuilder(): Builder
        {static} +builder(): Builder
    }

    class "<size:14>Code\n<size:10>com.ibm.fhir.model.type" as com.ibm.fhir.model.type.Code [[../Code.html]]
    class "<size:14>SearchParamType.Builder\n<size:10>com.ibm.fhir.model.type.code" as com.ibm.fhir.model.type.code.SearchParamType.Builder [[SearchParamType.Builder.html]]
    enum "<size:14>SearchParamType.ValueSet\n<size:10>com.ibm.fhir.model.type.code" as com.ibm.fhir.model.type.code.SearchParamType.ValueSet [[SearchParamType.ValueSet.html]]

    com.ibm.fhir.model.type.Code <|- - com.ibm.fhir.model.type.code.SearchParamType
    com.ibm.fhir.model.type.code.SearchParamType +- - com.ibm.fhir.model.type.code.SearchParamType.Builder
    com.ibm.fhir.model.type.code.SearchParamType +- - com.ibm.fhir.model.type.code.SearchParamType.ValueSet

    center footer UMLDoclet 2.0.5, PlantUML 1.2019.08
@enduml

PlantUML version 1.2019.08(Sat Jul 13 15:25:14 EDT 2019)
(APACHE source distribution)
Java Runtime: OpenJDK Runtime Environment
JVM: OpenJDK 64-Bit Server VM
Java Version: 11.0.4+11
Operating System: Mac OS X
OS Version: 10.14.6
Default Encoding: UTF-8
Language: en
Country: US
--></g></svg>