<?xml version="1.0" encoding="UTF-8" standalone="no"?><svg xmlns="http://www.w3.org/2000/svg" xmlns:xlink="http://www.w3.org/1999/xlink" contentScriptType="application/ecmascript" contentStyleType="text/css" height="421px" preserveAspectRatio="none" style="width:515px;height:421px;" version="1.1" viewBox="0 0 515 421" width="515px" zoomAndPan="magnify"><defs><filter height="300%" id="feph3rtz4yjpx" width="300%" x="-1" y="-1"><feGaussianBlur result="blurOut" stdDeviation="2.0"/><feColorMatrix in="blurOut" result="blurOut2" type="matrix" values="0 0 0 0 0 0 0 0 0 0 0 0 0 0 0 0 0 0 .4 0"/><feOffset dx="4.0" dy="4.0" in="blurOut2" result="blurOut3"/><feBlend in="SourceGraphic" in2="blurOut3" mode="normal"/></filter></defs><g><!--class com.ibm.fhir.model.type.code.SupplyDeliveryStatus--><a href="SupplyDeliveryStatus.html" target="_top" xlink:actuate="onRequest" xlink:show="new" xlink:title="SupplyDeliveryStatus.html" xlink:type="simple"><rect fill="#FEFECE" filter="url(#feph3rtz4yjpx)" height="183.8164" id="com.ibm.fhir.model.type.code.SupplyDeliveryStatus" style="stroke: #A80036; stroke-width: 1.5;" width="251" x="126.5" y="106"/><ellipse cx="175.75" cy="125.1328" fill="#ADD1B2" rx="11" ry="11" style="stroke: #A80036; stroke-width: 1.0;"/><path d="M178.2231,131.2759 Q177.6421,131.5747 177.0029,131.7241 Q176.3638,131.8735 175.6582,131.8735 Q173.1514,131.8735 171.8315,130.2217 Q170.5117,128.5698 170.5117,125.4487 Q170.5117,122.3193 171.8315,120.6675 Q173.1514,119.0156 175.6582,119.0156 Q176.3638,119.0156 177.0112,119.165 Q177.6587,119.3145 178.2231,119.6133 L178.2231,122.3359 Q177.5923,121.7549 176.9988,121.4851 Q176.4053,121.2153 175.7744,121.2153 Q174.4297,121.2153 173.7449,122.282 Q173.0601,123.3486 173.0601,125.4487 Q173.0601,127.5405 173.7449,128.6072 Q174.4297,129.6738 175.7744,129.6738 Q176.4053,129.6738 176.9988,129.4041 Q177.5923,129.1343 178.2231,128.5532 Z "/><text fill="#000000" font-family="sans-serif" font-size="14" lengthAdjust="spacingAndGlyphs" textLength="142" x="197.25" y="124.5352">SupplyDeliveryStatus</text><text fill="#000000" font-family="sans-serif" font-size="10" lengthAdjust="spacingAndGlyphs" textLength="144" x="196.25" y="137.1563">com.ibm.fhir.model.type.code</text><line style="stroke: #A80036; stroke-width: 1.5;" x1="127.5" x2="376.5" y1="144.2656" y2="144.2656"/><ellipse cx="137.5" cy="156.2432" fill="none" rx="3" ry="3" style="stroke: #038048; stroke-width: 1.0;"/><text fill="#000000" font-family="sans-serif" font-size="11" lengthAdjust="spacingAndGlyphs" text-decoration="underline" textLength="190" x="146.5" y="158.9004">IN_PROGRESS: SupplyDeliveryStatus</text><ellipse cx="137.5" cy="169.1982" fill="none" rx="3" ry="3" style="stroke: #038048; stroke-width: 1.0;"/><text fill="#000000" font-family="sans-serif" font-size="11" lengthAdjust="spacingAndGlyphs" text-decoration="underline" textLength="183" x="146.5" y="171.8555">COMPLETED: SupplyDeliveryStatus</text><ellipse cx="137.5" cy="182.1533" fill="none" rx="3" ry="3" style="stroke: #038048; stroke-width: 1.0;"/><text fill="#000000" font-family="sans-serif" font-size="11" lengthAdjust="spacingAndGlyphs" text-decoration="underline" textLength="187" x="146.5" y="184.8105">ABANDONED: SupplyDeliveryStatus</text><ellipse cx="137.5" cy="195.1084" fill="none" rx="3" ry="3" style="stroke: #038048; stroke-width: 1.0;"/><text fill="#000000" font-family="sans-serif" font-size="11" lengthAdjust="spacingAndGlyphs" text-decoration="underline" textLength="225" x="146.5" y="197.7656">ENTERED_IN_ERROR: SupplyDeliveryStatus</text><line style="stroke: #A80036; stroke-width: 1.5;" x1="127.5" x2="376.5" y1="204.0859" y2="204.0859"/><ellipse cx="137.5" cy="216.0635" fill="#84BE84" rx="3" ry="3" style="stroke: #038048; stroke-width: 1.0;"/><text fill="#000000" font-family="sans-serif" font-size="11" lengthAdjust="spacingAndGlyphs" text-decoration="underline" textLength="169" x="146.5" y="218.7207">of(String): SupplyDeliveryStatus</text><ellipse cx="137.5" cy="229.0186" fill="#84BE84" rx="3" ry="3" style="stroke: #038048; stroke-width: 1.0;"/><text fill="#000000" font-family="sans-serif" font-size="11" lengthAdjust="spacingAndGlyphs" text-decoration="underline" textLength="182" x="146.5" y="231.6758">of(ValueSet): SupplyDeliveryStatus</text><ellipse cx="137.5" cy="241.9736" fill="#84BE84" rx="3" ry="3" style="stroke: #038048; stroke-width: 1.0;"/><text fill="#000000" font-family="sans-serif" font-size="11" lengthAdjust="spacingAndGlyphs" text-decoration="underline" textLength="110" x="146.5" y="244.6309">string(String): String</text><ellipse cx="137.5" cy="254.9287" fill="#84BE84" rx="3" ry="3" style="stroke: #038048; stroke-width: 1.0;"/><text fill="#000000" font-family="sans-serif" font-size="11" lengthAdjust="spacingAndGlyphs" text-decoration="underline" textLength="100" x="146.5" y="257.5859">code(String): Code</text><ellipse cx="137.5" cy="267.8838" fill="#84BE84" rx="3" ry="3" style="stroke: #038048; stroke-width: 1.0;"/><text fill="#000000" font-family="sans-serif" font-size="11" lengthAdjust="spacingAndGlyphs" textLength="99" x="146.5" y="270.541">toBuilder(): Builder</text><ellipse cx="137.5" cy="280.8389" fill="#84BE84" rx="3" ry="3" style="stroke: #038048; stroke-width: 1.0;"/><text fill="#000000" font-family="sans-serif" font-size="11" lengthAdjust="spacingAndGlyphs" text-decoration="underline" textLength="89" x="146.5" y="283.4961">builder(): Builder</text></a><!--class com.ibm.fhir.model.type.Code--><a href="../Code.html" target="_top" xlink:actuate="onRequest" xlink:show="new" xlink:title="../Code.html" xlink:type="simple"><rect fill="#FEFECE" filter="url(#feph3rtz4yjpx)" height="38.2656" id="com.ibm.fhir.model.type.Code" style="stroke: #A80036; stroke-width: 1.5;" width="150" x="177" y="8"/><ellipse cx="192" cy="27.1328" fill="#ADD1B2" rx="11" ry="11" style="stroke: #A80036; stroke-width: 1.0;"/><path d="M194.4731,33.2759 Q193.8921,33.5747 193.2529,33.7241 Q192.6138,33.8735 191.9082,33.8735 Q189.4014,33.8735 188.0815,32.2217 Q186.7617,30.5698 186.7617,27.4487 Q186.7617,24.3193 188.0815,22.6675 Q189.4014,21.0156 191.9082,21.0156 Q192.6138,21.0156 193.2612,21.165 Q193.9087,21.3145 194.4731,21.6133 L194.4731,24.3359 Q193.8423,23.7549 193.2488,23.4851 Q192.6553,23.2153 192.0244,23.2153 Q190.6797,23.2153 189.9949,24.282 Q189.3101,25.3486 189.3101,27.4487 Q189.3101,29.5405 189.9949,30.6072 Q190.6797,31.6738 192.0244,31.6738 Q192.6553,31.6738 193.2488,31.4041 Q193.8423,31.1343 194.4731,30.5532 Z "/><text fill="#000000" font-family="sans-serif" font-size="14" lengthAdjust="spacingAndGlyphs" textLength="36" x="247" y="26.5352">Code</text><text fill="#000000" font-family="sans-serif" font-size="10" lengthAdjust="spacingAndGlyphs" textLength="118" x="206" y="39.1563">com.ibm.fhir.model.type</text></a><!--class com.ibm.fhir.model.type.code.SupplyDeliveryStatus.Builder--><a href="SupplyDeliveryStatus.Builder.html" target="_top" xlink:actuate="onRequest" xlink:show="new" xlink:title="SupplyDeliveryStatus.Builder.html" xlink:type="simple"><rect fill="#FEFECE" filter="url(#feph3rtz4yjpx)" height="38.2656" id="com.ibm.fhir.model.type.code.SupplyDeliveryStatus.Builder" style="stroke: #A80036; stroke-width: 1.5;" width="226" x="6" y="350"/><ellipse cx="21" cy="369.1328" fill="#ADD1B2" rx="11" ry="11" style="stroke: #A80036; stroke-width: 1.0;"/><path d="M23.4731,375.2759 Q22.8921,375.5747 22.2529,375.7241 Q21.6138,375.8735 20.9082,375.8735 Q18.4014,375.8735 17.0815,374.2217 Q15.7617,372.5698 15.7617,369.4487 Q15.7617,366.3193 17.0815,364.6675 Q18.4014,363.0156 20.9082,363.0156 Q21.6138,363.0156 22.2612,363.165 Q22.9087,363.3145 23.4731,363.6133 L23.4731,366.3359 Q22.8423,365.7549 22.2488,365.4851 Q21.6553,365.2153 21.0244,365.2153 Q19.6797,365.2153 18.9949,366.282 Q18.3101,367.3486 18.3101,369.4487 Q18.3101,371.5405 18.9949,372.6072 Q19.6797,373.6738 21.0244,373.6738 Q21.6553,373.6738 22.2488,373.4041 Q22.8423,373.1343 23.4731,372.5532 Z "/><text fill="#000000" font-family="sans-serif" font-size="14" lengthAdjust="spacingAndGlyphs" textLength="194" x="35" y="368.5352">SupplyDeliveryStatus.Builder</text><text fill="#000000" font-family="sans-serif" font-size="10" lengthAdjust="spacingAndGlyphs" textLength="144" x="60" y="381.1563">com.ibm.fhir.model.type.code</text></a><!--class com.ibm.fhir.model.type.code.SupplyDeliveryStatus.ValueSet--><a href="SupplyDeliveryStatus.ValueSet.html" target="_top" xlink:actuate="onRequest" xlink:show="new" xlink:title="SupplyDeliveryStatus.ValueSet.html" xlink:type="simple"><rect fill="#FEFECE" filter="url(#feph3rtz4yjpx)" height="38.2656" id="com.ibm.fhir.model.type.code.SupplyDeliveryStatus.ValueSet" style="stroke: #A80036; stroke-width: 1.5;" width="237" x="267.5" y="350"/><ellipse cx="282.5" cy="369.1328" fill="#EB937F" rx="11" ry="11" style="stroke: #A80036; stroke-width: 1.0;"/><path d="M286.1143,375.6328 L278.3945,375.6328 L278.3945,363.2397 L286.1143,363.2397 L286.1143,365.3979 L280.8433,365.3979 L280.8433,368.0708 L285.6162,368.0708 L285.6162,370.229 L280.8433,370.229 L280.8433,373.4746 L286.1143,373.4746 Z "/><text fill="#000000" font-family="sans-serif" font-size="14" lengthAdjust="spacingAndGlyphs" textLength="205" x="296.5" y="368.5352">SupplyDeliveryStatus.ValueSet</text><text fill="#000000" font-family="sans-serif" font-size="10" lengthAdjust="spacingAndGlyphs" textLength="144" x="327" y="381.1563">com.ibm.fhir.model.type.code</text></a><!--link com.ibm.fhir.model.type.Code to com.ibm.fhir.model.type.code.SupplyDeliveryStatus--><path d="M252,66.5906 C252,78.413 252,91.9001 252,105.625 " fill="none" id="com.ibm.fhir.model.type.Code-com.ibm.fhir.model.type.code.SupplyDeliveryStatus" style="stroke: #A80036; stroke-width: 1.0;"/><polygon fill="none" points="245.0001,66.2835,252,46.2835,259.0001,66.2834,245.0001,66.2835" style="stroke: #A80036; stroke-width: 1.0;"/><!--link com.ibm.fhir.model.type.code.SupplyDeliveryStatus to com.ibm.fhir.model.type.code.SupplyDeliveryStatus.Builder--><path d="M171.1731,301.9204 C156.8465,320.3402 143.4514,337.5625 133.8215,349.9437 " fill="none" id="com.ibm.fhir.model.type.code.SupplyDeliveryStatus-com.ibm.fhir.model.type.code.SupplyDeliveryStatus.Builder" style="stroke: #A80036; stroke-width: 1.0;"/><ellipse cx="175.5274" cy="296.3219" fill="#FFFFFF" rx="8" ry="8" style="stroke: #A80036; stroke-width: 1.0;"/><line style="stroke: #A80036; stroke-width: 1.0;" x1="170.6158" x2="180.4389" y1="302.6367" y2="290.0071"/><line style="stroke: #A80036; stroke-width: 1.0;" x1="169.2126" x2="181.8422" y1="291.4104" y2="301.2334"/><!--link com.ibm.fhir.model.type.code.SupplyDeliveryStatus to com.ibm.fhir.model.type.code.SupplyDeliveryStatus.ValueSet--><path d="M333.4347,301.9204 C347.8689,320.3402 361.3648,337.5625 371.067,349.9437 " fill="none" id="com.ibm.fhir.model.type.code.SupplyDeliveryStatus-com.ibm.fhir.model.type.code.SupplyDeliveryStatus.ValueSet" style="stroke: #A80036; stroke-width: 1.0;"/><ellipse cx="329.0336" cy="296.304" fill="#FFFFFF" rx="8" ry="8" style="stroke: #A80036; stroke-width: 1.0;"/><line style="stroke: #A80036; stroke-width: 1.0;" x1="333.968" x2="324.0991" y1="302.6009" y2="290.0071"/><line style="stroke: #A80036; stroke-width: 1.0;" x1="322.7367" x2="335.3305" y1="301.2385" y2="291.3695"/><text fill="#888888" font-family="sans-serif" font-size="10" lengthAdjust="spacingAndGlyphs" textLength="182" x="170.5" y="407.668">UMLDoclet 2.0.5, PlantUML 1.2019.08</text><!--
@startuml
    set namespaceSeparator none
    hide empty fields
    hide empty methods

    class "<size:14>SupplyDeliveryStatus\n<size:10>com.ibm.fhir.model.type.code" as com.ibm.fhir.model.type.code.SupplyDeliveryStatus [[SupplyDeliveryStatus.html]] {
        {static} +IN_PROGRESS: SupplyDeliveryStatus
        {static} +COMPLETED: SupplyDeliveryStatus
        {static} +ABANDONED: SupplyDeliveryStatus
        {static} +ENTERED_IN_ERROR: SupplyDeliveryStatus
        {static} +of(String): SupplyDeliveryStatus
        {static} +of(ValueSet): SupplyDeliveryStatus
        {static} +string(String): String
        {static} +code(String): Code
        +toBuilder(): Builder
        {static} +builder(): Builder
    }

    class "<size:14>Code\n<size:10>com.ibm.fhir.model.type" as com.ibm.fhir.model.type.Code [[../Code.html]]
    class "<size:14>SupplyDeliveryStatus.Builder\n<size:10>com.ibm.fhir.model.type.code" as com.ibm.fhir.model.type.code.SupplyDeliveryStatus.Builder [[SupplyDeliveryStatus.Builder.html]]
    enum "<size:14>SupplyDeliveryStatus.ValueSet\n<size:10>com.ibm.fhir.model.type.code" as com.ibm.fhir.model.type.code.SupplyDeliveryStatus.ValueSet [[SupplyDeliveryStatus.ValueSet.html]]

    com.ibm.fhir.model.type.Code <|- - com.ibm.fhir.model.type.code.SupplyDeliveryStatus
    com.ibm.fhir.model.type.code.SupplyDeliveryStatus +- - com.ibm.fhir.model.type.code.SupplyDeliveryStatus.Builder
    com.ibm.fhir.model.type.code.SupplyDeliveryStatus +- - com.ibm.fhir.model.type.code.SupplyDeliveryStatus.ValueSet

    center footer UMLDoclet 2.0.5, PlantUML 1.2019.08
@enduml

PlantUML version 1.2019.08(Sat Jul 13 15:25:14 EDT 2019)
(APACHE source distribution)
Java Runtime: OpenJDK Runtime Environment
JVM: OpenJDK 64-Bit Server VM
Java Version: 11.0.4+11
Operating System: Mac OS X
OS Version: 10.14.6
Default Encoding: UTF-8
Language: en
Country: US
--></g></svg>