<?xml version="1.0" encoding="UTF-8" standalone="no"?><svg xmlns="http://www.w3.org/2000/svg" xmlns:xlink="http://www.w3.org/1999/xlink" contentScriptType="application/ecmascript" contentStyleType="text/css" height="408px" preserveAspectRatio="none" style="width:593px;height:408px;" version="1.1" viewBox="0 0 593 408" width="593px" zoomAndPan="magnify"><defs><filter height="300%" id="f1xcopydlzrb9x" width="300%" x="-1" y="-1"><feGaussianBlur result="blurOut" stdDeviation="2.0"/><feColorMatrix in="blurOut" result="blurOut2" type="matrix" values="0 0 0 0 0 0 0 0 0 0 0 0 0 0 0 0 0 0 .4 0"/><feOffset dx="4.0" dy="4.0" in="blurOut2" result="blurOut3"/><feBlend in="SourceGraphic" in2="blurOut3" mode="normal"/></filter></defs><g><!--class com.ibm.fhir.model.type.code.TestReportParticipantType--><a href="TestReportParticipantType.html" target="_top" xlink:actuate="onRequest" xlink:show="new" xlink:title="TestReportParticipantType.html" xlink:type="simple"><rect fill="#FEFECE" filter="url(#f1xcopydlzrb9x)" height="170.8613" id="com.ibm.fhir.model.type.code.TestReportParticipantType" style="stroke: #A80036; stroke-width: 1.5;" width="245" x="169" y="106"/><ellipse cx="198.4" cy="125.1328" fill="#ADD1B2" rx="11" ry="11" style="stroke: #A80036; stroke-width: 1.0;"/><path d="M200.8731,131.2759 Q200.2921,131.5747 199.6529,131.7241 Q199.0138,131.8735 198.3082,131.8735 Q195.8014,131.8735 194.4815,130.2217 Q193.1617,128.5698 193.1617,125.4487 Q193.1617,122.3193 194.4815,120.6675 Q195.8014,119.0156 198.3082,119.0156 Q199.0138,119.0156 199.6612,119.165 Q200.3087,119.3145 200.8731,119.6133 L200.8731,122.3359 Q200.2423,121.7549 199.6488,121.4851 Q199.0553,121.2153 198.4244,121.2153 Q197.0797,121.2153 196.3949,122.282 Q195.7101,123.3486 195.7101,125.4487 Q195.7101,127.5405 196.3949,128.6072 Q197.0797,129.6738 198.4244,129.6738 Q199.0553,129.6738 199.6488,129.4041 Q200.2423,129.1343 200.8731,128.5532 Z "/><text fill="#000000" font-family="sans-serif" font-size="14" lengthAdjust="spacingAndGlyphs" textLength="181" x="215.6" y="124.5352">TestReportParticipantType</text><text fill="#000000" font-family="sans-serif" font-size="10" lengthAdjust="spacingAndGlyphs" textLength="144" x="234.1" y="137.1563">com.ibm.fhir.model.type.code</text><line style="stroke: #A80036; stroke-width: 1.5;" x1="170" x2="413" y1="144.2656" y2="144.2656"/><ellipse cx="180" cy="156.2432" fill="none" rx="3" ry="3" style="stroke: #038048; stroke-width: 1.0;"/><text fill="#000000" font-family="sans-serif" font-size="11" lengthAdjust="spacingAndGlyphs" text-decoration="underline" textLength="219" x="189" y="158.9004">TEST_ENGINE: TestReportParticipantType</text><ellipse cx="180" cy="169.1982" fill="none" rx="3" ry="3" style="stroke: #038048; stroke-width: 1.0;"/><text fill="#000000" font-family="sans-serif" font-size="11" lengthAdjust="spacingAndGlyphs" text-decoration="underline" textLength="186" x="189" y="171.8555">CLIENT: TestReportParticipantType</text><ellipse cx="180" cy="182.1533" fill="none" rx="3" ry="3" style="stroke: #038048; stroke-width: 1.0;"/><text fill="#000000" font-family="sans-serif" font-size="11" lengthAdjust="spacingAndGlyphs" text-decoration="underline" textLength="187" x="189" y="184.8105">SERVER: TestReportParticipantType</text><line style="stroke: #A80036; stroke-width: 1.5;" x1="170" x2="413" y1="191.1309" y2="191.1309"/><ellipse cx="180" cy="203.1084" fill="#84BE84" rx="3" ry="3" style="stroke: #038048; stroke-width: 1.0;"/><text fill="#000000" font-family="sans-serif" font-size="11" lengthAdjust="spacingAndGlyphs" text-decoration="underline" textLength="199" x="189" y="205.7656">of(String): TestReportParticipantType</text><ellipse cx="180" cy="216.0635" fill="#84BE84" rx="3" ry="3" style="stroke: #038048; stroke-width: 1.0;"/><text fill="#000000" font-family="sans-serif" font-size="11" lengthAdjust="spacingAndGlyphs" text-decoration="underline" textLength="212" x="189" y="218.7207">of(ValueSet): TestReportParticipantType</text><ellipse cx="180" cy="229.0186" fill="#84BE84" rx="3" ry="3" style="stroke: #038048; stroke-width: 1.0;"/><text fill="#000000" font-family="sans-serif" font-size="11" lengthAdjust="spacingAndGlyphs" text-decoration="underline" textLength="110" x="189" y="231.6758">string(String): String</text><ellipse cx="180" cy="241.9736" fill="#84BE84" rx="3" ry="3" style="stroke: #038048; stroke-width: 1.0;"/><text fill="#000000" font-family="sans-serif" font-size="11" lengthAdjust="spacingAndGlyphs" text-decoration="underline" textLength="100" x="189" y="244.6309">code(String): Code</text><ellipse cx="180" cy="254.9287" fill="#84BE84" rx="3" ry="3" style="stroke: #038048; stroke-width: 1.0;"/><text fill="#000000" font-family="sans-serif" font-size="11" lengthAdjust="spacingAndGlyphs" textLength="99" x="189" y="257.5859">toBuilder(): Builder</text><ellipse cx="180" cy="267.8838" fill="#84BE84" rx="3" ry="3" style="stroke: #038048; stroke-width: 1.0;"/><text fill="#000000" font-family="sans-serif" font-size="11" lengthAdjust="spacingAndGlyphs" text-decoration="underline" textLength="89" x="189" y="270.541">builder(): Builder</text></a><!--class com.ibm.fhir.model.type.Code--><a href="../Code.html" target="_top" xlink:actuate="onRequest" xlink:show="new" xlink:title="../Code.html" xlink:type="simple"><rect fill="#FEFECE" filter="url(#f1xcopydlzrb9x)" height="38.2656" id="com.ibm.fhir.model.type.Code" style="stroke: #A80036; stroke-width: 1.5;" width="150" x="216.5" y="8"/><ellipse cx="231.5" cy="27.1328" fill="#ADD1B2" rx="11" ry="11" style="stroke: #A80036; stroke-width: 1.0;"/><path d="M233.9731,33.2759 Q233.3921,33.5747 232.7529,33.7241 Q232.1138,33.8735 231.4082,33.8735 Q228.9014,33.8735 227.5815,32.2217 Q226.2617,30.5698 226.2617,27.4487 Q226.2617,24.3193 227.5815,22.6675 Q228.9014,21.0156 231.4082,21.0156 Q232.1138,21.0156 232.7612,21.165 Q233.4087,21.3145 233.9731,21.6133 L233.9731,24.3359 Q233.3423,23.7549 232.7488,23.4851 Q232.1553,23.2153 231.5244,23.2153 Q230.1797,23.2153 229.4949,24.282 Q228.8101,25.3486 228.8101,27.4487 Q228.8101,29.5405 229.4949,30.6072 Q230.1797,31.6738 231.5244,31.6738 Q232.1553,31.6738 232.7488,31.4041 Q233.3423,31.1343 233.9731,30.5532 Z "/><text fill="#000000" font-family="sans-serif" font-size="14" lengthAdjust="spacingAndGlyphs" textLength="36" x="286.5" y="26.5352">Code</text><text fill="#000000" font-family="sans-serif" font-size="10" lengthAdjust="spacingAndGlyphs" textLength="118" x="245.5" y="39.1563">com.ibm.fhir.model.type</text></a><!--class com.ibm.fhir.model.type.code.TestReportParticipantType.Builder--><a href="TestReportParticipantType.Builder.html" target="_top" xlink:actuate="onRequest" xlink:show="new" xlink:title="TestReportParticipantType.Builder.html" xlink:type="simple"><rect fill="#FEFECE" filter="url(#f1xcopydlzrb9x)" height="38.2656" id="com.ibm.fhir.model.type.code.TestReportParticipantType.Builder" style="stroke: #A80036; stroke-width: 1.5;" width="265" x="6" y="337"/><ellipse cx="21" cy="356.1328" fill="#ADD1B2" rx="11" ry="11" style="stroke: #A80036; stroke-width: 1.0;"/><path d="M23.4731,362.2759 Q22.8921,362.5747 22.2529,362.7241 Q21.6138,362.8735 20.9082,362.8735 Q18.4014,362.8735 17.0815,361.2217 Q15.7617,359.5698 15.7617,356.4487 Q15.7617,353.3193 17.0815,351.6675 Q18.4014,350.0156 20.9082,350.0156 Q21.6138,350.0156 22.2612,350.165 Q22.9087,350.3145 23.4731,350.6133 L23.4731,353.3359 Q22.8423,352.7549 22.2488,352.4851 Q21.6553,352.2153 21.0244,352.2153 Q19.6797,352.2153 18.9949,353.282 Q18.3101,354.3486 18.3101,356.4487 Q18.3101,358.5405 18.9949,359.6072 Q19.6797,360.6738 21.0244,360.6738 Q21.6553,360.6738 22.2488,360.4041 Q22.8423,360.1343 23.4731,359.5532 Z "/><text fill="#000000" font-family="sans-serif" font-size="14" lengthAdjust="spacingAndGlyphs" textLength="233" x="35" y="355.5352">TestReportParticipantType.Builder</text><text fill="#000000" font-family="sans-serif" font-size="10" lengthAdjust="spacingAndGlyphs" textLength="144" x="79.5" y="368.1563">com.ibm.fhir.model.type.code</text></a><!--class com.ibm.fhir.model.type.code.TestReportParticipantType.ValueSet--><a href="TestReportParticipantType.ValueSet.html" target="_top" xlink:actuate="onRequest" xlink:show="new" xlink:title="TestReportParticipantType.ValueSet.html" xlink:type="simple"><rect fill="#FEFECE" filter="url(#f1xcopydlzrb9x)" height="38.2656" id="com.ibm.fhir.model.type.code.TestReportParticipantType.ValueSet" style="stroke: #A80036; stroke-width: 1.5;" width="276" x="306.5" y="337"/><ellipse cx="321.5" cy="356.1328" fill="#EB937F" rx="11" ry="11" style="stroke: #A80036; stroke-width: 1.0;"/><path d="M325.1143,362.6328 L317.3945,362.6328 L317.3945,350.2397 L325.1143,350.2397 L325.1143,352.3979 L319.8433,352.3979 L319.8433,355.0708 L324.6162,355.0708 L324.6162,357.229 L319.8433,357.229 L319.8433,360.4746 L325.1143,360.4746 Z "/><text fill="#000000" font-family="sans-serif" font-size="14" lengthAdjust="spacingAndGlyphs" textLength="244" x="335.5" y="355.5352">TestReportParticipantType.ValueSet</text><text fill="#000000" font-family="sans-serif" font-size="10" lengthAdjust="spacingAndGlyphs" textLength="144" x="385.5" y="368.1563">com.ibm.fhir.model.type.code</text></a><!--link com.ibm.fhir.model.type.Code to com.ibm.fhir.model.type.code.TestReportParticipantType--><path d="M291.5,66.2489 C291.5,78.2923 291.5,92.047 291.5,105.9281 " fill="none" id="com.ibm.fhir.model.type.Code-com.ibm.fhir.model.type.code.TestReportParticipantType" style="stroke: #A80036; stroke-width: 1.0;"/><polygon fill="none" points="284.5001,66.1922,291.5,46.1922,298.5001,66.1922,284.5001,66.1922" style="stroke: #A80036; stroke-width: 1.0;"/><!--link com.ibm.fhir.model.type.code.TestReportParticipantType to com.ibm.fhir.model.type.code.TestReportParticipantType.Builder--><path d="M201.6236,288.1318 C184.3696,306.6827 168.0525,324.2262 156.3317,336.828 " fill="none" id="com.ibm.fhir.model.type.code.TestReportParticipantType-com.ibm.fhir.model.type.code.TestReportParticipantType.Builder" style="stroke: #A80036; stroke-width: 1.0;"/><ellipse cx="206.4147" cy="282.9806" fill="#FFFFFF" rx="8" ry="8" style="stroke: #A80036; stroke-width: 1.0;"/><line style="stroke: #A80036; stroke-width: 1.0;" x1="200.9663" x2="211.8631" y1="288.8385" y2="277.1227"/><line style="stroke: #A80036; stroke-width: 1.0;" x1="200.5568" x2="212.2726" y1="277.5322" y2="288.429"/><!--link com.ibm.fhir.model.type.code.TestReportParticipantType to com.ibm.fhir.model.type.code.TestReportParticipantType.ValueSet--><path d="M381.3764,288.1318 C398.6304,306.6827 414.9475,324.2262 426.6683,336.828 " fill="none" id="com.ibm.fhir.model.type.code.TestReportParticipantType-com.ibm.fhir.model.type.code.TestReportParticipantType.ValueSet" style="stroke: #A80036; stroke-width: 1.0;"/><ellipse cx="376.5853" cy="282.9806" fill="#FFFFFF" rx="8" ry="8" style="stroke: #A80036; stroke-width: 1.0;"/><line style="stroke: #A80036; stroke-width: 1.0;" x1="382.0337" x2="371.1369" y1="288.8385" y2="277.1227"/><line style="stroke: #A80036; stroke-width: 1.0;" x1="370.7274" x2="382.4432" y1="288.429" y2="277.5322"/><text fill="#888888" font-family="sans-serif" font-size="10" lengthAdjust="spacingAndGlyphs" textLength="182" x="209.5" y="394.668">UMLDoclet 2.0.5, PlantUML 1.2019.08</text><!--
@startuml
    set namespaceSeparator none
    hide empty fields
    hide empty methods

    class "<size:14>TestReportParticipantType\n<size:10>com.ibm.fhir.model.type.code" as com.ibm.fhir.model.type.code.TestReportParticipantType [[TestReportParticipantType.html]] {
        {static} +TEST_ENGINE: TestReportParticipantType
        {static} +CLIENT: TestReportParticipantType
        {static} +SERVER: TestReportParticipantType
        {static} +of(String): TestReportParticipantType
        {static} +of(ValueSet): TestReportParticipantType
        {static} +string(String): String
        {static} +code(String): Code
        +toBuilder(): Builder
        {static} +builder(): Builder
    }

    class "<size:14>Code\n<size:10>com.ibm.fhir.model.type" as com.ibm.fhir.model.type.Code [[../Code.html]]
    class "<size:14>TestReportParticipantType.Builder\n<size:10>com.ibm.fhir.model.type.code" as com.ibm.fhir.model.type.code.TestReportParticipantType.Builder [[TestReportParticipantType.Builder.html]]
    enum "<size:14>TestReportParticipantType.ValueSet\n<size:10>com.ibm.fhir.model.type.code" as com.ibm.fhir.model.type.code.TestReportParticipantType.ValueSet [[TestReportParticipantType.ValueSet.html]]

    com.ibm.fhir.model.type.Code <|- - com.ibm.fhir.model.type.code.TestReportParticipantType
    com.ibm.fhir.model.type.code.TestReportParticipantType +- - com.ibm.fhir.model.type.code.TestReportParticipantType.Builder
    com.ibm.fhir.model.type.code.TestReportParticipantType +- - com.ibm.fhir.model.type.code.TestReportParticipantType.ValueSet

    center footer UMLDoclet 2.0.5, PlantUML 1.2019.08
@enduml

PlantUML version 1.2019.08(Sat Jul 13 15:25:14 EDT 2019)
(APACHE source distribution)
Java Runtime: OpenJDK Runtime Environment
JVM: OpenJDK 64-Bit Server VM
Java Version: 11.0.4+11
Operating System: Mac OS X
OS Version: 10.14.6
Default Encoding: UTF-8
Language: en
Country: US
--></g></svg>