<?xml version="1.0" encoding="UTF-8" standalone="no"?><svg xmlns="http://www.w3.org/2000/svg" xmlns:xlink="http://www.w3.org/1999/xlink" contentScriptType="application/ecmascript" contentStyleType="text/css" height="326px" preserveAspectRatio="none" style="width:370px;height:326px;" version="1.1" viewBox="0 0 370 326" width="370px" zoomAndPan="magnify"><defs><filter height="300%" id="flgrj6a2l536q" width="300%" x="-1" y="-1"><feGaussianBlur result="blurOut" stdDeviation="2.0"/><feColorMatrix in="blurOut" result="blurOut2" type="matrix" values="0 0 0 0 0 0 0 0 0 0 0 0 0 0 0 0 0 0 .4 0"/><feOffset dx="4.0" dy="4.0" in="blurOut2" result="blurOut3"/><feBlend in="SourceGraphic" in2="blurOut3" mode="normal"/></filter></defs><g><!--cluster com.ibm.fhir.model.patch--><polygon fill="#FFFFFF" filter="url(#flgrj6a2l536q)" points="14,16,200,16,207,38.4883,348,38.4883,348,285,14,285,14,16" style="stroke: #000000; stroke-width: 1.5;"/><line style="stroke: #000000; stroke-width: 1.5;" x1="14" x2="207" y1="38.4883" y2="38.4883"/><text fill="#000000" font-family="sans-serif" font-size="14" font-weight="bold" lengthAdjust="spacingAndGlyphs" textLength="180" x="18" y="31.5352">com.ibm.fhir.model.patch</text><!--class com.ibm.fhir.model.patch.FHIRPatch--><a href="FHIRPatch.html" target="_top" xlink:actuate="onRequest" xlink:show="new" xlink:title="FHIRPatch.html" xlink:type="simple"><rect fill="#FEFECE" filter="url(#flgrj6a2l536q)" height="99.8203" id="com.ibm.fhir.model.patch.FHIRPatch" style="stroke: #A80036; stroke-width: 1.5;" width="317" x="22.5" y="43"/><ellipse cx="148.25" cy="59" fill="#B4A7E5" rx="11" ry="11" style="stroke: #A80036; stroke-width: 1.0;"/><path d="M144.6777,55.2651 L144.6777,53.1069 L152.0571,53.1069 L152.0571,55.2651 L149.5918,55.2651 L149.5918,63.3418 L152.0571,63.3418 L152.0571,65.5 L144.6777,65.5 L144.6777,63.3418 L147.1431,63.3418 L147.1431,55.2651 Z "/><text fill="#000000" font-family="sans-serif" font-size="12" font-style="italic" lengthAdjust="spacingAndGlyphs" textLength="57" x="168.75" y="63.5352">FHIRPatch</text><line style="stroke: #A80036; stroke-width: 1.5;" x1="23.5" x2="338.5" y1="75" y2="75"/><line style="stroke: #A80036; stroke-width: 1.5;" x1="23.5" x2="338.5" y1="83" y2="83"/><ellipse cx="33.5" cy="94.9775" fill="#84BE84" rx="3" ry="3" style="stroke: #038048; stroke-width: 1.0;"/><text fill="#000000" font-family="sans-serif" font-size="11" font-style="italic" lengthAdjust="spacingAndGlyphs" textLength="255" x="42.5" y="97.6348">apply(T extends Resource): T extends Resource</text><ellipse cx="33.5" cy="107.9326" fill="#84BE84" rx="3" ry="3" style="stroke: #038048; stroke-width: 1.0;"/><text fill="#000000" font-family="sans-serif" font-size="11" lengthAdjust="spacingAndGlyphs" textLength="291" x="42.5" y="110.5898">as(Class&lt;T extends FHIRPatch&gt;): T extends FHIRPatch</text><ellipse cx="33.5" cy="120.8877" fill="#84BE84" rx="3" ry="3" style="stroke: #038048; stroke-width: 1.0;"/><text fill="#000000" font-family="sans-serif" font-size="11" lengthAdjust="spacingAndGlyphs" text-decoration="underline" textLength="150" x="42.5" y="123.5449">patch(JsonArray): FHIRPatch</text><ellipse cx="33.5" cy="133.8428" fill="#84BE84" rx="3" ry="3" style="stroke: #038048; stroke-width: 1.0;"/><text fill="#000000" font-family="sans-serif" font-size="11" lengthAdjust="spacingAndGlyphs" text-decoration="underline" textLength="149" x="42.5" y="136.5">patch(JsonPatch): FHIRPatch</text></a><!--class com.ibm.fhir.model.patch.FHIRJsonPatch--><a href="FHIRJsonPatch.html" target="_top" xlink:actuate="onRequest" xlink:show="new" xlink:title="FHIRJsonPatch.html" xlink:type="simple"><rect fill="#FEFECE" filter="url(#flgrj6a2l536q)" height="73.9102" id="com.ibm.fhir.model.patch.FHIRJsonPatch" style="stroke: #A80036; stroke-width: 1.5;" width="281" x="40.5" y="203"/><ellipse cx="136.25" cy="219" fill="#ADD1B2" rx="11" ry="11" style="stroke: #A80036; stroke-width: 1.0;"/><path d="M138.7231,225.1431 Q138.1421,225.4419 137.5029,225.5913 Q136.8638,225.7407 136.1582,225.7407 Q133.6514,225.7407 132.3315,224.0889 Q131.0117,222.437 131.0117,219.3159 Q131.0117,216.1865 132.3315,214.5347 Q133.6514,212.8828 136.1582,212.8828 Q136.8638,212.8828 137.5112,213.0322 Q138.1587,213.1816 138.7231,213.4805 L138.7231,216.2031 Q138.0923,215.6221 137.4988,215.3523 Q136.9053,215.0825 136.2744,215.0825 Q134.9297,215.0825 134.2449,216.1492 Q133.5601,217.2158 133.5601,219.3159 Q133.5601,221.4077 134.2449,222.4744 Q134.9297,223.541 136.2744,223.541 Q136.9053,223.541 137.4988,223.2712 Q138.0923,223.0015 138.7231,222.4204 Z "/><text fill="#000000" font-family="sans-serif" font-size="12" lengthAdjust="spacingAndGlyphs" textLength="81" x="156.75" y="223.5352">FHIRJsonPatch</text><line style="stroke: #A80036; stroke-width: 1.5;" x1="41.5" x2="320.5" y1="235" y2="235"/><line style="stroke: #A80036; stroke-width: 1.5;" x1="41.5" x2="320.5" y1="243" y2="243"/><ellipse cx="51.5" cy="254.9775" fill="#84BE84" rx="3" ry="3" style="stroke: #038048; stroke-width: 1.0;"/><text fill="#000000" font-family="sans-serif" font-size="11" lengthAdjust="spacingAndGlyphs" textLength="135" x="60.5" y="257.6348">getJsonPatch(): JsonPatch</text><ellipse cx="51.5" cy="267.9326" fill="#84BE84" rx="3" ry="3" style="stroke: #038048; stroke-width: 1.0;"/><text fill="#000000" font-family="sans-serif" font-size="11" lengthAdjust="spacingAndGlyphs" textLength="255" x="60.5" y="270.5898">apply(T extends Resource): T extends Resource</text></a><!--link com.ibm.fhir.model.patch.FHIRPatch to com.ibm.fhir.model.patch.FHIRJsonPatch--><path d="M181,163.3781 C181,176.917 181,190.5975 181,202.5774 " fill="none" id="com.ibm.fhir.model.patch.FHIRPatch-com.ibm.fhir.model.patch.FHIRJsonPatch" style="stroke: #A80036; stroke-width: 1.0; stroke-dasharray: 7.0,7.0;"/><polygon fill="none" points="174.0001,163.178,181,143.1779,188.0001,163.1779,174.0001,163.178" style="stroke: #A80036; stroke-width: 1.0;"/><text fill="#888888" font-family="sans-serif" font-size="10" lengthAdjust="spacingAndGlyphs" textLength="182" x="96" y="312.668">UMLDoclet 2.0.5, PlantUML 1.2019.08</text><!--
@startuml
    namespace com.ibm.fhir.model.patch {

        interface FHIRPatch [[FHIRPatch.html]] {
            {abstract} +apply(T extends Resource): T extends Resource
            +as(Class<T extends FHIRPatch>): T extends FHIRPatch
            {static} +patch(JsonArray): FHIRPatch
            {static} +patch(JsonPatch): FHIRPatch
        }

        class FHIRJsonPatch [[FHIRJsonPatch.html]] {
            +getJsonPatch(): JsonPatch
            +apply(T extends Resource): T extends Resource
        }

        FHIRPatch <|.. FHIRJsonPatch
    }

    center footer UMLDoclet 2.0.5, PlantUML 1.2019.08
@enduml

PlantUML version 1.2019.08(Sat Jul 13 15:25:14 EDT 2019)
(APACHE source distribution)
Java Runtime: OpenJDK Runtime Environment
JVM: OpenJDK 64-Bit Server VM
Java Version: 11.0.4+11
Operating System: Mac OS X
OS Version: 10.14.6
Default Encoding: UTF-8
Language: en
Country: US
--></g></svg>