<?xml version="1.0" encoding="UTF-8" standalone="no"?><svg xmlns="http://www.w3.org/2000/svg" xmlns:xlink="http://www.w3.org/1999/xlink" contentScriptType="application/ecmascript" contentStyleType="text/css" height="148px" preserveAspectRatio="none" style="width:422px;height:148px;" version="1.1" viewBox="0 0 422 148" width="422px" zoomAndPan="magnify"><defs><filter height="300%" id="f9ampm28i0irw" width="300%" x="-1" y="-1"><feGaussianBlur result="blurOut" stdDeviation="2.0"/><feColorMatrix in="blurOut" result="blurOut2" type="matrix" values="0 0 0 0 0 0 0 0 0 0 0 0 0 0 0 0 0 0 .4 0"/><feOffset dx="4.0" dy="4.0" in="blurOut2" result="blurOut3"/><feBlend in="SourceGraphic" in2="blurOut3" mode="normal"/></filter></defs><g><!--MD5=[8fb43673b96e8cd20c7147e549089961]
class com.ibm.fhir.registry.FHIRRegistry--><a href="FHIRRegistry.html" target="_top" title="FHIRRegistry.html" xlink:actuate="onRequest" xlink:href="FHIRRegistry.html" xlink:show="new" xlink:title="FHIRRegistry.html" xlink:type="simple"><rect fill="#FEFECE" filter="url(#f9ampm28i0irw)" height="111.041" id="com.ibm.fhir.registry.FHIRRegistry" style="stroke: #A80036; stroke-width: 1.5;" width="404" x="7" y="7"/><ellipse cx="154.25" cy="26.1328" fill="#ADD1B2" rx="11" ry="11" style="stroke: #A80036; stroke-width: 1.0;"/><path d="M156.7231,32.2759 Q156.1421,32.5747 155.5029,32.7241 Q154.8638,32.8735 154.1582,32.8735 Q151.6514,32.8735 150.3315,31.2217 Q149.0117,29.5698 149.0117,26.4487 Q149.0117,23.3193 150.3315,21.6675 Q151.6514,20.0156 154.1582,20.0156 Q154.8638,20.0156 155.5112,20.165 Q156.1587,20.3145 156.7231,20.6133 L156.7231,23.3359 Q156.0923,22.7549 155.4988,22.4851 Q154.9053,22.2153 154.2744,22.2153 Q152.9297,22.2153 152.2449,23.282 Q151.5601,24.3486 151.5601,26.4487 Q151.5601,28.5405 152.2449,29.6072 Q152.9297,30.6738 154.2744,30.6738 Q154.9053,30.6738 155.4988,30.4041 Q156.0923,30.1343 156.7231,29.5532 Z "/><text fill="#000000" font-family="sans-serif" font-size="14" lengthAdjust="spacingAndGlyphs" textLength="86" x="182.25" y="25.5352">FHIRRegistry</text><text fill="#000000" font-family="sans-serif" font-size="10" lengthAdjust="spacingAndGlyphs" textLength="101" x="174.75" y="38.1563">com.ibm.fhir.registry</text><line style="stroke: #A80036; stroke-width: 1.5;" x1="8" x2="410" y1="45.2656" y2="45.2656"/><ellipse cx="18" cy="56.2656" fill="#84BE84" rx="3" ry="3" style="stroke: #038048; stroke-width: 1.0;"/><text fill="#000000" font-family="sans-serif" font-size="11" lengthAdjust="spacingAndGlyphs" text-decoration="underline" textLength="144" x="27" y="59.9004">getInstance(): FHIRRegistry</text><ellipse cx="18" cy="69.2207" fill="#84BE84" rx="3" ry="3" style="stroke: #038048; stroke-width: 1.0;"/><text fill="#000000" font-family="sans-serif" font-size="11" lengthAdjust="spacingAndGlyphs" textLength="168" x="27" y="72.8555">getLatestVersion(String): String</text><ellipse cx="18" cy="82.1758" fill="#84BE84" rx="3" ry="3" style="stroke: #038048; stroke-width: 1.0;"/><text fill="#000000" font-family="sans-serif" font-size="11" lengthAdjust="spacingAndGlyphs" textLength="378" x="27" y="85.8105">getResource(String, Class&lt;T extends Resource&gt;): T extends Resource</text><ellipse cx="18" cy="95.1309" fill="#84BE84" rx="3" ry="3" style="stroke: #038048; stroke-width: 1.0;"/><text fill="#000000" font-family="sans-serif" font-size="11" lengthAdjust="spacingAndGlyphs" textLength="158" x="27" y="98.7656">hasResource(String): boolean</text><ellipse cx="18" cy="108.0859" fill="#84BE84" rx="3" ry="3" style="stroke: #038048; stroke-width: 1.0;"/><text fill="#000000" font-family="sans-serif" font-size="11" lengthAdjust="spacingAndGlyphs" textLength="156" x="27" y="111.7207">unloadResource(String): void</text></a><text fill="#888888" font-family="sans-serif" font-size="10" lengthAdjust="spacingAndGlyphs" textLength="182" x="118" y="134.709">UMLDoclet 2.0.7, PlantUML 1.2019.12</text><!--MD5=[2768349ea3bfe8bf715644996f6ee86a]
@startuml
    set namespaceSeparator none
    hide empty fields
    hide empty methods

    class "<size:14>FHIRRegistry\n<size:10>com.ibm.fhir.registry" as com.ibm.fhir.registry.FHIRRegistry [[FHIRRegistry.html]] {
        {static} +getInstance(): FHIRRegistry
        +getLatestVersion(String): String
        +getResource(String, Class<T extends Resource>): T extends Resource
        +hasResource(String): boolean
        +unloadResource(String): void
    }

    center footer UMLDoclet 2.0.7, PlantUML 1.2019.12
@enduml

PlantUML version 1.2019.12(Sun Nov 03 05:24:54 EST 2019)
(APACHE source distribution)
Java Runtime: OpenJDK Runtime Environment
JVM: OpenJDK 64-Bit Server VM
Java Version: 11.0.4+11
Operating System: Mac OS X
Default Encoding: UTF-8
Language: en
Country: US
--></g></svg>