<?xml version="1.0" encoding="UTF-8" standalone="no"?><svg xmlns="http://www.w3.org/2000/svg" xmlns:xlink="http://www.w3.org/1999/xlink" contentScriptType="application/ecmascript" contentStyleType="text/css" height="192px" preserveAspectRatio="none" style="width:539px;height:192px;" version="1.1" viewBox="0 0 539 192" width="539px" zoomAndPan="magnify"><defs><filter height="300%" id="f1jm520lc83spz" width="300%" x="-1" y="-1"><feGaussianBlur result="blurOut" stdDeviation="2.0"/><feColorMatrix in="blurOut" result="blurOut2" type="matrix" values="0 0 0 0 0 0 0 0 0 0 0 0 0 0 0 0 0 0 .4 0"/><feOffset dx="4.0" dy="4.0" in="blurOut2" result="blurOut3"/><feBlend in="SourceGraphic" in2="blurOut3" mode="normal"/></filter></defs><g><!--MD5=[f2d349bdc785c9fa9e23db5220d716f7]
cluster com.ibm.fhir.registry--><polygon fill="#FFFFFF" filter="url(#f1jm520lc83spz)" points="14,16,169,16,176,38.4883,517,38.4883,517,151,14,151,14,16" style="stroke: #000000; stroke-width: 1.5;"/><line style="stroke: #000000; stroke-width: 1.5;" x1="14" x2="176" y1="38.4883" y2="38.4883"/><text fill="#000000" font-family="sans-serif" font-size="14" font-weight="bold" lengthAdjust="spacingAndGlyphs" textLength="149" x="18" y="31.5352">com.ibm.fhir.registry</text><!--MD5=[8fb43673b96e8cd20c7147e549089961]
class com.ibm.fhir.registry.FHIRRegistry--><a href="FHIRRegistry.html" target="_top" title="FHIRRegistry.html" xlink:actuate="onRequest" xlink:href="FHIRRegistry.html" xlink:show="new" xlink:title="FHIRRegistry.html" xlink:type="simple"><rect fill="#FEFECE" filter="url(#f1jm520lc83spz)" height="99.8203" id="com.ibm.fhir.registry.FHIRRegistry" style="stroke: #A80036; stroke-width: 1.5;" width="404" x="22" y="43"/><ellipse cx="183.75" cy="59" fill="#ADD1B2" rx="11" ry="11" style="stroke: #A80036; stroke-width: 1.0;"/><path d="M186.2231,65.1431 Q185.6421,65.4419 185.0029,65.5913 Q184.3638,65.7407 183.6582,65.7407 Q181.1514,65.7407 179.8315,64.0889 Q178.5117,62.437 178.5117,59.3159 Q178.5117,56.1865 179.8315,54.5347 Q181.1514,52.8828 183.6582,52.8828 Q184.3638,52.8828 185.0112,53.0322 Q185.6587,53.1816 186.2231,53.4805 L186.2231,56.2031 Q185.5923,55.6221 184.9988,55.3523 Q184.4053,55.0825 183.7744,55.0825 Q182.4297,55.0825 181.7449,56.1492 Q181.0601,57.2158 181.0601,59.3159 Q181.0601,61.4077 181.7449,62.4744 Q182.4297,63.541 183.7744,63.541 Q184.4053,63.541 184.9988,63.2712 Q185.5923,63.0015 186.2231,62.4204 Z "/><text fill="#000000" font-family="sans-serif" font-size="12" lengthAdjust="spacingAndGlyphs" textLength="72" x="204.25" y="63.5352">FHIRRegistry</text><line style="stroke: #A80036; stroke-width: 1.5;" x1="23" x2="425" y1="75" y2="75"/><line style="stroke: #A80036; stroke-width: 1.5;" x1="23" x2="425" y1="83" y2="83"/><ellipse cx="33" cy="94" fill="#84BE84" rx="3" ry="3" style="stroke: #038048; stroke-width: 1.0;"/><text fill="#000000" font-family="sans-serif" font-size="11" lengthAdjust="spacingAndGlyphs" textLength="168" x="42" y="97.6348">getLatestVersion(String): String</text><ellipse cx="33" cy="106.9551" fill="#84BE84" rx="3" ry="3" style="stroke: #038048; stroke-width: 1.0;"/><text fill="#000000" font-family="sans-serif" font-size="11" lengthAdjust="spacingAndGlyphs" textLength="378" x="42" y="110.5898">getResource(String, Class&lt;T extends Resource&gt;): T extends Resource</text><ellipse cx="33" cy="119.9102" fill="#84BE84" rx="3" ry="3" style="stroke: #038048; stroke-width: 1.0;"/><text fill="#000000" font-family="sans-serif" font-size="11" lengthAdjust="spacingAndGlyphs" textLength="158" x="42" y="123.5449">hasResource(String): boolean</text><ellipse cx="33" cy="132.8652" fill="#84BE84" rx="3" ry="3" style="stroke: #038048; stroke-width: 1.0;"/><text fill="#000000" font-family="sans-serif" font-size="11" lengthAdjust="spacingAndGlyphs" textLength="156" x="42" y="136.5">unloadResource(String): void</text></a><!--MD5=[064c4347299d732d127cb11e59cb6804]
link com.ibm.fhir.registry.FHIRRegistry to com.ibm.fhir.registry.FHIRRegistry--><path d="M426.2758,77.4646 C447.4388,80.4973 461,85.6758 461,93 C461,99.6948 449.6694,104.5968 431.5597,107.7059 " fill="none" id="com.ibm.fhir.registry.FHIRRegistry-&gt;com.ibm.fhir.registry.FHIRRegistry" style="stroke: #A80036; stroke-width: 1.0;"/><polygon fill="#A80036" points="426.2758,108.5354,435.7872,111.0913,431.2153,107.76,434.5466,103.188,426.2758,108.5354" style="stroke: #A80036; stroke-width: 1.0;"/><text fill="#000000" font-family="sans-serif" font-size="13" lengthAdjust="spacingAndGlyphs" textLength="53" x="467" y="98.0684">instance</text><text fill="#888888" font-family="sans-serif" font-size="10" lengthAdjust="spacingAndGlyphs" textLength="182" x="181" y="178.668">UMLDoclet 2.0.7, PlantUML 1.2019.12</text><!--MD5=[40e98696adb82df36991fe91749ebf52]
@startuml
    namespace com.ibm.fhir.registry {

        class FHIRRegistry [[FHIRRegistry.html]] {
            +getLatestVersion(String): String
            +getResource(String, Class<T extends Resource>): T extends Resource
            +hasResource(String): boolean
            +unloadResource(String): void
        }

        FHIRRegistry - -> FHIRRegistry: instance
    }

    center footer UMLDoclet 2.0.7, PlantUML 1.2019.12
@enduml

PlantUML version 1.2019.12(Sun Nov 03 05:24:54 EST 2019)
(APACHE source distribution)
Java Runtime: OpenJDK Runtime Environment
JVM: OpenJDK 64-Bit Server VM
Java Version: 11.0.4+11
Operating System: Mac OS X
Default Encoding: UTF-8
Language: en
Country: US
--></g></svg>