<?xml version="1.0" encoding="UTF-8" standalone="no"?><svg xmlns="http://www.w3.org/2000/svg" xmlns:xlink="http://www.w3.org/1999/xlink" contentScriptType="application/ecmascript" contentStyleType="text/css" height="235px" preserveAspectRatio="none" style="width:247px;height:235px;" version="1.1" viewBox="0 0 247 235" width="247px" zoomAndPan="magnify"><defs><filter height="300%" id="fw90z18m49oz2" width="300%" x="-1" y="-1"><feGaussianBlur result="blurOut" stdDeviation="2.0"/><feColorMatrix in="blurOut" result="blurOut2" type="matrix" values="0 0 0 0 0 0 0 0 0 0 0 0 0 0 0 0 0 0 .4 0"/><feOffset dx="4.0" dy="4.0" in="blurOut2" result="blurOut3"/><feBlend in="SourceGraphic" in2="blurOut3" mode="normal"/></filter></defs><g><!--MD5=[ffc5be663b836e51b359399c7cb5be3f]
class com.ibm.fhir.database.utils.query.FromItemTable--><a href="FromItemTable.html" target="_top" title="FromItemTable.html" xlink:actuate="onRequest" xlink:href="FromItemTable.html" xlink:show="new" xlink:title="FromItemTable.html" xlink:type="simple"><rect fill="#FEFECE" filter="url(#fw90z18m49oz2)" height="97.1563" id="com.ibm.fhir.database.utils.query.FromItemTable" style="stroke: #A80036; stroke-width: 1.5;" width="230" x="6" y="106"/><ellipse cx="37.2" cy="124.9688" fill="#ADD1B2" rx="11" ry="11" style="stroke: #A80036; stroke-width: 1.0;"/><path d="M40.1688,130.6094 Q39.5906,130.9063 38.95,131.0469 Q38.3094,131.2031 37.6063,131.2031 Q35.1063,131.2031 33.7781,129.5625 Q32.4656,127.9063 32.4656,124.7813 Q32.4656,121.6563 33.7781,120 Q35.1063,118.3438 37.6063,118.3438 Q38.3094,118.3438 38.95,118.5 Q39.6063,118.6563 40.1688,118.9531 L40.1688,121.6719 Q39.5438,121.0938 38.95,120.8281 Q38.3563,120.5469 37.7313,120.5469 Q36.3875,120.5469 35.7,121.625 Q35.0125,122.6875 35.0125,124.7813 Q35.0125,126.875 35.7,127.9531 Q36.3875,129.0156 37.7313,129.0156 Q38.3563,129.0156 38.95,128.75 Q39.5438,128.4688 40.1688,127.8906 L40.1688,130.6094 Z "/><text fill="#000000" font-family="sans-serif" font-size="14" lengthAdjust="spacingAndGlyphs" textLength="103" x="84.3" y="123.9951">FromItemTable</text><text fill="#000000" font-family="sans-serif" font-size="10" lengthAdjust="spacingAndGlyphs" textLength="162" x="54.8" y="136.5791">com.ibm.fhir.database.utils.query</text><line style="stroke: #A80036; stroke-width: 1.5;" x1="7" x2="235" y1="143.9375" y2="143.9375"/><polygon fill="#FFFF44" points="17,149.9375,21,153.9375,17,157.9375,13,153.9375" style="stroke: #B38D22; stroke-width: 1.0;"/><text fill="#000000" font-family="sans-serif" font-size="11" lengthAdjust="spacingAndGlyphs" textLength="127" x="26" y="158.1479">FromItemTable(String)</text><polygon fill="#FFFF44" points="17,162.7422,21,166.7422,17,170.7422,13,166.7422" style="stroke: #B38D22; stroke-width: 1.0;"/><text fill="#000000" font-family="sans-serif" font-size="11" lengthAdjust="spacingAndGlyphs" textLength="162" x="26" y="170.9526">FromItemTable(String, Alias)</text><polygon fill="#FFFF44" points="17,175.5469,21,179.5469,17,183.5469,13,179.5469" style="stroke: #B38D22; stroke-width: 1.0;"/><text fill="#000000" font-family="sans-serif" font-size="11" lengthAdjust="spacingAndGlyphs" textLength="204" x="26" y="183.7573">FromItemTable(String, String, Alias)</text><polygon fill="#FFFF44" points="17,188.3516,21,192.3516,17,196.3516,13,192.3516" style="stroke: #B38D22; stroke-width: 1.0;"/><text fill="#000000" font-family="sans-serif" font-size="11" lengthAdjust="spacingAndGlyphs" textLength="169" x="26" y="196.562">FromItemTable(String, String)</text></a><!--MD5=[580cc5ab27068c49936598c0ca923ea2]
class com.ibm.fhir.database.utils.query.FromItem--><a href="FromItem.html" target="_top" title="FromItem.html" xlink:actuate="onRequest" xlink:href="FromItem.html" xlink:show="new" xlink:title="FromItem.html" xlink:type="simple"><rect fill="#FEFECE" filter="url(#fw90z18m49oz2)" height="37.9375" id="com.ibm.fhir.database.utils.query.FromItem" style="stroke: #A80036; stroke-width: 1.5;" width="194" x="24" y="8"/><ellipse cx="39" cy="26.9688" fill="#ADD1B2" rx="11" ry="11" style="stroke: #A80036; stroke-width: 1.0;"/><path d="M41.9688,32.6094 Q41.3906,32.9063 40.75,33.0469 Q40.1094,33.2031 39.4063,33.2031 Q36.9063,33.2031 35.5781,31.5625 Q34.2656,29.9063 34.2656,26.7813 Q34.2656,23.6563 35.5781,22 Q36.9063,20.3438 39.4063,20.3438 Q40.1094,20.3438 40.75,20.5 Q41.4063,20.6563 41.9688,20.9531 L41.9688,23.6719 Q41.3438,23.0938 40.75,22.8281 Q40.1563,22.5469 39.5313,22.5469 Q38.1875,22.5469 37.5,23.625 Q36.8125,24.6875 36.8125,26.7813 Q36.8125,28.875 37.5,29.9531 Q38.1875,31.0156 39.5313,31.0156 Q40.1563,31.0156 40.75,30.75 Q41.3438,30.4688 41.9688,29.8906 L41.9688,32.6094 Z "/><text fill="#000000" font-family="sans-serif" font-size="14" lengthAdjust="spacingAndGlyphs" textLength="65" x="101.5" y="25.9951">FromItem</text><text fill="#000000" font-family="sans-serif" font-size="10" lengthAdjust="spacingAndGlyphs" textLength="162" x="53" y="38.5791">com.ibm.fhir.database.utils.query</text></a><!--MD5=[47c9a53e392703029ad8aa3370cfced5]
reverse link com.ibm.fhir.database.utils.query.FromItem to com.ibm.fhir.database.utils.query.FromItemTable--><path d="M121,66.4138 C121,78.8609 121,92.7643 121,105.7811 " fill="none" id="com.ibm.fhir.database.utils.query.FromItem&lt;-com.ibm.fhir.database.utils.query.FromItemTable" style="stroke: #A80036; stroke-width: 1.0;"/><polygon fill="none" points="114.0001,66.0881,121,46.088,128.0001,66.088,114.0001,66.0881" style="stroke: #A80036; stroke-width: 1.0;"/><text fill="#888888" font-family="sans-serif" font-size="10" lengthAdjust="spacingAndGlyphs" textLength="186" x="34" y="222.2822">UMLDoclet 2.0.7, PlantUML 1.2019.12</text><!--MD5=[401cd73e97ca694c74358ca130d0f56f]
@startuml
    set namespaceSeparator none
    hide empty fields
    hide empty methods

    class "<size:14>FromItemTable\n<size:10>com.ibm.fhir.database.utils.query" as com.ibm.fhir.database.utils.query.FromItemTable [[FromItemTable.html]] {
        #FromItemTable(String)
        #FromItemTable(String, Alias)
        #FromItemTable(String, String, Alias)
        #FromItemTable(String, String)
    }

    class "<size:14>FromItem\n<size:10>com.ibm.fhir.database.utils.query" as com.ibm.fhir.database.utils.query.FromItem [[FromItem.html]]

    com.ibm.fhir.database.utils.query.FromItem <|- - com.ibm.fhir.database.utils.query.FromItemTable

    center footer UMLDoclet 2.0.7, PlantUML 1.2019.12
@enduml

PlantUML version 1.2019.12(Sun Nov 03 10:24:54 UTC 2019)
(APACHE source distribution)
Java Runtime: OpenJDK Runtime Environment
JVM: OpenJDK 64-Bit Server VM
Java Version: 11.0.8+10
Operating System: Linux
Default Encoding: UTF-8
Language: en
Country: null
--></g></svg>