<?xml version="1.0" encoding="UTF-8" standalone="no"?><svg xmlns="http://www.w3.org/2000/svg" xmlns:xlink="http://www.w3.org/1999/xlink" contentScriptType="application/ecmascript" contentStyleType="text/css" height="697px" preserveAspectRatio="none" style="width:1394px;height:697px;" version="1.1" viewBox="0 0 1394 697" width="1394px" zoomAndPan="magnify"><defs><filter height="300%" id="fs66z5v5i9tey" width="300%" x="-1" y="-1"><feGaussianBlur result="blurOut" stdDeviation="2.0"/><feColorMatrix in="blurOut" result="blurOut2" type="matrix" values="0 0 0 0 0 0 0 0 0 0 0 0 0 0 0 0 0 0 .4 0"/><feOffset dx="4.0" dy="4.0" in="blurOut2" result="blurOut3"/><feBlend in="SourceGraphic" in2="blurOut3" mode="normal"/></filter></defs><g><!--MD5=[fdc42cccee21327909b53ecae055be09]
cluster com.ibm.fhir.search.parameters--><polygon fill="#FFFFFF" filter="url(#fs66z5v5i9tey)" points="14,16,273,16,280,38.2969,1372,38.2969,1372,657,14,657,14,16" style="stroke: #000000; stroke-width: 1.5;"/><line style="stroke: #000000; stroke-width: 1.5;" x1="14" x2="280" y1="38.2969" y2="38.2969"/><text fill="#000000" font-family="sans-serif" font-size="14" font-weight="bold" lengthAdjust="spacingAndGlyphs" textLength="253" x="18" y="30.9951">com.ibm.fhir.search.parameters</text><!--MD5=[f749a43abb81c17f8b3f62b462cae22c]
class com.ibm.fhir.search.parameters.ParametersMap--><a href="ParametersMap.html" target="_top" title="ParametersMap.html" xlink:actuate="onRequest" xlink:href="ParametersMap.html" xlink:show="new" xlink:title="ParametersMap.html" xlink:type="simple"><rect fill="#FEFECE" filter="url(#fs66z5v5i9tey)" height="163.2422" id="com.ibm.fhir.search.parameters.ParametersMap" style="stroke: #A80036; stroke-width: 1.5;" width="372" x="711" y="56"/><ellipse cx="843.25" cy="72" fill="#ADD1B2" rx="11" ry="11" style="stroke: #A80036; stroke-width: 1.0;"/><path d="M846.2188,77.6406 Q845.6406,77.9375 845,78.0781 Q844.3594,78.2344 843.6563,78.2344 Q841.1563,78.2344 839.8281,76.5938 Q838.5156,74.9375 838.5156,71.8125 Q838.5156,68.6875 839.8281,67.0313 Q841.1563,65.375 843.6563,65.375 Q844.3594,65.375 845,65.5313 Q845.6563,65.6875 846.2188,65.9844 L846.2188,68.7031 Q845.5938,68.125 845,67.8594 Q844.4063,67.5781 843.7813,67.5781 Q842.4375,67.5781 841.75,68.6563 Q841.0625,69.7188 841.0625,71.8125 Q841.0625,73.9063 841.75,74.9844 Q842.4375,76.0469 843.7813,76.0469 Q844.4063,76.0469 845,75.7813 Q845.5938,75.5 846.2188,74.9219 L846.2188,77.6406 Z "/><text fill="#000000" font-family="sans-serif" font-size="12" lengthAdjust="spacingAndGlyphs" textLength="99" x="863.75" y="76.1543">ParametersMap</text><line style="stroke: #A80036; stroke-width: 1.5;" x1="712" x2="1082" y1="88" y2="88"/><line style="stroke: #A80036; stroke-width: 1.5;" x1="712" x2="1082" y1="96" y2="96"/><ellipse cx="722" cy="107" fill="#84BE84" rx="3" ry="3" style="stroke: #038048; stroke-width: 1.0;"/><text fill="#000000" font-family="sans-serif" font-size="11" lengthAdjust="spacingAndGlyphs" textLength="214" x="731" y="110.2104">insert(String, SearchParameter): void</text><ellipse cx="722" cy="119.8047" fill="#84BE84" rx="3" ry="3" style="stroke: #038048; stroke-width: 1.0;"/><text fill="#000000" font-family="sans-serif" font-size="11" lengthAdjust="spacingAndGlyphs" textLength="175" x="731" y="123.0151">insertAll(ParametersMap): void</text><ellipse cx="722" cy="132.6094" fill="#84BE84" rx="3" ry="3" style="stroke: #038048; stroke-width: 1.0;"/><text fill="#000000" font-family="sans-serif" font-size="11" lengthAdjust="spacingAndGlyphs" textLength="267" x="731" y="135.8198">lookupByCode(String): Set&lt;SearchParameter&gt;</text><ellipse cx="722" cy="145.4141" fill="#84BE84" rx="3" ry="3" style="stroke: #038048; stroke-width: 1.0;"/><text fill="#000000" font-family="sans-serif" font-size="11" lengthAdjust="spacingAndGlyphs" textLength="217" x="731" y="148.6245">lookupByUrl(String): SearchParameter</text><ellipse cx="722" cy="158.2188" fill="#84BE84" rx="3" ry="3" style="stroke: #038048; stroke-width: 1.0;"/><text fill="#000000" font-family="sans-serif" font-size="11" lengthAdjust="spacingAndGlyphs" textLength="226" x="731" y="161.4292">values(): Collection&lt;SearchParameter&gt;</text><ellipse cx="722" cy="171.0234" fill="#84BE84" rx="3" ry="3" style="stroke: #038048; stroke-width: 1.0;"/><text fill="#000000" font-family="sans-serif" font-size="11" lengthAdjust="spacingAndGlyphs" textLength="106" x="731" y="174.2339">isEmpty(): boolean</text><ellipse cx="722" cy="183.8281" fill="#84BE84" rx="3" ry="3" style="stroke: #038048; stroke-width: 1.0;"/><text fill="#000000" font-family="sans-serif" font-size="11" lengthAdjust="spacingAndGlyphs" textLength="52" x="731" y="187.0386">size(): int</text><ellipse cx="722" cy="196.6328" fill="#84BE84" rx="3" ry="3" style="stroke: #038048; stroke-width: 1.0;"/><text fill="#000000" font-family="sans-serif" font-size="11" lengthAdjust="spacingAndGlyphs" textLength="346" x="731" y="199.8433">codeEntries(): Set&lt;Entry&lt;String, Set&lt;SearchParameter&gt;&gt;&gt;</text><ellipse cx="722" cy="209.4375" fill="#84BE84" rx="3" ry="3" style="stroke: #038048; stroke-width: 1.0;"/><text fill="#000000" font-family="sans-serif" font-size="11" lengthAdjust="spacingAndGlyphs" textLength="297" x="731" y="212.6479">urlEntries(): Set&lt;Entry&lt;String, SearchParameter&gt;&gt;</text></a><!--MD5=[6187f6d4a3b04306bee88bd593ebfd72]
class com.ibm.fhir.search.parameters.SortParameter--><a href="SortParameter.html" target="_top" title="SortParameter.html" xlink:actuate="onRequest" xlink:href="SortParameter.html" xlink:show="new" xlink:title="SortParameter.html" xlink:type="simple"><rect fill="#FEFECE" filter="url(#fs66z5v5i9tey)" height="99.2188" id="com.ibm.fhir.search.parameters.SortParameter" style="stroke: #A80036; stroke-width: 1.5;" width="245" x="1118.5" y="88"/><ellipse cx="1190.75" cy="104" fill="#ADD1B2" rx="11" ry="11" style="stroke: #A80036; stroke-width: 1.0;"/><path d="M1193.7188,109.6406 Q1193.1406,109.9375 1192.5,110.0781 Q1191.8594,110.2344 1191.1563,110.2344 Q1188.6563,110.2344 1187.3281,108.5938 Q1186.0156,106.9375 1186.0156,103.8125 Q1186.0156,100.6875 1187.3281,99.0313 Q1188.6563,97.375 1191.1563,97.375 Q1191.8594,97.375 1192.5,97.5313 Q1193.1563,97.6875 1193.7188,97.9844 L1193.7188,100.7031 Q1193.0938,100.125 1192.5,99.8594 Q1191.9063,99.5781 1191.2813,99.5781 Q1189.9375,99.5781 1189.25,100.6563 Q1188.5625,101.7188 1188.5625,103.8125 Q1188.5625,105.9063 1189.25,106.9844 Q1189.9375,108.0469 1191.2813,108.0469 Q1191.9063,108.0469 1192.5,107.7813 Q1193.0938,107.5 1193.7188,106.9219 L1193.7188,109.6406 Z "/><text fill="#000000" font-family="sans-serif" font-size="12" lengthAdjust="spacingAndGlyphs" textLength="92" x="1211.25" y="108.1543">SortParameter</text><line style="stroke: #A80036; stroke-width: 1.5;" x1="1119.5" x2="1362.5" y1="120" y2="120"/><line style="stroke: #A80036; stroke-width: 1.5;" x1="1119.5" x2="1362.5" y1="128" y2="128"/><ellipse cx="1129.5" cy="139" fill="#84BE84" rx="3" ry="3" style="stroke: #038048; stroke-width: 1.0;"/><text fill="#000000" font-family="sans-serif" font-size="11" lengthAdjust="spacingAndGlyphs" textLength="219" x="1138.5" y="142.2104">SortParameter(String, Type, Direction)</text><ellipse cx="1129.5" cy="151.8047" fill="#84BE84" rx="3" ry="3" style="stroke: #038048; stroke-width: 1.0;"/><text fill="#000000" font-family="sans-serif" font-size="11" lengthAdjust="spacingAndGlyphs" textLength="97" x="1138.5" y="155.0151">getCode(): String</text><ellipse cx="1129.5" cy="164.6094" fill="#84BE84" rx="3" ry="3" style="stroke: #038048; stroke-width: 1.0;"/><text fill="#000000" font-family="sans-serif" font-size="11" lengthAdjust="spacingAndGlyphs" textLength="88" x="1138.5" y="167.8198">getType(): Type</text><ellipse cx="1129.5" cy="177.4141" fill="#84BE84" rx="3" ry="3" style="stroke: #038048; stroke-width: 1.0;"/><text fill="#000000" font-family="sans-serif" font-size="11" lengthAdjust="spacingAndGlyphs" textLength="134" x="1138.5" y="180.6245">getDirection(): Direction</text></a><!--MD5=[d4fbfbbf615b4e8b1a8c38e538ef3350]
class com.ibm.fhir.search.parameters.ParametersUtil--><a href="ParametersUtil.html" target="_top" title="ParametersUtil.html" xlink:actuate="onRequest" xlink:href="ParametersUtil.html" xlink:show="new" xlink:title="ParametersUtil.html" xlink:type="simple"><rect fill="#FEFECE" filter="url(#fs66z5v5i9tey)" height="252.875" id="com.ibm.fhir.search.parameters.ParametersUtil" style="stroke: #A80036; stroke-width: 1.5;" width="479" x="587.5" y="383.5"/><ellipse cx="776.25" cy="399.5" fill="#ADD1B2" rx="11" ry="11" style="stroke: #A80036; stroke-width: 1.0;"/><path d="M779.2188,405.1406 Q778.6406,405.4375 778,405.5781 Q777.3594,405.7344 776.6563,405.7344 Q774.1563,405.7344 772.8281,404.0938 Q771.5156,402.4375 771.5156,399.3125 Q771.5156,396.1875 772.8281,394.5313 Q774.1563,392.875 776.6563,392.875 Q777.3594,392.875 778,393.0313 Q778.6563,393.1875 779.2188,393.4844 L779.2188,396.2031 Q778.5938,395.625 778,395.3594 Q777.4063,395.0781 776.7813,395.0781 Q775.4375,395.0781 774.75,396.1563 Q774.0625,397.2188 774.0625,399.3125 Q774.0625,401.4063 774.75,402.4844 Q775.4375,403.5469 776.7813,403.5469 Q777.4063,403.5469 778,403.2813 Q778.5938,403 779.2188,402.4219 L779.2188,405.1406 Z "/><text fill="#000000" font-family="sans-serif" font-size="12" lengthAdjust="spacingAndGlyphs" textLength="93" x="796.75" y="403.6543">ParametersUtil</text><line style="stroke: #A80036; stroke-width: 1.5;" x1="588.5" x2="1065.5" y1="415.5" y2="415.5"/><ellipse cx="598.5" cy="426.5" fill="none" rx="3" ry="3" style="stroke: #038048; stroke-width: 1.0;"/><text fill="#000000" font-family="sans-serif" font-size="11" lengthAdjust="spacingAndGlyphs" text-decoration="underline" textLength="194" x="607.5" y="429.7104">FHIR_PATH_BUNDLE_ENTRY: String</text><ellipse cx="598.5" cy="439.3047" fill="none" rx="3" ry="3" style="stroke: #038048; stroke-width: 1.0;"/><text fill="#000000" font-family="sans-serif" font-size="11" lengthAdjust="spacingAndGlyphs" text-decoration="underline" textLength="279" x="607.5" y="442.5151">FHIR_DEFAULT_SEARCH_PARAMETERS_FILE: String</text><ellipse cx="598.5" cy="452.1094" fill="none" rx="3" ry="3" style="stroke: #038048; stroke-width: 1.0;"/><text fill="#000000" font-family="sans-serif" font-size="11" lengthAdjust="spacingAndGlyphs" text-decoration="underline" textLength="117" x="607.5" y="455.3198">FROM_STEAM: String</text><ellipse cx="598.5" cy="464.9141" fill="none" rx="3" ry="3" style="stroke: #038048; stroke-width: 1.0;"/><text fill="#000000" font-family="sans-serif" font-size="11" lengthAdjust="spacingAndGlyphs" text-decoration="underline" textLength="148" x="607.5" y="468.1245">ERROR_EXCEPTION: String</text><ellipse cx="598.5" cy="477.7188" fill="none" rx="3" ry="3" style="stroke: #038048; stroke-width: 1.0;"/><text fill="#000000" font-family="sans-serif" font-size="11" lengthAdjust="spacingAndGlyphs" text-decoration="underline" textLength="197" x="607.5" y="480.9292">BUILTIN_ERROR_EXCEPTION: String</text><ellipse cx="598.5" cy="490.5234" fill="none" rx="3" ry="3" style="stroke: #038048; stroke-width: 1.0;"/><text fill="#000000" font-family="sans-serif" font-size="11" lengthAdjust="spacingAndGlyphs" text-decoration="underline" textLength="199" x="607.5" y="493.7339">STREAM_ERROR_EXCEPTION: String</text><ellipse cx="598.5" cy="503.3281" fill="none" rx="3" ry="3" style="stroke: #038048; stroke-width: 1.0;"/><text fill="#000000" font-family="sans-serif" font-size="11" lengthAdjust="spacingAndGlyphs" text-decoration="underline" textLength="145" x="607.5" y="506.5386">LOG_PARAMETERS: String</text><ellipse cx="598.5" cy="516.1328" fill="none" rx="3" ry="3" style="stroke: #038048; stroke-width: 1.0;"/><text fill="#000000" font-family="sans-serif" font-size="11" lengthAdjust="spacingAndGlyphs" text-decoration="underline" textLength="224" x="607.5" y="519.3433">MISSING_EXPRESSION_WARNING: String</text><ellipse cx="598.5" cy="528.9375" fill="none" rx="3" ry="3" style="stroke: #038048; stroke-width: 1.0;"/><text fill="#000000" font-family="sans-serif" font-size="11" lengthAdjust="spacingAndGlyphs" text-decoration="underline" textLength="116" x="607.5" y="532.1479">LOG_HEADER: String</text><ellipse cx="598.5" cy="541.7422" fill="none" rx="3" ry="3" style="stroke: #038048; stroke-width: 1.0;"/><text fill="#000000" font-family="sans-serif" font-size="11" lengthAdjust="spacingAndGlyphs" text-decoration="underline" textLength="99" x="607.5" y="544.9526">LOG_SIZE: String</text><line style="stroke: #A80036; stroke-width: 1.5;" x1="588.5" x2="1065.5" y1="551.5469" y2="551.5469"/><ellipse cx="598.5" cy="562.5469" fill="#84BE84" rx="3" ry="3" style="stroke: #038048; stroke-width: 1.0;"/><text fill="#000000" font-family="sans-serif" font-size="11" lengthAdjust="spacingAndGlyphs" text-decoration="underline" textLength="56" x="607.5" y="565.7573">init(): void</text><ellipse cx="598.5" cy="575.3516" fill="#84BE84" rx="3" ry="3" style="stroke: #038048; stroke-width: 1.0;"/><text fill="#000000" font-family="sans-serif" font-size="11" lengthAdjust="spacingAndGlyphs" text-decoration="underline" textLength="453" x="607.5" y="578.562">buildSearchParametersMapFromBundle(Bundle): Map&lt;String, ParametersMap&gt;</text><polygon fill="#4177AF" points="598.5,584.1563,594.5,590.1563,602.5,590.1563" style="stroke: #1963A0; stroke-width: 1.0;"/><text fill="#000000" font-family="sans-serif" font-size="11" lengthAdjust="spacingAndGlyphs" text-decoration="underline" textLength="351" x="607.5" y="591.3667">checkAndWarnForIssueWithCodeAndName(String, String): void</text><ellipse cx="598.5" cy="600.9609" fill="#84BE84" rx="3" ry="3" style="stroke: #038048; stroke-width: 1.0;"/><text fill="#000000" font-family="sans-serif" font-size="11" lengthAdjust="spacingAndGlyphs" text-decoration="underline" textLength="372" x="607.5" y="604.1714">getBuiltInSearchParametersMap(): Map&lt;String, ParametersMap&gt;</text><ellipse cx="598.5" cy="613.7656" fill="#84BE84" rx="3" ry="3" style="stroke: #038048; stroke-width: 1.0;"/><text fill="#000000" font-family="sans-serif" font-size="11" lengthAdjust="spacingAndGlyphs" text-decoration="underline" textLength="133" x="607.5" y="616.9761">print(PrintStream): void</text><ellipse cx="598.5" cy="626.5703" fill="#84BE84" rx="3" ry="3" style="stroke: #038048; stroke-width: 1.0;"/><text fill="#000000" font-family="sans-serif" font-size="11" lengthAdjust="spacingAndGlyphs" text-decoration="underline" textLength="341" x="607.5" y="629.7808">printSearchParameter(SearchParameter, PrintStream): void</text></a><!--MD5=[eb3b04098bcedf195465ae8082385bd1]
class com.ibm.fhir.search.parameters.InclusionParameter--><a href="InclusionParameter.html" target="_top" title="InclusionParameter.html" xlink:actuate="onRequest" xlink:href="InclusionParameter.html" xlink:show="new" xlink:title="InclusionParameter.html" xlink:type="simple"><rect fill="#FEFECE" filter="url(#fs66z5v5i9tey)" height="99.2188" id="com.ibm.fhir.search.parameters.InclusionParameter" style="stroke: #A80036; stroke-width: 1.5;" width="262" x="1102" y="460.5"/><ellipse cx="1168.25" cy="476.5" fill="#ADD1B2" rx="11" ry="11" style="stroke: #A80036; stroke-width: 1.0;"/><path d="M1171.2188,482.1406 Q1170.6406,482.4375 1170,482.5781 Q1169.3594,482.7344 1168.6563,482.7344 Q1166.1563,482.7344 1164.8281,481.0938 Q1163.5156,479.4375 1163.5156,476.3125 Q1163.5156,473.1875 1164.8281,471.5313 Q1166.1563,469.875 1168.6563,469.875 Q1169.3594,469.875 1170,470.0313 Q1170.6563,470.1875 1171.2188,470.4844 L1171.2188,473.2031 Q1170.5938,472.625 1170,472.3594 Q1169.4063,472.0781 1168.7813,472.0781 Q1167.4375,472.0781 1166.75,473.1563 Q1166.0625,474.2188 1166.0625,476.3125 Q1166.0625,478.4063 1166.75,479.4844 Q1167.4375,480.5469 1168.7813,480.5469 Q1169.4063,480.5469 1170,480.2813 Q1170.5938,480 1171.2188,479.4219 L1171.2188,482.1406 Z "/><text fill="#000000" font-family="sans-serif" font-size="12" lengthAdjust="spacingAndGlyphs" textLength="121" x="1188.75" y="480.6543">InclusionParameter</text><line style="stroke: #A80036; stroke-width: 1.5;" x1="1103" x2="1363" y1="492.5" y2="492.5"/><line style="stroke: #A80036; stroke-width: 1.5;" x1="1103" x2="1363" y1="500.5" y2="500.5"/><ellipse cx="1113" cy="511.5" fill="#84BE84" rx="3" ry="3" style="stroke: #038048; stroke-width: 1.0;"/><text fill="#000000" font-family="sans-serif" font-size="11" lengthAdjust="spacingAndGlyphs" textLength="236" x="1122" y="514.7104">InclusionParameter(String, String, String)</text><ellipse cx="1113" cy="524.3047" fill="#84BE84" rx="3" ry="3" style="stroke: #038048; stroke-width: 1.0;"/><text fill="#000000" font-family="sans-serif" font-size="11" lengthAdjust="spacingAndGlyphs" textLength="168" x="1122" y="527.5151">getJoinResourceType(): String</text><ellipse cx="1113" cy="537.1094" fill="#84BE84" rx="3" ry="3" style="stroke: #038048; stroke-width: 1.0;"/><text fill="#000000" font-family="sans-serif" font-size="11" lengthAdjust="spacingAndGlyphs" textLength="168" x="1122" y="540.3198">getSearchParameter(): String</text><ellipse cx="1113" cy="549.9141" fill="#84BE84" rx="3" ry="3" style="stroke: #038048; stroke-width: 1.0;"/><text fill="#000000" font-family="sans-serif" font-size="11" lengthAdjust="spacingAndGlyphs" textLength="232" x="1122" y="553.1245">getSearchParameterTargetType(): String</text></a><!--MD5=[15fc44f6ca77301397fe5dcc38b2cc9f]
class com.ibm.fhir.search.parameters.QueryParameter--><a href="QueryParameter.html" target="_top" title="QueryParameter.html" xlink:actuate="onRequest" xlink:href="QueryParameter.html" xlink:show="new" xlink:title="QueryParameter.html" xlink:type="simple"><rect fill="#FEFECE" filter="url(#fs66z5v5i9tey)" height="188.8516" id="com.ibm.fhir.search.parameters.QueryParameter" style="stroke: #A80036; stroke-width: 1.5;" width="463" x="22.5" y="43"/><ellipse cx="198.75" cy="59" fill="#ADD1B2" rx="11" ry="11" style="stroke: #A80036; stroke-width: 1.0;"/><path d="M201.7188,64.6406 Q201.1406,64.9375 200.5,65.0781 Q199.8594,65.2344 199.1563,65.2344 Q196.6563,65.2344 195.3281,63.5938 Q194.0156,61.9375 194.0156,58.8125 Q194.0156,55.6875 195.3281,54.0313 Q196.6563,52.375 199.1563,52.375 Q199.8594,52.375 200.5,52.5313 Q201.1563,52.6875 201.7188,52.9844 L201.7188,55.7031 Q201.0938,55.125 200.5,54.8594 Q199.9063,54.5781 199.2813,54.5781 Q197.9375,54.5781 197.25,55.6563 Q196.5625,56.7188 196.5625,58.8125 Q196.5625,60.9063 197.25,61.9844 Q197.9375,63.0469 199.2813,63.0469 Q199.9063,63.0469 200.5,62.7813 Q201.0938,62.5 201.7188,61.9219 L201.7188,64.6406 Z "/><text fill="#000000" font-family="sans-serif" font-size="12" lengthAdjust="spacingAndGlyphs" textLength="102" x="219.25" y="63.1543">QueryParameter</text><line style="stroke: #A80036; stroke-width: 1.5;" x1="23.5" x2="484.5" y1="75" y2="75"/><line style="stroke: #A80036; stroke-width: 1.5;" x1="23.5" x2="484.5" y1="83" y2="83"/><ellipse cx="33.5" cy="94" fill="#84BE84" rx="3" ry="3" style="stroke: #038048; stroke-width: 1.0;"/><text fill="#000000" font-family="sans-serif" font-size="11" lengthAdjust="spacingAndGlyphs" textLength="266" x="42.5" y="97.2104">QueryParameter(Type, String, Modifier, String)</text><ellipse cx="33.5" cy="106.8047" fill="#84BE84" rx="3" ry="3" style="stroke: #038048; stroke-width: 1.0;"/><text fill="#000000" font-family="sans-serif" font-size="11" lengthAdjust="spacingAndGlyphs" textLength="319" x="42.5" y="110.0151">QueryParameter(Type, String, Modifier, String, boolean)</text><ellipse cx="33.5" cy="119.6094" fill="#84BE84" rx="3" ry="3" style="stroke: #038048; stroke-width: 1.0;"/><text fill="#000000" font-family="sans-serif" font-size="11" lengthAdjust="spacingAndGlyphs" textLength="372" x="42.5" y="122.8198">QueryParameter(Type, String, Modifier, String, boolean, boolean)</text><ellipse cx="33.5" cy="132.4141" fill="#84BE84" rx="3" ry="3" style="stroke: #038048; stroke-width: 1.0;"/><text fill="#000000" font-family="sans-serif" font-size="11" lengthAdjust="spacingAndGlyphs" textLength="437" x="42.5" y="135.6245">QueryParameter(Type, String, Modifier, String, List&lt;QueryParameterValue&gt;)</text><ellipse cx="33.5" cy="145.2188" fill="#84BE84" rx="3" ry="3" style="stroke: #038048; stroke-width: 1.0;"/><text fill="#000000" font-family="sans-serif" font-size="11" lengthAdjust="spacingAndGlyphs" textLength="88" x="42.5" y="148.4292">getType(): Type</text><ellipse cx="33.5" cy="158.0234" fill="#84BE84" rx="3" ry="3" style="stroke: #038048; stroke-width: 1.0;"/><text fill="#000000" font-family="sans-serif" font-size="11" lengthAdjust="spacingAndGlyphs" textLength="97" x="42.5" y="161.2339">getCode(): String</text><ellipse cx="33.5" cy="170.8281" fill="#84BE84" rx="3" ry="3" style="stroke: #038048; stroke-width: 1.0;"/><text fill="#000000" font-family="sans-serif" font-size="11" lengthAdjust="spacingAndGlyphs" textLength="124" x="42.5" y="174.0386">getModifier(): Modifier</text><ellipse cx="33.5" cy="183.6328" fill="#84BE84" rx="3" ry="3" style="stroke: #038048; stroke-width: 1.0;"/><text fill="#000000" font-family="sans-serif" font-size="11" lengthAdjust="spacingAndGlyphs" textLength="226" x="42.5" y="186.8433">getModifierResourceTypeName(): String</text><ellipse cx="33.5" cy="196.4375" fill="#84BE84" rx="3" ry="3" style="stroke: #038048; stroke-width: 1.0;"/><text fill="#000000" font-family="sans-serif" font-size="11" lengthAdjust="spacingAndGlyphs" textLength="117" x="42.5" y="199.6479">isChained(): boolean</text><ellipse cx="33.5" cy="209.2422" fill="#84BE84" rx="3" ry="3" style="stroke: #038048; stroke-width: 1.0;"/><text fill="#000000" font-family="sans-serif" font-size="11" lengthAdjust="spacingAndGlyphs" textLength="163" x="42.5" y="212.4526">isInclusionCriteria(): boolean</text><ellipse cx="33.5" cy="222.0469" fill="#84BE84" rx="3" ry="3" style="stroke: #038048; stroke-width: 1.0;"/><text fill="#000000" font-family="sans-serif" font-size="11" lengthAdjust="spacingAndGlyphs" textLength="163" x="42.5" y="225.2573">isReverseChained(): boolean</text></a><!--MD5=[7e3c6f24eb2ba86da5f1c715355e3bfa]
class com.ibm.fhir.search.parameters.QueryParameterValue--><a href="QueryParameterValue.html" target="_top" title="QueryParameterValue.html" xlink:actuate="onRequest" xlink:href="QueryParameterValue.html" xlink:show="new" xlink:title="QueryParameterValue.html" xlink:type="simple"><rect fill="#FEFECE" filter="url(#fs66z5v5i9tey)" height="278.4844" id="com.ibm.fhir.search.parameters.QueryParameterValue" style="stroke: #A80036; stroke-width: 1.5;" width="257" x="130.5" y="371"/><ellipse cx="186.25" cy="387" fill="#ADD1B2" rx="11" ry="11" style="stroke: #A80036; stroke-width: 1.0;"/><path d="M189.2188,392.6406 Q188.6406,392.9375 188,393.0781 Q187.3594,393.2344 186.6563,393.2344 Q184.1563,393.2344 182.8281,391.5938 Q181.5156,389.9375 181.5156,386.8125 Q181.5156,383.6875 182.8281,382.0313 Q184.1563,380.375 186.6563,380.375 Q187.3594,380.375 188,380.5313 Q188.6563,380.6875 189.2188,380.9844 L189.2188,383.7031 Q188.5938,383.125 188,382.8594 Q187.4063,382.5781 186.7813,382.5781 Q185.4375,382.5781 184.75,383.6563 Q184.0625,384.7188 184.0625,386.8125 Q184.0625,388.9063 184.75,389.9844 Q185.4375,391.0469 186.7813,391.0469 Q187.4063,391.0469 188,390.7813 Q188.5938,390.5 189.2188,389.9219 L189.2188,392.6406 Z "/><text fill="#000000" font-family="sans-serif" font-size="12" lengthAdjust="spacingAndGlyphs" textLength="137" x="206.75" y="391.1543">QueryParameterValue</text><line style="stroke: #A80036; stroke-width: 1.5;" x1="131.5" x2="386.5" y1="403" y2="403"/><line style="stroke: #A80036; stroke-width: 1.5;" x1="131.5" x2="386.5" y1="411" y2="411"/><ellipse cx="141.5" cy="422" fill="#84BE84" rx="3" ry="3" style="stroke: #038048; stroke-width: 1.0;"/><text fill="#000000" font-family="sans-serif" font-size="11" lengthAdjust="spacingAndGlyphs" textLength="121" x="150.5" y="425.2104">setPrefix(Prefix): void</text><ellipse cx="141.5" cy="434.8047" fill="#84BE84" rx="3" ry="3" style="stroke: #038048; stroke-width: 1.0;"/><text fill="#000000" font-family="sans-serif" font-size="11" lengthAdjust="spacingAndGlyphs" textLength="228" x="150.5" y="438.0151">withPrefix(Prefix): QueryParameterValue</text><ellipse cx="141.5" cy="447.6094" fill="#84BE84" rx="3" ry="3" style="stroke: #038048; stroke-width: 1.0;"/><text fill="#000000" font-family="sans-serif" font-size="11" lengthAdjust="spacingAndGlyphs" textLength="98" x="150.5" y="450.8198">getPrefix(): Prefix</text><ellipse cx="141.5" cy="460.4141" fill="#84BE84" rx="3" ry="3" style="stroke: #038048; stroke-width: 1.0;"/><text fill="#000000" font-family="sans-serif" font-size="11" lengthAdjust="spacingAndGlyphs" textLength="133" x="150.5" y="463.6245">getValueString(): String</text><ellipse cx="141.5" cy="473.2188" fill="#84BE84" rx="3" ry="3" style="stroke: #038048; stroke-width: 1.0;"/><text fill="#000000" font-family="sans-serif" font-size="11" lengthAdjust="spacingAndGlyphs" textLength="156" x="150.5" y="476.4292">setValueString(String): void</text><ellipse cx="141.5" cy="486.0234" fill="#84BE84" rx="3" ry="3" style="stroke: #038048; stroke-width: 1.0;"/><text fill="#000000" font-family="sans-serif" font-size="11" lengthAdjust="spacingAndGlyphs" textLength="173" x="150.5" y="489.2339">getValueNumber(): BigDecimal</text><ellipse cx="141.5" cy="498.8281" fill="#84BE84" rx="3" ry="3" style="stroke: #038048; stroke-width: 1.0;"/><text fill="#000000" font-family="sans-serif" font-size="11" lengthAdjust="spacingAndGlyphs" textLength="196" x="150.5" y="502.0386">setValueNumber(BigDecimal): void</text><ellipse cx="141.5" cy="511.6328" fill="#84BE84" rx="3" ry="3" style="stroke: #038048; stroke-width: 1.0;"/><text fill="#000000" font-family="sans-serif" font-size="11" lengthAdjust="spacingAndGlyphs" textLength="142" x="150.5" y="514.8433">getValueSystem(): String</text><ellipse cx="141.5" cy="524.4375" fill="#84BE84" rx="3" ry="3" style="stroke: #038048; stroke-width: 1.0;"/><text fill="#000000" font-family="sans-serif" font-size="11" lengthAdjust="spacingAndGlyphs" textLength="165" x="150.5" y="527.6479">setValueSystem(String): void</text><ellipse cx="141.5" cy="537.2422" fill="#84BE84" rx="3" ry="3" style="stroke: #038048; stroke-width: 1.0;"/><text fill="#000000" font-family="sans-serif" font-size="11" lengthAdjust="spacingAndGlyphs" textLength="128" x="150.5" y="540.4526">getValueCode(): String</text><ellipse cx="141.5" cy="550.0469" fill="#84BE84" rx="3" ry="3" style="stroke: #038048; stroke-width: 1.0;"/><text fill="#000000" font-family="sans-serif" font-size="11" lengthAdjust="spacingAndGlyphs" textLength="151" x="150.5" y="553.2573">setValueCode(String): void</text><ellipse cx="141.5" cy="562.8516" fill="#84BE84" rx="3" ry="3" style="stroke: #038048; stroke-width: 1.0;"/><text fill="#000000" font-family="sans-serif" font-size="11" lengthAdjust="spacingAndGlyphs" textLength="200" x="150.5" y="566.062">getValueDateLowerBound(): Instant</text><ellipse cx="141.5" cy="575.6563" fill="#84BE84" rx="3" ry="3" style="stroke: #038048; stroke-width: 1.0;"/><text fill="#000000" font-family="sans-serif" font-size="11" lengthAdjust="spacingAndGlyphs" textLength="223" x="150.5" y="578.8667">setValueDateLowerBound(Instant): void</text><ellipse cx="141.5" cy="588.4609" fill="#84BE84" rx="3" ry="3" style="stroke: #038048; stroke-width: 1.0;"/><text fill="#000000" font-family="sans-serif" font-size="11" lengthAdjust="spacingAndGlyphs" textLength="200" x="150.5" y="591.6714">getValueDateUpperBound(): Instant</text><ellipse cx="141.5" cy="601.2656" fill="#84BE84" rx="3" ry="3" style="stroke: #038048; stroke-width: 1.0;"/><text fill="#000000" font-family="sans-serif" font-size="11" lengthAdjust="spacingAndGlyphs" textLength="223" x="150.5" y="604.4761">setValueDateUpperBound(Instant): void</text><ellipse cx="141.5" cy="614.0703" fill="#84BE84" rx="3" ry="3" style="stroke: #038048; stroke-width: 1.0;"/><text fill="#000000" font-family="sans-serif" font-size="11" lengthAdjust="spacingAndGlyphs" textLength="231" x="150.5" y="617.2808">addComponent(QueryParameter...): void</text><ellipse cx="141.5" cy="626.875" fill="#84BE84" rx="3" ry="3" style="stroke: #038048; stroke-width: 1.0;"/><text fill="#000000" font-family="sans-serif" font-size="11" lengthAdjust="spacingAndGlyphs" textLength="110" x="150.5" y="630.0854">isHidden(): boolean</text><ellipse cx="141.5" cy="639.6797" fill="#84BE84" rx="3" ry="3" style="stroke: #038048; stroke-width: 1.0;"/><text fill="#000000" font-family="sans-serif" font-size="11" lengthAdjust="spacingAndGlyphs" textLength="141" x="150.5" y="642.8901">setHidden(boolean): void</text></a><!--MD5=[65d1724b4a9eff007101e14390ed1bba]
link com.ibm.fhir.search.parameters.QueryParameter to com.ibm.fhir.search.parameters.QueryParameterValue--><path d="M232.779,232.0631 C229.1251,252.0815 225.8966,273.157 224,293 C221.7458,316.5841 222.6434,341.4917 225.2967,365.6939 " fill="none" id="com.ibm.fhir.search.parameters.QueryParameter-&gt;com.ibm.fhir.search.parameters.QueryParameterValue" style="stroke: #A80036; stroke-width: 1.0;"/><polygon fill="#A80036" points="225.8891,370.847,228.8349,361.449,225.318,365.8797,220.8872,362.3628,225.8891,370.847" style="stroke: #A80036; stroke-width: 1.0;"/><text fill="#000000" font-family="sans-serif" font-size="13" lengthAdjust="spacingAndGlyphs" textLength="41" x="225" y="306.0669">values</text><text fill="#000000" font-family="sans-serif" font-size="13" lengthAdjust="spacingAndGlyphs" textLength="7" x="216.8869" y="359.8842">*</text><!--MD5=[db6f89cc28a144f6e7753c3816f0f52f]
link com.ibm.fhir.search.parameters.QueryParameterValue to com.ibm.fhir.search.parameters.QueryParameter--><path d="M271.225,370.7964 C272.2106,344.9351 272.3706,318.1482 271,293 C270.0206,275.0296 268.4091,255.9428 266.5583,237.5218 " fill="none" id="com.ibm.fhir.search.parameters.QueryParameterValue-&gt;com.ibm.fhir.search.parameters.QueryParameter" style="stroke: #A80036; stroke-width: 1.0;"/><polygon fill="#A80036" points="266.0303,232.3452,262.9643,241.7047,266.5377,237.3194,270.923,240.8928,266.0303,232.3452" style="stroke: #A80036; stroke-width: 1.0;"/><text fill="#000000" font-family="sans-serif" font-size="13" lengthAdjust="spacingAndGlyphs" textLength="73" x="272" y="306.0669">component</text><text fill="#000000" font-family="sans-serif" font-size="13" lengthAdjust="spacingAndGlyphs" textLength="7" x="259.6567" y="251.9384">*</text><!--MD5=[6618124fba44f735fe55c4f9cdc77823]
link com.ibm.fhir.search.parameters.QueryParameter to com.ibm.fhir.search.parameters.QueryParameter--><path d="M485.6433,128.2209 C507.0258,130.1384 520.5,133.2314 520.5,137.5 C520.5,141.4017 509.2421,144.3213 490.9772,146.2587 " fill="none" id="com.ibm.fhir.search.parameters.QueryParameter-&gt;com.ibm.fhir.search.parameters.QueryParameter" style="stroke: #A80036; stroke-width: 1.0;"/><polygon fill="#A80036" points="485.6433,146.7791,494.9892,149.8861,490.6197,146.2935,494.2123,141.924,485.6433,146.7791" style="stroke: #A80036; stroke-width: 1.0;"/><text fill="#000000" font-family="sans-serif" font-size="13" lengthAdjust="spacingAndGlyphs" textLength="96" x="526.5" y="142.0669">nextParameter</text><!--MD5=[6618124fba44f735fe55c4f9cdc77823]
link com.ibm.fhir.search.parameters.QueryParameter to com.ibm.fhir.search.parameters.QueryParameter--><path d="M485.5578,114.2674 C563.6949,114.6796 628.5,122.4238 628.5,137.5 C628.5,152.2523 566.4496,159.9842 490.575,160.6959 " fill="none" id="com.ibm.fhir.search.parameters.QueryParameter-&gt;com.ibm.fhir.search.parameters.QueryParameter-1" style="stroke: #A80036; stroke-width: 1.0;"/><polygon fill="#A80036" points="485.5578,160.7326,494.5868,164.6667,490.5577,160.696,494.5283,156.6669,485.5578,160.7326" style="stroke: #A80036; stroke-width: 1.0;"/><text fill="#000000" font-family="sans-serif" font-size="13" lengthAdjust="spacingAndGlyphs" textLength="34" x="634.5" y="142.0669">chain</text><text fill="#000000" font-family="sans-serif" font-size="13" lengthAdjust="spacingAndGlyphs" textLength="7" x="493.2706" y="158.3203">*</text><!--MD5=[8176e6226ea1a39bc72f2d43d5ac9311]
link com.ibm.fhir.search.parameters.ParametersMap to com.ibm.fhir.search.parameters.SortParameter--><!--MD5=[f0b5f5062e79ad8b1615989b49324060]
link com.ibm.fhir.search.parameters.ParametersMap to com.ibm.fhir.search.parameters.ParametersUtil--><!--MD5=[53409a7b948972efacf89176855d457e]
link com.ibm.fhir.search.parameters.ParametersUtil to com.ibm.fhir.search.parameters.InclusionParameter--><text fill="#888888" font-family="sans-serif" font-size="10" lengthAdjust="spacingAndGlyphs" textLength="186" x="606" y="684.2822">UMLDoclet 2.0.7, PlantUML 1.2019.12</text><!--MD5=[5816417981811038f48349b90506a07d]
@startuml
    namespace com.ibm.fhir.search.parameters {

        class ParametersMap [[ParametersMap.html]] {
            +insert(String, SearchParameter): void
            +insertAll(ParametersMap): void
            +lookupByCode(String): Set<SearchParameter>
            +lookupByUrl(String): SearchParameter
            +values(): Collection<SearchParameter>
            +isEmpty(): boolean
            +size(): int
            +codeEntries(): Set<Entry<String, Set<SearchParameter>>>
            +urlEntries(): Set<Entry<String, SearchParameter>>
        }

        class SortParameter [[SortParameter.html]] {
            +SortParameter(String, Type, Direction)
            +getCode(): String
            +getType(): Type
            +getDirection(): Direction
        }

        class ParametersUtil [[ParametersUtil.html]] {
            {static} +FHIR_PATH_BUNDLE_ENTRY: String
            {static} +FHIR_DEFAULT_SEARCH_PARAMETERS_FILE: String
            {static} +FROM_STEAM: String
            {static} +ERROR_EXCEPTION: String
            {static} +BUILTIN_ERROR_EXCEPTION: String
            {static} +STREAM_ERROR_EXCEPTION: String
            {static} +LOG_PARAMETERS: String
            {static} +MISSING_EXPRESSION_WARNING: String
            {static} +LOG_HEADER: String
            {static} +LOG_SIZE: String
            {static} +init(): void
            {static} +buildSearchParametersMapFromBundle(Bundle): Map<String, ParametersMap>
            {static} ~checkAndWarnForIssueWithCodeAndName(String, String): void
            {static} +getBuiltInSearchParametersMap(): Map<String, ParametersMap>
            {static} +print(PrintStream): void
            {static} +printSearchParameter(SearchParameter, PrintStream): void
        }

        class InclusionParameter [[InclusionParameter.html]] {
            +InclusionParameter(String, String, String)
            +getJoinResourceType(): String
            +getSearchParameter(): String
            +getSearchParameterTargetType(): String
        }

        class QueryParameter [[QueryParameter.html]] {
            +QueryParameter(Type, String, Modifier, String)
            +QueryParameter(Type, String, Modifier, String, boolean)
            +QueryParameter(Type, String, Modifier, String, boolean, boolean)
            +QueryParameter(Type, String, Modifier, String, List<QueryParameterValue>)
            +getType(): Type
            +getCode(): String
            +getModifier(): Modifier
            +getModifierResourceTypeName(): String
            +isChained(): boolean
            +isInclusionCriteria(): boolean
            +isReverseChained(): boolean
        }

        class QueryParameterValue [[QueryParameterValue.html]] {
            +setPrefix(Prefix): void
            +withPrefix(Prefix): QueryParameterValue
            +getPrefix(): Prefix
            +getValueString(): String
            +setValueString(String): void
            +getValueNumber(): BigDecimal
            +setValueNumber(BigDecimal): void
            +getValueSystem(): String
            +setValueSystem(String): void
            +getValueCode(): String
            +setValueCode(String): void
            +getValueDateLowerBound(): Instant
            +setValueDateLowerBound(Instant): void
            +getValueDateUpperBound(): Instant
            +setValueDateUpperBound(Instant): void
            +addComponent(QueryParameter...): void
            +isHidden(): boolean
            +setHidden(boolean): void
        }

        QueryParameter - -> "*" QueryParameterValue: values
        QueryParameter - -> QueryParameter: nextParameter
        QueryParameter - -> "*" QueryParameter: chain
        QueryParameterValue - -> "*" QueryParameter: component
    }

    center footer UMLDoclet 2.0.7, PlantUML 1.2019.12
@enduml

PlantUML version 1.2019.12(Sun Nov 03 10:24:54 UTC 2019)
(APACHE source distribution)
Java Runtime: OpenJDK Runtime Environment
JVM: OpenJDK 64-Bit Server VM
Java Version: 11.0.9.1+1
Operating System: Linux
Default Encoding: UTF-8
Language: en
Country: null
--></g></svg>