<?xml version="1.0" encoding="UTF-8" standalone="no"?><svg xmlns="http://www.w3.org/2000/svg" xmlns:xlink="http://www.w3.org/1999/xlink" contentScriptType="application/ecmascript" contentStyleType="text/css" height="465px" preserveAspectRatio="none" style="width:284px;height:465px;" version="1.1" viewBox="0 0 284 465" width="284px" zoomAndPan="magnify"><defs><filter height="300%" id="fqjkv9qyzi4c" width="300%" x="-1" y="-1"><feGaussianBlur result="blurOut" stdDeviation="2.0"/><feColorMatrix in="blurOut" result="blurOut2" type="matrix" values="0 0 0 0 0 0 0 0 0 0 0 0 0 0 0 0 0 0 .4 0"/><feOffset dx="4.0" dy="4.0" in="blurOut2" result="blurOut3"/><feBlend in="SourceGraphic" in2="blurOut3" mode="normal"/></filter></defs><g><!--class com.ibm.fhir.config.PropertyGroup--><a href="PropertyGroup.html" target="_top" xlink:actuate="onRequest" xlink:show="new" xlink:title="PropertyGroup.html" xlink:type="simple"><rect fill="#FEFECE" filter="url(#fqjkv9qyzi4c)" height="326.3223" id="com.ibm.fhir.config.PropertyGroup" style="stroke: #A80036; stroke-width: 1.5;" width="267" x="6" y="8"/><ellipse cx="84.75" cy="27.1328" fill="#ADD1B2" rx="11" ry="11" style="stroke: #A80036; stroke-width: 1.0;"/><path d="M87.2231,33.2759 Q86.6421,33.5747 86.0029,33.7241 Q85.3638,33.8735 84.6582,33.8735 Q82.1514,33.8735 80.8315,32.2217 Q79.5117,30.5698 79.5117,27.4487 Q79.5117,24.3193 80.8315,22.6675 Q82.1514,21.0156 84.6582,21.0156 Q85.3638,21.0156 86.0112,21.165 Q86.6587,21.3145 87.2231,21.6133 L87.2231,24.3359 Q86.5923,23.7549 85.9988,23.4851 Q85.4053,23.2153 84.7744,23.2153 Q83.4297,23.2153 82.7449,24.282 Q82.0601,25.3486 82.0601,27.4487 Q82.0601,29.5405 82.7449,30.6072 Q83.4297,31.6738 84.7744,31.6738 Q85.4053,31.6738 85.9988,31.4041 Q86.5923,31.1343 87.2231,30.5532 Z "/><text fill="#000000" font-family="sans-serif" font-size="14" lengthAdjust="spacingAndGlyphs" textLength="101" x="105.25" y="26.5352">PropertyGroup</text><text fill="#000000" font-family="sans-serif" font-size="10" lengthAdjust="spacingAndGlyphs" textLength="94" x="108.75" y="39.1563">com.ibm.fhir.config</text><line style="stroke: #A80036; stroke-width: 1.5;" x1="7" x2="272" y1="46.2656" y2="46.2656"/><ellipse cx="17" cy="58.2432" fill="none" rx="3" ry="3" style="stroke: #038048; stroke-width: 1.0;"/><text fill="#000000" font-family="sans-serif" font-size="11" lengthAdjust="spacingAndGlyphs" text-decoration="underline" textLength="191" x="26" y="60.9004">PATH_ELEMENT_SEPARATOR: String</text><polygon fill="none" points="17,66.1982,21,70.1982,17,74.1982,13,70.1982" style="stroke: #B38D22; stroke-width: 1.0;"/><text fill="#000000" font-family="sans-serif" font-size="11" lengthAdjust="spacingAndGlyphs" textLength="106" x="26" y="73.8555">jsonObj: JsonObject</text><line style="stroke: #A80036; stroke-width: 1.5;" x1="7" x2="272" y1="80.1758" y2="80.1758"/><ellipse cx="17" cy="92.1533" fill="#84BE84" rx="3" ry="3" style="stroke: #038048; stroke-width: 1.0;"/><text fill="#000000" font-family="sans-serif" font-size="11" lengthAdjust="spacingAndGlyphs" textLength="146" x="26" y="94.8105">PropertyGroup(JsonObject)</text><ellipse cx="17" cy="105.1084" fill="#84BE84" rx="3" ry="3" style="stroke: #038048; stroke-width: 1.0;"/><text fill="#000000" font-family="sans-serif" font-size="11" lengthAdjust="spacingAndGlyphs" textLength="131" x="26" y="107.7656">getJsonObj(): JsonObject</text><polygon fill="#FFFF44" points="17,113.0635,21,117.0635,17,121.0635,13,117.0635" style="stroke: #B38D22; stroke-width: 1.0;"/><text fill="#000000" font-family="sans-serif" font-size="11" lengthAdjust="spacingAndGlyphs" textLength="153" x="26" y="120.7207">setJsonObj(JsonObject): void</text><ellipse cx="17" cy="131.0186" fill="#84BE84" rx="3" ry="3" style="stroke: #038048; stroke-width: 1.0;"/><text fill="#000000" font-family="sans-serif" font-size="11" lengthAdjust="spacingAndGlyphs" textLength="223" x="26" y="133.6758">getPropertyGroup(String): PropertyGroup</text><ellipse cx="17" cy="143.9736" fill="#84BE84" rx="3" ry="3" style="stroke: #038048; stroke-width: 1.0;"/><text fill="#000000" font-family="sans-serif" font-size="11" lengthAdjust="spacingAndGlyphs" textLength="173" x="26" y="146.6309">getStringProperty(String): String</text><ellipse cx="17" cy="156.9287" fill="#84BE84" rx="3" ry="3" style="stroke: #038048; stroke-width: 1.0;"/><text fill="#000000" font-family="sans-serif" font-size="11" lengthAdjust="spacingAndGlyphs" textLength="211" x="26" y="159.5859">getStringProperty(String, String): String</text><ellipse cx="17" cy="169.8838" fill="#84BE84" rx="3" ry="3" style="stroke: #038048; stroke-width: 1.0;"/><text fill="#000000" font-family="sans-serif" font-size="11" lengthAdjust="spacingAndGlyphs" textLength="229" x="26" y="172.541">getStringListProperty(String): List&lt;String&gt;</text><ellipse cx="17" cy="182.8389" fill="#84BE84" rx="3" ry="3" style="stroke: #038048; stroke-width: 1.0;"/><text fill="#000000" font-family="sans-serif" font-size="11" lengthAdjust="spacingAndGlyphs" textLength="161" x="26" y="185.4961">getIntProperty(String): Integer</text><ellipse cx="17" cy="195.7939" fill="#84BE84" rx="3" ry="3" style="stroke: #038048; stroke-width: 1.0;"/><text fill="#000000" font-family="sans-serif" font-size="11" lengthAdjust="spacingAndGlyphs" textLength="205" x="26" y="198.4512">getIntProperty(String, Integer): Integer</text><ellipse cx="17" cy="208.749" fill="#84BE84" rx="3" ry="3" style="stroke: #038048; stroke-width: 1.0;"/><text fill="#000000" font-family="sans-serif" font-size="11" lengthAdjust="spacingAndGlyphs" textLength="185" x="26" y="211.4063">getDoubleProperty(String): Double</text><ellipse cx="17" cy="221.7041" fill="#84BE84" rx="3" ry="3" style="stroke: #038048; stroke-width: 1.0;"/><text fill="#000000" font-family="sans-serif" font-size="11" lengthAdjust="spacingAndGlyphs" textLength="229" x="26" y="224.3613">getDoubleProperty(String, Double): Double</text><ellipse cx="17" cy="234.6592" fill="#84BE84" rx="3" ry="3" style="stroke: #038048; stroke-width: 1.0;"/><text fill="#000000" font-family="sans-serif" font-size="11" lengthAdjust="spacingAndGlyphs" textLength="193" x="26" y="237.3164">getBooleanProperty(String): Boolean</text><ellipse cx="17" cy="247.6143" fill="#84BE84" rx="3" ry="3" style="stroke: #038048; stroke-width: 1.0;"/><text fill="#000000" font-family="sans-serif" font-size="11" lengthAdjust="spacingAndGlyphs" textLength="241" x="26" y="250.2715">getBooleanProperty(String, Boolean): Boolean</text><ellipse cx="17" cy="260.5693" fill="#84BE84" rx="3" ry="3" style="stroke: #038048; stroke-width: 1.0;"/><text fill="#000000" font-family="sans-serif" font-size="11" lengthAdjust="spacingAndGlyphs" textLength="182" x="26" y="263.2266">getArrayProperty(String): Object[]</text><ellipse cx="17" cy="273.5244" fill="#84BE84" rx="3" ry="3" style="stroke: #038048; stroke-width: 1.0;"/><text fill="#000000" font-family="sans-serif" font-size="11" lengthAdjust="spacingAndGlyphs" textLength="197" x="26" y="276.1816">getProperties(): List&lt;PropertyEntry&gt;</text><ellipse cx="17" cy="286.4795" fill="#84BE84" rx="3" ry="3" style="stroke: #038048; stroke-width: 1.0;"/><text fill="#000000" font-family="sans-serif" font-size="11" lengthAdjust="spacingAndGlyphs" text-decoration="underline" textLength="194" x="26" y="289.1367">convertJsonValue(JsonValue): Object</text><ellipse cx="17" cy="299.4346" fill="#84BE84" rx="3" ry="3" style="stroke: #038048; stroke-width: 1.0;"/><text fill="#000000" font-family="sans-serif" font-size="11" lengthAdjust="spacingAndGlyphs" textLength="167" x="26" y="302.0918">getJsonValue(String): JsonValue</text><polygon fill="#FFFF44" points="17,307.3896,21,311.3896,17,315.3896,13,311.3896" style="stroke: #B38D22; stroke-width: 1.0;"/><text fill="#000000" font-family="sans-serif" font-size="11" lengthAdjust="spacingAndGlyphs" textLength="174" x="26" y="315.0469">getPathElements(String): String[]</text><polygon fill="#FFFF44" points="17,320.3447,21,324.3447,17,328.3447,13,324.3447" style="stroke: #B38D22; stroke-width: 1.0;"/><text fill="#000000" font-family="sans-serif" font-size="11" lengthAdjust="spacingAndGlyphs" textLength="229" x="26" y="328.002">getPropertySubGroup(String[]): JsonObject</text></a><!--class com.ibm.fhir.config.PropertyGroup.PropertyEntry--><a href="PropertyGroup.PropertyEntry.html" target="_top" xlink:actuate="onRequest" xlink:show="new" xlink:title="PropertyGroup.PropertyEntry.html" xlink:type="simple"><rect fill="#FEFECE" filter="url(#fqjkv9qyzi4c)" height="38.2656" id="com.ibm.fhir.config.PropertyGroup.PropertyEntry" style="stroke: #A80036; stroke-width: 1.5;" width="230" x="24.5" y="394"/><ellipse cx="39.5" cy="413.1328" fill="#ADD1B2" rx="11" ry="11" style="stroke: #A80036; stroke-width: 1.0;"/><path d="M41.9731,419.2759 Q41.3921,419.5747 40.7529,419.7241 Q40.1138,419.8735 39.4082,419.8735 Q36.9014,419.8735 35.5815,418.2217 Q34.2617,416.5698 34.2617,413.4487 Q34.2617,410.3193 35.5815,408.6675 Q36.9014,407.0156 39.4082,407.0156 Q40.1138,407.0156 40.7612,407.165 Q41.4087,407.3145 41.9731,407.6133 L41.9731,410.3359 Q41.3423,409.7549 40.7488,409.4851 Q40.1553,409.2153 39.5244,409.2153 Q38.1797,409.2153 37.4949,410.282 Q36.8101,411.3486 36.8101,413.4487 Q36.8101,415.5405 37.4949,416.6072 Q38.1797,417.6738 39.5244,417.6738 Q40.1553,417.6738 40.7488,417.4041 Q41.3423,417.1343 41.9731,416.5532 Z "/><text fill="#000000" font-family="sans-serif" font-size="14" lengthAdjust="spacingAndGlyphs" textLength="198" x="53.5" y="412.5352">PropertyGroup.PropertyEntry</text><text fill="#000000" font-family="sans-serif" font-size="10" lengthAdjust="spacingAndGlyphs" textLength="94" x="105.5" y="425.1563">com.ibm.fhir.config</text></a><!--link com.ibm.fhir.config.PropertyGroup to com.ibm.fhir.config.PropertyGroup.PropertyEntry--><path d="M139.5,349.3461 C139.5,366.9662 139.5,382.4758 139.5,393.7735 " fill="none" id="com.ibm.fhir.config.PropertyGroup-com.ibm.fhir.config.PropertyGroup.PropertyEntry" style="stroke: #A80036; stroke-width: 1.0;"/><ellipse cx="139.5" cy="342.095" fill="#FFFFFF" rx="8" ry="8" style="stroke: #A80036; stroke-width: 1.0;"/><line style="stroke: #A80036; stroke-width: 1.0;" x1="139.5" x2="139.5" y1="350.095" y2="334.095"/><line style="stroke: #A80036; stroke-width: 1.0;" x1="131.5" x2="147.5" y1="342.095" y2="342.095"/><text fill="#888888" font-family="sans-serif" font-size="10" lengthAdjust="spacingAndGlyphs" textLength="182" x="54.5" y="451.668">UMLDoclet 2.0.5, PlantUML 1.2019.08</text><!--
@startuml
    set namespaceSeparator none
    hide empty fields
    hide empty methods

    class "<size:14>PropertyGroup\n<size:10>com.ibm.fhir.config" as com.ibm.fhir.config.PropertyGroup [[PropertyGroup.html]] {
        {static} +PATH_ELEMENT_SEPARATOR: String
        #jsonObj: JsonObject
        +PropertyGroup(JsonObject)
        +getJsonObj(): JsonObject
        #setJsonObj(JsonObject): void
        +getPropertyGroup(String): PropertyGroup
        +getStringProperty(String): String
        +getStringProperty(String, String): String
        +getStringListProperty(String): List<String>
        +getIntProperty(String): Integer
        +getIntProperty(String, Integer): Integer
        +getDoubleProperty(String): Double
        +getDoubleProperty(String, Double): Double
        +getBooleanProperty(String): Boolean
        +getBooleanProperty(String, Boolean): Boolean
        +getArrayProperty(String): Object[]
        +getProperties(): List<PropertyEntry>
        {static} +convertJsonValue(JsonValue): Object
        +getJsonValue(String): JsonValue
        #getPathElements(String): String[]
        #getPropertySubGroup(String[]): JsonObject
    }
    class "<size:14>PropertyGroup.PropertyEntry\n<size:10>com.ibm.fhir.config" as com.ibm.fhir.config.PropertyGroup.PropertyEntry [[PropertyGroup.PropertyEntry.html]]

    com.ibm.fhir.config.PropertyGroup +- - com.ibm.fhir.config.PropertyGroup.PropertyEntry

    center footer UMLDoclet 2.0.5, PlantUML 1.2019.08
@enduml

PlantUML version 1.2019.08(Sat Jul 13 15:25:14 EDT 2019)
(APACHE source distribution)
Java Runtime: OpenJDK Runtime Environment
JVM: OpenJDK 64-Bit Server VM
Java Version: 11.0.4+11
Operating System: Mac OS X
OS Version: 10.14.6
Default Encoding: UTF-8
Language: en
Country: US
--></g></svg>