<?xml version="1.0" encoding="UTF-8" standalone="no"?><svg xmlns="http://www.w3.org/2000/svg" xmlns:xlink="http://www.w3.org/1999/xlink" contentScriptType="application/ecmascript" contentStyleType="text/css" height="224px" preserveAspectRatio="none" style="width:245px;height:224px;" version="1.1" viewBox="0 0 245 224" width="245px" zoomAndPan="magnify"><defs><filter height="300%" id="fxfhmmbcpazw6" width="300%" x="-1" y="-1"><feGaussianBlur result="blurOut" stdDeviation="2.0"/><feColorMatrix in="blurOut" result="blurOut2" type="matrix" values="0 0 0 0 0 0 0 0 0 0 0 0 0 0 0 0 0 0 .4 0"/><feOffset dx="4.0" dy="4.0" in="blurOut2" result="blurOut3"/><feBlend in="SourceGraphic" in2="blurOut3" mode="normal"/></filter></defs><g><!--class com.ibm.fhir.model.path.exception.FHIRPathException--><a href="FHIRPathException.html" target="_top" xlink:actuate="onRequest" xlink:show="new" xlink:title="FHIRPathException.html" xlink:type="simple"><rect fill="#FEFECE" filter="url(#fxfhmmbcpazw6)" height="85.1309" id="com.ibm.fhir.model.path.exception.FHIRPathException" style="stroke: #A80036; stroke-width: 1.5;" width="228" x="6" y="106"/><ellipse cx="32.7" cy="125.1328" fill="#ADD1B2" rx="11" ry="11" style="stroke: #A80036; stroke-width: 1.0;"/><path d="M35.1731,131.2759 Q34.5921,131.5747 33.9529,131.7241 Q33.3138,131.8735 32.6082,131.8735 Q30.1014,131.8735 28.7815,130.2217 Q27.4617,128.5698 27.4617,125.4487 Q27.4617,122.3193 28.7815,120.6675 Q30.1014,119.0156 32.6082,119.0156 Q33.3138,119.0156 33.9612,119.165 Q34.6087,119.3145 35.1731,119.6133 L35.1731,122.3359 Q34.5423,121.7549 33.9488,121.4851 Q33.3553,121.2153 32.7244,121.2153 Q31.3797,121.2153 30.6949,122.282 Q30.0101,123.3486 30.0101,125.4487 Q30.0101,127.5405 30.6949,128.6072 Q31.3797,129.6738 32.7244,129.6738 Q33.3553,129.6738 33.9488,129.4041 Q34.5423,129.1343 35.1731,128.5532 Z "/><text fill="#000000" font-family="sans-serif" font-size="14" lengthAdjust="spacingAndGlyphs" textLength="129" x="69.8" y="124.5352">FHIRPathException</text><text fill="#000000" font-family="sans-serif" font-size="10" lengthAdjust="spacingAndGlyphs" textLength="170" x="49.3" y="137.1563">com.ibm.fhir.model.path.exception</text><line style="stroke: #A80036; stroke-width: 1.5;" x1="7" x2="233" y1="144.2656" y2="144.2656"/><ellipse cx="17" cy="156.2432" fill="#84BE84" rx="3" ry="3" style="stroke: #038048; stroke-width: 1.0;"/><text fill="#000000" font-family="sans-serif" font-size="11" lengthAdjust="spacingAndGlyphs" textLength="140" x="26" y="158.9004">FHIRPathException(String)</text><ellipse cx="17" cy="169.1982" fill="#84BE84" rx="3" ry="3" style="stroke: #038048; stroke-width: 1.0;"/><text fill="#000000" font-family="sans-serif" font-size="11" lengthAdjust="spacingAndGlyphs" textLength="202" x="26" y="171.8555">FHIRPathException(String, Throwable)</text><ellipse cx="17" cy="182.1533" fill="#84BE84" rx="3" ry="3" style="stroke: #038048; stroke-width: 1.0;"/><text fill="#000000" font-family="sans-serif" font-size="11" lengthAdjust="spacingAndGlyphs" textLength="164" x="26" y="184.8105">FHIRPathException(Throwable)</text></a><!--class com.ibm.fhir.exception.FHIRException--><a href="../../../exception/FHIRException.html" target="_top" xlink:actuate="onRequest" xlink:show="new" xlink:title="../../../exception/FHIRException.html" xlink:type="simple"><rect fill="#FEFECE" filter="url(#fxfhmmbcpazw6)" height="38.2656" id="com.ibm.fhir.exception.FHIRException" style="stroke: #A80036; stroke-width: 1.5;" width="144" x="48" y="8"/><ellipse cx="63" cy="27.1328" fill="#ADD1B2" rx="11" ry="11" style="stroke: #A80036; stroke-width: 1.0;"/><path d="M65.4731,33.2759 Q64.8921,33.5747 64.2529,33.7241 Q63.6138,33.8735 62.9082,33.8735 Q60.4014,33.8735 59.0815,32.2217 Q57.7617,30.5698 57.7617,27.4487 Q57.7617,24.3193 59.0815,22.6675 Q60.4014,21.0156 62.9082,21.0156 Q63.6138,21.0156 64.2612,21.165 Q64.9087,21.3145 65.4731,21.6133 L65.4731,24.3359 Q64.8423,23.7549 64.2488,23.4851 Q63.6553,23.2153 63.0244,23.2153 Q61.6797,23.2153 60.9949,24.282 Q60.3101,25.3486 60.3101,27.4487 Q60.3101,29.5405 60.9949,30.6072 Q61.6797,31.6738 63.0244,31.6738 Q63.6553,31.6738 64.2488,31.4041 Q64.8423,31.1343 65.4731,30.5532 Z "/><text fill="#000000" font-family="sans-serif" font-size="14" lengthAdjust="spacingAndGlyphs" textLength="99" x="83.5" y="26.5352">FHIRException</text><text fill="#000000" font-family="sans-serif" font-size="10" lengthAdjust="spacingAndGlyphs" textLength="112" x="77" y="39.1563">com.ibm.fhir.exception</text></a><!--link com.ibm.fhir.exception.FHIRException to com.ibm.fhir.model.path.exception.FHIRPathException--><path d="M120,66.3291 C120,78.9819 120,93.0566 120,105.9312 " fill="none" id="com.ibm.fhir.exception.FHIRException-com.ibm.fhir.model.path.exception.FHIRPathException" style="stroke: #A80036; stroke-width: 1.0;"/><polygon fill="none" points="113.0001,66.2521,120,46.252,127.0001,66.252,113.0001,66.2521" style="stroke: #A80036; stroke-width: 1.0;"/><text fill="#888888" font-family="sans-serif" font-size="10" lengthAdjust="spacingAndGlyphs" textLength="182" x="35" y="210.668">UMLDoclet 2.0.5, PlantUML 1.2019.08</text><!--
@startuml
    set namespaceSeparator none
    hide empty fields
    hide empty methods

    class "<size:14>FHIRPathException\n<size:10>com.ibm.fhir.model.path.exception" as com.ibm.fhir.model.path.exception.FHIRPathException [[FHIRPathException.html]] {
        +FHIRPathException(String)
        +FHIRPathException(String, Throwable)
        +FHIRPathException(Throwable)
    }

    class "<size:14>FHIRException\n<size:10>com.ibm.fhir.exception" as com.ibm.fhir.exception.FHIRException [[../../../exception/FHIRException.html]]

    com.ibm.fhir.exception.FHIRException <|- - com.ibm.fhir.model.path.exception.FHIRPathException

    center footer UMLDoclet 2.0.5, PlantUML 1.2019.08
@enduml

PlantUML version 1.2019.08(Sat Jul 13 15:25:14 EDT 2019)
(APACHE source distribution)
Java Runtime: OpenJDK Runtime Environment
JVM: OpenJDK 64-Bit Server VM
Java Version: 11.0.4+11
Operating System: Mac OS X
OS Version: 10.14.6
Default Encoding: UTF-8
Language: en
Country: US
--></g></svg>