<?xml version="1.0" encoding="UTF-8" standalone="no"?><svg xmlns="http://www.w3.org/2000/svg" xmlns:xlink="http://www.w3.org/1999/xlink" contentScriptType="application/ecmascript" contentStyleType="text/css" height="148px" preserveAspectRatio="none" style="width:289px;height:148px;" version="1.1" viewBox="0 0 289 148" width="289px" zoomAndPan="magnify"><defs><filter height="300%" id="f13ra21zoc8tku" width="300%" x="-1" y="-1"><feGaussianBlur result="blurOut" stdDeviation="2.0"/><feColorMatrix in="blurOut" result="blurOut2" type="matrix" values="0 0 0 0 0 0 0 0 0 0 0 0 0 0 0 0 0 0 .4 0"/><feOffset dx="4.0" dy="4.0" in="blurOut2" result="blurOut3"/><feBlend in="SourceGraphic" in2="blurOut3" mode="normal"/></filter></defs><g><!--MD5=[ac0a8ec4bf774f33b5e0943972e07b6c]
class com.ibm.fhir.path.TupleTypeInfoElement--><a href="TupleTypeInfoElement.html" target="_top" title="TupleTypeInfoElement.html" xlink:actuate="onRequest" xlink:href="TupleTypeInfoElement.html" xlink:show="new" xlink:title="TupleTypeInfoElement.html" xlink:type="simple"><rect fill="#FEFECE" filter="url(#f13ra21zoc8tku)" height="111.041" id="com.ibm.fhir.path.TupleTypeInfoElement" style="stroke: #A80036; stroke-width: 1.5;" width="271" x="7" y="7"/><ellipse cx="61.25" cy="26.1328" fill="#ADD1B2" rx="11" ry="11" style="stroke: #A80036; stroke-width: 1.0;"/><path d="M63.7231,32.2759 Q63.1421,32.5747 62.5029,32.7241 Q61.8638,32.8735 61.1582,32.8735 Q58.6514,32.8735 57.3315,31.2217 Q56.0117,29.5698 56.0117,26.4487 Q56.0117,23.3193 57.3315,21.6675 Q58.6514,20.0156 61.1582,20.0156 Q61.8638,20.0156 62.5112,20.165 Q63.1587,20.3145 63.7231,20.6133 L63.7231,23.3359 Q63.0923,22.7549 62.4988,22.4851 Q61.9053,22.2153 61.2744,22.2153 Q59.9297,22.2153 59.2449,23.282 Q58.5601,24.3486 58.5601,26.4487 Q58.5601,28.5405 59.2449,29.6072 Q59.9297,30.6738 61.2744,30.6738 Q61.9053,30.6738 62.4988,30.4041 Q63.0923,30.1343 63.7231,29.5532 Z "/><text fill="#000000" font-family="sans-serif" font-size="14" lengthAdjust="spacingAndGlyphs" textLength="154" x="81.75" y="25.5352">TupleTypeInfoElement</text><text fill="#000000" font-family="sans-serif" font-size="10" lengthAdjust="spacingAndGlyphs" textLength="86" x="115.75" y="38.1563">com.ibm.fhir.path</text><line style="stroke: #A80036; stroke-width: 1.5;" x1="8" x2="277" y1="45.2656" y2="45.2656"/><ellipse cx="18" cy="56.2656" fill="#84BE84" rx="3" ry="3" style="stroke: #038048; stroke-width: 1.0;"/><text fill="#000000" font-family="sans-serif" font-size="11" lengthAdjust="spacingAndGlyphs" textLength="197" x="27" y="59.9004">TupleTypeInfoElement(String, String)</text><ellipse cx="18" cy="69.2207" fill="#84BE84" rx="3" ry="3" style="stroke: #038048; stroke-width: 1.0;"/><text fill="#000000" font-family="sans-serif" font-size="11" lengthAdjust="spacingAndGlyphs" textLength="245" x="27" y="72.8555">TupleTypeInfoElement(String, String, Boolean)</text><ellipse cx="18" cy="82.1758" fill="#84BE84" rx="3" ry="3" style="stroke: #038048; stroke-width: 1.0;"/><text fill="#000000" font-family="sans-serif" font-size="11" lengthAdjust="spacingAndGlyphs" textLength="93" x="27" y="85.8105">getName(): String</text><ellipse cx="18" cy="95.1309" fill="#84BE84" rx="3" ry="3" style="stroke: #038048; stroke-width: 1.0;"/><text fill="#000000" font-family="sans-serif" font-size="11" lengthAdjust="spacingAndGlyphs" textLength="89" x="27" y="98.7656">getType(): String</text><ellipse cx="18" cy="108.0859" fill="#84BE84" rx="3" ry="3" style="stroke: #038048; stroke-width: 1.0;"/><text fill="#000000" font-family="sans-serif" font-size="11" lengthAdjust="spacingAndGlyphs" textLength="118" x="27" y="111.7207">isOneBased(): Boolean</text></a><text fill="#888888" font-family="sans-serif" font-size="10" lengthAdjust="spacingAndGlyphs" textLength="182" x="51.5" y="134.709">UMLDoclet 2.0.7, PlantUML 1.2019.12</text><!--MD5=[e2176d374ea99f5fe48c6323983a37b4]
@startuml
    set namespaceSeparator none
    hide empty fields
    hide empty methods

    class "<size:14>TupleTypeInfoElement\n<size:10>com.ibm.fhir.path" as com.ibm.fhir.path.TupleTypeInfoElement [[TupleTypeInfoElement.html]] {
        +TupleTypeInfoElement(String, String)
        +TupleTypeInfoElement(String, String, Boolean)
        +getName(): String
        +getType(): String
        +isOneBased(): Boolean
    }

    center footer UMLDoclet 2.0.7, PlantUML 1.2019.12
@enduml

PlantUML version 1.2019.12(Sun Nov 03 05:24:54 EST 2019)
(APACHE source distribution)
Java Runtime: OpenJDK Runtime Environment
JVM: OpenJDK 64-Bit Server VM
Java Version: 11.0.4+11
Operating System: Mac OS X
Default Encoding: UTF-8
Language: en
Country: US
--></g></svg>