<?xml version="1.0" encoding="UTF-8" standalone="no"?><svg xmlns="http://www.w3.org/2000/svg" xmlns:xlink="http://www.w3.org/1999/xlink" contentScriptType="application/ecmascript" contentStyleType="text/css" height="299px" preserveAspectRatio="none" style="width:743px;height:299px;" version="1.1" viewBox="0 0 743 299" width="743px" zoomAndPan="magnify"><defs><filter height="300%" id="f1dy8gf0xbegtp" width="300%" x="-1" y="-1"><feGaussianBlur result="blurOut" stdDeviation="2.0"/><feColorMatrix in="blurOut" result="blurOut2" type="matrix" values="0 0 0 0 0 0 0 0 0 0 0 0 0 0 0 0 0 0 .4 0"/><feOffset dx="4.0" dy="4.0" in="blurOut2" result="blurOut3"/><feBlend in="SourceGraphic" in2="blurOut3" mode="normal"/></filter></defs><g><!--MD5=[e0149cc41ffc77447df2ca3d2ca4c025]
class com.ibm.fhir.bulkimport.ImportTransientUserData--><a href="ImportTransientUserData.html" target="_top" title="ImportTransientUserData.html" xlink:actuate="onRequest" xlink:href="ImportTransientUserData.html" xlink:show="new" xlink:title="ImportTransientUserData.html" xlink:type="simple"><rect fill="#FEFECE" filter="url(#f1dy8gf0xbegtp)" height="161.1797" id="com.ibm.fhir.bulkimport.ImportTransientUserData" style="stroke: #A80036; stroke-width: 1.5;" width="726" x="6" y="106"/><ellipse cx="278.25" cy="124.9688" fill="#ADD1B2" rx="11" ry="11" style="stroke: #A80036; stroke-width: 1.0;"/><path d="M281.2188,130.6094 Q280.6406,130.9063 280,131.0469 Q279.3594,131.2031 278.6563,131.2031 Q276.1563,131.2031 274.8281,129.5625 Q273.5156,127.9063 273.5156,124.7813 Q273.5156,121.6563 274.8281,120 Q276.1563,118.3438 278.6563,118.3438 Q279.3594,118.3438 280,118.5 Q280.6563,118.6563 281.2188,118.9531 L281.2188,121.6719 Q280.5938,121.0938 280,120.8281 Q279.4063,120.5469 278.7813,120.5469 Q277.4375,120.5469 276.75,121.625 Q276.0625,122.6875 276.0625,124.7813 Q276.0625,126.875 276.75,127.9531 Q277.4375,129.0156 278.7813,129.0156 Q279.4063,129.0156 280,128.75 Q280.5938,128.4688 281.2188,127.8906 L281.2188,130.6094 Z "/><text fill="#000000" font-family="sans-serif" font-size="14" lengthAdjust="spacingAndGlyphs" textLength="173" x="298.75" y="123.9951">ImportTransientUserData</text><text fill="#000000" font-family="sans-serif" font-size="10" lengthAdjust="spacingAndGlyphs" textLength="115" x="327.75" y="136.5791">com.ibm.fhir.bulkimport</text><line style="stroke: #A80036; stroke-width: 1.5;" x1="7" x2="731" y1="143.9375" y2="143.9375"/><ellipse cx="17" cy="154.9375" fill="#84BE84" rx="3" ry="3" style="stroke: #038048; stroke-width: 1.0;"/><text fill="#000000" font-family="sans-serif" font-size="11" lengthAdjust="spacingAndGlyphs" textLength="700" x="26" y="158.1479">ImportTransientUserData(String, int, String, int, int, String, String, String, List&lt;PartETag&gt;, int, String, List&lt;PartETag&gt;, int)</text><ellipse cx="17" cy="167.7422" fill="#84BE84" rx="3" ry="3" style="stroke: #038048; stroke-width: 1.0;"/><text fill="#000000" font-family="sans-serif" font-size="11" lengthAdjust="spacingAndGlyphs" textLength="250" x="26" y="170.9526">ImportTransientUserData(String, int, String)</text><ellipse cx="17" cy="180.5469" fill="#84BE84" rx="3" ry="3" style="stroke: #038048; stroke-width: 1.0;"/><text fill="#000000" font-family="sans-serif" font-size="11" lengthAdjust="spacingAndGlyphs" textLength="330" x="26" y="183.7573">getBufferStreamForImportError(): ByteArrayOutputStream</text><ellipse cx="17" cy="193.3516" fill="#84BE84" rx="3" ry="3" style="stroke: #038048; stroke-width: 1.0;"/><text fill="#000000" font-family="sans-serif" font-size="11" lengthAdjust="spacingAndGlyphs" textLength="301" x="26" y="196.562">getBufferStreamForImport(): ByteArrayOutputStream</text><ellipse cx="17" cy="206.1563" fill="#84BE84" rx="3" ry="3" style="stroke: #038048; stroke-width: 1.0;"/><text fill="#000000" font-family="sans-serif" font-size="11" lengthAdjust="spacingAndGlyphs" text-decoration="underline" textLength="437" x="26" y="209.3667">fromImportCheckPointData(ImportCheckPointData): ImportTransientUserData</text><ellipse cx="17" cy="218.9609" fill="#84BE84" rx="3" ry="3" style="stroke: #038048; stroke-width: 1.0;"/><text fill="#000000" font-family="sans-serif" font-size="11" lengthAdjust="spacingAndGlyphs" textLength="174" x="26" y="222.1714">getInputStream(): InputStream</text><ellipse cx="17" cy="231.7656" fill="#84BE84" rx="3" ry="3" style="stroke: #038048; stroke-width: 1.0;"/><text fill="#000000" font-family="sans-serif" font-size="11" lengthAdjust="spacingAndGlyphs" textLength="197" x="26" y="234.9761">setInputStream(InputStream): void</text><ellipse cx="17" cy="244.5703" fill="#84BE84" rx="3" ry="3" style="stroke: #038048; stroke-width: 1.0;"/><text fill="#000000" font-family="sans-serif" font-size="11" lengthAdjust="spacingAndGlyphs" textLength="198" x="26" y="247.7808">getBufferReader(): BufferedReader</text><ellipse cx="17" cy="257.375" fill="#84BE84" rx="3" ry="3" style="stroke: #038048; stroke-width: 1.0;"/><text fill="#000000" font-family="sans-serif" font-size="11" lengthAdjust="spacingAndGlyphs" textLength="221" x="26" y="260.5854">setBufferReader(BufferedReader): void</text></a><!--MD5=[fa0fc3ceab9a5062558ff8346085d019]
class com.ibm.fhir.bulkimport.ImportCheckPointData--><a href="ImportCheckPointData.html" target="_top" title="ImportCheckPointData.html" xlink:actuate="onRequest" xlink:href="ImportCheckPointData.html" xlink:show="new" xlink:title="ImportCheckPointData.html" xlink:type="simple"><rect fill="#FEFECE" filter="url(#f1dy8gf0xbegtp)" height="37.9375" id="com.ibm.fhir.bulkimport.ImportCheckPointData" style="stroke: #A80036; stroke-width: 1.5;" width="187" x="275.5" y="8"/><ellipse cx="290.5" cy="26.9688" fill="#ADD1B2" rx="11" ry="11" style="stroke: #A80036; stroke-width: 1.0;"/><path d="M293.4688,32.6094 Q292.8906,32.9063 292.25,33.0469 Q291.6094,33.2031 290.9063,33.2031 Q288.4063,33.2031 287.0781,31.5625 Q285.7656,29.9063 285.7656,26.7813 Q285.7656,23.6563 287.0781,22 Q288.4063,20.3438 290.9063,20.3438 Q291.6094,20.3438 292.25,20.5 Q292.9063,20.6563 293.4688,20.9531 L293.4688,23.6719 Q292.8438,23.0938 292.25,22.8281 Q291.6563,22.5469 291.0313,22.5469 Q289.6875,22.5469 289,23.625 Q288.3125,24.6875 288.3125,26.7813 Q288.3125,28.875 289,29.9531 Q289.6875,31.0156 291.0313,31.0156 Q291.6563,31.0156 292.25,30.75 Q292.8438,30.4688 293.4688,29.8906 L293.4688,32.6094 Z "/><text fill="#000000" font-family="sans-serif" font-size="14" lengthAdjust="spacingAndGlyphs" textLength="155" x="304.5" y="25.9951">ImportCheckPointData</text><text fill="#000000" font-family="sans-serif" font-size="10" lengthAdjust="spacingAndGlyphs" textLength="115" x="324.5" y="38.5791">com.ibm.fhir.bulkimport</text></a><!--MD5=[68d3655025064821c60dcf90327eb351]
reverse link com.ibm.fhir.bulkimport.ImportCheckPointData to com.ibm.fhir.bulkimport.ImportTransientUserData--><path d="M369,66.3725 C369,78.4431 369,92.1899 369,105.9679 " fill="none" id="com.ibm.fhir.bulkimport.ImportCheckPointData&lt;-com.ibm.fhir.bulkimport.ImportTransientUserData" style="stroke: #A80036; stroke-width: 1.0;"/><polygon fill="none" points="362.0001,66.2395,369,46.2394,376.0001,66.2394,362.0001,66.2395" style="stroke: #A80036; stroke-width: 1.0;"/><text fill="#888888" font-family="sans-serif" font-size="10" lengthAdjust="spacingAndGlyphs" textLength="186" x="282" y="286.2822">UMLDoclet 2.0.7, PlantUML 1.2019.12</text><!--MD5=[213eba756d81c2db94ac33cfd15e372a]
@startuml
    set namespaceSeparator none
    hide empty fields
    hide empty methods

    class "<size:14>ImportTransientUserData\n<size:10>com.ibm.fhir.bulkimport" as com.ibm.fhir.bulkimport.ImportTransientUserData [[ImportTransientUserData.html]] {
        +ImportTransientUserData(String, int, String, int, int, String, String, String, List<PartETag>, int, String, List<PartETag>, int)
        +ImportTransientUserData(String, int, String)
        +getBufferStreamForImportError(): ByteArrayOutputStream
        +getBufferStreamForImport(): ByteArrayOutputStream
        {static} +fromImportCheckPointData(ImportCheckPointData): ImportTransientUserData
        +getInputStream(): InputStream
        +setInputStream(InputStream): void
        +getBufferReader(): BufferedReader
        +setBufferReader(BufferedReader): void
    }

    class "<size:14>ImportCheckPointData\n<size:10>com.ibm.fhir.bulkimport" as com.ibm.fhir.bulkimport.ImportCheckPointData [[ImportCheckPointData.html]]

    com.ibm.fhir.bulkimport.ImportCheckPointData <|- - com.ibm.fhir.bulkimport.ImportTransientUserData

    center footer UMLDoclet 2.0.7, PlantUML 1.2019.12
@enduml

PlantUML version 1.2019.12(Sun Nov 03 10:24:54 UTC 2019)
(APACHE source distribution)
Java Runtime: OpenJDK Runtime Environment
JVM: OpenJDK 64-Bit Server VM
Java Version: 11.0.6+10
Operating System: Linux
Default Encoding: UTF-8
Language: en
Country: null
--></g></svg>