<?xml version="1.0" encoding="UTF-8" standalone="no"?><svg xmlns="http://www.w3.org/2000/svg" xmlns:xlink="http://www.w3.org/1999/xlink" contentScriptType="application/ecmascript" contentStyleType="text/css" height="1573px" preserveAspectRatio="none" style="width:855px;height:1573px;" version="1.1" viewBox="0 0 855 1573" width="855px" zoomAndPan="magnify"><defs><filter height="300%" id="f1kohfwvozy8vo" width="300%" x="-1" y="-1"><feGaussianBlur result="blurOut" stdDeviation="2.0"/><feColorMatrix in="blurOut" result="blurOut2" type="matrix" values="0 0 0 0 0 0 0 0 0 0 0 0 0 0 0 0 0 0 .4 0"/><feOffset dx="4.0" dy="4.0" in="blurOut2" result="blurOut3"/><feBlend in="SourceGraphic" in2="blurOut3" mode="normal"/></filter></defs><g><!--MD5=[b7fa30750125b5b961838f5cf1276193]
cluster com.ibm.fhir.bulkdata.jbatch.export.data--><polygon fill="#FFFFFF" filter="url(#f1kohfwvozy8vo)" points="22,147,347,147,354,169.2969,833,169.2969,833,1525,22,1525,22,147" style="stroke: #000000; stroke-width: 1.5;"/><line style="stroke: #000000; stroke-width: 1.5;" x1="22" x2="354" y1="169.2969" y2="169.2969"/><text fill="#000000" font-family="sans-serif" font-size="14" font-weight="bold" lengthAdjust="spacingAndGlyphs" textLength="319" x="26" y="161.9951">com.ibm.fhir.bulkdata.jbatch.export.data</text><!--MD5=[0d852700fdad35b7061d461d6907a324]
cluster java.io--><polygon fill="#FFFFFF" filter="url(#f1kohfwvozy8vo)" points="361,24,417,24,424,46.2969,497,46.2969,497,123,361,123,361,24" style="stroke: #000000; stroke-width: 1.5;"/><line style="stroke: #000000; stroke-width: 1.5;" x1="361" x2="424" y1="46.2969" y2="46.2969"/><text fill="#000000" font-family="sans-serif" font-size="14" font-weight="bold" lengthAdjust="spacingAndGlyphs" textLength="50" x="365" y="38.9951">java.io</text><!--MD5=[2c6df5c386131fa00063edb196ebcd72]
class com.ibm.fhir.bulkdata.jbatch.export.data.ExportTransientUserData--><a href="ExportTransientUserData.html" target="_top" title="ExportTransientUserData.html" xlink:actuate="onRequest" xlink:href="ExportTransientUserData.html" xlink:show="new" xlink:title="ExportTransientUserData.html" xlink:type="simple"><rect fill="#FEFECE" filter="url(#f1kohfwvozy8vo)" height="73.6094" id="com.ibm.fhir.bulkdata.jbatch.export.data.ExportTransientUserData" style="stroke: #A80036; stroke-width: 1.5;" width="478" x="38" y="994.5"/><ellipse cx="193.75" cy="1010.5" fill="#ADD1B2" rx="11" ry="11" style="stroke: #A80036; stroke-width: 1.0;"/><path d="M196.7188,1016.1406 Q196.1406,1016.4375 195.5,1016.5781 Q194.8594,1016.7344 194.1563,1016.7344 Q191.6563,1016.7344 190.3281,1015.0938 Q189.0156,1013.4375 189.0156,1010.3125 Q189.0156,1007.1875 190.3281,1005.5313 Q191.6563,1003.875 194.1563,1003.875 Q194.8594,1003.875 195.5,1004.0313 Q196.1563,1004.1875 196.7188,1004.4844 L196.7188,1007.2031 Q196.0938,1006.625 195.5,1006.3594 Q194.9063,1006.0781 194.2813,1006.0781 Q192.9375,1006.0781 192.25,1007.1563 Q191.5625,1008.2188 191.5625,1010.3125 Q191.5625,1012.4063 192.25,1013.4844 Q192.9375,1014.5469 194.2813,1014.5469 Q194.9063,1014.5469 195.5,1014.2813 Q196.0938,1014 196.7188,1013.4219 L196.7188,1016.1406 Z "/><text fill="#000000" font-family="sans-serif" font-size="12" lengthAdjust="spacingAndGlyphs" textLength="158" x="214.25" y="1014.6543">ExportTransientUserData</text><line style="stroke: #A80036; stroke-width: 1.5;" x1="39" x2="515" y1="1026.5" y2="1026.5"/><line style="stroke: #A80036; stroke-width: 1.5;" x1="39" x2="515" y1="1034.5" y2="1034.5"/><ellipse cx="49" cy="1045.5" fill="#84BE84" rx="3" ry="3" style="stroke: #038048; stroke-width: 1.0;"/><text fill="#000000" font-family="sans-serif" font-size="11" lengthAdjust="spacingAndGlyphs" text-decoration="underline" textLength="452" x="58" y="1048.7104">fromCheckPointUserData(ExportCheckpointUserData): ExportTransientUserData</text><ellipse cx="49" cy="1058.3047" fill="#84BE84" rx="3" ry="3" style="stroke: #038048; stroke-width: 1.0;"/><text fill="#000000" font-family="sans-serif" font-size="11" lengthAdjust="spacingAndGlyphs" textLength="246" x="58" y="1061.5151">getBufferStream(): ByteArrayOutputStream</text></a><!--MD5=[abbf47cb93ba594fd8d8e374476d2e95]
class com.ibm.fhir.bulkdata.jbatch.export.data.ExportTransientUserData.Builder--><a href="ExportTransientUserData.Builder.html" target="_top" title="ExportTransientUserData.Builder.html" xlink:actuate="onRequest" xlink:href="ExportTransientUserData.Builder.html" xlink:show="new" xlink:title="ExportTransientUserData.Builder.html" xlink:type="simple"><rect fill="#FEFECE" filter="url(#f1kohfwvozy8vo)" height="227.2656" id="com.ibm.fhir.bulkdata.jbatch.export.data.ExportTransientUserData.Builder" style="stroke: #A80036; stroke-width: 1.5;" width="265" x="347.5" y="1282"/><ellipse cx="375.1" cy="1298" fill="#ADD1B2" rx="11" ry="11" style="stroke: #A80036; stroke-width: 1.0;"/><path d="M378.0688,1303.6406 Q377.4906,1303.9375 376.85,1304.0781 Q376.2094,1304.2344 375.5063,1304.2344 Q373.0063,1304.2344 371.6781,1302.5938 Q370.3656,1300.9375 370.3656,1297.8125 Q370.3656,1294.6875 371.6781,1293.0313 Q373.0063,1291.375 375.5063,1291.375 Q376.2094,1291.375 376.85,1291.5313 Q377.5063,1291.6875 378.0688,1291.9844 L378.0688,1294.7031 Q377.4438,1294.125 376.85,1293.8594 Q376.2563,1293.5781 375.6313,1293.5781 Q374.2875,1293.5781 373.6,1294.6563 Q372.9125,1295.7188 372.9125,1297.8125 Q372.9125,1299.9063 373.6,1300.9844 Q374.2875,1302.0469 375.6313,1302.0469 Q376.2563,1302.0469 376.85,1301.7813 Q377.4438,1301.5 378.0688,1300.9219 L378.0688,1303.6406 Z "/><text fill="#000000" font-family="sans-serif" font-size="12" lengthAdjust="spacingAndGlyphs" textLength="205" x="391.9" y="1302.1543">ExportTransientUserData.Builder</text><line style="stroke: #A80036; stroke-width: 1.5;" x1="348.5" x2="611.5" y1="1314" y2="1314"/><line style="stroke: #A80036; stroke-width: 1.5;" x1="348.5" x2="611.5" y1="1322" y2="1322"/><ellipse cx="358.5" cy="1333" fill="#84BE84" rx="3" ry="3" style="stroke: #038048; stroke-width: 1.0;"/><text fill="#000000" font-family="sans-serif" font-size="11" lengthAdjust="spacingAndGlyphs" text-decoration="underline" textLength="95" x="367.5" y="1336.2104">builder(): Builder</text><ellipse cx="358.5" cy="1345.8047" fill="#84BE84" rx="3" ry="3" style="stroke: #038048; stroke-width: 1.0;"/><text fill="#000000" font-family="sans-serif" font-size="11" lengthAdjust="spacingAndGlyphs" textLength="124" x="367.5" y="1349.0151">pageNum(int): Builder</text><ellipse cx="358.5" cy="1358.6094" fill="#84BE84" rx="3" ry="3" style="stroke: #038048; stroke-width: 1.0;"/><text fill="#000000" font-family="sans-serif" font-size="11" lengthAdjust="spacingAndGlyphs" textLength="145" x="367.5" y="1361.8198">lastPageNum(int): Builder</text><ellipse cx="358.5" cy="1371.4141" fill="#84BE84" rx="3" ry="3" style="stroke: #038048; stroke-width: 1.0;"/><text fill="#000000" font-family="sans-serif" font-size="11" lengthAdjust="spacingAndGlyphs" textLength="119" x="367.5" y="1374.6245">partNum(int): Builder</text><ellipse cx="358.5" cy="1384.2188" fill="#84BE84" rx="3" ry="3" style="stroke: #038048; stroke-width: 1.0;"/><text fill="#000000" font-family="sans-serif" font-size="11" lengthAdjust="spacingAndGlyphs" textLength="138" x="367.5" y="1387.4292">uploadId(String): Builder</text><ellipse cx="358.5" cy="1397.0234" fill="#84BE84" rx="3" ry="3" style="stroke: #038048; stroke-width: 1.0;"/><text fill="#000000" font-family="sans-serif" font-size="11" lengthAdjust="spacingAndGlyphs" textLength="151" x="367.5" y="1400.2339">uploadCount(long): Builder</text><ellipse cx="358.5" cy="1409.8281" fill="#84BE84" rx="3" ry="3" style="stroke: #038048; stroke-width: 1.0;"/><text fill="#000000" font-family="sans-serif" font-size="11" lengthAdjust="spacingAndGlyphs" textLength="224" x="367.5" y="1413.0386">cosDataPacks(List&lt;PartETag&gt;): Builder</text><ellipse cx="358.5" cy="1422.6328" fill="#84BE84" rx="3" ry="3" style="stroke: #038048; stroke-width: 1.0;"/><text fill="#000000" font-family="sans-serif" font-size="11" lengthAdjust="spacingAndGlyphs" textLength="239" x="367.5" y="1425.8433">currentUploadResourceNum(long): Builder</text><ellipse cx="358.5" cy="1435.4375" fill="#84BE84" rx="3" ry="3" style="stroke: #038048; stroke-width: 1.0;"/><text fill="#000000" font-family="sans-serif" font-size="11" lengthAdjust="spacingAndGlyphs" textLength="183" x="367.5" y="1438.6479">currentUploadSize(long): Builder</text><ellipse cx="358.5" cy="1448.2422" fill="#84BE84" rx="3" ry="3" style="stroke: #038048; stroke-width: 1.0;"/><text fill="#000000" font-family="sans-serif" font-size="11" lengthAdjust="spacingAndGlyphs" textLength="191" x="367.5" y="1451.4526">totalResourcesNum(long): Builder</text><ellipse cx="358.5" cy="1461.0469" fill="#84BE84" rx="3" ry="3" style="stroke: #038048; stroke-width: 1.0;"/><text fill="#000000" font-family="sans-serif" font-size="11" lengthAdjust="spacingAndGlyphs" textLength="211" x="367.5" y="1464.2573">indexOfCurrentTypeFilter(int): Builder</text><ellipse cx="358.5" cy="1473.8516" fill="#84BE84" rx="3" ry="3" style="stroke: #038048; stroke-width: 1.0;"/><text fill="#000000" font-family="sans-serif" font-size="11" lengthAdjust="spacingAndGlyphs" textLength="223" x="367.5" y="1477.062">resourceTypeSummary(String): Builder</text><ellipse cx="358.5" cy="1486.6563" fill="#84BE84" rx="3" ry="3" style="stroke: #038048; stroke-width: 1.0;"/><text fill="#000000" font-family="sans-serif" font-size="11" lengthAdjust="spacingAndGlyphs" textLength="184" x="367.5" y="1489.8667">lastWrittenPageNum(int): Builder</text><ellipse cx="358.5" cy="1499.4609" fill="#84BE84" rx="3" ry="3" style="stroke: #038048; stroke-width: 1.0;"/><text fill="#000000" font-family="sans-serif" font-size="11" lengthAdjust="spacingAndGlyphs" textLength="186" x="367.5" y="1502.6714">build(): ExportTransientUserData</text></a><!--MD5=[e395aaa6fbc3e1ff0ede42ba399ca520]
class com.ibm.fhir.bulkdata.jbatch.export.data.ExportCheckpointUserData--><a href="ExportCheckpointUserData.html" target="_top" title="ExportCheckpointUserData.html" xlink:actuate="onRequest" xlink:href="ExportCheckpointUserData.html" xlink:show="new" xlink:title="ExportCheckpointUserData.html" xlink:type="simple"><rect fill="#FEFECE" filter="url(#f1kohfwvozy8vo)" height="598.6016" id="com.ibm.fhir.bulkdata.jbatch.export.data.ExportCheckpointUserData" style="stroke: #A80036; stroke-width: 1.5;" width="470" x="194" y="182"/><ellipse cx="340.25" cy="198" fill="#ADD1B2" rx="11" ry="11" style="stroke: #A80036; stroke-width: 1.0;"/><path d="M343.2188,203.6406 Q342.6406,203.9375 342,204.0781 Q341.3594,204.2344 340.6563,204.2344 Q338.1563,204.2344 336.8281,202.5938 Q335.5156,200.9375 335.5156,197.8125 Q335.5156,194.6875 336.8281,193.0313 Q338.1563,191.375 340.6563,191.375 Q341.3594,191.375 342,191.5313 Q342.6563,191.6875 343.2188,191.9844 L343.2188,194.7031 Q342.5938,194.125 342,193.8594 Q341.4063,193.5781 340.7813,193.5781 Q339.4375,193.5781 338.75,194.6563 Q338.0625,195.7188 338.0625,197.8125 Q338.0625,199.9063 338.75,200.9844 Q339.4375,202.0469 340.7813,202.0469 Q341.4063,202.0469 342,201.7813 Q342.5938,201.5 343.2188,200.9219 L343.2188,203.6406 Z "/><text fill="#000000" font-family="sans-serif" font-size="12" lengthAdjust="spacingAndGlyphs" textLength="169" x="360.75" y="202.1543">ExportCheckpointUserData</text><line style="stroke: #A80036; stroke-width: 1.5;" x1="195" x2="663" y1="214" y2="214"/><polygon fill="none" points="205,220,209,224,205,228,201,224" style="stroke: #B38D22; stroke-width: 1.0;"/><text fill="#000000" font-family="sans-serif" font-size="11" lengthAdjust="spacingAndGlyphs" textLength="76" x="214" y="228.2104">pageNum: int</text><polygon fill="none" points="205,232.8047,209,236.8047,205,240.8047,201,236.8047" style="stroke: #B38D22; stroke-width: 1.0;"/><text fill="#000000" font-family="sans-serif" font-size="11" lengthAdjust="spacingAndGlyphs" textLength="97" x="214" y="241.0151">lastPageNum: int</text><polygon fill="none" points="205,245.6094,209,249.6094,205,253.6094,201,249.6094" style="stroke: #B38D22; stroke-width: 1.0;"/><text fill="#000000" font-family="sans-serif" font-size="11" lengthAdjust="spacingAndGlyphs" textLength="71" x="214" y="253.8198">partNum: int</text><polygon fill="none" points="205,258.4141,209,262.4141,205,266.4141,201,262.4141" style="stroke: #B38D22; stroke-width: 1.0;"/><text fill="#000000" font-family="sans-serif" font-size="11" lengthAdjust="spacingAndGlyphs" textLength="90" x="214" y="266.6245">uploadId: String</text><polygon fill="none" points="205,271.2188,209,275.2188,205,279.2188,201,275.2188" style="stroke: #B38D22; stroke-width: 1.0;"/><text fill="#000000" font-family="sans-serif" font-size="11" lengthAdjust="spacingAndGlyphs" textLength="103" x="214" y="279.4292">uploadCount: long</text><polygon fill="none" points="205,284.0234,209,288.0234,205,292.0234,201,288.0234" style="stroke: #B38D22; stroke-width: 1.0;"/><text fill="#000000" font-family="sans-serif" font-size="11" lengthAdjust="spacingAndGlyphs" textLength="176" x="214" y="292.2339">cosDataPacks: List&lt;PartETag&gt;</text><polygon fill="none" points="205,296.8281,209,300.8281,205,304.8281,201,300.8281" style="stroke: #B38D22; stroke-width: 1.0;"/><text fill="#000000" font-family="sans-serif" font-size="11" lengthAdjust="spacingAndGlyphs" textLength="191" x="214" y="305.0386">currentUploadResourceNum: long</text><polygon fill="none" points="205,309.6328,209,313.6328,205,317.6328,201,313.6328" style="stroke: #B38D22; stroke-width: 1.0;"/><text fill="#000000" font-family="sans-serif" font-size="11" lengthAdjust="spacingAndGlyphs" textLength="135" x="214" y="317.8433">currentUploadSize: long</text><polygon fill="none" points="205,322.4375,209,326.4375,205,330.4375,201,326.4375" style="stroke: #B38D22; stroke-width: 1.0;"/><text fill="#000000" font-family="sans-serif" font-size="11" lengthAdjust="spacingAndGlyphs" textLength="143" x="214" y="330.6479">totalResourcesNum: long</text><polygon fill="none" points="205,335.2422,209,339.2422,205,343.2422,201,339.2422" style="stroke: #B38D22; stroke-width: 1.0;"/><text fill="#000000" font-family="sans-serif" font-size="11" lengthAdjust="spacingAndGlyphs" textLength="163" x="214" y="343.4526">indexOfCurrentTypeFilter: int</text><polygon fill="none" points="205,348.0469,209,352.0469,205,356.0469,201,352.0469" style="stroke: #B38D22; stroke-width: 1.0;"/><text fill="#000000" font-family="sans-serif" font-size="11" lengthAdjust="spacingAndGlyphs" textLength="175" x="214" y="356.2573">resourceTypeSummary: String</text><polygon fill="none" points="205,360.8516,209,364.8516,205,368.8516,201,364.8516" style="stroke: #B38D22; stroke-width: 1.0;"/><text fill="#000000" font-family="sans-serif" font-size="11" lengthAdjust="spacingAndGlyphs" textLength="136" x="214" y="369.062">lastWrittenPageNum: int</text><line style="stroke: #A80036; stroke-width: 1.5;" x1="195" x2="663" y1="375.6563" y2="375.6563"/><ellipse cx="205" cy="386.6563" fill="#84BE84" rx="3" ry="3" style="stroke: #038048; stroke-width: 1.0;"/><text fill="#000000" font-family="sans-serif" font-size="11" lengthAdjust="spacingAndGlyphs" text-decoration="underline" textLength="444" x="214" y="389.8667">fromTransientUserData(ExportTransientUserData): ExportCheckpointUserData</text><ellipse cx="205" cy="399.4609" fill="#84BE84" rx="3" ry="3" style="stroke: #038048; stroke-width: 1.0;"/><text fill="#000000" font-family="sans-serif" font-size="11" lengthAdjust="spacingAndGlyphs" textLength="102" x="214" y="402.6714">getPageNum(): int</text><ellipse cx="205" cy="412.2656" fill="#84BE84" rx="3" ry="3" style="stroke: #038048; stroke-width: 1.0;"/><text fill="#000000" font-family="sans-serif" font-size="11" lengthAdjust="spacingAndGlyphs" textLength="125" x="214" y="415.4761">setPageNum(int): void</text><ellipse cx="205" cy="425.0703" fill="#84BE84" rx="3" ry="3" style="stroke: #038048; stroke-width: 1.0;"/><text fill="#000000" font-family="sans-serif" font-size="11" lengthAdjust="spacingAndGlyphs" textLength="117" x="214" y="428.2808">getUploadId(): String</text><ellipse cx="205" cy="437.875" fill="#84BE84" rx="3" ry="3" style="stroke: #038048; stroke-width: 1.0;"/><text fill="#000000" font-family="sans-serif" font-size="11" lengthAdjust="spacingAndGlyphs" textLength="140" x="214" y="441.0854">setUploadId(String): void</text><ellipse cx="205" cy="450.6797" fill="#84BE84" rx="3" ry="3" style="stroke: #038048; stroke-width: 1.0;"/><text fill="#000000" font-family="sans-serif" font-size="11" lengthAdjust="spacingAndGlyphs" textLength="204" x="214" y="453.8901">getCosDataPacks(): List&lt;PartETag&gt;</text><ellipse cx="205" cy="463.4844" fill="#84BE84" rx="3" ry="3" style="stroke: #038048; stroke-width: 1.0;"/><text fill="#000000" font-family="sans-serif" font-size="11" lengthAdjust="spacingAndGlyphs" textLength="97" x="214" y="466.6948">getPartNum(): int</text><ellipse cx="205" cy="476.2891" fill="#84BE84" rx="3" ry="3" style="stroke: #038048; stroke-width: 1.0;"/><text fill="#000000" font-family="sans-serif" font-size="11" lengthAdjust="spacingAndGlyphs" textLength="120" x="214" y="479.4995">setPartNum(int): void</text><ellipse cx="205" cy="489.0938" fill="#84BE84" rx="3" ry="3" style="stroke: #038048; stroke-width: 1.0;"/><text fill="#000000" font-family="sans-serif" font-size="11" lengthAdjust="spacingAndGlyphs" textLength="126" x="214" y="492.3042">getLastPageNum(): int</text><ellipse cx="205" cy="501.8984" fill="#84BE84" rx="3" ry="3" style="stroke: #038048; stroke-width: 1.0;"/><text fill="#000000" font-family="sans-serif" font-size="11" lengthAdjust="spacingAndGlyphs" textLength="149" x="214" y="505.1089">setLastPageNum(int): void</text><ellipse cx="205" cy="514.7031" fill="#84BE84" rx="3" ry="3" style="stroke: #038048; stroke-width: 1.0;"/><text fill="#000000" font-family="sans-serif" font-size="11" lengthAdjust="spacingAndGlyphs" textLength="219" x="214" y="517.9136">getCurrentUploadResourceNum(): long</text><ellipse cx="205" cy="527.5078" fill="#84BE84" rx="3" ry="3" style="stroke: #038048; stroke-width: 1.0;"/><text fill="#000000" font-family="sans-serif" font-size="11" lengthAdjust="spacingAndGlyphs" textLength="242" x="214" y="530.7183">setCurrentUploadResourceNum(long): void</text><ellipse cx="205" cy="540.3125" fill="#84BE84" rx="3" ry="3" style="stroke: #038048; stroke-width: 1.0;"/><text fill="#000000" font-family="sans-serif" font-size="11" lengthAdjust="spacingAndGlyphs" textLength="245" x="214" y="543.5229">addCurrentUploadResourceNum(long): void</text><ellipse cx="205" cy="553.1172" fill="#84BE84" rx="3" ry="3" style="stroke: #038048; stroke-width: 1.0;"/><text fill="#000000" font-family="sans-serif" font-size="11" lengthAdjust="spacingAndGlyphs" textLength="189" x="214" y="556.3276">getIndexOfCurrentTypeFilter(): int</text><ellipse cx="205" cy="565.9219" fill="#84BE84" rx="3" ry="3" style="stroke: #038048; stroke-width: 1.0;"/><text fill="#000000" font-family="sans-serif" font-size="11" lengthAdjust="spacingAndGlyphs" textLength="212" x="214" y="569.1323">setIndexOfCurrentTypeFilter(int): void</text><ellipse cx="205" cy="578.7266" fill="#84BE84" rx="3" ry="3" style="stroke: #038048; stroke-width: 1.0;"/><text fill="#000000" font-family="sans-serif" font-size="11" lengthAdjust="spacingAndGlyphs" textLength="203" x="214" y="581.937">getResourceTypeSummary(): String</text><ellipse cx="205" cy="591.5313" fill="#84BE84" rx="3" ry="3" style="stroke: #038048; stroke-width: 1.0;"/><text fill="#000000" font-family="sans-serif" font-size="11" lengthAdjust="spacingAndGlyphs" textLength="226" x="214" y="594.7417">setResourceTypeSummary(String): void</text><ellipse cx="205" cy="604.3359" fill="#84BE84" rx="3" ry="3" style="stroke: #038048; stroke-width: 1.0;"/><text fill="#000000" font-family="sans-serif" font-size="11" lengthAdjust="spacingAndGlyphs" textLength="149" x="214" y="607.5464">isMoreToExport(): boolean</text><ellipse cx="205" cy="617.1406" fill="#84BE84" rx="3" ry="3" style="stroke: #038048; stroke-width: 1.0;"/><text fill="#000000" font-family="sans-serif" font-size="11" lengthAdjust="spacingAndGlyphs" textLength="180" x="214" y="620.3511">setMoreToExport(boolean): void</text><ellipse cx="205" cy="629.9453" fill="#84BE84" rx="3" ry="3" style="stroke: #038048; stroke-width: 1.0;"/><text fill="#000000" font-family="sans-serif" font-size="11" lengthAdjust="spacingAndGlyphs" textLength="172" x="214" y="633.1558">getTotalResourcesNum(): long</text><ellipse cx="205" cy="642.75" fill="#84BE84" rx="3" ry="3" style="stroke: #038048; stroke-width: 1.0;"/><text fill="#000000" font-family="sans-serif" font-size="11" lengthAdjust="spacingAndGlyphs" textLength="195" x="214" y="645.9604">setTotalResourcesNum(long): void</text><ellipse cx="205" cy="655.5547" fill="#84BE84" rx="3" ry="3" style="stroke: #038048; stroke-width: 1.0;"/><text fill="#000000" font-family="sans-serif" font-size="11" lengthAdjust="spacingAndGlyphs" textLength="188" x="214" y="658.7651">addTotalResourcesNum(int): void</text><ellipse cx="205" cy="668.3594" fill="#84BE84" rx="3" ry="3" style="stroke: #038048; stroke-width: 1.0;"/><text fill="#000000" font-family="sans-serif" font-size="11" lengthAdjust="spacingAndGlyphs" textLength="163" x="214" y="671.5698">getCurrentUploadSize(): long</text><ellipse cx="205" cy="681.1641" fill="#84BE84" rx="3" ry="3" style="stroke: #038048; stroke-width: 1.0;"/><text fill="#000000" font-family="sans-serif" font-size="11" lengthAdjust="spacingAndGlyphs" textLength="186" x="214" y="684.3745">setCurrentUploadSize(long): void</text><ellipse cx="205" cy="693.9688" fill="#84BE84" rx="3" ry="3" style="stroke: #038048; stroke-width: 1.0;"/><text fill="#000000" font-family="sans-serif" font-size="11" lengthAdjust="spacingAndGlyphs" textLength="189" x="214" y="697.1792">addCurrentUploadSize(long): void</text><ellipse cx="205" cy="706.7734" fill="#84BE84" rx="3" ry="3" style="stroke: #038048; stroke-width: 1.0;"/><text fill="#000000" font-family="sans-serif" font-size="11" lengthAdjust="spacingAndGlyphs" textLength="186" x="214" y="709.9839">isFinishCurrentUpload(): boolean</text><ellipse cx="205" cy="719.5781" fill="#84BE84" rx="3" ry="3" style="stroke: #038048; stroke-width: 1.0;"/><text fill="#000000" font-family="sans-serif" font-size="11" lengthAdjust="spacingAndGlyphs" textLength="217" x="214" y="722.7886">setFinishCurrentUpload(boolean): void</text><ellipse cx="205" cy="732.3828" fill="#84BE84" rx="3" ry="3" style="stroke: #038048; stroke-width: 1.0;"/><text fill="#000000" font-family="sans-serif" font-size="11" lengthAdjust="spacingAndGlyphs" textLength="130" x="214" y="735.5933">getUploadCount(): long</text><ellipse cx="205" cy="745.1875" fill="#84BE84" rx="3" ry="3" style="stroke: #038048; stroke-width: 1.0;"/><text fill="#000000" font-family="sans-serif" font-size="11" lengthAdjust="spacingAndGlyphs" textLength="153" x="214" y="748.3979">setUploadCount(long): void</text><ellipse cx="205" cy="757.9922" fill="#84BE84" rx="3" ry="3" style="stroke: #038048; stroke-width: 1.0;"/><text fill="#000000" font-family="sans-serif" font-size="11" lengthAdjust="spacingAndGlyphs" textLength="165" x="214" y="761.2026">getLastWrittenPageNum(): int</text><ellipse cx="205" cy="770.7969" fill="#84BE84" rx="3" ry="3" style="stroke: #038048; stroke-width: 1.0;"/><text fill="#000000" font-family="sans-serif" font-size="11" lengthAdjust="spacingAndGlyphs" textLength="188" x="214" y="774.0073">setLastWrittenPageNum(int): void</text></a><!--MD5=[1307e9d6849417bc98e39bad1acbff1f]
class com.ibm.fhir.bulkdata.jbatch.export.data.ExportCheckpointUserData.Builder--><a href="ExportCheckpointUserData.Builder.html" target="_top" title="ExportCheckpointUserData.Builder.html" xlink:actuate="onRequest" xlink:href="ExportCheckpointUserData.Builder.html" xlink:show="new" xlink:title="ExportCheckpointUserData.Builder.html" xlink:type="simple"><rect fill="#FEFECE" filter="url(#f1kohfwvozy8vo)" height="380.9219" id="com.ibm.fhir.bulkdata.jbatch.export.data.ExportCheckpointUserData.Builder" style="stroke: #A80036; stroke-width: 1.5;" width="265" x="551.5" y="841"/><ellipse cx="574.15" cy="857" fill="#ADD1B2" rx="11" ry="11" style="stroke: #A80036; stroke-width: 1.0;"/><path d="M577.1188,862.6406 Q576.5406,862.9375 575.9,863.0781 Q575.2594,863.2344 574.5563,863.2344 Q572.0563,863.2344 570.7281,861.5938 Q569.4156,859.9375 569.4156,856.8125 Q569.4156,853.6875 570.7281,852.0313 Q572.0563,850.375 574.5563,850.375 Q575.2594,850.375 575.9,850.5313 Q576.5563,850.6875 577.1188,850.9844 L577.1188,853.7031 Q576.4938,853.125 575.9,852.8594 Q575.3063,852.5781 574.6813,852.5781 Q573.3375,852.5781 572.65,853.6563 Q571.9625,854.7188 571.9625,856.8125 Q571.9625,858.9063 572.65,859.9844 Q573.3375,861.0469 574.6813,861.0469 Q575.3063,861.0469 575.9,860.7813 Q576.4938,860.5 577.1188,859.9219 L577.1188,862.6406 Z "/><text fill="#000000" font-family="sans-serif" font-size="12" lengthAdjust="spacingAndGlyphs" textLength="216" x="589.85" y="861.1543">ExportCheckpointUserData.Builder</text><line style="stroke: #A80036; stroke-width: 1.5;" x1="552.5" x2="815.5" y1="873" y2="873"/><polygon fill="none" points="562.5,879,566.5,883,562.5,887,558.5,883" style="stroke: #B38D22; stroke-width: 1.0;"/><text fill="#000000" font-family="sans-serif" font-size="11" lengthAdjust="spacingAndGlyphs" textLength="76" x="571.5" y="887.2104">pageNum: int</text><polygon fill="none" points="562.5,891.8047,566.5,895.8047,562.5,899.8047,558.5,895.8047" style="stroke: #B38D22; stroke-width: 1.0;"/><text fill="#000000" font-family="sans-serif" font-size="11" lengthAdjust="spacingAndGlyphs" textLength="97" x="571.5" y="900.0151">lastPageNum: int</text><polygon fill="none" points="562.5,904.6094,566.5,908.6094,562.5,912.6094,558.5,908.6094" style="stroke: #B38D22; stroke-width: 1.0;"/><text fill="#000000" font-family="sans-serif" font-size="11" lengthAdjust="spacingAndGlyphs" textLength="71" x="571.5" y="912.8198">partNum: int</text><polygon fill="none" points="562.5,917.4141,566.5,921.4141,562.5,925.4141,558.5,921.4141" style="stroke: #B38D22; stroke-width: 1.0;"/><text fill="#000000" font-family="sans-serif" font-size="11" lengthAdjust="spacingAndGlyphs" textLength="90" x="571.5" y="925.6245">uploadId: String</text><polygon fill="none" points="562.5,930.2188,566.5,934.2188,562.5,938.2188,558.5,934.2188" style="stroke: #B38D22; stroke-width: 1.0;"/><text fill="#000000" font-family="sans-serif" font-size="11" lengthAdjust="spacingAndGlyphs" textLength="103" x="571.5" y="938.4292">uploadCount: long</text><polygon fill="none" points="562.5,943.0234,566.5,947.0234,562.5,951.0234,558.5,947.0234" style="stroke: #B38D22; stroke-width: 1.0;"/><text fill="#000000" font-family="sans-serif" font-size="11" lengthAdjust="spacingAndGlyphs" textLength="176" x="571.5" y="951.2339">cosDataPacks: List&lt;PartETag&gt;</text><polygon fill="none" points="562.5,955.8281,566.5,959.8281,562.5,963.8281,558.5,959.8281" style="stroke: #B38D22; stroke-width: 1.0;"/><text fill="#000000" font-family="sans-serif" font-size="11" lengthAdjust="spacingAndGlyphs" textLength="191" x="571.5" y="964.0386">currentUploadResourceNum: long</text><polygon fill="none" points="562.5,968.6328,566.5,972.6328,562.5,976.6328,558.5,972.6328" style="stroke: #B38D22; stroke-width: 1.0;"/><text fill="#000000" font-family="sans-serif" font-size="11" lengthAdjust="spacingAndGlyphs" textLength="135" x="571.5" y="976.8433">currentUploadSize: long</text><polygon fill="none" points="562.5,981.4375,566.5,985.4375,562.5,989.4375,558.5,985.4375" style="stroke: #B38D22; stroke-width: 1.0;"/><text fill="#000000" font-family="sans-serif" font-size="11" lengthAdjust="spacingAndGlyphs" textLength="143" x="571.5" y="989.6479">totalResourcesNum: long</text><polygon fill="none" points="562.5,994.2422,566.5,998.2422,562.5,1002.2422,558.5,998.2422" style="stroke: #B38D22; stroke-width: 1.0;"/><text fill="#000000" font-family="sans-serif" font-size="11" lengthAdjust="spacingAndGlyphs" textLength="163" x="571.5" y="1002.4526">indexOfCurrentTypeFilter: int</text><polygon fill="none" points="562.5,1007.0469,566.5,1011.0469,562.5,1015.0469,558.5,1011.0469" style="stroke: #B38D22; stroke-width: 1.0;"/><text fill="#000000" font-family="sans-serif" font-size="11" lengthAdjust="spacingAndGlyphs" textLength="175" x="571.5" y="1015.2573">resourceTypeSummary: String</text><polygon fill="none" points="562.5,1019.8516,566.5,1023.8516,562.5,1027.8516,558.5,1023.8516" style="stroke: #B38D22; stroke-width: 1.0;"/><text fill="#000000" font-family="sans-serif" font-size="11" lengthAdjust="spacingAndGlyphs" textLength="125" x="571.5" y="1028.062">lastWritePageNum: int</text><line style="stroke: #A80036; stroke-width: 1.5;" x1="552.5" x2="815.5" y1="1034.6563" y2="1034.6563"/><ellipse cx="562.5" cy="1045.6563" fill="#84BE84" rx="3" ry="3" style="stroke: #038048; stroke-width: 1.0;"/><text fill="#000000" font-family="sans-serif" font-size="11" lengthAdjust="spacingAndGlyphs" text-decoration="underline" textLength="95" x="571.5" y="1048.8667">builder(): Builder</text><ellipse cx="562.5" cy="1058.4609" fill="#84BE84" rx="3" ry="3" style="stroke: #038048; stroke-width: 1.0;"/><text fill="#000000" font-family="sans-serif" font-size="11" lengthAdjust="spacingAndGlyphs" textLength="124" x="571.5" y="1061.6714">pageNum(int): Builder</text><ellipse cx="562.5" cy="1071.2656" fill="#84BE84" rx="3" ry="3" style="stroke: #038048; stroke-width: 1.0;"/><text fill="#000000" font-family="sans-serif" font-size="11" lengthAdjust="spacingAndGlyphs" textLength="145" x="571.5" y="1074.4761">lastPageNum(int): Builder</text><ellipse cx="562.5" cy="1084.0703" fill="#84BE84" rx="3" ry="3" style="stroke: #038048; stroke-width: 1.0;"/><text fill="#000000" font-family="sans-serif" font-size="11" lengthAdjust="spacingAndGlyphs" textLength="119" x="571.5" y="1087.2808">partNum(int): Builder</text><ellipse cx="562.5" cy="1096.875" fill="#84BE84" rx="3" ry="3" style="stroke: #038048; stroke-width: 1.0;"/><text fill="#000000" font-family="sans-serif" font-size="11" lengthAdjust="spacingAndGlyphs" textLength="138" x="571.5" y="1100.0854">uploadId(String): Builder</text><ellipse cx="562.5" cy="1109.6797" fill="#84BE84" rx="3" ry="3" style="stroke: #038048; stroke-width: 1.0;"/><text fill="#000000" font-family="sans-serif" font-size="11" lengthAdjust="spacingAndGlyphs" textLength="151" x="571.5" y="1112.8901">uploadCount(long): Builder</text><ellipse cx="562.5" cy="1122.4844" fill="#84BE84" rx="3" ry="3" style="stroke: #038048; stroke-width: 1.0;"/><text fill="#000000" font-family="sans-serif" font-size="11" lengthAdjust="spacingAndGlyphs" textLength="224" x="571.5" y="1125.6948">cosDataPacks(List&lt;PartETag&gt;): Builder</text><ellipse cx="562.5" cy="1135.2891" fill="#84BE84" rx="3" ry="3" style="stroke: #038048; stroke-width: 1.0;"/><text fill="#000000" font-family="sans-serif" font-size="11" lengthAdjust="spacingAndGlyphs" textLength="239" x="571.5" y="1138.4995">currentUploadResourceNum(long): Builder</text><ellipse cx="562.5" cy="1148.0938" fill="#84BE84" rx="3" ry="3" style="stroke: #038048; stroke-width: 1.0;"/><text fill="#000000" font-family="sans-serif" font-size="11" lengthAdjust="spacingAndGlyphs" textLength="183" x="571.5" y="1151.3042">currentUploadSize(long): Builder</text><ellipse cx="562.5" cy="1160.8984" fill="#84BE84" rx="3" ry="3" style="stroke: #038048; stroke-width: 1.0;"/><text fill="#000000" font-family="sans-serif" font-size="11" lengthAdjust="spacingAndGlyphs" textLength="191" x="571.5" y="1164.1089">totalResourcesNum(long): Builder</text><ellipse cx="562.5" cy="1173.7031" fill="#84BE84" rx="3" ry="3" style="stroke: #038048; stroke-width: 1.0;"/><text fill="#000000" font-family="sans-serif" font-size="11" lengthAdjust="spacingAndGlyphs" textLength="211" x="571.5" y="1176.9136">indexOfCurrentTypeFilter(int): Builder</text><ellipse cx="562.5" cy="1186.5078" fill="#84BE84" rx="3" ry="3" style="stroke: #038048; stroke-width: 1.0;"/><text fill="#000000" font-family="sans-serif" font-size="11" lengthAdjust="spacingAndGlyphs" textLength="223" x="571.5" y="1189.7183">resourceTypeSummary(String): Builder</text><ellipse cx="562.5" cy="1199.3125" fill="#84BE84" rx="3" ry="3" style="stroke: #038048; stroke-width: 1.0;"/><text fill="#000000" font-family="sans-serif" font-size="11" lengthAdjust="spacingAndGlyphs" textLength="184" x="571.5" y="1202.5229">lastWrittenPageNum(int): Builder</text><ellipse cx="562.5" cy="1212.1172" fill="#84BE84" rx="3" ry="3" style="stroke: #038048; stroke-width: 1.0;"/><text fill="#000000" font-family="sans-serif" font-size="11" lengthAdjust="spacingAndGlyphs" textLength="194" x="571.5" y="1215.3276">build(): ExportCheckpointUserData</text></a><!--MD5=[5a5af9b0547913863cbe0ddf55a9ab5e]
class java.io.Serializable--><a href="https://docs.oracle.com/javase/8/docs/api/java/io/Serializable.html?is-external=true" target="_top" title="https://docs.oracle.com/javase/8/docs/api/java/io/Serializable.html?is-external=true" xlink:actuate="onRequest" xlink:href="https://docs.oracle.com/javase/8/docs/api/java/io/Serializable.html?is-external=true" xlink:show="new" xlink:title="https://docs.oracle.com/javase/8/docs/api/java/io/Serializable.html?is-external=true" xlink:type="simple"><rect fill="#FEFECE" filter="url(#f1kohfwvozy8vo)" height="48" id="java.io.Serializable" style="stroke: #A80036; stroke-width: 1.5;" width="103" x="377.5" y="59"/><ellipse cx="392.5" cy="75" fill="#B4A7E5" rx="11" ry="11" style="stroke: #A80036; stroke-width: 1.0;"/><path d="M388.4219,70.7656 L388.4219,68.6094 L395.8125,68.6094 L395.8125,70.7656 L393.3438,70.7656 L393.3438,78.8438 L395.8125,78.8438 L395.8125,81 L388.4219,81 L388.4219,78.8438 L390.8906,78.8438 L390.8906,70.7656 L388.4219,70.7656 Z "/><text fill="#000000" font-family="sans-serif" font-size="12" font-style="italic" lengthAdjust="spacingAndGlyphs" textLength="71" x="406.5" y="79.1543">Serializable</text><line style="stroke: #A80036; stroke-width: 1.5;" x1="378.5" x2="479.5" y1="91" y2="91"/><line style="stroke: #A80036; stroke-width: 1.5;" x1="378.5" x2="479.5" y1="99" y2="99"/></a><!--MD5=[1d1f0651707311ba3bf3353acc23be09]
reverse link com.ibm.fhir.bulkdata.jbatch.export.data.ExportCheckpointUserData to com.ibm.fhir.bulkdata.jbatch.export.data.ExportTransientUserData--><path d="M340.71,800.8 C319,879.06 298.67,952.37 287.05,994.27 " fill="none" id="com.ibm.fhir.bulkdata.jbatch.export.data.ExportCheckpointUserData&lt;-com.ibm.fhir.bulkdata.jbatch.export.data.ExportTransientUserData" style="stroke: #A80036; stroke-width: 1.0;"/><polygon fill="none" points="334.02,798.76,346.11,781.35,347.51,802.5,334.02,798.76" style="stroke: #A80036; stroke-width: 1.0;"/><!--MD5=[82497515382284c58afa54e0e3705e78]
reverse link com.ibm.fhir.bulkdata.jbatch.export.data.ExportCheckpointUserData.Builder to com.ibm.fhir.bulkdata.jbatch.export.data.ExportTransientUserData.Builder--><path d="M567.17,1239.82 C559.09,1254.15 551.14,1268.26 543.52,1281.78 " fill="none" id="com.ibm.fhir.bulkdata.jbatch.export.data.ExportCheckpointUserData.Builder&lt;-com.ibm.fhir.bulkdata.jbatch.export.data.ExportTransientUserData.Builder" style="stroke: #A80036; stroke-width: 1.0;"/><polygon fill="none" points="561.15,1236.23,577.07,1222.25,573.35,1243.11,561.15,1236.23" style="stroke: #A80036; stroke-width: 1.0;"/><!--MD5=[a0b3573fa77bde2239b763b9a6ee5b76]
reverse link com.ibm.fhir.bulkdata.jbatch.export.data.ExportTransientUserData to com.ibm.fhir.bulkdata.jbatch.export.data.ExportTransientUserData.Builder--><path d="M304.64,1081.79 C333.3,1132.9 379.1,1214.58 416.71,1281.64 " fill="none" id="com.ibm.fhir.bulkdata.jbatch.export.data.ExportTransientUserData&lt;-com.ibm.fhir.bulkdata.jbatch.export.data.ExportTransientUserData.Builder" style="stroke: #A80036; stroke-width: 1.0;"/><ellipse cx="301.1191" cy="1075.5099" fill="#FFFFFF" rx="8" ry="8" style="stroke: #A80036; stroke-width: 1.0;"/><line style="stroke: #A80036; stroke-width: 1.0;" x1="305.0281" x2="297.21" y1="1082.4898" y2="1068.53"/><line style="stroke: #A80036; stroke-width: 1.0;" x1="294.1391" x2="308.099" y1="1079.419" y2="1071.6009"/><!--MD5=[f05e61a632f38e015fe500d7e66afc6e]
reverse link java.io.Serializable to com.ibm.fhir.bulkdata.jbatch.export.data.ExportCheckpointUserData--><path d="M429,127.06 C429,142.46 429,161.19 429,181.91 " fill="none" id="java.io.Serializable&lt;-com.ibm.fhir.bulkdata.jbatch.export.data.ExportCheckpointUserData" style="stroke: #A80036; stroke-width: 1.0; stroke-dasharray: 7.0,7.0;"/><polygon fill="none" points="422,127.03,429,107.03,436,127.03,422,127.03" style="stroke: #A80036; stroke-width: 1.0;"/><!--MD5=[0c609565558aca7b37b393ed97aaf5ac]
reverse link com.ibm.fhir.bulkdata.jbatch.export.data.ExportCheckpointUserData to com.ibm.fhir.bulkdata.jbatch.export.data.ExportCheckpointUserData.Builder--><path d="M574.43,795.02 C581.65,810.54 588.79,825.88 595.75,840.85 " fill="none" id="com.ibm.fhir.bulkdata.jbatch.export.data.ExportCheckpointUserData&lt;-com.ibm.fhir.bulkdata.jbatch.export.data.ExportCheckpointUserData.Builder" style="stroke: #A80036; stroke-width: 1.0;"/><ellipse cx="571.4452" cy="788.6032" fill="#FFFFFF" rx="8" ry="8" style="stroke: #A80036; stroke-width: 1.0;"/><line style="stroke: #A80036; stroke-width: 1.0;" x1="574.8203" x2="568.07" y1="795.8563" y2="781.35"/><line style="stroke: #A80036; stroke-width: 1.0;" x1="564.192" x2="578.6983" y1="791.9783" y2="785.228"/><text fill="#888888" font-family="sans-serif" font-size="10" lengthAdjust="spacingAndGlyphs" textLength="186" x="340.5" y="1560.2822">UMLDoclet 2.0.7, PlantUML 1.2019.12</text><!--MD5=[7655918faeaabd918af4f53f2602bc2e]
@startuml
    namespace com.ibm.fhir.bulkdata.jbatch.export.data {

        class ExportTransientUserData [[ExportTransientUserData.html]] {
            {static} +fromCheckPointUserData(ExportCheckpointUserData): ExportTransientUserData
            +getBufferStream(): ByteArrayOutputStream
        }

        class com.ibm.fhir.bulkdata.jbatch.export.data.ExportTransientUserData.Builder [[ExportTransientUserData.Builder.html]] {
            {static} +builder(): Builder
            +pageNum(int): Builder
            +lastPageNum(int): Builder
            +partNum(int): Builder
            +uploadId(String): Builder
            +uploadCount(long): Builder
            +cosDataPacks(List<PartETag>): Builder
            +currentUploadResourceNum(long): Builder
            +currentUploadSize(long): Builder
            +totalResourcesNum(long): Builder
            +indexOfCurrentTypeFilter(int): Builder
            +resourceTypeSummary(String): Builder
            +lastWrittenPageNum(int): Builder
            +build(): ExportTransientUserData
        }

        class ExportCheckpointUserData [[ExportCheckpointUserData.html]] {
            #pageNum: int
            #lastPageNum: int
            #partNum: int
            #uploadId: String
            #uploadCount: long
            #cosDataPacks: List<PartETag>
            #currentUploadResourceNum: long
            #currentUploadSize: long
            #totalResourcesNum: long
            #indexOfCurrentTypeFilter: int
            #resourceTypeSummary: String
            #lastWrittenPageNum: int
            {static} +fromTransientUserData(ExportTransientUserData): ExportCheckpointUserData
            +getPageNum(): int
            +setPageNum(int): void
            +getUploadId(): String
            +setUploadId(String): void
            +getCosDataPacks(): List<PartETag>
            +getPartNum(): int
            +setPartNum(int): void
            +getLastPageNum(): int
            +setLastPageNum(int): void
            +getCurrentUploadResourceNum(): long
            +setCurrentUploadResourceNum(long): void
            +addCurrentUploadResourceNum(long): void
            +getIndexOfCurrentTypeFilter(): int
            +setIndexOfCurrentTypeFilter(int): void
            +getResourceTypeSummary(): String
            +setResourceTypeSummary(String): void
            +isMoreToExport(): boolean
            +setMoreToExport(boolean): void
            +getTotalResourcesNum(): long
            +setTotalResourcesNum(long): void
            +addTotalResourcesNum(int): void
            +getCurrentUploadSize(): long
            +setCurrentUploadSize(long): void
            +addCurrentUploadSize(long): void
            +isFinishCurrentUpload(): boolean
            +setFinishCurrentUpload(boolean): void
            +getUploadCount(): long
            +setUploadCount(long): void
            +getLastWrittenPageNum(): int
            +setLastWrittenPageNum(int): void
        }

        class com.ibm.fhir.bulkdata.jbatch.export.data.ExportCheckpointUserData.Builder [[ExportCheckpointUserData.Builder.html]] {
            #pageNum: int
            #lastPageNum: int
            #partNum: int
            #uploadId: String
            #uploadCount: long
            #cosDataPacks: List<PartETag>
            #currentUploadResourceNum: long
            #currentUploadSize: long
            #totalResourcesNum: long
            #indexOfCurrentTypeFilter: int
            #resourceTypeSummary: String
            #lastWritePageNum: int
            {static} +builder(): Builder
            +pageNum(int): Builder
            +lastPageNum(int): Builder
            +partNum(int): Builder
            +uploadId(String): Builder
            +uploadCount(long): Builder
            +cosDataPacks(List<PartETag>): Builder
            +currentUploadResourceNum(long): Builder
            +currentUploadSize(long): Builder
            +totalResourcesNum(long): Builder
            +indexOfCurrentTypeFilter(int): Builder
            +resourceTypeSummary(String): Builder
            +lastWrittenPageNum(int): Builder
            +build(): ExportCheckpointUserData
        }

        ExportCheckpointUserData <|- - ExportTransientUserData
        com.ibm.fhir.bulkdata.jbatch.export.data.ExportCheckpointUserData.Builder <|- - com.ibm.fhir.bulkdata.jbatch.export.data.ExportTransientUserData.Builder
        ExportTransientUserData +- - com.ibm.fhir.bulkdata.jbatch.export.data.ExportTransientUserData.Builder
        java.io.Serializable <|.. ExportCheckpointUserData
        ExportCheckpointUserData +- - com.ibm.fhir.bulkdata.jbatch.export.data.ExportCheckpointUserData.Builder
    }

    namespace java.io {
        interface Serializable [[https://docs.oracle.com/javase/8/docs/api/java/io/Serializable.html?is-external=true]]
    }

    center footer UMLDoclet 2.0.7, PlantUML 1.2019.12
@enduml

PlantUML version 1.2019.12(Sun Nov 03 10:24:54 UTC 2019)
(APACHE source distribution)
Java Runtime: OpenJDK Runtime Environment
JVM: OpenJDK 64-Bit Server VM
Java Version: 11.0.10+9
Operating System: Linux
Default Encoding: UTF-8
Language: en
Country: null
--></g></svg>