<?xml version="1.0" encoding="UTF-8" standalone="no"?><svg xmlns="http://www.w3.org/2000/svg" xmlns:xlink="http://www.w3.org/1999/xlink" contentScriptType="application/ecmascript" contentStyleType="text/css" height="268px" preserveAspectRatio="none" style="width:228px;height:268px;" version="1.1" viewBox="0 0 228 268" width="228px" zoomAndPan="magnify"><defs><filter height="300%" id="f1dczyvrx6293d" width="300%" x="-1" y="-1"><feGaussianBlur result="blurOut" stdDeviation="2.0"/><feColorMatrix in="blurOut" result="blurOut2" type="matrix" values="0 0 0 0 0 0 0 0 0 0 0 0 0 0 0 0 0 0 .4 0"/><feOffset dx="4.0" dy="4.0" in="blurOut2" result="blurOut3"/><feBlend in="SourceGraphic" in2="blurOut3" mode="normal"/></filter></defs><g><!--MD5=[90b89bfd4941eca77e5b5b7ed0906657]
class com.ibm.fhir.path.function.ToDecimalFunction--><a href="ToDecimalFunction.html" target="_top" title="ToDecimalFunction.html" xlink:actuate="onRequest" xlink:href="ToDecimalFunction.html" xlink:show="new" xlink:title="ToDecimalFunction.html" xlink:type="simple"><rect fill="#FEFECE" filter="url(#f1dczyvrx6293d)" height="84.3516" id="com.ibm.fhir.path.function.ToDecimalFunction" style="stroke: #A80036; stroke-width: 1.5;" width="165" x="29" y="152"/><ellipse cx="44" cy="170.9688" fill="#ADD1B2" rx="11" ry="11" style="stroke: #A80036; stroke-width: 1.0;"/><path d="M46.9688,176.6094 Q46.3906,176.9063 45.75,177.0469 Q45.1094,177.2031 44.4063,177.2031 Q41.9063,177.2031 40.5781,175.5625 Q39.2656,173.9063 39.2656,170.7813 Q39.2656,167.6563 40.5781,166 Q41.9063,164.3438 44.4063,164.3438 Q45.1094,164.3438 45.75,164.5 Q46.4063,164.6563 46.9688,164.9531 L46.9688,167.6719 Q46.3438,167.0938 45.75,166.8281 Q45.1563,166.5469 44.5313,166.5469 Q43.1875,166.5469 42.5,167.625 Q41.8125,168.6875 41.8125,170.7813 Q41.8125,172.875 42.5,173.9531 Q43.1875,175.0156 44.5313,175.0156 Q45.1563,175.0156 45.75,174.75 Q46.3438,174.4688 46.9688,173.8906 L46.9688,176.6094 Z "/><text fill="#000000" font-family="sans-serif" font-size="14" lengthAdjust="spacingAndGlyphs" textLength="133" x="58" y="169.9951">ToDecimalFunction</text><text fill="#000000" font-family="sans-serif" font-size="10" lengthAdjust="spacingAndGlyphs" textLength="128" x="60.5" y="182.5791">com.ibm.fhir.path.function</text><line style="stroke: #A80036; stroke-width: 1.5;" x1="30" x2="193" y1="189.9375" y2="189.9375"/><ellipse cx="40" cy="200.9375" fill="#84BE84" rx="3" ry="3" style="stroke: #038048; stroke-width: 1.0;"/><text fill="#000000" font-family="sans-serif" font-size="11" lengthAdjust="spacingAndGlyphs" textLength="101" x="49" y="204.1479">getName(): String</text><ellipse cx="40" cy="213.7422" fill="#84BE84" rx="3" ry="3" style="stroke: #038048; stroke-width: 1.0;"/><text fill="#000000" font-family="sans-serif" font-size="11" lengthAdjust="spacingAndGlyphs" textLength="92" x="49" y="216.9526">getMinArity(): int</text><ellipse cx="40" cy="226.5469" fill="#84BE84" rx="3" ry="3" style="stroke: #038048; stroke-width: 1.0;"/><text fill="#000000" font-family="sans-serif" font-size="11" lengthAdjust="spacingAndGlyphs" textLength="95" x="49" y="229.7573">getMaxArity(): int</text></a><!--MD5=[5655413027f34780dbf373b9f45b979c]
class com.ibm.fhir.path.function.FHIRPathAbstractFunction--><a href="FHIRPathAbstractFunction.html" target="_top" title="FHIRPathAbstractFunction.html" xlink:actuate="onRequest" xlink:href="FHIRPathAbstractFunction.html" xlink:show="new" xlink:title="FHIRPathAbstractFunction.html" xlink:type="simple"><rect fill="#FEFECE" filter="url(#f1dczyvrx6293d)" height="84.3516" id="com.ibm.fhir.path.function.FHIRPathAbstractFunction" style="stroke: #A80036; stroke-width: 1.5;" width="211" x="6" y="8"/><ellipse cx="21" cy="26.9688" fill="#A9DCDF" rx="11" ry="11" style="stroke: #A80036; stroke-width: 1.0;"/><path d="M21.1094,22.3125 L19.9531,27.3906 L22.2813,27.3906 L21.1094,22.3125 Z M19.625,20.0781 L22.6094,20.0781 L25.9688,32.4688 L23.5156,32.4688 L22.75,29.4063 L19.4688,29.4063 L18.7188,32.4688 L16.2813,32.4688 L19.625,20.0781 Z "/><text fill="#000000" font-family="sans-serif" font-size="14" font-style="italic" lengthAdjust="spacingAndGlyphs" textLength="179" x="35" y="25.9951">FHIRPathAbstractFunction</text><text fill="#000000" font-family="sans-serif" font-size="10" font-style="italic" lengthAdjust="spacingAndGlyphs" textLength="128" x="60.5" y="38.5791">com.ibm.fhir.path.function</text><line style="stroke: #A80036; stroke-width: 1.5;" x1="7" x2="216" y1="45.9375" y2="45.9375"/><ellipse cx="17" cy="56.9375" fill="#84BE84" rx="3" ry="3" style="stroke: #038048; stroke-width: 1.0;"/><text fill="#000000" font-family="sans-serif" font-size="11" font-style="italic" lengthAdjust="spacingAndGlyphs" textLength="101" x="26" y="60.1479">getName(): String</text><ellipse cx="17" cy="69.7422" fill="#84BE84" rx="3" ry="3" style="stroke: #038048; stroke-width: 1.0;"/><text fill="#000000" font-family="sans-serif" font-size="11" font-style="italic" lengthAdjust="spacingAndGlyphs" textLength="92" x="26" y="72.9526">getMinArity(): int</text><ellipse cx="17" cy="82.5469" fill="#84BE84" rx="3" ry="3" style="stroke: #038048; stroke-width: 1.0;"/><text fill="#000000" font-family="sans-serif" font-size="11" font-style="italic" lengthAdjust="spacingAndGlyphs" textLength="95" x="26" y="85.7573">getMaxArity(): int</text></a><!--MD5=[8427b3ad7c8519354125253bb3277a3e]
reverse link com.ibm.fhir.path.function.FHIRPathAbstractFunction to com.ibm.fhir.path.function.ToDecimalFunction--><path d="M111.5,112.2896 C111.5,125.5826 111.5,139.3254 111.5,151.6606 " fill="none" id="com.ibm.fhir.path.function.FHIRPathAbstractFunction&lt;-com.ibm.fhir.path.function.ToDecimalFunction" style="stroke: #A80036; stroke-width: 1.0;"/><polygon fill="none" points="104.5001,112.0379,111.5,92.0379,118.5001,112.0378,104.5001,112.0379" style="stroke: #A80036; stroke-width: 1.0;"/><text fill="#888888" font-family="sans-serif" font-size="10" lengthAdjust="spacingAndGlyphs" textLength="186" x="24.5" y="255.2822">UMLDoclet 2.0.7, PlantUML 1.2019.12</text><!--MD5=[b7413dd9ec74f13b913a7d49cbebdcdd]
@startuml
    set namespaceSeparator none
    hide empty fields
    hide empty methods

    class "<size:14>ToDecimalFunction\n<size:10>com.ibm.fhir.path.function" as com.ibm.fhir.path.function.ToDecimalFunction [[ToDecimalFunction.html]] {
        +getName(): String
        +getMinArity(): int
        +getMaxArity(): int
    }

    abstract class "<size:14>FHIRPathAbstractFunction\n<size:10>com.ibm.fhir.path.function" as com.ibm.fhir.path.function.FHIRPathAbstractFunction [[FHIRPathAbstractFunction.html]] {
        {abstract} +getName(): String
        {abstract} +getMinArity(): int
        {abstract} +getMaxArity(): int
    }

    com.ibm.fhir.path.function.FHIRPathAbstractFunction <|- - com.ibm.fhir.path.function.ToDecimalFunction

    center footer UMLDoclet 2.0.7, PlantUML 1.2019.12
@enduml

PlantUML version 1.2019.12(Sun Nov 03 10:24:54 UTC 2019)
(APACHE source distribution)
Java Runtime: OpenJDK Runtime Environment
JVM: OpenJDK 64-Bit Server VM
Java Version: 11.0.6+10
Operating System: Linux
Default Encoding: UTF-8
Language: en
Country: null
--></g></svg>