<?xml version="1.0" encoding="UTF-8" standalone="no"?><svg xmlns="http://www.w3.org/2000/svg" xmlns:xlink="http://www.w3.org/1999/xlink" contentScriptType="application/ecmascript" contentStyleType="text/css" height="139px" preserveAspectRatio="none" style="width:231px;height:139px;" version="1.1" viewBox="0 0 231 139" width="231px" zoomAndPan="magnify"><defs><filter height="300%" id="fzudgowubov4e" width="300%" x="-1" y="-1"><feGaussianBlur result="blurOut" stdDeviation="2.0"/><feColorMatrix in="blurOut" result="blurOut2" type="matrix" values="0 0 0 0 0 0 0 0 0 0 0 0 0 0 0 0 0 0 .4 0"/><feOffset dx="4.0" dy="4.0" in="blurOut2" result="blurOut3"/><feBlend in="SourceGraphic" in2="blurOut3" mode="normal"/></filter></defs><g><!--class com.ibm.fhir.database.utils.query.FromClause--><a href="FromClause.html" target="_top" xlink:actuate="onRequest" xlink:show="new" xlink:title="FromClause.html" xlink:type="simple"><rect fill="#FEFECE" filter="url(#fzudgowubov4e)" height="98.0859" id="com.ibm.fhir.database.utils.query.FromClause" style="stroke: #A80036; stroke-width: 1.5;" width="214" x="6" y="8"/><ellipse cx="29.55" cy="27.1328" fill="#ADD1B2" rx="11" ry="11" style="stroke: #A80036; stroke-width: 1.0;"/><path d="M32.0231,33.2759 Q31.4421,33.5747 30.8029,33.7241 Q30.1638,33.8735 29.4582,33.8735 Q26.9514,33.8735 25.6315,32.2217 Q24.3117,30.5698 24.3117,27.4487 Q24.3117,24.3193 25.6315,22.6675 Q26.9514,21.0156 29.4582,21.0156 Q30.1638,21.0156 30.8112,21.165 Q31.4587,21.3145 32.0231,21.6133 L32.0231,24.3359 Q31.3923,23.7549 30.7988,23.4851 Q30.2053,23.2153 29.5744,23.2153 Q28.2297,23.2153 27.5449,24.282 Q26.8601,25.3486 26.8601,27.4487 Q26.8601,29.5405 27.5449,30.6072 Q28.2297,31.6738 29.5744,31.6738 Q30.2053,31.6738 30.7988,31.4041 Q31.3923,31.1343 32.0231,30.5532 Z "/><text fill="#000000" font-family="sans-serif" font-size="14" lengthAdjust="spacingAndGlyphs" textLength="82" x="85.95" y="26.5352">FromClause</text><text fill="#000000" font-family="sans-serif" font-size="10" lengthAdjust="spacingAndGlyphs" textLength="163" x="45.45" y="39.1563">com.ibm.fhir.database.utils.query</text><line style="stroke: #A80036; stroke-width: 1.5;" x1="7" x2="219" y1="46.2656" y2="46.2656"/><ellipse cx="17" cy="58.2432" fill="#84BE84" rx="3" ry="3" style="stroke: #038048; stroke-width: 1.0;"/><text fill="#000000" font-family="sans-serif" font-size="11" lengthAdjust="spacingAndGlyphs" textLength="156" x="26" y="60.9004">addTable(String, String): void</text><ellipse cx="17" cy="71.1982" fill="#84BE84" rx="3" ry="3" style="stroke: #038048; stroke-width: 1.0;"/><text fill="#000000" font-family="sans-serif" font-size="11" lengthAdjust="spacingAndGlyphs" textLength="188" x="26" y="73.8555">addTable(String, String, Alias): void</text><ellipse cx="17" cy="84.1533" fill="#84BE84" rx="3" ry="3" style="stroke: #038048; stroke-width: 1.0;"/><text fill="#000000" font-family="sans-serif" font-size="11" lengthAdjust="spacingAndGlyphs" textLength="150" x="26" y="86.8105">addTable(String, Alias): void</text><ellipse cx="17" cy="97.1084" fill="#84BE84" rx="3" ry="3" style="stroke: #038048; stroke-width: 1.0;"/><text fill="#000000" font-family="sans-serif" font-size="11" lengthAdjust="spacingAndGlyphs" textLength="148" x="26" y="99.7656">addFrom(Select, Alias): void</text></a><text fill="#888888" font-family="sans-serif" font-size="10" lengthAdjust="spacingAndGlyphs" textLength="182" x="28" y="125.668">UMLDoclet 2.0.5, PlantUML 1.2019.08</text><!--
@startuml
    set namespaceSeparator none
    hide empty fields
    hide empty methods

    class "<size:14>FromClause\n<size:10>com.ibm.fhir.database.utils.query" as com.ibm.fhir.database.utils.query.FromClause [[FromClause.html]] {
        +addTable(String, String): void
        +addTable(String, String, Alias): void
        +addTable(String, Alias): void
        +addFrom(Select, Alias): void
    }

    center footer UMLDoclet 2.0.5, PlantUML 1.2019.08
@enduml

PlantUML version 1.2019.08(Sat Jul 13 15:25:14 EDT 2019)
(APACHE source distribution)
Java Runtime: OpenJDK Runtime Environment
JVM: OpenJDK 64-Bit Server VM
Java Version: 11.0.4+11
Operating System: Mac OS X
OS Version: 10.14.6
Default Encoding: UTF-8
Language: en
Country: US
--></g></svg>