<?xml version="1.0" encoding="UTF-8" standalone="no"?><svg xmlns="http://www.w3.org/2000/svg" xmlns:xlink="http://www.w3.org/1999/xlink" contentScriptType="application/ecmascript" contentStyleType="text/css" height="248px" preserveAspectRatio="none" style="width:311px;height:248px;" version="1.1" viewBox="0 0 311 248" width="311px" zoomAndPan="magnify"><defs><filter height="300%" id="f1cn4kjhlchloe" width="300%" x="-1" y="-1"><feGaussianBlur result="blurOut" stdDeviation="2.0"/><feColorMatrix in="blurOut" result="blurOut2" type="matrix" values="0 0 0 0 0 0 0 0 0 0 0 0 0 0 0 0 0 0 .4 0"/><feOffset dx="4.0" dy="4.0" in="blurOut2" result="blurOut3"/><feBlend in="SourceGraphic" in2="blurOut3" mode="normal"/></filter></defs><g><!--MD5=[1672f299c1a309d82cacf85a9b2cfc09]
class com.ibm.fhir.jbatch.bulkdata.load.ImportPartitionMapper.FhirDataSource--><a href="ImportPartitionMapper.FhirDataSource.html" target="_top" title="ImportPartitionMapper.FhirDataSource.html" xlink:actuate="onRequest" xlink:href="ImportPartitionMapper.FhirDataSource.html" xlink:show="new" xlink:title="ImportPartitionMapper.FhirDataSource.html" xlink:type="simple"><rect fill="#FEFECE" filter="url(#f1cn4kjhlchloe)" height="109.9609" id="com.ibm.fhir.jbatch.bulkdata.load.ImportPartitionMapper.FhirDataSource" style="stroke: #A80036; stroke-width: 1.5;" width="294" x="6" y="106"/><ellipse cx="21" cy="124.9688" fill="#ADD1B2" rx="11" ry="11" style="stroke: #A80036; stroke-width: 1.0;"/><path d="M23.9688,130.6094 Q23.3906,130.9063 22.75,131.0469 Q22.1094,131.2031 21.4063,131.2031 Q18.9063,131.2031 17.5781,129.5625 Q16.2656,127.9063 16.2656,124.7813 Q16.2656,121.6563 17.5781,120 Q18.9063,118.3438 21.4063,118.3438 Q22.1094,118.3438 22.75,118.5 Q23.4063,118.6563 23.9688,118.9531 L23.9688,121.6719 Q23.3438,121.0938 22.75,120.8281 Q22.1563,120.5469 21.5313,120.5469 Q20.1875,120.5469 19.5,121.625 Q18.8125,122.6875 18.8125,124.7813 Q18.8125,126.875 19.5,127.9531 Q20.1875,129.0156 21.5313,129.0156 Q22.1563,129.0156 22.75,128.75 Q23.3438,128.4688 23.9688,127.8906 L23.9688,130.6094 Z "/><text fill="#000000" font-family="sans-serif" font-size="14" lengthAdjust="spacingAndGlyphs" textLength="262" x="35" y="123.9951">ImportPartitionMapper.FhirDataSource</text><text fill="#000000" font-family="sans-serif" font-size="10" lengthAdjust="spacingAndGlyphs" textLength="160" x="86" y="136.5791">com.ibm.fhir.jbatch.bulkdata.load</text><line style="stroke: #A80036; stroke-width: 1.5;" x1="7" x2="299" y1="143.9375" y2="143.9375"/><ellipse cx="17" cy="154.9375" fill="#84BE84" rx="3" ry="3" style="stroke: #038048; stroke-width: 1.0;"/><text fill="#000000" font-family="sans-serif" font-size="11" lengthAdjust="spacingAndGlyphs" textLength="171" x="26" y="158.1479">FhirDataSource(String, String)</text><ellipse cx="17" cy="167.7422" fill="#84BE84" rx="3" ry="3" style="stroke: #038048; stroke-width: 1.0;"/><text fill="#000000" font-family="sans-serif" font-size="11" lengthAdjust="spacingAndGlyphs" textLength="95" x="26" y="170.9526">getType(): String</text><ellipse cx="17" cy="180.5469" fill="#84BE84" rx="3" ry="3" style="stroke: #038048; stroke-width: 1.0;"/><text fill="#000000" font-family="sans-serif" font-size="11" lengthAdjust="spacingAndGlyphs" textLength="118" x="26" y="183.7573">setType(String): void</text><ellipse cx="17" cy="193.3516" fill="#84BE84" rx="3" ry="3" style="stroke: #038048; stroke-width: 1.0;"/><text fill="#000000" font-family="sans-serif" font-size="11" lengthAdjust="spacingAndGlyphs" textLength="84" x="26" y="196.562">getUrl(): String</text><ellipse cx="17" cy="206.1563" fill="#84BE84" rx="3" ry="3" style="stroke: #038048; stroke-width: 1.0;"/><text fill="#000000" font-family="sans-serif" font-size="11" lengthAdjust="spacingAndGlyphs" textLength="107" x="26" y="209.3667">setUrl(String): void</text></a><!--MD5=[44ea02a52a04fd85cedf616c3cffb6ae]
class com.ibm.fhir.jbatch.bulkdata.load.ImportPartitionMapper--><a href="ImportPartitionMapper.html" target="_top" title="ImportPartitionMapper.html" xlink:actuate="onRequest" xlink:href="ImportPartitionMapper.html" xlink:show="new" xlink:title="ImportPartitionMapper.html" xlink:type="simple"><rect fill="#FEFECE" filter="url(#f1cn4kjhlchloe)" height="37.9375" id="com.ibm.fhir.jbatch.bulkdata.load.ImportPartitionMapper" style="stroke: #A80036; stroke-width: 1.5;" width="192" x="57" y="8"/><ellipse cx="72" cy="26.9688" fill="#ADD1B2" rx="11" ry="11" style="stroke: #A80036; stroke-width: 1.0;"/><path d="M74.9688,32.6094 Q74.3906,32.9063 73.75,33.0469 Q73.1094,33.2031 72.4063,33.2031 Q69.9063,33.2031 68.5781,31.5625 Q67.2656,29.9063 67.2656,26.7813 Q67.2656,23.6563 68.5781,22 Q69.9063,20.3438 72.4063,20.3438 Q73.1094,20.3438 73.75,20.5 Q74.4063,20.6563 74.9688,20.9531 L74.9688,23.6719 Q74.3438,23.0938 73.75,22.8281 Q73.1563,22.5469 72.5313,22.5469 Q71.1875,22.5469 70.5,23.625 Q69.8125,24.6875 69.8125,26.7813 Q69.8125,28.875 70.5,29.9531 Q71.1875,31.0156 72.5313,31.0156 Q73.1563,31.0156 73.75,30.75 Q74.3438,30.4688 74.9688,29.8906 L74.9688,32.6094 Z "/><text fill="#000000" font-family="sans-serif" font-size="14" lengthAdjust="spacingAndGlyphs" textLength="152" x="90" y="25.9951">ImportPartitionMapper</text><text fill="#000000" font-family="sans-serif" font-size="10" lengthAdjust="spacingAndGlyphs" textLength="160" x="86" y="38.5791">com.ibm.fhir.jbatch.bulkdata.load</text></a><!--MD5=[d4a11beb1ebb51f9e2f9f912ae631fb4]
reverse link com.ibm.fhir.jbatch.bulkdata.load.ImportPartitionMapper to com.ibm.fhir.jbatch.bulkdata.load.ImportPartitionMapper.FhirDataSource--><path d="M153,61.3551 C153,74.9168 153,90.84 153,105.9291 " fill="none" id="com.ibm.fhir.jbatch.bulkdata.load.ImportPartitionMapper&lt;-com.ibm.fhir.jbatch.bulkdata.load.ImportPartitionMapper.FhirDataSource" style="stroke: #A80036; stroke-width: 1.0;"/><ellipse cx="153.0001" cy="54.1989" fill="#FFFFFF" rx="8" ry="8" style="stroke: #A80036; stroke-width: 1.0;"/><line style="stroke: #A80036; stroke-width: 1.0;" x1="153.0002" x2="153" y1="62.1989" y2="46.1989"/><line style="stroke: #A80036; stroke-width: 1.0;" x1="145.0001" x2="161.0001" y1="54.199" y2="54.1988"/><text fill="#888888" font-family="sans-serif" font-size="10" lengthAdjust="spacingAndGlyphs" textLength="186" x="66" y="235.2822">UMLDoclet 2.0.7, PlantUML 1.2019.12</text><!--MD5=[9cf56bdb05c85273500ca798759f5f48]
@startuml
    set namespaceSeparator none
    hide empty fields
    hide empty methods

    class "<size:14>ImportPartitionMapper.FhirDataSource\n<size:10>com.ibm.fhir.jbatch.bulkdata.load" as com.ibm.fhir.jbatch.bulkdata.load.ImportPartitionMapper.FhirDataSource [[ImportPartitionMapper.FhirDataSource.html]] {
        +FhirDataSource(String, String)
        +getType(): String
        +setType(String): void
        +getUrl(): String
        +setUrl(String): void
    }

    class "<size:14>ImportPartitionMapper\n<size:10>com.ibm.fhir.jbatch.bulkdata.load" as com.ibm.fhir.jbatch.bulkdata.load.ImportPartitionMapper [[ImportPartitionMapper.html]]

    com.ibm.fhir.jbatch.bulkdata.load.ImportPartitionMapper +- - com.ibm.fhir.jbatch.bulkdata.load.ImportPartitionMapper.FhirDataSource

    center footer UMLDoclet 2.0.7, PlantUML 1.2019.12
@enduml

PlantUML version 1.2019.12(Sun Nov 03 10:24:54 UTC 2019)
(APACHE source distribution)
Java Runtime: OpenJDK Runtime Environment
JVM: OpenJDK 64-Bit Server VM
Java Version: 11.0.8+10
Operating System: Linux
Default Encoding: UTF-8
Language: en
Country: null
--></g></svg>