<?xml version="1.0" encoding="UTF-8" standalone="no"?><svg xmlns="http://www.w3.org/2000/svg" xmlns:xlink="http://www.w3.org/1999/xlink" contentScriptType="application/ecmascript" contentStyleType="text/css" height="391px" preserveAspectRatio="none" style="width:745px;height:391px;" version="1.1" viewBox="0 0 745 391" width="745px" zoomAndPan="magnify"><defs><filter height="300%" id="fan3qobjg9rre" width="300%" x="-1" y="-1"><feGaussianBlur result="blurOut" stdDeviation="2.0"/><feColorMatrix in="blurOut" result="blurOut2" type="matrix" values="0 0 0 0 0 0 0 0 0 0 0 0 0 0 0 0 0 0 .4 0"/><feOffset dx="4.0" dy="4.0" in="blurOut2" result="blurOut3"/><feBlend in="SourceGraphic" in2="blurOut3" mode="normal"/></filter></defs><g><!--MD5=[3c43c69ff576de48cb85fb8c1b86c52f]
cluster com.ibm.fhir.task.core.impl--><polygon fill="#FFFFFF" filter="url(#fan3qobjg9rre)" points="14,163,213,163,220,185.4883,723,185.4883,723,350,14,350,14,163" style="stroke: #000000; stroke-width: 1.5;"/><line style="stroke: #000000; stroke-width: 1.5;" x1="14" x2="220" y1="185.4883" y2="185.4883"/><text fill="#000000" font-family="sans-serif" font-size="14" font-weight="bold" lengthAdjust="spacingAndGlyphs" textLength="193" x="18" y="178.5352">com.ibm.fhir.task.core.impl</text><!--MD5=[2a101627c71d02da225ea35f1e44cfcf]
cluster com.ibm.fhir.task.api--><polygon fill="#FFFFFF" filter="url(#fan3qobjg9rre)" points="30,16,185,16,192,38.4883,717,38.4883,717,138,30,138,30,16" style="stroke: #000000; stroke-width: 1.5;"/><line style="stroke: #000000; stroke-width: 1.5;" x1="30" x2="192" y1="38.4883" y2="38.4883"/><text fill="#000000" font-family="sans-serif" font-size="14" font-weight="bold" lengthAdjust="spacingAndGlyphs" textLength="149" x="34" y="31.5352">com.ibm.fhir.task.api</text><!--MD5=[cec6307e0da175739e529ccb7267fa34]
class com.ibm.fhir.task.core.impl.TaskManager--><a href="TaskManager.html" target="_top" title="TaskManager.html" xlink:actuate="onRequest" xlink:href="TaskManager.html" xlink:show="new" xlink:title="TaskManager.html" xlink:type="simple"><rect fill="#FEFECE" filter="url(#fan3qobjg9rre)" height="138.6855" id="com.ibm.fhir.task.core.impl.TaskManager" style="stroke: #A80036; stroke-width: 1.5;" width="382" x="333" y="196.5"/><ellipse cx="480.75" cy="212.5" fill="#ADD1B2" rx="11" ry="11" style="stroke: #A80036; stroke-width: 1.0;"/><path d="M483.2231,218.6431 Q482.6421,218.9419 482.0029,219.0913 Q481.3638,219.2407 480.6582,219.2407 Q478.1514,219.2407 476.8315,217.5889 Q475.5117,215.937 475.5117,212.8159 Q475.5117,209.6865 476.8315,208.0347 Q478.1514,206.3828 480.6582,206.3828 Q481.3638,206.3828 482.0112,206.5322 Q482.6587,206.6816 483.2231,206.9805 L483.2231,209.7031 Q482.5923,209.1221 481.9988,208.8523 Q481.4053,208.5825 480.7744,208.5825 Q479.4297,208.5825 478.7449,209.6492 Q478.0601,210.7158 478.0601,212.8159 Q478.0601,214.9077 478.7449,215.9744 Q479.4297,217.041 480.7744,217.041 Q481.4053,217.041 481.9988,216.7712 Q482.5923,216.5015 483.2231,215.9204 Z "/><text fill="#000000" font-family="sans-serif" font-size="12" lengthAdjust="spacingAndGlyphs" textLength="78" x="501.25" y="217.0352">TaskManager</text><line style="stroke: #A80036; stroke-width: 1.5;" x1="334" x2="714" y1="228.5" y2="228.5"/><line style="stroke: #A80036; stroke-width: 1.5;" x1="334" x2="714" y1="236.5" y2="236.5"/><ellipse cx="344" cy="247.5" fill="#84BE84" rx="3" ry="3" style="stroke: #038048; stroke-width: 1.0;"/><text fill="#000000" font-family="sans-serif" font-size="11" lengthAdjust="spacingAndGlyphs" textLength="165" x="353" y="251.1348">TaskManager(ExecutorService)</text><ellipse cx="344" cy="260.4551" fill="#84BE84" rx="3" ry="3" style="stroke: #038048; stroke-width: 1.0;"/><text fill="#000000" font-family="sans-serif" font-size="11" lengthAdjust="spacingAndGlyphs" textLength="133" x="353" y="264.0898">submit(TaskGroup): void</text><ellipse cx="344" cy="273.4102" fill="#84BE84" rx="3" ry="3" style="stroke: #038048; stroke-width: 1.0;"/><text fill="#000000" font-family="sans-serif" font-size="11" lengthAdjust="spacingAndGlyphs" textLength="261" x="353" y="277.0449">getFailedTaskGroups(): Collection&lt;ITaskGroup&gt;</text><ellipse cx="344" cy="286.3652" fill="#84BE84" rx="3" ry="3" style="stroke: #038048; stroke-width: 1.0;"/><text fill="#000000" font-family="sans-serif" font-size="11" lengthAdjust="spacingAndGlyphs" textLength="356" x="353" y="290">makeTaskGroup(String, Runnable, List&lt;ITaskGroup&gt;): ITaskGroup</text><ellipse cx="344" cy="299.3203" fill="#84BE84" rx="3" ry="3" style="stroke: #038048; stroke-width: 1.0;"/><text fill="#000000" font-family="sans-serif" font-size="11" lengthAdjust="spacingAndGlyphs" textLength="106" x="353" y="302.9551">startAndWait(): void</text><ellipse cx="344" cy="312.2754" fill="#84BE84" rx="3" ry="3" style="stroke: #038048; stroke-width: 1.0;"/><text fill="#000000" font-family="sans-serif" font-size="11" lengthAdjust="spacingAndGlyphs" textLength="169" x="353" y="315.9102">taskComplete(TaskGroup): void</text><ellipse cx="344" cy="325.2305" fill="#84BE84" rx="3" ry="3" style="stroke: #038048; stroke-width: 1.0;"/><text fill="#000000" font-family="sans-serif" font-size="11" lengthAdjust="spacingAndGlyphs" textLength="149" x="353" y="328.8652">taskFailed(TaskGroup): void</text></a><!--MD5=[90186e599f80d79e5bbf1ea61dbcb9a4]
class com.ibm.fhir.task.core.impl.TaskGroup--><a href="TaskGroup.html" target="_top" title="TaskGroup.html" xlink:actuate="onRequest" xlink:href="TaskGroup.html" xlink:show="new" xlink:title="TaskGroup.html" xlink:type="simple"><rect fill="#FEFECE" filter="url(#fan3qobjg9rre)" height="151.6406" id="com.ibm.fhir.task.core.impl.TaskGroup" style="stroke: #A80036; stroke-width: 1.5;" width="275" x="22.5" y="190"/><ellipse cx="123.75" cy="206" fill="#ADD1B2" rx="11" ry="11" style="stroke: #A80036; stroke-width: 1.0;"/><path d="M126.2231,212.1431 Q125.6421,212.4419 125.0029,212.5913 Q124.3638,212.7407 123.6582,212.7407 Q121.1514,212.7407 119.8315,211.0889 Q118.5117,209.437 118.5117,206.3159 Q118.5117,203.1865 119.8315,201.5347 Q121.1514,199.8828 123.6582,199.8828 Q124.3638,199.8828 125.0112,200.0322 Q125.6587,200.1816 126.2231,200.4805 L126.2231,203.2031 Q125.5923,202.6221 124.9988,202.3523 Q124.4053,202.0825 123.7744,202.0825 Q122.4297,202.0825 121.7449,203.1492 Q121.0601,204.2158 121.0601,206.3159 Q121.0601,208.4077 121.7449,209.4744 Q122.4297,210.541 123.7744,210.541 Q124.4053,210.541 124.9988,210.2712 Q125.5923,210.0015 126.2231,209.4204 Z "/><text fill="#000000" font-family="sans-serif" font-size="12" lengthAdjust="spacingAndGlyphs" textLength="64" x="144.25" y="210.5352">TaskGroup</text><line style="stroke: #A80036; stroke-width: 1.5;" x1="23.5" x2="296.5" y1="222" y2="222"/><line style="stroke: #A80036; stroke-width: 1.5;" x1="23.5" x2="296.5" y1="230" y2="230"/><ellipse cx="33.5" cy="241" fill="#84BE84" rx="3" ry="3" style="stroke: #038048; stroke-width: 1.0;"/><text fill="#000000" font-family="sans-serif" font-size="11" lengthAdjust="spacingAndGlyphs" textLength="232" x="42.5" y="244.6348">TaskGroup(String, TaskManager, Runnable)</text><ellipse cx="33.5" cy="253.9551" fill="#84BE84" rx="3" ry="3" style="stroke: #038048; stroke-width: 1.0;"/><text fill="#000000" font-family="sans-serif" font-size="11" lengthAdjust="spacingAndGlyphs" textLength="98" x="42.5" y="257.5898">getTaskId(): String</text><ellipse cx="33.5" cy="266.9102" fill="#84BE84" rx="3" ry="3" style="stroke: #038048; stroke-width: 1.0;"/><text fill="#000000" font-family="sans-serif" font-size="11" lengthAdjust="spacingAndGlyphs" textLength="205" x="42.5" y="270.5449">addDependsOnThis(ITaskGroup): void</text><ellipse cx="33.5" cy="279.8652" fill="#84BE84" rx="3" ry="3" style="stroke: #038048; stroke-width: 1.0;"/><text fill="#000000" font-family="sans-serif" font-size="11" lengthAdjust="spacingAndGlyphs" textLength="228" x="42.5" y="283.5">taskCompletionCallback(ITaskGroup): void</text><ellipse cx="33.5" cy="292.8203" fill="#84BE84" rx="3" ry="3" style="stroke: #038048; stroke-width: 1.0;"/><text fill="#000000" font-family="sans-serif" font-size="11" lengthAdjust="spacingAndGlyphs" textLength="249" x="42.5" y="296.4551">addChildTaskGroups(List&lt;ITaskGroup&gt;): void</text><ellipse cx="33.5" cy="305.7754" fill="#84BE84" rx="3" ry="3" style="stroke: #038048; stroke-width: 1.0;"/><text fill="#000000" font-family="sans-serif" font-size="11" lengthAdjust="spacingAndGlyphs" textLength="167" x="42.5" y="309.4102">runTask(ExecutorService): void</text><ellipse cx="33.5" cy="318.7305" fill="#84BE84" rx="3" ry="3" style="stroke: #038048; stroke-width: 1.0;"/><text fill="#000000" font-family="sans-serif" font-size="11" lengthAdjust="spacingAndGlyphs" textLength="81" x="42.5" y="322.3652">runTask(): void</text><ellipse cx="33.5" cy="331.6855" fill="#84BE84" rx="3" ry="3" style="stroke: #038048; stroke-width: 1.0;"/><text fill="#000000" font-family="sans-serif" font-size="11" lengthAdjust="spacingAndGlyphs" textLength="153" x="42.5" y="335.3203">addParent(ITaskGroup): void</text></a><!--MD5=[2bf343ac0d264586bc1c50e716c73982]
class com.ibm.fhir.task.api.ITaskCollector--><a href="../../api/ITaskCollector.html" target="_top" title="../../api/ITaskCollector.html" xlink:actuate="onRequest" xlink:href="../../api/ITaskCollector.html" xlink:show="new" xlink:title="../../api/ITaskCollector.html" xlink:type="simple"><rect fill="#FEFECE" filter="url(#fan3qobjg9rre)" height="86.8652" id="com.ibm.fhir.task.api.ITaskCollector" style="stroke: #A80036; stroke-width: 1.5;" width="382" x="327" y="43"/><ellipse cx="473.25" cy="59" fill="#B4A7E5" rx="11" ry="11" style="stroke: #A80036; stroke-width: 1.0;"/><path d="M469.6777,55.2651 L469.6777,53.1069 L477.0571,53.1069 L477.0571,55.2651 L474.5918,55.2651 L474.5918,63.3418 L477.0571,63.3418 L477.0571,65.5 L469.6777,65.5 L469.6777,63.3418 L472.1431,63.3418 L472.1431,55.2651 Z "/><text fill="#000000" font-family="sans-serif" font-size="12" font-style="italic" lengthAdjust="spacingAndGlyphs" textLength="81" x="493.75" y="63.5352">ITaskCollector</text><line style="stroke: #A80036; stroke-width: 1.5;" x1="328" x2="708" y1="75" y2="75"/><line style="stroke: #A80036; stroke-width: 1.5;" x1="328" x2="708" y1="83" y2="83"/><ellipse cx="338" cy="94" fill="#84BE84" rx="3" ry="3" style="stroke: #038048; stroke-width: 1.0;"/><text fill="#000000" font-family="sans-serif" font-size="11" font-style="italic" lengthAdjust="spacingAndGlyphs" textLength="356" x="347" y="97.6348">makeTaskGroup(String, Runnable, List&lt;ITaskGroup&gt;): ITaskGroup</text><ellipse cx="338" cy="106.9551" fill="#84BE84" rx="3" ry="3" style="stroke: #038048; stroke-width: 1.0;"/><text fill="#000000" font-family="sans-serif" font-size="11" font-style="italic" lengthAdjust="spacingAndGlyphs" textLength="106" x="347" y="110.5898">startAndWait(): void</text><ellipse cx="338" cy="119.9102" fill="#84BE84" rx="3" ry="3" style="stroke: #038048; stroke-width: 1.0;"/><text fill="#000000" font-family="sans-serif" font-size="11" font-style="italic" lengthAdjust="spacingAndGlyphs" textLength="261" x="347" y="123.5449">getFailedTaskGroups(): Collection&lt;ITaskGroup&gt;</text></a><!--MD5=[b68503855168366ca72145ec14fdbe7f]
class com.ibm.fhir.task.api.ITaskGroup--><a href="../../api/ITaskGroup.html" target="_top" title="../../api/ITaskGroup.html" xlink:actuate="onRequest" xlink:href="../../api/ITaskGroup.html" xlink:show="new" xlink:title="../../api/ITaskGroup.html" xlink:type="simple"><rect fill="#FEFECE" filter="url(#fan3qobjg9rre)" height="86.8652" id="com.ibm.fhir.task.api.ITaskGroup" style="stroke: #A80036; stroke-width: 1.5;" width="254" x="38" y="43"/><ellipse cx="127.25" cy="59" fill="#B4A7E5" rx="11" ry="11" style="stroke: #A80036; stroke-width: 1.0;"/><path d="M123.6777,55.2651 L123.6777,53.1069 L131.0571,53.1069 L131.0571,55.2651 L128.5918,55.2651 L128.5918,63.3418 L131.0571,63.3418 L131.0571,65.5 L123.6777,65.5 L123.6777,63.3418 L126.1431,63.3418 L126.1431,55.2651 Z "/><text fill="#000000" font-family="sans-serif" font-size="12" font-style="italic" lengthAdjust="spacingAndGlyphs" textLength="67" x="147.75" y="63.5352">ITaskGroup</text><line style="stroke: #A80036; stroke-width: 1.5;" x1="39" x2="291" y1="75" y2="75"/><line style="stroke: #A80036; stroke-width: 1.5;" x1="39" x2="291" y1="83" y2="83"/><ellipse cx="49" cy="94" fill="#84BE84" rx="3" ry="3" style="stroke: #038048; stroke-width: 1.0;"/><text fill="#000000" font-family="sans-serif" font-size="11" font-style="italic" lengthAdjust="spacingAndGlyphs" textLength="98" x="58" y="97.6348">getTaskId(): String</text><ellipse cx="49" cy="106.9551" fill="#84BE84" rx="3" ry="3" style="stroke: #038048; stroke-width: 1.0;"/><text fill="#000000" font-family="sans-serif" font-size="11" font-style="italic" lengthAdjust="spacingAndGlyphs" textLength="153" x="58" y="110.5898">addParent(ITaskGroup): void</text><ellipse cx="49" cy="119.9102" fill="#84BE84" rx="3" ry="3" style="stroke: #038048; stroke-width: 1.0;"/><text fill="#000000" font-family="sans-serif" font-size="11" font-style="italic" lengthAdjust="spacingAndGlyphs" textLength="228" x="58" y="123.5449">taskCompletionCallback(ITaskGroup): void</text></a><!--MD5=[581a374cb042a0dc0d436338a81ea2e0]
reverse link com.ibm.fhir.task.api.ITaskCollector to com.ibm.fhir.task.core.impl.TaskManager--><path d="M520.1401,150.525 C520.6363,165.3704 521.1668,181.2415 521.6707,196.3166 " fill="none" id="com.ibm.fhir.task.api.ITaskCollector&lt;-com.ibm.fhir.task.core.impl.TaskManager" style="stroke: #A80036; stroke-width: 1.0; stroke-dasharray: 7.0,7.0;"/><polygon fill="none" points="513.1399,150.6334,519.4678,130.4106,527.1321,150.1656,513.1399,150.6334" style="stroke: #A80036; stroke-width: 1.0;"/><!--MD5=[d824f274b02cca61f5714310156dc8b4]
reverse link com.ibm.fhir.task.api.ITaskGroup to com.ibm.fhir.task.core.impl.TaskGroup--><path d="M163.2105,150.7421 C162.8593,163.3509 162.4877,176.6923 162.1267,189.6522 " fill="none" id="com.ibm.fhir.task.api.ITaskGroup&lt;-com.ibm.fhir.task.core.impl.TaskGroup" style="stroke: #A80036; stroke-width: 1.0; stroke-dasharray: 7.0,7.0;"/><polygon fill="none" points="156.2226,150.2079,163.7769,130.4106,170.2172,150.5978,156.2226,150.2079" style="stroke: #A80036; stroke-width: 1.0;"/><text fill="#888888" font-family="sans-serif" font-size="10" lengthAdjust="spacingAndGlyphs" textLength="182" x="283.5" y="377.668">UMLDoclet 2.0.7, PlantUML 1.2019.12</text><!--MD5=[19fcd793e2c53bf8479f49298f828ac4]
@startuml
    namespace com.ibm.fhir.task.core.impl {

        class TaskManager [[TaskManager.html]] {
            +TaskManager(ExecutorService)
            +submit(TaskGroup): void
            +getFailedTaskGroups(): Collection<ITaskGroup>
            +makeTaskGroup(String, Runnable, List<ITaskGroup>): ITaskGroup
            +startAndWait(): void
            +taskComplete(TaskGroup): void
            +taskFailed(TaskGroup): void
        }

        class TaskGroup [[TaskGroup.html]] {
            +TaskGroup(String, TaskManager, Runnable)
            +getTaskId(): String
            +addDependsOnThis(ITaskGroup): void
            +taskCompletionCallback(ITaskGroup): void
            +addChildTaskGroups(List<ITaskGroup>): void
            +runTask(ExecutorService): void
            +runTask(): void
            +addParent(ITaskGroup): void
        }

        com.ibm.fhir.task.api.ITaskCollector <|.. TaskManager
        com.ibm.fhir.task.api.ITaskGroup <|.. TaskGroup
    }

    namespace com.ibm.fhir.task.api {
        interface ITaskCollector [[../../api/ITaskCollector.html]] {
            {abstract} +makeTaskGroup(String, Runnable, List<ITaskGroup>): ITaskGroup
            {abstract} +startAndWait(): void
            {abstract} +getFailedTaskGroups(): Collection<ITaskGroup>
        }
        interface ITaskGroup [[../../api/ITaskGroup.html]] {
            {abstract} +getTaskId(): String
            {abstract} +addParent(ITaskGroup): void
            {abstract} +taskCompletionCallback(ITaskGroup): void
        }
    }

    center footer UMLDoclet 2.0.7, PlantUML 1.2019.12
@enduml

PlantUML version 1.2019.12(Sun Nov 03 05:24:54 EST 2019)
(APACHE source distribution)
Java Runtime: OpenJDK Runtime Environment
JVM: OpenJDK 64-Bit Server VM
Java Version: 11.0.4+11
Operating System: Mac OS X
Default Encoding: UTF-8
Language: en
Country: US
--></g></svg>