<?xml version="1.0" encoding="UTF-8" standalone="no"?><svg xmlns="http://www.w3.org/2000/svg" xmlns:xlink="http://www.w3.org/1999/xlink" contentScriptType="application/ecmascript" contentStyleType="text/css" height="528px" preserveAspectRatio="none" style="width:425px;height:528px;" version="1.1" viewBox="0 0 425 528" width="425px" zoomAndPan="magnify"><defs><filter height="300%" id="f1ebglk7v7d754" width="300%" x="-1" y="-1"><feGaussianBlur result="blurOut" stdDeviation="2.0"/><feColorMatrix in="blurOut" result="blurOut2" type="matrix" values="0 0 0 0 0 0 0 0 0 0 0 0 0 0 0 0 0 0 .4 0"/><feOffset dx="4.0" dy="4.0" in="blurOut2" result="blurOut3"/><feBlend in="SourceGraphic" in2="blurOut3" mode="normal"/></filter></defs><g><!--MD5=[1e5d2456b33f43c85ea7af292f9afe06]
class com.ibm.fhir.path.FHIRPathDateTimeValue--><a href="FHIRPathDateTimeValue.html" target="_top" title="FHIRPathDateTimeValue.html" xlink:actuate="onRequest" xlink:href="FHIRPathDateTimeValue.html" xlink:show="new" xlink:title="FHIRPathDateTimeValue.html" xlink:type="simple"><rect fill="#FEFECE" filter="url(#f1ebglk7v7d754)" height="220.3984" id="com.ibm.fhir.path.FHIRPathDateTimeValue" style="stroke: #A80036; stroke-width: 1.5;" width="408" x="6" y="178"/><ellipse cx="122.25" cy="196.9688" fill="#ADD1B2" rx="11" ry="11" style="stroke: #A80036; stroke-width: 1.0;"/><path d="M125.2188,202.6094 Q124.6406,202.9063 124,203.0469 Q123.3594,203.2031 122.6563,203.2031 Q120.1563,203.2031 118.8281,201.5625 Q117.5156,199.9063 117.5156,196.7813 Q117.5156,193.6563 118.8281,192 Q120.1563,190.3438 122.6563,190.3438 Q123.3594,190.3438 124,190.5 Q124.6563,190.6563 125.2188,190.9531 L125.2188,193.6719 Q124.5938,193.0938 124,192.8281 Q123.4063,192.5469 122.7813,192.5469 Q121.4375,192.5469 120.75,193.625 Q120.0625,194.6875 120.0625,196.7813 Q120.0625,198.875 120.75,199.9531 Q121.4375,201.0156 122.7813,201.0156 Q123.4063,201.0156 124,200.75 Q124.5938,200.4688 125.2188,199.8906 L125.2188,202.6094 Z "/><text fill="#000000" font-family="sans-serif" font-size="14" lengthAdjust="spacingAndGlyphs" textLength="167" x="142.75" y="195.9951">FHIRPathDateTimeValue</text><text fill="#000000" font-family="sans-serif" font-size="10" lengthAdjust="spacingAndGlyphs" textLength="86" x="183.25" y="208.5791">com.ibm.fhir.path</text><line style="stroke: #A80036; stroke-width: 1.5;" x1="7" x2="413" y1="215.9375" y2="215.9375"/><ellipse cx="17" cy="226.9375" fill="none" rx="3" ry="3" style="stroke: #038048; stroke-width: 1.0;"/><text fill="#000000" font-family="sans-serif" font-size="11" lengthAdjust="spacingAndGlyphs" text-decoration="underline" textLength="233" x="26" y="230.1479">PARSER_FORMATTER: DateTimeFormatter</text><line style="stroke: #A80036; stroke-width: 1.5;" x1="7" x2="413" y1="236.7422" y2="236.7422"/><polygon fill="#FFFF44" points="17,242.7422,21,246.7422,17,250.7422,13,246.7422" style="stroke: #B38D22; stroke-width: 1.0;"/><text fill="#000000" font-family="sans-serif" font-size="11" lengthAdjust="spacingAndGlyphs" textLength="182" x="26" y="250.9526">FHIRPathDateTimeValue(Builder)</text><ellipse cx="17" cy="260.5469" fill="#84BE84" rx="3" ry="3" style="stroke: #038048; stroke-width: 1.0;"/><text fill="#000000" font-family="sans-serif" font-size="11" lengthAdjust="spacingAndGlyphs" textLength="156" x="26" y="263.7573">isDateTimeValue(): boolean</text><ellipse cx="17" cy="273.3516" fill="#84BE84" rx="3" ry="3" style="stroke: #038048; stroke-width: 1.0;"/><text fill="#000000" font-family="sans-serif" font-size="11" lengthAdjust="spacingAndGlyphs" textLength="107" x="26" y="276.562">isPartial(): boolean</text><ellipse cx="17" cy="286.1563" fill="#84BE84" rx="3" ry="3" style="stroke: #038048; stroke-width: 1.0;"/><text fill="#000000" font-family="sans-serif" font-size="11" lengthAdjust="spacingAndGlyphs" textLength="175" x="26" y="289.3667">dateTime(): TemporalAccessor</text><ellipse cx="17" cy="298.9609" fill="#84BE84" rx="3" ry="3" style="stroke: #038048; stroke-width: 1.0;"/><text fill="#000000" font-family="sans-serif" font-size="11" lengthAdjust="spacingAndGlyphs" text-decoration="underline" textLength="268" x="26" y="302.1714">dateTimeValue(String): FHIRPathDateTimeValue</text><ellipse cx="17" cy="311.7656" fill="#84BE84" rx="3" ry="3" style="stroke: #038048; stroke-width: 1.0;"/><text fill="#000000" font-family="sans-serif" font-size="11" lengthAdjust="spacingAndGlyphs" text-decoration="underline" textLength="340" x="26" y="314.9761">dateTimeValue(TemporalAccessor): FHIRPathDateTimeValue</text><ellipse cx="17" cy="324.5703" fill="#84BE84" rx="3" ry="3" style="stroke: #038048; stroke-width: 1.0;"/><text fill="#000000" font-family="sans-serif" font-size="11" lengthAdjust="spacingAndGlyphs" text-decoration="underline" textLength="382" x="26" y="327.7808">dateTimeValue(String, TemporalAccessor): FHIRPathDateTimeValue</text><ellipse cx="17" cy="337.375" fill="#84BE84" rx="3" ry="3" style="stroke: #038048; stroke-width: 1.0;"/><text fill="#000000" font-family="sans-serif" font-size="11" lengthAdjust="spacingAndGlyphs" textLength="107" x="26" y="340.5854">toBuilder(): Builder</text><ellipse cx="17" cy="350.1797" fill="#84BE84" rx="3" ry="3" style="stroke: #038048; stroke-width: 1.0;"/><text fill="#000000" font-family="sans-serif" font-size="11" lengthAdjust="spacingAndGlyphs" text-decoration="underline" textLength="276" x="26" y="353.3901">builder(TemporalAccessor, ChronoField): Builder</text><ellipse cx="17" cy="362.9844" fill="#84BE84" rx="3" ry="3" style="stroke: #038048; stroke-width: 1.0;"/><text fill="#000000" font-family="sans-serif" font-size="11" lengthAdjust="spacingAndGlyphs" textLength="298" x="26" y="366.1948">add(FHIRPathQuantityValue): FHIRPathDateTimeValue</text><ellipse cx="17" cy="375.7891" fill="#84BE84" rx="3" ry="3" style="stroke: #038048; stroke-width: 1.0;"/><text fill="#000000" font-family="sans-serif" font-size="11" lengthAdjust="spacingAndGlyphs" textLength="324" x="26" y="378.9995">subtract(FHIRPathQuantityValue): FHIRPathDateTimeValue</text><ellipse cx="17" cy="388.5938" fill="#84BE84" rx="3" ry="3" style="stroke: #038048; stroke-width: 1.0;"/><text fill="#000000" font-family="sans-serif" font-size="11" lengthAdjust="spacingAndGlyphs" textLength="190" x="26" y="391.8042">accept(FHIRPathNodeVisitor): void</text></a><!--MD5=[9ceab596cdfa52df028b773d5cac8df1]
class com.ibm.fhir.path.FHIRPathAbstractTemporalValue--><a href="FHIRPathAbstractTemporalValue.html" target="_top" title="FHIRPathAbstractTemporalValue.html" xlink:actuate="onRequest" xlink:href="FHIRPathAbstractTemporalValue.html" xlink:show="new" xlink:title="FHIRPathAbstractTemporalValue.html" xlink:type="simple"><rect fill="#FEFECE" filter="url(#f1ebglk7v7d754)" height="109.9609" id="com.ibm.fhir.path.FHIRPathAbstractTemporalValue" style="stroke: #A80036; stroke-width: 1.5;" width="354" x="33" y="8"/><ellipse cx="93.75" cy="26.9688" fill="#A9DCDF" rx="11" ry="11" style="stroke: #A80036; stroke-width: 1.0;"/><path d="M93.8594,22.3125 L92.7031,27.3906 L95.0313,27.3906 L93.8594,22.3125 Z M92.375,20.0781 L95.3594,20.0781 L98.7188,32.4688 L96.2656,32.4688 L95.5,29.4063 L92.2188,29.4063 L91.4688,32.4688 L89.0313,32.4688 L92.375,20.0781 Z "/><text fill="#000000" font-family="sans-serif" font-size="14" font-style="italic" lengthAdjust="spacingAndGlyphs" textLength="224" x="114.25" y="25.9951">FHIRPathAbstractTemporalValue</text><text fill="#000000" font-family="sans-serif" font-size="10" font-style="italic" lengthAdjust="spacingAndGlyphs" textLength="89" x="181.75" y="38.5791">com.ibm.fhir.path</text><line style="stroke: #A80036; stroke-width: 1.5;" x1="34" x2="386" y1="45.9375" y2="45.9375"/><ellipse cx="44" cy="56.9375" fill="#84BE84" rx="3" ry="3" style="stroke: #038048; stroke-width: 1.0;"/><text fill="#000000" font-family="sans-serif" font-size="11" font-style="italic" lengthAdjust="spacingAndGlyphs" textLength="106" x="53" y="60.1479">isPartial(): boolean</text><ellipse cx="44" cy="69.7422" fill="#84BE84" rx="3" ry="3" style="stroke: #038048; stroke-width: 1.0;"/><text fill="#000000" font-family="sans-serif" font-size="11" font-style="italic" lengthAdjust="spacingAndGlyphs" textLength="303" x="53" y="72.9526">add(FHIRPathQuantityValue): FHIRPathTemporalValue</text><ellipse cx="44" cy="82.5469" fill="#84BE84" rx="3" ry="3" style="stroke: #038048; stroke-width: 1.0;"/><text fill="#000000" font-family="sans-serif" font-size="11" font-style="italic" lengthAdjust="spacingAndGlyphs" textLength="328" x="53" y="85.7573">subtract(FHIRPathQuantityValue): FHIRPathTemporalValue</text><ellipse cx="44" cy="95.3516" fill="#84BE84" rx="3" ry="3" style="stroke: #038048; stroke-width: 1.0;"/><text fill="#000000" font-family="sans-serif" font-size="11" font-style="italic" lengthAdjust="spacingAndGlyphs" textLength="107" x="53" y="98.562">toBuilder(): Builder</text><ellipse cx="44" cy="108.1563" fill="#84BE84" rx="3" ry="3" style="stroke: #038048; stroke-width: 1.0;"/><text fill="#000000" font-family="sans-serif" font-size="11" font-style="italic" lengthAdjust="spacingAndGlyphs" textLength="192" x="53" y="111.3667">accept(FHIRPathNodeVisitor): void</text></a><!--MD5=[cb28a1305898765672fde8cdad0a8405]
class com.ibm.fhir.path.FHIRPathDateTimeValue.Builder--><a href="FHIRPathDateTimeValue.Builder.html" target="_top" title="FHIRPathDateTimeValue.Builder.html" xlink:actuate="onRequest" xlink:href="FHIRPathDateTimeValue.Builder.html" xlink:show="new" xlink:title="FHIRPathDateTimeValue.Builder.html" xlink:type="simple"><rect fill="#FEFECE" filter="url(#f1ebglk7v7d754)" height="37.9375" id="com.ibm.fhir.path.FHIRPathDateTimeValue.Builder" style="stroke: #A80036; stroke-width: 1.5;" width="251" x="84.5" y="458"/><ellipse cx="99.5" cy="476.9688" fill="#ADD1B2" rx="11" ry="11" style="stroke: #A80036; stroke-width: 1.0;"/><path d="M102.4688,482.6094 Q101.8906,482.9063 101.25,483.0469 Q100.6094,483.2031 99.9063,483.2031 Q97.4063,483.2031 96.0781,481.5625 Q94.7656,479.9063 94.7656,476.7813 Q94.7656,473.6563 96.0781,472 Q97.4063,470.3438 99.9063,470.3438 Q100.6094,470.3438 101.25,470.5 Q101.9063,470.6563 102.4688,470.9531 L102.4688,473.6719 Q101.8438,473.0938 101.25,472.8281 Q100.6563,472.5469 100.0313,472.5469 Q98.6875,472.5469 98,473.625 Q97.3125,474.6875 97.3125,476.7813 Q97.3125,478.875 98,479.9531 Q98.6875,481.0156 100.0313,481.0156 Q100.6563,481.0156 101.25,480.75 Q101.8438,480.4688 102.4688,479.8906 L102.4688,482.6094 Z "/><text fill="#000000" font-family="sans-serif" font-size="14" lengthAdjust="spacingAndGlyphs" textLength="219" x="113.5" y="475.9951">FHIRPathDateTimeValue.Builder</text><text fill="#000000" font-family="sans-serif" font-size="10" lengthAdjust="spacingAndGlyphs" textLength="86" x="180" y="488.5791">com.ibm.fhir.path</text></a><!--MD5=[333b8c85d53529453478d992bd73a35b]
reverse link com.ibm.fhir.path.FHIRPathAbstractTemporalValue to com.ibm.fhir.path.FHIRPathDateTimeValue--><path d="M210,138.66 C210,151.25 210,164.55 210,177.8 " fill="none" id="com.ibm.fhir.path.FHIRPathAbstractTemporalValue&lt;-com.ibm.fhir.path.FHIRPathDateTimeValue" style="stroke: #A80036; stroke-width: 1.0;"/><polygon fill="none" points="203,138.27,210,118.27,217,138.27,203,138.27" style="stroke: #A80036; stroke-width: 1.0;"/><!--MD5=[c1bcc898f02dd9037356229e37b56bf2]
reverse link com.ibm.fhir.path.FHIRPathDateTimeValue to com.ibm.fhir.path.FHIRPathDateTimeValue.Builder--><path d="M210,413.31 C210,430.69 210,446.47 210,457.85 " fill="none" id="com.ibm.fhir.path.FHIRPathDateTimeValue&lt;-com.ibm.fhir.path.FHIRPathDateTimeValue.Builder" style="stroke: #A80036; stroke-width: 1.0;"/><ellipse cx="210" cy="406.05" fill="#FFFFFF" rx="8" ry="8" style="stroke: #A80036; stroke-width: 1.0;"/><line style="stroke: #A80036; stroke-width: 1.0;" x1="210" x2="210" y1="414.05" y2="398.05"/><line style="stroke: #A80036; stroke-width: 1.0;" x1="202" x2="218" y1="406.05" y2="406.05"/><text fill="#888888" font-family="sans-serif" font-size="10" lengthAdjust="spacingAndGlyphs" textLength="186" x="123" y="515.2822">UMLDoclet 2.0.7, PlantUML 1.2019.12</text><!--MD5=[4491d053dfbece10a9ed51dabc5cc9e8]
@startuml
    set namespaceSeparator none
    hide empty fields
    hide empty methods

    class "<size:14>FHIRPathDateTimeValue\n<size:10>com.ibm.fhir.path" as com.ibm.fhir.path.FHIRPathDateTimeValue [[FHIRPathDateTimeValue.html]] {
        {static} +PARSER_FORMATTER: DateTimeFormatter
        #FHIRPathDateTimeValue(Builder)
        +isDateTimeValue(): boolean
        +isPartial(): boolean
        +dateTime(): TemporalAccessor
        {static} +dateTimeValue(String): FHIRPathDateTimeValue
        {static} +dateTimeValue(TemporalAccessor): FHIRPathDateTimeValue
        {static} +dateTimeValue(String, TemporalAccessor): FHIRPathDateTimeValue
        +toBuilder(): Builder
        {static} +builder(TemporalAccessor, ChronoField): Builder
        +add(FHIRPathQuantityValue): FHIRPathDateTimeValue
        +subtract(FHIRPathQuantityValue): FHIRPathDateTimeValue
        +accept(FHIRPathNodeVisitor): void
    }

    abstract class "<size:14>FHIRPathAbstractTemporalValue\n<size:10>com.ibm.fhir.path" as com.ibm.fhir.path.FHIRPathAbstractTemporalValue [[FHIRPathAbstractTemporalValue.html]] {
        {abstract} +isPartial(): boolean
        {abstract} +add(FHIRPathQuantityValue): FHIRPathTemporalValue
        {abstract} +subtract(FHIRPathQuantityValue): FHIRPathTemporalValue
        {abstract} +toBuilder(): Builder
        {abstract} +accept(FHIRPathNodeVisitor): void
    }
    class "<size:14>FHIRPathDateTimeValue.Builder\n<size:10>com.ibm.fhir.path" as com.ibm.fhir.path.FHIRPathDateTimeValue.Builder [[FHIRPathDateTimeValue.Builder.html]]

    com.ibm.fhir.path.FHIRPathAbstractTemporalValue <|- - com.ibm.fhir.path.FHIRPathDateTimeValue
    com.ibm.fhir.path.FHIRPathDateTimeValue +- - com.ibm.fhir.path.FHIRPathDateTimeValue.Builder

    center footer UMLDoclet 2.0.7, PlantUML 1.2019.12
@enduml

PlantUML version 1.2019.12(Sun Nov 03 10:24:54 UTC 2019)
(APACHE source distribution)
Java Runtime: OpenJDK Runtime Environment
JVM: OpenJDK 64-Bit Server VM
Java Version: 11.0.10+9
Operating System: Linux
Default Encoding: UTF-8
Language: en
Country: null
--></g></svg>