<?xml version="1.0" encoding="UTF-8" standalone="no"?><svg xmlns="http://www.w3.org/2000/svg" xmlns:xlink="http://www.w3.org/1999/xlink" contentScriptType="application/ecmascript" contentStyleType="text/css" height="224px" preserveAspectRatio="none" style="width:370px;height:224px;" version="1.1" viewBox="0 0 370 224" width="370px" zoomAndPan="magnify"><defs><filter height="300%" id="f1cpgue5vot9vt" width="300%" x="-1" y="-1"><feGaussianBlur result="blurOut" stdDeviation="2.0"/><feColorMatrix in="blurOut" result="blurOut2" type="matrix" values="0 0 0 0 0 0 0 0 0 0 0 0 0 0 0 0 0 0 .4 0"/><feOffset dx="4.0" dy="4.0" in="blurOut2" result="blurOut3"/><feBlend in="SourceGraphic" in2="blurOut3" mode="normal"/></filter></defs><g><!--class com.ibm.fhir.persistence.SingleResourceResult--><a href="SingleResourceResult.html" target="_top" xlink:actuate="onRequest" xlink:show="new" xlink:title="SingleResourceResult.html" xlink:type="simple"><rect fill="#FEFECE" filter="url(#f1cpgue5vot9vt)" height="85.1309" id="com.ibm.fhir.persistence.SingleResourceResult" style="stroke: #A80036; stroke-width: 1.5;" width="298" x="32" y="8"/><ellipse cx="47" cy="27.1328" fill="#ADD1B2" rx="11" ry="11" style="stroke: #A80036; stroke-width: 1.0;"/><path d="M49.4731,33.2759 Q48.8921,33.5747 48.2529,33.7241 Q47.6138,33.8735 46.9082,33.8735 Q44.4014,33.8735 43.0815,32.2217 Q41.7617,30.5698 41.7617,27.4487 Q41.7617,24.3193 43.0815,22.6675 Q44.4014,21.0156 46.9082,21.0156 Q47.6138,21.0156 48.2612,21.165 Q48.9087,21.3145 49.4731,21.6133 L49.4731,24.3359 Q48.8423,23.7549 48.2488,23.4851 Q47.6553,23.2153 47.0244,23.2153 Q45.6797,23.2153 44.9949,24.282 Q44.3101,25.3486 44.3101,27.4487 Q44.3101,29.5405 44.9949,30.6072 Q45.6797,31.6738 47.0244,31.6738 Q47.6553,31.6738 48.2488,31.4041 Q48.8423,31.1343 49.4731,30.5532 Z "/><text fill="#000000" font-family="sans-serif" font-size="14" lengthAdjust="spacingAndGlyphs" textLength="147" x="61" y="26.5352">SingleResourceResult</text><text fill="#000000" font-family="sans-serif" font-size="10" lengthAdjust="spacingAndGlyphs" textLength="120" x="74.5" y="39.1563">com.ibm.fhir.persistence</text><rect fill="#FFFFFF" height="16.1328" style="stroke: #000000; stroke-width: 1.0; stroke-dasharray: 2.0,2.0;" width="117" x="216" y="5"/><text fill="#000000" font-family="sans-serif" font-size="12" font-style="italic" lengthAdjust="spacingAndGlyphs" textLength="115" x="217" y="17.6016">T extends Resource</text><line style="stroke: #A80036; stroke-width: 1.5;" x1="33" x2="329" y1="46.2656" y2="46.2656"/><ellipse cx="43" cy="58.2432" fill="#84BE84" rx="3" ry="3" style="stroke: #038048; stroke-width: 1.0;"/><text fill="#000000" font-family="sans-serif" font-size="11" lengthAdjust="spacingAndGlyphs" textLength="109" x="52" y="60.9004">isSuccess(): boolean</text><ellipse cx="43" cy="71.1982" fill="#84BE84" rx="3" ry="3" style="stroke: #038048; stroke-width: 1.0;"/><text fill="#000000" font-family="sans-serif" font-size="11" lengthAdjust="spacingAndGlyphs" textLength="187" x="52" y="73.8555">getResource(): T extends Resource</text><ellipse cx="43" cy="84.1533" fill="#84BE84" rx="3" ry="3" style="stroke: #038048; stroke-width: 1.0;"/><text fill="#000000" font-family="sans-serif" font-size="11" lengthAdjust="spacingAndGlyphs" textLength="183" x="52" y="86.8105">getOutcome(): OperationOutcome</text></a><!--class com.ibm.fhir.persistence.SingleResourceResult.Builder--><a href="SingleResourceResult.Builder.html" target="_top" xlink:actuate="onRequest" xlink:show="new" xlink:title="SingleResourceResult.Builder.html" xlink:type="simple"><rect fill="#FEFECE" filter="url(#f1cpgue5vot9vt)" height="38.2656" id="com.ibm.fhir.persistence.SingleResourceResult.Builder" style="stroke: #A80036; stroke-width: 1.5;" width="350" x="6" y="153"/><ellipse cx="21" cy="172.1328" fill="#ADD1B2" rx="11" ry="11" style="stroke: #A80036; stroke-width: 1.0;"/><path d="M23.4731,178.2759 Q22.8921,178.5747 22.2529,178.7241 Q21.6138,178.8735 20.9082,178.8735 Q18.4014,178.8735 17.0815,177.2217 Q15.7617,175.5698 15.7617,172.4487 Q15.7617,169.3193 17.0815,167.6675 Q18.4014,166.0156 20.9082,166.0156 Q21.6138,166.0156 22.2612,166.165 Q22.9087,166.3145 23.4731,166.6133 L23.4731,169.3359 Q22.8423,168.7549 22.2488,168.4851 Q21.6553,168.2153 21.0244,168.2153 Q19.6797,168.2153 18.9949,169.282 Q18.3101,170.3486 18.3101,172.4487 Q18.3101,174.5405 18.9949,175.6072 Q19.6797,176.6738 21.0244,176.6738 Q21.6553,176.6738 22.2488,176.4041 Q22.8423,176.1343 23.4731,175.5532 Z "/><text fill="#000000" font-family="sans-serif" font-size="14" lengthAdjust="spacingAndGlyphs" textLength="199" x="35" y="171.5352">SingleResourceResult.Builder</text><text fill="#000000" font-family="sans-serif" font-size="10" lengthAdjust="spacingAndGlyphs" textLength="120" x="74.5" y="184.1563">com.ibm.fhir.persistence</text><rect fill="#FFFFFF" height="16.1328" style="stroke: #000000; stroke-width: 1.0; stroke-dasharray: 2.0,2.0;" width="117" x="242" y="150"/><text fill="#000000" font-family="sans-serif" font-size="12" font-style="italic" lengthAdjust="spacingAndGlyphs" textLength="115" x="243" y="162.6016">T extends Resource</text></a><!--link com.ibm.fhir.persistence.SingleResourceResult to com.ibm.fhir.persistence.SingleResourceResult.Builder--><path d="M181,108.501 C181,124.553 181,140.8613 181,152.9311 " fill="none" id="com.ibm.fhir.persistence.SingleResourceResult-com.ibm.fhir.persistence.SingleResourceResult.Builder" style="stroke: #A80036; stroke-width: 1.0;"/><ellipse cx="181.0001" cy="101.3364" fill="#FFFFFF" rx="8" ry="8" style="stroke: #A80036; stroke-width: 1.0;"/><line style="stroke: #A80036; stroke-width: 1.0;" x1="181.0002" x2="181" y1="109.3364" y2="93.3364"/><line style="stroke: #A80036; stroke-width: 1.0;" x1="173.0001" x2="189.0001" y1="101.3365" y2="101.3363"/><text fill="#888888" font-family="sans-serif" font-size="10" lengthAdjust="spacingAndGlyphs" textLength="182" x="96" y="210.668">UMLDoclet 2.0.5, PlantUML 1.2019.08</text><!--
@startuml
    set namespaceSeparator none
    hide empty fields
    hide empty methods

    class "<size:14>SingleResourceResult\n<size:10>com.ibm.fhir.persistence" as com.ibm.fhir.persistence.SingleResourceResult<T extends Resource> [[SingleResourceResult.html]] {
        +isSuccess(): boolean
        +getResource(): T extends Resource
        +getOutcome(): OperationOutcome
    }
    class "<size:14>SingleResourceResult.Builder\n<size:10>com.ibm.fhir.persistence" as com.ibm.fhir.persistence.SingleResourceResult.Builder<T extends Resource> [[SingleResourceResult.Builder.html]]

    com.ibm.fhir.persistence.SingleResourceResult +- - com.ibm.fhir.persistence.SingleResourceResult.Builder

    center footer UMLDoclet 2.0.5, PlantUML 1.2019.08
@enduml

PlantUML version 1.2019.08(Sat Jul 13 15:25:14 EDT 2019)
(APACHE source distribution)
Java Runtime: OpenJDK Runtime Environment
JVM: OpenJDK 64-Bit Server VM
Java Version: 11.0.4+11
Operating System: Mac OS X
OS Version: 10.14.6
Default Encoding: UTF-8
Language: en
Country: US
--></g></svg>