<?xml version="1.0" encoding="UTF-8" standalone="no"?><svg xmlns="http://www.w3.org/2000/svg" xmlns:xlink="http://www.w3.org/1999/xlink" contentScriptType="application/ecmascript" contentStyleType="text/css" height="473px" preserveAspectRatio="none" style="width:657px;height:473px;" version="1.1" viewBox="0 0 657 473" width="657px" zoomAndPan="magnify"><defs><filter height="300%" id="f6bo7mkrkccth" width="300%" x="-1" y="-1"><feGaussianBlur result="blurOut" stdDeviation="2.0"/><feColorMatrix in="blurOut" result="blurOut2" type="matrix" values="0 0 0 0 0 0 0 0 0 0 0 0 0 0 0 0 0 0 .4 0"/><feOffset dx="4.0" dy="4.0" in="blurOut2" result="blurOut3"/><feBlend in="SourceGraphic" in2="blurOut3" mode="normal"/></filter></defs><g><!--MD5=[d5d309bdd91b7859f02b4cb7464846bc]
class com.ibm.fhir.model.resource.ClaimResponse.AddItem.Detail--><a href="ClaimResponse.AddItem.Detail.html" target="_top" title="ClaimResponse.AddItem.Detail.html" xlink:actuate="onRequest" xlink:href="ClaimResponse.AddItem.Detail.html" xlink:show="new" xlink:title="ClaimResponse.AddItem.Detail.html" xlink:type="simple"><rect fill="#FEFECE" filter="url(#f6bo7mkrkccth)" height="214.6816" id="com.ibm.fhir.model.resource.ClaimResponse.AddItem.Detail" style="stroke: #A80036; stroke-width: 1.5;" width="246" x="199" y="127"/><ellipse cx="215.8" cy="146.1328" fill="#ADD1B2" rx="11" ry="11" style="stroke: #A80036; stroke-width: 1.0;"/><path d="M218.2731,152.2759 Q217.6921,152.5747 217.0529,152.7241 Q216.4138,152.8735 215.7082,152.8735 Q213.2014,152.8735 211.8815,151.2217 Q210.5617,149.5698 210.5617,146.4487 Q210.5617,143.3193 211.8815,141.6675 Q213.2014,140.0156 215.7082,140.0156 Q216.4138,140.0156 217.0612,140.165 Q217.7087,140.3145 218.2731,140.6133 L218.2731,143.3359 Q217.6423,142.7549 217.0488,142.4851 Q216.4553,142.2153 215.8244,142.2153 Q214.4797,142.2153 213.7949,143.282 Q213.1101,144.3486 213.1101,146.4487 Q213.1101,148.5405 213.7949,149.6072 Q214.4797,150.6738 215.8244,150.6738 Q216.4553,150.6738 217.0488,150.4041 Q217.6423,150.1343 218.2731,149.5532 Z "/><text fill="#000000" font-family="sans-serif" font-size="14" lengthAdjust="spacingAndGlyphs" textLength="210" x="230.2" y="145.5352">ClaimResponse.AddItem.Detail</text><text fill="#000000" font-family="sans-serif" font-size="10" lengthAdjust="spacingAndGlyphs" textLength="139" x="265.7" y="158.1563">com.ibm.fhir.model.resource</text><line style="stroke: #A80036; stroke-width: 1.5;" x1="200" x2="444" y1="165.2656" y2="165.2656"/><ellipse cx="210" cy="176.2656" fill="#84BE84" rx="3" ry="3" style="stroke: #038048; stroke-width: 1.0;"/><text fill="#000000" font-family="sans-serif" font-size="11" lengthAdjust="spacingAndGlyphs" textLength="220" x="219" y="179.9004">getProductOrService(): CodeableConcept</text><ellipse cx="210" cy="189.2207" fill="#84BE84" rx="3" ry="3" style="stroke: #038048; stroke-width: 1.0;"/><text fill="#000000" font-family="sans-serif" font-size="11" lengthAdjust="spacingAndGlyphs" textLength="207" x="219" y="192.8555">getModifier(): List&lt;CodeableConcept&gt;</text><ellipse cx="210" cy="202.1758" fill="#84BE84" rx="3" ry="3" style="stroke: #038048; stroke-width: 1.0;"/><text fill="#000000" font-family="sans-serif" font-size="11" lengthAdjust="spacingAndGlyphs" textLength="158" x="219" y="205.8105">getQuantity(): SimpleQuantity</text><ellipse cx="210" cy="215.1309" fill="#84BE84" rx="3" ry="3" style="stroke: #038048; stroke-width: 1.0;"/><text fill="#000000" font-family="sans-serif" font-size="11" lengthAdjust="spacingAndGlyphs" textLength="114" x="219" y="218.7656">getUnitPrice(): Money</text><ellipse cx="210" cy="228.0859" fill="#84BE84" rx="3" ry="3" style="stroke: #038048; stroke-width: 1.0;"/><text fill="#000000" font-family="sans-serif" font-size="11" lengthAdjust="spacingAndGlyphs" textLength="107" x="219" y="231.7207">getFactor(): Decimal</text><ellipse cx="210" cy="241.041" fill="#84BE84" rx="3" ry="3" style="stroke: #038048; stroke-width: 1.0;"/><text fill="#000000" font-family="sans-serif" font-size="11" lengthAdjust="spacingAndGlyphs" textLength="84" x="219" y="244.6758">getNet(): Money</text><ellipse cx="210" cy="253.9961" fill="#84BE84" rx="3" ry="3" style="stroke: #038048; stroke-width: 1.0;"/><text fill="#000000" font-family="sans-serif" font-size="11" lengthAdjust="spacingAndGlyphs" textLength="191" x="219" y="257.6309">getNoteNumber(): List&lt;PositiveInt&gt;</text><ellipse cx="210" cy="266.9512" fill="#84BE84" rx="3" ry="3" style="stroke: #038048; stroke-width: 1.0;"/><text fill="#000000" font-family="sans-serif" font-size="11" lengthAdjust="spacingAndGlyphs" textLength="204" x="219" y="270.5859">getAdjudication(): List&lt;Adjudication&gt;</text><ellipse cx="210" cy="279.9063" fill="#84BE84" rx="3" ry="3" style="stroke: #038048; stroke-width: 1.0;"/><text fill="#000000" font-family="sans-serif" font-size="11" lengthAdjust="spacingAndGlyphs" textLength="168" x="219" y="283.541">getSubDetail(): List&lt;SubDetail&gt;</text><ellipse cx="210" cy="292.8613" fill="#84BE84" rx="3" ry="3" style="stroke: #038048; stroke-width: 1.0;"/><text fill="#000000" font-family="sans-serif" font-size="11" lengthAdjust="spacingAndGlyphs" textLength="122" x="219" y="296.4961">hasChildren(): boolean</text><ellipse cx="210" cy="305.8164" fill="#84BE84" rx="3" ry="3" style="stroke: #038048; stroke-width: 1.0;"/><text fill="#000000" font-family="sans-serif" font-size="11" lengthAdjust="spacingAndGlyphs" textLength="165" x="219" y="309.4512">accept(String, int, Visitor): void</text><ellipse cx="210" cy="318.7715" fill="#84BE84" rx="3" ry="3" style="stroke: #038048; stroke-width: 1.0;"/><text fill="#000000" font-family="sans-serif" font-size="11" lengthAdjust="spacingAndGlyphs" textLength="99" x="219" y="322.4063">toBuilder(): Builder</text><ellipse cx="210" cy="331.7266" fill="#84BE84" rx="3" ry="3" style="stroke: #038048; stroke-width: 1.0;"/><text fill="#000000" font-family="sans-serif" font-size="11" lengthAdjust="spacingAndGlyphs" text-decoration="underline" textLength="89" x="219" y="335.3613">builder(): Builder</text></a><!--MD5=[efbff6997283c56b83e991a8eeb6a60a]
class com.ibm.fhir.model.type.BackboneElement--><a href="../type/BackboneElement.html" target="_top" title="../type/BackboneElement.html" xlink:actuate="onRequest" xlink:href="../type/BackboneElement.html" xlink:show="new" xlink:title="../type/BackboneElement.html" xlink:type="simple"><rect fill="#FEFECE" filter="url(#f6bo7mkrkccth)" height="59.2207" id="com.ibm.fhir.model.type.BackboneElement" style="stroke: #A80036; stroke-width: 1.5;" width="153" x="140.5" y="8"/><ellipse cx="155.5" cy="27.1328" fill="#A9DCDF" rx="11" ry="11" style="stroke: #A80036; stroke-width: 1.0;"/><path d="M155.6133,22.731 L154.4595,27.8027 L156.7754,27.8027 Z M154.1191,20.4897 L157.1157,20.4897 L160.4609,32.8828 L158.0122,32.8828 L157.2485,29.8198 L153.9697,29.8198 L153.2227,32.8828 L150.7739,32.8828 Z "/><text fill="#000000" font-family="sans-serif" font-size="14" font-style="italic" lengthAdjust="spacingAndGlyphs" textLength="121" x="169.5" y="26.5352">BackboneElement</text><text fill="#000000" font-family="sans-serif" font-size="10" font-style="italic" lengthAdjust="spacingAndGlyphs" textLength="118" x="171" y="39.1563">com.ibm.fhir.model.type</text><line style="stroke: #A80036; stroke-width: 1.5;" x1="141.5" x2="292.5" y1="46.2656" y2="46.2656"/><ellipse cx="151.5" cy="57.2656" fill="#84BE84" rx="3" ry="3" style="stroke: #038048; stroke-width: 1.0;"/><text fill="#000000" font-family="sans-serif" font-size="11" font-style="italic" lengthAdjust="spacingAndGlyphs" textLength="99" x="160.5" y="60.9004">toBuilder(): Builder</text></a><!--MD5=[105a7d4052152c4e29b63b04f50383e2]
class com.ibm.fhir.model.resource.ClaimResponse.AddItem--><a href="ClaimResponse.AddItem.html" target="_top" title="ClaimResponse.AddItem.html" xlink:actuate="onRequest" xlink:href="ClaimResponse.AddItem.html" xlink:show="new" xlink:title="ClaimResponse.AddItem.html" xlink:type="simple"><rect fill="#FEFECE" filter="url(#f6bo7mkrkccth)" height="38.2656" id="com.ibm.fhir.model.resource.ClaimResponse.AddItem" style="stroke: #A80036; stroke-width: 1.5;" width="199" x="328.5" y="18.5"/><ellipse cx="343.5" cy="37.6328" fill="#ADD1B2" rx="11" ry="11" style="stroke: #A80036; stroke-width: 1.0;"/><path d="M345.9731,43.7759 Q345.3921,44.0747 344.7529,44.2241 Q344.1138,44.3735 343.4082,44.3735 Q340.9014,44.3735 339.5815,42.7217 Q338.2617,41.0698 338.2617,37.9487 Q338.2617,34.8193 339.5815,33.1675 Q340.9014,31.5156 343.4082,31.5156 Q344.1138,31.5156 344.7612,31.665 Q345.4087,31.8145 345.9731,32.1133 L345.9731,34.8359 Q345.3423,34.2549 344.7488,33.9851 Q344.1553,33.7153 343.5244,33.7153 Q342.1797,33.7153 341.4949,34.782 Q340.8101,35.8486 340.8101,37.9487 Q340.8101,40.0405 341.4949,41.1072 Q342.1797,42.1738 343.5244,42.1738 Q344.1553,42.1738 344.7488,41.9041 Q345.3423,41.6343 345.9731,41.0532 Z "/><text fill="#000000" font-family="sans-serif" font-size="14" lengthAdjust="spacingAndGlyphs" textLength="167" x="357.5" y="37.0352">ClaimResponse.AddItem</text><text fill="#000000" font-family="sans-serif" font-size="10" lengthAdjust="spacingAndGlyphs" textLength="139" x="371.5" y="49.6563">com.ibm.fhir.model.resource</text></a><!--MD5=[cc40100e659255f21c5d0f840b4f748e]
class com.ibm.fhir.model.resource.ClaimResponse.AddItem.Detail.Builder--><a href="ClaimResponse.AddItem.Detail.Builder.html" target="_top" title="ClaimResponse.AddItem.Detail.Builder.html" xlink:actuate="onRequest" xlink:href="ClaimResponse.AddItem.Detail.Builder.html" xlink:show="new" xlink:title="ClaimResponse.AddItem.Detail.Builder.html" xlink:type="simple"><rect fill="#FEFECE" filter="url(#f6bo7mkrkccth)" height="38.2656" id="com.ibm.fhir.model.resource.ClaimResponse.AddItem.Detail.Builder" style="stroke: #A80036; stroke-width: 1.5;" width="294" x="6" y="402"/><ellipse cx="21" cy="421.1328" fill="#ADD1B2" rx="11" ry="11" style="stroke: #A80036; stroke-width: 1.0;"/><path d="M23.4731,427.2759 Q22.8921,427.5747 22.2529,427.7241 Q21.6138,427.8735 20.9082,427.8735 Q18.4014,427.8735 17.0815,426.2217 Q15.7617,424.5698 15.7617,421.4487 Q15.7617,418.3193 17.0815,416.6675 Q18.4014,415.0156 20.9082,415.0156 Q21.6138,415.0156 22.2612,415.165 Q22.9087,415.3145 23.4731,415.6133 L23.4731,418.3359 Q22.8423,417.7549 22.2488,417.4851 Q21.6553,417.2153 21.0244,417.2153 Q19.6797,417.2153 18.9949,418.282 Q18.3101,419.3486 18.3101,421.4487 Q18.3101,423.5405 18.9949,424.6072 Q19.6797,425.6738 21.0244,425.6738 Q21.6553,425.6738 22.2488,425.4041 Q22.8423,425.1343 23.4731,424.5532 Z "/><text fill="#000000" font-family="sans-serif" font-size="14" lengthAdjust="spacingAndGlyphs" textLength="262" x="35" y="420.5352">ClaimResponse.AddItem.Detail.Builder</text><text fill="#000000" font-family="sans-serif" font-size="10" lengthAdjust="spacingAndGlyphs" textLength="139" x="96.5" y="433.1563">com.ibm.fhir.model.resource</text></a><!--MD5=[b0fd79354ab574dd4420df1def33f0d2]
class com.ibm.fhir.model.resource.ClaimResponse.AddItem.Detail.SubDetail--><a href="ClaimResponse.AddItem.Detail.SubDetail.html" target="_top" title="ClaimResponse.AddItem.Detail.SubDetail.html" xlink:actuate="onRequest" xlink:href="ClaimResponse.AddItem.Detail.SubDetail.html" xlink:show="new" xlink:title="ClaimResponse.AddItem.Detail.SubDetail.html" xlink:type="simple"><rect fill="#FEFECE" filter="url(#f6bo7mkrkccth)" height="38.2656" id="com.ibm.fhir.model.resource.ClaimResponse.AddItem.Detail.SubDetail" style="stroke: #A80036; stroke-width: 1.5;" width="311" x="335.5" y="402"/><ellipse cx="350.5" cy="421.1328" fill="#ADD1B2" rx="11" ry="11" style="stroke: #A80036; stroke-width: 1.0;"/><path d="M352.9731,427.2759 Q352.3921,427.5747 351.7529,427.7241 Q351.1138,427.8735 350.4082,427.8735 Q347.9014,427.8735 346.5815,426.2217 Q345.2617,424.5698 345.2617,421.4487 Q345.2617,418.3193 346.5815,416.6675 Q347.9014,415.0156 350.4082,415.0156 Q351.1138,415.0156 351.7612,415.165 Q352.4087,415.3145 352.9731,415.6133 L352.9731,418.3359 Q352.3423,417.7549 351.7488,417.4851 Q351.1553,417.2153 350.5244,417.2153 Q349.1797,417.2153 348.4949,418.282 Q347.8101,419.3486 347.8101,421.4487 Q347.8101,423.5405 348.4949,424.6072 Q349.1797,425.6738 350.5244,425.6738 Q351.1553,425.6738 351.7488,425.4041 Q352.3423,425.1343 352.9731,424.5532 Z "/><text fill="#000000" font-family="sans-serif" font-size="14" lengthAdjust="spacingAndGlyphs" textLength="279" x="364.5" y="420.5352">ClaimResponse.AddItem.Detail.SubDetail</text><text fill="#000000" font-family="sans-serif" font-size="10" lengthAdjust="spacingAndGlyphs" textLength="139" x="434.5" y="433.1563">com.ibm.fhir.model.resource</text></a><!--MD5=[939aa4941ba6e7f158b9d4bc80479413]
reverse link com.ibm.fhir.model.type.BackboneElement to com.ibm.fhir.model.resource.ClaimResponse.AddItem.Detail--><path d="M242.4827,85.3104 C249.2385,97.9856 256.8147,112.2 264.5355,126.6856 " fill="none" id="com.ibm.fhir.model.type.BackboneElement&lt;-com.ibm.fhir.model.resource.ClaimResponse.AddItem.Detail" style="stroke: #A80036; stroke-width: 1.0;"/><polygon fill="none" points="236.1771,88.3621,232.9472,67.4201,248.5317,81.7771,236.1771,88.3621" style="stroke: #A80036; stroke-width: 1.0;"/><!--MD5=[91ed5527c3aba99a342fd82b9ae8bde2]
reverse link com.ibm.fhir.model.resource.ClaimResponse.AddItem to com.ibm.fhir.model.resource.ClaimResponse.AddItem.Detail--><path d="M410.4761,70.068 C401.9096,85.9887 391.057,106.1582 379.9121,126.8708 " fill="none" id="com.ibm.fhir.model.resource.ClaimResponse.AddItem&lt;-com.ibm.fhir.model.resource.ClaimResponse.AddItem.Detail" style="stroke: #A80036; stroke-width: 1.0;"/><ellipse cx="413.8526" cy="63.7928" fill="#FFFFFF" rx="8" ry="8" style="stroke: #A80036; stroke-width: 1.0;"/><line style="stroke: #A80036; stroke-width: 1.0;" x1="410.0619" x2="417.6433" y1="70.8377" y2="56.7479"/><line style="stroke: #A80036; stroke-width: 1.0;" x1="406.8077" x2="420.8975" y1="60.0021" y2="67.5835"/><!--MD5=[c2135bdbe3c6605f3885cb0889c4b005]
reverse link com.ibm.fhir.model.resource.ClaimResponse.AddItem.Detail to com.ibm.fhir.model.resource.ClaimResponse.AddItem.Detail.Builder--><path d="M214.2364,353.4226 C197.1597,372.2676 181.4577,389.5955 170.2297,401.9862 " fill="none" id="com.ibm.fhir.model.resource.ClaimResponse.AddItem.Detail&lt;-com.ibm.fhir.model.resource.ClaimResponse.AddItem.Detail.Builder" style="stroke: #A80036; stroke-width: 1.0;"/><ellipse cx="219.0544" cy="348.1056" fill="#FFFFFF" rx="8" ry="8" style="stroke: #A80036; stroke-width: 1.0;"/><line style="stroke: #A80036; stroke-width: 1.0;" x1="213.6825" x2="224.4263" y1="354.0338" y2="342.1775"/><line style="stroke: #A80036; stroke-width: 1.0;" x1="213.1263" x2="224.9826" y1="342.7338" y2="353.4775"/><!--MD5=[774583b9718dabe0dbf89f153f8f0ae1]
reverse link com.ibm.fhir.model.resource.ClaimResponse.AddItem.Detail to com.ibm.fhir.model.resource.ClaimResponse.AddItem.Detail.SubDetail--><path d="M429.7636,353.4226 C446.8403,372.2676 462.5423,389.5955 473.7703,401.9862 " fill="none" id="com.ibm.fhir.model.resource.ClaimResponse.AddItem.Detail&lt;-com.ibm.fhir.model.resource.ClaimResponse.AddItem.Detail.SubDetail" style="stroke: #A80036; stroke-width: 1.0;"/><ellipse cx="424.9456" cy="348.1056" fill="#FFFFFF" rx="8" ry="8" style="stroke: #A80036; stroke-width: 1.0;"/><line style="stroke: #A80036; stroke-width: 1.0;" x1="430.3175" x2="419.5737" y1="354.0338" y2="342.1775"/><line style="stroke: #A80036; stroke-width: 1.0;" x1="419.0174" x2="430.8737" y1="353.4775" y2="342.7338"/><text fill="#888888" font-family="sans-serif" font-size="10" lengthAdjust="spacingAndGlyphs" textLength="182" x="241.5" y="459.668">UMLDoclet 2.0.7, PlantUML 1.2019.12</text><!--MD5=[5b6583853482cc92fc37528e33a5c660]
@startuml
    set namespaceSeparator none
    hide empty fields
    hide empty methods

    class "<size:14>ClaimResponse.AddItem.Detail\n<size:10>com.ibm.fhir.model.resource" as com.ibm.fhir.model.resource.ClaimResponse.AddItem.Detail [[ClaimResponse.AddItem.Detail.html]] {
        +getProductOrService(): CodeableConcept
        +getModifier(): List<CodeableConcept>
        +getQuantity(): SimpleQuantity
        +getUnitPrice(): Money
        +getFactor(): Decimal
        +getNet(): Money
        +getNoteNumber(): List<PositiveInt>
        +getAdjudication(): List<Adjudication>
        +getSubDetail(): List<SubDetail>
        +hasChildren(): boolean
        +accept(String, int, Visitor): void
        +toBuilder(): Builder
        {static} +builder(): Builder
    }

    abstract class "<size:14>BackboneElement\n<size:10>com.ibm.fhir.model.type" as com.ibm.fhir.model.type.BackboneElement [[../type/BackboneElement.html]] {
        {abstract} +toBuilder(): Builder
    }
    class "<size:14>ClaimResponse.AddItem\n<size:10>com.ibm.fhir.model.resource" as com.ibm.fhir.model.resource.ClaimResponse.AddItem [[ClaimResponse.AddItem.html]]
    class "<size:14>ClaimResponse.AddItem.Detail.Builder\n<size:10>com.ibm.fhir.model.resource" as com.ibm.fhir.model.resource.ClaimResponse.AddItem.Detail.Builder [[ClaimResponse.AddItem.Detail.Builder.html]]
    class "<size:14>ClaimResponse.AddItem.Detail.SubDetail\n<size:10>com.ibm.fhir.model.resource" as com.ibm.fhir.model.resource.ClaimResponse.AddItem.Detail.SubDetail [[ClaimResponse.AddItem.Detail.SubDetail.html]]

    com.ibm.fhir.model.type.BackboneElement <|- - com.ibm.fhir.model.resource.ClaimResponse.AddItem.Detail
    com.ibm.fhir.model.resource.ClaimResponse.AddItem +- - com.ibm.fhir.model.resource.ClaimResponse.AddItem.Detail
    com.ibm.fhir.model.resource.ClaimResponse.AddItem.Detail +- - com.ibm.fhir.model.resource.ClaimResponse.AddItem.Detail.Builder
    com.ibm.fhir.model.resource.ClaimResponse.AddItem.Detail +- - com.ibm.fhir.model.resource.ClaimResponse.AddItem.Detail.SubDetail

    center footer UMLDoclet 2.0.7, PlantUML 1.2019.12
@enduml

PlantUML version 1.2019.12(Sun Nov 03 05:24:54 EST 2019)
(APACHE source distribution)
Java Runtime: OpenJDK Runtime Environment
JVM: OpenJDK 64-Bit Server VM
Java Version: 11.0.4+11
Operating System: Mac OS X
Default Encoding: UTF-8
Language: en
Country: US
--></g></svg>