<?xml version="1.0" encoding="UTF-8" standalone="no"?><svg xmlns="http://www.w3.org/2000/svg" xmlns:xlink="http://www.w3.org/1999/xlink" contentScriptType="application/ecmascript" contentStyleType="text/css" height="434px" preserveAspectRatio="none" style="width:376px;height:434px;" version="1.1" viewBox="0 0 376 434" width="376px" zoomAndPan="magnify"><defs><filter height="300%" id="f10nh6d9qy7jnt" width="300%" x="-1" y="-1"><feGaussianBlur result="blurOut" stdDeviation="2.0"/><feColorMatrix in="blurOut" result="blurOut2" type="matrix" values="0 0 0 0 0 0 0 0 0 0 0 0 0 0 0 0 0 0 .4 0"/><feOffset dx="4.0" dy="4.0" in="blurOut2" result="blurOut3"/><feBlend in="SourceGraphic" in2="blurOut3" mode="normal"/></filter></defs><g><!--MD5=[f49adbdca83545a7ff7d86acbce6d549]
class com.ibm.fhir.model.resource.Device.UdiCarrier--><a href="Device.UdiCarrier.html" target="_top" title="Device.UdiCarrier.html" xlink:actuate="onRequest" xlink:href="Device.UdiCarrier.html" xlink:show="new" xlink:title="Device.UdiCarrier.html" xlink:type="simple"><rect fill="#FEFECE" filter="url(#f10nh6d9qy7jnt)" height="175.8164" id="com.ibm.fhir.model.resource.Device.UdiCarrier" style="stroke: #A80036; stroke-width: 1.5;" width="193" x="84" y="127"/><ellipse cx="108.9" cy="146.1328" fill="#ADD1B2" rx="11" ry="11" style="stroke: #A80036; stroke-width: 1.0;"/><path d="M111.3731,152.2759 Q110.7921,152.5747 110.1529,152.7241 Q109.5138,152.8735 108.8082,152.8735 Q106.3014,152.8735 104.9815,151.2217 Q103.6617,149.5698 103.6617,146.4487 Q103.6617,143.3193 104.9815,141.6675 Q106.3014,140.0156 108.8082,140.0156 Q109.5138,140.0156 110.1612,140.165 Q110.8087,140.3145 111.3731,140.6133 L111.3731,143.3359 Q110.7423,142.7549 110.1488,142.4851 Q109.5553,142.2153 108.9244,142.2153 Q107.5797,142.2153 106.8949,143.282 Q106.2101,144.3486 106.2101,146.4487 Q106.2101,148.5405 106.8949,149.6072 Q107.5797,150.6738 108.9244,150.6738 Q109.5553,150.6738 110.1488,150.4041 Q110.7423,150.1343 111.3731,149.5532 Z "/><text fill="#000000" font-family="sans-serif" font-size="14" lengthAdjust="spacingAndGlyphs" textLength="119" x="135.1" y="145.5352">Device.UdiCarrier</text><text fill="#000000" font-family="sans-serif" font-size="10" lengthAdjust="spacingAndGlyphs" textLength="139" x="125.1" y="158.1563">com.ibm.fhir.model.resource</text><line style="stroke: #A80036; stroke-width: 1.5;" x1="85" x2="276" y1="165.2656" y2="165.2656"/><ellipse cx="95" cy="176.2656" fill="#84BE84" rx="3" ry="3" style="stroke: #038048; stroke-width: 1.0;"/><text fill="#000000" font-family="sans-serif" font-size="11" lengthAdjust="spacingAndGlyphs" textLength="146" x="104" y="179.9004">getDeviceIdentifier(): String</text><ellipse cx="95" cy="189.2207" fill="#84BE84" rx="3" ry="3" style="stroke: #038048; stroke-width: 1.0;"/><text fill="#000000" font-family="sans-serif" font-size="11" lengthAdjust="spacingAndGlyphs" textLength="80" x="104" y="192.8555">getIssuer(): Uri</text><ellipse cx="95" cy="202.1758" fill="#84BE84" rx="3" ry="3" style="stroke: #038048; stroke-width: 1.0;"/><text fill="#000000" font-family="sans-serif" font-size="11" lengthAdjust="spacingAndGlyphs" textLength="108" x="104" y="205.8105">getJurisdiction(): Uri</text><ellipse cx="95" cy="215.1309" fill="#84BE84" rx="3" ry="3" style="stroke: #038048; stroke-width: 1.0;"/><text fill="#000000" font-family="sans-serif" font-size="11" lengthAdjust="spacingAndGlyphs" textLength="167" x="104" y="218.7656">getCarrierAIDC(): Base64Binary</text><ellipse cx="95" cy="228.0859" fill="#84BE84" rx="3" ry="3" style="stroke: #038048; stroke-width: 1.0;"/><text fill="#000000" font-family="sans-serif" font-size="11" lengthAdjust="spacingAndGlyphs" textLength="122" x="104" y="231.7207">getCarrierHRF(): String</text><ellipse cx="95" cy="241.041" fill="#84BE84" rx="3" ry="3" style="stroke: #038048; stroke-width: 1.0;"/><text fill="#000000" font-family="sans-serif" font-size="11" lengthAdjust="spacingAndGlyphs" textLength="158" x="104" y="244.6758">getEntryType(): UDIEntryType</text><ellipse cx="95" cy="253.9961" fill="#84BE84" rx="3" ry="3" style="stroke: #038048; stroke-width: 1.0;"/><text fill="#000000" font-family="sans-serif" font-size="11" lengthAdjust="spacingAndGlyphs" textLength="122" x="104" y="257.6309">hasChildren(): boolean</text><ellipse cx="95" cy="266.9512" fill="#84BE84" rx="3" ry="3" style="stroke: #038048; stroke-width: 1.0;"/><text fill="#000000" font-family="sans-serif" font-size="11" lengthAdjust="spacingAndGlyphs" textLength="165" x="104" y="270.5859">accept(String, int, Visitor): void</text><ellipse cx="95" cy="279.9063" fill="#84BE84" rx="3" ry="3" style="stroke: #038048; stroke-width: 1.0;"/><text fill="#000000" font-family="sans-serif" font-size="11" lengthAdjust="spacingAndGlyphs" textLength="99" x="104" y="283.541">toBuilder(): Builder</text><ellipse cx="95" cy="292.8613" fill="#84BE84" rx="3" ry="3" style="stroke: #038048; stroke-width: 1.0;"/><text fill="#000000" font-family="sans-serif" font-size="11" lengthAdjust="spacingAndGlyphs" text-decoration="underline" textLength="89" x="104" y="296.4961">builder(): Builder</text></a><!--MD5=[efbff6997283c56b83e991a8eeb6a60a]
class com.ibm.fhir.model.type.BackboneElement--><a href="../type/BackboneElement.html" target="_top" title="../type/BackboneElement.html" xlink:actuate="onRequest" xlink:href="../type/BackboneElement.html" xlink:show="new" xlink:title="../type/BackboneElement.html" xlink:type="simple"><rect fill="#FEFECE" filter="url(#f10nh6d9qy7jnt)" height="59.2207" id="com.ibm.fhir.model.type.BackboneElement" style="stroke: #A80036; stroke-width: 1.5;" width="153" x="6" y="8"/><ellipse cx="21" cy="27.1328" fill="#A9DCDF" rx="11" ry="11" style="stroke: #A80036; stroke-width: 1.0;"/><path d="M21.1133,22.731 L19.9595,27.8027 L22.2754,27.8027 Z M19.6191,20.4897 L22.6157,20.4897 L25.9609,32.8828 L23.5122,32.8828 L22.7485,29.8198 L19.4697,29.8198 L18.7227,32.8828 L16.2739,32.8828 Z "/><text fill="#000000" font-family="sans-serif" font-size="14" font-style="italic" lengthAdjust="spacingAndGlyphs" textLength="121" x="35" y="26.5352">BackboneElement</text><text fill="#000000" font-family="sans-serif" font-size="10" font-style="italic" lengthAdjust="spacingAndGlyphs" textLength="118" x="36.5" y="39.1563">com.ibm.fhir.model.type</text><line style="stroke: #A80036; stroke-width: 1.5;" x1="7" x2="158" y1="46.2656" y2="46.2656"/><ellipse cx="17" cy="57.2656" fill="#84BE84" rx="3" ry="3" style="stroke: #038048; stroke-width: 1.0;"/><text fill="#000000" font-family="sans-serif" font-size="11" font-style="italic" lengthAdjust="spacingAndGlyphs" textLength="99" x="26" y="60.9004">toBuilder(): Builder</text></a><!--MD5=[bd01b02394843b8ad7a21fc5db800b34]
class com.ibm.fhir.model.resource.Device--><a href="Device.html" target="_top" title="Device.html" xlink:actuate="onRequest" xlink:href="Device.html" xlink:show="new" xlink:title="Device.html" xlink:type="simple"><rect fill="#FEFECE" filter="url(#f10nh6d9qy7jnt)" height="38.2656" id="com.ibm.fhir.model.resource.Device" style="stroke: #A80036; stroke-width: 1.5;" width="171" x="194" y="18.5"/><ellipse cx="209" cy="37.6328" fill="#ADD1B2" rx="11" ry="11" style="stroke: #A80036; stroke-width: 1.0;"/><path d="M211.4731,43.7759 Q210.8921,44.0747 210.2529,44.2241 Q209.6138,44.3735 208.9082,44.3735 Q206.4014,44.3735 205.0815,42.7217 Q203.7617,41.0698 203.7617,37.9487 Q203.7617,34.8193 205.0815,33.1675 Q206.4014,31.5156 208.9082,31.5156 Q209.6138,31.5156 210.2612,31.665 Q210.9087,31.8145 211.4731,32.1133 L211.4731,34.8359 Q210.8423,34.2549 210.2488,33.9851 Q209.6553,33.7153 209.0244,33.7153 Q207.6797,33.7153 206.9949,34.782 Q206.3101,35.8486 206.3101,37.9487 Q206.3101,40.0405 206.9949,41.1072 Q207.6797,42.1738 209.0244,42.1738 Q209.6553,42.1738 210.2488,41.9041 Q210.8423,41.6343 211.4731,41.0532 Z "/><text fill="#000000" font-family="sans-serif" font-size="14" lengthAdjust="spacingAndGlyphs" textLength="44" x="270.5" y="37.0352">Device</text><text fill="#000000" font-family="sans-serif" font-size="10" lengthAdjust="spacingAndGlyphs" textLength="139" x="223" y="49.6563">com.ibm.fhir.model.resource</text></a><!--MD5=[1edf513576ce9c2ca6e9e57147e5a3f2]
class com.ibm.fhir.model.resource.Device.UdiCarrier.Builder--><a href="Device.UdiCarrier.Builder.html" target="_top" title="Device.UdiCarrier.Builder.html" xlink:actuate="onRequest" xlink:href="Device.UdiCarrier.Builder.html" xlink:show="new" xlink:title="Device.UdiCarrier.Builder.html" xlink:type="simple"><rect fill="#FEFECE" filter="url(#f10nh6d9qy7jnt)" height="38.2656" id="com.ibm.fhir.model.resource.Device.UdiCarrier.Builder" style="stroke: #A80036; stroke-width: 1.5;" width="203" x="79" y="363"/><ellipse cx="94" cy="382.1328" fill="#ADD1B2" rx="11" ry="11" style="stroke: #A80036; stroke-width: 1.0;"/><path d="M96.4731,388.2759 Q95.8921,388.5747 95.2529,388.7241 Q94.6138,388.8735 93.9082,388.8735 Q91.4014,388.8735 90.0815,387.2217 Q88.7617,385.5698 88.7617,382.4487 Q88.7617,379.3193 90.0815,377.6675 Q91.4014,376.0156 93.9082,376.0156 Q94.6138,376.0156 95.2612,376.165 Q95.9087,376.3145 96.4731,376.6133 L96.4731,379.3359 Q95.8423,378.7549 95.2488,378.4851 Q94.6553,378.2153 94.0244,378.2153 Q92.6797,378.2153 91.9949,379.282 Q91.3101,380.3486 91.3101,382.4487 Q91.3101,384.5405 91.9949,385.6072 Q92.6797,386.6738 94.0244,386.6738 Q94.6553,386.6738 95.2488,386.4041 Q95.8423,386.1343 96.4731,385.5532 Z "/><text fill="#000000" font-family="sans-serif" font-size="14" lengthAdjust="spacingAndGlyphs" textLength="171" x="108" y="381.5352">Device.UdiCarrier.Builder</text><text fill="#000000" font-family="sans-serif" font-size="10" lengthAdjust="spacingAndGlyphs" textLength="139" x="124" y="394.1563">com.ibm.fhir.model.resource</text></a><!--MD5=[8f9a4f386a8fd5addfda3be2379fcdad]
reverse link com.ibm.fhir.model.type.BackboneElement to com.ibm.fhir.model.resource.Device.UdiCarrier--><path d="M108.7121,84.976 C115.8841,97.9662 123.8941,112.4741 131.8903,126.9569 " fill="none" id="com.ibm.fhir.model.type.BackboneElement&lt;-com.ibm.fhir.model.resource.Device.UdiCarrier" style="stroke: #A80036; stroke-width: 1.0;"/><polygon fill="none" points="102.4418,88.1016,98.903,67.2095,114.6978,81.3348,102.4418,88.1016" style="stroke: #A80036; stroke-width: 1.0;"/><!--MD5=[32789df630f056c6eed5c7450ad0b2e9]
reverse link com.ibm.fhir.model.resource.Device to com.ibm.fhir.model.resource.Device.UdiCarrier--><path d="M261.2068,70.2984 C252.2526,86.3527 240.9976,106.532 229.7592,126.6817 " fill="none" id="com.ibm.fhir.model.resource.Device&lt;-com.ibm.fhir.model.resource.Device.UdiCarrier" style="stroke: #A80036; stroke-width: 1.0;"/><ellipse cx="264.82" cy="63.8202" fill="#FFFFFF" rx="8" ry="8" style="stroke: #A80036; stroke-width: 1.0;"/><line style="stroke: #A80036; stroke-width: 1.0;" x1="260.9231" x2="268.7168" y1="70.807" y2="56.8335"/><line style="stroke: #A80036; stroke-width: 1.0;" x1="257.8332" x2="271.8067" y1="59.9234" y2="67.7171"/><!--MD5=[a2d98aaabc244c1734360bdfc8304a25]
reverse link com.ibm.fhir.model.resource.Device.UdiCarrier to com.ibm.fhir.model.resource.Device.UdiCarrier.Builder--><path d="M180.5,318.5552 C180.5,335.5539 180.5,351.3741 180.5,362.965 " fill="none" id="com.ibm.fhir.model.resource.Device.UdiCarrier&lt;-com.ibm.fhir.model.resource.Device.UdiCarrier.Builder" style="stroke: #A80036; stroke-width: 1.0;"/><ellipse cx="180.5" cy="311.3901" fill="#FFFFFF" rx="8" ry="8" style="stroke: #A80036; stroke-width: 1.0;"/><line style="stroke: #A80036; stroke-width: 1.0;" x1="180.5" x2="180.5" y1="319.3901" y2="303.3901"/><line style="stroke: #A80036; stroke-width: 1.0;" x1="172.5" x2="188.5" y1="311.3901" y2="311.3901"/><text fill="#888888" font-family="sans-serif" font-size="10" lengthAdjust="spacingAndGlyphs" textLength="182" x="100.5" y="420.668">UMLDoclet 2.0.7, PlantUML 1.2019.12</text><!--MD5=[599c0e68acb02cd44360aa2ea6acddf5]
@startuml
    set namespaceSeparator none
    hide empty fields
    hide empty methods

    class "<size:14>Device.UdiCarrier\n<size:10>com.ibm.fhir.model.resource" as com.ibm.fhir.model.resource.Device.UdiCarrier [[Device.UdiCarrier.html]] {
        +getDeviceIdentifier(): String
        +getIssuer(): Uri
        +getJurisdiction(): Uri
        +getCarrierAIDC(): Base64Binary
        +getCarrierHRF(): String
        +getEntryType(): UDIEntryType
        +hasChildren(): boolean
        +accept(String, int, Visitor): void
        +toBuilder(): Builder
        {static} +builder(): Builder
    }

    abstract class "<size:14>BackboneElement\n<size:10>com.ibm.fhir.model.type" as com.ibm.fhir.model.type.BackboneElement [[../type/BackboneElement.html]] {
        {abstract} +toBuilder(): Builder
    }
    class "<size:14>Device\n<size:10>com.ibm.fhir.model.resource" as com.ibm.fhir.model.resource.Device [[Device.html]]
    class "<size:14>Device.UdiCarrier.Builder\n<size:10>com.ibm.fhir.model.resource" as com.ibm.fhir.model.resource.Device.UdiCarrier.Builder [[Device.UdiCarrier.Builder.html]]

    com.ibm.fhir.model.type.BackboneElement <|- - com.ibm.fhir.model.resource.Device.UdiCarrier
    com.ibm.fhir.model.resource.Device +- - com.ibm.fhir.model.resource.Device.UdiCarrier
    com.ibm.fhir.model.resource.Device.UdiCarrier +- - com.ibm.fhir.model.resource.Device.UdiCarrier.Builder

    center footer UMLDoclet 2.0.7, PlantUML 1.2019.12
@enduml

PlantUML version 1.2019.12(Sun Nov 03 05:24:54 EST 2019)
(APACHE source distribution)
Java Runtime: OpenJDK Runtime Environment
JVM: OpenJDK 64-Bit Server VM
Java Version: 11.0.4+11
Operating System: Mac OS X
Default Encoding: UTF-8
Language: en
Country: US
--></g></svg>