<?xml version="1.0" encoding="UTF-8" standalone="no"?><svg xmlns="http://www.w3.org/2000/svg" xmlns:xlink="http://www.w3.org/1999/xlink" contentScriptType="application/ecmascript" contentStyleType="text/css" height="382px" preserveAspectRatio="none" style="width:376px;height:382px;" version="1.1" viewBox="0 0 376 382" width="376px" zoomAndPan="magnify"><defs><filter height="300%" id="fi6dy4dd6s0ng" width="300%" x="-1" y="-1"><feGaussianBlur result="blurOut" stdDeviation="2.0"/><feColorMatrix in="blurOut" result="blurOut2" type="matrix" values="0 0 0 0 0 0 0 0 0 0 0 0 0 0 0 0 0 0 .4 0"/><feOffset dx="4.0" dy="4.0" in="blurOut2" result="blurOut3"/><feBlend in="SourceGraphic" in2="blurOut3" mode="normal"/></filter></defs><g><!--MD5=[125680135201d8a524c5d46f731b86ac]
class com.ibm.fhir.model.resource.Invoice.Participant--><a href="Invoice.Participant.html" target="_top" title="Invoice.Participant.html" xlink:actuate="onRequest" xlink:href="Invoice.Participant.html" xlink:show="new" xlink:title="Invoice.Participant.html" xlink:type="simple"><rect fill="#FEFECE" filter="url(#fi6dy4dd6s0ng)" height="123.9961" id="com.ibm.fhir.model.resource.Invoice.Participant" style="stroke: #A80036; stroke-width: 1.5;" width="191" x="85" y="127"/><ellipse cx="109" cy="146.1328" fill="#ADD1B2" rx="11" ry="11" style="stroke: #A80036; stroke-width: 1.0;"/><path d="M111.4731,152.2759 Q110.8921,152.5747 110.2529,152.7241 Q109.6138,152.8735 108.9082,152.8735 Q106.4014,152.8735 105.0815,151.2217 Q103.7617,149.5698 103.7617,146.4487 Q103.7617,143.3193 105.0815,141.6675 Q106.4014,140.0156 108.9082,140.0156 Q109.6138,140.0156 110.2612,140.165 Q110.9087,140.3145 111.4731,140.6133 L111.4731,143.3359 Q110.8423,142.7549 110.2488,142.4851 Q109.6553,142.2153 109.0244,142.2153 Q107.6797,142.2153 106.9949,143.282 Q106.3101,144.3486 106.3101,146.4487 Q106.3101,148.5405 106.9949,149.6072 Q107.6797,150.6738 109.0244,150.6738 Q109.6553,150.6738 110.2488,150.4041 Q110.8423,150.1343 111.4731,149.5532 Z "/><text fill="#000000" font-family="sans-serif" font-size="14" lengthAdjust="spacingAndGlyphs" textLength="125" x="132" y="145.5352">Invoice.Participant</text><text fill="#000000" font-family="sans-serif" font-size="10" lengthAdjust="spacingAndGlyphs" textLength="139" x="125" y="158.1563">com.ibm.fhir.model.resource</text><line style="stroke: #A80036; stroke-width: 1.5;" x1="86" x2="275" y1="165.2656" y2="165.2656"/><ellipse cx="96" cy="176.2656" fill="#84BE84" rx="3" ry="3" style="stroke: #038048; stroke-width: 1.0;"/><text fill="#000000" font-family="sans-serif" font-size="11" lengthAdjust="spacingAndGlyphs" textLength="149" x="105" y="179.9004">getRole(): CodeableConcept</text><ellipse cx="96" cy="189.2207" fill="#84BE84" rx="3" ry="3" style="stroke: #038048; stroke-width: 1.0;"/><text fill="#000000" font-family="sans-serif" font-size="11" lengthAdjust="spacingAndGlyphs" textLength="114" x="105" y="192.8555">getActor(): Reference</text><ellipse cx="96" cy="202.1758" fill="#84BE84" rx="3" ry="3" style="stroke: #038048; stroke-width: 1.0;"/><text fill="#000000" font-family="sans-serif" font-size="11" lengthAdjust="spacingAndGlyphs" textLength="122" x="105" y="205.8105">hasChildren(): boolean</text><ellipse cx="96" cy="215.1309" fill="#84BE84" rx="3" ry="3" style="stroke: #038048; stroke-width: 1.0;"/><text fill="#000000" font-family="sans-serif" font-size="11" lengthAdjust="spacingAndGlyphs" textLength="165" x="105" y="218.7656">accept(String, int, Visitor): void</text><ellipse cx="96" cy="228.0859" fill="#84BE84" rx="3" ry="3" style="stroke: #038048; stroke-width: 1.0;"/><text fill="#000000" font-family="sans-serif" font-size="11" lengthAdjust="spacingAndGlyphs" textLength="99" x="105" y="231.7207">toBuilder(): Builder</text><ellipse cx="96" cy="241.041" fill="#84BE84" rx="3" ry="3" style="stroke: #038048; stroke-width: 1.0;"/><text fill="#000000" font-family="sans-serif" font-size="11" lengthAdjust="spacingAndGlyphs" text-decoration="underline" textLength="89" x="105" y="244.6758">builder(): Builder</text></a><!--MD5=[efbff6997283c56b83e991a8eeb6a60a]
class com.ibm.fhir.model.type.BackboneElement--><a href="../type/BackboneElement.html" target="_top" title="../type/BackboneElement.html" xlink:actuate="onRequest" xlink:href="../type/BackboneElement.html" xlink:show="new" xlink:title="../type/BackboneElement.html" xlink:type="simple"><rect fill="#FEFECE" filter="url(#fi6dy4dd6s0ng)" height="59.2207" id="com.ibm.fhir.model.type.BackboneElement" style="stroke: #A80036; stroke-width: 1.5;" width="153" x="6" y="8"/><ellipse cx="21" cy="27.1328" fill="#A9DCDF" rx="11" ry="11" style="stroke: #A80036; stroke-width: 1.0;"/><path d="M21.1133,22.731 L19.9595,27.8027 L22.2754,27.8027 Z M19.6191,20.4897 L22.6157,20.4897 L25.9609,32.8828 L23.5122,32.8828 L22.7485,29.8198 L19.4697,29.8198 L18.7227,32.8828 L16.2739,32.8828 Z "/><text fill="#000000" font-family="sans-serif" font-size="14" font-style="italic" lengthAdjust="spacingAndGlyphs" textLength="121" x="35" y="26.5352">BackboneElement</text><text fill="#000000" font-family="sans-serif" font-size="10" font-style="italic" lengthAdjust="spacingAndGlyphs" textLength="118" x="36.5" y="39.1563">com.ibm.fhir.model.type</text><line style="stroke: #A80036; stroke-width: 1.5;" x1="7" x2="158" y1="46.2656" y2="46.2656"/><ellipse cx="17" cy="57.2656" fill="#84BE84" rx="3" ry="3" style="stroke: #038048; stroke-width: 1.0;"/><text fill="#000000" font-family="sans-serif" font-size="11" font-style="italic" lengthAdjust="spacingAndGlyphs" textLength="99" x="26" y="60.9004">toBuilder(): Builder</text></a><!--MD5=[d29518afa586cc2fbe08450eb4109abb]
class com.ibm.fhir.model.resource.Invoice--><a href="Invoice.html" target="_top" title="Invoice.html" xlink:actuate="onRequest" xlink:href="Invoice.html" xlink:show="new" xlink:title="Invoice.html" xlink:type="simple"><rect fill="#FEFECE" filter="url(#fi6dy4dd6s0ng)" height="38.2656" id="com.ibm.fhir.model.resource.Invoice" style="stroke: #A80036; stroke-width: 1.5;" width="171" x="194" y="18.5"/><ellipse cx="209" cy="37.6328" fill="#ADD1B2" rx="11" ry="11" style="stroke: #A80036; stroke-width: 1.0;"/><path d="M211.4731,43.7759 Q210.8921,44.0747 210.2529,44.2241 Q209.6138,44.3735 208.9082,44.3735 Q206.4014,44.3735 205.0815,42.7217 Q203.7617,41.0698 203.7617,37.9487 Q203.7617,34.8193 205.0815,33.1675 Q206.4014,31.5156 208.9082,31.5156 Q209.6138,31.5156 210.2612,31.665 Q210.9087,31.8145 211.4731,32.1133 L211.4731,34.8359 Q210.8423,34.2549 210.2488,33.9851 Q209.6553,33.7153 209.0244,33.7153 Q207.6797,33.7153 206.9949,34.782 Q206.3101,35.8486 206.3101,37.9487 Q206.3101,40.0405 206.9949,41.1072 Q207.6797,42.1738 209.0244,42.1738 Q209.6553,42.1738 210.2488,41.9041 Q210.8423,41.6343 211.4731,41.0532 Z "/><text fill="#000000" font-family="sans-serif" font-size="14" lengthAdjust="spacingAndGlyphs" textLength="48" x="268.5" y="37.0352">Invoice</text><text fill="#000000" font-family="sans-serif" font-size="10" lengthAdjust="spacingAndGlyphs" textLength="139" x="223" y="49.6563">com.ibm.fhir.model.resource</text></a><!--MD5=[0d9e28588e50123e4a3e5e383177e843]
class com.ibm.fhir.model.resource.Invoice.Participant.Builder--><a href="Invoice.Participant.Builder.html" target="_top" title="Invoice.Participant.Builder.html" xlink:actuate="onRequest" xlink:href="Invoice.Participant.Builder.html" xlink:show="new" xlink:title="Invoice.Participant.Builder.html" xlink:type="simple"><rect fill="#FEFECE" filter="url(#fi6dy4dd6s0ng)" height="38.2656" id="com.ibm.fhir.model.resource.Invoice.Participant.Builder" style="stroke: #A80036; stroke-width: 1.5;" width="209" x="76" y="311"/><ellipse cx="91" cy="330.1328" fill="#ADD1B2" rx="11" ry="11" style="stroke: #A80036; stroke-width: 1.0;"/><path d="M93.4731,336.2759 Q92.8921,336.5747 92.2529,336.7241 Q91.6138,336.8735 90.9082,336.8735 Q88.4014,336.8735 87.0815,335.2217 Q85.7617,333.5698 85.7617,330.4487 Q85.7617,327.3193 87.0815,325.6675 Q88.4014,324.0156 90.9082,324.0156 Q91.6138,324.0156 92.2612,324.165 Q92.9087,324.3145 93.4731,324.6133 L93.4731,327.3359 Q92.8423,326.7549 92.2488,326.4851 Q91.6553,326.2153 91.0244,326.2153 Q89.6797,326.2153 88.9949,327.282 Q88.3101,328.3486 88.3101,330.4487 Q88.3101,332.5405 88.9949,333.6072 Q89.6797,334.6738 91.0244,334.6738 Q91.6553,334.6738 92.2488,334.4041 Q92.8423,334.1343 93.4731,333.5532 Z "/><text fill="#000000" font-family="sans-serif" font-size="14" lengthAdjust="spacingAndGlyphs" textLength="177" x="105" y="329.5352">Invoice.Participant.Builder</text><text fill="#000000" font-family="sans-serif" font-size="10" lengthAdjust="spacingAndGlyphs" textLength="139" x="124" y="342.1563">com.ibm.fhir.model.resource</text></a><!--MD5=[eafc9484de041ca4582b6b999e7de3fc]
reverse link com.ibm.fhir.model.type.BackboneElement to com.ibm.fhir.model.resource.Invoice.Participant--><path d="M112.5006,83.8785 C121.2832,97.4557 131.0295,112.5226 140.3359,126.9096 " fill="none" id="com.ibm.fhir.model.type.BackboneElement&lt;-com.ibm.fhir.model.resource.Invoice.Participant" style="stroke: #A80036; stroke-width: 1.0;"/><polygon fill="none" points="106.6133,87.6652,101.628,67.0704,118.3683,80.0613,106.6133,87.6652" style="stroke: #A80036; stroke-width: 1.0;"/><!--MD5=[7d77bfd70188630ad8387cfef1ee1f78]
reverse link com.ibm.fhir.model.resource.Invoice to com.ibm.fhir.model.resource.Invoice.Participant--><path d="M258.5652,69.5366 C247.6924,86.1753 234.0241,107.0919 221.1756,126.7541 " fill="none" id="com.ibm.fhir.model.resource.Invoice&lt;-com.ibm.fhir.model.resource.Invoice.Participant" style="stroke: #A80036; stroke-width: 1.0;"/><ellipse cx="262.5854" cy="63.3845" fill="#FFFFFF" rx="8" ry="8" style="stroke: #A80036; stroke-width: 1.0;"/><line style="stroke: #A80036; stroke-width: 1.0;" x1="258.2091" x2="266.9616" y1="70.0814" y2="56.6876"/><line style="stroke: #A80036; stroke-width: 1.0;" x1="255.8885" x2="269.2823" y1="59.0083" y2="67.7607"/><!--MD5=[ff4a5f1968678f422213dc747db80a3c]
reverse link com.ibm.fhir.model.resource.Invoice.Participant to com.ibm.fhir.model.resource.Invoice.Participant.Builder--><path d="M180.5,266.4678 C180.5,282.9897 180.5,298.9963 180.5,310.8098 " fill="none" id="com.ibm.fhir.model.resource.Invoice.Participant&lt;-com.ibm.fhir.model.resource.Invoice.Participant.Builder" style="stroke: #A80036; stroke-width: 1.0;"/><ellipse cx="180.5" cy="259.2551" fill="#FFFFFF" rx="8" ry="8" style="stroke: #A80036; stroke-width: 1.0;"/><line style="stroke: #A80036; stroke-width: 1.0;" x1="180.5" x2="180.5" y1="267.2551" y2="251.2551"/><line style="stroke: #A80036; stroke-width: 1.0;" x1="172.5" x2="188.5" y1="259.2551" y2="259.2551"/><text fill="#888888" font-family="sans-serif" font-size="10" lengthAdjust="spacingAndGlyphs" textLength="182" x="100.5" y="368.668">UMLDoclet 2.0.7, PlantUML 1.2019.12</text><!--MD5=[dbab7aaf5c0f06ca705608273d9960bf]
@startuml
    set namespaceSeparator none
    hide empty fields
    hide empty methods

    class "<size:14>Invoice.Participant\n<size:10>com.ibm.fhir.model.resource" as com.ibm.fhir.model.resource.Invoice.Participant [[Invoice.Participant.html]] {
        +getRole(): CodeableConcept
        +getActor(): Reference
        +hasChildren(): boolean
        +accept(String, int, Visitor): void
        +toBuilder(): Builder
        {static} +builder(): Builder
    }

    abstract class "<size:14>BackboneElement\n<size:10>com.ibm.fhir.model.type" as com.ibm.fhir.model.type.BackboneElement [[../type/BackboneElement.html]] {
        {abstract} +toBuilder(): Builder
    }
    class "<size:14>Invoice\n<size:10>com.ibm.fhir.model.resource" as com.ibm.fhir.model.resource.Invoice [[Invoice.html]]
    class "<size:14>Invoice.Participant.Builder\n<size:10>com.ibm.fhir.model.resource" as com.ibm.fhir.model.resource.Invoice.Participant.Builder [[Invoice.Participant.Builder.html]]

    com.ibm.fhir.model.type.BackboneElement <|- - com.ibm.fhir.model.resource.Invoice.Participant
    com.ibm.fhir.model.resource.Invoice +- - com.ibm.fhir.model.resource.Invoice.Participant
    com.ibm.fhir.model.resource.Invoice.Participant +- - com.ibm.fhir.model.resource.Invoice.Participant.Builder

    center footer UMLDoclet 2.0.7, PlantUML 1.2019.12
@enduml

PlantUML version 1.2019.12(Sun Nov 03 05:24:54 EST 2019)
(APACHE source distribution)
Java Runtime: OpenJDK Runtime Environment
JVM: OpenJDK 64-Bit Server VM
Java Version: 11.0.4+11
Operating System: Mac OS X
Default Encoding: UTF-8
Language: en
Country: US
--></g></svg>