<?xml version="1.0" encoding="UTF-8" standalone="no"?><svg xmlns="http://www.w3.org/2000/svg" xmlns:xlink="http://www.w3.org/1999/xlink" contentScriptType="application/ecmascript" contentStyleType="text/css" height="323px" preserveAspectRatio="none" style="width:428px;height:323px;" version="1.1" viewBox="0 0 428 323" width="428px" zoomAndPan="magnify"><defs><filter height="300%" id="f1k717rb1tk4j5" width="300%" x="-1" y="-1"><feGaussianBlur result="blurOut" stdDeviation="2.0"/><feColorMatrix in="blurOut" result="blurOut2" type="matrix" values="0 0 0 0 0 0 0 0 0 0 0 0 0 0 0 0 0 0 .4 0"/><feOffset dx="4.0" dy="4.0" in="blurOut2" result="blurOut3"/><feBlend in="SourceGraphic" in2="blurOut3" mode="normal"/></filter></defs><g><!--MD5=[a3ae4125ebaa86bb918505f229a5b859]
class com.ibm.fhir.model.resource.Medication.Batch.Builder--><a href="Medication.Batch.Builder.html" target="_top" title="Medication.Batch.Builder.html" xlink:actuate="onRequest" xlink:href="Medication.Batch.Builder.html" xlink:show="new" xlink:title="Medication.Batch.Builder.html" xlink:type="simple"><rect fill="#FEFECE" filter="url(#f1k717rb1tk4j5)" height="162.8613" id="com.ibm.fhir.model.resource.Medication.Batch.Builder" style="stroke: #A80036; stroke-width: 1.5;" width="300" x="69.5" y="127"/><ellipse cx="131.25" cy="146.1328" fill="#ADD1B2" rx="11" ry="11" style="stroke: #A80036; stroke-width: 1.0;"/><path d="M133.7231,152.2759 Q133.1421,152.5747 132.5029,152.7241 Q131.8638,152.8735 131.1582,152.8735 Q128.6514,152.8735 127.3315,151.2217 Q126.0117,149.5698 126.0117,146.4487 Q126.0117,143.3193 127.3315,141.6675 Q128.6514,140.0156 131.1582,140.0156 Q131.8638,140.0156 132.5112,140.165 Q133.1587,140.3145 133.7231,140.6133 L133.7231,143.3359 Q133.0923,142.7549 132.4988,142.4851 Q131.9053,142.2153 131.2744,142.2153 Q129.9297,142.2153 129.2449,143.282 Q128.5601,144.3486 128.5601,146.4487 Q128.5601,148.5405 129.2449,149.6072 Q129.9297,150.6738 131.2744,150.6738 Q131.9053,150.6738 132.4988,150.4041 Q133.0923,150.1343 133.7231,149.5532 Z "/><text fill="#000000" font-family="sans-serif" font-size="14" lengthAdjust="spacingAndGlyphs" textLength="168" x="151.75" y="145.5352">Medication.Batch.Builder</text><text fill="#000000" font-family="sans-serif" font-size="10" lengthAdjust="spacingAndGlyphs" textLength="139" x="166.25" y="158.1563">com.ibm.fhir.model.resource</text><line style="stroke: #A80036; stroke-width: 1.5;" x1="70.5" x2="368.5" y1="165.2656" y2="165.2656"/><ellipse cx="80.5" cy="176.2656" fill="#84BE84" rx="3" ry="3" style="stroke: #038048; stroke-width: 1.0;"/><text fill="#000000" font-family="sans-serif" font-size="11" lengthAdjust="spacingAndGlyphs" textLength="93" x="89.5" y="179.9004">id(String): Builder</text><ellipse cx="80.5" cy="189.2207" fill="#84BE84" rx="3" ry="3" style="stroke: #038048; stroke-width: 1.0;"/><text fill="#000000" font-family="sans-serif" font-size="11" lengthAdjust="spacingAndGlyphs" textLength="166" x="89.5" y="192.8555">extension(Extension...): Builder</text><ellipse cx="80.5" cy="202.1758" fill="#84BE84" rx="3" ry="3" style="stroke: #038048; stroke-width: 1.0;"/><text fill="#000000" font-family="sans-serif" font-size="11" lengthAdjust="spacingAndGlyphs" textLength="229" x="89.5" y="205.8105">extension(Collection&lt;Extension&gt;): Builder</text><ellipse cx="80.5" cy="215.1309" fill="#84BE84" rx="3" ry="3" style="stroke: #038048; stroke-width: 1.0;"/><text fill="#000000" font-family="sans-serif" font-size="11" lengthAdjust="spacingAndGlyphs" textLength="211" x="89.5" y="218.7656">modifierExtension(Extension...): Builder</text><ellipse cx="80.5" cy="228.0859" fill="#84BE84" rx="3" ry="3" style="stroke: #038048; stroke-width: 1.0;"/><text fill="#000000" font-family="sans-serif" font-size="11" lengthAdjust="spacingAndGlyphs" textLength="274" x="89.5" y="231.7207">modifierExtension(Collection&lt;Extension&gt;): Builder</text><ellipse cx="80.5" cy="241.041" fill="#84BE84" rx="3" ry="3" style="stroke: #038048; stroke-width: 1.0;"/><text fill="#000000" font-family="sans-serif" font-size="11" lengthAdjust="spacingAndGlyphs" textLength="140" x="89.5" y="244.6758">lotNumber(String): Builder</text><ellipse cx="80.5" cy="253.9961" fill="#84BE84" rx="3" ry="3" style="stroke: #038048; stroke-width: 1.0;"/><text fill="#000000" font-family="sans-serif" font-size="11" lengthAdjust="spacingAndGlyphs" textLength="180" x="89.5" y="257.6309">expirationDate(DateTime): Builder</text><ellipse cx="80.5" cy="266.9512" fill="#84BE84" rx="3" ry="3" style="stroke: #038048; stroke-width: 1.0;"/><text fill="#000000" font-family="sans-serif" font-size="11" lengthAdjust="spacingAndGlyphs" textLength="70" x="89.5" y="270.5859">build(): Batch</text><polygon fill="#FFFF44" points="80.5,274.9063,84.5,278.9063,80.5,282.9063,76.5,278.9063" style="stroke: #B38D22; stroke-width: 1.0;"/><text fill="#000000" font-family="sans-serif" font-size="11" lengthAdjust="spacingAndGlyphs" textLength="106" x="89.5" y="283.541">from(Batch): Builder</text></a><!--MD5=[b7b0ea86c8a299e1957933e33e561193]
class com.ibm.fhir.model.type.BackboneElement.Builder--><a href="../type/BackboneElement.Builder.html" target="_top" title="../type/BackboneElement.Builder.html" xlink:actuate="onRequest" xlink:href="../type/BackboneElement.Builder.html" xlink:show="new" xlink:title="../type/BackboneElement.Builder.html" xlink:type="simple"><rect fill="#FEFECE" filter="url(#f1k717rb1tk4j5)" height="59.2207" id="com.ibm.fhir.model.type.BackboneElement.Builder" style="stroke: #A80036; stroke-width: 1.5;" width="205" x="6" y="8"/><ellipse cx="21" cy="27.1328" fill="#A9DCDF" rx="11" ry="11" style="stroke: #A80036; stroke-width: 1.0;"/><path d="M21.1133,22.731 L19.9595,27.8027 L22.2754,27.8027 Z M19.6191,20.4897 L22.6157,20.4897 L25.9609,32.8828 L23.5122,32.8828 L22.7485,29.8198 L19.4697,29.8198 L18.7227,32.8828 L16.2739,32.8828 Z "/><text fill="#000000" font-family="sans-serif" font-size="14" font-style="italic" lengthAdjust="spacingAndGlyphs" textLength="173" x="35" y="26.5352">BackboneElement.Builder</text><text fill="#000000" font-family="sans-serif" font-size="10" font-style="italic" lengthAdjust="spacingAndGlyphs" textLength="118" x="62.5" y="39.1563">com.ibm.fhir.model.type</text><line style="stroke: #A80036; stroke-width: 1.5;" x1="7" x2="210" y1="46.2656" y2="46.2656"/><ellipse cx="17" cy="57.2656" fill="#84BE84" rx="3" ry="3" style="stroke: #038048; stroke-width: 1.0;"/><text fill="#000000" font-family="sans-serif" font-size="11" font-style="italic" lengthAdjust="spacingAndGlyphs" textLength="134" x="26" y="60.9004">build(): BackboneElement</text></a><!--MD5=[2eb73263e60ef26aae73214fc17d6458]
class com.ibm.fhir.model.resource.Medication.Batch--><a href="Medication.Batch.html" target="_top" title="Medication.Batch.html" xlink:actuate="onRequest" xlink:href="Medication.Batch.html" xlink:show="new" xlink:title="Medication.Batch.html" xlink:type="simple"><rect fill="#FEFECE" filter="url(#f1k717rb1tk4j5)" height="38.2656" id="com.ibm.fhir.model.resource.Medication.Batch" style="stroke: #A80036; stroke-width: 1.5;" width="171" x="246" y="18.5"/><ellipse cx="261" cy="37.6328" fill="#ADD1B2" rx="11" ry="11" style="stroke: #A80036; stroke-width: 1.0;"/><path d="M263.4731,43.7759 Q262.8921,44.0747 262.2529,44.2241 Q261.6138,44.3735 260.9082,44.3735 Q258.4014,44.3735 257.0815,42.7217 Q255.7617,41.0698 255.7617,37.9487 Q255.7617,34.8193 257.0815,33.1675 Q258.4014,31.5156 260.9082,31.5156 Q261.6138,31.5156 262.2612,31.665 Q262.9087,31.8145 263.4731,32.1133 L263.4731,34.8359 Q262.8423,34.2549 262.2488,33.9851 Q261.6553,33.7153 261.0244,33.7153 Q259.6797,33.7153 258.9949,34.782 Q258.3101,35.8486 258.3101,37.9487 Q258.3101,40.0405 258.9949,41.1072 Q259.6797,42.1738 261.0244,42.1738 Q261.6553,42.1738 262.2488,41.9041 Q262.8423,41.6343 263.4731,41.0532 Z "/><text fill="#000000" font-family="sans-serif" font-size="14" lengthAdjust="spacingAndGlyphs" textLength="116" x="286.5" y="37.0352">Medication.Batch</text><text fill="#000000" font-family="sans-serif" font-size="10" lengthAdjust="spacingAndGlyphs" textLength="139" x="275" y="49.6563">com.ibm.fhir.model.resource</text></a><!--MD5=[1fd13ebd46e236ee448e169f84747a34]
reverse link com.ibm.fhir.model.type.BackboneElement.Builder to com.ibm.fhir.model.resource.Medication.Batch.Builder--><path d="M138.8112,84.1956 C147.4024,97.4307 157.0157,112.2404 166.5296,126.897 " fill="none" id="com.ibm.fhir.model.type.BackboneElement.Builder&lt;-com.ibm.fhir.model.resource.Medication.Batch.Builder" style="stroke: #A80036; stroke-width: 1.0;"/><polygon fill="none" points="132.8527,87.8728,127.8347,67.2859,144.5957,80.2502,132.8527,87.8728" style="stroke: #A80036; stroke-width: 1.0;"/><!--MD5=[99247e3c3edd56c7a35355f74a7b8442]
reverse link com.ibm.fhir.model.resource.Medication.Batch to com.ibm.fhir.model.resource.Medication.Batch.Builder--><path d="M310.6278,69.3674 C299.9331,85.6959 286.3714,106.4018 273.0001,126.8169 " fill="none" id="com.ibm.fhir.model.resource.Medication.Batch&lt;-com.ibm.fhir.model.resource.Medication.Batch.Builder" style="stroke: #A80036; stroke-width: 1.0;"/><ellipse cx="314.4866" cy="63.4758" fill="#FFFFFF" rx="8" ry="8" style="stroke: #A80036; stroke-width: 1.0;"/><line style="stroke: #A80036; stroke-width: 1.0;" x1="310.1033" x2="318.8699" y1="70.1681" y2="56.7835"/><line style="stroke: #A80036; stroke-width: 1.0;" x1="307.7943" x2="321.1789" y1="59.0925" y2="67.8591"/><text fill="#888888" font-family="sans-serif" font-size="10" lengthAdjust="spacingAndGlyphs" textLength="182" x="126.5" y="309.668">UMLDoclet 2.0.7, PlantUML 1.2019.12</text><!--MD5=[8a76b38df04367b36231ea755b8d3858]
@startuml
    set namespaceSeparator none
    hide empty fields
    hide empty methods

    class "<size:14>Medication.Batch.Builder\n<size:10>com.ibm.fhir.model.resource" as com.ibm.fhir.model.resource.Medication.Batch.Builder [[Medication.Batch.Builder.html]] {
        +id(String): Builder
        +extension(Extension...): Builder
        +extension(Collection<Extension>): Builder
        +modifierExtension(Extension...): Builder
        +modifierExtension(Collection<Extension>): Builder
        +lotNumber(String): Builder
        +expirationDate(DateTime): Builder
        +build(): Batch
        #from(Batch): Builder
    }

    abstract class "<size:14>BackboneElement.Builder\n<size:10>com.ibm.fhir.model.type" as com.ibm.fhir.model.type.BackboneElement.Builder [[../type/BackboneElement.Builder.html]] {
        {abstract} +build(): BackboneElement
    }
    class "<size:14>Medication.Batch\n<size:10>com.ibm.fhir.model.resource" as com.ibm.fhir.model.resource.Medication.Batch [[Medication.Batch.html]]

    com.ibm.fhir.model.type.BackboneElement.Builder <|- - com.ibm.fhir.model.resource.Medication.Batch.Builder
    com.ibm.fhir.model.resource.Medication.Batch +- - com.ibm.fhir.model.resource.Medication.Batch.Builder

    center footer UMLDoclet 2.0.7, PlantUML 1.2019.12
@enduml

PlantUML version 1.2019.12(Sun Nov 03 05:24:54 EST 2019)
(APACHE source distribution)
Java Runtime: OpenJDK Runtime Environment
JVM: OpenJDK 64-Bit Server VM
Java Version: 11.0.4+11
Operating System: Mac OS X
Default Encoding: UTF-8
Language: en
Country: US
--></g></svg>