<?xml version="1.0" encoding="UTF-8" standalone="no"?><svg xmlns="http://www.w3.org/2000/svg" xmlns:xlink="http://www.w3.org/1999/xlink" contentScriptType="application/ecmascript" contentStyleType="text/css" height="447px" preserveAspectRatio="none" style="width:376px;height:447px;" version="1.1" viewBox="0 0 376 447" width="376px" zoomAndPan="magnify"><defs><filter height="300%" id="f15s91jt0qlo9h" width="300%" x="-1" y="-1"><feGaussianBlur result="blurOut" stdDeviation="2.0"/><feColorMatrix in="blurOut" result="blurOut2" type="matrix" values="0 0 0 0 0 0 0 0 0 0 0 0 0 0 0 0 0 0 .4 0"/><feOffset dx="4.0" dy="4.0" in="blurOut2" result="blurOut3"/><feBlend in="SourceGraphic" in2="blurOut3" mode="normal"/></filter></defs><g><!--MD5=[aae98e0a624c445d546d72a2e943268f]
class com.ibm.fhir.model.resource.MedicinalProduct.SpecialDesignation--><a href="MedicinalProduct.SpecialDesignation.html" target="_top" title="MedicinalProduct.SpecialDesignation.html" xlink:actuate="onRequest" xlink:href="MedicinalProduct.SpecialDesignation.html" xlink:show="new" xlink:title="MedicinalProduct.SpecialDesignation.html" xlink:type="simple"><rect fill="#FEFECE" filter="url(#f15s91jt0qlo9h)" height="188.7715" id="com.ibm.fhir.model.resource.MedicinalProduct.SpecialDesignation" style="stroke: #A80036; stroke-width: 1.5;" width="284" x="38.5" y="127"/><ellipse cx="53.5" cy="146.1328" fill="#ADD1B2" rx="11" ry="11" style="stroke: #A80036; stroke-width: 1.0;"/><path d="M55.9731,152.2759 Q55.3921,152.5747 54.7529,152.7241 Q54.1138,152.8735 53.4082,152.8735 Q50.9014,152.8735 49.5815,151.2217 Q48.2617,149.5698 48.2617,146.4487 Q48.2617,143.3193 49.5815,141.6675 Q50.9014,140.0156 53.4082,140.0156 Q54.1138,140.0156 54.7612,140.165 Q55.4087,140.3145 55.9731,140.6133 L55.9731,143.3359 Q55.3423,142.7549 54.7488,142.4851 Q54.1553,142.2153 53.5244,142.2153 Q52.1797,142.2153 51.4949,143.282 Q50.8101,144.3486 50.8101,146.4487 Q50.8101,148.5405 51.4949,149.6072 Q52.1797,150.6738 53.5244,150.6738 Q54.1553,150.6738 54.7488,150.4041 Q55.3423,150.1343 55.9731,149.5532 Z "/><text fill="#000000" font-family="sans-serif" font-size="14" lengthAdjust="spacingAndGlyphs" textLength="252" x="67.5" y="145.5352">MedicinalProduct.SpecialDesignation</text><text fill="#000000" font-family="sans-serif" font-size="10" lengthAdjust="spacingAndGlyphs" textLength="139" x="124" y="158.1563">com.ibm.fhir.model.resource</text><line style="stroke: #A80036; stroke-width: 1.5;" x1="39.5" x2="321.5" y1="165.2656" y2="165.2656"/><ellipse cx="49.5" cy="176.2656" fill="#84BE84" rx="3" ry="3" style="stroke: #038048; stroke-width: 1.0;"/><text fill="#000000" font-family="sans-serif" font-size="11" lengthAdjust="spacingAndGlyphs" textLength="164" x="58.5" y="179.9004">getIdentifier(): List&lt;Identifier&gt;</text><ellipse cx="49.5" cy="189.2207" fill="#84BE84" rx="3" ry="3" style="stroke: #038048; stroke-width: 1.0;"/><text fill="#000000" font-family="sans-serif" font-size="11" lengthAdjust="spacingAndGlyphs" textLength="152" x="58.5" y="192.8555">getType(): CodeableConcept</text><ellipse cx="49.5" cy="202.1758" fill="#84BE84" rx="3" ry="3" style="stroke: #038048; stroke-width: 1.0;"/><text fill="#000000" font-family="sans-serif" font-size="11" lengthAdjust="spacingAndGlyphs" textLength="193" x="58.5" y="205.8105">getIntendedUse(): CodeableConcept</text><ellipse cx="49.5" cy="215.1309" fill="#84BE84" rx="3" ry="3" style="stroke: #038048; stroke-width: 1.0;"/><text fill="#000000" font-family="sans-serif" font-size="11" lengthAdjust="spacingAndGlyphs" textLength="126" x="58.5" y="218.7656">getIndication(): Element</text><ellipse cx="49.5" cy="228.0859" fill="#84BE84" rx="3" ry="3" style="stroke: #038048; stroke-width: 1.0;"/><text fill="#000000" font-family="sans-serif" font-size="11" lengthAdjust="spacingAndGlyphs" textLength="159" x="58.5" y="231.7207">getStatus(): CodeableConcept</text><ellipse cx="49.5" cy="241.041" fill="#84BE84" rx="3" ry="3" style="stroke: #038048; stroke-width: 1.0;"/><text fill="#000000" font-family="sans-serif" font-size="11" lengthAdjust="spacingAndGlyphs" textLength="105" x="58.5" y="244.6758">getDate(): DateTime</text><ellipse cx="49.5" cy="253.9961" fill="#84BE84" rx="3" ry="3" style="stroke: #038048; stroke-width: 1.0;"/><text fill="#000000" font-family="sans-serif" font-size="11" lengthAdjust="spacingAndGlyphs" textLength="166" x="58.5" y="257.6309">getSpecies(): CodeableConcept</text><ellipse cx="49.5" cy="266.9512" fill="#84BE84" rx="3" ry="3" style="stroke: #038048; stroke-width: 1.0;"/><text fill="#000000" font-family="sans-serif" font-size="11" lengthAdjust="spacingAndGlyphs" textLength="122" x="58.5" y="270.5859">hasChildren(): boolean</text><ellipse cx="49.5" cy="279.9063" fill="#84BE84" rx="3" ry="3" style="stroke: #038048; stroke-width: 1.0;"/><text fill="#000000" font-family="sans-serif" font-size="11" lengthAdjust="spacingAndGlyphs" textLength="165" x="58.5" y="283.541">accept(String, int, Visitor): void</text><ellipse cx="49.5" cy="292.8613" fill="#84BE84" rx="3" ry="3" style="stroke: #038048; stroke-width: 1.0;"/><text fill="#000000" font-family="sans-serif" font-size="11" lengthAdjust="spacingAndGlyphs" textLength="99" x="58.5" y="296.4961">toBuilder(): Builder</text><ellipse cx="49.5" cy="305.8164" fill="#84BE84" rx="3" ry="3" style="stroke: #038048; stroke-width: 1.0;"/><text fill="#000000" font-family="sans-serif" font-size="11" lengthAdjust="spacingAndGlyphs" text-decoration="underline" textLength="89" x="58.5" y="309.4512">builder(): Builder</text></a><!--MD5=[efbff6997283c56b83e991a8eeb6a60a]
class com.ibm.fhir.model.type.BackboneElement--><a href="../type/BackboneElement.html" target="_top" title="../type/BackboneElement.html" xlink:actuate="onRequest" xlink:href="../type/BackboneElement.html" xlink:show="new" xlink:title="../type/BackboneElement.html" xlink:type="simple"><rect fill="#FEFECE" filter="url(#f15s91jt0qlo9h)" height="59.2207" id="com.ibm.fhir.model.type.BackboneElement" style="stroke: #A80036; stroke-width: 1.5;" width="153" x="6" y="8"/><ellipse cx="21" cy="27.1328" fill="#A9DCDF" rx="11" ry="11" style="stroke: #A80036; stroke-width: 1.0;"/><path d="M21.1133,22.731 L19.9595,27.8027 L22.2754,27.8027 Z M19.6191,20.4897 L22.6157,20.4897 L25.9609,32.8828 L23.5122,32.8828 L22.7485,29.8198 L19.4697,29.8198 L18.7227,32.8828 L16.2739,32.8828 Z "/><text fill="#000000" font-family="sans-serif" font-size="14" font-style="italic" lengthAdjust="spacingAndGlyphs" textLength="121" x="35" y="26.5352">BackboneElement</text><text fill="#000000" font-family="sans-serif" font-size="10" font-style="italic" lengthAdjust="spacingAndGlyphs" textLength="118" x="36.5" y="39.1563">com.ibm.fhir.model.type</text><line style="stroke: #A80036; stroke-width: 1.5;" x1="7" x2="158" y1="46.2656" y2="46.2656"/><ellipse cx="17" cy="57.2656" fill="#84BE84" rx="3" ry="3" style="stroke: #038048; stroke-width: 1.0;"/><text fill="#000000" font-family="sans-serif" font-size="11" font-style="italic" lengthAdjust="spacingAndGlyphs" textLength="99" x="26" y="60.9004">toBuilder(): Builder</text></a><!--MD5=[8bd7d1db17a271934dda800b8f858252]
class com.ibm.fhir.model.resource.MedicinalProduct--><a href="MedicinalProduct.html" target="_top" title="MedicinalProduct.html" xlink:actuate="onRequest" xlink:href="MedicinalProduct.html" xlink:show="new" xlink:title="MedicinalProduct.html" xlink:type="simple"><rect fill="#FEFECE" filter="url(#f15s91jt0qlo9h)" height="38.2656" id="com.ibm.fhir.model.resource.MedicinalProduct" style="stroke: #A80036; stroke-width: 1.5;" width="171" x="194" y="18.5"/><ellipse cx="209" cy="37.6328" fill="#ADD1B2" rx="11" ry="11" style="stroke: #A80036; stroke-width: 1.0;"/><path d="M211.4731,43.7759 Q210.8921,44.0747 210.2529,44.2241 Q209.6138,44.3735 208.9082,44.3735 Q206.4014,44.3735 205.0815,42.7217 Q203.7617,41.0698 203.7617,37.9487 Q203.7617,34.8193 205.0815,33.1675 Q206.4014,31.5156 208.9082,31.5156 Q209.6138,31.5156 210.2612,31.665 Q210.9087,31.8145 211.4731,32.1133 L211.4731,34.8359 Q210.8423,34.2549 210.2488,33.9851 Q209.6553,33.7153 209.0244,33.7153 Q207.6797,33.7153 206.9949,34.782 Q206.3101,35.8486 206.3101,37.9487 Q206.3101,40.0405 206.9949,41.1072 Q207.6797,42.1738 209.0244,42.1738 Q209.6553,42.1738 210.2488,41.9041 Q210.8423,41.6343 211.4731,41.0532 Z "/><text fill="#000000" font-family="sans-serif" font-size="14" lengthAdjust="spacingAndGlyphs" textLength="118" x="233.5" y="37.0352">MedicinalProduct</text><text fill="#000000" font-family="sans-serif" font-size="10" lengthAdjust="spacingAndGlyphs" textLength="139" x="223" y="49.6563">com.ibm.fhir.model.resource</text></a><!--MD5=[bfc89e7339bafe091e25483d5ac4c585]
class com.ibm.fhir.model.resource.MedicinalProduct.SpecialDesignation.Builder--><a href="MedicinalProduct.SpecialDesignation.Builder.html" target="_top" title="MedicinalProduct.SpecialDesignation.Builder.html" xlink:actuate="onRequest" xlink:href="MedicinalProduct.SpecialDesignation.Builder.html" xlink:show="new" xlink:title="MedicinalProduct.SpecialDesignation.Builder.html" xlink:type="simple"><rect fill="#FEFECE" filter="url(#f15s91jt0qlo9h)" height="38.2656" id="com.ibm.fhir.model.resource.MedicinalProduct.SpecialDesignation.Builder" style="stroke: #A80036; stroke-width: 1.5;" width="336" x="12.5" y="376"/><ellipse cx="27.5" cy="395.1328" fill="#ADD1B2" rx="11" ry="11" style="stroke: #A80036; stroke-width: 1.0;"/><path d="M29.9731,401.2759 Q29.3921,401.5747 28.7529,401.7241 Q28.1138,401.8735 27.4082,401.8735 Q24.9014,401.8735 23.5815,400.2217 Q22.2617,398.5698 22.2617,395.4487 Q22.2617,392.3193 23.5815,390.6675 Q24.9014,389.0156 27.4082,389.0156 Q28.1138,389.0156 28.7612,389.165 Q29.4087,389.3145 29.9731,389.6133 L29.9731,392.3359 Q29.3423,391.7549 28.7488,391.4851 Q28.1553,391.2153 27.5244,391.2153 Q26.1797,391.2153 25.4949,392.282 Q24.8101,393.3486 24.8101,395.4487 Q24.8101,397.5405 25.4949,398.6072 Q26.1797,399.6738 27.5244,399.6738 Q28.1553,399.6738 28.7488,399.4041 Q29.3423,399.1343 29.9731,398.5532 Z "/><text fill="#000000" font-family="sans-serif" font-size="14" lengthAdjust="spacingAndGlyphs" textLength="304" x="41.5" y="394.5352">MedicinalProduct.SpecialDesignation.Builder</text><text fill="#000000" font-family="sans-serif" font-size="10" lengthAdjust="spacingAndGlyphs" textLength="139" x="124" y="407.1563">com.ibm.fhir.model.resource</text></a><!--MD5=[766aa440b20365ff45b5f775f791472a]
reverse link com.ibm.fhir.model.type.BackboneElement to com.ibm.fhir.model.resource.MedicinalProduct.SpecialDesignation--><path d="M107.6508,84.7218 C114.5385,97.654 122.2578,112.1473 130.0265,126.7335 " fill="none" id="com.ibm.fhir.model.type.BackboneElement&lt;-com.ibm.fhir.model.resource.MedicinalProduct.SpecialDesignation" style="stroke: #A80036; stroke-width: 1.0;"/><polygon fill="none" points="101.4689,88.0058,98.2454,67.0628,113.8256,81.4245,101.4689,88.0058" style="stroke: #A80036; stroke-width: 1.0;"/><!--MD5=[37e3781cdb0e613dc04f017eeb715b0c]
reverse link com.ibm.fhir.model.resource.MedicinalProduct to com.ibm.fhir.model.resource.MedicinalProduct.SpecialDesignation--><path d="M261.8837,70.2414 C253.2832,86.2262 242.4473,106.3656 231.5129,126.6882 " fill="none" id="com.ibm.fhir.model.resource.MedicinalProduct&lt;-com.ibm.fhir.model.resource.MedicinalProduct.SpecialDesignation" style="stroke: #A80036; stroke-width: 1.0;"/><ellipse cx="265.3019" cy="63.8885" fill="#FFFFFF" rx="8" ry="8" style="stroke: #A80036; stroke-width: 1.0;"/><line style="stroke: #A80036; stroke-width: 1.0;" x1="261.5113" x2="269.0924" y1="70.9335" y2="56.8435"/><line style="stroke: #A80036; stroke-width: 1.0;" x1="258.2569" x2="272.3469" y1="60.098" y2="67.679"/><!--MD5=[841c3e479781b55e99c7131bff739074]
reverse link com.ibm.fhir.model.resource.MedicinalProduct.SpecialDesignation to com.ibm.fhir.model.resource.MedicinalProduct.SpecialDesignation.Builder--><path d="M180.5,331.3491 C180.5,348.3872 180.5,364.1432 180.5,375.7167 " fill="none" id="com.ibm.fhir.model.resource.MedicinalProduct.SpecialDesignation&lt;-com.ibm.fhir.model.resource.MedicinalProduct.SpecialDesignation.Builder" style="stroke: #A80036; stroke-width: 1.0;"/><ellipse cx="180.5001" cy="324.119" fill="#FFFFFF" rx="8" ry="8" style="stroke: #A80036; stroke-width: 1.0;"/><line style="stroke: #A80036; stroke-width: 1.0;" x1="180.5002" x2="180.5" y1="332.119" y2="316.119"/><line style="stroke: #A80036; stroke-width: 1.0;" x1="172.5001" x2="188.5001" y1="324.1191" y2="324.1189"/><text fill="#888888" font-family="sans-serif" font-size="10" lengthAdjust="spacingAndGlyphs" textLength="182" x="100.5" y="433.668">UMLDoclet 2.0.7, PlantUML 1.2019.12</text><!--MD5=[d874f5e98c494e93963aaee7937470d7]
@startuml
    set namespaceSeparator none
    hide empty fields
    hide empty methods

    class "<size:14>MedicinalProduct.SpecialDesignation\n<size:10>com.ibm.fhir.model.resource" as com.ibm.fhir.model.resource.MedicinalProduct.SpecialDesignation [[MedicinalProduct.SpecialDesignation.html]] {
        +getIdentifier(): List<Identifier>
        +getType(): CodeableConcept
        +getIntendedUse(): CodeableConcept
        +getIndication(): Element
        +getStatus(): CodeableConcept
        +getDate(): DateTime
        +getSpecies(): CodeableConcept
        +hasChildren(): boolean
        +accept(String, int, Visitor): void
        +toBuilder(): Builder
        {static} +builder(): Builder
    }

    abstract class "<size:14>BackboneElement\n<size:10>com.ibm.fhir.model.type" as com.ibm.fhir.model.type.BackboneElement [[../type/BackboneElement.html]] {
        {abstract} +toBuilder(): Builder
    }
    class "<size:14>MedicinalProduct\n<size:10>com.ibm.fhir.model.resource" as com.ibm.fhir.model.resource.MedicinalProduct [[MedicinalProduct.html]]
    class "<size:14>MedicinalProduct.SpecialDesignation.Builder\n<size:10>com.ibm.fhir.model.resource" as com.ibm.fhir.model.resource.MedicinalProduct.SpecialDesignation.Builder [[MedicinalProduct.SpecialDesignation.Builder.html]]

    com.ibm.fhir.model.type.BackboneElement <|- - com.ibm.fhir.model.resource.MedicinalProduct.SpecialDesignation
    com.ibm.fhir.model.resource.MedicinalProduct +- - com.ibm.fhir.model.resource.MedicinalProduct.SpecialDesignation
    com.ibm.fhir.model.resource.MedicinalProduct.SpecialDesignation +- - com.ibm.fhir.model.resource.MedicinalProduct.SpecialDesignation.Builder

    center footer UMLDoclet 2.0.7, PlantUML 1.2019.12
@enduml

PlantUML version 1.2019.12(Sun Nov 03 05:24:54 EST 2019)
(APACHE source distribution)
Java Runtime: OpenJDK Runtime Environment
JVM: OpenJDK 64-Bit Server VM
Java Version: 11.0.4+11
Operating System: Mac OS X
Default Encoding: UTF-8
Language: en
Country: US
--></g></svg>