<?xml version="1.0" encoding="UTF-8" standalone="no"?><svg xmlns="http://www.w3.org/2000/svg" xmlns:xlink="http://www.w3.org/1999/xlink" contentScriptType="application/ecmascript" contentStyleType="text/css" height="602px" preserveAspectRatio="none" style="width:894px;height:602px;" version="1.1" viewBox="0 0 894 602" width="894px" zoomAndPan="magnify"><defs><filter height="300%" id="fvxiu65yhb9p2" width="300%" x="-1" y="-1"><feGaussianBlur result="blurOut" stdDeviation="2.0"/><feColorMatrix in="blurOut" result="blurOut2" type="matrix" values="0 0 0 0 0 0 0 0 0 0 0 0 0 0 0 0 0 0 .4 0"/><feOffset dx="4.0" dy="4.0" in="blurOut2" result="blurOut3"/><feBlend in="SourceGraphic" in2="blurOut3" mode="normal"/></filter></defs><g><!--MD5=[98a190ce486398fec492bb58dc6a13c3]
class com.ibm.fhir.model.resource.MedicationAdministration--><a href="MedicationAdministration.html" target="_top" title="MedicationAdministration.html" xlink:actuate="onRequest" xlink:href="MedicationAdministration.html" xlink:show="new" xlink:title="MedicationAdministration.html" xlink:type="simple"><rect fill="#FEFECE" filter="url(#fvxiu65yhb9p2)" height="344.2324" id="com.ibm.fhir.model.resource.MedicationAdministration" style="stroke: #A80036; stroke-width: 1.5;" width="270" x="308.5" y="127"/><ellipse cx="350.95" cy="146.1328" fill="#ADD1B2" rx="11" ry="11" style="stroke: #A80036; stroke-width: 1.0;"/><path d="M353.4231,152.2759 Q352.8421,152.5747 352.2029,152.7241 Q351.5638,152.8735 350.8582,152.8735 Q348.3514,152.8735 347.0315,151.2217 Q345.7117,149.5698 345.7117,146.4487 Q345.7117,143.3193 347.0315,141.6675 Q348.3514,140.0156 350.8582,140.0156 Q351.5638,140.0156 352.2112,140.165 Q352.8587,140.3145 353.4231,140.6133 L353.4231,143.3359 Q352.7923,142.7549 352.1988,142.4851 Q351.6053,142.2153 350.9744,142.2153 Q349.6297,142.2153 348.9449,143.282 Q348.2601,144.3486 348.2601,146.4487 Q348.2601,148.5405 348.9449,149.6072 Q349.6297,150.6738 350.9744,150.6738 Q351.6053,150.6738 352.1988,150.4041 Q352.7923,150.1343 353.4231,149.5532 Z "/><text fill="#000000" font-family="sans-serif" font-size="14" lengthAdjust="spacingAndGlyphs" textLength="177" x="371.05" y="145.5352">MedicationAdministration</text><text fill="#000000" font-family="sans-serif" font-size="10" lengthAdjust="spacingAndGlyphs" textLength="139" x="390.05" y="158.1563">com.ibm.fhir.model.resource</text><line style="stroke: #A80036; stroke-width: 1.5;" x1="309.5" x2="577.5" y1="165.2656" y2="165.2656"/><ellipse cx="319.5" cy="176.2656" fill="#84BE84" rx="3" ry="3" style="stroke: #038048; stroke-width: 1.0;"/><text fill="#000000" font-family="sans-serif" font-size="11" lengthAdjust="spacingAndGlyphs" textLength="164" x="328.5" y="179.9004">getIdentifier(): List&lt;Identifier&gt;</text><ellipse cx="319.5" cy="189.2207" fill="#84BE84" rx="3" ry="3" style="stroke: #038048; stroke-width: 1.0;"/><text fill="#000000" font-family="sans-serif" font-size="11" lengthAdjust="spacingAndGlyphs" textLength="146" x="328.5" y="192.8555">getInstantiates(): List&lt;Uri&gt;</text><ellipse cx="319.5" cy="202.1758" fill="#84BE84" rx="3" ry="3" style="stroke: #038048; stroke-width: 1.0;"/><text fill="#000000" font-family="sans-serif" font-size="11" lengthAdjust="spacingAndGlyphs" textLength="155" x="328.5" y="205.8105">getPartOf(): List&lt;Reference&gt;</text><ellipse cx="319.5" cy="215.1309" fill="#84BE84" rx="3" ry="3" style="stroke: #038048; stroke-width: 1.0;"/><text fill="#000000" font-family="sans-serif" font-size="11" lengthAdjust="spacingAndGlyphs" textLength="235" x="328.5" y="218.7656">getStatus(): MedicationAdministrationStatus</text><ellipse cx="319.5" cy="228.0859" fill="#84BE84" rx="3" ry="3" style="stroke: #038048; stroke-width: 1.0;"/><text fill="#000000" font-family="sans-serif" font-size="11" lengthAdjust="spacingAndGlyphs" textLength="235" x="328.5" y="231.7207">getStatusReason(): List&lt;CodeableConcept&gt;</text><ellipse cx="319.5" cy="241.041" fill="#84BE84" rx="3" ry="3" style="stroke: #038048; stroke-width: 1.0;"/><text fill="#000000" font-family="sans-serif" font-size="11" lengthAdjust="spacingAndGlyphs" textLength="175" x="328.5" y="244.6758">getCategory(): CodeableConcept</text><ellipse cx="319.5" cy="253.9961" fill="#84BE84" rx="3" ry="3" style="stroke: #038048; stroke-width: 1.0;"/><text fill="#000000" font-family="sans-serif" font-size="11" lengthAdjust="spacingAndGlyphs" textLength="131" x="328.5" y="257.6309">getMedication(): Element</text><ellipse cx="319.5" cy="266.9512" fill="#84BE84" rx="3" ry="3" style="stroke: #038048; stroke-width: 1.0;"/><text fill="#000000" font-family="sans-serif" font-size="11" lengthAdjust="spacingAndGlyphs" textLength="123" x="328.5" y="270.5859">getSubject(): Reference</text><ellipse cx="319.5" cy="279.9063" fill="#84BE84" rx="3" ry="3" style="stroke: #038048; stroke-width: 1.0;"/><text fill="#000000" font-family="sans-serif" font-size="11" lengthAdjust="spacingAndGlyphs" textLength="127" x="328.5" y="283.541">getContext(): Reference</text><ellipse cx="319.5" cy="292.8613" fill="#84BE84" rx="3" ry="3" style="stroke: #038048; stroke-width: 1.0;"/><text fill="#000000" font-family="sans-serif" font-size="11" lengthAdjust="spacingAndGlyphs" textLength="244" x="328.5" y="296.4961">getSupportingInformation(): List&lt;Reference&gt;</text><ellipse cx="319.5" cy="305.8164" fill="#84BE84" rx="3" ry="3" style="stroke: #038048; stroke-width: 1.0;"/><text fill="#000000" font-family="sans-serif" font-size="11" lengthAdjust="spacingAndGlyphs" textLength="118" x="328.5" y="309.4512">getEffective(): Element</text><ellipse cx="319.5" cy="318.7715" fill="#84BE84" rx="3" ry="3" style="stroke: #038048; stroke-width: 1.0;"/><text fill="#000000" font-family="sans-serif" font-size="11" lengthAdjust="spacingAndGlyphs" textLength="176" x="328.5" y="322.4063">getPerformer(): List&lt;Performer&gt;</text><ellipse cx="319.5" cy="331.7266" fill="#84BE84" rx="3" ry="3" style="stroke: #038048; stroke-width: 1.0;"/><text fill="#000000" font-family="sans-serif" font-size="11" lengthAdjust="spacingAndGlyphs" textLength="230" x="328.5" y="335.3613">getReasonCode(): List&lt;CodeableConcept&gt;</text><ellipse cx="319.5" cy="344.6816" fill="#84BE84" rx="3" ry="3" style="stroke: #038048; stroke-width: 1.0;"/><text fill="#000000" font-family="sans-serif" font-size="11" lengthAdjust="spacingAndGlyphs" textLength="213" x="328.5" y="348.3164">getReasonReference(): List&lt;Reference&gt;</text><ellipse cx="319.5" cy="357.6367" fill="#84BE84" rx="3" ry="3" style="stroke: #038048; stroke-width: 1.0;"/><text fill="#000000" font-family="sans-serif" font-size="11" lengthAdjust="spacingAndGlyphs" textLength="127" x="328.5" y="361.2715">getRequest(): Reference</text><ellipse cx="319.5" cy="370.5918" fill="#84BE84" rx="3" ry="3" style="stroke: #038048; stroke-width: 1.0;"/><text fill="#000000" font-family="sans-serif" font-size="11" lengthAdjust="spacingAndGlyphs" textLength="156" x="328.5" y="374.2266">getDevice(): List&lt;Reference&gt;</text><ellipse cx="319.5" cy="383.5469" fill="#84BE84" rx="3" ry="3" style="stroke: #038048; stroke-width: 1.0;"/><text fill="#000000" font-family="sans-serif" font-size="11" lengthAdjust="spacingAndGlyphs" textLength="153" x="328.5" y="387.1816">getNote(): List&lt;Annotation&gt;</text><ellipse cx="319.5" cy="396.502" fill="#84BE84" rx="3" ry="3" style="stroke: #038048; stroke-width: 1.0;"/><text fill="#000000" font-family="sans-serif" font-size="11" lengthAdjust="spacingAndGlyphs" textLength="111" x="328.5" y="400.1367">getDosage(): Dosage</text><ellipse cx="319.5" cy="409.457" fill="#84BE84" rx="3" ry="3" style="stroke: #038048; stroke-width: 1.0;"/><text fill="#000000" font-family="sans-serif" font-size="11" lengthAdjust="spacingAndGlyphs" textLength="189" x="328.5" y="413.0918">getEventHistory(): List&lt;Reference&gt;</text><ellipse cx="319.5" cy="422.4121" fill="#84BE84" rx="3" ry="3" style="stroke: #038048; stroke-width: 1.0;"/><text fill="#000000" font-family="sans-serif" font-size="11" lengthAdjust="spacingAndGlyphs" textLength="122" x="328.5" y="426.0469">hasChildren(): boolean</text><ellipse cx="319.5" cy="435.3672" fill="#84BE84" rx="3" ry="3" style="stroke: #038048; stroke-width: 1.0;"/><text fill="#000000" font-family="sans-serif" font-size="11" lengthAdjust="spacingAndGlyphs" textLength="165" x="328.5" y="439.002">accept(String, int, Visitor): void</text><ellipse cx="319.5" cy="448.3223" fill="#84BE84" rx="3" ry="3" style="stroke: #038048; stroke-width: 1.0;"/><text fill="#000000" font-family="sans-serif" font-size="11" lengthAdjust="spacingAndGlyphs" textLength="99" x="328.5" y="451.957">toBuilder(): Builder</text><ellipse cx="319.5" cy="461.2773" fill="#84BE84" rx="3" ry="3" style="stroke: #038048; stroke-width: 1.0;"/><text fill="#000000" font-family="sans-serif" font-size="11" lengthAdjust="spacingAndGlyphs" text-decoration="underline" textLength="89" x="328.5" y="464.9121">builder(): Builder</text></a><!--MD5=[5a92b081cf79a7020013158c64ef85a4]
class com.ibm.fhir.model.resource.DomainResource--><a href="DomainResource.html" target="_top" title="DomainResource.html" xlink:actuate="onRequest" xlink:href="DomainResource.html" xlink:show="new" xlink:title="DomainResource.html" xlink:type="simple"><rect fill="#FEFECE" filter="url(#fvxiu65yhb9p2)" height="59.2207" id="com.ibm.fhir.model.resource.DomainResource" style="stroke: #A80036; stroke-width: 1.5;" width="171" x="358" y="8"/><ellipse cx="373" cy="27.1328" fill="#A9DCDF" rx="11" ry="11" style="stroke: #A80036; stroke-width: 1.0;"/><path d="M373.1133,22.731 L371.9595,27.8027 L374.2754,27.8027 Z M371.6191,20.4897 L374.6157,20.4897 L377.9609,32.8828 L375.5122,32.8828 L374.7485,29.8198 L371.4697,29.8198 L370.7227,32.8828 L368.2739,32.8828 Z "/><text fill="#000000" font-family="sans-serif" font-size="14" font-style="italic" lengthAdjust="spacingAndGlyphs" textLength="116" x="398.5" y="26.5352">DomainResource</text><text fill="#000000" font-family="sans-serif" font-size="10" font-style="italic" lengthAdjust="spacingAndGlyphs" textLength="139" x="387" y="39.1563">com.ibm.fhir.model.resource</text><line style="stroke: #A80036; stroke-width: 1.5;" x1="359" x2="528" y1="46.2656" y2="46.2656"/><ellipse cx="369" cy="57.2656" fill="#84BE84" rx="3" ry="3" style="stroke: #038048; stroke-width: 1.0;"/><text fill="#000000" font-family="sans-serif" font-size="11" font-style="italic" lengthAdjust="spacingAndGlyphs" textLength="99" x="378" y="60.9004">toBuilder(): Builder</text></a><!--MD5=[8acd5bda8b04c87f2c7cc6c760b5f29b]
class com.ibm.fhir.model.resource.MedicationAdministration.Builder--><a href="MedicationAdministration.Builder.html" target="_top" title="MedicationAdministration.Builder.html" xlink:actuate="onRequest" xlink:href="MedicationAdministration.Builder.html" xlink:show="new" xlink:title="MedicationAdministration.Builder.html" xlink:type="simple"><rect fill="#FEFECE" filter="url(#fvxiu65yhb9p2)" height="38.2656" id="com.ibm.fhir.model.resource.MedicationAdministration.Builder" style="stroke: #A80036; stroke-width: 1.5;" width="261" x="6" y="531"/><ellipse cx="21" cy="550.1328" fill="#ADD1B2" rx="11" ry="11" style="stroke: #A80036; stroke-width: 1.0;"/><path d="M23.4731,556.2759 Q22.8921,556.5747 22.2529,556.7241 Q21.6138,556.8735 20.9082,556.8735 Q18.4014,556.8735 17.0815,555.2217 Q15.7617,553.5698 15.7617,550.4487 Q15.7617,547.3193 17.0815,545.6675 Q18.4014,544.0156 20.9082,544.0156 Q21.6138,544.0156 22.2612,544.165 Q22.9087,544.3145 23.4731,544.6133 L23.4731,547.3359 Q22.8423,546.7549 22.2488,546.4851 Q21.6553,546.2153 21.0244,546.2153 Q19.6797,546.2153 18.9949,547.282 Q18.3101,548.3486 18.3101,550.4487 Q18.3101,552.5405 18.9949,553.6072 Q19.6797,554.6738 21.0244,554.6738 Q21.6553,554.6738 22.2488,554.4041 Q22.8423,554.1343 23.4731,553.5532 Z "/><text fill="#000000" font-family="sans-serif" font-size="14" lengthAdjust="spacingAndGlyphs" textLength="229" x="35" y="549.5352">MedicationAdministration.Builder</text><text fill="#000000" font-family="sans-serif" font-size="10" lengthAdjust="spacingAndGlyphs" textLength="139" x="80" y="562.1563">com.ibm.fhir.model.resource</text></a><!--MD5=[8e102b79e979154ffaa99973c8f68d37]
class com.ibm.fhir.model.resource.MedicationAdministration.Performer--><a href="MedicationAdministration.Performer.html" target="_top" title="MedicationAdministration.Performer.html" xlink:actuate="onRequest" xlink:href="MedicationAdministration.Performer.html" xlink:show="new" xlink:title="MedicationAdministration.Performer.html" xlink:type="simple"><rect fill="#FEFECE" filter="url(#fvxiu65yhb9p2)" height="38.2656" id="com.ibm.fhir.model.resource.MedicationAdministration.Performer" style="stroke: #A80036; stroke-width: 1.5;" width="282" x="302.5" y="531"/><ellipse cx="317.5" cy="550.1328" fill="#ADD1B2" rx="11" ry="11" style="stroke: #A80036; stroke-width: 1.0;"/><path d="M319.9731,556.2759 Q319.3921,556.5747 318.7529,556.7241 Q318.1138,556.8735 317.4082,556.8735 Q314.9014,556.8735 313.5815,555.2217 Q312.2617,553.5698 312.2617,550.4487 Q312.2617,547.3193 313.5815,545.6675 Q314.9014,544.0156 317.4082,544.0156 Q318.1138,544.0156 318.7612,544.165 Q319.4087,544.3145 319.9731,544.6133 L319.9731,547.3359 Q319.3423,546.7549 318.7488,546.4851 Q318.1553,546.2153 317.5244,546.2153 Q316.1797,546.2153 315.4949,547.282 Q314.8101,548.3486 314.8101,550.4487 Q314.8101,552.5405 315.4949,553.6072 Q316.1797,554.6738 317.5244,554.6738 Q318.1553,554.6738 318.7488,554.4041 Q319.3423,554.1343 319.9731,553.5532 Z "/><text fill="#000000" font-family="sans-serif" font-size="14" lengthAdjust="spacingAndGlyphs" textLength="250" x="331.5" y="549.5352">MedicationAdministration.Performer</text><text fill="#000000" font-family="sans-serif" font-size="10" lengthAdjust="spacingAndGlyphs" textLength="139" x="387" y="562.1563">com.ibm.fhir.model.resource</text></a><!--MD5=[0bac46f6f9089f706155add95ae51bec]
class com.ibm.fhir.model.resource.MedicationAdministration.Dosage--><a href="MedicationAdministration.Dosage.html" target="_top" title="MedicationAdministration.Dosage.html" xlink:actuate="onRequest" xlink:href="MedicationAdministration.Dosage.html" xlink:show="new" xlink:title="MedicationAdministration.Dosage.html" xlink:type="simple"><rect fill="#FEFECE" filter="url(#fvxiu65yhb9p2)" height="38.2656" id="com.ibm.fhir.model.resource.MedicationAdministration.Dosage" style="stroke: #A80036; stroke-width: 1.5;" width="264" x="619.5" y="531"/><ellipse cx="634.5" cy="550.1328" fill="#ADD1B2" rx="11" ry="11" style="stroke: #A80036; stroke-width: 1.0;"/><path d="M636.9731,556.2759 Q636.3921,556.5747 635.7529,556.7241 Q635.1138,556.8735 634.4082,556.8735 Q631.9014,556.8735 630.5815,555.2217 Q629.2617,553.5698 629.2617,550.4487 Q629.2617,547.3193 630.5815,545.6675 Q631.9014,544.0156 634.4082,544.0156 Q635.1138,544.0156 635.7612,544.165 Q636.4087,544.3145 636.9731,544.6133 L636.9731,547.3359 Q636.3423,546.7549 635.7488,546.4851 Q635.1553,546.2153 634.5244,546.2153 Q633.1797,546.2153 632.4949,547.282 Q631.8101,548.3486 631.8101,550.4487 Q631.8101,552.5405 632.4949,553.6072 Q633.1797,554.6738 634.5244,554.6738 Q635.1553,554.6738 635.7488,554.4041 Q636.3423,554.1343 636.9731,553.5532 Z "/><text fill="#000000" font-family="sans-serif" font-size="14" lengthAdjust="spacingAndGlyphs" textLength="232" x="648.5" y="549.5352">MedicationAdministration.Dosage</text><text fill="#000000" font-family="sans-serif" font-size="10" lengthAdjust="spacingAndGlyphs" textLength="139" x="695" y="562.1563">com.ibm.fhir.model.resource</text></a><!--MD5=[7a7f5ccb7d7292096c3f6841cb9122c0]
reverse link com.ibm.fhir.model.resource.DomainResource to com.ibm.fhir.model.resource.MedicationAdministration--><path d="M443.5,87.5108 C443.5,99.4086 443.5,112.7721 443.5,126.8495 " fill="none" id="com.ibm.fhir.model.resource.DomainResource&lt;-com.ibm.fhir.model.resource.MedicationAdministration" style="stroke: #A80036; stroke-width: 1.0;"/><polygon fill="none" points="436.5001,87.2428,443.5,67.2428,450.5001,87.2427,436.5001,87.2428" style="stroke: #A80036; stroke-width: 1.0;"/><!--MD5=[068fc4dd2d504fb41284870b7ff2eceb]
reverse link com.ibm.fhir.model.resource.MedicationAdministration to com.ibm.fhir.model.resource.MedicationAdministration.Builder--><path d="M296.7484,418.9825 C243.699,462.3553 189.5726,506.6084 159.7795,530.9669 " fill="none" id="com.ibm.fhir.model.resource.MedicationAdministration&lt;-com.ibm.fhir.model.resource.MedicationAdministration.Builder" style="stroke: #A80036; stroke-width: 1.0;"/><ellipse cx="302.2051" cy="414.5212" fill="#FFFFFF" rx="8" ry="8" style="stroke: #A80036; stroke-width: 1.0;"/><line style="stroke: #A80036; stroke-width: 1.0;" x1="296.0116" x2="308.3986" y1="419.5848" y2="409.4575"/><line style="stroke: #A80036; stroke-width: 1.0;" x1="297.1414" x2="307.2688" y1="408.3277" y2="420.7147"/><!--MD5=[beb79aa13dfe8fc92a49bd763bc527c4]
reverse link com.ibm.fhir.model.resource.MedicationAdministration to com.ibm.fhir.model.resource.MedicationAdministration.Performer--><path d="M443.5,486.2994 C443.5,504.0566 443.5,519.6141 443.5,530.9088 " fill="none" id="com.ibm.fhir.model.resource.MedicationAdministration&lt;-com.ibm.fhir.model.resource.MedicationAdministration.Performer" style="stroke: #A80036; stroke-width: 1.0;"/><ellipse cx="443.5" cy="479.2707" fill="#FFFFFF" rx="8" ry="8" style="stroke: #A80036; stroke-width: 1.0;"/><line style="stroke: #A80036; stroke-width: 1.0;" x1="443.5" x2="443.5" y1="487.2707" y2="471.2707"/><line style="stroke: #A80036; stroke-width: 1.0;" x1="435.5" x2="451.5" y1="479.2707" y2="479.2707"/><!--MD5=[1a474fecb752665f768c0ea6e09c3e23]
reverse link com.ibm.fhir.model.resource.MedicationAdministration to com.ibm.fhir.model.resource.MedicationAdministration.Dosage--><path d="M590.3,418.6325 C643.6125,462.0787 698.0782,506.4647 728.0655,530.9024 " fill="none" id="com.ibm.fhir.model.resource.MedicationAdministration&lt;-com.ibm.fhir.model.resource.MedicationAdministration.Dosage" style="stroke: #A80036; stroke-width: 1.0;"/><ellipse cx="584.7948" cy="414.1461" fill="#FFFFFF" rx="8" ry="8" style="stroke: #A80036; stroke-width: 1.0;"/><line style="stroke: #A80036; stroke-width: 1.0;" x1="590.9964" x2="578.5933" y1="419.1999" y2="409.0923"/><line style="stroke: #A80036; stroke-width: 1.0;" x1="579.741" x2="589.8486" y1="420.3476" y2="407.9446"/><text fill="#888888" font-family="sans-serif" font-size="10" lengthAdjust="spacingAndGlyphs" textLength="182" x="360" y="588.668">UMLDoclet 2.0.7, PlantUML 1.2019.12</text><!--MD5=[4c1999317a55fcb73b7c2bfdf7be6a91]
@startuml
    set namespaceSeparator none
    hide empty fields
    hide empty methods

    class "<size:14>MedicationAdministration\n<size:10>com.ibm.fhir.model.resource" as com.ibm.fhir.model.resource.MedicationAdministration [[MedicationAdministration.html]] {
        +getIdentifier(): List<Identifier>
        +getInstantiates(): List<Uri>
        +getPartOf(): List<Reference>
        +getStatus(): MedicationAdministrationStatus
        +getStatusReason(): List<CodeableConcept>
        +getCategory(): CodeableConcept
        +getMedication(): Element
        +getSubject(): Reference
        +getContext(): Reference
        +getSupportingInformation(): List<Reference>
        +getEffective(): Element
        +getPerformer(): List<Performer>
        +getReasonCode(): List<CodeableConcept>
        +getReasonReference(): List<Reference>
        +getRequest(): Reference
        +getDevice(): List<Reference>
        +getNote(): List<Annotation>
        +getDosage(): Dosage
        +getEventHistory(): List<Reference>
        +hasChildren(): boolean
        +accept(String, int, Visitor): void
        +toBuilder(): Builder
        {static} +builder(): Builder
    }

    abstract class "<size:14>DomainResource\n<size:10>com.ibm.fhir.model.resource" as com.ibm.fhir.model.resource.DomainResource [[DomainResource.html]] {
        {abstract} +toBuilder(): Builder
    }
    class "<size:14>MedicationAdministration.Builder\n<size:10>com.ibm.fhir.model.resource" as com.ibm.fhir.model.resource.MedicationAdministration.Builder [[MedicationAdministration.Builder.html]]
    class "<size:14>MedicationAdministration.Performer\n<size:10>com.ibm.fhir.model.resource" as com.ibm.fhir.model.resource.MedicationAdministration.Performer [[MedicationAdministration.Performer.html]]
    class "<size:14>MedicationAdministration.Dosage\n<size:10>com.ibm.fhir.model.resource" as com.ibm.fhir.model.resource.MedicationAdministration.Dosage [[MedicationAdministration.Dosage.html]]

    com.ibm.fhir.model.resource.DomainResource <|- - com.ibm.fhir.model.resource.MedicationAdministration
    com.ibm.fhir.model.resource.MedicationAdministration +- - com.ibm.fhir.model.resource.MedicationAdministration.Builder
    com.ibm.fhir.model.resource.MedicationAdministration +- - com.ibm.fhir.model.resource.MedicationAdministration.Performer
    com.ibm.fhir.model.resource.MedicationAdministration +- - com.ibm.fhir.model.resource.MedicationAdministration.Dosage

    center footer UMLDoclet 2.0.7, PlantUML 1.2019.12
@enduml

PlantUML version 1.2019.12(Sun Nov 03 05:24:54 EST 2019)
(APACHE source distribution)
Java Runtime: OpenJDK Runtime Environment
JVM: OpenJDK 64-Bit Server VM
Java Version: 11.0.4+11
Operating System: Mac OS X
Default Encoding: UTF-8
Language: en
Country: US
--></g></svg>