<?xml version="1.0" encoding="UTF-8" standalone="no"?><svg xmlns="http://www.w3.org/2000/svg" xmlns:xlink="http://www.w3.org/1999/xlink" contentScriptType="application/ecmascript" contentStyleType="text/css" height="382px" preserveAspectRatio="none" style="width:626px;height:382px;" version="1.1" viewBox="0 0 626 382" width="626px" zoomAndPan="magnify"><defs><filter height="300%" id="fq45iaffjh7wi" width="300%" x="-1" y="-1"><feGaussianBlur result="blurOut" stdDeviation="2.0"/><feColorMatrix in="blurOut" result="blurOut2" type="matrix" values="0 0 0 0 0 0 0 0 0 0 0 0 0 0 0 0 0 0 .4 0"/><feOffset dx="4.0" dy="4.0" in="blurOut2" result="blurOut3"/><feBlend in="SourceGraphic" in2="blurOut3" mode="normal"/></filter></defs><g><!--MD5=[10e76b5509d3ddde1f8c30c68583d417]
class com.ibm.fhir.model.resource.MedicationKnowledge.AdministrationGuidelines.PatientCharacteristics--><a href="MedicationKnowledge.AdministrationGuidelines.PatientCharacteristics.html" target="_top" title="MedicationKnowledge.AdministrationGuidelines.PatientCharacteristics.html" xlink:actuate="onRequest" xlink:href="MedicationKnowledge.AdministrationGuidelines.PatientCharacteristics.html" xlink:show="new" xlink:title="MedicationKnowledge.AdministrationGuidelines.PatientCharacteristics.html" xlink:type="simple"><rect fill="#FEFECE" filter="url(#fq45iaffjh7wi)" height="123.9961" id="com.ibm.fhir.model.resource.MedicationKnowledge.AdministrationGuidelines.PatientCharacteristics" style="stroke: #A80036; stroke-width: 1.5;" width="513" x="32" y="127"/><ellipse cx="47" cy="146.1328" fill="#ADD1B2" rx="11" ry="11" style="stroke: #A80036; stroke-width: 1.0;"/><path d="M49.4731,152.2759 Q48.8921,152.5747 48.2529,152.7241 Q47.6138,152.8735 46.9082,152.8735 Q44.4014,152.8735 43.0815,151.2217 Q41.7617,149.5698 41.7617,146.4487 Q41.7617,143.3193 43.0815,141.6675 Q44.4014,140.0156 46.9082,140.0156 Q47.6138,140.0156 48.2612,140.165 Q48.9087,140.3145 49.4731,140.6133 L49.4731,143.3359 Q48.8423,142.7549 48.2488,142.4851 Q47.6553,142.2153 47.0244,142.2153 Q45.6797,142.2153 44.9949,143.282 Q44.3101,144.3486 44.3101,146.4487 Q44.3101,148.5405 44.9949,149.6072 Q45.6797,150.6738 47.0244,150.6738 Q47.6553,150.6738 48.2488,150.4041 Q48.8423,150.1343 49.4731,149.5532 Z "/><text fill="#000000" font-family="sans-serif" font-size="14" lengthAdjust="spacingAndGlyphs" textLength="481" x="61" y="145.5352">MedicationKnowledge.AdministrationGuidelines.PatientCharacteristics</text><text fill="#000000" font-family="sans-serif" font-size="10" lengthAdjust="spacingAndGlyphs" textLength="139" x="232" y="158.1563">com.ibm.fhir.model.resource</text><line style="stroke: #A80036; stroke-width: 1.5;" x1="33" x2="544" y1="165.2656" y2="165.2656"/><ellipse cx="43" cy="176.2656" fill="#84BE84" rx="3" ry="3" style="stroke: #038048; stroke-width: 1.0;"/><text fill="#000000" font-family="sans-serif" font-size="11" lengthAdjust="spacingAndGlyphs" textLength="148" x="52" y="179.9004">getCharacteristic(): Element</text><ellipse cx="43" cy="189.2207" fill="#84BE84" rx="3" ry="3" style="stroke: #038048; stroke-width: 1.0;"/><text fill="#000000" font-family="sans-serif" font-size="11" lengthAdjust="spacingAndGlyphs" textLength="129" x="52" y="192.8555">getValue(): List&lt;String&gt;</text><ellipse cx="43" cy="202.1758" fill="#84BE84" rx="3" ry="3" style="stroke: #038048; stroke-width: 1.0;"/><text fill="#000000" font-family="sans-serif" font-size="11" lengthAdjust="spacingAndGlyphs" textLength="122" x="52" y="205.8105">hasChildren(): boolean</text><ellipse cx="43" cy="215.1309" fill="#84BE84" rx="3" ry="3" style="stroke: #038048; stroke-width: 1.0;"/><text fill="#000000" font-family="sans-serif" font-size="11" lengthAdjust="spacingAndGlyphs" textLength="165" x="52" y="218.7656">accept(String, int, Visitor): void</text><ellipse cx="43" cy="228.0859" fill="#84BE84" rx="3" ry="3" style="stroke: #038048; stroke-width: 1.0;"/><text fill="#000000" font-family="sans-serif" font-size="11" lengthAdjust="spacingAndGlyphs" textLength="99" x="52" y="231.7207">toBuilder(): Builder</text><ellipse cx="43" cy="241.041" fill="#84BE84" rx="3" ry="3" style="stroke: #038048; stroke-width: 1.0;"/><text fill="#000000" font-family="sans-serif" font-size="11" lengthAdjust="spacingAndGlyphs" text-decoration="underline" textLength="89" x="52" y="244.6758">builder(): Builder</text></a><!--MD5=[efbff6997283c56b83e991a8eeb6a60a]
class com.ibm.fhir.model.type.BackboneElement--><a href="../type/BackboneElement.html" target="_top" title="../type/BackboneElement.html" xlink:actuate="onRequest" xlink:href="../type/BackboneElement.html" xlink:show="new" xlink:title="../type/BackboneElement.html" xlink:type="simple"><rect fill="#FEFECE" filter="url(#fq45iaffjh7wi)" height="59.2207" id="com.ibm.fhir.model.type.BackboneElement" style="stroke: #A80036; stroke-width: 1.5;" width="153" x="66" y="8"/><ellipse cx="81" cy="27.1328" fill="#A9DCDF" rx="11" ry="11" style="stroke: #A80036; stroke-width: 1.0;"/><path d="M81.1133,22.731 L79.9595,27.8027 L82.2754,27.8027 Z M79.6191,20.4897 L82.6157,20.4897 L85.9609,32.8828 L83.5122,32.8828 L82.7485,29.8198 L79.4697,29.8198 L78.7227,32.8828 L76.2739,32.8828 Z "/><text fill="#000000" font-family="sans-serif" font-size="14" font-style="italic" lengthAdjust="spacingAndGlyphs" textLength="121" x="95" y="26.5352">BackboneElement</text><text fill="#000000" font-family="sans-serif" font-size="10" font-style="italic" lengthAdjust="spacingAndGlyphs" textLength="118" x="96.5" y="39.1563">com.ibm.fhir.model.type</text><line style="stroke: #A80036; stroke-width: 1.5;" x1="67" x2="218" y1="46.2656" y2="46.2656"/><ellipse cx="77" cy="57.2656" fill="#84BE84" rx="3" ry="3" style="stroke: #038048; stroke-width: 1.0;"/><text fill="#000000" font-family="sans-serif" font-size="11" font-style="italic" lengthAdjust="spacingAndGlyphs" textLength="99" x="86" y="60.9004">toBuilder(): Builder</text></a><!--MD5=[b88f04073631258051beaae30739b91b]
class com.ibm.fhir.model.resource.MedicationKnowledge.AdministrationGuidelines--><a href="MedicationKnowledge.AdministrationGuidelines.html" target="_top" title="MedicationKnowledge.AdministrationGuidelines.html" xlink:actuate="onRequest" xlink:href="MedicationKnowledge.AdministrationGuidelines.html" xlink:show="new" xlink:title="MedicationKnowledge.AdministrationGuidelines.html" xlink:type="simple"><rect fill="#FEFECE" filter="url(#fq45iaffjh7wi)" height="38.2656" id="com.ibm.fhir.model.resource.MedicationKnowledge.AdministrationGuidelines" style="stroke: #A80036; stroke-width: 1.5;" width="361" x="254" y="18.5"/><ellipse cx="269" cy="37.6328" fill="#ADD1B2" rx="11" ry="11" style="stroke: #A80036; stroke-width: 1.0;"/><path d="M271.4731,43.7759 Q270.8921,44.0747 270.2529,44.2241 Q269.6138,44.3735 268.9082,44.3735 Q266.4014,44.3735 265.0815,42.7217 Q263.7617,41.0698 263.7617,37.9487 Q263.7617,34.8193 265.0815,33.1675 Q266.4014,31.5156 268.9082,31.5156 Q269.6138,31.5156 270.2612,31.665 Q270.9087,31.8145 271.4731,32.1133 L271.4731,34.8359 Q270.8423,34.2549 270.2488,33.9851 Q269.6553,33.7153 269.0244,33.7153 Q267.6797,33.7153 266.9949,34.782 Q266.3101,35.8486 266.3101,37.9487 Q266.3101,40.0405 266.9949,41.1072 Q267.6797,42.1738 269.0244,42.1738 Q269.6553,42.1738 270.2488,41.9041 Q270.8423,41.6343 271.4731,41.0532 Z "/><text fill="#000000" font-family="sans-serif" font-size="14" lengthAdjust="spacingAndGlyphs" textLength="329" x="283" y="37.0352">MedicationKnowledge.AdministrationGuidelines</text><text fill="#000000" font-family="sans-serif" font-size="10" lengthAdjust="spacingAndGlyphs" textLength="139" x="378" y="49.6563">com.ibm.fhir.model.resource</text></a><!--MD5=[0b8f76a77885f028471a079aae743822]
class com.ibm.fhir.model.resource.MedicationKnowledge.AdministrationGuidelines.PatientCharacteristics.Builder--><a href="MedicationKnowledge.AdministrationGuidelines.PatientCharacteristics.Builder.html" target="_top" title="MedicationKnowledge.AdministrationGuidelines.PatientCharacteristics.Builder.html" xlink:actuate="onRequest" xlink:href="MedicationKnowledge.AdministrationGuidelines.PatientCharacteristics.Builder.html" xlink:show="new" xlink:title="MedicationKnowledge.AdministrationGuidelines.PatientCharacteristics.Builder.html" xlink:type="simple"><rect fill="#FEFECE" filter="url(#fq45iaffjh7wi)" height="38.2656" id="com.ibm.fhir.model.resource.MedicationKnowledge.AdministrationGuidelines.PatientCharacteristics.Builder" style="stroke: #A80036; stroke-width: 1.5;" width="565" x="6" y="311"/><ellipse cx="21" cy="330.1328" fill="#ADD1B2" rx="11" ry="11" style="stroke: #A80036; stroke-width: 1.0;"/><path d="M23.4731,336.2759 Q22.8921,336.5747 22.2529,336.7241 Q21.6138,336.8735 20.9082,336.8735 Q18.4014,336.8735 17.0815,335.2217 Q15.7617,333.5698 15.7617,330.4487 Q15.7617,327.3193 17.0815,325.6675 Q18.4014,324.0156 20.9082,324.0156 Q21.6138,324.0156 22.2612,324.165 Q22.9087,324.3145 23.4731,324.6133 L23.4731,327.3359 Q22.8423,326.7549 22.2488,326.4851 Q21.6553,326.2153 21.0244,326.2153 Q19.6797,326.2153 18.9949,327.282 Q18.3101,328.3486 18.3101,330.4487 Q18.3101,332.5405 18.9949,333.6072 Q19.6797,334.6738 21.0244,334.6738 Q21.6553,334.6738 22.2488,334.4041 Q22.8423,334.1343 23.4731,333.5532 Z "/><text fill="#000000" font-family="sans-serif" font-size="14" lengthAdjust="spacingAndGlyphs" textLength="533" x="35" y="329.5352">MedicationKnowledge.AdministrationGuidelines.PatientCharacteristics.Builder</text><text fill="#000000" font-family="sans-serif" font-size="10" lengthAdjust="spacingAndGlyphs" textLength="139" x="232" y="342.1563">com.ibm.fhir.model.resource</text></a><!--MD5=[2f992b919281d5f99e53f1ed0afc28b1]
reverse link com.ibm.fhir.model.type.BackboneElement to com.ibm.fhir.model.resource.MedicationKnowledge.AdministrationGuidelines.PatientCharacteristics--><path d="M185.0035,81.6047 C198.6456,95.7607 214.0201,111.7143 228.6637,126.9096 " fill="none" id="com.ibm.fhir.model.type.BackboneElement&lt;-com.ibm.fhir.model.resource.MedicationKnowledge.AdministrationGuidelines.PatientCharacteristics" style="stroke: #A80036; stroke-width: 1.0;"/><polygon fill="none" points="179.8348,86.3289,170.9969,67.0704,189.9156,76.6141,179.8348,86.3289" style="stroke: #A80036; stroke-width: 1.0;"/><!--MD5=[cf84adfc8942e13a3e567752b7c25825]
reverse link com.ibm.fhir.model.resource.MedicationKnowledge.AdministrationGuidelines to com.ibm.fhir.model.resource.MedicationKnowledge.AdministrationGuidelines.PatientCharacteristics--><path d="M405.5305,67.5608 C389.2063,84.5 368.1925,106.3054 348.4862,126.7541 " fill="none" id="com.ibm.fhir.model.resource.MedicationKnowledge.AdministrationGuidelines&lt;-com.ibm.fhir.model.resource.MedicationKnowledge.AdministrationGuidelines.PatientCharacteristics" style="stroke: #A80036; stroke-width: 1.0;"/><ellipse cx="410.4577" cy="62.4481" fill="#FFFFFF" rx="8" ry="8" style="stroke: #A80036; stroke-width: 1.0;"/><line style="stroke: #A80036; stroke-width: 1.0;" x1="404.9064" x2="416.009" y1="68.2085" y2="56.6876"/><line style="stroke: #A80036; stroke-width: 1.0;" x1="404.6972" x2="416.2181" y1="56.8967" y2="67.9994"/><!--MD5=[a1afe14416ad06170d3dcf7f4d2533e2]
reverse link com.ibm.fhir.model.resource.MedicationKnowledge.AdministrationGuidelines.PatientCharacteristics to com.ibm.fhir.model.resource.MedicationKnowledge.AdministrationGuidelines.PatientCharacteristics.Builder--><path d="M288.5,266.4678 C288.5,282.9897 288.5,298.9963 288.5,310.8098 " fill="none" id="com.ibm.fhir.model.resource.MedicationKnowledge.AdministrationGuidelines.PatientCharacteristics&lt;-com.ibm.fhir.model.resource.MedicationKnowledge.AdministrationGuidelines.PatientCharacteristics.Builder" style="stroke: #A80036; stroke-width: 1.0;"/><ellipse cx="288.5" cy="259.2551" fill="#FFFFFF" rx="8" ry="8" style="stroke: #A80036; stroke-width: 1.0;"/><line style="stroke: #A80036; stroke-width: 1.0;" x1="288.5" x2="288.5" y1="267.2551" y2="251.2551"/><line style="stroke: #A80036; stroke-width: 1.0;" x1="280.5" x2="296.5" y1="259.2551" y2="259.2551"/><text fill="#888888" font-family="sans-serif" font-size="10" lengthAdjust="spacingAndGlyphs" textLength="182" x="225.5" y="368.668">UMLDoclet 2.0.7, PlantUML 1.2019.12</text><!--MD5=[79a17c6a9611fff59a29254ca5540624]
@startuml
    set namespaceSeparator none
    hide empty fields
    hide empty methods

    class "<size:14>MedicationKnowledge.AdministrationGuidelines.PatientCharacteristics\n<size:10>com.ibm.fhir.model.resource" as com.ibm.fhir.model.resource.MedicationKnowledge.AdministrationGuidelines.PatientCharacteristics [[MedicationKnowledge.AdministrationGuidelines.PatientCharacteristics.html]] {
        +getCharacteristic(): Element
        +getValue(): List<String>
        +hasChildren(): boolean
        +accept(String, int, Visitor): void
        +toBuilder(): Builder
        {static} +builder(): Builder
    }

    abstract class "<size:14>BackboneElement\n<size:10>com.ibm.fhir.model.type" as com.ibm.fhir.model.type.BackboneElement [[../type/BackboneElement.html]] {
        {abstract} +toBuilder(): Builder
    }
    class "<size:14>MedicationKnowledge.AdministrationGuidelines\n<size:10>com.ibm.fhir.model.resource" as com.ibm.fhir.model.resource.MedicationKnowledge.AdministrationGuidelines [[MedicationKnowledge.AdministrationGuidelines.html]]
    class "<size:14>MedicationKnowledge.AdministrationGuidelines.PatientCharacteristics.Builder\n<size:10>com.ibm.fhir.model.resource" as com.ibm.fhir.model.resource.MedicationKnowledge.AdministrationGuidelines.PatientCharacteristics.Builder [[MedicationKnowledge.AdministrationGuidelines.PatientCharacteristics.Builder.html]]

    com.ibm.fhir.model.type.BackboneElement <|- - com.ibm.fhir.model.resource.MedicationKnowledge.AdministrationGuidelines.PatientCharacteristics
    com.ibm.fhir.model.resource.MedicationKnowledge.AdministrationGuidelines +- - com.ibm.fhir.model.resource.MedicationKnowledge.AdministrationGuidelines.PatientCharacteristics
    com.ibm.fhir.model.resource.MedicationKnowledge.AdministrationGuidelines.PatientCharacteristics +- - com.ibm.fhir.model.resource.MedicationKnowledge.AdministrationGuidelines.PatientCharacteristics.Builder

    center footer UMLDoclet 2.0.7, PlantUML 1.2019.12
@enduml

PlantUML version 1.2019.12(Sun Nov 03 05:24:54 EST 2019)
(APACHE source distribution)
Java Runtime: OpenJDK Runtime Environment
JVM: OpenJDK 64-Bit Server VM
Java Version: 11.0.4+11
Operating System: Mac OS X
Default Encoding: UTF-8
Language: en
Country: US
--></g></svg>