<?xml version="1.0" encoding="UTF-8" standalone="no"?><svg xmlns="http://www.w3.org/2000/svg" xmlns:xlink="http://www.w3.org/1999/xlink" contentScriptType="application/ecmascript" contentStyleType="text/css" height="408px" preserveAspectRatio="none" style="width:453px;height:408px;" version="1.1" viewBox="0 0 453 408" width="453px" zoomAndPan="magnify"><defs><filter height="300%" id="f1uhdk0os6q9vx" width="300%" x="-1" y="-1"><feGaussianBlur result="blurOut" stdDeviation="2.0"/><feColorMatrix in="blurOut" result="blurOut2" type="matrix" values="0 0 0 0 0 0 0 0 0 0 0 0 0 0 0 0 0 0 .4 0"/><feOffset dx="4.0" dy="4.0" in="blurOut2" result="blurOut3"/><feBlend in="SourceGraphic" in2="blurOut3" mode="normal"/></filter></defs><g><!--MD5=[fc4e93142f6687370edbf49a4c053db9]
class com.ibm.fhir.model.resource.SpecimenDefinition.TypeTested.Handling--><a href="SpecimenDefinition.TypeTested.Handling.html" target="_top" title="SpecimenDefinition.TypeTested.Handling.html" xlink:actuate="onRequest" xlink:href="SpecimenDefinition.TypeTested.Handling.html" xlink:show="new" xlink:title="SpecimenDefinition.TypeTested.Handling.html" xlink:type="simple"><rect fill="#FEFECE" filter="url(#f1uhdk0os6q9vx)" height="149.9063" id="com.ibm.fhir.model.resource.SpecimenDefinition.TypeTested.Handling" style="stroke: #A80036; stroke-width: 1.5;" width="314" x="43.5" y="127"/><ellipse cx="58.5" cy="146.1328" fill="#ADD1B2" rx="11" ry="11" style="stroke: #A80036; stroke-width: 1.0;"/><path d="M60.9731,152.2759 Q60.3921,152.5747 59.7529,152.7241 Q59.1138,152.8735 58.4082,152.8735 Q55.9014,152.8735 54.5815,151.2217 Q53.2617,149.5698 53.2617,146.4487 Q53.2617,143.3193 54.5815,141.6675 Q55.9014,140.0156 58.4082,140.0156 Q59.1138,140.0156 59.7612,140.165 Q60.4087,140.3145 60.9731,140.6133 L60.9731,143.3359 Q60.3423,142.7549 59.7488,142.4851 Q59.1553,142.2153 58.5244,142.2153 Q57.1797,142.2153 56.4949,143.282 Q55.8101,144.3486 55.8101,146.4487 Q55.8101,148.5405 56.4949,149.6072 Q57.1797,150.6738 58.5244,150.6738 Q59.1553,150.6738 59.7488,150.4041 Q60.3423,150.1343 60.9731,149.5532 Z "/><text fill="#000000" font-family="sans-serif" font-size="14" lengthAdjust="spacingAndGlyphs" textLength="282" x="72.5" y="145.5352">SpecimenDefinition.TypeTested.Handling</text><text fill="#000000" font-family="sans-serif" font-size="10" lengthAdjust="spacingAndGlyphs" textLength="139" x="144" y="158.1563">com.ibm.fhir.model.resource</text><line style="stroke: #A80036; stroke-width: 1.5;" x1="44.5" x2="356.5" y1="165.2656" y2="165.2656"/><ellipse cx="54.5" cy="176.2656" fill="#84BE84" rx="3" ry="3" style="stroke: #038048; stroke-width: 1.0;"/><text fill="#000000" font-family="sans-serif" font-size="11" lengthAdjust="spacingAndGlyphs" textLength="241" x="63.5" y="179.9004">getTemperatureQualifier(): CodeableConcept</text><ellipse cx="54.5" cy="189.2207" fill="#84BE84" rx="3" ry="3" style="stroke: #038048; stroke-width: 1.0;"/><text fill="#000000" font-family="sans-serif" font-size="11" lengthAdjust="spacingAndGlyphs" textLength="166" x="63.5" y="192.8555">getTemperatureRange(): Range</text><ellipse cx="54.5" cy="202.1758" fill="#84BE84" rx="3" ry="3" style="stroke: #038048; stroke-width: 1.0;"/><text fill="#000000" font-family="sans-serif" font-size="11" lengthAdjust="spacingAndGlyphs" textLength="147" x="63.5" y="205.8105">getMaxDuration(): Duration</text><ellipse cx="54.5" cy="215.1309" fill="#84BE84" rx="3" ry="3" style="stroke: #038048; stroke-width: 1.0;"/><text fill="#000000" font-family="sans-serif" font-size="11" lengthAdjust="spacingAndGlyphs" textLength="122" x="63.5" y="218.7656">getInstruction(): String</text><ellipse cx="54.5" cy="228.0859" fill="#84BE84" rx="3" ry="3" style="stroke: #038048; stroke-width: 1.0;"/><text fill="#000000" font-family="sans-serif" font-size="11" lengthAdjust="spacingAndGlyphs" textLength="122" x="63.5" y="231.7207">hasChildren(): boolean</text><ellipse cx="54.5" cy="241.041" fill="#84BE84" rx="3" ry="3" style="stroke: #038048; stroke-width: 1.0;"/><text fill="#000000" font-family="sans-serif" font-size="11" lengthAdjust="spacingAndGlyphs" textLength="165" x="63.5" y="244.6758">accept(String, int, Visitor): void</text><ellipse cx="54.5" cy="253.9961" fill="#84BE84" rx="3" ry="3" style="stroke: #038048; stroke-width: 1.0;"/><text fill="#000000" font-family="sans-serif" font-size="11" lengthAdjust="spacingAndGlyphs" textLength="99" x="63.5" y="257.6309">toBuilder(): Builder</text><ellipse cx="54.5" cy="266.9512" fill="#84BE84" rx="3" ry="3" style="stroke: #038048; stroke-width: 1.0;"/><text fill="#000000" font-family="sans-serif" font-size="11" lengthAdjust="spacingAndGlyphs" text-decoration="underline" textLength="89" x="63.5" y="270.5859">builder(): Builder</text></a><!--MD5=[efbff6997283c56b83e991a8eeb6a60a]
class com.ibm.fhir.model.type.BackboneElement--><a href="../type/BackboneElement.html" target="_top" title="../type/BackboneElement.html" xlink:actuate="onRequest" xlink:href="../type/BackboneElement.html" xlink:show="new" xlink:title="../type/BackboneElement.html" xlink:type="simple"><rect fill="#FEFECE" filter="url(#f1uhdk0os6q9vx)" height="59.2207" id="com.ibm.fhir.model.type.BackboneElement" style="stroke: #A80036; stroke-width: 1.5;" width="153" x="6" y="8"/><ellipse cx="21" cy="27.1328" fill="#A9DCDF" rx="11" ry="11" style="stroke: #A80036; stroke-width: 1.0;"/><path d="M21.1133,22.731 L19.9595,27.8027 L22.2754,27.8027 Z M19.6191,20.4897 L22.6157,20.4897 L25.9609,32.8828 L23.5122,32.8828 L22.7485,29.8198 L19.4697,29.8198 L18.7227,32.8828 L16.2739,32.8828 Z "/><text fill="#000000" font-family="sans-serif" font-size="14" font-style="italic" lengthAdjust="spacingAndGlyphs" textLength="121" x="35" y="26.5352">BackboneElement</text><text fill="#000000" font-family="sans-serif" font-size="10" font-style="italic" lengthAdjust="spacingAndGlyphs" textLength="118" x="36.5" y="39.1563">com.ibm.fhir.model.type</text><line style="stroke: #A80036; stroke-width: 1.5;" x1="7" x2="158" y1="46.2656" y2="46.2656"/><ellipse cx="17" cy="57.2656" fill="#84BE84" rx="3" ry="3" style="stroke: #038048; stroke-width: 1.0;"/><text fill="#000000" font-family="sans-serif" font-size="11" font-style="italic" lengthAdjust="spacingAndGlyphs" textLength="99" x="26" y="60.9004">toBuilder(): Builder</text></a><!--MD5=[f5281791212d38de1892b5f29a1d0908]
class com.ibm.fhir.model.resource.SpecimenDefinition.TypeTested--><a href="SpecimenDefinition.TypeTested.html" target="_top" title="SpecimenDefinition.TypeTested.html" xlink:actuate="onRequest" xlink:href="SpecimenDefinition.TypeTested.html" xlink:show="new" xlink:title="SpecimenDefinition.TypeTested.html" xlink:type="simple"><rect fill="#FEFECE" filter="url(#f1uhdk0os6q9vx)" height="38.2656" id="com.ibm.fhir.model.resource.SpecimenDefinition.TypeTested" style="stroke: #A80036; stroke-width: 1.5;" width="248" x="194.5" y="18.5"/><ellipse cx="209.5" cy="37.6328" fill="#ADD1B2" rx="11" ry="11" style="stroke: #A80036; stroke-width: 1.0;"/><path d="M211.9731,43.7759 Q211.3921,44.0747 210.7529,44.2241 Q210.1138,44.3735 209.4082,44.3735 Q206.9014,44.3735 205.5815,42.7217 Q204.2617,41.0698 204.2617,37.9487 Q204.2617,34.8193 205.5815,33.1675 Q206.9014,31.5156 209.4082,31.5156 Q210.1138,31.5156 210.7612,31.665 Q211.4087,31.8145 211.9731,32.1133 L211.9731,34.8359 Q211.3423,34.2549 210.7488,33.9851 Q210.1553,33.7153 209.5244,33.7153 Q208.1797,33.7153 207.4949,34.782 Q206.8101,35.8486 206.8101,37.9487 Q206.8101,40.0405 207.4949,41.1072 Q208.1797,42.1738 209.5244,42.1738 Q210.1553,42.1738 210.7488,41.9041 Q211.3423,41.6343 211.9731,41.0532 Z "/><text fill="#000000" font-family="sans-serif" font-size="14" lengthAdjust="spacingAndGlyphs" textLength="216" x="223.5" y="37.0352">SpecimenDefinition.TypeTested</text><text fill="#000000" font-family="sans-serif" font-size="10" lengthAdjust="spacingAndGlyphs" textLength="139" x="262" y="49.6563">com.ibm.fhir.model.resource</text></a><!--MD5=[a2978c6bb0966cc64e65e68304f64938]
class com.ibm.fhir.model.resource.SpecimenDefinition.TypeTested.Handling.Builder--><a href="SpecimenDefinition.TypeTested.Handling.Builder.html" target="_top" title="SpecimenDefinition.TypeTested.Handling.Builder.html" xlink:actuate="onRequest" xlink:href="SpecimenDefinition.TypeTested.Handling.Builder.html" xlink:show="new" xlink:title="SpecimenDefinition.TypeTested.Handling.Builder.html" xlink:type="simple"><rect fill="#FEFECE" filter="url(#f1uhdk0os6q9vx)" height="38.2656" id="com.ibm.fhir.model.resource.SpecimenDefinition.TypeTested.Handling.Builder" style="stroke: #A80036; stroke-width: 1.5;" width="366" x="17.5" y="337"/><ellipse cx="32.5" cy="356.1328" fill="#ADD1B2" rx="11" ry="11" style="stroke: #A80036; stroke-width: 1.0;"/><path d="M34.9731,362.2759 Q34.3921,362.5747 33.7529,362.7241 Q33.1138,362.8735 32.4082,362.8735 Q29.9014,362.8735 28.5815,361.2217 Q27.2617,359.5698 27.2617,356.4487 Q27.2617,353.3193 28.5815,351.6675 Q29.9014,350.0156 32.4082,350.0156 Q33.1138,350.0156 33.7612,350.165 Q34.4087,350.3145 34.9731,350.6133 L34.9731,353.3359 Q34.3423,352.7549 33.7488,352.4851 Q33.1553,352.2153 32.5244,352.2153 Q31.1797,352.2153 30.4949,353.282 Q29.8101,354.3486 29.8101,356.4487 Q29.8101,358.5405 30.4949,359.6072 Q31.1797,360.6738 32.5244,360.6738 Q33.1553,360.6738 33.7488,360.4041 Q34.3423,360.1343 34.9731,359.5532 Z "/><text fill="#000000" font-family="sans-serif" font-size="14" lengthAdjust="spacingAndGlyphs" textLength="334" x="46.5" y="355.5352">SpecimenDefinition.TypeTested.Handling.Builder</text><text fill="#000000" font-family="sans-serif" font-size="10" lengthAdjust="spacingAndGlyphs" textLength="139" x="144" y="368.1563">com.ibm.fhir.model.resource</text></a><!--MD5=[19738fa7bb8cbb6722beeb5dd429ca47]
reverse link com.ibm.fhir.model.type.BackboneElement to com.ibm.fhir.model.resource.SpecimenDefinition.TypeTested.Handling--><path d="M115.7391,83.8376 C125.3529,97.2398 136.1022,112.2251 146.6318,126.9041 " fill="none" id="com.ibm.fhir.model.type.BackboneElement&lt;-com.ibm.fhir.model.resource.SpecimenDefinition.TypeTested.Handling" style="stroke: #A80036; stroke-width: 1.0;"/><polygon fill="none" points="109.8384,87.6211,103.8689,67.2897,121.2144,79.4609,109.8384,87.6211" style="stroke: #A80036; stroke-width: 1.0;"/><!--MD5=[f3237d2d3a26022854721ff6120e12ca]
reverse link com.ibm.fhir.model.resource.SpecimenDefinition.TypeTested to com.ibm.fhir.model.resource.SpecimenDefinition.TypeTested.Handling--><path d="M295.6654,69.333 C283.9046,85.7283 269.0226,106.4748 254.5418,126.6621 " fill="none" id="com.ibm.fhir.model.resource.SpecimenDefinition.TypeTested&lt;-com.ibm.fhir.model.resource.SpecimenDefinition.TypeTested.Handling" style="stroke: #A80036; stroke-width: 1.0;"/><ellipse cx="300.07" cy="63.1927" fill="#FFFFFF" rx="8" ry="8" style="stroke: #A80036; stroke-width: 1.0;"/><line style="stroke: #A80036; stroke-width: 1.0;" x1="295.407" x2="304.733" y1="69.6932" y2="56.6922"/><line style="stroke: #A80036; stroke-width: 1.0;" x1="293.5695" x2="306.5705" y1="58.5297" y2="67.8557"/><!--MD5=[7371919f23b7400befa19ef88b283c1f]
reverse link com.ibm.fhir.model.resource.SpecimenDefinition.TypeTested.Handling to com.ibm.fhir.model.resource.SpecimenDefinition.TypeTested.Handling.Builder--><path d="M200.5,292.4466 C200.5,309.2565 200.5,325.1841 200.5,336.8895 " fill="none" id="com.ibm.fhir.model.resource.SpecimenDefinition.TypeTested.Handling&lt;-com.ibm.fhir.model.resource.SpecimenDefinition.TypeTested.Handling.Builder" style="stroke: #A80036; stroke-width: 1.0;"/><ellipse cx="200.5001" cy="285.1955" fill="#FFFFFF" rx="8" ry="8" style="stroke: #A80036; stroke-width: 1.0;"/><line style="stroke: #A80036; stroke-width: 1.0;" x1="200.5002" x2="200.5" y1="293.1955" y2="277.1955"/><line style="stroke: #A80036; stroke-width: 1.0;" x1="192.5001" x2="208.5001" y1="285.1956" y2="285.1954"/><text fill="#888888" font-family="sans-serif" font-size="10" lengthAdjust="spacingAndGlyphs" textLength="182" x="139.5" y="394.668">UMLDoclet 2.0.7, PlantUML 1.2019.12</text><!--MD5=[14040657f655c02a63111ac10c37d8f5]
@startuml
    set namespaceSeparator none
    hide empty fields
    hide empty methods

    class "<size:14>SpecimenDefinition.TypeTested.Handling\n<size:10>com.ibm.fhir.model.resource" as com.ibm.fhir.model.resource.SpecimenDefinition.TypeTested.Handling [[SpecimenDefinition.TypeTested.Handling.html]] {
        +getTemperatureQualifier(): CodeableConcept
        +getTemperatureRange(): Range
        +getMaxDuration(): Duration
        +getInstruction(): String
        +hasChildren(): boolean
        +accept(String, int, Visitor): void
        +toBuilder(): Builder
        {static} +builder(): Builder
    }

    abstract class "<size:14>BackboneElement\n<size:10>com.ibm.fhir.model.type" as com.ibm.fhir.model.type.BackboneElement [[../type/BackboneElement.html]] {
        {abstract} +toBuilder(): Builder
    }
    class "<size:14>SpecimenDefinition.TypeTested\n<size:10>com.ibm.fhir.model.resource" as com.ibm.fhir.model.resource.SpecimenDefinition.TypeTested [[SpecimenDefinition.TypeTested.html]]
    class "<size:14>SpecimenDefinition.TypeTested.Handling.Builder\n<size:10>com.ibm.fhir.model.resource" as com.ibm.fhir.model.resource.SpecimenDefinition.TypeTested.Handling.Builder [[SpecimenDefinition.TypeTested.Handling.Builder.html]]

    com.ibm.fhir.model.type.BackboneElement <|- - com.ibm.fhir.model.resource.SpecimenDefinition.TypeTested.Handling
    com.ibm.fhir.model.resource.SpecimenDefinition.TypeTested +- - com.ibm.fhir.model.resource.SpecimenDefinition.TypeTested.Handling
    com.ibm.fhir.model.resource.SpecimenDefinition.TypeTested.Handling +- - com.ibm.fhir.model.resource.SpecimenDefinition.TypeTested.Handling.Builder

    center footer UMLDoclet 2.0.7, PlantUML 1.2019.12
@enduml

PlantUML version 1.2019.12(Sun Nov 03 05:24:54 EST 2019)
(APACHE source distribution)
Java Runtime: OpenJDK Runtime Environment
JVM: OpenJDK 64-Bit Server VM
Java Version: 11.0.4+11
Operating System: Mac OS X
Default Encoding: UTF-8
Language: en
Country: US
--></g></svg>