<?xml version="1.0" encoding="UTF-8" standalone="no"?><svg xmlns="http://www.w3.org/2000/svg" xmlns:xlink="http://www.w3.org/1999/xlink" contentScriptType="application/ecmascript" contentStyleType="text/css" height="369px" preserveAspectRatio="none" style="width:529px;height:369px;" version="1.1" viewBox="0 0 529 369" width="529px" zoomAndPan="magnify"><defs><filter height="300%" id="f1d7hq6vpl3s4i" width="300%" x="-1" y="-1"><feGaussianBlur result="blurOut" stdDeviation="2.0"/><feColorMatrix in="blurOut" result="blurOut2" type="matrix" values="0 0 0 0 0 0 0 0 0 0 0 0 0 0 0 0 0 0 .4 0"/><feOffset dx="4.0" dy="4.0" in="blurOut2" result="blurOut3"/><feBlend in="SourceGraphic" in2="blurOut3" mode="normal"/></filter></defs><g><!--MD5=[75e5ace2b7b38170fb5b571e7c4dd3bb]
class com.ibm.fhir.model.resource.SpecimenDefinition.TypeTested.Container.Additive--><a href="SpecimenDefinition.TypeTested.Container.Additive.html" target="_top" title="SpecimenDefinition.TypeTested.Container.Additive.html" xlink:actuate="onRequest" xlink:href="SpecimenDefinition.TypeTested.Container.Additive.html" xlink:show="new" xlink:title="SpecimenDefinition.TypeTested.Container.Additive.html" xlink:type="simple"><rect fill="#FEFECE" filter="url(#f1d7hq6vpl3s4i)" height="111.041" id="com.ibm.fhir.model.resource.SpecimenDefinition.TypeTested.Container.Additive" style="stroke: #A80036; stroke-width: 1.5;" width="380" x="32" y="127"/><ellipse cx="47" cy="146.1328" fill="#ADD1B2" rx="11" ry="11" style="stroke: #A80036; stroke-width: 1.0;"/><path d="M49.4731,152.2759 Q48.8921,152.5747 48.2529,152.7241 Q47.6138,152.8735 46.9082,152.8735 Q44.4014,152.8735 43.0815,151.2217 Q41.7617,149.5698 41.7617,146.4487 Q41.7617,143.3193 43.0815,141.6675 Q44.4014,140.0156 46.9082,140.0156 Q47.6138,140.0156 48.2612,140.165 Q48.9087,140.3145 49.4731,140.6133 L49.4731,143.3359 Q48.8423,142.7549 48.2488,142.4851 Q47.6553,142.2153 47.0244,142.2153 Q45.6797,142.2153 44.9949,143.282 Q44.3101,144.3486 44.3101,146.4487 Q44.3101,148.5405 44.9949,149.6072 Q45.6797,150.6738 47.0244,150.6738 Q47.6553,150.6738 48.2488,150.4041 Q48.8423,150.1343 49.4731,149.5532 Z "/><text fill="#000000" font-family="sans-serif" font-size="14" lengthAdjust="spacingAndGlyphs" textLength="348" x="61" y="145.5352">SpecimenDefinition.TypeTested.Container.Additive</text><text fill="#000000" font-family="sans-serif" font-size="10" lengthAdjust="spacingAndGlyphs" textLength="139" x="165.5" y="158.1563">com.ibm.fhir.model.resource</text><line style="stroke: #A80036; stroke-width: 1.5;" x1="33" x2="411" y1="165.2656" y2="165.2656"/><ellipse cx="43" cy="176.2656" fill="#84BE84" rx="3" ry="3" style="stroke: #038048; stroke-width: 1.0;"/><text fill="#000000" font-family="sans-serif" font-size="11" lengthAdjust="spacingAndGlyphs" textLength="117" x="52" y="179.9004">getAdditive(): Element</text><ellipse cx="43" cy="189.2207" fill="#84BE84" rx="3" ry="3" style="stroke: #038048; stroke-width: 1.0;"/><text fill="#000000" font-family="sans-serif" font-size="11" lengthAdjust="spacingAndGlyphs" textLength="122" x="52" y="192.8555">hasChildren(): boolean</text><ellipse cx="43" cy="202.1758" fill="#84BE84" rx="3" ry="3" style="stroke: #038048; stroke-width: 1.0;"/><text fill="#000000" font-family="sans-serif" font-size="11" lengthAdjust="spacingAndGlyphs" textLength="165" x="52" y="205.8105">accept(String, int, Visitor): void</text><ellipse cx="43" cy="215.1309" fill="#84BE84" rx="3" ry="3" style="stroke: #038048; stroke-width: 1.0;"/><text fill="#000000" font-family="sans-serif" font-size="11" lengthAdjust="spacingAndGlyphs" textLength="99" x="52" y="218.7656">toBuilder(): Builder</text><ellipse cx="43" cy="228.0859" fill="#84BE84" rx="3" ry="3" style="stroke: #038048; stroke-width: 1.0;"/><text fill="#000000" font-family="sans-serif" font-size="11" lengthAdjust="spacingAndGlyphs" text-decoration="underline" textLength="89" x="52" y="231.7207">builder(): Builder</text></a><!--MD5=[efbff6997283c56b83e991a8eeb6a60a]
class com.ibm.fhir.model.type.BackboneElement--><a href="../type/BackboneElement.html" target="_top" title="../type/BackboneElement.html" xlink:actuate="onRequest" xlink:href="../type/BackboneElement.html" xlink:show="new" xlink:title="../type/BackboneElement.html" xlink:type="simple"><rect fill="#FEFECE" filter="url(#f1d7hq6vpl3s4i)" height="59.2207" id="com.ibm.fhir.model.type.BackboneElement" style="stroke: #A80036; stroke-width: 1.5;" width="153" x="9.5" y="8"/><ellipse cx="24.5" cy="27.1328" fill="#A9DCDF" rx="11" ry="11" style="stroke: #A80036; stroke-width: 1.0;"/><path d="M24.6133,22.731 L23.4595,27.8027 L25.7754,27.8027 Z M23.1191,20.4897 L26.1157,20.4897 L29.4609,32.8828 L27.0122,32.8828 L26.2485,29.8198 L22.9697,29.8198 L22.2227,32.8828 L19.7739,32.8828 Z "/><text fill="#000000" font-family="sans-serif" font-size="14" font-style="italic" lengthAdjust="spacingAndGlyphs" textLength="121" x="38.5" y="26.5352">BackboneElement</text><text fill="#000000" font-family="sans-serif" font-size="10" font-style="italic" lengthAdjust="spacingAndGlyphs" textLength="118" x="40" y="39.1563">com.ibm.fhir.model.type</text><line style="stroke: #A80036; stroke-width: 1.5;" x1="10.5" x2="161.5" y1="46.2656" y2="46.2656"/><ellipse cx="20.5" cy="57.2656" fill="#84BE84" rx="3" ry="3" style="stroke: #038048; stroke-width: 1.0;"/><text fill="#000000" font-family="sans-serif" font-size="11" font-style="italic" lengthAdjust="spacingAndGlyphs" textLength="99" x="29.5" y="60.9004">toBuilder(): Builder</text></a><!--MD5=[17dd00868c0183aea218b5a5256d55d1]
class com.ibm.fhir.model.resource.SpecimenDefinition.TypeTested.Container--><a href="SpecimenDefinition.TypeTested.Container.html" target="_top" title="SpecimenDefinition.TypeTested.Container.html" xlink:actuate="onRequest" xlink:href="SpecimenDefinition.TypeTested.Container.html" xlink:show="new" xlink:title="SpecimenDefinition.TypeTested.Container.html" xlink:type="simple"><rect fill="#FEFECE" filter="url(#f1d7hq6vpl3s4i)" height="38.2656" id="com.ibm.fhir.model.resource.SpecimenDefinition.TypeTested.Container" style="stroke: #A80036; stroke-width: 1.5;" width="320" x="198" y="18.5"/><ellipse cx="213" cy="37.6328" fill="#ADD1B2" rx="11" ry="11" style="stroke: #A80036; stroke-width: 1.0;"/><path d="M215.4731,43.7759 Q214.8921,44.0747 214.2529,44.2241 Q213.6138,44.3735 212.9082,44.3735 Q210.4014,44.3735 209.0815,42.7217 Q207.7617,41.0698 207.7617,37.9487 Q207.7617,34.8193 209.0815,33.1675 Q210.4014,31.5156 212.9082,31.5156 Q213.6138,31.5156 214.2612,31.665 Q214.9087,31.8145 215.4731,32.1133 L215.4731,34.8359 Q214.8423,34.2549 214.2488,33.9851 Q213.6553,33.7153 213.0244,33.7153 Q211.6797,33.7153 210.9949,34.782 Q210.3101,35.8486 210.3101,37.9487 Q210.3101,40.0405 210.9949,41.1072 Q211.6797,42.1738 213.0244,42.1738 Q213.6553,42.1738 214.2488,41.9041 Q214.8423,41.6343 215.4731,41.0532 Z "/><text fill="#000000" font-family="sans-serif" font-size="14" lengthAdjust="spacingAndGlyphs" textLength="288" x="227" y="37.0352">SpecimenDefinition.TypeTested.Container</text><text fill="#000000" font-family="sans-serif" font-size="10" lengthAdjust="spacingAndGlyphs" textLength="139" x="301.5" y="49.6563">com.ibm.fhir.model.resource</text></a><!--MD5=[57faa67b84df7f90b7cb493ebc6bb9cc]
class com.ibm.fhir.model.resource.SpecimenDefinition.TypeTested.Container.Additive.Builder--><a href="SpecimenDefinition.TypeTested.Container.Additive.Builder.html" target="_top" title="SpecimenDefinition.TypeTested.Container.Additive.Builder.html" xlink:actuate="onRequest" xlink:href="SpecimenDefinition.TypeTested.Container.Additive.Builder.html" xlink:show="new" xlink:title="SpecimenDefinition.TypeTested.Container.Additive.Builder.html" xlink:type="simple"><rect fill="#FEFECE" filter="url(#f1d7hq6vpl3s4i)" height="38.2656" id="com.ibm.fhir.model.resource.SpecimenDefinition.TypeTested.Container.Additive.Builder" style="stroke: #A80036; stroke-width: 1.5;" width="432" x="6" y="298"/><ellipse cx="21" cy="317.1328" fill="#ADD1B2" rx="11" ry="11" style="stroke: #A80036; stroke-width: 1.0;"/><path d="M23.4731,323.2759 Q22.8921,323.5747 22.2529,323.7241 Q21.6138,323.8735 20.9082,323.8735 Q18.4014,323.8735 17.0815,322.2217 Q15.7617,320.5698 15.7617,317.4487 Q15.7617,314.3193 17.0815,312.6675 Q18.4014,311.0156 20.9082,311.0156 Q21.6138,311.0156 22.2612,311.165 Q22.9087,311.3145 23.4731,311.6133 L23.4731,314.3359 Q22.8423,313.7549 22.2488,313.4851 Q21.6553,313.2153 21.0244,313.2153 Q19.6797,313.2153 18.9949,314.282 Q18.3101,315.3486 18.3101,317.4487 Q18.3101,319.5405 18.9949,320.6072 Q19.6797,321.6738 21.0244,321.6738 Q21.6553,321.6738 22.2488,321.4041 Q22.8423,321.1343 23.4731,320.5532 Z "/><text fill="#000000" font-family="sans-serif" font-size="14" lengthAdjust="spacingAndGlyphs" textLength="400" x="35" y="316.5352">SpecimenDefinition.TypeTested.Container.Additive.Builder</text><text fill="#000000" font-family="sans-serif" font-size="10" lengthAdjust="spacingAndGlyphs" textLength="139" x="165.5" y="329.1563">com.ibm.fhir.model.resource</text></a><!--MD5=[9187a2cbc4f1c34baaa292bc98e1f18a]
reverse link com.ibm.fhir.model.type.BackboneElement to com.ibm.fhir.model.resource.SpecimenDefinition.TypeTested.Container.Additive--><path d="M127.5372,81.786 C140.8408,95.97 155.7456,111.8611 169.7144,126.7543 " fill="none" id="com.ibm.fhir.model.type.BackboneElement&lt;-com.ibm.fhir.model.resource.SpecimenDefinition.TypeTested.Container.Additive" style="stroke: #A80036; stroke-width: 1.0;"/><polygon fill="none" points="122.4263,86.5692,113.8498,67.1928,132.6377,76.9917,122.4263,86.5692" style="stroke: #A80036; stroke-width: 1.0;"/><!--MD5=[50f163952ac05fe6a0f37d3b39382692]
reverse link com.ibm.fhir.model.resource.SpecimenDefinition.TypeTested.Container to com.ibm.fhir.model.resource.SpecimenDefinition.TypeTested.Container.Additive--><path d="M329.6358,67.7413 C313.5981,84.8403 293.0413,106.7574 274.1983,126.8474 " fill="none" id="com.ibm.fhir.model.resource.SpecimenDefinition.TypeTested.Container&lt;-com.ibm.fhir.model.resource.SpecimenDefinition.TypeTested.Container.Additive" style="stroke: #A80036; stroke-width: 1.0;"/><ellipse cx="334.4674" cy="62.5899" fill="#FFFFFF" rx="8" ry="8" style="stroke: #A80036; stroke-width: 1.0;"/><line style="stroke: #A80036; stroke-width: 1.0;" x1="328.9945" x2="339.9403" y1="68.4249" y2="56.7549"/><line style="stroke: #A80036; stroke-width: 1.0;" x1="328.6324" x2="340.3024" y1="57.117" y2="68.0628"/><!--MD5=[fab48dd24eecfe97f062c8939475ccf2]
reverse link com.ibm.fhir.model.resource.SpecimenDefinition.TypeTested.Container.Additive to com.ibm.fhir.model.resource.SpecimenDefinition.TypeTested.Container.Additive.Builder--><path d="M222,253.435 C222,269.8704 222,286.0114 222,297.9157 " fill="none" id="com.ibm.fhir.model.resource.SpecimenDefinition.TypeTested.Container.Additive&lt;-com.ibm.fhir.model.resource.SpecimenDefinition.TypeTested.Container.Additive.Builder" style="stroke: #A80036; stroke-width: 1.0;"/><ellipse cx="222.0001" cy="246.3716" fill="#FFFFFF" rx="8" ry="8" style="stroke: #A80036; stroke-width: 1.0;"/><line style="stroke: #A80036; stroke-width: 1.0;" x1="222.0002" x2="222" y1="254.3716" y2="238.3716"/><line style="stroke: #A80036; stroke-width: 1.0;" x1="214.0001" x2="230.0001" y1="246.3717" y2="246.3715"/><text fill="#888888" font-family="sans-serif" font-size="10" lengthAdjust="spacingAndGlyphs" textLength="182" x="177" y="355.668">UMLDoclet 2.0.7, PlantUML 1.2019.12</text><!--MD5=[1fc651e441947a834c63b6553e1be98d]
@startuml
    set namespaceSeparator none
    hide empty fields
    hide empty methods

    class "<size:14>SpecimenDefinition.TypeTested.Container.Additive\n<size:10>com.ibm.fhir.model.resource" as com.ibm.fhir.model.resource.SpecimenDefinition.TypeTested.Container.Additive [[SpecimenDefinition.TypeTested.Container.Additive.html]] {
        +getAdditive(): Element
        +hasChildren(): boolean
        +accept(String, int, Visitor): void
        +toBuilder(): Builder
        {static} +builder(): Builder
    }

    abstract class "<size:14>BackboneElement\n<size:10>com.ibm.fhir.model.type" as com.ibm.fhir.model.type.BackboneElement [[../type/BackboneElement.html]] {
        {abstract} +toBuilder(): Builder
    }
    class "<size:14>SpecimenDefinition.TypeTested.Container\n<size:10>com.ibm.fhir.model.resource" as com.ibm.fhir.model.resource.SpecimenDefinition.TypeTested.Container [[SpecimenDefinition.TypeTested.Container.html]]
    class "<size:14>SpecimenDefinition.TypeTested.Container.Additive.Builder\n<size:10>com.ibm.fhir.model.resource" as com.ibm.fhir.model.resource.SpecimenDefinition.TypeTested.Container.Additive.Builder [[SpecimenDefinition.TypeTested.Container.Additive.Builder.html]]

    com.ibm.fhir.model.type.BackboneElement <|- - com.ibm.fhir.model.resource.SpecimenDefinition.TypeTested.Container.Additive
    com.ibm.fhir.model.resource.SpecimenDefinition.TypeTested.Container +- - com.ibm.fhir.model.resource.SpecimenDefinition.TypeTested.Container.Additive
    com.ibm.fhir.model.resource.SpecimenDefinition.TypeTested.Container.Additive +- - com.ibm.fhir.model.resource.SpecimenDefinition.TypeTested.Container.Additive.Builder

    center footer UMLDoclet 2.0.7, PlantUML 1.2019.12
@enduml

PlantUML version 1.2019.12(Sun Nov 03 05:24:54 EST 2019)
(APACHE source distribution)
Java Runtime: OpenJDK Runtime Environment
JVM: OpenJDK 64-Bit Server VM
Java Version: 11.0.4+11
Operating System: Mac OS X
Default Encoding: UTF-8
Language: en
Country: US
--></g></svg>