<?xml version="1.0" encoding="UTF-8" standalone="no"?><svg xmlns="http://www.w3.org/2000/svg" xmlns:xlink="http://www.w3.org/1999/xlink" contentScriptType="application/ecmascript" contentStyleType="text/css" height="421px" preserveAspectRatio="none" style="width:1345px;height:421px;" version="1.1" viewBox="0 0 1345 421" width="1345px" zoomAndPan="magnify"><defs><filter height="300%" id="f1273ev2fet0yf" width="300%" x="-1" y="-1"><feGaussianBlur result="blurOut" stdDeviation="2.0"/><feColorMatrix in="blurOut" result="blurOut2" type="matrix" values="0 0 0 0 0 0 0 0 0 0 0 0 0 0 0 0 0 0 .4 0"/><feOffset dx="4.0" dy="4.0" in="blurOut2" result="blurOut3"/><feBlend in="SourceGraphic" in2="blurOut3" mode="normal"/></filter></defs><g><!--MD5=[4fbd318e32faaf9587064b720e839f43]
class com.ibm.fhir.model.resource.SubstancePolymer.Repeat.RepeatUnit--><a href="SubstancePolymer.Repeat.RepeatUnit.html" target="_top" title="SubstancePolymer.Repeat.RepeatUnit.html" xlink:actuate="onRequest" xlink:href="SubstancePolymer.Repeat.RepeatUnit.html" xlink:show="new" xlink:title="SubstancePolymer.Repeat.RepeatUnit.html" xlink:type="simple"><rect fill="#FEFECE" filter="url(#f1273ev2fet0yf)" height="162.8613" id="com.ibm.fhir.model.resource.SubstancePolymer.Repeat.RepeatUnit" style="stroke: #A80036; stroke-width: 1.5;" width="362" x="427.5" y="127"/><ellipse cx="476.75" cy="146.1328" fill="#ADD1B2" rx="11" ry="11" style="stroke: #A80036; stroke-width: 1.0;"/><path d="M479.2231,152.2759 Q478.6421,152.5747 478.0029,152.7241 Q477.3638,152.8735 476.6582,152.8735 Q474.1514,152.8735 472.8315,151.2217 Q471.5117,149.5698 471.5117,146.4487 Q471.5117,143.3193 472.8315,141.6675 Q474.1514,140.0156 476.6582,140.0156 Q477.3638,140.0156 478.0112,140.165 Q478.6587,140.3145 479.2231,140.6133 L479.2231,143.3359 Q478.5923,142.7549 477.9988,142.4851 Q477.4053,142.2153 476.7744,142.2153 Q475.4297,142.2153 474.7449,143.282 Q474.0601,144.3486 474.0601,146.4487 Q474.0601,148.5405 474.7449,149.6072 Q475.4297,150.6738 476.7744,150.6738 Q477.4053,150.6738 477.9988,150.4041 Q478.5923,150.1343 479.2231,149.5532 Z "/><text fill="#000000" font-family="sans-serif" font-size="14" lengthAdjust="spacingAndGlyphs" textLength="255" x="497.25" y="145.5352">SubstancePolymer.Repeat.RepeatUnit</text><text fill="#000000" font-family="sans-serif" font-size="10" lengthAdjust="spacingAndGlyphs" textLength="139" x="555.25" y="158.1563">com.ibm.fhir.model.resource</text><line style="stroke: #A80036; stroke-width: 1.5;" x1="428.5" x2="788.5" y1="165.2656" y2="165.2656"/><ellipse cx="438.5" cy="176.2656" fill="#84BE84" rx="3" ry="3" style="stroke: #038048; stroke-width: 1.0;"/><text fill="#000000" font-family="sans-serif" font-size="11" lengthAdjust="spacingAndGlyphs" textLength="279" x="447.5" y="179.9004">getOrientationOfPolymerisation(): CodeableConcept</text><ellipse cx="438.5" cy="189.2207" fill="#84BE84" rx="3" ry="3" style="stroke: #038048; stroke-width: 1.0;"/><text fill="#000000" font-family="sans-serif" font-size="11" lengthAdjust="spacingAndGlyphs" textLength="121" x="447.5" y="192.8555">getRepeatUnit(): String</text><ellipse cx="438.5" cy="202.1758" fill="#84BE84" rx="3" ry="3" style="stroke: #038048; stroke-width: 1.0;"/><text fill="#000000" font-family="sans-serif" font-size="11" lengthAdjust="spacingAndGlyphs" textLength="172" x="447.5" y="205.8105">getAmount(): SubstanceAmount</text><ellipse cx="438.5" cy="215.1309" fill="#84BE84" rx="3" ry="3" style="stroke: #038048; stroke-width: 1.0;"/><text fill="#000000" font-family="sans-serif" font-size="11" lengthAdjust="spacingAndGlyphs" textLength="328" x="447.5" y="218.7656">getDegreeOfPolymerisation(): List&lt;DegreeOfPolymerisation&gt;</text><ellipse cx="438.5" cy="228.0859" fill="#84BE84" rx="3" ry="3" style="stroke: #038048; stroke-width: 1.0;"/><text fill="#000000" font-family="sans-serif" font-size="11" lengthAdjust="spacingAndGlyphs" textLength="336" x="447.5" y="231.7207">getStructuralRepresentation(): List&lt;StructuralRepresentation&gt;</text><ellipse cx="438.5" cy="241.041" fill="#84BE84" rx="3" ry="3" style="stroke: #038048; stroke-width: 1.0;"/><text fill="#000000" font-family="sans-serif" font-size="11" lengthAdjust="spacingAndGlyphs" textLength="122" x="447.5" y="244.6758">hasChildren(): boolean</text><ellipse cx="438.5" cy="253.9961" fill="#84BE84" rx="3" ry="3" style="stroke: #038048; stroke-width: 1.0;"/><text fill="#000000" font-family="sans-serif" font-size="11" lengthAdjust="spacingAndGlyphs" textLength="165" x="447.5" y="257.6309">accept(String, int, Visitor): void</text><ellipse cx="438.5" cy="266.9512" fill="#84BE84" rx="3" ry="3" style="stroke: #038048; stroke-width: 1.0;"/><text fill="#000000" font-family="sans-serif" font-size="11" lengthAdjust="spacingAndGlyphs" textLength="99" x="447.5" y="270.5859">toBuilder(): Builder</text><ellipse cx="438.5" cy="279.9063" fill="#84BE84" rx="3" ry="3" style="stroke: #038048; stroke-width: 1.0;"/><text fill="#000000" font-family="sans-serif" font-size="11" lengthAdjust="spacingAndGlyphs" text-decoration="underline" textLength="89" x="447.5" y="283.541">builder(): Builder</text></a><!--MD5=[efbff6997283c56b83e991a8eeb6a60a]
class com.ibm.fhir.model.type.BackboneElement--><a href="../type/BackboneElement.html" target="_top" title="../type/BackboneElement.html" xlink:actuate="onRequest" xlink:href="../type/BackboneElement.html" xlink:show="new" xlink:title="../type/BackboneElement.html" xlink:type="simple"><rect fill="#FEFECE" filter="url(#f1273ev2fet0yf)" height="59.2207" id="com.ibm.fhir.model.type.BackboneElement" style="stroke: #A80036; stroke-width: 1.5;" width="153" x="424" y="8"/><ellipse cx="439" cy="27.1328" fill="#A9DCDF" rx="11" ry="11" style="stroke: #A80036; stroke-width: 1.0;"/><path d="M439.1133,22.731 L437.9595,27.8027 L440.2754,27.8027 Z M437.6191,20.4897 L440.6157,20.4897 L443.9609,32.8828 L441.5122,32.8828 L440.7485,29.8198 L437.4697,29.8198 L436.7227,32.8828 L434.2739,32.8828 Z "/><text fill="#000000" font-family="sans-serif" font-size="14" font-style="italic" lengthAdjust="spacingAndGlyphs" textLength="121" x="453" y="26.5352">BackboneElement</text><text fill="#000000" font-family="sans-serif" font-size="10" font-style="italic" lengthAdjust="spacingAndGlyphs" textLength="118" x="454.5" y="39.1563">com.ibm.fhir.model.type</text><line style="stroke: #A80036; stroke-width: 1.5;" x1="425" x2="576" y1="46.2656" y2="46.2656"/><ellipse cx="435" cy="57.2656" fill="#84BE84" rx="3" ry="3" style="stroke: #038048; stroke-width: 1.0;"/><text fill="#000000" font-family="sans-serif" font-size="11" font-style="italic" lengthAdjust="spacingAndGlyphs" textLength="99" x="444" y="60.9004">toBuilder(): Builder</text></a><!--MD5=[5cdbedd25f42d86ab127e0204a6aa6bd]
class com.ibm.fhir.model.resource.SubstancePolymer.Repeat--><a href="SubstancePolymer.Repeat.html" target="_top" title="SubstancePolymer.Repeat.html" xlink:actuate="onRequest" xlink:href="SubstancePolymer.Repeat.html" xlink:show="new" xlink:title="SubstancePolymer.Repeat.html" xlink:type="simple"><rect fill="#FEFECE" filter="url(#f1273ev2fet0yf)" height="38.2656" id="com.ibm.fhir.model.resource.SubstancePolymer.Repeat" style="stroke: #A80036; stroke-width: 1.5;" width="208" x="612.5" y="18.5"/><ellipse cx="627.5" cy="37.6328" fill="#ADD1B2" rx="11" ry="11" style="stroke: #A80036; stroke-width: 1.0;"/><path d="M629.9731,43.7759 Q629.3921,44.0747 628.7529,44.2241 Q628.1138,44.3735 627.4082,44.3735 Q624.9014,44.3735 623.5815,42.7217 Q622.2617,41.0698 622.2617,37.9487 Q622.2617,34.8193 623.5815,33.1675 Q624.9014,31.5156 627.4082,31.5156 Q628.1138,31.5156 628.7612,31.665 Q629.4087,31.8145 629.9731,32.1133 L629.9731,34.8359 Q629.3423,34.2549 628.7488,33.9851 Q628.1553,33.7153 627.5244,33.7153 Q626.1797,33.7153 625.4949,34.782 Q624.8101,35.8486 624.8101,37.9487 Q624.8101,40.0405 625.4949,41.1072 Q626.1797,42.1738 627.5244,42.1738 Q628.1553,42.1738 628.7488,41.9041 Q629.3423,41.6343 629.9731,41.0532 Z "/><text fill="#000000" font-family="sans-serif" font-size="14" lengthAdjust="spacingAndGlyphs" textLength="176" x="641.5" y="37.0352">SubstancePolymer.Repeat</text><text fill="#000000" font-family="sans-serif" font-size="10" lengthAdjust="spacingAndGlyphs" textLength="139" x="660" y="49.6563">com.ibm.fhir.model.resource</text></a><!--MD5=[660b48efa97793238ac3e655b8f566ed]
class com.ibm.fhir.model.resource.SubstancePolymer.Repeat.RepeatUnit.Builder--><a href="SubstancePolymer.Repeat.RepeatUnit.Builder.html" target="_top" title="SubstancePolymer.Repeat.RepeatUnit.Builder.html" xlink:actuate="onRequest" xlink:href="SubstancePolymer.Repeat.RepeatUnit.Builder.html" xlink:show="new" xlink:title="SubstancePolymer.Repeat.RepeatUnit.Builder.html" xlink:type="simple"><rect fill="#FEFECE" filter="url(#f1273ev2fet0yf)" height="38.2656" id="com.ibm.fhir.model.resource.SubstancePolymer.Repeat.RepeatUnit.Builder" style="stroke: #A80036; stroke-width: 1.5;" width="339" x="6" y="350"/><ellipse cx="21" cy="369.1328" fill="#ADD1B2" rx="11" ry="11" style="stroke: #A80036; stroke-width: 1.0;"/><path d="M23.4731,375.2759 Q22.8921,375.5747 22.2529,375.7241 Q21.6138,375.8735 20.9082,375.8735 Q18.4014,375.8735 17.0815,374.2217 Q15.7617,372.5698 15.7617,369.4487 Q15.7617,366.3193 17.0815,364.6675 Q18.4014,363.0156 20.9082,363.0156 Q21.6138,363.0156 22.2612,363.165 Q22.9087,363.3145 23.4731,363.6133 L23.4731,366.3359 Q22.8423,365.7549 22.2488,365.4851 Q21.6553,365.2153 21.0244,365.2153 Q19.6797,365.2153 18.9949,366.282 Q18.3101,367.3486 18.3101,369.4487 Q18.3101,371.5405 18.9949,372.6072 Q19.6797,373.6738 21.0244,373.6738 Q21.6553,373.6738 22.2488,373.4041 Q22.8423,373.1343 23.4731,372.5532 Z "/><text fill="#000000" font-family="sans-serif" font-size="14" lengthAdjust="spacingAndGlyphs" textLength="307" x="35" y="368.5352">SubstancePolymer.Repeat.RepeatUnit.Builder</text><text fill="#000000" font-family="sans-serif" font-size="10" lengthAdjust="spacingAndGlyphs" textLength="139" x="119" y="381.1563">com.ibm.fhir.model.resource</text></a><!--MD5=[334cbcc16a0530577a6c0bdea528add6]
class com.ibm.fhir.model.resource.SubstancePolymer.Repeat.RepeatUnit.DegreeOfPolymerisation--><a href="SubstancePolymer.Repeat.RepeatUnit.DegreeOfPolymerisation.html" target="_top" title="SubstancePolymer.Repeat.RepeatUnit.DegreeOfPolymerisation.html" xlink:actuate="onRequest" xlink:href="SubstancePolymer.Repeat.RepeatUnit.DegreeOfPolymerisation.html" xlink:show="new" xlink:title="SubstancePolymer.Repeat.RepeatUnit.DegreeOfPolymerisation.html" xlink:type="simple"><rect fill="#FEFECE" filter="url(#f1273ev2fet0yf)" height="38.2656" id="com.ibm.fhir.model.resource.SubstancePolymer.Repeat.RepeatUnit.DegreeOfPolymerisation" style="stroke: #A80036; stroke-width: 1.5;" width="457" x="380" y="350"/><ellipse cx="395" cy="369.1328" fill="#ADD1B2" rx="11" ry="11" style="stroke: #A80036; stroke-width: 1.0;"/><path d="M397.4731,375.2759 Q396.8921,375.5747 396.2529,375.7241 Q395.6138,375.8735 394.9082,375.8735 Q392.4014,375.8735 391.0815,374.2217 Q389.7617,372.5698 389.7617,369.4487 Q389.7617,366.3193 391.0815,364.6675 Q392.4014,363.0156 394.9082,363.0156 Q395.6138,363.0156 396.2612,363.165 Q396.9087,363.3145 397.4731,363.6133 L397.4731,366.3359 Q396.8423,365.7549 396.2488,365.4851 Q395.6553,365.2153 395.0244,365.2153 Q393.6797,365.2153 392.9949,366.282 Q392.3101,367.3486 392.3101,369.4487 Q392.3101,371.5405 392.9949,372.6072 Q393.6797,373.6738 395.0244,373.6738 Q395.6553,373.6738 396.2488,373.4041 Q396.8423,373.1343 397.4731,372.5532 Z "/><text fill="#000000" font-family="sans-serif" font-size="14" lengthAdjust="spacingAndGlyphs" textLength="425" x="409" y="368.5352">SubstancePolymer.Repeat.RepeatUnit.DegreeOfPolymerisation</text><text fill="#000000" font-family="sans-serif" font-size="10" lengthAdjust="spacingAndGlyphs" textLength="139" x="552" y="381.1563">com.ibm.fhir.model.resource</text></a><!--MD5=[abc59c5a98855bcfd04b78cb6588f0ae]
class com.ibm.fhir.model.resource.SubstancePolymer.Repeat.RepeatUnit.StructuralRepresentation--><a href="SubstancePolymer.Repeat.RepeatUnit.StructuralRepresentation.html" target="_top" title="SubstancePolymer.Repeat.RepeatUnit.StructuralRepresentation.html" xlink:actuate="onRequest" xlink:href="SubstancePolymer.Repeat.RepeatUnit.StructuralRepresentation.html" xlink:show="new" xlink:title="SubstancePolymer.Repeat.RepeatUnit.StructuralRepresentation.html" xlink:type="simple"><rect fill="#FEFECE" filter="url(#f1273ev2fet0yf)" height="38.2656" id="com.ibm.fhir.model.resource.SubstancePolymer.Repeat.RepeatUnit.StructuralRepresentation" style="stroke: #A80036; stroke-width: 1.5;" width="462" x="872.5" y="350"/><ellipse cx="887.5" cy="369.1328" fill="#ADD1B2" rx="11" ry="11" style="stroke: #A80036; stroke-width: 1.0;"/><path d="M889.9731,375.2759 Q889.3921,375.5747 888.7529,375.7241 Q888.1138,375.8735 887.4082,375.8735 Q884.9014,375.8735 883.5815,374.2217 Q882.2617,372.5698 882.2617,369.4487 Q882.2617,366.3193 883.5815,364.6675 Q884.9014,363.0156 887.4082,363.0156 Q888.1138,363.0156 888.7612,363.165 Q889.4087,363.3145 889.9731,363.6133 L889.9731,366.3359 Q889.3423,365.7549 888.7488,365.4851 Q888.1553,365.2153 887.5244,365.2153 Q886.1797,365.2153 885.4949,366.282 Q884.8101,367.3486 884.8101,369.4487 Q884.8101,371.5405 885.4949,372.6072 Q886.1797,373.6738 887.5244,373.6738 Q888.1553,373.6738 888.7488,373.4041 Q889.3423,373.1343 889.9731,372.5532 Z "/><text fill="#000000" font-family="sans-serif" font-size="14" lengthAdjust="spacingAndGlyphs" textLength="430" x="901.5" y="368.5352">SubstancePolymer.Repeat.RepeatUnit.StructuralRepresentation</text><text fill="#000000" font-family="sans-serif" font-size="10" lengthAdjust="spacingAndGlyphs" textLength="139" x="1047" y="381.1563">com.ibm.fhir.model.resource</text></a><!--MD5=[9b2649eb1f22905d7e627ddc67c1c74a]
reverse link com.ibm.fhir.model.type.BackboneElement to com.ibm.fhir.model.resource.SubstancePolymer.Repeat.RepeatUnit--><path d="M530.2773,84.6474 C538.5635,97.7673 547.8096,112.4069 556.9613,126.897 " fill="none" id="com.ibm.fhir.model.type.BackboneElement&lt;-com.ibm.fhir.model.resource.SubstancePolymer.Repeat.RepeatUnit" style="stroke: #A80036; stroke-width: 1.0;"/><polygon fill="none" points="524.0736,87.9337,519.3122,67.2859,535.9105,80.4578,524.0736,87.9337" style="stroke: #A80036; stroke-width: 1.0;"/><!--MD5=[1e7a8420085bd4ff82782e5c60ce17a9]
reverse link com.ibm.fhir.model.resource.SubstancePolymer.Repeat to com.ibm.fhir.model.resource.SubstancePolymer.Repeat.RepeatUnit--><path d="M696.063,69.8586 C685.7989,86.11 672.8542,106.6059 660.0894,126.8169 " fill="none" id="com.ibm.fhir.model.resource.SubstancePolymer.Repeat&lt;-com.ibm.fhir.model.resource.SubstancePolymer.Repeat.RepeatUnit" style="stroke: #A80036; stroke-width: 1.0;"/><ellipse cx="700.049" cy="63.5474" fill="#FFFFFF" rx="8" ry="8" style="stroke: #A80036; stroke-width: 1.0;"/><line style="stroke: #A80036; stroke-width: 1.0;" x1="695.777" x2="704.321" y1="70.3113" y2="56.7835"/><line style="stroke: #A80036; stroke-width: 1.0;" x1="693.2851" x2="706.8129" y1="59.2754" y2="67.8194"/><!--MD5=[2f5ec983b29a005dcb25ce452b06d787]
reverse link com.ibm.fhir.model.resource.SubstancePolymer.Repeat.RepeatUnit to com.ibm.fhir.model.resource.SubstancePolymer.Repeat.RepeatUnit.Builder--><path d="M413.2935,280.8571 C344.9072,306.2059 273.6593,332.6153 227.1992,349.8367 " fill="none" id="com.ibm.fhir.model.resource.SubstancePolymer.Repeat.RepeatUnit&lt;-com.ibm.fhir.model.resource.SubstancePolymer.Repeat.RepeatUnit.Builder" style="stroke: #A80036; stroke-width: 1.0;"/><ellipse cx="419.8766" cy="278.417" fill="#FFFFFF" rx="8" ry="8" style="stroke: #A80036; stroke-width: 1.0;"/><line style="stroke: #A80036; stroke-width: 1.0;" x1="412.3754" x2="427.3779" y1="281.1975" y2="275.6365"/><line style="stroke: #A80036; stroke-width: 1.0;" x1="417.0961" x2="422.6571" y1="270.9157" y2="285.9183"/><!--MD5=[d2b8ec6f165d162a393e298a277e33bf]
reverse link com.ibm.fhir.model.resource.SubstancePolymer.Repeat.RepeatUnit to com.ibm.fhir.model.resource.SubstancePolymer.Repeat.RepeatUnit.DegreeOfPolymerisation--><path d="M608.5,305.2169 C608.5,322.1421 608.5,338.0461 608.5,349.7396 " fill="none" id="com.ibm.fhir.model.resource.SubstancePolymer.Repeat.RepeatUnit&lt;-com.ibm.fhir.model.resource.SubstancePolymer.Repeat.RepeatUnit.DegreeOfPolymerisation" style="stroke: #A80036; stroke-width: 1.0;"/><ellipse cx="608.5001" cy="298.1606" fill="#FFFFFF" rx="8" ry="8" style="stroke: #A80036; stroke-width: 1.0;"/><line style="stroke: #A80036; stroke-width: 1.0;" x1="608.5002" x2="608.5" y1="306.1606" y2="290.1606"/><line style="stroke: #A80036; stroke-width: 1.0;" x1="600.5001" x2="616.5001" y1="298.1607" y2="298.1605"/><!--MD5=[48ab48e0c597c470879d6a3a46f77a7a]
reverse link com.ibm.fhir.model.resource.SubstancePolymer.Repeat.RepeatUnit to com.ibm.fhir.model.resource.SubstancePolymer.Repeat.RepeatUnit.StructuralRepresentation--><path d="M803.9709,271.88 C890.2078,299.8416 985.2708,330.6651 1044.6783,349.9275 " fill="none" id="com.ibm.fhir.model.resource.SubstancePolymer.Repeat.RepeatUnit&lt;-com.ibm.fhir.model.resource.SubstancePolymer.Repeat.RepeatUnit.StructuralRepresentation" style="stroke: #A80036; stroke-width: 1.0;"/><ellipse cx="797.2682" cy="269.7067" fill="#FFFFFF" rx="8" ry="8" style="stroke: #A80036; stroke-width: 1.0;"/><line style="stroke: #A80036; stroke-width: 1.0;" x1="804.8781" x2="789.6582" y1="272.1742" y2="267.2392"/><line style="stroke: #A80036; stroke-width: 1.0;" x1="794.8007" x2="799.7357" y1="277.3167" y2="262.0967"/><text fill="#888888" font-family="sans-serif" font-size="10" lengthAdjust="spacingAndGlyphs" textLength="182" x="585.5" y="407.668">UMLDoclet 2.0.7, PlantUML 1.2019.12</text><!--MD5=[8398a75c1c6ad5cfc7850953e43c954e]
@startuml
    set namespaceSeparator none
    hide empty fields
    hide empty methods

    class "<size:14>SubstancePolymer.Repeat.RepeatUnit\n<size:10>com.ibm.fhir.model.resource" as com.ibm.fhir.model.resource.SubstancePolymer.Repeat.RepeatUnit [[SubstancePolymer.Repeat.RepeatUnit.html]] {
        +getOrientationOfPolymerisation(): CodeableConcept
        +getRepeatUnit(): String
        +getAmount(): SubstanceAmount
        +getDegreeOfPolymerisation(): List<DegreeOfPolymerisation>
        +getStructuralRepresentation(): List<StructuralRepresentation>
        +hasChildren(): boolean
        +accept(String, int, Visitor): void
        +toBuilder(): Builder
        {static} +builder(): Builder
    }

    abstract class "<size:14>BackboneElement\n<size:10>com.ibm.fhir.model.type" as com.ibm.fhir.model.type.BackboneElement [[../type/BackboneElement.html]] {
        {abstract} +toBuilder(): Builder
    }
    class "<size:14>SubstancePolymer.Repeat\n<size:10>com.ibm.fhir.model.resource" as com.ibm.fhir.model.resource.SubstancePolymer.Repeat [[SubstancePolymer.Repeat.html]]
    class "<size:14>SubstancePolymer.Repeat.RepeatUnit.Builder\n<size:10>com.ibm.fhir.model.resource" as com.ibm.fhir.model.resource.SubstancePolymer.Repeat.RepeatUnit.Builder [[SubstancePolymer.Repeat.RepeatUnit.Builder.html]]
    class "<size:14>SubstancePolymer.Repeat.RepeatUnit.DegreeOfPolymerisation\n<size:10>com.ibm.fhir.model.resource" as com.ibm.fhir.model.resource.SubstancePolymer.Repeat.RepeatUnit.DegreeOfPolymerisation [[SubstancePolymer.Repeat.RepeatUnit.DegreeOfPolymerisation.html]]
    class "<size:14>SubstancePolymer.Repeat.RepeatUnit.StructuralRepresentation\n<size:10>com.ibm.fhir.model.resource" as com.ibm.fhir.model.resource.SubstancePolymer.Repeat.RepeatUnit.StructuralRepresentation [[SubstancePolymer.Repeat.RepeatUnit.StructuralRepresentation.html]]

    com.ibm.fhir.model.type.BackboneElement <|- - com.ibm.fhir.model.resource.SubstancePolymer.Repeat.RepeatUnit
    com.ibm.fhir.model.resource.SubstancePolymer.Repeat +- - com.ibm.fhir.model.resource.SubstancePolymer.Repeat.RepeatUnit
    com.ibm.fhir.model.resource.SubstancePolymer.Repeat.RepeatUnit +- - com.ibm.fhir.model.resource.SubstancePolymer.Repeat.RepeatUnit.Builder
    com.ibm.fhir.model.resource.SubstancePolymer.Repeat.RepeatUnit +- - com.ibm.fhir.model.resource.SubstancePolymer.Repeat.RepeatUnit.DegreeOfPolymerisation
    com.ibm.fhir.model.resource.SubstancePolymer.Repeat.RepeatUnit +- - com.ibm.fhir.model.resource.SubstancePolymer.Repeat.RepeatUnit.StructuralRepresentation

    center footer UMLDoclet 2.0.7, PlantUML 1.2019.12
@enduml

PlantUML version 1.2019.12(Sun Nov 03 05:24:54 EST 2019)
(APACHE source distribution)
Java Runtime: OpenJDK Runtime Environment
JVM: OpenJDK 64-Bit Server VM
Java Version: 11.0.4+11
Operating System: Mac OS X
Default Encoding: UTF-8
Language: en
Country: US
--></g></svg>