<?xml version="1.0" encoding="UTF-8" standalone="no"?><svg xmlns="http://www.w3.org/2000/svg" xmlns:xlink="http://www.w3.org/1999/xlink" contentScriptType="application/ecmascript" contentStyleType="text/css" height="534px" preserveAspectRatio="none" style="width:1789px;height:534px;" version="1.1" viewBox="0 0 1789 534" width="1789px" zoomAndPan="magnify"><defs><filter height="300%" id="f1kg96q7ha8g27" width="300%" x="-1" y="-1"><feGaussianBlur result="blurOut" stdDeviation="2.0"/><feColorMatrix in="blurOut" result="blurOut2" type="matrix" values="0 0 0 0 0 0 0 0 0 0 0 0 0 0 0 0 0 0 .4 0"/><feOffset dx="4.0" dy="4.0" in="blurOut2" result="blurOut3"/><feBlend in="SourceGraphic" in2="blurOut3" mode="normal"/></filter></defs><g><!--MD5=[de60fd1bf5a3a58a255d1792ecae582d]
cluster com.ibm.fhir.database.utils.version--><polygon fill="#FFFFFF" filter="url(#f1kg96q7ha8g27)" points="14,162,297,162,304,184.2969,1767,184.2969,1767,494,14,494,14,162" style="stroke: #000000; stroke-width: 1.5;"/><line style="stroke: #000000; stroke-width: 1.5;" x1="14" x2="304" y1="184.2969" y2="184.2969"/><text fill="#000000" font-family="sans-serif" font-size="14" font-weight="bold" lengthAdjust="spacingAndGlyphs" textLength="277" x="18" y="176.9951">com.ibm.fhir.database.utils.version</text><!--MD5=[3d30f6fe734b0ef414cf6767e542597b]
cluster com.ibm.fhir.database.utils.api--><polygon fill="#FFFFFF" filter="url(#f1kg96q7ha8g27)" points="486,16,733,16,740,38.2969,1363,38.2969,1363,137,486,137,486,16" style="stroke: #000000; stroke-width: 1.5;"/><line style="stroke: #000000; stroke-width: 1.5;" x1="486" x2="740" y1="38.2969" y2="38.2969"/><text fill="#000000" font-family="sans-serif" font-size="14" font-weight="bold" lengthAdjust="spacingAndGlyphs" textLength="241" x="490" y="30.9951">com.ibm.fhir.database.utils.api</text><!--MD5=[137203e71a315a48f03b099af94b85b3]
class com.ibm.fhir.database.utils.version.SchemaConstants--><a href="SchemaConstants.html" target="_top" title="SchemaConstants.html" xlink:actuate="onRequest" xlink:href="SchemaConstants.html" xlink:show="new" xlink:title="SchemaConstants.html" xlink:type="simple"><rect fill="#FEFECE" filter="url(#f1kg96q7ha8g27)" height="137.6328" id="com.ibm.fhir.database.utils.version.SchemaConstants" style="stroke: #A80036; stroke-width: 1.5;" width="172" x="1587" y="214.5"/><ellipse cx="1613.7" cy="230.5" fill="#ADD1B2" rx="11" ry="11" style="stroke: #A80036; stroke-width: 1.0;"/><path d="M1616.6688,236.1406 Q1616.0906,236.4375 1615.45,236.5781 Q1614.8094,236.7344 1614.1063,236.7344 Q1611.6063,236.7344 1610.2781,235.0938 Q1608.9656,233.4375 1608.9656,230.3125 Q1608.9656,227.1875 1610.2781,225.5313 Q1611.6063,223.875 1614.1063,223.875 Q1614.8094,223.875 1615.45,224.0313 Q1616.1063,224.1875 1616.6688,224.4844 L1616.6688,227.2031 Q1616.0438,226.625 1615.45,226.3594 Q1614.8563,226.0781 1614.2313,226.0781 Q1612.8875,226.0781 1612.2,227.1563 Q1611.5125,228.2188 1611.5125,230.3125 Q1611.5125,232.4063 1612.2,233.4844 Q1612.8875,234.5469 1614.2313,234.5469 Q1614.8563,234.5469 1615.45,234.2813 Q1616.0438,234 1616.6688,233.4219 L1616.6688,236.1406 Z "/><text fill="#000000" font-family="sans-serif" font-size="12" lengthAdjust="spacingAndGlyphs" textLength="114" x="1630.3" y="234.6543">SchemaConstants</text><line style="stroke: #A80036; stroke-width: 1.5;" x1="1588" x2="1758" y1="246.5" y2="246.5"/><ellipse cx="1598" cy="257.5" fill="none" rx="3" ry="3" style="stroke: #038048; stroke-width: 1.0;"/><text fill="#000000" font-family="sans-serif" font-size="11" lengthAdjust="spacingAndGlyphs" text-decoration="underline" textLength="146" x="1607" y="260.7104">VERSION_HISTORY: String</text><ellipse cx="1598" cy="270.3047" fill="none" rx="3" ry="3" style="stroke: #038048; stroke-width: 1.0;"/><text fill="#000000" font-family="sans-serif" font-size="11" lengthAdjust="spacingAndGlyphs" text-decoration="underline" textLength="91" x="1607" y="273.5151">VERSION: String</text><ellipse cx="1598" cy="283.1094" fill="none" rx="3" ry="3" style="stroke: #038048; stroke-width: 1.0;"/><text fill="#000000" font-family="sans-serif" font-size="11" lengthAdjust="spacingAndGlyphs" text-decoration="underline" textLength="87" x="1607" y="286.3198">APPLIED: String</text><ellipse cx="1598" cy="295.9141" fill="none" rx="3" ry="3" style="stroke: #038048; stroke-width: 1.0;"/><text fill="#000000" font-family="sans-serif" font-size="11" lengthAdjust="spacingAndGlyphs" text-decoration="underline" textLength="118" x="1607" y="299.1245">OBJECT_TYPE: String</text><ellipse cx="1598" cy="308.7188" fill="none" rx="3" ry="3" style="stroke: #038048; stroke-width: 1.0;"/><text fill="#000000" font-family="sans-serif" font-size="11" lengthAdjust="spacingAndGlyphs" text-decoration="underline" textLength="121" x="1607" y="311.9292">OBJECT_NAME: String</text><ellipse cx="1598" cy="321.5234" fill="none" rx="3" ry="3" style="stroke: #038048; stroke-width: 1.0;"/><text fill="#000000" font-family="sans-serif" font-size="11" lengthAdjust="spacingAndGlyphs" text-decoration="underline" textLength="126" x="1607" y="324.7339">SCHEMA_NAME: String</text><ellipse cx="1598" cy="334.3281" fill="none" rx="3" ry="3" style="stroke: #038048; stroke-width: 1.0;"/><text fill="#000000" font-family="sans-serif" font-size="11" lengthAdjust="spacingAndGlyphs" text-decoration="underline" textLength="82" x="1607" y="337.5386">UTC: Calendar</text><line style="stroke: #A80036; stroke-width: 1.5;" x1="1588" x2="1758" y1="344.1328" y2="344.1328"/></a><!--MD5=[cd297bdeb017d2c91ea626f9b101db5b]
class com.ibm.fhir.database.utils.version.GetLatestVersionDAO--><a href="GetLatestVersionDAO.html" target="_top" title="GetLatestVersionDAO.html" xlink:actuate="onRequest" xlink:href="GetLatestVersionDAO.html" xlink:show="new" xlink:title="GetLatestVersionDAO.html" xlink:type="simple"><rect fill="#FEFECE" filter="url(#f1kg96q7ha8g27)" height="73.6094" id="com.ibm.fhir.database.utils.version.GetLatestVersionDAO" style="stroke: #A80036; stroke-width: 1.5;" width="371" x="1180.5" y="246.5"/><ellipse cx="1294.75" cy="262.5" fill="#ADD1B2" rx="11" ry="11" style="stroke: #A80036; stroke-width: 1.0;"/><path d="M1297.7188,268.1406 Q1297.1406,268.4375 1296.5,268.5781 Q1295.8594,268.7344 1295.1563,268.7344 Q1292.6563,268.7344 1291.3281,267.0938 Q1290.0156,265.4375 1290.0156,262.3125 Q1290.0156,259.1875 1291.3281,257.5313 Q1292.6563,255.875 1295.1563,255.875 Q1295.8594,255.875 1296.5,256.0313 Q1297.1563,256.1875 1297.7188,256.4844 L1297.7188,259.2031 Q1297.0938,258.625 1296.5,258.3594 Q1295.9063,258.0781 1295.2813,258.0781 Q1293.9375,258.0781 1293.25,259.1563 Q1292.5625,260.2188 1292.5625,262.3125 Q1292.5625,264.4063 1293.25,265.4844 Q1293.9375,266.5469 1295.2813,266.5469 Q1295.9063,266.5469 1296.5,266.2813 Q1297.0938,266 1297.7188,265.4219 L1297.7188,268.1406 Z "/><text fill="#000000" font-family="sans-serif" font-size="12" lengthAdjust="spacingAndGlyphs" textLength="134" x="1315.25" y="266.6543">GetLatestVersionDAO</text><line style="stroke: #A80036; stroke-width: 1.5;" x1="1181.5" x2="1550.5" y1="278.5" y2="278.5"/><line style="stroke: #A80036; stroke-width: 1.5;" x1="1181.5" x2="1550.5" y1="286.5" y2="286.5"/><ellipse cx="1191.5" cy="297.5" fill="#84BE84" rx="3" ry="3" style="stroke: #038048; stroke-width: 1.0;"/><text fill="#000000" font-family="sans-serif" font-size="11" lengthAdjust="spacingAndGlyphs" textLength="206" x="1200.5" y="300.7104">GetLatestVersionDAO(String, String)</text><ellipse cx="1191.5" cy="310.3047" fill="#84BE84" rx="3" ry="3" style="stroke: #038048; stroke-width: 1.0;"/><text fill="#000000" font-family="sans-serif" font-size="11" lengthAdjust="spacingAndGlyphs" textLength="345" x="1200.5" y="313.5151">run(IDatabaseTranslator, Connection): Map&lt;String, Integer&gt;</text></a><!--MD5=[9bd898e0db36877e11fa9a2ed9e60c3c]
class com.ibm.fhir.database.utils.version.VersionHistoryService--><a href="VersionHistoryService.html" target="_top" title="VersionHistoryService.html" xlink:actuate="onRequest" xlink:href="VersionHistoryService.html" xlink:show="new" xlink:title="VersionHistoryService.html" xlink:type="simple"><rect fill="#FEFECE" filter="url(#f1kg96q7ha8g27)" height="188.8516" id="com.ibm.fhir.database.utils.version.VersionHistoryService" style="stroke: #A80036; stroke-width: 1.5;" width="424" x="721" y="189"/><ellipse cx="861.25" cy="205" fill="#ADD1B2" rx="11" ry="11" style="stroke: #A80036; stroke-width: 1.0;"/><path d="M864.2188,210.6406 Q863.6406,210.9375 863,211.0781 Q862.3594,211.2344 861.6563,211.2344 Q859.1563,211.2344 857.8281,209.5938 Q856.5156,207.9375 856.5156,204.8125 Q856.5156,201.6875 857.8281,200.0313 Q859.1563,198.375 861.6563,198.375 Q862.3594,198.375 863,198.5313 Q863.6563,198.6875 864.2188,198.9844 L864.2188,201.7031 Q863.5938,201.125 863,200.8594 Q862.4063,200.5781 861.7813,200.5781 Q860.4375,200.5781 859.75,201.6563 Q859.0625,202.7188 859.0625,204.8125 Q859.0625,206.9063 859.75,207.9844 Q860.4375,209.0469 861.7813,209.0469 Q862.4063,209.0469 863,208.7813 Q863.5938,208.5 864.2188,207.9219 L864.2188,210.6406 Z "/><text fill="#000000" font-family="sans-serif" font-size="12" lengthAdjust="spacingAndGlyphs" textLength="135" x="881.75" y="209.1543">VersionHistoryService</text><line style="stroke: #A80036; stroke-width: 1.5;" x1="722" x2="1144" y1="221" y2="221"/><line style="stroke: #A80036; stroke-width: 1.5;" x1="722" x2="1144" y1="229" y2="229"/><ellipse cx="732" cy="240" fill="#84BE84" rx="3" ry="3" style="stroke: #038048; stroke-width: 1.0;"/><text fill="#000000" font-family="sans-serif" font-size="11" lengthAdjust="spacingAndGlyphs" textLength="221" x="741" y="243.2104">VersionHistoryService(String, String...)</text><ellipse cx="732" cy="252.8047" fill="#84BE84" rx="3" ry="3" style="stroke: #038048; stroke-width: 1.0;"/><text fill="#000000" font-family="sans-serif" font-size="11" lengthAdjust="spacingAndGlyphs" textLength="288" x="741" y="256.0151">setTransactionProvider(ITransactionProvider): void</text><ellipse cx="732" cy="265.6094" fill="#84BE84" rx="3" ry="3" style="stroke: #038048; stroke-width: 1.0;"/><text fill="#000000" font-family="sans-serif" font-size="11" lengthAdjust="spacingAndGlyphs" textLength="195" x="741" y="268.8198">setTarget(IDatabaseAdapter): void</text><ellipse cx="732" cy="278.4141" fill="#84BE84" rx="3" ry="3" style="stroke: #038048; stroke-width: 1.0;"/><text fill="#000000" font-family="sans-serif" font-size="11" lengthAdjust="spacingAndGlyphs" textLength="56" x="741" y="281.6245">init(): void</text><ellipse cx="732" cy="291.2188" fill="#84BE84" rx="3" ry="3" style="stroke: #038048; stroke-width: 1.0;"/><text fill="#000000" font-family="sans-serif" font-size="11" lengthAdjust="spacingAndGlyphs" textLength="365" x="741" y="294.4292">insertVersionHistoriesInTx(Collection&lt;TypeNameVersion&gt;): void</text><ellipse cx="732" cy="304.0234" fill="#84BE84" rx="3" ry="3" style="stroke: #038048; stroke-width: 1.0;"/><text fill="#000000" font-family="sans-serif" font-size="11" lengthAdjust="spacingAndGlyphs" textLength="318" x="741" y="307.2339">insertVersionHistoryInTx(String, String, String, int): void</text><ellipse cx="732" cy="316.8281" fill="#84BE84" rx="3" ry="3" style="stroke: #038048; stroke-width: 1.0;"/><text fill="#000000" font-family="sans-serif" font-size="11" lengthAdjust="spacingAndGlyphs" textLength="331" x="741" y="320.0386">insertVersionHistory(Collection&lt;TypeNameVersion&gt;): void</text><ellipse cx="732" cy="329.6328" fill="#84BE84" rx="3" ry="3" style="stroke: #038048; stroke-width: 1.0;"/><text fill="#000000" font-family="sans-serif" font-size="11" lengthAdjust="spacingAndGlyphs" text-decoration="underline" textLength="398" x="741" y="332.8433">createTypeNameVersion(String, String, String, int): TypeNameVersion</text><ellipse cx="732" cy="342.4375" fill="#84BE84" rx="3" ry="3" style="stroke: #038048; stroke-width: 1.0;"/><text fill="#000000" font-family="sans-serif" font-size="11" lengthAdjust="spacingAndGlyphs" textLength="235" x="741" y="345.6479">getVersion(String, String, String): Integer</text><ellipse cx="732" cy="355.2422" fill="#84BE84" rx="3" ry="3" style="stroke: #038048; stroke-width: 1.0;"/><text fill="#000000" font-family="sans-serif" font-size="11" lengthAdjust="spacingAndGlyphs" textLength="243" x="741" y="358.4526">addVersion(String, String, String, int): void</text><ellipse cx="732" cy="368.0469" fill="#84BE84" rx="3" ry="3" style="stroke: #038048; stroke-width: 1.0;"/><text fill="#000000" font-family="sans-serif" font-size="11" lengthAdjust="spacingAndGlyphs" textLength="242" x="741" y="371.2573">applies(String, String, String, int): boolean</text></a><!--MD5=[f17292e42b5029c838c0fb213b25d575]
class com.ibm.fhir.database.utils.version.VersionHistoryService.TypeNameVersion--><a href="VersionHistoryService.TypeNameVersion.html" target="_top" title="VersionHistoryService.TypeNameVersion.html" xlink:actuate="onRequest" xlink:href="VersionHistoryService.TypeNameVersion.html" xlink:show="new" xlink:title="VersionHistoryService.TypeNameVersion.html" xlink:type="simple"><rect fill="#FEFECE" filter="url(#f1kg96q7ha8g27)" height="48" id="com.ibm.fhir.database.utils.version.VersionHistoryService.TypeNameVersion" style="stroke: #A80036; stroke-width: 1.5;" width="283" x="791.5" y="438"/><ellipse cx="806.5" cy="454" fill="#ADD1B2" rx="11" ry="11" style="stroke: #A80036; stroke-width: 1.0;"/><path d="M809.4688,459.6406 Q808.8906,459.9375 808.25,460.0781 Q807.6094,460.2344 806.9063,460.2344 Q804.4063,460.2344 803.0781,458.5938 Q801.7656,456.9375 801.7656,453.8125 Q801.7656,450.6875 803.0781,449.0313 Q804.4063,447.375 806.9063,447.375 Q807.6094,447.375 808.25,447.5313 Q808.9063,447.6875 809.4688,447.9844 L809.4688,450.7031 Q808.8438,450.125 808.25,449.8594 Q807.6563,449.5781 807.0313,449.5781 Q805.6875,449.5781 805,450.6563 Q804.3125,451.7188 804.3125,453.8125 Q804.3125,455.9063 805,456.9844 Q805.6875,458.0469 807.0313,458.0469 Q807.6563,458.0469 808.25,457.7813 Q808.8438,457.5 809.4688,456.9219 L809.4688,459.6406 Z "/><text fill="#000000" font-family="sans-serif" font-size="12" lengthAdjust="spacingAndGlyphs" textLength="251" x="820.5" y="458.1543">VersionHistoryService.TypeNameVersion</text><line style="stroke: #A80036; stroke-width: 1.5;" x1="792.5" x2="1073.5" y1="470" y2="470"/><line style="stroke: #A80036; stroke-width: 1.5;" x1="792.5" x2="1073.5" y1="478" y2="478"/></a><!--MD5=[099a442397fe24b54b7c78828b5d1b70]
class com.ibm.fhir.database.utils.version.CreateVersionHistory--><a href="CreateVersionHistory.html" target="_top" title="CreateVersionHistory.html" xlink:actuate="onRequest" xlink:href="CreateVersionHistory.html" xlink:show="new" xlink:title="CreateVersionHistory.html" xlink:type="simple"><rect fill="#FEFECE" filter="url(#f1kg96q7ha8g27)" height="60.8047" id="com.ibm.fhir.database.utils.version.CreateVersionHistory" style="stroke: #A80036; stroke-width: 1.5;" width="325" x="361.5" y="253"/><ellipse cx="453.75" cy="269" fill="#ADD1B2" rx="11" ry="11" style="stroke: #A80036; stroke-width: 1.0;"/><path d="M456.7188,274.6406 Q456.1406,274.9375 455.5,275.0781 Q454.8594,275.2344 454.1563,275.2344 Q451.6563,275.2344 450.3281,273.5938 Q449.0156,271.9375 449.0156,268.8125 Q449.0156,265.6875 450.3281,264.0313 Q451.6563,262.375 454.1563,262.375 Q454.8594,262.375 455.5,262.5313 Q456.1563,262.6875 456.7188,262.9844 L456.7188,265.7031 Q456.0938,265.125 455.5,264.8594 Q454.9063,264.5781 454.2813,264.5781 Q452.9375,264.5781 452.25,265.6563 Q451.5625,266.7188 451.5625,268.8125 Q451.5625,270.9063 452.25,271.9844 Q452.9375,273.0469 454.2813,273.0469 Q454.9063,273.0469 455.5,272.7813 Q456.0938,272.5 456.7188,271.9219 L456.7188,274.6406 Z "/><text fill="#000000" font-family="sans-serif" font-size="12" lengthAdjust="spacingAndGlyphs" textLength="132" x="474.25" y="273.1543">CreateVersionHistory</text><line style="stroke: #A80036; stroke-width: 1.5;" x1="362.5" x2="685.5" y1="285" y2="285"/><line style="stroke: #A80036; stroke-width: 1.5;" x1="362.5" x2="685.5" y1="293" y2="293"/><ellipse cx="372.5" cy="304" fill="#84BE84" rx="3" ry="3" style="stroke: #038048; stroke-width: 1.0;"/><text fill="#000000" font-family="sans-serif" font-size="11" lengthAdjust="spacingAndGlyphs" text-decoration="underline" textLength="299" x="381.5" y="307.2104">createTableIfNeeded(String, IDatabaseAdapter): void</text></a><!--MD5=[013a24eae91696482d848bb7794a8cf0]
class com.ibm.fhir.database.utils.version.AddVersionDAO--><a href="AddVersionDAO.html" target="_top" title="AddVersionDAO.html" xlink:actuate="onRequest" xlink:href="AddVersionDAO.html" xlink:show="new" xlink:title="AddVersionDAO.html" xlink:type="simple"><rect fill="#FEFECE" filter="url(#f1kg96q7ha8g27)" height="73.6094" id="com.ibm.fhir.database.utils.version.AddVersionDAO" style="stroke: #A80036; stroke-width: 1.5;" width="304" x="22" y="246.5"/><ellipse cx="121.25" cy="262.5" fill="#ADD1B2" rx="11" ry="11" style="stroke: #A80036; stroke-width: 1.0;"/><path d="M124.2188,268.1406 Q123.6406,268.4375 123,268.5781 Q122.3594,268.7344 121.6563,268.7344 Q119.1563,268.7344 117.8281,267.0938 Q116.5156,265.4375 116.5156,262.3125 Q116.5156,259.1875 117.8281,257.5313 Q119.1563,255.875 121.6563,255.875 Q122.3594,255.875 123,256.0313 Q123.6563,256.1875 124.2188,256.4844 L124.2188,259.2031 Q123.5938,258.625 123,258.3594 Q122.4063,258.0781 121.7813,258.0781 Q120.4375,258.0781 119.75,259.1563 Q119.0625,260.2188 119.0625,262.3125 Q119.0625,264.4063 119.75,265.4844 Q120.4375,266.5469 121.7813,266.5469 Q122.4063,266.5469 123,266.2813 Q123.5938,266 124.2188,265.4219 L124.2188,268.1406 Z "/><text fill="#000000" font-family="sans-serif" font-size="12" lengthAdjust="spacingAndGlyphs" textLength="97" x="141.75" y="266.6543">AddVersionDAO</text><line style="stroke: #A80036; stroke-width: 1.5;" x1="23" x2="325" y1="278.5" y2="278.5"/><line style="stroke: #A80036; stroke-width: 1.5;" x1="23" x2="325" y1="286.5" y2="286.5"/><ellipse cx="33" cy="297.5" fill="#84BE84" rx="3" ry="3" style="stroke: #038048; stroke-width: 1.0;"/><text fill="#000000" font-family="sans-serif" font-size="11" lengthAdjust="spacingAndGlyphs" textLength="278" x="42" y="300.7104">AddVersionDAO(String, String, String, String, int)</text><ellipse cx="33" cy="310.3047" fill="#84BE84" rx="3" ry="3" style="stroke: #038048; stroke-width: 1.0;"/><text fill="#000000" font-family="sans-serif" font-size="11" lengthAdjust="spacingAndGlyphs" textLength="245" x="42" y="313.5151">run(IDatabaseTranslator, Connection): void</text></a><!--MD5=[93ea417c481fd981345e931714a643b2]
class com.ibm.fhir.database.utils.api.IDatabaseSupplier--><a href="../api/IDatabaseSupplier.html" target="_top" title="../api/IDatabaseSupplier.html" xlink:actuate="onRequest" xlink:href="../api/IDatabaseSupplier.html" xlink:show="new" xlink:title="../api/IDatabaseSupplier.html" xlink:type="simple"><rect fill="#FEFECE" filter="url(#f1kg96q7ha8g27)" height="60.8047" id="com.ibm.fhir.database.utils.api.IDatabaseSupplier" style="stroke: #A80036; stroke-width: 1.5;" width="253" x="1101.5" y="55.5"/><ellipse cx="1160.75" cy="71.5" fill="#B4A7E5" rx="11" ry="11" style="stroke: #A80036; stroke-width: 1.0;"/><path d="M1156.6719,67.2656 L1156.6719,65.1094 L1164.0625,65.1094 L1164.0625,67.2656 L1161.5938,67.2656 L1161.5938,75.3438 L1164.0625,75.3438 L1164.0625,77.5 L1156.6719,77.5 L1156.6719,75.3438 L1159.1406,75.3438 L1159.1406,67.2656 L1156.6719,67.2656 Z "/><text fill="#000000" font-family="sans-serif" font-size="12" font-style="italic" lengthAdjust="spacingAndGlyphs" textLength="115" x="1181.25" y="75.6543">IDatabaseSupplier</text><rect fill="#FFFFFF" height="15.9688" style="stroke: #000000; stroke-width: 1.0; stroke-dasharray: 2.0,2.0;" width="9" x="1348.5" y="52.5"/><text fill="#000000" font-family="sans-serif" font-size="12" font-style="italic" lengthAdjust="spacingAndGlyphs" textLength="7" x="1349.5" y="64.6387">T</text><line style="stroke: #A80036; stroke-width: 1.5;" x1="1102.5" x2="1353.5" y1="87.5" y2="87.5"/><line style="stroke: #A80036; stroke-width: 1.5;" x1="1102.5" x2="1353.5" y1="95.5" y2="95.5"/><ellipse cx="1112.5" cy="106.5" fill="#84BE84" rx="3" ry="3" style="stroke: #038048; stroke-width: 1.0;"/><text fill="#000000" font-family="sans-serif" font-size="11" font-style="italic" lengthAdjust="spacingAndGlyphs" textLength="227" x="1121.5" y="109.7104">run(IDatabaseTranslator, Connection): T</text></a><!--MD5=[4216d4aef7ab0ea897aff55d4a85063c]
class com.ibm.fhir.database.utils.api.IVersionHistoryService--><a href="../api/IVersionHistoryService.html" target="_top" title="../api/IVersionHistoryService.html" xlink:actuate="onRequest" xlink:href="../api/IVersionHistoryService.html" xlink:show="new" xlink:title="../api/IVersionHistoryService.html" xlink:type="simple"><rect fill="#FEFECE" filter="url(#f1kg96q7ha8g27)" height="86.4141" id="com.ibm.fhir.database.utils.api.IVersionHistoryService" style="stroke: #A80036; stroke-width: 1.5;" width="267" x="799.5" y="43"/><ellipse cx="859.75" cy="59" fill="#B4A7E5" rx="11" ry="11" style="stroke: #A80036; stroke-width: 1.0;"/><path d="M855.6719,54.7656 L855.6719,52.6094 L863.0625,52.6094 L863.0625,54.7656 L860.5938,54.7656 L860.5938,62.8438 L863.0625,62.8438 L863.0625,65 L855.6719,65 L855.6719,62.8438 L858.1406,62.8438 L858.1406,54.7656 L855.6719,54.7656 Z "/><text fill="#000000" font-family="sans-serif" font-size="12" font-style="italic" lengthAdjust="spacingAndGlyphs" textLength="138" x="880.25" y="63.1543">IVersionHistoryService</text><line style="stroke: #A80036; stroke-width: 1.5;" x1="800.5" x2="1065.5" y1="75" y2="75"/><line style="stroke: #A80036; stroke-width: 1.5;" x1="800.5" x2="1065.5" y1="83" y2="83"/><ellipse cx="810.5" cy="94" fill="#84BE84" rx="3" ry="3" style="stroke: #038048; stroke-width: 1.0;"/><text fill="#000000" font-family="sans-serif" font-size="11" font-style="italic" lengthAdjust="spacingAndGlyphs" textLength="241" x="819.5" y="97.2104">addVersion(String, String, String, int): void</text><ellipse cx="810.5" cy="106.8047" fill="#84BE84" rx="3" ry="3" style="stroke: #038048; stroke-width: 1.0;"/><text fill="#000000" font-family="sans-serif" font-size="11" font-style="italic" lengthAdjust="spacingAndGlyphs" textLength="238" x="819.5" y="110.0151">applies(String, String, String, int): boolean</text><ellipse cx="810.5" cy="119.6094" fill="#84BE84" rx="3" ry="3" style="stroke: #038048; stroke-width: 1.0;"/><text fill="#000000" font-family="sans-serif" font-size="11" font-style="italic" lengthAdjust="spacingAndGlyphs" textLength="232" x="819.5" y="122.8198">getVersion(String, String, String): Integer</text></a><!--MD5=[a6c3f5e8fad2a12b9c0e8873425ea717]
class com.ibm.fhir.database.utils.api.IDatabaseStatement--><a href="../api/IDatabaseStatement.html" target="_top" title="../api/IDatabaseStatement.html" xlink:actuate="onRequest" xlink:href="../api/IDatabaseStatement.html" xlink:show="new" xlink:title="../api/IDatabaseStatement.html" xlink:type="simple"><rect fill="#FEFECE" filter="url(#f1kg96q7ha8g27)" height="60.8047" id="com.ibm.fhir.database.utils.api.IDatabaseStatement" style="stroke: #A80036; stroke-width: 1.5;" width="270" x="494" y="55.5"/><ellipse cx="559.75" cy="71.5" fill="#B4A7E5" rx="11" ry="11" style="stroke: #A80036; stroke-width: 1.0;"/><path d="M555.6719,67.2656 L555.6719,65.1094 L563.0625,65.1094 L563.0625,67.2656 L560.5938,67.2656 L560.5938,75.3438 L563.0625,75.3438 L563.0625,77.5 L555.6719,77.5 L555.6719,75.3438 L558.1406,75.3438 L558.1406,67.2656 L555.6719,67.2656 Z "/><text fill="#000000" font-family="sans-serif" font-size="12" font-style="italic" lengthAdjust="spacingAndGlyphs" textLength="130" x="580.25" y="75.6543">IDatabaseStatement</text><line style="stroke: #A80036; stroke-width: 1.5;" x1="495" x2="763" y1="87.5" y2="87.5"/><line style="stroke: #A80036; stroke-width: 1.5;" x1="495" x2="763" y1="95.5" y2="95.5"/><ellipse cx="505" cy="106.5" fill="#84BE84" rx="3" ry="3" style="stroke: #038048; stroke-width: 1.0;"/><text fill="#000000" font-family="sans-serif" font-size="11" font-style="italic" lengthAdjust="spacingAndGlyphs" textLength="244" x="514" y="109.7104">run(IDatabaseTranslator, Connection): void</text></a><!--MD5=[01b57e3dbdf09fb668b2f6d9f28af8fc]
reverse link com.ibm.fhir.database.utils.api.IDatabaseSupplier to com.ibm.fhir.database.utils.version.GetLatestVersionDAO--><path d="M1261.0589,133.3125 C1285.3026,168.0091 1317.7584,214.4586 1340.1242,246.4677 " fill="none" id="com.ibm.fhir.database.utils.api.IDatabaseSupplier&lt;-com.ibm.fhir.database.utils.version.GetLatestVersionDAO" style="stroke: #A80036; stroke-width: 1.0; stroke-dasharray: 7.0,7.0;"/><polygon fill="none" points="1255.2798,137.2632,1249.5625,116.8594,1266.7559,129.2444,1255.2798,137.2632" style="stroke: #A80036; stroke-width: 1.0;"/><!--MD5=[44fa4ba1b7a7cd0a5be7fe92c7dfc32a]
reverse link com.ibm.fhir.database.utils.api.IVersionHistoryService to com.ibm.fhir.database.utils.version.VersionHistoryService--><path d="M933,149.4902 C933,162.0565 933,175.4998 933,188.8433 " fill="none" id="com.ibm.fhir.database.utils.api.IVersionHistoryService&lt;-com.ibm.fhir.database.utils.version.VersionHistoryService" style="stroke: #A80036; stroke-width: 1.0; stroke-dasharray: 7.0,7.0;"/><polygon fill="none" points="926.0001,149.3422,933,129.3422,940.0001,149.3422,926.0001,149.3422" style="stroke: #A80036; stroke-width: 1.0;"/><!--MD5=[5ce9799abee4c417e8aeb613f29b055c]
reverse link com.ibm.fhir.database.utils.version.VersionHistoryService to com.ibm.fhir.database.utils.version.VersionHistoryService.TypeNameVersion--><path d="M933,393.4442 C933,410.1378 933,425.8092 933,437.9434 " fill="none" id="com.ibm.fhir.database.utils.version.VersionHistoryService&lt;-com.ibm.fhir.database.utils.version.VersionHistoryService.TypeNameVersion" style="stroke: #A80036; stroke-width: 1.0;"/><ellipse cx="933" cy="386.2379" fill="#FFFFFF" rx="8" ry="8" style="stroke: #A80036; stroke-width: 1.0;"/><line style="stroke: #A80036; stroke-width: 1.0;" x1="933" x2="933" y1="394.2379" y2="378.2379"/><line style="stroke: #A80036; stroke-width: 1.0;" x1="925" x2="941" y1="386.2379" y2="386.2379"/><!--MD5=[da8bea10e46020ac84807ea64e289e25]
reverse link com.ibm.fhir.database.utils.api.IDatabaseStatement to com.ibm.fhir.database.utils.version.AddVersionDAO--><path d="M474.2477,116.4808 C430.9664,127.8641 384.6688,142.8258 344,162 C297.0776,184.1226 249.5317,219.4413 216.7,246.3109 " fill="none" id="com.ibm.fhir.database.utils.api.IDatabaseStatement&lt;-com.ibm.fhir.database.utils.version.AddVersionDAO" style="stroke: #A80036; stroke-width: 1.0; stroke-dasharray: 7.0,7.0;"/><polygon fill="none" points="472.7833,109.6307,493.8903,111.5002,476.2243,123.2012,472.7833,109.6307" style="stroke: #A80036; stroke-width: 1.0;"/><text fill="#888888" font-family="sans-serif" font-size="10" lengthAdjust="spacingAndGlyphs" textLength="186" x="803.5" y="521.2822">UMLDoclet 2.0.7, PlantUML 1.2019.12</text><!--MD5=[9791d764604957041005e180680042fb]
@startuml
    namespace com.ibm.fhir.database.utils.version {

        class SchemaConstants [[SchemaConstants.html]] {
            {static} +VERSION_HISTORY: String
            {static} +VERSION: String
            {static} +APPLIED: String
            {static} +OBJECT_TYPE: String
            {static} +OBJECT_NAME: String
            {static} +SCHEMA_NAME: String
            {static} +UTC: Calendar
        }

        class GetLatestVersionDAO [[GetLatestVersionDAO.html]] {
            +GetLatestVersionDAO(String, String)
            +run(IDatabaseTranslator, Connection): Map<String, Integer>
        }

        class VersionHistoryService [[VersionHistoryService.html]] {
            +VersionHistoryService(String, String...)
            +setTransactionProvider(ITransactionProvider): void
            +setTarget(IDatabaseAdapter): void
            +init(): void
            +insertVersionHistoriesInTx(Collection<TypeNameVersion>): void
            +insertVersionHistoryInTx(String, String, String, int): void
            +insertVersionHistory(Collection<TypeNameVersion>): void
            {static} +createTypeNameVersion(String, String, String, int): TypeNameVersion
            +getVersion(String, String, String): Integer
            +addVersion(String, String, String, int): void
            +applies(String, String, String, int): boolean
        }

        class com.ibm.fhir.database.utils.version.VersionHistoryService.TypeNameVersion [[VersionHistoryService.TypeNameVersion.html]] {
        }

        class CreateVersionHistory [[CreateVersionHistory.html]] {
            {static} +createTableIfNeeded(String, IDatabaseAdapter): void
        }

        class AddVersionDAO [[AddVersionDAO.html]] {
            +AddVersionDAO(String, String, String, String, int)
            +run(IDatabaseTranslator, Connection): void
        }

        com.ibm.fhir.database.utils.api.IDatabaseSupplier <|.. GetLatestVersionDAO
        com.ibm.fhir.database.utils.api.IVersionHistoryService <|.. VersionHistoryService
        VersionHistoryService +- - com.ibm.fhir.database.utils.version.VersionHistoryService.TypeNameVersion
        com.ibm.fhir.database.utils.api.IDatabaseStatement <|.. AddVersionDAO
    }

    namespace com.ibm.fhir.database.utils.api {
        interface IDatabaseSupplier<T> [[../api/IDatabaseSupplier.html]] {
            {abstract} +run(IDatabaseTranslator, Connection): T
        }
        interface IVersionHistoryService [[../api/IVersionHistoryService.html]] {
            {abstract} +addVersion(String, String, String, int): void
            {abstract} +applies(String, String, String, int): boolean
            {abstract} +getVersion(String, String, String): Integer
        }
        interface IDatabaseStatement [[../api/IDatabaseStatement.html]] {
            {abstract} +run(IDatabaseTranslator, Connection): void
        }
    }

    center footer UMLDoclet 2.0.7, PlantUML 1.2019.12
@enduml

PlantUML version 1.2019.12(Sun Nov 03 10:24:54 UTC 2019)
(APACHE source distribution)
Java Runtime: OpenJDK Runtime Environment
JVM: OpenJDK 64-Bit Server VM
Java Version: 11.0.10+9
Operating System: Linux
Default Encoding: UTF-8
Language: en
Country: null
--></g></svg>